<?xml version="1.0" encoding="utf-8" standalone="no"?>
<!DOCTYPE svg PUBLIC "-//W3C//DTD SVG 1.1//EN"
  "http://www.w3.org/Graphics/SVG/1.1/DTD/svg11.dtd">
<!-- Created with matplotlib (https://matplotlib.org/) -->
<svg height="384.185301pt" version="1.1" viewBox="0 0 344.4 384.185301" width="344.4pt" xmlns="http://www.w3.org/2000/svg" xmlns:xlink="http://www.w3.org/1999/xlink">
 <defs>
  <style type="text/css">
*{stroke-linecap:butt;stroke-linejoin:round;}
  </style>
 </defs>
 <g id="figure_1">
  <g id="patch_1">
   <path d="M 0 384.185301 
L 344.4 384.185301 
L 344.4 0 
L 0 0 
z
" style="fill:#ffffff;"/>
  </g>
  <g id="axes_1">
   <g id="patch_2">
    <path d="M 97.656925 224.777301 
L 313.030556 224.777301 
L 313.030556 7.337301 
L 97.656925 7.337301 
z
" style="fill:#ffffff;"/>
   </g>
   <g id="line2d_1">
    <path clip-path="url(#pe6a4d8734b)" d="M 303.240846 17.220937 
L 254.827835 17.220937 
L 218.081405 17.220937 
L 190.1673 17.220937 
L 170.195697 17.220937 
L 158.627987 214.893665 
L 150.125225 214.893665 
L 144.720369 214.893665 
L 140.106468 214.893665 
L 136.184651 214.893665 
L 133.317441 214.893665 
L 130.647969 214.893665 
L 128.769452 214.893665 
L 126.825022 214.893665 
L 125.341983 214.893665 
L 123.891899 214.893665 
L 122.573642 214.893665 
L 121.551992 214.893665 
L 120.82695 214.893665 
L 120.332604 214.893665 
L 119.541649 214.893665 
L 118.98139 214.893665 
L 118.223392 214.893665 
L 117.663132 214.893665 
L 117.102873 214.893665 
L 116.641482 214.893665 
L 116.081223 214.893665 
L 115.685746 214.893665 
L 115.158443 214.893665 
L 114.828878 214.893665 
L 114.466357 214.893665 
L 114.169749 214.893665 
L 113.807229 214.893665 
L 113.576533 214.893665 
L 113.1481 214.893665 
L 112.884448 214.893665 
L 112.620797 214.893665 
L 112.423058 214.893665 
L 112.225319 214.893665 
L 111.994624 214.893665 
L 111.796886 214.893665 
L 111.566191 214.893665 
L 111.467321 214.893665 
L 111.302539 214.893665 
L 111.236626 214.893665 
L 111.137757 214.893665 
L 111.038888 214.893665 
L 110.841149 214.893665 
L 110.676367 214.893665 
L 110.64341 214.893665 
L 110.478628 214.893665 
L 110.247933 214.893665 
L 110.149064 214.893665 
L 110.083151 214.893665 
L 110.017238 214.893665 
L 109.852456 214.893665 
L 109.753586 214.893665 
L 109.654717 214.893665 
L 109.588804 214.893665 
L 109.522891 214.893665 
L 109.358109 214.893665 
L 109.325153 214.893665 
L 109.325153 214.893665 
L 109.193327 214.893665 
L 109.193327 214.893665 
L 109.094458 214.893665 
L 109.061501 214.893665 
L 109.028545 214.893665 
L 108.995588 214.893665 
L 108.863763 214.893665 
L 108.79785 214.893665 
L 108.764893 214.893665 
L 108.69898 214.893665 
L 108.666024 214.893665 
L 108.567155 214.893665 
L 108.435329 214.893665 
L 108.369416 214.893665 
L 108.369416 214.893665 
L 108.270547 214.893665 
L 108.23759 214.893665 
L 108.204634 214.893665 
L 108.138721 214.893665 
L 108.138721 214.893665 
L 108.105764 214.893665 
L 108.105764 214.893665 
L 108.039852 214.893665 
L 108.039852 214.893665 
L 108.039852 214.893665 
L 107.973939 214.893665 
L 107.908026 214.893665 
L 107.809156 214.893665 
L 107.743244 214.893665 
L 107.743244 214.893665 
L 107.677331 214.893665 
L 107.677331 214.893665 
L 107.677331 214.893665 
L 107.611418 214.893665 
L 107.578461 214.893665 
L 107.545505 214.893665 
L 107.479592 214.893665 
L 107.446636 214.893665 
" style="fill:none;stroke:#1f77b4;stroke-linecap:square;stroke-width:3;"/>
   </g>
   <g id="PathCollection_1">
    <defs>
     <path d="M 0 5 
C 1.326016 5 2.597899 4.473168 3.535534 3.535534 
C 4.473168 2.597899 5 1.326016 5 0 
C 5 -1.326016 4.473168 -2.597899 3.535534 -3.535534 
C 2.597899 -4.473168 1.326016 -5 0 -5 
C -1.326016 -5 -2.597899 -4.473168 -3.535534 -3.535534 
C -4.473168 -2.597899 -5 -1.326016 -5 0 
C -5 1.326016 -4.473168 2.597899 -3.535534 3.535534 
C -2.597899 4.473168 -1.326016 5 0 5 
z
" id="m39209bdaa0" style="stroke:#000000;"/>
    </defs>
    <g clip-path="url(#pe6a4d8734b)">
     <use style="stroke:#000000;" x="170.195697" xlink:href="#m39209bdaa0" y="17.220937"/>
    </g>
   </g>
   <g id="matplotlib.axis_1">
    <g id="xtick_1">
     <g id="line2d_2">
      <defs>
       <path d="M 0 0 
L 0 3.5 
" id="m38c0e83bfd" style="stroke:#000000;stroke-width:0.8;"/>
      </defs>
      <g>
       <use style="stroke:#000000;stroke-width:0.8;" x="105.568119" xlink:href="#m38c0e83bfd" y="224.777301"/>
      </g>
     </g>
     <g id="text_1">
      <!-- 0.0 -->
      <defs>
       <path d="M 4.15625 35.296875 
Q 4.15625 48 6.765625 55.734375 
Q 9.375 63.484375 14.515625 67.671875 
Q 19.671875 71.875 27.484375 71.875 
Q 33.25 71.875 37.59375 69.546875 
Q 41.9375 67.234375 44.765625 62.859375 
Q 47.609375 58.5 49.21875 52.21875 
Q 50.828125 45.953125 50.828125 35.296875 
Q 50.828125 22.703125 48.234375 14.96875 
Q 45.65625 7.234375 40.5 3 
Q 35.359375 -1.21875 27.484375 -1.21875 
Q 17.140625 -1.21875 11.234375 6.203125 
Q 4.15625 15.140625 4.15625 35.296875 
z
M 13.1875 35.296875 
Q 13.1875 17.671875 17.3125 11.828125 
Q 21.4375 6 27.484375 6 
Q 33.546875 6 37.671875 11.859375 
Q 41.796875 17.71875 41.796875 35.296875 
Q 41.796875 52.984375 37.671875 58.78125 
Q 33.546875 64.59375 27.390625 64.59375 
Q 21.34375 64.59375 17.71875 59.46875 
Q 13.1875 52.9375 13.1875 35.296875 
z
" id="ArialMT-48"/>
       <path d="M 9.078125 0 
L 9.078125 10.015625 
L 19.09375 10.015625 
L 19.09375 0 
z
" id="ArialMT-46"/>
      </defs>
      <g transform="translate(86.108119 251.819176)scale(0.28 -0.28)">
       <use xlink:href="#ArialMT-48"/>
       <use x="55.615234" xlink:href="#ArialMT-46"/>
       <use x="83.398438" xlink:href="#ArialMT-48"/>
      </g>
     </g>
    </g>
    <g id="xtick_2">
     <g id="line2d_3">
      <g>
       <use style="stroke:#000000;stroke-width:0.8;" x="204.404482" xlink:href="#m38c0e83bfd" y="224.777301"/>
      </g>
     </g>
     <g id="text_2">
      <!-- 0.5 -->
      <defs>
       <path d="M 4.15625 18.75 
L 13.375 19.53125 
Q 14.40625 12.796875 18.140625 9.390625 
Q 21.875 6 27.15625 6 
Q 33.5 6 37.890625 10.78125 
Q 42.28125 15.578125 42.28125 23.484375 
Q 42.28125 31 38.0625 35.34375 
Q 33.84375 39.703125 27 39.703125 
Q 22.75 39.703125 19.328125 37.765625 
Q 15.921875 35.84375 13.96875 32.765625 
L 5.71875 33.84375 
L 12.640625 70.609375 
L 48.25 70.609375 
L 48.25 62.203125 
L 19.671875 62.203125 
L 15.828125 42.96875 
Q 22.265625 47.46875 29.34375 47.46875 
Q 38.71875 47.46875 45.15625 40.96875 
Q 51.609375 34.46875 51.609375 24.265625 
Q 51.609375 14.546875 45.953125 7.46875 
Q 39.0625 -1.21875 27.15625 -1.21875 
Q 17.390625 -1.21875 11.203125 4.25 
Q 5.03125 9.71875 4.15625 18.75 
z
" id="ArialMT-53"/>
      </defs>
      <g transform="translate(184.944482 251.819176)scale(0.28 -0.28)">
       <use xlink:href="#ArialMT-48"/>
       <use x="55.615234" xlink:href="#ArialMT-46"/>
       <use x="83.398438" xlink:href="#ArialMT-53"/>
      </g>
     </g>
    </g>
    <g id="xtick_3">
     <g id="line2d_4">
      <g>
       <use style="stroke:#000000;stroke-width:0.8;" x="303.240846" xlink:href="#m38c0e83bfd" y="224.777301"/>
      </g>
     </g>
     <g id="text_3">
      <!-- 1.0 -->
      <defs>
       <path d="M 37.25 0 
L 28.46875 0 
L 28.46875 56 
Q 25.296875 52.984375 20.140625 49.953125 
Q 14.984375 46.921875 10.890625 45.40625 
L 10.890625 53.90625 
Q 18.265625 57.375 23.78125 62.296875 
Q 29.296875 67.234375 31.59375 71.875 
L 37.25 71.875 
z
" id="ArialMT-49"/>
      </defs>
      <g transform="translate(283.780846 251.819176)scale(0.28 -0.28)">
       <use xlink:href="#ArialMT-49"/>
       <use x="55.615234" xlink:href="#ArialMT-46"/>
       <use x="83.398438" xlink:href="#ArialMT-48"/>
      </g>
     </g>
    </g>
    <g id="text_4">
     <!-- FPR -->
     <defs>
      <path d="M 8.203125 0 
L 8.203125 71.578125 
L 56.5 71.578125 
L 56.5 63.140625 
L 17.671875 63.140625 
L 17.671875 40.96875 
L 51.265625 40.96875 
L 51.265625 32.515625 
L 17.671875 32.515625 
L 17.671875 0 
z
" id="ArialMT-70"/>
      <path d="M 7.71875 0 
L 7.71875 71.578125 
L 34.71875 71.578125 
Q 41.84375 71.578125 45.609375 70.90625 
Q 50.875 70.015625 54.4375 67.546875 
Q 58.015625 65.09375 60.1875 60.640625 
Q 62.359375 56.203125 62.359375 50.875 
Q 62.359375 41.75 56.546875 35.421875 
Q 50.734375 29.109375 35.546875 29.109375 
L 17.1875 29.109375 
L 17.1875 0 
z
M 17.1875 37.546875 
L 35.6875 37.546875 
Q 44.875 37.546875 48.734375 40.96875 
Q 52.59375 44.390625 52.59375 50.59375 
Q 52.59375 55.078125 50.3125 58.265625 
Q 48.046875 61.46875 44.34375 62.5 
Q 41.9375 63.140625 35.5 63.140625 
L 17.1875 63.140625 
z
" id="ArialMT-80"/>
      <path d="M 7.859375 0 
L 7.859375 71.578125 
L 39.59375 71.578125 
Q 49.171875 71.578125 54.140625 69.640625 
Q 59.125 67.71875 62.109375 62.828125 
Q 65.09375 57.953125 65.09375 52.046875 
Q 65.09375 44.4375 60.15625 39.203125 
Q 55.21875 33.984375 44.921875 32.5625 
Q 48.6875 30.765625 50.640625 29 
Q 54.78125 25.203125 58.5 19.484375 
L 70.953125 0 
L 59.03125 0 
L 49.5625 14.890625 
Q 45.40625 21.34375 42.71875 24.75 
Q 40.046875 28.171875 37.921875 29.53125 
Q 35.796875 30.90625 33.59375 31.453125 
Q 31.984375 31.78125 28.328125 31.78125 
L 17.328125 31.78125 
L 17.328125 0 
z
M 17.328125 39.984375 
L 37.703125 39.984375 
Q 44.1875 39.984375 47.84375 41.328125 
Q 51.515625 42.671875 53.421875 45.625 
Q 55.328125 48.578125 55.328125 52.046875 
Q 55.328125 57.125 51.640625 60.390625 
Q 47.953125 63.671875 39.984375 63.671875 
L 17.328125 63.671875 
z
" id="ArialMT-82"/>
     </defs>
     <g transform="translate(177.343741 281.426051)scale(0.28 -0.28)">
      <use xlink:href="#ArialMT-70"/>
      <use x="61.083984" xlink:href="#ArialMT-80"/>
      <use x="127.783203" xlink:href="#ArialMT-82"/>
     </g>
    </g>
   </g>
   <g id="matplotlib.axis_2">
    <g id="ytick_1">
     <g id="line2d_5">
      <defs>
       <path d="M 0 0 
L -3.5 0 
" id="m42ca182118" style="stroke:#000000;stroke-width:0.8;"/>
      </defs>
      <g>
       <use style="stroke:#000000;stroke-width:0.8;" x="97.656925" xlink:href="#m42ca182118" y="214.893665"/>
      </g>
     </g>
     <g id="text_5">
      <!-- 0.0 -->
      <g transform="translate(51.736925 224.914602)scale(0.28 -0.28)">
       <use xlink:href="#ArialMT-48"/>
       <use x="55.615234" xlink:href="#ArialMT-46"/>
       <use x="83.398438" xlink:href="#ArialMT-48"/>
      </g>
     </g>
    </g>
    <g id="ytick_2">
     <g id="line2d_6">
      <g>
       <use style="stroke:#000000;stroke-width:0.8;" x="97.656925" xlink:href="#m42ca182118" y="116.057301"/>
      </g>
     </g>
     <g id="text_6">
      <!-- 0.5 -->
      <g transform="translate(51.736925 126.078239)scale(0.28 -0.28)">
       <use xlink:href="#ArialMT-48"/>
       <use x="55.615234" xlink:href="#ArialMT-46"/>
       <use x="83.398438" xlink:href="#ArialMT-53"/>
      </g>
     </g>
    </g>
    <g id="ytick_3">
     <g id="line2d_7">
      <g>
       <use style="stroke:#000000;stroke-width:0.8;" x="97.656925" xlink:href="#m42ca182118" y="17.220937"/>
      </g>
     </g>
     <g id="text_7">
      <!-- 1.0 -->
      <g transform="translate(51.736925 27.241875)scale(0.28 -0.28)">
       <use xlink:href="#ArialMT-49"/>
       <use x="55.615234" xlink:href="#ArialMT-46"/>
       <use x="83.398438" xlink:href="#ArialMT-48"/>
      </g>
     </g>
    </g>
    <g id="text_8">
     <!-- TPR -->
     <defs>
      <path d="M 25.921875 0 
L 25.921875 63.140625 
L 2.34375 63.140625 
L 2.34375 71.578125 
L 59.078125 71.578125 
L 59.078125 63.140625 
L 35.40625 63.140625 
L 35.40625 0 
z
" id="ArialMT-84"/>
     </defs>
     <g transform="translate(42.171925 144.057301)rotate(-90)scale(0.28 -0.28)">
      <use xlink:href="#ArialMT-84"/>
      <use x="61.083984" xlink:href="#ArialMT-80"/>
      <use x="127.783203" xlink:href="#ArialMT-82"/>
     </g>
    </g>
   </g>
   <g id="patch_3">
    <path d="M 97.656925 224.777301 
L 97.656925 7.337301 
" style="fill:none;stroke:#000000;stroke-linecap:square;stroke-linejoin:miter;stroke-width:0.8;"/>
   </g>
   <g id="patch_4">
    <path d="M 313.030556 224.777301 
L 313.030556 7.337301 
" style="fill:none;stroke:#000000;stroke-linecap:square;stroke-linejoin:miter;stroke-width:0.8;"/>
   </g>
   <g id="patch_5">
    <path d="M 97.656925 224.777301 
L 313.030556 224.777301 
" style="fill:none;stroke:#000000;stroke-linecap:square;stroke-linejoin:miter;stroke-width:0.8;"/>
   </g>
   <g id="patch_6">
    <path d="M 97.656925 7.337301 
L 313.030556 7.337301 
" style="fill:none;stroke:#000000;stroke-linecap:square;stroke-linejoin:miter;stroke-width:0.8;"/>
   </g>
   <g id="legend_1">
    <g id="patch_7">
     <path d="M 11.6 376.985301 
L 332.8 376.985301 
Q 337.2 376.985301 337.2 372.585301 
L 337.2 308.785301 
Q 337.2 304.385301 332.8 304.385301 
L 11.6 304.385301 
Q 7.2 304.385301 7.2 308.785301 
L 7.2 372.585301 
Q 7.2 376.985301 11.6 376.985301 
z
" style="fill:#ffffff;opacity:0.8;stroke:#cccccc;stroke-linejoin:miter;"/>
    </g>
    <g id="line2d_8">
     <path d="M 16 321.545301 
L 60 321.545301 
" style="fill:none;stroke:#1f77b4;stroke-linecap:square;stroke-width:3;"/>
    </g>
    <g id="line2d_9"/>
    <g id="text_9">
     <!-- ROC curve (AUC = $0.702$) -->
     <defs>
      <path d="M 4.828125 34.859375 
Q 4.828125 52.6875 14.390625 62.765625 
Q 23.96875 72.859375 39.109375 72.859375 
Q 49.03125 72.859375 56.984375 68.109375 
Q 64.9375 63.375 69.109375 54.90625 
Q 73.296875 46.4375 73.296875 35.6875 
Q 73.296875 24.8125 68.890625 16.21875 
Q 64.5 7.625 56.4375 3.203125 
Q 48.390625 -1.21875 39.0625 -1.21875 
Q 28.953125 -1.21875 20.984375 3.65625 
Q 13.03125 8.546875 8.921875 16.984375 
Q 4.828125 25.4375 4.828125 34.859375 
z
M 14.59375 34.71875 
Q 14.59375 21.78125 21.546875 14.328125 
Q 28.515625 6.890625 39.015625 6.890625 
Q 49.703125 6.890625 56.609375 14.40625 
Q 63.53125 21.921875 63.53125 35.75 
Q 63.53125 44.484375 60.578125 51 
Q 57.625 57.515625 51.921875 61.109375 
Q 46.234375 64.703125 39.15625 64.703125 
Q 29.109375 64.703125 21.84375 57.78125 
Q 14.59375 50.875 14.59375 34.71875 
z
" id="ArialMT-79"/>
      <path d="M 58.796875 25.09375 
L 68.265625 22.703125 
Q 65.28125 11.03125 57.546875 4.90625 
Q 49.8125 -1.21875 38.625 -1.21875 
Q 27.046875 -1.21875 19.796875 3.484375 
Q 12.546875 8.203125 8.765625 17.140625 
Q 4.984375 26.078125 4.984375 36.328125 
Q 4.984375 47.515625 9.25 55.828125 
Q 13.53125 64.15625 21.40625 68.46875 
Q 29.296875 72.796875 38.765625 72.796875 
Q 49.515625 72.796875 56.828125 67.328125 
Q 64.15625 61.859375 67.046875 51.953125 
L 57.71875 49.75 
Q 55.21875 57.5625 50.484375 61.125 
Q 45.75 64.703125 38.578125 64.703125 
Q 30.328125 64.703125 24.78125 60.734375 
Q 19.234375 56.78125 16.984375 50.109375 
Q 14.75 43.453125 14.75 36.375 
Q 14.75 27.25 17.40625 20.4375 
Q 20.0625 13.625 25.671875 10.25 
Q 31.296875 6.890625 37.84375 6.890625 
Q 45.796875 6.890625 51.3125 11.46875 
Q 56.84375 16.0625 58.796875 25.09375 
z
" id="ArialMT-67"/>
      <path id="ArialMT-32"/>
      <path d="M 40.4375 19 
L 49.078125 17.875 
Q 47.65625 8.9375 41.8125 3.875 
Q 35.984375 -1.171875 27.484375 -1.171875 
Q 16.84375 -1.171875 10.375 5.78125 
Q 3.90625 12.75 3.90625 25.734375 
Q 3.90625 34.125 6.6875 40.421875 
Q 9.46875 46.734375 15.15625 49.875 
Q 20.84375 53.03125 27.546875 53.03125 
Q 35.984375 53.03125 41.359375 48.75 
Q 46.734375 44.484375 48.25 36.625 
L 39.703125 35.296875 
Q 38.484375 40.53125 35.375 43.15625 
Q 32.28125 45.796875 27.875 45.796875 
Q 21.234375 45.796875 17.078125 41.03125 
Q 12.9375 36.28125 12.9375 25.984375 
Q 12.9375 15.53125 16.9375 10.796875 
Q 20.953125 6.0625 27.390625 6.0625 
Q 32.5625 6.0625 36.03125 9.234375 
Q 39.5 12.40625 40.4375 19 
z
" id="ArialMT-99"/>
      <path d="M 40.578125 0 
L 40.578125 7.625 
Q 34.515625 -1.171875 24.125 -1.171875 
Q 19.53125 -1.171875 15.546875 0.578125 
Q 11.578125 2.34375 9.640625 5 
Q 7.71875 7.671875 6.9375 11.53125 
Q 6.390625 14.109375 6.390625 19.734375 
L 6.390625 51.859375 
L 15.1875 51.859375 
L 15.1875 23.09375 
Q 15.1875 16.21875 15.71875 13.8125 
Q 16.546875 10.359375 19.234375 8.375 
Q 21.921875 6.390625 25.875 6.390625 
Q 29.828125 6.390625 33.296875 8.421875 
Q 36.765625 10.453125 38.203125 13.9375 
Q 39.65625 17.4375 39.65625 24.078125 
L 39.65625 51.859375 
L 48.4375 51.859375 
L 48.4375 0 
z
" id="ArialMT-117"/>
      <path d="M 6.5 0 
L 6.5 51.859375 
L 14.40625 51.859375 
L 14.40625 44 
Q 17.4375 49.515625 20 51.265625 
Q 22.5625 53.03125 25.640625 53.03125 
Q 30.078125 53.03125 34.671875 50.203125 
L 31.640625 42.046875 
Q 28.421875 43.953125 25.203125 43.953125 
Q 22.3125 43.953125 20.015625 42.21875 
Q 17.71875 40.484375 16.75 37.40625 
Q 15.28125 32.71875 15.28125 27.15625 
L 15.28125 0 
z
" id="ArialMT-114"/>
      <path d="M 21 0 
L 1.265625 51.859375 
L 10.546875 51.859375 
L 21.6875 20.796875 
Q 23.484375 15.765625 25 10.359375 
Q 26.171875 14.453125 28.265625 20.21875 
L 39.796875 51.859375 
L 48.828125 51.859375 
L 29.203125 0 
z
" id="ArialMT-118"/>
      <path d="M 42.09375 16.703125 
L 51.171875 15.578125 
Q 49.03125 7.625 43.21875 3.21875 
Q 37.40625 -1.171875 28.375 -1.171875 
Q 17 -1.171875 10.328125 5.828125 
Q 3.65625 12.84375 3.65625 25.484375 
Q 3.65625 38.578125 10.390625 45.796875 
Q 17.140625 53.03125 27.875 53.03125 
Q 38.28125 53.03125 44.875 45.953125 
Q 51.46875 38.875 51.46875 26.03125 
Q 51.46875 25.25 51.421875 23.6875 
L 12.75 23.6875 
Q 13.234375 15.140625 17.578125 10.59375 
Q 21.921875 6.0625 28.421875 6.0625 
Q 33.25 6.0625 36.671875 8.59375 
Q 40.09375 11.140625 42.09375 16.703125 
z
M 13.234375 30.90625 
L 42.1875 30.90625 
Q 41.609375 37.453125 38.875 40.71875 
Q 34.671875 45.796875 27.984375 45.796875 
Q 21.921875 45.796875 17.796875 41.75 
Q 13.671875 37.703125 13.234375 30.90625 
z
" id="ArialMT-101"/>
      <path d="M 23.390625 -21.046875 
Q 16.109375 -11.859375 11.078125 0.4375 
Q 6.0625 12.75 6.0625 25.921875 
Q 6.0625 37.546875 9.8125 48.1875 
Q 14.203125 60.546875 23.390625 72.796875 
L 29.6875 72.796875 
Q 23.78125 62.640625 21.875 58.296875 
Q 18.890625 51.5625 17.1875 44.234375 
Q 15.09375 35.109375 15.09375 25.875 
Q 15.09375 2.390625 29.6875 -21.046875 
z
" id="ArialMT-40"/>
      <path d="M -0.140625 0 
L 27.34375 71.578125 
L 37.546875 71.578125 
L 66.84375 0 
L 56.0625 0 
L 47.703125 21.6875 
L 17.78125 21.6875 
L 9.90625 0 
z
M 20.515625 29.390625 
L 44.78125 29.390625 
L 37.3125 49.21875 
Q 33.890625 58.25 32.234375 64.0625 
Q 30.859375 57.171875 28.375 50.390625 
z
" id="ArialMT-65"/>
      <path d="M 54.6875 71.578125 
L 64.15625 71.578125 
L 64.15625 30.21875 
Q 64.15625 19.4375 61.71875 13.078125 
Q 59.28125 6.734375 52.90625 2.75 
Q 46.53125 -1.21875 36.1875 -1.21875 
Q 26.125 -1.21875 19.71875 2.25 
Q 13.328125 5.71875 10.59375 12.28125 
Q 7.859375 18.84375 7.859375 30.21875 
L 7.859375 71.578125 
L 17.328125 71.578125 
L 17.328125 30.28125 
Q 17.328125 20.953125 19.0625 16.53125 
Q 20.796875 12.109375 25.015625 9.71875 
Q 29.25 7.328125 35.359375 7.328125 
Q 45.796875 7.328125 50.234375 12.0625 
Q 54.6875 16.796875 54.6875 30.28125 
z
" id="ArialMT-85"/>
      <path d="M 52.828125 42.09375 
L 5.5625 42.09375 
L 5.5625 50.296875 
L 52.828125 50.296875 
z
M 52.828125 20.359375 
L 5.5625 20.359375 
L 5.5625 28.5625 
L 52.828125 28.5625 
z
" id="ArialMT-61"/>
      <path d="M 47.59375 33 
Q 47.59375 26.296875 46.296875 20.34375 
Q 45 14.40625 42.453125 9.40625 
Q 39.90625 4.40625 35.40625 1.5 
Q 30.90625 -1.40625 25 -1.40625 
Q 18.90625 -1.40625 14.296875 1.6875 
Q 9.703125 4.796875 7.203125 10 
Q 4.703125 15.203125 3.546875 21.09375 
Q 2.40625 27 2.40625 33.59375 
Q 2.40625 42.90625 4.703125 50.34375 
Q 7 57.796875 12.34375 62.6875 
Q 17.703125 67.59375 25.40625 67.59375 
Q 35.203125 67.59375 41.390625 58 
Q 47.59375 48.40625 47.59375 33 
z
M 38 32.5 
Q 38 48.296875 34.640625 56.640625 
Q 31.296875 65 24.796875 65 
Q 18.59375 65 15.296875 56.59375 
Q 12 48.203125 12 32.90625 
Q 12 17.5 15.296875 9.34375 
Q 18.59375 1.203125 25 1.203125 
Q 31.296875 1.203125 34.640625 9.34375 
Q 38 17.5 38 32.5 
z
" id="STIXGeneral-Regular-48"/>
      <path d="M 18.09375 4.296875 
Q 18.09375 2.09375 16.4375 0.5 
Q 14.796875 -1.09375 12.5 -1.09375 
Q 10.203125 -1.09375 8.59375 0.5 
Q 7 2.09375 7 4.390625 
Q 7 6.703125 8.640625 8.34375 
Q 10.296875 10 12.59375 10 
Q 14.796875 10 16.4375 8.296875 
Q 18.09375 6.59375 18.09375 4.296875 
z
" id="STIXGeneral-Regular-46"/>
      <path d="M 44.90625 64.59375 
L 23.703125 -0.796875 
L 17.203125 -0.796875 
L 37 58.796875 
L 15.5 58.796875 
Q 11.203125 58.796875 9.09375 57.296875 
Q 7 55.796875 3.796875 50.59375 
L 2 51.5 
L 8 66.203125 
L 44.90625 66.203125 
z
" id="STIXGeneral-Regular-55"/>
      <path d="M 47.40625 13.703125 
L 42 0 
L 2.90625 0 
L 2.90625 1.203125 
L 20.703125 20.09375 
Q 27.703125 27.40625 30.703125 33.5 
Q 33.703125 39.59375 33.703125 46.09375 
Q 33.703125 52.796875 30 56.5 
Q 26.296875 60.203125 19.796875 60.203125 
Q 14.40625 60.203125 11.25 57.390625 
Q 8.09375 54.59375 5.09375 47.203125 
L 3 47.703125 
Q 4.703125 57 9.84375 62.296875 
Q 15 67.59375 23.796875 67.59375 
Q 32.09375 67.59375 37.1875 62.59375 
Q 42.296875 57.59375 42.296875 50 
Q 42.296875 38.703125 29.5 25.203125 
L 13 7.59375 
L 36.40625 7.59375 
Q 39.703125 7.59375 41.640625 8.890625 
Q 43.59375 10.203125 46 14.296875 
z
" id="STIXGeneral-Regular-50"/>
      <path d="M 12.359375 -21.046875 
L 6.0625 -21.046875 
Q 20.65625 2.390625 20.65625 25.875 
Q 20.65625 35.0625 18.5625 44.09375 
Q 16.890625 51.421875 13.921875 58.15625 
Q 12.015625 62.546875 6.0625 72.796875 
L 12.359375 72.796875 
Q 21.53125 60.546875 25.921875 48.1875 
Q 29.6875 37.546875 29.6875 25.921875 
Q 29.6875 12.75 24.625 0.4375 
Q 19.578125 -11.859375 12.359375 -21.046875 
z
" id="ArialMT-41"/>
     </defs>
     <g transform="translate(77.6 329.245301)scale(0.22 -0.22)">
      <use transform="translate(0 0.140625)" xlink:href="#ArialMT-82"/>
      <use transform="translate(72.216797 0.140625)" xlink:href="#ArialMT-79"/>
      <use transform="translate(150 0.140625)" xlink:href="#ArialMT-67"/>
      <use transform="translate(222.216797 0.140625)" xlink:href="#ArialMT-32"/>
      <use transform="translate(250 0.140625)" xlink:href="#ArialMT-99"/>
      <use transform="translate(300 0.140625)" xlink:href="#ArialMT-117"/>
      <use transform="translate(355.615234 0.140625)" xlink:href="#ArialMT-114"/>
      <use transform="translate(388.916016 0.140625)" xlink:href="#ArialMT-118"/>
      <use transform="translate(438.916016 0.140625)" xlink:href="#ArialMT-101"/>
      <use transform="translate(494.53125 0.140625)" xlink:href="#ArialMT-32"/>
      <use transform="translate(522.314453 0.140625)" xlink:href="#ArialMT-40"/>
      <use transform="translate(555.615234 0.140625)" xlink:href="#ArialMT-65"/>
      <use transform="translate(622.314453 0.140625)" xlink:href="#ArialMT-85"/>
      <use transform="translate(694.53125 0.140625)" xlink:href="#ArialMT-67"/>
      <use transform="translate(766.748047 0.140625)" xlink:href="#ArialMT-32"/>
      <use transform="translate(794.53125 0.140625)" xlink:href="#ArialMT-61"/>
      <use transform="translate(852.929688 0.140625)" xlink:href="#ArialMT-32"/>
      <use transform="translate(880.712891 0.140625)" xlink:href="#STIXGeneral-Regular-48"/>
      <use transform="translate(930.712875 0.140625)" xlink:href="#STIXGeneral-Regular-46"/>
      <use transform="translate(955.71286 0.140625)" xlink:href="#STIXGeneral-Regular-55"/>
      <use transform="translate(1005.712845 0.140625)" xlink:href="#STIXGeneral-Regular-48"/>
      <use transform="translate(1055.71283 0.140625)" xlink:href="#STIXGeneral-Regular-50"/>
      <use transform="translate(1105.712814 0.140625)" xlink:href="#ArialMT-41"/>
     </g>
    </g>
    <g id="PathCollection_2">
     <g>
      <use style="stroke:#000000;" x="38" xlink:href="#m39209bdaa0" y="357.570301"/>
     </g>
    </g>
    <g id="text_10">
     <!--  Threshold ($\zeta^* &lt;~\mu$) -->
     <defs>
      <path d="M 6.59375 0 
L 6.59375 71.578125 
L 15.375 71.578125 
L 15.375 45.90625 
Q 21.53125 53.03125 30.90625 53.03125 
Q 36.671875 53.03125 40.921875 50.75 
Q 45.171875 48.484375 47 44.484375 
Q 48.828125 40.484375 48.828125 32.859375 
L 48.828125 0 
L 40.046875 0 
L 40.046875 32.859375 
Q 40.046875 39.453125 37.1875 42.453125 
Q 34.328125 45.453125 29.109375 45.453125 
Q 25.203125 45.453125 21.75 43.421875 
Q 18.3125 41.40625 16.84375 37.9375 
Q 15.375 34.46875 15.375 28.375 
L 15.375 0 
z
" id="ArialMT-104"/>
      <path d="M 3.078125 15.484375 
L 11.765625 16.84375 
Q 12.5 11.625 15.84375 8.84375 
Q 19.1875 6.0625 25.203125 6.0625 
Q 31.25 6.0625 34.171875 8.515625 
Q 37.109375 10.984375 37.109375 14.3125 
Q 37.109375 17.28125 34.515625 19 
Q 32.71875 20.171875 25.53125 21.96875 
Q 15.875 24.421875 12.140625 26.203125 
Q 8.40625 27.984375 6.46875 31.125 
Q 4.546875 34.28125 4.546875 38.09375 
Q 4.546875 41.546875 6.125 44.5 
Q 7.71875 47.46875 10.453125 49.421875 
Q 12.5 50.921875 16.03125 51.96875 
Q 19.578125 53.03125 23.640625 53.03125 
Q 29.734375 53.03125 34.34375 51.265625 
Q 38.96875 49.515625 41.15625 46.5 
Q 43.359375 43.5 44.1875 38.484375 
L 35.59375 37.3125 
Q 35.015625 41.3125 32.203125 43.546875 
Q 29.390625 45.796875 24.265625 45.796875 
Q 18.21875 45.796875 15.625 43.796875 
Q 13.03125 41.796875 13.03125 39.109375 
Q 13.03125 37.40625 14.109375 36.03125 
Q 15.1875 34.625 17.484375 33.6875 
Q 18.796875 33.203125 25.25 31.453125 
Q 34.578125 28.953125 38.25 27.359375 
Q 41.9375 25.78125 44.03125 22.75 
Q 46.140625 19.734375 46.140625 15.234375 
Q 46.140625 10.84375 43.578125 6.953125 
Q 41.015625 3.078125 36.171875 0.953125 
Q 31.34375 -1.171875 25.25 -1.171875 
Q 15.140625 -1.171875 9.84375 3.03125 
Q 4.546875 7.234375 3.078125 15.484375 
z
" id="ArialMT-115"/>
      <path d="M 3.328125 25.921875 
Q 3.328125 40.328125 11.328125 47.265625 
Q 18.015625 53.03125 27.640625 53.03125 
Q 38.328125 53.03125 45.109375 46.015625 
Q 51.90625 39.015625 51.90625 26.65625 
Q 51.90625 16.65625 48.90625 10.90625 
Q 45.90625 5.171875 40.15625 2 
Q 34.421875 -1.171875 27.640625 -1.171875 
Q 16.75 -1.171875 10.03125 5.8125 
Q 3.328125 12.796875 3.328125 25.921875 
z
M 12.359375 25.921875 
Q 12.359375 15.96875 16.703125 11.015625 
Q 21.046875 6.0625 27.640625 6.0625 
Q 34.1875 6.0625 38.53125 11.03125 
Q 42.875 16.015625 42.875 26.21875 
Q 42.875 35.84375 38.5 40.796875 
Q 34.125 45.75 27.640625 45.75 
Q 21.046875 45.75 16.703125 40.8125 
Q 12.359375 35.890625 12.359375 25.921875 
z
" id="ArialMT-111"/>
      <path d="M 6.390625 0 
L 6.390625 71.578125 
L 15.1875 71.578125 
L 15.1875 0 
z
" id="ArialMT-108"/>
      <path d="M 40.234375 0 
L 40.234375 6.546875 
Q 35.296875 -1.171875 25.734375 -1.171875 
Q 19.53125 -1.171875 14.328125 2.25 
Q 9.125 5.671875 6.265625 11.796875 
Q 3.421875 17.921875 3.421875 25.875 
Q 3.421875 33.640625 6 39.96875 
Q 8.59375 46.296875 13.765625 49.65625 
Q 18.953125 53.03125 25.34375 53.03125 
Q 30.03125 53.03125 33.6875 51.046875 
Q 37.359375 49.078125 39.65625 45.90625 
L 39.65625 71.578125 
L 48.390625 71.578125 
L 48.390625 0 
z
M 12.453125 25.875 
Q 12.453125 15.921875 16.640625 10.984375 
Q 20.84375 6.0625 26.5625 6.0625 
Q 32.328125 6.0625 36.34375 10.765625 
Q 40.375 15.484375 40.375 25.140625 
Q 40.375 35.796875 36.265625 40.765625 
Q 32.171875 45.75 26.171875 45.75 
Q 20.3125 45.75 16.375 40.96875 
Q 12.453125 36.1875 12.453125 25.875 
z
" id="ArialMT-100"/>
      <path d="M 29 68.296875 
L 29.5 66.796875 
Q 26 65.5 24.09375 63.59375 
Q 22.203125 61.703125 22.203125 59.796875 
Q 22.203125 55.796875 27 55 
Q 30 58.59375 35.390625 62.140625 
Q 40.796875 65.703125 44.40625 65.703125 
Q 47.5 65.703125 47.5 63.203125 
Q 47.5 59.90625 41.34375 56.25 
Q 35.203125 52.59375 28.5 52 
Q 21.40625 47.203125 14.75 36.34375 
Q 8.09375 25.5 8.09375 16.296875 
Q 8.09375 11.40625 10.84375 9.203125 
Q 13.59375 7 19 7 
Q 19.703125 7 21.09375 7.046875 
Q 22.5 7.09375 22.796875 7.09375 
Q 29.09375 7.09375 32.5 4.59375 
Q 35.90625 2.09375 35.90625 -2.09375 
Q 35.90625 -6.59375 33.09375 -10.59375 
Q 30.90625 -14 27 -16.25 
Q 23.09375 -18.5 19.703125 -18.5 
Q 16.90625 -18.5 14.953125 -17.203125 
Q 13 -15.90625 13 -13.296875 
Q 13 -11.59375 14.203125 -10.34375 
Q 15.40625 -9.09375 17.296875 -9.09375 
Q 18.90625 -9.09375 20.75 -10.546875 
Q 22.59375 -12 23.796875 -12 
Q 27.09375 -12 29.5 -10.046875 
Q 31.90625 -8.09375 31.90625 -5.09375 
Q 31.90625 -0.09375 24.296875 -0.09375 
Q 23 -0.09375 19.84375 -0.59375 
Q 16.703125 -1.09375 15.203125 -1.09375 
Q 3 -1.09375 3 10.703125 
Q 3 31.5 24.203125 52.203125 
L 24.09375 52.296875 
Q 21.5 52.296875 19.296875 53.84375 
Q 17.09375 55.40625 17.09375 58.09375 
Q 17.09375 61.296875 20.140625 64.046875 
Q 23.203125 66.796875 29 68.296875 
z
" id="STIXGeneral-Italic-950"/>
      <path d="M 26.796875 47.09375 
L 27.703125 46.5 
Q 31.40625 44.09375 37.296875 43.09375 
Q 40.703125 42.59375 42 41.640625 
Q 43.296875 40.703125 43.296875 38.796875 
Q 43.296875 37.09375 42.296875 36 
Q 41.296875 34.90625 39.703125 34.90625 
Q 37.203125 34.90625 33.703125 39.296875 
Q 31.40625 42.09375 26.796875 45.09375 
L 26 45.59375 
L 26 44.703125 
Q 26 39.09375 28 33.703125 
Q 28.90625 31.203125 28.90625 30.40625 
Q 28.90625 28.90625 27.65625 27.703125 
Q 26.40625 26.5 24.90625 26.5 
Q 23.5 26.5 22.390625 27.59375 
Q 21.296875 28.703125 21.296875 30.09375 
Q 21.296875 31.5 22.5 34.796875 
Q 24.09375 39.09375 24.09375 44.703125 
L 24.09375 45.59375 
Q 20.09375 43.09375 18.90625 42 
Q 17.703125 40.796875 14.796875 37.5 
Q 12.59375 35 10.5 35 
Q 8.796875 35 7.796875 36 
Q 6.796875 37 6.796875 38.59375 
Q 6.796875 40.5 8.25 41.5 
Q 9.703125 42.5 13.09375 43.09375 
Q 16.59375 43.796875 18.4375 44.5 
Q 20.296875 45.203125 23.40625 47.09375 
Q 19.09375 49.703125 13.703125 50.796875 
Q 10 51.59375 8.5 52.59375 
Q 7 53.59375 7 55.40625 
Q 7 57 7.890625 58.046875 
Q 8.796875 59.09375 10.296875 59.09375 
Q 12.296875 59.09375 15.203125 55.90625 
Q 19.40625 51.203125 24.09375 48.59375 
L 24.09375 49.90625 
Q 24.09375 54 22.59375 59 
Q 21.5 62.296875 21.5 64.203125 
Q 21.5 65.59375 22.546875 66.59375 
Q 23.59375 67.59375 25.09375 67.59375 
Q 26.59375 67.59375 27.6875 66.546875 
Q 28.796875 65.5 28.796875 64 
Q 28.796875 62.40625 27.703125 59.296875 
Q 26 54.796875 26 51 
L 26 48.59375 
Q 29.40625 50.59375 31.796875 52.796875 
Q 32.296875 53.296875 33.640625 54.75 
Q 35 56.203125 35.796875 57 
Q 36.59375 57.796875 37.640625 58.546875 
Q 38.703125 59.296875 39.5 59.296875 
Q 41.203125 59.296875 42.203125 58.25 
Q 43.203125 57.203125 43.203125 55.5 
Q 43.203125 53.5 42.046875 52.546875 
Q 40.90625 51.59375 38 51.203125 
Q 32.40625 50.296875 26.796875 47.09375 
z
" id="STIXGeneral-Regular-42"/>
      <path d="M 62.09375 -2.40625 
L 5.59375 24.90625 
L 5.59375 25.90625 
L 62.09375 53.40625 
L 62.09375 46.90625 
L 18.90625 25.40625 
L 62.09375 3.90625 
z
" id="STIXGeneral-Regular-60"/>
      <path d="M 46.90625 11.703125 
L 48.296875 10.796875 
Q 43.703125 3.703125 40.84375 1.296875 
Q 38 -1.09375 34.59375 -1.09375 
Q 32.5 -1.09375 31.09375 0.09375 
Q 29.703125 1.296875 29.703125 3.40625 
Q 29.703125 6.5 31.203125 11 
L 34.5 21.40625 
L 34.40625 21.40625 
Q 27.59375 9.296875 23.046875 4.1875 
Q 18.5 -0.90625 14.09375 -0.90625 
Q 11.296875 -0.90625 10.5 1.90625 
Q 9.59375 -1.703125 8.546875 -5.84375 
Q 7.5 -10 7.046875 -11.84375 
Q 6.59375 -13.703125 6 -15.703125 
Q 5.40625 -17.703125 4.90625 -18.703125 
Q 4.40625 -19.703125 3.796875 -20.5 
L -3.296875 -20.5 
Q -0.90625 -17 1.09375 -9.296875 
L 14.203125 42.796875 
L 21.703125 42.796875 
L 14.203125 13 
Q 13.796875 11.203125 13.796875 10.296875 
Q 13.796875 5.5 17.796875 5.5 
Q 21.796875 5.5 28.296875 15.140625 
Q 34.796875 24.796875 36.296875 30.59375 
L 39.59375 42.796875 
L 47.296875 42.796875 
L 39.40625 12.796875 
Q 37.5 5.203125 37.5 5.09375 
Q 37.5 3.59375 38.59375 3.59375 
Q 39.796875 3.59375 41.4375 5.140625 
Q 43.09375 6.703125 46.90625 11.703125 
z
" id="STIXGeneral-Italic-956"/>
     </defs>
     <g transform="translate(77.6 363.345301)scale(0.22 -0.22)">
      <use transform="translate(0 0.409375)" xlink:href="#ArialMT-32"/>
      <use transform="translate(27.783203 0.409375)" xlink:href="#ArialMT-84"/>
      <use transform="translate(88.867188 0.409375)" xlink:href="#ArialMT-104"/>
      <use transform="translate(144.482422 0.409375)" xlink:href="#ArialMT-114"/>
      <use transform="translate(177.783203 0.409375)" xlink:href="#ArialMT-101"/>
      <use transform="translate(233.398438 0.409375)" xlink:href="#ArialMT-115"/>
      <use transform="translate(283.398438 0.409375)" xlink:href="#ArialMT-104"/>
      <use transform="translate(339.013672 0.409375)" xlink:href="#ArialMT-111"/>
      <use transform="translate(394.628906 0.409375)" xlink:href="#ArialMT-108"/>
      <use transform="translate(416.845703 0.409375)" xlink:href="#ArialMT-100"/>
      <use transform="translate(472.460938 0.409375)" xlink:href="#ArialMT-32"/>
      <use transform="translate(500.244141 0.409375)" xlink:href="#ArialMT-40"/>
      <use transform="translate(533.544922 0.409375)" xlink:href="#STIXGeneral-Italic-950"/>
      <use transform="translate(600.308694 35.684375)scale(0.7)" xlink:href="#STIXGeneral-Regular-42"/>
      <use transform="translate(664.266053 0.409375)" xlink:href="#STIXGeneral-Regular-60"/>
      <use transform="translate(771.272454 0.409375)" xlink:href="#STIXGeneral-Italic-956"/>
      <use transform="translate(823.872444 0.409375)" xlink:href="#ArialMT-41"/>
     </g>
    </g>
   </g>
  </g>
 </g>
 <defs>
  <clipPath id="pe6a4d8734b">
   <rect height="217.44" width="215.373631" x="97.656925" y="7.337301"/>
  </clipPath>
 </defs>
</svg>
