<?xml version="1.0" encoding="utf-8" standalone="no"?>
<!DOCTYPE svg PUBLIC "-//W3C//DTD SVG 1.1//EN"
  "http://www.w3.org/Graphics/SVG/1.1/DTD/svg11.dtd">
<!-- Created with matplotlib (https://matplotlib.org/) -->
<svg height="288pt" version="1.1" viewBox="0 0 1440 288" width="1440pt" xmlns="http://www.w3.org/2000/svg" xmlns:xlink="http://www.w3.org/1999/xlink">
 <defs>
  <style type="text/css">
*{stroke-linecap:butt;stroke-linejoin:round;}
  </style>
 </defs>
 <g id="figure_1">
  <g id="patch_1">
   <path d="M 0 288 
L 1440 288 
L 1440 0 
L 0 0 
z
" style="fill:#ffffff;"/>
  </g>
  <g id="axes_1">
   <g id="patch_2">
    <path d="M 180 252 
L 1008 252 
L 1008 34.56 
L 180 34.56 
z
" style="fill:#ffffff;"/>
   </g>
   <g id="matplotlib.axis_1">
    <g id="xtick_1">
     <g id="line2d_1">
      <path clip-path="url(#p3f78dd41c9)" d="M 217.636364 252 
L 217.636364 34.56 
" style="fill:none;stroke:#b0b0b0;stroke-linecap:square;stroke-width:0.8;"/>
     </g>
     <g id="line2d_2">
      <defs>
       <path d="M 0 0 
L 0 3.5 
" id="m803c803bf0" style="stroke:#000000;stroke-width:0.8;"/>
      </defs>
      <g>
       <use style="stroke:#000000;stroke-width:0.8;" x="217.636364" xlink:href="#m803c803bf0" y="252"/>
      </g>
     </g>
     <g id="text_1">
      <!-- 0 -->
      <defs>
       <path d="M 4.15625 35.296875 
Q 4.15625 48 6.765625 55.734375 
Q 9.375 63.484375 14.515625 67.671875 
Q 19.671875 71.875 27.484375 71.875 
Q 33.25 71.875 37.59375 69.546875 
Q 41.9375 67.234375 44.765625 62.859375 
Q 47.609375 58.5 49.21875 52.21875 
Q 50.828125 45.953125 50.828125 35.296875 
Q 50.828125 22.703125 48.234375 14.96875 
Q 45.65625 7.234375 40.5 3 
Q 35.359375 -1.21875 27.484375 -1.21875 
Q 17.140625 -1.21875 11.234375 6.203125 
Q 4.15625 15.140625 4.15625 35.296875 
z
M 13.1875 35.296875 
Q 13.1875 17.671875 17.3125 11.828125 
Q 21.4375 6 27.484375 6 
Q 33.546875 6 37.671875 11.859375 
Q 41.796875 17.71875 41.796875 35.296875 
Q 41.796875 52.984375 37.671875 58.78125 
Q 33.546875 64.59375 27.390625 64.59375 
Q 21.34375 64.59375 17.71875 59.46875 
Q 13.1875 52.9375 13.1875 35.296875 
z
" id="ArialMT-48"/>
      </defs>
      <g transform="translate(209.851051 279.041875)scale(0.28 -0.28)">
       <use xlink:href="#ArialMT-48"/>
      </g>
     </g>
    </g>
    <g id="xtick_2">
     <g id="line2d_3">
      <path clip-path="url(#p3f78dd41c9)" d="M 468.650044 252 
L 468.650044 34.56 
" style="fill:none;stroke:#b0b0b0;stroke-linecap:square;stroke-width:0.8;"/>
     </g>
     <g id="line2d_4">
      <g>
       <use style="stroke:#000000;stroke-width:0.8;" x="468.650044" xlink:href="#m803c803bf0" y="252"/>
      </g>
     </g>
     <g id="text_2">
      <!-- 1600 -->
      <defs>
       <path d="M 37.25 0 
L 28.46875 0 
L 28.46875 56 
Q 25.296875 52.984375 20.140625 49.953125 
Q 14.984375 46.921875 10.890625 45.40625 
L 10.890625 53.90625 
Q 18.265625 57.375 23.78125 62.296875 
Q 29.296875 67.234375 31.59375 71.875 
L 37.25 71.875 
z
" id="ArialMT-49"/>
       <path d="M 49.75 54.046875 
L 41.015625 53.375 
Q 39.84375 58.546875 37.703125 60.890625 
Q 34.125 64.65625 28.90625 64.65625 
Q 24.703125 64.65625 21.53125 62.3125 
Q 17.390625 59.28125 14.984375 53.46875 
Q 12.59375 47.65625 12.5 36.921875 
Q 15.671875 41.75 20.265625 44.09375 
Q 24.859375 46.4375 29.890625 46.4375 
Q 38.671875 46.4375 44.84375 39.96875 
Q 51.03125 33.5 51.03125 23.25 
Q 51.03125 16.5 48.125 10.71875 
Q 45.21875 4.9375 40.140625 1.859375 
Q 35.0625 -1.21875 28.609375 -1.21875 
Q 17.625 -1.21875 10.6875 6.859375 
Q 3.765625 14.9375 3.765625 33.5 
Q 3.765625 54.25 11.421875 63.671875 
Q 18.109375 71.875 29.4375 71.875 
Q 37.890625 71.875 43.28125 67.140625 
Q 48.6875 62.40625 49.75 54.046875 
z
M 13.875 23.1875 
Q 13.875 18.65625 15.796875 14.5 
Q 17.71875 10.359375 21.1875 8.171875 
Q 24.65625 6 28.46875 6 
Q 34.03125 6 38.03125 10.484375 
Q 42.046875 14.984375 42.046875 22.703125 
Q 42.046875 30.125 38.078125 34.390625 
Q 34.125 38.671875 28.125 38.671875 
Q 22.171875 38.671875 18.015625 34.390625 
Q 13.875 30.125 13.875 23.1875 
z
" id="ArialMT-54"/>
      </defs>
      <g transform="translate(437.508794 279.041875)scale(0.28 -0.28)">
       <use xlink:href="#ArialMT-49"/>
       <use x="55.615234" xlink:href="#ArialMT-54"/>
       <use x="111.230469" xlink:href="#ArialMT-48"/>
       <use x="166.845703" xlink:href="#ArialMT-48"/>
      </g>
     </g>
    </g>
    <g id="xtick_3">
     <g id="line2d_5">
      <path clip-path="url(#p3f78dd41c9)" d="M 719.663724 252 
L 719.663724 34.56 
" style="fill:none;stroke:#b0b0b0;stroke-linecap:square;stroke-width:0.8;"/>
     </g>
     <g id="line2d_6">
      <g>
       <use style="stroke:#000000;stroke-width:0.8;" x="719.663724" xlink:href="#m803c803bf0" y="252"/>
      </g>
     </g>
     <g id="text_3">
      <!-- 3200 -->
      <defs>
       <path d="M 4.203125 18.890625 
L 12.984375 20.0625 
Q 14.5 12.59375 18.140625 9.296875 
Q 21.78125 6 27 6 
Q 33.203125 6 37.46875 10.296875 
Q 41.75 14.59375 41.75 20.953125 
Q 41.75 27 37.796875 30.921875 
Q 33.84375 34.859375 27.734375 34.859375 
Q 25.25 34.859375 21.53125 33.890625 
L 22.515625 41.609375 
Q 23.390625 41.5 23.921875 41.5 
Q 29.546875 41.5 34.03125 44.421875 
Q 38.53125 47.359375 38.53125 53.46875 
Q 38.53125 58.296875 35.25 61.46875 
Q 31.984375 64.65625 26.8125 64.65625 
Q 21.6875 64.65625 18.265625 61.421875 
Q 14.84375 58.203125 13.875 51.765625 
L 5.078125 53.328125 
Q 6.6875 62.15625 12.390625 67.015625 
Q 18.109375 71.875 26.609375 71.875 
Q 32.46875 71.875 37.390625 69.359375 
Q 42.328125 66.84375 44.9375 62.5 
Q 47.5625 58.15625 47.5625 53.265625 
Q 47.5625 48.640625 45.0625 44.828125 
Q 42.578125 41.015625 37.703125 38.765625 
Q 44.046875 37.3125 47.5625 32.6875 
Q 51.078125 28.078125 51.078125 21.140625 
Q 51.078125 11.765625 44.234375 5.25 
Q 37.40625 -1.265625 26.953125 -1.265625 
Q 17.53125 -1.265625 11.296875 4.34375 
Q 5.078125 9.96875 4.203125 18.890625 
z
" id="ArialMT-51"/>
       <path d="M 50.34375 8.453125 
L 50.34375 0 
L 3.03125 0 
Q 2.9375 3.171875 4.046875 6.109375 
Q 5.859375 10.9375 9.828125 15.625 
Q 13.8125 20.3125 21.34375 26.46875 
Q 33.015625 36.03125 37.109375 41.625 
Q 41.21875 47.21875 41.21875 52.203125 
Q 41.21875 57.421875 37.46875 61 
Q 33.734375 64.59375 27.734375 64.59375 
Q 21.390625 64.59375 17.578125 60.78125 
Q 13.765625 56.984375 13.71875 50.25 
L 4.6875 51.171875 
Q 5.609375 61.28125 11.65625 66.578125 
Q 17.71875 71.875 27.9375 71.875 
Q 38.234375 71.875 44.234375 66.15625 
Q 50.25 60.453125 50.25 52 
Q 50.25 47.703125 48.484375 43.546875 
Q 46.734375 39.40625 42.65625 34.8125 
Q 38.578125 30.21875 29.109375 22.21875 
Q 21.1875 15.578125 18.9375 13.203125 
Q 16.703125 10.84375 15.234375 8.453125 
z
" id="ArialMT-50"/>
      </defs>
      <g transform="translate(688.522474 279.041875)scale(0.28 -0.28)">
       <use xlink:href="#ArialMT-51"/>
       <use x="55.615234" xlink:href="#ArialMT-50"/>
       <use x="111.230469" xlink:href="#ArialMT-48"/>
       <use x="166.845703" xlink:href="#ArialMT-48"/>
      </g>
     </g>
    </g>
    <g id="xtick_4">
     <g id="line2d_7">
      <path clip-path="url(#p3f78dd41c9)" d="M 970.677403 252 
L 970.677403 34.56 
" style="fill:none;stroke:#b0b0b0;stroke-linecap:square;stroke-width:0.8;"/>
     </g>
     <g id="line2d_8">
      <g>
       <use style="stroke:#000000;stroke-width:0.8;" x="970.677403" xlink:href="#m803c803bf0" y="252"/>
      </g>
     </g>
     <g id="text_4">
      <!-- 4800 -->
      <defs>
       <path d="M 32.328125 0 
L 32.328125 17.140625 
L 1.265625 17.140625 
L 1.265625 25.203125 
L 33.9375 71.578125 
L 41.109375 71.578125 
L 41.109375 25.203125 
L 50.78125 25.203125 
L 50.78125 17.140625 
L 41.109375 17.140625 
L 41.109375 0 
z
M 32.328125 25.203125 
L 32.328125 57.46875 
L 9.90625 25.203125 
z
" id="ArialMT-52"/>
       <path d="M 17.671875 38.8125 
Q 12.203125 40.828125 9.5625 44.53125 
Q 6.9375 48.25 6.9375 53.421875 
Q 6.9375 61.234375 12.546875 66.546875 
Q 18.171875 71.875 27.484375 71.875 
Q 36.859375 71.875 42.578125 66.421875 
Q 48.296875 60.984375 48.296875 53.171875 
Q 48.296875 48.1875 45.671875 44.5 
Q 43.0625 40.828125 37.75 38.8125 
Q 44.34375 36.671875 47.78125 31.875 
Q 51.21875 27.09375 51.21875 20.453125 
Q 51.21875 11.28125 44.71875 5.03125 
Q 38.234375 -1.21875 27.640625 -1.21875 
Q 17.046875 -1.21875 10.546875 5.046875 
Q 4.046875 11.328125 4.046875 20.703125 
Q 4.046875 27.6875 7.59375 32.390625 
Q 11.140625 37.109375 17.671875 38.8125 
z
M 15.921875 53.71875 
Q 15.921875 48.640625 19.1875 45.40625 
Q 22.46875 42.1875 27.6875 42.1875 
Q 32.765625 42.1875 36.015625 45.375 
Q 39.265625 48.578125 39.265625 53.21875 
Q 39.265625 58.0625 35.90625 61.359375 
Q 32.5625 64.65625 27.59375 64.65625 
Q 22.5625 64.65625 19.234375 61.421875 
Q 15.921875 58.203125 15.921875 53.71875 
z
M 13.09375 20.65625 
Q 13.09375 16.890625 14.875 13.375 
Q 16.65625 9.859375 20.171875 7.921875 
Q 23.6875 6 27.734375 6 
Q 34.03125 6 38.125 10.046875 
Q 42.234375 14.109375 42.234375 20.359375 
Q 42.234375 26.703125 38.015625 30.859375 
Q 33.796875 35.015625 27.4375 35.015625 
Q 21.234375 35.015625 17.15625 30.90625 
Q 13.09375 26.8125 13.09375 20.65625 
z
" id="ArialMT-56"/>
      </defs>
      <g transform="translate(939.536153 279.041875)scale(0.28 -0.28)">
       <use xlink:href="#ArialMT-52"/>
       <use x="55.615234" xlink:href="#ArialMT-56"/>
       <use x="111.230469" xlink:href="#ArialMT-48"/>
       <use x="166.845703" xlink:href="#ArialMT-48"/>
      </g>
     </g>
    </g>
    <g id="text_5">
     <!-- # sample -->
     <defs>
      <path d="M 5.03125 -1.21875 
L 9.28125 19.578125 
L 1.03125 19.578125 
L 1.03125 26.859375 
L 10.75 26.859375 
L 14.359375 44.578125 
L 1.03125 44.578125 
L 1.03125 51.859375 
L 15.828125 51.859375 
L 20.0625 72.796875 
L 27.390625 72.796875 
L 23.140625 51.859375 
L 38.53125 51.859375 
L 42.78125 72.796875 
L 50.140625 72.796875 
L 45.90625 51.859375 
L 54.34375 51.859375 
L 54.34375 44.578125 
L 44.4375 44.578125 
L 40.765625 26.859375 
L 54.34375 26.859375 
L 54.34375 19.578125 
L 39.3125 19.578125 
L 35.0625 -1.21875 
L 27.734375 -1.21875 
L 31.9375 19.578125 
L 16.609375 19.578125 
L 12.359375 -1.21875 
z
M 18.0625 26.859375 
L 33.40625 26.859375 
L 37.0625 44.578125 
L 21.6875 44.578125 
z
" id="ArialMT-35"/>
      <path id="ArialMT-32"/>
      <path d="M 3.078125 15.484375 
L 11.765625 16.84375 
Q 12.5 11.625 15.84375 8.84375 
Q 19.1875 6.0625 25.203125 6.0625 
Q 31.25 6.0625 34.171875 8.515625 
Q 37.109375 10.984375 37.109375 14.3125 
Q 37.109375 17.28125 34.515625 19 
Q 32.71875 20.171875 25.53125 21.96875 
Q 15.875 24.421875 12.140625 26.203125 
Q 8.40625 27.984375 6.46875 31.125 
Q 4.546875 34.28125 4.546875 38.09375 
Q 4.546875 41.546875 6.125 44.5 
Q 7.71875 47.46875 10.453125 49.421875 
Q 12.5 50.921875 16.03125 51.96875 
Q 19.578125 53.03125 23.640625 53.03125 
Q 29.734375 53.03125 34.34375 51.265625 
Q 38.96875 49.515625 41.15625 46.5 
Q 43.359375 43.5 44.1875 38.484375 
L 35.59375 37.3125 
Q 35.015625 41.3125 32.203125 43.546875 
Q 29.390625 45.796875 24.265625 45.796875 
Q 18.21875 45.796875 15.625 43.796875 
Q 13.03125 41.796875 13.03125 39.109375 
Q 13.03125 37.40625 14.109375 36.03125 
Q 15.1875 34.625 17.484375 33.6875 
Q 18.796875 33.203125 25.25 31.453125 
Q 34.578125 28.953125 38.25 27.359375 
Q 41.9375 25.78125 44.03125 22.75 
Q 46.140625 19.734375 46.140625 15.234375 
Q 46.140625 10.84375 43.578125 6.953125 
Q 41.015625 3.078125 36.171875 0.953125 
Q 31.34375 -1.171875 25.25 -1.171875 
Q 15.140625 -1.171875 9.84375 3.03125 
Q 4.546875 7.234375 3.078125 15.484375 
z
" id="ArialMT-115"/>
      <path d="M 40.4375 6.390625 
Q 35.546875 2.25 31.03125 0.53125 
Q 26.515625 -1.171875 21.34375 -1.171875 
Q 12.796875 -1.171875 8.203125 3 
Q 3.609375 7.171875 3.609375 13.671875 
Q 3.609375 17.484375 5.34375 20.625 
Q 7.078125 23.78125 9.890625 25.6875 
Q 12.703125 27.59375 16.21875 28.5625 
Q 18.796875 29.25 24.03125 29.890625 
Q 34.671875 31.15625 39.703125 32.90625 
Q 39.75 34.71875 39.75 35.203125 
Q 39.75 40.578125 37.25 42.78125 
Q 33.890625 45.75 27.25 45.75 
Q 21.046875 45.75 18.09375 43.578125 
Q 15.140625 41.40625 13.71875 35.890625 
L 5.125 37.0625 
Q 6.296875 42.578125 8.984375 45.96875 
Q 11.671875 49.359375 16.75 51.1875 
Q 21.828125 53.03125 28.515625 53.03125 
Q 35.15625 53.03125 39.296875 51.46875 
Q 43.453125 49.90625 45.40625 47.53125 
Q 47.359375 45.171875 48.140625 41.546875 
Q 48.578125 39.3125 48.578125 33.453125 
L 48.578125 21.734375 
Q 48.578125 9.46875 49.140625 6.21875 
Q 49.703125 2.984375 51.375 0 
L 42.1875 0 
Q 40.828125 2.734375 40.4375 6.390625 
z
M 39.703125 26.03125 
Q 34.90625 24.078125 25.34375 22.703125 
Q 19.921875 21.921875 17.671875 20.9375 
Q 15.4375 19.96875 14.203125 18.09375 
Q 12.984375 16.21875 12.984375 13.921875 
Q 12.984375 10.40625 15.640625 8.0625 
Q 18.3125 5.71875 23.4375 5.71875 
Q 28.515625 5.71875 32.46875 7.9375 
Q 36.421875 10.15625 38.28125 14.015625 
Q 39.703125 17 39.703125 22.796875 
z
" id="ArialMT-97"/>
      <path d="M 6.59375 0 
L 6.59375 51.859375 
L 14.453125 51.859375 
L 14.453125 44.578125 
Q 16.890625 48.390625 20.9375 50.703125 
Q 25 53.03125 30.171875 53.03125 
Q 35.9375 53.03125 39.625 50.640625 
Q 43.3125 48.25 44.828125 43.953125 
Q 50.984375 53.03125 60.84375 53.03125 
Q 68.5625 53.03125 72.703125 48.75 
Q 76.859375 44.484375 76.859375 35.59375 
L 76.859375 0 
L 68.109375 0 
L 68.109375 32.671875 
Q 68.109375 37.9375 67.25 40.25 
Q 66.40625 42.578125 64.15625 43.984375 
Q 61.921875 45.40625 58.890625 45.40625 
Q 53.421875 45.40625 49.796875 41.765625 
Q 46.1875 38.140625 46.1875 30.125 
L 46.1875 0 
L 37.40625 0 
L 37.40625 33.6875 
Q 37.40625 39.546875 35.25 42.46875 
Q 33.109375 45.40625 28.21875 45.40625 
Q 24.515625 45.40625 21.359375 43.453125 
Q 18.21875 41.5 16.796875 37.734375 
Q 15.375 33.984375 15.375 26.90625 
L 15.375 0 
z
" id="ArialMT-109"/>
      <path d="M 6.59375 -19.875 
L 6.59375 51.859375 
L 14.59375 51.859375 
L 14.59375 45.125 
Q 17.4375 49.078125 21 51.046875 
Q 24.5625 53.03125 29.640625 53.03125 
Q 36.28125 53.03125 41.359375 49.609375 
Q 46.4375 46.1875 49.015625 39.953125 
Q 51.609375 33.734375 51.609375 26.3125 
Q 51.609375 18.359375 48.75 11.984375 
Q 45.90625 5.609375 40.453125 2.21875 
Q 35.015625 -1.171875 29 -1.171875 
Q 24.609375 -1.171875 21.109375 0.6875 
Q 17.625 2.546875 15.375 5.375 
L 15.375 -19.875 
z
M 14.546875 25.640625 
Q 14.546875 15.625 18.59375 10.84375 
Q 22.65625 6.0625 28.421875 6.0625 
Q 34.28125 6.0625 38.453125 11.015625 
Q 42.625 15.96875 42.625 26.375 
Q 42.625 36.28125 38.546875 41.203125 
Q 34.46875 46.140625 28.8125 46.140625 
Q 23.1875 46.140625 18.859375 40.890625 
Q 14.546875 35.640625 14.546875 25.640625 
z
" id="ArialMT-112"/>
      <path d="M 6.390625 0 
L 6.390625 71.578125 
L 15.1875 71.578125 
L 15.1875 0 
z
" id="ArialMT-108"/>
      <path d="M 42.09375 16.703125 
L 51.171875 15.578125 
Q 49.03125 7.625 43.21875 3.21875 
Q 37.40625 -1.171875 28.375 -1.171875 
Q 17 -1.171875 10.328125 5.828125 
Q 3.65625 12.84375 3.65625 25.484375 
Q 3.65625 38.578125 10.390625 45.796875 
Q 17.140625 53.03125 27.875 53.03125 
Q 38.28125 53.03125 44.875 45.953125 
Q 51.46875 38.875 51.46875 26.03125 
Q 51.46875 25.25 51.421875 23.6875 
L 12.75 23.6875 
Q 13.234375 15.140625 17.578125 10.59375 
Q 21.921875 6.0625 28.421875 6.0625 
Q 33.25 6.0625 36.671875 8.59375 
Q 40.09375 11.140625 42.09375 16.703125 
z
M 13.234375 30.90625 
L 42.1875 30.90625 
Q 41.609375 37.453125 38.875 40.71875 
Q 34.671875 45.796875 27.984375 45.796875 
Q 21.921875 45.796875 17.796875 41.75 
Q 13.671875 37.703125 13.234375 30.90625 
z
" id="ArialMT-101"/>
     </defs>
     <g transform="translate(537.197188 308.99)scale(0.28 -0.28)">
      <use xlink:href="#ArialMT-35"/>
      <use x="55.615234" xlink:href="#ArialMT-32"/>
      <use x="83.398438" xlink:href="#ArialMT-115"/>
      <use x="133.398438" xlink:href="#ArialMT-97"/>
      <use x="189.013672" xlink:href="#ArialMT-109"/>
      <use x="272.314453" xlink:href="#ArialMT-112"/>
      <use x="327.929688" xlink:href="#ArialMT-108"/>
      <use x="350.146484" xlink:href="#ArialMT-101"/>
     </g>
    </g>
   </g>
   <g id="matplotlib.axis_2">
    <g id="ytick_1">
     <g id="line2d_9">
      <path clip-path="url(#p3f78dd41c9)" d="M 180 215.730757 
L 1008 215.730757 
" style="fill:none;stroke:#b0b0b0;stroke-linecap:square;stroke-width:0.8;"/>
     </g>
     <g id="line2d_10">
      <defs>
       <path d="M 0 0 
L -3.5 0 
" id="m74b530b636" style="stroke:#000000;stroke-width:0.8;"/>
      </defs>
      <g>
       <use style="stroke:#000000;stroke-width:0.8;" x="180" xlink:href="#m74b530b636" y="215.730757"/>
      </g>
     </g>
     <g id="text_6">
      <!-- −1000 -->
      <defs>
       <path d="M 52.828125 31.203125 
L 5.5625 31.203125 
L 5.5625 39.40625 
L 52.828125 39.40625 
z
" id="ArialMT-8722"/>
      </defs>
      <g transform="translate(94.36375 225.751695)scale(0.28 -0.28)">
       <use xlink:href="#ArialMT-8722"/>
       <use x="58.398438" xlink:href="#ArialMT-49"/>
       <use x="114.013672" xlink:href="#ArialMT-48"/>
       <use x="169.628906" xlink:href="#ArialMT-48"/>
       <use x="225.244141" xlink:href="#ArialMT-48"/>
      </g>
     </g>
    </g>
    <g id="ytick_2">
     <g id="line2d_11">
      <path clip-path="url(#p3f78dd41c9)" d="M 180 130.087195 
L 1008 130.087195 
" style="fill:none;stroke:#b0b0b0;stroke-linecap:square;stroke-width:0.8;"/>
     </g>
     <g id="line2d_12">
      <g>
       <use style="stroke:#000000;stroke-width:0.8;" x="180" xlink:href="#m74b530b636" y="130.087195"/>
      </g>
     </g>
     <g id="text_7">
      <!-- −500 -->
      <defs>
       <path d="M 4.15625 18.75 
L 13.375 19.53125 
Q 14.40625 12.796875 18.140625 9.390625 
Q 21.875 6 27.15625 6 
Q 33.5 6 37.890625 10.78125 
Q 42.28125 15.578125 42.28125 23.484375 
Q 42.28125 31 38.0625 35.34375 
Q 33.84375 39.703125 27 39.703125 
Q 22.75 39.703125 19.328125 37.765625 
Q 15.921875 35.84375 13.96875 32.765625 
L 5.71875 33.84375 
L 12.640625 70.609375 
L 48.25 70.609375 
L 48.25 62.203125 
L 19.671875 62.203125 
L 15.828125 42.96875 
Q 22.265625 47.46875 29.34375 47.46875 
Q 38.71875 47.46875 45.15625 40.96875 
Q 51.609375 34.46875 51.609375 24.265625 
Q 51.609375 14.546875 45.953125 7.46875 
Q 39.0625 -1.21875 27.15625 -1.21875 
Q 17.390625 -1.21875 11.203125 4.25 
Q 5.03125 9.71875 4.15625 18.75 
z
" id="ArialMT-53"/>
      </defs>
      <g transform="translate(109.934375 140.108133)scale(0.28 -0.28)">
       <use xlink:href="#ArialMT-8722"/>
       <use x="58.398438" xlink:href="#ArialMT-53"/>
       <use x="114.013672" xlink:href="#ArialMT-48"/>
       <use x="169.628906" xlink:href="#ArialMT-48"/>
      </g>
     </g>
    </g>
    <g id="ytick_3">
     <g id="line2d_13">
      <path clip-path="url(#p3f78dd41c9)" d="M 180 44.443634 
L 1008 44.443634 
" style="fill:none;stroke:#b0b0b0;stroke-linecap:square;stroke-width:0.8;"/>
     </g>
     <g id="line2d_14">
      <g>
       <use style="stroke:#000000;stroke-width:0.8;" x="180" xlink:href="#m74b530b636" y="44.443634"/>
      </g>
     </g>
     <g id="text_8">
      <!-- 0 -->
      <g transform="translate(157.429375 54.464571)scale(0.28 -0.28)">
       <use xlink:href="#ArialMT-48"/>
      </g>
     </g>
    </g>
    <g id="text_9">
     <!-- Log-likelihood (a.u.) -->
     <defs>
      <path d="M 7.328125 0 
L 7.328125 71.578125 
L 16.796875 71.578125 
L 16.796875 8.453125 
L 52.046875 8.453125 
L 52.046875 0 
z
" id="ArialMT-76"/>
      <path d="M 3.328125 25.921875 
Q 3.328125 40.328125 11.328125 47.265625 
Q 18.015625 53.03125 27.640625 53.03125 
Q 38.328125 53.03125 45.109375 46.015625 
Q 51.90625 39.015625 51.90625 26.65625 
Q 51.90625 16.65625 48.90625 10.90625 
Q 45.90625 5.171875 40.15625 2 
Q 34.421875 -1.171875 27.640625 -1.171875 
Q 16.75 -1.171875 10.03125 5.8125 
Q 3.328125 12.796875 3.328125 25.921875 
z
M 12.359375 25.921875 
Q 12.359375 15.96875 16.703125 11.015625 
Q 21.046875 6.0625 27.640625 6.0625 
Q 34.1875 6.0625 38.53125 11.03125 
Q 42.875 16.015625 42.875 26.21875 
Q 42.875 35.84375 38.5 40.796875 
Q 34.125 45.75 27.640625 45.75 
Q 21.046875 45.75 16.703125 40.8125 
Q 12.359375 35.890625 12.359375 25.921875 
z
" id="ArialMT-111"/>
      <path d="M 4.984375 -4.296875 
L 13.53125 -5.5625 
Q 14.0625 -9.515625 16.5 -11.328125 
Q 19.78125 -13.765625 25.4375 -13.765625 
Q 31.546875 -13.765625 34.859375 -11.328125 
Q 38.1875 -8.890625 39.359375 -4.5 
Q 40.046875 -1.8125 39.984375 6.78125 
Q 34.234375 0 25.640625 0 
Q 14.9375 0 9.078125 7.71875 
Q 3.21875 15.4375 3.21875 26.21875 
Q 3.21875 33.640625 5.90625 39.90625 
Q 8.59375 46.1875 13.6875 49.609375 
Q 18.796875 53.03125 25.6875 53.03125 
Q 34.859375 53.03125 40.828125 45.609375 
L 40.828125 51.859375 
L 48.921875 51.859375 
L 48.921875 7.03125 
Q 48.921875 -5.078125 46.453125 -10.125 
Q 44 -15.1875 38.640625 -18.109375 
Q 33.296875 -21.046875 25.484375 -21.046875 
Q 16.21875 -21.046875 10.5 -16.875 
Q 4.78125 -12.703125 4.984375 -4.296875 
z
M 12.25 26.859375 
Q 12.25 16.65625 16.296875 11.96875 
Q 20.359375 7.28125 26.46875 7.28125 
Q 32.515625 7.28125 36.609375 11.9375 
Q 40.71875 16.609375 40.71875 26.5625 
Q 40.71875 36.078125 36.5 40.90625 
Q 32.28125 45.75 26.3125 45.75 
Q 20.453125 45.75 16.34375 40.984375 
Q 12.25 36.234375 12.25 26.859375 
z
" id="ArialMT-103"/>
      <path d="M 3.171875 21.484375 
L 3.171875 30.328125 
L 30.171875 30.328125 
L 30.171875 21.484375 
z
" id="ArialMT-45"/>
      <path d="M 6.640625 61.46875 
L 6.640625 71.578125 
L 15.4375 71.578125 
L 15.4375 61.46875 
z
M 6.640625 0 
L 6.640625 51.859375 
L 15.4375 51.859375 
L 15.4375 0 
z
" id="ArialMT-105"/>
      <path d="M 6.640625 0 
L 6.640625 71.578125 
L 15.4375 71.578125 
L 15.4375 30.765625 
L 36.234375 51.859375 
L 47.609375 51.859375 
L 27.78125 32.625 
L 49.609375 0 
L 38.765625 0 
L 21.625 26.515625 
L 15.4375 20.5625 
L 15.4375 0 
z
" id="ArialMT-107"/>
      <path d="M 6.59375 0 
L 6.59375 71.578125 
L 15.375 71.578125 
L 15.375 45.90625 
Q 21.53125 53.03125 30.90625 53.03125 
Q 36.671875 53.03125 40.921875 50.75 
Q 45.171875 48.484375 47 44.484375 
Q 48.828125 40.484375 48.828125 32.859375 
L 48.828125 0 
L 40.046875 0 
L 40.046875 32.859375 
Q 40.046875 39.453125 37.1875 42.453125 
Q 34.328125 45.453125 29.109375 45.453125 
Q 25.203125 45.453125 21.75 43.421875 
Q 18.3125 41.40625 16.84375 37.9375 
Q 15.375 34.46875 15.375 28.375 
L 15.375 0 
z
" id="ArialMT-104"/>
      <path d="M 40.234375 0 
L 40.234375 6.546875 
Q 35.296875 -1.171875 25.734375 -1.171875 
Q 19.53125 -1.171875 14.328125 2.25 
Q 9.125 5.671875 6.265625 11.796875 
Q 3.421875 17.921875 3.421875 25.875 
Q 3.421875 33.640625 6 39.96875 
Q 8.59375 46.296875 13.765625 49.65625 
Q 18.953125 53.03125 25.34375 53.03125 
Q 30.03125 53.03125 33.6875 51.046875 
Q 37.359375 49.078125 39.65625 45.90625 
L 39.65625 71.578125 
L 48.390625 71.578125 
L 48.390625 0 
z
M 12.453125 25.875 
Q 12.453125 15.921875 16.640625 10.984375 
Q 20.84375 6.0625 26.5625 6.0625 
Q 32.328125 6.0625 36.34375 10.765625 
Q 40.375 15.484375 40.375 25.140625 
Q 40.375 35.796875 36.265625 40.765625 
Q 32.171875 45.75 26.171875 45.75 
Q 20.3125 45.75 16.375 40.96875 
Q 12.453125 36.1875 12.453125 25.875 
z
" id="ArialMT-100"/>
      <path d="M 23.390625 -21.046875 
Q 16.109375 -11.859375 11.078125 0.4375 
Q 6.0625 12.75 6.0625 25.921875 
Q 6.0625 37.546875 9.8125 48.1875 
Q 14.203125 60.546875 23.390625 72.796875 
L 29.6875 72.796875 
Q 23.78125 62.640625 21.875 58.296875 
Q 18.890625 51.5625 17.1875 44.234375 
Q 15.09375 35.109375 15.09375 25.875 
Q 15.09375 2.390625 29.6875 -21.046875 
z
" id="ArialMT-40"/>
      <path d="M 9.078125 0 
L 9.078125 10.015625 
L 19.09375 10.015625 
L 19.09375 0 
z
" id="ArialMT-46"/>
      <path d="M 40.578125 0 
L 40.578125 7.625 
Q 34.515625 -1.171875 24.125 -1.171875 
Q 19.53125 -1.171875 15.546875 0.578125 
Q 11.578125 2.34375 9.640625 5 
Q 7.71875 7.671875 6.9375 11.53125 
Q 6.390625 14.109375 6.390625 19.734375 
L 6.390625 51.859375 
L 15.1875 51.859375 
L 15.1875 23.09375 
Q 15.1875 16.21875 15.71875 13.8125 
Q 16.546875 10.359375 19.234375 8.375 
Q 21.921875 6.390625 25.875 6.390625 
Q 29.828125 6.390625 33.296875 8.421875 
Q 36.765625 10.453125 38.203125 13.9375 
Q 39.65625 17.4375 39.65625 24.078125 
L 39.65625 51.859375 
L 48.4375 51.859375 
L 48.4375 0 
z
" id="ArialMT-117"/>
      <path d="M 12.359375 -21.046875 
L 6.0625 -21.046875 
Q 20.65625 2.390625 20.65625 25.875 
Q 20.65625 35.0625 18.5625 44.09375 
Q 16.890625 51.421875 13.921875 58.15625 
Q 12.015625 62.546875 6.0625 72.796875 
L 12.359375 72.796875 
Q 21.53125 60.546875 25.921875 48.1875 
Q 29.6875 37.546875 29.6875 25.921875 
Q 29.6875 12.75 24.625 0.4375 
Q 19.578125 -11.859375 12.359375 -21.046875 
z
" id="ArialMT-41"/>
     </defs>
     <g transform="translate(84.470625 266.228438)rotate(-90)scale(0.28 -0.28)">
      <use xlink:href="#ArialMT-76"/>
      <use x="55.615234" xlink:href="#ArialMT-111"/>
      <use x="111.230469" xlink:href="#ArialMT-103"/>
      <use x="166.845703" xlink:href="#ArialMT-45"/>
      <use x="200.146484" xlink:href="#ArialMT-108"/>
      <use x="222.363281" xlink:href="#ArialMT-105"/>
      <use x="244.580078" xlink:href="#ArialMT-107"/>
      <use x="294.580078" xlink:href="#ArialMT-101"/>
      <use x="350.195312" xlink:href="#ArialMT-108"/>
      <use x="372.412109" xlink:href="#ArialMT-105"/>
      <use x="394.628906" xlink:href="#ArialMT-104"/>
      <use x="450.244141" xlink:href="#ArialMT-111"/>
      <use x="505.859375" xlink:href="#ArialMT-111"/>
      <use x="561.474609" xlink:href="#ArialMT-100"/>
      <use x="617.089844" xlink:href="#ArialMT-32"/>
      <use x="644.873047" xlink:href="#ArialMT-40"/>
      <use x="678.173828" xlink:href="#ArialMT-97"/>
      <use x="733.789062" xlink:href="#ArialMT-46"/>
      <use x="761.572266" xlink:href="#ArialMT-117"/>
      <use x="817.1875" xlink:href="#ArialMT-46"/>
      <use x="844.970703" xlink:href="#ArialMT-41"/>
     </g>
    </g>
   </g>
   <g id="line2d_15">
    <path clip-path="url(#p3f78dd41c9)" d="M 217.636364 242.116364 
L 217.793247 94.475043 
L 217.950131 56.758894 
L 218.107014 47.569402 
L 218.263898 45.260341 
L 218.420781 44.637007 
L 218.734548 44.466819 
L 221.401569 44.49798 
L 221.872219 44.726113 
L 222.029103 44.689563 
L 222.185987 44.874559 
L 222.499754 44.582857 
L 222.656637 44.862591 
L 222.813521 44.613724 
L 222.970404 44.675214 
L 223.597939 44.480768 
L 223.911706 44.490299 
L 225.480541 44.506028 
L 225.794308 44.469398 
L 226.108075 44.477088 
L 227.363144 44.560118 
L 227.520027 44.717165 
L 228.461329 44.587049 
L 228.618212 44.655657 
L 228.775096 44.50088 
L 228.931979 44.824535 
L 229.088863 44.535136 
L 229.559513 44.493075 
L 230.030164 44.457859 
L 233.952253 44.457482 
L 235.207321 44.448053 
L 253.248929 44.446063 
L 261.093107 44.443904 
L 270.663004 44.443875 
L 351.458032 44.444496 
L 468.336276 44.44402 
L 468.49316 44.744215 
L 468.963811 44.774573 
L 469.591345 44.817474 
L 473.670317 44.469839 
L 479.788776 44.466202 
L 503.478192 44.479474 
L 505.517678 44.471743 
L 510.067301 44.47252 
L 512.106787 44.47541 
L 519.32343 44.717826 
L 519.950964 44.675597 
L 520.735382 44.692033 
L 528.57956 44.463506 
L 529.991512 44.460124 
L 531.874114 44.472004 
L 533.756717 44.473624 
L 537.521922 44.472444 
L 545.052332 44.481696 
L 546.621168 44.507869 
L 548.346887 44.48011 
L 549.758839 44.491476 
L 551.327674 44.50604 
L 560.113153 44.518498 
L 566.231612 44.558289 
L 566.702262 44.599378 
L 575.958392 44.722063 
L 577.056577 44.695127 
L 577.997878 44.679535 
L 579.723597 44.635431 
L 580.194248 44.645695 
L 580.978665 44.61156 
L 581.919967 44.622283 
L 582.861268 44.566837 
L 583.645686 44.592346 
L 586.312706 44.533428 
L 594.156884 44.473253 
L 596.19637 44.457927 
L 599.334041 44.449721 
L 603.256129 44.446296 
L 618.787601 44.480843 
L 620.51332 44.478046 
L 635.260374 44.529224 
L 636.672326 44.528705 
L 642.6339 44.452492 
L 654.870817 44.459659 
L 658.636023 44.456542 
L 679.972185 44.52494 
L 681.07037 44.579707 
L 684.678692 44.703506 
L 685.46311 44.678192 
L 685.93376 44.71785 
L 687.502596 44.695646 
L 704.602903 44.479804 
L 705.701088 44.47967 
L 711.662662 44.45193 
L 714.64345 44.446892 
L 719.50684 44.465137 
L 719.663724 44.579608 
L 720.291258 44.521246 
L 720.761908 44.634959 
L 721.075675 44.463939 
L 721.232559 44.573698 
L 721.389443 44.446002 
L 721.546326 44.589511 
L 721.860093 44.471468 
L 722.016977 44.571604 
L 722.330744 44.485247 
L 722.487627 44.716464 
L 722.644511 44.474496 
L 724.840881 44.481292 
L 724.997764 44.663867 
L 725.154648 44.497946 
L 725.311531 44.616422 
L 725.468415 44.484693 
L 725.625298 44.57062 
L 725.782182 44.476864 
L 726.095949 44.506682 
L 726.5666 44.475383 
L 726.723483 44.599692 
L 727.03725 44.504192 
L 727.194134 44.487358 
L 727.351017 44.663477 
L 727.664785 44.472101 
L 727.821668 44.637633 
L 728.135435 44.518369 
L 728.449202 44.469052 
L 728.606086 44.683467 
L 728.762969 44.639562 
L 729.076737 44.452851 
L 729.23362 44.651945 
L 729.547387 44.455698 
L 729.861154 44.579894 
L 730.331805 44.476277 
L 730.488688 44.700541 
L 730.959339 44.508995 
L 731.586873 44.671895 
L 731.743757 44.495833 
L 731.90064 44.499374 
L 732.057524 44.883362 
L 732.214408 44.505252 
L 733.783243 44.583765 
L 733.940127 44.769747 
L 734.09701 44.446349 
L 734.253894 44.785983 
L 734.410777 44.537572 
L 734.567661 44.560787 
L 734.724544 44.468046 
L 735.195195 44.572754 
L 735.508962 44.533169 
L 735.822729 44.48306 
L 736.29338 44.507416 
L 736.450263 44.629015 
L 736.607147 44.506303 
L 737.077798 44.512332 
L 737.234681 44.457855 
L 737.548448 44.669663 
L 737.705332 44.484383 
L 737.862215 44.69552 
L 738.019099 44.462186 
L 738.175982 44.698665 
L 738.803517 44.519286 
L 738.9604 44.622796 
L 739.117284 44.463956 
L 742.882489 44.448947 
L 743.039372 44.710655 
L 743.196256 44.479122 
L 743.35314 44.478354 
L 743.510023 44.589582 
L 743.666907 44.859051 
L 743.82379 44.877383 
L 744.137557 44.586046 
L 744.765092 44.453659 
L 744.921975 44.704857 
L 745.235742 44.487178 
L 745.392626 44.494794 
L 745.549509 44.6558 
L 745.706393 44.521401 
L 745.863276 44.712285 
L 746.177043 44.480565 
L 746.333927 44.514058 
L 746.490811 44.687462 
L 746.647694 44.477369 
L 746.804578 44.91119 
L 747.118345 44.496797 
L 747.745879 44.622529 
L 747.902763 44.481286 
L 748.059646 44.733409 
L 748.21653 44.466895 
L 748.530297 44.707805 
L 748.68718 44.563882 
L 749.000947 44.708096 
L 749.157831 44.473127 
L 749.314714 44.466418 
L 749.471598 44.634241 
L 749.628482 44.485402 
L 749.785365 44.551767 
L 749.942249 44.90265 
L 750.099132 44.596016 
L 750.569783 44.499288 
L 750.88355 44.62228 
L 751.040434 44.493678 
L 751.511084 44.699597 
L 751.824851 44.507935 
L 752.766153 44.552532 
L 752.923036 44.583181 
L 753.07992 44.488789 
L 753.236803 44.695292 
L 753.393687 44.656974 
L 753.707454 44.45088 
L 754.178105 44.509853 
L 754.334988 44.643889 
L 754.491872 44.501436 
L 754.648755 44.726495 
L 754.962522 44.459078 
L 755.276289 44.578347 
L 756.060707 44.457388 
L 756.217591 44.577936 
L 756.374474 44.462412 
L 756.531358 44.703696 
L 756.688241 44.475739 
L 757.94331 44.499759 
L 758.100193 44.655206 
L 758.257077 44.505575 
L 758.884611 44.562851 
L 759.512145 44.46721 
L 759.982796 44.530517 
L 760.139679 44.446847 
L 760.296563 44.539745 
L 760.767214 44.499775 
L 761.551631 44.573123 
L 761.865398 44.506601 
L 762.022282 44.551295 
L 762.179166 44.45228 
L 762.492933 44.462447 
L 763.434234 44.506905 
L 763.904885 44.723893 
L 764.061768 44.49717 
L 765.630604 44.446523 
L 765.787487 44.665732 
L 766.101254 44.471615 
L 767.67009 44.509958 
L 768.297624 44.475625 
L 768.768275 44.47854 
L 768.925158 44.443715 
L 769.082042 44.614564 
L 769.395809 44.472681 
L 769.709576 44.4624 
L 771.749062 44.51257 
L 771.905946 44.457823 
L 772.219713 44.480425 
L 773.004131 44.538409 
L 773.317898 44.44925 
L 773.788548 44.547065 
L 774.102315 44.484267 
L 774.572966 44.502377 
L 774.886733 44.495173 
L 775.043617 44.458222 
L 775.2005 44.856929 
L 775.357384 44.522591 
L 775.828034 44.519371 
L 775.984918 44.63804 
L 776.141802 44.459534 
L 776.298685 44.617463 
L 776.455569 44.616711 
L 776.612452 44.471927 
L 776.769336 44.838175 
L 776.926219 44.501803 
L 778.495055 44.446103 
L 779.279473 44.509258 
L 780.220774 44.500715 
L 780.534541 44.538419 
L 780.691424 44.486012 
L 780.848308 44.597622 
L 781.005192 44.471549 
L 781.632726 44.608829 
L 781.789609 44.501476 
L 781.946493 44.701997 
L 782.103376 44.467752 
L 782.26026 44.453969 
L 782.417144 44.641201 
L 782.730911 44.511935 
L 786.182349 44.545411 
L 786.496116 44.668186 
L 786.652999 44.491664 
L 786.966766 44.564748 
L 787.12365 44.79198 
L 787.437417 44.461328 
L 787.751184 44.514913 
L 788.064951 44.511973 
L 788.378718 44.654846 
L 788.535602 44.459876 
L 788.692486 44.488856 
L 788.849369 44.726626 
L 789.163136 44.502304 
L 789.32002 44.664448 
L 789.633787 44.459904 
L 790.104437 44.702513 
L 790.261321 44.475242 
L 790.888855 44.498206 
L 791.045739 44.618202 
L 791.202622 44.465598 
L 791.516389 44.640566 
L 791.830157 44.47759 
L 791.98704 44.472868 
L 792.457691 44.712163 
L 792.614574 44.510781 
L 792.928341 44.547689 
L 793.085225 44.445341 
L 793.242108 44.556989 
L 793.398992 44.476168 
L 793.555876 44.869339 
L 793.869643 44.554988 
L 794.65406 44.846559 
L 794.810944 44.456401 
L 795.281595 44.611668 
L 795.595362 44.60616 
L 795.752245 44.886345 
L 796.066012 44.566395 
L 796.222896 44.898652 
L 796.536663 44.680736 
L 797.007314 44.811532 
L 797.164197 44.549593 
L 797.321081 45.151441 
L 797.634848 44.634585 
L 797.791731 44.773975 
L 797.948615 44.712977 
L 798.262382 44.721503 
L 798.419266 44.612336 
L 798.733033 44.96406 
L 798.889916 44.706953 
L 799.203683 44.87397 
L 799.51745 44.48711 
L 799.988101 44.556195 
L 800.144985 44.772729 
L 800.615635 44.599058 
L 800.929402 44.911959 
L 801.086286 44.614384 
L 801.24317 44.665072 
L 801.400053 44.913089 
L 801.556937 44.483494 
L 801.71382 45.055568 
L 801.870704 44.620823 
L 802.027587 44.839788 
L 802.184471 44.577106 
L 802.341354 44.811677 
L 802.655121 44.594218 
L 802.812005 44.852806 
L 803.125772 44.604701 
L 803.282656 44.565614 
L 803.439539 44.938139 
L 803.91019 44.560776 
L 804.223957 44.507644 
L 804.694608 44.790151 
L 804.851491 44.485278 
L 805.008375 44.553017 
L 805.165258 44.802581 
L 805.322142 44.753852 
L 805.479025 44.461204 
L 805.635909 44.811076 
L 805.792792 44.520022 
L 805.949676 44.605022 
L 806.10656 44.525659 
L 806.263443 44.642201 
L 806.420327 44.53521 
L 806.57721 44.790132 
L 806.734094 44.50236 
L 806.890977 44.753639 
L 807.204744 44.539052 
L 807.518512 44.542241 
L 807.832279 44.53311 
L 807.989162 44.683653 
L 808.302929 44.57183 
L 808.459813 44.735993 
L 808.616696 44.477136 
L 808.77358 44.750746 
L 809.087347 44.488302 
L 809.244231 44.880823 
L 809.401114 44.522954 
L 809.871765 44.457627 
L 810.028648 44.773879 
L 810.185532 44.832111 
L 810.499299 44.53245 
L 810.656183 44.607371 
L 810.813066 44.528863 
L 811.126833 44.671158 
L 811.283717 44.517064 
L 811.4406 44.952844 
L 811.597484 44.562062 
L 811.754367 44.698791 
L 811.911251 44.509007 
L 812.538785 44.634373 
L 812.695669 44.543675 
L 812.852552 44.831482 
L 813.009436 44.554307 
L 813.950737 44.62956 
L 814.264504 44.532516 
L 814.892038 44.496463 
L 815.205805 44.759185 
L 815.519573 44.494578 
L 815.990223 44.474135 
L 816.147107 44.769106 
L 816.30399 44.469248 
L 816.460874 44.597418 
L 816.774641 44.48376 
L 816.931524 44.687488 
L 817.088408 44.52138 
L 817.245292 44.620217 
L 817.559059 44.4873 
L 817.715942 44.657339 
L 818.029709 44.487911 
L 818.343476 44.612298 
L 819.127894 44.52293 
L 819.284778 44.464284 
L 819.441661 44.585271 
L 819.755428 44.447438 
L 819.912312 44.613306 
L 820.382963 44.462144 
L 820.539846 44.613018 
L 820.69673 44.44744 
L 821.951798 44.509666 
L 822.108682 44.481272 
L 822.265565 44.636579 
L 822.422449 44.503079 
L 822.579332 44.644552 
L 822.893099 44.471493 
L 823.206866 44.640412 
L 823.520634 44.539205 
L 823.677517 44.614273 
L 823.991284 44.461818 
L 824.148168 44.522344 
L 824.305051 44.451367 
L 824.461935 44.697309 
L 824.618818 44.469589 
L 824.775702 44.661447 
L 824.932586 44.53188 
L 825.089469 44.714187 
L 825.246353 44.65429 
L 825.403236 44.456238 
L 825.56012 44.526955 
L 825.873887 44.460432 
L 826.344537 44.512695 
L 826.501421 44.473784 
L 826.658305 44.639508 
L 826.815188 44.46915 
L 827.285839 44.597163 
L 827.599606 44.481963 
L 827.756489 44.703408 
L 827.913373 44.506319 
L 828.22714 44.630259 
L 828.384024 44.481889 
L 828.540907 44.760237 
L 828.854674 44.500619 
L 829.168441 44.450468 
L 829.639092 44.453967 
L 830.266626 44.496539 
L 830.42351 44.639737 
L 830.580393 44.447905 
L 831.364811 44.558331 
L 831.521695 44.690834 
L 831.678578 44.492688 
L 831.992345 44.535596 
L 832.149229 44.705167 
L 832.462996 44.450577 
L 833.247414 44.545869 
L 833.561181 44.484232 
L 833.718064 44.561751 
L 833.874948 44.473421 
L 834.031831 44.564855 
L 834.188715 44.447624 
L 834.345599 44.614028 
L 834.816249 44.473256 
L 835.130016 44.621853 
L 835.2869 44.472265 
L 836.698852 44.579893 
L 836.855735 44.463897 
L 837.169502 44.575283 
L 837.326386 44.444981 
L 837.95392 44.57668 
L 838.424571 44.474628 
L 838.895221 44.560546 
L 839.365872 44.483086 
L 839.679639 44.463903 
L 840.15029 44.480565 
L 840.620941 44.646861 
L 840.934708 44.472002 
L 841.405358 44.58737 
L 841.562242 44.502099 
L 841.876009 44.541126 
L 843.131077 44.486174 
L 843.444844 44.573427 
L 843.601728 44.481522 
L 843.915495 44.530941 
L 844.229262 44.510284 
L 844.543029 44.476086 
L 844.699913 44.567764 
L 845.01368 44.459457 
L 846.268748 44.561579 
L 846.582515 44.646286 
L 846.739399 44.533947 
L 846.896283 44.606432 
L 847.21005 44.478836 
L 847.366933 44.467935 
L 847.523817 44.576771 
L 848.151351 44.453307 
L 848.465118 44.68272 
L 848.622002 44.454667 
L 849.092652 44.55644 
L 849.563303 44.488822 
L 849.87707 44.496916 
L 850.504604 44.562118 
L 850.818371 44.482378 
L 850.975255 44.554865 
L 851.602789 44.452854 
L 851.759673 44.537042 
L 851.916556 44.489314 
L 852.07344 44.566488 
L 852.54409 44.516354 
L 852.700974 44.615549 
L 853.328508 44.491756 
L 854.269809 44.47635 
L 854.583576 44.546207 
L 854.897344 44.499422 
L 855.838645 44.712778 
L 855.995528 44.520444 
L 856.152412 44.530406 
L 856.309296 44.759216 
L 856.466179 44.473972 
L 856.623063 44.565949 
L 857.093713 44.491041 
L 857.250597 44.77885 
L 857.40748 44.496355 
L 857.564364 44.482919 
L 857.721247 44.619546 
L 858.035015 44.489025 
L 858.191898 44.692059 
L 858.819432 44.572892 
L 858.976316 44.619432 
L 859.290083 44.470019 
L 859.917617 44.589409 
L 860.231384 44.498495 
L 860.388268 44.654977 
L 860.702035 44.524004 
L 860.858918 44.562476 
L 861.172686 44.472714 
L 861.80022 44.525413 
L 862.113987 44.753955 
L 862.27087 44.549793 
L 862.898405 44.557988 
L 863.212172 44.476397 
L 863.525939 44.484929 
L 863.682822 44.661289 
L 863.839706 44.462962 
L 863.996589 44.843109 
L 864.153473 44.487656 
L 864.46724 44.474155 
L 864.624124 44.736997 
L 864.781007 44.452137 
L 865.094774 44.557227 
L 865.251658 44.49399 
L 865.565425 44.633405 
L 865.879192 44.520481 
L 866.036076 44.509873 
L 866.192959 44.675992 
L 866.66361 44.453177 
L 866.977377 44.791584 
L 867.13426 44.463231 
L 868.389329 44.485996 
L 868.546212 44.657136 
L 868.703096 44.458294 
L 870.115048 44.514029 
L 870.428815 44.472373 
L 870.585699 44.496019 
L 870.742582 44.657334 
L 870.899466 44.463398 
L 871.997651 44.57879 
L 872.154534 44.496177 
L 872.311418 44.569727 
L 872.625185 44.46905 
L 872.938952 44.521289 
L 873.095835 44.73007 
L 873.409602 44.488468 
L 873.880253 44.544992 
L 874.978438 44.536931 
L 875.135322 44.813725 
L 875.449089 44.470667 
L 876.233506 44.621295 
L 876.39039 44.461212 
L 877.488575 44.565989 
L 877.802342 44.461218 
L 878.429876 44.470767 
L 878.58676 44.726983 
L 878.900527 44.477348 
L 879.05741 44.598437 
L 879.214294 44.477587 
L 879.841828 44.492677 
L 880.312479 44.465239 
L 880.469362 44.600556 
L 881.096896 44.472205 
L 881.25378 44.617476 
L 881.567547 44.459315 
L 881.724431 44.553408 
L 882.195081 44.496317 
L 883.45015 44.50219 
L 883.607033 44.576294 
L 883.763917 44.455567 
L 884.077684 44.55142 
L 884.391451 44.494647 
L 884.548335 44.640141 
L 884.705218 44.494016 
L 885.018985 44.676156 
L 885.332752 44.469612 
L 885.960286 44.516398 
L 886.11717 44.474906 
L 886.274054 44.873378 
L 886.744704 44.506028 
L 887.058471 44.509083 
L 888.156656 44.479531 
L 888.470423 44.48424 
L 888.941074 44.44893 
L 889.411725 44.469316 
L 891.451211 44.590342 
L 891.921861 44.466598 
L 892.235628 44.521278 
L 892.549396 44.477152 
L 892.706279 44.690664 
L 892.863163 44.463918 
L 893.020046 44.568627 
L 893.17693 44.465331 
L 893.333813 44.586956 
L 893.490697 44.467504 
L 894.118231 44.532328 
L 894.275115 44.460795 
L 894.431998 44.755899 
L 894.588882 44.461242 
L 895.059532 44.745842 
L 895.216416 44.476367 
L 896.000834 44.497063 
L 896.157717 44.630231 
L 896.314601 44.446576 
L 896.471484 44.634479 
L 896.785251 44.573097 
L 896.942135 44.592321 
L 897.099019 44.746401 
L 897.255902 44.477651 
L 897.569669 44.52453 
L 898.197203 44.668795 
L 898.51097 44.480112 
L 898.824738 44.572819 
L 898.981621 44.499362 
L 899.138505 44.571511 
L 899.295388 44.477289 
L 899.766039 44.498404 
L 900.70734 44.490573 
L 901.021107 44.828441 
L 901.334874 44.493941 
L 901.491758 44.939863 
L 901.648641 44.557476 
L 901.805525 44.546919 
L 902.119292 44.769691 
L 902.276176 44.572034 
L 903.688128 44.61089 
L 904.001895 44.464154 
L 904.158778 44.702649 
L 904.315662 44.534633 
L 904.786312 44.582619 
L 904.943196 44.910696 
L 905.10008 44.537546 
L 905.256963 44.674324 
L 905.727614 44.613334 
L 905.884497 44.783097 
L 906.041381 44.473405 
L 906.355148 45.011316 
L 906.512032 44.641697 
L 906.668915 44.664554 
L 906.825799 44.55665 
L 907.139566 44.657048 
L 907.296449 44.553225 
L 907.453333 44.976798 
L 907.610216 44.560099 
L 907.7671 44.709662 
L 907.923983 44.551585 
L 908.080867 44.713752 
L 908.394634 44.551112 
L 908.708401 44.981533 
L 908.865285 44.94616 
L 909.022168 44.744499 
L 909.179052 44.82186 
L 909.806586 44.61435 
L 909.96347 44.681324 
L 910.120353 44.918129 
L 910.277237 44.614634 
L 910.747887 45.187565 
L 910.904771 44.626689 
L 911.218538 44.524849 
L 911.532305 44.778396 
L 912.159839 44.577486 
L 912.316723 44.632536 
L 912.473606 44.534459 
L 913.258024 44.673617 
L 913.414908 44.630629 
L 913.571791 44.731659 
L 913.885558 44.501059 
L 914.042442 44.895231 
L 914.199325 44.566256 
L 914.82686 44.800567 
L 914.983743 44.493479 
L 915.29751 44.527752 
L 915.454394 44.672921 
L 915.611277 44.478012 
L 915.768161 44.718612 
L 916.081928 44.7265 
L 916.238812 44.611864 
L 916.395695 44.639046 
L 916.552579 44.471626 
L 917.023229 44.619155 
L 917.336996 44.538001 
L 917.49388 44.572232 
L 917.650764 44.472763 
L 917.964531 44.766957 
L 918.121414 44.451488 
L 918.748948 44.610501 
L 918.905832 44.46287 
L 919.376483 44.458869 
L 919.847133 44.533692 
L 920.004017 44.980818 
L 920.1609 44.447491 
L 920.317784 45.153004 
L 920.474667 44.485457 
L 920.788435 44.646502 
L 921.102202 44.477869 
L 921.415969 44.517406 
L 921.572852 45.016851 
L 921.729736 44.496377 
L 922.043503 44.454368 
L 922.200387 44.73049 
L 922.35727 44.482973 
L 923.141688 44.529537 
L 924.239873 44.50698 
L 924.396756 44.579502 
L 924.55364 44.455993 
L 924.710523 44.646042 
L 924.867407 44.515438 
L 925.338058 44.762065 
L 925.494941 44.509739 
L 925.651825 44.584974 
L 925.808708 44.462495 
L 926.436242 44.686243 
L 926.750009 44.474715 
L 927.377544 44.500163 
L 927.691311 44.476137 
L 928.005078 44.499599 
L 928.161961 44.760717 
L 928.318845 44.455144 
L 929.41703 44.583384 
L 929.573913 44.464767 
L 929.730797 44.602036 
L 929.88768 44.452412 
L 930.044564 44.705261 
L 930.201448 44.504449 
L 930.358331 44.639183 
L 930.515215 44.467734 
L 931.770283 44.53251 
L 931.927167 44.614774 
L 932.240934 44.484551 
L 932.711584 44.464904 
L 932.868468 44.528866 
L 933.182235 44.446139 
L 933.966653 44.508672 
L 934.123536 44.599651 
L 934.437303 44.522044 
L 934.907954 44.453982 
L 935.221721 44.572485 
L 935.849255 44.457732 
L 936.006139 44.538426 
L 936.47679 44.467104 
L 936.633673 44.453483 
L 936.94744 44.548167 
L 937.104324 44.514958 
L 937.261207 44.603159 
L 937.888742 44.463941 
L 938.202509 44.452673 
L 938.516276 44.633332 
L 938.830043 44.478144 
L 939.14381 44.580351 
L 939.300693 44.449004 
L 939.771344 44.465931 
L 940.241995 44.494156 
L 940.398878 44.582618 
L 940.555762 44.499308 
L 940.712645 44.591636 
L 940.869529 44.470338 
L 941.026413 44.563189 
L 941.183296 44.50816 
L 941.34018 44.616547 
L 941.653947 44.538445 
L 941.967714 44.512173 
L 944.477851 44.530354 
L 944.791618 44.462491 
L 945.262268 44.559228 
L 945.576035 44.459402 
L 945.889803 44.587141 
L 946.20357 44.458662 
L 946.360453 44.447146 
L 946.67422 44.600599 
L 946.987987 44.46458 
L 947.144871 44.721806 
L 947.458638 44.547336 
L 947.929289 44.472591 
L 948.086172 44.671062 
L 948.243056 44.461813 
L 948.399939 44.845863 
L 948.556823 44.477592 
L 948.713706 44.655633 
L 948.87059 44.485218 
L 949.498124 44.756311 
L 949.655008 44.458775 
L 949.811891 44.655129 
L 949.968775 44.492706 
L 950.125658 44.609824 
L 950.439426 44.50816 
L 950.753193 44.619083 
L 950.910076 44.536476 
L 951.06696 44.592112 
L 951.380727 44.490667 
L 951.851377 44.82204 
L 952.008261 44.465867 
L 952.322028 44.60506 
L 952.478912 44.460438 
L 952.949562 44.517065 
L 953.263329 44.44498 
L 953.577097 44.497281 
L 953.890864 44.503098 
L 954.047747 44.586517 
L 954.361514 44.451032 
L 954.675281 44.485154 
L 954.832165 44.563563 
L 954.989048 44.454022 
L 955.302816 44.563979 
L 955.616583 44.467208 
L 956.244117 44.489024 
L 956.871651 44.505813 
L 957.028535 44.599332 
L 957.342302 44.516265 
L 957.812952 44.518733 
L 957.969836 44.455243 
L 958.283603 44.598596 
L 958.440487 44.504211 
L 958.59737 44.566592 
L 958.911137 44.479052 
L 960.009322 44.502264 
L 960.166206 44.808224 
L 960.323089 44.834812 
L 960.636856 44.5153 
L 961.26439 44.542001 
L 961.421274 44.508632 
L 961.735041 44.653939 
L 962.362575 44.479424 
L 962.519459 44.450729 
L 962.833226 44.537162 
L 963.303877 44.524225 
L 963.46076 44.719417 
L 963.617644 44.503647 
L 963.774527 44.634144 
L 964.245178 44.567233 
L 964.558945 44.615976 
L 964.715829 45.027996 
L 964.872712 44.588781 
L 965.186479 44.571261 
L 965.500246 44.505106 
L 966.284664 44.564342 
L 966.441548 44.604903 
L 966.598431 44.474225 
L 967.225965 44.529599 
L 967.8535 44.547693 
L 968.010383 44.714133 
L 968.481034 44.472135 
L 969.265452 44.614003 
L 969.422335 44.761544 
L 969.579219 44.497142 
L 969.892986 44.58647 
L 970.206753 44.482885 
L 970.363636 44.44558 
L 970.363636 44.44558 
" style="fill:none;stroke:#1f77b4;stroke-linecap:square;stroke-width:1.5;"/>
   </g>
   <g id="patch_3">
    <path d="M 180 252 
L 180 34.56 
" style="fill:none;stroke:#000000;stroke-linecap:square;stroke-linejoin:miter;stroke-width:0.8;"/>
   </g>
   <g id="patch_4">
    <path d="M 1008 252 
L 1008 34.56 
" style="fill:none;stroke:#000000;stroke-linecap:square;stroke-linejoin:miter;stroke-width:0.8;"/>
   </g>
   <g id="patch_5">
    <path d="M 180 252 
L 1008 252 
" style="fill:none;stroke:#000000;stroke-linecap:square;stroke-linejoin:miter;stroke-width:0.8;"/>
   </g>
   <g id="patch_6">
    <path d="M 180 34.56 
L 1008 34.56 
" style="fill:none;stroke:#000000;stroke-linecap:square;stroke-linejoin:miter;stroke-width:0.8;"/>
   </g>
  </g>
 </g>
 <defs>
  <clipPath id="p3f78dd41c9">
   <rect height="217.44" width="828" x="180" y="34.56"/>
  </clipPath>
 </defs>
</svg>
