<?xml version="1.0" encoding="utf-8" standalone="no"?>
<!DOCTYPE svg PUBLIC "-//W3C//DTD SVG 1.1//EN"
  "http://www.w3.org/Graphics/SVG/1.1/DTD/svg11.dtd">
<!-- Created with matplotlib (https://matplotlib.org/) -->
<svg height="288pt" version="1.1" viewBox="0 0 1440 288" width="1440pt" xmlns="http://www.w3.org/2000/svg" xmlns:xlink="http://www.w3.org/1999/xlink">
 <defs>
  <style type="text/css">
*{stroke-linecap:butt;stroke-linejoin:round;}
  </style>
 </defs>
 <g id="figure_1">
  <g id="patch_1">
   <path d="M 0 288 
L 1440 288 
L 1440 0 
L 0 0 
z
" style="fill:#ffffff;"/>
  </g>
  <g id="axes_1">
   <g id="patch_2">
    <path d="M 180 252 
L 1008 252 
L 1008 34.56 
L 180 34.56 
z
" style="fill:#ffffff;"/>
   </g>
   <g id="matplotlib.axis_1">
    <g id="xtick_1">
     <g id="line2d_1">
      <path clip-path="url(#p3a9af88b61)" d="M 217.636364 252 
L 217.636364 34.56 
" style="fill:none;stroke:#b0b0b0;stroke-linecap:square;stroke-width:0.8;"/>
     </g>
     <g id="line2d_2">
      <defs>
       <path d="M 0 0 
L 0 3.5 
" id="mea4711ee49" style="stroke:#000000;stroke-width:0.8;"/>
      </defs>
      <g>
       <use style="stroke:#000000;stroke-width:0.8;" x="217.636364" xlink:href="#mea4711ee49" y="252"/>
      </g>
     </g>
     <g id="text_1">
      <!-- 0 -->
      <defs>
       <path d="M 4.15625 35.296875 
Q 4.15625 48 6.765625 55.734375 
Q 9.375 63.484375 14.515625 67.671875 
Q 19.671875 71.875 27.484375 71.875 
Q 33.25 71.875 37.59375 69.546875 
Q 41.9375 67.234375 44.765625 62.859375 
Q 47.609375 58.5 49.21875 52.21875 
Q 50.828125 45.953125 50.828125 35.296875 
Q 50.828125 22.703125 48.234375 14.96875 
Q 45.65625 7.234375 40.5 3 
Q 35.359375 -1.21875 27.484375 -1.21875 
Q 17.140625 -1.21875 11.234375 6.203125 
Q 4.15625 15.140625 4.15625 35.296875 
z
M 13.1875 35.296875 
Q 13.1875 17.671875 17.3125 11.828125 
Q 21.4375 6 27.484375 6 
Q 33.546875 6 37.671875 11.859375 
Q 41.796875 17.71875 41.796875 35.296875 
Q 41.796875 52.984375 37.671875 58.78125 
Q 33.546875 64.59375 27.390625 64.59375 
Q 21.34375 64.59375 17.71875 59.46875 
Q 13.1875 52.9375 13.1875 35.296875 
z
" id="ArialMT-48"/>
      </defs>
      <g transform="translate(210.407145 277.610313)scale(0.26 -0.26)">
       <use xlink:href="#ArialMT-48"/>
      </g>
     </g>
    </g>
    <g id="xtick_2">
     <g id="line2d_3">
      <path clip-path="url(#p3a9af88b61)" d="M 468.650044 252 
L 468.650044 34.56 
" style="fill:none;stroke:#b0b0b0;stroke-linecap:square;stroke-width:0.8;"/>
     </g>
     <g id="line2d_4">
      <g>
       <use style="stroke:#000000;stroke-width:0.8;" x="468.650044" xlink:href="#mea4711ee49" y="252"/>
      </g>
     </g>
     <g id="text_2">
      <!-- 1600 -->
      <defs>
       <path d="M 37.25 0 
L 28.46875 0 
L 28.46875 56 
Q 25.296875 52.984375 20.140625 49.953125 
Q 14.984375 46.921875 10.890625 45.40625 
L 10.890625 53.90625 
Q 18.265625 57.375 23.78125 62.296875 
Q 29.296875 67.234375 31.59375 71.875 
L 37.25 71.875 
z
" id="ArialMT-49"/>
       <path d="M 49.75 54.046875 
L 41.015625 53.375 
Q 39.84375 58.546875 37.703125 60.890625 
Q 34.125 64.65625 28.90625 64.65625 
Q 24.703125 64.65625 21.53125 62.3125 
Q 17.390625 59.28125 14.984375 53.46875 
Q 12.59375 47.65625 12.5 36.921875 
Q 15.671875 41.75 20.265625 44.09375 
Q 24.859375 46.4375 29.890625 46.4375 
Q 38.671875 46.4375 44.84375 39.96875 
Q 51.03125 33.5 51.03125 23.25 
Q 51.03125 16.5 48.125 10.71875 
Q 45.21875 4.9375 40.140625 1.859375 
Q 35.0625 -1.21875 28.609375 -1.21875 
Q 17.625 -1.21875 10.6875 6.859375 
Q 3.765625 14.9375 3.765625 33.5 
Q 3.765625 54.25 11.421875 63.671875 
Q 18.109375 71.875 29.4375 71.875 
Q 37.890625 71.875 43.28125 67.140625 
Q 48.6875 62.40625 49.75 54.046875 
z
M 13.875 23.1875 
Q 13.875 18.65625 15.796875 14.5 
Q 17.71875 10.359375 21.1875 8.171875 
Q 24.65625 6 28.46875 6 
Q 34.03125 6 38.03125 10.484375 
Q 42.046875 14.984375 42.046875 22.703125 
Q 42.046875 30.125 38.078125 34.390625 
Q 34.125 38.671875 28.125 38.671875 
Q 22.171875 38.671875 18.015625 34.390625 
Q 13.875 30.125 13.875 23.1875 
z
" id="ArialMT-54"/>
      </defs>
      <g transform="translate(439.733169 277.610313)scale(0.26 -0.26)">
       <use xlink:href="#ArialMT-49"/>
       <use x="55.615234" xlink:href="#ArialMT-54"/>
       <use x="111.230469" xlink:href="#ArialMT-48"/>
       <use x="166.845703" xlink:href="#ArialMT-48"/>
      </g>
     </g>
    </g>
    <g id="xtick_3">
     <g id="line2d_5">
      <path clip-path="url(#p3a9af88b61)" d="M 719.663724 252 
L 719.663724 34.56 
" style="fill:none;stroke:#b0b0b0;stroke-linecap:square;stroke-width:0.8;"/>
     </g>
     <g id="line2d_6">
      <g>
       <use style="stroke:#000000;stroke-width:0.8;" x="719.663724" xlink:href="#mea4711ee49" y="252"/>
      </g>
     </g>
     <g id="text_3">
      <!-- 3200 -->
      <defs>
       <path d="M 4.203125 18.890625 
L 12.984375 20.0625 
Q 14.5 12.59375 18.140625 9.296875 
Q 21.78125 6 27 6 
Q 33.203125 6 37.46875 10.296875 
Q 41.75 14.59375 41.75 20.953125 
Q 41.75 27 37.796875 30.921875 
Q 33.84375 34.859375 27.734375 34.859375 
Q 25.25 34.859375 21.53125 33.890625 
L 22.515625 41.609375 
Q 23.390625 41.5 23.921875 41.5 
Q 29.546875 41.5 34.03125 44.421875 
Q 38.53125 47.359375 38.53125 53.46875 
Q 38.53125 58.296875 35.25 61.46875 
Q 31.984375 64.65625 26.8125 64.65625 
Q 21.6875 64.65625 18.265625 61.421875 
Q 14.84375 58.203125 13.875 51.765625 
L 5.078125 53.328125 
Q 6.6875 62.15625 12.390625 67.015625 
Q 18.109375 71.875 26.609375 71.875 
Q 32.46875 71.875 37.390625 69.359375 
Q 42.328125 66.84375 44.9375 62.5 
Q 47.5625 58.15625 47.5625 53.265625 
Q 47.5625 48.640625 45.0625 44.828125 
Q 42.578125 41.015625 37.703125 38.765625 
Q 44.046875 37.3125 47.5625 32.6875 
Q 51.078125 28.078125 51.078125 21.140625 
Q 51.078125 11.765625 44.234375 5.25 
Q 37.40625 -1.265625 26.953125 -1.265625 
Q 17.53125 -1.265625 11.296875 4.34375 
Q 5.078125 9.96875 4.203125 18.890625 
z
" id="ArialMT-51"/>
       <path d="M 50.34375 8.453125 
L 50.34375 0 
L 3.03125 0 
Q 2.9375 3.171875 4.046875 6.109375 
Q 5.859375 10.9375 9.828125 15.625 
Q 13.8125 20.3125 21.34375 26.46875 
Q 33.015625 36.03125 37.109375 41.625 
Q 41.21875 47.21875 41.21875 52.203125 
Q 41.21875 57.421875 37.46875 61 
Q 33.734375 64.59375 27.734375 64.59375 
Q 21.390625 64.59375 17.578125 60.78125 
Q 13.765625 56.984375 13.71875 50.25 
L 4.6875 51.171875 
Q 5.609375 61.28125 11.65625 66.578125 
Q 17.71875 71.875 27.9375 71.875 
Q 38.234375 71.875 44.234375 66.15625 
Q 50.25 60.453125 50.25 52 
Q 50.25 47.703125 48.484375 43.546875 
Q 46.734375 39.40625 42.65625 34.8125 
Q 38.578125 30.21875 29.109375 22.21875 
Q 21.1875 15.578125 18.9375 13.203125 
Q 16.703125 10.84375 15.234375 8.453125 
z
" id="ArialMT-50"/>
      </defs>
      <g transform="translate(690.746849 277.610313)scale(0.26 -0.26)">
       <use xlink:href="#ArialMT-51"/>
       <use x="55.615234" xlink:href="#ArialMT-50"/>
       <use x="111.230469" xlink:href="#ArialMT-48"/>
       <use x="166.845703" xlink:href="#ArialMT-48"/>
      </g>
     </g>
    </g>
    <g id="xtick_4">
     <g id="line2d_7">
      <path clip-path="url(#p3a9af88b61)" d="M 970.677403 252 
L 970.677403 34.56 
" style="fill:none;stroke:#b0b0b0;stroke-linecap:square;stroke-width:0.8;"/>
     </g>
     <g id="line2d_8">
      <g>
       <use style="stroke:#000000;stroke-width:0.8;" x="970.677403" xlink:href="#mea4711ee49" y="252"/>
      </g>
     </g>
     <g id="text_4">
      <!-- 4800 -->
      <defs>
       <path d="M 32.328125 0 
L 32.328125 17.140625 
L 1.265625 17.140625 
L 1.265625 25.203125 
L 33.9375 71.578125 
L 41.109375 71.578125 
L 41.109375 25.203125 
L 50.78125 25.203125 
L 50.78125 17.140625 
L 41.109375 17.140625 
L 41.109375 0 
z
M 32.328125 25.203125 
L 32.328125 57.46875 
L 9.90625 25.203125 
z
" id="ArialMT-52"/>
       <path d="M 17.671875 38.8125 
Q 12.203125 40.828125 9.5625 44.53125 
Q 6.9375 48.25 6.9375 53.421875 
Q 6.9375 61.234375 12.546875 66.546875 
Q 18.171875 71.875 27.484375 71.875 
Q 36.859375 71.875 42.578125 66.421875 
Q 48.296875 60.984375 48.296875 53.171875 
Q 48.296875 48.1875 45.671875 44.5 
Q 43.0625 40.828125 37.75 38.8125 
Q 44.34375 36.671875 47.78125 31.875 
Q 51.21875 27.09375 51.21875 20.453125 
Q 51.21875 11.28125 44.71875 5.03125 
Q 38.234375 -1.21875 27.640625 -1.21875 
Q 17.046875 -1.21875 10.546875 5.046875 
Q 4.046875 11.328125 4.046875 20.703125 
Q 4.046875 27.6875 7.59375 32.390625 
Q 11.140625 37.109375 17.671875 38.8125 
z
M 15.921875 53.71875 
Q 15.921875 48.640625 19.1875 45.40625 
Q 22.46875 42.1875 27.6875 42.1875 
Q 32.765625 42.1875 36.015625 45.375 
Q 39.265625 48.578125 39.265625 53.21875 
Q 39.265625 58.0625 35.90625 61.359375 
Q 32.5625 64.65625 27.59375 64.65625 
Q 22.5625 64.65625 19.234375 61.421875 
Q 15.921875 58.203125 15.921875 53.71875 
z
M 13.09375 20.65625 
Q 13.09375 16.890625 14.875 13.375 
Q 16.65625 9.859375 20.171875 7.921875 
Q 23.6875 6 27.734375 6 
Q 34.03125 6 38.125 10.046875 
Q 42.234375 14.109375 42.234375 20.359375 
Q 42.234375 26.703125 38.015625 30.859375 
Q 33.796875 35.015625 27.4375 35.015625 
Q 21.234375 35.015625 17.15625 30.90625 
Q 13.09375 26.8125 13.09375 20.65625 
z
" id="ArialMT-56"/>
      </defs>
      <g transform="translate(941.760528 277.610313)scale(0.26 -0.26)">
       <use xlink:href="#ArialMT-52"/>
       <use x="55.615234" xlink:href="#ArialMT-56"/>
       <use x="111.230469" xlink:href="#ArialMT-48"/>
       <use x="166.845703" xlink:href="#ArialMT-48"/>
      </g>
     </g>
    </g>
    <g id="text_5">
     <!-- # sample -->
     <defs>
      <path d="M 5.03125 -1.21875 
L 9.28125 19.578125 
L 1.03125 19.578125 
L 1.03125 26.859375 
L 10.75 26.859375 
L 14.359375 44.578125 
L 1.03125 44.578125 
L 1.03125 51.859375 
L 15.828125 51.859375 
L 20.0625 72.796875 
L 27.390625 72.796875 
L 23.140625 51.859375 
L 38.53125 51.859375 
L 42.78125 72.796875 
L 50.140625 72.796875 
L 45.90625 51.859375 
L 54.34375 51.859375 
L 54.34375 44.578125 
L 44.4375 44.578125 
L 40.765625 26.859375 
L 54.34375 26.859375 
L 54.34375 19.578125 
L 39.3125 19.578125 
L 35.0625 -1.21875 
L 27.734375 -1.21875 
L 31.9375 19.578125 
L 16.609375 19.578125 
L 12.359375 -1.21875 
z
M 18.0625 26.859375 
L 33.40625 26.859375 
L 37.0625 44.578125 
L 21.6875 44.578125 
z
" id="ArialMT-35"/>
      <path id="ArialMT-32"/>
      <path d="M 3.078125 15.484375 
L 11.765625 16.84375 
Q 12.5 11.625 15.84375 8.84375 
Q 19.1875 6.0625 25.203125 6.0625 
Q 31.25 6.0625 34.171875 8.515625 
Q 37.109375 10.984375 37.109375 14.3125 
Q 37.109375 17.28125 34.515625 19 
Q 32.71875 20.171875 25.53125 21.96875 
Q 15.875 24.421875 12.140625 26.203125 
Q 8.40625 27.984375 6.46875 31.125 
Q 4.546875 34.28125 4.546875 38.09375 
Q 4.546875 41.546875 6.125 44.5 
Q 7.71875 47.46875 10.453125 49.421875 
Q 12.5 50.921875 16.03125 51.96875 
Q 19.578125 53.03125 23.640625 53.03125 
Q 29.734375 53.03125 34.34375 51.265625 
Q 38.96875 49.515625 41.15625 46.5 
Q 43.359375 43.5 44.1875 38.484375 
L 35.59375 37.3125 
Q 35.015625 41.3125 32.203125 43.546875 
Q 29.390625 45.796875 24.265625 45.796875 
Q 18.21875 45.796875 15.625 43.796875 
Q 13.03125 41.796875 13.03125 39.109375 
Q 13.03125 37.40625 14.109375 36.03125 
Q 15.1875 34.625 17.484375 33.6875 
Q 18.796875 33.203125 25.25 31.453125 
Q 34.578125 28.953125 38.25 27.359375 
Q 41.9375 25.78125 44.03125 22.75 
Q 46.140625 19.734375 46.140625 15.234375 
Q 46.140625 10.84375 43.578125 6.953125 
Q 41.015625 3.078125 36.171875 0.953125 
Q 31.34375 -1.171875 25.25 -1.171875 
Q 15.140625 -1.171875 9.84375 3.03125 
Q 4.546875 7.234375 3.078125 15.484375 
z
" id="ArialMT-115"/>
      <path d="M 40.4375 6.390625 
Q 35.546875 2.25 31.03125 0.53125 
Q 26.515625 -1.171875 21.34375 -1.171875 
Q 12.796875 -1.171875 8.203125 3 
Q 3.609375 7.171875 3.609375 13.671875 
Q 3.609375 17.484375 5.34375 20.625 
Q 7.078125 23.78125 9.890625 25.6875 
Q 12.703125 27.59375 16.21875 28.5625 
Q 18.796875 29.25 24.03125 29.890625 
Q 34.671875 31.15625 39.703125 32.90625 
Q 39.75 34.71875 39.75 35.203125 
Q 39.75 40.578125 37.25 42.78125 
Q 33.890625 45.75 27.25 45.75 
Q 21.046875 45.75 18.09375 43.578125 
Q 15.140625 41.40625 13.71875 35.890625 
L 5.125 37.0625 
Q 6.296875 42.578125 8.984375 45.96875 
Q 11.671875 49.359375 16.75 51.1875 
Q 21.828125 53.03125 28.515625 53.03125 
Q 35.15625 53.03125 39.296875 51.46875 
Q 43.453125 49.90625 45.40625 47.53125 
Q 47.359375 45.171875 48.140625 41.546875 
Q 48.578125 39.3125 48.578125 33.453125 
L 48.578125 21.734375 
Q 48.578125 9.46875 49.140625 6.21875 
Q 49.703125 2.984375 51.375 0 
L 42.1875 0 
Q 40.828125 2.734375 40.4375 6.390625 
z
M 39.703125 26.03125 
Q 34.90625 24.078125 25.34375 22.703125 
Q 19.921875 21.921875 17.671875 20.9375 
Q 15.4375 19.96875 14.203125 18.09375 
Q 12.984375 16.21875 12.984375 13.921875 
Q 12.984375 10.40625 15.640625 8.0625 
Q 18.3125 5.71875 23.4375 5.71875 
Q 28.515625 5.71875 32.46875 7.9375 
Q 36.421875 10.15625 38.28125 14.015625 
Q 39.703125 17 39.703125 22.796875 
z
" id="ArialMT-97"/>
      <path d="M 6.59375 0 
L 6.59375 51.859375 
L 14.453125 51.859375 
L 14.453125 44.578125 
Q 16.890625 48.390625 20.9375 50.703125 
Q 25 53.03125 30.171875 53.03125 
Q 35.9375 53.03125 39.625 50.640625 
Q 43.3125 48.25 44.828125 43.953125 
Q 50.984375 53.03125 60.84375 53.03125 
Q 68.5625 53.03125 72.703125 48.75 
Q 76.859375 44.484375 76.859375 35.59375 
L 76.859375 0 
L 68.109375 0 
L 68.109375 32.671875 
Q 68.109375 37.9375 67.25 40.25 
Q 66.40625 42.578125 64.15625 43.984375 
Q 61.921875 45.40625 58.890625 45.40625 
Q 53.421875 45.40625 49.796875 41.765625 
Q 46.1875 38.140625 46.1875 30.125 
L 46.1875 0 
L 37.40625 0 
L 37.40625 33.6875 
Q 37.40625 39.546875 35.25 42.46875 
Q 33.109375 45.40625 28.21875 45.40625 
Q 24.515625 45.40625 21.359375 43.453125 
Q 18.21875 41.5 16.796875 37.734375 
Q 15.375 33.984375 15.375 26.90625 
L 15.375 0 
z
" id="ArialMT-109"/>
      <path d="M 6.59375 -19.875 
L 6.59375 51.859375 
L 14.59375 51.859375 
L 14.59375 45.125 
Q 17.4375 49.078125 21 51.046875 
Q 24.5625 53.03125 29.640625 53.03125 
Q 36.28125 53.03125 41.359375 49.609375 
Q 46.4375 46.1875 49.015625 39.953125 
Q 51.609375 33.734375 51.609375 26.3125 
Q 51.609375 18.359375 48.75 11.984375 
Q 45.90625 5.609375 40.453125 2.21875 
Q 35.015625 -1.171875 29 -1.171875 
Q 24.609375 -1.171875 21.109375 0.6875 
Q 17.625 2.546875 15.375 5.375 
L 15.375 -19.875 
z
M 14.546875 25.640625 
Q 14.546875 15.625 18.59375 10.84375 
Q 22.65625 6.0625 28.421875 6.0625 
Q 34.28125 6.0625 38.453125 11.015625 
Q 42.625 15.96875 42.625 26.375 
Q 42.625 36.28125 38.546875 41.203125 
Q 34.46875 46.140625 28.8125 46.140625 
Q 23.1875 46.140625 18.859375 40.890625 
Q 14.546875 35.640625 14.546875 25.640625 
z
" id="ArialMT-112"/>
      <path d="M 6.390625 0 
L 6.390625 71.578125 
L 15.1875 71.578125 
L 15.1875 0 
z
" id="ArialMT-108"/>
      <path d="M 42.09375 16.703125 
L 51.171875 15.578125 
Q 49.03125 7.625 43.21875 3.21875 
Q 37.40625 -1.171875 28.375 -1.171875 
Q 17 -1.171875 10.328125 5.828125 
Q 3.65625 12.84375 3.65625 25.484375 
Q 3.65625 38.578125 10.390625 45.796875 
Q 17.140625 53.03125 27.875 53.03125 
Q 38.28125 53.03125 44.875 45.953125 
Q 51.46875 38.875 51.46875 26.03125 
Q 51.46875 25.25 51.421875 23.6875 
L 12.75 23.6875 
Q 13.234375 15.140625 17.578125 10.59375 
Q 21.921875 6.0625 28.421875 6.0625 
Q 33.25 6.0625 36.671875 8.59375 
Q 40.09375 11.140625 42.09375 16.703125 
z
M 13.234375 30.90625 
L 42.1875 30.90625 
Q 41.609375 37.453125 38.875 40.71875 
Q 34.671875 45.796875 27.984375 45.796875 
Q 21.921875 45.796875 17.796875 41.75 
Q 13.671875 37.703125 13.234375 30.90625 
z
" id="ArialMT-101"/>
     </defs>
     <g transform="translate(557.483906 299.88125)scale(0.18 -0.18)">
      <use xlink:href="#ArialMT-35"/>
      <use x="55.615234" xlink:href="#ArialMT-32"/>
      <use x="83.398438" xlink:href="#ArialMT-115"/>
      <use x="133.398438" xlink:href="#ArialMT-97"/>
      <use x="189.013672" xlink:href="#ArialMT-109"/>
      <use x="272.314453" xlink:href="#ArialMT-112"/>
      <use x="327.929688" xlink:href="#ArialMT-108"/>
      <use x="350.146484" xlink:href="#ArialMT-101"/>
     </g>
    </g>
   </g>
   <g id="matplotlib.axis_2">
    <g id="ytick_1">
     <g id="line2d_9">
      <path clip-path="url(#p3a9af88b61)" d="M 180 215.956563 
L 1008 215.956563 
" style="fill:none;stroke:#b0b0b0;stroke-linecap:square;stroke-width:0.8;"/>
     </g>
     <g id="line2d_10">
      <defs>
       <path d="M 0 0 
L -3.5 0 
" id="m12c0625b17" style="stroke:#000000;stroke-width:0.8;"/>
      </defs>
      <g>
       <use style="stroke:#000000;stroke-width:0.8;" x="180" xlink:href="#m12c0625b17" y="215.956563"/>
      </g>
     </g>
     <g id="text_6">
      <!-- −1000 -->
      <defs>
       <path d="M 52.828125 31.203125 
L 5.5625 31.203125 
L 5.5625 39.40625 
L 52.828125 39.40625 
z
" id="ArialMT-8722"/>
      </defs>
      <g transform="translate(99.980625 225.261719)scale(0.26 -0.26)">
       <use xlink:href="#ArialMT-8722"/>
       <use x="58.398438" xlink:href="#ArialMT-49"/>
       <use x="114.013672" xlink:href="#ArialMT-48"/>
       <use x="169.628906" xlink:href="#ArialMT-48"/>
       <use x="225.244141" xlink:href="#ArialMT-48"/>
      </g>
     </g>
    </g>
    <g id="ytick_2">
     <g id="line2d_11">
      <path clip-path="url(#p3a9af88b61)" d="M 180 130.200097 
L 1008 130.200097 
" style="fill:none;stroke:#b0b0b0;stroke-linecap:square;stroke-width:0.8;"/>
     </g>
     <g id="line2d_12">
      <g>
       <use style="stroke:#000000;stroke-width:0.8;" x="180" xlink:href="#m12c0625b17" y="130.200097"/>
      </g>
     </g>
     <g id="text_7">
      <!-- −500 -->
      <defs>
       <path d="M 4.15625 18.75 
L 13.375 19.53125 
Q 14.40625 12.796875 18.140625 9.390625 
Q 21.875 6 27.15625 6 
Q 33.5 6 37.890625 10.78125 
Q 42.28125 15.578125 42.28125 23.484375 
Q 42.28125 31 38.0625 35.34375 
Q 33.84375 39.703125 27 39.703125 
Q 22.75 39.703125 19.328125 37.765625 
Q 15.921875 35.84375 13.96875 32.765625 
L 5.71875 33.84375 
L 12.640625 70.609375 
L 48.25 70.609375 
L 48.25 62.203125 
L 19.671875 62.203125 
L 15.828125 42.96875 
Q 22.265625 47.46875 29.34375 47.46875 
Q 38.71875 47.46875 45.15625 40.96875 
Q 51.609375 34.46875 51.609375 24.265625 
Q 51.609375 14.546875 45.953125 7.46875 
Q 39.0625 -1.21875 27.15625 -1.21875 
Q 17.390625 -1.21875 11.203125 4.25 
Q 5.03125 9.71875 4.15625 18.75 
z
" id="ArialMT-53"/>
      </defs>
      <g transform="translate(114.439063 139.505253)scale(0.26 -0.26)">
       <use xlink:href="#ArialMT-8722"/>
       <use x="58.398438" xlink:href="#ArialMT-53"/>
       <use x="114.013672" xlink:href="#ArialMT-48"/>
       <use x="169.628906" xlink:href="#ArialMT-48"/>
      </g>
     </g>
    </g>
    <g id="ytick_3">
     <g id="line2d_13">
      <path clip-path="url(#p3a9af88b61)" d="M 180 44.44363 
L 1008 44.44363 
" style="fill:none;stroke:#b0b0b0;stroke-linecap:square;stroke-width:0.8;"/>
     </g>
     <g id="line2d_14">
      <g>
       <use style="stroke:#000000;stroke-width:0.8;" x="180" xlink:href="#m12c0625b17" y="44.44363"/>
      </g>
     </g>
     <g id="text_8">
      <!-- 0 -->
      <g transform="translate(158.541562 53.748786)scale(0.26 -0.26)">
       <use xlink:href="#ArialMT-48"/>
      </g>
     </g>
    </g>
    <g id="text_9">
     <!-- Log-likelihood (a.u.) -->
     <defs>
      <path d="M 7.328125 0 
L 7.328125 71.578125 
L 16.796875 71.578125 
L 16.796875 8.453125 
L 52.046875 8.453125 
L 52.046875 0 
z
" id="ArialMT-76"/>
      <path d="M 3.328125 25.921875 
Q 3.328125 40.328125 11.328125 47.265625 
Q 18.015625 53.03125 27.640625 53.03125 
Q 38.328125 53.03125 45.109375 46.015625 
Q 51.90625 39.015625 51.90625 26.65625 
Q 51.90625 16.65625 48.90625 10.90625 
Q 45.90625 5.171875 40.15625 2 
Q 34.421875 -1.171875 27.640625 -1.171875 
Q 16.75 -1.171875 10.03125 5.8125 
Q 3.328125 12.796875 3.328125 25.921875 
z
M 12.359375 25.921875 
Q 12.359375 15.96875 16.703125 11.015625 
Q 21.046875 6.0625 27.640625 6.0625 
Q 34.1875 6.0625 38.53125 11.03125 
Q 42.875 16.015625 42.875 26.21875 
Q 42.875 35.84375 38.5 40.796875 
Q 34.125 45.75 27.640625 45.75 
Q 21.046875 45.75 16.703125 40.8125 
Q 12.359375 35.890625 12.359375 25.921875 
z
" id="ArialMT-111"/>
      <path d="M 4.984375 -4.296875 
L 13.53125 -5.5625 
Q 14.0625 -9.515625 16.5 -11.328125 
Q 19.78125 -13.765625 25.4375 -13.765625 
Q 31.546875 -13.765625 34.859375 -11.328125 
Q 38.1875 -8.890625 39.359375 -4.5 
Q 40.046875 -1.8125 39.984375 6.78125 
Q 34.234375 0 25.640625 0 
Q 14.9375 0 9.078125 7.71875 
Q 3.21875 15.4375 3.21875 26.21875 
Q 3.21875 33.640625 5.90625 39.90625 
Q 8.59375 46.1875 13.6875 49.609375 
Q 18.796875 53.03125 25.6875 53.03125 
Q 34.859375 53.03125 40.828125 45.609375 
L 40.828125 51.859375 
L 48.921875 51.859375 
L 48.921875 7.03125 
Q 48.921875 -5.078125 46.453125 -10.125 
Q 44 -15.1875 38.640625 -18.109375 
Q 33.296875 -21.046875 25.484375 -21.046875 
Q 16.21875 -21.046875 10.5 -16.875 
Q 4.78125 -12.703125 4.984375 -4.296875 
z
M 12.25 26.859375 
Q 12.25 16.65625 16.296875 11.96875 
Q 20.359375 7.28125 26.46875 7.28125 
Q 32.515625 7.28125 36.609375 11.9375 
Q 40.71875 16.609375 40.71875 26.5625 
Q 40.71875 36.078125 36.5 40.90625 
Q 32.28125 45.75 26.3125 45.75 
Q 20.453125 45.75 16.34375 40.984375 
Q 12.25 36.234375 12.25 26.859375 
z
" id="ArialMT-103"/>
      <path d="M 3.171875 21.484375 
L 3.171875 30.328125 
L 30.171875 30.328125 
L 30.171875 21.484375 
z
" id="ArialMT-45"/>
      <path d="M 6.640625 61.46875 
L 6.640625 71.578125 
L 15.4375 71.578125 
L 15.4375 61.46875 
z
M 6.640625 0 
L 6.640625 51.859375 
L 15.4375 51.859375 
L 15.4375 0 
z
" id="ArialMT-105"/>
      <path d="M 6.640625 0 
L 6.640625 71.578125 
L 15.4375 71.578125 
L 15.4375 30.765625 
L 36.234375 51.859375 
L 47.609375 51.859375 
L 27.78125 32.625 
L 49.609375 0 
L 38.765625 0 
L 21.625 26.515625 
L 15.4375 20.5625 
L 15.4375 0 
z
" id="ArialMT-107"/>
      <path d="M 6.59375 0 
L 6.59375 71.578125 
L 15.375 71.578125 
L 15.375 45.90625 
Q 21.53125 53.03125 30.90625 53.03125 
Q 36.671875 53.03125 40.921875 50.75 
Q 45.171875 48.484375 47 44.484375 
Q 48.828125 40.484375 48.828125 32.859375 
L 48.828125 0 
L 40.046875 0 
L 40.046875 32.859375 
Q 40.046875 39.453125 37.1875 42.453125 
Q 34.328125 45.453125 29.109375 45.453125 
Q 25.203125 45.453125 21.75 43.421875 
Q 18.3125 41.40625 16.84375 37.9375 
Q 15.375 34.46875 15.375 28.375 
L 15.375 0 
z
" id="ArialMT-104"/>
      <path d="M 40.234375 0 
L 40.234375 6.546875 
Q 35.296875 -1.171875 25.734375 -1.171875 
Q 19.53125 -1.171875 14.328125 2.25 
Q 9.125 5.671875 6.265625 11.796875 
Q 3.421875 17.921875 3.421875 25.875 
Q 3.421875 33.640625 6 39.96875 
Q 8.59375 46.296875 13.765625 49.65625 
Q 18.953125 53.03125 25.34375 53.03125 
Q 30.03125 53.03125 33.6875 51.046875 
Q 37.359375 49.078125 39.65625 45.90625 
L 39.65625 71.578125 
L 48.390625 71.578125 
L 48.390625 0 
z
M 12.453125 25.875 
Q 12.453125 15.921875 16.640625 10.984375 
Q 20.84375 6.0625 26.5625 6.0625 
Q 32.328125 6.0625 36.34375 10.765625 
Q 40.375 15.484375 40.375 25.140625 
Q 40.375 35.796875 36.265625 40.765625 
Q 32.171875 45.75 26.171875 45.75 
Q 20.3125 45.75 16.375 40.96875 
Q 12.453125 36.1875 12.453125 25.875 
z
" id="ArialMT-100"/>
      <path d="M 23.390625 -21.046875 
Q 16.109375 -11.859375 11.078125 0.4375 
Q 6.0625 12.75 6.0625 25.921875 
Q 6.0625 37.546875 9.8125 48.1875 
Q 14.203125 60.546875 23.390625 72.796875 
L 29.6875 72.796875 
Q 23.78125 62.640625 21.875 58.296875 
Q 18.890625 51.5625 17.1875 44.234375 
Q 15.09375 35.109375 15.09375 25.875 
Q 15.09375 2.390625 29.6875 -21.046875 
z
" id="ArialMT-40"/>
      <path d="M 9.078125 0 
L 9.078125 10.015625 
L 19.09375 10.015625 
L 19.09375 0 
z
" id="ArialMT-46"/>
      <path d="M 40.578125 0 
L 40.578125 7.625 
Q 34.515625 -1.171875 24.125 -1.171875 
Q 19.53125 -1.171875 15.546875 0.578125 
Q 11.578125 2.34375 9.640625 5 
Q 7.71875 7.671875 6.9375 11.53125 
Q 6.390625 14.109375 6.390625 19.734375 
L 6.390625 51.859375 
L 15.1875 51.859375 
L 15.1875 23.09375 
Q 15.1875 16.21875 15.71875 13.8125 
Q 16.546875 10.359375 19.234375 8.375 
Q 21.921875 6.390625 25.875 6.390625 
Q 29.828125 6.390625 33.296875 8.421875 
Q 36.765625 10.453125 38.203125 13.9375 
Q 39.65625 17.4375 39.65625 24.078125 
L 39.65625 51.859375 
L 48.4375 51.859375 
L 48.4375 0 
z
" id="ArialMT-117"/>
      <path d="M 12.359375 -21.046875 
L 6.0625 -21.046875 
Q 20.65625 2.390625 20.65625 25.875 
Q 20.65625 35.0625 18.5625 44.09375 
Q 16.890625 51.421875 13.921875 58.15625 
Q 12.015625 62.546875 6.0625 72.796875 
L 12.359375 72.796875 
Q 21.53125 60.546875 25.921875 48.1875 
Q 29.6875 37.546875 29.6875 25.921875 
Q 29.6875 12.75 24.625 0.4375 
Q 19.578125 -11.859375 12.359375 -21.046875 
z
" id="ArialMT-41"/>
     </defs>
     <g transform="translate(92.192188 222.318281)rotate(-90)scale(0.18 -0.18)">
      <use xlink:href="#ArialMT-76"/>
      <use x="55.615234" xlink:href="#ArialMT-111"/>
      <use x="111.230469" xlink:href="#ArialMT-103"/>
      <use x="166.845703" xlink:href="#ArialMT-45"/>
      <use x="200.146484" xlink:href="#ArialMT-108"/>
      <use x="222.363281" xlink:href="#ArialMT-105"/>
      <use x="244.580078" xlink:href="#ArialMT-107"/>
      <use x="294.580078" xlink:href="#ArialMT-101"/>
      <use x="350.195312" xlink:href="#ArialMT-108"/>
      <use x="372.412109" xlink:href="#ArialMT-105"/>
      <use x="394.628906" xlink:href="#ArialMT-104"/>
      <use x="450.244141" xlink:href="#ArialMT-111"/>
      <use x="505.859375" xlink:href="#ArialMT-111"/>
      <use x="561.474609" xlink:href="#ArialMT-100"/>
      <use x="617.089844" xlink:href="#ArialMT-32"/>
      <use x="644.873047" xlink:href="#ArialMT-40"/>
      <use x="678.173828" xlink:href="#ArialMT-97"/>
      <use x="733.789062" xlink:href="#ArialMT-46"/>
      <use x="761.572266" xlink:href="#ArialMT-117"/>
      <use x="817.1875" xlink:href="#ArialMT-46"/>
      <use x="844.970703" xlink:href="#ArialMT-41"/>
     </g>
    </g>
   </g>
   <g id="line2d_15">
    <path clip-path="url(#p3a9af88b61)" d="M 217.636364 242.116364 
L 217.793247 93.948382 
L 217.950131 56.931178 
L 218.107014 47.576754 
L 218.263898 45.237376 
L 218.420781 44.634742 
L 218.734548 44.464934 
L 221.558452 44.52163 
L 221.715336 44.81037 
L 221.872219 44.830785 
L 222.029103 44.707442 
L 222.185987 44.87559 
L 222.499754 44.612695 
L 222.813521 44.719622 
L 222.970404 44.602546 
L 223.284171 44.617602 
L 224.696123 44.477686 
L 224.853007 44.539621 
L 225.166774 44.447107 
L 227.833794 44.554756 
L 227.990678 44.494194 
L 228.304445 44.575402 
L 228.775096 44.508868 
L 228.931979 44.677781 
L 229.40263 44.533902 
L 230.814582 44.460394 
L 240.855129 44.444899 
L 261.093107 44.444395 
L 277.879647 44.44423 
L 352.556217 44.444005 
L 372.16666 44.445391 
L 387.541248 44.443864 
L 443.548676 44.444571 
L 468.336276 44.444824 
L 468.49316 44.756483 
L 468.806927 44.730422 
L 469.120694 44.785932 
L 472.101482 44.506537 
L 472.729016 44.500079 
L 475.866687 44.453062 
L 485.436583 44.48569 
L 486.848535 44.486127 
L 489.201789 44.498718 
L 490.299973 44.486863 
L 492.182576 44.516298 
L 492.966994 44.491576 
L 495.163364 44.490059 
L 509.282883 44.465989 
L 510.537951 44.481044 
L 512.891205 44.497392 
L 514.773807 44.533423 
L 515.244458 44.567063 
L 520.578499 44.69328 
L 521.206033 44.630104 
L 521.5198 44.63277 
L 521.990451 44.601533 
L 523.559286 44.548462 
L 524.343704 44.51778 
L 526.540074 44.474984 
L 529.991512 44.478933 
L 531.089696 44.466567 
L 534.854902 44.472488 
L 536.894388 44.471634 
L 541.287127 44.477451 
L 546.150517 44.49282 
L 550.70014 44.489688 
L 554.151578 44.539609 
L 555.56353 44.552925 
L 556.347948 44.561573 
L 558.073667 44.548699 
L 558.544318 44.560923 
L 559.95627 44.515804 
L 560.740687 44.519768 
L 561.211338 44.488478 
L 565.133427 44.503921 
L 573.134488 44.773776 
L 573.448255 44.760549 
L 576.115275 44.712733 
L 577.840994 44.679097 
L 579.723597 44.663741 
L 580.508015 44.600454 
L 581.449316 44.615836 
L 582.233734 44.603209 
L 584.586987 44.537718 
L 586.155823 44.544816 
L 590.705445 44.499972 
L 591.646747 44.485249 
L 619.572019 44.477331 
L 620.983971 44.477508 
L 627.57308 44.485018 
L 629.926333 44.566344 
L 630.2401 44.534633 
L 632.122703 44.568285 
L 634.162189 44.546905 
L 636.672326 44.520773 
L 637.613627 44.493104 
L 650.791845 44.456303 
L 655.969002 44.456627 
L 682.325439 44.68285 
L 682.952973 44.695837 
L 683.894274 44.697538 
L 684.678692 44.706751 
L 685.93376 44.688587 
L 686.247527 44.712065 
L 687.659479 44.673157 
L 688.287014 44.682675 
L 688.757664 44.653894 
L 689.542082 44.64816 
L 690.012733 44.637309 
L 691.895335 44.61562 
L 692.522869 44.592846 
L 694.876123 44.567965 
L 695.974307 44.535758 
L 697.543143 44.537913 
L 698.955095 44.527625 
L 719.349956 44.447488 
L 719.663724 44.561519 
L 719.977491 44.497611 
L 720.291258 44.632474 
L 720.448141 44.473106 
L 721.546326 44.634878 
L 721.860093 44.475775 
L 722.17386 44.552783 
L 722.330744 44.452835 
L 722.644511 44.520715 
L 723.115162 44.473162 
L 723.428929 44.678038 
L 723.742696 44.542789 
L 723.899579 44.754037 
L 724.213346 44.549312 
L 724.997764 44.513838 
L 725.154648 44.475887 
L 725.311531 44.59149 
L 725.468415 44.447456 
L 725.625298 44.536832 
L 725.939066 44.540071 
L 726.5666 44.516347 
L 726.880367 44.632732 
L 727.351017 44.50137 
L 727.821668 44.679563 
L 728.135435 44.504039 
L 728.292319 44.568174 
L 728.606086 44.483565 
L 728.919853 44.494524 
L 730.488688 44.483687 
L 730.645572 44.644632 
L 730.802456 44.505264 
L 731.743757 44.509945 
L 732.057524 44.499334 
L 732.214408 44.587314 
L 732.528175 44.473318 
L 732.998825 44.645269 
L 733.155709 44.503175 
L 734.253894 44.614718 
L 734.410777 44.804423 
L 734.724544 44.608213 
L 735.038311 44.55859 
L 735.352079 44.466919 
L 735.508962 44.645921 
L 735.979613 44.569772 
L 736.920914 44.491159 
L 737.077798 44.649668 
L 737.234681 44.488834 
L 737.705332 44.799 
L 737.862215 44.454148 
L 738.332866 44.605762 
L 738.646633 44.457395 
L 738.803517 44.545698 
L 738.9604 44.467842 
L 739.117284 44.548026 
L 739.587934 44.484094 
L 739.744818 44.622345 
L 740.372352 44.488223 
L 740.529236 44.60617 
L 740.843003 44.515863 
L 741.313653 44.485336 
L 741.470537 44.549975 
L 741.627421 44.472089 
L 741.784304 44.677136 
L 742.098071 44.445916 
L 742.254955 44.815027 
L 742.411838 44.493394 
L 742.568722 44.571212 
L 742.725605 44.466937 
L 743.039372 44.593585 
L 743.196256 44.82715 
L 743.510023 44.565586 
L 743.666907 44.513132 
L 743.980674 44.718408 
L 744.137557 44.771088 
L 744.294441 44.520497 
L 744.451324 44.585316 
L 744.765092 44.521939 
L 744.921975 44.629341 
L 745.392626 44.54689 
L 745.549509 44.760908 
L 745.706393 44.571688 
L 746.02016 44.714096 
L 746.177043 44.556798 
L 746.333927 44.732613 
L 746.490811 44.688453 
L 746.647694 44.489044 
L 746.961461 44.751487 
L 747.118345 44.488528 
L 747.275228 44.689103 
L 747.432112 44.545512 
L 747.588995 45.034389 
L 747.745879 44.620043 
L 748.059646 44.742875 
L 748.21653 44.950286 
L 748.373413 44.586264 
L 748.68718 44.601565 
L 748.844064 44.665215 
L 749.000947 44.530702 
L 749.471598 44.728741 
L 749.628482 44.472671 
L 749.785365 44.611289 
L 750.099132 44.485075 
L 750.726666 44.514079 
L 750.88355 44.765876 
L 751.197317 44.514928 
L 751.354201 44.829956 
L 751.511084 44.49312 
L 751.667968 44.453236 
L 751.981735 44.634558 
L 752.138618 44.527263 
L 752.295502 44.647972 
L 752.609269 44.539022 
L 752.923036 44.687175 
L 753.07992 44.492269 
L 753.393687 44.620363 
L 753.707454 44.469366 
L 754.178105 44.539239 
L 754.334988 44.583253 
L 754.491872 44.486996 
L 754.962522 44.584644 
L 755.433173 44.484268 
L 755.590056 44.616388 
L 756.060707 44.460597 
L 756.217591 44.64024 
L 756.531358 44.481493 
L 757.94331 44.504356 
L 758.100193 44.663594 
L 758.41396 44.482762 
L 760.453447 44.469271 
L 760.924097 44.457329 
L 761.080981 44.564922 
L 761.394748 44.543888 
L 761.551631 44.694161 
L 761.708515 44.682677 
L 761.865398 44.467985 
L 762.022282 44.445164 
L 762.179166 44.58581 
L 763.27735 44.484435 
L 763.591118 44.5902 
L 764.218652 44.536993 
L 764.532419 44.568966 
L 765.630604 44.517624 
L 766.258138 44.454669 
L 766.885672 44.549013 
L 767.356323 44.459148 
L 767.513206 44.540894 
L 767.826973 44.499629 
L 768.297624 44.457281 
L 768.454508 44.602063 
L 768.611391 44.448737 
L 768.925158 44.586613 
L 769.082042 44.450791 
L 769.238925 44.549892 
L 769.395809 44.923026 
L 769.552692 44.59827 
L 770.023343 44.504671 
L 770.180227 44.760367 
L 770.493994 44.463922 
L 771.592179 44.540902 
L 772.219713 44.491857 
L 772.376596 44.565728 
L 772.847247 44.480723 
L 773.004131 44.461209 
L 773.161014 44.583673 
L 773.317898 44.48672 
L 773.474781 44.604757 
L 773.788548 44.469134 
L 773.945432 44.548184 
L 774.102315 44.474758 
L 774.259199 44.652914 
L 774.416082 44.564837 
L 774.72985 44.61573 
L 775.043617 44.494227 
L 775.514267 44.493879 
L 776.455569 44.553641 
L 776.612452 44.736145 
L 776.769336 44.501941 
L 777.710637 44.493098 
L 778.181288 44.681642 
L 778.495055 44.45231 
L 778.808822 44.523835 
L 779.279473 44.455621 
L 779.59324 44.630225 
L 779.750123 44.4521 
L 781.005192 44.53443 
L 781.318959 44.489786 
L 781.632726 44.512314 
L 782.103376 44.472922 
L 783.829095 44.529596 
L 784.142863 44.543259 
L 788.849369 44.51276 
L 789.006253 44.665433 
L 789.32002 44.494805 
L 790.104437 44.52771 
L 790.261321 44.819246 
L 790.418205 44.46343 
L 790.731972 44.570018 
L 790.888855 44.463068 
L 791.202622 44.674837 
L 791.359506 44.562345 
L 791.516389 44.783757 
L 791.673273 44.611444 
L 791.830157 44.626702 
L 791.98704 44.497153 
L 792.300807 44.63071 
L 792.457691 44.544498 
L 792.614574 44.723981 
L 792.771458 44.546713 
L 792.928341 44.720212 
L 793.398992 44.501297 
L 793.555876 44.726131 
L 793.712759 44.659279 
L 794.18341 45.027926 
L 794.340293 44.770219 
L 794.497177 44.919401 
L 794.65406 44.525818 
L 795.124711 44.926964 
L 795.281595 44.7332 
L 795.438478 44.899943 
L 795.595362 44.667315 
L 796.066012 44.73888 
L 796.222896 45.057768 
L 796.536663 44.681183 
L 797.007314 44.586886 
L 797.164197 44.999725 
L 797.321081 44.62557 
L 797.634848 44.676259 
L 797.791731 44.717089 
L 797.948615 44.569374 
L 798.105499 44.696262 
L 798.262382 44.552897 
L 798.419266 44.851435 
L 798.576149 44.832187 
L 798.733033 44.585605 
L 798.889916 44.690503 
L 799.0468 44.933313 
L 799.203683 44.465706 
L 799.360567 44.853456 
L 799.51745 44.504212 
L 799.674334 44.490571 
L 799.831218 44.698198 
L 799.988101 44.596187 
L 800.458752 44.615682 
L 800.772519 44.542497 
L 801.086286 44.903694 
L 801.24317 44.601899 
L 801.400053 44.905685 
L 801.556937 44.626298 
L 802.341354 44.6946 
L 802.498238 44.811297 
L 802.655121 44.483812 
L 802.968889 44.66749 
L 803.125772 44.520102 
L 803.596423 44.554005 
L 803.753306 44.74782 
L 803.91019 44.558963 
L 804.067073 44.575565 
L 804.223957 44.772746 
L 804.380841 44.572753 
L 804.537724 44.787315 
L 804.694608 44.528269 
L 804.851491 45.099152 
L 805.008375 44.529329 
L 805.165258 44.64103 
L 805.322142 44.560277 
L 805.479025 44.785316 
L 805.635909 44.737681 
L 805.792792 44.522331 
L 806.263443 44.79585 
L 806.420327 44.544668 
L 806.890977 44.630646 
L 807.047861 44.542604 
L 807.204744 44.659228 
L 807.361628 44.534105 
L 807.518512 44.748975 
L 807.675395 44.73794 
L 807.989162 44.480308 
L 808.302929 44.86561 
L 808.459813 44.505269 
L 808.616696 44.663459 
L 808.930463 44.476394 
L 809.087347 44.457845 
L 809.244231 44.771054 
L 809.557998 44.567962 
L 809.714881 44.628116 
L 810.028648 44.606785 
L 810.185532 44.571555 
L 810.342415 44.792131 
L 810.813066 44.611684 
L 810.96995 44.594202 
L 811.283717 44.742205 
L 811.597484 44.472536 
L 811.754367 44.478116 
L 811.911251 44.624187 
L 812.225018 44.541311 
L 812.538785 44.474781 
L 812.695669 44.730946 
L 813.009436 44.577516 
L 813.166319 44.484107 
L 813.323203 44.573242 
L 813.793853 44.523048 
L 813.950737 44.562327 
L 814.107621 44.475409 
L 814.578271 44.69698 
L 815.048922 44.487036 
L 815.362689 44.685591 
L 815.519573 44.508271 
L 816.460874 44.520834 
L 816.774641 44.470688 
L 816.931524 44.5511 
L 817.559059 44.446686 
L 817.872826 44.47094 
L 818.343476 44.544072 
L 818.50036 44.623687 
L 818.814127 44.56826 
L 818.971011 44.57428 
L 819.127894 44.46339 
L 819.441661 44.633783 
L 819.598545 44.486986 
L 819.755428 44.533424 
L 819.912312 44.4525 
L 820.069195 44.617827 
L 820.539846 44.497865 
L 820.853613 44.546099 
L 821.010497 44.672493 
L 821.16738 44.471423 
L 821.481147 44.543164 
L 821.638031 44.80355 
L 821.794915 44.453391 
L 822.422449 44.617385 
L 822.579332 44.468713 
L 822.736216 44.742797 
L 822.893099 44.570153 
L 823.049983 44.645537 
L 823.206866 44.448931 
L 823.991284 44.457499 
L 827.913373 44.512152 
L 828.070257 44.445808 
L 828.22714 44.607561 
L 828.384024 44.600802 
L 828.540907 44.449703 
L 828.854674 44.465532 
L 829.325325 44.616513 
L 829.482208 44.4751 
L 829.952859 44.734463 
L 830.109743 44.49224 
L 833.874948 44.683183 
L 834.031831 44.455103 
L 834.345599 44.638211 
L 834.502482 44.545052 
L 834.659366 44.608509 
L 835.130016 44.475398 
L 835.2869 44.474054 
L 835.443783 44.620204 
L 835.75755 44.476572 
L 837.640153 44.51067 
L 837.797037 44.756212 
L 837.95392 44.509453 
L 838.267687 44.594411 
L 838.424571 44.501736 
L 838.738338 44.650567 
L 839.052105 44.475221 
L 839.208989 44.688424 
L 839.365872 44.470803 
L 839.522756 44.6496 
L 839.679639 44.559327 
L 839.836523 44.59912 
L 840.15029 44.466165 
L 841.405358 44.580953 
L 841.562242 44.466831 
L 842.34666 44.719256 
L 842.503543 44.474644 
L 843.444844 44.461224 
L 843.601728 44.844257 
L 843.758612 44.466895 
L 843.915495 44.586513 
L 844.229262 44.548834 
L 845.01368 44.659117 
L 845.327447 44.447678 
L 845.484331 44.564177 
L 845.641214 44.471509 
L 845.798098 44.632972 
L 845.954981 44.484845 
L 846.111865 44.60108 
L 846.268748 44.507479 
L 846.582515 44.641628 
L 846.739399 44.45279 
L 847.523817 44.471407 
L 847.994467 44.459741 
L 848.151351 44.618006 
L 848.308234 44.523053 
L 848.622002 44.5216 
L 849.720186 44.656007 
L 849.87707 44.475306 
L 850.033954 44.466586 
L 850.190837 44.724879 
L 850.347721 44.505539 
L 850.661488 44.533008 
L 850.818371 44.750495 
L 850.975255 44.548526 
L 851.132138 44.714906 
L 851.445905 44.520353 
L 851.602789 44.651352 
L 851.916556 44.599501 
L 852.07344 44.683097 
L 852.230323 44.44403 
L 852.54409 44.68722 
L 852.700974 44.468277 
L 853.171625 44.656105 
L 853.485392 44.649217 
L 853.799159 44.79484 
L 853.956042 44.495386 
L 854.269809 44.634783 
L 854.426693 44.516062 
L 854.74046 44.771561 
L 855.054227 44.592573 
L 856.309296 44.500265 
L 856.466179 44.668733 
L 856.93683 44.494487 
L 857.093713 44.737012 
L 857.250597 44.678234 
L 857.40748 44.457109 
L 857.564364 44.647703 
L 857.878131 44.471552 
L 859.133199 44.492233 
L 859.446967 44.514384 
L 859.917617 44.555573 
L 860.074501 44.456398 
L 860.231384 44.586085 
L 860.545151 44.490772 
L 860.858918 44.541221 
L 861.172686 44.45173 
L 861.486453 44.50749 
L 861.80022 44.468319 
L 862.113987 44.516362 
L 862.27087 44.451005 
L 862.584638 44.631541 
L 863.212172 44.455596 
L 864.46724 44.502834 
L 864.624124 44.449596 
L 864.937891 44.476245 
L 865.722309 44.638348 
L 865.879192 44.456084 
L 866.036076 44.601695 
L 866.349843 44.487495 
L 867.604911 44.524215 
L 867.761795 44.62037 
L 867.918678 44.474472 
L 870.585699 44.488618 
L 871.056349 44.495645 
L 871.527 44.551133 
L 871.683883 44.455927 
L 871.840767 44.557896 
L 871.997651 44.499735 
L 872.311418 44.577871 
L 872.625185 44.493818 
L 872.782068 44.460281 
L 872.938952 44.73994 
L 873.095835 44.458788 
L 873.252719 44.48007 
L 873.409602 44.614841 
L 873.566486 44.516498 
L 873.72337 44.609853 
L 874.037137 44.473709 
L 874.507787 44.592583 
L 874.821554 44.50499 
L 875.135322 44.59296 
L 875.449089 44.454594 
L 875.919739 44.680771 
L 876.076623 44.494538 
L 879.528061 44.578795 
L 879.684944 44.708399 
L 879.841828 44.497997 
L 880.626246 44.446022 
L 880.783129 44.690057 
L 880.940013 44.511938 
L 881.410664 44.543079 
L 881.724431 44.47188 
L 882.508848 44.519309 
L 882.665732 44.453904 
L 882.979499 44.539472 
L 883.136383 44.451918 
L 883.45015 44.554675 
L 883.607033 44.446561 
L 883.9208 44.653397 
L 884.391451 44.472672 
L 885.646519 44.561229 
L 885.960286 44.471237 
L 886.11717 44.457444 
L 886.430937 44.654131 
L 887.058471 44.512091 
L 887.686006 44.4797 
L 888.156656 44.556206 
L 888.31354 44.473476 
L 888.470423 44.528042 
L 888.627307 44.445449 
L 889.254841 44.531985 
L 889.725492 44.459423 
L 890.353026 44.597785 
L 890.666793 44.460541 
L 891.137444 44.479032 
L 892.549396 44.451296 
L 892.706279 44.56885 
L 893.020046 44.501691 
L 893.333813 44.636789 
L 893.490697 44.485233 
L 893.804464 44.484805 
L 894.745765 44.468152 
L 894.902649 44.63342 
L 895.216416 44.589723 
L 895.373299 44.678452 
L 895.530183 44.493991 
L 896.157717 44.553812 
L 896.314601 44.723886 
L 896.471484 44.46932 
L 896.628368 44.507799 
L 896.785251 44.713267 
L 897.099019 44.449253 
L 897.883436 44.47532 
L 898.04032 44.61538 
L 898.354087 44.514152 
L 898.667854 44.508533 
L 898.981621 44.508242 
L 899.609155 44.517252 
L 899.766039 44.488916 
L 899.922922 44.710393 
L 900.079806 44.459099 
L 900.550457 44.592755 
L 900.70734 44.483748 
L 900.864224 44.644312 
L 901.021107 44.470762 
L 901.177991 44.735669 
L 901.491758 44.537145 
L 902.433059 44.789147 
L 902.746826 44.648454 
L 902.90371 44.816275 
L 903.060593 44.666681 
L 903.374361 44.99707 
L 903.531244 44.495779 
L 903.688128 44.760872 
L 904.315662 44.505388 
L 904.472545 44.62976 
L 904.629429 44.552765 
L 904.786312 44.709128 
L 905.256963 44.501709 
L 905.413847 44.562449 
L 905.57073 45.218601 
L 905.727614 44.623481 
L 906.355148 44.694231 
L 906.512032 44.489519 
L 906.668915 44.823702 
L 907.453333 44.593943 
L 907.610216 44.739488 
L 907.7671 44.619731 
L 907.923983 44.781776 
L 908.080867 44.541037 
L 908.708401 44.765345 
L 909.022168 44.553817 
L 909.179052 44.980581 
L 909.492819 44.66371 
L 909.806586 44.521415 
L 909.96347 44.555673 
L 910.120353 44.883309 
L 910.277237 44.650816 
L 910.43412 44.645639 
L 910.591004 44.503422 
L 910.747887 44.712117 
L 911.061654 44.495084 
L 911.218538 44.712974 
L 911.532305 44.532154 
L 911.689189 44.823002 
L 911.846072 44.603672 
L 912.002956 44.642703 
L 912.159839 44.519642 
L 912.316723 44.697029 
L 912.473606 44.53161 
L 912.63049 44.883167 
L 912.944257 44.540745 
L 913.101141 44.733055 
L 913.258024 44.521585 
L 913.414908 44.633012 
L 913.571791 44.523061 
L 913.728675 44.638515 
L 913.885558 44.546801 
L 914.199325 44.651973 
L 914.513093 44.495689 
L 914.669976 44.672851 
L 915.140627 44.473596 
L 915.29751 44.658997 
L 915.611277 44.496978 
L 915.925045 44.523919 
L 916.238812 44.540581 
L 916.552579 44.533617 
L 916.709462 44.730148 
L 917.180113 44.495417 
L 917.49388 44.496794 
L 918.121414 44.528477 
L 918.435181 44.477204 
L 918.592065 44.67264 
L 918.748948 44.478019 
L 919.376483 44.543716 
L 919.69025 44.620777 
L 919.847133 44.45998 
L 920.004017 44.550129 
L 920.1609 44.467278 
L 920.474667 44.55542 
L 920.788435 44.525989 
L 920.945318 44.620802 
L 921.259085 44.61784 
L 921.729736 44.640122 
L 921.886619 44.451527 
L 922.043503 44.655488 
L 922.200387 44.458876 
L 922.35727 44.561879 
L 922.514154 44.503192 
L 922.671037 44.614935 
L 922.827921 44.458545 
L 922.984804 44.564275 
L 923.141688 44.488041 
L 923.298571 44.566587 
L 923.769222 44.493599 
L 924.082989 44.602794 
L 924.396756 44.483544 
L 924.710523 44.636777 
L 924.867407 44.46318 
L 925.338058 44.518424 
L 925.808708 44.447324 
L 926.122475 44.783527 
L 926.279359 44.483889 
L 927.848194 44.595982 
L 928.005078 44.830737 
L 928.161961 44.514003 
L 928.318845 44.448965 
L 928.475729 44.614536 
L 928.632612 44.45433 
L 928.789496 44.568788 
L 928.946379 44.492685 
L 929.103263 44.705552 
L 929.260146 44.502889 
L 929.88768 44.473216 
L 930.044564 44.609664 
L 930.201448 44.527818 
L 930.358331 44.71437 
L 930.515215 44.490252 
L 930.985865 44.47322 
L 931.142749 44.588203 
L 931.299632 44.473657 
L 931.6134 44.534299 
L 931.927167 44.534465 
L 932.08405 44.575398 
L 932.240934 44.451692 
L 933.182235 44.529396 
L 933.496002 44.474247 
L 933.652886 44.578549 
L 933.809769 44.452585 
L 934.123536 44.559603 
L 934.28042 44.44764 
L 934.437303 44.548266 
L 934.594187 44.482005 
L 934.907954 44.596782 
L 935.378605 44.466243 
L 935.849255 44.51804 
L 936.163022 44.514612 
L 936.319906 44.596902 
L 936.633673 44.521414 
L 936.94744 44.449782 
L 937.574974 44.525303 
L 937.731858 44.465929 
L 937.888742 44.546472 
L 938.045625 44.490885 
L 938.202509 44.670153 
L 938.516276 44.478212 
L 938.830043 44.505829 
L 938.986926 44.459723 
L 939.300693 44.530187 
L 939.614461 44.453951 
L 939.771344 44.611864 
L 939.928228 44.475234 
L 940.085111 44.553502 
L 940.555762 44.484063 
L 940.712645 44.616881 
L 940.869529 44.496318 
L 941.183296 44.553137 
L 941.497063 44.485834 
L 942.752132 44.554187 
L 943.065899 44.517457 
L 943.222782 44.726743 
L 943.693433 44.450435 
L 943.850316 44.533521 
L 944.0072 44.444816 
L 944.320967 44.565477 
L 944.948501 44.491673 
L 945.105385 44.589737 
L 945.419152 44.450833 
L 945.732919 44.585008 
L 946.67422 44.546719 
L 946.987987 44.524635 
L 947.144871 44.444789 
L 947.458638 44.580128 
L 947.772405 44.452833 
L 948.399939 44.622774 
L 948.556823 44.468852 
L 948.713706 44.493029 
L 948.87059 44.695754 
L 949.184357 44.471756 
L 949.655008 44.487842 
L 949.811891 44.774439 
L 950.125658 44.470588 
L 950.282542 44.45329 
L 950.439426 44.628662 
L 950.596309 44.521105 
L 950.753193 44.615429 
L 951.06696 44.494561 
L 951.223843 44.581718 
L 951.380727 44.468076 
L 951.53761 44.754748 
L 951.694494 44.520815 
L 952.635795 44.461487 
L 952.949562 44.627504 
L 953.106446 44.452075 
L 953.263329 44.526941 
L 953.577097 44.493267 
L 953.73398 44.657321 
L 953.890864 44.468904 
L 954.047747 44.703866 
L 954.204631 44.481868 
L 954.675281 44.668788 
L 955.459699 44.472652 
L 955.616583 44.586577 
L 955.93035 44.457584 
L 956.244117 44.556075 
L 956.714768 44.482489 
L 956.871651 44.737112 
L 957.185418 44.514752 
L 957.342302 44.556615 
L 957.499185 44.456055 
L 957.656069 44.554651 
L 957.812952 44.476016 
L 957.969836 44.566913 
L 958.283603 44.459128 
L 958.440487 44.828668 
L 958.59737 44.474065 
L 959.068021 44.486094 
L 959.695555 44.611175 
L 960.79374 44.457017 
L 961.26439 44.450861 
L 961.421274 44.708516 
L 961.578158 44.655953 
L 961.735041 44.480427 
L 961.891925 44.580864 
L 962.362575 44.508621 
L 962.519459 44.61848 
L 962.676342 44.497959 
L 963.146993 44.568738 
L 963.46076 44.473504 
L 963.774527 44.451175 
L 963.931411 44.609517 
L 964.245178 44.484136 
L 964.558945 44.523185 
L 964.872712 44.490055 
L 966.127781 44.490005 
L 966.284664 44.661616 
L 966.598431 44.466128 
L 966.755315 44.544523 
L 966.912198 44.451807 
L 967.225965 44.515409 
L 967.382849 44.465441 
L 967.8535 44.792913 
L 968.010383 44.517448 
L 968.167267 44.696137 
L 968.32415 44.482568 
L 968.481034 44.577182 
L 969.108568 44.458537 
L 969.579219 44.508747 
L 969.736102 44.769886 
L 969.892986 44.47954 
L 970.363636 44.450185 
L 970.363636 44.450185 
" style="fill:none;stroke:#1f77b4;stroke-linecap:square;stroke-width:1.5;"/>
   </g>
   <g id="patch_3">
    <path d="M 180 252 
L 180 34.56 
" style="fill:none;stroke:#000000;stroke-linecap:square;stroke-linejoin:miter;stroke-width:0.8;"/>
   </g>
   <g id="patch_4">
    <path d="M 1008 252 
L 1008 34.56 
" style="fill:none;stroke:#000000;stroke-linecap:square;stroke-linejoin:miter;stroke-width:0.8;"/>
   </g>
   <g id="patch_5">
    <path d="M 180 252 
L 1008 252 
" style="fill:none;stroke:#000000;stroke-linecap:square;stroke-linejoin:miter;stroke-width:0.8;"/>
   </g>
   <g id="patch_6">
    <path d="M 180 34.56 
L 1008 34.56 
" style="fill:none;stroke:#000000;stroke-linecap:square;stroke-linejoin:miter;stroke-width:0.8;"/>
   </g>
  </g>
 </g>
 <defs>
  <clipPath id="p3a9af88b61">
   <rect height="217.44" width="828" x="180" y="34.56"/>
  </clipPath>
 </defs>
</svg>
