<?xml version="1.0" encoding="utf-8" standalone="no"?>
<!DOCTYPE svg PUBLIC "-//W3C//DTD SVG 1.1//EN"
  "http://www.w3.org/Graphics/SVG/1.1/DTD/svg11.dtd">
<!-- Created with matplotlib (https://matplotlib.org/) -->
<svg height="288pt" version="1.1" viewBox="0 0 1440 288" width="1440pt" xmlns="http://www.w3.org/2000/svg" xmlns:xlink="http://www.w3.org/1999/xlink">
 <defs>
  <style type="text/css">
*{stroke-linecap:butt;stroke-linejoin:round;}
  </style>
 </defs>
 <g id="figure_1">
  <g id="patch_1">
   <path d="M 0 288 
L 1440 288 
L 1440 0 
L 0 0 
z
" style="fill:#ffffff;"/>
  </g>
  <g id="axes_1">
   <g id="patch_2">
    <path d="M 180 252 
L 1008 252 
L 1008 34.56 
L 180 34.56 
z
" style="fill:#ffffff;"/>
   </g>
   <g id="matplotlib.axis_1">
    <g id="xtick_1">
     <g id="line2d_1">
      <path clip-path="url(#pf6db05d662)" d="M 217.636364 252 
L 217.636364 34.56 
" style="fill:none;stroke:#b0b0b0;stroke-linecap:square;stroke-width:0.8;"/>
     </g>
     <g id="line2d_2">
      <defs>
       <path d="M 0 0 
L 0 3.5 
" id="m9dbd9930c5" style="stroke:#000000;stroke-width:0.8;"/>
      </defs>
      <g>
       <use style="stroke:#000000;stroke-width:0.8;" x="217.636364" xlink:href="#m9dbd9930c5" y="252"/>
      </g>
     </g>
     <g id="text_1">
      <!-- 0 -->
      <defs>
       <path d="M 4.15625 35.296875 
Q 4.15625 48 6.765625 55.734375 
Q 9.375 63.484375 14.515625 67.671875 
Q 19.671875 71.875 27.484375 71.875 
Q 33.25 71.875 37.59375 69.546875 
Q 41.9375 67.234375 44.765625 62.859375 
Q 47.609375 58.5 49.21875 52.21875 
Q 50.828125 45.953125 50.828125 35.296875 
Q 50.828125 22.703125 48.234375 14.96875 
Q 45.65625 7.234375 40.5 3 
Q 35.359375 -1.21875 27.484375 -1.21875 
Q 17.140625 -1.21875 11.234375 6.203125 
Q 4.15625 15.140625 4.15625 35.296875 
z
M 13.1875 35.296875 
Q 13.1875 17.671875 17.3125 11.828125 
Q 21.4375 6 27.484375 6 
Q 33.546875 6 37.671875 11.859375 
Q 41.796875 17.71875 41.796875 35.296875 
Q 41.796875 52.984375 37.671875 58.78125 
Q 33.546875 64.59375 27.390625 64.59375 
Q 21.34375 64.59375 17.71875 59.46875 
Q 13.1875 52.9375 13.1875 35.296875 
z
" id="ArialMT-48"/>
      </defs>
      <g transform="translate(214.855895 266.157812)scale(0.1 -0.1)">
       <use xlink:href="#ArialMT-48"/>
      </g>
     </g>
    </g>
    <g id="xtick_2">
     <g id="line2d_3">
      <path clip-path="url(#pf6db05d662)" d="M 468.650044 252 
L 468.650044 34.56 
" style="fill:none;stroke:#b0b0b0;stroke-linecap:square;stroke-width:0.8;"/>
     </g>
     <g id="line2d_4">
      <g>
       <use style="stroke:#000000;stroke-width:0.8;" x="468.650044" xlink:href="#m9dbd9930c5" y="252"/>
      </g>
     </g>
     <g id="text_2">
      <!-- 1600 -->
      <defs>
       <path d="M 37.25 0 
L 28.46875 0 
L 28.46875 56 
Q 25.296875 52.984375 20.140625 49.953125 
Q 14.984375 46.921875 10.890625 45.40625 
L 10.890625 53.90625 
Q 18.265625 57.375 23.78125 62.296875 
Q 29.296875 67.234375 31.59375 71.875 
L 37.25 71.875 
z
" id="ArialMT-49"/>
       <path d="M 49.75 54.046875 
L 41.015625 53.375 
Q 39.84375 58.546875 37.703125 60.890625 
Q 34.125 64.65625 28.90625 64.65625 
Q 24.703125 64.65625 21.53125 62.3125 
Q 17.390625 59.28125 14.984375 53.46875 
Q 12.59375 47.65625 12.5 36.921875 
Q 15.671875 41.75 20.265625 44.09375 
Q 24.859375 46.4375 29.890625 46.4375 
Q 38.671875 46.4375 44.84375 39.96875 
Q 51.03125 33.5 51.03125 23.25 
Q 51.03125 16.5 48.125 10.71875 
Q 45.21875 4.9375 40.140625 1.859375 
Q 35.0625 -1.21875 28.609375 -1.21875 
Q 17.625 -1.21875 10.6875 6.859375 
Q 3.765625 14.9375 3.765625 33.5 
Q 3.765625 54.25 11.421875 63.671875 
Q 18.109375 71.875 29.4375 71.875 
Q 37.890625 71.875 43.28125 67.140625 
Q 48.6875 62.40625 49.75 54.046875 
z
M 13.875 23.1875 
Q 13.875 18.65625 15.796875 14.5 
Q 17.71875 10.359375 21.1875 8.171875 
Q 24.65625 6 28.46875 6 
Q 34.03125 6 38.03125 10.484375 
Q 42.046875 14.984375 42.046875 22.703125 
Q 42.046875 30.125 38.078125 34.390625 
Q 34.125 38.671875 28.125 38.671875 
Q 22.171875 38.671875 18.015625 34.390625 
Q 13.875 30.125 13.875 23.1875 
z
" id="ArialMT-54"/>
      </defs>
      <g transform="translate(457.528169 266.157812)scale(0.1 -0.1)">
       <use xlink:href="#ArialMT-49"/>
       <use x="55.615234" xlink:href="#ArialMT-54"/>
       <use x="111.230469" xlink:href="#ArialMT-48"/>
       <use x="166.845703" xlink:href="#ArialMT-48"/>
      </g>
     </g>
    </g>
    <g id="xtick_3">
     <g id="line2d_5">
      <path clip-path="url(#pf6db05d662)" d="M 719.663724 252 
L 719.663724 34.56 
" style="fill:none;stroke:#b0b0b0;stroke-linecap:square;stroke-width:0.8;"/>
     </g>
     <g id="line2d_6">
      <g>
       <use style="stroke:#000000;stroke-width:0.8;" x="719.663724" xlink:href="#m9dbd9930c5" y="252"/>
      </g>
     </g>
     <g id="text_3">
      <!-- 3200 -->
      <defs>
       <path d="M 4.203125 18.890625 
L 12.984375 20.0625 
Q 14.5 12.59375 18.140625 9.296875 
Q 21.78125 6 27 6 
Q 33.203125 6 37.46875 10.296875 
Q 41.75 14.59375 41.75 20.953125 
Q 41.75 27 37.796875 30.921875 
Q 33.84375 34.859375 27.734375 34.859375 
Q 25.25 34.859375 21.53125 33.890625 
L 22.515625 41.609375 
Q 23.390625 41.5 23.921875 41.5 
Q 29.546875 41.5 34.03125 44.421875 
Q 38.53125 47.359375 38.53125 53.46875 
Q 38.53125 58.296875 35.25 61.46875 
Q 31.984375 64.65625 26.8125 64.65625 
Q 21.6875 64.65625 18.265625 61.421875 
Q 14.84375 58.203125 13.875 51.765625 
L 5.078125 53.328125 
Q 6.6875 62.15625 12.390625 67.015625 
Q 18.109375 71.875 26.609375 71.875 
Q 32.46875 71.875 37.390625 69.359375 
Q 42.328125 66.84375 44.9375 62.5 
Q 47.5625 58.15625 47.5625 53.265625 
Q 47.5625 48.640625 45.0625 44.828125 
Q 42.578125 41.015625 37.703125 38.765625 
Q 44.046875 37.3125 47.5625 32.6875 
Q 51.078125 28.078125 51.078125 21.140625 
Q 51.078125 11.765625 44.234375 5.25 
Q 37.40625 -1.265625 26.953125 -1.265625 
Q 17.53125 -1.265625 11.296875 4.34375 
Q 5.078125 9.96875 4.203125 18.890625 
z
" id="ArialMT-51"/>
       <path d="M 50.34375 8.453125 
L 50.34375 0 
L 3.03125 0 
Q 2.9375 3.171875 4.046875 6.109375 
Q 5.859375 10.9375 9.828125 15.625 
Q 13.8125 20.3125 21.34375 26.46875 
Q 33.015625 36.03125 37.109375 41.625 
Q 41.21875 47.21875 41.21875 52.203125 
Q 41.21875 57.421875 37.46875 61 
Q 33.734375 64.59375 27.734375 64.59375 
Q 21.390625 64.59375 17.578125 60.78125 
Q 13.765625 56.984375 13.71875 50.25 
L 4.6875 51.171875 
Q 5.609375 61.28125 11.65625 66.578125 
Q 17.71875 71.875 27.9375 71.875 
Q 38.234375 71.875 44.234375 66.15625 
Q 50.25 60.453125 50.25 52 
Q 50.25 47.703125 48.484375 43.546875 
Q 46.734375 39.40625 42.65625 34.8125 
Q 38.578125 30.21875 29.109375 22.21875 
Q 21.1875 15.578125 18.9375 13.203125 
Q 16.703125 10.84375 15.234375 8.453125 
z
" id="ArialMT-50"/>
      </defs>
      <g transform="translate(708.541849 266.157812)scale(0.1 -0.1)">
       <use xlink:href="#ArialMT-51"/>
       <use x="55.615234" xlink:href="#ArialMT-50"/>
       <use x="111.230469" xlink:href="#ArialMT-48"/>
       <use x="166.845703" xlink:href="#ArialMT-48"/>
      </g>
     </g>
    </g>
    <g id="xtick_4">
     <g id="line2d_7">
      <path clip-path="url(#pf6db05d662)" d="M 970.677403 252 
L 970.677403 34.56 
" style="fill:none;stroke:#b0b0b0;stroke-linecap:square;stroke-width:0.8;"/>
     </g>
     <g id="line2d_8">
      <g>
       <use style="stroke:#000000;stroke-width:0.8;" x="970.677403" xlink:href="#m9dbd9930c5" y="252"/>
      </g>
     </g>
     <g id="text_4">
      <!-- 4800 -->
      <defs>
       <path d="M 32.328125 0 
L 32.328125 17.140625 
L 1.265625 17.140625 
L 1.265625 25.203125 
L 33.9375 71.578125 
L 41.109375 71.578125 
L 41.109375 25.203125 
L 50.78125 25.203125 
L 50.78125 17.140625 
L 41.109375 17.140625 
L 41.109375 0 
z
M 32.328125 25.203125 
L 32.328125 57.46875 
L 9.90625 25.203125 
z
" id="ArialMT-52"/>
       <path d="M 17.671875 38.8125 
Q 12.203125 40.828125 9.5625 44.53125 
Q 6.9375 48.25 6.9375 53.421875 
Q 6.9375 61.234375 12.546875 66.546875 
Q 18.171875 71.875 27.484375 71.875 
Q 36.859375 71.875 42.578125 66.421875 
Q 48.296875 60.984375 48.296875 53.171875 
Q 48.296875 48.1875 45.671875 44.5 
Q 43.0625 40.828125 37.75 38.8125 
Q 44.34375 36.671875 47.78125 31.875 
Q 51.21875 27.09375 51.21875 20.453125 
Q 51.21875 11.28125 44.71875 5.03125 
Q 38.234375 -1.21875 27.640625 -1.21875 
Q 17.046875 -1.21875 10.546875 5.046875 
Q 4.046875 11.328125 4.046875 20.703125 
Q 4.046875 27.6875 7.59375 32.390625 
Q 11.140625 37.109375 17.671875 38.8125 
z
M 15.921875 53.71875 
Q 15.921875 48.640625 19.1875 45.40625 
Q 22.46875 42.1875 27.6875 42.1875 
Q 32.765625 42.1875 36.015625 45.375 
Q 39.265625 48.578125 39.265625 53.21875 
Q 39.265625 58.0625 35.90625 61.359375 
Q 32.5625 64.65625 27.59375 64.65625 
Q 22.5625 64.65625 19.234375 61.421875 
Q 15.921875 58.203125 15.921875 53.71875 
z
M 13.09375 20.65625 
Q 13.09375 16.890625 14.875 13.375 
Q 16.65625 9.859375 20.171875 7.921875 
Q 23.6875 6 27.734375 6 
Q 34.03125 6 38.125 10.046875 
Q 42.234375 14.109375 42.234375 20.359375 
Q 42.234375 26.703125 38.015625 30.859375 
Q 33.796875 35.015625 27.4375 35.015625 
Q 21.234375 35.015625 17.15625 30.90625 
Q 13.09375 26.8125 13.09375 20.65625 
z
" id="ArialMT-56"/>
      </defs>
      <g transform="translate(959.555528 266.157812)scale(0.1 -0.1)">
       <use xlink:href="#ArialMT-52"/>
       <use x="55.615234" xlink:href="#ArialMT-56"/>
       <use x="111.230469" xlink:href="#ArialMT-48"/>
       <use x="166.845703" xlink:href="#ArialMT-48"/>
      </g>
     </g>
    </g>
    <g id="text_5">
     <!-- # sample -->
     <defs>
      <path d="M 5.03125 -1.21875 
L 9.28125 19.578125 
L 1.03125 19.578125 
L 1.03125 26.859375 
L 10.75 26.859375 
L 14.359375 44.578125 
L 1.03125 44.578125 
L 1.03125 51.859375 
L 15.828125 51.859375 
L 20.0625 72.796875 
L 27.390625 72.796875 
L 23.140625 51.859375 
L 38.53125 51.859375 
L 42.78125 72.796875 
L 50.140625 72.796875 
L 45.90625 51.859375 
L 54.34375 51.859375 
L 54.34375 44.578125 
L 44.4375 44.578125 
L 40.765625 26.859375 
L 54.34375 26.859375 
L 54.34375 19.578125 
L 39.3125 19.578125 
L 35.0625 -1.21875 
L 27.734375 -1.21875 
L 31.9375 19.578125 
L 16.609375 19.578125 
L 12.359375 -1.21875 
z
M 18.0625 26.859375 
L 33.40625 26.859375 
L 37.0625 44.578125 
L 21.6875 44.578125 
z
" id="ArialMT-35"/>
      <path id="ArialMT-32"/>
      <path d="M 3.078125 15.484375 
L 11.765625 16.84375 
Q 12.5 11.625 15.84375 8.84375 
Q 19.1875 6.0625 25.203125 6.0625 
Q 31.25 6.0625 34.171875 8.515625 
Q 37.109375 10.984375 37.109375 14.3125 
Q 37.109375 17.28125 34.515625 19 
Q 32.71875 20.171875 25.53125 21.96875 
Q 15.875 24.421875 12.140625 26.203125 
Q 8.40625 27.984375 6.46875 31.125 
Q 4.546875 34.28125 4.546875 38.09375 
Q 4.546875 41.546875 6.125 44.5 
Q 7.71875 47.46875 10.453125 49.421875 
Q 12.5 50.921875 16.03125 51.96875 
Q 19.578125 53.03125 23.640625 53.03125 
Q 29.734375 53.03125 34.34375 51.265625 
Q 38.96875 49.515625 41.15625 46.5 
Q 43.359375 43.5 44.1875 38.484375 
L 35.59375 37.3125 
Q 35.015625 41.3125 32.203125 43.546875 
Q 29.390625 45.796875 24.265625 45.796875 
Q 18.21875 45.796875 15.625 43.796875 
Q 13.03125 41.796875 13.03125 39.109375 
Q 13.03125 37.40625 14.109375 36.03125 
Q 15.1875 34.625 17.484375 33.6875 
Q 18.796875 33.203125 25.25 31.453125 
Q 34.578125 28.953125 38.25 27.359375 
Q 41.9375 25.78125 44.03125 22.75 
Q 46.140625 19.734375 46.140625 15.234375 
Q 46.140625 10.84375 43.578125 6.953125 
Q 41.015625 3.078125 36.171875 0.953125 
Q 31.34375 -1.171875 25.25 -1.171875 
Q 15.140625 -1.171875 9.84375 3.03125 
Q 4.546875 7.234375 3.078125 15.484375 
z
" id="ArialMT-115"/>
      <path d="M 40.4375 6.390625 
Q 35.546875 2.25 31.03125 0.53125 
Q 26.515625 -1.171875 21.34375 -1.171875 
Q 12.796875 -1.171875 8.203125 3 
Q 3.609375 7.171875 3.609375 13.671875 
Q 3.609375 17.484375 5.34375 20.625 
Q 7.078125 23.78125 9.890625 25.6875 
Q 12.703125 27.59375 16.21875 28.5625 
Q 18.796875 29.25 24.03125 29.890625 
Q 34.671875 31.15625 39.703125 32.90625 
Q 39.75 34.71875 39.75 35.203125 
Q 39.75 40.578125 37.25 42.78125 
Q 33.890625 45.75 27.25 45.75 
Q 21.046875 45.75 18.09375 43.578125 
Q 15.140625 41.40625 13.71875 35.890625 
L 5.125 37.0625 
Q 6.296875 42.578125 8.984375 45.96875 
Q 11.671875 49.359375 16.75 51.1875 
Q 21.828125 53.03125 28.515625 53.03125 
Q 35.15625 53.03125 39.296875 51.46875 
Q 43.453125 49.90625 45.40625 47.53125 
Q 47.359375 45.171875 48.140625 41.546875 
Q 48.578125 39.3125 48.578125 33.453125 
L 48.578125 21.734375 
Q 48.578125 9.46875 49.140625 6.21875 
Q 49.703125 2.984375 51.375 0 
L 42.1875 0 
Q 40.828125 2.734375 40.4375 6.390625 
z
M 39.703125 26.03125 
Q 34.90625 24.078125 25.34375 22.703125 
Q 19.921875 21.921875 17.671875 20.9375 
Q 15.4375 19.96875 14.203125 18.09375 
Q 12.984375 16.21875 12.984375 13.921875 
Q 12.984375 10.40625 15.640625 8.0625 
Q 18.3125 5.71875 23.4375 5.71875 
Q 28.515625 5.71875 32.46875 7.9375 
Q 36.421875 10.15625 38.28125 14.015625 
Q 39.703125 17 39.703125 22.796875 
z
" id="ArialMT-97"/>
      <path d="M 6.59375 0 
L 6.59375 51.859375 
L 14.453125 51.859375 
L 14.453125 44.578125 
Q 16.890625 48.390625 20.9375 50.703125 
Q 25 53.03125 30.171875 53.03125 
Q 35.9375 53.03125 39.625 50.640625 
Q 43.3125 48.25 44.828125 43.953125 
Q 50.984375 53.03125 60.84375 53.03125 
Q 68.5625 53.03125 72.703125 48.75 
Q 76.859375 44.484375 76.859375 35.59375 
L 76.859375 0 
L 68.109375 0 
L 68.109375 32.671875 
Q 68.109375 37.9375 67.25 40.25 
Q 66.40625 42.578125 64.15625 43.984375 
Q 61.921875 45.40625 58.890625 45.40625 
Q 53.421875 45.40625 49.796875 41.765625 
Q 46.1875 38.140625 46.1875 30.125 
L 46.1875 0 
L 37.40625 0 
L 37.40625 33.6875 
Q 37.40625 39.546875 35.25 42.46875 
Q 33.109375 45.40625 28.21875 45.40625 
Q 24.515625 45.40625 21.359375 43.453125 
Q 18.21875 41.5 16.796875 37.734375 
Q 15.375 33.984375 15.375 26.90625 
L 15.375 0 
z
" id="ArialMT-109"/>
      <path d="M 6.59375 -19.875 
L 6.59375 51.859375 
L 14.59375 51.859375 
L 14.59375 45.125 
Q 17.4375 49.078125 21 51.046875 
Q 24.5625 53.03125 29.640625 53.03125 
Q 36.28125 53.03125 41.359375 49.609375 
Q 46.4375 46.1875 49.015625 39.953125 
Q 51.609375 33.734375 51.609375 26.3125 
Q 51.609375 18.359375 48.75 11.984375 
Q 45.90625 5.609375 40.453125 2.21875 
Q 35.015625 -1.171875 29 -1.171875 
Q 24.609375 -1.171875 21.109375 0.6875 
Q 17.625 2.546875 15.375 5.375 
L 15.375 -19.875 
z
M 14.546875 25.640625 
Q 14.546875 15.625 18.59375 10.84375 
Q 22.65625 6.0625 28.421875 6.0625 
Q 34.28125 6.0625 38.453125 11.015625 
Q 42.625 15.96875 42.625 26.375 
Q 42.625 36.28125 38.546875 41.203125 
Q 34.46875 46.140625 28.8125 46.140625 
Q 23.1875 46.140625 18.859375 40.890625 
Q 14.546875 35.640625 14.546875 25.640625 
z
" id="ArialMT-112"/>
      <path d="M 6.390625 0 
L 6.390625 71.578125 
L 15.1875 71.578125 
L 15.1875 0 
z
" id="ArialMT-108"/>
      <path d="M 42.09375 16.703125 
L 51.171875 15.578125 
Q 49.03125 7.625 43.21875 3.21875 
Q 37.40625 -1.171875 28.375 -1.171875 
Q 17 -1.171875 10.328125 5.828125 
Q 3.65625 12.84375 3.65625 25.484375 
Q 3.65625 38.578125 10.390625 45.796875 
Q 17.140625 53.03125 27.875 53.03125 
Q 38.28125 53.03125 44.875 45.953125 
Q 51.46875 38.875 51.46875 26.03125 
Q 51.46875 25.25 51.421875 23.6875 
L 12.75 23.6875 
Q 13.234375 15.140625 17.578125 10.59375 
Q 21.921875 6.0625 28.421875 6.0625 
Q 33.25 6.0625 36.671875 8.59375 
Q 40.09375 11.140625 42.09375 16.703125 
z
M 13.234375 30.90625 
L 42.1875 30.90625 
Q 41.609375 37.453125 38.875 40.71875 
Q 34.671875 45.796875 27.984375 45.796875 
Q 21.921875 45.796875 17.796875 41.75 
Q 13.671875 37.703125 13.234375 30.90625 
z
" id="ArialMT-101"/>
     </defs>
     <g transform="translate(557.483906 285.24875)scale(0.18 -0.18)">
      <use xlink:href="#ArialMT-35"/>
      <use x="55.615234" xlink:href="#ArialMT-32"/>
      <use x="83.398438" xlink:href="#ArialMT-115"/>
      <use x="133.398438" xlink:href="#ArialMT-97"/>
      <use x="189.013672" xlink:href="#ArialMT-109"/>
      <use x="272.314453" xlink:href="#ArialMT-112"/>
      <use x="327.929688" xlink:href="#ArialMT-108"/>
      <use x="350.146484" xlink:href="#ArialMT-101"/>
     </g>
    </g>
   </g>
   <g id="matplotlib.axis_2">
    <g id="ytick_1">
     <g id="line2d_9">
      <path clip-path="url(#pf6db05d662)" d="M 180 250.001492 
L 1008 250.001492 
" style="fill:none;stroke:#b0b0b0;stroke-linecap:square;stroke-width:0.8;"/>
     </g>
     <g id="line2d_10">
      <defs>
       <path d="M 0 0 
L -3.5 0 
" id="m57f877d513" style="stroke:#000000;stroke-width:0.8;"/>
      </defs>
      <g>
       <use style="stroke:#000000;stroke-width:0.8;" x="180" xlink:href="#m57f877d513" y="250.001492"/>
      </g>
     </g>
     <g id="text_6">
      <!-- −1200 -->
      <defs>
       <path d="M 52.828125 31.203125 
L 5.5625 31.203125 
L 5.5625 39.40625 
L 52.828125 39.40625 
z
" id="ArialMT-8722"/>
      </defs>
      <g transform="translate(144.915625 253.580398)scale(0.1 -0.1)">
       <use xlink:href="#ArialMT-8722"/>
       <use x="58.398438" xlink:href="#ArialMT-49"/>
       <use x="114.013672" xlink:href="#ArialMT-50"/>
       <use x="169.628906" xlink:href="#ArialMT-48"/>
       <use x="225.244141" xlink:href="#ArialMT-48"/>
      </g>
     </g>
    </g>
    <g id="ytick_2">
     <g id="line2d_11">
      <path clip-path="url(#pf6db05d662)" d="M 180 215.741849 
L 1008 215.741849 
" style="fill:none;stroke:#b0b0b0;stroke-linecap:square;stroke-width:0.8;"/>
     </g>
     <g id="line2d_12">
      <g>
       <use style="stroke:#000000;stroke-width:0.8;" x="180" xlink:href="#m57f877d513" y="215.741849"/>
      </g>
     </g>
     <g id="text_7">
      <!-- −1000 -->
      <g transform="translate(144.915625 219.320756)scale(0.1 -0.1)">
       <use xlink:href="#ArialMT-8722"/>
       <use x="58.398438" xlink:href="#ArialMT-49"/>
       <use x="114.013672" xlink:href="#ArialMT-48"/>
       <use x="169.628906" xlink:href="#ArialMT-48"/>
       <use x="225.244141" xlink:href="#ArialMT-48"/>
      </g>
     </g>
    </g>
    <g id="ytick_3">
     <g id="line2d_13">
      <path clip-path="url(#pf6db05d662)" d="M 180 181.482206 
L 1008 181.482206 
" style="fill:none;stroke:#b0b0b0;stroke-linecap:square;stroke-width:0.8;"/>
     </g>
     <g id="line2d_14">
      <g>
       <use style="stroke:#000000;stroke-width:0.8;" x="180" xlink:href="#m57f877d513" y="181.482206"/>
      </g>
     </g>
     <g id="text_8">
      <!-- −800 -->
      <g transform="translate(150.476562 185.061113)scale(0.1 -0.1)">
       <use xlink:href="#ArialMT-8722"/>
       <use x="58.398438" xlink:href="#ArialMT-56"/>
       <use x="114.013672" xlink:href="#ArialMT-48"/>
       <use x="169.628906" xlink:href="#ArialMT-48"/>
      </g>
     </g>
    </g>
    <g id="ytick_4">
     <g id="line2d_15">
      <path clip-path="url(#pf6db05d662)" d="M 180 147.222564 
L 1008 147.222564 
" style="fill:none;stroke:#b0b0b0;stroke-linecap:square;stroke-width:0.8;"/>
     </g>
     <g id="line2d_16">
      <g>
       <use style="stroke:#000000;stroke-width:0.8;" x="180" xlink:href="#m57f877d513" y="147.222564"/>
      </g>
     </g>
     <g id="text_9">
      <!-- −600 -->
      <g transform="translate(150.476562 150.80147)scale(0.1 -0.1)">
       <use xlink:href="#ArialMT-8722"/>
       <use x="58.398438" xlink:href="#ArialMT-54"/>
       <use x="114.013672" xlink:href="#ArialMT-48"/>
       <use x="169.628906" xlink:href="#ArialMT-48"/>
      </g>
     </g>
    </g>
    <g id="ytick_5">
     <g id="line2d_17">
      <path clip-path="url(#pf6db05d662)" d="M 180 112.962921 
L 1008 112.962921 
" style="fill:none;stroke:#b0b0b0;stroke-linecap:square;stroke-width:0.8;"/>
     </g>
     <g id="line2d_18">
      <g>
       <use style="stroke:#000000;stroke-width:0.8;" x="180" xlink:href="#m57f877d513" y="112.962921"/>
      </g>
     </g>
     <g id="text_10">
      <!-- −400 -->
      <g transform="translate(150.476562 116.541827)scale(0.1 -0.1)">
       <use xlink:href="#ArialMT-8722"/>
       <use x="58.398438" xlink:href="#ArialMT-52"/>
       <use x="114.013672" xlink:href="#ArialMT-48"/>
       <use x="169.628906" xlink:href="#ArialMT-48"/>
      </g>
     </g>
    </g>
    <g id="ytick_6">
     <g id="line2d_19">
      <path clip-path="url(#pf6db05d662)" d="M 180 78.703278 
L 1008 78.703278 
" style="fill:none;stroke:#b0b0b0;stroke-linecap:square;stroke-width:0.8;"/>
     </g>
     <g id="line2d_20">
      <g>
       <use style="stroke:#000000;stroke-width:0.8;" x="180" xlink:href="#m57f877d513" y="78.703278"/>
      </g>
     </g>
     <g id="text_11">
      <!-- −200 -->
      <g transform="translate(150.476562 82.282184)scale(0.1 -0.1)">
       <use xlink:href="#ArialMT-8722"/>
       <use x="58.398438" xlink:href="#ArialMT-50"/>
       <use x="114.013672" xlink:href="#ArialMT-48"/>
       <use x="169.628906" xlink:href="#ArialMT-48"/>
      </g>
     </g>
    </g>
    <g id="ytick_7">
     <g id="line2d_21">
      <path clip-path="url(#pf6db05d662)" d="M 180 44.443635 
L 1008 44.443635 
" style="fill:none;stroke:#b0b0b0;stroke-linecap:square;stroke-width:0.8;"/>
     </g>
     <g id="line2d_22">
      <g>
       <use style="stroke:#000000;stroke-width:0.8;" x="180" xlink:href="#m57f877d513" y="44.443635"/>
      </g>
     </g>
     <g id="text_12">
      <!-- 0 -->
      <g transform="translate(167.439063 48.022541)scale(0.1 -0.1)">
       <use xlink:href="#ArialMT-48"/>
      </g>
     </g>
    </g>
    <g id="text_13">
     <!-- Log-likelihood (a.u.) -->
     <defs>
      <path d="M 7.328125 0 
L 7.328125 71.578125 
L 16.796875 71.578125 
L 16.796875 8.453125 
L 52.046875 8.453125 
L 52.046875 0 
z
" id="ArialMT-76"/>
      <path d="M 3.328125 25.921875 
Q 3.328125 40.328125 11.328125 47.265625 
Q 18.015625 53.03125 27.640625 53.03125 
Q 38.328125 53.03125 45.109375 46.015625 
Q 51.90625 39.015625 51.90625 26.65625 
Q 51.90625 16.65625 48.90625 10.90625 
Q 45.90625 5.171875 40.15625 2 
Q 34.421875 -1.171875 27.640625 -1.171875 
Q 16.75 -1.171875 10.03125 5.8125 
Q 3.328125 12.796875 3.328125 25.921875 
z
M 12.359375 25.921875 
Q 12.359375 15.96875 16.703125 11.015625 
Q 21.046875 6.0625 27.640625 6.0625 
Q 34.1875 6.0625 38.53125 11.03125 
Q 42.875 16.015625 42.875 26.21875 
Q 42.875 35.84375 38.5 40.796875 
Q 34.125 45.75 27.640625 45.75 
Q 21.046875 45.75 16.703125 40.8125 
Q 12.359375 35.890625 12.359375 25.921875 
z
" id="ArialMT-111"/>
      <path d="M 4.984375 -4.296875 
L 13.53125 -5.5625 
Q 14.0625 -9.515625 16.5 -11.328125 
Q 19.78125 -13.765625 25.4375 -13.765625 
Q 31.546875 -13.765625 34.859375 -11.328125 
Q 38.1875 -8.890625 39.359375 -4.5 
Q 40.046875 -1.8125 39.984375 6.78125 
Q 34.234375 0 25.640625 0 
Q 14.9375 0 9.078125 7.71875 
Q 3.21875 15.4375 3.21875 26.21875 
Q 3.21875 33.640625 5.90625 39.90625 
Q 8.59375 46.1875 13.6875 49.609375 
Q 18.796875 53.03125 25.6875 53.03125 
Q 34.859375 53.03125 40.828125 45.609375 
L 40.828125 51.859375 
L 48.921875 51.859375 
L 48.921875 7.03125 
Q 48.921875 -5.078125 46.453125 -10.125 
Q 44 -15.1875 38.640625 -18.109375 
Q 33.296875 -21.046875 25.484375 -21.046875 
Q 16.21875 -21.046875 10.5 -16.875 
Q 4.78125 -12.703125 4.984375 -4.296875 
z
M 12.25 26.859375 
Q 12.25 16.65625 16.296875 11.96875 
Q 20.359375 7.28125 26.46875 7.28125 
Q 32.515625 7.28125 36.609375 11.9375 
Q 40.71875 16.609375 40.71875 26.5625 
Q 40.71875 36.078125 36.5 40.90625 
Q 32.28125 45.75 26.3125 45.75 
Q 20.453125 45.75 16.34375 40.984375 
Q 12.25 36.234375 12.25 26.859375 
z
" id="ArialMT-103"/>
      <path d="M 3.171875 21.484375 
L 3.171875 30.328125 
L 30.171875 30.328125 
L 30.171875 21.484375 
z
" id="ArialMT-45"/>
      <path d="M 6.640625 61.46875 
L 6.640625 71.578125 
L 15.4375 71.578125 
L 15.4375 61.46875 
z
M 6.640625 0 
L 6.640625 51.859375 
L 15.4375 51.859375 
L 15.4375 0 
z
" id="ArialMT-105"/>
      <path d="M 6.640625 0 
L 6.640625 71.578125 
L 15.4375 71.578125 
L 15.4375 30.765625 
L 36.234375 51.859375 
L 47.609375 51.859375 
L 27.78125 32.625 
L 49.609375 0 
L 38.765625 0 
L 21.625 26.515625 
L 15.4375 20.5625 
L 15.4375 0 
z
" id="ArialMT-107"/>
      <path d="M 6.59375 0 
L 6.59375 71.578125 
L 15.375 71.578125 
L 15.375 45.90625 
Q 21.53125 53.03125 30.90625 53.03125 
Q 36.671875 53.03125 40.921875 50.75 
Q 45.171875 48.484375 47 44.484375 
Q 48.828125 40.484375 48.828125 32.859375 
L 48.828125 0 
L 40.046875 0 
L 40.046875 32.859375 
Q 40.046875 39.453125 37.1875 42.453125 
Q 34.328125 45.453125 29.109375 45.453125 
Q 25.203125 45.453125 21.75 43.421875 
Q 18.3125 41.40625 16.84375 37.9375 
Q 15.375 34.46875 15.375 28.375 
L 15.375 0 
z
" id="ArialMT-104"/>
      <path d="M 40.234375 0 
L 40.234375 6.546875 
Q 35.296875 -1.171875 25.734375 -1.171875 
Q 19.53125 -1.171875 14.328125 2.25 
Q 9.125 5.671875 6.265625 11.796875 
Q 3.421875 17.921875 3.421875 25.875 
Q 3.421875 33.640625 6 39.96875 
Q 8.59375 46.296875 13.765625 49.65625 
Q 18.953125 53.03125 25.34375 53.03125 
Q 30.03125 53.03125 33.6875 51.046875 
Q 37.359375 49.078125 39.65625 45.90625 
L 39.65625 71.578125 
L 48.390625 71.578125 
L 48.390625 0 
z
M 12.453125 25.875 
Q 12.453125 15.921875 16.640625 10.984375 
Q 20.84375 6.0625 26.5625 6.0625 
Q 32.328125 6.0625 36.34375 10.765625 
Q 40.375 15.484375 40.375 25.140625 
Q 40.375 35.796875 36.265625 40.765625 
Q 32.171875 45.75 26.171875 45.75 
Q 20.3125 45.75 16.375 40.96875 
Q 12.453125 36.1875 12.453125 25.875 
z
" id="ArialMT-100"/>
      <path d="M 23.390625 -21.046875 
Q 16.109375 -11.859375 11.078125 0.4375 
Q 6.0625 12.75 6.0625 25.921875 
Q 6.0625 37.546875 9.8125 48.1875 
Q 14.203125 60.546875 23.390625 72.796875 
L 29.6875 72.796875 
Q 23.78125 62.640625 21.875 58.296875 
Q 18.890625 51.5625 17.1875 44.234375 
Q 15.09375 35.109375 15.09375 25.875 
Q 15.09375 2.390625 29.6875 -21.046875 
z
" id="ArialMT-40"/>
      <path d="M 9.078125 0 
L 9.078125 10.015625 
L 19.09375 10.015625 
L 19.09375 0 
z
" id="ArialMT-46"/>
      <path d="M 40.578125 0 
L 40.578125 7.625 
Q 34.515625 -1.171875 24.125 -1.171875 
Q 19.53125 -1.171875 15.546875 0.578125 
Q 11.578125 2.34375 9.640625 5 
Q 7.71875 7.671875 6.9375 11.53125 
Q 6.390625 14.109375 6.390625 19.734375 
L 6.390625 51.859375 
L 15.1875 51.859375 
L 15.1875 23.09375 
Q 15.1875 16.21875 15.71875 13.8125 
Q 16.546875 10.359375 19.234375 8.375 
Q 21.921875 6.390625 25.875 6.390625 
Q 29.828125 6.390625 33.296875 8.421875 
Q 36.765625 10.453125 38.203125 13.9375 
Q 39.65625 17.4375 39.65625 24.078125 
L 39.65625 51.859375 
L 48.4375 51.859375 
L 48.4375 0 
z
" id="ArialMT-117"/>
      <path d="M 12.359375 -21.046875 
L 6.0625 -21.046875 
Q 20.65625 2.390625 20.65625 25.875 
Q 20.65625 35.0625 18.5625 44.09375 
Q 16.890625 51.421875 13.921875 58.15625 
Q 12.015625 62.546875 6.0625 72.796875 
L 12.359375 72.796875 
Q 21.53125 60.546875 25.921875 48.1875 
Q 29.6875 37.546875 29.6875 25.921875 
Q 29.6875 12.75 24.625 0.4375 
Q 19.578125 -11.859375 12.359375 -21.046875 
z
" id="ArialMT-41"/>
     </defs>
     <g transform="translate(137.127187 222.318281)rotate(-90)scale(0.18 -0.18)">
      <use xlink:href="#ArialMT-76"/>
      <use x="55.615234" xlink:href="#ArialMT-111"/>
      <use x="111.230469" xlink:href="#ArialMT-103"/>
      <use x="166.845703" xlink:href="#ArialMT-45"/>
      <use x="200.146484" xlink:href="#ArialMT-108"/>
      <use x="222.363281" xlink:href="#ArialMT-105"/>
      <use x="244.580078" xlink:href="#ArialMT-107"/>
      <use x="294.580078" xlink:href="#ArialMT-101"/>
      <use x="350.195312" xlink:href="#ArialMT-108"/>
      <use x="372.412109" xlink:href="#ArialMT-105"/>
      <use x="394.628906" xlink:href="#ArialMT-104"/>
      <use x="450.244141" xlink:href="#ArialMT-111"/>
      <use x="505.859375" xlink:href="#ArialMT-111"/>
      <use x="561.474609" xlink:href="#ArialMT-100"/>
      <use x="617.089844" xlink:href="#ArialMT-32"/>
      <use x="644.873047" xlink:href="#ArialMT-40"/>
      <use x="678.173828" xlink:href="#ArialMT-97"/>
      <use x="733.789062" xlink:href="#ArialMT-46"/>
      <use x="761.572266" xlink:href="#ArialMT-117"/>
      <use x="817.1875" xlink:href="#ArialMT-46"/>
      <use x="844.970703" xlink:href="#ArialMT-41"/>
     </g>
    </g>
   </g>
   <g id="line2d_23">
    <path clip-path="url(#pf6db05d662)" d="M 217.636364 242.116364 
L 217.793247 93.973319 
L 217.950131 56.875511 
L 218.107014 47.692911 
L 218.263898 45.224734 
L 218.577665 44.496457 
L 219.048316 44.450125 
L 219.67585 44.479128 
L 221.244685 44.534404 
L 221.558452 44.484505 
L 221.715336 44.696572 
L 221.872219 44.586862 
L 222.185987 45.082601 
L 222.34287 44.769085 
L 222.656637 44.679758 
L 222.813521 44.736779 
L 222.970404 44.595774 
L 223.127288 44.63494 
L 223.441055 44.547096 
L 223.597939 44.593739 
L 223.911706 44.47654 
L 227.20626 44.585508 
L 227.676911 44.614147 
L 228.147561 44.574699 
L 228.461329 44.704759 
L 228.775096 44.501885 
L 231.599 44.444255 
L 231.912767 44.467757 
L 240.698245 44.444143 
L 298.902043 44.444776 
L 322.748342 44.44408 
L 337.495396 44.444779 
L 366.83262 44.444369 
L 428.958505 44.445681 
L 439.469703 44.443792 
L 468.336276 44.444375 
L 468.49316 44.767003 
L 468.963811 44.740584 
L 469.591345 44.772068 
L 470.218879 44.698139 
L 470.68953 44.609511 
L 472.258365 44.500942 
L 473.35655 44.481093 
L 474.925386 44.454259 
L 490.456857 44.488168 
L 492.33946 44.490522 
L 493.280761 44.502504 
L 510.537951 44.466681 
L 511.636136 44.492925 
L 512.891205 44.493318 
L 520.264732 44.686937 
L 521.362916 44.601559 
L 522.774868 44.553393 
L 526.069423 44.474613 
L 527.952025 44.466271 
L 538.463223 44.474932 
L 542.855963 44.490325 
L 544.738565 44.481695 
L 545.522983 44.4934 
L 552.582743 44.507033 
L 553.210277 44.546582 
L 553.994695 44.552321 
L 555.09288 44.556458 
L 556.975482 44.581454 
L 562.937057 44.449789 
L 567.329797 44.671185 
L 567.800447 44.705834 
L 570.938118 44.761662 
L 571.408769 44.758831 
L 573.605139 44.729168 
L 574.389556 44.749854 
L 574.703323 44.704269 
L 575.01709 44.707982 
L 577.056577 44.695565 
L 579.723597 44.62069 
L 580.664898 44.644698 
L 581.292432 44.592236 
L 584.586987 44.553209 
L 585.842055 44.508943 
L 586.312706 44.522455 
L 588.509076 44.506863 
L 590.705445 44.477772 
L 597.608322 44.449521 
L 605.452499 44.449433 
L 608.119519 44.457989 
L 612.826026 44.472251 
L 622.395923 44.474589 
L 625.219826 44.470039 
L 627.886847 44.537934 
L 628.357497 44.511667 
L 629.612566 44.553104 
L 633.534655 44.561979 
L 634.475956 44.527662 
L 635.887908 44.511128 
L 636.986093 44.493588 
L 639.339346 44.462599 
L 640.751298 44.460473 
L 642.477017 44.448185 
L 647.811058 44.451181 
L 651.419379 44.456736 
L 654.0864 44.460437 
L 662.244344 44.460493 
L 677.932699 44.486273 
L 681.227254 44.661146 
L 681.697904 44.68357 
L 687.502596 44.647928 
L 702.7203 44.481281 
L 703.975369 44.484464 
L 705.230437 44.474147 
L 713.231498 44.448944 
L 719.50684 44.506234 
L 719.663724 44.556804 
L 719.820607 44.461702 
L 720.291258 44.575418 
L 720.761908 44.460409 
L 720.918792 44.721996 
L 721.232559 44.541942 
L 721.70321 44.479398 
L 722.016977 44.519111 
L 722.644511 44.715054 
L 722.958278 44.467553 
L 724.056463 44.465412 
L 724.213346 44.791801 
L 724.527114 44.494602 
L 724.683997 44.447588 
L 724.840881 44.555775 
L 725.311531 44.453754 
L 725.939066 44.549684 
L 726.095949 45.071183 
L 726.252833 44.488177 
L 726.5666 44.65442 
L 726.723483 44.480874 
L 727.03725 44.60604 
L 727.351017 44.483642 
L 727.507901 44.575985 
L 727.664785 44.480513 
L 728.449202 44.687312 
L 728.606086 44.49166 
L 729.076737 44.492549 
L 729.547387 44.606118 
L 730.018038 44.479188 
L 730.174921 44.617927 
L 730.645572 44.543557 
L 731.116223 44.513175 
L 731.273106 44.625433 
L 731.42999 44.485807 
L 731.586873 44.75277 
L 731.743757 44.468371 
L 732.841942 44.530584 
L 733.312592 44.67906 
L 733.469476 44.46974 
L 733.626359 44.461513 
L 733.940127 44.647173 
L 734.09701 44.680358 
L 734.567661 44.508558 
L 734.724544 44.747997 
L 734.881428 44.475786 
L 735.352079 44.518879 
L 735.508962 44.606141 
L 735.822729 44.445289 
L 735.979613 44.605067 
L 736.450263 44.48966 
L 736.607147 44.599637 
L 736.920914 44.462256 
L 737.705332 44.563335 
L 738.019099 44.504555 
L 738.803517 44.517075 
L 738.9604 44.606782 
L 739.587934 44.459638 
L 739.901701 44.528594 
L 740.058585 44.558557 
L 740.372352 44.462469 
L 740.529236 44.644277 
L 740.843003 44.544484 
L 740.999886 44.775369 
L 741.15677 44.468984 
L 741.313653 44.836462 
L 741.627421 44.498003 
L 742.098071 44.867837 
L 742.411838 44.471274 
L 742.725605 44.587506 
L 743.35314 44.603259 
L 743.510023 44.653256 
L 743.666907 44.513541 
L 743.82379 44.779982 
L 744.294441 44.461765 
L 744.608208 44.84018 
L 744.765092 44.492448 
L 745.392626 44.742439 
L 745.706393 44.559889 
L 745.863276 44.521993 
L 746.02016 44.63762 
L 746.177043 44.471188 
L 746.333927 44.679741 
L 746.804578 44.554895 
L 746.961461 44.702967 
L 747.118345 44.530133 
L 747.275228 44.601458 
L 747.588995 44.53301 
L 747.745879 44.624099 
L 748.21653 44.526978 
L 748.373413 44.710823 
L 748.530297 44.49749 
L 749.314714 44.520306 
L 749.471598 44.626857 
L 749.942249 44.469336 
L 750.569783 44.467873 
L 751.511084 44.6598 
L 751.667968 44.460188 
L 752.138618 44.586778 
L 752.295502 44.612772 
L 752.609269 44.532946 
L 752.766153 44.594919 
L 752.923036 44.489236 
L 753.07992 44.527044 
L 753.236803 44.449532 
L 753.393687 44.774973 
L 753.55057 44.546613 
L 753.707454 44.715879 
L 753.864337 44.520804 
L 754.334988 44.550852 
L 754.491872 44.689272 
L 754.648755 44.677839 
L 754.805639 44.458552 
L 756.531358 44.479727 
L 756.688241 44.663801 
L 756.845125 44.485722 
L 757.315776 44.451751 
L 757.472659 44.612535 
L 757.629543 44.455675 
L 757.786426 44.456021 
L 757.94331 44.568717 
L 758.100193 44.476387 
L 758.257077 44.533573 
L 758.570844 44.485508 
L 759.669029 44.471862 
L 759.982796 44.57238 
L 760.139679 44.516194 
L 760.296563 44.610102 
L 760.61033 44.528576 
L 760.767214 44.631303 
L 761.080981 44.445425 
L 761.394748 44.524452 
L 761.708515 44.615675 
L 761.865398 44.49018 
L 762.022282 44.538407 
L 762.336049 44.498153 
L 762.8067 44.552847 
L 763.434234 44.449518 
L 763.591118 44.589648 
L 763.904885 44.512401 
L 764.218652 44.591916 
L 764.689302 44.509135 
L 764.846186 44.643265 
L 765.159953 44.469635 
L 765.47372 44.52385 
L 765.630604 44.752015 
L 765.944371 44.447025 
L 766.101254 44.559348 
L 766.415021 44.451803 
L 766.885672 44.548289 
L 767.042556 44.445344 
L 767.356323 44.480496 
L 767.513206 44.458453 
L 767.983857 44.708424 
L 768.297624 44.57408 
L 768.768275 44.561516 
L 768.925158 44.460061 
L 769.238925 44.580627 
L 770.023343 44.500799 
L 770.180227 44.639009 
L 770.33711 44.49866 
L 770.493994 44.656184 
L 770.650877 44.470247 
L 770.807761 44.599942 
L 770.964644 44.446533 
L 771.435295 44.591571 
L 771.749062 44.448346 
L 772.219713 44.721703 
L 772.53348 44.447428 
L 773.161014 44.532609 
L 773.474781 44.445943 
L 774.416082 44.608774 
L 774.572966 44.495173 
L 774.72985 44.713758 
L 775.043617 44.469511 
L 776.298685 44.460207 
L 776.926219 44.482852 
L 777.083103 44.581246 
L 777.39687 44.458318 
L 777.553753 44.459886 
L 777.710637 44.602426 
L 778.338171 44.448551 
L 779.279473 44.535301 
L 779.436356 44.467511 
L 779.59324 44.535607 
L 779.750123 44.473646 
L 779.907007 44.533966 
L 780.220774 44.481582 
L 781.005192 44.456445 
L 781.318959 44.529257 
L 781.632726 44.493703 
L 783.201561 44.487697 
L 783.358445 44.635911 
L 783.829095 44.486575 
L 784.92728 44.505599 
L 785.084164 44.624065 
L 785.397931 44.533886 
L 785.554815 44.678629 
L 785.711698 44.492314 
L 786.496116 44.498539 
L 786.966766 44.539477 
L 787.12365 44.840787 
L 787.280534 44.467992 
L 788.221835 44.534743 
L 788.535602 44.521288 
L 788.692486 44.644186 
L 788.849369 44.468637 
L 789.006253 44.479801 
L 789.163136 44.609324 
L 789.476903 44.47275 
L 789.79067 44.508969 
L 789.947554 44.478091 
L 790.104437 44.697307 
L 790.261321 44.588699 
L 790.418205 44.724645 
L 790.575088 44.558211 
L 791.516389 44.744917 
L 791.673273 44.565568 
L 791.830157 44.627353 
L 791.98704 44.491912 
L 792.300807 44.764379 
L 792.457691 44.988713 
L 792.771458 44.517543 
L 792.928341 44.731888 
L 793.085225 44.575235 
L 793.869643 44.712493 
L 794.026526 44.887447 
L 795.281595 44.601386 
L 795.595362 44.718722 
L 795.909129 44.693301 
L 796.066012 44.593703 
L 796.222896 44.873439 
L 796.379779 44.627287 
L 796.536663 44.837546 
L 797.164197 44.693236 
L 797.477964 44.771389 
L 797.634848 45.048006 
L 797.948615 44.761028 
L 798.105499 44.732267 
L 798.262382 44.491312 
L 798.576149 44.714409 
L 798.889916 44.537502 
L 799.0468 44.626547 
L 799.203683 44.521498 
L 799.360567 44.624551 
L 799.674334 44.550353 
L 799.988101 44.875163 
L 800.144985 44.578668 
L 800.301868 44.743715 
L 800.458752 45.109506 
L 800.772519 44.584539 
L 800.929402 44.756578 
L 801.086286 44.542352 
L 801.24317 44.784836 
L 801.556937 44.577883 
L 801.71382 44.54933 
L 802.027587 44.739471 
L 802.184471 44.591043 
L 802.341354 44.739876 
L 802.812005 44.636863 
L 803.125772 44.878983 
L 803.439539 44.485652 
L 803.596423 44.748881 
L 803.753306 44.589424 
L 803.91019 44.894833 
L 804.067073 44.494284 
L 804.380841 44.59449 
L 804.537724 44.909772 
L 804.694608 44.549227 
L 805.165258 44.632019 
L 805.322142 44.519324 
L 805.479025 44.597109 
L 805.792792 44.525641 
L 806.10656 44.649553 
L 806.420327 44.474924 
L 806.57721 44.785102 
L 806.734094 44.508177 
L 807.047861 44.689589 
L 807.204744 44.494413 
L 808.459813 44.643198 
L 808.616696 44.514157 
L 808.77358 44.904487 
L 809.087347 44.575828 
L 809.244231 44.719115 
L 809.714881 44.482447 
L 810.342415 44.483713 
L 810.499299 44.657187 
L 810.813066 44.525765 
L 811.283717 44.526819 
L 811.4406 44.758511 
L 811.597484 44.459387 
L 811.911251 44.647403 
L 812.068134 44.471989 
L 812.225018 44.57956 
L 812.538785 44.502673 
L 812.695669 44.689338 
L 812.852552 44.474728 
L 813.009436 44.617985 
L 813.323203 44.463281 
L 813.480086 44.65116 
L 813.63697 44.451627 
L 814.892038 44.618646 
L 815.205805 44.566462 
L 815.362689 44.643172 
L 815.676456 44.531184 
L 815.990223 44.688093 
L 816.30399 44.474684 
L 816.931524 44.657652 
L 817.872826 44.551261 
L 818.029709 44.612722 
L 818.343476 44.449127 
L 819.284778 44.491133 
L 819.755428 44.443957 
L 820.382963 44.646959 
L 820.539846 44.464317 
L 820.853613 44.574997 
L 821.16738 44.465038 
L 821.324264 44.606459 
L 821.481147 44.512471 
L 821.794915 44.559266 
L 821.951798 44.480883 
L 822.265565 44.53391 
L 822.422449 44.484305 
L 822.579332 44.555622 
L 822.893099 44.470288 
L 824.148168 44.494432 
L 824.775702 44.490465 
L 825.089469 44.509206 
L 825.403236 44.468481 
L 825.56012 44.665754 
L 825.717003 44.478971 
L 826.03077 44.504779 
L 826.187654 44.461867 
L 826.344537 44.548116 
L 826.815188 44.457717 
L 827.285839 44.572111 
L 827.442722 44.459471 
L 827.756489 44.515794 
L 828.070257 44.454819 
L 828.384024 44.506411 
L 828.697791 44.50653 
L 829.639092 44.550281 
L 829.952859 44.470028 
L 831.207928 44.484477 
L 831.364811 44.623464 
L 831.678578 44.471094 
L 831.992345 44.510766 
L 832.149229 44.462915 
L 832.619879 44.72237 
L 832.933647 44.45369 
L 833.09053 44.525664 
L 833.247414 44.461419 
L 833.404297 44.62477 
L 833.561181 44.481324 
L 833.718064 44.580635 
L 834.031831 44.458039 
L 834.345599 44.553662 
L 834.502482 44.628461 
L 834.659366 44.486508 
L 835.443783 44.52857 
L 835.600667 44.474609 
L 835.75755 44.569534 
L 835.914434 44.500628 
L 836.071318 44.623776 
L 836.228201 44.60567 
L 836.385085 44.445082 
L 836.541968 44.587411 
L 836.855735 44.450782 
L 837.326386 44.649064 
L 838.110804 44.49674 
L 838.267687 44.544794 
L 838.581454 44.463711 
L 839.208989 44.629105 
L 839.365872 44.480965 
L 840.307173 44.62066 
L 840.620941 44.483122 
L 841.562242 44.446399 
L 841.719125 44.573977 
L 842.189776 44.46309 
L 842.34666 44.611738 
L 842.503543 45.07172 
L 842.660427 44.56627 
L 843.131077 44.509606 
L 843.444844 44.628058 
L 843.601728 44.518526 
L 843.758612 44.579949 
L 843.915495 44.479497 
L 844.072379 44.650196 
L 844.386146 44.580741 
L 844.543029 44.845648 
L 844.699913 44.489393 
L 845.327447 44.503752 
L 845.484331 44.684328 
L 845.641214 44.4807 
L 846.425632 44.494485 
L 846.582515 44.721063 
L 846.739399 44.446531 
L 848.308234 44.5324 
L 848.465118 44.786828 
L 848.622002 44.520683 
L 848.935769 44.559748 
L 849.87707 44.501458 
L 850.033954 44.730749 
L 850.190837 44.508934 
L 850.661488 44.527513 
L 850.818371 44.474747 
L 850.975255 44.569874 
L 851.445905 44.474004 
L 851.602789 44.750734 
L 851.759673 44.48535 
L 852.07344 44.446972 
L 852.230323 44.541274 
L 852.54409 44.477719 
L 852.857857 44.656812 
L 853.171625 44.560613 
L 853.799159 44.478721 
L 853.956042 44.561152 
L 854.269809 44.492287 
L 855.054227 44.584701 
L 855.367994 44.54341 
L 855.524878 44.669673 
L 855.681761 44.517131 
L 856.779946 44.706487 
L 856.93683 44.501047 
L 857.093713 44.633331 
L 857.250597 44.486645 
L 857.40748 44.746731 
L 857.721247 44.458879 
L 858.191898 44.453051 
L 858.819432 44.543769 
L 859.133199 44.728259 
L 859.290083 44.459046 
L 859.446967 44.624812 
L 859.60385 44.514207 
L 859.760734 44.606875 
L 860.074501 44.562365 
L 860.545151 44.542602 
L 860.858918 44.489712 
L 861.172686 44.502654 
L 861.329569 44.673501 
L 861.486453 44.45165 
L 861.643336 44.590606 
L 861.80022 44.449142 
L 862.113987 44.566715 
L 862.427754 44.487954 
L 862.584638 44.488952 
L 862.741521 44.655513 
L 862.898405 44.51428 
L 863.055288 44.63495 
L 863.212172 44.928935 
L 863.369055 44.532384 
L 863.525939 44.471813 
L 863.682822 44.631408 
L 863.839706 44.533708 
L 864.153473 44.646543 
L 864.310357 44.666226 
L 864.624124 44.468214 
L 864.937891 44.513613 
L 865.251658 44.451522 
L 866.036076 44.679756 
L 866.349843 44.524622 
L 867.291144 44.466361 
L 867.761795 44.635397 
L 867.918678 44.475208 
L 868.389329 44.460045 
L 868.546212 44.611027 
L 868.85998 44.46585 
L 869.016863 44.623947 
L 869.33063 44.493308 
L 872.311418 44.445594 
L 872.468301 44.662202 
L 872.625185 44.514849 
L 873.252719 44.477941 
L 873.72337 44.456851 
L 874.037137 44.54492 
L 874.19402 44.494488 
L 874.350904 44.65861 
L 874.507787 44.479212 
L 874.821554 44.580381 
L 874.978438 44.482938 
L 875.135322 44.517062 
L 875.292205 44.679998 
L 875.449089 44.447107 
L 875.919739 44.526565 
L 876.233506 44.50682 
L 877.488575 44.493797 
L 878.116109 44.634375 
L 878.272993 44.489094 
L 878.58676 44.572798 
L 878.900527 44.499116 
L 879.214294 44.574469 
L 879.371177 44.447631 
L 879.528061 44.525152 
L 879.841828 44.49435 
L 879.998712 44.690471 
L 880.155595 44.543842 
L 880.469362 44.609161 
L 880.940013 44.498304 
L 881.096896 44.482348 
L 881.25378 44.656641 
L 881.567547 44.489429 
L 881.881314 44.586849 
L 882.038198 44.474419 
L 882.351965 44.63973 
L 882.665732 44.570152 
L 882.822615 44.849843 
L 882.979499 44.447328 
L 883.136383 44.624075 
L 883.45015 44.528499 
L 884.234567 44.704998 
L 884.391451 44.474326 
L 884.548335 44.639979 
L 884.705218 44.458173 
L 884.862102 44.49361 
L 885.018985 44.709513 
L 885.332752 44.517166 
L 885.646519 44.565303 
L 885.960286 44.474002 
L 886.11717 44.559862 
L 886.274054 44.492243 
L 886.430937 44.624266 
L 886.744704 44.452446 
L 887.058471 44.523398 
L 887.529122 44.460707 
L 887.686006 44.643048 
L 887.999773 44.542498 
L 888.31354 44.541061 
L 888.627307 44.471356 
L 888.78419 44.456271 
L 888.941074 44.619029 
L 889.411725 44.470759 
L 890.509909 44.468384 
L 890.666793 44.590606 
L 890.98056 44.450646 
L 891.294327 44.558281 
L 891.451211 44.456038 
L 892.078745 44.500716 
L 892.392512 44.475102 
L 892.549396 44.560409 
L 892.706279 44.485104 
L 892.863163 44.789325 
L 893.020046 44.473922 
L 893.17693 44.685459 
L 893.333813 44.447567 
L 893.64758 44.598004 
L 893.804464 44.59295 
L 893.961348 44.706416 
L 894.118231 44.538008 
L 894.275115 44.608456 
L 894.588882 44.446957 
L 894.902649 44.751967 
L 895.059532 44.566665 
L 895.216416 44.65868 
L 895.373299 44.575946 
L 895.530183 44.695743 
L 895.687067 44.468315 
L 895.84395 44.807896 
L 896.157717 44.463082 
L 896.314601 44.584473 
L 897.099019 44.448096 
L 897.255902 44.672312 
L 897.412786 44.485262 
L 897.726553 44.559156 
L 897.883436 44.458299 
L 898.04032 44.529302 
L 898.354087 44.473438 
L 898.667854 44.792118 
L 898.824738 44.46124 
L 898.981621 44.76314 
L 899.295388 44.567169 
L 899.452272 44.4545 
L 899.609155 44.553221 
L 899.922922 44.542701 
L 900.079806 44.647905 
L 900.23669 44.486273 
L 900.393573 44.864064 
L 900.550457 44.543183 
L 900.70734 44.729818 
L 901.177991 44.520926 
L 901.334874 44.628854 
L 901.805525 44.498175 
L 902.589943 44.658354 
L 902.90371 44.513838 
L 903.060593 44.485518 
L 903.217477 44.646017 
L 903.845011 44.687531 
L 904.001895 44.480553 
L 904.158778 44.621317 
L 904.472545 44.532709 
L 904.629429 44.714689 
L 904.786312 44.717456 
L 904.943196 44.519009 
L 905.10008 44.739921 
L 905.256963 44.676217 
L 905.413847 44.794297 
L 905.57073 44.47164 
L 905.727614 44.87735 
L 905.884497 44.501315 
L 906.041381 44.472884 
L 906.198264 44.563156 
L 906.355148 44.506203 
L 906.982682 44.958184 
L 907.139566 44.512827 
L 907.296449 44.686311 
L 907.7671 44.544843 
L 907.923983 44.986327 
L 908.080867 44.615568 
L 908.237751 44.688262 
L 908.551518 44.522084 
L 908.708401 44.703932 
L 908.865285 44.502233 
L 909.022168 44.588892 
L 909.335935 44.61048 
L 910.120353 44.521239 
L 910.277237 44.780958 
L 910.43412 44.540168 
L 910.591004 44.755312 
L 910.747887 44.49886 
L 912.787374 44.575748 
L 912.944257 44.447225 
L 913.258024 44.50548 
L 913.414908 44.470317 
L 913.571791 44.637578 
L 913.728675 44.466548 
L 914.042442 44.615253 
L 914.356209 44.47093 
L 914.82686 44.493545 
L 914.983743 44.722024 
L 915.140627 44.548117 
L 916.238812 44.554181 
L 916.395695 44.769581 
L 916.552579 44.546094 
L 916.709462 44.601762 
L 916.866346 44.799228 
L 917.023229 44.549438 
L 917.336996 44.552761 
L 917.650764 44.468321 
L 917.964531 44.759589 
L 918.278298 44.489781 
L 918.435181 44.679617 
L 918.592065 44.694784 
L 918.748948 44.513796 
L 918.905832 44.75747 
L 919.062716 44.531336 
L 920.474667 44.761048 
L 920.631551 44.540679 
L 920.945318 44.458779 
L 921.102202 44.754045 
L 921.259085 44.460941 
L 921.415969 44.636336 
L 921.729736 44.577341 
L 921.886619 44.726633 
L 922.35727 44.577961 
L 922.671037 44.541563 
L 922.984804 44.505173 
L 923.141688 44.619112 
L 923.455455 44.499748 
L 923.612338 44.765318 
L 923.769222 44.525179 
L 923.926106 44.628331 
L 924.082989 44.489485 
L 924.239873 44.507547 
L 924.396756 44.665353 
L 924.710523 44.548663 
L 924.867407 44.714064 
L 925.181174 44.607311 
L 925.651825 44.47541 
L 925.808708 44.546387 
L 926.122475 44.533543 
L 926.279359 44.52764 
L 926.436242 44.704355 
L 926.593126 44.516985 
L 926.750009 44.545735 
L 926.906893 44.77381 
L 927.063777 44.544486 
L 927.691311 44.578798 
L 927.848194 44.723998 
L 928.005078 44.71622 
L 928.161961 44.556667 
L 928.475729 44.612393 
L 928.946379 44.474699 
L 929.103263 44.655118 
L 929.41703 44.525547 
L 929.730797 44.498433 
L 930.044564 44.496119 
L 930.201448 44.456504 
L 930.515215 44.540508 
L 930.985865 44.527107 
L 931.142749 44.606201 
L 931.6134 44.476863 
L 932.554701 44.516719 
L 932.711584 44.464006 
L 932.868468 44.600387 
L 933.025351 44.539096 
L 933.182235 44.778523 
L 933.339119 44.486421 
L 934.28042 44.466847 
L 934.437303 44.504781 
L 934.594187 44.694995 
L 934.751071 44.493761 
L 934.907954 44.700538 
L 935.064838 44.44776 
L 935.221721 44.550636 
L 935.378605 44.459829 
L 935.535488 44.553049 
L 935.849255 44.479249 
L 936.319906 44.520765 
L 936.633673 44.457868 
L 936.790557 44.578596 
L 937.104324 44.523642 
L 937.574974 44.45259 
L 938.202509 44.502668 
L 938.830043 44.484922 
L 939.14381 44.535689 
L 939.457577 44.551542 
L 939.614461 44.459541 
L 939.928228 44.452724 
L 941.967714 44.471366 
L 942.124597 44.601685 
L 942.595248 44.58281 
L 942.752132 44.683267 
L 942.909015 44.472171 
L 943.222782 44.47631 
L 943.536549 44.476937 
L 944.477851 44.454285 
L 944.634734 44.637985 
L 944.791618 44.44525 
L 944.948501 44.625702 
L 945.262268 44.504793 
L 945.889803 44.461602 
L 946.20357 44.466916 
L 946.517337 44.479258 
L 946.67422 44.622503 
L 946.831104 44.462617 
L 946.987987 44.538912 
L 947.144871 44.463856 
L 947.301755 44.601568 
L 947.458638 44.456243 
L 947.615522 44.620272 
L 947.929289 44.472818 
L 948.243056 44.621909 
L 948.556823 44.460516 
L 948.87059 44.497735 
L 949.184357 44.449303 
L 949.498124 44.536978 
L 949.968775 44.486445 
L 950.125658 44.669053 
L 950.439426 44.481414 
L 950.596309 44.472446 
L 950.753193 44.592886 
L 950.910076 44.489437 
L 951.06696 44.652379 
L 951.380727 44.446979 
L 951.53761 44.58773 
L 951.851377 44.464448 
L 952.165145 44.569834 
L 954.518398 44.450908 
L 954.832165 44.606357 
L 955.302816 44.468881 
L 956.714768 44.649287 
L 956.871651 44.457237 
L 957.342302 44.528104 
L 957.656069 44.597668 
L 957.812952 44.527516 
L 957.969836 44.581149 
L 958.283603 44.502854 
L 958.754254 44.503963 
L 959.068021 44.653885 
L 959.224904 44.658164 
L 959.381788 44.461203 
L 959.695555 44.448316 
L 961.421274 44.55861 
L 961.578158 44.45333 
L 961.735041 44.547295 
L 962.048808 44.483645 
L 962.205692 44.574159 
L 962.519459 44.518028 
L 962.99011 44.505404 
L 963.146993 44.703692 
L 963.303877 44.501177 
L 963.931411 44.502686 
L 964.088294 44.778613 
L 964.558945 44.636122 
L 964.715829 44.767413 
L 965.029596 44.494147 
L 965.343363 44.662023 
L 965.814013 44.485657 
L 966.598431 44.656039 
L 966.912198 44.524547 
L 967.225965 44.472153 
L 967.539732 44.772519 
L 967.8535 44.465432 
L 968.167267 44.591545 
L 968.637917 44.478957 
L 968.951684 44.623277 
L 969.108568 44.452145 
L 969.265452 44.620395 
L 969.579219 44.472869 
L 969.736102 44.657791 
L 969.892986 44.457404 
L 970.363636 44.607299 
L 970.363636 44.607299 
" style="fill:none;stroke:#1f77b4;stroke-linecap:square;stroke-width:1.5;"/>
   </g>
   <g id="patch_3">
    <path d="M 180 252 
L 180 34.56 
" style="fill:none;stroke:#000000;stroke-linecap:square;stroke-linejoin:miter;stroke-width:0.8;"/>
   </g>
   <g id="patch_4">
    <path d="M 1008 252 
L 1008 34.56 
" style="fill:none;stroke:#000000;stroke-linecap:square;stroke-linejoin:miter;stroke-width:0.8;"/>
   </g>
   <g id="patch_5">
    <path d="M 180 252 
L 1008 252 
" style="fill:none;stroke:#000000;stroke-linecap:square;stroke-linejoin:miter;stroke-width:0.8;"/>
   </g>
   <g id="patch_6">
    <path d="M 180 34.56 
L 1008 34.56 
" style="fill:none;stroke:#000000;stroke-linecap:square;stroke-linejoin:miter;stroke-width:0.8;"/>
   </g>
  </g>
 </g>
 <defs>
  <clipPath id="pf6db05d662">
   <rect height="217.44" width="828" x="180" y="34.56"/>
  </clipPath>
 </defs>
</svg>
