<?xml version="1.0" encoding="utf-8" standalone="no"?>
<!DOCTYPE svg PUBLIC "-//W3C//DTD SVG 1.1//EN"
  "http://www.w3.org/Graphics/SVG/1.1/DTD/svg11.dtd">
<!-- Created with matplotlib (https://matplotlib.org/) -->
<svg height="288pt" version="1.1" viewBox="0 0 1440 288" width="1440pt" xmlns="http://www.w3.org/2000/svg" xmlns:xlink="http://www.w3.org/1999/xlink">
 <defs>
  <style type="text/css">
*{stroke-linecap:butt;stroke-linejoin:round;}
  </style>
 </defs>
 <g id="figure_1">
  <g id="patch_1">
   <path d="M 0 288 
L 1440 288 
L 1440 0 
L 0 0 
z
" style="fill:#ffffff;"/>
  </g>
  <g id="axes_1">
   <g id="patch_2">
    <path d="M 180 252 
L 1008 252 
L 1008 34.56 
L 180 34.56 
z
" style="fill:#ffffff;"/>
   </g>
   <g id="matplotlib.axis_1">
    <g id="xtick_1">
     <g id="line2d_1">
      <path clip-path="url(#p2875183468)" d="M 217.636364 252 
L 217.636364 34.56 
" style="fill:none;stroke:#b0b0b0;stroke-linecap:square;stroke-width:0.8;"/>
     </g>
     <g id="line2d_2">
      <defs>
       <path d="M 0 0 
L 0 3.5 
" id="meadabed54a" style="stroke:#000000;stroke-width:0.8;"/>
      </defs>
      <g>
       <use style="stroke:#000000;stroke-width:0.8;" x="217.636364" xlink:href="#meadabed54a" y="252"/>
      </g>
     </g>
     <g id="text_1">
      <!-- 0 -->
      <defs>
       <path d="M 4.15625 35.296875 
Q 4.15625 48 6.765625 55.734375 
Q 9.375 63.484375 14.515625 67.671875 
Q 19.671875 71.875 27.484375 71.875 
Q 33.25 71.875 37.59375 69.546875 
Q 41.9375 67.234375 44.765625 62.859375 
Q 47.609375 58.5 49.21875 52.21875 
Q 50.828125 45.953125 50.828125 35.296875 
Q 50.828125 22.703125 48.234375 14.96875 
Q 45.65625 7.234375 40.5 3 
Q 35.359375 -1.21875 27.484375 -1.21875 
Q 17.140625 -1.21875 11.234375 6.203125 
Q 4.15625 15.140625 4.15625 35.296875 
z
M 13.1875 35.296875 
Q 13.1875 17.671875 17.3125 11.828125 
Q 21.4375 6 27.484375 6 
Q 33.546875 6 37.671875 11.859375 
Q 41.796875 17.71875 41.796875 35.296875 
Q 41.796875 52.984375 37.671875 58.78125 
Q 33.546875 64.59375 27.390625 64.59375 
Q 21.34375 64.59375 17.71875 59.46875 
Q 13.1875 52.9375 13.1875 35.296875 
z
" id="ArialMT-48"/>
      </defs>
      <g transform="translate(209.851051 279.041875)scale(0.28 -0.28)">
       <use xlink:href="#ArialMT-48"/>
      </g>
     </g>
    </g>
    <g id="xtick_2">
     <g id="line2d_3">
      <path clip-path="url(#p2875183468)" d="M 468.650044 252 
L 468.650044 34.56 
" style="fill:none;stroke:#b0b0b0;stroke-linecap:square;stroke-width:0.8;"/>
     </g>
     <g id="line2d_4">
      <g>
       <use style="stroke:#000000;stroke-width:0.8;" x="468.650044" xlink:href="#meadabed54a" y="252"/>
      </g>
     </g>
     <g id="text_2">
      <!-- 1600 -->
      <defs>
       <path d="M 37.25 0 
L 28.46875 0 
L 28.46875 56 
Q 25.296875 52.984375 20.140625 49.953125 
Q 14.984375 46.921875 10.890625 45.40625 
L 10.890625 53.90625 
Q 18.265625 57.375 23.78125 62.296875 
Q 29.296875 67.234375 31.59375 71.875 
L 37.25 71.875 
z
" id="ArialMT-49"/>
       <path d="M 49.75 54.046875 
L 41.015625 53.375 
Q 39.84375 58.546875 37.703125 60.890625 
Q 34.125 64.65625 28.90625 64.65625 
Q 24.703125 64.65625 21.53125 62.3125 
Q 17.390625 59.28125 14.984375 53.46875 
Q 12.59375 47.65625 12.5 36.921875 
Q 15.671875 41.75 20.265625 44.09375 
Q 24.859375 46.4375 29.890625 46.4375 
Q 38.671875 46.4375 44.84375 39.96875 
Q 51.03125 33.5 51.03125 23.25 
Q 51.03125 16.5 48.125 10.71875 
Q 45.21875 4.9375 40.140625 1.859375 
Q 35.0625 -1.21875 28.609375 -1.21875 
Q 17.625 -1.21875 10.6875 6.859375 
Q 3.765625 14.9375 3.765625 33.5 
Q 3.765625 54.25 11.421875 63.671875 
Q 18.109375 71.875 29.4375 71.875 
Q 37.890625 71.875 43.28125 67.140625 
Q 48.6875 62.40625 49.75 54.046875 
z
M 13.875 23.1875 
Q 13.875 18.65625 15.796875 14.5 
Q 17.71875 10.359375 21.1875 8.171875 
Q 24.65625 6 28.46875 6 
Q 34.03125 6 38.03125 10.484375 
Q 42.046875 14.984375 42.046875 22.703125 
Q 42.046875 30.125 38.078125 34.390625 
Q 34.125 38.671875 28.125 38.671875 
Q 22.171875 38.671875 18.015625 34.390625 
Q 13.875 30.125 13.875 23.1875 
z
" id="ArialMT-54"/>
      </defs>
      <g transform="translate(437.508794 279.041875)scale(0.28 -0.28)">
       <use xlink:href="#ArialMT-49"/>
       <use x="55.615234" xlink:href="#ArialMT-54"/>
       <use x="111.230469" xlink:href="#ArialMT-48"/>
       <use x="166.845703" xlink:href="#ArialMT-48"/>
      </g>
     </g>
    </g>
    <g id="xtick_3">
     <g id="line2d_5">
      <path clip-path="url(#p2875183468)" d="M 719.663724 252 
L 719.663724 34.56 
" style="fill:none;stroke:#b0b0b0;stroke-linecap:square;stroke-width:0.8;"/>
     </g>
     <g id="line2d_6">
      <g>
       <use style="stroke:#000000;stroke-width:0.8;" x="719.663724" xlink:href="#meadabed54a" y="252"/>
      </g>
     </g>
     <g id="text_3">
      <!-- 3200 -->
      <defs>
       <path d="M 4.203125 18.890625 
L 12.984375 20.0625 
Q 14.5 12.59375 18.140625 9.296875 
Q 21.78125 6 27 6 
Q 33.203125 6 37.46875 10.296875 
Q 41.75 14.59375 41.75 20.953125 
Q 41.75 27 37.796875 30.921875 
Q 33.84375 34.859375 27.734375 34.859375 
Q 25.25 34.859375 21.53125 33.890625 
L 22.515625 41.609375 
Q 23.390625 41.5 23.921875 41.5 
Q 29.546875 41.5 34.03125 44.421875 
Q 38.53125 47.359375 38.53125 53.46875 
Q 38.53125 58.296875 35.25 61.46875 
Q 31.984375 64.65625 26.8125 64.65625 
Q 21.6875 64.65625 18.265625 61.421875 
Q 14.84375 58.203125 13.875 51.765625 
L 5.078125 53.328125 
Q 6.6875 62.15625 12.390625 67.015625 
Q 18.109375 71.875 26.609375 71.875 
Q 32.46875 71.875 37.390625 69.359375 
Q 42.328125 66.84375 44.9375 62.5 
Q 47.5625 58.15625 47.5625 53.265625 
Q 47.5625 48.640625 45.0625 44.828125 
Q 42.578125 41.015625 37.703125 38.765625 
Q 44.046875 37.3125 47.5625 32.6875 
Q 51.078125 28.078125 51.078125 21.140625 
Q 51.078125 11.765625 44.234375 5.25 
Q 37.40625 -1.265625 26.953125 -1.265625 
Q 17.53125 -1.265625 11.296875 4.34375 
Q 5.078125 9.96875 4.203125 18.890625 
z
" id="ArialMT-51"/>
       <path d="M 50.34375 8.453125 
L 50.34375 0 
L 3.03125 0 
Q 2.9375 3.171875 4.046875 6.109375 
Q 5.859375 10.9375 9.828125 15.625 
Q 13.8125 20.3125 21.34375 26.46875 
Q 33.015625 36.03125 37.109375 41.625 
Q 41.21875 47.21875 41.21875 52.203125 
Q 41.21875 57.421875 37.46875 61 
Q 33.734375 64.59375 27.734375 64.59375 
Q 21.390625 64.59375 17.578125 60.78125 
Q 13.765625 56.984375 13.71875 50.25 
L 4.6875 51.171875 
Q 5.609375 61.28125 11.65625 66.578125 
Q 17.71875 71.875 27.9375 71.875 
Q 38.234375 71.875 44.234375 66.15625 
Q 50.25 60.453125 50.25 52 
Q 50.25 47.703125 48.484375 43.546875 
Q 46.734375 39.40625 42.65625 34.8125 
Q 38.578125 30.21875 29.109375 22.21875 
Q 21.1875 15.578125 18.9375 13.203125 
Q 16.703125 10.84375 15.234375 8.453125 
z
" id="ArialMT-50"/>
      </defs>
      <g transform="translate(688.522474 279.041875)scale(0.28 -0.28)">
       <use xlink:href="#ArialMT-51"/>
       <use x="55.615234" xlink:href="#ArialMT-50"/>
       <use x="111.230469" xlink:href="#ArialMT-48"/>
       <use x="166.845703" xlink:href="#ArialMT-48"/>
      </g>
     </g>
    </g>
    <g id="xtick_4">
     <g id="line2d_7">
      <path clip-path="url(#p2875183468)" d="M 970.677403 252 
L 970.677403 34.56 
" style="fill:none;stroke:#b0b0b0;stroke-linecap:square;stroke-width:0.8;"/>
     </g>
     <g id="line2d_8">
      <g>
       <use style="stroke:#000000;stroke-width:0.8;" x="970.677403" xlink:href="#meadabed54a" y="252"/>
      </g>
     </g>
     <g id="text_4">
      <!-- 4800 -->
      <defs>
       <path d="M 32.328125 0 
L 32.328125 17.140625 
L 1.265625 17.140625 
L 1.265625 25.203125 
L 33.9375 71.578125 
L 41.109375 71.578125 
L 41.109375 25.203125 
L 50.78125 25.203125 
L 50.78125 17.140625 
L 41.109375 17.140625 
L 41.109375 0 
z
M 32.328125 25.203125 
L 32.328125 57.46875 
L 9.90625 25.203125 
z
" id="ArialMT-52"/>
       <path d="M 17.671875 38.8125 
Q 12.203125 40.828125 9.5625 44.53125 
Q 6.9375 48.25 6.9375 53.421875 
Q 6.9375 61.234375 12.546875 66.546875 
Q 18.171875 71.875 27.484375 71.875 
Q 36.859375 71.875 42.578125 66.421875 
Q 48.296875 60.984375 48.296875 53.171875 
Q 48.296875 48.1875 45.671875 44.5 
Q 43.0625 40.828125 37.75 38.8125 
Q 44.34375 36.671875 47.78125 31.875 
Q 51.21875 27.09375 51.21875 20.453125 
Q 51.21875 11.28125 44.71875 5.03125 
Q 38.234375 -1.21875 27.640625 -1.21875 
Q 17.046875 -1.21875 10.546875 5.046875 
Q 4.046875 11.328125 4.046875 20.703125 
Q 4.046875 27.6875 7.59375 32.390625 
Q 11.140625 37.109375 17.671875 38.8125 
z
M 15.921875 53.71875 
Q 15.921875 48.640625 19.1875 45.40625 
Q 22.46875 42.1875 27.6875 42.1875 
Q 32.765625 42.1875 36.015625 45.375 
Q 39.265625 48.578125 39.265625 53.21875 
Q 39.265625 58.0625 35.90625 61.359375 
Q 32.5625 64.65625 27.59375 64.65625 
Q 22.5625 64.65625 19.234375 61.421875 
Q 15.921875 58.203125 15.921875 53.71875 
z
M 13.09375 20.65625 
Q 13.09375 16.890625 14.875 13.375 
Q 16.65625 9.859375 20.171875 7.921875 
Q 23.6875 6 27.734375 6 
Q 34.03125 6 38.125 10.046875 
Q 42.234375 14.109375 42.234375 20.359375 
Q 42.234375 26.703125 38.015625 30.859375 
Q 33.796875 35.015625 27.4375 35.015625 
Q 21.234375 35.015625 17.15625 30.90625 
Q 13.09375 26.8125 13.09375 20.65625 
z
" id="ArialMT-56"/>
      </defs>
      <g transform="translate(939.536153 279.041875)scale(0.28 -0.28)">
       <use xlink:href="#ArialMT-52"/>
       <use x="55.615234" xlink:href="#ArialMT-56"/>
       <use x="111.230469" xlink:href="#ArialMT-48"/>
       <use x="166.845703" xlink:href="#ArialMT-48"/>
      </g>
     </g>
    </g>
    <g id="text_5">
     <!-- # sample -->
     <defs>
      <path d="M 5.03125 -1.21875 
L 9.28125 19.578125 
L 1.03125 19.578125 
L 1.03125 26.859375 
L 10.75 26.859375 
L 14.359375 44.578125 
L 1.03125 44.578125 
L 1.03125 51.859375 
L 15.828125 51.859375 
L 20.0625 72.796875 
L 27.390625 72.796875 
L 23.140625 51.859375 
L 38.53125 51.859375 
L 42.78125 72.796875 
L 50.140625 72.796875 
L 45.90625 51.859375 
L 54.34375 51.859375 
L 54.34375 44.578125 
L 44.4375 44.578125 
L 40.765625 26.859375 
L 54.34375 26.859375 
L 54.34375 19.578125 
L 39.3125 19.578125 
L 35.0625 -1.21875 
L 27.734375 -1.21875 
L 31.9375 19.578125 
L 16.609375 19.578125 
L 12.359375 -1.21875 
z
M 18.0625 26.859375 
L 33.40625 26.859375 
L 37.0625 44.578125 
L 21.6875 44.578125 
z
" id="ArialMT-35"/>
      <path id="ArialMT-32"/>
      <path d="M 3.078125 15.484375 
L 11.765625 16.84375 
Q 12.5 11.625 15.84375 8.84375 
Q 19.1875 6.0625 25.203125 6.0625 
Q 31.25 6.0625 34.171875 8.515625 
Q 37.109375 10.984375 37.109375 14.3125 
Q 37.109375 17.28125 34.515625 19 
Q 32.71875 20.171875 25.53125 21.96875 
Q 15.875 24.421875 12.140625 26.203125 
Q 8.40625 27.984375 6.46875 31.125 
Q 4.546875 34.28125 4.546875 38.09375 
Q 4.546875 41.546875 6.125 44.5 
Q 7.71875 47.46875 10.453125 49.421875 
Q 12.5 50.921875 16.03125 51.96875 
Q 19.578125 53.03125 23.640625 53.03125 
Q 29.734375 53.03125 34.34375 51.265625 
Q 38.96875 49.515625 41.15625 46.5 
Q 43.359375 43.5 44.1875 38.484375 
L 35.59375 37.3125 
Q 35.015625 41.3125 32.203125 43.546875 
Q 29.390625 45.796875 24.265625 45.796875 
Q 18.21875 45.796875 15.625 43.796875 
Q 13.03125 41.796875 13.03125 39.109375 
Q 13.03125 37.40625 14.109375 36.03125 
Q 15.1875 34.625 17.484375 33.6875 
Q 18.796875 33.203125 25.25 31.453125 
Q 34.578125 28.953125 38.25 27.359375 
Q 41.9375 25.78125 44.03125 22.75 
Q 46.140625 19.734375 46.140625 15.234375 
Q 46.140625 10.84375 43.578125 6.953125 
Q 41.015625 3.078125 36.171875 0.953125 
Q 31.34375 -1.171875 25.25 -1.171875 
Q 15.140625 -1.171875 9.84375 3.03125 
Q 4.546875 7.234375 3.078125 15.484375 
z
" id="ArialMT-115"/>
      <path d="M 40.4375 6.390625 
Q 35.546875 2.25 31.03125 0.53125 
Q 26.515625 -1.171875 21.34375 -1.171875 
Q 12.796875 -1.171875 8.203125 3 
Q 3.609375 7.171875 3.609375 13.671875 
Q 3.609375 17.484375 5.34375 20.625 
Q 7.078125 23.78125 9.890625 25.6875 
Q 12.703125 27.59375 16.21875 28.5625 
Q 18.796875 29.25 24.03125 29.890625 
Q 34.671875 31.15625 39.703125 32.90625 
Q 39.75 34.71875 39.75 35.203125 
Q 39.75 40.578125 37.25 42.78125 
Q 33.890625 45.75 27.25 45.75 
Q 21.046875 45.75 18.09375 43.578125 
Q 15.140625 41.40625 13.71875 35.890625 
L 5.125 37.0625 
Q 6.296875 42.578125 8.984375 45.96875 
Q 11.671875 49.359375 16.75 51.1875 
Q 21.828125 53.03125 28.515625 53.03125 
Q 35.15625 53.03125 39.296875 51.46875 
Q 43.453125 49.90625 45.40625 47.53125 
Q 47.359375 45.171875 48.140625 41.546875 
Q 48.578125 39.3125 48.578125 33.453125 
L 48.578125 21.734375 
Q 48.578125 9.46875 49.140625 6.21875 
Q 49.703125 2.984375 51.375 0 
L 42.1875 0 
Q 40.828125 2.734375 40.4375 6.390625 
z
M 39.703125 26.03125 
Q 34.90625 24.078125 25.34375 22.703125 
Q 19.921875 21.921875 17.671875 20.9375 
Q 15.4375 19.96875 14.203125 18.09375 
Q 12.984375 16.21875 12.984375 13.921875 
Q 12.984375 10.40625 15.640625 8.0625 
Q 18.3125 5.71875 23.4375 5.71875 
Q 28.515625 5.71875 32.46875 7.9375 
Q 36.421875 10.15625 38.28125 14.015625 
Q 39.703125 17 39.703125 22.796875 
z
" id="ArialMT-97"/>
      <path d="M 6.59375 0 
L 6.59375 51.859375 
L 14.453125 51.859375 
L 14.453125 44.578125 
Q 16.890625 48.390625 20.9375 50.703125 
Q 25 53.03125 30.171875 53.03125 
Q 35.9375 53.03125 39.625 50.640625 
Q 43.3125 48.25 44.828125 43.953125 
Q 50.984375 53.03125 60.84375 53.03125 
Q 68.5625 53.03125 72.703125 48.75 
Q 76.859375 44.484375 76.859375 35.59375 
L 76.859375 0 
L 68.109375 0 
L 68.109375 32.671875 
Q 68.109375 37.9375 67.25 40.25 
Q 66.40625 42.578125 64.15625 43.984375 
Q 61.921875 45.40625 58.890625 45.40625 
Q 53.421875 45.40625 49.796875 41.765625 
Q 46.1875 38.140625 46.1875 30.125 
L 46.1875 0 
L 37.40625 0 
L 37.40625 33.6875 
Q 37.40625 39.546875 35.25 42.46875 
Q 33.109375 45.40625 28.21875 45.40625 
Q 24.515625 45.40625 21.359375 43.453125 
Q 18.21875 41.5 16.796875 37.734375 
Q 15.375 33.984375 15.375 26.90625 
L 15.375 0 
z
" id="ArialMT-109"/>
      <path d="M 6.59375 -19.875 
L 6.59375 51.859375 
L 14.59375 51.859375 
L 14.59375 45.125 
Q 17.4375 49.078125 21 51.046875 
Q 24.5625 53.03125 29.640625 53.03125 
Q 36.28125 53.03125 41.359375 49.609375 
Q 46.4375 46.1875 49.015625 39.953125 
Q 51.609375 33.734375 51.609375 26.3125 
Q 51.609375 18.359375 48.75 11.984375 
Q 45.90625 5.609375 40.453125 2.21875 
Q 35.015625 -1.171875 29 -1.171875 
Q 24.609375 -1.171875 21.109375 0.6875 
Q 17.625 2.546875 15.375 5.375 
L 15.375 -19.875 
z
M 14.546875 25.640625 
Q 14.546875 15.625 18.59375 10.84375 
Q 22.65625 6.0625 28.421875 6.0625 
Q 34.28125 6.0625 38.453125 11.015625 
Q 42.625 15.96875 42.625 26.375 
Q 42.625 36.28125 38.546875 41.203125 
Q 34.46875 46.140625 28.8125 46.140625 
Q 23.1875 46.140625 18.859375 40.890625 
Q 14.546875 35.640625 14.546875 25.640625 
z
" id="ArialMT-112"/>
      <path d="M 6.390625 0 
L 6.390625 71.578125 
L 15.1875 71.578125 
L 15.1875 0 
z
" id="ArialMT-108"/>
      <path d="M 42.09375 16.703125 
L 51.171875 15.578125 
Q 49.03125 7.625 43.21875 3.21875 
Q 37.40625 -1.171875 28.375 -1.171875 
Q 17 -1.171875 10.328125 5.828125 
Q 3.65625 12.84375 3.65625 25.484375 
Q 3.65625 38.578125 10.390625 45.796875 
Q 17.140625 53.03125 27.875 53.03125 
Q 38.28125 53.03125 44.875 45.953125 
Q 51.46875 38.875 51.46875 26.03125 
Q 51.46875 25.25 51.421875 23.6875 
L 12.75 23.6875 
Q 13.234375 15.140625 17.578125 10.59375 
Q 21.921875 6.0625 28.421875 6.0625 
Q 33.25 6.0625 36.671875 8.59375 
Q 40.09375 11.140625 42.09375 16.703125 
z
M 13.234375 30.90625 
L 42.1875 30.90625 
Q 41.609375 37.453125 38.875 40.71875 
Q 34.671875 45.796875 27.984375 45.796875 
Q 21.921875 45.796875 17.796875 41.75 
Q 13.671875 37.703125 13.234375 30.90625 
z
" id="ArialMT-101"/>
     </defs>
     <g transform="translate(537.197188 308.99)scale(0.28 -0.28)">
      <use xlink:href="#ArialMT-35"/>
      <use x="55.615234" xlink:href="#ArialMT-32"/>
      <use x="83.398438" xlink:href="#ArialMT-115"/>
      <use x="133.398438" xlink:href="#ArialMT-97"/>
      <use x="189.013672" xlink:href="#ArialMT-109"/>
      <use x="272.314453" xlink:href="#ArialMT-112"/>
      <use x="327.929688" xlink:href="#ArialMT-108"/>
      <use x="350.146484" xlink:href="#ArialMT-101"/>
     </g>
    </g>
   </g>
   <g id="matplotlib.axis_2">
    <g id="ytick_1">
     <g id="line2d_9">
      <path clip-path="url(#p2875183468)" d="M 180 197.711149 
L 1008 197.711149 
" style="fill:none;stroke:#b0b0b0;stroke-linecap:square;stroke-width:0.8;"/>
     </g>
     <g id="line2d_10">
      <defs>
       <path d="M 0 0 
L -3.5 0 
" id="m914980f070" style="stroke:#000000;stroke-width:0.8;"/>
      </defs>
      <g>
       <use style="stroke:#000000;stroke-width:0.8;" x="180" xlink:href="#m914980f070" y="197.711149"/>
      </g>
     </g>
     <g id="text_6">
      <!-- 10 -->
      <g transform="translate(141.85875 207.732086)scale(0.28 -0.28)">
       <use xlink:href="#ArialMT-49"/>
       <use x="55.615234" xlink:href="#ArialMT-48"/>
      </g>
     </g>
    </g>
    <g id="ytick_2">
     <g id="line2d_11">
      <path clip-path="url(#p2875183468)" d="M 180 119.275459 
L 1008 119.275459 
" style="fill:none;stroke:#b0b0b0;stroke-linecap:square;stroke-width:0.8;"/>
     </g>
     <g id="line2d_12">
      <g>
       <use style="stroke:#000000;stroke-width:0.8;" x="180" xlink:href="#m914980f070" y="119.275459"/>
      </g>
     </g>
     <g id="text_7">
      <!-- 20 -->
      <g transform="translate(141.85875 129.296397)scale(0.28 -0.28)">
       <use xlink:href="#ArialMT-50"/>
       <use x="55.615234" xlink:href="#ArialMT-48"/>
      </g>
     </g>
    </g>
    <g id="ytick_3">
     <g id="line2d_13">
      <path clip-path="url(#p2875183468)" d="M 180 40.839769 
L 1008 40.839769 
" style="fill:none;stroke:#b0b0b0;stroke-linecap:square;stroke-width:0.8;"/>
     </g>
     <g id="line2d_14">
      <g>
       <use style="stroke:#000000;stroke-width:0.8;" x="180" xlink:href="#m914980f070" y="40.839769"/>
      </g>
     </g>
     <g id="text_8">
      <!-- 30 -->
      <g transform="translate(141.85875 50.860707)scale(0.28 -0.28)">
       <use xlink:href="#ArialMT-51"/>
       <use x="55.615234" xlink:href="#ArialMT-48"/>
      </g>
     </g>
    </g>
    <g id="text_9">
     <!-- natural frequency (a.u.) -->
     <defs>
      <path d="M 6.59375 0 
L 6.59375 51.859375 
L 14.5 51.859375 
L 14.5 44.484375 
Q 20.21875 53.03125 31 53.03125 
Q 35.6875 53.03125 39.625 51.34375 
Q 43.5625 49.65625 45.515625 46.921875 
Q 47.46875 44.1875 48.25 40.4375 
Q 48.734375 37.984375 48.734375 31.890625 
L 48.734375 0 
L 39.9375 0 
L 39.9375 31.546875 
Q 39.9375 36.921875 38.90625 39.578125 
Q 37.890625 42.234375 35.28125 43.8125 
Q 32.671875 45.40625 29.15625 45.40625 
Q 23.53125 45.40625 19.453125 41.84375 
Q 15.375 38.28125 15.375 28.328125 
L 15.375 0 
z
" id="ArialMT-110"/>
      <path d="M 25.78125 7.859375 
L 27.046875 0.09375 
Q 23.34375 -0.6875 20.40625 -0.6875 
Q 15.625 -0.6875 12.984375 0.828125 
Q 10.359375 2.34375 9.28125 4.8125 
Q 8.203125 7.28125 8.203125 15.1875 
L 8.203125 45.015625 
L 1.765625 45.015625 
L 1.765625 51.859375 
L 8.203125 51.859375 
L 8.203125 64.703125 
L 16.9375 69.96875 
L 16.9375 51.859375 
L 25.78125 51.859375 
L 25.78125 45.015625 
L 16.9375 45.015625 
L 16.9375 14.703125 
Q 16.9375 10.9375 17.40625 9.859375 
Q 17.875 8.796875 18.921875 8.15625 
Q 19.96875 7.515625 21.921875 7.515625 
Q 23.390625 7.515625 25.78125 7.859375 
z
" id="ArialMT-116"/>
      <path d="M 40.578125 0 
L 40.578125 7.625 
Q 34.515625 -1.171875 24.125 -1.171875 
Q 19.53125 -1.171875 15.546875 0.578125 
Q 11.578125 2.34375 9.640625 5 
Q 7.71875 7.671875 6.9375 11.53125 
Q 6.390625 14.109375 6.390625 19.734375 
L 6.390625 51.859375 
L 15.1875 51.859375 
L 15.1875 23.09375 
Q 15.1875 16.21875 15.71875 13.8125 
Q 16.546875 10.359375 19.234375 8.375 
Q 21.921875 6.390625 25.875 6.390625 
Q 29.828125 6.390625 33.296875 8.421875 
Q 36.765625 10.453125 38.203125 13.9375 
Q 39.65625 17.4375 39.65625 24.078125 
L 39.65625 51.859375 
L 48.4375 51.859375 
L 48.4375 0 
z
" id="ArialMT-117"/>
      <path d="M 6.5 0 
L 6.5 51.859375 
L 14.40625 51.859375 
L 14.40625 44 
Q 17.4375 49.515625 20 51.265625 
Q 22.5625 53.03125 25.640625 53.03125 
Q 30.078125 53.03125 34.671875 50.203125 
L 31.640625 42.046875 
Q 28.421875 43.953125 25.203125 43.953125 
Q 22.3125 43.953125 20.015625 42.21875 
Q 17.71875 40.484375 16.75 37.40625 
Q 15.28125 32.71875 15.28125 27.15625 
L 15.28125 0 
z
" id="ArialMT-114"/>
      <path d="M 8.6875 0 
L 8.6875 45.015625 
L 0.921875 45.015625 
L 0.921875 51.859375 
L 8.6875 51.859375 
L 8.6875 57.375 
Q 8.6875 62.59375 9.625 65.140625 
Q 10.890625 68.5625 14.078125 70.671875 
Q 17.28125 72.796875 23.046875 72.796875 
Q 26.765625 72.796875 31.25 71.921875 
L 29.9375 64.265625 
Q 27.203125 64.75 24.75 64.75 
Q 20.75 64.75 19.09375 63.03125 
Q 17.4375 61.328125 17.4375 56.640625 
L 17.4375 51.859375 
L 27.546875 51.859375 
L 27.546875 45.015625 
L 17.4375 45.015625 
L 17.4375 0 
z
" id="ArialMT-102"/>
      <path d="M 39.65625 -19.875 
L 39.65625 5.515625 
Q 37.59375 2.640625 33.90625 0.734375 
Q 30.21875 -1.171875 26.078125 -1.171875 
Q 16.84375 -1.171875 10.171875 6.203125 
Q 3.515625 13.578125 3.515625 26.421875 
Q 3.515625 34.234375 6.21875 40.421875 
Q 8.9375 46.625 14.078125 49.828125 
Q 19.234375 53.03125 25.390625 53.03125 
Q 35.015625 53.03125 40.53125 44.921875 
L 40.53125 51.859375 
L 48.4375 51.859375 
L 48.4375 -19.875 
z
M 12.546875 26.078125 
Q 12.546875 16.0625 16.75 11.0625 
Q 20.953125 6.0625 26.8125 6.0625 
Q 32.421875 6.0625 36.46875 10.8125 
Q 40.53125 15.578125 40.53125 25.296875 
Q 40.53125 35.640625 36.25 40.859375 
Q 31.984375 46.09375 26.21875 46.09375 
Q 20.515625 46.09375 16.53125 41.234375 
Q 12.546875 36.375 12.546875 26.078125 
z
" id="ArialMT-113"/>
      <path d="M 40.4375 19 
L 49.078125 17.875 
Q 47.65625 8.9375 41.8125 3.875 
Q 35.984375 -1.171875 27.484375 -1.171875 
Q 16.84375 -1.171875 10.375 5.78125 
Q 3.90625 12.75 3.90625 25.734375 
Q 3.90625 34.125 6.6875 40.421875 
Q 9.46875 46.734375 15.15625 49.875 
Q 20.84375 53.03125 27.546875 53.03125 
Q 35.984375 53.03125 41.359375 48.75 
Q 46.734375 44.484375 48.25 36.625 
L 39.703125 35.296875 
Q 38.484375 40.53125 35.375 43.15625 
Q 32.28125 45.796875 27.875 45.796875 
Q 21.234375 45.796875 17.078125 41.03125 
Q 12.9375 36.28125 12.9375 25.984375 
Q 12.9375 15.53125 16.9375 10.796875 
Q 20.953125 6.0625 27.390625 6.0625 
Q 32.5625 6.0625 36.03125 9.234375 
Q 39.5 12.40625 40.4375 19 
z
" id="ArialMT-99"/>
      <path d="M 6.203125 -19.96875 
L 5.21875 -11.71875 
Q 8.109375 -12.5 10.25 -12.5 
Q 13.1875 -12.5 14.9375 -11.515625 
Q 16.703125 -10.546875 17.828125 -8.796875 
Q 18.65625 -7.46875 20.515625 -2.25 
Q 20.75 -1.515625 21.296875 -0.09375 
L 1.609375 51.859375 
L 11.078125 51.859375 
L 21.875 21.828125 
Q 23.96875 16.109375 25.640625 9.8125 
Q 27.15625 15.875 29.25 21.625 
L 40.328125 51.859375 
L 49.125 51.859375 
L 29.390625 -0.875 
Q 26.21875 -9.421875 24.46875 -12.640625 
Q 22.125 -17 19.09375 -19.015625 
Q 16.0625 -21.046875 11.859375 -21.046875 
Q 9.328125 -21.046875 6.203125 -19.96875 
z
" id="ArialMT-121"/>
      <path d="M 23.390625 -21.046875 
Q 16.109375 -11.859375 11.078125 0.4375 
Q 6.0625 12.75 6.0625 25.921875 
Q 6.0625 37.546875 9.8125 48.1875 
Q 14.203125 60.546875 23.390625 72.796875 
L 29.6875 72.796875 
Q 23.78125 62.640625 21.875 58.296875 
Q 18.890625 51.5625 17.1875 44.234375 
Q 15.09375 35.109375 15.09375 25.875 
Q 15.09375 2.390625 29.6875 -21.046875 
z
" id="ArialMT-40"/>
      <path d="M 9.078125 0 
L 9.078125 10.015625 
L 19.09375 10.015625 
L 19.09375 0 
z
" id="ArialMT-46"/>
      <path d="M 12.359375 -21.046875 
L 6.0625 -21.046875 
Q 20.65625 2.390625 20.65625 25.875 
Q 20.65625 35.0625 18.5625 44.09375 
Q 16.890625 51.421875 13.921875 58.15625 
Q 12.015625 62.546875 6.0625 72.796875 
L 12.359375 72.796875 
Q 21.53125 60.546875 25.921875 48.1875 
Q 29.6875 37.546875 29.6875 25.921875 
Q 29.6875 12.75 24.625 0.4375 
Q 19.578125 -11.859375 12.359375 -21.046875 
z
" id="ArialMT-41"/>
     </defs>
     <g transform="translate(131.965625 288.011563)rotate(-90)scale(0.28 -0.28)">
      <use xlink:href="#ArialMT-110"/>
      <use x="55.615234" xlink:href="#ArialMT-97"/>
      <use x="111.230469" xlink:href="#ArialMT-116"/>
      <use x="139.013672" xlink:href="#ArialMT-117"/>
      <use x="194.628906" xlink:href="#ArialMT-114"/>
      <use x="227.929688" xlink:href="#ArialMT-97"/>
      <use x="283.544922" xlink:href="#ArialMT-108"/>
      <use x="305.761719" xlink:href="#ArialMT-32"/>
      <use x="333.544922" xlink:href="#ArialMT-102"/>
      <use x="361.328125" xlink:href="#ArialMT-114"/>
      <use x="394.628906" xlink:href="#ArialMT-101"/>
      <use x="450.244141" xlink:href="#ArialMT-113"/>
      <use x="505.859375" xlink:href="#ArialMT-117"/>
      <use x="561.474609" xlink:href="#ArialMT-101"/>
      <use x="617.089844" xlink:href="#ArialMT-110"/>
      <use x="672.705078" xlink:href="#ArialMT-99"/>
      <use x="722.705078" xlink:href="#ArialMT-121"/>
      <use x="772.705078" xlink:href="#ArialMT-32"/>
      <use x="800.488281" xlink:href="#ArialMT-40"/>
      <use x="833.789062" xlink:href="#ArialMT-97"/>
      <use x="889.404297" xlink:href="#ArialMT-46"/>
      <use x="917.1875" xlink:href="#ArialMT-117"/>
      <use x="972.802734" xlink:href="#ArialMT-46"/>
      <use x="1000.585938" xlink:href="#ArialMT-41"/>
     </g>
    </g>
   </g>
   <g id="line2d_15">
    <path clip-path="url(#p2875183468)" d="M 217.636364 242.116364 
L 217.950131 216.913568 
L 218.263898 210.612764 
L 218.420781 209.501323 
L 218.891432 208.761653 
L 219.67585 208.986207 
L 220.1465 208.45882 
L 220.303384 208.788584 
L 220.460268 208.399644 
L 220.617151 208.501404 
L 221.401569 202.123147 
L 221.558452 201.693992 
L 222.813521 174.816142 
L 223.127288 170.770683 
L 223.597939 167.209017 
L 224.068589 165.366221 
L 224.225473 164.643187 
L 224.382356 164.503404 
L 224.53924 164.816368 
L 224.696123 164.783974 
L 225.00989 164.242679 
L 225.166774 164.061662 
L 225.480541 163.981082 
L 225.637425 163.889288 
L 225.794308 163.941721 
L 226.108075 163.242338 
L 226.264959 163.448767 
L 226.421842 163.025235 
L 227.20626 159.405699 
L 228.147561 143.616097 
L 228.618212 128.673196 
L 228.775096 128.514012 
L 229.088863 118.137071 
L 229.40263 113.028854 
L 229.716397 111.499654 
L 230.030164 111.652983 
L 230.343931 111.530369 
L 230.657698 110.607325 
L 230.814582 110.216099 
L 232.06965 100.816438 
L 233.167835 90.339642 
L 233.324719 88.975499 
L 233.481602 88.661431 
L 234.109136 83.943665 
L 234.422903 83.453946 
L 234.579787 82.514006 
L 234.893554 82.55692 
L 235.364205 84.161959 
L 235.521088 84.001087 
L 235.677972 84.291004 
L 235.834855 84.161622 
L 236.305506 84.890209 
L 236.46239 84.548928 
L 236.619273 84.636655 
L 236.93304 83.917401 
L 237.089924 83.987221 
L 237.403691 83.596573 
L 237.717458 83.537921 
L 237.874342 83.937315 
L 238.501876 83.409628 
L 238.815643 83.550311 
L 238.972526 83.438213 
L 239.12941 83.732879 
L 239.286294 83.770848 
L 239.600061 84.141216 
L 239.756944 83.977889 
L 239.913828 84.062042 
L 240.227595 83.990677 
L 240.384478 84.021855 
L 240.541362 83.758929 
L 241.012013 84.216714 
L 241.168896 84.226808 
L 241.639547 83.957036 
L 243.051499 83.923773 
L 243.365266 84.032002 
L 243.522149 84.000309 
L 243.9928 83.714498 
L 244.149684 83.662005 
L 244.463451 83.783508 
L 244.934101 83.709676 
L 245.090985 83.626723 
L 245.404752 83.681252 
L 245.875403 83.594114 
L 246.502937 83.550607 
L 246.65982 83.406255 
L 246.816704 83.475413 
L 246.973587 83.39369 
L 247.444238 83.45449 
L 248.542423 83.465619 
L 250.895676 83.286808 
L 252.464512 83.406244 
L 253.248929 83.433632 
L 255.131532 83.37575 
L 255.445299 83.354815 
L 255.759066 83.387176 
L 256.3866 83.272134 
L 257.171018 83.262155 
L 258.739854 83.296287 
L 259.053621 83.35453 
L 259.838039 83.339293 
L 263.289477 83.366876 
L 267.368449 83.295365 
L 275.526394 83.23405 
L 276.938346 83.215702 
L 278.193414 83.18668 
L 278.977832 83.197483 
L 281.487968 83.167516 
L 283.213688 83.159862 
L 286.508242 83.109724 
L 290.587214 83.085571 
L 295.293721 83.066277 
L 299.529577 83.113399 
L 301.412179 83.097631 
L 340.78995 82.984845 
L 353.968169 83.047488 
L 366.361969 83.050591 
L 374.206147 83.035047 
L 378.598886 83.04189 
L 386.443063 83.018595 
L 393.659707 83.015737 
L 461.590284 83.066494 
L 468.022509 83.051168 
L 469.120694 83.139533 
L 470.061996 83.434256 
L 473.199667 84.900885 
L 475.082269 85.360532 
L 476.337338 85.494125 
L 477.435522 85.492406 
L 479.475009 85.44835 
L 483.710864 85.337539 
L 486.691652 85.445823 
L 489.515556 85.885865 
L 492.182576 86.767772 
L 493.908295 87.585962 
L 496.889083 89.482645 
L 497.516617 89.955316 
L 498.144151 90.404662 
L 498.928569 91.01321 
L 499.556103 91.501332 
L 500.183637 91.925943 
L 501.438706 92.755465 
L 503.635075 93.937696 
L 504.576377 94.27039 
L 506.92963 94.565379 
L 507.870931 94.521176 
L 510.224184 94.187891 
L 514.303157 92.336919 
L 515.401341 91.791318 
L 517.754595 90.917058 
L 519.166547 90.7466 
L 522.774868 90.634574 
L 524.18682 90.336477 
L 526.696957 89.362847 
L 529.520861 87.871857 
L 532.501648 85.973054 
L 533.286066 85.485603 
L 535.953087 83.72822 
L 541.914661 80.22024 
L 544.111031 79.328742 
L 547.091819 78.47811 
L 550.857024 78.037119 
L 553.837811 78.057939 
L 555.877297 78.011177 
L 556.661715 77.961594 
L 561.995756 77.204068 
L 564.035242 77.028029 
L 566.074728 76.948792 
L 569.839933 77.128343 
L 572.977604 77.278211 
L 578.311645 77.392843 
L 592.117397 77.428297 
L 655.969002 77.310106 
L 666.793967 77.278546 
L 675.893213 77.197095 
L 681.227254 77.13456 
L 689.855849 77.276503 
L 706.956156 77.311119 
L 786.652999 77.208456 
L 789.163136 77.184435 
L 790.888855 77.204585 
L 796.693547 77.204647 
L 799.831218 77.220021 
L 878.429876 77.204703 
L 880.940013 77.199412 
L 889.568608 77.196082 
L 900.864224 77.237114 
L 902.433059 77.271323 
L 911.375422 77.317992 
L 961.891925 77.312958 
L 970.363636 77.310836 
L 970.363636 77.310836 
" style="fill:none;stroke:#1f77b4;stroke-linecap:square;stroke-width:1.5;"/>
   </g>
   <g id="line2d_16">
    <path clip-path="url(#p2875183468)" d="M 217.636364 241.74432 
L 217.950131 215.677884 
L 218.263898 209.246905 
L 218.577665 207.714851 
L 219.048316 207.198311 
L 220.1465 207.174187 
L 220.303384 207.112669 
L 220.617151 206.529979 
L 220.774035 206.67181 
L 221.401569 203.590614 
L 221.558452 203.310529 
L 222.029103 199.748556 
L 222.34287 194.331028 
L 222.499754 194.221864 
L 222.813521 185.553017 
L 223.284171 173.241632 
L 223.441055 169.534956 
L 223.597939 169.056811 
L 224.068589 162.073411 
L 224.382356 159.557678 
L 224.53924 159.612695 
L 225.166774 157.730332 
L 225.480541 157.751438 
L 225.637425 157.726622 
L 225.794308 158.068192 
L 226.264959 157.189037 
L 226.73561 151.650525 
L 228.304445 119.402281 
L 228.618212 113.209229 
L 228.775096 113.415962 
L 228.931979 111.527357 
L 229.088863 111.096185 
L 229.40263 109.28772 
L 229.559513 108.652859 
L 229.716397 108.8507 
L 230.030164 108.781329 
L 230.657698 108.45765 
L 230.814582 108.058135 
L 230.971465 107.280664 
L 231.128349 107.219745 
L 231.285232 106.826536 
L 232.226534 96.992893 
L 232.383417 96.392471 
L 232.697184 90.089751 
L 233.010952 87.17739 
L 233.324719 85.69854 
L 233.481602 84.830347 
L 233.795369 84.532876 
L 233.952253 84.189226 
L 234.26602 84.13148 
L 234.893554 84.075762 
L 235.364205 83.583211 
L 235.677972 83.859799 
L 235.834855 83.853017 
L 235.991739 83.71663 
L 236.305506 83.881433 
L 236.619273 84.028626 
L 237.246807 83.895493 
L 237.403691 83.740651 
L 237.560574 83.808131 
L 237.874342 83.404889 
L 238.344992 83.286659 
L 238.815643 83.677113 
L 239.286294 83.572042 
L 239.756944 83.604345 
L 240.855129 83.557493 
L 242.110197 83.635225 
L 243.835916 83.596127 
L 244.463451 83.569435 
L 246.816704 83.454322 
L 246.973587 83.232493 
L 247.130471 83.232579 
L 247.601122 82.908605 
L 247.758005 82.990954 
L 247.914889 82.871112 
L 248.228656 82.837596 
L 248.385539 82.750396 
L 248.699307 83.077702 
L 249.013074 82.902223 
L 249.169957 82.944036 
L 249.326841 83.116635 
L 249.640608 83.097705 
L 249.954375 83.317294 
L 250.268142 83.428241 
L 250.895676 83.665626 
L 251.05256 83.616546 
L 251.366327 83.949366 
L 251.52321 83.642641 
L 251.836978 83.813238 
L 251.993861 83.618729 
L 252.307628 83.740518 
L 252.464512 83.451724 
L 252.621395 83.553973 
L 253.248929 82.61953 
L 253.876464 82.630525 
L 254.033347 82.453712 
L 254.347114 82.652434 
L 254.817765 81.650645 
L 254.974649 81.726337 
L 255.131532 81.587035 
L 255.602183 81.914918 
L 256.072833 81.084144 
L 256.229717 81.249578 
L 256.3866 81.033207 
L 256.857251 81.146611 
L 257.014135 80.9022 
L 257.171018 80.996303 
L 257.327902 80.635151 
L 257.484785 80.654715 
L 257.641669 80.890207 
L 257.798552 80.761603 
L 257.955436 81.052436 
L 258.11232 80.692873 
L 258.269203 80.793399 
L 258.426087 80.71515 
L 258.739854 80.36818 
L 258.896737 80.443044 
L 259.053621 80.835097 
L 259.524271 80.510003 
L 259.681155 80.675607 
L 259.838039 80.632462 
L 259.994922 80.961586 
L 260.151806 80.97109 
L 260.308689 80.389034 
L 260.465573 80.42877 
L 260.622456 80.296359 
L 261.093107 80.755058 
L 261.249991 80.88121 
L 261.406874 80.61766 
L 261.563758 80.809087 
L 261.720641 80.709663 
L 261.877525 80.755602 
L 262.034408 80.372492 
L 262.191292 80.445474 
L 262.348175 80.204869 
L 262.661942 80.544121 
L 262.818826 80.27455 
L 262.97571 80.367704 
L 264.230778 79.256844 
L 264.387662 79.321248 
L 264.544545 79.613184 
L 265.015196 79.202378 
L 265.172079 79.221587 
L 265.328963 79.06063 
L 265.64273 79.110296 
L 265.799613 79.34476 
L 266.113381 78.939117 
L 266.270264 79.256782 
L 266.427148 79.115933 
L 266.740915 79.148401 
L 266.897798 78.954144 
L 267.211565 79.175031 
L 268.937284 77.9235 
L 269.251052 77.716606 
L 269.564819 77.897948 
L 270.349236 77.350765 
L 270.819887 77.380478 
L 270.976771 77.132479 
L 271.133654 77.29542 
L 271.447421 76.835124 
L 271.604305 76.716851 
L 271.761188 76.805546 
L 271.918072 76.560646 
L 272.074955 76.565653 
L 272.231839 76.700539 
L 272.388723 76.65096 
L 272.545606 76.771547 
L 272.70249 76.690472 
L 273.17314 77.188319 
L 274.271325 76.861997 
L 274.585092 77.196704 
L 275.055743 76.764689 
L 275.526394 76.494901 
L 275.840161 76.504557 
L 276.310811 76.533819 
L 276.624578 76.743693 
L 276.938346 76.888448 
L 277.408996 76.503707 
L 277.879647 76.847419 
L 278.03653 76.607705 
L 278.193414 76.581897 
L 278.350297 76.420376 
L 278.507181 76.491525 
L 278.977832 76.30148 
L 279.291599 76.275597 
L 279.605366 76.346503 
L 279.762249 76.288488 
L 280.2329 76.675148 
L 280.546667 76.689223 
L 282.42927 76.724327 
L 282.743037 76.28719 
L 283.056804 76.470059 
L 284.311872 76.167517 
L 284.468756 75.938902 
L 285.09629 75.781272 
L 285.410057 75.499515 
L 285.566941 75.580851 
L 285.723824 75.51787 
L 286.037591 75.230282 
L 286.665126 74.945798 
L 286.978893 75.023118 
L 287.449543 74.92436 
L 287.76331 74.904334 
L 288.233961 74.972236 
L 288.547728 75.088064 
L 289.332146 75.086545 
L 290.273447 74.655292 
L 290.587214 74.713986 
L 291.057865 74.500004 
L 291.371632 74.56866 
L 293.097351 74.24801 
L 294.195536 74.433049 
L 294.35242 74.621369 
L 294.666187 74.677963 
L 294.979954 74.864549 
L 295.293721 74.718964 
L 295.764372 74.670353 
L 296.391906 74.936028 
L 296.705673 75.129193 
L 297.01944 75.018938 
L 297.176323 75.012481 
L 297.333207 75.120794 
L 298.274508 74.715505 
L 299.843344 74.75495 
L 300.313994 74.867322 
L 300.470878 74.876119 
L 300.784645 74.730058 
L 302.039714 74.818124 
L 302.196597 74.942134 
L 302.353481 74.89058 
L 302.824131 75.100327 
L 303.137898 75.066302 
L 303.451665 75.067657 
L 303.765433 75.098776 
L 303.922316 74.992257 
L 304.706734 75.241474 
L 305.020501 75.183583 
L 305.177385 75.318998 
L 305.648035 75.291502 
L 307.216871 75.395163 
L 307.530638 75.33301 
L 307.687521 75.53702 
L 308.001288 75.490582 
L 308.471939 75.518772 
L 309.41324 75.369262 
L 310.197658 75.226745 
L 311.60961 75.21412 
L 312.080261 75.203579 
L 313.021562 75.118558 
L 313.80598 75.020538 
L 314.119747 75.059603 
L 315.374815 74.83974 
L 317.414301 74.908887 
L 317.728069 75.0732 
L 318.198719 74.94446 
L 318.512486 75.125249 
L 319.14002 74.986407 
L 319.296904 74.971817 
L 319.610671 74.775604 
L 320.081322 74.762451 
L 320.238205 74.711679 
L 320.551972 74.774409 
L 320.86574 74.668714 
L 321.179507 74.620013 
L 323.218993 74.661675 
L 324.474061 74.700229 
L 326.670431 74.631812 
L 326.984198 74.598693 
L 327.611732 74.578732 
L 328.082383 74.577671 
L 328.709917 74.537611 
L 330.749403 74.278204 
L 331.06317 74.378182 
L 331.533821 74.436978 
L 332.004472 74.525073 
L 332.945773 74.471408 
L 333.25954 74.422205 
L 333.573307 74.40294 
L 333.730191 74.559957 
L 335.299026 74.492251 
L 335.45591 74.599502 
L 335.92656 74.377797 
L 336.710978 74.447622 
L 337.495396 74.236667 
L 338.436697 74.21393 
L 338.750464 74.050296 
L 339.377998 74.049412 
L 344.241388 74.216449 
L 345.339573 74.160637 
L 345.65334 74.197492 
L 346.123991 74.028657 
L 348.477244 74.03622 
L 349.104779 74.147649 
L 349.418546 74.050458 
L 351.771799 74.036783 
L 352.085566 74.051626 
L 352.399333 74.028011 
L 352.869984 74.155111 
L 353.497518 74.168958 
L 353.968169 74.264413 
L 354.438819 74.361093 
L 355.066353 74.387433 
L 356.792072 74.75274 
L 358.047141 74.688678 
L 358.204024 74.832376 
L 359.929743 74.705687 
L 360.243511 74.825225 
L 361.655463 74.880657 
L 362.126113 74.795249 
L 363.067414 74.835409 
L 363.381182 74.709402 
L 364.008716 74.74578 
L 364.165599 74.684759 
L 364.793134 74.866435 
L 365.106901 74.862747 
L 365.577551 75.02444 
L 366.048202 75.247479 
L 367.30327 75.256632 
L 367.773921 75.178685 
L 368.087688 75.014656 
L 368.558339 74.890609 
L 369.185873 74.897743 
L 370.127174 74.746184 
L 372.323544 74.750693 
L 372.637311 74.697715 
L 374.676797 74.774415 
L 374.990564 74.701292 
L 375.931866 74.836889 
L 379.22642 74.841878 
L 380.010838 74.787143 
L 380.481488 74.785142 
L 380.795256 74.773156 
L 381.109023 74.785556 
L 381.579673 74.713089 
L 382.207208 74.697696 
L 382.520975 74.649089 
L 382.834742 74.517686 
L 383.148509 74.370458 
L 383.462276 74.346312 
L 383.776043 74.304147 
L 385.815529 74.496465 
L 387.541248 74.51204 
L 388.325666 74.519773 
L 389.110084 74.444928 
L 390.051385 74.451135 
L 390.522036 74.430316 
L 392.090871 74.488335 
L 393.34594 74.430432 
L 393.973474 74.412876 
L 411.858198 74.566214 
L 414.054568 74.557769 
L 416.094054 74.570941 
L 416.564705 74.533339 
L 417.349123 74.433915 
L 417.976657 74.435912 
L 422.369396 74.278729 
L 422.683163 74.241528 
L 424.251999 74.132038 
L 425.036417 74.150993 
L 432.25306 74.050534 
L 432.409944 74.117929 
L 432.723711 74.05521 
L 433.665012 74.071179 
L 434.763197 73.849836 
L 437.273334 73.747723 
L 437.587101 73.784837 
L 438.685286 73.714023 
L 439.31282 73.76576 
L 439.940354 73.730623 
L 440.254121 73.674366 
L 441.195422 73.77583 
L 445.588162 73.709667 
L 447.000114 73.800512 
L 448.412066 73.724399 
L 448.882716 73.726779 
L 451.549737 73.733232 
L 453.746106 73.710959 
L 454.687408 73.746727 
L 456.413127 73.803986 
L 457.668195 73.809414 
L 461.747167 73.880568 
L 464.100421 73.908816 
L 464.727955 74.050431 
L 465.82614 74.031217 
L 467.394975 74.036275 
L 468.49316 74.064332 
L 468.806927 76.868315 
L 469.120694 82.940742 
L 470.061996 106.197252 
L 470.375763 110.845689 
L 471.003297 115.668063 
L 471.317064 115.630216 
L 471.473947 116.151514 
L 471.787715 114.655917 
L 471.944598 114.591212 
L 472.415249 112.294619 
L 473.199667 108.312379 
L 473.513434 107.087428 
L 475.866687 98.246817 
L 477.749289 94.389556 
L 480.259426 90.741066 
L 480.88696 89.793671 
L 483.553981 87.030866 
L 485.122816 85.898842 
L 485.907234 85.413525 
L 486.848535 84.786457 
L 487.47607 84.375233 
L 488.103604 83.956124 
L 489.044905 83.354327 
L 489.829323 82.823261 
L 495.947781 79.188149 
L 496.575315 78.86261 
L 497.20285 78.575407 
L 499.712986 77.41205 
L 500.340521 77.122203 
L 500.968055 76.967817 
L 502.06624 76.810973 
L 503.164425 76.876789 
L 503.478192 76.860214 
L 506.458979 77.558865 
L 508.655349 78.411735 
L 513.048088 80.797313 
L 516.499526 82.899097 
L 517.597711 83.263114 
L 518.539012 83.311082 
L 519.32343 83.114633 
L 520.264732 82.653598 
L 521.362916 81.871121 
L 524.18682 79.802824 
L 525.285005 79.217775 
L 526.540074 78.685628 
L 527.638258 78.373334 
L 530.775929 77.945989 
L 534.854902 77.886579 
L 540.032059 78.019095 
L 543.797264 77.591681 
L 545.679867 76.871861 
L 547.405586 75.895787 
L 548.503771 75.10803 
L 550.70014 73.247084 
L 552.739626 71.297591 
L 554.465345 69.859181 
L 556.504832 68.451664 
L 557.916784 67.7456 
L 559.171852 67.267073 
L 562.152639 66.685631 
L 579.096063 65.162873 
L 583.802569 65.050286 
L 592.431165 65.057042 
L 613.924211 65.110994 
L 624.749176 65.001755 
L 633.534655 64.731088 
L 644.516503 64.971679 
L 657.537838 65.016496 
L 665.695782 65.147257 
L 686.404411 64.847943 
L 699.425746 64.580369 
L 772.690363 64.588374 
L 775.671151 64.669611 
L 781.475842 64.74484 
L 782.574027 64.753738 
L 785.397931 64.781376 
L 792.143924 64.573736 
L 793.712759 64.472753 
L 795.752245 64.391481 
L 797.791731 64.32847 
L 801.556937 64.252404 
L 806.263443 64.216048 
L 819.127894 64.213589 
L 884.234567 64.315941 
L 890.039259 64.382315 
L 892.706279 64.390559 
L 917.180113 64.042306 
L 970.363636 64.034995 
L 970.363636 64.034995 
" style="fill:none;stroke:#ff7f0e;stroke-linecap:square;stroke-width:1.5;"/>
   </g>
   <g id="line2d_17">
    <path clip-path="url(#p2875183468)" d="M 217.636364 240.115951 
L 217.950131 212.807292 
L 218.263898 205.801769 
L 218.577665 204.13644 
L 218.891432 203.562453 
L 219.205199 203.235725 
L 219.518966 203.070629 
L 220.303384 202.355335 
L 220.774035 199.232595 
L 220.930918 197.330631 
L 221.401569 186.347918 
L 223.127288 118.029664 
L 223.441055 114.061486 
L 224.068589 104.124235 
L 224.53924 98.743738 
L 225.00989 94.679598 
L 225.166774 94.73968 
L 225.794308 90.299174 
L 227.049377 76.818913 
L 227.20626 76.734272 
L 227.363144 74.640705 
L 227.676911 67.215879 
L 228.461329 57.058084 
L 228.931979 51.974969 
L 229.559513 49.845897 
L 229.873281 49.000125 
L 230.030164 49.478116 
L 230.500815 49.327063 
L 230.814582 48.903984 
L 231.599 48.580972 
L 232.06965 48.447759 
L 232.540301 48.485111 
L 233.952253 48.53377 
L 374.36303 48.541289 
L 412.171966 48.54073 
L 468.963811 48.42565 
L 469.591345 48.029595 
L 470.68953 46.98308 
L 472.101482 45.563358 
L 473.042783 44.905821 
L 473.984084 44.540887 
L 475.709803 44.461965 
L 477.435522 44.709508 
L 492.025693 48.07201 
L 506.615863 50.954609 
L 510.381068 51.473505 
L 512.577438 51.638352 
L 514.773807 51.647554 
L 517.283944 51.342936 
L 525.598772 49.871027 
L 530.305279 49.527706 
L 539.090758 49.144374 
L 552.739626 48.802103 
L 555.406647 49.062128 
L 558.073667 49.522137 
L 561.838872 50.209783 
L 563.878358 50.227846 
L 566.702262 49.938516 
L 569.68305 49.756952 
L 573.762022 49.786925 
L 583.959453 49.903338 
L 615.336163 49.991525 
L 623.337224 50.36133 
L 627.729963 50.470091 
L 631.181401 50.301807 
L 638.554928 49.931053 
L 648.909242 49.842768 
L 673.53996 49.865496 
L 677.775816 49.934902 
L 692.209102 49.84984 
L 713.074614 49.824313 
L 730.018038 49.89631 
L 745.549509 50.043849 
L 762.022282 49.789796 
L 786.182349 49.812544 
L 788.535602 49.887193 
L 792.614574 49.904591 
L 800.772519 49.774369 
L 830.737277 49.736261 
L 861.957103 49.758703 
L 866.192959 49.733918 
L 875.762856 49.719935 
L 885.018985 49.699577 
L 892.706279 49.679012 
L 905.57073 49.701891 
L 928.318845 49.646467 
L 948.399939 49.695036 
L 967.069082 49.674835 
L 970.363636 49.654061 
L 970.363636 49.654061 
" style="fill:none;stroke:#2ca02c;stroke-linecap:square;stroke-width:1.5;"/>
   </g>
   <g id="patch_3">
    <path d="M 180 252 
L 180 34.56 
" style="fill:none;stroke:#000000;stroke-linecap:square;stroke-linejoin:miter;stroke-width:0.8;"/>
   </g>
   <g id="patch_4">
    <path d="M 1008 252 
L 1008 34.56 
" style="fill:none;stroke:#000000;stroke-linecap:square;stroke-linejoin:miter;stroke-width:0.8;"/>
   </g>
   <g id="patch_5">
    <path d="M 180 252 
L 1008 252 
" style="fill:none;stroke:#000000;stroke-linecap:square;stroke-linejoin:miter;stroke-width:0.8;"/>
   </g>
   <g id="patch_6">
    <path d="M 180 34.56 
L 1008 34.56 
" style="fill:none;stroke:#000000;stroke-linecap:square;stroke-linejoin:miter;stroke-width:0.8;"/>
   </g>
   <g id="legend_1">
    <g id="patch_7">
     <path d="M 1054.6 152.693437 
L 1262.067812 152.693437 
Q 1267.267812 152.693437 1267.267812 147.493437 
L 1267.267812 39.76 
Q 1267.267812 34.56 1262.067812 34.56 
L 1054.6 34.56 
Q 1049.4 34.56 1049.4 39.76 
L 1049.4 147.493437 
Q 1049.4 152.693437 1054.6 152.693437 
z
" style="fill:#ffffff;opacity:0.8;stroke:#cccccc;stroke-linejoin:miter;"/>
    </g>
    <g id="line2d_18">
     <path d="M 1059.8 54.470312 
L 1111.8 54.470312 
" style="fill:none;stroke:#1f77b4;stroke-linecap:square;stroke-width:1.5;"/>
    </g>
    <g id="line2d_19"/>
    <g id="text_10">
     <!-- oscillator 1 -->
     <defs>
      <path d="M 3.328125 25.921875 
Q 3.328125 40.328125 11.328125 47.265625 
Q 18.015625 53.03125 27.640625 53.03125 
Q 38.328125 53.03125 45.109375 46.015625 
Q 51.90625 39.015625 51.90625 26.65625 
Q 51.90625 16.65625 48.90625 10.90625 
Q 45.90625 5.171875 40.15625 2 
Q 34.421875 -1.171875 27.640625 -1.171875 
Q 16.75 -1.171875 10.03125 5.8125 
Q 3.328125 12.796875 3.328125 25.921875 
z
M 12.359375 25.921875 
Q 12.359375 15.96875 16.703125 11.015625 
Q 21.046875 6.0625 27.640625 6.0625 
Q 34.1875 6.0625 38.53125 11.03125 
Q 42.875 16.015625 42.875 26.21875 
Q 42.875 35.84375 38.5 40.796875 
Q 34.125 45.75 27.640625 45.75 
Q 21.046875 45.75 16.703125 40.8125 
Q 12.359375 35.890625 12.359375 25.921875 
z
" id="ArialMT-111"/>
      <path d="M 6.640625 61.46875 
L 6.640625 71.578125 
L 15.4375 71.578125 
L 15.4375 61.46875 
z
M 6.640625 0 
L 6.640625 51.859375 
L 15.4375 51.859375 
L 15.4375 0 
z
" id="ArialMT-105"/>
     </defs>
     <g transform="translate(1132.6 63.570312)scale(0.26 -0.26)">
      <use xlink:href="#ArialMT-111"/>
      <use x="55.615234" xlink:href="#ArialMT-115"/>
      <use x="105.615234" xlink:href="#ArialMT-99"/>
      <use x="155.615234" xlink:href="#ArialMT-105"/>
      <use x="177.832031" xlink:href="#ArialMT-108"/>
      <use x="200.048828" xlink:href="#ArialMT-108"/>
      <use x="222.265625" xlink:href="#ArialMT-97"/>
      <use x="277.880859" xlink:href="#ArialMT-116"/>
      <use x="305.664062" xlink:href="#ArialMT-111"/>
      <use x="361.279297" xlink:href="#ArialMT-114"/>
      <use x="394.580078" xlink:href="#ArialMT-32"/>
      <use x="422.363281" xlink:href="#ArialMT-49"/>
     </g>
    </g>
    <g id="line2d_20">
     <path d="M 1059.8 91.248125 
L 1111.8 91.248125 
" style="fill:none;stroke:#ff7f0e;stroke-linecap:square;stroke-width:1.5;"/>
    </g>
    <g id="line2d_21"/>
    <g id="text_11">
     <!-- oscillator 2 -->
     <g transform="translate(1132.6 100.348125)scale(0.26 -0.26)">
      <use xlink:href="#ArialMT-111"/>
      <use x="55.615234" xlink:href="#ArialMT-115"/>
      <use x="105.615234" xlink:href="#ArialMT-99"/>
      <use x="155.615234" xlink:href="#ArialMT-105"/>
      <use x="177.832031" xlink:href="#ArialMT-108"/>
      <use x="200.048828" xlink:href="#ArialMT-108"/>
      <use x="222.265625" xlink:href="#ArialMT-97"/>
      <use x="277.880859" xlink:href="#ArialMT-116"/>
      <use x="305.664062" xlink:href="#ArialMT-111"/>
      <use x="361.279297" xlink:href="#ArialMT-114"/>
      <use x="394.580078" xlink:href="#ArialMT-32"/>
      <use x="422.363281" xlink:href="#ArialMT-50"/>
     </g>
    </g>
    <g id="line2d_22">
     <path d="M 1059.8 128.025937 
L 1111.8 128.025937 
" style="fill:none;stroke:#2ca02c;stroke-linecap:square;stroke-width:1.5;"/>
    </g>
    <g id="line2d_23"/>
    <g id="text_12">
     <!-- oscillator 3 -->
     <g transform="translate(1132.6 137.125937)scale(0.26 -0.26)">
      <use xlink:href="#ArialMT-111"/>
      <use x="55.615234" xlink:href="#ArialMT-115"/>
      <use x="105.615234" xlink:href="#ArialMT-99"/>
      <use x="155.615234" xlink:href="#ArialMT-105"/>
      <use x="177.832031" xlink:href="#ArialMT-108"/>
      <use x="200.048828" xlink:href="#ArialMT-108"/>
      <use x="222.265625" xlink:href="#ArialMT-97"/>
      <use x="277.880859" xlink:href="#ArialMT-116"/>
      <use x="305.664062" xlink:href="#ArialMT-111"/>
      <use x="361.279297" xlink:href="#ArialMT-114"/>
      <use x="394.580078" xlink:href="#ArialMT-32"/>
      <use x="422.363281" xlink:href="#ArialMT-51"/>
     </g>
    </g>
   </g>
  </g>
 </g>
 <defs>
  <clipPath id="p2875183468">
   <rect height="217.44" width="828" x="180" y="34.56"/>
  </clipPath>
 </defs>
</svg>
