<?xml version="1.0" encoding="utf-8" standalone="no"?>
<!DOCTYPE svg PUBLIC "-//W3C//DTD SVG 1.1//EN"
  "http://www.w3.org/Graphics/SVG/1.1/DTD/svg11.dtd">
<!-- Created with matplotlib (https://matplotlib.org/) -->
<svg height="288pt" version="1.1" viewBox="0 0 1440 288" width="1440pt" xmlns="http://www.w3.org/2000/svg" xmlns:xlink="http://www.w3.org/1999/xlink">
 <defs>
  <style type="text/css">
*{stroke-linecap:butt;stroke-linejoin:round;}
  </style>
 </defs>
 <g id="figure_1">
  <g id="patch_1">
   <path d="M 0 288 
L 1440 288 
L 1440 0 
L 0 0 
z
" style="fill:#ffffff;"/>
  </g>
  <g id="axes_1">
   <g id="patch_2">
    <path d="M 180 252 
L 1008 252 
L 1008 34.56 
L 180 34.56 
z
" style="fill:#ffffff;"/>
   </g>
   <g id="matplotlib.axis_1">
    <g id="xtick_1">
     <g id="line2d_1">
      <path clip-path="url(#p57649fbe45)" d="M 217.636364 252 
L 217.636364 34.56 
" style="fill:none;stroke:#b0b0b0;stroke-linecap:square;stroke-width:0.8;"/>
     </g>
     <g id="line2d_2">
      <defs>
       <path d="M 0 0 
L 0 3.5 
" id="m6e552ca8f6" style="stroke:#000000;stroke-width:0.8;"/>
      </defs>
      <g>
       <use style="stroke:#000000;stroke-width:0.8;" x="217.636364" xlink:href="#m6e552ca8f6" y="252"/>
      </g>
     </g>
     <g id="text_1">
      <!-- 0 -->
      <defs>
       <path d="M 4.15625 35.296875 
Q 4.15625 48 6.765625 55.734375 
Q 9.375 63.484375 14.515625 67.671875 
Q 19.671875 71.875 27.484375 71.875 
Q 33.25 71.875 37.59375 69.546875 
Q 41.9375 67.234375 44.765625 62.859375 
Q 47.609375 58.5 49.21875 52.21875 
Q 50.828125 45.953125 50.828125 35.296875 
Q 50.828125 22.703125 48.234375 14.96875 
Q 45.65625 7.234375 40.5 3 
Q 35.359375 -1.21875 27.484375 -1.21875 
Q 17.140625 -1.21875 11.234375 6.203125 
Q 4.15625 15.140625 4.15625 35.296875 
z
M 13.1875 35.296875 
Q 13.1875 17.671875 17.3125 11.828125 
Q 21.4375 6 27.484375 6 
Q 33.546875 6 37.671875 11.859375 
Q 41.796875 17.71875 41.796875 35.296875 
Q 41.796875 52.984375 37.671875 58.78125 
Q 33.546875 64.59375 27.390625 64.59375 
Q 21.34375 64.59375 17.71875 59.46875 
Q 13.1875 52.9375 13.1875 35.296875 
z
" id="ArialMT-48"/>
      </defs>
      <g transform="translate(214.855895 266.157812)scale(0.1 -0.1)">
       <use xlink:href="#ArialMT-48"/>
      </g>
     </g>
    </g>
    <g id="xtick_2">
     <g id="line2d_3">
      <path clip-path="url(#p57649fbe45)" d="M 468.650044 252 
L 468.650044 34.56 
" style="fill:none;stroke:#b0b0b0;stroke-linecap:square;stroke-width:0.8;"/>
     </g>
     <g id="line2d_4">
      <g>
       <use style="stroke:#000000;stroke-width:0.8;" x="468.650044" xlink:href="#m6e552ca8f6" y="252"/>
      </g>
     </g>
     <g id="text_2">
      <!-- 1600 -->
      <defs>
       <path d="M 37.25 0 
L 28.46875 0 
L 28.46875 56 
Q 25.296875 52.984375 20.140625 49.953125 
Q 14.984375 46.921875 10.890625 45.40625 
L 10.890625 53.90625 
Q 18.265625 57.375 23.78125 62.296875 
Q 29.296875 67.234375 31.59375 71.875 
L 37.25 71.875 
z
" id="ArialMT-49"/>
       <path d="M 49.75 54.046875 
L 41.015625 53.375 
Q 39.84375 58.546875 37.703125 60.890625 
Q 34.125 64.65625 28.90625 64.65625 
Q 24.703125 64.65625 21.53125 62.3125 
Q 17.390625 59.28125 14.984375 53.46875 
Q 12.59375 47.65625 12.5 36.921875 
Q 15.671875 41.75 20.265625 44.09375 
Q 24.859375 46.4375 29.890625 46.4375 
Q 38.671875 46.4375 44.84375 39.96875 
Q 51.03125 33.5 51.03125 23.25 
Q 51.03125 16.5 48.125 10.71875 
Q 45.21875 4.9375 40.140625 1.859375 
Q 35.0625 -1.21875 28.609375 -1.21875 
Q 17.625 -1.21875 10.6875 6.859375 
Q 3.765625 14.9375 3.765625 33.5 
Q 3.765625 54.25 11.421875 63.671875 
Q 18.109375 71.875 29.4375 71.875 
Q 37.890625 71.875 43.28125 67.140625 
Q 48.6875 62.40625 49.75 54.046875 
z
M 13.875 23.1875 
Q 13.875 18.65625 15.796875 14.5 
Q 17.71875 10.359375 21.1875 8.171875 
Q 24.65625 6 28.46875 6 
Q 34.03125 6 38.03125 10.484375 
Q 42.046875 14.984375 42.046875 22.703125 
Q 42.046875 30.125 38.078125 34.390625 
Q 34.125 38.671875 28.125 38.671875 
Q 22.171875 38.671875 18.015625 34.390625 
Q 13.875 30.125 13.875 23.1875 
z
" id="ArialMT-54"/>
      </defs>
      <g transform="translate(457.528169 266.157812)scale(0.1 -0.1)">
       <use xlink:href="#ArialMT-49"/>
       <use x="55.615234" xlink:href="#ArialMT-54"/>
       <use x="111.230469" xlink:href="#ArialMT-48"/>
       <use x="166.845703" xlink:href="#ArialMT-48"/>
      </g>
     </g>
    </g>
    <g id="xtick_3">
     <g id="line2d_5">
      <path clip-path="url(#p57649fbe45)" d="M 719.663724 252 
L 719.663724 34.56 
" style="fill:none;stroke:#b0b0b0;stroke-linecap:square;stroke-width:0.8;"/>
     </g>
     <g id="line2d_6">
      <g>
       <use style="stroke:#000000;stroke-width:0.8;" x="719.663724" xlink:href="#m6e552ca8f6" y="252"/>
      </g>
     </g>
     <g id="text_3">
      <!-- 3200 -->
      <defs>
       <path d="M 4.203125 18.890625 
L 12.984375 20.0625 
Q 14.5 12.59375 18.140625 9.296875 
Q 21.78125 6 27 6 
Q 33.203125 6 37.46875 10.296875 
Q 41.75 14.59375 41.75 20.953125 
Q 41.75 27 37.796875 30.921875 
Q 33.84375 34.859375 27.734375 34.859375 
Q 25.25 34.859375 21.53125 33.890625 
L 22.515625 41.609375 
Q 23.390625 41.5 23.921875 41.5 
Q 29.546875 41.5 34.03125 44.421875 
Q 38.53125 47.359375 38.53125 53.46875 
Q 38.53125 58.296875 35.25 61.46875 
Q 31.984375 64.65625 26.8125 64.65625 
Q 21.6875 64.65625 18.265625 61.421875 
Q 14.84375 58.203125 13.875 51.765625 
L 5.078125 53.328125 
Q 6.6875 62.15625 12.390625 67.015625 
Q 18.109375 71.875 26.609375 71.875 
Q 32.46875 71.875 37.390625 69.359375 
Q 42.328125 66.84375 44.9375 62.5 
Q 47.5625 58.15625 47.5625 53.265625 
Q 47.5625 48.640625 45.0625 44.828125 
Q 42.578125 41.015625 37.703125 38.765625 
Q 44.046875 37.3125 47.5625 32.6875 
Q 51.078125 28.078125 51.078125 21.140625 
Q 51.078125 11.765625 44.234375 5.25 
Q 37.40625 -1.265625 26.953125 -1.265625 
Q 17.53125 -1.265625 11.296875 4.34375 
Q 5.078125 9.96875 4.203125 18.890625 
z
" id="ArialMT-51"/>
       <path d="M 50.34375 8.453125 
L 50.34375 0 
L 3.03125 0 
Q 2.9375 3.171875 4.046875 6.109375 
Q 5.859375 10.9375 9.828125 15.625 
Q 13.8125 20.3125 21.34375 26.46875 
Q 33.015625 36.03125 37.109375 41.625 
Q 41.21875 47.21875 41.21875 52.203125 
Q 41.21875 57.421875 37.46875 61 
Q 33.734375 64.59375 27.734375 64.59375 
Q 21.390625 64.59375 17.578125 60.78125 
Q 13.765625 56.984375 13.71875 50.25 
L 4.6875 51.171875 
Q 5.609375 61.28125 11.65625 66.578125 
Q 17.71875 71.875 27.9375 71.875 
Q 38.234375 71.875 44.234375 66.15625 
Q 50.25 60.453125 50.25 52 
Q 50.25 47.703125 48.484375 43.546875 
Q 46.734375 39.40625 42.65625 34.8125 
Q 38.578125 30.21875 29.109375 22.21875 
Q 21.1875 15.578125 18.9375 13.203125 
Q 16.703125 10.84375 15.234375 8.453125 
z
" id="ArialMT-50"/>
      </defs>
      <g transform="translate(708.541849 266.157812)scale(0.1 -0.1)">
       <use xlink:href="#ArialMT-51"/>
       <use x="55.615234" xlink:href="#ArialMT-50"/>
       <use x="111.230469" xlink:href="#ArialMT-48"/>
       <use x="166.845703" xlink:href="#ArialMT-48"/>
      </g>
     </g>
    </g>
    <g id="xtick_4">
     <g id="line2d_7">
      <path clip-path="url(#p57649fbe45)" d="M 970.677403 252 
L 970.677403 34.56 
" style="fill:none;stroke:#b0b0b0;stroke-linecap:square;stroke-width:0.8;"/>
     </g>
     <g id="line2d_8">
      <g>
       <use style="stroke:#000000;stroke-width:0.8;" x="970.677403" xlink:href="#m6e552ca8f6" y="252"/>
      </g>
     </g>
     <g id="text_4">
      <!-- 4800 -->
      <defs>
       <path d="M 32.328125 0 
L 32.328125 17.140625 
L 1.265625 17.140625 
L 1.265625 25.203125 
L 33.9375 71.578125 
L 41.109375 71.578125 
L 41.109375 25.203125 
L 50.78125 25.203125 
L 50.78125 17.140625 
L 41.109375 17.140625 
L 41.109375 0 
z
M 32.328125 25.203125 
L 32.328125 57.46875 
L 9.90625 25.203125 
z
" id="ArialMT-52"/>
       <path d="M 17.671875 38.8125 
Q 12.203125 40.828125 9.5625 44.53125 
Q 6.9375 48.25 6.9375 53.421875 
Q 6.9375 61.234375 12.546875 66.546875 
Q 18.171875 71.875 27.484375 71.875 
Q 36.859375 71.875 42.578125 66.421875 
Q 48.296875 60.984375 48.296875 53.171875 
Q 48.296875 48.1875 45.671875 44.5 
Q 43.0625 40.828125 37.75 38.8125 
Q 44.34375 36.671875 47.78125 31.875 
Q 51.21875 27.09375 51.21875 20.453125 
Q 51.21875 11.28125 44.71875 5.03125 
Q 38.234375 -1.21875 27.640625 -1.21875 
Q 17.046875 -1.21875 10.546875 5.046875 
Q 4.046875 11.328125 4.046875 20.703125 
Q 4.046875 27.6875 7.59375 32.390625 
Q 11.140625 37.109375 17.671875 38.8125 
z
M 15.921875 53.71875 
Q 15.921875 48.640625 19.1875 45.40625 
Q 22.46875 42.1875 27.6875 42.1875 
Q 32.765625 42.1875 36.015625 45.375 
Q 39.265625 48.578125 39.265625 53.21875 
Q 39.265625 58.0625 35.90625 61.359375 
Q 32.5625 64.65625 27.59375 64.65625 
Q 22.5625 64.65625 19.234375 61.421875 
Q 15.921875 58.203125 15.921875 53.71875 
z
M 13.09375 20.65625 
Q 13.09375 16.890625 14.875 13.375 
Q 16.65625 9.859375 20.171875 7.921875 
Q 23.6875 6 27.734375 6 
Q 34.03125 6 38.125 10.046875 
Q 42.234375 14.109375 42.234375 20.359375 
Q 42.234375 26.703125 38.015625 30.859375 
Q 33.796875 35.015625 27.4375 35.015625 
Q 21.234375 35.015625 17.15625 30.90625 
Q 13.09375 26.8125 13.09375 20.65625 
z
" id="ArialMT-56"/>
      </defs>
      <g transform="translate(959.555528 266.157812)scale(0.1 -0.1)">
       <use xlink:href="#ArialMT-52"/>
       <use x="55.615234" xlink:href="#ArialMT-56"/>
       <use x="111.230469" xlink:href="#ArialMT-48"/>
       <use x="166.845703" xlink:href="#ArialMT-48"/>
      </g>
     </g>
    </g>
    <g id="text_5">
     <!-- # sample -->
     <defs>
      <path d="M 5.03125 -1.21875 
L 9.28125 19.578125 
L 1.03125 19.578125 
L 1.03125 26.859375 
L 10.75 26.859375 
L 14.359375 44.578125 
L 1.03125 44.578125 
L 1.03125 51.859375 
L 15.828125 51.859375 
L 20.0625 72.796875 
L 27.390625 72.796875 
L 23.140625 51.859375 
L 38.53125 51.859375 
L 42.78125 72.796875 
L 50.140625 72.796875 
L 45.90625 51.859375 
L 54.34375 51.859375 
L 54.34375 44.578125 
L 44.4375 44.578125 
L 40.765625 26.859375 
L 54.34375 26.859375 
L 54.34375 19.578125 
L 39.3125 19.578125 
L 35.0625 -1.21875 
L 27.734375 -1.21875 
L 31.9375 19.578125 
L 16.609375 19.578125 
L 12.359375 -1.21875 
z
M 18.0625 26.859375 
L 33.40625 26.859375 
L 37.0625 44.578125 
L 21.6875 44.578125 
z
" id="ArialMT-35"/>
      <path id="ArialMT-32"/>
      <path d="M 3.078125 15.484375 
L 11.765625 16.84375 
Q 12.5 11.625 15.84375 8.84375 
Q 19.1875 6.0625 25.203125 6.0625 
Q 31.25 6.0625 34.171875 8.515625 
Q 37.109375 10.984375 37.109375 14.3125 
Q 37.109375 17.28125 34.515625 19 
Q 32.71875 20.171875 25.53125 21.96875 
Q 15.875 24.421875 12.140625 26.203125 
Q 8.40625 27.984375 6.46875 31.125 
Q 4.546875 34.28125 4.546875 38.09375 
Q 4.546875 41.546875 6.125 44.5 
Q 7.71875 47.46875 10.453125 49.421875 
Q 12.5 50.921875 16.03125 51.96875 
Q 19.578125 53.03125 23.640625 53.03125 
Q 29.734375 53.03125 34.34375 51.265625 
Q 38.96875 49.515625 41.15625 46.5 
Q 43.359375 43.5 44.1875 38.484375 
L 35.59375 37.3125 
Q 35.015625 41.3125 32.203125 43.546875 
Q 29.390625 45.796875 24.265625 45.796875 
Q 18.21875 45.796875 15.625 43.796875 
Q 13.03125 41.796875 13.03125 39.109375 
Q 13.03125 37.40625 14.109375 36.03125 
Q 15.1875 34.625 17.484375 33.6875 
Q 18.796875 33.203125 25.25 31.453125 
Q 34.578125 28.953125 38.25 27.359375 
Q 41.9375 25.78125 44.03125 22.75 
Q 46.140625 19.734375 46.140625 15.234375 
Q 46.140625 10.84375 43.578125 6.953125 
Q 41.015625 3.078125 36.171875 0.953125 
Q 31.34375 -1.171875 25.25 -1.171875 
Q 15.140625 -1.171875 9.84375 3.03125 
Q 4.546875 7.234375 3.078125 15.484375 
z
" id="ArialMT-115"/>
      <path d="M 40.4375 6.390625 
Q 35.546875 2.25 31.03125 0.53125 
Q 26.515625 -1.171875 21.34375 -1.171875 
Q 12.796875 -1.171875 8.203125 3 
Q 3.609375 7.171875 3.609375 13.671875 
Q 3.609375 17.484375 5.34375 20.625 
Q 7.078125 23.78125 9.890625 25.6875 
Q 12.703125 27.59375 16.21875 28.5625 
Q 18.796875 29.25 24.03125 29.890625 
Q 34.671875 31.15625 39.703125 32.90625 
Q 39.75 34.71875 39.75 35.203125 
Q 39.75 40.578125 37.25 42.78125 
Q 33.890625 45.75 27.25 45.75 
Q 21.046875 45.75 18.09375 43.578125 
Q 15.140625 41.40625 13.71875 35.890625 
L 5.125 37.0625 
Q 6.296875 42.578125 8.984375 45.96875 
Q 11.671875 49.359375 16.75 51.1875 
Q 21.828125 53.03125 28.515625 53.03125 
Q 35.15625 53.03125 39.296875 51.46875 
Q 43.453125 49.90625 45.40625 47.53125 
Q 47.359375 45.171875 48.140625 41.546875 
Q 48.578125 39.3125 48.578125 33.453125 
L 48.578125 21.734375 
Q 48.578125 9.46875 49.140625 6.21875 
Q 49.703125 2.984375 51.375 0 
L 42.1875 0 
Q 40.828125 2.734375 40.4375 6.390625 
z
M 39.703125 26.03125 
Q 34.90625 24.078125 25.34375 22.703125 
Q 19.921875 21.921875 17.671875 20.9375 
Q 15.4375 19.96875 14.203125 18.09375 
Q 12.984375 16.21875 12.984375 13.921875 
Q 12.984375 10.40625 15.640625 8.0625 
Q 18.3125 5.71875 23.4375 5.71875 
Q 28.515625 5.71875 32.46875 7.9375 
Q 36.421875 10.15625 38.28125 14.015625 
Q 39.703125 17 39.703125 22.796875 
z
" id="ArialMT-97"/>
      <path d="M 6.59375 0 
L 6.59375 51.859375 
L 14.453125 51.859375 
L 14.453125 44.578125 
Q 16.890625 48.390625 20.9375 50.703125 
Q 25 53.03125 30.171875 53.03125 
Q 35.9375 53.03125 39.625 50.640625 
Q 43.3125 48.25 44.828125 43.953125 
Q 50.984375 53.03125 60.84375 53.03125 
Q 68.5625 53.03125 72.703125 48.75 
Q 76.859375 44.484375 76.859375 35.59375 
L 76.859375 0 
L 68.109375 0 
L 68.109375 32.671875 
Q 68.109375 37.9375 67.25 40.25 
Q 66.40625 42.578125 64.15625 43.984375 
Q 61.921875 45.40625 58.890625 45.40625 
Q 53.421875 45.40625 49.796875 41.765625 
Q 46.1875 38.140625 46.1875 30.125 
L 46.1875 0 
L 37.40625 0 
L 37.40625 33.6875 
Q 37.40625 39.546875 35.25 42.46875 
Q 33.109375 45.40625 28.21875 45.40625 
Q 24.515625 45.40625 21.359375 43.453125 
Q 18.21875 41.5 16.796875 37.734375 
Q 15.375 33.984375 15.375 26.90625 
L 15.375 0 
z
" id="ArialMT-109"/>
      <path d="M 6.59375 -19.875 
L 6.59375 51.859375 
L 14.59375 51.859375 
L 14.59375 45.125 
Q 17.4375 49.078125 21 51.046875 
Q 24.5625 53.03125 29.640625 53.03125 
Q 36.28125 53.03125 41.359375 49.609375 
Q 46.4375 46.1875 49.015625 39.953125 
Q 51.609375 33.734375 51.609375 26.3125 
Q 51.609375 18.359375 48.75 11.984375 
Q 45.90625 5.609375 40.453125 2.21875 
Q 35.015625 -1.171875 29 -1.171875 
Q 24.609375 -1.171875 21.109375 0.6875 
Q 17.625 2.546875 15.375 5.375 
L 15.375 -19.875 
z
M 14.546875 25.640625 
Q 14.546875 15.625 18.59375 10.84375 
Q 22.65625 6.0625 28.421875 6.0625 
Q 34.28125 6.0625 38.453125 11.015625 
Q 42.625 15.96875 42.625 26.375 
Q 42.625 36.28125 38.546875 41.203125 
Q 34.46875 46.140625 28.8125 46.140625 
Q 23.1875 46.140625 18.859375 40.890625 
Q 14.546875 35.640625 14.546875 25.640625 
z
" id="ArialMT-112"/>
      <path d="M 6.390625 0 
L 6.390625 71.578125 
L 15.1875 71.578125 
L 15.1875 0 
z
" id="ArialMT-108"/>
      <path d="M 42.09375 16.703125 
L 51.171875 15.578125 
Q 49.03125 7.625 43.21875 3.21875 
Q 37.40625 -1.171875 28.375 -1.171875 
Q 17 -1.171875 10.328125 5.828125 
Q 3.65625 12.84375 3.65625 25.484375 
Q 3.65625 38.578125 10.390625 45.796875 
Q 17.140625 53.03125 27.875 53.03125 
Q 38.28125 53.03125 44.875 45.953125 
Q 51.46875 38.875 51.46875 26.03125 
Q 51.46875 25.25 51.421875 23.6875 
L 12.75 23.6875 
Q 13.234375 15.140625 17.578125 10.59375 
Q 21.921875 6.0625 28.421875 6.0625 
Q 33.25 6.0625 36.671875 8.59375 
Q 40.09375 11.140625 42.09375 16.703125 
z
M 13.234375 30.90625 
L 42.1875 30.90625 
Q 41.609375 37.453125 38.875 40.71875 
Q 34.671875 45.796875 27.984375 45.796875 
Q 21.921875 45.796875 17.796875 41.75 
Q 13.671875 37.703125 13.234375 30.90625 
z
" id="ArialMT-101"/>
     </defs>
     <g transform="translate(557.483906 285.24875)scale(0.18 -0.18)">
      <use xlink:href="#ArialMT-35"/>
      <use x="55.615234" xlink:href="#ArialMT-32"/>
      <use x="83.398438" xlink:href="#ArialMT-115"/>
      <use x="133.398438" xlink:href="#ArialMT-97"/>
      <use x="189.013672" xlink:href="#ArialMT-109"/>
      <use x="272.314453" xlink:href="#ArialMT-112"/>
      <use x="327.929688" xlink:href="#ArialMT-108"/>
      <use x="350.146484" xlink:href="#ArialMT-101"/>
     </g>
    </g>
   </g>
   <g id="matplotlib.axis_2">
    <g id="ytick_1">
     <g id="line2d_9">
      <path clip-path="url(#p57649fbe45)" d="M 180 236.740155 
L 1008 236.740155 
" style="fill:none;stroke:#b0b0b0;stroke-linecap:square;stroke-width:0.8;"/>
     </g>
     <g id="line2d_10">
      <defs>
       <path d="M 0 0 
L -3.5 0 
" id="m46a9086719" style="stroke:#000000;stroke-width:0.8;"/>
      </defs>
      <g>
       <use style="stroke:#000000;stroke-width:0.8;" x="180" xlink:href="#m46a9086719" y="236.740155"/>
      </g>
     </g>
     <g id="text_6">
      <!-- 5 -->
      <defs>
       <path d="M 4.15625 18.75 
L 13.375 19.53125 
Q 14.40625 12.796875 18.140625 9.390625 
Q 21.875 6 27.15625 6 
Q 33.5 6 37.890625 10.78125 
Q 42.28125 15.578125 42.28125 23.484375 
Q 42.28125 31 38.0625 35.34375 
Q 33.84375 39.703125 27 39.703125 
Q 22.75 39.703125 19.328125 37.765625 
Q 15.921875 35.84375 13.96875 32.765625 
L 5.71875 33.84375 
L 12.640625 70.609375 
L 48.25 70.609375 
L 48.25 62.203125 
L 19.671875 62.203125 
L 15.828125 42.96875 
Q 22.265625 47.46875 29.34375 47.46875 
Q 38.71875 47.46875 45.15625 40.96875 
Q 51.609375 34.46875 51.609375 24.265625 
Q 51.609375 14.546875 45.953125 7.46875 
Q 39.0625 -1.21875 27.15625 -1.21875 
Q 17.390625 -1.21875 11.203125 4.25 
Q 5.03125 9.71875 4.15625 18.75 
z
" id="ArialMT-53"/>
      </defs>
      <g transform="translate(167.439063 240.319061)scale(0.1 -0.1)">
       <use xlink:href="#ArialMT-53"/>
      </g>
     </g>
    </g>
    <g id="ytick_2">
     <g id="line2d_11">
      <path clip-path="url(#p57649fbe45)" d="M 180 197.547362 
L 1008 197.547362 
" style="fill:none;stroke:#b0b0b0;stroke-linecap:square;stroke-width:0.8;"/>
     </g>
     <g id="line2d_12">
      <g>
       <use style="stroke:#000000;stroke-width:0.8;" x="180" xlink:href="#m46a9086719" y="197.547362"/>
      </g>
     </g>
     <g id="text_7">
      <!-- 10 -->
      <g transform="translate(161.878125 201.126268)scale(0.1 -0.1)">
       <use xlink:href="#ArialMT-49"/>
       <use x="55.615234" xlink:href="#ArialMT-48"/>
      </g>
     </g>
    </g>
    <g id="ytick_3">
     <g id="line2d_13">
      <path clip-path="url(#p57649fbe45)" d="M 180 158.354569 
L 1008 158.354569 
" style="fill:none;stroke:#b0b0b0;stroke-linecap:square;stroke-width:0.8;"/>
     </g>
     <g id="line2d_14">
      <g>
       <use style="stroke:#000000;stroke-width:0.8;" x="180" xlink:href="#m46a9086719" y="158.354569"/>
      </g>
     </g>
     <g id="text_8">
      <!-- 15 -->
      <g transform="translate(161.878125 161.933475)scale(0.1 -0.1)">
       <use xlink:href="#ArialMT-49"/>
       <use x="55.615234" xlink:href="#ArialMT-53"/>
      </g>
     </g>
    </g>
    <g id="ytick_4">
     <g id="line2d_15">
      <path clip-path="url(#p57649fbe45)" d="M 180 119.161776 
L 1008 119.161776 
" style="fill:none;stroke:#b0b0b0;stroke-linecap:square;stroke-width:0.8;"/>
     </g>
     <g id="line2d_16">
      <g>
       <use style="stroke:#000000;stroke-width:0.8;" x="180" xlink:href="#m46a9086719" y="119.161776"/>
      </g>
     </g>
     <g id="text_9">
      <!-- 20 -->
      <g transform="translate(161.878125 122.740682)scale(0.1 -0.1)">
       <use xlink:href="#ArialMT-50"/>
       <use x="55.615234" xlink:href="#ArialMT-48"/>
      </g>
     </g>
    </g>
    <g id="ytick_5">
     <g id="line2d_17">
      <path clip-path="url(#p57649fbe45)" d="M 180 79.968983 
L 1008 79.968983 
" style="fill:none;stroke:#b0b0b0;stroke-linecap:square;stroke-width:0.8;"/>
     </g>
     <g id="line2d_18">
      <g>
       <use style="stroke:#000000;stroke-width:0.8;" x="180" xlink:href="#m46a9086719" y="79.968983"/>
      </g>
     </g>
     <g id="text_10">
      <!-- 25 -->
      <g transform="translate(161.878125 83.547889)scale(0.1 -0.1)">
       <use xlink:href="#ArialMT-50"/>
       <use x="55.615234" xlink:href="#ArialMT-53"/>
      </g>
     </g>
    </g>
    <g id="ytick_6">
     <g id="line2d_19">
      <path clip-path="url(#p57649fbe45)" d="M 180 40.77619 
L 1008 40.77619 
" style="fill:none;stroke:#b0b0b0;stroke-linecap:square;stroke-width:0.8;"/>
     </g>
     <g id="line2d_20">
      <g>
       <use style="stroke:#000000;stroke-width:0.8;" x="180" xlink:href="#m46a9086719" y="40.77619"/>
      </g>
     </g>
     <g id="text_11">
      <!-- 30 -->
      <g transform="translate(161.878125 44.355097)scale(0.1 -0.1)">
       <use xlink:href="#ArialMT-51"/>
       <use x="55.615234" xlink:href="#ArialMT-48"/>
      </g>
     </g>
    </g>
    <g id="text_12">
     <!-- natural frequency (a.u.) -->
     <defs>
      <path d="M 6.59375 0 
L 6.59375 51.859375 
L 14.5 51.859375 
L 14.5 44.484375 
Q 20.21875 53.03125 31 53.03125 
Q 35.6875 53.03125 39.625 51.34375 
Q 43.5625 49.65625 45.515625 46.921875 
Q 47.46875 44.1875 48.25 40.4375 
Q 48.734375 37.984375 48.734375 31.890625 
L 48.734375 0 
L 39.9375 0 
L 39.9375 31.546875 
Q 39.9375 36.921875 38.90625 39.578125 
Q 37.890625 42.234375 35.28125 43.8125 
Q 32.671875 45.40625 29.15625 45.40625 
Q 23.53125 45.40625 19.453125 41.84375 
Q 15.375 38.28125 15.375 28.328125 
L 15.375 0 
z
" id="ArialMT-110"/>
      <path d="M 25.78125 7.859375 
L 27.046875 0.09375 
Q 23.34375 -0.6875 20.40625 -0.6875 
Q 15.625 -0.6875 12.984375 0.828125 
Q 10.359375 2.34375 9.28125 4.8125 
Q 8.203125 7.28125 8.203125 15.1875 
L 8.203125 45.015625 
L 1.765625 45.015625 
L 1.765625 51.859375 
L 8.203125 51.859375 
L 8.203125 64.703125 
L 16.9375 69.96875 
L 16.9375 51.859375 
L 25.78125 51.859375 
L 25.78125 45.015625 
L 16.9375 45.015625 
L 16.9375 14.703125 
Q 16.9375 10.9375 17.40625 9.859375 
Q 17.875 8.796875 18.921875 8.15625 
Q 19.96875 7.515625 21.921875 7.515625 
Q 23.390625 7.515625 25.78125 7.859375 
z
" id="ArialMT-116"/>
      <path d="M 40.578125 0 
L 40.578125 7.625 
Q 34.515625 -1.171875 24.125 -1.171875 
Q 19.53125 -1.171875 15.546875 0.578125 
Q 11.578125 2.34375 9.640625 5 
Q 7.71875 7.671875 6.9375 11.53125 
Q 6.390625 14.109375 6.390625 19.734375 
L 6.390625 51.859375 
L 15.1875 51.859375 
L 15.1875 23.09375 
Q 15.1875 16.21875 15.71875 13.8125 
Q 16.546875 10.359375 19.234375 8.375 
Q 21.921875 6.390625 25.875 6.390625 
Q 29.828125 6.390625 33.296875 8.421875 
Q 36.765625 10.453125 38.203125 13.9375 
Q 39.65625 17.4375 39.65625 24.078125 
L 39.65625 51.859375 
L 48.4375 51.859375 
L 48.4375 0 
z
" id="ArialMT-117"/>
      <path d="M 6.5 0 
L 6.5 51.859375 
L 14.40625 51.859375 
L 14.40625 44 
Q 17.4375 49.515625 20 51.265625 
Q 22.5625 53.03125 25.640625 53.03125 
Q 30.078125 53.03125 34.671875 50.203125 
L 31.640625 42.046875 
Q 28.421875 43.953125 25.203125 43.953125 
Q 22.3125 43.953125 20.015625 42.21875 
Q 17.71875 40.484375 16.75 37.40625 
Q 15.28125 32.71875 15.28125 27.15625 
L 15.28125 0 
z
" id="ArialMT-114"/>
      <path d="M 8.6875 0 
L 8.6875 45.015625 
L 0.921875 45.015625 
L 0.921875 51.859375 
L 8.6875 51.859375 
L 8.6875 57.375 
Q 8.6875 62.59375 9.625 65.140625 
Q 10.890625 68.5625 14.078125 70.671875 
Q 17.28125 72.796875 23.046875 72.796875 
Q 26.765625 72.796875 31.25 71.921875 
L 29.9375 64.265625 
Q 27.203125 64.75 24.75 64.75 
Q 20.75 64.75 19.09375 63.03125 
Q 17.4375 61.328125 17.4375 56.640625 
L 17.4375 51.859375 
L 27.546875 51.859375 
L 27.546875 45.015625 
L 17.4375 45.015625 
L 17.4375 0 
z
" id="ArialMT-102"/>
      <path d="M 39.65625 -19.875 
L 39.65625 5.515625 
Q 37.59375 2.640625 33.90625 0.734375 
Q 30.21875 -1.171875 26.078125 -1.171875 
Q 16.84375 -1.171875 10.171875 6.203125 
Q 3.515625 13.578125 3.515625 26.421875 
Q 3.515625 34.234375 6.21875 40.421875 
Q 8.9375 46.625 14.078125 49.828125 
Q 19.234375 53.03125 25.390625 53.03125 
Q 35.015625 53.03125 40.53125 44.921875 
L 40.53125 51.859375 
L 48.4375 51.859375 
L 48.4375 -19.875 
z
M 12.546875 26.078125 
Q 12.546875 16.0625 16.75 11.0625 
Q 20.953125 6.0625 26.8125 6.0625 
Q 32.421875 6.0625 36.46875 10.8125 
Q 40.53125 15.578125 40.53125 25.296875 
Q 40.53125 35.640625 36.25 40.859375 
Q 31.984375 46.09375 26.21875 46.09375 
Q 20.515625 46.09375 16.53125 41.234375 
Q 12.546875 36.375 12.546875 26.078125 
z
" id="ArialMT-113"/>
      <path d="M 40.4375 19 
L 49.078125 17.875 
Q 47.65625 8.9375 41.8125 3.875 
Q 35.984375 -1.171875 27.484375 -1.171875 
Q 16.84375 -1.171875 10.375 5.78125 
Q 3.90625 12.75 3.90625 25.734375 
Q 3.90625 34.125 6.6875 40.421875 
Q 9.46875 46.734375 15.15625 49.875 
Q 20.84375 53.03125 27.546875 53.03125 
Q 35.984375 53.03125 41.359375 48.75 
Q 46.734375 44.484375 48.25 36.625 
L 39.703125 35.296875 
Q 38.484375 40.53125 35.375 43.15625 
Q 32.28125 45.796875 27.875 45.796875 
Q 21.234375 45.796875 17.078125 41.03125 
Q 12.9375 36.28125 12.9375 25.984375 
Q 12.9375 15.53125 16.9375 10.796875 
Q 20.953125 6.0625 27.390625 6.0625 
Q 32.5625 6.0625 36.03125 9.234375 
Q 39.5 12.40625 40.4375 19 
z
" id="ArialMT-99"/>
      <path d="M 6.203125 -19.96875 
L 5.21875 -11.71875 
Q 8.109375 -12.5 10.25 -12.5 
Q 13.1875 -12.5 14.9375 -11.515625 
Q 16.703125 -10.546875 17.828125 -8.796875 
Q 18.65625 -7.46875 20.515625 -2.25 
Q 20.75 -1.515625 21.296875 -0.09375 
L 1.609375 51.859375 
L 11.078125 51.859375 
L 21.875 21.828125 
Q 23.96875 16.109375 25.640625 9.8125 
Q 27.15625 15.875 29.25 21.625 
L 40.328125 51.859375 
L 49.125 51.859375 
L 29.390625 -0.875 
Q 26.21875 -9.421875 24.46875 -12.640625 
Q 22.125 -17 19.09375 -19.015625 
Q 16.0625 -21.046875 11.859375 -21.046875 
Q 9.328125 -21.046875 6.203125 -19.96875 
z
" id="ArialMT-121"/>
      <path d="M 23.390625 -21.046875 
Q 16.109375 -11.859375 11.078125 0.4375 
Q 6.0625 12.75 6.0625 25.921875 
Q 6.0625 37.546875 9.8125 48.1875 
Q 14.203125 60.546875 23.390625 72.796875 
L 29.6875 72.796875 
Q 23.78125 62.640625 21.875 58.296875 
Q 18.890625 51.5625 17.1875 44.234375 
Q 15.09375 35.109375 15.09375 25.875 
Q 15.09375 2.390625 29.6875 -21.046875 
z
" id="ArialMT-40"/>
      <path d="M 9.078125 0 
L 9.078125 10.015625 
L 19.09375 10.015625 
L 19.09375 0 
z
" id="ArialMT-46"/>
      <path d="M 12.359375 -21.046875 
L 6.0625 -21.046875 
Q 20.65625 2.390625 20.65625 25.875 
Q 20.65625 35.0625 18.5625 44.09375 
Q 16.890625 51.421875 13.921875 58.15625 
Q 12.015625 62.546875 6.0625 72.796875 
L 12.359375 72.796875 
Q 21.53125 60.546875 25.921875 48.1875 
Q 29.6875 37.546875 29.6875 25.921875 
Q 29.6875 12.75 24.625 0.4375 
Q 19.578125 -11.859375 12.359375 -21.046875 
z
" id="ArialMT-41"/>
     </defs>
     <g transform="translate(154.089687 236.321719)rotate(-90)scale(0.18 -0.18)">
      <use xlink:href="#ArialMT-110"/>
      <use x="55.615234" xlink:href="#ArialMT-97"/>
      <use x="111.230469" xlink:href="#ArialMT-116"/>
      <use x="139.013672" xlink:href="#ArialMT-117"/>
      <use x="194.628906" xlink:href="#ArialMT-114"/>
      <use x="227.929688" xlink:href="#ArialMT-97"/>
      <use x="283.544922" xlink:href="#ArialMT-108"/>
      <use x="305.761719" xlink:href="#ArialMT-32"/>
      <use x="333.544922" xlink:href="#ArialMT-102"/>
      <use x="361.328125" xlink:href="#ArialMT-114"/>
      <use x="394.628906" xlink:href="#ArialMT-101"/>
      <use x="450.244141" xlink:href="#ArialMT-113"/>
      <use x="505.859375" xlink:href="#ArialMT-117"/>
      <use x="561.474609" xlink:href="#ArialMT-101"/>
      <use x="617.089844" xlink:href="#ArialMT-110"/>
      <use x="672.705078" xlink:href="#ArialMT-99"/>
      <use x="722.705078" xlink:href="#ArialMT-121"/>
      <use x="772.705078" xlink:href="#ArialMT-32"/>
      <use x="800.488281" xlink:href="#ArialMT-40"/>
      <use x="833.789062" xlink:href="#ArialMT-97"/>
      <use x="889.404297" xlink:href="#ArialMT-46"/>
      <use x="917.1875" xlink:href="#ArialMT-117"/>
      <use x="972.802734" xlink:href="#ArialMT-46"/>
      <use x="1000.585938" xlink:href="#ArialMT-41"/>
     </g>
    </g>
   </g>
   <g id="line2d_21">
    <path clip-path="url(#p57649fbe45)" d="M 217.636364 242.116364 
L 217.950131 216.66563 
L 218.263898 210.299661 
L 218.577665 208.842611 
L 219.67585 208.695959 
L 219.989617 208.844719 
L 220.460268 208.340105 
L 220.617151 208.40736 
L 220.774035 208.65535 
L 220.930918 206.797025 
L 221.244685 201.114914 
L 221.558452 198.232778 
L 222.970404 170.306481 
L 223.284171 167.609062 
L 223.441055 165.697735 
L 223.597939 165.657298 
L 223.754822 165.187371 
L 223.911706 165.339055 
L 224.068589 164.421436 
L 224.225473 164.513647 
L 224.853007 163.324367 
L 225.323658 163.440677 
L 225.637425 163.639132 
L 225.794308 163.291355 
L 225.951192 163.215533 
L 226.108075 162.323574 
L 226.264959 162.650547 
L 226.578726 162.760003 
L 227.049377 160.528676 
L 227.20626 159.046604 
L 227.833794 146.114021 
L 228.147561 140.94768 
L 228.618212 125.06317 
L 228.775096 123.857648 
L 229.559513 110.454307 
L 230.030164 109.037105 
L 230.343931 109.117862 
L 230.814582 108.776016 
L 230.971465 107.402533 
L 231.285232 106.771079 
L 231.442116 105.428404 
L 231.599 105.27187 
L 231.755883 104.772036 
L 232.854068 95.029677 
L 233.010952 94.764687 
L 233.167835 95.597163 
L 233.324719 93.939291 
L 233.481602 94.209324 
L 233.795369 91.831871 
L 233.952253 91.761398 
L 234.26602 89.20382 
L 234.579787 87.206022 
L 234.736671 87.493213 
L 234.893554 87.002332 
L 235.050438 87.081149 
L 235.207321 86.77847 
L 235.364205 86.16426 
L 235.834855 86.028217 
L 236.148623 85.156632 
L 236.305506 85.588463 
L 236.619273 85.287966 
L 236.93304 84.421297 
L 237.089924 84.628446 
L 237.246807 84.187632 
L 237.403691 84.286508 
L 237.560574 84.048442 
L 238.344992 84.1381 
L 238.501876 83.872737 
L 238.815643 83.977854 
L 238.972526 83.892461 
L 239.600061 84.50678 
L 239.913828 84.39321 
L 240.070711 84.180269 
L 240.384478 84.153753 
L 240.541362 84.023993 
L 240.698245 84.140304 
L 240.855129 83.955431 
L 241.168896 84.133592 
L 242.267081 83.766327 
L 242.423965 83.790932 
L 242.894615 83.545385 
L 243.679033 83.660474 
L 243.9928 83.440572 
L 244.149684 83.523848 
L 244.620334 83.281785 
L 247.130471 83.425897 
L 247.444238 83.374172 
L 247.758005 83.361187 
L 248.228656 83.512651 
L 250.268142 83.26603 
L 250.581909 83.419027 
L 256.543484 83.426008 
L 256.857251 83.38283 
L 257.641669 83.389938 
L 258.269203 83.417377 
L 258.896737 83.365922 
L 261.093107 83.470008 
L 262.034408 83.441965 
L 262.97571 83.417999 
L 263.760127 83.358645 
L 264.387662 83.357695 
L 266.270264 83.309763 
L 268.152867 83.276749 
L 269.407935 83.268292 
L 269.878586 83.23781 
L 281.017318 83.285017 
L 283.213688 83.235835 
L 290.430331 83.28284 
L 291.842283 83.267797 
L 294.038652 83.264727 
L 469.120694 83.351779 
L 470.061996 83.600233 
L 471.16018 84.060351 
L 472.101482 84.533622 
L 475.082269 85.435345 
L 476.494221 85.515516 
L 477.435522 85.535886 
L 487.319186 85.511361 
L 489.986206 85.916696 
L 492.182576 86.586088 
L 493.751412 87.302497 
L 496.732199 89.085569 
L 500.654288 91.957934 
L 500.968055 92.154905 
L 501.595589 92.562498 
L 503.007541 93.302143 
L 503.635075 93.50458 
L 504.419493 93.774014 
L 505.047027 93.867924 
L 506.302096 94.059132 
L 507.40028 94.071972 
L 507.870931 94.029454 
L 509.59665 93.725435 
L 511.165486 93.136319 
L 512.26367 92.69512 
L 514.46004 91.685136 
L 515.087574 91.423542 
L 518.068362 90.389728 
L 520.107848 90.300134 
L 522.461101 90.231745 
L 524.657471 89.731605 
L 525.598772 89.369729 
L 527.952025 88.246119 
L 529.05021 87.65647 
L 530.148395 87.062591 
L 532.972299 85.209352 
L 538.620107 81.495346 
L 539.090758 81.216893 
L 539.718292 80.842451 
L 542.699079 79.329624 
L 546.150517 78.294848 
L 547.876236 78.057643 
L 549.915722 77.949007 
L 551.170791 77.938234 
L 552.739626 77.953498 
L 557.7599 77.647473 
L 559.171852 77.428551 
L 565.29031 76.90852 
L 574.860207 77.278605 
L 583.645686 77.345246 
L 648.595475 77.264697 
L 667.578385 77.196034 
L 674.01061 77.129026 
L 679.344651 77.053578 
L 716.996703 77.213515 
L 970.363636 77.278966 
L 970.363636 77.278966 
" style="fill:none;stroke:#1f77b4;stroke-linecap:square;stroke-width:1.5;"/>
   </g>
   <g id="line2d_22">
    <path clip-path="url(#p57649fbe45)" d="M 217.636364 241.462544 
L 217.950131 215.758172 
L 218.263898 209.137278 
L 218.577665 207.634104 
L 218.891432 207.115748 
L 219.205199 207.023516 
L 219.518966 206.974996 
L 219.67585 206.845328 
L 219.832733 206.937005 
L 220.1465 206.905138 
L 220.617151 206.985978 
L 220.930918 206.623165 
L 221.087802 205.813959 
L 221.401569 203.580251 
L 221.558452 203.592607 
L 221.715336 202.447518 
L 222.185987 195.183809 
L 222.499754 189.18996 
L 224.068589 157.965631 
L 224.53924 155.024196 
L 225.00989 153.918037 
L 225.323658 154.038908 
L 225.480541 154.036909 
L 225.951192 153.285647 
L 226.108075 153.370205 
L 226.421842 150.753875 
L 226.73561 150.945865 
L 228.147561 122.504341 
L 228.304445 121.691595 
L 228.775096 115.847199 
L 229.40263 112.067901 
L 229.873281 111.704943 
L 230.030164 111.456141 
L 230.187048 111.45337 
L 230.500815 111.016582 
L 230.657698 110.685358 
L 230.814582 109.941336 
L 230.971465 110.261523 
L 231.128349 109.606401 
L 231.285232 107.832009 
L 231.599 107.367505 
L 231.912767 102.435865 
L 232.226534 99.228927 
L 232.854068 87.287722 
L 233.167835 86.216341 
L 233.952253 83.059618 
L 234.109136 83.07095 
L 234.26602 82.79272 
L 234.579787 82.82448 
L 235.050438 82.86763 
L 235.364205 82.847561 
L 235.677972 82.697784 
L 235.834855 82.908841 
L 235.991739 82.873421 
L 236.148623 82.98155 
L 236.305506 82.951015 
L 236.46239 83.114599 
L 237.246807 82.533921 
L 237.403691 82.611097 
L 238.344992 82.072668 
L 238.501876 82.310453 
L 238.815643 82.176295 
L 238.972526 82.270715 
L 239.12941 82.124233 
L 239.913828 82.140283 
L 240.227595 82.072914 
L 241.168896 82.164921 
L 241.482663 82.204417 
L 241.79643 82.178034 
L 243.365266 82.079366 
L 243.9928 82.222569 
L 246.032286 82.014439 
L 246.502937 82.106471 
L 246.816704 82.001964 
L 246.973587 81.939683 
L 247.130471 82.009827 
L 247.287355 82.229705 
L 247.601122 82.054785 
L 247.914889 82.297294 
L 248.071772 82.18587 
L 248.228656 82.327262 
L 248.542423 82.183391 
L 249.640608 82.156164 
L 250.111258 81.703234 
L 250.425026 81.599945 
L 250.581909 81.722576 
L 251.209443 81.376331 
L 251.52321 81.914531 
L 251.680094 81.918291 
L 251.836978 81.589172 
L 252.464512 81.639672 
L 252.621395 81.375355 
L 252.778279 81.334517 
L 253.092046 81.112191 
L 253.248929 81.178918 
L 253.405813 80.947517 
L 253.562697 81.000435 
L 253.876464 80.588585 
L 254.347114 80.09339 
L 254.503998 80.158806 
L 254.817765 80.736311 
L 255.445299 79.456943 
L 255.602183 79.295398 
L 255.759066 79.474979 
L 255.91595 79.465969 
L 256.3866 78.846564 
L 256.543484 78.806515 
L 256.700368 78.975788 
L 257.484785 78.610422 
L 257.641669 78.744175 
L 257.798552 78.53455 
L 257.955436 78.696707 
L 258.11232 78.460372 
L 258.426087 78.713893 
L 258.739854 78.325143 
L 258.896737 78.415802 
L 259.210504 78.170008 
L 260.622456 77.923649 
L 260.77934 77.73004 
L 260.936223 77.908297 
L 261.406874 77.418988 
L 261.563758 77.594966 
L 261.720641 77.571937 
L 261.877525 77.703362 
L 262.191292 77.503011 
L 262.348175 77.596987 
L 262.661942 77.633996 
L 262.818826 77.764836 
L 263.289477 77.079178 
L 263.44636 77.063906 
L 263.760127 76.516701 
L 263.917011 76.656234 
L 264.073894 76.434334 
L 264.387662 76.518464 
L 265.015196 76.48739 
L 265.799613 76.731257 
L 265.956497 76.670564 
L 266.113381 76.879756 
L 266.897798 76.903626 
L 267.054682 77.00649 
L 267.211565 76.906059 
L 267.525333 76.968636 
L 267.682216 76.902253 
L 267.995983 77.26935 
L 268.780401 76.795481 
L 268.937284 76.899294 
L 269.407935 76.610961 
L 270.035469 76.906319 
L 270.50612 76.643607 
L 271.133654 76.862982 
L 271.447421 76.641832 
L 271.604305 76.812338 
L 272.70249 75.669887 
L 272.859373 75.785153 
L 273.957558 75.231 
L 274.428209 75.682098 
L 275.36951 75.792276 
L 275.683277 75.532055 
L 276.467695 75.478136 
L 276.781462 75.557433 
L 276.938346 75.346548 
L 277.408996 75.538818 
L 277.56588 75.212347 
L 277.722763 75.2145 
L 277.879647 75.058256 
L 278.507181 75.256341 
L 278.664065 75.257014 
L 278.977832 75.499318 
L 279.291599 75.664748 
L 279.762249 75.672692 
L 280.076017 75.451274 
L 280.2329 75.552678 
L 280.703551 75.393945 
L 281.017318 75.486536 
L 281.644852 75.465209 
L 281.958619 75.414249 
L 282.42927 75.652631 
L 282.89992 75.714157 
L 283.056804 75.613068 
L 283.370571 75.598031 
L 283.684338 75.575222 
L 283.998105 75.65998 
L 285.09629 75.991416 
L 285.253174 75.84516 
L 285.410057 75.978274 
L 285.723824 75.951763 
L 286.037591 76.016266 
L 286.351359 75.958493 
L 287.606427 75.761256 
L 287.920194 75.732691 
L 288.233961 75.612908 
L 288.547728 75.742791 
L 289.48903 75.528003 
L 289.645913 75.307052 
L 290.273447 75.556916 
L 290.587214 75.509086 
L 291.371632 75.642918 
L 291.842283 75.490481 
L 292.15605 75.611406 
L 292.312933 75.452757 
L 293.881769 75.846147 
L 295.607488 75.539714 
L 295.921255 75.661465 
L 296.078139 75.585285 
L 296.391906 75.734506 
L 296.548789 75.719632 
L 296.862556 75.933178 
L 297.01944 75.830732 
L 297.803858 76.02533 
L 298.117625 75.9465 
L 298.431392 76.006613 
L 299.372693 75.793433 
L 299.529577 75.923342 
L 302.039714 75.354611 
L 302.196597 75.40975 
L 302.510364 75.362701 
L 302.667248 75.306271 
L 302.824131 75.378359 
L 303.294782 75.297825 
L 304.0792 75.359482 
L 305.020501 75.199917 
L 305.648035 75.251695 
L 306.589336 75.259609 
L 307.059987 75.284725 
L 307.373754 75.37095 
L 308.471939 75.533189 
L 308.94259 75.397693 
L 309.570124 75.316823 
L 310.197658 75.367758 
L 310.825192 75.32032 
L 312.080261 75.331733 
L 313.021562 75.117598 
L 313.962863 75.154221 
L 314.119747 75.334973 
L 314.433514 75.224856 
L 315.061048 75.342911 
L 315.531699 75.388393 
L 315.845466 75.345382 
L 316.473 75.378726 
L 316.943651 75.398248 
L 317.257418 75.297765 
L 320.86574 75.282937 
L 321.179507 75.300047 
L 321.650157 75.09005 
L 322.905226 74.992616 
L 324.003411 75.021019 
L 324.317178 75.032675 
L 324.630945 74.933273 
L 325.72913 74.949996 
L 326.670431 74.797805 
L 327.768616 74.826476 
L 328.082383 74.906463 
L 328.39615 74.933169 
L 329.180568 75.029202 
L 331.220054 75.04281 
L 332.161355 75.005044 
L 332.632006 74.968959 
L 333.102656 74.943662 
L 334.200841 74.917284 
L 335.299026 74.897889 
L 335.769677 74.89345 
L 336.710978 74.904872 
L 338.279814 74.843592 
L 340.005533 74.894446 
L 340.476183 74.827642 
L 342.045019 74.822452 
L 343.300087 74.828319 
L 346.751525 74.795772 
L 347.065292 74.883801 
L 347.84971 74.610685 
L 348.477244 74.594674 
L 348.791011 74.45403 
L 349.104779 74.457943 
L 353.183751 74.662518 
L 353.497518 74.746693 
L 354.125052 74.804245 
L 359.302209 74.949223 
L 359.615976 74.846337 
L 360.086627 74.893983 
L 362.910531 74.79072 
L 369.813407 74.563563 
L 370.597825 74.531483 
L 371.69601 74.489245 
L 372.16666 74.494509 
L 372.951078 74.444236 
L 375.147448 74.337968 
L 375.461215 74.308498 
L 377.03005 74.331339 
L 378.285119 74.416353 
L 380.324605 74.178778 
L 382.520975 74.271543 
L 383.305392 74.287591 
L 384.246694 74.173787 
L 385.344879 74.076301 
L 385.972413 74.054229 
L 386.599947 74.038594 
L 386.913714 74.045436 
L 387.541248 74.010462 
L 388.011899 74.055473 
L 388.325666 74.014279 
L 388.796317 73.908976 
L 389.110084 73.931622 
L 389.423851 73.86052 
L 396.954261 73.764814 
L 398.20933 73.7851 
L 411.230664 73.805233 
L 412.015082 73.765819 
L 413.27015 73.787756 
L 414.838986 73.7979 
L 415.937171 73.819155 
L 416.250938 73.76882 
L 416.721589 73.831504 
L 417.506006 73.800961 
L 421.584979 73.816576 
L 427.232786 73.657372 
L 428.017204 73.731329 
L 430.527341 73.722496 
L 432.566827 73.926345 
L 433.037478 73.867669 
L 433.665012 73.831087 
L 434.135663 73.87282 
L 435.547615 73.808439 
L 437.743984 73.837554 
L 439.155936 73.798292 
L 445.274395 73.784064 
L 447.156997 73.771361 
L 449.0396 73.791982 
L 450.765319 73.767852 
L 452.020387 73.791642 
L 456.413127 73.819354 
L 457.511312 73.816072 
L 458.923263 73.76914 
L 459.550798 73.729074 
L 460.335215 73.855502 
L 460.96275 73.853974 
L 461.276517 73.901911 
L 463.002236 73.853018 
L 465.669256 73.781203 
L 466.767441 73.748259 
L 467.865626 73.810308 
L 468.336276 73.887844 
L 468.49316 74.164615 
L 468.650044 75.28138 
L 469.120694 82.456787 
L 470.218879 105.60335 
L 470.532646 110.993489 
L 471.16018 115.013921 
L 471.317064 115.300519 
L 471.473947 114.87059 
L 471.630831 114.839402 
L 471.944598 114.266898 
L 472.729016 110.619966 
L 472.885899 110.453063 
L 473.35655 107.676309 
L 473.827201 106.268192 
L 474.297851 104.215709 
L 474.925386 101.943048 
L 475.709803 99.580966 
L 476.807988 96.476799 
L 476.964872 96.271015 
L 477.592406 94.834788 
L 478.847474 92.278051 
L 482.455796 87.249375 
L 483.240214 86.538004 
L 484.338399 85.620831 
L 485.907234 84.347889 
L 486.377885 83.992484 
L 490.927508 80.85361 
L 492.33946 79.824408 
L 497.359733 77.003248 
L 498.771685 76.474748 
L 501.281822 76.081532 
L 503.478192 76.048908 
L 506.302096 76.829017 
L 507.40028 77.275474 
L 509.282883 78.107199 
L 511.949903 79.532086 
L 516.499526 82.039817 
L 517.440828 82.286594 
L 518.225245 82.292755 
L 519.009663 82.099948 
L 519.950964 81.619339 
L 521.990451 80.154486 
L 523.245519 79.281402 
L 524.814354 78.434584 
L 525.912539 77.981866 
L 527.324491 77.584339 
L 529.991512 77.193738 
L 535.011785 77.133961 
L 542.071545 77.145114 
L 544.111031 76.681247 
L 545.3661 76.202684 
L 546.464284 75.608897 
L 547.562469 74.855387 
L 549.131305 73.586518 
L 553.210277 70.018154 
L 556.034181 68.072438 
L 558.387434 67.030782 
L 559.95627 66.637859 
L 562.937057 66.141655 
L 567.329797 65.71839 
L 576.115275 64.951335 
L 581.763083 64.774706 
L 590.548562 64.764615 
L 620.51332 64.768596 
L 625.690477 64.561766 
L 630.396984 64.422679 
L 634.789723 64.583787 
L 641.378832 64.732268 
L 659.577324 64.90232 
L 664.911365 64.936872 
L 679.815302 64.797255 
L 700.680814 64.352143 
L 735.822729 64.28488 
L 737.548448 64.235198 
L 772.690363 64.40448 
L 776.612452 64.43654 
L 778.651938 64.43018 
L 781.318959 64.391185 
L 784.45663 64.422316 
L 789.633787 64.467793 
L 792.614574 64.379962 
L 794.026526 64.320106 
L 798.733033 64.197097 
L 814.735155 64.11167 
L 854.897344 63.981816 
L 860.074501 63.971875 
L 872.938952 64.021489 
L 879.998712 64.126854 
L 885.803403 64.39325 
L 888.78419 64.457005 
L 889.568608 64.49501 
L 900.079806 64.327443 
L 903.374361 64.29281 
L 907.7671 64.227105 
L 917.964531 64.117708 
L 970.363636 64.138031 
L 970.363636 64.138031 
" style="fill:none;stroke:#ff7f0e;stroke-linecap:square;stroke-width:1.5;"/>
   </g>
   <g id="line2d_23">
    <path clip-path="url(#p57649fbe45)" d="M 217.636364 239.833403 
L 217.950131 212.599177 
L 218.263898 205.743647 
L 218.577665 203.943981 
L 218.891432 203.337609 
L 219.048316 203.282433 
L 219.362083 203.000314 
L 220.1465 202.251836 
L 220.460268 200.819046 
L 220.617151 200.586778 
L 220.774035 199.460313 
L 220.930918 199.177014 
L 221.558452 188.396546 
L 222.029103 165.133356 
L 222.34287 145.034903 
L 223.284171 113.127171 
L 223.911706 101.996631 
L 224.068589 102.514159 
L 224.382356 100.193702 
L 224.53924 98.405224 
L 224.696123 98.464379 
L 225.00989 97.229143 
L 225.480541 94.050204 
L 225.794308 92.137862 
L 226.108075 88.755529 
L 226.264959 87.503512 
L 228.618212 52.552856 
L 228.931979 50.462492 
L 229.245746 49.277032 
L 229.40263 49.25373 
L 229.559513 49.467914 
L 230.030164 48.364293 
L 230.187048 48.011159 
L 230.343931 48.461417 
L 230.500815 48.137423 
L 230.657698 48.413315 
L 230.814582 48.411187 
L 231.128349 48.621315 
L 231.442116 48.469505 
L 231.599 48.451482 
L 231.755883 48.574098 
L 232.854068 48.452243 
L 234.579787 48.467087 
L 239.286294 48.445846 
L 245.404752 48.431943 
L 310.511425 48.435532 
L 468.650044 48.412184 
L 469.277578 48.157395 
L 470.061996 47.52328 
L 472.572132 45.195862 
L 473.35655 44.797854 
L 474.297851 44.524685 
L 475.396036 44.453999 
L 476.337338 44.529671 
L 480.102543 45.268862 
L 490.299973 47.649504 
L 496.575315 49.012122 
L 499.712986 49.690318 
L 510.067301 51.470251 
L 513.204972 51.639125 
L 516.813293 51.334781 
L 519.637197 50.748116 
L 523.71617 50.042809 
L 528.108909 49.621685 
L 539.247641 49.056666 
L 551.641442 48.701892 
L 554.308462 48.932448 
L 557.603016 49.505151 
L 561.211338 50.20718 
L 562.780174 50.264195 
L 564.505893 50.125774 
L 567.957331 49.78876 
L 571.095002 49.726707 
L 597.765205 49.756858 
L 611.414074 49.844596 
L 618.944484 50.117901 
L 626.945545 50.383974 
L 630.710751 50.176254 
L 636.201675 49.904836 
L 643.732085 49.800512 
L 671.814241 49.819384 
L 676.991398 49.922513 
L 688.287014 49.807074 
L 708.211224 49.789805 
L 725.939066 49.845176 
L 727.821668 49.886744 
L 740.529236 50.059097 
L 747.432112 49.843391 
L 754.491872 49.773115 
L 786.809883 49.791794 
L 790.731972 49.761146 
L 797.007314 49.702221 
L 844.386146 49.796473 
L 847.053166 49.835347 
L 857.721247 49.893167 
L 866.977377 49.776912 
L 890.666793 49.705605 
L 907.7671 50.100769 
L 910.591004 50.212794 
L 914.82686 50.206381 
L 925.338058 50.063647 
L 952.792679 50.051677 
L 957.342302 50.076485 
L 970.363636 49.969357 
L 970.363636 49.969357 
" style="fill:none;stroke:#2ca02c;stroke-linecap:square;stroke-width:1.5;"/>
   </g>
   <g id="patch_3">
    <path d="M 180 252 
L 180 34.56 
" style="fill:none;stroke:#000000;stroke-linecap:square;stroke-linejoin:miter;stroke-width:0.8;"/>
   </g>
   <g id="patch_4">
    <path d="M 1008 252 
L 1008 34.56 
" style="fill:none;stroke:#000000;stroke-linecap:square;stroke-linejoin:miter;stroke-width:0.8;"/>
   </g>
   <g id="patch_5">
    <path d="M 180 252 
L 1008 252 
" style="fill:none;stroke:#000000;stroke-linecap:square;stroke-linejoin:miter;stroke-width:0.8;"/>
   </g>
   <g id="patch_6">
    <path d="M 180 34.56 
L 1008 34.56 
" style="fill:none;stroke:#000000;stroke-linecap:square;stroke-linejoin:miter;stroke-width:0.8;"/>
   </g>
   <g id="legend_1">
    <g id="patch_7">
     <path d="M 1051.8 89.083125 
L 1126.899375 89.083125 
Q 1129.299375 89.083125 1129.299375 86.683125 
L 1129.299375 36.96 
Q 1129.299375 34.56 1126.899375 34.56 
L 1051.8 34.56 
Q 1049.4 34.56 1049.4 36.96 
L 1049.4 86.683125 
Q 1049.4 89.083125 1051.8 89.083125 
z
" style="fill:#ffffff;opacity:0.8;stroke:#cccccc;stroke-linejoin:miter;"/>
    </g>
    <g id="line2d_24">
     <path d="M 1054.2 43.749375 
L 1078.2 43.749375 
" style="fill:none;stroke:#1f77b4;stroke-linecap:square;stroke-width:1.5;"/>
    </g>
    <g id="line2d_25"/>
    <g id="text_13">
     <!-- node 1 -->
     <defs>
      <path d="M 3.328125 25.921875 
Q 3.328125 40.328125 11.328125 47.265625 
Q 18.015625 53.03125 27.640625 53.03125 
Q 38.328125 53.03125 45.109375 46.015625 
Q 51.90625 39.015625 51.90625 26.65625 
Q 51.90625 16.65625 48.90625 10.90625 
Q 45.90625 5.171875 40.15625 2 
Q 34.421875 -1.171875 27.640625 -1.171875 
Q 16.75 -1.171875 10.03125 5.8125 
Q 3.328125 12.796875 3.328125 25.921875 
z
M 12.359375 25.921875 
Q 12.359375 15.96875 16.703125 11.015625 
Q 21.046875 6.0625 27.640625 6.0625 
Q 34.1875 6.0625 38.53125 11.03125 
Q 42.875 16.015625 42.875 26.21875 
Q 42.875 35.84375 38.5 40.796875 
Q 34.125 45.75 27.640625 45.75 
Q 21.046875 45.75 16.703125 40.8125 
Q 12.359375 35.890625 12.359375 25.921875 
z
" id="ArialMT-111"/>
      <path d="M 40.234375 0 
L 40.234375 6.546875 
Q 35.296875 -1.171875 25.734375 -1.171875 
Q 19.53125 -1.171875 14.328125 2.25 
Q 9.125 5.671875 6.265625 11.796875 
Q 3.421875 17.921875 3.421875 25.875 
Q 3.421875 33.640625 6 39.96875 
Q 8.59375 46.296875 13.765625 49.65625 
Q 18.953125 53.03125 25.34375 53.03125 
Q 30.03125 53.03125 33.6875 51.046875 
Q 37.359375 49.078125 39.65625 45.90625 
L 39.65625 71.578125 
L 48.390625 71.578125 
L 48.390625 0 
z
M 12.453125 25.875 
Q 12.453125 15.921875 16.640625 10.984375 
Q 20.84375 6.0625 26.5625 6.0625 
Q 32.328125 6.0625 36.34375 10.765625 
Q 40.375 15.484375 40.375 25.140625 
Q 40.375 35.796875 36.265625 40.765625 
Q 32.171875 45.75 26.171875 45.75 
Q 20.3125 45.75 16.375 40.96875 
Q 12.453125 36.1875 12.453125 25.875 
z
" id="ArialMT-100"/>
     </defs>
     <g transform="translate(1087.8 47.949375)scale(0.12 -0.12)">
      <use xlink:href="#ArialMT-110"/>
      <use x="55.615234" xlink:href="#ArialMT-111"/>
      <use x="111.230469" xlink:href="#ArialMT-100"/>
      <use x="166.845703" xlink:href="#ArialMT-101"/>
      <use x="222.460938" xlink:href="#ArialMT-32"/>
      <use x="250.244141" xlink:href="#ArialMT-49"/>
     </g>
    </g>
    <g id="line2d_26">
     <path d="M 1054.2 60.72375 
L 1078.2 60.72375 
" style="fill:none;stroke:#ff7f0e;stroke-linecap:square;stroke-width:1.5;"/>
    </g>
    <g id="line2d_27"/>
    <g id="text_14">
     <!-- node 2 -->
     <g transform="translate(1087.8 64.92375)scale(0.12 -0.12)">
      <use xlink:href="#ArialMT-110"/>
      <use x="55.615234" xlink:href="#ArialMT-111"/>
      <use x="111.230469" xlink:href="#ArialMT-100"/>
      <use x="166.845703" xlink:href="#ArialMT-101"/>
      <use x="222.460938" xlink:href="#ArialMT-32"/>
      <use x="250.244141" xlink:href="#ArialMT-50"/>
     </g>
    </g>
    <g id="line2d_28">
     <path d="M 1054.2 77.698125 
L 1078.2 77.698125 
" style="fill:none;stroke:#2ca02c;stroke-linecap:square;stroke-width:1.5;"/>
    </g>
    <g id="line2d_29"/>
    <g id="text_15">
     <!-- node 3 -->
     <g transform="translate(1087.8 81.898125)scale(0.12 -0.12)">
      <use xlink:href="#ArialMT-110"/>
      <use x="55.615234" xlink:href="#ArialMT-111"/>
      <use x="111.230469" xlink:href="#ArialMT-100"/>
      <use x="166.845703" xlink:href="#ArialMT-101"/>
      <use x="222.460938" xlink:href="#ArialMT-32"/>
      <use x="250.244141" xlink:href="#ArialMT-51"/>
     </g>
    </g>
   </g>
  </g>
 </g>
 <defs>
  <clipPath id="p57649fbe45">
   <rect height="217.44" width="828" x="180" y="34.56"/>
  </clipPath>
 </defs>
</svg>
