<?xml version="1.0" encoding="utf-8" standalone="no"?>
<!DOCTYPE svg PUBLIC "-//W3C//DTD SVG 1.1//EN"
  "http://www.w3.org/Graphics/SVG/1.1/DTD/svg11.dtd">
<!-- Created with matplotlib (https://matplotlib.org/) -->
<svg height="288pt" version="1.1" viewBox="0 0 1440 288" width="1440pt" xmlns="http://www.w3.org/2000/svg" xmlns:xlink="http://www.w3.org/1999/xlink">
 <defs>
  <style type="text/css">
*{stroke-linecap:butt;stroke-linejoin:round;}
  </style>
 </defs>
 <g id="figure_1">
  <g id="patch_1">
   <path d="M 0 288 
L 1440 288 
L 1440 0 
L 0 0 
z
" style="fill:#ffffff;"/>
  </g>
  <g id="axes_1">
   <g id="patch_2">
    <path d="M 180 252 
L 1008 252 
L 1008 34.56 
L 180 34.56 
z
" style="fill:#ffffff;"/>
   </g>
   <g id="matplotlib.axis_1">
    <g id="xtick_1">
     <g id="line2d_1">
      <path clip-path="url(#p1bc953020f)" d="M 217.636364 252 
L 217.636364 34.56 
" style="fill:none;stroke:#b0b0b0;stroke-linecap:square;stroke-width:0.8;"/>
     </g>
     <g id="line2d_2">
      <defs>
       <path d="M 0 0 
L 0 3.5 
" id="mbb4ca54397" style="stroke:#000000;stroke-width:0.8;"/>
      </defs>
      <g>
       <use style="stroke:#000000;stroke-width:0.8;" x="217.636364" xlink:href="#mbb4ca54397" y="252"/>
      </g>
     </g>
     <g id="text_1">
      <!-- 0 -->
      <defs>
       <path d="M 4.15625 35.296875 
Q 4.15625 48 6.765625 55.734375 
Q 9.375 63.484375 14.515625 67.671875 
Q 19.671875 71.875 27.484375 71.875 
Q 33.25 71.875 37.59375 69.546875 
Q 41.9375 67.234375 44.765625 62.859375 
Q 47.609375 58.5 49.21875 52.21875 
Q 50.828125 45.953125 50.828125 35.296875 
Q 50.828125 22.703125 48.234375 14.96875 
Q 45.65625 7.234375 40.5 3 
Q 35.359375 -1.21875 27.484375 -1.21875 
Q 17.140625 -1.21875 11.234375 6.203125 
Q 4.15625 15.140625 4.15625 35.296875 
z
M 13.1875 35.296875 
Q 13.1875 17.671875 17.3125 11.828125 
Q 21.4375 6 27.484375 6 
Q 33.546875 6 37.671875 11.859375 
Q 41.796875 17.71875 41.796875 35.296875 
Q 41.796875 52.984375 37.671875 58.78125 
Q 33.546875 64.59375 27.390625 64.59375 
Q 21.34375 64.59375 17.71875 59.46875 
Q 13.1875 52.9375 13.1875 35.296875 
z
" id="ArialMT-48"/>
      </defs>
      <g transform="translate(210.407145 277.610313)scale(0.26 -0.26)">
       <use xlink:href="#ArialMT-48"/>
      </g>
     </g>
    </g>
    <g id="xtick_2">
     <g id="line2d_3">
      <path clip-path="url(#p1bc953020f)" d="M 468.650044 252 
L 468.650044 34.56 
" style="fill:none;stroke:#b0b0b0;stroke-linecap:square;stroke-width:0.8;"/>
     </g>
     <g id="line2d_4">
      <g>
       <use style="stroke:#000000;stroke-width:0.8;" x="468.650044" xlink:href="#mbb4ca54397" y="252"/>
      </g>
     </g>
     <g id="text_2">
      <!-- 1600 -->
      <defs>
       <path d="M 37.25 0 
L 28.46875 0 
L 28.46875 56 
Q 25.296875 52.984375 20.140625 49.953125 
Q 14.984375 46.921875 10.890625 45.40625 
L 10.890625 53.90625 
Q 18.265625 57.375 23.78125 62.296875 
Q 29.296875 67.234375 31.59375 71.875 
L 37.25 71.875 
z
" id="ArialMT-49"/>
       <path d="M 49.75 54.046875 
L 41.015625 53.375 
Q 39.84375 58.546875 37.703125 60.890625 
Q 34.125 64.65625 28.90625 64.65625 
Q 24.703125 64.65625 21.53125 62.3125 
Q 17.390625 59.28125 14.984375 53.46875 
Q 12.59375 47.65625 12.5 36.921875 
Q 15.671875 41.75 20.265625 44.09375 
Q 24.859375 46.4375 29.890625 46.4375 
Q 38.671875 46.4375 44.84375 39.96875 
Q 51.03125 33.5 51.03125 23.25 
Q 51.03125 16.5 48.125 10.71875 
Q 45.21875 4.9375 40.140625 1.859375 
Q 35.0625 -1.21875 28.609375 -1.21875 
Q 17.625 -1.21875 10.6875 6.859375 
Q 3.765625 14.9375 3.765625 33.5 
Q 3.765625 54.25 11.421875 63.671875 
Q 18.109375 71.875 29.4375 71.875 
Q 37.890625 71.875 43.28125 67.140625 
Q 48.6875 62.40625 49.75 54.046875 
z
M 13.875 23.1875 
Q 13.875 18.65625 15.796875 14.5 
Q 17.71875 10.359375 21.1875 8.171875 
Q 24.65625 6 28.46875 6 
Q 34.03125 6 38.03125 10.484375 
Q 42.046875 14.984375 42.046875 22.703125 
Q 42.046875 30.125 38.078125 34.390625 
Q 34.125 38.671875 28.125 38.671875 
Q 22.171875 38.671875 18.015625 34.390625 
Q 13.875 30.125 13.875 23.1875 
z
" id="ArialMT-54"/>
      </defs>
      <g transform="translate(439.733169 277.610313)scale(0.26 -0.26)">
       <use xlink:href="#ArialMT-49"/>
       <use x="55.615234" xlink:href="#ArialMT-54"/>
       <use x="111.230469" xlink:href="#ArialMT-48"/>
       <use x="166.845703" xlink:href="#ArialMT-48"/>
      </g>
     </g>
    </g>
    <g id="xtick_3">
     <g id="line2d_5">
      <path clip-path="url(#p1bc953020f)" d="M 719.663724 252 
L 719.663724 34.56 
" style="fill:none;stroke:#b0b0b0;stroke-linecap:square;stroke-width:0.8;"/>
     </g>
     <g id="line2d_6">
      <g>
       <use style="stroke:#000000;stroke-width:0.8;" x="719.663724" xlink:href="#mbb4ca54397" y="252"/>
      </g>
     </g>
     <g id="text_3">
      <!-- 3200 -->
      <defs>
       <path d="M 4.203125 18.890625 
L 12.984375 20.0625 
Q 14.5 12.59375 18.140625 9.296875 
Q 21.78125 6 27 6 
Q 33.203125 6 37.46875 10.296875 
Q 41.75 14.59375 41.75 20.953125 
Q 41.75 27 37.796875 30.921875 
Q 33.84375 34.859375 27.734375 34.859375 
Q 25.25 34.859375 21.53125 33.890625 
L 22.515625 41.609375 
Q 23.390625 41.5 23.921875 41.5 
Q 29.546875 41.5 34.03125 44.421875 
Q 38.53125 47.359375 38.53125 53.46875 
Q 38.53125 58.296875 35.25 61.46875 
Q 31.984375 64.65625 26.8125 64.65625 
Q 21.6875 64.65625 18.265625 61.421875 
Q 14.84375 58.203125 13.875 51.765625 
L 5.078125 53.328125 
Q 6.6875 62.15625 12.390625 67.015625 
Q 18.109375 71.875 26.609375 71.875 
Q 32.46875 71.875 37.390625 69.359375 
Q 42.328125 66.84375 44.9375 62.5 
Q 47.5625 58.15625 47.5625 53.265625 
Q 47.5625 48.640625 45.0625 44.828125 
Q 42.578125 41.015625 37.703125 38.765625 
Q 44.046875 37.3125 47.5625 32.6875 
Q 51.078125 28.078125 51.078125 21.140625 
Q 51.078125 11.765625 44.234375 5.25 
Q 37.40625 -1.265625 26.953125 -1.265625 
Q 17.53125 -1.265625 11.296875 4.34375 
Q 5.078125 9.96875 4.203125 18.890625 
z
" id="ArialMT-51"/>
       <path d="M 50.34375 8.453125 
L 50.34375 0 
L 3.03125 0 
Q 2.9375 3.171875 4.046875 6.109375 
Q 5.859375 10.9375 9.828125 15.625 
Q 13.8125 20.3125 21.34375 26.46875 
Q 33.015625 36.03125 37.109375 41.625 
Q 41.21875 47.21875 41.21875 52.203125 
Q 41.21875 57.421875 37.46875 61 
Q 33.734375 64.59375 27.734375 64.59375 
Q 21.390625 64.59375 17.578125 60.78125 
Q 13.765625 56.984375 13.71875 50.25 
L 4.6875 51.171875 
Q 5.609375 61.28125 11.65625 66.578125 
Q 17.71875 71.875 27.9375 71.875 
Q 38.234375 71.875 44.234375 66.15625 
Q 50.25 60.453125 50.25 52 
Q 50.25 47.703125 48.484375 43.546875 
Q 46.734375 39.40625 42.65625 34.8125 
Q 38.578125 30.21875 29.109375 22.21875 
Q 21.1875 15.578125 18.9375 13.203125 
Q 16.703125 10.84375 15.234375 8.453125 
z
" id="ArialMT-50"/>
      </defs>
      <g transform="translate(690.746849 277.610313)scale(0.26 -0.26)">
       <use xlink:href="#ArialMT-51"/>
       <use x="55.615234" xlink:href="#ArialMT-50"/>
       <use x="111.230469" xlink:href="#ArialMT-48"/>
       <use x="166.845703" xlink:href="#ArialMT-48"/>
      </g>
     </g>
    </g>
    <g id="xtick_4">
     <g id="line2d_7">
      <path clip-path="url(#p1bc953020f)" d="M 970.677403 252 
L 970.677403 34.56 
" style="fill:none;stroke:#b0b0b0;stroke-linecap:square;stroke-width:0.8;"/>
     </g>
     <g id="line2d_8">
      <g>
       <use style="stroke:#000000;stroke-width:0.8;" x="970.677403" xlink:href="#mbb4ca54397" y="252"/>
      </g>
     </g>
     <g id="text_4">
      <!-- 4800 -->
      <defs>
       <path d="M 32.328125 0 
L 32.328125 17.140625 
L 1.265625 17.140625 
L 1.265625 25.203125 
L 33.9375 71.578125 
L 41.109375 71.578125 
L 41.109375 25.203125 
L 50.78125 25.203125 
L 50.78125 17.140625 
L 41.109375 17.140625 
L 41.109375 0 
z
M 32.328125 25.203125 
L 32.328125 57.46875 
L 9.90625 25.203125 
z
" id="ArialMT-52"/>
       <path d="M 17.671875 38.8125 
Q 12.203125 40.828125 9.5625 44.53125 
Q 6.9375 48.25 6.9375 53.421875 
Q 6.9375 61.234375 12.546875 66.546875 
Q 18.171875 71.875 27.484375 71.875 
Q 36.859375 71.875 42.578125 66.421875 
Q 48.296875 60.984375 48.296875 53.171875 
Q 48.296875 48.1875 45.671875 44.5 
Q 43.0625 40.828125 37.75 38.8125 
Q 44.34375 36.671875 47.78125 31.875 
Q 51.21875 27.09375 51.21875 20.453125 
Q 51.21875 11.28125 44.71875 5.03125 
Q 38.234375 -1.21875 27.640625 -1.21875 
Q 17.046875 -1.21875 10.546875 5.046875 
Q 4.046875 11.328125 4.046875 20.703125 
Q 4.046875 27.6875 7.59375 32.390625 
Q 11.140625 37.109375 17.671875 38.8125 
z
M 15.921875 53.71875 
Q 15.921875 48.640625 19.1875 45.40625 
Q 22.46875 42.1875 27.6875 42.1875 
Q 32.765625 42.1875 36.015625 45.375 
Q 39.265625 48.578125 39.265625 53.21875 
Q 39.265625 58.0625 35.90625 61.359375 
Q 32.5625 64.65625 27.59375 64.65625 
Q 22.5625 64.65625 19.234375 61.421875 
Q 15.921875 58.203125 15.921875 53.71875 
z
M 13.09375 20.65625 
Q 13.09375 16.890625 14.875 13.375 
Q 16.65625 9.859375 20.171875 7.921875 
Q 23.6875 6 27.734375 6 
Q 34.03125 6 38.125 10.046875 
Q 42.234375 14.109375 42.234375 20.359375 
Q 42.234375 26.703125 38.015625 30.859375 
Q 33.796875 35.015625 27.4375 35.015625 
Q 21.234375 35.015625 17.15625 30.90625 
Q 13.09375 26.8125 13.09375 20.65625 
z
" id="ArialMT-56"/>
      </defs>
      <g transform="translate(941.760528 277.610313)scale(0.26 -0.26)">
       <use xlink:href="#ArialMT-52"/>
       <use x="55.615234" xlink:href="#ArialMT-56"/>
       <use x="111.230469" xlink:href="#ArialMT-48"/>
       <use x="166.845703" xlink:href="#ArialMT-48"/>
      </g>
     </g>
    </g>
    <g id="text_5">
     <!-- # sample -->
     <defs>
      <path d="M 5.03125 -1.21875 
L 9.28125 19.578125 
L 1.03125 19.578125 
L 1.03125 26.859375 
L 10.75 26.859375 
L 14.359375 44.578125 
L 1.03125 44.578125 
L 1.03125 51.859375 
L 15.828125 51.859375 
L 20.0625 72.796875 
L 27.390625 72.796875 
L 23.140625 51.859375 
L 38.53125 51.859375 
L 42.78125 72.796875 
L 50.140625 72.796875 
L 45.90625 51.859375 
L 54.34375 51.859375 
L 54.34375 44.578125 
L 44.4375 44.578125 
L 40.765625 26.859375 
L 54.34375 26.859375 
L 54.34375 19.578125 
L 39.3125 19.578125 
L 35.0625 -1.21875 
L 27.734375 -1.21875 
L 31.9375 19.578125 
L 16.609375 19.578125 
L 12.359375 -1.21875 
z
M 18.0625 26.859375 
L 33.40625 26.859375 
L 37.0625 44.578125 
L 21.6875 44.578125 
z
" id="ArialMT-35"/>
      <path id="ArialMT-32"/>
      <path d="M 3.078125 15.484375 
L 11.765625 16.84375 
Q 12.5 11.625 15.84375 8.84375 
Q 19.1875 6.0625 25.203125 6.0625 
Q 31.25 6.0625 34.171875 8.515625 
Q 37.109375 10.984375 37.109375 14.3125 
Q 37.109375 17.28125 34.515625 19 
Q 32.71875 20.171875 25.53125 21.96875 
Q 15.875 24.421875 12.140625 26.203125 
Q 8.40625 27.984375 6.46875 31.125 
Q 4.546875 34.28125 4.546875 38.09375 
Q 4.546875 41.546875 6.125 44.5 
Q 7.71875 47.46875 10.453125 49.421875 
Q 12.5 50.921875 16.03125 51.96875 
Q 19.578125 53.03125 23.640625 53.03125 
Q 29.734375 53.03125 34.34375 51.265625 
Q 38.96875 49.515625 41.15625 46.5 
Q 43.359375 43.5 44.1875 38.484375 
L 35.59375 37.3125 
Q 35.015625 41.3125 32.203125 43.546875 
Q 29.390625 45.796875 24.265625 45.796875 
Q 18.21875 45.796875 15.625 43.796875 
Q 13.03125 41.796875 13.03125 39.109375 
Q 13.03125 37.40625 14.109375 36.03125 
Q 15.1875 34.625 17.484375 33.6875 
Q 18.796875 33.203125 25.25 31.453125 
Q 34.578125 28.953125 38.25 27.359375 
Q 41.9375 25.78125 44.03125 22.75 
Q 46.140625 19.734375 46.140625 15.234375 
Q 46.140625 10.84375 43.578125 6.953125 
Q 41.015625 3.078125 36.171875 0.953125 
Q 31.34375 -1.171875 25.25 -1.171875 
Q 15.140625 -1.171875 9.84375 3.03125 
Q 4.546875 7.234375 3.078125 15.484375 
z
" id="ArialMT-115"/>
      <path d="M 40.4375 6.390625 
Q 35.546875 2.25 31.03125 0.53125 
Q 26.515625 -1.171875 21.34375 -1.171875 
Q 12.796875 -1.171875 8.203125 3 
Q 3.609375 7.171875 3.609375 13.671875 
Q 3.609375 17.484375 5.34375 20.625 
Q 7.078125 23.78125 9.890625 25.6875 
Q 12.703125 27.59375 16.21875 28.5625 
Q 18.796875 29.25 24.03125 29.890625 
Q 34.671875 31.15625 39.703125 32.90625 
Q 39.75 34.71875 39.75 35.203125 
Q 39.75 40.578125 37.25 42.78125 
Q 33.890625 45.75 27.25 45.75 
Q 21.046875 45.75 18.09375 43.578125 
Q 15.140625 41.40625 13.71875 35.890625 
L 5.125 37.0625 
Q 6.296875 42.578125 8.984375 45.96875 
Q 11.671875 49.359375 16.75 51.1875 
Q 21.828125 53.03125 28.515625 53.03125 
Q 35.15625 53.03125 39.296875 51.46875 
Q 43.453125 49.90625 45.40625 47.53125 
Q 47.359375 45.171875 48.140625 41.546875 
Q 48.578125 39.3125 48.578125 33.453125 
L 48.578125 21.734375 
Q 48.578125 9.46875 49.140625 6.21875 
Q 49.703125 2.984375 51.375 0 
L 42.1875 0 
Q 40.828125 2.734375 40.4375 6.390625 
z
M 39.703125 26.03125 
Q 34.90625 24.078125 25.34375 22.703125 
Q 19.921875 21.921875 17.671875 20.9375 
Q 15.4375 19.96875 14.203125 18.09375 
Q 12.984375 16.21875 12.984375 13.921875 
Q 12.984375 10.40625 15.640625 8.0625 
Q 18.3125 5.71875 23.4375 5.71875 
Q 28.515625 5.71875 32.46875 7.9375 
Q 36.421875 10.15625 38.28125 14.015625 
Q 39.703125 17 39.703125 22.796875 
z
" id="ArialMT-97"/>
      <path d="M 6.59375 0 
L 6.59375 51.859375 
L 14.453125 51.859375 
L 14.453125 44.578125 
Q 16.890625 48.390625 20.9375 50.703125 
Q 25 53.03125 30.171875 53.03125 
Q 35.9375 53.03125 39.625 50.640625 
Q 43.3125 48.25 44.828125 43.953125 
Q 50.984375 53.03125 60.84375 53.03125 
Q 68.5625 53.03125 72.703125 48.75 
Q 76.859375 44.484375 76.859375 35.59375 
L 76.859375 0 
L 68.109375 0 
L 68.109375 32.671875 
Q 68.109375 37.9375 67.25 40.25 
Q 66.40625 42.578125 64.15625 43.984375 
Q 61.921875 45.40625 58.890625 45.40625 
Q 53.421875 45.40625 49.796875 41.765625 
Q 46.1875 38.140625 46.1875 30.125 
L 46.1875 0 
L 37.40625 0 
L 37.40625 33.6875 
Q 37.40625 39.546875 35.25 42.46875 
Q 33.109375 45.40625 28.21875 45.40625 
Q 24.515625 45.40625 21.359375 43.453125 
Q 18.21875 41.5 16.796875 37.734375 
Q 15.375 33.984375 15.375 26.90625 
L 15.375 0 
z
" id="ArialMT-109"/>
      <path d="M 6.59375 -19.875 
L 6.59375 51.859375 
L 14.59375 51.859375 
L 14.59375 45.125 
Q 17.4375 49.078125 21 51.046875 
Q 24.5625 53.03125 29.640625 53.03125 
Q 36.28125 53.03125 41.359375 49.609375 
Q 46.4375 46.1875 49.015625 39.953125 
Q 51.609375 33.734375 51.609375 26.3125 
Q 51.609375 18.359375 48.75 11.984375 
Q 45.90625 5.609375 40.453125 2.21875 
Q 35.015625 -1.171875 29 -1.171875 
Q 24.609375 -1.171875 21.109375 0.6875 
Q 17.625 2.546875 15.375 5.375 
L 15.375 -19.875 
z
M 14.546875 25.640625 
Q 14.546875 15.625 18.59375 10.84375 
Q 22.65625 6.0625 28.421875 6.0625 
Q 34.28125 6.0625 38.453125 11.015625 
Q 42.625 15.96875 42.625 26.375 
Q 42.625 36.28125 38.546875 41.203125 
Q 34.46875 46.140625 28.8125 46.140625 
Q 23.1875 46.140625 18.859375 40.890625 
Q 14.546875 35.640625 14.546875 25.640625 
z
" id="ArialMT-112"/>
      <path d="M 6.390625 0 
L 6.390625 71.578125 
L 15.1875 71.578125 
L 15.1875 0 
z
" id="ArialMT-108"/>
      <path d="M 42.09375 16.703125 
L 51.171875 15.578125 
Q 49.03125 7.625 43.21875 3.21875 
Q 37.40625 -1.171875 28.375 -1.171875 
Q 17 -1.171875 10.328125 5.828125 
Q 3.65625 12.84375 3.65625 25.484375 
Q 3.65625 38.578125 10.390625 45.796875 
Q 17.140625 53.03125 27.875 53.03125 
Q 38.28125 53.03125 44.875 45.953125 
Q 51.46875 38.875 51.46875 26.03125 
Q 51.46875 25.25 51.421875 23.6875 
L 12.75 23.6875 
Q 13.234375 15.140625 17.578125 10.59375 
Q 21.921875 6.0625 28.421875 6.0625 
Q 33.25 6.0625 36.671875 8.59375 
Q 40.09375 11.140625 42.09375 16.703125 
z
M 13.234375 30.90625 
L 42.1875 30.90625 
Q 41.609375 37.453125 38.875 40.71875 
Q 34.671875 45.796875 27.984375 45.796875 
Q 21.921875 45.796875 17.796875 41.75 
Q 13.671875 37.703125 13.234375 30.90625 
z
" id="ArialMT-101"/>
     </defs>
     <g transform="translate(557.483906 299.88125)scale(0.18 -0.18)">
      <use xlink:href="#ArialMT-35"/>
      <use x="55.615234" xlink:href="#ArialMT-32"/>
      <use x="83.398438" xlink:href="#ArialMT-115"/>
      <use x="133.398438" xlink:href="#ArialMT-97"/>
      <use x="189.013672" xlink:href="#ArialMT-109"/>
      <use x="272.314453" xlink:href="#ArialMT-112"/>
      <use x="327.929688" xlink:href="#ArialMT-108"/>
      <use x="350.146484" xlink:href="#ArialMT-101"/>
     </g>
    </g>
   </g>
   <g id="matplotlib.axis_2">
    <g id="ytick_1">
     <g id="line2d_9">
      <path clip-path="url(#p1bc953020f)" d="M 180 197.5016 
L 1008 197.5016 
" style="fill:none;stroke:#b0b0b0;stroke-linecap:square;stroke-width:0.8;"/>
     </g>
     <g id="line2d_10">
      <defs>
       <path d="M 0 0 
L -3.5 0 
" id="mce0663261d" style="stroke:#000000;stroke-width:0.8;"/>
      </defs>
      <g>
       <use style="stroke:#000000;stroke-width:0.8;" x="180" xlink:href="#mce0663261d" y="197.5016"/>
      </g>
     </g>
     <g id="text_6">
      <!-- 10 -->
      <g transform="translate(144.083125 206.806757)scale(0.26 -0.26)">
       <use xlink:href="#ArialMT-49"/>
       <use x="55.615234" xlink:href="#ArialMT-48"/>
      </g>
     </g>
    </g>
    <g id="ytick_2">
     <g id="line2d_11">
      <path clip-path="url(#p1bc953020f)" d="M 180 119.147874 
L 1008 119.147874 
" style="fill:none;stroke:#b0b0b0;stroke-linecap:square;stroke-width:0.8;"/>
     </g>
     <g id="line2d_12">
      <g>
       <use style="stroke:#000000;stroke-width:0.8;" x="180" xlink:href="#mce0663261d" y="119.147874"/>
      </g>
     </g>
     <g id="text_7">
      <!-- 20 -->
      <g transform="translate(144.083125 128.45303)scale(0.26 -0.26)">
       <use xlink:href="#ArialMT-50"/>
       <use x="55.615234" xlink:href="#ArialMT-48"/>
      </g>
     </g>
    </g>
    <g id="ytick_3">
     <g id="line2d_13">
      <path clip-path="url(#p1bc953020f)" d="M 180 40.794148 
L 1008 40.794148 
" style="fill:none;stroke:#b0b0b0;stroke-linecap:square;stroke-width:0.8;"/>
     </g>
     <g id="line2d_14">
      <g>
       <use style="stroke:#000000;stroke-width:0.8;" x="180" xlink:href="#mce0663261d" y="40.794148"/>
      </g>
     </g>
     <g id="text_8">
      <!-- 30 -->
      <g transform="translate(144.083125 50.099304)scale(0.26 -0.26)">
       <use xlink:href="#ArialMT-51"/>
       <use x="55.615234" xlink:href="#ArialMT-48"/>
      </g>
     </g>
    </g>
    <g id="text_9">
     <!-- natural frequency (a.u.) -->
     <defs>
      <path d="M 6.59375 0 
L 6.59375 51.859375 
L 14.5 51.859375 
L 14.5 44.484375 
Q 20.21875 53.03125 31 53.03125 
Q 35.6875 53.03125 39.625 51.34375 
Q 43.5625 49.65625 45.515625 46.921875 
Q 47.46875 44.1875 48.25 40.4375 
Q 48.734375 37.984375 48.734375 31.890625 
L 48.734375 0 
L 39.9375 0 
L 39.9375 31.546875 
Q 39.9375 36.921875 38.90625 39.578125 
Q 37.890625 42.234375 35.28125 43.8125 
Q 32.671875 45.40625 29.15625 45.40625 
Q 23.53125 45.40625 19.453125 41.84375 
Q 15.375 38.28125 15.375 28.328125 
L 15.375 0 
z
" id="ArialMT-110"/>
      <path d="M 25.78125 7.859375 
L 27.046875 0.09375 
Q 23.34375 -0.6875 20.40625 -0.6875 
Q 15.625 -0.6875 12.984375 0.828125 
Q 10.359375 2.34375 9.28125 4.8125 
Q 8.203125 7.28125 8.203125 15.1875 
L 8.203125 45.015625 
L 1.765625 45.015625 
L 1.765625 51.859375 
L 8.203125 51.859375 
L 8.203125 64.703125 
L 16.9375 69.96875 
L 16.9375 51.859375 
L 25.78125 51.859375 
L 25.78125 45.015625 
L 16.9375 45.015625 
L 16.9375 14.703125 
Q 16.9375 10.9375 17.40625 9.859375 
Q 17.875 8.796875 18.921875 8.15625 
Q 19.96875 7.515625 21.921875 7.515625 
Q 23.390625 7.515625 25.78125 7.859375 
z
" id="ArialMT-116"/>
      <path d="M 40.578125 0 
L 40.578125 7.625 
Q 34.515625 -1.171875 24.125 -1.171875 
Q 19.53125 -1.171875 15.546875 0.578125 
Q 11.578125 2.34375 9.640625 5 
Q 7.71875 7.671875 6.9375 11.53125 
Q 6.390625 14.109375 6.390625 19.734375 
L 6.390625 51.859375 
L 15.1875 51.859375 
L 15.1875 23.09375 
Q 15.1875 16.21875 15.71875 13.8125 
Q 16.546875 10.359375 19.234375 8.375 
Q 21.921875 6.390625 25.875 6.390625 
Q 29.828125 6.390625 33.296875 8.421875 
Q 36.765625 10.453125 38.203125 13.9375 
Q 39.65625 17.4375 39.65625 24.078125 
L 39.65625 51.859375 
L 48.4375 51.859375 
L 48.4375 0 
z
" id="ArialMT-117"/>
      <path d="M 6.5 0 
L 6.5 51.859375 
L 14.40625 51.859375 
L 14.40625 44 
Q 17.4375 49.515625 20 51.265625 
Q 22.5625 53.03125 25.640625 53.03125 
Q 30.078125 53.03125 34.671875 50.203125 
L 31.640625 42.046875 
Q 28.421875 43.953125 25.203125 43.953125 
Q 22.3125 43.953125 20.015625 42.21875 
Q 17.71875 40.484375 16.75 37.40625 
Q 15.28125 32.71875 15.28125 27.15625 
L 15.28125 0 
z
" id="ArialMT-114"/>
      <path d="M 8.6875 0 
L 8.6875 45.015625 
L 0.921875 45.015625 
L 0.921875 51.859375 
L 8.6875 51.859375 
L 8.6875 57.375 
Q 8.6875 62.59375 9.625 65.140625 
Q 10.890625 68.5625 14.078125 70.671875 
Q 17.28125 72.796875 23.046875 72.796875 
Q 26.765625 72.796875 31.25 71.921875 
L 29.9375 64.265625 
Q 27.203125 64.75 24.75 64.75 
Q 20.75 64.75 19.09375 63.03125 
Q 17.4375 61.328125 17.4375 56.640625 
L 17.4375 51.859375 
L 27.546875 51.859375 
L 27.546875 45.015625 
L 17.4375 45.015625 
L 17.4375 0 
z
" id="ArialMT-102"/>
      <path d="M 39.65625 -19.875 
L 39.65625 5.515625 
Q 37.59375 2.640625 33.90625 0.734375 
Q 30.21875 -1.171875 26.078125 -1.171875 
Q 16.84375 -1.171875 10.171875 6.203125 
Q 3.515625 13.578125 3.515625 26.421875 
Q 3.515625 34.234375 6.21875 40.421875 
Q 8.9375 46.625 14.078125 49.828125 
Q 19.234375 53.03125 25.390625 53.03125 
Q 35.015625 53.03125 40.53125 44.921875 
L 40.53125 51.859375 
L 48.4375 51.859375 
L 48.4375 -19.875 
z
M 12.546875 26.078125 
Q 12.546875 16.0625 16.75 11.0625 
Q 20.953125 6.0625 26.8125 6.0625 
Q 32.421875 6.0625 36.46875 10.8125 
Q 40.53125 15.578125 40.53125 25.296875 
Q 40.53125 35.640625 36.25 40.859375 
Q 31.984375 46.09375 26.21875 46.09375 
Q 20.515625 46.09375 16.53125 41.234375 
Q 12.546875 36.375 12.546875 26.078125 
z
" id="ArialMT-113"/>
      <path d="M 40.4375 19 
L 49.078125 17.875 
Q 47.65625 8.9375 41.8125 3.875 
Q 35.984375 -1.171875 27.484375 -1.171875 
Q 16.84375 -1.171875 10.375 5.78125 
Q 3.90625 12.75 3.90625 25.734375 
Q 3.90625 34.125 6.6875 40.421875 
Q 9.46875 46.734375 15.15625 49.875 
Q 20.84375 53.03125 27.546875 53.03125 
Q 35.984375 53.03125 41.359375 48.75 
Q 46.734375 44.484375 48.25 36.625 
L 39.703125 35.296875 
Q 38.484375 40.53125 35.375 43.15625 
Q 32.28125 45.796875 27.875 45.796875 
Q 21.234375 45.796875 17.078125 41.03125 
Q 12.9375 36.28125 12.9375 25.984375 
Q 12.9375 15.53125 16.9375 10.796875 
Q 20.953125 6.0625 27.390625 6.0625 
Q 32.5625 6.0625 36.03125 9.234375 
Q 39.5 12.40625 40.4375 19 
z
" id="ArialMT-99"/>
      <path d="M 6.203125 -19.96875 
L 5.21875 -11.71875 
Q 8.109375 -12.5 10.25 -12.5 
Q 13.1875 -12.5 14.9375 -11.515625 
Q 16.703125 -10.546875 17.828125 -8.796875 
Q 18.65625 -7.46875 20.515625 -2.25 
Q 20.75 -1.515625 21.296875 -0.09375 
L 1.609375 51.859375 
L 11.078125 51.859375 
L 21.875 21.828125 
Q 23.96875 16.109375 25.640625 9.8125 
Q 27.15625 15.875 29.25 21.625 
L 40.328125 51.859375 
L 49.125 51.859375 
L 29.390625 -0.875 
Q 26.21875 -9.421875 24.46875 -12.640625 
Q 22.125 -17 19.09375 -19.015625 
Q 16.0625 -21.046875 11.859375 -21.046875 
Q 9.328125 -21.046875 6.203125 -19.96875 
z
" id="ArialMT-121"/>
      <path d="M 23.390625 -21.046875 
Q 16.109375 -11.859375 11.078125 0.4375 
Q 6.0625 12.75 6.0625 25.921875 
Q 6.0625 37.546875 9.8125 48.1875 
Q 14.203125 60.546875 23.390625 72.796875 
L 29.6875 72.796875 
Q 23.78125 62.640625 21.875 58.296875 
Q 18.890625 51.5625 17.1875 44.234375 
Q 15.09375 35.109375 15.09375 25.875 
Q 15.09375 2.390625 29.6875 -21.046875 
z
" id="ArialMT-40"/>
      <path d="M 9.078125 0 
L 9.078125 10.015625 
L 19.09375 10.015625 
L 19.09375 0 
z
" id="ArialMT-46"/>
      <path d="M 12.359375 -21.046875 
L 6.0625 -21.046875 
Q 20.65625 2.390625 20.65625 25.875 
Q 20.65625 35.0625 18.5625 44.09375 
Q 16.890625 51.421875 13.921875 58.15625 
Q 12.015625 62.546875 6.0625 72.796875 
L 12.359375 72.796875 
Q 21.53125 60.546875 25.921875 48.1875 
Q 29.6875 37.546875 29.6875 25.921875 
Q 29.6875 12.75 24.625 0.4375 
Q 19.578125 -11.859375 12.359375 -21.046875 
z
" id="ArialMT-41"/>
     </defs>
     <g transform="translate(136.294687 236.321719)rotate(-90)scale(0.18 -0.18)">
      <use xlink:href="#ArialMT-110"/>
      <use x="55.615234" xlink:href="#ArialMT-97"/>
      <use x="111.230469" xlink:href="#ArialMT-116"/>
      <use x="139.013672" xlink:href="#ArialMT-117"/>
      <use x="194.628906" xlink:href="#ArialMT-114"/>
      <use x="227.929688" xlink:href="#ArialMT-97"/>
      <use x="283.544922" xlink:href="#ArialMT-108"/>
      <use x="305.761719" xlink:href="#ArialMT-32"/>
      <use x="333.544922" xlink:href="#ArialMT-102"/>
      <use x="361.328125" xlink:href="#ArialMT-114"/>
      <use x="394.628906" xlink:href="#ArialMT-101"/>
      <use x="450.244141" xlink:href="#ArialMT-113"/>
      <use x="505.859375" xlink:href="#ArialMT-117"/>
      <use x="561.474609" xlink:href="#ArialMT-101"/>
      <use x="617.089844" xlink:href="#ArialMT-110"/>
      <use x="672.705078" xlink:href="#ArialMT-99"/>
      <use x="722.705078" xlink:href="#ArialMT-121"/>
      <use x="772.705078" xlink:href="#ArialMT-32"/>
      <use x="800.488281" xlink:href="#ArialMT-40"/>
      <use x="833.789062" xlink:href="#ArialMT-97"/>
      <use x="889.404297" xlink:href="#ArialMT-46"/>
      <use x="917.1875" xlink:href="#ArialMT-117"/>
      <use x="972.802734" xlink:href="#ArialMT-46"/>
      <use x="1000.585938" xlink:href="#ArialMT-41"/>
     </g>
    </g>
   </g>
   <g id="line2d_15">
    <path clip-path="url(#p1bc953020f)" d="M 217.636364 242.116364 
L 217.950131 216.813495 
L 218.263898 210.50267 
L 218.577665 208.97715 
L 218.891432 208.705976 
L 219.362083 208.775981 
L 219.518966 208.687649 
L 219.832733 208.834603 
L 219.989617 208.669761 
L 220.1465 208.343157 
L 220.303384 208.535441 
L 220.460268 208.057349 
L 220.617151 207.973665 
L 220.774035 207.143069 
L 220.930918 206.950104 
L 221.087802 205.381394 
L 221.244685 205.301489 
L 221.401569 204.241816 
L 221.558452 202.114566 
L 222.813521 171.007199 
L 223.284171 165.920779 
L 223.441055 165.393313 
L 223.754822 162.672953 
L 223.911706 162.36822 
L 224.068589 162.650921 
L 224.225473 162.432284 
L 224.382356 161.915503 
L 224.696123 162.684939 
L 224.853007 162.457845 
L 225.166774 162.526963 
L 225.637425 162.617445 
L 225.794308 162.662838 
L 226.264959 162.237516 
L 226.421842 161.958035 
L 226.578726 160.06907 
L 226.73561 159.565601 
L 226.892493 157.828911 
L 227.049377 157.363334 
L 227.363144 154.62454 
L 228.147561 135.67992 
L 228.618212 124.689727 
L 228.775096 123.599006 
L 229.088863 114.774719 
L 229.40263 111.093989 
L 229.716397 108.183488 
L 229.873281 107.561723 
L 230.343931 107.509216 
L 230.500815 107.443124 
L 230.657698 106.875623 
L 230.814582 106.892828 
L 231.285232 105.851397 
L 231.755883 100.48026 
L 231.912767 100.72748 
L 232.383417 99.385044 
L 232.697184 97.684095 
L 233.010952 93.574206 
L 233.795369 90.448269 
L 233.952253 91.603208 
L 234.109136 90.508483 
L 234.422903 90.427225 
L 234.579787 88.809321 
L 234.736671 88.594296 
L 235.207321 86.266985 
L 235.364205 86.262189 
L 235.677972 85.503433 
L 235.834855 86.172803 
L 235.991739 85.501741 
L 236.148623 85.91292 
L 236.305506 85.441407 
L 236.619273 85.624576 
L 236.776157 85.557747 
L 237.089924 84.719342 
L 237.246807 84.894674 
L 237.403691 84.677847 
L 237.560574 84.818818 
L 237.717458 84.733208 
L 237.874342 84.464789 
L 238.031225 84.868088 
L 238.344992 84.807333 
L 238.815643 84.809929 
L 239.12941 85.221744 
L 239.443177 84.914501 
L 239.756944 84.721373 
L 240.227595 84.078372 
L 240.541362 83.965956 
L 240.855129 83.492203 
L 241.168896 83.625717 
L 241.32578 83.471155 
L 241.79643 83.4739 
L 242.110197 83.355936 
L 242.267081 83.54886 
L 242.580848 83.547632 
L 243.208382 83.560972 
L 243.365266 83.36371 
L 243.9928 83.592939 
L 244.463451 83.693729 
L 244.777218 83.641205 
L 244.934101 83.752082 
L 245.090985 83.621734 
L 247.130471 83.82355 
L 247.601122 83.673706 
L 247.758005 83.703305 
L 248.071772 83.598267 
L 248.385539 83.609279 
L 249.326841 83.667487 
L 251.680094 83.641802 
L 252.150745 83.545836 
L 253.876464 83.468491 
L 254.974649 83.537073 
L 255.288416 83.489611 
L 255.759066 83.544233 
L 256.072833 83.474305 
L 265.172079 83.680668 
L 265.956497 83.659032 
L 267.211565 83.588707 
L 272.388723 83.516556 
L 273.957558 83.501205 
L 276.467695 83.473637 
L 278.350297 83.482951 
L 280.546667 83.482674 
L 281.801736 83.473503 
L 284.311872 83.427647 
L 286.351359 83.386799 
L 287.76331 83.366428 
L 289.175262 83.353215 
L 300.157111 83.293607 
L 301.569063 83.285873 
L 303.137898 83.291126 
L 317.257418 83.33472 
L 320.708856 83.314197 
L 348.634128 83.27895 
L 356.321422 83.264735 
L 389.110084 83.270008 
L 392.404638 83.282419 
L 401.817651 83.24808 
L 424.408882 83.230461 
L 443.234908 83.249915 
L 450.608435 83.245752 
L 453.746106 83.240188 
L 469.120694 83.324675 
L 470.061996 83.62166 
L 471.630831 84.410132 
L 473.042783 85.017548 
L 474.297851 85.420626 
L 475.866687 85.55145 
L 486.064118 85.439836 
L 487.94672 85.635088 
L 490.613741 86.214772 
L 493.594528 87.42899 
L 497.359733 89.863085 
L 498.301035 90.524274 
L 500.497404 92.043976 
L 502.06624 93.029267 
L 503.478192 93.520819 
L 504.105726 93.769065 
L 506.145212 94.230227 
L 506.92963 94.246075 
L 509.282883 93.950818 
L 511.636136 93.089942 
L 512.577438 92.668238 
L 513.204972 92.406304 
L 517.754595 90.357032 
L 519.166547 90.165334 
L 520.735382 90.144825 
L 522.774868 90.06898 
L 525.128122 89.605412 
L 528.57956 88.243727 
L 530.148395 87.339476 
L 532.972299 85.65046 
L 533.9136 85.088624 
L 534.698018 84.553982 
L 540.345826 81.049303 
L 542.855963 79.799887 
L 544.738565 79.177395 
L 547.562469 78.500412 
L 549.915722 78.218622 
L 557.7599 77.841649 
L 562.62329 77.103097 
L 565.917845 76.932881 
L 570.310584 77.098094 
L 576.272159 77.292748 
L 585.685172 77.345788 
L 648.124825 77.267722 
L 676.363864 77.080201 
L 681.07037 77.074758 
L 698.170677 77.207303 
L 788.378718 77.100219 
L 790.418205 77.087514 
L 791.516389 77.06912 
L 792.928341 77.0797 
L 801.556937 77.170037 
L 888.31354 77.166541 
L 892.235628 77.157661 
L 898.354087 77.135538 
L 902.589943 77.138353 
L 905.256963 77.162507 
L 910.747887 77.200388 
L 958.59737 77.202009 
L 970.363636 77.209212 
L 970.363636 77.209212 
" style="fill:none;stroke:#1f77b4;stroke-linecap:square;stroke-width:1.5;"/>
   </g>
   <g id="line2d_16">
    <path clip-path="url(#p1bc953020f)" d="M 217.636364 241.366164 
L 217.950131 215.559561 
L 218.263898 209.149013 
L 218.577665 207.572093 
L 218.891432 207.150009 
L 219.362083 206.986854 
L 219.67585 206.947672 
L 219.832733 207.029145 
L 219.989617 206.962387 
L 220.1465 206.746867 
L 220.460268 207.027462 
L 220.774035 206.567165 
L 221.087802 206.371148 
L 221.401569 204.893477 
L 221.872219 201.563906 
L 222.029103 199.558991 
L 222.34287 193.537019 
L 222.499754 191.746535 
L 222.813521 183.453985 
L 223.441055 167.620699 
L 223.911706 161.17684 
L 224.225473 156.379519 
L 224.382356 155.107255 
L 224.53924 155.904724 
L 225.00989 153.818491 
L 225.166774 153.499986 
L 225.480541 153.653759 
L 225.637425 153.615574 
L 225.794308 153.397466 
L 226.108075 151.457104 
L 226.73561 144.578726 
L 226.892493 144.211295 
L 227.20626 139.36582 
L 227.676911 123.976717 
L 227.833794 123.716454 
L 228.461329 119.291026 
L 228.775096 116.288596 
L 228.931979 113.62743 
L 229.088863 113.540002 
L 229.245746 112.996386 
L 229.40263 112.031796 
L 229.559513 112.355466 
L 230.030164 112.159095 
L 230.343931 112.175357 
L 230.657698 111.73408 
L 230.971465 110.068336 
L 231.285232 107.926734 
L 231.442116 106.951184 
L 231.599 104.821454 
L 231.755883 104.710586 
L 232.226534 96.914272 
L 232.383417 96.313619 
L 232.540301 94.373132 
L 233.010952 83.61709 
L 233.167835 83.427691 
L 233.324719 82.245806 
L 233.481602 82.037031 
L 233.795369 80.771958 
L 233.952253 80.917215 
L 234.109136 80.830096 
L 234.26602 80.501057 
L 234.893554 80.564801 
L 235.677972 80.586284 
L 235.991739 80.259523 
L 236.148623 80.207902 
L 236.305506 80.412124 
L 236.776157 79.990847 
L 236.93304 79.967915 
L 237.089924 80.149688 
L 237.246807 80.132366 
L 237.403691 80.277693 
L 237.560574 80.168813 
L 237.874342 80.224856 
L 238.031225 80.471707 
L 238.344992 80.332002 
L 238.815643 80.09222 
L 239.756944 80.195532 
L 240.541362 80.177526 
L 244.149684 80.160827 
L 248.542423 80.021225 
L 248.85619 79.884874 
L 249.169957 79.910702 
L 249.640608 80.043282 
L 249.797491 79.948745 
L 250.111258 80.084013 
L 250.268142 79.979656 
L 250.581909 80.189853 
L 250.738793 80.357014 
L 250.895676 80.269673 
L 251.366327 80.383014 
L 251.993861 80.434555 
L 252.935162 80.521766 
L 253.092046 80.643482 
L 253.248929 80.481469 
L 253.71958 80.667493 
L 254.190231 80.263268 
L 254.503998 80.483431 
L 254.660881 80.463996 
L 254.817765 80.637338 
L 255.131532 80.670239 
L 255.288416 80.794844 
L 255.445299 80.564383 
L 255.759066 80.663367 
L 256.072833 80.53159 
L 256.229717 80.877985 
L 256.543484 80.732272 
L 256.857251 81.170253 
L 257.171018 81.112334 
L 257.327902 80.915909 
L 257.484785 80.909004 
L 257.641669 80.651664 
L 257.798552 80.752554 
L 258.11232 80.139188 
L 258.58297 79.888883 
L 258.896737 79.104615 
L 259.053621 79.640872 
L 259.210504 79.399017 
L 259.367388 78.925053 
L 259.524271 79.123365 
L 259.681155 78.844421 
L 259.994922 79.00846 
L 260.77934 78.599637 
L 260.936223 78.864917 
L 261.093107 78.688241 
L 261.249991 79.056848 
L 261.406874 78.772081 
L 261.563758 78.794219 
L 261.720641 78.969314 
L 261.877525 78.871447 
L 262.034408 78.992886 
L 262.348175 78.748201 
L 262.661942 79.004092 
L 262.97571 78.871369 
L 263.44636 78.970063 
L 263.603244 78.835225 
L 263.917011 79.148975 
L 264.073894 78.783199 
L 264.230778 78.910086 
L 264.544545 78.854536 
L 264.701429 78.633426 
L 264.858312 78.785281 
L 265.015196 78.587225 
L 265.172079 78.628453 
L 265.485846 78.455583 
L 265.799613 78.707887 
L 265.956497 78.631804 
L 266.427148 78.828447 
L 266.897798 78.417445 
L 267.211565 78.608895 
L 267.368449 78.558458 
L 267.682216 78.72767 
L 267.995983 78.505738 
L 268.152867 78.285146 
L 268.466634 78.155607 
L 268.623517 78.021111 
L 268.937284 78.16479 
L 270.035469 77.969181 
L 270.192353 78.163222 
L 270.349236 78.125584 
L 270.50612 77.881436 
L 270.976771 78.130361 
L 271.133654 78.224156 
L 271.290538 78.100603 
L 272.231839 78.140951 
L 272.859373 78.121108 
L 273.016257 78.014936 
L 273.486907 78.228502 
L 273.800675 78.668213 
L 274.114442 78.570688 
L 274.585092 78.723935 
L 274.741976 78.582893 
L 274.898859 78.710442 
L 275.212626 78.496237 
L 275.526394 78.57933 
L 275.840161 78.50922 
L 275.997044 78.642486 
L 277.56588 78.313631 
L 277.722763 78.501328 
L 278.507181 78.470627 
L 278.664065 78.578639 
L 278.977832 78.518907 
L 279.919133 78.230563 
L 280.2329 78.265436 
L 280.860434 78.070804 
L 281.174201 78.136736 
L 281.331085 77.98335 
L 281.487968 78.077163 
L 282.115503 77.784573 
L 282.42927 77.855455 
L 282.743037 77.986955 
L 283.056804 78.064633 
L 283.684338 78.038446 
L 284.154989 78.092666 
L 284.311872 78.105065 
L 284.625639 78.254766 
L 284.782523 78.201666 
L 285.09629 78.270594 
L 285.880708 78.110977 
L 286.037591 77.88121 
L 286.508242 77.806654 
L 286.822009 77.924337 
L 287.449543 77.863571 
L 288.547728 77.98653 
L 289.018379 77.97523 
L 289.332146 77.983821 
L 289.802797 78.072683 
L 291.528516 78.165808 
L 291.685399 78.264285 
L 291.999166 78.053193 
L 292.312933 78.102802 
L 293.097351 77.924701 
L 293.568002 77.856321 
L 295.450604 77.980628 
L 295.921255 77.976694 
L 296.548789 78.141724 
L 296.705673 78.295641 
L 297.176323 77.909136 
L 297.803858 77.722935 
L 298.745159 77.762478 
L 300.313994 77.481346 
L 300.470878 77.565476 
L 301.725946 77.310538 
L 302.510364 77.319984 
L 302.667248 77.283266 
L 302.981015 77.418831 
L 304.863617 77.570234 
L 305.491152 77.692681 
L 305.804919 77.546498 
L 305.961802 77.652619 
L 306.118686 77.547417 
L 306.589336 77.686086 
L 307.059987 77.681262 
L 309.256357 77.878295 
L 309.570124 77.994912 
L 309.883891 78.072095 
L 310.197658 78.006974 
L 310.668309 78.031443 
L 310.982076 78.020083 
L 311.452727 78.045872 
L 312.237144 77.771906 
L 313.021562 77.93883 
L 313.335329 77.858791 
L 313.649096 77.835985 
L 313.962863 77.744174 
L 315.374815 77.895639 
L 315.531699 77.72599 
L 315.688582 77.759 
L 316.002349 77.642099 
L 316.629884 77.793199 
L 317.257418 77.793319 
L 318.355603 77.905859 
L 318.66937 77.976011 
L 319.296904 77.947921 
L 319.610671 78.1527 
L 320.238205 78.097235 
L 321.022623 78.34224 
L 321.493274 78.524086 
L 323.218993 78.335879 
L 324.160294 78.337691 
L 325.886013 78.290061 
L 328.39615 78.212728 
L 329.180568 78.107151 
L 329.651218 78.043018 
L 331.376937 78.075019 
L 331.690704 78.12722 
L 333.573307 78.139128 
L 334.671492 78.135196 
L 335.45591 78.102111 
L 344.241388 78.112831 
L 345.339573 78.115765 
L 346.437758 78.14592 
L 347.065292 78.078152 
L 351.144265 78.103964 
L 351.614915 78.082041 
L 356.478305 78.068322 
L 360.871045 78.055197 
L 361.812346 78.126683 
L 364.950017 77.903385 
L 366.518853 77.845517 
L 366.83262 77.777995 
L 367.146387 77.795215 
L 367.773921 77.886693 
L 368.087688 77.943802 
L 368.401455 77.857494 
L 369.342756 77.93979 
L 370.911592 77.836425 
L 371.69601 77.851662 
L 372.009777 77.805433 
L 372.480427 77.871959 
L 372.794195 77.888552 
L 373.264845 77.941676 
L 375.147448 77.771152 
L 377.343817 77.859735 
L 377.657585 77.81095 
L 377.971352 77.834207 
L 380.010838 77.672191 
L 383.305392 77.692215 
L 383.776043 77.826427 
L 384.08981 77.750359 
L 384.560461 77.724405 
L 385.344879 77.650186 
L 390.051385 77.64072 
L 395.856076 77.420974 
L 396.169843 77.413785 
L 396.797378 77.546584 
L 397.424912 77.48304 
L 401.974535 77.418376 
L 403.07272 77.49397 
L 403.386487 77.482694 
L 404.170905 77.491311 
L 409.034295 77.474273 
L 409.348062 77.510066 
L 410.289363 77.493486 
L 416.407821 77.696129 
L 419.702376 77.557656 
L 420.173027 77.55314 
L 422.683163 77.457874 
L 424.72265 77.369664 
L 426.605252 77.406732 
L 427.546553 77.354566 
L 437.743984 77.347096 
L 439.31282 77.29513 
L 440.254121 77.269356 
L 440.724772 77.281831 
L 442.764258 77.209063 
L 443.548676 77.30361 
L 444.803744 77.137824 
L 446.84323 77.099493 
L 447.784531 77.037917 
L 448.568949 77.006894 
L 449.353367 76.952213 
L 449.824018 76.947135 
L 450.137785 76.873681 
L 450.922202 76.87993 
L 455.001175 76.897589 
L 455.942476 76.933158 
L 456.57001 76.919199 
L 457.354428 77.010253 
L 460.805866 76.945931 
L 461.590284 76.96704 
L 462.217818 76.958011 
L 468.336276 76.952756 
L 468.49316 77.178933 
L 468.806927 79.761259 
L 469.434461 92.527741 
L 470.061996 104.887437 
L 470.68953 113.110217 
L 470.846413 114.116261 
L 471.16018 114.749617 
L 471.317064 115.344585 
L 471.473947 115.073924 
L 471.787715 115.179191 
L 472.101482 113.841333 
L 472.258365 113.499071 
L 475.239153 100.233013 
L 476.180454 97.449775 
L 476.651105 96.282192 
L 477.121755 95.289081 
L 477.435522 94.472546 
L 477.592406 94.303587 
L 478.376824 92.702372 
L 478.690591 92.389856 
L 480.41631 89.877128 
L 481.985145 88.042293 
L 483.397097 86.646402 
L 484.024631 86.096224 
L 487.789837 82.886948 
L 488.731138 82.218967 
L 489.358672 81.779799 
L 489.986206 81.383148 
L 492.81011 79.578162 
L 493.437644 79.253731 
L 494.378946 78.633502 
L 495.163364 78.160931 
L 495.634014 77.878962 
L 497.830384 76.849539 
L 498.771685 76.552644 
L 499.712986 76.354443 
L 500.497404 76.178069 
L 503.948842 76.217518 
L 504.576377 76.30611 
L 505.203911 76.443988 
L 506.302096 76.785546 
L 509.282883 77.921522 
L 511.008602 78.78413 
L 513.98939 80.396955 
L 516.813293 81.899873 
L 517.911478 82.186322 
L 518.85278 82.165271 
L 519.637197 81.946178 
L 520.735382 81.393006 
L 525.285005 78.839992 
L 526.696957 78.370952 
L 528.57956 77.957653 
L 531.560347 77.644614 
L 535.796203 77.62408 
L 539.875175 77.689493 
L 542.855963 77.4536 
L 545.522983 76.610926 
L 547.091819 75.749357 
L 548.346887 74.867524 
L 554.151578 69.857764 
L 557.132366 67.972352 
L 558.230551 67.476011 
L 559.328735 67.08376 
L 562.152639 66.520083 
L 578.782296 64.973891 
L 584.116336 64.858909 
L 595.882603 64.89422 
L 621.925272 64.883627 
L 626.788662 64.667009 
L 630.553867 64.523827 
L 634.319072 64.614566 
L 640.908181 64.798807 
L 648.438592 64.778923 
L 656.910304 64.866189 
L 665.538899 65.013427 
L 675.579446 64.894247 
L 680.913487 64.791423 
L 697.700027 64.374496 
L 750.569783 64.360077 
L 758.884611 64.43135 
L 781.318959 64.580507 
L 783.044678 64.622829 
L 785.241047 64.606622 
L 786.966766 64.569432 
L 790.575088 64.497899 
L 794.340293 64.371176 
L 796.693547 64.296757 
L 802.027587 64.202051 
L 812.695669 64.162539 
L 878.272993 64.187951 
L 890.98056 64.309371 
L 901.177991 64.194779 
L 903.374361 64.141285 
L 942.595248 64.051046 
L 970.363636 63.990108 
L 970.363636 63.990108 
" style="fill:none;stroke:#ff7f0e;stroke-linecap:square;stroke-width:1.5;"/>
   </g>
   <g id="line2d_17">
    <path clip-path="url(#p1bc953020f)" d="M 217.636364 239.804997 
L 217.950131 212.563467 
L 218.263898 205.657085 
L 218.577665 203.862195 
L 218.891432 203.270305 
L 219.205199 203.093604 
L 219.832733 202.423556 
L 219.989617 202.571537 
L 220.1465 201.98658 
L 220.303384 201.856132 
L 220.774035 198.675078 
L 221.558452 185.235833 
L 222.34287 147.433782 
L 223.284171 115.90655 
L 223.597939 108.663165 
L 224.225473 101.179398 
L 224.53924 100.823133 
L 224.696123 99.496639 
L 224.853007 97.123578 
L 225.00989 96.565564 
L 225.166774 96.431236 
L 225.794308 93.222283 
L 226.108075 89.238635 
L 226.578726 82.134659 
L 226.73561 81.210119 
L 227.20626 72.779842 
L 227.363144 71.906732 
L 228.461329 56.079037 
L 228.618212 55.445392 
L 229.245746 50.291946 
L 229.40263 49.86553 
L 229.559513 49.024765 
L 229.716397 49.171754 
L 229.873281 48.986221 
L 230.187048 49.165395 
L 230.500815 48.440642 
L 230.971465 48.467562 
L 231.285232 48.151435 
L 231.599 48.425443 
L 232.06965 48.433178 
L 232.540301 48.420125 
L 233.167835 48.395822 
L 233.952253 48.381895 
L 468.806927 48.318783 
L 469.434461 47.999442 
L 470.218879 47.332869 
L 472.572132 45.161994 
L 473.35655 44.736567 
L 474.297851 44.488643 
L 475.239153 44.455085 
L 476.964872 44.630813 
L 479.161241 45.041808 
L 493.437644 48.381299 
L 498.614802 49.488891 
L 503.007541 50.416537 
L 508.812232 51.402716 
L 512.106787 51.709319 
L 513.98939 51.724709 
L 516.028876 51.55428 
L 518.225245 51.173778 
L 520.421615 50.689428 
L 523.402403 50.131991 
L 526.696957 49.748328 
L 540.816477 49.034294 
L 551.955209 48.730732 
L 554.935996 48.990603 
L 557.446133 49.401093 
L 561.838872 50.235369 
L 563.564591 50.276685 
L 565.760961 50.06807 
L 568.898632 49.799012 
L 572.35007 49.765137 
L 588.822843 49.867274 
L 609.374588 49.850982 
L 617.218765 50.051181 
L 628.514381 50.385756 
L 633.377771 50.087767 
L 638.398045 49.893933 
L 646.555989 49.819498 
L 673.226193 49.889934 
L 677.148281 49.952432 
L 688.914548 49.826952 
L 710.093827 49.80474 
L 729.547387 49.874857 
L 740.058585 50.122274 
L 745.549509 49.949 
L 784.142863 49.713058 
L 787.751184 49.787509 
L 791.830157 49.77859 
L 803.596423 49.694815 
L 845.641214 49.803811 
L 847.994467 49.827589 
L 850.975255 49.775256 
L 856.779946 49.646559 
L 867.604911 49.606241 
L 888.941074 49.60084 
L 892.392512 49.595576 
L 909.022168 49.581253 
L 963.146993 49.662672 
L 966.912198 49.679255 
L 970.363636 49.695794 
L 970.363636 49.695794 
" style="fill:none;stroke:#2ca02c;stroke-linecap:square;stroke-width:1.5;"/>
   </g>
   <g id="patch_3">
    <path d="M 180 252 
L 180 34.56 
" style="fill:none;stroke:#000000;stroke-linecap:square;stroke-linejoin:miter;stroke-width:0.8;"/>
   </g>
   <g id="patch_4">
    <path d="M 1008 252 
L 1008 34.56 
" style="fill:none;stroke:#000000;stroke-linecap:square;stroke-linejoin:miter;stroke-width:0.8;"/>
   </g>
   <g id="patch_5">
    <path d="M 180 252 
L 1008 252 
" style="fill:none;stroke:#000000;stroke-linecap:square;stroke-linejoin:miter;stroke-width:0.8;"/>
   </g>
   <g id="patch_6">
    <path d="M 180 34.56 
L 1008 34.56 
" style="fill:none;stroke:#000000;stroke-linecap:square;stroke-linejoin:miter;stroke-width:0.8;"/>
   </g>
   <g id="legend_1">
    <g id="patch_7">
     <path d="M 1051.8 89.083125 
L 1126.899375 89.083125 
Q 1129.299375 89.083125 1129.299375 86.683125 
L 1129.299375 36.96 
Q 1129.299375 34.56 1126.899375 34.56 
L 1051.8 34.56 
Q 1049.4 34.56 1049.4 36.96 
L 1049.4 86.683125 
Q 1049.4 89.083125 1051.8 89.083125 
z
" style="fill:#ffffff;opacity:0.8;stroke:#cccccc;stroke-linejoin:miter;"/>
    </g>
    <g id="line2d_18">
     <path d="M 1054.2 43.749375 
L 1078.2 43.749375 
" style="fill:none;stroke:#1f77b4;stroke-linecap:square;stroke-width:1.5;"/>
    </g>
    <g id="line2d_19"/>
    <g id="text_10">
     <!-- node 1 -->
     <defs>
      <path d="M 3.328125 25.921875 
Q 3.328125 40.328125 11.328125 47.265625 
Q 18.015625 53.03125 27.640625 53.03125 
Q 38.328125 53.03125 45.109375 46.015625 
Q 51.90625 39.015625 51.90625 26.65625 
Q 51.90625 16.65625 48.90625 10.90625 
Q 45.90625 5.171875 40.15625 2 
Q 34.421875 -1.171875 27.640625 -1.171875 
Q 16.75 -1.171875 10.03125 5.8125 
Q 3.328125 12.796875 3.328125 25.921875 
z
M 12.359375 25.921875 
Q 12.359375 15.96875 16.703125 11.015625 
Q 21.046875 6.0625 27.640625 6.0625 
Q 34.1875 6.0625 38.53125 11.03125 
Q 42.875 16.015625 42.875 26.21875 
Q 42.875 35.84375 38.5 40.796875 
Q 34.125 45.75 27.640625 45.75 
Q 21.046875 45.75 16.703125 40.8125 
Q 12.359375 35.890625 12.359375 25.921875 
z
" id="ArialMT-111"/>
      <path d="M 40.234375 0 
L 40.234375 6.546875 
Q 35.296875 -1.171875 25.734375 -1.171875 
Q 19.53125 -1.171875 14.328125 2.25 
Q 9.125 5.671875 6.265625 11.796875 
Q 3.421875 17.921875 3.421875 25.875 
Q 3.421875 33.640625 6 39.96875 
Q 8.59375 46.296875 13.765625 49.65625 
Q 18.953125 53.03125 25.34375 53.03125 
Q 30.03125 53.03125 33.6875 51.046875 
Q 37.359375 49.078125 39.65625 45.90625 
L 39.65625 71.578125 
L 48.390625 71.578125 
L 48.390625 0 
z
M 12.453125 25.875 
Q 12.453125 15.921875 16.640625 10.984375 
Q 20.84375 6.0625 26.5625 6.0625 
Q 32.328125 6.0625 36.34375 10.765625 
Q 40.375 15.484375 40.375 25.140625 
Q 40.375 35.796875 36.265625 40.765625 
Q 32.171875 45.75 26.171875 45.75 
Q 20.3125 45.75 16.375 40.96875 
Q 12.453125 36.1875 12.453125 25.875 
z
" id="ArialMT-100"/>
     </defs>
     <g transform="translate(1087.8 47.949375)scale(0.12 -0.12)">
      <use xlink:href="#ArialMT-110"/>
      <use x="55.615234" xlink:href="#ArialMT-111"/>
      <use x="111.230469" xlink:href="#ArialMT-100"/>
      <use x="166.845703" xlink:href="#ArialMT-101"/>
      <use x="222.460938" xlink:href="#ArialMT-32"/>
      <use x="250.244141" xlink:href="#ArialMT-49"/>
     </g>
    </g>
    <g id="line2d_20">
     <path d="M 1054.2 60.72375 
L 1078.2 60.72375 
" style="fill:none;stroke:#ff7f0e;stroke-linecap:square;stroke-width:1.5;"/>
    </g>
    <g id="line2d_21"/>
    <g id="text_11">
     <!-- node 2 -->
     <g transform="translate(1087.8 64.92375)scale(0.12 -0.12)">
      <use xlink:href="#ArialMT-110"/>
      <use x="55.615234" xlink:href="#ArialMT-111"/>
      <use x="111.230469" xlink:href="#ArialMT-100"/>
      <use x="166.845703" xlink:href="#ArialMT-101"/>
      <use x="222.460938" xlink:href="#ArialMT-32"/>
      <use x="250.244141" xlink:href="#ArialMT-50"/>
     </g>
    </g>
    <g id="line2d_22">
     <path d="M 1054.2 77.698125 
L 1078.2 77.698125 
" style="fill:none;stroke:#2ca02c;stroke-linecap:square;stroke-width:1.5;"/>
    </g>
    <g id="line2d_23"/>
    <g id="text_12">
     <!-- node 3 -->
     <g transform="translate(1087.8 81.898125)scale(0.12 -0.12)">
      <use xlink:href="#ArialMT-110"/>
      <use x="55.615234" xlink:href="#ArialMT-111"/>
      <use x="111.230469" xlink:href="#ArialMT-100"/>
      <use x="166.845703" xlink:href="#ArialMT-101"/>
      <use x="222.460938" xlink:href="#ArialMT-32"/>
      <use x="250.244141" xlink:href="#ArialMT-51"/>
     </g>
    </g>
   </g>
  </g>
 </g>
 <defs>
  <clipPath id="p1bc953020f">
   <rect height="217.44" width="828" x="180" y="34.56"/>
  </clipPath>
 </defs>
</svg>
