<?xml version="1.0" encoding="utf-8" standalone="no"?>
<!DOCTYPE svg PUBLIC "-//W3C//DTD SVG 1.1//EN"
  "http://www.w3.org/Graphics/SVG/1.1/DTD/svg11.dtd">
<!-- Created with matplotlib (https://matplotlib.org/) -->
<svg height="307.407188pt" version="1.1" viewBox="0 0 1370.101 307.407188" width="1370.101pt" xmlns="http://www.w3.org/2000/svg" xmlns:xlink="http://www.w3.org/1999/xlink">
 <defs>
  <style type="text/css">
*{stroke-linecap:butt;stroke-linejoin:round;}
  </style>
 </defs>
 <g id="figure_1">
  <g id="patch_1">
   <path d="M 0 307.407188 
L 1370.101 307.407188 
L 1370.101 0 
L 0 0 
z
" style="fill:#ffffff;"/>
  </g>
  <g id="axes_1">
   <g id="patch_2">
    <path d="M 121.541 237.324063 
L 949.541 237.324063 
L 949.541 19.884063 
L 121.541 19.884063 
z
" style="fill:#ffffff;"/>
   </g>
   <g id="PathCollection_1">
    <defs>
     <path d="M 0 3 
C 0.795609 3 1.55874 2.683901 2.12132 2.12132 
C 2.683901 1.55874 3 0.795609 3 0 
C 3 -0.795609 2.683901 -1.55874 2.12132 -2.12132 
C 1.55874 -2.683901 0.795609 -3 0 -3 
C -0.795609 -3 -1.55874 -2.683901 -2.12132 -2.12132 
C -2.683901 -1.55874 -3 -0.795609 -3 0 
C -3 0.795609 -2.683901 1.55874 -2.12132 2.12132 
C -1.55874 2.683901 -0.795609 3 0 3 
z
" id="m979d84fab3" style="stroke:#ff0000;"/>
    </defs>
    <g clip-path="url(#p3b36899a95)">
     <use style="fill:#ff0000;stroke:#ff0000;" x="159.177364" xlink:href="#m979d84fab3" y="29.767699"/>
     <use style="fill:#ff0000;stroke:#ff0000;" x="160.934899" xlink:href="#m979d84fab3" y="207.574757"/>
     <use style="fill:#ff0000;stroke:#ff0000;" x="410.002762" xlink:href="#m979d84fab3" y="209.571409"/>
     <use style="fill:#ff0000;stroke:#ff0000;" x="410.253839" xlink:href="#m979d84fab3" y="209.023785"/>
    </g>
   </g>
   <g id="matplotlib.axis_1">
    <g id="xtick_1">
     <g id="line2d_1">
      <path clip-path="url(#p3b36899a95)" d="M 158.926287 237.324063 
L 158.926287 19.884063 
" style="fill:none;stroke:#b0b0b0;stroke-linecap:square;stroke-width:0.8;"/>
     </g>
     <g id="line2d_2">
      <defs>
       <path d="M 0 0 
L 0 3.5 
" id="mc786befa65" style="stroke:#000000;stroke-width:0.8;"/>
      </defs>
      <g>
       <use style="stroke:#000000;stroke-width:0.8;" x="158.926287" xlink:href="#mc786befa65" y="237.324063"/>
      </g>
     </g>
     <g id="text_1">
      <!-- 0 -->
      <defs>
       <path d="M 4.15625 35.296875 
Q 4.15625 48 6.765625 55.734375 
Q 9.375 63.484375 14.515625 67.671875 
Q 19.671875 71.875 27.484375 71.875 
Q 33.25 71.875 37.59375 69.546875 
Q 41.9375 67.234375 44.765625 62.859375 
Q 47.609375 58.5 49.21875 52.21875 
Q 50.828125 45.953125 50.828125 35.296875 
Q 50.828125 22.703125 48.234375 14.96875 
Q 45.65625 7.234375 40.5 3 
Q 35.359375 -1.21875 27.484375 -1.21875 
Q 17.140625 -1.21875 11.234375 6.203125 
Q 4.15625 15.140625 4.15625 35.296875 
z
M 13.1875 35.296875 
Q 13.1875 17.671875 17.3125 11.828125 
Q 21.4375 6 27.484375 6 
Q 33.546875 6 37.671875 11.859375 
Q 41.796875 17.71875 41.796875 35.296875 
Q 41.796875 52.984375 37.671875 58.78125 
Q 33.546875 64.59375 27.390625 64.59375 
Q 21.34375 64.59375 17.71875 59.46875 
Q 13.1875 52.9375 13.1875 35.296875 
z
" id="ArialMT-48"/>
      </defs>
      <g transform="translate(151.140975 264.365938)scale(0.28 -0.28)">
       <use xlink:href="#ArialMT-48"/>
      </g>
     </g>
    </g>
    <g id="xtick_2">
     <g id="line2d_3">
      <path clip-path="url(#p3b36899a95)" d="M 410.002762 237.324063 
L 410.002762 19.884063 
" style="fill:none;stroke:#b0b0b0;stroke-linecap:square;stroke-width:0.8;"/>
     </g>
     <g id="line2d_4">
      <g>
       <use style="stroke:#000000;stroke-width:0.8;" x="410.002762" xlink:href="#mc786befa65" y="237.324063"/>
      </g>
     </g>
     <g id="text_2">
      <!-- 10 -->
      <defs>
       <path d="M 37.25 0 
L 28.46875 0 
L 28.46875 56 
Q 25.296875 52.984375 20.140625 49.953125 
Q 14.984375 46.921875 10.890625 45.40625 
L 10.890625 53.90625 
Q 18.265625 57.375 23.78125 62.296875 
Q 29.296875 67.234375 31.59375 71.875 
L 37.25 71.875 
z
" id="ArialMT-49"/>
      </defs>
      <g transform="translate(394.432137 264.365938)scale(0.28 -0.28)">
       <use xlink:href="#ArialMT-49"/>
       <use x="55.615234" xlink:href="#ArialMT-48"/>
      </g>
     </g>
    </g>
    <g id="xtick_3">
     <g id="line2d_5">
      <path clip-path="url(#p3b36899a95)" d="M 661.079238 237.324063 
L 661.079238 19.884063 
" style="fill:none;stroke:#b0b0b0;stroke-linecap:square;stroke-width:0.8;"/>
     </g>
     <g id="line2d_6">
      <g>
       <use style="stroke:#000000;stroke-width:0.8;" x="661.079238" xlink:href="#mc786befa65" y="237.324063"/>
      </g>
     </g>
     <g id="text_3">
      <!-- 20 -->
      <defs>
       <path d="M 50.34375 8.453125 
L 50.34375 0 
L 3.03125 0 
Q 2.9375 3.171875 4.046875 6.109375 
Q 5.859375 10.9375 9.828125 15.625 
Q 13.8125 20.3125 21.34375 26.46875 
Q 33.015625 36.03125 37.109375 41.625 
Q 41.21875 47.21875 41.21875 52.203125 
Q 41.21875 57.421875 37.46875 61 
Q 33.734375 64.59375 27.734375 64.59375 
Q 21.390625 64.59375 17.578125 60.78125 
Q 13.765625 56.984375 13.71875 50.25 
L 4.6875 51.171875 
Q 5.609375 61.28125 11.65625 66.578125 
Q 17.71875 71.875 27.9375 71.875 
Q 38.234375 71.875 44.234375 66.15625 
Q 50.25 60.453125 50.25 52 
Q 50.25 47.703125 48.484375 43.546875 
Q 46.734375 39.40625 42.65625 34.8125 
Q 38.578125 30.21875 29.109375 22.21875 
Q 21.1875 15.578125 18.9375 13.203125 
Q 16.703125 10.84375 15.234375 8.453125 
z
" id="ArialMT-50"/>
      </defs>
      <g transform="translate(645.508613 264.365938)scale(0.28 -0.28)">
       <use xlink:href="#ArialMT-50"/>
       <use x="55.615234" xlink:href="#ArialMT-48"/>
      </g>
     </g>
    </g>
    <g id="xtick_4">
     <g id="line2d_7">
      <path clip-path="url(#p3b36899a95)" d="M 912.155713 237.324063 
L 912.155713 19.884063 
" style="fill:none;stroke:#b0b0b0;stroke-linecap:square;stroke-width:0.8;"/>
     </g>
     <g id="line2d_8">
      <g>
       <use style="stroke:#000000;stroke-width:0.8;" x="912.155713" xlink:href="#mc786befa65" y="237.324063"/>
      </g>
     </g>
     <g id="text_4">
      <!-- 30 -->
      <defs>
       <path d="M 4.203125 18.890625 
L 12.984375 20.0625 
Q 14.5 12.59375 18.140625 9.296875 
Q 21.78125 6 27 6 
Q 33.203125 6 37.46875 10.296875 
Q 41.75 14.59375 41.75 20.953125 
Q 41.75 27 37.796875 30.921875 
Q 33.84375 34.859375 27.734375 34.859375 
Q 25.25 34.859375 21.53125 33.890625 
L 22.515625 41.609375 
Q 23.390625 41.5 23.921875 41.5 
Q 29.546875 41.5 34.03125 44.421875 
Q 38.53125 47.359375 38.53125 53.46875 
Q 38.53125 58.296875 35.25 61.46875 
Q 31.984375 64.65625 26.8125 64.65625 
Q 21.6875 64.65625 18.265625 61.421875 
Q 14.84375 58.203125 13.875 51.765625 
L 5.078125 53.328125 
Q 6.6875 62.15625 12.390625 67.015625 
Q 18.109375 71.875 26.609375 71.875 
Q 32.46875 71.875 37.390625 69.359375 
Q 42.328125 66.84375 44.9375 62.5 
Q 47.5625 58.15625 47.5625 53.265625 
Q 47.5625 48.640625 45.0625 44.828125 
Q 42.578125 41.015625 37.703125 38.765625 
Q 44.046875 37.3125 47.5625 32.6875 
Q 51.078125 28.078125 51.078125 21.140625 
Q 51.078125 11.765625 44.234375 5.25 
Q 37.40625 -1.265625 26.953125 -1.265625 
Q 17.53125 -1.265625 11.296875 4.34375 
Q 5.078125 9.96875 4.203125 18.890625 
z
" id="ArialMT-51"/>
      </defs>
      <g transform="translate(896.585088 264.365938)scale(0.28 -0.28)">
       <use xlink:href="#ArialMT-51"/>
       <use x="55.615234" xlink:href="#ArialMT-48"/>
      </g>
     </g>
    </g>
    <g id="text_5">
     <!-- time (s) -->
     <defs>
      <path d="M 25.78125 7.859375 
L 27.046875 0.09375 
Q 23.34375 -0.6875 20.40625 -0.6875 
Q 15.625 -0.6875 12.984375 0.828125 
Q 10.359375 2.34375 9.28125 4.8125 
Q 8.203125 7.28125 8.203125 15.1875 
L 8.203125 45.015625 
L 1.765625 45.015625 
L 1.765625 51.859375 
L 8.203125 51.859375 
L 8.203125 64.703125 
L 16.9375 69.96875 
L 16.9375 51.859375 
L 25.78125 51.859375 
L 25.78125 45.015625 
L 16.9375 45.015625 
L 16.9375 14.703125 
Q 16.9375 10.9375 17.40625 9.859375 
Q 17.875 8.796875 18.921875 8.15625 
Q 19.96875 7.515625 21.921875 7.515625 
Q 23.390625 7.515625 25.78125 7.859375 
z
" id="ArialMT-116"/>
      <path d="M 6.640625 61.46875 
L 6.640625 71.578125 
L 15.4375 71.578125 
L 15.4375 61.46875 
z
M 6.640625 0 
L 6.640625 51.859375 
L 15.4375 51.859375 
L 15.4375 0 
z
" id="ArialMT-105"/>
      <path d="M 6.59375 0 
L 6.59375 51.859375 
L 14.453125 51.859375 
L 14.453125 44.578125 
Q 16.890625 48.390625 20.9375 50.703125 
Q 25 53.03125 30.171875 53.03125 
Q 35.9375 53.03125 39.625 50.640625 
Q 43.3125 48.25 44.828125 43.953125 
Q 50.984375 53.03125 60.84375 53.03125 
Q 68.5625 53.03125 72.703125 48.75 
Q 76.859375 44.484375 76.859375 35.59375 
L 76.859375 0 
L 68.109375 0 
L 68.109375 32.671875 
Q 68.109375 37.9375 67.25 40.25 
Q 66.40625 42.578125 64.15625 43.984375 
Q 61.921875 45.40625 58.890625 45.40625 
Q 53.421875 45.40625 49.796875 41.765625 
Q 46.1875 38.140625 46.1875 30.125 
L 46.1875 0 
L 37.40625 0 
L 37.40625 33.6875 
Q 37.40625 39.546875 35.25 42.46875 
Q 33.109375 45.40625 28.21875 45.40625 
Q 24.515625 45.40625 21.359375 43.453125 
Q 18.21875 41.5 16.796875 37.734375 
Q 15.375 33.984375 15.375 26.90625 
L 15.375 0 
z
" id="ArialMT-109"/>
      <path d="M 42.09375 16.703125 
L 51.171875 15.578125 
Q 49.03125 7.625 43.21875 3.21875 
Q 37.40625 -1.171875 28.375 -1.171875 
Q 17 -1.171875 10.328125 5.828125 
Q 3.65625 12.84375 3.65625 25.484375 
Q 3.65625 38.578125 10.390625 45.796875 
Q 17.140625 53.03125 27.875 53.03125 
Q 38.28125 53.03125 44.875 45.953125 
Q 51.46875 38.875 51.46875 26.03125 
Q 51.46875 25.25 51.421875 23.6875 
L 12.75 23.6875 
Q 13.234375 15.140625 17.578125 10.59375 
Q 21.921875 6.0625 28.421875 6.0625 
Q 33.25 6.0625 36.671875 8.59375 
Q 40.09375 11.140625 42.09375 16.703125 
z
M 13.234375 30.90625 
L 42.1875 30.90625 
Q 41.609375 37.453125 38.875 40.71875 
Q 34.671875 45.796875 27.984375 45.796875 
Q 21.921875 45.796875 17.796875 41.75 
Q 13.671875 37.703125 13.234375 30.90625 
z
" id="ArialMT-101"/>
      <path id="ArialMT-32"/>
      <path d="M 23.390625 -21.046875 
Q 16.109375 -11.859375 11.078125 0.4375 
Q 6.0625 12.75 6.0625 25.921875 
Q 6.0625 37.546875 9.8125 48.1875 
Q 14.203125 60.546875 23.390625 72.796875 
L 29.6875 72.796875 
Q 23.78125 62.640625 21.875 58.296875 
Q 18.890625 51.5625 17.1875 44.234375 
Q 15.09375 35.109375 15.09375 25.875 
Q 15.09375 2.390625 29.6875 -21.046875 
z
" id="ArialMT-40"/>
      <path d="M 3.078125 15.484375 
L 11.765625 16.84375 
Q 12.5 11.625 15.84375 8.84375 
Q 19.1875 6.0625 25.203125 6.0625 
Q 31.25 6.0625 34.171875 8.515625 
Q 37.109375 10.984375 37.109375 14.3125 
Q 37.109375 17.28125 34.515625 19 
Q 32.71875 20.171875 25.53125 21.96875 
Q 15.875 24.421875 12.140625 26.203125 
Q 8.40625 27.984375 6.46875 31.125 
Q 4.546875 34.28125 4.546875 38.09375 
Q 4.546875 41.546875 6.125 44.5 
Q 7.71875 47.46875 10.453125 49.421875 
Q 12.5 50.921875 16.03125 51.96875 
Q 19.578125 53.03125 23.640625 53.03125 
Q 29.734375 53.03125 34.34375 51.265625 
Q 38.96875 49.515625 41.15625 46.5 
Q 43.359375 43.5 44.1875 38.484375 
L 35.59375 37.3125 
Q 35.015625 41.3125 32.203125 43.546875 
Q 29.390625 45.796875 24.265625 45.796875 
Q 18.21875 45.796875 15.625 43.796875 
Q 13.03125 41.796875 13.03125 39.109375 
Q 13.03125 37.40625 14.109375 36.03125 
Q 15.1875 34.625 17.484375 33.6875 
Q 18.796875 33.203125 25.25 31.453125 
Q 34.578125 28.953125 38.25 27.359375 
Q 41.9375 25.78125 44.03125 22.75 
Q 46.140625 19.734375 46.140625 15.234375 
Q 46.140625 10.84375 43.578125 6.953125 
Q 41.015625 3.078125 36.171875 0.953125 
Q 31.34375 -1.171875 25.25 -1.171875 
Q 15.140625 -1.171875 9.84375 3.03125 
Q 4.546875 7.234375 3.078125 15.484375 
z
" id="ArialMT-115"/>
      <path d="M 12.359375 -21.046875 
L 6.0625 -21.046875 
Q 20.65625 2.390625 20.65625 25.875 
Q 20.65625 35.0625 18.5625 44.09375 
Q 16.890625 51.421875 13.921875 58.15625 
Q 12.015625 62.546875 6.0625 72.796875 
L 12.359375 72.796875 
Q 21.53125 60.546875 25.921875 48.1875 
Q 29.6875 37.546875 29.6875 25.921875 
Q 29.6875 12.75 24.625 0.4375 
Q 19.578125 -11.859375 12.359375 -21.046875 
z
" id="ArialMT-41"/>
     </defs>
     <g transform="translate(488.881625 294.314063)scale(0.28 -0.28)">
      <use xlink:href="#ArialMT-116"/>
      <use x="27.783203" xlink:href="#ArialMT-105"/>
      <use x="50" xlink:href="#ArialMT-109"/>
      <use x="133.300781" xlink:href="#ArialMT-101"/>
      <use x="188.916016" xlink:href="#ArialMT-32"/>
      <use x="216.699219" xlink:href="#ArialMT-40"/>
      <use x="250" xlink:href="#ArialMT-115"/>
      <use x="300" xlink:href="#ArialMT-41"/>
     </g>
    </g>
   </g>
   <g id="matplotlib.axis_2">
    <g id="ytick_1">
     <g id="line2d_9">
      <path clip-path="url(#p3b36899a95)" d="M 121.541 227.440578 
L 949.541 227.440578 
" style="fill:none;stroke:#b0b0b0;stroke-linecap:square;stroke-width:0.8;"/>
     </g>
     <g id="line2d_10">
      <defs>
       <path d="M 0 0 
L -3.5 0 
" id="m992c556712" style="stroke:#000000;stroke-width:0.8;"/>
      </defs>
      <g>
       <use style="stroke:#000000;stroke-width:0.8;" x="121.541" xlink:href="#m992c556712" y="227.440578"/>
      </g>
     </g>
     <g id="text_6">
      <!-- 0 -->
      <g transform="translate(98.970375 237.461515)scale(0.28 -0.28)">
       <use xlink:href="#ArialMT-48"/>
      </g>
     </g>
    </g>
    <g id="ytick_2">
     <g id="line2d_11">
      <path clip-path="url(#p3b36899a95)" d="M 121.541 117.175754 
L 949.541 117.175754 
" style="fill:none;stroke:#b0b0b0;stroke-linecap:square;stroke-width:0.8;"/>
     </g>
     <g id="line2d_12">
      <g>
       <use style="stroke:#000000;stroke-width:0.8;" x="121.541" xlink:href="#m992c556712" y="117.175754"/>
      </g>
     </g>
     <g id="text_7">
      <!-- 200 -->
      <g transform="translate(67.829125 127.196691)scale(0.28 -0.28)">
       <use xlink:href="#ArialMT-50"/>
       <use x="55.615234" xlink:href="#ArialMT-48"/>
       <use x="111.230469" xlink:href="#ArialMT-48"/>
      </g>
     </g>
    </g>
    <g id="text_8">
     <!-- Change point score -->
     <defs>
      <path d="M 58.796875 25.09375 
L 68.265625 22.703125 
Q 65.28125 11.03125 57.546875 4.90625 
Q 49.8125 -1.21875 38.625 -1.21875 
Q 27.046875 -1.21875 19.796875 3.484375 
Q 12.546875 8.203125 8.765625 17.140625 
Q 4.984375 26.078125 4.984375 36.328125 
Q 4.984375 47.515625 9.25 55.828125 
Q 13.53125 64.15625 21.40625 68.46875 
Q 29.296875 72.796875 38.765625 72.796875 
Q 49.515625 72.796875 56.828125 67.328125 
Q 64.15625 61.859375 67.046875 51.953125 
L 57.71875 49.75 
Q 55.21875 57.5625 50.484375 61.125 
Q 45.75 64.703125 38.578125 64.703125 
Q 30.328125 64.703125 24.78125 60.734375 
Q 19.234375 56.78125 16.984375 50.109375 
Q 14.75 43.453125 14.75 36.375 
Q 14.75 27.25 17.40625 20.4375 
Q 20.0625 13.625 25.671875 10.25 
Q 31.296875 6.890625 37.84375 6.890625 
Q 45.796875 6.890625 51.3125 11.46875 
Q 56.84375 16.0625 58.796875 25.09375 
z
" id="ArialMT-67"/>
      <path d="M 6.59375 0 
L 6.59375 71.578125 
L 15.375 71.578125 
L 15.375 45.90625 
Q 21.53125 53.03125 30.90625 53.03125 
Q 36.671875 53.03125 40.921875 50.75 
Q 45.171875 48.484375 47 44.484375 
Q 48.828125 40.484375 48.828125 32.859375 
L 48.828125 0 
L 40.046875 0 
L 40.046875 32.859375 
Q 40.046875 39.453125 37.1875 42.453125 
Q 34.328125 45.453125 29.109375 45.453125 
Q 25.203125 45.453125 21.75 43.421875 
Q 18.3125 41.40625 16.84375 37.9375 
Q 15.375 34.46875 15.375 28.375 
L 15.375 0 
z
" id="ArialMT-104"/>
      <path d="M 40.4375 6.390625 
Q 35.546875 2.25 31.03125 0.53125 
Q 26.515625 -1.171875 21.34375 -1.171875 
Q 12.796875 -1.171875 8.203125 3 
Q 3.609375 7.171875 3.609375 13.671875 
Q 3.609375 17.484375 5.34375 20.625 
Q 7.078125 23.78125 9.890625 25.6875 
Q 12.703125 27.59375 16.21875 28.5625 
Q 18.796875 29.25 24.03125 29.890625 
Q 34.671875 31.15625 39.703125 32.90625 
Q 39.75 34.71875 39.75 35.203125 
Q 39.75 40.578125 37.25 42.78125 
Q 33.890625 45.75 27.25 45.75 
Q 21.046875 45.75 18.09375 43.578125 
Q 15.140625 41.40625 13.71875 35.890625 
L 5.125 37.0625 
Q 6.296875 42.578125 8.984375 45.96875 
Q 11.671875 49.359375 16.75 51.1875 
Q 21.828125 53.03125 28.515625 53.03125 
Q 35.15625 53.03125 39.296875 51.46875 
Q 43.453125 49.90625 45.40625 47.53125 
Q 47.359375 45.171875 48.140625 41.546875 
Q 48.578125 39.3125 48.578125 33.453125 
L 48.578125 21.734375 
Q 48.578125 9.46875 49.140625 6.21875 
Q 49.703125 2.984375 51.375 0 
L 42.1875 0 
Q 40.828125 2.734375 40.4375 6.390625 
z
M 39.703125 26.03125 
Q 34.90625 24.078125 25.34375 22.703125 
Q 19.921875 21.921875 17.671875 20.9375 
Q 15.4375 19.96875 14.203125 18.09375 
Q 12.984375 16.21875 12.984375 13.921875 
Q 12.984375 10.40625 15.640625 8.0625 
Q 18.3125 5.71875 23.4375 5.71875 
Q 28.515625 5.71875 32.46875 7.9375 
Q 36.421875 10.15625 38.28125 14.015625 
Q 39.703125 17 39.703125 22.796875 
z
" id="ArialMT-97"/>
      <path d="M 6.59375 0 
L 6.59375 51.859375 
L 14.5 51.859375 
L 14.5 44.484375 
Q 20.21875 53.03125 31 53.03125 
Q 35.6875 53.03125 39.625 51.34375 
Q 43.5625 49.65625 45.515625 46.921875 
Q 47.46875 44.1875 48.25 40.4375 
Q 48.734375 37.984375 48.734375 31.890625 
L 48.734375 0 
L 39.9375 0 
L 39.9375 31.546875 
Q 39.9375 36.921875 38.90625 39.578125 
Q 37.890625 42.234375 35.28125 43.8125 
Q 32.671875 45.40625 29.15625 45.40625 
Q 23.53125 45.40625 19.453125 41.84375 
Q 15.375 38.28125 15.375 28.328125 
L 15.375 0 
z
" id="ArialMT-110"/>
      <path d="M 4.984375 -4.296875 
L 13.53125 -5.5625 
Q 14.0625 -9.515625 16.5 -11.328125 
Q 19.78125 -13.765625 25.4375 -13.765625 
Q 31.546875 -13.765625 34.859375 -11.328125 
Q 38.1875 -8.890625 39.359375 -4.5 
Q 40.046875 -1.8125 39.984375 6.78125 
Q 34.234375 0 25.640625 0 
Q 14.9375 0 9.078125 7.71875 
Q 3.21875 15.4375 3.21875 26.21875 
Q 3.21875 33.640625 5.90625 39.90625 
Q 8.59375 46.1875 13.6875 49.609375 
Q 18.796875 53.03125 25.6875 53.03125 
Q 34.859375 53.03125 40.828125 45.609375 
L 40.828125 51.859375 
L 48.921875 51.859375 
L 48.921875 7.03125 
Q 48.921875 -5.078125 46.453125 -10.125 
Q 44 -15.1875 38.640625 -18.109375 
Q 33.296875 -21.046875 25.484375 -21.046875 
Q 16.21875 -21.046875 10.5 -16.875 
Q 4.78125 -12.703125 4.984375 -4.296875 
z
M 12.25 26.859375 
Q 12.25 16.65625 16.296875 11.96875 
Q 20.359375 7.28125 26.46875 7.28125 
Q 32.515625 7.28125 36.609375 11.9375 
Q 40.71875 16.609375 40.71875 26.5625 
Q 40.71875 36.078125 36.5 40.90625 
Q 32.28125 45.75 26.3125 45.75 
Q 20.453125 45.75 16.34375 40.984375 
Q 12.25 36.234375 12.25 26.859375 
z
" id="ArialMT-103"/>
      <path d="M 6.59375 -19.875 
L 6.59375 51.859375 
L 14.59375 51.859375 
L 14.59375 45.125 
Q 17.4375 49.078125 21 51.046875 
Q 24.5625 53.03125 29.640625 53.03125 
Q 36.28125 53.03125 41.359375 49.609375 
Q 46.4375 46.1875 49.015625 39.953125 
Q 51.609375 33.734375 51.609375 26.3125 
Q 51.609375 18.359375 48.75 11.984375 
Q 45.90625 5.609375 40.453125 2.21875 
Q 35.015625 -1.171875 29 -1.171875 
Q 24.609375 -1.171875 21.109375 0.6875 
Q 17.625 2.546875 15.375 5.375 
L 15.375 -19.875 
z
M 14.546875 25.640625 
Q 14.546875 15.625 18.59375 10.84375 
Q 22.65625 6.0625 28.421875 6.0625 
Q 34.28125 6.0625 38.453125 11.015625 
Q 42.625 15.96875 42.625 26.375 
Q 42.625 36.28125 38.546875 41.203125 
Q 34.46875 46.140625 28.8125 46.140625 
Q 23.1875 46.140625 18.859375 40.890625 
Q 14.546875 35.640625 14.546875 25.640625 
z
" id="ArialMT-112"/>
      <path d="M 3.328125 25.921875 
Q 3.328125 40.328125 11.328125 47.265625 
Q 18.015625 53.03125 27.640625 53.03125 
Q 38.328125 53.03125 45.109375 46.015625 
Q 51.90625 39.015625 51.90625 26.65625 
Q 51.90625 16.65625 48.90625 10.90625 
Q 45.90625 5.171875 40.15625 2 
Q 34.421875 -1.171875 27.640625 -1.171875 
Q 16.75 -1.171875 10.03125 5.8125 
Q 3.328125 12.796875 3.328125 25.921875 
z
M 12.359375 25.921875 
Q 12.359375 15.96875 16.703125 11.015625 
Q 21.046875 6.0625 27.640625 6.0625 
Q 34.1875 6.0625 38.53125 11.03125 
Q 42.875 16.015625 42.875 26.21875 
Q 42.875 35.84375 38.5 40.796875 
Q 34.125 45.75 27.640625 45.75 
Q 21.046875 45.75 16.703125 40.8125 
Q 12.359375 35.890625 12.359375 25.921875 
z
" id="ArialMT-111"/>
      <path d="M 40.4375 19 
L 49.078125 17.875 
Q 47.65625 8.9375 41.8125 3.875 
Q 35.984375 -1.171875 27.484375 -1.171875 
Q 16.84375 -1.171875 10.375 5.78125 
Q 3.90625 12.75 3.90625 25.734375 
Q 3.90625 34.125 6.6875 40.421875 
Q 9.46875 46.734375 15.15625 49.875 
Q 20.84375 53.03125 27.546875 53.03125 
Q 35.984375 53.03125 41.359375 48.75 
Q 46.734375 44.484375 48.25 36.625 
L 39.703125 35.296875 
Q 38.484375 40.53125 35.375 43.15625 
Q 32.28125 45.796875 27.875 45.796875 
Q 21.234375 45.796875 17.078125 41.03125 
Q 12.9375 36.28125 12.9375 25.984375 
Q 12.9375 15.53125 16.9375 10.796875 
Q 20.953125 6.0625 27.390625 6.0625 
Q 32.5625 6.0625 36.03125 9.234375 
Q 39.5 12.40625 40.4375 19 
z
" id="ArialMT-99"/>
      <path d="M 6.5 0 
L 6.5 51.859375 
L 14.40625 51.859375 
L 14.40625 44 
Q 17.4375 49.515625 20 51.265625 
Q 22.5625 53.03125 25.640625 53.03125 
Q 30.078125 53.03125 34.671875 50.203125 
L 31.640625 42.046875 
Q 28.421875 43.953125 25.203125 43.953125 
Q 22.3125 43.953125 20.015625 42.21875 
Q 17.71875 40.484375 16.75 37.40625 
Q 15.28125 32.71875 15.28125 27.15625 
L 15.28125 0 
z
" id="ArialMT-114"/>
     </defs>
     <g transform="translate(27.583125 250.008125)rotate(-90)scale(0.28 -0.28)">
      <use xlink:href="#ArialMT-67"/>
      <use x="72.216797" xlink:href="#ArialMT-104"/>
      <use x="127.832031" xlink:href="#ArialMT-97"/>
      <use x="183.447266" xlink:href="#ArialMT-110"/>
      <use x="239.0625" xlink:href="#ArialMT-103"/>
      <use x="294.677734" xlink:href="#ArialMT-101"/>
      <use x="350.292969" xlink:href="#ArialMT-32"/>
      <use x="378.076172" xlink:href="#ArialMT-112"/>
      <use x="433.691406" xlink:href="#ArialMT-111"/>
      <use x="489.306641" xlink:href="#ArialMT-105"/>
      <use x="511.523438" xlink:href="#ArialMT-110"/>
      <use x="567.138672" xlink:href="#ArialMT-116"/>
      <use x="594.921875" xlink:href="#ArialMT-32"/>
      <use x="622.705078" xlink:href="#ArialMT-115"/>
      <use x="672.705078" xlink:href="#ArialMT-99"/>
      <use x="722.705078" xlink:href="#ArialMT-111"/>
      <use x="778.320312" xlink:href="#ArialMT-114"/>
      <use x="811.621094" xlink:href="#ArialMT-101"/>
     </g>
     <!-- (KL div.) -->
     <defs>
      <path d="M 7.328125 0 
L 7.328125 71.578125 
L 16.796875 71.578125 
L 16.796875 36.078125 
L 52.34375 71.578125 
L 65.1875 71.578125 
L 35.15625 42.578125 
L 66.5 0 
L 54 0 
L 28.515625 36.234375 
L 16.796875 24.8125 
L 16.796875 0 
z
" id="ArialMT-75"/>
      <path d="M 7.328125 0 
L 7.328125 71.578125 
L 16.796875 71.578125 
L 16.796875 8.453125 
L 52.046875 8.453125 
L 52.046875 0 
z
" id="ArialMT-76"/>
      <path d="M 40.234375 0 
L 40.234375 6.546875 
Q 35.296875 -1.171875 25.734375 -1.171875 
Q 19.53125 -1.171875 14.328125 2.25 
Q 9.125 5.671875 6.265625 11.796875 
Q 3.421875 17.921875 3.421875 25.875 
Q 3.421875 33.640625 6 39.96875 
Q 8.59375 46.296875 13.765625 49.65625 
Q 18.953125 53.03125 25.34375 53.03125 
Q 30.03125 53.03125 33.6875 51.046875 
Q 37.359375 49.078125 39.65625 45.90625 
L 39.65625 71.578125 
L 48.390625 71.578125 
L 48.390625 0 
z
M 12.453125 25.875 
Q 12.453125 15.921875 16.640625 10.984375 
Q 20.84375 6.0625 26.5625 6.0625 
Q 32.328125 6.0625 36.34375 10.765625 
Q 40.375 15.484375 40.375 25.140625 
Q 40.375 35.796875 36.265625 40.765625 
Q 32.171875 45.75 26.171875 45.75 
Q 20.3125 45.75 16.375 40.96875 
Q 12.453125 36.1875 12.453125 25.875 
z
" id="ArialMT-100"/>
      <path d="M 21 0 
L 1.265625 51.859375 
L 10.546875 51.859375 
L 21.6875 20.796875 
Q 23.484375 15.765625 25 10.359375 
Q 26.171875 14.453125 28.265625 20.21875 
L 39.796875 51.859375 
L 48.828125 51.859375 
L 29.203125 0 
z
" id="ArialMT-118"/>
      <path d="M 9.078125 0 
L 9.078125 10.015625 
L 19.09375 10.015625 
L 19.09375 0 
z
" id="ArialMT-46"/>
     </defs>
     <g transform="translate(57.936 179.168125)rotate(-90)scale(0.28 -0.28)">
      <use xlink:href="#ArialMT-40"/>
      <use x="33.300781" xlink:href="#ArialMT-75"/>
      <use x="100" xlink:href="#ArialMT-76"/>
      <use x="151.865234" xlink:href="#ArialMT-32"/>
      <use x="179.648438" xlink:href="#ArialMT-100"/>
      <use x="235.263672" xlink:href="#ArialMT-105"/>
      <use x="257.480469" xlink:href="#ArialMT-118"/>
      <use x="300.105469" xlink:href="#ArialMT-46"/>
      <use x="327.888672" xlink:href="#ArialMT-41"/>
     </g>
    </g>
   </g>
   <g id="line2d_13">
    <path clip-path="url(#p3b36899a95)" d="M 159.177364 29.767699 
L 159.42844 225.441697 
L 159.679517 222.655635 
L 159.930593 223.997312 
L 160.18167 218.063423 
L 160.432746 217.618938 
L 160.683822 211.16006 
L 160.934899 207.574757 
L 161.185975 216.019824 
L 161.688128 222.479002 
L 161.939205 223.389049 
L 162.190281 223.245751 
L 162.441358 224.985423 
L 162.692434 225.83009 
L 162.943511 225.65196 
L 163.194587 226.911593 
L 163.445664 227.006247 
L 163.69674 226.808298 
L 164.198893 226.821636 
L 164.44997 226.990169 
L 164.952123 225.680809 
L 165.203199 226.889719 
L 165.454276 225.673025 
L 165.705352 227.104277 
L 165.956428 226.599924 
L 166.207505 226.959071 
L 166.458581 226.129143 
L 166.709658 226.952842 
L 166.960734 226.541379 
L 167.211811 226.907803 
L 167.462887 225.973104 
L 167.713964 227.245582 
L 167.96504 227.102604 
L 168.216117 227.090419 
L 168.467193 226.716174 
L 168.71827 226.139945 
L 168.969346 226.448042 
L 169.471499 225.335597 
L 169.722576 226.44533 
L 169.973652 226.871987 
L 170.475805 226.726387 
L 170.726881 225.906851 
L 171.229034 225.95761 
L 171.480111 225.819861 
L 171.731187 226.715395 
L 171.982264 224.577043 
L 172.23334 226.307734 
L 172.484417 226.497276 
L 172.735493 225.608123 
L 172.98657 225.152181 
L 173.237646 225.100311 
L 173.488723 223.898244 
L 173.739799 226.058126 
L 173.990876 225.873826 
L 174.241952 226.308021 
L 174.493029 225.446929 
L 174.744105 225.910471 
L 174.995182 225.846882 
L 175.246258 225.249791 
L 175.497335 226.802993 
L 175.748411 226.031206 
L 176.250564 227.160437 
L 176.50164 226.916036 
L 177.003793 226.937941 
L 177.505946 225.790213 
L 178.008099 226.281036 
L 178.259176 227.105378 
L 178.510252 226.699118 
L 178.761329 227.182843 
L 179.012405 227.34877 
L 179.263482 227.060837 
L 179.514558 227.252484 
L 179.765635 226.812809 
L 180.016711 227.133828 
L 180.267788 226.444339 
L 180.518864 226.55738 
L 180.769941 226.958956 
L 181.021017 227.10867 
L 181.272093 226.810494 
L 181.52317 226.986357 
L 181.774246 226.760713 
L 182.276399 227.19023 
L 182.527476 226.975578 
L 183.029629 227.317416 
L 183.280705 227.368547 
L 183.531782 227.242024 
L 183.782858 227.370804 
L 184.033935 227.28302 
L 184.285011 227.014533 
L 184.787164 227.388568 
L 185.038241 227.09027 
L 185.289317 227.038271 
L 185.79147 227.347189 
L 186.293623 227.118133 
L 186.544699 227.318117 
L 186.795776 227.139302 
L 187.046852 227.181543 
L 187.297929 226.83426 
L 187.549005 227.212584 
L 188.051158 227.386104 
L 188.553311 227.308067 
L 188.804388 227.405789 
L 189.055464 227.361262 
L 189.306541 227.058076 
L 189.557617 227.339994 
L 189.808694 227.213169 
L 190.05977 227.337669 
L 190.561923 226.938433 
L 191.064076 227.354482 
L 191.566229 227.405213 
L 191.817305 227.112358 
L 192.068382 227.3532 
L 192.570535 227.186219 
L 192.821611 227.30566 
L 193.323764 227.324754 
L 193.825917 227.097554 
L 194.076994 227.269899 
L 194.830223 227.406169 
L 195.0813 227.291913 
L 195.834529 227.354469 
L 196.085605 227.216882 
L 196.336682 227.387999 
L 196.587758 227.332971 
L 196.838835 227.407248 
L 197.340988 227.397781 
L 198.847447 227.254544 
L 199.098523 227.375731 
L 200.856059 227.359783 
L 201.609288 227.402997 
L 202.613594 227.385264 
L 203.6179 227.411442 
L 204.371129 227.375366 
L 204.622206 227.280749 
L 205.124359 227.385975 
L 206.128665 227.404691 
L 206.379741 227.174907 
L 206.630817 227.397393 
L 207.384047 227.434751 
L 208.639429 227.39767 
L 210.145888 227.400915 
L 211.150194 227.377788 
L 211.903423 227.419612 
L 212.907729 227.409979 
L 213.409882 227.413463 
L 214.414188 227.33018 
L 214.916341 227.407268 
L 216.4228 227.347931 
L 216.924953 227.424695 
L 218.431412 227.406336 
L 218.933565 227.403145 
L 220.188947 227.394727 
L 220.440024 227.219936 
L 220.6911 227.414794 
L 220.942177 227.302442 
L 221.695406 227.43117 
L 222.197559 227.426924 
L 227.470165 227.413794 
L 228.976624 227.43032 
L 231.738465 227.437694 
L 232.240618 227.42045 
L 233.496 227.429431 
L 233.747077 227.349617 
L 234.751383 227.428924 
L 235.253536 227.417057 
L 239.521836 227.436167 
L 240.777218 227.385562 
L 241.530448 227.439943 
L 245.045518 227.392622 
L 245.547671 227.415526 
L 246.049824 227.4109 
L 247.05413 227.412496 
L 253.079965 227.390678 
L 253.582118 227.424995 
L 254.837501 227.427009 
L 263.876254 227.426701 
L 267.893477 227.40619 
L 269.399936 227.434649 
L 274.672542 227.419384 
L 276.430078 227.434662 
L 286.97529 227.435502 
L 287.728519 227.431085 
L 295.260813 227.431048 
L 300.282343 227.430073 
L 345.727185 227.438138 
L 347.48472 227.436104 
L 354.012708 227.431591 
L 358.783161 227.438436 
L 375.605285 227.435988 
L 387.908033 227.435629 
L 391.67418 227.439218 
L 409.751686 227.433895 
L 410.002762 209.571409 
L 410.253839 209.023785 
L 410.504915 209.866648 
L 411.007068 210.633511 
L 411.258145 211.435727 
L 411.509221 211.349172 
L 411.760298 212.24362 
L 412.011374 211.982313 
L 412.262451 213.277498 
L 412.513527 213.63525 
L 413.01568 215.091137 
L 413.266757 215.7719 
L 413.517833 216.035626 
L 414.271062 218.500377 
L 414.773215 218.816436 
L 415.777521 221.03861 
L 416.530751 222.082741 
L 416.781827 222.628246 
L 417.032904 222.852419 
L 417.28398 222.564729 
L 417.786133 223.522273 
L 418.03721 223.470756 
L 418.288286 223.855411 
L 418.539363 223.920792 
L 418.790439 223.707461 
L 419.292592 224.128849 
L 419.543668 224.150167 
L 420.045821 223.918963 
L 420.296898 224.108189 
L 420.547974 224.075157 
L 420.799051 223.8799 
L 421.050127 223.873485 
L 421.301204 223.472513 
L 421.55228 223.793097 
L 422.054433 223.657592 
L 422.30551 223.964903 
L 422.556586 223.456497 
L 422.807663 223.612146 
L 423.058739 223.390659 
L 423.811969 223.588154 
L 424.063045 223.332067 
L 424.314121 223.497285 
L 424.565198 223.457355 
L 424.816274 223.188792 
L 425.067351 223.129527 
L 425.318427 223.317186 
L 425.569504 223.184922 
L 425.82058 223.188206 
L 426.071657 223.010157 
L 426.322733 223.247155 
L 426.57381 223.12147 
L 427.075963 223.33489 
L 427.327039 223.032453 
L 427.578116 223.393096 
L 427.829192 223.329624 
L 428.331345 223.359957 
L 428.582422 222.957132 
L 428.833498 223.471949 
L 429.084575 223.573338 
L 429.335651 223.43645 
L 429.586727 223.505625 
L 429.837804 223.755686 
L 430.08888 223.598437 
L 430.339957 223.681588 
L 430.591033 224.122816 
L 430.84211 223.596156 
L 431.093186 223.828829 
L 431.344263 223.897783 
L 431.595339 224.278645 
L 432.599645 224.167304 
L 432.850722 224.330944 
L 433.101798 224.24947 
L 433.352875 224.557122 
L 433.603951 224.387896 
L 433.855028 224.743016 
L 434.106104 224.546668 
L 434.35718 224.719472 
L 434.608257 224.446378 
L 435.11041 224.593791 
L 435.361486 224.613499 
L 435.612563 224.511862 
L 435.863639 224.71526 
L 436.365792 224.651251 
L 436.616869 224.991059 
L 436.867945 224.958926 
L 437.119022 224.554318 
L 437.370098 224.582131 
L 437.621175 224.792569 
L 437.872251 224.818559 
L 438.123328 225.051423 
L 438.374404 224.550137 
L 438.625481 224.70577 
L 438.876557 224.479839 
L 439.629786 224.965992 
L 439.880863 224.580964 
L 440.383016 224.729488 
L 440.634092 224.638051 
L 440.885169 224.354019 
L 441.136245 224.681381 
L 442.140551 224.327028 
L 442.391628 224.660538 
L 442.642704 224.318146 
L 443.144857 224.347596 
L 443.64701 224.165291 
L 443.898087 224.427196 
L 444.149163 224.317426 
L 444.400239 224.554848 
L 444.902392 224.173137 
L 445.153469 224.419995 
L 446.157775 224.042293 
L 446.408851 224.091447 
L 446.659928 223.898992 
L 446.911004 224.065024 
L 447.162081 223.78239 
L 447.664234 223.735501 
L 447.91531 223.752363 
L 448.166387 223.464566 
L 449.170693 223.360341 
L 449.421769 223.459633 
L 449.672845 223.090051 
L 449.923922 223.252925 
L 450.426075 223.165664 
L 450.928228 223.262146 
L 451.681457 223.423778 
L 451.932534 223.566887 
L 452.18361 223.355046 
L 452.434687 223.648784 
L 452.685763 223.559867 
L 452.93684 223.632283 
L 453.187916 223.951381 
L 454.192222 224.032653 
L 454.443299 224.423174 
L 454.694375 224.211198 
L 455.447604 224.663652 
L 455.698681 224.450676 
L 455.949757 224.76816 
L 456.200834 224.787464 
L 456.702987 225.020187 
L 456.954063 225.151021 
L 457.707293 225.10414 
L 457.958369 225.135331 
L 458.209446 224.946669 
L 458.962675 225.035006 
L 459.213752 225.187201 
L 459.464828 224.954597 
L 459.715904 225.099067 
L 459.966981 224.846466 
L 460.469134 224.775015 
L 460.971287 224.860381 
L 461.47344 224.430347 
L 461.724516 224.648959 
L 461.975593 224.437051 
L 462.226669 224.433254 
L 462.477746 224.247598 
L 462.728822 224.33097 
L 462.979899 224.148032 
L 463.230975 224.233607 
L 463.733128 223.890574 
L 464.737434 224.073481 
L 465.239587 223.776238 
L 465.490663 223.721982 
L 465.74174 223.892467 
L 466.243893 223.564937 
L 466.494969 223.7615 
L 466.746046 223.58389 
L 466.997122 223.833352 
L 467.248199 223.657864 
L 467.750352 223.83261 
L 468.001428 223.687948 
L 468.252505 223.874843 
L 468.503581 223.788964 
L 469.005734 223.981297 
L 469.256811 223.834447 
L 470.01004 224.35156 
L 470.512193 224.137889 
L 470.763269 224.239492 
L 471.014346 224.065966 
L 471.265422 224.409399 
L 471.516499 224.381864 
L 471.767575 224.7278 
L 472.269728 224.704355 
L 472.520805 224.818886 
L 472.771881 224.66665 
L 473.776187 225.184019 
L 474.027264 225.050671 
L 474.27834 225.30123 
L 474.529417 225.142563 
L 474.780493 225.478166 
L 475.784799 225.529359 
L 476.035875 225.712615 
L 476.286952 225.61895 
L 476.789105 225.71101 
L 477.040181 225.58742 
L 477.291258 225.795595 
L 477.542334 225.693336 
L 477.793411 225.762626 
L 478.295564 225.62313 
L 478.54664 225.833349 
L 478.797717 225.678162 
L 479.550946 225.67897 
L 480.053099 225.47017 
L 480.304175 225.624375 
L 480.555252 225.431964 
L 480.806328 225.578774 
L 481.057405 225.383971 
L 481.308481 225.418725 
L 481.559558 225.163333 
L 482.061711 225.118259 
L 482.312787 224.886504 
L 482.563864 225.078353 
L 483.066017 224.542745 
L 483.317093 224.534763 
L 483.56817 224.346665 
L 483.819246 224.414933 
L 484.321399 223.936402 
L 484.572476 224.02698 
L 485.325705 223.755396 
L 485.576781 223.31243 
L 485.827858 223.525263 
L 486.581087 222.976946 
L 487.08324 223.10486 
L 487.334317 222.910472 
L 487.585393 223.084235 
L 487.83647 222.942085 
L 488.087546 223.077466 
L 488.589699 222.983634 
L 488.840776 223.451669 
L 489.845082 223.488933 
L 490.096158 223.703956 
L 490.347234 223.752457 
L 490.598311 223.686202 
L 490.849387 223.776974 
L 491.35154 224.384557 
L 491.602617 224.346623 
L 492.10477 224.762598 
L 492.355846 224.714511 
L 492.857999 225.159717 
L 493.109076 225.383689 
L 493.360152 225.289419 
L 493.611229 225.53427 
L 494.364458 225.769809 
L 494.615535 225.941002 
L 494.866611 225.962764 
L 495.117687 226.162489 
L 495.368764 226.129862 
L 495.61984 226.214188 
L 495.870917 226.132471 
L 496.121993 226.209656 
L 496.624146 226.130447 
L 496.875223 226.159585 
L 497.126299 226.011222 
L 497.377376 226.098311 
L 498.381682 225.818668 
L 498.632758 225.799155 
L 498.883835 225.653484 
L 499.134911 225.638267 
L 499.888141 225.281488 
L 500.139217 225.316393 
L 500.892446 225.07008 
L 501.143523 224.774712 
L 501.645676 224.613264 
L 501.896752 224.298656 
L 502.147829 224.537616 
L 502.398905 224.490937 
L 503.403211 223.884507 
L 503.654288 224.096753 
L 503.905364 224.005395 
L 504.156441 224.235599 
L 504.407517 223.790955 
L 505.160746 223.87043 
L 505.662899 223.524576 
L 505.913976 223.790287 
L 506.165052 223.607871 
L 506.667205 223.650385 
L 506.918282 224.030677 
L 507.169358 224.047586 
L 507.420435 223.880619 
L 507.671511 223.981369 
L 507.922588 223.913965 
L 508.173664 224.122778 
L 508.675817 224.149093 
L 508.926894 224.124919 
L 509.429047 224.613677 
L 510.182276 224.540736 
L 510.433352 224.733358 
L 510.684429 224.65893 
L 511.186582 225.088722 
L 511.688735 225.035786 
L 511.939811 225.397502 
L 512.944117 225.443065 
L 513.195194 225.555171 
L 513.44627 225.85653 
L 515.203806 226.192759 
L 515.454882 226.167283 
L 515.957035 226.326619 
L 516.710264 226.424 
L 517.71457 226.254316 
L 518.216723 226.274245 
L 519.723182 225.793312 
L 519.974259 225.771119 
L 520.978564 225.16381 
L 521.480717 224.920753 
L 522.233947 224.634942 
L 522.7361 224.487478 
L 522.987176 224.180068 
L 523.238253 224.182071 
L 523.991482 223.814376 
L 524.493635 223.589909 
L 524.744712 223.753293 
L 524.995788 223.549831 
L 525.749017 223.550699 
L 526.000094 223.712547 
L 526.502247 223.554621 
L 527.0044 223.923723 
L 527.255476 223.864 
L 527.757629 224.119363 
L 528.008706 224.454616 
L 528.259782 224.371011 
L 528.510859 224.752509 
L 529.013012 224.826734 
L 529.264088 225.08805 
L 529.515165 225.035552 
L 530.017318 225.637641 
L 530.268394 225.50167 
L 530.51947 225.832856 
L 530.770547 225.760499 
L 531.2727 226.077516 
L 532.528082 226.533107 
L 532.779159 226.444223 
L 533.030235 226.586104 
L 534.034541 226.550822 
L 534.285618 226.63423 
L 535.792076 226.279675 
L 536.294229 226.126019 
L 536.545306 226.074274 
L 536.796382 226.146192 
L 538.553918 225.295701 
L 539.056071 225.201939 
L 539.558224 224.805264 
L 539.8093 224.920529 
L 541.315759 224.300544 
L 541.566835 224.52361 
L 542.571141 224.170595 
L 542.822218 224.285829 
L 543.073294 224.039846 
L 543.324371 224.188883 
L 544.579753 224.134497 
L 545.081906 224.309254 
L 545.332983 224.27528 
L 545.835135 224.511442 
L 546.086212 224.351529 
L 546.337288 224.341094 
L 546.839441 224.763464 
L 547.090518 224.639005 
L 550.605589 226.014023 
L 550.856665 226.006832 
L 551.358818 226.159505 
L 552.112047 226.359283 
L 552.6142 226.518261 
L 552.865277 226.492298 
L 553.36743 226.629327 
L 553.869583 226.681491 
L 554.120659 226.517392 
L 554.622812 226.66463 
L 555.124965 226.643347 
L 558.388959 225.409693 
L 558.891112 225.059013 
L 559.142189 224.953199 
L 559.393265 224.56577 
L 559.644342 224.653532 
L 560.899724 224.230216 
L 561.401877 224.138566 
L 561.652953 224.036479 
L 562.406183 224.044015 
L 562.657259 223.972279 
L 562.908336 224.137895 
L 563.159412 223.879716 
L 563.410489 224.274912 
L 563.912642 224.325337 
L 564.414795 224.623097 
L 564.665871 224.580305 
L 564.916948 224.862105 
L 565.168024 224.86357 
L 565.921254 225.429319 
L 566.17233 225.42523 
L 567.678789 226.217909 
L 567.929865 226.278178 
L 568.180942 226.51187 
L 568.683095 226.538977 
L 569.185248 226.678974 
L 570.691707 226.810836 
L 572.700318 226.501487 
L 572.951395 226.312662 
L 573.202471 226.32769 
L 573.704624 226.111413 
L 574.960007 225.715306 
L 575.46216 225.39243 
L 575.713236 225.495059 
L 576.466465 225.098457 
L 578.475077 224.568449 
L 578.726154 224.601295 
L 578.97723 224.407348 
L 579.981536 224.440865 
L 580.232613 224.31147 
L 580.483689 224.388272 
L 580.734766 224.302039 
L 582.241224 224.40791 
L 582.492301 224.309678 
L 582.743377 224.515661 
L 582.994454 224.461494 
L 583.496607 224.69644 
L 583.747683 224.673093 
L 584.500913 225.090085 
L 584.751989 225.000329 
L 585.254142 225.321801 
L 586.007372 225.260997 
L 586.258448 225.58381 
L 587.011677 225.734078 
L 587.51383 226.086751 
L 587.764907 226.212375 
L 588.015983 226.182013 
L 588.769213 226.47027 
L 589.271366 226.523533 
L 589.522442 226.736877 
L 590.024595 226.609148 
L 590.275672 226.743225 
L 590.777825 226.615756 
L 591.028901 226.723121 
L 591.531054 226.602046 
L 592.033207 226.516242 
L 592.53536 226.256651 
L 593.539666 225.932426 
L 593.790742 225.648308 
L 594.041819 225.67496 
L 594.292895 225.223968 
L 594.543972 225.285059 
L 595.297201 224.630319 
L 595.799354 224.714881 
L 596.301507 224.123947 
L 596.80366 224.265121 
L 597.054736 223.99141 
L 597.556889 223.782704 
L 597.807966 223.869453 
L 598.059042 223.716005 
L 598.561195 223.89794 
L 598.812272 223.713752 
L 599.816578 224.276098 
L 600.067654 224.280576 
L 601.07196 225.062049 
L 601.323037 224.995827 
L 601.574113 225.298479 
L 601.825189 225.26477 
L 603.080572 225.970654 
L 604.084878 226.409402 
L 605.089184 226.72853 
L 605.591337 226.651256 
L 606.09349 226.696101 
L 607.097795 226.672892 
L 607.599948 226.568018 
L 608.353178 226.37442 
L 610.110713 225.843226 
L 610.36179 225.611287 
L 610.863943 225.541271 
L 611.115019 225.325388 
L 611.366096 225.393289 
L 611.868248 224.965058 
L 612.119325 225.080005 
L 613.123631 224.547876 
L 613.87686 224.283892 
L 614.127937 224.322856 
L 614.379013 224.058696 
L 614.63009 224.17033 
L 615.132243 224.022492 
L 615.383319 223.930296 
L 615.634396 224.123504 
L 615.885472 223.766942 
L 616.136549 223.904982 
L 616.387625 223.704562 
L 616.638701 223.703175 
L 616.889778 223.826542 
L 617.140854 223.721553 
L 618.14516 223.881646 
L 618.396237 224.191715 
L 618.647313 224.006549 
L 619.149466 224.137521 
L 619.400543 224.092553 
L 620.655925 224.520999 
L 620.907002 224.557805 
L 621.158078 224.767575 
L 621.911307 224.973179 
L 622.664537 225.39477 
L 622.915613 225.680122 
L 623.16669 225.484582 
L 623.417766 225.704034 
L 623.668843 225.694484 
L 623.919919 225.983199 
L 625.928531 226.284065 
L 626.681761 226.237568 
L 627.43499 225.926981 
L 627.686066 225.883163 
L 627.937143 225.71499 
L 628.188219 225.377306 
L 628.439296 225.340656 
L 628.941449 224.860009 
L 629.192525 224.776037 
L 629.945755 223.976624 
L 630.196831 223.898554 
L 630.698984 223.394027 
L 630.950061 223.163358 
L 631.201137 223.186493 
L 631.452214 222.824334 
L 631.70329 222.924338 
L 632.205443 222.621096 
L 632.456519 222.781187 
L 632.958672 222.590609 
L 633.209749 222.862908 
L 633.460825 222.570052 
L 633.711902 222.896452 
L 633.962978 222.850283 
L 634.716208 223.373292 
L 634.967284 223.766715 
L 635.218361 223.750514 
L 635.720514 224.188425 
L 635.97159 224.09559 
L 636.473743 224.541841 
L 637.729125 225.423581 
L 637.980202 225.702131 
L 638.231278 225.64201 
L 638.482355 225.837974 
L 638.733431 225.886191 
L 639.235584 226.108159 
L 639.988814 226.239245 
L 640.742043 226.30494 
L 641.244196 226.301126 
L 641.997425 225.987549 
L 642.248502 226.053919 
L 643.001731 225.816902 
L 643.503884 225.459639 
L 644.006037 225.363634 
L 644.759267 225.040953 
L 645.010343 224.734838 
L 645.26142 224.906508 
L 645.512496 224.459043 
L 645.763573 224.4975 
L 646.265726 224.134763 
L 646.516802 224.16139 
L 647.018955 223.601353 
L 647.270031 223.717688 
L 647.521108 223.690727 
L 648.77649 222.88945 
L 649.027567 222.959073 
L 649.278643 222.767532 
L 649.780796 222.846538 
L 650.031873 222.598769 
L 650.282949 222.589511 
L 650.534026 222.700605 
L 651.036179 222.436226 
L 651.287255 222.39701 
L 651.789408 222.549312 
L 652.040485 222.372671 
L 652.291561 222.738772 
L 652.793714 222.535359 
L 653.295867 223.034279 
L 653.546943 222.966009 
L 653.79802 223.135944 
L 654.049096 223.612201 
L 654.300173 223.450091 
L 654.551249 223.595992 
L 654.802326 223.487147 
L 655.053402 223.536655 
L 655.806632 224.316791 
L 656.057708 224.303702 
L 656.559861 224.77343 
L 656.810938 224.724622 
L 657.31309 225.314419 
L 657.564167 225.447885 
L 657.815243 225.41355 
L 658.317396 225.85044 
L 659.070626 226.192824 
L 661.079238 226.630444 
L 661.330314 224.341769 
L 661.832467 226.984109 
L 662.083544 226.459706 
L 662.33462 226.762243 
L 662.585696 226.367724 
L 662.836773 224.861375 
L 663.087849 226.599924 
L 663.338926 226.276183 
L 663.590002 225.755764 
L 663.841079 225.999629 
L 664.092155 224.823127 
L 664.343232 224.91411 
L 664.594308 225.769942 
L 664.845385 224.379666 
L 665.096461 224.35929 
L 665.347538 225.231375 
L 665.598614 224.225837 
L 665.849691 225.081529 
L 666.100767 223.611541 
L 666.351844 224.521999 
L 666.60292 224.886191 
L 666.853997 224.045738 
L 667.105073 224.27909 
L 667.356149 224.976208 
L 668.109379 223.488815 
L 668.360455 223.745763 
L 668.611532 223.536505 
L 668.862608 224.184134 
L 669.113685 224.188799 
L 669.364761 224.613923 
L 669.615838 223.936627 
L 669.866914 225.272619 
L 670.117991 224.098071 
L 670.369067 225.824533 
L 670.620144 225.495746 
L 670.87122 225.802087 
L 671.122297 225.83199 
L 671.373373 224.305561 
L 671.62445 224.707196 
L 671.875526 226.627869 
L 672.126603 224.823186 
L 672.377679 224.068541 
L 672.628755 226.640274 
L 672.879832 226.513017 
L 673.130908 225.137446 
L 673.381985 226.584636 
L 673.633061 226.866696 
L 673.884138 226.437914 
L 674.135214 226.880488 
L 674.386291 226.04035 
L 674.637367 226.885935 
L 675.13952 226.316253 
L 675.390597 226.639459 
L 675.641673 225.203407 
L 675.89275 226.817687 
L 676.143826 226.408984 
L 676.394903 226.842858 
L 676.645979 226.990667 
L 676.897056 225.934724 
L 677.148132 226.171424 
L 677.399209 226.570105 
L 677.650285 226.467073 
L 677.901361 226.534977 
L 678.152438 227.024897 
L 678.403514 226.96165 
L 678.905667 227.147939 
L 679.156744 225.8071 
L 679.40782 226.788813 
L 679.658897 226.034703 
L 679.909973 224.928725 
L 680.16105 227.304692 
L 680.412126 226.77889 
L 680.663203 227.005886 
L 680.914279 226.368201 
L 681.416432 226.636323 
L 681.667509 225.957412 
L 681.918585 226.702937 
L 682.169662 226.67023 
L 682.671814 227.248054 
L 682.922891 226.568888 
L 683.173967 226.991003 
L 683.425044 227.041919 
L 683.67612 226.409193 
L 683.927197 226.791546 
L 684.42935 225.87381 
L 684.680426 226.634413 
L 684.931503 226.029812 
L 685.182579 225.085465 
L 685.433656 226.713452 
L 685.684732 226.190588 
L 685.935809 226.237866 
L 686.186885 226.16272 
L 686.437962 226.90182 
L 686.689038 226.29972 
L 686.940115 227.208348 
L 687.191191 226.647012 
L 687.442268 226.661819 
L 687.693344 227.132846 
L 687.94442 226.755598 
L 688.195497 224.954238 
L 688.446573 226.471782 
L 688.69765 225.892098 
L 688.948726 225.850346 
L 689.199803 227.41789 
L 689.450879 226.614381 
L 689.701956 226.271914 
L 689.953032 226.136071 
L 690.204109 226.572498 
L 690.455185 226.331006 
L 690.706262 226.689744 
L 690.957338 225.679427 
L 691.208415 226.635209 
L 691.710568 227.109943 
L 691.961644 226.506551 
L 692.212721 226.6438 
L 692.714873 226.589676 
L 692.96595 226.791056 
L 693.468103 226.656764 
L 693.719179 227.088239 
L 693.970256 226.416033 
L 694.221332 226.980065 
L 694.472409 226.652947 
L 694.723485 226.654955 
L 695.225638 227.032104 
L 695.476715 226.336804 
L 695.727791 226.719335 
L 695.978868 226.229844 
L 696.229944 226.803602 
L 696.481021 225.902552 
L 696.983174 226.912702 
L 697.23425 227.289783 
L 697.485327 226.962872 
L 697.736403 227.101759 
L 697.987479 226.437321 
L 698.238556 227.094996 
L 698.489632 226.350993 
L 698.991785 226.705014 
L 699.242862 226.347739 
L 699.493938 227.006253 
L 699.745015 227.223317 
L 699.996091 226.221712 
L 700.498244 227.168376 
L 700.749321 226.385366 
L 701.000397 226.154319 
L 701.251474 226.793833 
L 701.50255 226.41251 
L 701.753627 227.216878 
L 702.004703 226.42522 
L 702.25578 226.707413 
L 702.506856 227.344973 
L 703.009009 226.777414 
L 703.260085 227.131654 
L 703.511162 226.552489 
L 703.762238 227.244866 
L 704.013315 226.247433 
L 704.264391 227.215841 
L 704.766544 226.331335 
L 705.017621 227.18987 
L 705.77085 226.626518 
L 706.273003 227.315638 
L 706.52408 226.746586 
L 706.775156 226.685913 
L 707.026233 227.256791 
L 707.277309 227.284089 
L 707.528386 226.836782 
L 707.779462 227.135738 
L 708.030538 226.627228 
L 708.281615 227.02573 
L 708.532691 226.566028 
L 708.783768 227.129844 
L 709.034844 226.340304 
L 709.285921 226.854272 
L 709.536997 226.943594 
L 709.788074 227.160668 
L 710.03915 227.211023 
L 710.290227 226.776541 
L 710.541303 227.372736 
L 710.79238 227.369915 
L 711.043456 226.420487 
L 711.294533 227.149178 
L 711.545609 226.789108 
L 711.796686 226.944957 
L 712.298839 226.826058 
L 712.549915 227.295255 
L 712.800992 227.326041 
L 713.052068 226.645686 
L 713.805297 227.200214 
L 714.30745 226.533361 
L 714.558527 227.226149 
L 714.809603 227.20572 
L 715.06068 227.38115 
L 715.311756 226.608355 
L 715.562833 227.117233 
L 715.813909 227.269892 
L 716.064986 227.169323 
L 716.316062 226.837527 
L 716.567139 227.383928 
L 716.818215 226.758666 
L 717.069292 227.16262 
L 717.320368 226.365948 
L 717.571445 227.036308 
L 717.822521 227.224872 
L 718.073597 226.785672 
L 718.324674 227.004444 
L 718.57575 226.908233 
L 718.826827 226.973121 
L 719.077903 226.740018 
L 719.32898 226.999816 
L 719.831133 226.947811 
L 720.082209 226.661271 
L 720.333286 227.020454 
L 720.584362 225.952597 
L 720.835439 226.813686 
L 721.086515 227.153019 
L 721.337592 227.165026 
L 721.588668 226.856742 
L 721.839745 227.35159 
L 722.090821 226.531509 
L 722.341898 226.637904 
L 722.592974 227.150448 
L 722.844051 227.396215 
L 723.095127 227.136093 
L 723.346203 227.20327 
L 723.59728 226.870524 
L 724.350509 226.653787 
L 724.852662 226.88506 
L 725.103739 226.755413 
L 725.354815 226.406057 
L 725.605892 226.924948 
L 726.108045 226.542066 
L 726.610198 227.069136 
L 726.861274 226.65082 
L 727.112351 226.974044 
L 727.363427 225.967976 
L 727.614504 226.65858 
L 728.116656 226.824861 
L 728.367733 227.070467 
L 728.618809 226.326222 
L 728.869886 226.374337 
L 729.120962 226.885506 
L 729.372039 226.816689 
L 729.623115 226.155624 
L 730.125268 226.672598 
L 730.376345 226.705318 
L 730.627421 227.012553 
L 730.878498 226.847919 
L 731.129574 227.02585 
L 731.380651 226.599569 
L 731.631727 226.835077 
L 731.882804 226.829137 
L 732.13388 227.03567 
L 732.384957 226.562318 
L 732.636033 227.094624 
L 732.88711 226.920349 
L 733.138186 227.047529 
L 733.389262 226.956875 
L 733.640339 227.104788 
L 734.142492 227.104363 
L 734.393568 227.278372 
L 734.644645 227.210826 
L 734.895721 226.95971 
L 735.146798 227.170768 
L 735.397874 226.923926 
L 735.648951 227.363873 
L 735.900027 227.10078 
L 736.653257 227.310876 
L 736.904333 226.840304 
L 737.15541 227.235306 
L 737.406486 227.301909 
L 737.657563 227.147845 
L 738.159716 227.247666 
L 738.410792 227.097658 
L 738.661868 227.2906 
L 739.164021 227.077123 
L 739.415098 227.23989 
L 739.666174 226.285162 
L 740.168327 227.15839 
L 740.419404 226.857758 
L 740.67048 227.287418 
L 741.172633 226.56993 
L 741.42371 226.992917 
L 741.925863 227.278997 
L 742.176939 227.348107 
L 742.679092 226.69843 
L 742.930169 227.31309 
L 743.432321 226.655842 
L 743.683398 227.316587 
L 743.934474 226.787117 
L 744.185551 226.726539 
L 744.436627 227.20284 
L 744.687704 226.791175 
L 744.93878 227.154106 
L 745.189857 226.595813 
L 745.440933 227.000147 
L 745.69201 226.839325 
L 745.943086 227.139534 
L 746.194163 226.992766 
L 746.445239 227.313232 
L 746.696316 227.101513 
L 746.947392 226.50309 
L 747.198469 226.615305 
L 747.449545 226.983226 
L 747.700622 227.119439 
L 747.951698 226.975881 
L 748.202775 226.476958 
L 748.453851 227.162932 
L 748.704927 226.593177 
L 749.458157 227.304542 
L 749.709233 227.282012 
L 750.211386 226.98914 
L 750.462463 227.376286 
L 750.713539 226.913708 
L 750.964616 227.059388 
L 751.215692 226.612395 
L 751.717845 227.287451 
L 751.968922 227.311239 
L 752.722151 226.758492 
L 752.973228 227.205109 
L 753.224304 226.522529 
L 753.47538 227.089715 
L 753.726457 227.306791 
L 754.22861 226.92826 
L 754.479686 226.295348 
L 754.730763 227.020347 
L 754.981839 226.506943 
L 755.232916 227.309491 
L 755.483992 226.430017 
L 755.986145 227.13799 
L 756.237222 226.856276 
L 756.488298 227.371482 
L 756.739375 227.33542 
L 756.990451 227.01245 
L 757.492604 227.108186 
L 757.743681 226.997392 
L 757.994757 227.188036 
L 758.49691 227.002918 
L 758.747986 227.211855 
L 759.501216 227.249561 
L 759.752292 226.893748 
L 760.254445 227.215071 
L 760.505522 226.574088 
L 760.756598 226.700495 
L 761.007675 227.113414 
L 761.760904 227.190194 
L 762.011981 227.211932 
L 762.263057 226.713833 
L 762.76521 226.861525 
L 763.267363 226.385948 
L 763.769516 226.934472 
L 764.020592 226.734014 
L 764.271669 226.729823 
L 764.522745 226.152667 
L 764.773822 226.496575 
L 765.024898 226.226921 
L 765.275975 226.963216 
L 765.527051 227.066336 
L 765.778128 225.836759 
L 766.029204 225.908606 
L 766.280281 226.851642 
L 766.782434 226.147054 
L 767.03351 226.642131 
L 767.284587 226.447871 
L 767.535663 227.048594 
L 767.78674 225.81115 
L 768.037816 226.635638 
L 768.288893 226.408611 
L 768.539969 226.884515 
L 768.791045 226.670721 
L 769.042122 226.732137 
L 769.293198 227.063851 
L 769.795351 227.127121 
L 770.046428 227.381945 
L 770.548581 226.615743 
L 770.799657 227.23565 
L 771.30181 226.980623 
L 771.552887 227.131002 
L 771.803963 226.882578 
L 772.05504 226.941618 
L 772.306116 226.841781 
L 772.557193 227.067145 
L 772.808269 227.076908 
L 773.310422 227.359954 
L 773.561499 227.186464 
L 773.812575 227.203885 
L 774.063651 227.099866 
L 774.314728 227.367151 
L 774.565804 227.333982 
L 774.816881 227.165972 
L 775.067957 227.196204 
L 775.319034 227.376238 
L 775.57011 226.853087 
L 775.821187 227.24239 
L 776.072263 226.698887 
L 776.32334 227.37668 
L 776.825493 227.226101 
L 777.076569 226.733704 
L 777.327646 227.256754 
L 777.829799 227.361796 
L 778.080875 227.104975 
L 778.834104 227.097671 
L 779.085181 226.514357 
L 779.336257 226.756532 
L 779.587334 227.219647 
L 779.83841 226.988834 
L 780.089487 227.152114 
L 780.340563 226.845935 
L 780.59164 227.143377 
L 780.842716 226.553523 
L 781.093793 226.991534 
L 781.344869 226.873878 
L 782.098099 226.798715 
L 782.349175 226.419712 
L 782.600252 226.633031 
L 782.851328 227.05162 
L 783.102405 227.04743 
L 783.353481 226.787458 
L 783.604558 227.007874 
L 784.10671 226.660056 
L 784.357787 226.704291 
L 784.608863 227.049349 
L 784.85994 227.122285 
L 785.111016 226.721854 
L 785.362093 227.171586 
L 785.613169 226.826654 
L 785.864246 227.193392 
L 786.115322 226.932269 
L 786.366399 227.1063 
L 786.617475 226.687148 
L 786.868552 227.062068 
L 787.119628 226.631499 
L 787.370705 227.278066 
L 787.621781 227.065235 
L 787.872858 226.697602 
L 788.123934 226.732344 
L 788.375011 227.083553 
L 788.877164 227.096189 
L 789.12824 226.906952 
L 789.630393 227.338593 
L 789.881469 226.604586 
L 790.132546 227.213429 
L 790.383622 227.042986 
L 790.634699 227.092036 
L 790.885775 227.319275 
L 791.136852 226.948802 
L 791.387928 227.246345 
L 791.890081 227.004195 
L 792.141158 227.005772 
L 792.392234 227.400123 
L 792.643311 226.752987 
L 792.894387 227.231113 
L 793.145464 227.149882 
L 793.39654 226.580282 
L 793.647617 227.331372 
L 793.898693 227.251561 
L 794.149769 227.328485 
L 794.400846 226.996136 
L 794.651922 227.08726 
L 794.902999 226.836955 
L 795.154075 227.353398 
L 795.656228 226.875136 
L 795.907305 227.383733 
L 796.158381 227.256014 
L 796.409458 227.279285 
L 796.660534 227.080498 
L 796.911611 227.323902 
L 797.162687 226.997046 
L 797.413764 227.224156 
L 797.66484 226.721112 
L 797.915917 227.065848 
L 798.166993 226.324054 
L 798.669146 227.13807 
L 799.422375 226.890253 
L 799.673452 226.902295 
L 799.924528 227.163158 
L 800.426681 226.247716 
L 800.677758 227.114697 
L 800.928834 226.961829 
L 801.179911 226.958693 
L 801.430987 226.803156 
L 801.682064 226.191286 
L 801.93314 226.22736 
L 802.184217 226.641698 
L 802.435293 226.651717 
L 802.68637 226.213616 
L 802.937446 226.10756 
L 803.690676 227.062981 
L 803.941752 227.019691 
L 804.192828 226.3608 
L 804.694981 226.612612 
L 805.197134 226.857537 
L 805.448211 226.964097 
L 805.699287 225.707554 
L 805.950364 227.036973 
L 806.20144 226.886375 
L 806.95467 227.096116 
L 807.205746 226.958331 
L 807.456823 227.007675 
L 807.707899 227.279552 
L 807.958976 227.078288 
L 808.210052 226.118158 
L 808.461129 226.793375 
L 808.712205 227.106489 
L 809.465434 227.07968 
L 809.716511 227.395463 
L 810.218664 227.350037 
L 810.46974 226.959964 
L 810.720817 227.282908 
L 810.971893 227.409886 
L 811.22297 227.388704 
L 811.474046 226.963583 
L 811.725123 227.311049 
L 811.976199 226.824929 
L 812.227276 227.275961 
L 812.729429 226.718773 
L 812.980505 227.319199 
L 813.231582 226.997908 
L 813.482658 227.20061 
L 813.984811 227.102119 
L 814.235888 227.22453 
L 814.486964 226.943319 
L 814.73804 227.26479 
L 814.989117 227.186058 
L 815.49127 227.293489 
L 815.742346 226.913326 
L 815.993423 227.222185 
L 816.244499 226.71264 
L 816.495576 227.260554 
L 816.997729 227.069359 
L 817.248805 227.236889 
L 817.499882 226.619876 
L 817.750958 227.156771 
L 818.002035 227.025999 
L 818.253111 226.521286 
L 818.755264 227.232771 
L 819.006341 227.232309 
L 819.257417 226.968614 
L 819.508493 226.49863 
L 819.75957 226.984432 
L 820.010646 226.642061 
L 820.261723 227.052243 
L 820.512799 227.066486 
L 820.763876 226.604093 
L 821.014952 227.052183 
L 821.266029 227.24319 
L 821.768182 226.481937 
L 822.521411 227.050588 
L 822.772488 226.604858 
L 823.023564 226.786884 
L 823.274641 227.162128 
L 823.525717 226.683296 
L 823.776794 227.042725 
L 824.02787 227.137857 
L 824.278947 226.762317 
L 824.781099 226.902324 
L 825.032176 226.677166 
L 825.534329 226.935782 
L 825.785405 226.895913 
L 826.036482 226.605447 
L 826.287558 227.143236 
L 826.538635 226.906922 
L 826.789711 227.320399 
L 827.291864 227.191976 
L 827.542941 227.14644 
L 827.794017 226.433458 
L 828.045094 227.186446 
L 828.547247 227.205618 
L 828.798323 227.362514 
L 829.0494 227.18214 
L 829.300476 226.672711 
L 829.551552 227.293232 
L 829.802629 227.016104 
L 830.053705 227.414286 
L 830.304782 227.184323 
L 830.806935 227.246531 
L 831.058011 227.084322 
L 831.309088 227.099107 
L 831.560164 227.369142 
L 831.811241 227.172281 
L 832.062317 227.351264 
L 832.313394 227.246662 
L 832.56447 226.838827 
L 833.066623 227.260462 
L 833.568776 227.172714 
L 833.819853 226.871966 
L 834.070929 226.793173 
L 834.322006 227.286803 
L 834.573082 225.851981 
L 834.824158 226.811865 
L 835.326311 227.091116 
L 835.577388 226.704659 
L 835.828464 226.900313 
L 836.330617 226.412607 
L 836.581694 226.73293 
L 836.83277 226.189874 
L 837.083847 226.347901 
L 837.334923 226.848556 
L 837.586 226.792335 
L 837.837076 227.237097 
L 838.339229 226.084345 
L 838.590306 226.432183 
L 838.841382 227.031832 
L 839.343535 225.878212 
L 839.594611 226.206224 
L 839.845688 227.068975 
L 840.096764 226.38825 
L 840.347841 226.885947 
L 840.598917 226.551763 
L 840.849994 226.862746 
L 841.10107 226.978487 
L 841.603223 225.886105 
L 841.8543 226.992311 
L 842.105376 226.904366 
L 842.356453 226.453208 
L 842.607529 227.40357 
L 842.858606 226.813772 
L 843.109682 226.606585 
L 843.360759 226.830618 
L 843.611835 226.840039 
L 843.862912 227.204303 
L 844.113988 226.448061 
L 844.365065 226.822056 
L 844.616141 226.823879 
L 844.867217 226.663755 
L 845.36937 227.307192 
L 845.620447 226.587587 
L 846.1226 227.138173 
L 846.373676 227.091628 
L 846.624753 227.292905 
L 846.875829 227.109492 
L 847.377982 227.28702 
L 847.629059 227.436965 
L 847.880135 227.229053 
L 848.382288 227.317884 
L 849.135518 227.365507 
L 849.386594 226.902092 
L 849.637671 227.368373 
L 849.888747 227.104715 
L 850.139823 227.211411 
L 850.3909 226.96122 
L 850.641976 226.966815 
L 850.893053 227.270705 
L 851.144129 226.951004 
L 851.395206 226.819933 
L 851.646282 226.859143 
L 851.897359 227.138664 
L 852.148435 226.991765 
L 852.650588 227.012337 
L 852.901665 226.761858 
L 853.152741 226.959517 
L 853.403818 226.953476 
L 853.654894 227.138277 
L 853.905971 226.751336 
L 854.157047 227.267857 
L 854.408124 227.030832 
L 854.6592 226.285772 
L 854.910276 226.382697 
L 855.412429 226.972031 
L 855.663506 226.572101 
L 856.165659 226.436261 
L 856.416735 226.881466 
L 856.667812 226.269001 
L 856.918888 226.976769 
L 857.169965 226.90316 
L 857.421041 226.461174 
L 857.672118 227.290979 
L 857.923194 226.653947 
L 858.676424 227.165783 
L 858.9275 226.874254 
L 859.178577 226.924822 
L 859.429653 225.693032 
L 859.68073 226.619863 
L 860.182882 226.78902 
L 860.433959 226.446555 
L 860.685035 226.742305 
L 860.936112 225.887466 
L 861.438265 227.187893 
L 861.689341 226.140752 
L 862.191494 227.419975 
L 862.693647 226.03765 
L 862.944724 226.106094 
L 863.1958 226.630719 
L 863.446877 226.480475 
L 863.697953 227.029413 
L 864.451183 227.033173 
L 864.702259 227.182571 
L 864.953335 226.746285 
L 865.204412 227.388918 
L 865.455488 226.410358 
L 865.706565 226.976837 
L 865.957641 227.11354 
L 866.208718 227.00447 
L 866.459794 227.221453 
L 867.213024 226.989479 
L 867.4641 226.726159 
L 867.715177 227.359499 
L 867.966253 226.591709 
L 868.21733 227.354426 
L 868.468406 226.79425 
L 868.719483 226.943352 
L 868.970559 227.237524 
L 869.472712 227.25481 
L 869.723789 226.82582 
L 869.974865 226.688289 
L 870.225941 227.231281 
L 870.728094 226.633656 
L 870.979171 226.891774 
L 871.230247 226.664891 
L 871.481324 226.925128 
L 871.7324 227.011765 
L 871.983477 225.775322 
L 872.234553 226.758429 
L 872.48563 225.610624 
L 872.987783 227.05477 
L 873.238859 225.668159 
L 873.489936 226.200385 
L 873.741012 225.828286 
L 873.992089 225.737754 
L 874.494242 225.230078 
L 874.745318 226.584681 
L 875.247471 226.734119 
L 875.498547 226.408029 
L 875.749624 226.884069 
L 876.0007 225.783577 
L 876.251777 226.639438 
L 876.502853 225.495435 
L 876.75393 226.911292 
L 877.005006 226.659113 
L 877.256083 226.03245 
L 877.507159 226.267294 
L 877.758236 226.211368 
L 878.009312 225.709049 
L 878.260389 227.161828 
L 878.511465 226.760728 
L 878.762542 226.740153 
L 879.264695 227.331038 
L 879.515771 226.319102 
L 879.766848 227.124842 
L 880.017924 227.0644 
L 880.520077 226.539768 
L 880.771153 226.926073 
L 881.02223 226.489888 
L 881.273306 227.075243 
L 881.524383 226.932244 
L 881.775459 226.550144 
L 882.026536 227.15109 
L 882.277612 226.871684 
L 882.528689 227.256409 
L 882.779765 226.96425 
L 883.030842 226.89339 
L 883.281918 227.279821 
L 883.532995 227.277687 
L 883.784071 226.191046 
L 884.537301 227.289858 
L 884.788377 227.126286 
L 885.039454 226.78659 
L 885.29053 226.749996 
L 885.541606 227.402435 
L 886.043759 226.20289 
L 886.545912 226.871313 
L 886.796989 226.572962 
L 887.048065 226.879022 
L 887.299142 226.645808 
L 887.550218 226.611579 
L 887.801295 225.964595 
L 888.303448 226.629797 
L 888.554524 227.183516 
L 888.805601 225.386576 
L 889.056677 225.965751 
L 889.307754 224.696962 
L 889.55883 226.382939 
L 889.809907 226.814542 
L 890.060983 226.814015 
L 890.563136 226.177699 
L 890.814212 226.434335 
L 891.065289 225.192743 
L 891.567442 226.993738 
L 891.818518 225.703717 
L 892.069595 226.511992 
L 892.320671 226.287364 
L 892.571748 224.560339 
L 892.822824 225.698749 
L 893.073901 225.330089 
L 893.324977 225.367103 
L 893.576054 225.5749 
L 893.82713 226.51353 
L 894.078207 226.391502 
L 894.329283 224.353526 
L 894.58036 226.448217 
L 895.082513 226.635724 
L 895.333589 226.348777 
L 895.584665 226.395927 
L 895.835742 225.673175 
L 896.588971 226.8598 
L 896.840048 226.453431 
L 897.091124 226.295797 
L 897.342201 226.573693 
L 897.593277 226.334126 
L 898.09543 226.589866 
L 898.346507 225.974961 
L 898.597583 226.644188 
L 898.84866 226.468631 
L 899.099736 226.091995 
L 899.350813 227.16386 
L 899.601889 226.543269 
L 899.852966 226.307187 
L 900.104042 226.847538 
L 900.355119 227.078235 
L 900.606195 226.713011 
L 900.857271 226.948481 
L 901.108348 226.486742 
L 901.610501 227.097427 
L 901.861577 226.616138 
L 902.112654 226.83089 
L 902.36373 226.602912 
L 902.614807 227.014261 
L 902.865883 226.71487 
L 903.368036 225.843419 
L 903.619113 226.628715 
L 903.870189 226.606846 
L 904.121266 225.430624 
L 904.372342 226.689184 
L 904.623419 226.322676 
L 904.874495 224.823116 
L 905.125572 225.948703 
L 905.376648 225.823504 
L 905.627724 225.953939 
L 905.878801 226.983155 
L 906.129877 226.230009 
L 906.380954 226.718312 
L 906.63203 224.957442 
L 906.883107 224.844881 
L 907.134183 223.998792 
L 907.636336 225.534357 
L 907.887413 224.566526 
L 908.138489 225.732061 
L 908.389566 224.989808 
L 908.640642 226.510793 
L 908.891719 225.171126 
L 909.142795 225.949094 
L 909.393872 224.447788 
L 909.644948 223.926218 
L 910.147101 225.578128 
L 910.398178 224.346788 
L 910.649254 225.507719 
L 910.90033 225.812205 
L 911.151407 226.32571 
L 911.402483 226.082823 
L 911.65356 226.012298 
L 911.904636 225.256628 
L 911.904636 225.256628 
" style="fill:none;stroke:#1f77b4;stroke-linecap:square;stroke-width:1.5;"/>
   </g>
   <g id="patch_3">
    <path d="M 121.541 237.324063 
L 121.541 19.884063 
" style="fill:none;stroke:#000000;stroke-linecap:square;stroke-linejoin:miter;stroke-width:0.8;"/>
   </g>
   <g id="patch_4">
    <path d="M 949.541 237.324063 
L 949.541 19.884063 
" style="fill:none;stroke:#000000;stroke-linecap:square;stroke-linejoin:miter;stroke-width:0.8;"/>
   </g>
   <g id="patch_5">
    <path d="M 121.541 237.324063 
L 949.541 237.324063 
" style="fill:none;stroke:#000000;stroke-linecap:square;stroke-linejoin:miter;stroke-width:0.8;"/>
   </g>
   <g id="patch_6">
    <path d="M 121.541 19.884063 
L 949.541 19.884063 
" style="fill:none;stroke:#000000;stroke-linecap:square;stroke-linejoin:miter;stroke-width:0.8;"/>
   </g>
   <g id="legend_1">
    <g id="patch_7">
     <path d="M 963.021 105.383438 
L 1357.701 105.383438 
Q 1362.901 105.383438 1362.901 100.183438 
L 1362.901 25.084063 
Q 1362.901 19.884063 1357.701 19.884063 
L 963.021 19.884063 
Q 957.821 19.884063 957.821 25.084063 
L 957.821 100.183438 
Q 957.821 105.383438 963.021 105.383438 
z
" style="fill:#ffffff;opacity:0.8;stroke:#cccccc;stroke-linejoin:miter;"/>
    </g>
    <g id="line2d_14">
     <path d="M 968.221 40.11125 
L 1020.221 40.11125 
" style="fill:none;stroke:#1f77b4;stroke-linecap:square;stroke-width:1.5;"/>
    </g>
    <g id="line2d_15"/>
    <g id="text_9">
     <!-- Change point score -->
     <g transform="translate(1041.021 49.21125)scale(0.26 -0.26)">
      <use xlink:href="#ArialMT-67"/>
      <use x="72.216797" xlink:href="#ArialMT-104"/>
      <use x="127.832031" xlink:href="#ArialMT-97"/>
      <use x="183.447266" xlink:href="#ArialMT-110"/>
      <use x="239.0625" xlink:href="#ArialMT-103"/>
      <use x="294.677734" xlink:href="#ArialMT-101"/>
      <use x="350.292969" xlink:href="#ArialMT-32"/>
      <use x="378.076172" xlink:href="#ArialMT-112"/>
      <use x="433.691406" xlink:href="#ArialMT-111"/>
      <use x="489.306641" xlink:href="#ArialMT-105"/>
      <use x="511.523438" xlink:href="#ArialMT-110"/>
      <use x="567.138672" xlink:href="#ArialMT-116"/>
      <use x="594.921875" xlink:href="#ArialMT-32"/>
      <use x="622.705078" xlink:href="#ArialMT-115"/>
      <use x="672.705078" xlink:href="#ArialMT-99"/>
      <use x="722.705078" xlink:href="#ArialMT-111"/>
      <use x="778.320312" xlink:href="#ArialMT-114"/>
      <use x="811.621094" xlink:href="#ArialMT-101"/>
     </g>
    </g>
    <g id="PathCollection_2">
     <g>
      <use style="fill:#ff0000;stroke:#ff0000;" x="994.221" xlink:href="#m979d84fab3" y="82.438438"/>
     </g>
    </g>
    <g id="text_10">
     <!-- Change point (KL div &gt; $\zeta^*$) -->
     <defs>
      <path d="M 52.875 31.296875 
L 5.46875 11.03125 
L 5.46875 19.78125 
L 43.015625 35.359375 
L 5.46875 50.78125 
L 5.46875 59.515625 
L 52.875 39.5 
z
" id="ArialMT-62"/>
      <path d="M 29 68.296875 
L 29.5 66.796875 
Q 26 65.5 24.09375 63.59375 
Q 22.203125 61.703125 22.203125 59.796875 
Q 22.203125 55.796875 27 55 
Q 30 58.59375 35.390625 62.140625 
Q 40.796875 65.703125 44.40625 65.703125 
Q 47.5 65.703125 47.5 63.203125 
Q 47.5 59.90625 41.34375 56.25 
Q 35.203125 52.59375 28.5 52 
Q 21.40625 47.203125 14.75 36.34375 
Q 8.09375 25.5 8.09375 16.296875 
Q 8.09375 11.40625 10.84375 9.203125 
Q 13.59375 7 19 7 
Q 19.703125 7 21.09375 7.046875 
Q 22.5 7.09375 22.796875 7.09375 
Q 29.09375 7.09375 32.5 4.59375 
Q 35.90625 2.09375 35.90625 -2.09375 
Q 35.90625 -6.59375 33.09375 -10.59375 
Q 30.90625 -14 27 -16.25 
Q 23.09375 -18.5 19.703125 -18.5 
Q 16.90625 -18.5 14.953125 -17.203125 
Q 13 -15.90625 13 -13.296875 
Q 13 -11.59375 14.203125 -10.34375 
Q 15.40625 -9.09375 17.296875 -9.09375 
Q 18.90625 -9.09375 20.75 -10.546875 
Q 22.59375 -12 23.796875 -12 
Q 27.09375 -12 29.5 -10.046875 
Q 31.90625 -8.09375 31.90625 -5.09375 
Q 31.90625 -0.09375 24.296875 -0.09375 
Q 23 -0.09375 19.84375 -0.59375 
Q 16.703125 -1.09375 15.203125 -1.09375 
Q 3 -1.09375 3 10.703125 
Q 3 31.5 24.203125 52.203125 
L 24.09375 52.296875 
Q 21.5 52.296875 19.296875 53.84375 
Q 17.09375 55.40625 17.09375 58.09375 
Q 17.09375 61.296875 20.140625 64.046875 
Q 23.203125 66.796875 29 68.296875 
z
" id="STIXGeneral-Italic-950"/>
      <path d="M 26.796875 47.09375 
L 27.703125 46.5 
Q 31.40625 44.09375 37.296875 43.09375 
Q 40.703125 42.59375 42 41.640625 
Q 43.296875 40.703125 43.296875 38.796875 
Q 43.296875 37.09375 42.296875 36 
Q 41.296875 34.90625 39.703125 34.90625 
Q 37.203125 34.90625 33.703125 39.296875 
Q 31.40625 42.09375 26.796875 45.09375 
L 26 45.59375 
L 26 44.703125 
Q 26 39.09375 28 33.703125 
Q 28.90625 31.203125 28.90625 30.40625 
Q 28.90625 28.90625 27.65625 27.703125 
Q 26.40625 26.5 24.90625 26.5 
Q 23.5 26.5 22.390625 27.59375 
Q 21.296875 28.703125 21.296875 30.09375 
Q 21.296875 31.5 22.5 34.796875 
Q 24.09375 39.09375 24.09375 44.703125 
L 24.09375 45.59375 
Q 20.09375 43.09375 18.90625 42 
Q 17.703125 40.796875 14.796875 37.5 
Q 12.59375 35 10.5 35 
Q 8.796875 35 7.796875 36 
Q 6.796875 37 6.796875 38.59375 
Q 6.796875 40.5 8.25 41.5 
Q 9.703125 42.5 13.09375 43.09375 
Q 16.59375 43.796875 18.4375 44.5 
Q 20.296875 45.203125 23.40625 47.09375 
Q 19.09375 49.703125 13.703125 50.796875 
Q 10 51.59375 8.5 52.59375 
Q 7 53.59375 7 55.40625 
Q 7 57 7.890625 58.046875 
Q 8.796875 59.09375 10.296875 59.09375 
Q 12.296875 59.09375 15.203125 55.90625 
Q 19.40625 51.203125 24.09375 48.59375 
L 24.09375 49.90625 
Q 24.09375 54 22.59375 59 
Q 21.5 62.296875 21.5 64.203125 
Q 21.5 65.59375 22.546875 66.59375 
Q 23.59375 67.59375 25.09375 67.59375 
Q 26.59375 67.59375 27.6875 66.546875 
Q 28.796875 65.5 28.796875 64 
Q 28.796875 62.40625 27.703125 59.296875 
Q 26 54.796875 26 51 
L 26 48.59375 
Q 29.40625 50.59375 31.796875 52.796875 
Q 32.296875 53.296875 33.640625 54.75 
Q 35 56.203125 35.796875 57 
Q 36.59375 57.796875 37.640625 58.546875 
Q 38.703125 59.296875 39.5 59.296875 
Q 41.203125 59.296875 42.203125 58.25 
Q 43.203125 57.203125 43.203125 55.5 
Q 43.203125 53.5 42.046875 52.546875 
Q 40.90625 51.59375 38 51.203125 
Q 32.40625 50.296875 26.796875 47.09375 
z
" id="STIXGeneral-Regular-42"/>
     </defs>
     <g transform="translate(1041.021 89.263438)scale(0.26 -0.26)">
      <use transform="translate(0 0.409375)" xlink:href="#ArialMT-67"/>
      <use transform="translate(72.216797 0.409375)" xlink:href="#ArialMT-104"/>
      <use transform="translate(127.832031 0.409375)" xlink:href="#ArialMT-97"/>
      <use transform="translate(183.447266 0.409375)" xlink:href="#ArialMT-110"/>
      <use transform="translate(239.0625 0.409375)" xlink:href="#ArialMT-103"/>
      <use transform="translate(294.677734 0.409375)" xlink:href="#ArialMT-101"/>
      <use transform="translate(350.292969 0.409375)" xlink:href="#ArialMT-32"/>
      <use transform="translate(378.076172 0.409375)" xlink:href="#ArialMT-112"/>
      <use transform="translate(433.691406 0.409375)" xlink:href="#ArialMT-111"/>
      <use transform="translate(489.306641 0.409375)" xlink:href="#ArialMT-105"/>
      <use transform="translate(511.523438 0.409375)" xlink:href="#ArialMT-110"/>
      <use transform="translate(567.138672 0.409375)" xlink:href="#ArialMT-116"/>
      <use transform="translate(594.921875 0.409375)" xlink:href="#ArialMT-32"/>
      <use transform="translate(622.705078 0.409375)" xlink:href="#ArialMT-40"/>
      <use transform="translate(656.005859 0.409375)" xlink:href="#ArialMT-75"/>
      <use transform="translate(722.705078 0.409375)" xlink:href="#ArialMT-76"/>
      <use transform="translate(778.320312 0.409375)" xlink:href="#ArialMT-32"/>
      <use transform="translate(806.103516 0.409375)" xlink:href="#ArialMT-100"/>
      <use transform="translate(861.71875 0.409375)" xlink:href="#ArialMT-105"/>
      <use transform="translate(883.935547 0.409375)" xlink:href="#ArialMT-118"/>
      <use transform="translate(933.935547 0.409375)" xlink:href="#ArialMT-32"/>
      <use transform="translate(961.71875 0.409375)" xlink:href="#ArialMT-62"/>
      <use transform="translate(1020.117188 0.409375)" xlink:href="#ArialMT-32"/>
      <use transform="translate(1047.900391 0.409375)" xlink:href="#STIXGeneral-Italic-950"/>
      <use transform="translate(1114.664163 35.684375)scale(0.7)" xlink:href="#STIXGeneral-Regular-42"/>
      <use transform="translate(1164.181525 0.409375)" xlink:href="#ArialMT-41"/>
     </g>
    </g>
   </g>
  </g>
 </g>
 <defs>
  <clipPath id="p3b36899a95">
   <rect height="217.44" width="828" x="121.541" y="19.884063"/>
  </clipPath>
 </defs>
</svg>
