<?xml version="1.0" encoding="utf-8" standalone="no"?>
<!DOCTYPE svg PUBLIC "-//W3C//DTD SVG 1.1//EN"
  "http://www.w3.org/Graphics/SVG/1.1/DTD/svg11.dtd">
<!-- Created with matplotlib (https://matplotlib.org/) -->
<svg height="303.907188pt" version="1.1" viewBox="0 0 1366.601 303.907188" width="1366.601pt" xmlns="http://www.w3.org/2000/svg" xmlns:xlink="http://www.w3.org/1999/xlink">
 <defs>
  <style type="text/css">
*{stroke-linecap:butt;stroke-linejoin:round;}
  </style>
 </defs>
 <g id="figure_1">
  <g id="patch_1">
   <path d="M 0 303.907188 
L 1366.601 303.907188 
L 1366.601 0 
L 0 0 
z
" style="fill:#ffffff;"/>
  </g>
  <g id="axes_1">
   <g id="patch_2">
    <path d="M 118.041 237.324063 
L 946.041 237.324063 
L 946.041 19.884063 
L 118.041 19.884063 
z
" style="fill:#ffffff;"/>
   </g>
   <g id="PathCollection_1">
    <defs>
     <path d="M 0 3 
C 0.795609 3 1.55874 2.683901 2.12132 2.12132 
C 2.683901 1.55874 3 0.795609 3 0 
C 3 -0.795609 2.683901 -1.55874 2.12132 -2.12132 
C 1.55874 -2.683901 0.795609 -3 0 -3 
C -0.795609 -3 -1.55874 -2.683901 -2.12132 -2.12132 
C -2.683901 -1.55874 -3 -0.795609 -3 0 
C -3 0.795609 -2.683901 1.55874 -2.12132 2.12132 
C -1.55874 2.683901 -0.795609 3 0 3 
z
" id="m528a051598" style="stroke:#ff0000;"/>
    </defs>
    <g clip-path="url(#p09638af699)">
     <use style="fill:#ff0000;stroke:#ff0000;" x="155.677364" xlink:href="#m528a051598" y="29.767699"/>
     <use style="fill:#ff0000;stroke:#ff0000;" x="157.434899" xlink:href="#m528a051598" y="207.574757"/>
     <use style="fill:#ff0000;stroke:#ff0000;" x="406.502762" xlink:href="#m528a051598" y="209.571409"/>
     <use style="fill:#ff0000;stroke:#ff0000;" x="406.753839" xlink:href="#m528a051598" y="209.023785"/>
    </g>
   </g>
   <g id="matplotlib.axis_1">
    <g id="xtick_1">
     <g id="line2d_1">
      <path clip-path="url(#p09638af699)" d="M 155.426287 237.324063 
L 155.426287 19.884063 
" style="fill:none;stroke:#b0b0b0;stroke-linecap:square;stroke-width:0.8;"/>
     </g>
     <g id="line2d_2">
      <defs>
       <path d="M 0 0 
L 0 -3.5 
" id="m750b039e63" style="stroke:#000000;stroke-width:0.8;"/>
      </defs>
      <g>
       <use style="stroke:#000000;stroke-width:0.8;" x="155.426287" xlink:href="#m750b039e63" y="237.324063"/>
      </g>
     </g>
     <g id="text_1">
      <!-- 0 -->
      <defs>
       <path d="M 4.15625 35.296875 
Q 4.15625 48 6.765625 55.734375 
Q 9.375 63.484375 14.515625 67.671875 
Q 19.671875 71.875 27.484375 71.875 
Q 33.25 71.875 37.59375 69.546875 
Q 41.9375 67.234375 44.765625 62.859375 
Q 47.609375 58.5 49.21875 52.21875 
Q 50.828125 45.953125 50.828125 35.296875 
Q 50.828125 22.703125 48.234375 14.96875 
Q 45.65625 7.234375 40.5 3 
Q 35.359375 -1.21875 27.484375 -1.21875 
Q 17.140625 -1.21875 11.234375 6.203125 
Q 4.15625 15.140625 4.15625 35.296875 
z
M 13.1875 35.296875 
Q 13.1875 17.671875 17.3125 11.828125 
Q 21.4375 6 27.484375 6 
Q 33.546875 6 37.671875 11.859375 
Q 41.796875 17.71875 41.796875 35.296875 
Q 41.796875 52.984375 37.671875 58.78125 
Q 33.546875 64.59375 27.390625 64.59375 
Q 21.34375 64.59375 17.71875 59.46875 
Q 13.1875 52.9375 13.1875 35.296875 
z
" id="ArialMT-48"/>
      </defs>
      <g transform="translate(147.640975 260.865938)scale(0.28 -0.28)">
       <use xlink:href="#ArialMT-48"/>
      </g>
     </g>
    </g>
    <g id="xtick_2">
     <g id="line2d_3">
      <path clip-path="url(#p09638af699)" d="M 406.502762 237.324063 
L 406.502762 19.884063 
" style="fill:none;stroke:#b0b0b0;stroke-linecap:square;stroke-width:0.8;"/>
     </g>
     <g id="line2d_4">
      <g>
       <use style="stroke:#000000;stroke-width:0.8;" x="406.502762" xlink:href="#m750b039e63" y="237.324063"/>
      </g>
     </g>
     <g id="text_2">
      <!-- 10 -->
      <defs>
       <path d="M 37.25 0 
L 28.46875 0 
L 28.46875 56 
Q 25.296875 52.984375 20.140625 49.953125 
Q 14.984375 46.921875 10.890625 45.40625 
L 10.890625 53.90625 
Q 18.265625 57.375 23.78125 62.296875 
Q 29.296875 67.234375 31.59375 71.875 
L 37.25 71.875 
z
" id="ArialMT-49"/>
      </defs>
      <g transform="translate(390.932137 260.865938)scale(0.28 -0.28)">
       <use xlink:href="#ArialMT-49"/>
       <use x="55.615234" xlink:href="#ArialMT-48"/>
      </g>
     </g>
    </g>
    <g id="xtick_3">
     <g id="line2d_5">
      <path clip-path="url(#p09638af699)" d="M 657.579238 237.324063 
L 657.579238 19.884063 
" style="fill:none;stroke:#b0b0b0;stroke-linecap:square;stroke-width:0.8;"/>
     </g>
     <g id="line2d_6">
      <g>
       <use style="stroke:#000000;stroke-width:0.8;" x="657.579238" xlink:href="#m750b039e63" y="237.324063"/>
      </g>
     </g>
     <g id="text_3">
      <!-- 20 -->
      <defs>
       <path d="M 50.34375 8.453125 
L 50.34375 0 
L 3.03125 0 
Q 2.9375 3.171875 4.046875 6.109375 
Q 5.859375 10.9375 9.828125 15.625 
Q 13.8125 20.3125 21.34375 26.46875 
Q 33.015625 36.03125 37.109375 41.625 
Q 41.21875 47.21875 41.21875 52.203125 
Q 41.21875 57.421875 37.46875 61 
Q 33.734375 64.59375 27.734375 64.59375 
Q 21.390625 64.59375 17.578125 60.78125 
Q 13.765625 56.984375 13.71875 50.25 
L 4.6875 51.171875 
Q 5.609375 61.28125 11.65625 66.578125 
Q 17.71875 71.875 27.9375 71.875 
Q 38.234375 71.875 44.234375 66.15625 
Q 50.25 60.453125 50.25 52 
Q 50.25 47.703125 48.484375 43.546875 
Q 46.734375 39.40625 42.65625 34.8125 
Q 38.578125 30.21875 29.109375 22.21875 
Q 21.1875 15.578125 18.9375 13.203125 
Q 16.703125 10.84375 15.234375 8.453125 
z
" id="ArialMT-50"/>
      </defs>
      <g transform="translate(642.008613 260.865938)scale(0.28 -0.28)">
       <use xlink:href="#ArialMT-50"/>
       <use x="55.615234" xlink:href="#ArialMT-48"/>
      </g>
     </g>
    </g>
    <g id="xtick_4">
     <g id="line2d_7">
      <path clip-path="url(#p09638af699)" d="M 908.655713 237.324063 
L 908.655713 19.884063 
" style="fill:none;stroke:#b0b0b0;stroke-linecap:square;stroke-width:0.8;"/>
     </g>
     <g id="line2d_8">
      <g>
       <use style="stroke:#000000;stroke-width:0.8;" x="908.655713" xlink:href="#m750b039e63" y="237.324063"/>
      </g>
     </g>
     <g id="text_4">
      <!-- 30 -->
      <defs>
       <path d="M 4.203125 18.890625 
L 12.984375 20.0625 
Q 14.5 12.59375 18.140625 9.296875 
Q 21.78125 6 27 6 
Q 33.203125 6 37.46875 10.296875 
Q 41.75 14.59375 41.75 20.953125 
Q 41.75 27 37.796875 30.921875 
Q 33.84375 34.859375 27.734375 34.859375 
Q 25.25 34.859375 21.53125 33.890625 
L 22.515625 41.609375 
Q 23.390625 41.5 23.921875 41.5 
Q 29.546875 41.5 34.03125 44.421875 
Q 38.53125 47.359375 38.53125 53.46875 
Q 38.53125 58.296875 35.25 61.46875 
Q 31.984375 64.65625 26.8125 64.65625 
Q 21.6875 64.65625 18.265625 61.421875 
Q 14.84375 58.203125 13.875 51.765625 
L 5.078125 53.328125 
Q 6.6875 62.15625 12.390625 67.015625 
Q 18.109375 71.875 26.609375 71.875 
Q 32.46875 71.875 37.390625 69.359375 
Q 42.328125 66.84375 44.9375 62.5 
Q 47.5625 58.15625 47.5625 53.265625 
Q 47.5625 48.640625 45.0625 44.828125 
Q 42.578125 41.015625 37.703125 38.765625 
Q 44.046875 37.3125 47.5625 32.6875 
Q 51.078125 28.078125 51.078125 21.140625 
Q 51.078125 11.765625 44.234375 5.25 
Q 37.40625 -1.265625 26.953125 -1.265625 
Q 17.53125 -1.265625 11.296875 4.34375 
Q 5.078125 9.96875 4.203125 18.890625 
z
" id="ArialMT-51"/>
      </defs>
      <g transform="translate(893.085088 260.865938)scale(0.28 -0.28)">
       <use xlink:href="#ArialMT-51"/>
       <use x="55.615234" xlink:href="#ArialMT-48"/>
      </g>
     </g>
    </g>
    <g id="text_5">
     <!-- time (s) -->
     <defs>
      <path d="M 25.78125 7.859375 
L 27.046875 0.09375 
Q 23.34375 -0.6875 20.40625 -0.6875 
Q 15.625 -0.6875 12.984375 0.828125 
Q 10.359375 2.34375 9.28125 4.8125 
Q 8.203125 7.28125 8.203125 15.1875 
L 8.203125 45.015625 
L 1.765625 45.015625 
L 1.765625 51.859375 
L 8.203125 51.859375 
L 8.203125 64.703125 
L 16.9375 69.96875 
L 16.9375 51.859375 
L 25.78125 51.859375 
L 25.78125 45.015625 
L 16.9375 45.015625 
L 16.9375 14.703125 
Q 16.9375 10.9375 17.40625 9.859375 
Q 17.875 8.796875 18.921875 8.15625 
Q 19.96875 7.515625 21.921875 7.515625 
Q 23.390625 7.515625 25.78125 7.859375 
z
" id="ArialMT-116"/>
      <path d="M 6.640625 61.46875 
L 6.640625 71.578125 
L 15.4375 71.578125 
L 15.4375 61.46875 
z
M 6.640625 0 
L 6.640625 51.859375 
L 15.4375 51.859375 
L 15.4375 0 
z
" id="ArialMT-105"/>
      <path d="M 6.59375 0 
L 6.59375 51.859375 
L 14.453125 51.859375 
L 14.453125 44.578125 
Q 16.890625 48.390625 20.9375 50.703125 
Q 25 53.03125 30.171875 53.03125 
Q 35.9375 53.03125 39.625 50.640625 
Q 43.3125 48.25 44.828125 43.953125 
Q 50.984375 53.03125 60.84375 53.03125 
Q 68.5625 53.03125 72.703125 48.75 
Q 76.859375 44.484375 76.859375 35.59375 
L 76.859375 0 
L 68.109375 0 
L 68.109375 32.671875 
Q 68.109375 37.9375 67.25 40.25 
Q 66.40625 42.578125 64.15625 43.984375 
Q 61.921875 45.40625 58.890625 45.40625 
Q 53.421875 45.40625 49.796875 41.765625 
Q 46.1875 38.140625 46.1875 30.125 
L 46.1875 0 
L 37.40625 0 
L 37.40625 33.6875 
Q 37.40625 39.546875 35.25 42.46875 
Q 33.109375 45.40625 28.21875 45.40625 
Q 24.515625 45.40625 21.359375 43.453125 
Q 18.21875 41.5 16.796875 37.734375 
Q 15.375 33.984375 15.375 26.90625 
L 15.375 0 
z
" id="ArialMT-109"/>
      <path d="M 42.09375 16.703125 
L 51.171875 15.578125 
Q 49.03125 7.625 43.21875 3.21875 
Q 37.40625 -1.171875 28.375 -1.171875 
Q 17 -1.171875 10.328125 5.828125 
Q 3.65625 12.84375 3.65625 25.484375 
Q 3.65625 38.578125 10.390625 45.796875 
Q 17.140625 53.03125 27.875 53.03125 
Q 38.28125 53.03125 44.875 45.953125 
Q 51.46875 38.875 51.46875 26.03125 
Q 51.46875 25.25 51.421875 23.6875 
L 12.75 23.6875 
Q 13.234375 15.140625 17.578125 10.59375 
Q 21.921875 6.0625 28.421875 6.0625 
Q 33.25 6.0625 36.671875 8.59375 
Q 40.09375 11.140625 42.09375 16.703125 
z
M 13.234375 30.90625 
L 42.1875 30.90625 
Q 41.609375 37.453125 38.875 40.71875 
Q 34.671875 45.796875 27.984375 45.796875 
Q 21.921875 45.796875 17.796875 41.75 
Q 13.671875 37.703125 13.234375 30.90625 
z
" id="ArialMT-101"/>
      <path id="ArialMT-32"/>
      <path d="M 23.390625 -21.046875 
Q 16.109375 -11.859375 11.078125 0.4375 
Q 6.0625 12.75 6.0625 25.921875 
Q 6.0625 37.546875 9.8125 48.1875 
Q 14.203125 60.546875 23.390625 72.796875 
L 29.6875 72.796875 
Q 23.78125 62.640625 21.875 58.296875 
Q 18.890625 51.5625 17.1875 44.234375 
Q 15.09375 35.109375 15.09375 25.875 
Q 15.09375 2.390625 29.6875 -21.046875 
z
" id="ArialMT-40"/>
      <path d="M 3.078125 15.484375 
L 11.765625 16.84375 
Q 12.5 11.625 15.84375 8.84375 
Q 19.1875 6.0625 25.203125 6.0625 
Q 31.25 6.0625 34.171875 8.515625 
Q 37.109375 10.984375 37.109375 14.3125 
Q 37.109375 17.28125 34.515625 19 
Q 32.71875 20.171875 25.53125 21.96875 
Q 15.875 24.421875 12.140625 26.203125 
Q 8.40625 27.984375 6.46875 31.125 
Q 4.546875 34.28125 4.546875 38.09375 
Q 4.546875 41.546875 6.125 44.5 
Q 7.71875 47.46875 10.453125 49.421875 
Q 12.5 50.921875 16.03125 51.96875 
Q 19.578125 53.03125 23.640625 53.03125 
Q 29.734375 53.03125 34.34375 51.265625 
Q 38.96875 49.515625 41.15625 46.5 
Q 43.359375 43.5 44.1875 38.484375 
L 35.59375 37.3125 
Q 35.015625 41.3125 32.203125 43.546875 
Q 29.390625 45.796875 24.265625 45.796875 
Q 18.21875 45.796875 15.625 43.796875 
Q 13.03125 41.796875 13.03125 39.109375 
Q 13.03125 37.40625 14.109375 36.03125 
Q 15.1875 34.625 17.484375 33.6875 
Q 18.796875 33.203125 25.25 31.453125 
Q 34.578125 28.953125 38.25 27.359375 
Q 41.9375 25.78125 44.03125 22.75 
Q 46.140625 19.734375 46.140625 15.234375 
Q 46.140625 10.84375 43.578125 6.953125 
Q 41.015625 3.078125 36.171875 0.953125 
Q 31.34375 -1.171875 25.25 -1.171875 
Q 15.140625 -1.171875 9.84375 3.03125 
Q 4.546875 7.234375 3.078125 15.484375 
z
" id="ArialMT-115"/>
      <path d="M 12.359375 -21.046875 
L 6.0625 -21.046875 
Q 20.65625 2.390625 20.65625 25.875 
Q 20.65625 35.0625 18.5625 44.09375 
Q 16.890625 51.421875 13.921875 58.15625 
Q 12.015625 62.546875 6.0625 72.796875 
L 12.359375 72.796875 
Q 21.53125 60.546875 25.921875 48.1875 
Q 29.6875 37.546875 29.6875 25.921875 
Q 29.6875 12.75 24.625 0.4375 
Q 19.578125 -11.859375 12.359375 -21.046875 
z
" id="ArialMT-41"/>
     </defs>
     <g transform="translate(485.381625 290.814063)scale(0.28 -0.28)">
      <use xlink:href="#ArialMT-116"/>
      <use x="27.783203" xlink:href="#ArialMT-105"/>
      <use x="50" xlink:href="#ArialMT-109"/>
      <use x="133.300781" xlink:href="#ArialMT-101"/>
      <use x="188.916016" xlink:href="#ArialMT-32"/>
      <use x="216.699219" xlink:href="#ArialMT-40"/>
      <use x="250" xlink:href="#ArialMT-115"/>
      <use x="300" xlink:href="#ArialMT-41"/>
     </g>
    </g>
   </g>
   <g id="matplotlib.axis_2">
    <g id="ytick_1">
     <g id="line2d_9">
      <path clip-path="url(#p09638af699)" d="M 118.041 227.440578 
L 946.041 227.440578 
" style="fill:none;stroke:#b0b0b0;stroke-linecap:square;stroke-width:0.8;"/>
     </g>
     <g id="line2d_10">
      <defs>
       <path d="M 0 0 
L 3.5 0 
" id="mfed43d97c0" style="stroke:#000000;stroke-width:0.8;"/>
      </defs>
      <g>
       <use style="stroke:#000000;stroke-width:0.8;" x="118.041" xlink:href="#mfed43d97c0" y="227.440578"/>
      </g>
     </g>
     <g id="text_6">
      <!-- 0 -->
      <g transform="translate(98.970375 237.461515)scale(0.28 -0.28)">
       <use xlink:href="#ArialMT-48"/>
      </g>
     </g>
    </g>
    <g id="ytick_2">
     <g id="line2d_11">
      <path clip-path="url(#p09638af699)" d="M 118.041 117.175754 
L 946.041 117.175754 
" style="fill:none;stroke:#b0b0b0;stroke-linecap:square;stroke-width:0.8;"/>
     </g>
     <g id="line2d_12">
      <g>
       <use style="stroke:#000000;stroke-width:0.8;" x="118.041" xlink:href="#mfed43d97c0" y="117.175754"/>
      </g>
     </g>
     <g id="text_7">
      <!-- 200 -->
      <g transform="translate(67.829125 127.196691)scale(0.28 -0.28)">
       <use xlink:href="#ArialMT-50"/>
       <use x="55.615234" xlink:href="#ArialMT-48"/>
       <use x="111.230469" xlink:href="#ArialMT-48"/>
      </g>
     </g>
    </g>
    <g id="text_8">
     <!-- Change point score -->
     <defs>
      <path d="M 58.796875 25.09375 
L 68.265625 22.703125 
Q 65.28125 11.03125 57.546875 4.90625 
Q 49.8125 -1.21875 38.625 -1.21875 
Q 27.046875 -1.21875 19.796875 3.484375 
Q 12.546875 8.203125 8.765625 17.140625 
Q 4.984375 26.078125 4.984375 36.328125 
Q 4.984375 47.515625 9.25 55.828125 
Q 13.53125 64.15625 21.40625 68.46875 
Q 29.296875 72.796875 38.765625 72.796875 
Q 49.515625 72.796875 56.828125 67.328125 
Q 64.15625 61.859375 67.046875 51.953125 
L 57.71875 49.75 
Q 55.21875 57.5625 50.484375 61.125 
Q 45.75 64.703125 38.578125 64.703125 
Q 30.328125 64.703125 24.78125 60.734375 
Q 19.234375 56.78125 16.984375 50.109375 
Q 14.75 43.453125 14.75 36.375 
Q 14.75 27.25 17.40625 20.4375 
Q 20.0625 13.625 25.671875 10.25 
Q 31.296875 6.890625 37.84375 6.890625 
Q 45.796875 6.890625 51.3125 11.46875 
Q 56.84375 16.0625 58.796875 25.09375 
z
" id="ArialMT-67"/>
      <path d="M 6.59375 0 
L 6.59375 71.578125 
L 15.375 71.578125 
L 15.375 45.90625 
Q 21.53125 53.03125 30.90625 53.03125 
Q 36.671875 53.03125 40.921875 50.75 
Q 45.171875 48.484375 47 44.484375 
Q 48.828125 40.484375 48.828125 32.859375 
L 48.828125 0 
L 40.046875 0 
L 40.046875 32.859375 
Q 40.046875 39.453125 37.1875 42.453125 
Q 34.328125 45.453125 29.109375 45.453125 
Q 25.203125 45.453125 21.75 43.421875 
Q 18.3125 41.40625 16.84375 37.9375 
Q 15.375 34.46875 15.375 28.375 
L 15.375 0 
z
" id="ArialMT-104"/>
      <path d="M 40.4375 6.390625 
Q 35.546875 2.25 31.03125 0.53125 
Q 26.515625 -1.171875 21.34375 -1.171875 
Q 12.796875 -1.171875 8.203125 3 
Q 3.609375 7.171875 3.609375 13.671875 
Q 3.609375 17.484375 5.34375 20.625 
Q 7.078125 23.78125 9.890625 25.6875 
Q 12.703125 27.59375 16.21875 28.5625 
Q 18.796875 29.25 24.03125 29.890625 
Q 34.671875 31.15625 39.703125 32.90625 
Q 39.75 34.71875 39.75 35.203125 
Q 39.75 40.578125 37.25 42.78125 
Q 33.890625 45.75 27.25 45.75 
Q 21.046875 45.75 18.09375 43.578125 
Q 15.140625 41.40625 13.71875 35.890625 
L 5.125 37.0625 
Q 6.296875 42.578125 8.984375 45.96875 
Q 11.671875 49.359375 16.75 51.1875 
Q 21.828125 53.03125 28.515625 53.03125 
Q 35.15625 53.03125 39.296875 51.46875 
Q 43.453125 49.90625 45.40625 47.53125 
Q 47.359375 45.171875 48.140625 41.546875 
Q 48.578125 39.3125 48.578125 33.453125 
L 48.578125 21.734375 
Q 48.578125 9.46875 49.140625 6.21875 
Q 49.703125 2.984375 51.375 0 
L 42.1875 0 
Q 40.828125 2.734375 40.4375 6.390625 
z
M 39.703125 26.03125 
Q 34.90625 24.078125 25.34375 22.703125 
Q 19.921875 21.921875 17.671875 20.9375 
Q 15.4375 19.96875 14.203125 18.09375 
Q 12.984375 16.21875 12.984375 13.921875 
Q 12.984375 10.40625 15.640625 8.0625 
Q 18.3125 5.71875 23.4375 5.71875 
Q 28.515625 5.71875 32.46875 7.9375 
Q 36.421875 10.15625 38.28125 14.015625 
Q 39.703125 17 39.703125 22.796875 
z
" id="ArialMT-97"/>
      <path d="M 6.59375 0 
L 6.59375 51.859375 
L 14.5 51.859375 
L 14.5 44.484375 
Q 20.21875 53.03125 31 53.03125 
Q 35.6875 53.03125 39.625 51.34375 
Q 43.5625 49.65625 45.515625 46.921875 
Q 47.46875 44.1875 48.25 40.4375 
Q 48.734375 37.984375 48.734375 31.890625 
L 48.734375 0 
L 39.9375 0 
L 39.9375 31.546875 
Q 39.9375 36.921875 38.90625 39.578125 
Q 37.890625 42.234375 35.28125 43.8125 
Q 32.671875 45.40625 29.15625 45.40625 
Q 23.53125 45.40625 19.453125 41.84375 
Q 15.375 38.28125 15.375 28.328125 
L 15.375 0 
z
" id="ArialMT-110"/>
      <path d="M 4.984375 -4.296875 
L 13.53125 -5.5625 
Q 14.0625 -9.515625 16.5 -11.328125 
Q 19.78125 -13.765625 25.4375 -13.765625 
Q 31.546875 -13.765625 34.859375 -11.328125 
Q 38.1875 -8.890625 39.359375 -4.5 
Q 40.046875 -1.8125 39.984375 6.78125 
Q 34.234375 0 25.640625 0 
Q 14.9375 0 9.078125 7.71875 
Q 3.21875 15.4375 3.21875 26.21875 
Q 3.21875 33.640625 5.90625 39.90625 
Q 8.59375 46.1875 13.6875 49.609375 
Q 18.796875 53.03125 25.6875 53.03125 
Q 34.859375 53.03125 40.828125 45.609375 
L 40.828125 51.859375 
L 48.921875 51.859375 
L 48.921875 7.03125 
Q 48.921875 -5.078125 46.453125 -10.125 
Q 44 -15.1875 38.640625 -18.109375 
Q 33.296875 -21.046875 25.484375 -21.046875 
Q 16.21875 -21.046875 10.5 -16.875 
Q 4.78125 -12.703125 4.984375 -4.296875 
z
M 12.25 26.859375 
Q 12.25 16.65625 16.296875 11.96875 
Q 20.359375 7.28125 26.46875 7.28125 
Q 32.515625 7.28125 36.609375 11.9375 
Q 40.71875 16.609375 40.71875 26.5625 
Q 40.71875 36.078125 36.5 40.90625 
Q 32.28125 45.75 26.3125 45.75 
Q 20.453125 45.75 16.34375 40.984375 
Q 12.25 36.234375 12.25 26.859375 
z
" id="ArialMT-103"/>
      <path d="M 6.59375 -19.875 
L 6.59375 51.859375 
L 14.59375 51.859375 
L 14.59375 45.125 
Q 17.4375 49.078125 21 51.046875 
Q 24.5625 53.03125 29.640625 53.03125 
Q 36.28125 53.03125 41.359375 49.609375 
Q 46.4375 46.1875 49.015625 39.953125 
Q 51.609375 33.734375 51.609375 26.3125 
Q 51.609375 18.359375 48.75 11.984375 
Q 45.90625 5.609375 40.453125 2.21875 
Q 35.015625 -1.171875 29 -1.171875 
Q 24.609375 -1.171875 21.109375 0.6875 
Q 17.625 2.546875 15.375 5.375 
L 15.375 -19.875 
z
M 14.546875 25.640625 
Q 14.546875 15.625 18.59375 10.84375 
Q 22.65625 6.0625 28.421875 6.0625 
Q 34.28125 6.0625 38.453125 11.015625 
Q 42.625 15.96875 42.625 26.375 
Q 42.625 36.28125 38.546875 41.203125 
Q 34.46875 46.140625 28.8125 46.140625 
Q 23.1875 46.140625 18.859375 40.890625 
Q 14.546875 35.640625 14.546875 25.640625 
z
" id="ArialMT-112"/>
      <path d="M 3.328125 25.921875 
Q 3.328125 40.328125 11.328125 47.265625 
Q 18.015625 53.03125 27.640625 53.03125 
Q 38.328125 53.03125 45.109375 46.015625 
Q 51.90625 39.015625 51.90625 26.65625 
Q 51.90625 16.65625 48.90625 10.90625 
Q 45.90625 5.171875 40.15625 2 
Q 34.421875 -1.171875 27.640625 -1.171875 
Q 16.75 -1.171875 10.03125 5.8125 
Q 3.328125 12.796875 3.328125 25.921875 
z
M 12.359375 25.921875 
Q 12.359375 15.96875 16.703125 11.015625 
Q 21.046875 6.0625 27.640625 6.0625 
Q 34.1875 6.0625 38.53125 11.03125 
Q 42.875 16.015625 42.875 26.21875 
Q 42.875 35.84375 38.5 40.796875 
Q 34.125 45.75 27.640625 45.75 
Q 21.046875 45.75 16.703125 40.8125 
Q 12.359375 35.890625 12.359375 25.921875 
z
" id="ArialMT-111"/>
      <path d="M 40.4375 19 
L 49.078125 17.875 
Q 47.65625 8.9375 41.8125 3.875 
Q 35.984375 -1.171875 27.484375 -1.171875 
Q 16.84375 -1.171875 10.375 5.78125 
Q 3.90625 12.75 3.90625 25.734375 
Q 3.90625 34.125 6.6875 40.421875 
Q 9.46875 46.734375 15.15625 49.875 
Q 20.84375 53.03125 27.546875 53.03125 
Q 35.984375 53.03125 41.359375 48.75 
Q 46.734375 44.484375 48.25 36.625 
L 39.703125 35.296875 
Q 38.484375 40.53125 35.375 43.15625 
Q 32.28125 45.796875 27.875 45.796875 
Q 21.234375 45.796875 17.078125 41.03125 
Q 12.9375 36.28125 12.9375 25.984375 
Q 12.9375 15.53125 16.9375 10.796875 
Q 20.953125 6.0625 27.390625 6.0625 
Q 32.5625 6.0625 36.03125 9.234375 
Q 39.5 12.40625 40.4375 19 
z
" id="ArialMT-99"/>
      <path d="M 6.5 0 
L 6.5 51.859375 
L 14.40625 51.859375 
L 14.40625 44 
Q 17.4375 49.515625 20 51.265625 
Q 22.5625 53.03125 25.640625 53.03125 
Q 30.078125 53.03125 34.671875 50.203125 
L 31.640625 42.046875 
Q 28.421875 43.953125 25.203125 43.953125 
Q 22.3125 43.953125 20.015625 42.21875 
Q 17.71875 40.484375 16.75 37.40625 
Q 15.28125 32.71875 15.28125 27.15625 
L 15.28125 0 
z
" id="ArialMT-114"/>
     </defs>
     <g transform="translate(27.583125 250.008125)rotate(-90)scale(0.28 -0.28)">
      <use xlink:href="#ArialMT-67"/>
      <use x="72.216797" xlink:href="#ArialMT-104"/>
      <use x="127.832031" xlink:href="#ArialMT-97"/>
      <use x="183.447266" xlink:href="#ArialMT-110"/>
      <use x="239.0625" xlink:href="#ArialMT-103"/>
      <use x="294.677734" xlink:href="#ArialMT-101"/>
      <use x="350.292969" xlink:href="#ArialMT-32"/>
      <use x="378.076172" xlink:href="#ArialMT-112"/>
      <use x="433.691406" xlink:href="#ArialMT-111"/>
      <use x="489.306641" xlink:href="#ArialMT-105"/>
      <use x="511.523438" xlink:href="#ArialMT-110"/>
      <use x="567.138672" xlink:href="#ArialMT-116"/>
      <use x="594.921875" xlink:href="#ArialMT-32"/>
      <use x="622.705078" xlink:href="#ArialMT-115"/>
      <use x="672.705078" xlink:href="#ArialMT-99"/>
      <use x="722.705078" xlink:href="#ArialMT-111"/>
      <use x="778.320312" xlink:href="#ArialMT-114"/>
      <use x="811.621094" xlink:href="#ArialMT-101"/>
     </g>
     <!-- (KL div.) -->
     <defs>
      <path d="M 7.328125 0 
L 7.328125 71.578125 
L 16.796875 71.578125 
L 16.796875 36.078125 
L 52.34375 71.578125 
L 65.1875 71.578125 
L 35.15625 42.578125 
L 66.5 0 
L 54 0 
L 28.515625 36.234375 
L 16.796875 24.8125 
L 16.796875 0 
z
" id="ArialMT-75"/>
      <path d="M 7.328125 0 
L 7.328125 71.578125 
L 16.796875 71.578125 
L 16.796875 8.453125 
L 52.046875 8.453125 
L 52.046875 0 
z
" id="ArialMT-76"/>
      <path d="M 40.234375 0 
L 40.234375 6.546875 
Q 35.296875 -1.171875 25.734375 -1.171875 
Q 19.53125 -1.171875 14.328125 2.25 
Q 9.125 5.671875 6.265625 11.796875 
Q 3.421875 17.921875 3.421875 25.875 
Q 3.421875 33.640625 6 39.96875 
Q 8.59375 46.296875 13.765625 49.65625 
Q 18.953125 53.03125 25.34375 53.03125 
Q 30.03125 53.03125 33.6875 51.046875 
Q 37.359375 49.078125 39.65625 45.90625 
L 39.65625 71.578125 
L 48.390625 71.578125 
L 48.390625 0 
z
M 12.453125 25.875 
Q 12.453125 15.921875 16.640625 10.984375 
Q 20.84375 6.0625 26.5625 6.0625 
Q 32.328125 6.0625 36.34375 10.765625 
Q 40.375 15.484375 40.375 25.140625 
Q 40.375 35.796875 36.265625 40.765625 
Q 32.171875 45.75 26.171875 45.75 
Q 20.3125 45.75 16.375 40.96875 
Q 12.453125 36.1875 12.453125 25.875 
z
" id="ArialMT-100"/>
      <path d="M 21 0 
L 1.265625 51.859375 
L 10.546875 51.859375 
L 21.6875 20.796875 
Q 23.484375 15.765625 25 10.359375 
Q 26.171875 14.453125 28.265625 20.21875 
L 39.796875 51.859375 
L 48.828125 51.859375 
L 29.203125 0 
z
" id="ArialMT-118"/>
      <path d="M 9.078125 0 
L 9.078125 10.015625 
L 19.09375 10.015625 
L 19.09375 0 
z
" id="ArialMT-46"/>
     </defs>
     <g transform="translate(57.936 179.168125)rotate(-90)scale(0.28 -0.28)">
      <use xlink:href="#ArialMT-40"/>
      <use x="33.300781" xlink:href="#ArialMT-75"/>
      <use x="100" xlink:href="#ArialMT-76"/>
      <use x="151.865234" xlink:href="#ArialMT-32"/>
      <use x="179.648438" xlink:href="#ArialMT-100"/>
      <use x="235.263672" xlink:href="#ArialMT-105"/>
      <use x="257.480469" xlink:href="#ArialMT-118"/>
      <use x="300.105469" xlink:href="#ArialMT-46"/>
      <use x="327.888672" xlink:href="#ArialMT-41"/>
     </g>
    </g>
   </g>
   <g id="line2d_13">
    <path clip-path="url(#p09638af699)" d="M 155.677364 29.767699 
L 155.92844 225.441697 
L 156.179517 222.655635 
L 156.430593 223.997312 
L 156.68167 218.063423 
L 156.932746 217.618938 
L 157.183822 211.16006 
L 157.434899 207.574757 
L 157.685975 216.019824 
L 158.188128 222.479002 
L 158.439205 223.389049 
L 158.690281 223.245751 
L 158.941358 224.985423 
L 159.192434 225.83009 
L 159.443511 225.65196 
L 159.694587 226.911593 
L 159.945664 227.006247 
L 160.19674 226.808298 
L 160.698893 226.821636 
L 160.94997 226.990169 
L 161.452123 225.680809 
L 161.703199 226.889719 
L 161.954276 225.673025 
L 162.205352 227.104277 
L 162.456428 226.599924 
L 162.707505 226.959071 
L 162.958581 226.129143 
L 163.209658 226.952842 
L 163.460734 226.541379 
L 163.711811 226.907803 
L 163.962887 225.973104 
L 164.213964 227.245582 
L 164.46504 227.102604 
L 164.716117 227.090419 
L 164.967193 226.716174 
L 165.21827 226.139945 
L 165.469346 226.448042 
L 165.971499 225.335597 
L 166.222576 226.44533 
L 166.473652 226.871987 
L 166.975805 226.726387 
L 167.226881 225.906851 
L 167.729034 225.95761 
L 167.980111 225.819861 
L 168.231187 226.715395 
L 168.482264 224.577043 
L 168.73334 226.307734 
L 168.984417 226.497276 
L 169.235493 225.608123 
L 169.48657 225.152181 
L 169.737646 225.100311 
L 169.988723 223.898244 
L 170.239799 226.058126 
L 170.490876 225.873826 
L 170.741952 226.308021 
L 170.993029 225.446929 
L 171.244105 225.910471 
L 171.495182 225.846882 
L 171.746258 225.249791 
L 171.997335 226.802993 
L 172.248411 226.031206 
L 172.750564 227.160437 
L 173.00164 226.916036 
L 173.503793 226.937941 
L 174.005946 225.790213 
L 174.508099 226.281036 
L 174.759176 227.105378 
L 175.010252 226.699118 
L 175.261329 227.182843 
L 175.512405 227.34877 
L 175.763482 227.060837 
L 176.014558 227.252484 
L 176.265635 226.812809 
L 176.516711 227.133828 
L 176.767788 226.444339 
L 177.018864 226.55738 
L 177.269941 226.958956 
L 177.521017 227.10867 
L 177.772093 226.810494 
L 178.02317 226.986357 
L 178.274246 226.760713 
L 178.776399 227.19023 
L 179.027476 226.975578 
L 179.529629 227.317416 
L 179.780705 227.368547 
L 180.031782 227.242024 
L 180.282858 227.370804 
L 180.533935 227.28302 
L 180.785011 227.014533 
L 181.287164 227.388568 
L 181.538241 227.09027 
L 181.789317 227.038271 
L 182.29147 227.347189 
L 182.793623 227.118133 
L 183.044699 227.318117 
L 183.295776 227.139302 
L 183.546852 227.181543 
L 183.797929 226.83426 
L 184.049005 227.212584 
L 184.551158 227.386104 
L 185.053311 227.308067 
L 185.304388 227.405789 
L 185.555464 227.361262 
L 185.806541 227.058076 
L 186.057617 227.339994 
L 186.308694 227.213169 
L 186.55977 227.337669 
L 187.061923 226.938433 
L 187.564076 227.354482 
L 188.066229 227.405213 
L 188.317305 227.112358 
L 188.568382 227.3532 
L 189.070535 227.186219 
L 189.321611 227.30566 
L 189.823764 227.324754 
L 190.325917 227.097554 
L 190.576994 227.269899 
L 191.330223 227.406169 
L 191.5813 227.291913 
L 192.334529 227.354469 
L 192.585605 227.216882 
L 192.836682 227.387999 
L 193.087758 227.332971 
L 193.338835 227.407248 
L 193.840988 227.397781 
L 195.347447 227.254544 
L 195.598523 227.375731 
L 197.356059 227.359783 
L 198.109288 227.402997 
L 199.113594 227.385264 
L 200.1179 227.411442 
L 200.871129 227.375366 
L 201.122206 227.280749 
L 201.624359 227.385975 
L 202.628665 227.404691 
L 202.879741 227.174907 
L 203.130817 227.397393 
L 203.884047 227.434751 
L 205.139429 227.39767 
L 206.645888 227.400915 
L 207.650194 227.377788 
L 208.403423 227.419612 
L 209.407729 227.409979 
L 209.909882 227.413463 
L 210.914188 227.33018 
L 211.416341 227.407268 
L 212.9228 227.347931 
L 213.424953 227.424695 
L 214.931412 227.406336 
L 215.433565 227.403145 
L 216.688947 227.394727 
L 216.940024 227.219936 
L 217.1911 227.414794 
L 217.442177 227.302442 
L 218.195406 227.43117 
L 218.697559 227.426924 
L 223.970165 227.413794 
L 225.476624 227.43032 
L 228.238465 227.437694 
L 228.740618 227.42045 
L 229.996 227.429431 
L 230.247077 227.349617 
L 231.251383 227.428924 
L 231.753536 227.417057 
L 236.021836 227.436167 
L 237.277218 227.385562 
L 238.030448 227.439943 
L 241.545518 227.392622 
L 242.047671 227.415526 
L 242.549824 227.4109 
L 243.55413 227.412496 
L 249.579965 227.390678 
L 250.082118 227.424995 
L 251.337501 227.427009 
L 260.376254 227.426701 
L 264.393477 227.40619 
L 265.899936 227.434649 
L 271.172542 227.419384 
L 272.930078 227.434662 
L 283.47529 227.435502 
L 284.228519 227.431085 
L 291.760813 227.431048 
L 296.782343 227.430073 
L 342.227185 227.438138 
L 343.98472 227.436104 
L 350.512708 227.431591 
L 355.283161 227.438436 
L 372.105285 227.435988 
L 384.408033 227.435629 
L 388.17418 227.439218 
L 406.251686 227.433895 
L 406.502762 209.571409 
L 406.753839 209.023785 
L 407.004915 209.866648 
L 407.507068 210.633511 
L 407.758145 211.435727 
L 408.009221 211.349172 
L 408.260298 212.24362 
L 408.511374 211.982313 
L 408.762451 213.277498 
L 409.013527 213.63525 
L 409.51568 215.091137 
L 409.766757 215.7719 
L 410.017833 216.035626 
L 410.771062 218.500377 
L 411.273215 218.816436 
L 412.277521 221.03861 
L 413.030751 222.082741 
L 413.281827 222.628246 
L 413.532904 222.852419 
L 413.78398 222.564729 
L 414.286133 223.522273 
L 414.53721 223.470756 
L 414.788286 223.855411 
L 415.039363 223.920792 
L 415.290439 223.707461 
L 415.792592 224.128849 
L 416.043668 224.150167 
L 416.545821 223.918963 
L 416.796898 224.108189 
L 417.047974 224.075157 
L 417.299051 223.8799 
L 417.550127 223.873485 
L 417.801204 223.472513 
L 418.05228 223.793097 
L 418.554433 223.657592 
L 418.80551 223.964903 
L 419.056586 223.456497 
L 419.307663 223.612146 
L 419.558739 223.390659 
L 420.311969 223.588154 
L 420.563045 223.332067 
L 420.814121 223.497285 
L 421.065198 223.457355 
L 421.316274 223.188792 
L 421.567351 223.129527 
L 421.818427 223.317186 
L 422.069504 223.184922 
L 422.32058 223.188206 
L 422.571657 223.010157 
L 422.822733 223.247155 
L 423.07381 223.12147 
L 423.575963 223.33489 
L 423.827039 223.032453 
L 424.078116 223.393096 
L 424.329192 223.329624 
L 424.831345 223.359957 
L 425.082422 222.957132 
L 425.333498 223.471949 
L 425.584575 223.573338 
L 425.835651 223.43645 
L 426.086727 223.505625 
L 426.337804 223.755686 
L 426.58888 223.598437 
L 426.839957 223.681588 
L 427.091033 224.122816 
L 427.34211 223.596156 
L 427.593186 223.828829 
L 427.844263 223.897783 
L 428.095339 224.278645 
L 429.099645 224.167304 
L 429.350722 224.330944 
L 429.601798 224.24947 
L 429.852875 224.557122 
L 430.103951 224.387896 
L 430.355028 224.743016 
L 430.606104 224.546668 
L 430.85718 224.719472 
L 431.108257 224.446378 
L 431.61041 224.593791 
L 431.861486 224.613499 
L 432.112563 224.511862 
L 432.363639 224.71526 
L 432.865792 224.651251 
L 433.116869 224.991059 
L 433.367945 224.958926 
L 433.619022 224.554318 
L 433.870098 224.582131 
L 434.121175 224.792569 
L 434.372251 224.818559 
L 434.623328 225.051423 
L 434.874404 224.550137 
L 435.125481 224.70577 
L 435.376557 224.479839 
L 436.129786 224.965992 
L 436.380863 224.580964 
L 436.883016 224.729488 
L 437.134092 224.638051 
L 437.385169 224.354019 
L 437.636245 224.681381 
L 438.640551 224.327028 
L 438.891628 224.660538 
L 439.142704 224.318146 
L 439.644857 224.347596 
L 440.14701 224.165291 
L 440.398087 224.427196 
L 440.649163 224.317426 
L 440.900239 224.554848 
L 441.402392 224.173137 
L 441.653469 224.419995 
L 442.657775 224.042293 
L 442.908851 224.091447 
L 443.159928 223.898992 
L 443.411004 224.065024 
L 443.662081 223.78239 
L 444.164234 223.735501 
L 444.41531 223.752363 
L 444.666387 223.464566 
L 445.670693 223.360341 
L 445.921769 223.459633 
L 446.172845 223.090051 
L 446.423922 223.252925 
L 446.926075 223.165664 
L 447.428228 223.262146 
L 448.181457 223.423778 
L 448.432534 223.566887 
L 448.68361 223.355046 
L 448.934687 223.648784 
L 449.185763 223.559867 
L 449.43684 223.632283 
L 449.687916 223.951381 
L 450.692222 224.032653 
L 450.943299 224.423174 
L 451.194375 224.211198 
L 451.947604 224.663652 
L 452.198681 224.450676 
L 452.449757 224.76816 
L 452.700834 224.787464 
L 453.202987 225.020187 
L 453.454063 225.151021 
L 454.207293 225.10414 
L 454.458369 225.135331 
L 454.709446 224.946669 
L 455.462675 225.035006 
L 455.713752 225.187201 
L 455.964828 224.954597 
L 456.215904 225.099067 
L 456.466981 224.846466 
L 456.969134 224.775015 
L 457.471287 224.860381 
L 457.97344 224.430347 
L 458.224516 224.648959 
L 458.475593 224.437051 
L 458.726669 224.433254 
L 458.977746 224.247598 
L 459.228822 224.33097 
L 459.479899 224.148032 
L 459.730975 224.233607 
L 460.233128 223.890574 
L 461.237434 224.073481 
L 461.739587 223.776238 
L 461.990663 223.721982 
L 462.24174 223.892467 
L 462.743893 223.564937 
L 462.994969 223.7615 
L 463.246046 223.58389 
L 463.497122 223.833352 
L 463.748199 223.657864 
L 464.250352 223.83261 
L 464.501428 223.687948 
L 464.752505 223.874843 
L 465.003581 223.788964 
L 465.505734 223.981297 
L 465.756811 223.834447 
L 466.51004 224.35156 
L 467.012193 224.137889 
L 467.263269 224.239492 
L 467.514346 224.065966 
L 467.765422 224.409399 
L 468.016499 224.381864 
L 468.267575 224.7278 
L 468.769728 224.704355 
L 469.020805 224.818886 
L 469.271881 224.66665 
L 470.276187 225.184019 
L 470.527264 225.050671 
L 470.77834 225.30123 
L 471.029417 225.142563 
L 471.280493 225.478166 
L 472.284799 225.529359 
L 472.535875 225.712615 
L 472.786952 225.61895 
L 473.289105 225.71101 
L 473.540181 225.58742 
L 473.791258 225.795595 
L 474.042334 225.693336 
L 474.293411 225.762626 
L 474.795564 225.62313 
L 475.04664 225.833349 
L 475.297717 225.678162 
L 476.050946 225.67897 
L 476.553099 225.47017 
L 476.804175 225.624375 
L 477.055252 225.431964 
L 477.306328 225.578774 
L 477.557405 225.383971 
L 477.808481 225.418725 
L 478.059558 225.163333 
L 478.561711 225.118259 
L 478.812787 224.886504 
L 479.063864 225.078353 
L 479.566017 224.542745 
L 479.817093 224.534763 
L 480.06817 224.346665 
L 480.319246 224.414933 
L 480.821399 223.936402 
L 481.072476 224.02698 
L 481.825705 223.755396 
L 482.076781 223.31243 
L 482.327858 223.525263 
L 483.081087 222.976946 
L 483.58324 223.10486 
L 483.834317 222.910472 
L 484.085393 223.084235 
L 484.33647 222.942085 
L 484.587546 223.077466 
L 485.089699 222.983634 
L 485.340776 223.451669 
L 486.345082 223.488933 
L 486.596158 223.703956 
L 486.847234 223.752457 
L 487.098311 223.686202 
L 487.349387 223.776974 
L 487.85154 224.384557 
L 488.102617 224.346623 
L 488.60477 224.762598 
L 488.855846 224.714511 
L 489.357999 225.159717 
L 489.609076 225.383689 
L 489.860152 225.289419 
L 490.111229 225.53427 
L 490.864458 225.769809 
L 491.115535 225.941002 
L 491.366611 225.962764 
L 491.617687 226.162489 
L 491.868764 226.129862 
L 492.11984 226.214188 
L 492.370917 226.132471 
L 492.621993 226.209656 
L 493.124146 226.130447 
L 493.375223 226.159585 
L 493.626299 226.011222 
L 493.877376 226.098311 
L 494.881682 225.818668 
L 495.132758 225.799155 
L 495.383835 225.653484 
L 495.634911 225.638267 
L 496.388141 225.281488 
L 496.639217 225.316393 
L 497.392446 225.07008 
L 497.643523 224.774712 
L 498.145676 224.613264 
L 498.396752 224.298656 
L 498.647829 224.537616 
L 498.898905 224.490937 
L 499.903211 223.884507 
L 500.154288 224.096753 
L 500.405364 224.005395 
L 500.656441 224.235599 
L 500.907517 223.790955 
L 501.660746 223.87043 
L 502.162899 223.524576 
L 502.413976 223.790287 
L 502.665052 223.607871 
L 503.167205 223.650385 
L 503.418282 224.030677 
L 503.669358 224.047586 
L 503.920435 223.880619 
L 504.171511 223.981369 
L 504.422588 223.913965 
L 504.673664 224.122778 
L 505.175817 224.149093 
L 505.426894 224.124919 
L 505.929047 224.613677 
L 506.682276 224.540736 
L 506.933352 224.733358 
L 507.184429 224.65893 
L 507.686582 225.088722 
L 508.188735 225.035786 
L 508.439811 225.397502 
L 509.444117 225.443065 
L 509.695194 225.555171 
L 509.94627 225.85653 
L 511.703806 226.192759 
L 511.954882 226.167283 
L 512.457035 226.326619 
L 513.210264 226.424 
L 514.21457 226.254316 
L 514.716723 226.274245 
L 516.223182 225.793312 
L 516.474259 225.771119 
L 517.478564 225.16381 
L 517.980717 224.920753 
L 518.733947 224.634942 
L 519.2361 224.487478 
L 519.487176 224.180068 
L 519.738253 224.182071 
L 520.491482 223.814376 
L 520.993635 223.589909 
L 521.244712 223.753293 
L 521.495788 223.549831 
L 522.249017 223.550699 
L 522.500094 223.712547 
L 523.002247 223.554621 
L 523.5044 223.923723 
L 523.755476 223.864 
L 524.257629 224.119363 
L 524.508706 224.454616 
L 524.759782 224.371011 
L 525.010859 224.752509 
L 525.513012 224.826734 
L 525.764088 225.08805 
L 526.015165 225.035552 
L 526.517318 225.637641 
L 526.768394 225.50167 
L 527.01947 225.832856 
L 527.270547 225.760499 
L 527.7727 226.077516 
L 529.028082 226.533107 
L 529.279159 226.444223 
L 529.530235 226.586104 
L 530.534541 226.550822 
L 530.785618 226.63423 
L 532.292076 226.279675 
L 532.794229 226.126019 
L 533.045306 226.074274 
L 533.296382 226.146192 
L 535.053918 225.295701 
L 535.556071 225.201939 
L 536.058224 224.805264 
L 536.3093 224.920529 
L 537.815759 224.300544 
L 538.066835 224.52361 
L 539.071141 224.170595 
L 539.322218 224.285829 
L 539.573294 224.039846 
L 539.824371 224.188883 
L 541.079753 224.134497 
L 541.581906 224.309254 
L 541.832983 224.27528 
L 542.335135 224.511442 
L 542.586212 224.351529 
L 542.837288 224.341094 
L 543.339441 224.763464 
L 543.590518 224.639005 
L 547.105589 226.014023 
L 547.356665 226.006832 
L 547.858818 226.159505 
L 548.612047 226.359283 
L 549.1142 226.518261 
L 549.365277 226.492298 
L 549.86743 226.629327 
L 550.369583 226.681491 
L 550.620659 226.517392 
L 551.122812 226.66463 
L 551.624965 226.643347 
L 554.888959 225.409693 
L 555.391112 225.059013 
L 555.642189 224.953199 
L 555.893265 224.56577 
L 556.144342 224.653532 
L 557.399724 224.230216 
L 557.901877 224.138566 
L 558.152953 224.036479 
L 558.906183 224.044015 
L 559.157259 223.972279 
L 559.408336 224.137895 
L 559.659412 223.879716 
L 559.910489 224.274912 
L 560.412642 224.325337 
L 560.914795 224.623097 
L 561.165871 224.580305 
L 561.416948 224.862105 
L 561.668024 224.86357 
L 562.421254 225.429319 
L 562.67233 225.42523 
L 564.178789 226.217909 
L 564.429865 226.278178 
L 564.680942 226.51187 
L 565.183095 226.538977 
L 565.685248 226.678974 
L 567.191707 226.810836 
L 569.200318 226.501487 
L 569.451395 226.312662 
L 569.702471 226.32769 
L 570.204624 226.111413 
L 571.460007 225.715306 
L 571.96216 225.39243 
L 572.213236 225.495059 
L 572.966465 225.098457 
L 574.975077 224.568449 
L 575.226154 224.601295 
L 575.47723 224.407348 
L 576.481536 224.440865 
L 576.732613 224.31147 
L 576.983689 224.388272 
L 577.234766 224.302039 
L 578.741224 224.40791 
L 578.992301 224.309678 
L 579.243377 224.515661 
L 579.494454 224.461494 
L 579.996607 224.69644 
L 580.247683 224.673093 
L 581.000913 225.090085 
L 581.251989 225.000329 
L 581.754142 225.321801 
L 582.507372 225.260997 
L 582.758448 225.58381 
L 583.511677 225.734078 
L 584.01383 226.086751 
L 584.264907 226.212375 
L 584.515983 226.182013 
L 585.269213 226.47027 
L 585.771366 226.523533 
L 586.022442 226.736877 
L 586.524595 226.609148 
L 586.775672 226.743225 
L 587.277825 226.615756 
L 587.528901 226.723121 
L 588.031054 226.602046 
L 588.533207 226.516242 
L 589.03536 226.256651 
L 590.039666 225.932426 
L 590.290742 225.648308 
L 590.541819 225.67496 
L 590.792895 225.223968 
L 591.043972 225.285059 
L 591.797201 224.630319 
L 592.299354 224.714881 
L 592.801507 224.123947 
L 593.30366 224.265121 
L 593.554736 223.99141 
L 594.056889 223.782704 
L 594.307966 223.869453 
L 594.559042 223.716005 
L 595.061195 223.89794 
L 595.312272 223.713752 
L 596.316578 224.276098 
L 596.567654 224.280576 
L 597.57196 225.062049 
L 597.823037 224.995827 
L 598.074113 225.298479 
L 598.325189 225.26477 
L 599.580572 225.970654 
L 600.584878 226.409402 
L 601.589184 226.72853 
L 602.091337 226.651256 
L 602.59349 226.696101 
L 603.597795 226.672892 
L 604.099948 226.568018 
L 604.853178 226.37442 
L 606.610713 225.843226 
L 606.86179 225.611287 
L 607.363943 225.541271 
L 607.615019 225.325388 
L 607.866096 225.393289 
L 608.368248 224.965058 
L 608.619325 225.080005 
L 609.623631 224.547876 
L 610.37686 224.283892 
L 610.627937 224.322856 
L 610.879013 224.058696 
L 611.13009 224.17033 
L 611.632243 224.022492 
L 611.883319 223.930296 
L 612.134396 224.123504 
L 612.385472 223.766942 
L 612.636549 223.904982 
L 612.887625 223.704562 
L 613.138701 223.703175 
L 613.389778 223.826542 
L 613.640854 223.721553 
L 614.64516 223.881646 
L 614.896237 224.191715 
L 615.147313 224.006549 
L 615.649466 224.137521 
L 615.900543 224.092553 
L 617.155925 224.520999 
L 617.407002 224.557805 
L 617.658078 224.767575 
L 618.411307 224.973179 
L 619.164537 225.39477 
L 619.415613 225.680122 
L 619.66669 225.484582 
L 619.917766 225.704034 
L 620.168843 225.694484 
L 620.419919 225.983199 
L 622.428531 226.284065 
L 623.181761 226.237568 
L 623.93499 225.926981 
L 624.186066 225.883163 
L 624.437143 225.71499 
L 624.688219 225.377306 
L 624.939296 225.340656 
L 625.441449 224.860009 
L 625.692525 224.776037 
L 626.445755 223.976624 
L 626.696831 223.898554 
L 627.198984 223.394027 
L 627.450061 223.163358 
L 627.701137 223.186493 
L 627.952214 222.824334 
L 628.20329 222.924338 
L 628.705443 222.621096 
L 628.956519 222.781187 
L 629.458672 222.590609 
L 629.709749 222.862908 
L 629.960825 222.570052 
L 630.211902 222.896452 
L 630.462978 222.850283 
L 631.216208 223.373292 
L 631.467284 223.766715 
L 631.718361 223.750514 
L 632.220514 224.188425 
L 632.47159 224.09559 
L 632.973743 224.541841 
L 634.229125 225.423581 
L 634.480202 225.702131 
L 634.731278 225.64201 
L 634.982355 225.837974 
L 635.233431 225.886191 
L 635.735584 226.108159 
L 636.488814 226.239245 
L 637.242043 226.30494 
L 637.744196 226.301126 
L 638.497425 225.987549 
L 638.748502 226.053919 
L 639.501731 225.816902 
L 640.003884 225.459639 
L 640.506037 225.363634 
L 641.259267 225.040953 
L 641.510343 224.734838 
L 641.76142 224.906508 
L 642.012496 224.459043 
L 642.263573 224.4975 
L 642.765726 224.134763 
L 643.016802 224.16139 
L 643.518955 223.601353 
L 643.770031 223.717688 
L 644.021108 223.690727 
L 645.27649 222.88945 
L 645.527567 222.959073 
L 645.778643 222.767532 
L 646.280796 222.846538 
L 646.531873 222.598769 
L 646.782949 222.589511 
L 647.034026 222.700605 
L 647.536179 222.436226 
L 647.787255 222.39701 
L 648.289408 222.549312 
L 648.540485 222.372671 
L 648.791561 222.738772 
L 649.293714 222.535359 
L 649.795867 223.034279 
L 650.046943 222.966009 
L 650.29802 223.135944 
L 650.549096 223.612201 
L 650.800173 223.450091 
L 651.051249 223.595992 
L 651.302326 223.487147 
L 651.553402 223.536655 
L 652.306632 224.316791 
L 652.557708 224.303702 
L 653.059861 224.77343 
L 653.310938 224.724622 
L 653.81309 225.314419 
L 654.064167 225.447885 
L 654.315243 225.41355 
L 654.817396 225.85044 
L 655.570626 226.192824 
L 657.579238 226.630444 
L 657.830314 224.341769 
L 658.332467 226.984109 
L 658.583544 226.459706 
L 658.83462 226.762243 
L 659.085696 226.367724 
L 659.336773 224.861375 
L 659.587849 226.599924 
L 659.838926 226.276183 
L 660.090002 225.755764 
L 660.341079 225.999629 
L 660.592155 224.823127 
L 660.843232 224.91411 
L 661.094308 225.769942 
L 661.345385 224.379666 
L 661.596461 224.35929 
L 661.847538 225.231375 
L 662.098614 224.225837 
L 662.349691 225.081529 
L 662.600767 223.611541 
L 662.851844 224.521999 
L 663.10292 224.886191 
L 663.353997 224.045738 
L 663.605073 224.27909 
L 663.856149 224.976208 
L 664.609379 223.488815 
L 664.860455 223.745763 
L 665.111532 223.536505 
L 665.362608 224.184134 
L 665.613685 224.188799 
L 665.864761 224.613923 
L 666.115838 223.936627 
L 666.366914 225.272619 
L 666.617991 224.098071 
L 666.869067 225.824533 
L 667.120144 225.495746 
L 667.37122 225.802087 
L 667.622297 225.83199 
L 667.873373 224.305561 
L 668.12445 224.707196 
L 668.375526 226.627869 
L 668.626603 224.823186 
L 668.877679 224.068541 
L 669.128755 226.640274 
L 669.379832 226.513017 
L 669.630908 225.137446 
L 669.881985 226.584636 
L 670.133061 226.866696 
L 670.384138 226.437914 
L 670.635214 226.880488 
L 670.886291 226.04035 
L 671.137367 226.885935 
L 671.63952 226.316253 
L 671.890597 226.639459 
L 672.141673 225.203407 
L 672.39275 226.817687 
L 672.643826 226.408984 
L 672.894903 226.842858 
L 673.145979 226.990667 
L 673.397056 225.934724 
L 673.648132 226.171424 
L 673.899209 226.570105 
L 674.150285 226.467073 
L 674.401361 226.534977 
L 674.652438 227.024897 
L 674.903514 226.96165 
L 675.405667 227.147939 
L 675.656744 225.8071 
L 675.90782 226.788813 
L 676.158897 226.034703 
L 676.409973 224.928725 
L 676.66105 227.304692 
L 676.912126 226.77889 
L 677.163203 227.005886 
L 677.414279 226.368201 
L 677.916432 226.636323 
L 678.167509 225.957412 
L 678.418585 226.702937 
L 678.669662 226.67023 
L 679.171814 227.248054 
L 679.422891 226.568888 
L 679.673967 226.991003 
L 679.925044 227.041919 
L 680.17612 226.409193 
L 680.427197 226.791546 
L 680.92935 225.87381 
L 681.180426 226.634413 
L 681.431503 226.029812 
L 681.682579 225.085465 
L 681.933656 226.713452 
L 682.184732 226.190588 
L 682.435809 226.237866 
L 682.686885 226.16272 
L 682.937962 226.90182 
L 683.189038 226.29972 
L 683.440115 227.208348 
L 683.691191 226.647012 
L 683.942268 226.661819 
L 684.193344 227.132846 
L 684.44442 226.755598 
L 684.695497 224.954238 
L 684.946573 226.471782 
L 685.19765 225.892098 
L 685.448726 225.850346 
L 685.699803 227.41789 
L 685.950879 226.614381 
L 686.201956 226.271914 
L 686.453032 226.136071 
L 686.704109 226.572498 
L 686.955185 226.331006 
L 687.206262 226.689744 
L 687.457338 225.679427 
L 687.708415 226.635209 
L 688.210568 227.109943 
L 688.461644 226.506551 
L 688.712721 226.6438 
L 689.214873 226.589676 
L 689.46595 226.791056 
L 689.968103 226.656764 
L 690.219179 227.088239 
L 690.470256 226.416033 
L 690.721332 226.980065 
L 690.972409 226.652947 
L 691.223485 226.654955 
L 691.725638 227.032104 
L 691.976715 226.336804 
L 692.227791 226.719335 
L 692.478868 226.229844 
L 692.729944 226.803602 
L 692.981021 225.902552 
L 693.483174 226.912702 
L 693.73425 227.289783 
L 693.985327 226.962872 
L 694.236403 227.101759 
L 694.487479 226.437321 
L 694.738556 227.094996 
L 694.989632 226.350993 
L 695.491785 226.705014 
L 695.742862 226.347739 
L 695.993938 227.006253 
L 696.245015 227.223317 
L 696.496091 226.221712 
L 696.998244 227.168376 
L 697.249321 226.385366 
L 697.500397 226.154319 
L 697.751474 226.793833 
L 698.00255 226.41251 
L 698.253627 227.216878 
L 698.504703 226.42522 
L 698.75578 226.707413 
L 699.006856 227.344973 
L 699.509009 226.777414 
L 699.760085 227.131654 
L 700.011162 226.552489 
L 700.262238 227.244866 
L 700.513315 226.247433 
L 700.764391 227.215841 
L 701.266544 226.331335 
L 701.517621 227.18987 
L 702.27085 226.626518 
L 702.773003 227.315638 
L 703.02408 226.746586 
L 703.275156 226.685913 
L 703.526233 227.256791 
L 703.777309 227.284089 
L 704.028386 226.836782 
L 704.279462 227.135738 
L 704.530538 226.627228 
L 704.781615 227.02573 
L 705.032691 226.566028 
L 705.283768 227.129844 
L 705.534844 226.340304 
L 705.785921 226.854272 
L 706.036997 226.943594 
L 706.288074 227.160668 
L 706.53915 227.211023 
L 706.790227 226.776541 
L 707.041303 227.372736 
L 707.29238 227.369915 
L 707.543456 226.420487 
L 707.794533 227.149178 
L 708.045609 226.789108 
L 708.296686 226.944957 
L 708.798839 226.826058 
L 709.049915 227.295255 
L 709.300992 227.326041 
L 709.552068 226.645686 
L 710.305297 227.200214 
L 710.80745 226.533361 
L 711.058527 227.226149 
L 711.309603 227.20572 
L 711.56068 227.38115 
L 711.811756 226.608355 
L 712.062833 227.117233 
L 712.313909 227.269892 
L 712.564986 227.169323 
L 712.816062 226.837527 
L 713.067139 227.383928 
L 713.318215 226.758666 
L 713.569292 227.16262 
L 713.820368 226.365948 
L 714.071445 227.036308 
L 714.322521 227.224872 
L 714.573597 226.785672 
L 714.824674 227.004444 
L 715.07575 226.908233 
L 715.326827 226.973121 
L 715.577903 226.740018 
L 715.82898 226.999816 
L 716.331133 226.947811 
L 716.582209 226.661271 
L 716.833286 227.020454 
L 717.084362 225.952597 
L 717.335439 226.813686 
L 717.586515 227.153019 
L 717.837592 227.165026 
L 718.088668 226.856742 
L 718.339745 227.35159 
L 718.590821 226.531509 
L 718.841898 226.637904 
L 719.092974 227.150448 
L 719.344051 227.396215 
L 719.595127 227.136093 
L 719.846203 227.20327 
L 720.09728 226.870524 
L 720.850509 226.653787 
L 721.352662 226.88506 
L 721.603739 226.755413 
L 721.854815 226.406057 
L 722.105892 226.924948 
L 722.608045 226.542066 
L 723.110198 227.069136 
L 723.361274 226.65082 
L 723.612351 226.974044 
L 723.863427 225.967976 
L 724.114504 226.65858 
L 724.616656 226.824861 
L 724.867733 227.070467 
L 725.118809 226.326222 
L 725.369886 226.374337 
L 725.620962 226.885506 
L 725.872039 226.816689 
L 726.123115 226.155624 
L 726.625268 226.672598 
L 726.876345 226.705318 
L 727.127421 227.012553 
L 727.378498 226.847919 
L 727.629574 227.02585 
L 727.880651 226.599569 
L 728.131727 226.835077 
L 728.382804 226.829137 
L 728.63388 227.03567 
L 728.884957 226.562318 
L 729.136033 227.094624 
L 729.38711 226.920349 
L 729.638186 227.047529 
L 729.889262 226.956875 
L 730.140339 227.104788 
L 730.642492 227.104363 
L 730.893568 227.278372 
L 731.144645 227.210826 
L 731.395721 226.95971 
L 731.646798 227.170768 
L 731.897874 226.923926 
L 732.148951 227.363873 
L 732.400027 227.10078 
L 733.153257 227.310876 
L 733.404333 226.840304 
L 733.65541 227.235306 
L 733.906486 227.301909 
L 734.157563 227.147845 
L 734.659716 227.247666 
L 734.910792 227.097658 
L 735.161868 227.2906 
L 735.664021 227.077123 
L 735.915098 227.23989 
L 736.166174 226.285162 
L 736.668327 227.15839 
L 736.919404 226.857758 
L 737.17048 227.287418 
L 737.672633 226.56993 
L 737.92371 226.992917 
L 738.425863 227.278997 
L 738.676939 227.348107 
L 739.179092 226.69843 
L 739.430169 227.31309 
L 739.932321 226.655842 
L 740.183398 227.316587 
L 740.434474 226.787117 
L 740.685551 226.726539 
L 740.936627 227.20284 
L 741.187704 226.791175 
L 741.43878 227.154106 
L 741.689857 226.595813 
L 741.940933 227.000147 
L 742.19201 226.839325 
L 742.443086 227.139534 
L 742.694163 226.992766 
L 742.945239 227.313232 
L 743.196316 227.101513 
L 743.447392 226.50309 
L 743.698469 226.615305 
L 743.949545 226.983226 
L 744.200622 227.119439 
L 744.451698 226.975881 
L 744.702775 226.476958 
L 744.953851 227.162932 
L 745.204927 226.593177 
L 745.958157 227.304542 
L 746.209233 227.282012 
L 746.711386 226.98914 
L 746.962463 227.376286 
L 747.213539 226.913708 
L 747.464616 227.059388 
L 747.715692 226.612395 
L 748.217845 227.287451 
L 748.468922 227.311239 
L 749.222151 226.758492 
L 749.473228 227.205109 
L 749.724304 226.522529 
L 749.97538 227.089715 
L 750.226457 227.306791 
L 750.72861 226.92826 
L 750.979686 226.295348 
L 751.230763 227.020347 
L 751.481839 226.506943 
L 751.732916 227.309491 
L 751.983992 226.430017 
L 752.486145 227.13799 
L 752.737222 226.856276 
L 752.988298 227.371482 
L 753.239375 227.33542 
L 753.490451 227.01245 
L 753.992604 227.108186 
L 754.243681 226.997392 
L 754.494757 227.188036 
L 754.99691 227.002918 
L 755.247986 227.211855 
L 756.001216 227.249561 
L 756.252292 226.893748 
L 756.754445 227.215071 
L 757.005522 226.574088 
L 757.256598 226.700495 
L 757.507675 227.113414 
L 758.260904 227.190194 
L 758.511981 227.211932 
L 758.763057 226.713833 
L 759.26521 226.861525 
L 759.767363 226.385948 
L 760.269516 226.934472 
L 760.520592 226.734014 
L 760.771669 226.729823 
L 761.022745 226.152667 
L 761.273822 226.496575 
L 761.524898 226.226921 
L 761.775975 226.963216 
L 762.027051 227.066336 
L 762.278128 225.836759 
L 762.529204 225.908606 
L 762.780281 226.851642 
L 763.282434 226.147054 
L 763.53351 226.642131 
L 763.784587 226.447871 
L 764.035663 227.048594 
L 764.28674 225.81115 
L 764.537816 226.635638 
L 764.788893 226.408611 
L 765.039969 226.884515 
L 765.291045 226.670721 
L 765.542122 226.732137 
L 765.793198 227.063851 
L 766.295351 227.127121 
L 766.546428 227.381945 
L 767.048581 226.615743 
L 767.299657 227.23565 
L 767.80181 226.980623 
L 768.052887 227.131002 
L 768.303963 226.882578 
L 768.55504 226.941618 
L 768.806116 226.841781 
L 769.057193 227.067145 
L 769.308269 227.076908 
L 769.810422 227.359954 
L 770.061499 227.186464 
L 770.312575 227.203885 
L 770.563651 227.099866 
L 770.814728 227.367151 
L 771.065804 227.333982 
L 771.316881 227.165972 
L 771.567957 227.196204 
L 771.819034 227.376238 
L 772.07011 226.853087 
L 772.321187 227.24239 
L 772.572263 226.698887 
L 772.82334 227.37668 
L 773.325493 227.226101 
L 773.576569 226.733704 
L 773.827646 227.256754 
L 774.329799 227.361796 
L 774.580875 227.104975 
L 775.334104 227.097671 
L 775.585181 226.514357 
L 775.836257 226.756532 
L 776.087334 227.219647 
L 776.33841 226.988834 
L 776.589487 227.152114 
L 776.840563 226.845935 
L 777.09164 227.143377 
L 777.342716 226.553523 
L 777.593793 226.991534 
L 777.844869 226.873878 
L 778.598099 226.798715 
L 778.849175 226.419712 
L 779.100252 226.633031 
L 779.351328 227.05162 
L 779.602405 227.04743 
L 779.853481 226.787458 
L 780.104558 227.007874 
L 780.60671 226.660056 
L 780.857787 226.704291 
L 781.108863 227.049349 
L 781.35994 227.122285 
L 781.611016 226.721854 
L 781.862093 227.171586 
L 782.113169 226.826654 
L 782.364246 227.193392 
L 782.615322 226.932269 
L 782.866399 227.1063 
L 783.117475 226.687148 
L 783.368552 227.062068 
L 783.619628 226.631499 
L 783.870705 227.278066 
L 784.121781 227.065235 
L 784.372858 226.697602 
L 784.623934 226.732344 
L 784.875011 227.083553 
L 785.377164 227.096189 
L 785.62824 226.906952 
L 786.130393 227.338593 
L 786.381469 226.604586 
L 786.632546 227.213429 
L 786.883622 227.042986 
L 787.134699 227.092036 
L 787.385775 227.319275 
L 787.636852 226.948802 
L 787.887928 227.246345 
L 788.390081 227.004195 
L 788.641158 227.005772 
L 788.892234 227.400123 
L 789.143311 226.752987 
L 789.394387 227.231113 
L 789.645464 227.149882 
L 789.89654 226.580282 
L 790.147617 227.331372 
L 790.398693 227.251561 
L 790.649769 227.328485 
L 790.900846 226.996136 
L 791.151922 227.08726 
L 791.402999 226.836955 
L 791.654075 227.353398 
L 792.156228 226.875136 
L 792.407305 227.383733 
L 792.658381 227.256014 
L 792.909458 227.279285 
L 793.160534 227.080498 
L 793.411611 227.323902 
L 793.662687 226.997046 
L 793.913764 227.224156 
L 794.16484 226.721112 
L 794.415917 227.065848 
L 794.666993 226.324054 
L 795.169146 227.13807 
L 795.922375 226.890253 
L 796.173452 226.902295 
L 796.424528 227.163158 
L 796.926681 226.247716 
L 797.177758 227.114697 
L 797.428834 226.961829 
L 797.679911 226.958693 
L 797.930987 226.803156 
L 798.182064 226.191286 
L 798.43314 226.22736 
L 798.684217 226.641698 
L 798.935293 226.651717 
L 799.18637 226.213616 
L 799.437446 226.10756 
L 800.190676 227.062981 
L 800.441752 227.019691 
L 800.692828 226.3608 
L 801.194981 226.612612 
L 801.697134 226.857537 
L 801.948211 226.964097 
L 802.199287 225.707554 
L 802.450364 227.036973 
L 802.70144 226.886375 
L 803.45467 227.096116 
L 803.705746 226.958331 
L 803.956823 227.007675 
L 804.207899 227.279552 
L 804.458976 227.078288 
L 804.710052 226.118158 
L 804.961129 226.793375 
L 805.212205 227.106489 
L 805.965434 227.07968 
L 806.216511 227.395463 
L 806.718664 227.350037 
L 806.96974 226.959964 
L 807.220817 227.282908 
L 807.471893 227.409886 
L 807.72297 227.388704 
L 807.974046 226.963583 
L 808.225123 227.311049 
L 808.476199 226.824929 
L 808.727276 227.275961 
L 809.229429 226.718773 
L 809.480505 227.319199 
L 809.731582 226.997908 
L 809.982658 227.20061 
L 810.484811 227.102119 
L 810.735888 227.22453 
L 810.986964 226.943319 
L 811.23804 227.26479 
L 811.489117 227.186058 
L 811.99127 227.293489 
L 812.242346 226.913326 
L 812.493423 227.222185 
L 812.744499 226.71264 
L 812.995576 227.260554 
L 813.497729 227.069359 
L 813.748805 227.236889 
L 813.999882 226.619876 
L 814.250958 227.156771 
L 814.502035 227.025999 
L 814.753111 226.521286 
L 815.255264 227.232771 
L 815.506341 227.232309 
L 815.757417 226.968614 
L 816.008493 226.49863 
L 816.25957 226.984432 
L 816.510646 226.642061 
L 816.761723 227.052243 
L 817.012799 227.066486 
L 817.263876 226.604093 
L 817.514952 227.052183 
L 817.766029 227.24319 
L 818.268182 226.481937 
L 819.021411 227.050588 
L 819.272488 226.604858 
L 819.523564 226.786884 
L 819.774641 227.162128 
L 820.025717 226.683296 
L 820.276794 227.042725 
L 820.52787 227.137857 
L 820.778947 226.762317 
L 821.281099 226.902324 
L 821.532176 226.677166 
L 822.034329 226.935782 
L 822.285405 226.895913 
L 822.536482 226.605447 
L 822.787558 227.143236 
L 823.038635 226.906922 
L 823.289711 227.320399 
L 823.791864 227.191976 
L 824.042941 227.14644 
L 824.294017 226.433458 
L 824.545094 227.186446 
L 825.047247 227.205618 
L 825.298323 227.362514 
L 825.5494 227.18214 
L 825.800476 226.672711 
L 826.051552 227.293232 
L 826.302629 227.016104 
L 826.553705 227.414286 
L 826.804782 227.184323 
L 827.306935 227.246531 
L 827.558011 227.084322 
L 827.809088 227.099107 
L 828.060164 227.369142 
L 828.311241 227.172281 
L 828.562317 227.351264 
L 828.813394 227.246662 
L 829.06447 226.838827 
L 829.566623 227.260462 
L 830.068776 227.172714 
L 830.319853 226.871966 
L 830.570929 226.793173 
L 830.822006 227.286803 
L 831.073082 225.851981 
L 831.324158 226.811865 
L 831.826311 227.091116 
L 832.077388 226.704659 
L 832.328464 226.900313 
L 832.830617 226.412607 
L 833.081694 226.73293 
L 833.33277 226.189874 
L 833.583847 226.347901 
L 833.834923 226.848556 
L 834.086 226.792335 
L 834.337076 227.237097 
L 834.839229 226.084345 
L 835.090306 226.432183 
L 835.341382 227.031832 
L 835.843535 225.878212 
L 836.094611 226.206224 
L 836.345688 227.068975 
L 836.596764 226.38825 
L 836.847841 226.885947 
L 837.098917 226.551763 
L 837.349994 226.862746 
L 837.60107 226.978487 
L 838.103223 225.886105 
L 838.3543 226.992311 
L 838.605376 226.904366 
L 838.856453 226.453208 
L 839.107529 227.40357 
L 839.358606 226.813772 
L 839.609682 226.606585 
L 839.860759 226.830618 
L 840.111835 226.840039 
L 840.362912 227.204303 
L 840.613988 226.448061 
L 840.865065 226.822056 
L 841.116141 226.823879 
L 841.367217 226.663755 
L 841.86937 227.307192 
L 842.120447 226.587587 
L 842.6226 227.138173 
L 842.873676 227.091628 
L 843.124753 227.292905 
L 843.375829 227.109492 
L 843.877982 227.28702 
L 844.129059 227.436965 
L 844.380135 227.229053 
L 844.882288 227.317884 
L 845.635518 227.365507 
L 845.886594 226.902092 
L 846.137671 227.368373 
L 846.388747 227.104715 
L 846.639823 227.211411 
L 846.8909 226.96122 
L 847.141976 226.966815 
L 847.393053 227.270705 
L 847.644129 226.951004 
L 847.895206 226.819933 
L 848.146282 226.859143 
L 848.397359 227.138664 
L 848.648435 226.991765 
L 849.150588 227.012337 
L 849.401665 226.761858 
L 849.652741 226.959517 
L 849.903818 226.953476 
L 850.154894 227.138277 
L 850.405971 226.751336 
L 850.657047 227.267857 
L 850.908124 227.030832 
L 851.1592 226.285772 
L 851.410276 226.382697 
L 851.912429 226.972031 
L 852.163506 226.572101 
L 852.665659 226.436261 
L 852.916735 226.881466 
L 853.167812 226.269001 
L 853.418888 226.976769 
L 853.669965 226.90316 
L 853.921041 226.461174 
L 854.172118 227.290979 
L 854.423194 226.653947 
L 855.176424 227.165783 
L 855.4275 226.874254 
L 855.678577 226.924822 
L 855.929653 225.693032 
L 856.18073 226.619863 
L 856.682882 226.78902 
L 856.933959 226.446555 
L 857.185035 226.742305 
L 857.436112 225.887466 
L 857.938265 227.187893 
L 858.189341 226.140752 
L 858.691494 227.419975 
L 859.193647 226.03765 
L 859.444724 226.106094 
L 859.6958 226.630719 
L 859.946877 226.480475 
L 860.197953 227.029413 
L 860.951183 227.033173 
L 861.202259 227.182571 
L 861.453335 226.746285 
L 861.704412 227.388918 
L 861.955488 226.410358 
L 862.206565 226.976837 
L 862.457641 227.11354 
L 862.708718 227.00447 
L 862.959794 227.221453 
L 863.713024 226.989479 
L 863.9641 226.726159 
L 864.215177 227.359499 
L 864.466253 226.591709 
L 864.71733 227.354426 
L 864.968406 226.79425 
L 865.219483 226.943352 
L 865.470559 227.237524 
L 865.972712 227.25481 
L 866.223789 226.82582 
L 866.474865 226.688289 
L 866.725941 227.231281 
L 867.228094 226.633656 
L 867.479171 226.891774 
L 867.730247 226.664891 
L 867.981324 226.925128 
L 868.2324 227.011765 
L 868.483477 225.775322 
L 868.734553 226.758429 
L 868.98563 225.610624 
L 869.487783 227.05477 
L 869.738859 225.668159 
L 869.989936 226.200385 
L 870.241012 225.828286 
L 870.492089 225.737754 
L 870.994242 225.230078 
L 871.245318 226.584681 
L 871.747471 226.734119 
L 871.998547 226.408029 
L 872.249624 226.884069 
L 872.5007 225.783577 
L 872.751777 226.639438 
L 873.002853 225.495435 
L 873.25393 226.911292 
L 873.505006 226.659113 
L 873.756083 226.03245 
L 874.007159 226.267294 
L 874.258236 226.211368 
L 874.509312 225.709049 
L 874.760389 227.161828 
L 875.011465 226.760728 
L 875.262542 226.740153 
L 875.764695 227.331038 
L 876.015771 226.319102 
L 876.266848 227.124842 
L 876.517924 227.0644 
L 877.020077 226.539768 
L 877.271153 226.926073 
L 877.52223 226.489888 
L 877.773306 227.075243 
L 878.024383 226.932244 
L 878.275459 226.550144 
L 878.526536 227.15109 
L 878.777612 226.871684 
L 879.028689 227.256409 
L 879.279765 226.96425 
L 879.530842 226.89339 
L 879.781918 227.279821 
L 880.032995 227.277687 
L 880.284071 226.191046 
L 881.037301 227.289858 
L 881.288377 227.126286 
L 881.539454 226.78659 
L 881.79053 226.749996 
L 882.041606 227.402435 
L 882.543759 226.20289 
L 883.045912 226.871313 
L 883.296989 226.572962 
L 883.548065 226.879022 
L 883.799142 226.645808 
L 884.050218 226.611579 
L 884.301295 225.964595 
L 884.803448 226.629797 
L 885.054524 227.183516 
L 885.305601 225.386576 
L 885.556677 225.965751 
L 885.807754 224.696962 
L 886.05883 226.382939 
L 886.309907 226.814542 
L 886.560983 226.814015 
L 887.063136 226.177699 
L 887.314212 226.434335 
L 887.565289 225.192743 
L 888.067442 226.993738 
L 888.318518 225.703717 
L 888.569595 226.511992 
L 888.820671 226.287364 
L 889.071748 224.560339 
L 889.322824 225.698749 
L 889.573901 225.330089 
L 889.824977 225.367103 
L 890.076054 225.5749 
L 890.32713 226.51353 
L 890.578207 226.391502 
L 890.829283 224.353526 
L 891.08036 226.448217 
L 891.582513 226.635724 
L 891.833589 226.348777 
L 892.084665 226.395927 
L 892.335742 225.673175 
L 893.088971 226.8598 
L 893.340048 226.453431 
L 893.591124 226.295797 
L 893.842201 226.573693 
L 894.093277 226.334126 
L 894.59543 226.589866 
L 894.846507 225.974961 
L 895.097583 226.644188 
L 895.34866 226.468631 
L 895.599736 226.091995 
L 895.850813 227.16386 
L 896.101889 226.543269 
L 896.352966 226.307187 
L 896.604042 226.847538 
L 896.855119 227.078235 
L 897.106195 226.713011 
L 897.357271 226.948481 
L 897.608348 226.486742 
L 898.110501 227.097427 
L 898.361577 226.616138 
L 898.612654 226.83089 
L 898.86373 226.602912 
L 899.114807 227.014261 
L 899.365883 226.71487 
L 899.868036 225.843419 
L 900.119113 226.628715 
L 900.370189 226.606846 
L 900.621266 225.430624 
L 900.872342 226.689184 
L 901.123419 226.322676 
L 901.374495 224.823116 
L 901.625572 225.948703 
L 901.876648 225.823504 
L 902.127724 225.953939 
L 902.378801 226.983155 
L 902.629877 226.230009 
L 902.880954 226.718312 
L 903.13203 224.957442 
L 903.383107 224.844881 
L 903.634183 223.998792 
L 904.136336 225.534357 
L 904.387413 224.566526 
L 904.638489 225.732061 
L 904.889566 224.989808 
L 905.140642 226.510793 
L 905.391719 225.171126 
L 905.642795 225.949094 
L 905.893872 224.447788 
L 906.144948 223.926218 
L 906.647101 225.578128 
L 906.898178 224.346788 
L 907.149254 225.507719 
L 907.40033 225.812205 
L 907.651407 226.32571 
L 907.902483 226.082823 
L 908.15356 226.012298 
L 908.404636 225.256628 
L 908.404636 225.256628 
" style="fill:none;stroke:#1f77b4;stroke-linecap:square;"/>
   </g>
   <g id="patch_3">
    <path d="M 118.041 237.324063 
L 118.041 19.884063 
" style="fill:none;stroke:#000000;stroke-linecap:square;stroke-linejoin:miter;stroke-width:0.8;"/>
   </g>
   <g id="patch_4">
    <path d="M 946.041 237.324063 
L 946.041 19.884063 
" style="fill:none;stroke:#000000;stroke-linecap:square;stroke-linejoin:miter;stroke-width:0.8;"/>
   </g>
   <g id="patch_5">
    <path d="M 118.041 237.324063 
L 946.041 237.324063 
" style="fill:none;stroke:#000000;stroke-linecap:square;stroke-linejoin:miter;stroke-width:0.8;"/>
   </g>
   <g id="patch_6">
    <path d="M 118.041 19.884063 
L 946.041 19.884063 
" style="fill:none;stroke:#000000;stroke-linecap:square;stroke-linejoin:miter;stroke-width:0.8;"/>
   </g>
   <g id="legend_1">
    <g id="patch_7">
     <path d="M 959.521 105.383438 
L 1354.201 105.383438 
Q 1359.401 105.383438 1359.401 100.183438 
L 1359.401 25.084063 
Q 1359.401 19.884063 1354.201 19.884063 
L 959.521 19.884063 
Q 954.321 19.884063 954.321 25.084063 
L 954.321 100.183438 
Q 954.321 105.383438 959.521 105.383438 
z
" style="fill:#ffffff;opacity:0.8;stroke:#cccccc;stroke-linejoin:miter;"/>
    </g>
    <g id="line2d_14">
     <path d="M 964.721 40.11125 
L 1016.721 40.11125 
" style="fill:none;stroke:#1f77b4;stroke-linecap:square;"/>
    </g>
    <g id="line2d_15"/>
    <g id="text_9">
     <!-- Change point score -->
     <g transform="translate(1037.521 49.21125)scale(0.26 -0.26)">
      <use xlink:href="#ArialMT-67"/>
      <use x="72.216797" xlink:href="#ArialMT-104"/>
      <use x="127.832031" xlink:href="#ArialMT-97"/>
      <use x="183.447266" xlink:href="#ArialMT-110"/>
      <use x="239.0625" xlink:href="#ArialMT-103"/>
      <use x="294.677734" xlink:href="#ArialMT-101"/>
      <use x="350.292969" xlink:href="#ArialMT-32"/>
      <use x="378.076172" xlink:href="#ArialMT-112"/>
      <use x="433.691406" xlink:href="#ArialMT-111"/>
      <use x="489.306641" xlink:href="#ArialMT-105"/>
      <use x="511.523438" xlink:href="#ArialMT-110"/>
      <use x="567.138672" xlink:href="#ArialMT-116"/>
      <use x="594.921875" xlink:href="#ArialMT-32"/>
      <use x="622.705078" xlink:href="#ArialMT-115"/>
      <use x="672.705078" xlink:href="#ArialMT-99"/>
      <use x="722.705078" xlink:href="#ArialMT-111"/>
      <use x="778.320312" xlink:href="#ArialMT-114"/>
      <use x="811.621094" xlink:href="#ArialMT-101"/>
     </g>
    </g>
    <g id="PathCollection_2">
     <g>
      <use style="fill:#ff0000;stroke:#ff0000;" x="990.721" xlink:href="#m528a051598" y="82.438438"/>
     </g>
    </g>
    <g id="text_10">
     <!-- Change point (KL div &gt; $\zeta^*$) -->
     <defs>
      <path d="M 52.875 31.296875 
L 5.46875 11.03125 
L 5.46875 19.78125 
L 43.015625 35.359375 
L 5.46875 50.78125 
L 5.46875 59.515625 
L 52.875 39.5 
z
" id="ArialMT-62"/>
      <path d="M 29 68.296875 
L 29.5 66.796875 
Q 26 65.5 24.09375 63.59375 
Q 22.203125 61.703125 22.203125 59.796875 
Q 22.203125 55.796875 27 55 
Q 30 58.59375 35.390625 62.140625 
Q 40.796875 65.703125 44.40625 65.703125 
Q 47.5 65.703125 47.5 63.203125 
Q 47.5 59.90625 41.34375 56.25 
Q 35.203125 52.59375 28.5 52 
Q 21.40625 47.203125 14.75 36.34375 
Q 8.09375 25.5 8.09375 16.296875 
Q 8.09375 11.40625 10.84375 9.203125 
Q 13.59375 7 19 7 
Q 19.703125 7 21.09375 7.046875 
Q 22.5 7.09375 22.796875 7.09375 
Q 29.09375 7.09375 32.5 4.59375 
Q 35.90625 2.09375 35.90625 -2.09375 
Q 35.90625 -6.59375 33.09375 -10.59375 
Q 30.90625 -14 27 -16.25 
Q 23.09375 -18.5 19.703125 -18.5 
Q 16.90625 -18.5 14.953125 -17.203125 
Q 13 -15.90625 13 -13.296875 
Q 13 -11.59375 14.203125 -10.34375 
Q 15.40625 -9.09375 17.296875 -9.09375 
Q 18.90625 -9.09375 20.75 -10.546875 
Q 22.59375 -12 23.796875 -12 
Q 27.09375 -12 29.5 -10.046875 
Q 31.90625 -8.09375 31.90625 -5.09375 
Q 31.90625 -0.09375 24.296875 -0.09375 
Q 23 -0.09375 19.84375 -0.59375 
Q 16.703125 -1.09375 15.203125 -1.09375 
Q 3 -1.09375 3 10.703125 
Q 3 31.5 24.203125 52.203125 
L 24.09375 52.296875 
Q 21.5 52.296875 19.296875 53.84375 
Q 17.09375 55.40625 17.09375 58.09375 
Q 17.09375 61.296875 20.140625 64.046875 
Q 23.203125 66.796875 29 68.296875 
z
" id="STIXGeneral-Italic-950"/>
      <path d="M 26.796875 47.09375 
L 27.703125 46.5 
Q 31.40625 44.09375 37.296875 43.09375 
Q 40.703125 42.59375 42 41.640625 
Q 43.296875 40.703125 43.296875 38.796875 
Q 43.296875 37.09375 42.296875 36 
Q 41.296875 34.90625 39.703125 34.90625 
Q 37.203125 34.90625 33.703125 39.296875 
Q 31.40625 42.09375 26.796875 45.09375 
L 26 45.59375 
L 26 44.703125 
Q 26 39.09375 28 33.703125 
Q 28.90625 31.203125 28.90625 30.40625 
Q 28.90625 28.90625 27.65625 27.703125 
Q 26.40625 26.5 24.90625 26.5 
Q 23.5 26.5 22.390625 27.59375 
Q 21.296875 28.703125 21.296875 30.09375 
Q 21.296875 31.5 22.5 34.796875 
Q 24.09375 39.09375 24.09375 44.703125 
L 24.09375 45.59375 
Q 20.09375 43.09375 18.90625 42 
Q 17.703125 40.796875 14.796875 37.5 
Q 12.59375 35 10.5 35 
Q 8.796875 35 7.796875 36 
Q 6.796875 37 6.796875 38.59375 
Q 6.796875 40.5 8.25 41.5 
Q 9.703125 42.5 13.09375 43.09375 
Q 16.59375 43.796875 18.4375 44.5 
Q 20.296875 45.203125 23.40625 47.09375 
Q 19.09375 49.703125 13.703125 50.796875 
Q 10 51.59375 8.5 52.59375 
Q 7 53.59375 7 55.40625 
Q 7 57 7.890625 58.046875 
Q 8.796875 59.09375 10.296875 59.09375 
Q 12.296875 59.09375 15.203125 55.90625 
Q 19.40625 51.203125 24.09375 48.59375 
L 24.09375 49.90625 
Q 24.09375 54 22.59375 59 
Q 21.5 62.296875 21.5 64.203125 
Q 21.5 65.59375 22.546875 66.59375 
Q 23.59375 67.59375 25.09375 67.59375 
Q 26.59375 67.59375 27.6875 66.546875 
Q 28.796875 65.5 28.796875 64 
Q 28.796875 62.40625 27.703125 59.296875 
Q 26 54.796875 26 51 
L 26 48.59375 
Q 29.40625 50.59375 31.796875 52.796875 
Q 32.296875 53.296875 33.640625 54.75 
Q 35 56.203125 35.796875 57 
Q 36.59375 57.796875 37.640625 58.546875 
Q 38.703125 59.296875 39.5 59.296875 
Q 41.203125 59.296875 42.203125 58.25 
Q 43.203125 57.203125 43.203125 55.5 
Q 43.203125 53.5 42.046875 52.546875 
Q 40.90625 51.59375 38 51.203125 
Q 32.40625 50.296875 26.796875 47.09375 
z
" id="STIXGeneral-Regular-42"/>
     </defs>
     <g transform="translate(1037.521 89.263438)scale(0.26 -0.26)">
      <use transform="translate(0 0.409375)" xlink:href="#ArialMT-67"/>
      <use transform="translate(72.216797 0.409375)" xlink:href="#ArialMT-104"/>
      <use transform="translate(127.832031 0.409375)" xlink:href="#ArialMT-97"/>
      <use transform="translate(183.447266 0.409375)" xlink:href="#ArialMT-110"/>
      <use transform="translate(239.0625 0.409375)" xlink:href="#ArialMT-103"/>
      <use transform="translate(294.677734 0.409375)" xlink:href="#ArialMT-101"/>
      <use transform="translate(350.292969 0.409375)" xlink:href="#ArialMT-32"/>
      <use transform="translate(378.076172 0.409375)" xlink:href="#ArialMT-112"/>
      <use transform="translate(433.691406 0.409375)" xlink:href="#ArialMT-111"/>
      <use transform="translate(489.306641 0.409375)" xlink:href="#ArialMT-105"/>
      <use transform="translate(511.523438 0.409375)" xlink:href="#ArialMT-110"/>
      <use transform="translate(567.138672 0.409375)" xlink:href="#ArialMT-116"/>
      <use transform="translate(594.921875 0.409375)" xlink:href="#ArialMT-32"/>
      <use transform="translate(622.705078 0.409375)" xlink:href="#ArialMT-40"/>
      <use transform="translate(656.005859 0.409375)" xlink:href="#ArialMT-75"/>
      <use transform="translate(722.705078 0.409375)" xlink:href="#ArialMT-76"/>
      <use transform="translate(778.320312 0.409375)" xlink:href="#ArialMT-32"/>
      <use transform="translate(806.103516 0.409375)" xlink:href="#ArialMT-100"/>
      <use transform="translate(861.71875 0.409375)" xlink:href="#ArialMT-105"/>
      <use transform="translate(883.935547 0.409375)" xlink:href="#ArialMT-118"/>
      <use transform="translate(933.935547 0.409375)" xlink:href="#ArialMT-32"/>
      <use transform="translate(961.71875 0.409375)" xlink:href="#ArialMT-62"/>
      <use transform="translate(1020.117188 0.409375)" xlink:href="#ArialMT-32"/>
      <use transform="translate(1047.900391 0.409375)" xlink:href="#STIXGeneral-Italic-950"/>
      <use transform="translate(1114.664163 35.684375)scale(0.7)" xlink:href="#STIXGeneral-Regular-42"/>
      <use transform="translate(1164.181525 0.409375)" xlink:href="#ArialMT-41"/>
     </g>
    </g>
   </g>
  </g>
 </g>
 <defs>
  <clipPath id="p09638af699">
   <rect height="217.44" width="828" x="118.041" y="19.884063"/>
  </clipPath>
 </defs>
</svg>
