<?xml version="1.0" encoding="utf-8" standalone="no"?>
<!DOCTYPE svg PUBLIC "-//W3C//DTD SVG 1.1//EN"
  "http://www.w3.org/Graphics/SVG/1.1/DTD/svg11.dtd">
<!-- Created with matplotlib (https://matplotlib.org/) -->
<svg height="307.407188pt" version="1.1" viewBox="0 0 1370.101 307.407188" width="1370.101pt" xmlns="http://www.w3.org/2000/svg" xmlns:xlink="http://www.w3.org/1999/xlink">
 <defs>
  <style type="text/css">
*{stroke-linecap:butt;stroke-linejoin:round;}
  </style>
 </defs>
 <g id="figure_1">
  <g id="patch_1">
   <path d="M 0 307.407188 
L 1370.101 307.407188 
L 1370.101 0 
L 0 0 
z
" style="fill:#ffffff;"/>
  </g>
  <g id="axes_1">
   <g id="patch_2">
    <path d="M 121.541 237.324063 
L 949.541 237.324063 
L 949.541 19.884063 
L 121.541 19.884063 
z
" style="fill:#ffffff;"/>
   </g>
   <g id="PathCollection_1">
    <defs>
     <path d="M 0 3 
C 0.795609 3 1.55874 2.683901 2.12132 2.12132 
C 2.683901 1.55874 3 0.795609 3 0 
C 3 -0.795609 2.683901 -1.55874 2.12132 -2.12132 
C 1.55874 -2.683901 0.795609 -3 0 -3 
C -0.795609 -3 -1.55874 -2.683901 -2.12132 -2.12132 
C -2.683901 -1.55874 -3 -0.795609 -3 0 
C -3 0.795609 -2.683901 1.55874 -2.12132 2.12132 
C -1.55874 2.683901 -0.795609 3 0 3 
z
" id="me67692fab5" style="stroke:#ff0000;"/>
    </defs>
    <g clip-path="url(#p2588132326)">
     <use style="fill:#ff0000;stroke:#ff0000;" x="159.177364" xlink:href="#me67692fab5" y="29.767699"/>
     <use style="fill:#ff0000;stroke:#ff0000;" x="159.679349" xlink:href="#me67692fab5" y="218.063291"/>
     <use style="fill:#ff0000;stroke:#ff0000;" x="159.804846" xlink:href="#me67692fab5" y="217.618807"/>
     <use style="fill:#ff0000;stroke:#ff0000;" x="159.930342" xlink:href="#me67692fab5" y="211.159934"/>
     <use style="fill:#ff0000;stroke:#ff0000;" x="160.055838" xlink:href="#me67692fab5" y="207.574634"/>
     <use style="fill:#ff0000;stroke:#ff0000;" x="160.181335" xlink:href="#me67692fab5" y="216.019694"/>
     <use style="fill:#ff0000;stroke:#ff0000;" x="160.306831" xlink:href="#me67692fab5" y="219.517134"/>
     <use style="fill:#ff0000;stroke:#ff0000;" x="410.044622" xlink:href="#me67692fab5" y="221.098174"/>
     <use style="fill:#ff0000;stroke:#ff0000;" x="410.170119" xlink:href="#me67692fab5" y="221.027624"/>
     <use style="fill:#ff0000;stroke:#ff0000;" x="410.295615" xlink:href="#me67692fab5" y="220.56692"/>
     <use style="fill:#ff0000;stroke:#ff0000;" x="410.421112" xlink:href="#me67692fab5" y="220.132727"/>
     <use style="fill:#ff0000;stroke:#ff0000;" x="410.546608" xlink:href="#me67692fab5" y="220.014721"/>
     <use style="fill:#ff0000;stroke:#ff0000;" x="410.672104" xlink:href="#me67692fab5" y="219.875326"/>
     <use style="fill:#ff0000;stroke:#ff0000;" x="410.797601" xlink:href="#me67692fab5" y="219.407544"/>
     <use style="fill:#ff0000;stroke:#ff0000;" x="410.923097" xlink:href="#me67692fab5" y="219.66463"/>
     <use style="fill:#ff0000;stroke:#ff0000;" x="411.048593" xlink:href="#me67692fab5" y="219.198324"/>
     <use style="fill:#ff0000;stroke:#ff0000;" x="411.17409" xlink:href="#me67692fab5" y="218.665016"/>
     <use style="fill:#ff0000;stroke:#ff0000;" x="411.299586" xlink:href="#me67692fab5" y="218.970419"/>
     <use style="fill:#ff0000;stroke:#ff0000;" x="411.425083" xlink:href="#me67692fab5" y="218.589258"/>
     <use style="fill:#ff0000;stroke:#ff0000;" x="411.550579" xlink:href="#me67692fab5" y="218.518425"/>
     <use style="fill:#ff0000;stroke:#ff0000;" x="411.676075" xlink:href="#me67692fab5" y="218.532699"/>
     <use style="fill:#ff0000;stroke:#ff0000;" x="411.801572" xlink:href="#me67692fab5" y="218.173046"/>
     <use style="fill:#ff0000;stroke:#ff0000;" x="411.927068" xlink:href="#me67692fab5" y="218.214897"/>
     <use style="fill:#ff0000;stroke:#ff0000;" x="412.052564" xlink:href="#me67692fab5" y="218.240233"/>
     <use style="fill:#ff0000;stroke:#ff0000;" x="412.178061" xlink:href="#me67692fab5" y="218.018099"/>
     <use style="fill:#ff0000;stroke:#ff0000;" x="412.303557" xlink:href="#me67692fab5" y="218.017443"/>
     <use style="fill:#ff0000;stroke:#ff0000;" x="412.429054" xlink:href="#me67692fab5" y="217.825534"/>
     <use style="fill:#ff0000;stroke:#ff0000;" x="412.55455" xlink:href="#me67692fab5" y="217.843252"/>
     <use style="fill:#ff0000;stroke:#ff0000;" x="412.680046" xlink:href="#me67692fab5" y="218.009662"/>
     <use style="fill:#ff0000;stroke:#ff0000;" x="412.805543" xlink:href="#me67692fab5" y="217.912544"/>
     <use style="fill:#ff0000;stroke:#ff0000;" x="412.931039" xlink:href="#me67692fab5" y="218.10429"/>
     <use style="fill:#ff0000;stroke:#ff0000;" x="413.056535" xlink:href="#me67692fab5" y="218.225534"/>
     <use style="fill:#ff0000;stroke:#ff0000;" x="413.182032" xlink:href="#me67692fab5" y="218.021995"/>
     <use style="fill:#ff0000;stroke:#ff0000;" x="413.307528" xlink:href="#me67692fab5" y="218.19707"/>
     <use style="fill:#ff0000;stroke:#ff0000;" x="413.433025" xlink:href="#me67692fab5" y="218.506832"/>
     <use style="fill:#ff0000;stroke:#ff0000;" x="413.558521" xlink:href="#me67692fab5" y="218.629024"/>
     <use style="fill:#ff0000;stroke:#ff0000;" x="413.684017" xlink:href="#me67692fab5" y="218.658738"/>
     <use style="fill:#ff0000;stroke:#ff0000;" x="413.809514" xlink:href="#me67692fab5" y="218.968179"/>
     <use style="fill:#ff0000;stroke:#ff0000;" x="413.93501" xlink:href="#me67692fab5" y="219.165159"/>
     <use style="fill:#ff0000;stroke:#ff0000;" x="414.060507" xlink:href="#me67692fab5" y="219.475437"/>
     <use style="fill:#ff0000;stroke:#ff0000;" x="414.186003" xlink:href="#me67692fab5" y="219.677162"/>
     <use style="fill:#ff0000;stroke:#ff0000;" x="414.311499" xlink:href="#me67692fab5" y="219.979493"/>
     <use style="fill:#ff0000;stroke:#ff0000;" x="414.436996" xlink:href="#me67692fab5" y="220.077111"/>
     <use style="fill:#ff0000;stroke:#ff0000;" x="414.562492" xlink:href="#me67692fab5" y="220.645337"/>
     <use style="fill:#ff0000;stroke:#ff0000;" x="414.687988" xlink:href="#me67692fab5" y="220.62841"/>
     <use style="fill:#ff0000;stroke:#ff0000;" x="414.813485" xlink:href="#me67692fab5" y="221.091529"/>
     <use style="fill:#ff0000;stroke:#ff0000;" x="418.954865" xlink:href="#me67692fab5" y="221.148529"/>
     <use style="fill:#ff0000;stroke:#ff0000;" x="419.080362" xlink:href="#me67692fab5" y="221.065759"/>
     <use style="fill:#ff0000;stroke:#ff0000;" x="419.205858" xlink:href="#me67692fab5" y="220.45267"/>
     <use style="fill:#ff0000;stroke:#ff0000;" x="419.331354" xlink:href="#me67692fab5" y="220.156142"/>
     <use style="fill:#ff0000;stroke:#ff0000;" x="419.456851" xlink:href="#me67692fab5" y="219.754625"/>
     <use style="fill:#ff0000;stroke:#ff0000;" x="419.582347" xlink:href="#me67692fab5" y="219.015973"/>
     <use style="fill:#ff0000;stroke:#ff0000;" x="419.707843" xlink:href="#me67692fab5" y="219.059325"/>
     <use style="fill:#ff0000;stroke:#ff0000;" x="419.83334" xlink:href="#me67692fab5" y="218.761254"/>
     <use style="fill:#ff0000;stroke:#ff0000;" x="419.958836" xlink:href="#me67692fab5" y="218.643112"/>
     <use style="fill:#ff0000;stroke:#ff0000;" x="420.084333" xlink:href="#me67692fab5" y="218.579411"/>
     <use style="fill:#ff0000;stroke:#ff0000;" x="420.209829" xlink:href="#me67692fab5" y="218.360168"/>
     <use style="fill:#ff0000;stroke:#ff0000;" x="420.335325" xlink:href="#me67692fab5" y="218.253945"/>
     <use style="fill:#ff0000;stroke:#ff0000;" x="420.460822" xlink:href="#me67692fab5" y="218.233548"/>
     <use style="fill:#ff0000;stroke:#ff0000;" x="420.586318" xlink:href="#me67692fab5" y="218.453805"/>
     <use style="fill:#ff0000;stroke:#ff0000;" x="420.711815" xlink:href="#me67692fab5" y="218.308735"/>
     <use style="fill:#ff0000;stroke:#ff0000;" x="420.837311" xlink:href="#me67692fab5" y="218.427286"/>
     <use style="fill:#ff0000;stroke:#ff0000;" x="420.962807" xlink:href="#me67692fab5" y="218.851216"/>
     <use style="fill:#ff0000;stroke:#ff0000;" x="421.088304" xlink:href="#me67692fab5" y="218.971808"/>
     <use style="fill:#ff0000;stroke:#ff0000;" x="421.2138" xlink:href="#me67692fab5" y="219.316593"/>
     <use style="fill:#ff0000;stroke:#ff0000;" x="421.339296" xlink:href="#me67692fab5" y="219.743091"/>
     <use style="fill:#ff0000;stroke:#ff0000;" x="421.464793" xlink:href="#me67692fab5" y="220.06337"/>
     <use style="fill:#ff0000;stroke:#ff0000;" x="421.590289" xlink:href="#me67692fab5" y="220.459379"/>
     <use style="fill:#ff0000;stroke:#ff0000;" x="421.715786" xlink:href="#me67692fab5" y="220.902381"/>
     <use style="fill:#ff0000;stroke:#ff0000;" x="421.841282" xlink:href="#me67692fab5" y="221.083563"/>
    </g>
   </g>
   <g id="matplotlib.axis_1">
    <g id="xtick_1">
     <g id="line2d_1">
      <path clip-path="url(#p2588132326)" d="M 159.051867 237.324063 
L 159.051867 19.884063 
" style="fill:none;stroke:#b0b0b0;stroke-linecap:square;stroke-width:0.8;"/>
     </g>
     <g id="line2d_2">
      <defs>
       <path d="M 0 0 
L 0 3.5 
" id="m40077ea343" style="stroke:#000000;stroke-width:0.8;"/>
      </defs>
      <g>
       <use style="stroke:#000000;stroke-width:0.8;" x="159.051867" xlink:href="#m40077ea343" y="237.324063"/>
      </g>
     </g>
     <g id="text_1">
      <!-- 0 -->
      <defs>
       <path d="M 4.15625 35.296875 
Q 4.15625 48 6.765625 55.734375 
Q 9.375 63.484375 14.515625 67.671875 
Q 19.671875 71.875 27.484375 71.875 
Q 33.25 71.875 37.59375 69.546875 
Q 41.9375 67.234375 44.765625 62.859375 
Q 47.609375 58.5 49.21875 52.21875 
Q 50.828125 45.953125 50.828125 35.296875 
Q 50.828125 22.703125 48.234375 14.96875 
Q 45.65625 7.234375 40.5 3 
Q 35.359375 -1.21875 27.484375 -1.21875 
Q 17.140625 -1.21875 11.234375 6.203125 
Q 4.15625 15.140625 4.15625 35.296875 
z
M 13.1875 35.296875 
Q 13.1875 17.671875 17.3125 11.828125 
Q 21.4375 6 27.484375 6 
Q 33.546875 6 37.671875 11.859375 
Q 41.796875 17.71875 41.796875 35.296875 
Q 41.796875 52.984375 37.671875 58.78125 
Q 33.546875 64.59375 27.390625 64.59375 
Q 21.34375 64.59375 17.71875 59.46875 
Q 13.1875 52.9375 13.1875 35.296875 
z
" id="ArialMT-48"/>
      </defs>
      <g transform="translate(151.266555 264.365938)scale(0.28 -0.28)">
       <use xlink:href="#ArialMT-48"/>
      </g>
     </g>
    </g>
    <g id="xtick_2">
     <g id="line2d_3">
      <path clip-path="url(#p2588132326)" d="M 410.044622 237.324063 
L 410.044622 19.884063 
" style="fill:none;stroke:#b0b0b0;stroke-linecap:square;stroke-width:0.8;"/>
     </g>
     <g id="line2d_4">
      <g>
       <use style="stroke:#000000;stroke-width:0.8;" x="410.044622" xlink:href="#m40077ea343" y="237.324063"/>
      </g>
     </g>
     <g id="text_2">
      <!-- 20 -->
      <defs>
       <path d="M 50.34375 8.453125 
L 50.34375 0 
L 3.03125 0 
Q 2.9375 3.171875 4.046875 6.109375 
Q 5.859375 10.9375 9.828125 15.625 
Q 13.8125 20.3125 21.34375 26.46875 
Q 33.015625 36.03125 37.109375 41.625 
Q 41.21875 47.21875 41.21875 52.203125 
Q 41.21875 57.421875 37.46875 61 
Q 33.734375 64.59375 27.734375 64.59375 
Q 21.390625 64.59375 17.578125 60.78125 
Q 13.765625 56.984375 13.71875 50.25 
L 4.6875 51.171875 
Q 5.609375 61.28125 11.65625 66.578125 
Q 17.71875 71.875 27.9375 71.875 
Q 38.234375 71.875 44.234375 66.15625 
Q 50.25 60.453125 50.25 52 
Q 50.25 47.703125 48.484375 43.546875 
Q 46.734375 39.40625 42.65625 34.8125 
Q 38.578125 30.21875 29.109375 22.21875 
Q 21.1875 15.578125 18.9375 13.203125 
Q 16.703125 10.84375 15.234375 8.453125 
z
" id="ArialMT-50"/>
      </defs>
      <g transform="translate(394.473997 264.365938)scale(0.28 -0.28)">
       <use xlink:href="#ArialMT-50"/>
       <use x="55.615234" xlink:href="#ArialMT-48"/>
      </g>
     </g>
    </g>
    <g id="xtick_3">
     <g id="line2d_5">
      <path clip-path="url(#p2588132326)" d="M 661.037378 237.324063 
L 661.037378 19.884063 
" style="fill:none;stroke:#b0b0b0;stroke-linecap:square;stroke-width:0.8;"/>
     </g>
     <g id="line2d_6">
      <g>
       <use style="stroke:#000000;stroke-width:0.8;" x="661.037378" xlink:href="#m40077ea343" y="237.324063"/>
      </g>
     </g>
     <g id="text_3">
      <!-- 40 -->
      <defs>
       <path d="M 32.328125 0 
L 32.328125 17.140625 
L 1.265625 17.140625 
L 1.265625 25.203125 
L 33.9375 71.578125 
L 41.109375 71.578125 
L 41.109375 25.203125 
L 50.78125 25.203125 
L 50.78125 17.140625 
L 41.109375 17.140625 
L 41.109375 0 
z
M 32.328125 25.203125 
L 32.328125 57.46875 
L 9.90625 25.203125 
z
" id="ArialMT-52"/>
      </defs>
      <g transform="translate(645.466753 264.365938)scale(0.28 -0.28)">
       <use xlink:href="#ArialMT-52"/>
       <use x="55.615234" xlink:href="#ArialMT-48"/>
      </g>
     </g>
    </g>
    <g id="xtick_4">
     <g id="line2d_7">
      <path clip-path="url(#p2588132326)" d="M 912.030133 237.324063 
L 912.030133 19.884063 
" style="fill:none;stroke:#b0b0b0;stroke-linecap:square;stroke-width:0.8;"/>
     </g>
     <g id="line2d_8">
      <g>
       <use style="stroke:#000000;stroke-width:0.8;" x="912.030133" xlink:href="#m40077ea343" y="237.324063"/>
      </g>
     </g>
     <g id="text_4">
      <!-- 60 -->
      <defs>
       <path d="M 49.75 54.046875 
L 41.015625 53.375 
Q 39.84375 58.546875 37.703125 60.890625 
Q 34.125 64.65625 28.90625 64.65625 
Q 24.703125 64.65625 21.53125 62.3125 
Q 17.390625 59.28125 14.984375 53.46875 
Q 12.59375 47.65625 12.5 36.921875 
Q 15.671875 41.75 20.265625 44.09375 
Q 24.859375 46.4375 29.890625 46.4375 
Q 38.671875 46.4375 44.84375 39.96875 
Q 51.03125 33.5 51.03125 23.25 
Q 51.03125 16.5 48.125 10.71875 
Q 45.21875 4.9375 40.140625 1.859375 
Q 35.0625 -1.21875 28.609375 -1.21875 
Q 17.625 -1.21875 10.6875 6.859375 
Q 3.765625 14.9375 3.765625 33.5 
Q 3.765625 54.25 11.421875 63.671875 
Q 18.109375 71.875 29.4375 71.875 
Q 37.890625 71.875 43.28125 67.140625 
Q 48.6875 62.40625 49.75 54.046875 
z
M 13.875 23.1875 
Q 13.875 18.65625 15.796875 14.5 
Q 17.71875 10.359375 21.1875 8.171875 
Q 24.65625 6 28.46875 6 
Q 34.03125 6 38.03125 10.484375 
Q 42.046875 14.984375 42.046875 22.703125 
Q 42.046875 30.125 38.078125 34.390625 
Q 34.125 38.671875 28.125 38.671875 
Q 22.171875 38.671875 18.015625 34.390625 
Q 13.875 30.125 13.875 23.1875 
z
" id="ArialMT-54"/>
      </defs>
      <g transform="translate(896.459508 264.365938)scale(0.28 -0.28)">
       <use xlink:href="#ArialMT-54"/>
       <use x="55.615234" xlink:href="#ArialMT-48"/>
      </g>
     </g>
    </g>
    <g id="text_5">
     <!-- time (s) -->
     <defs>
      <path d="M 25.78125 7.859375 
L 27.046875 0.09375 
Q 23.34375 -0.6875 20.40625 -0.6875 
Q 15.625 -0.6875 12.984375 0.828125 
Q 10.359375 2.34375 9.28125 4.8125 
Q 8.203125 7.28125 8.203125 15.1875 
L 8.203125 45.015625 
L 1.765625 45.015625 
L 1.765625 51.859375 
L 8.203125 51.859375 
L 8.203125 64.703125 
L 16.9375 69.96875 
L 16.9375 51.859375 
L 25.78125 51.859375 
L 25.78125 45.015625 
L 16.9375 45.015625 
L 16.9375 14.703125 
Q 16.9375 10.9375 17.40625 9.859375 
Q 17.875 8.796875 18.921875 8.15625 
Q 19.96875 7.515625 21.921875 7.515625 
Q 23.390625 7.515625 25.78125 7.859375 
z
" id="ArialMT-116"/>
      <path d="M 6.640625 61.46875 
L 6.640625 71.578125 
L 15.4375 71.578125 
L 15.4375 61.46875 
z
M 6.640625 0 
L 6.640625 51.859375 
L 15.4375 51.859375 
L 15.4375 0 
z
" id="ArialMT-105"/>
      <path d="M 6.59375 0 
L 6.59375 51.859375 
L 14.453125 51.859375 
L 14.453125 44.578125 
Q 16.890625 48.390625 20.9375 50.703125 
Q 25 53.03125 30.171875 53.03125 
Q 35.9375 53.03125 39.625 50.640625 
Q 43.3125 48.25 44.828125 43.953125 
Q 50.984375 53.03125 60.84375 53.03125 
Q 68.5625 53.03125 72.703125 48.75 
Q 76.859375 44.484375 76.859375 35.59375 
L 76.859375 0 
L 68.109375 0 
L 68.109375 32.671875 
Q 68.109375 37.9375 67.25 40.25 
Q 66.40625 42.578125 64.15625 43.984375 
Q 61.921875 45.40625 58.890625 45.40625 
Q 53.421875 45.40625 49.796875 41.765625 
Q 46.1875 38.140625 46.1875 30.125 
L 46.1875 0 
L 37.40625 0 
L 37.40625 33.6875 
Q 37.40625 39.546875 35.25 42.46875 
Q 33.109375 45.40625 28.21875 45.40625 
Q 24.515625 45.40625 21.359375 43.453125 
Q 18.21875 41.5 16.796875 37.734375 
Q 15.375 33.984375 15.375 26.90625 
L 15.375 0 
z
" id="ArialMT-109"/>
      <path d="M 42.09375 16.703125 
L 51.171875 15.578125 
Q 49.03125 7.625 43.21875 3.21875 
Q 37.40625 -1.171875 28.375 -1.171875 
Q 17 -1.171875 10.328125 5.828125 
Q 3.65625 12.84375 3.65625 25.484375 
Q 3.65625 38.578125 10.390625 45.796875 
Q 17.140625 53.03125 27.875 53.03125 
Q 38.28125 53.03125 44.875 45.953125 
Q 51.46875 38.875 51.46875 26.03125 
Q 51.46875 25.25 51.421875 23.6875 
L 12.75 23.6875 
Q 13.234375 15.140625 17.578125 10.59375 
Q 21.921875 6.0625 28.421875 6.0625 
Q 33.25 6.0625 36.671875 8.59375 
Q 40.09375 11.140625 42.09375 16.703125 
z
M 13.234375 30.90625 
L 42.1875 30.90625 
Q 41.609375 37.453125 38.875 40.71875 
Q 34.671875 45.796875 27.984375 45.796875 
Q 21.921875 45.796875 17.796875 41.75 
Q 13.671875 37.703125 13.234375 30.90625 
z
" id="ArialMT-101"/>
      <path id="ArialMT-32"/>
      <path d="M 23.390625 -21.046875 
Q 16.109375 -11.859375 11.078125 0.4375 
Q 6.0625 12.75 6.0625 25.921875 
Q 6.0625 37.546875 9.8125 48.1875 
Q 14.203125 60.546875 23.390625 72.796875 
L 29.6875 72.796875 
Q 23.78125 62.640625 21.875 58.296875 
Q 18.890625 51.5625 17.1875 44.234375 
Q 15.09375 35.109375 15.09375 25.875 
Q 15.09375 2.390625 29.6875 -21.046875 
z
" id="ArialMT-40"/>
      <path d="M 3.078125 15.484375 
L 11.765625 16.84375 
Q 12.5 11.625 15.84375 8.84375 
Q 19.1875 6.0625 25.203125 6.0625 
Q 31.25 6.0625 34.171875 8.515625 
Q 37.109375 10.984375 37.109375 14.3125 
Q 37.109375 17.28125 34.515625 19 
Q 32.71875 20.171875 25.53125 21.96875 
Q 15.875 24.421875 12.140625 26.203125 
Q 8.40625 27.984375 6.46875 31.125 
Q 4.546875 34.28125 4.546875 38.09375 
Q 4.546875 41.546875 6.125 44.5 
Q 7.71875 47.46875 10.453125 49.421875 
Q 12.5 50.921875 16.03125 51.96875 
Q 19.578125 53.03125 23.640625 53.03125 
Q 29.734375 53.03125 34.34375 51.265625 
Q 38.96875 49.515625 41.15625 46.5 
Q 43.359375 43.5 44.1875 38.484375 
L 35.59375 37.3125 
Q 35.015625 41.3125 32.203125 43.546875 
Q 29.390625 45.796875 24.265625 45.796875 
Q 18.21875 45.796875 15.625 43.796875 
Q 13.03125 41.796875 13.03125 39.109375 
Q 13.03125 37.40625 14.109375 36.03125 
Q 15.1875 34.625 17.484375 33.6875 
Q 18.796875 33.203125 25.25 31.453125 
Q 34.578125 28.953125 38.25 27.359375 
Q 41.9375 25.78125 44.03125 22.75 
Q 46.140625 19.734375 46.140625 15.234375 
Q 46.140625 10.84375 43.578125 6.953125 
Q 41.015625 3.078125 36.171875 0.953125 
Q 31.34375 -1.171875 25.25 -1.171875 
Q 15.140625 -1.171875 9.84375 3.03125 
Q 4.546875 7.234375 3.078125 15.484375 
z
" id="ArialMT-115"/>
      <path d="M 12.359375 -21.046875 
L 6.0625 -21.046875 
Q 20.65625 2.390625 20.65625 25.875 
Q 20.65625 35.0625 18.5625 44.09375 
Q 16.890625 51.421875 13.921875 58.15625 
Q 12.015625 62.546875 6.0625 72.796875 
L 12.359375 72.796875 
Q 21.53125 60.546875 25.921875 48.1875 
Q 29.6875 37.546875 29.6875 25.921875 
Q 29.6875 12.75 24.625 0.4375 
Q 19.578125 -11.859375 12.359375 -21.046875 
z
" id="ArialMT-41"/>
     </defs>
     <g transform="translate(488.881625 294.314063)scale(0.28 -0.28)">
      <use xlink:href="#ArialMT-116"/>
      <use x="27.783203" xlink:href="#ArialMT-105"/>
      <use x="50" xlink:href="#ArialMT-109"/>
      <use x="133.300781" xlink:href="#ArialMT-101"/>
      <use x="188.916016" xlink:href="#ArialMT-32"/>
      <use x="216.699219" xlink:href="#ArialMT-40"/>
      <use x="250" xlink:href="#ArialMT-115"/>
      <use x="300" xlink:href="#ArialMT-41"/>
     </g>
    </g>
   </g>
   <g id="matplotlib.axis_2">
    <g id="ytick_1">
     <g id="line2d_9">
      <path clip-path="url(#p2588132326)" d="M 121.541 227.44044 
L 949.541 227.44044 
" style="fill:none;stroke:#b0b0b0;stroke-linecap:square;stroke-width:0.8;"/>
     </g>
     <g id="line2d_10">
      <defs>
       <path d="M 0 0 
L -3.5 0 
" id="m6384ad062b" style="stroke:#000000;stroke-width:0.8;"/>
      </defs>
      <g>
       <use style="stroke:#000000;stroke-width:0.8;" x="121.541" xlink:href="#m6384ad062b" y="227.44044"/>
      </g>
     </g>
     <g id="text_6">
      <!-- 0 -->
      <g transform="translate(98.970375 237.461378)scale(0.28 -0.28)">
       <use xlink:href="#ArialMT-48"/>
      </g>
     </g>
    </g>
    <g id="ytick_2">
     <g id="line2d_11">
      <path clip-path="url(#p2588132326)" d="M 121.541 117.175693 
L 949.541 117.175693 
" style="fill:none;stroke:#b0b0b0;stroke-linecap:square;stroke-width:0.8;"/>
     </g>
     <g id="line2d_12">
      <g>
       <use style="stroke:#000000;stroke-width:0.8;" x="121.541" xlink:href="#m6384ad062b" y="117.175693"/>
      </g>
     </g>
     <g id="text_7">
      <!-- 200 -->
      <g transform="translate(67.829125 127.19663)scale(0.28 -0.28)">
       <use xlink:href="#ArialMT-50"/>
       <use x="55.615234" xlink:href="#ArialMT-48"/>
       <use x="111.230469" xlink:href="#ArialMT-48"/>
      </g>
     </g>
    </g>
    <g id="text_8">
     <!-- Change point score -->
     <defs>
      <path d="M 58.796875 25.09375 
L 68.265625 22.703125 
Q 65.28125 11.03125 57.546875 4.90625 
Q 49.8125 -1.21875 38.625 -1.21875 
Q 27.046875 -1.21875 19.796875 3.484375 
Q 12.546875 8.203125 8.765625 17.140625 
Q 4.984375 26.078125 4.984375 36.328125 
Q 4.984375 47.515625 9.25 55.828125 
Q 13.53125 64.15625 21.40625 68.46875 
Q 29.296875 72.796875 38.765625 72.796875 
Q 49.515625 72.796875 56.828125 67.328125 
Q 64.15625 61.859375 67.046875 51.953125 
L 57.71875 49.75 
Q 55.21875 57.5625 50.484375 61.125 
Q 45.75 64.703125 38.578125 64.703125 
Q 30.328125 64.703125 24.78125 60.734375 
Q 19.234375 56.78125 16.984375 50.109375 
Q 14.75 43.453125 14.75 36.375 
Q 14.75 27.25 17.40625 20.4375 
Q 20.0625 13.625 25.671875 10.25 
Q 31.296875 6.890625 37.84375 6.890625 
Q 45.796875 6.890625 51.3125 11.46875 
Q 56.84375 16.0625 58.796875 25.09375 
z
" id="ArialMT-67"/>
      <path d="M 6.59375 0 
L 6.59375 71.578125 
L 15.375 71.578125 
L 15.375 45.90625 
Q 21.53125 53.03125 30.90625 53.03125 
Q 36.671875 53.03125 40.921875 50.75 
Q 45.171875 48.484375 47 44.484375 
Q 48.828125 40.484375 48.828125 32.859375 
L 48.828125 0 
L 40.046875 0 
L 40.046875 32.859375 
Q 40.046875 39.453125 37.1875 42.453125 
Q 34.328125 45.453125 29.109375 45.453125 
Q 25.203125 45.453125 21.75 43.421875 
Q 18.3125 41.40625 16.84375 37.9375 
Q 15.375 34.46875 15.375 28.375 
L 15.375 0 
z
" id="ArialMT-104"/>
      <path d="M 40.4375 6.390625 
Q 35.546875 2.25 31.03125 0.53125 
Q 26.515625 -1.171875 21.34375 -1.171875 
Q 12.796875 -1.171875 8.203125 3 
Q 3.609375 7.171875 3.609375 13.671875 
Q 3.609375 17.484375 5.34375 20.625 
Q 7.078125 23.78125 9.890625 25.6875 
Q 12.703125 27.59375 16.21875 28.5625 
Q 18.796875 29.25 24.03125 29.890625 
Q 34.671875 31.15625 39.703125 32.90625 
Q 39.75 34.71875 39.75 35.203125 
Q 39.75 40.578125 37.25 42.78125 
Q 33.890625 45.75 27.25 45.75 
Q 21.046875 45.75 18.09375 43.578125 
Q 15.140625 41.40625 13.71875 35.890625 
L 5.125 37.0625 
Q 6.296875 42.578125 8.984375 45.96875 
Q 11.671875 49.359375 16.75 51.1875 
Q 21.828125 53.03125 28.515625 53.03125 
Q 35.15625 53.03125 39.296875 51.46875 
Q 43.453125 49.90625 45.40625 47.53125 
Q 47.359375 45.171875 48.140625 41.546875 
Q 48.578125 39.3125 48.578125 33.453125 
L 48.578125 21.734375 
Q 48.578125 9.46875 49.140625 6.21875 
Q 49.703125 2.984375 51.375 0 
L 42.1875 0 
Q 40.828125 2.734375 40.4375 6.390625 
z
M 39.703125 26.03125 
Q 34.90625 24.078125 25.34375 22.703125 
Q 19.921875 21.921875 17.671875 20.9375 
Q 15.4375 19.96875 14.203125 18.09375 
Q 12.984375 16.21875 12.984375 13.921875 
Q 12.984375 10.40625 15.640625 8.0625 
Q 18.3125 5.71875 23.4375 5.71875 
Q 28.515625 5.71875 32.46875 7.9375 
Q 36.421875 10.15625 38.28125 14.015625 
Q 39.703125 17 39.703125 22.796875 
z
" id="ArialMT-97"/>
      <path d="M 6.59375 0 
L 6.59375 51.859375 
L 14.5 51.859375 
L 14.5 44.484375 
Q 20.21875 53.03125 31 53.03125 
Q 35.6875 53.03125 39.625 51.34375 
Q 43.5625 49.65625 45.515625 46.921875 
Q 47.46875 44.1875 48.25 40.4375 
Q 48.734375 37.984375 48.734375 31.890625 
L 48.734375 0 
L 39.9375 0 
L 39.9375 31.546875 
Q 39.9375 36.921875 38.90625 39.578125 
Q 37.890625 42.234375 35.28125 43.8125 
Q 32.671875 45.40625 29.15625 45.40625 
Q 23.53125 45.40625 19.453125 41.84375 
Q 15.375 38.28125 15.375 28.328125 
L 15.375 0 
z
" id="ArialMT-110"/>
      <path d="M 4.984375 -4.296875 
L 13.53125 -5.5625 
Q 14.0625 -9.515625 16.5 -11.328125 
Q 19.78125 -13.765625 25.4375 -13.765625 
Q 31.546875 -13.765625 34.859375 -11.328125 
Q 38.1875 -8.890625 39.359375 -4.5 
Q 40.046875 -1.8125 39.984375 6.78125 
Q 34.234375 0 25.640625 0 
Q 14.9375 0 9.078125 7.71875 
Q 3.21875 15.4375 3.21875 26.21875 
Q 3.21875 33.640625 5.90625 39.90625 
Q 8.59375 46.1875 13.6875 49.609375 
Q 18.796875 53.03125 25.6875 53.03125 
Q 34.859375 53.03125 40.828125 45.609375 
L 40.828125 51.859375 
L 48.921875 51.859375 
L 48.921875 7.03125 
Q 48.921875 -5.078125 46.453125 -10.125 
Q 44 -15.1875 38.640625 -18.109375 
Q 33.296875 -21.046875 25.484375 -21.046875 
Q 16.21875 -21.046875 10.5 -16.875 
Q 4.78125 -12.703125 4.984375 -4.296875 
z
M 12.25 26.859375 
Q 12.25 16.65625 16.296875 11.96875 
Q 20.359375 7.28125 26.46875 7.28125 
Q 32.515625 7.28125 36.609375 11.9375 
Q 40.71875 16.609375 40.71875 26.5625 
Q 40.71875 36.078125 36.5 40.90625 
Q 32.28125 45.75 26.3125 45.75 
Q 20.453125 45.75 16.34375 40.984375 
Q 12.25 36.234375 12.25 26.859375 
z
" id="ArialMT-103"/>
      <path d="M 6.59375 -19.875 
L 6.59375 51.859375 
L 14.59375 51.859375 
L 14.59375 45.125 
Q 17.4375 49.078125 21 51.046875 
Q 24.5625 53.03125 29.640625 53.03125 
Q 36.28125 53.03125 41.359375 49.609375 
Q 46.4375 46.1875 49.015625 39.953125 
Q 51.609375 33.734375 51.609375 26.3125 
Q 51.609375 18.359375 48.75 11.984375 
Q 45.90625 5.609375 40.453125 2.21875 
Q 35.015625 -1.171875 29 -1.171875 
Q 24.609375 -1.171875 21.109375 0.6875 
Q 17.625 2.546875 15.375 5.375 
L 15.375 -19.875 
z
M 14.546875 25.640625 
Q 14.546875 15.625 18.59375 10.84375 
Q 22.65625 6.0625 28.421875 6.0625 
Q 34.28125 6.0625 38.453125 11.015625 
Q 42.625 15.96875 42.625 26.375 
Q 42.625 36.28125 38.546875 41.203125 
Q 34.46875 46.140625 28.8125 46.140625 
Q 23.1875 46.140625 18.859375 40.890625 
Q 14.546875 35.640625 14.546875 25.640625 
z
" id="ArialMT-112"/>
      <path d="M 3.328125 25.921875 
Q 3.328125 40.328125 11.328125 47.265625 
Q 18.015625 53.03125 27.640625 53.03125 
Q 38.328125 53.03125 45.109375 46.015625 
Q 51.90625 39.015625 51.90625 26.65625 
Q 51.90625 16.65625 48.90625 10.90625 
Q 45.90625 5.171875 40.15625 2 
Q 34.421875 -1.171875 27.640625 -1.171875 
Q 16.75 -1.171875 10.03125 5.8125 
Q 3.328125 12.796875 3.328125 25.921875 
z
M 12.359375 25.921875 
Q 12.359375 15.96875 16.703125 11.015625 
Q 21.046875 6.0625 27.640625 6.0625 
Q 34.1875 6.0625 38.53125 11.03125 
Q 42.875 16.015625 42.875 26.21875 
Q 42.875 35.84375 38.5 40.796875 
Q 34.125 45.75 27.640625 45.75 
Q 21.046875 45.75 16.703125 40.8125 
Q 12.359375 35.890625 12.359375 25.921875 
z
" id="ArialMT-111"/>
      <path d="M 40.4375 19 
L 49.078125 17.875 
Q 47.65625 8.9375 41.8125 3.875 
Q 35.984375 -1.171875 27.484375 -1.171875 
Q 16.84375 -1.171875 10.375 5.78125 
Q 3.90625 12.75 3.90625 25.734375 
Q 3.90625 34.125 6.6875 40.421875 
Q 9.46875 46.734375 15.15625 49.875 
Q 20.84375 53.03125 27.546875 53.03125 
Q 35.984375 53.03125 41.359375 48.75 
Q 46.734375 44.484375 48.25 36.625 
L 39.703125 35.296875 
Q 38.484375 40.53125 35.375 43.15625 
Q 32.28125 45.796875 27.875 45.796875 
Q 21.234375 45.796875 17.078125 41.03125 
Q 12.9375 36.28125 12.9375 25.984375 
Q 12.9375 15.53125 16.9375 10.796875 
Q 20.953125 6.0625 27.390625 6.0625 
Q 32.5625 6.0625 36.03125 9.234375 
Q 39.5 12.40625 40.4375 19 
z
" id="ArialMT-99"/>
      <path d="M 6.5 0 
L 6.5 51.859375 
L 14.40625 51.859375 
L 14.40625 44 
Q 17.4375 49.515625 20 51.265625 
Q 22.5625 53.03125 25.640625 53.03125 
Q 30.078125 53.03125 34.671875 50.203125 
L 31.640625 42.046875 
Q 28.421875 43.953125 25.203125 43.953125 
Q 22.3125 43.953125 20.015625 42.21875 
Q 17.71875 40.484375 16.75 37.40625 
Q 15.28125 32.71875 15.28125 27.15625 
L 15.28125 0 
z
" id="ArialMT-114"/>
     </defs>
     <g transform="translate(27.583125 250.008125)rotate(-90)scale(0.28 -0.28)">
      <use xlink:href="#ArialMT-67"/>
      <use x="72.216797" xlink:href="#ArialMT-104"/>
      <use x="127.832031" xlink:href="#ArialMT-97"/>
      <use x="183.447266" xlink:href="#ArialMT-110"/>
      <use x="239.0625" xlink:href="#ArialMT-103"/>
      <use x="294.677734" xlink:href="#ArialMT-101"/>
      <use x="350.292969" xlink:href="#ArialMT-32"/>
      <use x="378.076172" xlink:href="#ArialMT-112"/>
      <use x="433.691406" xlink:href="#ArialMT-111"/>
      <use x="489.306641" xlink:href="#ArialMT-105"/>
      <use x="511.523438" xlink:href="#ArialMT-110"/>
      <use x="567.138672" xlink:href="#ArialMT-116"/>
      <use x="594.921875" xlink:href="#ArialMT-32"/>
      <use x="622.705078" xlink:href="#ArialMT-115"/>
      <use x="672.705078" xlink:href="#ArialMT-99"/>
      <use x="722.705078" xlink:href="#ArialMT-111"/>
      <use x="778.320312" xlink:href="#ArialMT-114"/>
      <use x="811.621094" xlink:href="#ArialMT-101"/>
     </g>
     <!-- (KL div.) -->
     <defs>
      <path d="M 7.328125 0 
L 7.328125 71.578125 
L 16.796875 71.578125 
L 16.796875 36.078125 
L 52.34375 71.578125 
L 65.1875 71.578125 
L 35.15625 42.578125 
L 66.5 0 
L 54 0 
L 28.515625 36.234375 
L 16.796875 24.8125 
L 16.796875 0 
z
" id="ArialMT-75"/>
      <path d="M 7.328125 0 
L 7.328125 71.578125 
L 16.796875 71.578125 
L 16.796875 8.453125 
L 52.046875 8.453125 
L 52.046875 0 
z
" id="ArialMT-76"/>
      <path d="M 40.234375 0 
L 40.234375 6.546875 
Q 35.296875 -1.171875 25.734375 -1.171875 
Q 19.53125 -1.171875 14.328125 2.25 
Q 9.125 5.671875 6.265625 11.796875 
Q 3.421875 17.921875 3.421875 25.875 
Q 3.421875 33.640625 6 39.96875 
Q 8.59375 46.296875 13.765625 49.65625 
Q 18.953125 53.03125 25.34375 53.03125 
Q 30.03125 53.03125 33.6875 51.046875 
Q 37.359375 49.078125 39.65625 45.90625 
L 39.65625 71.578125 
L 48.390625 71.578125 
L 48.390625 0 
z
M 12.453125 25.875 
Q 12.453125 15.921875 16.640625 10.984375 
Q 20.84375 6.0625 26.5625 6.0625 
Q 32.328125 6.0625 36.34375 10.765625 
Q 40.375 15.484375 40.375 25.140625 
Q 40.375 35.796875 36.265625 40.765625 
Q 32.171875 45.75 26.171875 45.75 
Q 20.3125 45.75 16.375 40.96875 
Q 12.453125 36.1875 12.453125 25.875 
z
" id="ArialMT-100"/>
      <path d="M 21 0 
L 1.265625 51.859375 
L 10.546875 51.859375 
L 21.6875 20.796875 
Q 23.484375 15.765625 25 10.359375 
Q 26.171875 14.453125 28.265625 20.21875 
L 39.796875 51.859375 
L 48.828125 51.859375 
L 29.203125 0 
z
" id="ArialMT-118"/>
      <path d="M 9.078125 0 
L 9.078125 10.015625 
L 19.09375 10.015625 
L 19.09375 0 
z
" id="ArialMT-46"/>
     </defs>
     <g transform="translate(57.936 179.168125)rotate(-90)scale(0.28 -0.28)">
      <use xlink:href="#ArialMT-40"/>
      <use x="33.300781" xlink:href="#ArialMT-75"/>
      <use x="100" xlink:href="#ArialMT-76"/>
      <use x="151.865234" xlink:href="#ArialMT-32"/>
      <use x="179.648438" xlink:href="#ArialMT-100"/>
      <use x="235.263672" xlink:href="#ArialMT-105"/>
      <use x="257.480469" xlink:href="#ArialMT-118"/>
      <use x="300.105469" xlink:href="#ArialMT-46"/>
      <use x="327.888672" xlink:href="#ArialMT-41"/>
     </g>
    </g>
   </g>
   <g id="line2d_13">
    <path clip-path="url(#p2588132326)" d="M 159.177364 29.767699 
L 159.30286 225.441561 
L 159.428356 222.655501 
L 159.553853 223.997176 
L 159.679349 218.063291 
L 159.804846 217.618807 
L 160.055838 207.574634 
L 160.306831 219.517134 
L 160.557824 223.388914 
L 160.68332 223.245616 
L 160.934313 225.829953 
L 161.059809 225.651823 
L 161.185306 226.911456 
L 161.310802 227.006109 
L 161.436298 226.808161 
L 161.687291 226.821499 
L 161.812788 226.990032 
L 162.06378 225.680672 
L 162.189277 226.889582 
L 162.314773 225.672889 
L 162.440269 227.10414 
L 162.565766 226.599787 
L 162.691262 226.958934 
L 162.816759 226.129006 
L 162.942255 226.952705 
L 163.067751 226.541242 
L 163.193248 226.907666 
L 163.318744 225.972967 
L 163.44424 227.245444 
L 163.82073 226.716037 
L 163.946226 226.139808 
L 164.071722 226.447905 
L 164.322715 225.335461 
L 164.573708 226.871849 
L 164.824701 226.726249 
L 164.950197 225.906714 
L 165.20119 225.957473 
L 165.326686 225.819725 
L 165.452183 226.715257 
L 165.577679 224.576908 
L 165.703175 226.307597 
L 165.828672 226.497139 
L 166.079664 225.152045 
L 166.205161 225.100175 
L 166.330657 223.898109 
L 166.456154 226.057989 
L 166.58165 225.873689 
L 166.707146 226.307884 
L 166.832643 225.446793 
L 166.958139 225.910334 
L 167.083635 225.846745 
L 167.209132 225.249655 
L 167.334628 226.802856 
L 167.460125 226.031069 
L 167.711117 227.160299 
L 167.836614 226.915898 
L 168.087606 226.937803 
L 168.338599 225.790076 
L 168.589592 226.2809 
L 168.715088 227.105241 
L 168.840585 226.698981 
L 169.091577 227.348632 
L 169.217074 227.0607 
L 169.34257 227.252346 
L 169.468067 226.812672 
L 169.593563 227.133691 
L 169.719059 226.444202 
L 169.844556 226.557243 
L 170.095548 227.108533 
L 170.221045 226.810357 
L 170.346541 226.986219 
L 170.472038 226.760576 
L 170.72303 227.190092 
L 170.848527 226.97544 
L 171.09952 227.317279 
L 171.225016 227.368409 
L 171.350512 227.241887 
L 171.476009 227.370667 
L 171.601505 227.282882 
L 171.727001 227.014396 
L 171.977994 227.38843 
L 172.228987 227.038133 
L 172.47998 227.347052 
L 172.730972 227.117996 
L 172.856469 227.317979 
L 172.981965 227.139165 
L 173.107462 227.181406 
L 173.232958 226.834123 
L 173.483951 227.359202 
L 173.734943 227.335429 
L 173.86044 227.30793 
L 173.985936 227.405651 
L 174.111433 227.361124 
L 174.236929 227.057939 
L 174.362425 227.339857 
L 174.487922 227.213032 
L 174.613418 227.337531 
L 174.864411 226.938296 
L 175.115404 227.354345 
L 175.366396 227.405076 
L 175.491893 227.11222 
L 175.617389 227.353063 
L 175.868382 227.186081 
L 176.119375 227.295973 
L 176.244871 227.324617 
L 176.495864 227.097417 
L 176.746856 227.306738 
L 176.872353 227.247291 
L 176.997849 227.406031 
L 177.248842 227.321122 
L 177.499835 227.354331 
L 177.625331 227.216745 
L 177.750828 227.387862 
L 177.876324 227.332833 
L 178.127317 227.356813 
L 178.503806 227.397295 
L 179.005791 227.254406 
L 179.256784 227.361595 
L 179.75877 227.353811 
L 180.009762 227.359645 
L 180.386251 227.402859 
L 181.013733 227.367471 
L 181.390222 227.411304 
L 181.766712 227.375229 
L 181.892208 227.280611 
L 182.143201 227.385838 
L 182.645186 227.404553 
L 182.770683 227.174769 
L 183.021675 227.432462 
L 183.272668 227.434613 
L 183.90015 227.397533 
L 184.653128 227.400778 
L 185.155114 227.37765 
L 185.531603 227.419474 
L 186.033588 227.409841 
L 186.284581 227.413326 
L 186.786567 227.330042 
L 187.037559 227.40713 
L 187.790538 227.347793 
L 188.04153 227.424557 
L 188.794509 227.406199 
L 189.045502 227.403008 
L 189.672983 227.39459 
L 189.79848 227.219798 
L 189.923976 227.414656 
L 190.049473 227.302305 
L 190.425962 227.431032 
L 190.676954 227.426786 
L 193.312378 227.413657 
L 194.065357 227.430182 
L 195.445817 227.437556 
L 195.69681 227.420312 
L 196.324291 227.429294 
L 196.575284 227.393803 
L 199.963686 227.385424 
L 200.340175 227.439805 
L 202.097125 227.392484 
L 202.348118 227.415388 
L 202.59911 227.410762 
L 203.101096 227.412358 
L 206.113009 227.39054 
L 206.364002 227.424857 
L 206.991483 227.426871 
L 211.509353 227.426564 
L 213.517295 227.406053 
L 214.270273 227.434511 
L 216.905697 227.419247 
L 217.784172 227.434525 
L 223.05502 227.435364 
L 223.431509 227.430947 
L 227.1964 227.43091 
L 229.706328 227.429935 
L 252.421172 227.438001 
L 253.299647 227.435966 
L 256.562553 227.431453 
L 258.946984 227.438298 
L 267.355241 227.43585 
L 273.504564 227.435491 
L 275.387009 227.439081 
L 293.70948 227.436863 
L 294.964444 227.430846 
L 297.725364 227.4392 
L 299.356817 227.430036 
L 301.239263 227.43773 
L 304.251176 227.436025 
L 399.126438 227.440166 
L 401.259876 227.438657 
L 409.291644 227.440195 
L 409.919126 227.439631 
L 410.044622 221.098174 
L 410.170119 221.027624 
L 410.546608 220.014721 
L 410.672104 219.875326 
L 410.797601 219.407544 
L 410.923097 219.66463 
L 411.17409 218.665016 
L 411.299586 218.970419 
L 411.550579 218.518425 
L 411.676075 218.532699 
L 411.801572 218.173046 
L 412.052564 218.240233 
L 412.303557 218.017443 
L 412.429054 217.825534 
L 412.55455 217.843252 
L 412.680046 218.009662 
L 412.805543 217.912544 
L 413.056535 218.225534 
L 413.182032 218.021995 
L 413.93501 219.165159 
L 414.311499 219.979493 
L 414.436996 220.077111 
L 414.562492 220.645337 
L 414.687988 220.62841 
L 415.189974 222.183847 
L 415.566463 222.986868 
L 415.817456 223.643319 
L 416.193945 224.560927 
L 416.319441 224.600944 
L 416.69593 225.421944 
L 416.821427 225.347205 
L 416.946923 225.485325 
L 417.07242 225.455078 
L 417.197916 225.581831 
L 417.323412 225.528896 
L 417.448909 225.221299 
L 417.574405 225.328106 
L 418.201887 223.633128 
L 418.327383 223.483965 
L 418.954865 221.148529 
L 419.080362 221.065759 
L 419.582347 219.015973 
L 419.707843 219.059325 
L 419.958836 218.643112 
L 420.084333 218.579411 
L 420.335325 218.253945 
L 420.460822 218.233548 
L 420.586318 218.453805 
L 420.711815 218.308735 
L 420.837311 218.427286 
L 421.339296 219.743091 
L 421.966778 221.473299 
L 422.468764 223.091554 
L 422.845253 224.044387 
L 422.970749 224.138488 
L 423.221742 224.737117 
L 423.347238 224.886171 
L 423.598231 225.573727 
L 423.723728 225.544717 
L 423.97472 225.83172 
L 424.100217 225.650405 
L 424.351209 225.891163 
L 424.602202 225.8936 
L 424.978691 225.761411 
L 425.35518 225.339123 
L 425.480677 225.313706 
L 426.986633 223.06391 
L 427.237626 222.977031 
L 428.116101 221.849731 
L 428.241597 221.85579 
L 428.618086 221.517552 
L 428.743583 221.599884 
L 429.120072 221.262261 
L 429.245568 221.38237 
L 429.371065 221.234964 
L 429.87305 221.612883 
L 429.998546 221.821954 
L 430.124043 221.531419 
L 430.249539 221.807543 
L 430.375036 221.649316 
L 430.626028 222.386187 
L 430.751525 222.132369 
L 431.002517 222.627179 
L 431.629999 223.16267 
L 431.880992 223.69062 
L 432.131985 223.958786 
L 432.257481 223.935273 
L 432.382978 224.281953 
L 432.508474 224.262989 
L 432.884963 224.857528 
L 433.637941 225.206425 
L 433.888934 225.461522 
L 434.014431 225.32147 
L 434.265423 225.45471 
L 434.516416 225.564042 
L 434.641912 225.392101 
L 434.892905 225.540898 
L 435.520387 225.411291 
L 435.645883 225.308979 
L 436.147869 225.413394 
L 436.273365 225.148857 
L 436.398862 225.276715 
L 436.900847 225.075359 
L 437.277336 225.13701 
L 437.528329 225.003585 
L 437.653825 225.319676 
L 437.904818 224.890543 
L 438.030315 225.022141 
L 438.155811 224.889169 
L 438.5323 225.121199 
L 438.657797 224.985137 
L 438.783293 225.141814 
L 438.908789 224.960073 
L 439.285278 225.130639 
L 440.163753 225.39279 
L 440.665739 225.540753 
L 441.167724 225.621113 
L 441.29322 225.723373 
L 441.544213 225.642235 
L 441.66971 225.663523 
L 441.795206 225.879631 
L 441.920702 225.677408 
L 442.297191 225.842506 
L 442.422688 225.765692 
L 442.673681 225.922837 
L 443.05017 225.970968 
L 443.301162 225.935143 
L 443.426659 225.813695 
L 443.677652 226.022032 
L 443.928644 225.907945 
L 444.305133 226.018668 
L 444.43063 225.859428 
L 444.681623 225.971106 
L 444.807119 225.879543 
L 445.309105 226.04173 
L 445.434601 225.962763 
L 445.560097 226.047801 
L 446.062083 225.918577 
L 446.187579 226.045443 
L 446.438572 225.928398 
L 446.689565 225.914463 
L 447.066054 225.984851 
L 447.317047 225.946358 
L 448.57201 225.689959 
L 448.823003 225.685563 
L 448.948499 225.714439 
L 449.073996 225.552781 
L 449.324989 225.639561 
L 449.575981 225.589294 
L 449.701478 225.662615 
L 450.203463 225.456492 
L 450.454456 225.660975 
L 450.579952 225.54785 
L 450.705449 225.690747 
L 450.830945 225.537911 
L 451.081938 225.657056 
L 451.207434 225.540104 
L 451.458427 225.695412 
L 451.834916 225.768107 
L 452.085909 225.917037 
L 452.587894 225.931805 
L 452.838887 226.036721 
L 452.964384 225.91121 
L 453.08988 226.151654 
L 453.215376 225.985824 
L 453.340873 226.133901 
L 453.968355 226.052781 
L 454.47034 226.117256 
L 454.846829 225.936319 
L 455.599807 225.878161 
L 455.8508 225.700482 
L 455.976297 225.769288 
L 456.101793 225.613101 
L 456.227289 225.761062 
L 457.60775 225.427641 
L 457.733246 225.636193 
L 458.109735 225.485396 
L 458.486224 225.470553 
L 458.611721 225.56815 
L 458.862713 225.448481 
L 459.113706 225.559341 
L 459.490195 225.578176 
L 459.741188 225.654284 
L 459.992181 225.586846 
L 460.243173 225.709722 
L 462.251115 226.107641 
L 462.376612 226.018042 
L 462.753101 226.187668 
L 462.878597 226.105637 
L 463.12959 226.252124 
L 463.255087 226.127506 
L 463.506079 226.186758 
L 463.631576 226.099852 
L 463.757072 226.233813 
L 463.882568 226.13798 
L 464.008065 226.245878 
L 464.133561 226.149152 
L 464.51005 226.242176 
L 464.761043 226.10532 
L 465.263029 226.020047 
L 465.514021 225.869335 
L 465.89051 225.948164 
L 466.517992 225.519344 
L 466.768985 225.629558 
L 467.019978 225.299013 
L 467.145474 225.357317 
L 467.396467 225.12146 
L 467.521963 225.382532 
L 467.772956 225.151497 
L 467.898452 225.129212 
L 468.023949 224.907504 
L 468.274942 225.038367 
L 468.525934 224.913156 
L 468.902424 224.998722 
L 469.02792 224.889434 
L 469.278913 225.124562 
L 469.404409 224.972133 
L 469.655402 225.22452 
L 469.780898 225.163482 
L 470.031891 225.532059 
L 470.157387 225.353325 
L 470.40838 225.571077 
L 470.910366 225.892308 
L 471.035862 225.836278 
L 471.663344 226.245634 
L 472.290826 226.370215 
L 472.416322 226.475332 
L 472.541818 226.41026 
L 472.667315 226.487228 
L 473.043804 226.369397 
L 473.1693 226.473214 
L 473.796782 226.321069 
L 474.298768 226.236834 
L 474.424264 226.048207 
L 474.54976 226.123746 
L 475.051746 225.877793 
L 475.302739 225.793272 
L 475.553732 225.716568 
L 475.679228 225.764525 
L 475.804724 225.509406 
L 475.930221 225.615893 
L 476.432206 225.415904 
L 476.557703 225.420511 
L 476.808695 225.270394 
L 477.185184 225.304297 
L 477.436177 225.27887 
L 477.68717 225.279058 
L 477.812666 225.43779 
L 477.938163 225.237866 
L 478.189155 225.292917 
L 478.691141 225.264728 
L 478.942134 225.45089 
L 479.06763 225.45555 
L 479.193126 225.580223 
L 479.444119 225.506844 
L 479.820608 225.658072 
L 479.946105 225.630745 
L 480.197097 225.864782 
L 480.44809 225.914744 
L 480.699083 226.028695 
L 480.824579 226.086987 
L 480.950076 226.016086 
L 481.201069 226.13335 
L 482.20504 226.45378 
L 482.330536 226.424235 
L 482.456032 226.524318 
L 482.707025 226.426264 
L 482.958018 226.547334 
L 483.836492 226.358076 
L 483.961989 226.42814 
L 484.212982 226.334005 
L 484.463974 226.241584 
L 484.840463 226.062129 
L 485.091456 225.946218 
L 485.593442 225.690892 
L 485.844434 225.431172 
L 486.095427 225.382252 
L 486.471916 225.174118 
L 486.597413 225.013246 
L 486.848405 225.01224 
L 487.099398 224.901146 
L 487.977873 224.996981 
L 488.228866 225.233304 
L 488.354362 225.172124 
L 489.358333 225.894082 
L 489.734822 226.039387 
L 490.111311 226.345292 
L 490.362304 226.367161 
L 490.4878 226.556234 
L 490.86429 226.580674 
L 491.115282 226.695762 
L 491.617268 226.70867 
L 492.997728 226.441521 
L 493.248721 226.33229 
L 493.374217 226.193331 
L 493.499714 226.267927 
L 493.750706 226.207719 
L 493.876203 226.193526 
L 494.127195 226.02539 
L 494.378188 225.8262 
L 494.503685 225.903412 
L 494.754677 225.730691 
L 495.256663 225.650037 
L 495.382159 225.454315 
L 495.507656 225.513006 
L 495.758648 225.357056 
L 496.009641 225.34068 
L 496.135137 225.299825 
L 496.260634 225.387256 
L 496.511627 225.274206 
L 497.264605 225.351809 
L 497.390101 225.237963 
L 497.515598 225.369356 
L 497.641094 225.284218 
L 497.892087 225.583433 
L 498.519569 225.677311 
L 498.645065 225.834774 
L 498.770561 225.735992 
L 499.021554 225.920139 
L 499.398043 226.042599 
L 500.653007 226.674379 
L 500.778503 226.586393 
L 501.029496 226.710201 
L 501.154993 226.580793 
L 501.405985 226.707016 
L 501.656978 226.663814 
L 501.907971 226.638711 
L 502.911942 226.533634 
L 503.162935 226.288156 
L 503.288431 226.2674 
L 503.66492 225.951178 
L 503.790416 225.917571 
L 504.041409 225.651828 
L 504.166906 225.713628 
L 504.668891 225.326102 
L 504.919884 225.212262 
L 505.170877 225.137909 
L 505.296373 225.187557 
L 505.547366 225.105023 
L 505.798359 225.056878 
L 506.174848 225.121593 
L 506.42584 225.172174 
L 506.551337 225.183667 
L 506.927826 225.59754 
L 507.178819 225.585345 
L 507.429811 225.750737 
L 508.810272 226.62659 
L 509.186761 226.740905 
L 509.56325 226.817903 
L 509.939739 226.850664 
L 510.692717 226.750303 
L 510.94371 226.680672 
L 511.571192 226.461821 
L 511.822185 226.402594 
L 511.947681 226.278569 
L 512.073177 226.365425 
L 512.198674 226.108904 
L 512.449667 226.07951 
L 512.951652 225.855775 
L 514.708601 225.346011 
L 514.834098 225.429873 
L 514.959594 225.3086 
L 515.08509 225.352843 
L 515.210587 225.215376 
L 515.46158 225.384245 
L 515.963565 225.350171 
L 516.214558 225.560294 
L 516.465551 225.630395 
L 516.716543 225.737112 
L 517.093032 225.763386 
L 517.344025 225.869384 
L 518.097004 226.219093 
L 518.2225 226.261532 
L 518.473493 226.421027 
L 519.853953 226.84116 
L 519.979449 226.762666 
L 520.104946 226.840442 
L 520.732427 226.647409 
L 520.857924 226.661623 
L 522.740369 225.246611 
L 522.865866 225.249578 
L 522.991362 224.997941 
L 523.116859 225.067932 
L 523.242355 224.968092 
L 523.367851 225.10151 
L 523.618844 224.895254 
L 523.744341 224.869511 
L 523.869837 225.042724 
L 523.995333 225.022469 
L 524.12083 225.160253 
L 524.246326 224.940128 
L 524.873808 225.314383 
L 525.124801 225.556262 
L 525.250297 225.562432 
L 525.375793 225.822886 
L 525.50129 225.821812 
L 525.752283 226.074174 
L 525.877779 226.083101 
L 526.128772 226.345739 
L 526.505261 226.498936 
L 526.756254 226.728973 
L 527.258239 226.852246 
L 527.634728 226.935382 
L 528.011217 226.885433 
L 528.387706 226.859377 
L 528.889692 226.723798 
L 529.391677 226.511432 
L 529.64267 226.469561 
L 529.768167 226.304539 
L 529.893663 226.367037 
L 530.270152 226.087425 
L 530.521145 226.04317 
L 530.772138 225.764767 
L 531.02313 225.766698 
L 531.274123 225.576851 
L 532.78008 225.053545 
L 533.031072 225.189688 
L 533.282065 225.044545 
L 533.407562 225.150314 
L 533.658554 225.17108 
L 533.784051 224.885981 
L 533.909547 225.132863 
L 534.035043 225.106769 
L 534.286036 225.219328 
L 534.788022 225.484148 
L 535.290007 225.635901 
L 536.042986 226.172667 
L 536.670467 226.504784 
L 537.172453 226.715238 
L 537.297949 226.783701 
L 537.548942 226.763858 
L 537.799935 226.791002 
L 538.929402 226.073745 
L 540.560855 224.462809 
L 541.188337 224.227013 
L 541.43933 224.402387 
L 541.564826 224.382224 
L 542.568797 225.275955 
L 542.81979 225.457828 
L 542.945286 225.51345 
L 543.070783 225.810597 
L 543.196279 225.721389 
L 543.572768 226.19174 
L 543.698265 226.218635 
L 544.074754 226.540463 
L 544.827732 226.787651 
L 545.58071 226.777464 
L 547.212163 225.921415 
L 548.969112 224.905177 
L 549.094609 224.848489 
L 549.220105 224.577904 
L 549.471098 224.626592 
L 550.09858 224.345499 
L 550.475069 224.462147 
L 550.726062 224.320812 
L 550.977054 224.487821 
L 551.604536 224.638142 
L 551.855529 224.81347 
L 551.981025 224.728469 
L 552.106522 224.975657 
L 552.232018 224.92982 
L 552.483011 225.154729 
L 552.608507 225.16769 
L 552.734004 225.457154 
L 552.984996 225.508415 
L 554.114464 226.343653 
L 554.23996 226.351179 
L 554.490953 226.501687 
L 555.369428 226.551869 
L 555.494924 226.400679 
L 555.62042 226.51306 
L 555.745917 226.311104 
L 555.99691 226.285801 
L 557.126377 225.550735 
L 557.37737 225.38082 
L 558.130348 225.156305 
L 559.008823 225.108943 
L 559.134319 225.266519 
L 559.385312 225.21834 
L 559.761801 225.529126 
L 560.263786 225.687027 
L 560.891268 226.105536 
L 561.142261 226.189 
L 561.895239 226.606522 
L 562.020736 226.54022 
L 562.397225 226.696519 
L 562.522721 226.606682 
L 563.024707 226.757207 
L 566.664102 226.619425 
L 566.789598 226.695652 
L 567.166087 226.584306 
L 567.291584 226.704143 
L 567.542576 226.67913 
L 567.793569 226.662848 
L 568.421051 226.747517 
L 570.052504 226.809198 
L 570.930978 226.766362 
L 571.181971 226.774914 
L 571.432964 226.819043 
L 571.934949 226.850299 
L 572.436935 226.846983 
L 573.566402 226.889807 
L 573.817395 226.954674 
L 574.821366 226.974339 
L 574.946863 226.874125 
L 575.197855 226.9342 
L 577.080301 226.963768 
L 577.45679 226.921689 
L 580.21771 226.953376 
L 580.343207 227.038119 
L 580.5942 226.974524 
L 580.970689 227.040645 
L 581.221681 226.952057 
L 581.849163 227.031153 
L 582.100156 227.01647 
L 582.476645 227.026925 
L 582.978631 227.072076 
L 583.229623 227.015242 
L 583.480616 227.001454 
L 584.359091 227.043496 
L 584.73558 227.039059 
L 589.629939 226.864495 
L 590.006428 226.933115 
L 590.131924 226.865859 
L 590.63391 227.027527 
L 590.884903 226.991704 
L 591.386888 227.077431 
L 591.888874 227.08518 
L 592.139866 227.13533 
L 593.896816 227.167831 
L 596.15575 226.994997 
L 596.783232 227.027134 
L 597.034225 226.904561 
L 597.159721 226.991745 
L 597.410714 226.921417 
L 597.9127 226.985521 
L 598.038196 226.92608 
L 598.163692 227.002388 
L 598.414685 226.891941 
L 599.418656 227.00502 
L 599.669649 227.003749 
L 599.920642 227.021402 
L 600.171634 227.056782 
L 600.67362 227.059845 
L 601.803087 227.137815 
L 602.05408 227.151533 
L 604.940497 227.040689 
L 605.19149 226.971279 
L 606.446453 226.77418 
L 606.822942 226.779387 
L 607.073935 226.75553 
L 608.705388 226.81624 
L 610.587834 227.147475 
L 611.340812 227.205182 
L 611.842798 227.23286 
L 612.972265 227.170906 
L 613.85074 227.156012 
L 614.227229 227.059166 
L 614.729214 227.030329 
L 614.980207 227.001747 
L 616.360667 226.838646 
L 616.61166 226.877566 
L 617.113645 226.824557 
L 617.490135 226.905673 
L 617.741127 226.906684 
L 618.368609 226.974227 
L 618.619602 226.966354 
L 619.121587 227.063668 
L 619.247084 226.963521 
L 619.498077 227.084072 
L 619.874566 227.095174 
L 622.50999 227.220351 
L 622.886479 227.168505 
L 624.392435 226.895137 
L 624.643428 226.839977 
L 626.149385 226.63271 
L 626.400377 226.646644 
L 626.65137 226.687133 
L 627.027859 226.757317 
L 628.408319 227.024408 
L 628.910305 227.129367 
L 629.286794 227.197032 
L 631.16924 227.227238 
L 631.420232 227.193518 
L 631.796722 227.151171 
L 632.173211 227.122424 
L 634.934131 226.75309 
L 635.31062 226.861708 
L 635.561613 226.829932 
L 635.812606 226.830539 
L 636.816577 226.856998 
L 640.079483 227.243587 
L 640.706964 227.201996 
L 641.459943 227.106603 
L 644.220863 226.486754 
L 645.099338 226.574093 
L 645.475827 226.737555 
L 645.601323 226.707339 
L 645.977812 226.890483 
L 646.228805 226.921421 
L 648.738733 227.283596 
L 649.115222 227.157203 
L 649.742704 227.132051 
L 650.370185 227.006085 
L 650.872171 226.904876 
L 654.00958 226.525971 
L 654.135077 226.654687 
L 654.511566 226.589593 
L 654.762559 226.695239 
L 656.895997 227.063077 
L 657.272486 227.144077 
L 657.648975 227.136241 
L 658.025465 227.204051 
L 659.782414 226.724287 
L 660.786385 226.311832 
L 660.911881 226.320153 
L 661.162874 226.034661 
L 661.28837 226.275915 
L 661.413867 225.784398 
L 661.539363 225.793297 
L 661.664859 226.611338 
L 661.790356 226.420183 
L 662.041349 225.796486 
L 662.166845 226.580947 
L 662.292341 225.321299 
L 662.417838 225.391135 
L 662.66883 226.358716 
L 662.794327 226.565393 
L 662.919823 226.136245 
L 663.04532 226.356593 
L 663.170816 226.990554 
L 663.296312 226.832861 
L 663.421809 226.003564 
L 663.547305 226.997389 
L 663.672802 227.065345 
L 663.923794 226.496357 
L 664.049291 226.942366 
L 664.174787 226.948665 
L 664.300283 227.077305 
L 664.42578 226.949137 
L 664.551276 227.162358 
L 664.676773 226.623391 
L 664.802269 227.334945 
L 664.927765 226.941371 
L 665.178758 227.130546 
L 665.304254 227.197043 
L 665.429751 226.771264 
L 665.680744 227.27441 
L 665.80624 226.985054 
L 665.931736 227.214715 
L 666.057233 226.774884 
L 666.182729 227.207892 
L 666.308225 226.677063 
L 666.433722 227.149849 
L 666.684715 226.680368 
L 666.810211 226.972956 
L 667.061204 226.270385 
L 667.1867 227.248125 
L 667.312196 227.155196 
L 667.563189 226.468771 
L 667.688686 226.593124 
L 667.814182 226.080812 
L 667.939678 227.179451 
L 668.065175 226.815341 
L 668.190671 225.894026 
L 668.316167 226.663562 
L 668.441664 226.667508 
L 668.692657 225.530212 
L 668.818153 225.916515 
L 668.943649 225.718747 
L 669.069146 227.082148 
L 669.194642 226.349132 
L 669.320139 226.406778 
L 669.445635 226.240863 
L 669.571131 226.835349 
L 669.696628 226.110753 
L 669.822124 226.222637 
L 669.94762 226.631355 
L 670.073117 225.592626 
L 670.198613 225.814129 
L 670.32411 226.315784 
L 670.449606 225.844792 
L 670.700599 226.027116 
L 670.826095 225.072331 
L 670.951591 226.942709 
L 671.328081 225.543166 
L 671.453577 225.085726 
L 671.579073 225.384545 
L 671.70457 226.306974 
L 671.830066 225.724554 
L 671.955562 226.446512 
L 672.081059 226.377051 
L 672.457548 225.719985 
L 672.583044 226.578995 
L 672.708541 226.41414 
L 672.959533 226.567643 
L 673.08503 226.092115 
L 673.210526 226.415576 
L 673.336023 226.392509 
L 673.461519 225.544574 
L 673.712512 227.065786 
L 673.963504 226.23069 
L 674.214497 226.818017 
L 674.339994 226.873383 
L 674.590986 225.869808 
L 674.841979 226.926642 
L 674.967475 226.473125 
L 675.092972 227.141073 
L 675.218468 227.14978 
L 675.343965 227.003646 
L 675.469461 226.413123 
L 675.720454 227.03747 
L 675.971447 226.916959 
L 676.222439 227.040408 
L 676.347936 226.788625 
L 676.473432 225.5619 
L 676.598928 226.502641 
L 676.724425 226.103605 
L 676.849921 226.764452 
L 676.975418 225.864047 
L 677.100914 226.707408 
L 677.477403 224.088868 
L 677.728396 226.094643 
L 677.853892 224.373838 
L 677.979389 226.233655 
L 678.104885 226.092589 
L 678.230381 226.239495 
L 678.60687 224.840237 
L 678.857863 225.948751 
L 678.98336 225.4457 
L 679.108856 225.676339 
L 679.359849 225.162803 
L 679.610841 226.28292 
L 679.736338 224.92304 
L 679.861834 225.033028 
L 680.112827 226.474574 
L 680.238323 225.773012 
L 680.36382 226.052279 
L 680.614812 225.887545 
L 680.740309 225.23857 
L 680.991302 227.0471 
L 681.242294 226.022854 
L 681.367791 226.36895 
L 681.493287 226.290845 
L 681.618784 225.941008 
L 681.74428 226.823706 
L 681.869776 226.760505 
L 681.995273 226.17699 
L 682.120769 226.880838 
L 682.246265 226.701722 
L 682.497258 226.913664 
L 682.999244 227.019656 
L 683.12474 226.812548 
L 683.250236 227.221964 
L 683.501229 227.008838 
L 683.626726 226.567632 
L 683.752222 226.785111 
L 683.877718 226.74335 
L 684.003215 226.555786 
L 684.254207 227.156369 
L 684.379704 226.761705 
L 684.5052 226.999615 
L 684.630697 226.535949 
L 684.756193 227.153135 
L 684.881689 226.662848 
L 685.132682 227.313588 
L 685.383675 226.650695 
L 685.509171 226.671234 
L 685.634668 226.913778 
L 685.760164 226.860464 
L 685.88566 226.510411 
L 686.011157 226.854691 
L 686.136653 226.706146 
L 686.262149 226.260148 
L 686.513142 226.963146 
L 686.764135 226.243086 
L 686.889631 226.853838 
L 687.140624 226.443314 
L 687.26612 227.075421 
L 687.391617 227.044441 
L 687.517113 226.897661 
L 687.64261 226.228001 
L 687.893602 226.186278 
L 688.019099 227.135407 
L 688.144595 227.114849 
L 688.395588 226.815275 
L 688.646581 226.383238 
L 688.772077 227.140047 
L 689.148566 226.558872 
L 689.274063 226.448208 
L 689.399559 226.892801 
L 689.525055 226.783342 
L 689.650552 226.464139 
L 689.901544 227.153714 
L 690.027041 226.145842 
L 690.152537 226.685533 
L 690.278034 226.377491 
L 690.40353 227.098046 
L 690.529026 226.986431 
L 690.654523 226.378324 
L 690.905515 226.983013 
L 691.031012 226.409425 
L 691.156508 227.255106 
L 691.282005 226.710483 
L 691.532997 227.163778 
L 691.658494 226.618425 
L 691.78399 227.228554 
L 691.909486 227.08384 
L 692.160479 226.673949 
L 692.411472 227.175295 
L 692.536968 226.857882 
L 692.913457 226.911226 
L 693.16445 226.32101 
L 693.415443 227.276548 
L 693.540939 226.793901 
L 693.666436 227.204875 
L 693.917429 226.512374 
L 694.042925 227.258986 
L 694.168421 227.248853 
L 694.293918 227.105408 
L 694.419414 226.678147 
L 694.54491 226.661589 
L 694.795903 226.796374 
L 694.9214 226.688532 
L 695.046896 226.33323 
L 695.423385 227.272063 
L 695.548881 227.123707 
L 695.674378 226.484715 
L 695.799874 226.647035 
L 695.925371 227.280374 
L 696.050867 226.903934 
L 696.176363 227.293581 
L 696.427356 227.036437 
L 696.552852 227.108587 
L 696.678349 226.797092 
L 697.054838 227.188616 
L 697.180334 226.914109 
L 697.305831 226.911038 
L 697.431327 226.665776 
L 697.68232 227.293794 
L 697.933313 227.030262 
L 698.058809 227.351113 
L 698.309802 226.996602 
L 698.435298 226.902885 
L 698.560794 226.979704 
L 698.686291 227.20264 
L 698.811787 226.550227 
L 698.937284 226.596287 
L 699.06278 227.371754 
L 699.188276 226.735785 
L 699.313773 227.217261 
L 699.815758 226.891909 
L 700.192247 227.292425 
L 700.44324 227.08221 
L 700.568737 227.00892 
L 700.694233 227.151631 
L 700.819729 226.990924 
L 701.196218 227.349286 
L 701.572708 226.801647 
L 701.698204 226.883078 
L 701.8237 226.619608 
L 702.074693 227.346424 
L 702.200189 226.787487 
L 702.325686 227.172043 
L 702.576679 226.799444 
L 702.702175 227.303418 
L 702.827671 226.94893 
L 702.953168 227.301439 
L 703.20416 226.905846 
L 703.329657 227.415293 
L 703.455153 227.329814 
L 703.831642 226.564835 
L 704.208131 227.316186 
L 704.459124 226.711508 
L 704.584621 227.319964 
L 704.835613 227.154151 
L 704.96111 227.115181 
L 705.086606 227.373124 
L 705.212102 227.323912 
L 705.337599 227.11979 
L 705.463095 227.245158 
L 705.588592 226.979483 
L 705.839584 227.081685 
L 705.965081 226.909588 
L 706.090577 227.005373 
L 706.216074 227.359278 
L 706.34157 227.131667 
L 706.467066 227.286599 
L 706.592563 226.737576 
L 706.718059 226.787248 
L 707.220045 227.41797 
L 707.345541 226.83363 
L 707.471037 227.19562 
L 707.596534 227.012034 
L 707.847526 227.243836 
L 707.973023 226.812642 
L 708.098519 226.919983 
L 708.224016 227.186076 
L 708.349512 227.018888 
L 708.726001 227.218963 
L 708.851497 226.995665 
L 708.976994 227.006639 
L 709.227987 227.300565 
L 709.353483 226.795309 
L 709.478979 226.918626 
L 709.604476 227.28715 
L 709.729972 226.721129 
L 709.980965 227.325284 
L 710.106461 227.079988 
L 710.231958 227.146259 
L 710.48295 226.859862 
L 710.733943 227.257348 
L 711.110432 227.262812 
L 711.235929 227.166848 
L 711.361425 226.928407 
L 711.486921 227.349975 
L 711.737914 227.063205 
L 711.863411 227.336842 
L 711.988907 227.323788 
L 712.114403 227.029186 
L 712.2399 227.24159 
L 712.365396 227.221248 
L 712.490892 227.385675 
L 712.741885 227.331727 
L 712.992878 227.38406 
L 713.118374 227.05012 
L 713.243871 227.150966 
L 713.369367 227.437474 
L 713.494863 227.296085 
L 713.745856 227.390082 
L 713.871353 227.252095 
L 713.996849 227.368466 
L 714.122345 227.279754 
L 714.247842 227.036354 
L 714.373338 227.394904 
L 714.498834 227.300559 
L 714.624331 226.757954 
L 714.749827 227.250925 
L 714.875324 227.260517 
L 715.126316 227.054949 
L 715.377309 227.397246 
L 715.628302 227.135033 
L 715.753798 227.008442 
L 716.004791 227.35113 
L 716.130287 227.009819 
L 716.255784 227.351473 
L 716.632273 227.119459 
L 716.757769 227.354029 
L 716.883266 227.120308 
L 717.008762 227.3549 
L 717.134258 227.291416 
L 717.259755 226.63197 
L 717.510747 227.301021 
L 717.636244 227.241707 
L 717.76174 227.35358 
L 717.887237 227.049991 
L 718.138229 227.302295 
L 718.263726 227.040117 
L 718.514719 227.344896 
L 718.640215 227.148627 
L 718.891208 227.204785 
L 719.016704 227.411498 
L 719.1422 227.245853 
L 719.393193 227.26999 
L 719.51869 227.196512 
L 719.769682 227.343146 
L 719.895179 227.382555 
L 720.020675 227.25313 
L 720.522661 227.400684 
L 720.648157 227.328089 
L 720.773653 227.386049 
L 720.89915 226.953531 
L 721.024646 227.324422 
L 721.275639 227.165221 
L 721.401135 227.257848 
L 721.526632 227.151518 
L 721.903121 227.388326 
L 722.154113 227.340869 
L 722.27961 227.236531 
L 722.530603 227.394012 
L 722.781595 227.323527 
L 722.907092 227.346315 
L 723.032588 227.069331 
L 723.158084 227.363838 
L 723.283581 227.282273 
L 723.409077 227.050124 
L 723.534574 227.419069 
L 723.785566 227.240197 
L 723.911063 227.381418 
L 724.036559 227.207814 
L 724.162056 226.810928 
L 724.287552 227.2342 
L 724.413048 227.224058 
L 724.538545 227.332184 
L 724.664041 226.978605 
L 724.789537 227.139786 
L 724.915034 227.100742 
L 725.166027 227.31666 
L 725.291523 227.186413 
L 725.417019 227.323301 
L 725.668012 227.237568 
L 725.793508 227.20829 
L 725.919005 226.959319 
L 726.295494 227.237529 
L 726.42099 227.068969 
L 726.546487 227.179679 
L 726.671983 227.060789 
L 726.922976 227.293996 
L 727.048472 226.866076 
L 727.299465 227.367287 
L 727.550458 226.734158 
L 727.80145 227.225814 
L 728.052443 226.938905 
L 728.17794 227.08856 
L 728.303436 227.429701 
L 728.554429 226.855911 
L 728.805421 227.309233 
L 729.056414 226.896345 
L 729.181911 227.033298 
L 729.307407 226.78269 
L 729.5584 227.324887 
L 729.809392 227.075944 
L 730.436874 227.32203 
L 730.562371 227.087829 
L 730.687867 227.387668 
L 730.813364 227.116871 
L 731.315349 227.335539 
L 731.566342 227.399537 
L 731.817335 227.224458 
L 732.068327 227.304247 
L 732.193824 227.132011 
L 732.31932 227.333698 
L 732.695809 227.30833 
L 732.821306 227.401249 
L 733.072298 227.248107 
L 733.197795 227.243957 
L 733.323291 227.076955 
L 733.448787 227.344293 
L 733.69978 227.014478 
L 733.825277 227.161625 
L 733.950773 227.169053 
L 734.076269 227.312263 
L 734.201766 227.04418 
L 734.327262 227.384595 
L 734.578255 227.104819 
L 734.829248 227.220546 
L 734.954744 227.301243 
L 735.08024 227.19024 
L 735.331233 227.353906 
L 735.833219 227.172195 
L 735.958715 227.30241 
L 736.209708 226.96942 
L 736.335204 227.286523 
L 736.460701 226.991884 
L 736.586197 227.008169 
L 736.962686 227.314702 
L 737.088182 227.326662 
L 737.213679 226.951802 
L 737.841161 227.272915 
L 737.966657 227.061894 
L 738.092153 227.241524 
L 738.21765 227.216921 
L 738.343146 226.890607 
L 738.468643 227.357364 
L 738.594139 227.393479 
L 738.719635 227.195421 
L 738.845132 227.305156 
L 738.970628 226.958177 
L 739.347117 227.313799 
L 739.472614 227.203908 
L 739.59811 227.285961 
L 739.849103 227.122757 
L 739.974599 227.313453 
L 740.100095 226.866853 
L 740.351088 227.289409 
L 740.602081 227.186333 
L 740.727577 227.404939 
L 740.97857 227.237599 
L 741.229563 227.353093 
L 741.355059 227.167724 
L 741.731548 227.367132 
L 741.857045 227.172145 
L 741.982541 227.303601 
L 742.108037 227.18905 
L 742.233534 227.316708 
L 742.610023 227.082161 
L 742.735519 227.27748 
L 742.861016 227.167154 
L 742.986512 227.248165 
L 743.237505 227.080691 
L 743.363001 227.271064 
L 743.613994 226.914342 
L 743.864987 227.050241 
L 743.990483 226.91811 
L 744.366972 227.3216 
L 744.492469 227.0228 
L 744.617965 227.144227 
L 744.868958 226.917959 
L 744.994454 227.123521 
L 745.119951 227.089435 
L 745.245447 227.250736 
L 745.370943 227.078493 
L 745.49644 227.202686 
L 745.621936 226.762425 
L 745.747432 226.886857 
L 745.872929 227.187694 
L 746.123922 226.845217 
L 746.625907 227.289606 
L 747.002396 226.988061 
L 747.127893 227.233046 
L 747.378885 226.697866 
L 747.629878 227.13417 
L 747.755374 226.791618 
L 748.006367 227.226125 
L 748.131864 227.312151 
L 748.25736 227.121666 
L 748.508353 227.269479 
L 748.759346 227.255785 
L 749.010338 227.23605 
L 749.261331 227.285203 
L 749.386827 227.29579 
L 749.512324 227.076176 
L 750.014309 227.396503 
L 750.139806 227.405692 
L 750.265302 227.090367 
L 750.516295 227.308189 
L 751.143777 227.377043 
L 751.269273 227.206871 
L 751.394769 227.333672 
L 751.645762 227.191677 
L 751.771259 227.398404 
L 752.022251 227.109828 
L 752.273244 227.331099 
L 752.39874 227.139518 
L 752.524237 227.392858 
L 752.649733 227.083483 
L 752.77523 227.228001 
L 752.900726 226.974322 
L 753.151719 227.335711 
L 753.402711 226.850822 
L 753.528208 227.222918 
L 753.653704 226.961556 
L 753.779201 227.260366 
L 753.904697 226.963571 
L 754.15569 227.340428 
L 754.281186 227.021842 
L 754.406683 227.31584 
L 754.532179 226.770205 
L 754.657675 227.170742 
L 755.159661 227.220959 
L 755.410654 226.607406 
L 755.661646 227.277919 
L 755.787143 227.013743 
L 755.912639 227.225511 
L 756.163632 227.000287 
L 756.289128 227.364842 
L 756.665617 227.26667 
L 756.791114 227.370741 
L 756.91661 227.035853 
L 757.042106 227.074028 
L 757.167603 227.320996 
L 757.544092 227.1309 
L 757.669588 227.084061 
L 757.795085 227.337051 
L 757.920581 226.983306 
L 758.046077 227.417202 
L 758.171574 227.22991 
L 758.422567 227.27163 
L 758.548063 227.125749 
L 758.673559 227.341764 
L 758.799056 227.055336 
L 758.924552 227.262438 
L 759.175545 227.291915 
L 759.552034 227.396942 
L 759.803027 227.258271 
L 759.928523 227.370914 
L 760.179516 227.078407 
L 760.556005 227.425385 
L 760.932494 226.876078 
L 761.057991 227.344392 
L 761.183487 227.342443 
L 761.308983 227.189292 
L 761.559976 227.346294 
L 761.685472 227.231157 
L 761.810969 227.358867 
L 761.936465 227.010245 
L 762.061962 227.143318 
L 762.312954 227.12039 
L 762.689443 227.23825 
L 763.065933 226.694456 
L 763.191429 227.214308 
L 763.316925 226.902928 
L 763.442422 227.265854 
L 763.567918 226.976366 
L 763.693414 227.006199 
L 763.818911 227.161946 
L 764.069904 226.669881 
L 764.1954 227.201558 
L 764.320896 227.106327 
L 764.446393 226.630769 
L 764.571889 227.358118 
L 764.948378 226.838239 
L 765.324867 227.248031 
L 765.450364 226.645157 
L 765.57586 227.236559 
L 765.701356 226.678368 
L 765.952349 227.034229 
L 766.203342 227.377586 
L 766.454335 226.885518 
L 766.579831 227.063445 
L 766.705328 227.013349 
L 766.830824 227.190908 
L 766.95632 226.812876 
L 767.207313 227.306412 
L 767.458306 227.239451 
L 767.583802 227.234838 
L 767.709299 226.968203 
L 768.211284 227.349598 
L 768.33678 227.420862 
L 768.462277 227.127079 
L 768.71327 227.380124 
L 768.964262 227.236627 
L 769.089759 227.377149 
L 769.215255 227.101889 
L 769.466248 227.376305 
L 769.591744 227.032722 
L 769.717241 227.216943 
L 769.842737 227.092698 
L 769.968233 227.280895 
L 770.344722 227.272298 
L 770.595715 227.409026 
L 770.721212 227.200989 
L 770.846708 227.301099 
L 771.097701 227.188038 
L 771.223197 226.325095 
L 771.348693 227.138817 
L 771.725183 227.028596 
L 771.850679 227.132771 
L 771.976175 226.861747 
L 772.101672 227.213023 
L 772.227168 227.119853 
L 772.352664 226.869308 
L 772.729154 227.067557 
L 772.85465 226.945406 
L 772.980146 227.120643 
L 773.105643 226.824581 
L 773.231139 227.138698 
L 773.356636 227.037579 
L 773.607628 227.182943 
L 773.733125 226.849432 
L 773.858621 226.940675 
L 773.984117 227.179622 
L 774.862592 226.980193 
L 774.988088 227.01755 
L 775.239081 226.959417 
L 775.490074 227.34092 
L 775.61557 226.948363 
L 775.741067 227.373602 
L 775.866563 227.227385 
L 775.992059 226.903334 
L 776.117556 227.253508 
L 776.243052 226.965464 
L 776.619541 227.158361 
L 776.745038 227.030541 
L 777.121527 227.355577 
L 777.37252 227.273962 
L 777.498016 227.230846 
L 777.623512 227.341985 
L 777.874505 227.10388 
L 778.000001 227.33533 
L 778.125498 227.050695 
L 778.250994 227.258561 
L 778.376491 227.102676 
L 778.627483 227.427896 
L 779.003973 227.207817 
L 779.129469 227.407568 
L 779.254965 227.027076 
L 779.380462 227.36035 
L 779.505958 227.227094 
L 779.756951 226.744295 
L 780.007944 227.229056 
L 780.258936 226.929024 
L 780.509929 227.213676 
L 780.635425 226.979251 
L 780.886418 227.026234 
L 781.137411 225.932002 
L 781.262907 226.81239 
L 781.388404 226.723331 
L 781.5139 226.848389 
L 781.639396 226.774445 
L 781.764893 227.08119 
L 782.141382 226.998976 
L 782.266878 226.651714 
L 782.392375 227.123076 
L 782.517871 226.881718 
L 782.643367 226.886647 
L 782.768864 227.059344 
L 783.019857 226.616333 
L 783.145353 227.153944 
L 783.270849 226.562159 
L 783.396346 226.985236 
L 783.521842 225.987571 
L 783.647338 227.057583 
L 783.898331 226.920295 
L 784.023828 226.304805 
L 784.149324 227.051875 
L 784.27482 226.639376 
L 784.400317 227.396598 
L 784.651309 226.822931 
L 784.776806 227.364066 
L 784.902302 227.241709 
L 785.027799 227.37153 
L 785.153295 226.961798 
L 785.404288 227.225049 
L 785.529784 227.154981 
L 785.655281 227.370018 
L 786.282762 226.941298 
L 786.533755 227.301622 
L 786.784748 227.144323 
L 787.035741 227.269568 
L 787.286733 227.211326 
L 787.41223 227.240882 
L 787.537726 227.148227 
L 787.788719 227.272836 
L 788.039712 226.944816 
L 788.290704 226.941933 
L 788.416201 226.852485 
L 788.541697 227.014752 
L 788.667194 226.784151 
L 788.79269 227.158653 
L 789.043683 227.082651 
L 789.169179 227.246738 
L 789.294675 226.682137 
L 789.420172 226.868858 
L 789.545668 226.652327 
L 789.671165 226.744542 
L 789.922157 226.579881 
L 790.17315 226.541606 
L 790.424143 227.222092 
L 790.549639 226.79233 
L 790.800632 226.913395 
L 791.051625 226.545667 
L 791.177121 226.934932 
L 791.302618 226.908749 
L 791.428114 226.367858 
L 791.55361 226.672119 
L 791.679107 226.647451 
L 791.804603 226.817695 
L 792.055596 226.538254 
L 792.181092 227.147024 
L 792.306589 226.372184 
L 792.432085 226.946342 
L 792.557581 226.736469 
L 792.683078 226.924871 
L 792.808574 226.640786 
L 792.93407 226.851065 
L 793.059567 226.775978 
L 793.31056 226.370086 
L 793.436056 226.869042 
L 793.561552 226.817929 
L 793.687049 226.62495 
L 793.812545 226.701961 
L 793.938041 227.150951 
L 794.063538 227.08792 
L 794.189034 226.787859 
L 794.314531 227.075835 
L 794.440027 226.688764 
L 794.69102 227.19292 
L 794.816516 226.866479 
L 795.067509 227.165916 
L 795.193005 227.068916 
L 795.318502 227.19567 
L 795.443998 227.064052 
L 795.569494 227.172434 
L 795.694991 226.971952 
L 795.945983 227.271752 
L 796.07148 227.092275 
L 796.196976 227.162813 
L 796.322473 226.927618 
L 796.447969 226.955107 
L 796.573465 227.308967 
L 796.824458 226.765366 
L 796.949954 226.798548 
L 797.075451 226.627251 
L 797.200947 226.649773 
L 797.326444 226.839351 
L 797.45194 225.816255 
L 797.702933 226.874977 
L 797.828429 226.273915 
L 797.953926 226.593259 
L 798.079422 226.056425 
L 798.204918 226.078725 
L 798.330415 225.783968 
L 798.455911 226.572457 
L 798.581407 225.880586 
L 798.8324 226.447802 
L 798.957897 226.456946 
L 799.083393 225.937251 
L 799.208889 226.335894 
L 799.334386 226.151116 
L 799.710875 226.979662 
L 799.836371 226.958747 
L 799.961868 226.723954 
L 800.087364 226.166639 
L 800.21286 226.703408 
L 800.338357 226.33752 
L 800.463853 226.785632 
L 800.589349 226.55292 
L 800.714846 226.813044 
L 800.965839 226.470546 
L 801.091335 226.803157 
L 801.216831 226.511451 
L 801.467824 226.890926 
L 801.96981 227.220055 
L 802.095306 227.055684 
L 802.220802 227.176362 
L 802.346299 227.06168 
L 802.471795 227.30553 
L 802.597291 226.97086 
L 802.973781 227.298719 
L 803.099277 227.269244 
L 803.35027 226.937987 
L 803.601263 226.87378 
L 803.726759 227.102945 
L 803.852255 226.775714 
L 803.977752 226.951962 
L 804.103248 226.406689 
L 804.228744 227.153498 
L 804.354241 226.750135 
L 804.479737 226.931128 
L 804.605234 226.433909 
L 804.73073 227.20803 
L 804.856226 226.910768 
L 804.981723 227.108774 
L 805.232715 226.736524 
L 805.483708 227.205888 
L 805.609205 227.070495 
L 805.734701 226.539151 
L 805.860197 227.01125 
L 805.985694 226.785974 
L 806.236686 226.998836 
L 806.362183 226.401716 
L 806.613176 227.004315 
L 806.738672 226.332599 
L 806.864168 227.083254 
L 806.989665 226.343819 
L 807.115161 226.548713 
L 807.240657 226.401797 
L 807.366154 227.243832 
L 807.617147 226.110769 
L 807.742643 226.739077 
L 807.993636 226.392502 
L 808.119132 226.900847 
L 808.244628 226.113583 
L 808.370125 226.703246 
L 808.621118 226.231217 
L 808.87211 227.086601 
L 809.123103 226.701563 
L 809.2486 226.289741 
L 809.374096 227.20583 
L 809.750585 226.14569 
L 809.876081 226.555747 
L 810.001578 225.417997 
L 810.127074 226.758018 
L 810.62906 227.288923 
L 810.754556 226.788167 
L 811.256542 227.300318 
L 811.382038 226.36823 
L 811.507534 226.851485 
L 811.884023 226.902032 
L 812.00952 227.236733 
L 812.386009 226.640599 
L 812.511505 227.198234 
L 812.637002 226.783704 
L 812.762498 227.049128 
L 813.013491 226.636586 
L 813.138987 226.395471 
L 813.38998 227.1275 
L 814.017462 227.151436 
L 814.268455 226.938366 
L 814.519447 226.922513 
L 814.644944 227.205805 
L 814.77044 226.568057 
L 815.021433 227.00318 
L 815.146929 227.180339 
L 815.397922 227.062412 
L 815.523418 227.332457 
L 815.648915 226.487973 
L 815.774411 226.919194 
L 815.899908 226.57011 
L 816.025404 227.140696 
L 816.1509 227.138552 
L 816.276397 226.34335 
L 816.401893 227.181419 
L 816.527389 226.745741 
L 816.652886 227.32611 
L 816.778382 226.305371 
L 816.903879 226.593198 
L 817.029375 227.216912 
L 817.280368 226.846327 
L 817.782353 227.088972 
L 817.90785 226.579001 
L 818.158842 226.7132 
L 818.284339 227.331498 
L 818.535331 226.781735 
L 818.660828 226.975685 
L 818.786324 226.406661 
L 819.037317 226.955907 
L 819.28831 227.276809 
L 819.413806 227.212632 
L 819.539302 227.326629 
L 819.790295 227.139259 
L 819.915792 227.33478 
L 820.041288 226.959771 
L 820.166784 227.307166 
L 820.292281 227.288983 
L 820.543273 227.01937 
L 820.66877 226.999787 
L 820.794266 227.382804 
L 820.919763 227.122752 
L 821.045259 227.253501 
L 821.170755 226.881072 
L 821.296252 227.278717 
L 821.421748 227.108087 
L 821.547245 227.195805 
L 821.672741 227.018736 
L 821.798237 227.050969 
L 821.923734 227.200677 
L 822.174726 227.164632 
L 822.300223 226.526044 
L 822.425719 227.33408 
L 822.551216 227.157733 
L 822.676712 227.30456 
L 823.053201 227.079864 
L 823.178697 227.347351 
L 823.555187 227.127331 
L 823.806179 227.304692 
L 824.182668 226.988381 
L 824.433661 227.284216 
L 824.559158 227.176625 
L 824.81015 227.316611 
L 824.935647 227.033829 
L 825.186639 227.29764 
L 825.312136 227.119803 
L 825.437632 227.21767 
L 825.563129 226.9256 
L 825.688625 227.161421 
L 825.814121 226.814341 
L 825.939618 226.920077 
L 826.065114 227.241701 
L 826.19061 227.138431 
L 826.316107 227.274648 
L 826.441603 227.11765 
L 826.692596 227.421929 
L 826.818092 227.366664 
L 827.069085 227.092313 
L 827.194581 227.385598 
L 827.320078 227.337896 
L 827.445574 227.152118 
L 827.571071 227.40506 
L 827.696567 227.235909 
L 827.822063 227.35871 
L 827.94756 227.180217 
L 828.198553 227.40448 
L 828.449545 227.205681 
L 828.575042 227.194445 
L 828.826034 227.332567 
L 828.951531 227.224849 
L 829.32802 227.339613 
L 829.453516 227.135946 
L 829.704509 227.35134 
L 829.830005 227.311739 
L 829.955502 227.414715 
L 830.331991 226.983944 
L 830.457487 227.371523 
L 830.70848 227.296294 
L 830.833976 227.335588 
L 830.959473 227.188001 
L 831.210466 227.383286 
L 831.461458 227.340856 
L 831.712451 227.13348 
L 831.963444 227.34459 
L 832.08894 227.332888 
L 832.214437 227.054955 
L 832.339933 227.323408 
L 832.465429 227.015363 
L 832.590926 227.26529 
L 832.841918 227.234893 
L 832.967415 227.345758 
L 833.092911 227.110732 
L 833.343904 227.334348 
L 833.4694 227.220052 
L 833.720393 227.334146 
L 833.84589 227.234972 
L 834.096882 227.352824 
L 834.222379 227.169584 
L 834.347875 227.348108 
L 834.598868 227.159776 
L 834.849861 227.404334 
L 835.100853 227.326437 
L 835.22635 227.388081 
L 835.477342 227.169576 
L 835.602839 227.306158 
L 835.728335 227.224362 
L 835.979328 227.324621 
L 837.359788 227.177632 
L 837.485284 227.435195 
L 837.861774 227.34284 
L 837.98727 227.222396 
L 838.112766 227.420563 
L 838.238263 227.169241 
L 838.363759 227.170892 
L 838.614752 227.331401 
L 839.36773 227.358257 
L 839.493226 227.179152 
L 839.744219 227.35215 
L 839.869716 227.368868 
L 839.995212 227.272464 
L 840.246205 227.389923 
L 840.371701 227.098587 
L 840.497198 227.317396 
L 840.622694 227.257042 
L 840.74819 227.383313 
L 841.124679 227.268422 
L 841.250176 227.421128 
L 841.375672 227.083536 
L 841.752161 227.348077 
L 842.003154 227.328599 
L 842.12865 227.332071 
L 842.379643 227.212364 
L 843.760103 227.322637 
L 843.8856 227.225951 
L 844.011096 227.346666 
L 844.136592 227.285334 
L 844.262089 227.349802 
L 844.387585 226.972105 
L 844.513082 227.395706 
L 844.638578 227.307069 
L 844.764074 227.409989 
L 845.140563 227.274526 
L 845.517053 227.215478 
L 845.768045 227.385585 
L 845.893542 227.017443 
L 846.395527 227.21839 
L 846.521024 227.433959 
L 846.897513 227.181445 
L 847.023009 227.337977 
L 847.148506 227.085555 
L 847.274002 227.370831 
L 847.399498 226.97018 
L 847.524995 227.399448 
L 847.775987 227.350048 
L 847.901484 226.883532 
L 848.02698 227.329847 
L 848.152477 227.215432 
L 848.528966 227.378962 
L 848.654462 227.324552 
L 848.779958 227.42625 
L 848.905455 227.138718 
L 849.030951 227.211958 
L 849.156448 227.028781 
L 849.40744 227.395338 
L 849.658433 227.369339 
L 849.783929 227.139776 
L 850.034922 227.375276 
L 850.285915 227.158266 
L 850.411411 227.381589 
L 850.536908 227.251069 
L 850.913397 227.403705 
L 851.289886 227.159091 
L 851.415382 227.362114 
L 851.540879 227.287341 
L 851.666375 227.404158 
L 851.791872 227.289428 
L 852.168361 227.364304 
L 854.427295 227.377914 
L 854.552792 227.177771 
L 854.678288 227.372794 
L 854.803785 227.186044 
L 855.054777 227.369084 
L 855.180274 227.377419 
L 855.30577 227.161396 
L 855.807756 227.316993 
L 855.933252 227.303127 
L 856.058748 226.984626 
L 856.309741 227.405066 
L 856.435237 227.282452 
L 856.560734 227.291757 
L 856.68623 227.429804 
L 856.937223 227.23795 
L 857.062719 227.265413 
L 857.188216 227.083754 
L 857.439208 227.415766 
L 857.815698 227.25394 
L 857.941194 227.335683 
L 858.06669 227.248979 
L 858.317683 227.344798 
L 858.44318 227.270951 
L 858.694172 227.392257 
L 858.819669 227.243428 
L 858.945165 227.31023 
L 859.070661 226.966623 
L 859.196158 227.433316 
L 859.447151 227.360644 
L 860.200129 227.363005 
L 860.325625 227.40363 
L 860.576618 227.302353 
L 861.329596 227.303543 
L 861.455093 227.336457 
L 861.580589 227.177372 
L 861.831582 227.389075 
L 861.957078 227.207944 
L 862.082574 227.429787 
L 862.208071 227.29769 
L 862.333567 227.38568 
L 862.459064 227.18924 
L 862.710056 227.392554 
L 863.588531 227.209883 
L 863.714027 227.035844 
L 863.96502 227.351091 
L 864.216013 227.161318 
L 864.341509 227.116952 
L 864.592502 227.383181 
L 864.717998 226.915253 
L 864.968991 227.23736 
L 865.34548 227.319117 
L 865.470977 227.14797 
L 865.596473 227.292166 
L 865.721969 227.082992 
L 865.847466 227.258347 
L 866.098459 227.05614 
L 866.349451 227.21899 
L 866.976933 227.278513 
L 867.10243 227.393327 
L 867.227926 226.909781 
L 867.353422 227.250296 
L 867.478919 227.186255 
L 867.604415 227.333719 
L 867.729911 227.234936 
L 867.980904 227.399876 
L 868.231897 227.136028 
L 868.357393 227.328324 
L 868.48289 227.292994 
L 868.608386 227.133386 
L 868.859379 227.311925 
L 869.110372 227.369558 
L 869.988846 227.351629 
L 870.239839 227.392578 
L 870.616328 227.363664 
L 870.741825 227.301696 
L 870.992817 227.408346 
L 871.118314 227.391143 
L 871.24381 227.261263 
L 871.620299 227.414684 
L 872.373277 227.333724 
L 872.62427 227.370073 
L 872.749767 227.050135 
L 872.875263 227.263113 
L 873.126256 227.298252 
L 873.251752 227.403413 
L 873.377248 226.991125 
L 873.628241 227.379507 
L 874.130227 227.250145 
L 874.255723 227.338613 
L 874.506716 227.216065 
L 874.632212 227.337965 
L 874.757709 227.093081 
L 875.008701 227.421855 
L 875.259694 227.220887 
L 875.38519 227.000327 
L 875.636183 227.179929 
L 875.887176 227.38093 
L 876.138169 227.221511 
L 876.640154 227.335938 
L 876.891147 227.00883 
L 877.14214 227.331873 
L 877.769622 227.279994 
L 877.895118 227.425175 
L 878.020614 227.335856 
L 878.271607 227.358594 
L 878.5226 227.359462 
L 878.773593 227.38813 
L 879.024585 227.263812 
L 879.401075 227.427498 
L 879.526571 227.210668 
L 879.90306 227.355525 
L 880.028556 227.229403 
L 880.154053 227.403333 
L 880.405046 227.343258 
L 880.530542 227.404261 
L 880.781535 227.1633 
L 881.032527 227.329468 
L 881.158024 227.396697 
L 881.28352 227.151259 
L 881.534513 227.331989 
L 881.660009 227.389298 
L 881.785506 227.228313 
L 881.911002 227.420862 
L 882.161995 227.310565 
L 882.412988 227.386458 
L 882.789477 227.342835 
L 883.04047 227.320632 
L 883.416959 227.351519 
L 883.542455 227.339041 
L 883.667951 227.144873 
L 884.044441 227.324649 
L 884.42093 227.058602 
L 884.546426 227.318589 
L 884.797419 227.035303 
L 884.922915 227.230427 
L 885.048412 227.207542 
L 885.173908 227.314596 
L 885.299404 226.846508 
L 885.424901 227.096431 
L 885.550397 227.073873 
L 885.80139 227.251591 
L 885.926886 227.010058 
L 886.177879 227.286912 
L 886.303375 227.232136 
L 886.428872 226.808028 
L 886.554368 227.29604 
L 886.679864 227.205492 
L 886.805361 227.364322 
L 886.930857 227.251644 
L 887.18185 227.402529 
L 887.558339 227.278948 
L 887.809332 227.394428 
L 887.934828 227.114195 
L 888.311317 227.429688 
L 888.436814 227.257441 
L 888.687807 227.429683 
L 888.813303 227.316079 
L 889.064296 227.406748 
L 889.189792 227.352058 
L 889.315288 227.425435 
L 889.566281 227.258807 
L 889.817274 227.200324 
L 889.94277 227.207407 
L 890.193763 227.378481 
L 890.695749 227.180999 
L 891.197734 227.318969 
L 891.32323 227.226087 
L 891.448727 227.342937 
L 891.825216 227.141817 
L 891.950712 227.353251 
L 892.201705 227.040478 
L 892.327201 227.224953 
L 892.452698 227.145063 
L 892.578194 227.364536 
L 892.703691 227.004126 
L 892.829187 227.339589 
L 893.205676 227.281108 
L 893.331172 227.055909 
L 893.582165 227.172694 
L 893.833158 227.215479 
L 893.958654 227.314331 
L 894.084151 227.068301 
L 894.209647 227.282207 
L 894.46064 227.270733 
L 894.586136 227.342271 
L 894.711633 227.044872 
L 895.088122 227.323576 
L 895.339115 227.195478 
L 895.590107 227.204986 
L 896.092093 227.268796 
L 896.343086 227.221486 
L 896.468582 227.362295 
L 896.594078 227.266451 
L 896.845071 227.430972 
L 896.970567 227.112189 
L 897.22156 227.309778 
L 897.472553 227.250441 
L 897.598049 227.39675 
L 897.974538 227.317763 
L 898.100035 227.378334 
L 898.225531 227.198654 
L 898.351028 227.360751 
L 898.476524 227.296797 
L 898.60202 227.407665 
L 898.978509 227.383222 
L 899.104006 227.393358 
L 899.354999 227.304359 
L 899.480495 227.36882 
L 899.605991 227.288742 
L 899.731488 227.378613 
L 900.107977 227.184278 
L 900.233473 227.337103 
L 900.35897 227.247228 
L 900.484466 227.312383 
L 900.609962 227.244188 
L 900.735459 227.325374 
L 900.986452 227.006477 
L 901.111948 227.255402 
L 901.362941 227.021628 
L 901.488437 226.978296 
L 901.613933 227.260501 
L 901.864926 226.905609 
L 902.115919 227.007984 
L 902.366912 227.270896 
L 902.492408 226.939064 
L 902.743401 227.338565 
L 902.868897 226.577992 
L 902.994394 226.71465 
L 903.11989 227.04319 
L 903.245386 226.818966 
L 903.370883 227.255825 
L 903.496379 227.109359 
L 903.621875 227.174089 
L 903.747372 226.808084 
L 903.998365 227.350299 
L 904.123861 227.106104 
L 904.249357 227.202807 
L 904.374854 227.159061 
L 904.50035 227.317545 
L 904.625846 227.174213 
L 904.751343 227.199928 
L 904.876839 227.380034 
L 905.253328 227.046221 
L 905.504321 227.306193 
L 905.629817 227.085205 
L 905.88081 227.224363 
L 906.884781 227.379739 
L 907.135774 227.240419 
L 907.26127 227.337724 
L 907.386767 227.211698 
L 907.763256 227.346594 
L 908.014249 227.342277 
L 908.139745 227.019012 
L 908.265241 227.41591 
L 908.516234 227.286116 
L 908.892723 227.327352 
L 909.01822 227.290236 
L 909.143716 227.108497 
L 909.394709 227.324937 
L 909.520205 227.15125 
L 909.645702 227.210573 
L 909.771198 227.130881 
L 909.896694 227.249041 
L 910.147687 227.087106 
L 910.39868 227.236617 
L 910.775169 226.986231 
L 911.402651 227.203954 
L 911.528147 226.810022 
L 911.653644 227.067114 
L 911.77914 227.040826 
L 911.904636 227.201581 
L 911.904636 227.201581 
" style="fill:none;stroke:#1f77b4;stroke-linecap:square;stroke-width:1.5;"/>
   </g>
   <g id="patch_3">
    <path d="M 121.541 237.324063 
L 121.541 19.884063 
" style="fill:none;stroke:#000000;stroke-linecap:square;stroke-linejoin:miter;stroke-width:0.8;"/>
   </g>
   <g id="patch_4">
    <path d="M 949.541 237.324063 
L 949.541 19.884063 
" style="fill:none;stroke:#000000;stroke-linecap:square;stroke-linejoin:miter;stroke-width:0.8;"/>
   </g>
   <g id="patch_5">
    <path d="M 121.541 237.324063 
L 949.541 237.324063 
" style="fill:none;stroke:#000000;stroke-linecap:square;stroke-linejoin:miter;stroke-width:0.8;"/>
   </g>
   <g id="patch_6">
    <path d="M 121.541 19.884063 
L 949.541 19.884063 
" style="fill:none;stroke:#000000;stroke-linecap:square;stroke-linejoin:miter;stroke-width:0.8;"/>
   </g>
   <g id="legend_1">
    <g id="patch_7">
     <path d="M 963.021 105.383438 
L 1357.701 105.383438 
Q 1362.901 105.383438 1362.901 100.183438 
L 1362.901 25.084063 
Q 1362.901 19.884063 1357.701 19.884063 
L 963.021 19.884063 
Q 957.821 19.884063 957.821 25.084063 
L 957.821 100.183438 
Q 957.821 105.383438 963.021 105.383438 
z
" style="fill:#ffffff;opacity:0.8;stroke:#cccccc;stroke-linejoin:miter;"/>
    </g>
    <g id="line2d_14">
     <path d="M 968.221 40.11125 
L 1020.221 40.11125 
" style="fill:none;stroke:#1f77b4;stroke-linecap:square;stroke-width:1.5;"/>
    </g>
    <g id="line2d_15"/>
    <g id="text_9">
     <!-- Change point score -->
     <g transform="translate(1041.021 49.21125)scale(0.26 -0.26)">
      <use xlink:href="#ArialMT-67"/>
      <use x="72.216797" xlink:href="#ArialMT-104"/>
      <use x="127.832031" xlink:href="#ArialMT-97"/>
      <use x="183.447266" xlink:href="#ArialMT-110"/>
      <use x="239.0625" xlink:href="#ArialMT-103"/>
      <use x="294.677734" xlink:href="#ArialMT-101"/>
      <use x="350.292969" xlink:href="#ArialMT-32"/>
      <use x="378.076172" xlink:href="#ArialMT-112"/>
      <use x="433.691406" xlink:href="#ArialMT-111"/>
      <use x="489.306641" xlink:href="#ArialMT-105"/>
      <use x="511.523438" xlink:href="#ArialMT-110"/>
      <use x="567.138672" xlink:href="#ArialMT-116"/>
      <use x="594.921875" xlink:href="#ArialMT-32"/>
      <use x="622.705078" xlink:href="#ArialMT-115"/>
      <use x="672.705078" xlink:href="#ArialMT-99"/>
      <use x="722.705078" xlink:href="#ArialMT-111"/>
      <use x="778.320312" xlink:href="#ArialMT-114"/>
      <use x="811.621094" xlink:href="#ArialMT-101"/>
     </g>
    </g>
    <g id="PathCollection_2">
     <g>
      <use style="fill:#ff0000;stroke:#ff0000;" x="994.221" xlink:href="#me67692fab5" y="82.438438"/>
     </g>
    </g>
    <g id="text_10">
     <!-- Change point (KL div &gt; $\zeta^*$) -->
     <defs>
      <path d="M 52.875 31.296875 
L 5.46875 11.03125 
L 5.46875 19.78125 
L 43.015625 35.359375 
L 5.46875 50.78125 
L 5.46875 59.515625 
L 52.875 39.5 
z
" id="ArialMT-62"/>
      <path d="M 29 68.296875 
L 29.5 66.796875 
Q 26 65.5 24.09375 63.59375 
Q 22.203125 61.703125 22.203125 59.796875 
Q 22.203125 55.796875 27 55 
Q 30 58.59375 35.390625 62.140625 
Q 40.796875 65.703125 44.40625 65.703125 
Q 47.5 65.703125 47.5 63.203125 
Q 47.5 59.90625 41.34375 56.25 
Q 35.203125 52.59375 28.5 52 
Q 21.40625 47.203125 14.75 36.34375 
Q 8.09375 25.5 8.09375 16.296875 
Q 8.09375 11.40625 10.84375 9.203125 
Q 13.59375 7 19 7 
Q 19.703125 7 21.09375 7.046875 
Q 22.5 7.09375 22.796875 7.09375 
Q 29.09375 7.09375 32.5 4.59375 
Q 35.90625 2.09375 35.90625 -2.09375 
Q 35.90625 -6.59375 33.09375 -10.59375 
Q 30.90625 -14 27 -16.25 
Q 23.09375 -18.5 19.703125 -18.5 
Q 16.90625 -18.5 14.953125 -17.203125 
Q 13 -15.90625 13 -13.296875 
Q 13 -11.59375 14.203125 -10.34375 
Q 15.40625 -9.09375 17.296875 -9.09375 
Q 18.90625 -9.09375 20.75 -10.546875 
Q 22.59375 -12 23.796875 -12 
Q 27.09375 -12 29.5 -10.046875 
Q 31.90625 -8.09375 31.90625 -5.09375 
Q 31.90625 -0.09375 24.296875 -0.09375 
Q 23 -0.09375 19.84375 -0.59375 
Q 16.703125 -1.09375 15.203125 -1.09375 
Q 3 -1.09375 3 10.703125 
Q 3 31.5 24.203125 52.203125 
L 24.09375 52.296875 
Q 21.5 52.296875 19.296875 53.84375 
Q 17.09375 55.40625 17.09375 58.09375 
Q 17.09375 61.296875 20.140625 64.046875 
Q 23.203125 66.796875 29 68.296875 
z
" id="STIXGeneral-Italic-950"/>
      <path d="M 26.796875 47.09375 
L 27.703125 46.5 
Q 31.40625 44.09375 37.296875 43.09375 
Q 40.703125 42.59375 42 41.640625 
Q 43.296875 40.703125 43.296875 38.796875 
Q 43.296875 37.09375 42.296875 36 
Q 41.296875 34.90625 39.703125 34.90625 
Q 37.203125 34.90625 33.703125 39.296875 
Q 31.40625 42.09375 26.796875 45.09375 
L 26 45.59375 
L 26 44.703125 
Q 26 39.09375 28 33.703125 
Q 28.90625 31.203125 28.90625 30.40625 
Q 28.90625 28.90625 27.65625 27.703125 
Q 26.40625 26.5 24.90625 26.5 
Q 23.5 26.5 22.390625 27.59375 
Q 21.296875 28.703125 21.296875 30.09375 
Q 21.296875 31.5 22.5 34.796875 
Q 24.09375 39.09375 24.09375 44.703125 
L 24.09375 45.59375 
Q 20.09375 43.09375 18.90625 42 
Q 17.703125 40.796875 14.796875 37.5 
Q 12.59375 35 10.5 35 
Q 8.796875 35 7.796875 36 
Q 6.796875 37 6.796875 38.59375 
Q 6.796875 40.5 8.25 41.5 
Q 9.703125 42.5 13.09375 43.09375 
Q 16.59375 43.796875 18.4375 44.5 
Q 20.296875 45.203125 23.40625 47.09375 
Q 19.09375 49.703125 13.703125 50.796875 
Q 10 51.59375 8.5 52.59375 
Q 7 53.59375 7 55.40625 
Q 7 57 7.890625 58.046875 
Q 8.796875 59.09375 10.296875 59.09375 
Q 12.296875 59.09375 15.203125 55.90625 
Q 19.40625 51.203125 24.09375 48.59375 
L 24.09375 49.90625 
Q 24.09375 54 22.59375 59 
Q 21.5 62.296875 21.5 64.203125 
Q 21.5 65.59375 22.546875 66.59375 
Q 23.59375 67.59375 25.09375 67.59375 
Q 26.59375 67.59375 27.6875 66.546875 
Q 28.796875 65.5 28.796875 64 
Q 28.796875 62.40625 27.703125 59.296875 
Q 26 54.796875 26 51 
L 26 48.59375 
Q 29.40625 50.59375 31.796875 52.796875 
Q 32.296875 53.296875 33.640625 54.75 
Q 35 56.203125 35.796875 57 
Q 36.59375 57.796875 37.640625 58.546875 
Q 38.703125 59.296875 39.5 59.296875 
Q 41.203125 59.296875 42.203125 58.25 
Q 43.203125 57.203125 43.203125 55.5 
Q 43.203125 53.5 42.046875 52.546875 
Q 40.90625 51.59375 38 51.203125 
Q 32.40625 50.296875 26.796875 47.09375 
z
" id="STIXGeneral-Regular-42"/>
     </defs>
     <g transform="translate(1041.021 89.263438)scale(0.26 -0.26)">
      <use transform="translate(0 0.409375)" xlink:href="#ArialMT-67"/>
      <use transform="translate(72.216797 0.409375)" xlink:href="#ArialMT-104"/>
      <use transform="translate(127.832031 0.409375)" xlink:href="#ArialMT-97"/>
      <use transform="translate(183.447266 0.409375)" xlink:href="#ArialMT-110"/>
      <use transform="translate(239.0625 0.409375)" xlink:href="#ArialMT-103"/>
      <use transform="translate(294.677734 0.409375)" xlink:href="#ArialMT-101"/>
      <use transform="translate(350.292969 0.409375)" xlink:href="#ArialMT-32"/>
      <use transform="translate(378.076172 0.409375)" xlink:href="#ArialMT-112"/>
      <use transform="translate(433.691406 0.409375)" xlink:href="#ArialMT-111"/>
      <use transform="translate(489.306641 0.409375)" xlink:href="#ArialMT-105"/>
      <use transform="translate(511.523438 0.409375)" xlink:href="#ArialMT-110"/>
      <use transform="translate(567.138672 0.409375)" xlink:href="#ArialMT-116"/>
      <use transform="translate(594.921875 0.409375)" xlink:href="#ArialMT-32"/>
      <use transform="translate(622.705078 0.409375)" xlink:href="#ArialMT-40"/>
      <use transform="translate(656.005859 0.409375)" xlink:href="#ArialMT-75"/>
      <use transform="translate(722.705078 0.409375)" xlink:href="#ArialMT-76"/>
      <use transform="translate(778.320312 0.409375)" xlink:href="#ArialMT-32"/>
      <use transform="translate(806.103516 0.409375)" xlink:href="#ArialMT-100"/>
      <use transform="translate(861.71875 0.409375)" xlink:href="#ArialMT-105"/>
      <use transform="translate(883.935547 0.409375)" xlink:href="#ArialMT-118"/>
      <use transform="translate(933.935547 0.409375)" xlink:href="#ArialMT-32"/>
      <use transform="translate(961.71875 0.409375)" xlink:href="#ArialMT-62"/>
      <use transform="translate(1020.117188 0.409375)" xlink:href="#ArialMT-32"/>
      <use transform="translate(1047.900391 0.409375)" xlink:href="#STIXGeneral-Italic-950"/>
      <use transform="translate(1114.664163 35.684375)scale(0.7)" xlink:href="#STIXGeneral-Regular-42"/>
      <use transform="translate(1164.181525 0.409375)" xlink:href="#ArialMT-41"/>
     </g>
    </g>
   </g>
  </g>
 </g>
 <defs>
  <clipPath id="p2588132326">
   <rect height="217.44" width="828" x="121.541" y="19.884063"/>
  </clipPath>
 </defs>
</svg>
