<?xml version="1.0" encoding="utf-8" standalone="no"?>
<!DOCTYPE svg PUBLIC "-//W3C//DTD SVG 1.1//EN"
  "http://www.w3.org/Graphics/SVG/1.1/DTD/svg11.dtd">
<!-- Created with matplotlib (https://matplotlib.org/) -->
<svg height="303.907188pt" version="1.1" viewBox="0 0 1366.601 303.907188" width="1366.601pt" xmlns="http://www.w3.org/2000/svg" xmlns:xlink="http://www.w3.org/1999/xlink">
 <defs>
  <style type="text/css">
*{stroke-linecap:butt;stroke-linejoin:round;}
  </style>
 </defs>
 <g id="figure_1">
  <g id="patch_1">
   <path d="M 0 303.907188 
L 1366.601 303.907188 
L 1366.601 0 
L 0 0 
z
" style="fill:#ffffff;"/>
  </g>
  <g id="axes_1">
   <g id="patch_2">
    <path d="M 118.041 237.324063 
L 946.041 237.324063 
L 946.041 19.884063 
L 118.041 19.884063 
z
" style="fill:#ffffff;"/>
   </g>
   <g id="PathCollection_1">
    <defs>
     <path d="M 0 3 
C 0.795609 3 1.55874 2.683901 2.12132 2.12132 
C 2.683901 1.55874 3 0.795609 3 0 
C 3 -0.795609 2.683901 -1.55874 2.12132 -2.12132 
C 1.55874 -2.683901 0.795609 -3 0 -3 
C -0.795609 -3 -1.55874 -2.683901 -2.12132 -2.12132 
C -2.683901 -1.55874 -3 -0.795609 -3 0 
C -3 0.795609 -2.683901 1.55874 -2.12132 2.12132 
C -1.55874 2.683901 -0.795609 3 0 3 
z
" id="mee6335f841" style="stroke:#ff0000;"/>
    </defs>
    <g clip-path="url(#pa817ed90ac)">
     <use style="fill:#ff0000;stroke:#ff0000;" x="155.677364" xlink:href="#mee6335f841" y="29.767699"/>
     <use style="fill:#ff0000;stroke:#ff0000;" x="156.681446" xlink:href="#mee6335f841" y="211.159934"/>
     <use style="fill:#ff0000;stroke:#ff0000;" x="156.848793" xlink:href="#mee6335f841" y="207.574634"/>
     <use style="fill:#ff0000;stroke:#ff0000;" x="406.530672" xlink:href="#mee6335f841" y="214.631376"/>
     <use style="fill:#ff0000;stroke:#ff0000;" x="406.698019" xlink:href="#mee6335f841" y="214.323365"/>
     <use style="fill:#ff0000;stroke:#ff0000;" x="406.865366" xlink:href="#mee6335f841" y="213.964737"/>
     <use style="fill:#ff0000;stroke:#ff0000;" x="407.032713" xlink:href="#mee6335f841" y="214.223532"/>
     <use style="fill:#ff0000;stroke:#ff0000;" x="407.200061" xlink:href="#mee6335f841" y="213.987368"/>
     <use style="fill:#ff0000;stroke:#ff0000;" x="407.367408" xlink:href="#mee6335f841" y="214.171429"/>
     <use style="fill:#ff0000;stroke:#ff0000;" x="407.534755" xlink:href="#mee6335f841" y="214.280981"/>
     <use style="fill:#ff0000;stroke:#ff0000;" x="407.702102" xlink:href="#mee6335f841" y="213.641555"/>
     <use style="fill:#ff0000;stroke:#ff0000;" x="407.869449" xlink:href="#mee6335f841" y="213.485694"/>
     <use style="fill:#ff0000;stroke:#ff0000;" x="408.036796" xlink:href="#mee6335f841" y="213.495332"/>
     <use style="fill:#ff0000;stroke:#ff0000;" x="408.204143" xlink:href="#mee6335f841" y="213.682198"/>
     <use style="fill:#ff0000;stroke:#ff0000;" x="408.37149" xlink:href="#mee6335f841" y="213.257433"/>
     <use style="fill:#ff0000;stroke:#ff0000;" x="408.538837" xlink:href="#mee6335f841" y="213.796034"/>
     <use style="fill:#ff0000;stroke:#ff0000;" x="408.706185" xlink:href="#mee6335f841" y="214.09897"/>
     <use style="fill:#ff0000;stroke:#ff0000;" x="408.873532" xlink:href="#mee6335f841" y="214.310278"/>
     <use style="fill:#ff0000;stroke:#ff0000;" x="409.040879" xlink:href="#mee6335f841" y="214.376232"/>
     <use style="fill:#ff0000;stroke:#ff0000;" x="409.208226" xlink:href="#mee6335f841" y="214.160798"/>
    </g>
   </g>
   <g id="matplotlib.axis_1">
    <g id="xtick_1">
     <g id="line2d_1">
      <path clip-path="url(#pa817ed90ac)" d="M 155.510017 237.324063 
L 155.510017 19.884063 
" style="fill:none;stroke:#b0b0b0;stroke-linecap:square;stroke-width:0.8;"/>
     </g>
     <g id="line2d_2">
      <defs>
       <path d="M 0 0 
L 0 -3.5 
" id="mf57c74d18b" style="stroke:#000000;stroke-width:0.8;"/>
      </defs>
      <g>
       <use style="stroke:#000000;stroke-width:0.8;" x="155.510017" xlink:href="#mf57c74d18b" y="237.324063"/>
      </g>
     </g>
     <g id="text_1">
      <!-- 0 -->
      <defs>
       <path d="M 4.15625 35.296875 
Q 4.15625 48 6.765625 55.734375 
Q 9.375 63.484375 14.515625 67.671875 
Q 19.671875 71.875 27.484375 71.875 
Q 33.25 71.875 37.59375 69.546875 
Q 41.9375 67.234375 44.765625 62.859375 
Q 47.609375 58.5 49.21875 52.21875 
Q 50.828125 45.953125 50.828125 35.296875 
Q 50.828125 22.703125 48.234375 14.96875 
Q 45.65625 7.234375 40.5 3 
Q 35.359375 -1.21875 27.484375 -1.21875 
Q 17.140625 -1.21875 11.234375 6.203125 
Q 4.15625 15.140625 4.15625 35.296875 
z
M 13.1875 35.296875 
Q 13.1875 17.671875 17.3125 11.828125 
Q 21.4375 6 27.484375 6 
Q 33.546875 6 37.671875 11.859375 
Q 41.796875 17.71875 41.796875 35.296875 
Q 41.796875 52.984375 37.671875 58.78125 
Q 33.546875 64.59375 27.390625 64.59375 
Q 21.34375 64.59375 17.71875 59.46875 
Q 13.1875 52.9375 13.1875 35.296875 
z
" id="ArialMT-48"/>
      </defs>
      <g transform="translate(147.724704 260.865938)scale(0.28 -0.28)">
       <use xlink:href="#ArialMT-48"/>
      </g>
     </g>
    </g>
    <g id="xtick_2">
     <g id="line2d_3">
      <path clip-path="url(#pa817ed90ac)" d="M 406.530672 237.324063 
L 406.530672 19.884063 
" style="fill:none;stroke:#b0b0b0;stroke-linecap:square;stroke-width:0.8;"/>
     </g>
     <g id="line2d_4">
      <g>
       <use style="stroke:#000000;stroke-width:0.8;" x="406.530672" xlink:href="#mf57c74d18b" y="237.324063"/>
      </g>
     </g>
     <g id="text_2">
      <!-- 15 -->
      <defs>
       <path d="M 37.25 0 
L 28.46875 0 
L 28.46875 56 
Q 25.296875 52.984375 20.140625 49.953125 
Q 14.984375 46.921875 10.890625 45.40625 
L 10.890625 53.90625 
Q 18.265625 57.375 23.78125 62.296875 
Q 29.296875 67.234375 31.59375 71.875 
L 37.25 71.875 
z
" id="ArialMT-49"/>
       <path d="M 4.15625 18.75 
L 13.375 19.53125 
Q 14.40625 12.796875 18.140625 9.390625 
Q 21.875 6 27.15625 6 
Q 33.5 6 37.890625 10.78125 
Q 42.28125 15.578125 42.28125 23.484375 
Q 42.28125 31 38.0625 35.34375 
Q 33.84375 39.703125 27 39.703125 
Q 22.75 39.703125 19.328125 37.765625 
Q 15.921875 35.84375 13.96875 32.765625 
L 5.71875 33.84375 
L 12.640625 70.609375 
L 48.25 70.609375 
L 48.25 62.203125 
L 19.671875 62.203125 
L 15.828125 42.96875 
Q 22.265625 47.46875 29.34375 47.46875 
Q 38.71875 47.46875 45.15625 40.96875 
Q 51.609375 34.46875 51.609375 24.265625 
Q 51.609375 14.546875 45.953125 7.46875 
Q 39.0625 -1.21875 27.15625 -1.21875 
Q 17.390625 -1.21875 11.203125 4.25 
Q 5.03125 9.71875 4.15625 18.75 
z
" id="ArialMT-53"/>
      </defs>
      <g transform="translate(390.960047 260.865938)scale(0.28 -0.28)">
       <use xlink:href="#ArialMT-49"/>
       <use x="55.615234" xlink:href="#ArialMT-53"/>
      </g>
     </g>
    </g>
    <g id="xtick_3">
     <g id="line2d_5">
      <path clip-path="url(#pa817ed90ac)" d="M 657.551328 237.324063 
L 657.551328 19.884063 
" style="fill:none;stroke:#b0b0b0;stroke-linecap:square;stroke-width:0.8;"/>
     </g>
     <g id="line2d_6">
      <g>
       <use style="stroke:#000000;stroke-width:0.8;" x="657.551328" xlink:href="#mf57c74d18b" y="237.324063"/>
      </g>
     </g>
     <g id="text_3">
      <!-- 30 -->
      <defs>
       <path d="M 4.203125 18.890625 
L 12.984375 20.0625 
Q 14.5 12.59375 18.140625 9.296875 
Q 21.78125 6 27 6 
Q 33.203125 6 37.46875 10.296875 
Q 41.75 14.59375 41.75 20.953125 
Q 41.75 27 37.796875 30.921875 
Q 33.84375 34.859375 27.734375 34.859375 
Q 25.25 34.859375 21.53125 33.890625 
L 22.515625 41.609375 
Q 23.390625 41.5 23.921875 41.5 
Q 29.546875 41.5 34.03125 44.421875 
Q 38.53125 47.359375 38.53125 53.46875 
Q 38.53125 58.296875 35.25 61.46875 
Q 31.984375 64.65625 26.8125 64.65625 
Q 21.6875 64.65625 18.265625 61.421875 
Q 14.84375 58.203125 13.875 51.765625 
L 5.078125 53.328125 
Q 6.6875 62.15625 12.390625 67.015625 
Q 18.109375 71.875 26.609375 71.875 
Q 32.46875 71.875 37.390625 69.359375 
Q 42.328125 66.84375 44.9375 62.5 
Q 47.5625 58.15625 47.5625 53.265625 
Q 47.5625 48.640625 45.0625 44.828125 
Q 42.578125 41.015625 37.703125 38.765625 
Q 44.046875 37.3125 47.5625 32.6875 
Q 51.078125 28.078125 51.078125 21.140625 
Q 51.078125 11.765625 44.234375 5.25 
Q 37.40625 -1.265625 26.953125 -1.265625 
Q 17.53125 -1.265625 11.296875 4.34375 
Q 5.078125 9.96875 4.203125 18.890625 
z
" id="ArialMT-51"/>
      </defs>
      <g transform="translate(641.980703 260.865938)scale(0.28 -0.28)">
       <use xlink:href="#ArialMT-51"/>
       <use x="55.615234" xlink:href="#ArialMT-48"/>
      </g>
     </g>
    </g>
    <g id="xtick_4">
     <g id="line2d_7">
      <path clip-path="url(#pa817ed90ac)" d="M 908.571983 237.324063 
L 908.571983 19.884063 
" style="fill:none;stroke:#b0b0b0;stroke-linecap:square;stroke-width:0.8;"/>
     </g>
     <g id="line2d_8">
      <g>
       <use style="stroke:#000000;stroke-width:0.8;" x="908.571983" xlink:href="#mf57c74d18b" y="237.324063"/>
      </g>
     </g>
     <g id="text_4">
      <!-- 45 -->
      <defs>
       <path d="M 32.328125 0 
L 32.328125 17.140625 
L 1.265625 17.140625 
L 1.265625 25.203125 
L 33.9375 71.578125 
L 41.109375 71.578125 
L 41.109375 25.203125 
L 50.78125 25.203125 
L 50.78125 17.140625 
L 41.109375 17.140625 
L 41.109375 0 
z
M 32.328125 25.203125 
L 32.328125 57.46875 
L 9.90625 25.203125 
z
" id="ArialMT-52"/>
      </defs>
      <g transform="translate(893.001358 260.865938)scale(0.28 -0.28)">
       <use xlink:href="#ArialMT-52"/>
       <use x="55.615234" xlink:href="#ArialMT-53"/>
      </g>
     </g>
    </g>
    <g id="text_5">
     <!-- time (s) -->
     <defs>
      <path d="M 25.78125 7.859375 
L 27.046875 0.09375 
Q 23.34375 -0.6875 20.40625 -0.6875 
Q 15.625 -0.6875 12.984375 0.828125 
Q 10.359375 2.34375 9.28125 4.8125 
Q 8.203125 7.28125 8.203125 15.1875 
L 8.203125 45.015625 
L 1.765625 45.015625 
L 1.765625 51.859375 
L 8.203125 51.859375 
L 8.203125 64.703125 
L 16.9375 69.96875 
L 16.9375 51.859375 
L 25.78125 51.859375 
L 25.78125 45.015625 
L 16.9375 45.015625 
L 16.9375 14.703125 
Q 16.9375 10.9375 17.40625 9.859375 
Q 17.875 8.796875 18.921875 8.15625 
Q 19.96875 7.515625 21.921875 7.515625 
Q 23.390625 7.515625 25.78125 7.859375 
z
" id="ArialMT-116"/>
      <path d="M 6.640625 61.46875 
L 6.640625 71.578125 
L 15.4375 71.578125 
L 15.4375 61.46875 
z
M 6.640625 0 
L 6.640625 51.859375 
L 15.4375 51.859375 
L 15.4375 0 
z
" id="ArialMT-105"/>
      <path d="M 6.59375 0 
L 6.59375 51.859375 
L 14.453125 51.859375 
L 14.453125 44.578125 
Q 16.890625 48.390625 20.9375 50.703125 
Q 25 53.03125 30.171875 53.03125 
Q 35.9375 53.03125 39.625 50.640625 
Q 43.3125 48.25 44.828125 43.953125 
Q 50.984375 53.03125 60.84375 53.03125 
Q 68.5625 53.03125 72.703125 48.75 
Q 76.859375 44.484375 76.859375 35.59375 
L 76.859375 0 
L 68.109375 0 
L 68.109375 32.671875 
Q 68.109375 37.9375 67.25 40.25 
Q 66.40625 42.578125 64.15625 43.984375 
Q 61.921875 45.40625 58.890625 45.40625 
Q 53.421875 45.40625 49.796875 41.765625 
Q 46.1875 38.140625 46.1875 30.125 
L 46.1875 0 
L 37.40625 0 
L 37.40625 33.6875 
Q 37.40625 39.546875 35.25 42.46875 
Q 33.109375 45.40625 28.21875 45.40625 
Q 24.515625 45.40625 21.359375 43.453125 
Q 18.21875 41.5 16.796875 37.734375 
Q 15.375 33.984375 15.375 26.90625 
L 15.375 0 
z
" id="ArialMT-109"/>
      <path d="M 42.09375 16.703125 
L 51.171875 15.578125 
Q 49.03125 7.625 43.21875 3.21875 
Q 37.40625 -1.171875 28.375 -1.171875 
Q 17 -1.171875 10.328125 5.828125 
Q 3.65625 12.84375 3.65625 25.484375 
Q 3.65625 38.578125 10.390625 45.796875 
Q 17.140625 53.03125 27.875 53.03125 
Q 38.28125 53.03125 44.875 45.953125 
Q 51.46875 38.875 51.46875 26.03125 
Q 51.46875 25.25 51.421875 23.6875 
L 12.75 23.6875 
Q 13.234375 15.140625 17.578125 10.59375 
Q 21.921875 6.0625 28.421875 6.0625 
Q 33.25 6.0625 36.671875 8.59375 
Q 40.09375 11.140625 42.09375 16.703125 
z
M 13.234375 30.90625 
L 42.1875 30.90625 
Q 41.609375 37.453125 38.875 40.71875 
Q 34.671875 45.796875 27.984375 45.796875 
Q 21.921875 45.796875 17.796875 41.75 
Q 13.671875 37.703125 13.234375 30.90625 
z
" id="ArialMT-101"/>
      <path id="ArialMT-32"/>
      <path d="M 23.390625 -21.046875 
Q 16.109375 -11.859375 11.078125 0.4375 
Q 6.0625 12.75 6.0625 25.921875 
Q 6.0625 37.546875 9.8125 48.1875 
Q 14.203125 60.546875 23.390625 72.796875 
L 29.6875 72.796875 
Q 23.78125 62.640625 21.875 58.296875 
Q 18.890625 51.5625 17.1875 44.234375 
Q 15.09375 35.109375 15.09375 25.875 
Q 15.09375 2.390625 29.6875 -21.046875 
z
" id="ArialMT-40"/>
      <path d="M 3.078125 15.484375 
L 11.765625 16.84375 
Q 12.5 11.625 15.84375 8.84375 
Q 19.1875 6.0625 25.203125 6.0625 
Q 31.25 6.0625 34.171875 8.515625 
Q 37.109375 10.984375 37.109375 14.3125 
Q 37.109375 17.28125 34.515625 19 
Q 32.71875 20.171875 25.53125 21.96875 
Q 15.875 24.421875 12.140625 26.203125 
Q 8.40625 27.984375 6.46875 31.125 
Q 4.546875 34.28125 4.546875 38.09375 
Q 4.546875 41.546875 6.125 44.5 
Q 7.71875 47.46875 10.453125 49.421875 
Q 12.5 50.921875 16.03125 51.96875 
Q 19.578125 53.03125 23.640625 53.03125 
Q 29.734375 53.03125 34.34375 51.265625 
Q 38.96875 49.515625 41.15625 46.5 
Q 43.359375 43.5 44.1875 38.484375 
L 35.59375 37.3125 
Q 35.015625 41.3125 32.203125 43.546875 
Q 29.390625 45.796875 24.265625 45.796875 
Q 18.21875 45.796875 15.625 43.796875 
Q 13.03125 41.796875 13.03125 39.109375 
Q 13.03125 37.40625 14.109375 36.03125 
Q 15.1875 34.625 17.484375 33.6875 
Q 18.796875 33.203125 25.25 31.453125 
Q 34.578125 28.953125 38.25 27.359375 
Q 41.9375 25.78125 44.03125 22.75 
Q 46.140625 19.734375 46.140625 15.234375 
Q 46.140625 10.84375 43.578125 6.953125 
Q 41.015625 3.078125 36.171875 0.953125 
Q 31.34375 -1.171875 25.25 -1.171875 
Q 15.140625 -1.171875 9.84375 3.03125 
Q 4.546875 7.234375 3.078125 15.484375 
z
" id="ArialMT-115"/>
      <path d="M 12.359375 -21.046875 
L 6.0625 -21.046875 
Q 20.65625 2.390625 20.65625 25.875 
Q 20.65625 35.0625 18.5625 44.09375 
Q 16.890625 51.421875 13.921875 58.15625 
Q 12.015625 62.546875 6.0625 72.796875 
L 12.359375 72.796875 
Q 21.53125 60.546875 25.921875 48.1875 
Q 29.6875 37.546875 29.6875 25.921875 
Q 29.6875 12.75 24.625 0.4375 
Q 19.578125 -11.859375 12.359375 -21.046875 
z
" id="ArialMT-41"/>
     </defs>
     <g transform="translate(485.381625 290.814063)scale(0.28 -0.28)">
      <use xlink:href="#ArialMT-116"/>
      <use x="27.783203" xlink:href="#ArialMT-105"/>
      <use x="50" xlink:href="#ArialMT-109"/>
      <use x="133.300781" xlink:href="#ArialMT-101"/>
      <use x="188.916016" xlink:href="#ArialMT-32"/>
      <use x="216.699219" xlink:href="#ArialMT-40"/>
      <use x="250" xlink:href="#ArialMT-115"/>
      <use x="300" xlink:href="#ArialMT-41"/>
     </g>
    </g>
   </g>
   <g id="matplotlib.axis_2">
    <g id="ytick_1">
     <g id="line2d_9">
      <path clip-path="url(#pa817ed90ac)" d="M 118.041 227.44044 
L 946.041 227.44044 
" style="fill:none;stroke:#b0b0b0;stroke-linecap:square;stroke-width:0.8;"/>
     </g>
     <g id="line2d_10">
      <defs>
       <path d="M 0 0 
L 3.5 0 
" id="m0029da37f6" style="stroke:#000000;stroke-width:0.8;"/>
      </defs>
      <g>
       <use style="stroke:#000000;stroke-width:0.8;" x="118.041" xlink:href="#m0029da37f6" y="227.44044"/>
      </g>
     </g>
     <g id="text_6">
      <!-- 0 -->
      <g transform="translate(98.970375 237.461378)scale(0.28 -0.28)">
       <use xlink:href="#ArialMT-48"/>
      </g>
     </g>
    </g>
    <g id="ytick_2">
     <g id="line2d_11">
      <path clip-path="url(#pa817ed90ac)" d="M 118.041 117.175693 
L 946.041 117.175693 
" style="fill:none;stroke:#b0b0b0;stroke-linecap:square;stroke-width:0.8;"/>
     </g>
     <g id="line2d_12">
      <g>
       <use style="stroke:#000000;stroke-width:0.8;" x="118.041" xlink:href="#m0029da37f6" y="117.175693"/>
      </g>
     </g>
     <g id="text_7">
      <!-- 200 -->
      <defs>
       <path d="M 50.34375 8.453125 
L 50.34375 0 
L 3.03125 0 
Q 2.9375 3.171875 4.046875 6.109375 
Q 5.859375 10.9375 9.828125 15.625 
Q 13.8125 20.3125 21.34375 26.46875 
Q 33.015625 36.03125 37.109375 41.625 
Q 41.21875 47.21875 41.21875 52.203125 
Q 41.21875 57.421875 37.46875 61 
Q 33.734375 64.59375 27.734375 64.59375 
Q 21.390625 64.59375 17.578125 60.78125 
Q 13.765625 56.984375 13.71875 50.25 
L 4.6875 51.171875 
Q 5.609375 61.28125 11.65625 66.578125 
Q 17.71875 71.875 27.9375 71.875 
Q 38.234375 71.875 44.234375 66.15625 
Q 50.25 60.453125 50.25 52 
Q 50.25 47.703125 48.484375 43.546875 
Q 46.734375 39.40625 42.65625 34.8125 
Q 38.578125 30.21875 29.109375 22.21875 
Q 21.1875 15.578125 18.9375 13.203125 
Q 16.703125 10.84375 15.234375 8.453125 
z
" id="ArialMT-50"/>
      </defs>
      <g transform="translate(67.829125 127.19663)scale(0.28 -0.28)">
       <use xlink:href="#ArialMT-50"/>
       <use x="55.615234" xlink:href="#ArialMT-48"/>
       <use x="111.230469" xlink:href="#ArialMT-48"/>
      </g>
     </g>
    </g>
    <g id="text_8">
     <!-- Change point score -->
     <defs>
      <path d="M 58.796875 25.09375 
L 68.265625 22.703125 
Q 65.28125 11.03125 57.546875 4.90625 
Q 49.8125 -1.21875 38.625 -1.21875 
Q 27.046875 -1.21875 19.796875 3.484375 
Q 12.546875 8.203125 8.765625 17.140625 
Q 4.984375 26.078125 4.984375 36.328125 
Q 4.984375 47.515625 9.25 55.828125 
Q 13.53125 64.15625 21.40625 68.46875 
Q 29.296875 72.796875 38.765625 72.796875 
Q 49.515625 72.796875 56.828125 67.328125 
Q 64.15625 61.859375 67.046875 51.953125 
L 57.71875 49.75 
Q 55.21875 57.5625 50.484375 61.125 
Q 45.75 64.703125 38.578125 64.703125 
Q 30.328125 64.703125 24.78125 60.734375 
Q 19.234375 56.78125 16.984375 50.109375 
Q 14.75 43.453125 14.75 36.375 
Q 14.75 27.25 17.40625 20.4375 
Q 20.0625 13.625 25.671875 10.25 
Q 31.296875 6.890625 37.84375 6.890625 
Q 45.796875 6.890625 51.3125 11.46875 
Q 56.84375 16.0625 58.796875 25.09375 
z
" id="ArialMT-67"/>
      <path d="M 6.59375 0 
L 6.59375 71.578125 
L 15.375 71.578125 
L 15.375 45.90625 
Q 21.53125 53.03125 30.90625 53.03125 
Q 36.671875 53.03125 40.921875 50.75 
Q 45.171875 48.484375 47 44.484375 
Q 48.828125 40.484375 48.828125 32.859375 
L 48.828125 0 
L 40.046875 0 
L 40.046875 32.859375 
Q 40.046875 39.453125 37.1875 42.453125 
Q 34.328125 45.453125 29.109375 45.453125 
Q 25.203125 45.453125 21.75 43.421875 
Q 18.3125 41.40625 16.84375 37.9375 
Q 15.375 34.46875 15.375 28.375 
L 15.375 0 
z
" id="ArialMT-104"/>
      <path d="M 40.4375 6.390625 
Q 35.546875 2.25 31.03125 0.53125 
Q 26.515625 -1.171875 21.34375 -1.171875 
Q 12.796875 -1.171875 8.203125 3 
Q 3.609375 7.171875 3.609375 13.671875 
Q 3.609375 17.484375 5.34375 20.625 
Q 7.078125 23.78125 9.890625 25.6875 
Q 12.703125 27.59375 16.21875 28.5625 
Q 18.796875 29.25 24.03125 29.890625 
Q 34.671875 31.15625 39.703125 32.90625 
Q 39.75 34.71875 39.75 35.203125 
Q 39.75 40.578125 37.25 42.78125 
Q 33.890625 45.75 27.25 45.75 
Q 21.046875 45.75 18.09375 43.578125 
Q 15.140625 41.40625 13.71875 35.890625 
L 5.125 37.0625 
Q 6.296875 42.578125 8.984375 45.96875 
Q 11.671875 49.359375 16.75 51.1875 
Q 21.828125 53.03125 28.515625 53.03125 
Q 35.15625 53.03125 39.296875 51.46875 
Q 43.453125 49.90625 45.40625 47.53125 
Q 47.359375 45.171875 48.140625 41.546875 
Q 48.578125 39.3125 48.578125 33.453125 
L 48.578125 21.734375 
Q 48.578125 9.46875 49.140625 6.21875 
Q 49.703125 2.984375 51.375 0 
L 42.1875 0 
Q 40.828125 2.734375 40.4375 6.390625 
z
M 39.703125 26.03125 
Q 34.90625 24.078125 25.34375 22.703125 
Q 19.921875 21.921875 17.671875 20.9375 
Q 15.4375 19.96875 14.203125 18.09375 
Q 12.984375 16.21875 12.984375 13.921875 
Q 12.984375 10.40625 15.640625 8.0625 
Q 18.3125 5.71875 23.4375 5.71875 
Q 28.515625 5.71875 32.46875 7.9375 
Q 36.421875 10.15625 38.28125 14.015625 
Q 39.703125 17 39.703125 22.796875 
z
" id="ArialMT-97"/>
      <path d="M 6.59375 0 
L 6.59375 51.859375 
L 14.5 51.859375 
L 14.5 44.484375 
Q 20.21875 53.03125 31 53.03125 
Q 35.6875 53.03125 39.625 51.34375 
Q 43.5625 49.65625 45.515625 46.921875 
Q 47.46875 44.1875 48.25 40.4375 
Q 48.734375 37.984375 48.734375 31.890625 
L 48.734375 0 
L 39.9375 0 
L 39.9375 31.546875 
Q 39.9375 36.921875 38.90625 39.578125 
Q 37.890625 42.234375 35.28125 43.8125 
Q 32.671875 45.40625 29.15625 45.40625 
Q 23.53125 45.40625 19.453125 41.84375 
Q 15.375 38.28125 15.375 28.328125 
L 15.375 0 
z
" id="ArialMT-110"/>
      <path d="M 4.984375 -4.296875 
L 13.53125 -5.5625 
Q 14.0625 -9.515625 16.5 -11.328125 
Q 19.78125 -13.765625 25.4375 -13.765625 
Q 31.546875 -13.765625 34.859375 -11.328125 
Q 38.1875 -8.890625 39.359375 -4.5 
Q 40.046875 -1.8125 39.984375 6.78125 
Q 34.234375 0 25.640625 0 
Q 14.9375 0 9.078125 7.71875 
Q 3.21875 15.4375 3.21875 26.21875 
Q 3.21875 33.640625 5.90625 39.90625 
Q 8.59375 46.1875 13.6875 49.609375 
Q 18.796875 53.03125 25.6875 53.03125 
Q 34.859375 53.03125 40.828125 45.609375 
L 40.828125 51.859375 
L 48.921875 51.859375 
L 48.921875 7.03125 
Q 48.921875 -5.078125 46.453125 -10.125 
Q 44 -15.1875 38.640625 -18.109375 
Q 33.296875 -21.046875 25.484375 -21.046875 
Q 16.21875 -21.046875 10.5 -16.875 
Q 4.78125 -12.703125 4.984375 -4.296875 
z
M 12.25 26.859375 
Q 12.25 16.65625 16.296875 11.96875 
Q 20.359375 7.28125 26.46875 7.28125 
Q 32.515625 7.28125 36.609375 11.9375 
Q 40.71875 16.609375 40.71875 26.5625 
Q 40.71875 36.078125 36.5 40.90625 
Q 32.28125 45.75 26.3125 45.75 
Q 20.453125 45.75 16.34375 40.984375 
Q 12.25 36.234375 12.25 26.859375 
z
" id="ArialMT-103"/>
      <path d="M 6.59375 -19.875 
L 6.59375 51.859375 
L 14.59375 51.859375 
L 14.59375 45.125 
Q 17.4375 49.078125 21 51.046875 
Q 24.5625 53.03125 29.640625 53.03125 
Q 36.28125 53.03125 41.359375 49.609375 
Q 46.4375 46.1875 49.015625 39.953125 
Q 51.609375 33.734375 51.609375 26.3125 
Q 51.609375 18.359375 48.75 11.984375 
Q 45.90625 5.609375 40.453125 2.21875 
Q 35.015625 -1.171875 29 -1.171875 
Q 24.609375 -1.171875 21.109375 0.6875 
Q 17.625 2.546875 15.375 5.375 
L 15.375 -19.875 
z
M 14.546875 25.640625 
Q 14.546875 15.625 18.59375 10.84375 
Q 22.65625 6.0625 28.421875 6.0625 
Q 34.28125 6.0625 38.453125 11.015625 
Q 42.625 15.96875 42.625 26.375 
Q 42.625 36.28125 38.546875 41.203125 
Q 34.46875 46.140625 28.8125 46.140625 
Q 23.1875 46.140625 18.859375 40.890625 
Q 14.546875 35.640625 14.546875 25.640625 
z
" id="ArialMT-112"/>
      <path d="M 3.328125 25.921875 
Q 3.328125 40.328125 11.328125 47.265625 
Q 18.015625 53.03125 27.640625 53.03125 
Q 38.328125 53.03125 45.109375 46.015625 
Q 51.90625 39.015625 51.90625 26.65625 
Q 51.90625 16.65625 48.90625 10.90625 
Q 45.90625 5.171875 40.15625 2 
Q 34.421875 -1.171875 27.640625 -1.171875 
Q 16.75 -1.171875 10.03125 5.8125 
Q 3.328125 12.796875 3.328125 25.921875 
z
M 12.359375 25.921875 
Q 12.359375 15.96875 16.703125 11.015625 
Q 21.046875 6.0625 27.640625 6.0625 
Q 34.1875 6.0625 38.53125 11.03125 
Q 42.875 16.015625 42.875 26.21875 
Q 42.875 35.84375 38.5 40.796875 
Q 34.125 45.75 27.640625 45.75 
Q 21.046875 45.75 16.703125 40.8125 
Q 12.359375 35.890625 12.359375 25.921875 
z
" id="ArialMT-111"/>
      <path d="M 40.4375 19 
L 49.078125 17.875 
Q 47.65625 8.9375 41.8125 3.875 
Q 35.984375 -1.171875 27.484375 -1.171875 
Q 16.84375 -1.171875 10.375 5.78125 
Q 3.90625 12.75 3.90625 25.734375 
Q 3.90625 34.125 6.6875 40.421875 
Q 9.46875 46.734375 15.15625 49.875 
Q 20.84375 53.03125 27.546875 53.03125 
Q 35.984375 53.03125 41.359375 48.75 
Q 46.734375 44.484375 48.25 36.625 
L 39.703125 35.296875 
Q 38.484375 40.53125 35.375 43.15625 
Q 32.28125 45.796875 27.875 45.796875 
Q 21.234375 45.796875 17.078125 41.03125 
Q 12.9375 36.28125 12.9375 25.984375 
Q 12.9375 15.53125 16.9375 10.796875 
Q 20.953125 6.0625 27.390625 6.0625 
Q 32.5625 6.0625 36.03125 9.234375 
Q 39.5 12.40625 40.4375 19 
z
" id="ArialMT-99"/>
      <path d="M 6.5 0 
L 6.5 51.859375 
L 14.40625 51.859375 
L 14.40625 44 
Q 17.4375 49.515625 20 51.265625 
Q 22.5625 53.03125 25.640625 53.03125 
Q 30.078125 53.03125 34.671875 50.203125 
L 31.640625 42.046875 
Q 28.421875 43.953125 25.203125 43.953125 
Q 22.3125 43.953125 20.015625 42.21875 
Q 17.71875 40.484375 16.75 37.40625 
Q 15.28125 32.71875 15.28125 27.15625 
L 15.28125 0 
z
" id="ArialMT-114"/>
     </defs>
     <g transform="translate(27.583125 250.008125)rotate(-90)scale(0.28 -0.28)">
      <use xlink:href="#ArialMT-67"/>
      <use x="72.216797" xlink:href="#ArialMT-104"/>
      <use x="127.832031" xlink:href="#ArialMT-97"/>
      <use x="183.447266" xlink:href="#ArialMT-110"/>
      <use x="239.0625" xlink:href="#ArialMT-103"/>
      <use x="294.677734" xlink:href="#ArialMT-101"/>
      <use x="350.292969" xlink:href="#ArialMT-32"/>
      <use x="378.076172" xlink:href="#ArialMT-112"/>
      <use x="433.691406" xlink:href="#ArialMT-111"/>
      <use x="489.306641" xlink:href="#ArialMT-105"/>
      <use x="511.523438" xlink:href="#ArialMT-110"/>
      <use x="567.138672" xlink:href="#ArialMT-116"/>
      <use x="594.921875" xlink:href="#ArialMT-32"/>
      <use x="622.705078" xlink:href="#ArialMT-115"/>
      <use x="672.705078" xlink:href="#ArialMT-99"/>
      <use x="722.705078" xlink:href="#ArialMT-111"/>
      <use x="778.320312" xlink:href="#ArialMT-114"/>
      <use x="811.621094" xlink:href="#ArialMT-101"/>
     </g>
     <!-- (KL div.) -->
     <defs>
      <path d="M 7.328125 0 
L 7.328125 71.578125 
L 16.796875 71.578125 
L 16.796875 36.078125 
L 52.34375 71.578125 
L 65.1875 71.578125 
L 35.15625 42.578125 
L 66.5 0 
L 54 0 
L 28.515625 36.234375 
L 16.796875 24.8125 
L 16.796875 0 
z
" id="ArialMT-75"/>
      <path d="M 7.328125 0 
L 7.328125 71.578125 
L 16.796875 71.578125 
L 16.796875 8.453125 
L 52.046875 8.453125 
L 52.046875 0 
z
" id="ArialMT-76"/>
      <path d="M 40.234375 0 
L 40.234375 6.546875 
Q 35.296875 -1.171875 25.734375 -1.171875 
Q 19.53125 -1.171875 14.328125 2.25 
Q 9.125 5.671875 6.265625 11.796875 
Q 3.421875 17.921875 3.421875 25.875 
Q 3.421875 33.640625 6 39.96875 
Q 8.59375 46.296875 13.765625 49.65625 
Q 18.953125 53.03125 25.34375 53.03125 
Q 30.03125 53.03125 33.6875 51.046875 
Q 37.359375 49.078125 39.65625 45.90625 
L 39.65625 71.578125 
L 48.390625 71.578125 
L 48.390625 0 
z
M 12.453125 25.875 
Q 12.453125 15.921875 16.640625 10.984375 
Q 20.84375 6.0625 26.5625 6.0625 
Q 32.328125 6.0625 36.34375 10.765625 
Q 40.375 15.484375 40.375 25.140625 
Q 40.375 35.796875 36.265625 40.765625 
Q 32.171875 45.75 26.171875 45.75 
Q 20.3125 45.75 16.375 40.96875 
Q 12.453125 36.1875 12.453125 25.875 
z
" id="ArialMT-100"/>
      <path d="M 21 0 
L 1.265625 51.859375 
L 10.546875 51.859375 
L 21.6875 20.796875 
Q 23.484375 15.765625 25 10.359375 
Q 26.171875 14.453125 28.265625 20.21875 
L 39.796875 51.859375 
L 48.828125 51.859375 
L 29.203125 0 
z
" id="ArialMT-118"/>
      <path d="M 9.078125 0 
L 9.078125 10.015625 
L 19.09375 10.015625 
L 19.09375 0 
z
" id="ArialMT-46"/>
     </defs>
     <g transform="translate(57.936 179.168125)rotate(-90)scale(0.28 -0.28)">
      <use xlink:href="#ArialMT-40"/>
      <use x="33.300781" xlink:href="#ArialMT-75"/>
      <use x="100" xlink:href="#ArialMT-76"/>
      <use x="151.865234" xlink:href="#ArialMT-32"/>
      <use x="179.648438" xlink:href="#ArialMT-100"/>
      <use x="235.263672" xlink:href="#ArialMT-105"/>
      <use x="257.480469" xlink:href="#ArialMT-118"/>
      <use x="300.105469" xlink:href="#ArialMT-46"/>
      <use x="327.888672" xlink:href="#ArialMT-41"/>
     </g>
    </g>
   </g>
   <g id="line2d_13">
    <path clip-path="url(#pa817ed90ac)" d="M 155.677364 29.767699 
L 155.844711 225.441561 
L 156.012058 222.655501 
L 156.179405 223.997176 
L 156.346752 218.063291 
L 156.514099 217.618807 
L 156.848793 207.574634 
L 157.183488 219.517134 
L 157.350835 222.478868 
L 157.518182 223.388914 
L 157.685529 223.245616 
L 158.020223 225.829953 
L 158.18757 225.651823 
L 158.354917 226.911456 
L 158.522264 227.006109 
L 158.689612 226.808161 
L 159.024306 226.821499 
L 159.191653 226.990032 
L 159.526347 225.680672 
L 159.693694 226.889582 
L 159.861041 225.672889 
L 160.028388 227.10414 
L 160.195735 226.599787 
L 160.363083 226.958934 
L 160.53043 226.129006 
L 160.697777 226.952705 
L 160.865124 226.541242 
L 161.032471 226.907666 
L 161.199818 225.972967 
L 161.367165 227.245444 
L 161.869206 226.716037 
L 162.036554 226.139808 
L 162.203901 226.447905 
L 162.538595 225.335461 
L 162.873289 226.871849 
L 163.207983 226.726249 
L 163.37533 225.906714 
L 163.710025 225.957473 
L 163.877372 225.819725 
L 164.044719 226.715257 
L 164.212066 224.576908 
L 164.379413 226.307597 
L 164.54676 226.497139 
L 164.881454 225.152045 
L 165.048801 225.100175 
L 165.216149 223.898109 
L 165.383496 226.057989 
L 165.550843 225.873689 
L 165.71819 226.307884 
L 165.885537 225.446793 
L 166.052884 225.910334 
L 166.220231 225.846745 
L 166.387578 225.249655 
L 166.554925 226.802856 
L 166.722272 226.031069 
L 167.056967 227.160299 
L 167.224314 226.915898 
L 167.559008 226.937803 
L 167.893702 225.790076 
L 168.228396 226.2809 
L 168.395744 227.105241 
L 168.563091 226.698981 
L 168.897785 227.348632 
L 169.065132 227.0607 
L 169.232479 227.252346 
L 169.399826 226.812672 
L 169.567173 227.133691 
L 169.73452 226.444202 
L 169.901867 226.557243 
L 170.236562 227.108533 
L 170.403909 226.810357 
L 170.571256 226.986219 
L 170.738603 226.760576 
L 171.073297 227.190092 
L 171.240644 226.97544 
L 171.575338 227.317279 
L 171.742686 227.368409 
L 171.910033 227.241887 
L 172.07738 227.370667 
L 172.244727 227.282882 
L 172.412074 227.014396 
L 172.746768 227.38843 
L 172.914115 227.090133 
L 173.081462 227.038133 
L 173.416157 227.347052 
L 173.750851 227.117996 
L 173.918198 227.317979 
L 174.085545 227.139165 
L 174.252892 227.181406 
L 174.420239 226.834123 
L 174.754933 227.359202 
L 175.089628 227.335429 
L 175.256975 227.30793 
L 175.424322 227.405651 
L 175.591669 227.361124 
L 175.759016 227.057939 
L 175.926363 227.339857 
L 176.09371 227.213032 
L 176.261057 227.337531 
L 176.595752 226.938296 
L 176.930446 227.354345 
L 177.26514 227.405076 
L 177.432487 227.11222 
L 177.599834 227.353063 
L 177.934528 227.186081 
L 178.269223 227.295973 
L 178.43657 227.324617 
L 178.771264 227.097417 
L 179.105958 227.306738 
L 179.273305 227.247291 
L 179.440652 227.406031 
L 179.607999 227.291776 
L 180.110041 227.354331 
L 180.277388 227.216745 
L 180.444735 227.387862 
L 180.612082 227.332833 
L 180.779429 227.407111 
L 181.281471 227.372055 
L 181.783512 227.381878 
L 182.787594 227.339796 
L 182.954942 227.408805 
L 183.456983 227.359645 
L 183.959024 227.402859 
L 184.628413 227.385126 
L 185.297801 227.411304 
L 185.799842 227.375229 
L 185.967189 227.280611 
L 186.301884 227.385838 
L 186.971272 227.404553 
L 187.138619 227.174769 
L 187.305966 227.397255 
L 187.808008 227.434613 
L 188.644743 227.397533 
L 189.648826 227.400778 
L 190.318214 227.37765 
L 190.820255 227.419474 
L 191.489644 227.409841 
L 191.824338 227.413326 
L 192.493726 227.330042 
L 192.828421 227.40713 
L 193.832503 227.347793 
L 194.167198 227.424557 
L 195.17128 227.406199 
L 195.505974 227.403008 
L 196.34271 227.39459 
L 196.510057 227.219798 
L 196.677404 227.414656 
L 196.844751 227.302305 
L 197.346792 227.431032 
L 197.681487 227.426786 
L 201.195776 227.413657 
L 202.199858 227.430182 
L 204.040677 227.437556 
L 204.375371 227.420312 
L 205.212106 227.429294 
L 205.379453 227.34948 
L 206.048842 227.428786 
L 206.383536 227.416919 
L 209.228437 227.43603 
L 210.065172 227.385424 
L 210.567214 227.439805 
L 212.910073 227.392484 
L 213.244767 227.415388 
L 213.579462 227.410762 
L 214.24885 227.412358 
L 218.26518 227.39054 
L 218.599875 227.424857 
L 219.43661 227.426871 
L 225.461106 227.426564 
L 228.13866 227.406053 
L 229.142742 227.434511 
L 232.657031 227.419247 
L 233.828461 227.434525 
L 240.857039 227.435364 
L 241.359081 227.430947 
L 246.379494 227.43091 
L 249.726436 227.429935 
L 280.016262 227.438001 
L 281.187691 227.435966 
L 285.538716 227.431453 
L 288.718311 227.438298 
L 299.930567 227.43585 
L 308.130575 227.435491 
L 310.640782 227.439081 
L 335.073459 227.436863 
L 336.579583 227.433651 
L 342.938773 227.438177 
L 352.310211 227.435119 
L 359.004095 227.440256 
L 367.706144 227.436497 
L 383.938813 227.437736 
L 389.461268 227.439604 
L 406.363325 227.439073 
L 406.530672 214.631376 
L 406.865366 213.964737 
L 407.032713 214.223532 
L 407.200061 213.987368 
L 407.534755 214.280981 
L 407.702102 213.641555 
L 407.869449 213.485694 
L 408.036796 213.495332 
L 408.204143 213.682198 
L 408.37149 213.257433 
L 408.706185 214.09897 
L 409.040879 214.376232 
L 409.208226 214.160798 
L 409.375573 215.298229 
L 409.54292 215.119305 
L 410.212308 216.603792 
L 410.379656 216.281839 
L 410.71435 218.051114 
L 410.881697 218.184242 
L 411.049044 218.109614 
L 411.551085 220.019618 
L 411.885779 220.792068 
L 412.053127 221.548695 
L 412.220474 221.644949 
L 413.559251 224.220302 
L 414.228639 224.66249 
L 414.395986 224.577679 
L 414.563333 224.732193 
L 415.232722 224.311903 
L 415.400069 223.877788 
L 415.567416 223.853999 
L 415.90211 223.440449 
L 416.236804 222.719639 
L 416.404151 222.594193 
L 416.571498 222.141932 
L 416.738846 222.016482 
L 416.906193 221.569637 
L 417.240887 221.362771 
L 417.575581 220.802697 
L 417.910275 220.364365 
L 418.077622 220.423371 
L 418.412317 219.998404 
L 418.747011 219.927397 
L 418.914358 220.441871 
L 419.081705 219.85858 
L 419.91844 220.529442 
L 420.085788 220.914976 
L 420.253135 220.801849 
L 420.922523 221.715382 
L 421.08987 222.328547 
L 421.424564 222.293399 
L 421.591912 222.785391 
L 421.759259 222.800118 
L 421.926606 223.106404 
L 422.093953 223.164832 
L 422.428647 223.76202 
L 422.595994 224.108177 
L 422.763341 224.166609 
L 423.098035 224.487782 
L 424.102118 225.045477 
L 424.269465 225.288664 
L 424.604159 225.129742 
L 424.938854 225.312757 
L 425.273548 225.190538 
L 425.440895 225.373597 
L 425.608242 225.105417 
L 425.942936 225.376861 
L 426.110283 225.171044 
L 426.27763 225.321119 
L 427.951101 224.934199 
L 428.118449 224.996186 
L 428.285796 224.736224 
L 428.453143 224.916891 
L 429.289878 224.778402 
L 429.457225 224.707453 
L 429.79192 225.059213 
L 429.959267 224.889675 
L 430.126614 225.007833 
L 430.461308 224.827534 
L 430.628655 224.98526 
L 432.302126 224.991792 
L 432.469473 225.164024 
L 432.63682 225.007954 
L 432.804167 225.242957 
L 432.971515 224.970703 
L 433.138862 225.253524 
L 433.306209 225.013748 
L 434.477639 225.243426 
L 434.644986 225.012945 
L 434.812333 225.191742 
L 435.314374 224.913951 
L 435.481721 225.219559 
L 435.816415 225.003886 
L 436.15111 225.163249 
L 436.653151 225.146711 
L 436.987845 225.354262 
L 437.155192 225.23266 
L 437.824581 225.462062 
L 437.991928 225.331603 
L 438.326622 225.558319 
L 438.493969 225.368349 
L 438.661316 225.669143 
L 438.99601 225.360859 
L 439.163357 225.481903 
L 439.498052 225.520493 
L 440.000093 225.645944 
L 440.16744 225.473011 
L 440.334787 225.592597 
L 440.502134 225.495143 
L 440.836828 225.540397 
L 441.004176 225.427986 
L 441.33887 225.59018 
L 441.506217 225.265434 
L 441.673564 225.510862 
L 441.840911 225.264089 
L 442.008258 225.401974 
L 442.175605 225.290305 
L 442.342952 225.35997 
L 443.012341 225.163569 
L 443.179688 225.244487 
L 443.681729 225.117993 
L 444.016423 225.141026 
L 444.183771 225.011712 
L 444.351118 225.170461 
L 444.518465 224.935304 
L 444.685812 225.217596 
L 444.853159 225.021396 
L 445.020506 225.113886 
L 445.187853 224.966502 
L 445.3552 225.163448 
L 445.522547 225.12728 
L 445.689894 225.248944 
L 446.191936 225.178802 
L 446.52663 225.286922 
L 446.693977 225.148921 
L 447.028671 225.288377 
L 448.702142 225.764027 
L 448.869489 225.46728 
L 449.036837 225.69132 
L 449.204184 225.64064 
L 449.371531 225.722454 
L 449.706225 225.639962 
L 449.873572 225.763457 
L 450.375613 225.739038 
L 450.54296 225.730814 
L 450.710308 225.912915 
L 450.877655 225.911356 
L 451.045002 225.770901 
L 451.379696 225.97892 
L 451.547043 225.799938 
L 451.881737 225.921693 
L 452.383779 226.013994 
L 452.551126 225.897814 
L 452.718473 225.934616 
L 452.88582 225.84004 
L 453.387861 225.873904 
L 454.559291 225.797692 
L 454.726638 225.639647 
L 455.061332 225.569009 
L 455.563374 225.387051 
L 455.898068 225.46166 
L 456.065415 225.158261 
L 456.232762 225.092417 
L 456.400109 225.15381 
L 456.567456 224.865464 
L 456.90215 224.934933 
L 457.236845 224.644149 
L 457.404192 224.733495 
L 457.571539 224.540395 
L 457.738886 224.588577 
L 457.906233 224.475143 
L 458.07358 224.502668 
L 458.240927 224.21959 
L 458.408274 224.502964 
L 458.575621 224.266539 
L 458.742969 224.366604 
L 458.910316 224.269347 
L 459.077663 224.479536 
L 459.24501 224.170031 
L 459.747051 224.319061 
L 459.914398 224.167617 
L 461.085828 224.866706 
L 461.253175 224.746196 
L 461.587869 225.161939 
L 461.755216 224.930005 
L 461.922564 225.208929 
L 462.257258 225.351406 
L 462.424605 225.590916 
L 462.759299 225.591297 
L 463.26134 226.00061 
L 463.428687 225.940854 
L 463.596035 226.052844 
L 463.763382 225.977691 
L 463.930729 226.237872 
L 464.098076 226.092517 
L 464.265423 226.25196 
L 464.767464 226.067441 
L 465.102158 226.289456 
L 465.269506 226.206694 
L 465.436853 226.266846 
L 465.771547 226.194178 
L 466.608282 225.810648 
L 466.77563 225.919771 
L 468.951142 224.982348 
L 469.453183 224.978924 
L 469.787877 224.681923 
L 470.122572 224.731369 
L 470.289919 224.611619 
L 470.457266 224.78511 
L 470.624613 224.622407 
L 471.628696 224.548695 
L 471.796043 224.851689 
L 471.96339 224.61126 
L 472.130737 224.757784 
L 472.298084 224.64616 
L 472.632778 224.703414 
L 472.800125 224.60539 
L 473.134819 224.895715 
L 473.302167 224.880662 
L 473.636861 225.042459 
L 473.804208 225.064259 
L 473.971555 225.208081 
L 474.138902 225.146652 
L 474.306249 225.360255 
L 474.473596 225.235809 
L 474.640943 225.437589 
L 474.808291 225.305153 
L 475.142985 225.63033 
L 476.314414 225.967372 
L 476.481762 225.987369 
L 476.649109 226.13759 
L 476.983803 226.102656 
L 477.15115 226.244232 
L 477.318497 226.192464 
L 477.485844 226.389896 
L 477.987885 226.231027 
L 478.155233 226.387463 
L 478.32258 226.319193 
L 478.489927 226.398557 
L 478.991968 226.288728 
L 479.326662 226.290965 
L 479.661357 226.035949 
L 479.828704 226.193281 
L 480.163398 225.960493 
L 480.665439 225.683383 
L 480.832786 225.768855 
L 481.334828 225.345176 
L 481.502175 225.362107 
L 481.669522 225.185201 
L 481.836869 225.208672 
L 482.506257 224.719516 
L 482.673604 224.513735 
L 482.840951 224.575989 
L 483.342993 224.354347 
L 483.845034 224.173135 
L 484.012381 224.088869 
L 484.179728 224.317085 
L 484.347075 224.044176 
L 484.68177 224.272833 
L 485.016464 224.088817 
L 485.183811 224.317559 
L 485.351158 224.292422 
L 485.518505 224.103251 
L 485.853199 224.462585 
L 486.187894 224.88679 
L 486.355241 224.865448 
L 486.522588 225.064374 
L 486.689935 225.022538 
L 487.024629 225.322166 
L 487.191976 225.399054 
L 487.52667 225.660871 
L 487.694018 225.616474 
L 487.861365 225.747008 
L 488.028712 226.046224 
L 488.363406 226.064833 
L 489.86953 226.536423 
L 490.204224 226.523953 
L 490.371571 226.634987 
L 491.04096 226.365123 
L 492.212389 226.05916 
L 494.555249 225.053332 
L 495.224637 224.931661 
L 495.726678 224.777898 
L 495.894026 224.8007 
L 496.061373 224.652949 
L 496.22872 224.759887 
L 496.396067 224.62629 
L 497.232802 224.79195 
L 497.40015 224.583577 
L 497.734844 224.948117 
L 497.902191 224.721609 
L 498.404232 224.891333 
L 498.571579 224.911845 
L 498.738926 225.058276 
L 498.906273 225.053276 
L 499.073621 225.213235 
L 499.240968 225.145311 
L 499.575662 225.40356 
L 499.743009 225.404424 
L 499.910356 225.655176 
L 500.24505 225.609264 
L 500.914439 226.041052 
L 502.253216 226.343328 
L 502.922604 226.516646 
L 504.094034 226.533905 
L 504.261381 226.437628 
L 504.428728 226.477231 
L 505.098116 226.170363 
L 505.265463 226.190118 
L 505.600158 225.924686 
L 505.767505 225.966158 
L 506.102199 225.67831 
L 506.269546 225.631873 
L 506.60424 225.325729 
L 507.943017 224.551525 
L 508.277711 224.472418 
L 508.612405 224.12684 
L 508.779753 224.319612 
L 508.9471 224.213687 
L 509.449141 224.362107 
L 509.783835 224.242611 
L 510.285877 224.685887 
L 510.453224 224.581768 
L 510.787918 224.796594 
L 510.955265 224.996238 
L 511.122612 224.994144 
L 511.289959 225.213843 
L 511.624653 225.378703 
L 512.461389 226.1229 
L 514.13486 226.687038 
L 514.636901 226.644726 
L 516.143025 226.549111 
L 516.310372 226.30899 
L 516.477719 226.345744 
L 516.979761 226.029375 
L 517.147108 226.090775 
L 517.481802 225.879441 
L 517.649149 225.943289 
L 517.816496 225.737882 
L 517.983843 225.814691 
L 518.318537 225.472182 
L 518.987926 225.304893 
L 519.155273 225.083649 
L 519.489967 225.236306 
L 519.824661 224.993522 
L 520.159356 224.939503 
L 520.661397 224.858842 
L 520.828744 224.920818 
L 520.996091 224.758048 
L 521.330785 224.912329 
L 521.498132 224.695266 
L 521.66548 224.830405 
L 521.832827 224.627609 
L 522.000174 224.900924 
L 523.004256 225.017021 
L 523.673645 225.25618 
L 524.008339 225.208759 
L 524.51038 225.585442 
L 525.012422 225.682915 
L 525.179769 225.905679 
L 525.347116 225.8704 
L 526.183851 226.301134 
L 526.518546 226.367693 
L 526.85324 226.545572 
L 527.020587 226.417967 
L 527.355281 226.688093 
L 528.192017 226.633553 
L 528.359364 226.685953 
L 529.196099 226.421932 
L 529.363446 226.407999 
L 529.865488 225.9928 
L 530.032835 225.950738 
L 530.367529 225.74134 
L 531.036917 225.177699 
L 531.371612 225.10003 
L 532.208347 224.388753 
L 532.877736 224.293913 
L 533.045083 224.162816 
L 533.379777 224.290871 
L 533.547124 224.157394 
L 534.551207 224.634086 
L 534.718554 224.922221 
L 535.220595 225.058394 
L 536.894066 226.319388 
L 537.22876 226.333563 
L 537.563454 226.476937 
L 538.734884 226.730768 
L 539.236925 226.68174 
L 539.57162 226.57032 
L 540.073661 226.451141 
L 540.408355 226.396135 
L 540.575702 226.349084 
L 540.743049 226.180996 
L 541.077744 226.125431 
L 541.245091 225.976092 
L 541.579785 225.997799 
L 542.081826 225.605214 
L 542.249173 225.664025 
L 542.751215 225.273077 
L 542.918562 225.274228 
L 543.085909 225.094686 
L 543.253256 225.17018 
L 543.58795 224.973924 
L 543.755297 225.049047 
L 544.089991 224.853889 
L 544.257339 224.94906 
L 544.424686 224.701889 
L 544.75938 224.725376 
L 544.926727 224.620763 
L 545.261421 224.690233 
L 545.596115 224.580048 
L 546.098157 224.633772 
L 546.265504 224.45672 
L 546.432851 224.601871 
L 546.600198 224.56715 
L 546.767545 224.79307 
L 546.934892 224.744301 
L 547.436934 224.858097 
L 547.604281 224.808595 
L 547.771628 225.134221 
L 548.106322 225.043874 
L 548.273669 225.298898 
L 548.77571 225.399527 
L 549.277752 225.708977 
L 549.612446 225.853702 
L 549.94714 226.050461 
L 550.783876 226.502258 
L 550.951223 226.417276 
L 551.453264 226.588183 
L 551.955305 226.588964 
L 552.122652 226.646951 
L 552.624694 226.459707 
L 553.126735 226.256645 
L 553.628776 225.754149 
L 553.796123 225.676051 
L 554.130818 225.279991 
L 554.465512 225.002464 
L 554.967553 224.402196 
L 555.1349 224.446133 
L 555.469595 224.148241 
L 556.473677 223.524237 
L 556.808371 223.817534 
L 556.975718 223.689239 
L 557.645107 224.108934 
L 557.979801 224.177897 
L 558.983884 225.148363 
L 559.151231 225.074819 
L 559.653272 225.669654 
L 559.987966 225.827948 
L 560.155313 225.880919 
L 560.322661 226.144905 
L 560.657355 226.222878 
L 561.159396 226.523125 
L 561.326743 226.391598 
L 561.49409 226.48022 
L 561.661437 226.710348 
L 562.163479 226.526039 
L 562.330826 226.600593 
L 562.832867 226.446066 
L 563.502256 226.265849 
L 563.83695 226.164267 
L 564.506338 225.737616 
L 564.673685 225.528557 
L 565.008379 225.513816 
L 565.175727 225.338326 
L 565.510421 225.256398 
L 565.677768 225.16833 
L 565.845115 224.946192 
L 566.012462 225.054136 
L 566.514503 224.577367 
L 566.68185 224.757968 
L 566.849198 224.193306 
L 567.016545 224.342684 
L 567.85328 223.999463 
L 568.020627 224.14257 
L 568.355322 223.913874 
L 568.690016 223.754535 
L 568.857363 223.888018 
L 569.02471 223.703335 
L 569.192057 223.711938 
L 569.359404 223.858176 
L 569.694098 223.662051 
L 569.861445 223.885737 
L 570.19614 223.767284 
L 570.363487 223.916556 
L 570.530834 223.879612 
L 570.865528 223.960853 
L 571.032875 224.005849 
L 571.869611 224.722418 
L 572.036958 224.701476 
L 572.706346 225.305691 
L 572.873693 225.333269 
L 573.04104 225.610577 
L 573.375735 225.75624 
L 574.21247 226.447878 
L 574.547164 226.44696 
L 574.714511 226.502153 
L 574.881859 226.405917 
L 575.049206 226.514867 
L 575.718594 226.346506 
L 575.885941 226.203158 
L 576.053288 226.210517 
L 576.220635 225.921159 
L 576.387982 225.928652 
L 576.722677 225.518769 
L 577.726759 224.306755 
L 577.894106 224.43407 
L 578.228801 223.899247 
L 578.898189 223.520658 
L 579.232883 223.501861 
L 579.40023 223.387491 
L 579.567577 223.472679 
L 579.734925 223.367223 
L 580.404313 223.67675 
L 580.57166 223.596242 
L 580.739007 224.04527 
L 580.906354 224.023099 
L 581.910437 224.983982 
L 583.416561 226.275513 
L 583.751255 226.336446 
L 584.253296 226.591774 
L 584.587991 226.632375 
L 584.755338 226.751641 
L 585.090032 226.727826 
L 587.098197 226.417965 
L 587.432891 226.269727 
L 587.767586 226.226974 
L 587.934933 226.091741 
L 588.436974 226.13152 
L 588.771668 225.951469 
L 589.106362 225.902111 
L 589.441057 225.72191 
L 589.608404 225.74244 
L 589.775751 225.894291 
L 590.110445 225.63402 
L 590.445139 225.684849 
L 590.612486 225.611598 
L 591.449222 225.847619 
L 591.783916 225.737152 
L 592.285957 225.933475 
L 592.620652 225.986309 
L 592.787999 226.087099 
L 592.955346 226.031863 
L 593.29004 226.070751 
L 595.800247 226.522315 
L 595.967594 226.385007 
L 596.134941 226.50034 
L 596.302288 226.424037 
L 596.804329 226.530526 
L 596.971676 226.455931 
L 597.30637 226.569911 
L 597.641065 226.52264 
L 597.808412 226.505762 
L 597.975759 226.653349 
L 598.143106 226.483867 
L 599.64923 226.635899 
L 599.983924 226.597871 
L 600.151271 226.717181 
L 600.318618 226.508724 
L 600.485965 226.665681 
L 602.828825 226.653822 
L 603.163519 226.760814 
L 603.330866 226.665882 
L 603.66556 226.789067 
L 604.000255 226.731576 
L 604.334949 226.727998 
L 605.506379 226.835326 
L 605.673726 226.722826 
L 605.841073 226.835055 
L 606.175767 226.799685 
L 606.845155 226.844104 
L 613.53904 227.011981 
L 613.706387 226.912051 
L 614.041081 227.014505 
L 614.543122 226.937743 
L 616.885982 226.905085 
L 619.061494 226.891813 
L 619.563535 226.884896 
L 620.400271 226.908818 
L 623.245172 227.103748 
L 623.579866 227.146769 
L 623.91456 227.141898 
L 628.600279 227.098155 
L 629.604361 226.997202 
L 631.44518 226.973195 
L 631.612527 227.053856 
L 631.947221 227.032266 
L 632.616609 227.02968 
L 633.118651 227.003562 
L 634.624775 227.098515 
L 636.130899 227.129265 
L 636.63294 227.167392 
L 637.469675 227.164972 
L 638.808452 227.212484 
L 639.143146 227.131391 
L 641.8207 226.936101 
L 641.988047 227.038357 
L 642.824783 226.840891 
L 643.661518 226.807612 
L 643.828865 226.71256 
L 643.996212 226.806949 
L 644.330907 226.757019 
L 644.832948 226.802773 
L 645.502336 226.716676 
L 645.669683 226.844096 
L 646.171725 226.784612 
L 647.00846 226.925353 
L 647.175807 226.859303 
L 647.510502 226.961187 
L 648.347237 227.11777 
L 649.853361 227.198412 
L 650.188055 227.269128 
L 652.363568 227.166061 
L 652.865609 227.16583 
L 653.869692 227.060217 
L 654.371733 227.030607 
L 655.543163 226.930999 
L 656.045204 226.966486 
L 656.881939 226.884465 
L 657.383981 226.938514 
L 657.551328 226.661049 
L 657.718675 227.025107 
L 657.886022 226.73103 
L 658.220716 227.208642 
L 658.388063 226.863786 
L 658.55541 226.83668 
L 658.722758 226.615593 
L 659.224799 226.799175 
L 659.392146 227.269782 
L 659.559493 226.373654 
L 659.72684 226.878503 
L 660.061534 227.04844 
L 660.228881 226.44005 
L 660.396229 227.129648 
L 660.563576 226.936538 
L 661.065617 227.224296 
L 661.232964 226.952014 
L 661.567658 227.291549 
L 661.735005 227.436066 
L 661.902353 227.054571 
L 662.0697 227.162124 
L 662.739088 227.054184 
L 662.906435 226.682395 
L 663.073782 227.384141 
L 663.241129 227.398764 
L 663.408476 227.105357 
L 663.575824 227.21951 
L 663.910518 227.242186 
L 664.9146 227.362768 
L 665.081947 226.939483 
L 665.416642 227.287564 
L 665.583989 226.488523 
L 665.751336 227.062774 
L 665.918683 227.115331 
L 666.08603 226.880367 
L 666.588071 227.138926 
L 666.922766 227.004466 
L 667.090113 226.423238 
L 667.25746 226.663871 
L 667.424807 226.427586 
L 667.592154 227.032576 
L 667.759501 225.61537 
L 668.094195 226.898345 
L 668.261542 226.623858 
L 668.42889 226.646803 
L 668.596237 226.492419 
L 668.763584 226.946916 
L 668.930931 227.018479 
L 669.265625 226.12552 
L 669.767666 226.927618 
L 669.935014 225.857341 
L 670.102361 226.942988 
L 670.269708 226.726226 
L 670.437055 226.990603 
L 670.604402 226.333199 
L 670.771749 226.934521 
L 671.106443 226.334667 
L 671.27379 226.801173 
L 671.441137 226.301758 
L 671.775832 226.753567 
L 671.943179 226.947938 
L 672.110526 226.196098 
L 672.277873 226.945683 
L 672.44522 227.128311 
L 672.612567 226.7557 
L 672.779914 227.254077 
L 672.947261 226.533398 
L 673.114608 227.196272 
L 673.281956 227.180514 
L 673.449303 227.329743 
L 673.783997 227.04521 
L 673.951344 227.209212 
L 674.118691 226.891447 
L 674.286038 227.277684 
L 674.453385 227.333556 
L 674.620732 226.864327 
L 674.78808 227.252872 
L 674.955427 227.354853 
L 675.290121 226.836767 
L 675.624815 227.184892 
L 675.959509 227.204461 
L 676.126856 227.39833 
L 676.461551 227.280418 
L 676.628898 226.88549 
L 676.963592 226.748326 
L 677.298286 226.983879 
L 677.465633 227.273614 
L 677.63298 227.007183 
L 677.967674 227.086891 
L 678.135022 226.76799 
L 678.302369 227.20669 
L 678.469716 226.761524 
L 678.637063 227.15336 
L 678.80441 226.384289 
L 679.306451 227.111516 
L 679.473798 226.490977 
L 679.641146 226.865446 
L 679.97584 226.79358 
L 680.143187 226.473402 
L 680.310534 226.564308 
L 680.477881 227.034429 
L 680.645228 226.676685 
L 680.812575 226.773441 
L 680.979922 226.480121 
L 681.147269 226.445233 
L 681.314617 226.887507 
L 681.481964 226.631286 
L 681.649311 226.885574 
L 681.816658 226.668601 
L 681.984005 226.823584 
L 682.151352 226.644801 
L 682.653393 226.848218 
L 682.988088 226.281587 
L 683.155435 227.138749 
L 683.322782 227.138595 
L 683.490129 226.123071 
L 683.657476 227.105659 
L 683.99217 226.87516 
L 684.159517 227.326765 
L 684.326864 226.398307 
L 684.494212 227.077551 
L 684.661559 226.850419 
L 684.996253 226.908737 
L 685.1636 226.571711 
L 685.330947 226.843912 
L 685.498294 226.507232 
L 686.000335 227.162724 
L 686.167683 227.213467 
L 686.33503 226.880813 
L 686.502377 226.847713 
L 686.669724 227.136396 
L 686.837071 226.931101 
L 687.004418 227.081743 
L 687.171765 226.925835 
L 687.339112 227.284263 
L 687.841154 227.057262 
L 688.008501 226.883058 
L 688.175848 227.068782 
L 688.343195 226.368593 
L 688.510542 227.03111 
L 688.677889 226.975789 
L 688.845236 227.286509 
L 689.012583 227.15619 
L 689.347278 227.376425 
L 689.849319 227.021294 
L 690.016666 227.145789 
L 690.184013 226.797003 
L 690.35136 226.963265 
L 690.518707 226.9398 
L 690.686054 227.044821 
L 690.853401 226.437624 
L 691.188096 227.058455 
L 691.355443 226.257266 
L 691.52279 226.87688 
L 692.024831 226.637531 
L 692.192178 226.916963 
L 692.526873 226.717827 
L 692.69422 226.203733 
L 692.861567 226.915293 
L 693.196261 225.471541 
L 693.363608 226.320978 
L 693.530955 226.472793 
L 693.698302 226.285571 
L 693.865649 225.67351 
L 694.032996 225.779648 
L 694.200344 226.461071 
L 694.367691 226.615819 
L 694.535038 226.971368 
L 694.869732 226.80529 
L 695.037079 226.464182 
L 695.371773 226.86884 
L 695.53912 226.349472 
L 695.706467 226.826707 
L 696.041162 226.225111 
L 696.208509 226.70463 
L 696.375856 226.645688 
L 696.71055 226.860257 
L 696.877897 226.685864 
L 697.045244 227.147074 
L 697.212591 226.990774 
L 697.547286 227.26229 
L 697.714633 226.891912 
L 697.88198 227.116745 
L 698.049327 227.063003 
L 698.216674 227.215461 
L 698.384021 227.053764 
L 698.718715 227.153934 
L 698.886062 227.360862 
L 699.220757 226.659542 
L 699.388104 227.210558 
L 699.555451 227.130123 
L 699.722798 227.356398 
L 699.890145 226.584176 
L 700.057492 227.32133 
L 700.559533 227.220123 
L 700.726881 227.258746 
L 700.894228 226.849621 
L 701.061575 227.158361 
L 701.228922 227.092788 
L 701.396269 227.187617 
L 701.730963 227.098429 
L 701.89831 227.12694 
L 702.065657 226.707735 
L 702.233005 226.779019 
L 702.400352 226.595675 
L 703.06974 226.996656 
L 703.237087 226.868169 
L 703.404434 227.285885 
L 703.571781 226.815271 
L 703.739128 226.714836 
L 703.906476 226.174689 
L 704.073823 226.970416 
L 704.24117 226.343267 
L 704.743211 226.773058 
L 705.245252 226.563592 
L 705.412599 226.113053 
L 705.579947 226.240691 
L 705.747294 226.590349 
L 706.081988 226.600463 
L 706.249335 226.743718 
L 706.584029 226.727554 
L 706.751376 226.299941 
L 707.420765 226.601061 
L 707.588112 226.980694 
L 707.755459 226.992183 
L 707.922806 226.361455 
L 708.090153 227.030317 
L 708.2575 226.712599 
L 708.424847 227.044817 
L 708.759542 226.020665 
L 708.926889 226.658244 
L 709.094236 226.41823 
L 709.261583 226.392098 
L 709.42893 226.736651 
L 709.596277 226.28791 
L 710.098318 227.043327 
L 710.265666 226.813698 
L 710.433013 227.297827 
L 710.60036 226.802524 
L 711.102401 227.051321 
L 711.437095 226.771772 
L 711.604442 226.635739 
L 711.771789 226.702844 
L 712.106484 227.192623 
L 712.273831 226.8222 
L 712.441178 227.383341 
L 712.775872 226.752959 
L 712.943219 226.587036 
L 713.110566 227.240542 
L 713.277913 227.006623 
L 713.44526 227.358304 
L 713.779955 226.954652 
L 713.947302 226.97112 
L 714.281996 226.670344 
L 714.449343 226.96209 
L 714.61669 226.797547 
L 714.784037 225.88974 
L 715.118732 226.668784 
L 715.286079 226.904946 
L 715.453426 225.901452 
L 715.620773 226.432434 
L 715.955467 226.139387 
L 716.122814 226.995992 
L 716.290161 225.80917 
L 716.457508 226.494175 
L 716.624855 225.581753 
L 716.792203 226.770876 
L 716.95955 226.512348 
L 717.126897 226.540886 
L 717.294244 225.491895 
L 717.628938 226.494364 
L 718.130979 226.130384 
L 718.465674 226.841619 
L 718.633021 226.029964 
L 718.800368 226.344406 
L 718.967715 225.591708 
L 719.302409 226.556322 
L 719.469756 226.183642 
L 719.80445 226.537995 
L 719.971798 226.690012 
L 720.139145 226.638617 
L 720.306492 226.761011 
L 720.473839 227.148413 
L 720.641186 227.029675 
L 720.808533 225.671568 
L 720.97588 227.246361 
L 721.310574 226.778024 
L 721.477921 226.801517 
L 721.645269 227.191033 
L 721.812616 227.000189 
L 721.979963 226.634588 
L 722.482004 227.042689 
L 722.816698 226.959165 
L 722.984045 226.885885 
L 723.486087 227.207628 
L 723.820781 226.732311 
L 723.988128 227.170166 
L 724.155475 226.492568 
L 724.490169 227.031805 
L 724.657516 226.812637 
L 724.824864 226.924868 
L 724.992211 226.671461 
L 725.159558 227.276903 
L 725.326905 226.60706 
L 725.494252 226.567073 
L 725.661599 226.386202 
L 725.828946 227.100864 
L 725.996293 226.760545 
L 726.16364 226.846383 
L 726.330987 226.766627 
L 726.498335 226.927727 
L 726.665682 226.395735 
L 726.833029 226.431228 
L 727.000376 226.289815 
L 727.167723 226.401339 
L 727.33507 225.963929 
L 727.502417 226.424334 
L 727.669764 226.391292 
L 727.837111 225.742696 
L 728.004459 226.639272 
L 728.171806 226.895561 
L 728.339153 225.680807 
L 728.5065 226.495099 
L 728.673847 225.442944 
L 728.841194 226.754314 
L 729.008541 225.850181 
L 729.175888 226.080369 
L 729.343235 226.115233 
L 729.510582 226.503706 
L 729.845277 225.87965 
L 730.012624 226.222024 
L 730.179971 225.572912 
L 730.347318 226.598149 
L 730.514665 226.193817 
L 730.682012 224.738204 
L 730.849359 226.453358 
L 731.016706 224.834505 
L 731.184053 226.075933 
L 731.351401 226.439352 
L 731.518748 226.182377 
L 731.686095 225.440071 
L 731.853442 226.092334 
L 732.188136 226.349083 
L 732.52283 224.580566 
L 732.690177 226.440027 
L 732.857525 225.72791 
L 733.192219 226.56865 
L 733.359566 226.133546 
L 733.69426 226.787756 
L 733.861607 226.644754 
L 734.028954 226.940324 
L 734.196301 226.972878 
L 734.363648 226.602178 
L 734.530996 226.54015 
L 734.698343 226.937365 
L 734.86569 226.322058 
L 735.033037 227.062508 
L 735.367731 226.900161 
L 735.702425 226.883679 
L 735.869772 227.023907 
L 736.037119 226.578454 
L 736.204467 226.872945 
L 736.371814 226.436288 
L 736.706508 226.896091 
L 736.873855 226.11992 
L 737.041202 226.776972 
L 737.208549 226.877808 
L 737.375896 226.386476 
L 737.543243 226.304454 
L 737.710591 227.022635 
L 737.877938 226.614273 
L 738.045285 226.500103 
L 738.212632 226.181698 
L 738.379979 226.572753 
L 738.547326 225.460956 
L 738.714673 225.512286 
L 738.88202 225.979087 
L 739.049367 225.808035 
L 739.216714 224.469854 
L 739.384062 226.022537 
L 739.551409 226.320429 
L 739.718756 225.052757 
L 739.886103 226.262917 
L 740.05345 226.192781 
L 740.220797 225.448316 
L 740.388144 225.258168 
L 740.555491 225.81857 
L 740.722838 224.492272 
L 740.890185 225.80277 
L 741.057533 224.30782 
L 741.22488 225.8962 
L 741.559574 226.635211 
L 741.726921 225.50215 
L 741.894268 225.985169 
L 742.061615 225.130069 
L 742.228962 226.418375 
L 742.396309 226.144214 
L 742.563657 225.135874 
L 742.898351 226.674866 
L 743.065698 226.427993 
L 743.233045 225.494707 
L 743.567739 227.219981 
L 743.735086 226.406446 
L 743.902433 226.794852 
L 744.06978 226.450289 
L 744.237128 226.860914 
L 744.571822 227.00958 
L 744.739169 226.722017 
L 744.906516 225.959088 
L 745.073863 226.620714 
L 745.575904 227.017921 
L 745.743252 226.419986 
L 745.910599 227.04312 
L 746.077946 227.219121 
L 746.245293 226.972199 
L 746.579987 227.230795 
L 746.747334 226.81819 
L 746.914681 227.030399 
L 747.082028 226.642822 
L 747.249375 226.839572 
L 747.416723 227.209629 
L 747.58407 227.213464 
L 747.751417 226.880458 
L 747.918764 227.046426 
L 748.086111 226.589018 
L 748.253458 226.775597 
L 748.420805 226.241386 
L 748.588152 226.924519 
L 748.755499 226.60467 
L 748.922846 227.377388 
L 749.090194 226.273606 
L 749.257541 227.19218 
L 749.424888 224.992657 
L 749.592235 226.371499 
L 749.926929 226.743773 
L 750.094276 226.137392 
L 750.261623 227.168036 
L 750.42897 226.373647 
L 750.596318 226.729329 
L 750.763665 226.72412 
L 750.931012 225.711843 
L 751.098359 225.400176 
L 751.265706 225.715624 
L 751.433053 226.289188 
L 751.6004 226.410074 
L 751.767747 226.244336 
L 752.102441 226.701714 
L 752.269789 226.110592 
L 752.437136 226.274696 
L 752.604483 226.038394 
L 752.77183 226.718513 
L 753.106524 225.847892 
L 753.273871 225.450447 
L 753.441218 226.421473 
L 753.608565 226.049263 
L 753.775912 226.624081 
L 754.110607 226.40814 
L 754.277954 226.358044 
L 754.445301 226.09745 
L 754.779995 226.687311 
L 754.947342 226.569487 
L 755.114689 226.657075 
L 755.282036 225.915066 
L 755.616731 226.479769 
L 755.784078 226.590061 
L 755.951425 225.625358 
L 756.118772 226.969885 
L 756.453466 225.867074 
L 756.78816 226.574711 
L 756.955507 226.39807 
L 757.122855 226.42043 
L 757.290202 226.09972 
L 757.457549 226.03393 
L 757.624896 226.997496 
L 757.792243 227.226566 
L 757.95959 226.173932 
L 758.126937 227.159176 
L 758.294284 226.898269 
L 758.628978 227.210047 
L 758.796326 226.359822 
L 759.13102 227.113947 
L 759.298367 226.569338 
L 759.465714 226.669951 
L 759.633061 226.402153 
L 759.800408 226.98511 
L 759.967755 226.862813 
L 760.135102 226.520147 
L 760.30245 227.287561 
L 760.469797 227.250499 
L 760.637144 226.826519 
L 760.804491 227.159727 
L 760.971838 226.956972 
L 761.139185 227.295898 
L 761.306532 226.637346 
L 761.473879 226.8387 
L 761.808573 226.609472 
L 761.975921 226.200985 
L 762.143268 226.966367 
L 762.310615 226.926505 
L 762.477962 226.073072 
L 762.812656 227.153273 
L 762.980003 227.086372 
L 763.14735 226.614288 
L 763.314697 226.977936 
L 763.482045 226.25648 
L 763.816739 227.196303 
L 764.151433 227.078564 
L 764.31878 227.061281 
L 764.486127 226.150143 
L 764.820821 227.165404 
L 764.988168 227.230409 
L 765.155516 226.994248 
L 765.322863 227.003705 
L 765.49021 227.150191 
L 765.657557 226.851274 
L 765.992251 227.205522 
L 766.159598 226.757242 
L 766.326945 227.12154 
L 766.494292 227.034129 
L 766.661639 227.080817 
L 766.828987 226.911271 
L 766.996334 227.207426 
L 767.163681 226.989227 
L 767.331028 227.109015 
L 767.498375 226.941695 
L 767.665722 227.148125 
L 767.833069 226.711524 
L 768.167763 227.310812 
L 768.502458 226.553748 
L 768.669805 227.236951 
L 768.837152 227.204736 
L 769.171846 226.498241 
L 769.339193 227.020549 
L 769.50654 226.19258 
L 769.673887 226.878752 
L 769.841234 226.955601 
L 770.008582 227.392718 
L 770.175929 227.414933 
L 770.343276 227.046773 
L 770.510623 227.03805 
L 770.67797 226.448173 
L 770.845317 227.178021 
L 771.347358 226.84387 
L 771.514705 227.062129 
L 771.682053 226.97112 
L 771.8494 226.742913 
L 772.016747 226.892004 
L 772.184094 227.267523 
L 772.853482 227.33867 
L 773.020829 227.02751 
L 773.188177 227.386841 
L 773.355524 227.350708 
L 773.522871 226.741135 
L 773.690218 227.260029 
L 774.024912 227.254526 
L 774.359606 226.90998 
L 774.861648 227.045527 
L 775.028995 227.301183 
L 775.196342 227.140322 
L 775.363689 227.181701 
L 775.531036 226.969956 
L 775.698383 227.334072 
L 775.86573 227.319842 
L 776.033077 226.691102 
L 776.200424 227.318988 
L 776.367771 226.887814 
L 776.535119 227.156713 
L 777.03716 227.255306 
L 777.204507 227.224355 
L 777.371854 226.706675 
L 777.539201 227.330663 
L 777.706548 227.402092 
L 777.873895 226.83008 
L 778.041243 226.864398 
L 778.375937 227.287069 
L 778.543284 227.255801 
L 778.710631 226.711832 
L 778.877978 227.245733 
L 779.212672 227.336798 
L 779.547366 226.812567 
L 779.714714 227.201821 
L 779.882061 226.883482 
L 780.384102 227.36992 
L 780.551449 227.105924 
L 781.220838 227.102829 
L 781.388185 227.171526 
L 781.555532 226.837742 
L 781.722879 226.989463 
L 781.890226 226.976898 
L 782.057573 227.313186 
L 782.22492 227.092191 
L 782.392267 227.21371 
L 782.894309 227.08122 
L 783.061656 227.210598 
L 783.229003 227.156508 
L 783.39635 226.974153 
L 783.731044 227.376976 
L 784.065738 226.997602 
L 784.233085 227.246908 
L 784.400432 226.954774 
L 784.56778 227.177349 
L 784.735127 227.077435 
L 785.069821 227.389221 
L 785.237168 227.150001 
L 785.404515 227.379381 
L 785.906556 227.396492 
L 786.241251 226.926288 
L 786.408598 227.325115 
L 786.910639 227.163521 
L 787.077986 227.332023 
L 787.245333 227.205561 
L 787.41268 227.297572 
L 787.747375 227.248054 
L 788.249416 227.233436 
L 788.416763 227.372056 
L 788.58411 227.045961 
L 788.751457 227.347596 
L 788.918804 226.966 
L 789.086151 227.348707 
L 789.420846 227.03363 
L 789.588193 227.397606 
L 789.75554 227.190779 
L 789.922887 227.381442 
L 790.090234 227.020716 
L 790.257581 227.35333 
L 790.424928 227.393726 
L 790.759622 227.250151 
L 790.92697 227.429448 
L 791.094317 227.201725 
L 791.261664 227.393571 
L 791.429011 227.377559 
L 791.596358 227.227375 
L 791.763705 227.323911 
L 791.931052 227.249387 
L 792.098399 227.368924 
L 792.265746 227.08905 
L 792.600441 227.286266 
L 792.935135 227.331354 
L 793.102482 226.927714 
L 793.269829 227.277302 
L 793.939217 227.414891 
L 794.106564 227.144752 
L 794.273912 227.378454 
L 794.441259 227.331464 
L 794.608606 226.643334 
L 794.775953 227.394628 
L 795.110647 227.321839 
L 795.277994 227.200665 
L 795.947383 227.331832 
L 796.449424 227.104783 
L 796.616771 227.41329 
L 796.784118 227.241638 
L 797.118812 227.2918 
L 797.453507 227.362899 
L 797.620854 226.983285 
L 797.788201 227.429344 
L 797.955548 226.906322 
L 798.122895 227.365425 
L 798.290242 227.245677 
L 798.624936 227.339942 
L 799.126978 227.216724 
L 799.294325 227.334061 
L 799.796366 227.106919 
L 799.963713 227.386367 
L 800.13106 227.247219 
L 800.298407 227.36941 
L 801.30249 227.193862 
L 801.469837 227.010284 
L 801.637184 227.135241 
L 801.804531 227.020214 
L 802.47392 227.29811 
L 802.641267 227.027996 
L 802.975961 227.26826 
L 803.478002 227.024837 
L 803.645349 226.610931 
L 803.812697 227.131318 
L 803.980044 227.00689 
L 804.147391 227.094895 
L 804.314738 226.705845 
L 804.482085 227.254186 
L 804.649432 227.097088 
L 804.816779 227.282189 
L 804.984126 226.899704 
L 805.151473 227.116284 
L 805.31882 226.708086 
L 805.486168 226.659951 
L 805.653515 227.419261 
L 805.988209 227.158284 
L 806.155556 227.338039 
L 806.322903 226.896919 
L 806.49025 226.933197 
L 806.657597 227.140512 
L 806.824944 226.936221 
L 806.992291 226.979142 
L 807.159639 227.252102 
L 807.66168 227.303903 
L 807.996374 227.0181 
L 808.331068 227.423734 
L 808.498415 226.958866 
L 808.665763 227.290102 
L 808.83311 226.876067 
L 809.335151 227.20739 
L 809.502498 227.354117 
L 809.669845 227.29706 
L 809.837192 227.38851 
L 810.171886 227.303152 
L 810.339234 226.808642 
L 810.506581 227.410805 
L 810.673928 227.21747 
L 811.008622 227.297511 
L 811.175969 227.217383 
L 811.343316 226.94752 
L 811.67801 227.398996 
L 811.845357 227.26829 
L 812.180052 227.278888 
L 812.347399 227.075894 
L 812.682093 227.366906 
L 812.84944 227.102231 
L 813.518829 227.34009 
L 813.686176 227.206498 
L 813.853523 227.344233 
L 814.355564 227.167145 
L 814.857605 227.326482 
L 815.1923 227.206711 
L 815.526994 226.725433 
L 815.694341 227.381011 
L 816.196382 227.047002 
L 816.363729 227.4136 
L 816.531076 227.157843 
L 816.698424 227.403944 
L 817.200465 227.084297 
L 817.367812 227.387544 
L 817.535159 227.158876 
L 817.702506 227.295182 
L 817.869853 226.924886 
L 818.0372 227.374504 
L 818.204547 227.178688 
L 818.539242 227.422489 
L 818.706589 227.045647 
L 819.041283 227.405102 
L 819.20863 227.18916 
L 819.375977 227.208522 
L 819.543324 227.415236 
L 819.710671 227.053142 
L 819.878018 227.36052 
L 820.212713 226.991015 
L 820.38006 227.220689 
L 820.882101 227.074101 
L 821.55149 227.378492 
L 821.718837 226.834495 
L 821.886184 227.039048 
L 822.053531 227.419076 
L 822.220878 227.111253 
L 822.388225 227.391008 
L 822.722919 227.414163 
L 823.057613 226.866032 
L 823.224961 227.407004 
L 823.392308 227.411165 
L 823.559655 227.207938 
L 823.894349 227.275438 
L 824.229043 227.409139 
L 824.39639 227.090913 
L 824.898432 227.372603 
L 825.233126 227.437123 
L 825.400473 227.208543 
L 825.902514 227.394809 
L 826.237208 227.304625 
L 826.404556 227.411832 
L 826.571903 226.806803 
L 826.73925 226.824056 
L 827.073944 227.261591 
L 827.241291 227.105818 
L 827.575985 227.278052 
L 827.910679 227.182438 
L 828.078027 226.886439 
L 828.245374 227.314036 
L 828.580068 227.281771 
L 828.747415 227.055953 
L 829.249456 227.309478 
L 829.416803 226.97996 
L 829.58415 227.253924 
L 829.751498 226.977222 
L 829.918845 227.121278 
L 830.253539 226.676792 
L 830.420886 227.393722 
L 830.588233 226.939353 
L 830.75558 227.244089 
L 831.090274 226.923961 
L 831.257622 227.203624 
L 831.592316 226.775474 
L 831.759663 226.845429 
L 831.92701 226.672678 
L 832.094357 227.328041 
L 832.596398 227.307659 
L 832.931093 227.020314 
L 833.265787 227.108414 
L 833.433134 226.975502 
L 833.767828 227.426603 
L 834.102522 227.046482 
L 834.269869 227.27434 
L 834.437217 227.029026 
L 834.771911 227.388911 
L 834.939258 227.055871 
L 835.441299 227.30808 
L 835.775993 227.348422 
L 835.94334 227.432247 
L 836.445382 227.355641 
L 838.620894 227.216613 
L 838.955588 226.886513 
L 839.122935 227.229998 
L 839.290283 226.807028 
L 839.45763 227.365591 
L 839.792324 227.196825 
L 839.959671 227.287026 
L 840.294365 226.880938 
L 840.629059 227.320335 
L 840.796406 227.402616 
L 840.963754 227.110688 
L 841.131101 227.218714 
L 841.298448 227.022704 
L 841.465795 227.006812 
L 841.800489 227.325585 
L 842.135183 227.192942 
L 842.30253 227.175905 
L 842.469877 226.962692 
L 842.637225 227.262524 
L 842.804572 226.794199 
L 843.139266 227.295522 
L 843.306613 226.998255 
L 843.47396 227.244363 
L 844.478043 227.299153 
L 845.147431 227.083835 
L 845.482125 227.389566 
L 845.649472 227.196839 
L 845.81682 227.330367 
L 846.151514 227.16804 
L 846.318861 227.117013 
L 846.653555 227.431945 
L 847.490291 227.180632 
L 847.657638 227.316149 
L 847.824985 227.154713 
L 847.992332 227.368555 
L 848.159679 227.175036 
L 848.66172 227.331854 
L 848.829067 227.167198 
L 848.996415 227.330785 
L 849.163762 227.257833 
L 849.331109 227.431567 
L 849.665803 227.009713 
L 849.83315 227.34505 
L 850.167844 227.417444 
L 850.502538 227.106745 
L 850.669886 227.350024 
L 851.339274 227.161132 
L 851.506621 227.196031 
L 851.673968 226.980785 
L 851.841315 227.220295 
L 852.008662 227.160455 
L 852.176009 227.239103 
L 852.343357 226.891327 
L 852.510704 227.226364 
L 852.678051 226.668497 
L 852.845398 226.517479 
L 853.012745 227.092452 
L 853.682133 226.852683 
L 853.849481 227.256259 
L 854.184175 226.919692 
L 854.351522 227.094111 
L 854.518869 226.642216 
L 855.02091 227.116149 
L 855.188257 227.091021 
L 855.355604 226.710038 
L 855.522952 227.317506 
L 855.690299 226.935878 
L 855.857646 226.989504 
L 856.024993 227.185863 
L 856.19234 226.775315 
L 856.359687 227.251101 
L 856.527034 226.938502 
L 856.694381 227.259506 
L 856.861728 227.074097 
L 857.029076 226.586015 
L 857.196423 227.114104 
L 857.531117 227.281593 
L 857.698464 226.992339 
L 857.865811 227.049066 
L 858.033158 227.272019 
L 858.200505 226.890773 
L 858.535199 227.407884 
L 858.869894 227.219784 
L 859.037241 227.365547 
L 859.371935 227.255776 
L 859.539282 227.393955 
L 859.706629 227.329356 
L 859.873976 227.029355 
L 860.041323 227.245733 
L 860.376018 227.250059 
L 860.710712 227.346102 
L 860.878059 227.133779 
L 861.547447 227.342792 
L 861.714794 227.162344 
L 862.384183 227.365621 
L 862.55153 226.976974 
L 862.718877 227.041811 
L 862.886224 227.359603 
L 863.053571 227.112228 
L 863.220918 227.313078 
L 863.72296 227.055642 
L 864.392348 227.282024 
L 864.727042 227.253238 
L 865.061736 226.939572 
L 865.229084 227.292345 
L 865.563778 226.982611 
L 865.731125 227.096292 
L 865.898472 227.059265 
L 866.233166 226.781138 
L 866.400513 227.209575 
L 866.735208 227.090679 
L 866.902555 227.23603 
L 867.069902 226.884299 
L 867.237249 226.950123 
L 867.404596 227.174348 
L 867.571943 227.137509 
L 867.73929 227.216129 
L 867.906637 226.896366 
L 868.073984 226.862442 
L 868.241331 227.04382 
L 868.408679 227.037065 
L 868.576026 227.276236 
L 868.743373 226.92421 
L 868.91072 227.156253 
L 869.078067 227.115518 
L 869.412761 227.323331 
L 870.08215 227.425224 
L 870.249497 227.111983 
L 870.416844 227.21452 
L 870.584191 227.110876 
L 871.086232 227.394332 
L 871.253579 227.146306 
L 871.420926 227.117237 
L 871.588274 227.337317 
L 871.922968 227.248227 
L 872.090315 227.369888 
L 872.759703 227.367351 
L 872.92705 226.957613 
L 873.261745 227.369652 
L 873.429092 227.047607 
L 873.596439 227.220281 
L 873.763786 226.996663 
L 873.931133 227.225583 
L 874.265827 227.166947 
L 874.433174 227.355809 
L 874.767869 227.315012 
L 875.102563 226.977347 
L 875.26991 227.28228 
L 875.437257 226.440125 
L 875.604604 226.70834 
L 875.771951 226.513234 
L 875.939298 227.094079 
L 876.106645 227.150131 
L 876.273992 227.08044 
L 876.44134 226.534619 
L 876.776034 227.336451 
L 877.278075 226.295581 
L 877.445422 226.815957 
L 877.947463 226.858948 
L 878.114811 226.554096 
L 878.449505 226.701914 
L 878.616852 226.997174 
L 878.951546 226.921666 
L 879.28624 226.854576 
L 879.453587 227.062283 
L 879.620935 226.538013 
L 879.788282 227.13848 
L 880.122976 226.950797 
L 880.290323 227.221588 
L 880.45767 226.490536 
L 880.625017 227.000998 
L 881.127058 227.065193 
L 881.294406 226.894925 
L 881.461753 226.987158 
L 881.6291 227.315749 
L 881.796447 227.363319 
L 882.131141 227.007372 
L 882.800529 227.149827 
L 882.967877 226.938172 
L 883.135224 227.312835 
L 883.302571 227.37895 
L 883.637265 227.071699 
L 883.971959 227.378561 
L 884.139306 226.993763 
L 884.306653 227.394925 
L 884.641348 227.307358 
L 884.808695 227.41048 
L 884.976042 227.112084 
L 885.143389 227.145904 
L 885.310736 227.307383 
L 885.478083 227.177333 
L 885.64543 227.434505 
L 885.812777 227.208953 
L 885.980124 227.343967 
L 886.314819 226.95868 
L 886.482166 226.610047 
L 886.649513 227.210373 
L 886.81686 226.77582 
L 886.984207 227.293572 
L 887.151554 226.995122 
L 887.318901 227.058948 
L 887.486248 227.281075 
L 887.820943 227.098366 
L 887.98829 226.815266 
L 888.155637 227.159997 
L 888.490331 226.994374 
L 888.657678 227.07666 
L 888.825025 226.515254 
L 889.327067 226.943683 
L 889.494414 226.3966 
L 889.661761 226.928533 
L 889.829108 226.98806 
L 889.996455 226.909434 
L 890.163802 226.65047 
L 890.331149 227.036124 
L 890.498496 226.789259 
L 890.665843 227.23333 
L 890.83319 227.213644 
L 891.167885 226.919375 
L 891.335232 226.95459 
L 891.502579 226.506156 
L 891.669926 226.915383 
L 892.171967 226.784295 
L 892.339314 226.849325 
L 892.506662 226.222934 
L 892.674009 226.851479 
L 892.841356 226.540429 
L 893.008703 227.135401 
L 893.17605 227.071186 
L 893.343397 227.188758 
L 893.510744 226.984285 
L 893.678091 227.107549 
L 894.012785 226.927412 
L 894.180133 226.721866 
L 894.34748 227.205493 
L 894.514827 227.323799 
L 894.682174 226.764638 
L 894.849521 227.307383 
L 895.184215 227.098706 
L 895.351562 227.296819 
L 895.518909 227.03185 
L 895.686256 227.312871 
L 895.853604 226.540817 
L 896.020951 227.217037 
L 896.188298 226.849929 
L 896.522992 227.278023 
L 896.690339 227.124099 
L 897.025033 227.40048 
L 897.359728 226.89015 
L 897.527075 227.318704 
L 897.694422 227.009725 
L 897.861769 227.105776 
L 898.196463 226.835413 
L 898.36381 227.277102 
L 898.531157 226.696006 
L 898.698504 227.105762 
L 899.033199 225.747353 
L 899.200546 226.120627 
L 899.367893 226.805699 
L 899.53524 226.217131 
L 899.702587 226.696735 
L 899.869934 226.693612 
L 900.037281 227.194803 
L 900.204628 225.814552 
L 900.371975 226.527093 
L 900.539322 226.181038 
L 900.70667 226.4741 
L 901.041364 226.436784 
L 901.208711 227.00923 
L 901.543405 226.21736 
L 901.710752 226.865238 
L 901.878099 226.516283 
L 902.045446 226.57538 
L 902.212794 226.07947 
L 902.380141 226.627222 
L 902.547488 226.671331 
L 902.714835 226.562193 
L 903.216876 226.701378 
L 903.384223 226.342165 
L 903.55157 226.988811 
L 903.718917 226.389661 
L 903.886265 227.03729 
L 904.220959 226.497802 
L 904.388306 226.965011 
L 904.555653 226.570914 
L 904.723 227.387541 
L 904.890347 226.92279 
L 905.057694 227.136618 
L 905.225041 227.087727 
L 905.392388 226.845924 
L 905.559736 227.339089 
L 905.89443 227.035287 
L 906.229124 226.708355 
L 906.563818 227.308756 
L 906.731165 226.72811 
L 907.06586 227.138868 
L 907.567901 226.993247 
L 907.735248 226.922659 
L 908.069942 227.167927 
L 908.237289 226.620753 
L 908.404636 227.14452 
L 908.404636 227.14452 
" style="fill:none;stroke:#1f77b4;stroke-linecap:square;"/>
   </g>
   <g id="patch_3">
    <path d="M 118.041 237.324063 
L 118.041 19.884062 
" style="fill:none;stroke:#000000;stroke-linecap:square;stroke-linejoin:miter;stroke-width:0.8;"/>
   </g>
   <g id="patch_4">
    <path d="M 946.041 237.324063 
L 946.041 19.884062 
" style="fill:none;stroke:#000000;stroke-linecap:square;stroke-linejoin:miter;stroke-width:0.8;"/>
   </g>
   <g id="patch_5">
    <path d="M 118.041 237.324063 
L 946.041 237.324063 
" style="fill:none;stroke:#000000;stroke-linecap:square;stroke-linejoin:miter;stroke-width:0.8;"/>
   </g>
   <g id="patch_6">
    <path d="M 118.041 19.884063 
L 946.041 19.884063 
" style="fill:none;stroke:#000000;stroke-linecap:square;stroke-linejoin:miter;stroke-width:0.8;"/>
   </g>
   <g id="legend_1">
    <g id="patch_7">
     <path d="M 959.521 105.383438 
L 1354.201 105.383438 
Q 1359.401 105.383438 1359.401 100.183438 
L 1359.401 25.084063 
Q 1359.401 19.884063 1354.201 19.884063 
L 959.521 19.884063 
Q 954.321 19.884063 954.321 25.084063 
L 954.321 100.183438 
Q 954.321 105.383438 959.521 105.383438 
z
" style="fill:#ffffff;opacity:0.8;stroke:#cccccc;stroke-linejoin:miter;"/>
    </g>
    <g id="line2d_14">
     <path d="M 964.721 40.11125 
L 1016.721 40.11125 
" style="fill:none;stroke:#1f77b4;stroke-linecap:square;"/>
    </g>
    <g id="line2d_15"/>
    <g id="text_9">
     <!-- Change point score -->
     <g transform="translate(1037.521 49.21125)scale(0.26 -0.26)">
      <use xlink:href="#ArialMT-67"/>
      <use x="72.216797" xlink:href="#ArialMT-104"/>
      <use x="127.832031" xlink:href="#ArialMT-97"/>
      <use x="183.447266" xlink:href="#ArialMT-110"/>
      <use x="239.0625" xlink:href="#ArialMT-103"/>
      <use x="294.677734" xlink:href="#ArialMT-101"/>
      <use x="350.292969" xlink:href="#ArialMT-32"/>
      <use x="378.076172" xlink:href="#ArialMT-112"/>
      <use x="433.691406" xlink:href="#ArialMT-111"/>
      <use x="489.306641" xlink:href="#ArialMT-105"/>
      <use x="511.523438" xlink:href="#ArialMT-110"/>
      <use x="567.138672" xlink:href="#ArialMT-116"/>
      <use x="594.921875" xlink:href="#ArialMT-32"/>
      <use x="622.705078" xlink:href="#ArialMT-115"/>
      <use x="672.705078" xlink:href="#ArialMT-99"/>
      <use x="722.705078" xlink:href="#ArialMT-111"/>
      <use x="778.320312" xlink:href="#ArialMT-114"/>
      <use x="811.621094" xlink:href="#ArialMT-101"/>
     </g>
    </g>
    <g id="PathCollection_2">
     <g>
      <use style="fill:#ff0000;stroke:#ff0000;" x="990.721" xlink:href="#mee6335f841" y="82.438438"/>
     </g>
    </g>
    <g id="text_10">
     <!-- Change point (KL div &gt; $\zeta^*$) -->
     <defs>
      <path d="M 52.875 31.296875 
L 5.46875 11.03125 
L 5.46875 19.78125 
L 43.015625 35.359375 
L 5.46875 50.78125 
L 5.46875 59.515625 
L 52.875 39.5 
z
" id="ArialMT-62"/>
      <path d="M 29 68.296875 
L 29.5 66.796875 
Q 26 65.5 24.09375 63.59375 
Q 22.203125 61.703125 22.203125 59.796875 
Q 22.203125 55.796875 27 55 
Q 30 58.59375 35.390625 62.140625 
Q 40.796875 65.703125 44.40625 65.703125 
Q 47.5 65.703125 47.5 63.203125 
Q 47.5 59.90625 41.34375 56.25 
Q 35.203125 52.59375 28.5 52 
Q 21.40625 47.203125 14.75 36.34375 
Q 8.09375 25.5 8.09375 16.296875 
Q 8.09375 11.40625 10.84375 9.203125 
Q 13.59375 7 19 7 
Q 19.703125 7 21.09375 7.046875 
Q 22.5 7.09375 22.796875 7.09375 
Q 29.09375 7.09375 32.5 4.59375 
Q 35.90625 2.09375 35.90625 -2.09375 
Q 35.90625 -6.59375 33.09375 -10.59375 
Q 30.90625 -14 27 -16.25 
Q 23.09375 -18.5 19.703125 -18.5 
Q 16.90625 -18.5 14.953125 -17.203125 
Q 13 -15.90625 13 -13.296875 
Q 13 -11.59375 14.203125 -10.34375 
Q 15.40625 -9.09375 17.296875 -9.09375 
Q 18.90625 -9.09375 20.75 -10.546875 
Q 22.59375 -12 23.796875 -12 
Q 27.09375 -12 29.5 -10.046875 
Q 31.90625 -8.09375 31.90625 -5.09375 
Q 31.90625 -0.09375 24.296875 -0.09375 
Q 23 -0.09375 19.84375 -0.59375 
Q 16.703125 -1.09375 15.203125 -1.09375 
Q 3 -1.09375 3 10.703125 
Q 3 31.5 24.203125 52.203125 
L 24.09375 52.296875 
Q 21.5 52.296875 19.296875 53.84375 
Q 17.09375 55.40625 17.09375 58.09375 
Q 17.09375 61.296875 20.140625 64.046875 
Q 23.203125 66.796875 29 68.296875 
z
" id="STIXGeneral-Italic-950"/>
      <path d="M 26.796875 47.09375 
L 27.703125 46.5 
Q 31.40625 44.09375 37.296875 43.09375 
Q 40.703125 42.59375 42 41.640625 
Q 43.296875 40.703125 43.296875 38.796875 
Q 43.296875 37.09375 42.296875 36 
Q 41.296875 34.90625 39.703125 34.90625 
Q 37.203125 34.90625 33.703125 39.296875 
Q 31.40625 42.09375 26.796875 45.09375 
L 26 45.59375 
L 26 44.703125 
Q 26 39.09375 28 33.703125 
Q 28.90625 31.203125 28.90625 30.40625 
Q 28.90625 28.90625 27.65625 27.703125 
Q 26.40625 26.5 24.90625 26.5 
Q 23.5 26.5 22.390625 27.59375 
Q 21.296875 28.703125 21.296875 30.09375 
Q 21.296875 31.5 22.5 34.796875 
Q 24.09375 39.09375 24.09375 44.703125 
L 24.09375 45.59375 
Q 20.09375 43.09375 18.90625 42 
Q 17.703125 40.796875 14.796875 37.5 
Q 12.59375 35 10.5 35 
Q 8.796875 35 7.796875 36 
Q 6.796875 37 6.796875 38.59375 
Q 6.796875 40.5 8.25 41.5 
Q 9.703125 42.5 13.09375 43.09375 
Q 16.59375 43.796875 18.4375 44.5 
Q 20.296875 45.203125 23.40625 47.09375 
Q 19.09375 49.703125 13.703125 50.796875 
Q 10 51.59375 8.5 52.59375 
Q 7 53.59375 7 55.40625 
Q 7 57 7.890625 58.046875 
Q 8.796875 59.09375 10.296875 59.09375 
Q 12.296875 59.09375 15.203125 55.90625 
Q 19.40625 51.203125 24.09375 48.59375 
L 24.09375 49.90625 
Q 24.09375 54 22.59375 59 
Q 21.5 62.296875 21.5 64.203125 
Q 21.5 65.59375 22.546875 66.59375 
Q 23.59375 67.59375 25.09375 67.59375 
Q 26.59375 67.59375 27.6875 66.546875 
Q 28.796875 65.5 28.796875 64 
Q 28.796875 62.40625 27.703125 59.296875 
Q 26 54.796875 26 51 
L 26 48.59375 
Q 29.40625 50.59375 31.796875 52.796875 
Q 32.296875 53.296875 33.640625 54.75 
Q 35 56.203125 35.796875 57 
Q 36.59375 57.796875 37.640625 58.546875 
Q 38.703125 59.296875 39.5 59.296875 
Q 41.203125 59.296875 42.203125 58.25 
Q 43.203125 57.203125 43.203125 55.5 
Q 43.203125 53.5 42.046875 52.546875 
Q 40.90625 51.59375 38 51.203125 
Q 32.40625 50.296875 26.796875 47.09375 
z
" id="STIXGeneral-Regular-42"/>
     </defs>
     <g transform="translate(1037.521 89.263438)scale(0.26 -0.26)">
      <use transform="translate(0 0.409375)" xlink:href="#ArialMT-67"/>
      <use transform="translate(72.216797 0.409375)" xlink:href="#ArialMT-104"/>
      <use transform="translate(127.832031 0.409375)" xlink:href="#ArialMT-97"/>
      <use transform="translate(183.447266 0.409375)" xlink:href="#ArialMT-110"/>
      <use transform="translate(239.0625 0.409375)" xlink:href="#ArialMT-103"/>
      <use transform="translate(294.677734 0.409375)" xlink:href="#ArialMT-101"/>
      <use transform="translate(350.292969 0.409375)" xlink:href="#ArialMT-32"/>
      <use transform="translate(378.076172 0.409375)" xlink:href="#ArialMT-112"/>
      <use transform="translate(433.691406 0.409375)" xlink:href="#ArialMT-111"/>
      <use transform="translate(489.306641 0.409375)" xlink:href="#ArialMT-105"/>
      <use transform="translate(511.523438 0.409375)" xlink:href="#ArialMT-110"/>
      <use transform="translate(567.138672 0.409375)" xlink:href="#ArialMT-116"/>
      <use transform="translate(594.921875 0.409375)" xlink:href="#ArialMT-32"/>
      <use transform="translate(622.705078 0.409375)" xlink:href="#ArialMT-40"/>
      <use transform="translate(656.005859 0.409375)" xlink:href="#ArialMT-75"/>
      <use transform="translate(722.705078 0.409375)" xlink:href="#ArialMT-76"/>
      <use transform="translate(778.320312 0.409375)" xlink:href="#ArialMT-32"/>
      <use transform="translate(806.103516 0.409375)" xlink:href="#ArialMT-100"/>
      <use transform="translate(861.71875 0.409375)" xlink:href="#ArialMT-105"/>
      <use transform="translate(883.935547 0.409375)" xlink:href="#ArialMT-118"/>
      <use transform="translate(933.935547 0.409375)" xlink:href="#ArialMT-32"/>
      <use transform="translate(961.71875 0.409375)" xlink:href="#ArialMT-62"/>
      <use transform="translate(1020.117188 0.409375)" xlink:href="#ArialMT-32"/>
      <use transform="translate(1047.900391 0.409375)" xlink:href="#STIXGeneral-Italic-950"/>
      <use transform="translate(1114.664163 35.684375)scale(0.7)" xlink:href="#STIXGeneral-Regular-42"/>
      <use transform="translate(1164.181525 0.409375)" xlink:href="#ArialMT-41"/>
     </g>
    </g>
   </g>
  </g>
 </g>
 <defs>
  <clipPath id="pa817ed90ac">
   <rect height="217.44" width="828" x="118.041" y="19.884063"/>
  </clipPath>
 </defs>
</svg>
