<?xml version="1.0" encoding="utf-8" standalone="no"?>
<!DOCTYPE svg PUBLIC "-//W3C//DTD SVG 1.1//EN"
  "http://www.w3.org/Graphics/SVG/1.1/DTD/svg11.dtd">
<!-- Created with matplotlib (https://matplotlib.org/) -->
<svg height="307.407188pt" version="1.1" viewBox="0 0 1370.101 307.407188" width="1370.101pt" xmlns="http://www.w3.org/2000/svg" xmlns:xlink="http://www.w3.org/1999/xlink">
 <defs>
  <style type="text/css">
*{stroke-linecap:butt;stroke-linejoin:round;}
  </style>
 </defs>
 <g id="figure_1">
  <g id="patch_1">
   <path d="M 0 307.407188 
L 1370.101 307.407188 
L 1370.101 0 
L 0 0 
z
" style="fill:#ffffff;"/>
  </g>
  <g id="axes_1">
   <g id="patch_2">
    <path d="M 121.541 237.324063 
L 949.541 237.324063 
L 949.541 19.884063 
L 121.541 19.884063 
z
" style="fill:#ffffff;"/>
   </g>
   <g id="PathCollection_1">
    <defs>
     <path d="M 0 3 
C 0.795609 3 1.55874 2.683901 2.12132 2.12132 
C 2.683901 1.55874 3 0.795609 3 0 
C 3 -0.795609 2.683901 -1.55874 2.12132 -2.12132 
C 1.55874 -2.683901 0.795609 -3 0 -3 
C -0.795609 -3 -1.55874 -2.683901 -2.12132 -2.12132 
C -2.683901 -1.55874 -3 -0.795609 -3 0 
C -3 0.795609 -2.683901 1.55874 -2.12132 2.12132 
C -1.55874 2.683901 -0.795609 3 0 3 
z
" id="m9f405195d5" style="stroke:#ff0000;"/>
    </defs>
    <g clip-path="url(#pe3e7697e1e)">
     <use style="fill:#ff0000;stroke:#ff0000;" x="159.177364" xlink:href="#m9f405195d5" y="29.767699"/>
     <use style="fill:#ff0000;stroke:#ff0000;" x="160.181446" xlink:href="#m9f405195d5" y="211.159934"/>
     <use style="fill:#ff0000;stroke:#ff0000;" x="160.348793" xlink:href="#m9f405195d5" y="207.574634"/>
     <use style="fill:#ff0000;stroke:#ff0000;" x="410.030672" xlink:href="#m9f405195d5" y="214.631376"/>
     <use style="fill:#ff0000;stroke:#ff0000;" x="410.198019" xlink:href="#m9f405195d5" y="214.323365"/>
     <use style="fill:#ff0000;stroke:#ff0000;" x="410.365366" xlink:href="#m9f405195d5" y="213.964737"/>
     <use style="fill:#ff0000;stroke:#ff0000;" x="410.532713" xlink:href="#m9f405195d5" y="214.223532"/>
     <use style="fill:#ff0000;stroke:#ff0000;" x="410.700061" xlink:href="#m9f405195d5" y="213.987368"/>
     <use style="fill:#ff0000;stroke:#ff0000;" x="410.867408" xlink:href="#m9f405195d5" y="214.171429"/>
     <use style="fill:#ff0000;stroke:#ff0000;" x="411.034755" xlink:href="#m9f405195d5" y="214.280981"/>
     <use style="fill:#ff0000;stroke:#ff0000;" x="411.202102" xlink:href="#m9f405195d5" y="213.641555"/>
     <use style="fill:#ff0000;stroke:#ff0000;" x="411.369449" xlink:href="#m9f405195d5" y="213.485694"/>
     <use style="fill:#ff0000;stroke:#ff0000;" x="411.536796" xlink:href="#m9f405195d5" y="213.495332"/>
     <use style="fill:#ff0000;stroke:#ff0000;" x="411.704143" xlink:href="#m9f405195d5" y="213.682198"/>
     <use style="fill:#ff0000;stroke:#ff0000;" x="411.87149" xlink:href="#m9f405195d5" y="213.257433"/>
     <use style="fill:#ff0000;stroke:#ff0000;" x="412.038837" xlink:href="#m9f405195d5" y="213.796034"/>
     <use style="fill:#ff0000;stroke:#ff0000;" x="412.206185" xlink:href="#m9f405195d5" y="214.09897"/>
     <use style="fill:#ff0000;stroke:#ff0000;" x="412.373532" xlink:href="#m9f405195d5" y="214.310278"/>
     <use style="fill:#ff0000;stroke:#ff0000;" x="412.540879" xlink:href="#m9f405195d5" y="214.376232"/>
     <use style="fill:#ff0000;stroke:#ff0000;" x="412.708226" xlink:href="#m9f405195d5" y="214.160798"/>
    </g>
   </g>
   <g id="matplotlib.axis_1">
    <g id="xtick_1">
     <g id="line2d_1">
      <path clip-path="url(#pe3e7697e1e)" d="M 159.010017 237.324063 
L 159.010017 19.884063 
" style="fill:none;stroke:#b0b0b0;stroke-linecap:square;stroke-width:0.8;"/>
     </g>
     <g id="line2d_2">
      <defs>
       <path d="M 0 0 
L 0 3.5 
" id="m600bee63fa" style="stroke:#000000;stroke-width:0.8;"/>
      </defs>
      <g>
       <use style="stroke:#000000;stroke-width:0.8;" x="159.010017" xlink:href="#m600bee63fa" y="237.324063"/>
      </g>
     </g>
     <g id="text_1">
      <!-- 0 -->
      <defs>
       <path d="M 4.15625 35.296875 
Q 4.15625 48 6.765625 55.734375 
Q 9.375 63.484375 14.515625 67.671875 
Q 19.671875 71.875 27.484375 71.875 
Q 33.25 71.875 37.59375 69.546875 
Q 41.9375 67.234375 44.765625 62.859375 
Q 47.609375 58.5 49.21875 52.21875 
Q 50.828125 45.953125 50.828125 35.296875 
Q 50.828125 22.703125 48.234375 14.96875 
Q 45.65625 7.234375 40.5 3 
Q 35.359375 -1.21875 27.484375 -1.21875 
Q 17.140625 -1.21875 11.234375 6.203125 
Q 4.15625 15.140625 4.15625 35.296875 
z
M 13.1875 35.296875 
Q 13.1875 17.671875 17.3125 11.828125 
Q 21.4375 6 27.484375 6 
Q 33.546875 6 37.671875 11.859375 
Q 41.796875 17.71875 41.796875 35.296875 
Q 41.796875 52.984375 37.671875 58.78125 
Q 33.546875 64.59375 27.390625 64.59375 
Q 21.34375 64.59375 17.71875 59.46875 
Q 13.1875 52.9375 13.1875 35.296875 
z
" id="ArialMT-48"/>
      </defs>
      <g transform="translate(151.224704 264.365938)scale(0.28 -0.28)">
       <use xlink:href="#ArialMT-48"/>
      </g>
     </g>
    </g>
    <g id="xtick_2">
     <g id="line2d_3">
      <path clip-path="url(#pe3e7697e1e)" d="M 410.030672 237.324063 
L 410.030672 19.884063 
" style="fill:none;stroke:#b0b0b0;stroke-linecap:square;stroke-width:0.8;"/>
     </g>
     <g id="line2d_4">
      <g>
       <use style="stroke:#000000;stroke-width:0.8;" x="410.030672" xlink:href="#m600bee63fa" y="237.324063"/>
      </g>
     </g>
     <g id="text_2">
      <!-- 15 -->
      <defs>
       <path d="M 37.25 0 
L 28.46875 0 
L 28.46875 56 
Q 25.296875 52.984375 20.140625 49.953125 
Q 14.984375 46.921875 10.890625 45.40625 
L 10.890625 53.90625 
Q 18.265625 57.375 23.78125 62.296875 
Q 29.296875 67.234375 31.59375 71.875 
L 37.25 71.875 
z
" id="ArialMT-49"/>
       <path d="M 4.15625 18.75 
L 13.375 19.53125 
Q 14.40625 12.796875 18.140625 9.390625 
Q 21.875 6 27.15625 6 
Q 33.5 6 37.890625 10.78125 
Q 42.28125 15.578125 42.28125 23.484375 
Q 42.28125 31 38.0625 35.34375 
Q 33.84375 39.703125 27 39.703125 
Q 22.75 39.703125 19.328125 37.765625 
Q 15.921875 35.84375 13.96875 32.765625 
L 5.71875 33.84375 
L 12.640625 70.609375 
L 48.25 70.609375 
L 48.25 62.203125 
L 19.671875 62.203125 
L 15.828125 42.96875 
Q 22.265625 47.46875 29.34375 47.46875 
Q 38.71875 47.46875 45.15625 40.96875 
Q 51.609375 34.46875 51.609375 24.265625 
Q 51.609375 14.546875 45.953125 7.46875 
Q 39.0625 -1.21875 27.15625 -1.21875 
Q 17.390625 -1.21875 11.203125 4.25 
Q 5.03125 9.71875 4.15625 18.75 
z
" id="ArialMT-53"/>
      </defs>
      <g transform="translate(394.460047 264.365938)scale(0.28 -0.28)">
       <use xlink:href="#ArialMT-49"/>
       <use x="55.615234" xlink:href="#ArialMT-53"/>
      </g>
     </g>
    </g>
    <g id="xtick_3">
     <g id="line2d_5">
      <path clip-path="url(#pe3e7697e1e)" d="M 661.051328 237.324063 
L 661.051328 19.884063 
" style="fill:none;stroke:#b0b0b0;stroke-linecap:square;stroke-width:0.8;"/>
     </g>
     <g id="line2d_6">
      <g>
       <use style="stroke:#000000;stroke-width:0.8;" x="661.051328" xlink:href="#m600bee63fa" y="237.324063"/>
      </g>
     </g>
     <g id="text_3">
      <!-- 30 -->
      <defs>
       <path d="M 4.203125 18.890625 
L 12.984375 20.0625 
Q 14.5 12.59375 18.140625 9.296875 
Q 21.78125 6 27 6 
Q 33.203125 6 37.46875 10.296875 
Q 41.75 14.59375 41.75 20.953125 
Q 41.75 27 37.796875 30.921875 
Q 33.84375 34.859375 27.734375 34.859375 
Q 25.25 34.859375 21.53125 33.890625 
L 22.515625 41.609375 
Q 23.390625 41.5 23.921875 41.5 
Q 29.546875 41.5 34.03125 44.421875 
Q 38.53125 47.359375 38.53125 53.46875 
Q 38.53125 58.296875 35.25 61.46875 
Q 31.984375 64.65625 26.8125 64.65625 
Q 21.6875 64.65625 18.265625 61.421875 
Q 14.84375 58.203125 13.875 51.765625 
L 5.078125 53.328125 
Q 6.6875 62.15625 12.390625 67.015625 
Q 18.109375 71.875 26.609375 71.875 
Q 32.46875 71.875 37.390625 69.359375 
Q 42.328125 66.84375 44.9375 62.5 
Q 47.5625 58.15625 47.5625 53.265625 
Q 47.5625 48.640625 45.0625 44.828125 
Q 42.578125 41.015625 37.703125 38.765625 
Q 44.046875 37.3125 47.5625 32.6875 
Q 51.078125 28.078125 51.078125 21.140625 
Q 51.078125 11.765625 44.234375 5.25 
Q 37.40625 -1.265625 26.953125 -1.265625 
Q 17.53125 -1.265625 11.296875 4.34375 
Q 5.078125 9.96875 4.203125 18.890625 
z
" id="ArialMT-51"/>
      </defs>
      <g transform="translate(645.480703 264.365938)scale(0.28 -0.28)">
       <use xlink:href="#ArialMT-51"/>
       <use x="55.615234" xlink:href="#ArialMT-48"/>
      </g>
     </g>
    </g>
    <g id="xtick_4">
     <g id="line2d_7">
      <path clip-path="url(#pe3e7697e1e)" d="M 912.071983 237.324063 
L 912.071983 19.884063 
" style="fill:none;stroke:#b0b0b0;stroke-linecap:square;stroke-width:0.8;"/>
     </g>
     <g id="line2d_8">
      <g>
       <use style="stroke:#000000;stroke-width:0.8;" x="912.071983" xlink:href="#m600bee63fa" y="237.324063"/>
      </g>
     </g>
     <g id="text_4">
      <!-- 45 -->
      <defs>
       <path d="M 32.328125 0 
L 32.328125 17.140625 
L 1.265625 17.140625 
L 1.265625 25.203125 
L 33.9375 71.578125 
L 41.109375 71.578125 
L 41.109375 25.203125 
L 50.78125 25.203125 
L 50.78125 17.140625 
L 41.109375 17.140625 
L 41.109375 0 
z
M 32.328125 25.203125 
L 32.328125 57.46875 
L 9.90625 25.203125 
z
" id="ArialMT-52"/>
      </defs>
      <g transform="translate(896.501358 264.365938)scale(0.28 -0.28)">
       <use xlink:href="#ArialMT-52"/>
       <use x="55.615234" xlink:href="#ArialMT-53"/>
      </g>
     </g>
    </g>
    <g id="text_5">
     <!-- time (s) -->
     <defs>
      <path d="M 25.78125 7.859375 
L 27.046875 0.09375 
Q 23.34375 -0.6875 20.40625 -0.6875 
Q 15.625 -0.6875 12.984375 0.828125 
Q 10.359375 2.34375 9.28125 4.8125 
Q 8.203125 7.28125 8.203125 15.1875 
L 8.203125 45.015625 
L 1.765625 45.015625 
L 1.765625 51.859375 
L 8.203125 51.859375 
L 8.203125 64.703125 
L 16.9375 69.96875 
L 16.9375 51.859375 
L 25.78125 51.859375 
L 25.78125 45.015625 
L 16.9375 45.015625 
L 16.9375 14.703125 
Q 16.9375 10.9375 17.40625 9.859375 
Q 17.875 8.796875 18.921875 8.15625 
Q 19.96875 7.515625 21.921875 7.515625 
Q 23.390625 7.515625 25.78125 7.859375 
z
" id="ArialMT-116"/>
      <path d="M 6.640625 61.46875 
L 6.640625 71.578125 
L 15.4375 71.578125 
L 15.4375 61.46875 
z
M 6.640625 0 
L 6.640625 51.859375 
L 15.4375 51.859375 
L 15.4375 0 
z
" id="ArialMT-105"/>
      <path d="M 6.59375 0 
L 6.59375 51.859375 
L 14.453125 51.859375 
L 14.453125 44.578125 
Q 16.890625 48.390625 20.9375 50.703125 
Q 25 53.03125 30.171875 53.03125 
Q 35.9375 53.03125 39.625 50.640625 
Q 43.3125 48.25 44.828125 43.953125 
Q 50.984375 53.03125 60.84375 53.03125 
Q 68.5625 53.03125 72.703125 48.75 
Q 76.859375 44.484375 76.859375 35.59375 
L 76.859375 0 
L 68.109375 0 
L 68.109375 32.671875 
Q 68.109375 37.9375 67.25 40.25 
Q 66.40625 42.578125 64.15625 43.984375 
Q 61.921875 45.40625 58.890625 45.40625 
Q 53.421875 45.40625 49.796875 41.765625 
Q 46.1875 38.140625 46.1875 30.125 
L 46.1875 0 
L 37.40625 0 
L 37.40625 33.6875 
Q 37.40625 39.546875 35.25 42.46875 
Q 33.109375 45.40625 28.21875 45.40625 
Q 24.515625 45.40625 21.359375 43.453125 
Q 18.21875 41.5 16.796875 37.734375 
Q 15.375 33.984375 15.375 26.90625 
L 15.375 0 
z
" id="ArialMT-109"/>
      <path d="M 42.09375 16.703125 
L 51.171875 15.578125 
Q 49.03125 7.625 43.21875 3.21875 
Q 37.40625 -1.171875 28.375 -1.171875 
Q 17 -1.171875 10.328125 5.828125 
Q 3.65625 12.84375 3.65625 25.484375 
Q 3.65625 38.578125 10.390625 45.796875 
Q 17.140625 53.03125 27.875 53.03125 
Q 38.28125 53.03125 44.875 45.953125 
Q 51.46875 38.875 51.46875 26.03125 
Q 51.46875 25.25 51.421875 23.6875 
L 12.75 23.6875 
Q 13.234375 15.140625 17.578125 10.59375 
Q 21.921875 6.0625 28.421875 6.0625 
Q 33.25 6.0625 36.671875 8.59375 
Q 40.09375 11.140625 42.09375 16.703125 
z
M 13.234375 30.90625 
L 42.1875 30.90625 
Q 41.609375 37.453125 38.875 40.71875 
Q 34.671875 45.796875 27.984375 45.796875 
Q 21.921875 45.796875 17.796875 41.75 
Q 13.671875 37.703125 13.234375 30.90625 
z
" id="ArialMT-101"/>
      <path id="ArialMT-32"/>
      <path d="M 23.390625 -21.046875 
Q 16.109375 -11.859375 11.078125 0.4375 
Q 6.0625 12.75 6.0625 25.921875 
Q 6.0625 37.546875 9.8125 48.1875 
Q 14.203125 60.546875 23.390625 72.796875 
L 29.6875 72.796875 
Q 23.78125 62.640625 21.875 58.296875 
Q 18.890625 51.5625 17.1875 44.234375 
Q 15.09375 35.109375 15.09375 25.875 
Q 15.09375 2.390625 29.6875 -21.046875 
z
" id="ArialMT-40"/>
      <path d="M 3.078125 15.484375 
L 11.765625 16.84375 
Q 12.5 11.625 15.84375 8.84375 
Q 19.1875 6.0625 25.203125 6.0625 
Q 31.25 6.0625 34.171875 8.515625 
Q 37.109375 10.984375 37.109375 14.3125 
Q 37.109375 17.28125 34.515625 19 
Q 32.71875 20.171875 25.53125 21.96875 
Q 15.875 24.421875 12.140625 26.203125 
Q 8.40625 27.984375 6.46875 31.125 
Q 4.546875 34.28125 4.546875 38.09375 
Q 4.546875 41.546875 6.125 44.5 
Q 7.71875 47.46875 10.453125 49.421875 
Q 12.5 50.921875 16.03125 51.96875 
Q 19.578125 53.03125 23.640625 53.03125 
Q 29.734375 53.03125 34.34375 51.265625 
Q 38.96875 49.515625 41.15625 46.5 
Q 43.359375 43.5 44.1875 38.484375 
L 35.59375 37.3125 
Q 35.015625 41.3125 32.203125 43.546875 
Q 29.390625 45.796875 24.265625 45.796875 
Q 18.21875 45.796875 15.625 43.796875 
Q 13.03125 41.796875 13.03125 39.109375 
Q 13.03125 37.40625 14.109375 36.03125 
Q 15.1875 34.625 17.484375 33.6875 
Q 18.796875 33.203125 25.25 31.453125 
Q 34.578125 28.953125 38.25 27.359375 
Q 41.9375 25.78125 44.03125 22.75 
Q 46.140625 19.734375 46.140625 15.234375 
Q 46.140625 10.84375 43.578125 6.953125 
Q 41.015625 3.078125 36.171875 0.953125 
Q 31.34375 -1.171875 25.25 -1.171875 
Q 15.140625 -1.171875 9.84375 3.03125 
Q 4.546875 7.234375 3.078125 15.484375 
z
" id="ArialMT-115"/>
      <path d="M 12.359375 -21.046875 
L 6.0625 -21.046875 
Q 20.65625 2.390625 20.65625 25.875 
Q 20.65625 35.0625 18.5625 44.09375 
Q 16.890625 51.421875 13.921875 58.15625 
Q 12.015625 62.546875 6.0625 72.796875 
L 12.359375 72.796875 
Q 21.53125 60.546875 25.921875 48.1875 
Q 29.6875 37.546875 29.6875 25.921875 
Q 29.6875 12.75 24.625 0.4375 
Q 19.578125 -11.859375 12.359375 -21.046875 
z
" id="ArialMT-41"/>
     </defs>
     <g transform="translate(488.881625 294.314063)scale(0.28 -0.28)">
      <use xlink:href="#ArialMT-116"/>
      <use x="27.783203" xlink:href="#ArialMT-105"/>
      <use x="50" xlink:href="#ArialMT-109"/>
      <use x="133.300781" xlink:href="#ArialMT-101"/>
      <use x="188.916016" xlink:href="#ArialMT-32"/>
      <use x="216.699219" xlink:href="#ArialMT-40"/>
      <use x="250" xlink:href="#ArialMT-115"/>
      <use x="300" xlink:href="#ArialMT-41"/>
     </g>
    </g>
   </g>
   <g id="matplotlib.axis_2">
    <g id="ytick_1">
     <g id="line2d_9">
      <path clip-path="url(#pe3e7697e1e)" d="M 121.541 227.44044 
L 949.541 227.44044 
" style="fill:none;stroke:#b0b0b0;stroke-linecap:square;stroke-width:0.8;"/>
     </g>
     <g id="line2d_10">
      <defs>
       <path d="M 0 0 
L -3.5 0 
" id="mc43f8107d3" style="stroke:#000000;stroke-width:0.8;"/>
      </defs>
      <g>
       <use style="stroke:#000000;stroke-width:0.8;" x="121.541" xlink:href="#mc43f8107d3" y="227.44044"/>
      </g>
     </g>
     <g id="text_6">
      <!-- 0 -->
      <g transform="translate(98.970375 237.461378)scale(0.28 -0.28)">
       <use xlink:href="#ArialMT-48"/>
      </g>
     </g>
    </g>
    <g id="ytick_2">
     <g id="line2d_11">
      <path clip-path="url(#pe3e7697e1e)" d="M 121.541 117.175693 
L 949.541 117.175693 
" style="fill:none;stroke:#b0b0b0;stroke-linecap:square;stroke-width:0.8;"/>
     </g>
     <g id="line2d_12">
      <g>
       <use style="stroke:#000000;stroke-width:0.8;" x="121.541" xlink:href="#mc43f8107d3" y="117.175693"/>
      </g>
     </g>
     <g id="text_7">
      <!-- 200 -->
      <defs>
       <path d="M 50.34375 8.453125 
L 50.34375 0 
L 3.03125 0 
Q 2.9375 3.171875 4.046875 6.109375 
Q 5.859375 10.9375 9.828125 15.625 
Q 13.8125 20.3125 21.34375 26.46875 
Q 33.015625 36.03125 37.109375 41.625 
Q 41.21875 47.21875 41.21875 52.203125 
Q 41.21875 57.421875 37.46875 61 
Q 33.734375 64.59375 27.734375 64.59375 
Q 21.390625 64.59375 17.578125 60.78125 
Q 13.765625 56.984375 13.71875 50.25 
L 4.6875 51.171875 
Q 5.609375 61.28125 11.65625 66.578125 
Q 17.71875 71.875 27.9375 71.875 
Q 38.234375 71.875 44.234375 66.15625 
Q 50.25 60.453125 50.25 52 
Q 50.25 47.703125 48.484375 43.546875 
Q 46.734375 39.40625 42.65625 34.8125 
Q 38.578125 30.21875 29.109375 22.21875 
Q 21.1875 15.578125 18.9375 13.203125 
Q 16.703125 10.84375 15.234375 8.453125 
z
" id="ArialMT-50"/>
      </defs>
      <g transform="translate(67.829125 127.19663)scale(0.28 -0.28)">
       <use xlink:href="#ArialMT-50"/>
       <use x="55.615234" xlink:href="#ArialMT-48"/>
       <use x="111.230469" xlink:href="#ArialMT-48"/>
      </g>
     </g>
    </g>
    <g id="text_8">
     <!-- Change point score -->
     <defs>
      <path d="M 58.796875 25.09375 
L 68.265625 22.703125 
Q 65.28125 11.03125 57.546875 4.90625 
Q 49.8125 -1.21875 38.625 -1.21875 
Q 27.046875 -1.21875 19.796875 3.484375 
Q 12.546875 8.203125 8.765625 17.140625 
Q 4.984375 26.078125 4.984375 36.328125 
Q 4.984375 47.515625 9.25 55.828125 
Q 13.53125 64.15625 21.40625 68.46875 
Q 29.296875 72.796875 38.765625 72.796875 
Q 49.515625 72.796875 56.828125 67.328125 
Q 64.15625 61.859375 67.046875 51.953125 
L 57.71875 49.75 
Q 55.21875 57.5625 50.484375 61.125 
Q 45.75 64.703125 38.578125 64.703125 
Q 30.328125 64.703125 24.78125 60.734375 
Q 19.234375 56.78125 16.984375 50.109375 
Q 14.75 43.453125 14.75 36.375 
Q 14.75 27.25 17.40625 20.4375 
Q 20.0625 13.625 25.671875 10.25 
Q 31.296875 6.890625 37.84375 6.890625 
Q 45.796875 6.890625 51.3125 11.46875 
Q 56.84375 16.0625 58.796875 25.09375 
z
" id="ArialMT-67"/>
      <path d="M 6.59375 0 
L 6.59375 71.578125 
L 15.375 71.578125 
L 15.375 45.90625 
Q 21.53125 53.03125 30.90625 53.03125 
Q 36.671875 53.03125 40.921875 50.75 
Q 45.171875 48.484375 47 44.484375 
Q 48.828125 40.484375 48.828125 32.859375 
L 48.828125 0 
L 40.046875 0 
L 40.046875 32.859375 
Q 40.046875 39.453125 37.1875 42.453125 
Q 34.328125 45.453125 29.109375 45.453125 
Q 25.203125 45.453125 21.75 43.421875 
Q 18.3125 41.40625 16.84375 37.9375 
Q 15.375 34.46875 15.375 28.375 
L 15.375 0 
z
" id="ArialMT-104"/>
      <path d="M 40.4375 6.390625 
Q 35.546875 2.25 31.03125 0.53125 
Q 26.515625 -1.171875 21.34375 -1.171875 
Q 12.796875 -1.171875 8.203125 3 
Q 3.609375 7.171875 3.609375 13.671875 
Q 3.609375 17.484375 5.34375 20.625 
Q 7.078125 23.78125 9.890625 25.6875 
Q 12.703125 27.59375 16.21875 28.5625 
Q 18.796875 29.25 24.03125 29.890625 
Q 34.671875 31.15625 39.703125 32.90625 
Q 39.75 34.71875 39.75 35.203125 
Q 39.75 40.578125 37.25 42.78125 
Q 33.890625 45.75 27.25 45.75 
Q 21.046875 45.75 18.09375 43.578125 
Q 15.140625 41.40625 13.71875 35.890625 
L 5.125 37.0625 
Q 6.296875 42.578125 8.984375 45.96875 
Q 11.671875 49.359375 16.75 51.1875 
Q 21.828125 53.03125 28.515625 53.03125 
Q 35.15625 53.03125 39.296875 51.46875 
Q 43.453125 49.90625 45.40625 47.53125 
Q 47.359375 45.171875 48.140625 41.546875 
Q 48.578125 39.3125 48.578125 33.453125 
L 48.578125 21.734375 
Q 48.578125 9.46875 49.140625 6.21875 
Q 49.703125 2.984375 51.375 0 
L 42.1875 0 
Q 40.828125 2.734375 40.4375 6.390625 
z
M 39.703125 26.03125 
Q 34.90625 24.078125 25.34375 22.703125 
Q 19.921875 21.921875 17.671875 20.9375 
Q 15.4375 19.96875 14.203125 18.09375 
Q 12.984375 16.21875 12.984375 13.921875 
Q 12.984375 10.40625 15.640625 8.0625 
Q 18.3125 5.71875 23.4375 5.71875 
Q 28.515625 5.71875 32.46875 7.9375 
Q 36.421875 10.15625 38.28125 14.015625 
Q 39.703125 17 39.703125 22.796875 
z
" id="ArialMT-97"/>
      <path d="M 6.59375 0 
L 6.59375 51.859375 
L 14.5 51.859375 
L 14.5 44.484375 
Q 20.21875 53.03125 31 53.03125 
Q 35.6875 53.03125 39.625 51.34375 
Q 43.5625 49.65625 45.515625 46.921875 
Q 47.46875 44.1875 48.25 40.4375 
Q 48.734375 37.984375 48.734375 31.890625 
L 48.734375 0 
L 39.9375 0 
L 39.9375 31.546875 
Q 39.9375 36.921875 38.90625 39.578125 
Q 37.890625 42.234375 35.28125 43.8125 
Q 32.671875 45.40625 29.15625 45.40625 
Q 23.53125 45.40625 19.453125 41.84375 
Q 15.375 38.28125 15.375 28.328125 
L 15.375 0 
z
" id="ArialMT-110"/>
      <path d="M 4.984375 -4.296875 
L 13.53125 -5.5625 
Q 14.0625 -9.515625 16.5 -11.328125 
Q 19.78125 -13.765625 25.4375 -13.765625 
Q 31.546875 -13.765625 34.859375 -11.328125 
Q 38.1875 -8.890625 39.359375 -4.5 
Q 40.046875 -1.8125 39.984375 6.78125 
Q 34.234375 0 25.640625 0 
Q 14.9375 0 9.078125 7.71875 
Q 3.21875 15.4375 3.21875 26.21875 
Q 3.21875 33.640625 5.90625 39.90625 
Q 8.59375 46.1875 13.6875 49.609375 
Q 18.796875 53.03125 25.6875 53.03125 
Q 34.859375 53.03125 40.828125 45.609375 
L 40.828125 51.859375 
L 48.921875 51.859375 
L 48.921875 7.03125 
Q 48.921875 -5.078125 46.453125 -10.125 
Q 44 -15.1875 38.640625 -18.109375 
Q 33.296875 -21.046875 25.484375 -21.046875 
Q 16.21875 -21.046875 10.5 -16.875 
Q 4.78125 -12.703125 4.984375 -4.296875 
z
M 12.25 26.859375 
Q 12.25 16.65625 16.296875 11.96875 
Q 20.359375 7.28125 26.46875 7.28125 
Q 32.515625 7.28125 36.609375 11.9375 
Q 40.71875 16.609375 40.71875 26.5625 
Q 40.71875 36.078125 36.5 40.90625 
Q 32.28125 45.75 26.3125 45.75 
Q 20.453125 45.75 16.34375 40.984375 
Q 12.25 36.234375 12.25 26.859375 
z
" id="ArialMT-103"/>
      <path d="M 6.59375 -19.875 
L 6.59375 51.859375 
L 14.59375 51.859375 
L 14.59375 45.125 
Q 17.4375 49.078125 21 51.046875 
Q 24.5625 53.03125 29.640625 53.03125 
Q 36.28125 53.03125 41.359375 49.609375 
Q 46.4375 46.1875 49.015625 39.953125 
Q 51.609375 33.734375 51.609375 26.3125 
Q 51.609375 18.359375 48.75 11.984375 
Q 45.90625 5.609375 40.453125 2.21875 
Q 35.015625 -1.171875 29 -1.171875 
Q 24.609375 -1.171875 21.109375 0.6875 
Q 17.625 2.546875 15.375 5.375 
L 15.375 -19.875 
z
M 14.546875 25.640625 
Q 14.546875 15.625 18.59375 10.84375 
Q 22.65625 6.0625 28.421875 6.0625 
Q 34.28125 6.0625 38.453125 11.015625 
Q 42.625 15.96875 42.625 26.375 
Q 42.625 36.28125 38.546875 41.203125 
Q 34.46875 46.140625 28.8125 46.140625 
Q 23.1875 46.140625 18.859375 40.890625 
Q 14.546875 35.640625 14.546875 25.640625 
z
" id="ArialMT-112"/>
      <path d="M 3.328125 25.921875 
Q 3.328125 40.328125 11.328125 47.265625 
Q 18.015625 53.03125 27.640625 53.03125 
Q 38.328125 53.03125 45.109375 46.015625 
Q 51.90625 39.015625 51.90625 26.65625 
Q 51.90625 16.65625 48.90625 10.90625 
Q 45.90625 5.171875 40.15625 2 
Q 34.421875 -1.171875 27.640625 -1.171875 
Q 16.75 -1.171875 10.03125 5.8125 
Q 3.328125 12.796875 3.328125 25.921875 
z
M 12.359375 25.921875 
Q 12.359375 15.96875 16.703125 11.015625 
Q 21.046875 6.0625 27.640625 6.0625 
Q 34.1875 6.0625 38.53125 11.03125 
Q 42.875 16.015625 42.875 26.21875 
Q 42.875 35.84375 38.5 40.796875 
Q 34.125 45.75 27.640625 45.75 
Q 21.046875 45.75 16.703125 40.8125 
Q 12.359375 35.890625 12.359375 25.921875 
z
" id="ArialMT-111"/>
      <path d="M 40.4375 19 
L 49.078125 17.875 
Q 47.65625 8.9375 41.8125 3.875 
Q 35.984375 -1.171875 27.484375 -1.171875 
Q 16.84375 -1.171875 10.375 5.78125 
Q 3.90625 12.75 3.90625 25.734375 
Q 3.90625 34.125 6.6875 40.421875 
Q 9.46875 46.734375 15.15625 49.875 
Q 20.84375 53.03125 27.546875 53.03125 
Q 35.984375 53.03125 41.359375 48.75 
Q 46.734375 44.484375 48.25 36.625 
L 39.703125 35.296875 
Q 38.484375 40.53125 35.375 43.15625 
Q 32.28125 45.796875 27.875 45.796875 
Q 21.234375 45.796875 17.078125 41.03125 
Q 12.9375 36.28125 12.9375 25.984375 
Q 12.9375 15.53125 16.9375 10.796875 
Q 20.953125 6.0625 27.390625 6.0625 
Q 32.5625 6.0625 36.03125 9.234375 
Q 39.5 12.40625 40.4375 19 
z
" id="ArialMT-99"/>
      <path d="M 6.5 0 
L 6.5 51.859375 
L 14.40625 51.859375 
L 14.40625 44 
Q 17.4375 49.515625 20 51.265625 
Q 22.5625 53.03125 25.640625 53.03125 
Q 30.078125 53.03125 34.671875 50.203125 
L 31.640625 42.046875 
Q 28.421875 43.953125 25.203125 43.953125 
Q 22.3125 43.953125 20.015625 42.21875 
Q 17.71875 40.484375 16.75 37.40625 
Q 15.28125 32.71875 15.28125 27.15625 
L 15.28125 0 
z
" id="ArialMT-114"/>
     </defs>
     <g transform="translate(27.583125 250.008125)rotate(-90)scale(0.28 -0.28)">
      <use xlink:href="#ArialMT-67"/>
      <use x="72.216797" xlink:href="#ArialMT-104"/>
      <use x="127.832031" xlink:href="#ArialMT-97"/>
      <use x="183.447266" xlink:href="#ArialMT-110"/>
      <use x="239.0625" xlink:href="#ArialMT-103"/>
      <use x="294.677734" xlink:href="#ArialMT-101"/>
      <use x="350.292969" xlink:href="#ArialMT-32"/>
      <use x="378.076172" xlink:href="#ArialMT-112"/>
      <use x="433.691406" xlink:href="#ArialMT-111"/>
      <use x="489.306641" xlink:href="#ArialMT-105"/>
      <use x="511.523438" xlink:href="#ArialMT-110"/>
      <use x="567.138672" xlink:href="#ArialMT-116"/>
      <use x="594.921875" xlink:href="#ArialMT-32"/>
      <use x="622.705078" xlink:href="#ArialMT-115"/>
      <use x="672.705078" xlink:href="#ArialMT-99"/>
      <use x="722.705078" xlink:href="#ArialMT-111"/>
      <use x="778.320312" xlink:href="#ArialMT-114"/>
      <use x="811.621094" xlink:href="#ArialMT-101"/>
     </g>
     <!-- (KL div.) -->
     <defs>
      <path d="M 7.328125 0 
L 7.328125 71.578125 
L 16.796875 71.578125 
L 16.796875 36.078125 
L 52.34375 71.578125 
L 65.1875 71.578125 
L 35.15625 42.578125 
L 66.5 0 
L 54 0 
L 28.515625 36.234375 
L 16.796875 24.8125 
L 16.796875 0 
z
" id="ArialMT-75"/>
      <path d="M 7.328125 0 
L 7.328125 71.578125 
L 16.796875 71.578125 
L 16.796875 8.453125 
L 52.046875 8.453125 
L 52.046875 0 
z
" id="ArialMT-76"/>
      <path d="M 40.234375 0 
L 40.234375 6.546875 
Q 35.296875 -1.171875 25.734375 -1.171875 
Q 19.53125 -1.171875 14.328125 2.25 
Q 9.125 5.671875 6.265625 11.796875 
Q 3.421875 17.921875 3.421875 25.875 
Q 3.421875 33.640625 6 39.96875 
Q 8.59375 46.296875 13.765625 49.65625 
Q 18.953125 53.03125 25.34375 53.03125 
Q 30.03125 53.03125 33.6875 51.046875 
Q 37.359375 49.078125 39.65625 45.90625 
L 39.65625 71.578125 
L 48.390625 71.578125 
L 48.390625 0 
z
M 12.453125 25.875 
Q 12.453125 15.921875 16.640625 10.984375 
Q 20.84375 6.0625 26.5625 6.0625 
Q 32.328125 6.0625 36.34375 10.765625 
Q 40.375 15.484375 40.375 25.140625 
Q 40.375 35.796875 36.265625 40.765625 
Q 32.171875 45.75 26.171875 45.75 
Q 20.3125 45.75 16.375 40.96875 
Q 12.453125 36.1875 12.453125 25.875 
z
" id="ArialMT-100"/>
      <path d="M 21 0 
L 1.265625 51.859375 
L 10.546875 51.859375 
L 21.6875 20.796875 
Q 23.484375 15.765625 25 10.359375 
Q 26.171875 14.453125 28.265625 20.21875 
L 39.796875 51.859375 
L 48.828125 51.859375 
L 29.203125 0 
z
" id="ArialMT-118"/>
      <path d="M 9.078125 0 
L 9.078125 10.015625 
L 19.09375 10.015625 
L 19.09375 0 
z
" id="ArialMT-46"/>
     </defs>
     <g transform="translate(57.936 179.168125)rotate(-90)scale(0.28 -0.28)">
      <use xlink:href="#ArialMT-40"/>
      <use x="33.300781" xlink:href="#ArialMT-75"/>
      <use x="100" xlink:href="#ArialMT-76"/>
      <use x="151.865234" xlink:href="#ArialMT-32"/>
      <use x="179.648438" xlink:href="#ArialMT-100"/>
      <use x="235.263672" xlink:href="#ArialMT-105"/>
      <use x="257.480469" xlink:href="#ArialMT-118"/>
      <use x="300.105469" xlink:href="#ArialMT-46"/>
      <use x="327.888672" xlink:href="#ArialMT-41"/>
     </g>
    </g>
   </g>
   <g id="line2d_13">
    <path clip-path="url(#pe3e7697e1e)" d="M 159.177364 29.767699 
L 159.344711 225.441561 
L 159.512058 222.655501 
L 159.679405 223.997176 
L 159.846752 218.063291 
L 160.014099 217.618807 
L 160.348793 207.574634 
L 160.683488 219.517134 
L 160.850835 222.478868 
L 161.018182 223.388914 
L 161.185529 223.245616 
L 161.520223 225.829953 
L 161.68757 225.651823 
L 161.854917 226.911456 
L 162.022264 227.006109 
L 162.189612 226.808161 
L 162.524306 226.821499 
L 162.691653 226.990032 
L 163.026347 225.680672 
L 163.193694 226.889582 
L 163.361041 225.672889 
L 163.528388 227.10414 
L 163.695735 226.599787 
L 163.863083 226.958934 
L 164.03043 226.129006 
L 164.197777 226.952705 
L 164.365124 226.541242 
L 164.532471 226.907666 
L 164.699818 225.972967 
L 164.867165 227.245444 
L 165.369206 226.716037 
L 165.536554 226.139808 
L 165.703901 226.447905 
L 166.038595 225.335461 
L 166.373289 226.871849 
L 166.707983 226.726249 
L 166.87533 225.906714 
L 167.210025 225.957473 
L 167.377372 225.819725 
L 167.544719 226.715257 
L 167.712066 224.576908 
L 167.879413 226.307597 
L 168.04676 226.497139 
L 168.381454 225.152045 
L 168.548801 225.100175 
L 168.716149 223.898109 
L 168.883496 226.057989 
L 169.050843 225.873689 
L 169.21819 226.307884 
L 169.385537 225.446793 
L 169.552884 225.910334 
L 169.720231 225.846745 
L 169.887578 225.249655 
L 170.054925 226.802856 
L 170.222272 226.031069 
L 170.556967 227.160299 
L 170.724314 226.915898 
L 171.059008 226.937803 
L 171.393702 225.790076 
L 171.728396 226.2809 
L 171.895744 227.105241 
L 172.063091 226.698981 
L 172.397785 227.348632 
L 172.565132 227.0607 
L 172.732479 227.252346 
L 172.899826 226.812672 
L 173.067173 227.133691 
L 173.23452 226.444202 
L 173.401867 226.557243 
L 173.736562 227.108533 
L 173.903909 226.810357 
L 174.071256 226.986219 
L 174.238603 226.760576 
L 174.573297 227.190092 
L 174.740644 226.97544 
L 175.075338 227.317279 
L 175.242686 227.368409 
L 175.410033 227.241887 
L 175.57738 227.370667 
L 175.744727 227.282882 
L 175.912074 227.014396 
L 176.246768 227.38843 
L 176.414115 227.090133 
L 176.581462 227.038133 
L 176.916157 227.347052 
L 177.250851 227.117996 
L 177.418198 227.317979 
L 177.585545 227.139165 
L 177.752892 227.181406 
L 177.920239 226.834123 
L 178.254933 227.359202 
L 178.589628 227.335429 
L 178.756975 227.30793 
L 178.924322 227.405651 
L 179.091669 227.361124 
L 179.259016 227.057939 
L 179.426363 227.339857 
L 179.59371 227.213032 
L 179.761057 227.337531 
L 180.095752 226.938296 
L 180.430446 227.354345 
L 180.76514 227.405076 
L 180.932487 227.11222 
L 181.099834 227.353063 
L 181.434528 227.186081 
L 181.769223 227.295973 
L 181.93657 227.324617 
L 182.271264 227.097417 
L 182.605958 227.306738 
L 182.773305 227.247291 
L 182.940652 227.406031 
L 183.107999 227.291776 
L 183.610041 227.354331 
L 183.777388 227.216745 
L 183.944735 227.387862 
L 184.112082 227.332833 
L 184.279429 227.407111 
L 184.781471 227.372055 
L 185.283512 227.381878 
L 186.287594 227.339796 
L 186.454942 227.408805 
L 186.956983 227.359645 
L 187.459024 227.402859 
L 188.128413 227.385126 
L 188.797801 227.411304 
L 189.299842 227.375229 
L 189.467189 227.280611 
L 189.801884 227.385838 
L 190.471272 227.404553 
L 190.638619 227.174769 
L 190.805966 227.397255 
L 191.308008 227.434613 
L 192.144743 227.397533 
L 193.148826 227.400778 
L 193.818214 227.37765 
L 194.320255 227.419474 
L 194.989644 227.409841 
L 195.324338 227.413326 
L 195.993726 227.330042 
L 196.328421 227.40713 
L 197.332503 227.347793 
L 197.667198 227.424557 
L 198.67128 227.406199 
L 199.005974 227.403008 
L 199.84271 227.39459 
L 200.010057 227.219798 
L 200.177404 227.414656 
L 200.344751 227.302305 
L 200.846792 227.431032 
L 201.181487 227.426786 
L 204.695776 227.413657 
L 205.699858 227.430182 
L 207.540677 227.437556 
L 207.875371 227.420312 
L 208.712106 227.429294 
L 208.879453 227.34948 
L 209.548842 227.428786 
L 209.883536 227.416919 
L 212.728437 227.43603 
L 213.565172 227.385424 
L 214.067214 227.439805 
L 216.410073 227.392484 
L 216.744767 227.415388 
L 217.079462 227.410762 
L 217.74885 227.412358 
L 221.76518 227.39054 
L 222.099875 227.424857 
L 222.93661 227.426871 
L 228.961106 227.426564 
L 231.63866 227.406053 
L 232.642742 227.434511 
L 236.157031 227.419247 
L 237.328461 227.434525 
L 244.357039 227.435364 
L 244.859081 227.430947 
L 249.879494 227.43091 
L 253.226436 227.429935 
L 283.516262 227.438001 
L 284.687691 227.435966 
L 289.038716 227.431453 
L 292.218311 227.438298 
L 303.430567 227.43585 
L 311.630575 227.435491 
L 314.140782 227.439081 
L 338.573459 227.436863 
L 340.079583 227.433651 
L 346.438773 227.438177 
L 355.810211 227.435119 
L 362.504095 227.440256 
L 371.206144 227.436497 
L 387.438813 227.437736 
L 392.961268 227.439604 
L 409.863325 227.439073 
L 410.030672 214.631376 
L 410.365366 213.964737 
L 410.532713 214.223532 
L 410.700061 213.987368 
L 411.034755 214.280981 
L 411.202102 213.641555 
L 411.369449 213.485694 
L 411.536796 213.495332 
L 411.704143 213.682198 
L 411.87149 213.257433 
L 412.206185 214.09897 
L 412.540879 214.376232 
L 412.708226 214.160798 
L 412.875573 215.298229 
L 413.04292 215.119305 
L 413.712308 216.603792 
L 413.879656 216.281839 
L 414.21435 218.051114 
L 414.381697 218.184242 
L 414.549044 218.109614 
L 415.051085 220.019618 
L 415.385779 220.792068 
L 415.553127 221.548695 
L 415.720474 221.644949 
L 417.059251 224.220302 
L 417.728639 224.66249 
L 417.895986 224.577679 
L 418.063333 224.732193 
L 418.732722 224.311903 
L 418.900069 223.877788 
L 419.067416 223.853999 
L 419.40211 223.440449 
L 419.736804 222.719639 
L 419.904151 222.594193 
L 420.071498 222.141932 
L 420.238846 222.016482 
L 420.406193 221.569637 
L 420.740887 221.362771 
L 421.075581 220.802697 
L 421.410275 220.364365 
L 421.577622 220.423371 
L 421.912317 219.998404 
L 422.247011 219.927397 
L 422.414358 220.441871 
L 422.581705 219.85858 
L 423.41844 220.529442 
L 423.585788 220.914976 
L 423.753135 220.801849 
L 424.422523 221.715382 
L 424.58987 222.328547 
L 424.924564 222.293399 
L 425.091912 222.785391 
L 425.259259 222.800118 
L 425.426606 223.106404 
L 425.593953 223.164832 
L 425.928647 223.76202 
L 426.095994 224.108177 
L 426.263341 224.166609 
L 426.598035 224.487782 
L 427.602118 225.045477 
L 427.769465 225.288664 
L 428.104159 225.129742 
L 428.438854 225.312757 
L 428.773548 225.190538 
L 428.940895 225.373597 
L 429.108242 225.105417 
L 429.442936 225.376861 
L 429.610283 225.171044 
L 429.77763 225.321119 
L 431.451101 224.934199 
L 431.618449 224.996186 
L 431.785796 224.736224 
L 431.953143 224.916891 
L 432.789878 224.778402 
L 432.957225 224.707453 
L 433.29192 225.059213 
L 433.459267 224.889675 
L 433.626614 225.007833 
L 433.961308 224.827534 
L 434.128655 224.98526 
L 435.802126 224.991792 
L 435.969473 225.164024 
L 436.13682 225.007954 
L 436.304167 225.242957 
L 436.471515 224.970703 
L 436.638862 225.253524 
L 436.806209 225.013748 
L 437.977639 225.243426 
L 438.144986 225.012945 
L 438.312333 225.191742 
L 438.814374 224.913951 
L 438.981721 225.219559 
L 439.316415 225.003886 
L 439.65111 225.163249 
L 440.153151 225.146711 
L 440.487845 225.354262 
L 440.655192 225.23266 
L 441.324581 225.462062 
L 441.491928 225.331603 
L 441.826622 225.558319 
L 441.993969 225.368349 
L 442.161316 225.669143 
L 442.49601 225.360859 
L 442.663357 225.481903 
L 442.998052 225.520493 
L 443.500093 225.645944 
L 443.66744 225.473011 
L 443.834787 225.592597 
L 444.002134 225.495143 
L 444.336828 225.540397 
L 444.504176 225.427986 
L 444.83887 225.59018 
L 445.006217 225.265434 
L 445.173564 225.510862 
L 445.340911 225.264089 
L 445.508258 225.401974 
L 445.675605 225.290305 
L 445.842952 225.35997 
L 446.512341 225.163569 
L 446.679688 225.244487 
L 447.181729 225.117993 
L 447.516423 225.141026 
L 447.683771 225.011712 
L 447.851118 225.170461 
L 448.018465 224.935304 
L 448.185812 225.217596 
L 448.353159 225.021396 
L 448.520506 225.113886 
L 448.687853 224.966502 
L 448.8552 225.163448 
L 449.022547 225.12728 
L 449.189894 225.248944 
L 449.691936 225.178802 
L 450.02663 225.286922 
L 450.193977 225.148921 
L 450.528671 225.288377 
L 452.202142 225.764027 
L 452.369489 225.46728 
L 452.536837 225.69132 
L 452.704184 225.64064 
L 452.871531 225.722454 
L 453.206225 225.639962 
L 453.373572 225.763457 
L 453.875613 225.739038 
L 454.04296 225.730814 
L 454.210308 225.912915 
L 454.377655 225.911356 
L 454.545002 225.770901 
L 454.879696 225.97892 
L 455.047043 225.799938 
L 455.381737 225.921693 
L 455.883779 226.013994 
L 456.051126 225.897814 
L 456.218473 225.934616 
L 456.38582 225.84004 
L 456.887861 225.873904 
L 458.059291 225.797692 
L 458.226638 225.639647 
L 458.561332 225.569009 
L 459.063374 225.387051 
L 459.398068 225.46166 
L 459.565415 225.158261 
L 459.732762 225.092417 
L 459.900109 225.15381 
L 460.067456 224.865464 
L 460.40215 224.934933 
L 460.736845 224.644149 
L 460.904192 224.733495 
L 461.071539 224.540395 
L 461.238886 224.588577 
L 461.406233 224.475143 
L 461.57358 224.502668 
L 461.740927 224.21959 
L 461.908274 224.502964 
L 462.075621 224.266539 
L 462.242969 224.366604 
L 462.410316 224.269347 
L 462.577663 224.479536 
L 462.74501 224.170031 
L 463.247051 224.319061 
L 463.414398 224.167617 
L 464.585828 224.866706 
L 464.753175 224.746196 
L 465.087869 225.161939 
L 465.255216 224.930005 
L 465.422564 225.208929 
L 465.757258 225.351406 
L 465.924605 225.590916 
L 466.259299 225.591297 
L 466.76134 226.00061 
L 466.928687 225.940854 
L 467.096035 226.052844 
L 467.263382 225.977691 
L 467.430729 226.237872 
L 467.598076 226.092517 
L 467.765423 226.25196 
L 468.267464 226.067441 
L 468.602158 226.289456 
L 468.769506 226.206694 
L 468.936853 226.266846 
L 469.271547 226.194178 
L 470.108282 225.810648 
L 470.27563 225.919771 
L 472.451142 224.982348 
L 472.953183 224.978924 
L 473.287877 224.681923 
L 473.622572 224.731369 
L 473.789919 224.611619 
L 473.957266 224.78511 
L 474.124613 224.622407 
L 475.128696 224.548695 
L 475.296043 224.851689 
L 475.46339 224.61126 
L 475.630737 224.757784 
L 475.798084 224.64616 
L 476.132778 224.703414 
L 476.300125 224.60539 
L 476.634819 224.895715 
L 476.802167 224.880662 
L 477.136861 225.042459 
L 477.304208 225.064259 
L 477.471555 225.208081 
L 477.638902 225.146652 
L 477.806249 225.360255 
L 477.973596 225.235809 
L 478.140943 225.437589 
L 478.308291 225.305153 
L 478.642985 225.63033 
L 479.814414 225.967372 
L 479.981762 225.987369 
L 480.149109 226.13759 
L 480.483803 226.102656 
L 480.65115 226.244232 
L 480.818497 226.192464 
L 480.985844 226.389896 
L 481.487885 226.231027 
L 481.655233 226.387463 
L 481.82258 226.319193 
L 481.989927 226.398557 
L 482.491968 226.288728 
L 482.826662 226.290965 
L 483.161357 226.035949 
L 483.328704 226.193281 
L 483.663398 225.960493 
L 484.165439 225.683383 
L 484.332786 225.768855 
L 484.834828 225.345176 
L 485.002175 225.362107 
L 485.169522 225.185201 
L 485.336869 225.208672 
L 486.006257 224.719516 
L 486.173604 224.513735 
L 486.340951 224.575989 
L 486.842993 224.354347 
L 487.345034 224.173135 
L 487.512381 224.088869 
L 487.679728 224.317085 
L 487.847075 224.044176 
L 488.18177 224.272833 
L 488.516464 224.088817 
L 488.683811 224.317559 
L 488.851158 224.292422 
L 489.018505 224.103251 
L 489.353199 224.462585 
L 489.687894 224.88679 
L 489.855241 224.865448 
L 490.022588 225.064374 
L 490.189935 225.022538 
L 490.524629 225.322166 
L 490.691976 225.399054 
L 491.02667 225.660871 
L 491.194018 225.616474 
L 491.361365 225.747008 
L 491.528712 226.046224 
L 491.863406 226.064833 
L 493.36953 226.536423 
L 493.704224 226.523953 
L 493.871571 226.634987 
L 494.54096 226.365123 
L 495.712389 226.05916 
L 498.055249 225.053332 
L 498.724637 224.931661 
L 499.226678 224.777898 
L 499.394026 224.8007 
L 499.561373 224.652949 
L 499.72872 224.759887 
L 499.896067 224.62629 
L 500.732802 224.79195 
L 500.90015 224.583577 
L 501.234844 224.948117 
L 501.402191 224.721609 
L 501.904232 224.891333 
L 502.071579 224.911845 
L 502.238926 225.058276 
L 502.406273 225.053276 
L 502.573621 225.213235 
L 502.740968 225.145311 
L 503.075662 225.40356 
L 503.243009 225.404424 
L 503.410356 225.655176 
L 503.74505 225.609264 
L 504.414439 226.041052 
L 505.753216 226.343328 
L 506.422604 226.516646 
L 507.594034 226.533905 
L 507.761381 226.437628 
L 507.928728 226.477231 
L 508.598116 226.170363 
L 508.765463 226.190118 
L 509.100158 225.924686 
L 509.267505 225.966158 
L 509.602199 225.67831 
L 509.769546 225.631873 
L 510.10424 225.325729 
L 511.443017 224.551525 
L 511.777711 224.472418 
L 512.112405 224.12684 
L 512.279753 224.319612 
L 512.4471 224.213687 
L 512.949141 224.362107 
L 513.283835 224.242611 
L 513.785877 224.685887 
L 513.953224 224.581768 
L 514.287918 224.796594 
L 514.455265 224.996238 
L 514.622612 224.994144 
L 514.789959 225.213843 
L 515.124653 225.378703 
L 515.961389 226.1229 
L 517.63486 226.687038 
L 518.136901 226.644726 
L 519.643025 226.549111 
L 519.810372 226.30899 
L 519.977719 226.345744 
L 520.479761 226.029375 
L 520.647108 226.090775 
L 520.981802 225.879441 
L 521.149149 225.943289 
L 521.316496 225.737882 
L 521.483843 225.814691 
L 521.818537 225.472182 
L 522.487926 225.304893 
L 522.655273 225.083649 
L 522.989967 225.236306 
L 523.324661 224.993522 
L 523.659356 224.939503 
L 524.161397 224.858842 
L 524.328744 224.920818 
L 524.496091 224.758048 
L 524.830785 224.912329 
L 524.998132 224.695266 
L 525.16548 224.830405 
L 525.332827 224.627609 
L 525.500174 224.900924 
L 526.504256 225.017021 
L 527.173645 225.25618 
L 527.508339 225.208759 
L 528.01038 225.585442 
L 528.512422 225.682915 
L 528.679769 225.905679 
L 528.847116 225.8704 
L 529.683851 226.301134 
L 530.018546 226.367693 
L 530.35324 226.545572 
L 530.520587 226.417967 
L 530.855281 226.688093 
L 531.692017 226.633553 
L 531.859364 226.685953 
L 532.696099 226.421932 
L 532.863446 226.407999 
L 533.365488 225.9928 
L 533.532835 225.950738 
L 533.867529 225.74134 
L 534.536917 225.177699 
L 534.871612 225.10003 
L 535.708347 224.388753 
L 536.377736 224.293913 
L 536.545083 224.162816 
L 536.879777 224.290871 
L 537.047124 224.157394 
L 538.051207 224.634086 
L 538.218554 224.922221 
L 538.720595 225.058394 
L 540.394066 226.319388 
L 540.72876 226.333563 
L 541.063454 226.476937 
L 542.234884 226.730768 
L 542.736925 226.68174 
L 543.07162 226.57032 
L 543.573661 226.451141 
L 543.908355 226.396135 
L 544.075702 226.349084 
L 544.243049 226.180996 
L 544.577744 226.125431 
L 544.745091 225.976092 
L 545.079785 225.997799 
L 545.581826 225.605214 
L 545.749173 225.664025 
L 546.251215 225.273077 
L 546.418562 225.274228 
L 546.585909 225.094686 
L 546.753256 225.17018 
L 547.08795 224.973924 
L 547.255297 225.049047 
L 547.589991 224.853889 
L 547.757339 224.94906 
L 547.924686 224.701889 
L 548.25938 224.725376 
L 548.426727 224.620763 
L 548.761421 224.690233 
L 549.096115 224.580048 
L 549.598157 224.633772 
L 549.765504 224.45672 
L 549.932851 224.601871 
L 550.100198 224.56715 
L 550.267545 224.79307 
L 550.434892 224.744301 
L 550.936934 224.858097 
L 551.104281 224.808595 
L 551.271628 225.134221 
L 551.606322 225.043874 
L 551.773669 225.298898 
L 552.27571 225.399527 
L 552.777752 225.708977 
L 553.112446 225.853702 
L 553.44714 226.050461 
L 554.283876 226.502258 
L 554.451223 226.417276 
L 554.953264 226.588183 
L 555.455305 226.588964 
L 555.622652 226.646951 
L 556.124694 226.459707 
L 556.626735 226.256645 
L 557.128776 225.754149 
L 557.296123 225.676051 
L 557.630818 225.279991 
L 557.965512 225.002464 
L 558.467553 224.402196 
L 558.6349 224.446133 
L 558.969595 224.148241 
L 559.973677 223.524237 
L 560.308371 223.817534 
L 560.475718 223.689239 
L 561.145107 224.108934 
L 561.479801 224.177897 
L 562.483884 225.148363 
L 562.651231 225.074819 
L 563.153272 225.669654 
L 563.487966 225.827948 
L 563.655313 225.880919 
L 563.822661 226.144905 
L 564.157355 226.222878 
L 564.659396 226.523125 
L 564.826743 226.391598 
L 564.99409 226.48022 
L 565.161437 226.710348 
L 565.663479 226.526039 
L 565.830826 226.600593 
L 566.332867 226.446066 
L 567.002256 226.265849 
L 567.33695 226.164267 
L 568.006338 225.737616 
L 568.173685 225.528557 
L 568.508379 225.513816 
L 568.675727 225.338326 
L 569.010421 225.256398 
L 569.177768 225.16833 
L 569.345115 224.946192 
L 569.512462 225.054136 
L 570.014503 224.577367 
L 570.18185 224.757968 
L 570.349198 224.193306 
L 570.516545 224.342684 
L 571.35328 223.999463 
L 571.520627 224.14257 
L 571.855322 223.913874 
L 572.190016 223.754535 
L 572.357363 223.888018 
L 572.52471 223.703335 
L 572.692057 223.711938 
L 572.859404 223.858176 
L 573.194098 223.662051 
L 573.361445 223.885737 
L 573.69614 223.767284 
L 573.863487 223.916556 
L 574.030834 223.879612 
L 574.365528 223.960853 
L 574.532875 224.005849 
L 575.369611 224.722418 
L 575.536958 224.701476 
L 576.206346 225.305691 
L 576.373693 225.333269 
L 576.54104 225.610577 
L 576.875735 225.75624 
L 577.71247 226.447878 
L 578.047164 226.44696 
L 578.214511 226.502153 
L 578.381859 226.405917 
L 578.549206 226.514867 
L 579.218594 226.346506 
L 579.385941 226.203158 
L 579.553288 226.210517 
L 579.720635 225.921159 
L 579.887982 225.928652 
L 580.222677 225.518769 
L 581.226759 224.306755 
L 581.394106 224.43407 
L 581.728801 223.899247 
L 582.398189 223.520658 
L 582.732883 223.501861 
L 582.90023 223.387491 
L 583.067577 223.472679 
L 583.234925 223.367223 
L 583.904313 223.67675 
L 584.07166 223.596242 
L 584.239007 224.04527 
L 584.406354 224.023099 
L 585.410437 224.983982 
L 586.916561 226.275513 
L 587.251255 226.336446 
L 587.753296 226.591774 
L 588.087991 226.632375 
L 588.255338 226.751641 
L 588.590032 226.727826 
L 590.598197 226.417965 
L 590.932891 226.269727 
L 591.267586 226.226974 
L 591.434933 226.091741 
L 591.936974 226.13152 
L 592.271668 225.951469 
L 592.606362 225.902111 
L 592.941057 225.72191 
L 593.108404 225.74244 
L 593.275751 225.894291 
L 593.610445 225.63402 
L 593.945139 225.684849 
L 594.112486 225.611598 
L 594.949222 225.847619 
L 595.283916 225.737152 
L 595.785957 225.933475 
L 596.120652 225.986309 
L 596.287999 226.087099 
L 596.455346 226.031863 
L 596.79004 226.070751 
L 599.300247 226.522315 
L 599.467594 226.385007 
L 599.634941 226.50034 
L 599.802288 226.424037 
L 600.304329 226.530526 
L 600.471676 226.455931 
L 600.80637 226.569911 
L 601.141065 226.52264 
L 601.308412 226.505762 
L 601.475759 226.653349 
L 601.643106 226.483867 
L 603.14923 226.635899 
L 603.483924 226.597871 
L 603.651271 226.717181 
L 603.818618 226.508724 
L 603.985965 226.665681 
L 606.328825 226.653822 
L 606.663519 226.760814 
L 606.830866 226.665882 
L 607.16556 226.789067 
L 607.500255 226.731576 
L 607.834949 226.727998 
L 609.006379 226.835326 
L 609.173726 226.722826 
L 609.341073 226.835055 
L 609.675767 226.799685 
L 610.345155 226.844104 
L 617.03904 227.011981 
L 617.206387 226.912051 
L 617.541081 227.014505 
L 618.043122 226.937743 
L 620.385982 226.905085 
L 622.561494 226.891813 
L 623.063535 226.884896 
L 623.900271 226.908818 
L 626.745172 227.103748 
L 627.079866 227.146769 
L 627.41456 227.141898 
L 632.100279 227.098155 
L 633.104361 226.997202 
L 634.94518 226.973195 
L 635.112527 227.053856 
L 635.447221 227.032266 
L 636.116609 227.02968 
L 636.618651 227.003562 
L 638.124775 227.098515 
L 639.630899 227.129265 
L 640.13294 227.167392 
L 640.969675 227.164972 
L 642.308452 227.212484 
L 642.643146 227.131391 
L 645.3207 226.936101 
L 645.488047 227.038357 
L 646.324783 226.840891 
L 647.161518 226.807612 
L 647.328865 226.71256 
L 647.496212 226.806949 
L 647.830907 226.757019 
L 648.332948 226.802773 
L 649.002336 226.716676 
L 649.169683 226.844096 
L 649.671725 226.784612 
L 650.50846 226.925353 
L 650.675807 226.859303 
L 651.010502 226.961187 
L 651.847237 227.11777 
L 653.353361 227.198412 
L 653.688055 227.269128 
L 655.863568 227.166061 
L 656.365609 227.16583 
L 657.369692 227.060217 
L 657.871733 227.030607 
L 659.043163 226.930999 
L 659.545204 226.966486 
L 660.381939 226.884465 
L 660.883981 226.938514 
L 661.051328 226.661049 
L 661.218675 227.025107 
L 661.386022 226.73103 
L 661.720716 227.208642 
L 661.888063 226.863786 
L 662.05541 226.83668 
L 662.222758 226.615593 
L 662.724799 226.799175 
L 662.892146 227.269782 
L 663.059493 226.373654 
L 663.22684 226.878503 
L 663.561534 227.04844 
L 663.728881 226.44005 
L 663.896229 227.129648 
L 664.063576 226.936538 
L 664.565617 227.224296 
L 664.732964 226.952014 
L 665.067658 227.291549 
L 665.235005 227.436066 
L 665.402353 227.054571 
L 665.5697 227.162124 
L 666.239088 227.054184 
L 666.406435 226.682395 
L 666.573782 227.384141 
L 666.741129 227.398764 
L 666.908476 227.105357 
L 667.075824 227.21951 
L 667.410518 227.242186 
L 668.4146 227.362768 
L 668.581947 226.939483 
L 668.916642 227.287564 
L 669.083989 226.488523 
L 669.251336 227.062774 
L 669.418683 227.115331 
L 669.58603 226.880367 
L 670.088071 227.138926 
L 670.422766 227.004466 
L 670.590113 226.423238 
L 670.75746 226.663871 
L 670.924807 226.427586 
L 671.092154 227.032576 
L 671.259501 225.61537 
L 671.594195 226.898345 
L 671.761542 226.623858 
L 671.92889 226.646803 
L 672.096237 226.492419 
L 672.263584 226.946916 
L 672.430931 227.018479 
L 672.765625 226.12552 
L 673.267666 226.927618 
L 673.435014 225.857341 
L 673.602361 226.942988 
L 673.769708 226.726226 
L 673.937055 226.990603 
L 674.104402 226.333199 
L 674.271749 226.934521 
L 674.606443 226.334667 
L 674.77379 226.801173 
L 674.941137 226.301758 
L 675.275832 226.753567 
L 675.443179 226.947938 
L 675.610526 226.196098 
L 675.777873 226.945683 
L 675.94522 227.128311 
L 676.112567 226.7557 
L 676.279914 227.254077 
L 676.447261 226.533398 
L 676.614608 227.196272 
L 676.781956 227.180514 
L 676.949303 227.329743 
L 677.283997 227.04521 
L 677.451344 227.209212 
L 677.618691 226.891447 
L 677.786038 227.277684 
L 677.953385 227.333556 
L 678.120732 226.864327 
L 678.28808 227.252872 
L 678.455427 227.354853 
L 678.790121 226.836767 
L 679.124815 227.184892 
L 679.459509 227.204461 
L 679.626856 227.39833 
L 679.961551 227.280418 
L 680.128898 226.88549 
L 680.463592 226.748326 
L 680.798286 226.983879 
L 680.965633 227.273614 
L 681.13298 227.007183 
L 681.467674 227.086891 
L 681.635022 226.76799 
L 681.802369 227.20669 
L 681.969716 226.761524 
L 682.137063 227.15336 
L 682.30441 226.384289 
L 682.806451 227.111516 
L 682.973798 226.490977 
L 683.141146 226.865446 
L 683.47584 226.79358 
L 683.643187 226.473402 
L 683.810534 226.564308 
L 683.977881 227.034429 
L 684.145228 226.676685 
L 684.312575 226.773441 
L 684.479922 226.480121 
L 684.647269 226.445233 
L 684.814617 226.887507 
L 684.981964 226.631286 
L 685.149311 226.885574 
L 685.316658 226.668601 
L 685.484005 226.823584 
L 685.651352 226.644801 
L 686.153393 226.848218 
L 686.488088 226.281587 
L 686.655435 227.138749 
L 686.822782 227.138595 
L 686.990129 226.123071 
L 687.157476 227.105659 
L 687.49217 226.87516 
L 687.659517 227.326765 
L 687.826864 226.398307 
L 687.994212 227.077551 
L 688.161559 226.850419 
L 688.496253 226.908737 
L 688.6636 226.571711 
L 688.830947 226.843912 
L 688.998294 226.507232 
L 689.500335 227.162724 
L 689.667683 227.213467 
L 689.83503 226.880813 
L 690.002377 226.847713 
L 690.169724 227.136396 
L 690.337071 226.931101 
L 690.504418 227.081743 
L 690.671765 226.925835 
L 690.839112 227.284263 
L 691.341154 227.057262 
L 691.508501 226.883058 
L 691.675848 227.068782 
L 691.843195 226.368593 
L 692.010542 227.03111 
L 692.177889 226.975789 
L 692.345236 227.286509 
L 692.512583 227.15619 
L 692.847278 227.376425 
L 693.349319 227.021294 
L 693.516666 227.145789 
L 693.684013 226.797003 
L 693.85136 226.963265 
L 694.018707 226.9398 
L 694.186054 227.044821 
L 694.353401 226.437624 
L 694.688096 227.058455 
L 694.855443 226.257266 
L 695.02279 226.87688 
L 695.524831 226.637531 
L 695.692178 226.916963 
L 696.026873 226.717827 
L 696.19422 226.203733 
L 696.361567 226.915293 
L 696.696261 225.471541 
L 696.863608 226.320978 
L 697.030955 226.472793 
L 697.198302 226.285571 
L 697.365649 225.67351 
L 697.532996 225.779648 
L 697.700344 226.461071 
L 697.867691 226.615819 
L 698.035038 226.971368 
L 698.369732 226.80529 
L 698.537079 226.464182 
L 698.871773 226.86884 
L 699.03912 226.349472 
L 699.206467 226.826707 
L 699.541162 226.225111 
L 699.708509 226.70463 
L 699.875856 226.645688 
L 700.21055 226.860257 
L 700.377897 226.685864 
L 700.545244 227.147074 
L 700.712591 226.990774 
L 701.047286 227.26229 
L 701.214633 226.891912 
L 701.38198 227.116745 
L 701.549327 227.063003 
L 701.716674 227.215461 
L 701.884021 227.053764 
L 702.218715 227.153934 
L 702.386062 227.360862 
L 702.720757 226.659542 
L 702.888104 227.210558 
L 703.055451 227.130123 
L 703.222798 227.356398 
L 703.390145 226.584176 
L 703.557492 227.32133 
L 704.059533 227.220123 
L 704.226881 227.258746 
L 704.394228 226.849621 
L 704.561575 227.158361 
L 704.728922 227.092788 
L 704.896269 227.187617 
L 705.230963 227.098429 
L 705.39831 227.12694 
L 705.565657 226.707735 
L 705.733005 226.779019 
L 705.900352 226.595675 
L 706.56974 226.996656 
L 706.737087 226.868169 
L 706.904434 227.285885 
L 707.071781 226.815271 
L 707.239128 226.714836 
L 707.406476 226.174689 
L 707.573823 226.970416 
L 707.74117 226.343267 
L 708.243211 226.773058 
L 708.745252 226.563592 
L 708.912599 226.113053 
L 709.079947 226.240691 
L 709.247294 226.590349 
L 709.581988 226.600463 
L 709.749335 226.743718 
L 710.084029 226.727554 
L 710.251376 226.299941 
L 710.920765 226.601061 
L 711.088112 226.980694 
L 711.255459 226.992183 
L 711.422806 226.361455 
L 711.590153 227.030317 
L 711.7575 226.712599 
L 711.924847 227.044817 
L 712.259542 226.020665 
L 712.426889 226.658244 
L 712.594236 226.41823 
L 712.761583 226.392098 
L 712.92893 226.736651 
L 713.096277 226.28791 
L 713.598318 227.043327 
L 713.765666 226.813698 
L 713.933013 227.297827 
L 714.10036 226.802524 
L 714.602401 227.051321 
L 714.937095 226.771772 
L 715.104442 226.635739 
L 715.271789 226.702844 
L 715.606484 227.192623 
L 715.773831 226.8222 
L 715.941178 227.383341 
L 716.275872 226.752959 
L 716.443219 226.587036 
L 716.610566 227.240542 
L 716.777913 227.006623 
L 716.94526 227.358304 
L 717.279955 226.954652 
L 717.447302 226.97112 
L 717.781996 226.670344 
L 717.949343 226.96209 
L 718.11669 226.797547 
L 718.284037 225.88974 
L 718.618732 226.668784 
L 718.786079 226.904946 
L 718.953426 225.901452 
L 719.120773 226.432434 
L 719.455467 226.139387 
L 719.622814 226.995992 
L 719.790161 225.80917 
L 719.957508 226.494175 
L 720.124855 225.581753 
L 720.292203 226.770876 
L 720.45955 226.512348 
L 720.626897 226.540886 
L 720.794244 225.491895 
L 721.128938 226.494364 
L 721.630979 226.130384 
L 721.965674 226.841619 
L 722.133021 226.029964 
L 722.300368 226.344406 
L 722.467715 225.591708 
L 722.802409 226.556322 
L 722.969756 226.183642 
L 723.30445 226.537995 
L 723.471798 226.690012 
L 723.639145 226.638617 
L 723.806492 226.761011 
L 723.973839 227.148413 
L 724.141186 227.029675 
L 724.308533 225.671568 
L 724.47588 227.246361 
L 724.810574 226.778024 
L 724.977921 226.801517 
L 725.145269 227.191033 
L 725.312616 227.000189 
L 725.479963 226.634588 
L 725.982004 227.042689 
L 726.316698 226.959165 
L 726.484045 226.885885 
L 726.986087 227.207628 
L 727.320781 226.732311 
L 727.488128 227.170166 
L 727.655475 226.492568 
L 727.990169 227.031805 
L 728.157516 226.812637 
L 728.324864 226.924868 
L 728.492211 226.671461 
L 728.659558 227.276903 
L 728.826905 226.60706 
L 728.994252 226.567073 
L 729.161599 226.386202 
L 729.328946 227.100864 
L 729.496293 226.760545 
L 729.66364 226.846383 
L 729.830987 226.766627 
L 729.998335 226.927727 
L 730.165682 226.395735 
L 730.333029 226.431228 
L 730.500376 226.289815 
L 730.667723 226.401339 
L 730.83507 225.963929 
L 731.002417 226.424334 
L 731.169764 226.391292 
L 731.337111 225.742696 
L 731.504459 226.639272 
L 731.671806 226.895561 
L 731.839153 225.680807 
L 732.0065 226.495099 
L 732.173847 225.442944 
L 732.341194 226.754314 
L 732.508541 225.850181 
L 732.675888 226.080369 
L 732.843235 226.115233 
L 733.010582 226.503706 
L 733.345277 225.87965 
L 733.512624 226.222024 
L 733.679971 225.572912 
L 733.847318 226.598149 
L 734.014665 226.193817 
L 734.182012 224.738204 
L 734.349359 226.453358 
L 734.516706 224.834505 
L 734.684053 226.075933 
L 734.851401 226.439352 
L 735.018748 226.182377 
L 735.186095 225.440071 
L 735.353442 226.092334 
L 735.688136 226.349083 
L 736.02283 224.580566 
L 736.190177 226.440027 
L 736.357525 225.72791 
L 736.692219 226.56865 
L 736.859566 226.133546 
L 737.19426 226.787756 
L 737.361607 226.644754 
L 737.528954 226.940324 
L 737.696301 226.972878 
L 737.863648 226.602178 
L 738.030996 226.54015 
L 738.198343 226.937365 
L 738.36569 226.322058 
L 738.533037 227.062508 
L 738.867731 226.900161 
L 739.202425 226.883679 
L 739.369772 227.023907 
L 739.537119 226.578454 
L 739.704467 226.872945 
L 739.871814 226.436288 
L 740.206508 226.896091 
L 740.373855 226.11992 
L 740.541202 226.776972 
L 740.708549 226.877808 
L 740.875896 226.386476 
L 741.043243 226.304454 
L 741.210591 227.022635 
L 741.377938 226.614273 
L 741.545285 226.500103 
L 741.712632 226.181698 
L 741.879979 226.572753 
L 742.047326 225.460956 
L 742.214673 225.512286 
L 742.38202 225.979087 
L 742.549367 225.808035 
L 742.716714 224.469854 
L 742.884062 226.022537 
L 743.051409 226.320429 
L 743.218756 225.052757 
L 743.386103 226.262917 
L 743.55345 226.192781 
L 743.720797 225.448316 
L 743.888144 225.258168 
L 744.055491 225.81857 
L 744.222838 224.492272 
L 744.390185 225.80277 
L 744.557533 224.30782 
L 744.72488 225.8962 
L 745.059574 226.635211 
L 745.226921 225.50215 
L 745.394268 225.985169 
L 745.561615 225.130069 
L 745.728962 226.418375 
L 745.896309 226.144214 
L 746.063657 225.135874 
L 746.398351 226.674866 
L 746.565698 226.427993 
L 746.733045 225.494707 
L 747.067739 227.219981 
L 747.235086 226.406446 
L 747.402433 226.794852 
L 747.56978 226.450289 
L 747.737128 226.860914 
L 748.071822 227.00958 
L 748.239169 226.722017 
L 748.406516 225.959088 
L 748.573863 226.620714 
L 749.075904 227.017921 
L 749.243252 226.419986 
L 749.410599 227.04312 
L 749.577946 227.219121 
L 749.745293 226.972199 
L 750.079987 227.230795 
L 750.247334 226.81819 
L 750.414681 227.030399 
L 750.582028 226.642822 
L 750.749375 226.839572 
L 750.916723 227.209629 
L 751.08407 227.213464 
L 751.251417 226.880458 
L 751.418764 227.046426 
L 751.586111 226.589018 
L 751.753458 226.775597 
L 751.920805 226.241386 
L 752.088152 226.924519 
L 752.255499 226.60467 
L 752.422846 227.377388 
L 752.590194 226.273606 
L 752.757541 227.19218 
L 752.924888 224.992657 
L 753.092235 226.371499 
L 753.426929 226.743773 
L 753.594276 226.137392 
L 753.761623 227.168036 
L 753.92897 226.373647 
L 754.096318 226.729329 
L 754.263665 226.72412 
L 754.431012 225.711843 
L 754.598359 225.400176 
L 754.765706 225.715624 
L 754.933053 226.289188 
L 755.1004 226.410074 
L 755.267747 226.244336 
L 755.602441 226.701714 
L 755.769789 226.110592 
L 755.937136 226.274696 
L 756.104483 226.038394 
L 756.27183 226.718513 
L 756.606524 225.847892 
L 756.773871 225.450447 
L 756.941218 226.421473 
L 757.108565 226.049263 
L 757.275912 226.624081 
L 757.610607 226.40814 
L 757.777954 226.358044 
L 757.945301 226.09745 
L 758.279995 226.687311 
L 758.447342 226.569487 
L 758.614689 226.657075 
L 758.782036 225.915066 
L 759.116731 226.479769 
L 759.284078 226.590061 
L 759.451425 225.625358 
L 759.618772 226.969885 
L 759.953466 225.867074 
L 760.28816 226.574711 
L 760.455507 226.39807 
L 760.622855 226.42043 
L 760.790202 226.09972 
L 760.957549 226.03393 
L 761.124896 226.997496 
L 761.292243 227.226566 
L 761.45959 226.173932 
L 761.626937 227.159176 
L 761.794284 226.898269 
L 762.128978 227.210047 
L 762.296326 226.359822 
L 762.63102 227.113947 
L 762.798367 226.569338 
L 762.965714 226.669951 
L 763.133061 226.402153 
L 763.300408 226.98511 
L 763.467755 226.862813 
L 763.635102 226.520147 
L 763.80245 227.287561 
L 763.969797 227.250499 
L 764.137144 226.826519 
L 764.304491 227.159727 
L 764.471838 226.956972 
L 764.639185 227.295898 
L 764.806532 226.637346 
L 764.973879 226.8387 
L 765.308573 226.609472 
L 765.475921 226.200985 
L 765.643268 226.966367 
L 765.810615 226.926505 
L 765.977962 226.073072 
L 766.312656 227.153273 
L 766.480003 227.086372 
L 766.64735 226.614288 
L 766.814697 226.977936 
L 766.982045 226.25648 
L 767.316739 227.196303 
L 767.651433 227.078564 
L 767.81878 227.061281 
L 767.986127 226.150143 
L 768.320821 227.165404 
L 768.488168 227.230409 
L 768.655516 226.994248 
L 768.822863 227.003705 
L 768.99021 227.150191 
L 769.157557 226.851274 
L 769.492251 227.205522 
L 769.659598 226.757242 
L 769.826945 227.12154 
L 769.994292 227.034129 
L 770.161639 227.080817 
L 770.328987 226.911271 
L 770.496334 227.207426 
L 770.663681 226.989227 
L 770.831028 227.109015 
L 770.998375 226.941695 
L 771.165722 227.148125 
L 771.333069 226.711524 
L 771.667763 227.310812 
L 772.002458 226.553748 
L 772.169805 227.236951 
L 772.337152 227.204736 
L 772.671846 226.498241 
L 772.839193 227.020549 
L 773.00654 226.19258 
L 773.173887 226.878752 
L 773.341234 226.955601 
L 773.508582 227.392718 
L 773.675929 227.414933 
L 773.843276 227.046773 
L 774.010623 227.03805 
L 774.17797 226.448173 
L 774.345317 227.178021 
L 774.847358 226.84387 
L 775.014705 227.062129 
L 775.182053 226.97112 
L 775.3494 226.742913 
L 775.516747 226.892004 
L 775.684094 227.267523 
L 776.353482 227.33867 
L 776.520829 227.02751 
L 776.688177 227.386841 
L 776.855524 227.350708 
L 777.022871 226.741135 
L 777.190218 227.260029 
L 777.524912 227.254526 
L 777.859606 226.90998 
L 778.361648 227.045527 
L 778.528995 227.301183 
L 778.696342 227.140322 
L 778.863689 227.181701 
L 779.031036 226.969956 
L 779.198383 227.334072 
L 779.36573 227.319842 
L 779.533077 226.691102 
L 779.700424 227.318988 
L 779.867771 226.887814 
L 780.035119 227.156713 
L 780.53716 227.255306 
L 780.704507 227.224355 
L 780.871854 226.706675 
L 781.039201 227.330663 
L 781.206548 227.402092 
L 781.373895 226.83008 
L 781.541243 226.864398 
L 781.875937 227.287069 
L 782.043284 227.255801 
L 782.210631 226.711832 
L 782.377978 227.245733 
L 782.712672 227.336798 
L 783.047366 226.812567 
L 783.214714 227.201821 
L 783.382061 226.883482 
L 783.884102 227.36992 
L 784.051449 227.105924 
L 784.720838 227.102829 
L 784.888185 227.171526 
L 785.055532 226.837742 
L 785.222879 226.989463 
L 785.390226 226.976898 
L 785.557573 227.313186 
L 785.72492 227.092191 
L 785.892267 227.21371 
L 786.394309 227.08122 
L 786.561656 227.210598 
L 786.729003 227.156508 
L 786.89635 226.974153 
L 787.231044 227.376976 
L 787.565738 226.997602 
L 787.733085 227.246908 
L 787.900432 226.954774 
L 788.06778 227.177349 
L 788.235127 227.077435 
L 788.569821 227.389221 
L 788.737168 227.150001 
L 788.904515 227.379381 
L 789.406556 227.396492 
L 789.741251 226.926288 
L 789.908598 227.325115 
L 790.410639 227.163521 
L 790.577986 227.332023 
L 790.745333 227.205561 
L 790.91268 227.297572 
L 791.247375 227.248054 
L 791.749416 227.233436 
L 791.916763 227.372056 
L 792.08411 227.045961 
L 792.251457 227.347596 
L 792.418804 226.966 
L 792.586151 227.348707 
L 792.920846 227.03363 
L 793.088193 227.397606 
L 793.25554 227.190779 
L 793.422887 227.381442 
L 793.590234 227.020716 
L 793.757581 227.35333 
L 793.924928 227.393726 
L 794.259622 227.250151 
L 794.42697 227.429448 
L 794.594317 227.201725 
L 794.761664 227.393571 
L 794.929011 227.377559 
L 795.096358 227.227375 
L 795.263705 227.323911 
L 795.431052 227.249387 
L 795.598399 227.368924 
L 795.765746 227.08905 
L 796.100441 227.286266 
L 796.435135 227.331354 
L 796.602482 226.927714 
L 796.769829 227.277302 
L 797.439217 227.414891 
L 797.606564 227.144752 
L 797.773912 227.378454 
L 797.941259 227.331464 
L 798.108606 226.643334 
L 798.275953 227.394628 
L 798.610647 227.321839 
L 798.777994 227.200665 
L 799.447383 227.331832 
L 799.949424 227.104783 
L 800.116771 227.41329 
L 800.284118 227.241638 
L 800.618812 227.2918 
L 800.953507 227.362899 
L 801.120854 226.983285 
L 801.288201 227.429344 
L 801.455548 226.906322 
L 801.622895 227.365425 
L 801.790242 227.245677 
L 802.124936 227.339942 
L 802.626978 227.216724 
L 802.794325 227.334061 
L 803.296366 227.106919 
L 803.463713 227.386367 
L 803.63106 227.247219 
L 803.798407 227.36941 
L 804.80249 227.193862 
L 804.969837 227.010284 
L 805.137184 227.135241 
L 805.304531 227.020214 
L 805.97392 227.29811 
L 806.141267 227.027996 
L 806.475961 227.26826 
L 806.978002 227.024837 
L 807.145349 226.610931 
L 807.312697 227.131318 
L 807.480044 227.00689 
L 807.647391 227.094895 
L 807.814738 226.705845 
L 807.982085 227.254186 
L 808.149432 227.097088 
L 808.316779 227.282189 
L 808.484126 226.899704 
L 808.651473 227.116284 
L 808.81882 226.708086 
L 808.986168 226.659951 
L 809.153515 227.419261 
L 809.488209 227.158284 
L 809.655556 227.338039 
L 809.822903 226.896919 
L 809.99025 226.933197 
L 810.157597 227.140512 
L 810.324944 226.936221 
L 810.492291 226.979142 
L 810.659639 227.252102 
L 811.16168 227.303903 
L 811.496374 227.0181 
L 811.831068 227.423734 
L 811.998415 226.958866 
L 812.165763 227.290102 
L 812.33311 226.876067 
L 812.835151 227.20739 
L 813.002498 227.354117 
L 813.169845 227.29706 
L 813.337192 227.38851 
L 813.671886 227.303152 
L 813.839234 226.808642 
L 814.006581 227.410805 
L 814.173928 227.21747 
L 814.508622 227.297511 
L 814.675969 227.217383 
L 814.843316 226.94752 
L 815.17801 227.398996 
L 815.345357 227.26829 
L 815.680052 227.278888 
L 815.847399 227.075894 
L 816.182093 227.366906 
L 816.34944 227.102231 
L 817.018829 227.34009 
L 817.186176 227.206498 
L 817.353523 227.344233 
L 817.855564 227.167145 
L 818.357605 227.326482 
L 818.6923 227.206711 
L 819.026994 226.725433 
L 819.194341 227.381011 
L 819.696382 227.047002 
L 819.863729 227.4136 
L 820.031076 227.157843 
L 820.198424 227.403944 
L 820.700465 227.084297 
L 820.867812 227.387544 
L 821.035159 227.158876 
L 821.202506 227.295182 
L 821.369853 226.924886 
L 821.5372 227.374504 
L 821.704547 227.178688 
L 822.039242 227.422489 
L 822.206589 227.045647 
L 822.541283 227.405102 
L 822.70863 227.18916 
L 822.875977 227.208522 
L 823.043324 227.415236 
L 823.210671 227.053142 
L 823.378018 227.36052 
L 823.712713 226.991015 
L 823.88006 227.220689 
L 824.382101 227.074101 
L 825.05149 227.378492 
L 825.218837 226.834495 
L 825.386184 227.039048 
L 825.553531 227.419076 
L 825.720878 227.111253 
L 825.888225 227.391008 
L 826.222919 227.414163 
L 826.557613 226.866032 
L 826.724961 227.407004 
L 826.892308 227.411165 
L 827.059655 227.207938 
L 827.394349 227.275438 
L 827.729043 227.409139 
L 827.89639 227.090913 
L 828.398432 227.372603 
L 828.733126 227.437123 
L 828.900473 227.208543 
L 829.402514 227.394809 
L 829.737208 227.304625 
L 829.904556 227.411832 
L 830.071903 226.806803 
L 830.23925 226.824056 
L 830.573944 227.261591 
L 830.741291 227.105818 
L 831.075985 227.278052 
L 831.410679 227.182438 
L 831.578027 226.886439 
L 831.745374 227.314036 
L 832.080068 227.281771 
L 832.247415 227.055953 
L 832.749456 227.309478 
L 832.916803 226.97996 
L 833.08415 227.253924 
L 833.251498 226.977222 
L 833.418845 227.121278 
L 833.753539 226.676792 
L 833.920886 227.393722 
L 834.088233 226.939353 
L 834.25558 227.244089 
L 834.590274 226.923961 
L 834.757622 227.203624 
L 835.092316 226.775474 
L 835.259663 226.845429 
L 835.42701 226.672678 
L 835.594357 227.328041 
L 836.096398 227.307659 
L 836.431093 227.020314 
L 836.765787 227.108414 
L 836.933134 226.975502 
L 837.267828 227.426603 
L 837.602522 227.046482 
L 837.769869 227.27434 
L 837.937217 227.029026 
L 838.271911 227.388911 
L 838.439258 227.055871 
L 838.941299 227.30808 
L 839.275993 227.348422 
L 839.44334 227.432247 
L 839.945382 227.355641 
L 842.120894 227.216613 
L 842.455588 226.886513 
L 842.622935 227.229998 
L 842.790283 226.807028 
L 842.95763 227.365591 
L 843.292324 227.196825 
L 843.459671 227.287026 
L 843.794365 226.880938 
L 844.129059 227.320335 
L 844.296406 227.402616 
L 844.463754 227.110688 
L 844.631101 227.218714 
L 844.798448 227.022704 
L 844.965795 227.006812 
L 845.300489 227.325585 
L 845.635183 227.192942 
L 845.80253 227.175905 
L 845.969877 226.962692 
L 846.137225 227.262524 
L 846.304572 226.794199 
L 846.639266 227.295522 
L 846.806613 226.998255 
L 846.97396 227.244363 
L 847.978043 227.299153 
L 848.647431 227.083835 
L 848.982125 227.389566 
L 849.149472 227.196839 
L 849.31682 227.330367 
L 849.651514 227.16804 
L 849.818861 227.117013 
L 850.153555 227.431945 
L 850.990291 227.180632 
L 851.157638 227.316149 
L 851.324985 227.154713 
L 851.492332 227.368555 
L 851.659679 227.175036 
L 852.16172 227.331854 
L 852.329067 227.167198 
L 852.496415 227.330785 
L 852.663762 227.257833 
L 852.831109 227.431567 
L 853.165803 227.009713 
L 853.33315 227.34505 
L 853.667844 227.417444 
L 854.002538 227.106745 
L 854.169886 227.350024 
L 854.839274 227.161132 
L 855.006621 227.196031 
L 855.173968 226.980785 
L 855.341315 227.220295 
L 855.508662 227.160455 
L 855.676009 227.239103 
L 855.843357 226.891327 
L 856.010704 227.226364 
L 856.178051 226.668497 
L 856.345398 226.517479 
L 856.512745 227.092452 
L 857.182133 226.852683 
L 857.349481 227.256259 
L 857.684175 226.919692 
L 857.851522 227.094111 
L 858.018869 226.642216 
L 858.52091 227.116149 
L 858.688257 227.091021 
L 858.855604 226.710038 
L 859.022952 227.317506 
L 859.190299 226.935878 
L 859.357646 226.989504 
L 859.524993 227.185863 
L 859.69234 226.775315 
L 859.859687 227.251101 
L 860.027034 226.938502 
L 860.194381 227.259506 
L 860.361728 227.074097 
L 860.529076 226.586015 
L 860.696423 227.114104 
L 861.031117 227.281593 
L 861.198464 226.992339 
L 861.365811 227.049066 
L 861.533158 227.272019 
L 861.700505 226.890773 
L 862.035199 227.407884 
L 862.369894 227.219784 
L 862.537241 227.365547 
L 862.871935 227.255776 
L 863.039282 227.393955 
L 863.206629 227.329356 
L 863.373976 227.029355 
L 863.541323 227.245733 
L 863.876018 227.250059 
L 864.210712 227.346102 
L 864.378059 227.133779 
L 865.047447 227.342792 
L 865.214794 227.162344 
L 865.884183 227.365621 
L 866.05153 226.976974 
L 866.218877 227.041811 
L 866.386224 227.359603 
L 866.553571 227.112228 
L 866.720918 227.313078 
L 867.22296 227.055642 
L 867.892348 227.282024 
L 868.227042 227.253238 
L 868.561736 226.939572 
L 868.729084 227.292345 
L 869.063778 226.982611 
L 869.231125 227.096292 
L 869.398472 227.059265 
L 869.733166 226.781138 
L 869.900513 227.209575 
L 870.235208 227.090679 
L 870.402555 227.23603 
L 870.569902 226.884299 
L 870.737249 226.950123 
L 870.904596 227.174348 
L 871.071943 227.137509 
L 871.23929 227.216129 
L 871.406637 226.896366 
L 871.573984 226.862442 
L 871.741331 227.04382 
L 871.908679 227.037065 
L 872.076026 227.276236 
L 872.243373 226.92421 
L 872.41072 227.156253 
L 872.578067 227.115518 
L 872.912761 227.323331 
L 873.58215 227.425224 
L 873.749497 227.111983 
L 873.916844 227.21452 
L 874.084191 227.110876 
L 874.586232 227.394332 
L 874.753579 227.146306 
L 874.920926 227.117237 
L 875.088274 227.337317 
L 875.422968 227.248227 
L 875.590315 227.369888 
L 876.259703 227.367351 
L 876.42705 226.957613 
L 876.761745 227.369652 
L 876.929092 227.047607 
L 877.096439 227.220281 
L 877.263786 226.996663 
L 877.431133 227.225583 
L 877.765827 227.166947 
L 877.933174 227.355809 
L 878.267869 227.315012 
L 878.602563 226.977347 
L 878.76991 227.28228 
L 878.937257 226.440125 
L 879.104604 226.70834 
L 879.271951 226.513234 
L 879.439298 227.094079 
L 879.606645 227.150131 
L 879.773992 227.08044 
L 879.94134 226.534619 
L 880.276034 227.336451 
L 880.778075 226.295581 
L 880.945422 226.815957 
L 881.447463 226.858948 
L 881.614811 226.554096 
L 881.949505 226.701914 
L 882.116852 226.997174 
L 882.451546 226.921666 
L 882.78624 226.854576 
L 882.953587 227.062283 
L 883.120935 226.538013 
L 883.288282 227.13848 
L 883.622976 226.950797 
L 883.790323 227.221588 
L 883.95767 226.490536 
L 884.125017 227.000998 
L 884.627058 227.065193 
L 884.794406 226.894925 
L 884.961753 226.987158 
L 885.1291 227.315749 
L 885.296447 227.363319 
L 885.631141 227.007372 
L 886.300529 227.149827 
L 886.467877 226.938172 
L 886.635224 227.312835 
L 886.802571 227.37895 
L 887.137265 227.071699 
L 887.471959 227.378561 
L 887.639306 226.993763 
L 887.806653 227.394925 
L 888.141348 227.307358 
L 888.308695 227.41048 
L 888.476042 227.112084 
L 888.643389 227.145904 
L 888.810736 227.307383 
L 888.978083 227.177333 
L 889.14543 227.434505 
L 889.312777 227.208953 
L 889.480124 227.343967 
L 889.814819 226.95868 
L 889.982166 226.610047 
L 890.149513 227.210373 
L 890.31686 226.77582 
L 890.484207 227.293572 
L 890.651554 226.995122 
L 890.818901 227.058948 
L 890.986248 227.281075 
L 891.320943 227.098366 
L 891.48829 226.815266 
L 891.655637 227.159997 
L 891.990331 226.994374 
L 892.157678 227.07666 
L 892.325025 226.515254 
L 892.827067 226.943683 
L 892.994414 226.3966 
L 893.161761 226.928533 
L 893.329108 226.98806 
L 893.496455 226.909434 
L 893.663802 226.65047 
L 893.831149 227.036124 
L 893.998496 226.789259 
L 894.165843 227.23333 
L 894.33319 227.213644 
L 894.667885 226.919375 
L 894.835232 226.95459 
L 895.002579 226.506156 
L 895.169926 226.915383 
L 895.671967 226.784295 
L 895.839314 226.849325 
L 896.006662 226.222934 
L 896.174009 226.851479 
L 896.341356 226.540429 
L 896.508703 227.135401 
L 896.67605 227.071186 
L 896.843397 227.188758 
L 897.010744 226.984285 
L 897.178091 227.107549 
L 897.512785 226.927412 
L 897.680133 226.721866 
L 897.84748 227.205493 
L 898.014827 227.323799 
L 898.182174 226.764638 
L 898.349521 227.307383 
L 898.684215 227.098706 
L 898.851562 227.296819 
L 899.018909 227.03185 
L 899.186256 227.312871 
L 899.353604 226.540817 
L 899.520951 227.217037 
L 899.688298 226.849929 
L 900.022992 227.278023 
L 900.190339 227.124099 
L 900.525033 227.40048 
L 900.859728 226.89015 
L 901.027075 227.318704 
L 901.194422 227.009725 
L 901.361769 227.105776 
L 901.696463 226.835413 
L 901.86381 227.277102 
L 902.031157 226.696006 
L 902.198504 227.105762 
L 902.533199 225.747353 
L 902.700546 226.120627 
L 902.867893 226.805699 
L 903.03524 226.217131 
L 903.202587 226.696735 
L 903.369934 226.693612 
L 903.537281 227.194803 
L 903.704628 225.814552 
L 903.871975 226.527093 
L 904.039322 226.181038 
L 904.20667 226.4741 
L 904.541364 226.436784 
L 904.708711 227.00923 
L 905.043405 226.21736 
L 905.210752 226.865238 
L 905.378099 226.516283 
L 905.545446 226.57538 
L 905.712794 226.07947 
L 905.880141 226.627222 
L 906.047488 226.671331 
L 906.214835 226.562193 
L 906.716876 226.701378 
L 906.884223 226.342165 
L 907.05157 226.988811 
L 907.218917 226.389661 
L 907.386265 227.03729 
L 907.720959 226.497802 
L 907.888306 226.965011 
L 908.055653 226.570914 
L 908.223 227.387541 
L 908.390347 226.92279 
L 908.557694 227.136618 
L 908.725041 227.087727 
L 908.892388 226.845924 
L 909.059736 227.339089 
L 909.39443 227.035287 
L 909.729124 226.708355 
L 910.063818 227.308756 
L 910.231165 226.72811 
L 910.56586 227.138868 
L 911.067901 226.993247 
L 911.235248 226.922659 
L 911.569942 227.167927 
L 911.737289 226.620753 
L 911.904636 227.14452 
L 911.904636 227.14452 
" style="fill:none;stroke:#1f77b4;stroke-linecap:square;stroke-width:1.5;"/>
   </g>
   <g id="patch_3">
    <path d="M 121.541 237.324063 
L 121.541 19.884063 
" style="fill:none;stroke:#000000;stroke-linecap:square;stroke-linejoin:miter;stroke-width:0.8;"/>
   </g>
   <g id="patch_4">
    <path d="M 949.541 237.324063 
L 949.541 19.884063 
" style="fill:none;stroke:#000000;stroke-linecap:square;stroke-linejoin:miter;stroke-width:0.8;"/>
   </g>
   <g id="patch_5">
    <path d="M 121.541 237.324063 
L 949.541 237.324063 
" style="fill:none;stroke:#000000;stroke-linecap:square;stroke-linejoin:miter;stroke-width:0.8;"/>
   </g>
   <g id="patch_6">
    <path d="M 121.541 19.884063 
L 949.541 19.884063 
" style="fill:none;stroke:#000000;stroke-linecap:square;stroke-linejoin:miter;stroke-width:0.8;"/>
   </g>
   <g id="legend_1">
    <g id="patch_7">
     <path d="M 963.021 105.383438 
L 1357.701 105.383438 
Q 1362.901 105.383438 1362.901 100.183438 
L 1362.901 25.084063 
Q 1362.901 19.884063 1357.701 19.884063 
L 963.021 19.884063 
Q 957.821 19.884063 957.821 25.084063 
L 957.821 100.183438 
Q 957.821 105.383438 963.021 105.383438 
z
" style="fill:#ffffff;opacity:0.8;stroke:#cccccc;stroke-linejoin:miter;"/>
    </g>
    <g id="line2d_14">
     <path d="M 968.221 40.11125 
L 1020.221 40.11125 
" style="fill:none;stroke:#1f77b4;stroke-linecap:square;stroke-width:1.5;"/>
    </g>
    <g id="line2d_15"/>
    <g id="text_9">
     <!-- Change point score -->
     <g transform="translate(1041.021 49.21125)scale(0.26 -0.26)">
      <use xlink:href="#ArialMT-67"/>
      <use x="72.216797" xlink:href="#ArialMT-104"/>
      <use x="127.832031" xlink:href="#ArialMT-97"/>
      <use x="183.447266" xlink:href="#ArialMT-110"/>
      <use x="239.0625" xlink:href="#ArialMT-103"/>
      <use x="294.677734" xlink:href="#ArialMT-101"/>
      <use x="350.292969" xlink:href="#ArialMT-32"/>
      <use x="378.076172" xlink:href="#ArialMT-112"/>
      <use x="433.691406" xlink:href="#ArialMT-111"/>
      <use x="489.306641" xlink:href="#ArialMT-105"/>
      <use x="511.523438" xlink:href="#ArialMT-110"/>
      <use x="567.138672" xlink:href="#ArialMT-116"/>
      <use x="594.921875" xlink:href="#ArialMT-32"/>
      <use x="622.705078" xlink:href="#ArialMT-115"/>
      <use x="672.705078" xlink:href="#ArialMT-99"/>
      <use x="722.705078" xlink:href="#ArialMT-111"/>
      <use x="778.320312" xlink:href="#ArialMT-114"/>
      <use x="811.621094" xlink:href="#ArialMT-101"/>
     </g>
    </g>
    <g id="PathCollection_2">
     <g>
      <use style="fill:#ff0000;stroke:#ff0000;" x="994.221" xlink:href="#m9f405195d5" y="82.438438"/>
     </g>
    </g>
    <g id="text_10">
     <!-- Change point (KL div &gt; $\zeta^*$) -->
     <defs>
      <path d="M 52.875 31.296875 
L 5.46875 11.03125 
L 5.46875 19.78125 
L 43.015625 35.359375 
L 5.46875 50.78125 
L 5.46875 59.515625 
L 52.875 39.5 
z
" id="ArialMT-62"/>
      <path d="M 29 68.296875 
L 29.5 66.796875 
Q 26 65.5 24.09375 63.59375 
Q 22.203125 61.703125 22.203125 59.796875 
Q 22.203125 55.796875 27 55 
Q 30 58.59375 35.390625 62.140625 
Q 40.796875 65.703125 44.40625 65.703125 
Q 47.5 65.703125 47.5 63.203125 
Q 47.5 59.90625 41.34375 56.25 
Q 35.203125 52.59375 28.5 52 
Q 21.40625 47.203125 14.75 36.34375 
Q 8.09375 25.5 8.09375 16.296875 
Q 8.09375 11.40625 10.84375 9.203125 
Q 13.59375 7 19 7 
Q 19.703125 7 21.09375 7.046875 
Q 22.5 7.09375 22.796875 7.09375 
Q 29.09375 7.09375 32.5 4.59375 
Q 35.90625 2.09375 35.90625 -2.09375 
Q 35.90625 -6.59375 33.09375 -10.59375 
Q 30.90625 -14 27 -16.25 
Q 23.09375 -18.5 19.703125 -18.5 
Q 16.90625 -18.5 14.953125 -17.203125 
Q 13 -15.90625 13 -13.296875 
Q 13 -11.59375 14.203125 -10.34375 
Q 15.40625 -9.09375 17.296875 -9.09375 
Q 18.90625 -9.09375 20.75 -10.546875 
Q 22.59375 -12 23.796875 -12 
Q 27.09375 -12 29.5 -10.046875 
Q 31.90625 -8.09375 31.90625 -5.09375 
Q 31.90625 -0.09375 24.296875 -0.09375 
Q 23 -0.09375 19.84375 -0.59375 
Q 16.703125 -1.09375 15.203125 -1.09375 
Q 3 -1.09375 3 10.703125 
Q 3 31.5 24.203125 52.203125 
L 24.09375 52.296875 
Q 21.5 52.296875 19.296875 53.84375 
Q 17.09375 55.40625 17.09375 58.09375 
Q 17.09375 61.296875 20.140625 64.046875 
Q 23.203125 66.796875 29 68.296875 
z
" id="STIXGeneral-Italic-950"/>
      <path d="M 26.796875 47.09375 
L 27.703125 46.5 
Q 31.40625 44.09375 37.296875 43.09375 
Q 40.703125 42.59375 42 41.640625 
Q 43.296875 40.703125 43.296875 38.796875 
Q 43.296875 37.09375 42.296875 36 
Q 41.296875 34.90625 39.703125 34.90625 
Q 37.203125 34.90625 33.703125 39.296875 
Q 31.40625 42.09375 26.796875 45.09375 
L 26 45.59375 
L 26 44.703125 
Q 26 39.09375 28 33.703125 
Q 28.90625 31.203125 28.90625 30.40625 
Q 28.90625 28.90625 27.65625 27.703125 
Q 26.40625 26.5 24.90625 26.5 
Q 23.5 26.5 22.390625 27.59375 
Q 21.296875 28.703125 21.296875 30.09375 
Q 21.296875 31.5 22.5 34.796875 
Q 24.09375 39.09375 24.09375 44.703125 
L 24.09375 45.59375 
Q 20.09375 43.09375 18.90625 42 
Q 17.703125 40.796875 14.796875 37.5 
Q 12.59375 35 10.5 35 
Q 8.796875 35 7.796875 36 
Q 6.796875 37 6.796875 38.59375 
Q 6.796875 40.5 8.25 41.5 
Q 9.703125 42.5 13.09375 43.09375 
Q 16.59375 43.796875 18.4375 44.5 
Q 20.296875 45.203125 23.40625 47.09375 
Q 19.09375 49.703125 13.703125 50.796875 
Q 10 51.59375 8.5 52.59375 
Q 7 53.59375 7 55.40625 
Q 7 57 7.890625 58.046875 
Q 8.796875 59.09375 10.296875 59.09375 
Q 12.296875 59.09375 15.203125 55.90625 
Q 19.40625 51.203125 24.09375 48.59375 
L 24.09375 49.90625 
Q 24.09375 54 22.59375 59 
Q 21.5 62.296875 21.5 64.203125 
Q 21.5 65.59375 22.546875 66.59375 
Q 23.59375 67.59375 25.09375 67.59375 
Q 26.59375 67.59375 27.6875 66.546875 
Q 28.796875 65.5 28.796875 64 
Q 28.796875 62.40625 27.703125 59.296875 
Q 26 54.796875 26 51 
L 26 48.59375 
Q 29.40625 50.59375 31.796875 52.796875 
Q 32.296875 53.296875 33.640625 54.75 
Q 35 56.203125 35.796875 57 
Q 36.59375 57.796875 37.640625 58.546875 
Q 38.703125 59.296875 39.5 59.296875 
Q 41.203125 59.296875 42.203125 58.25 
Q 43.203125 57.203125 43.203125 55.5 
Q 43.203125 53.5 42.046875 52.546875 
Q 40.90625 51.59375 38 51.203125 
Q 32.40625 50.296875 26.796875 47.09375 
z
" id="STIXGeneral-Regular-42"/>
     </defs>
     <g transform="translate(1041.021 89.263438)scale(0.26 -0.26)">
      <use transform="translate(0 0.409375)" xlink:href="#ArialMT-67"/>
      <use transform="translate(72.216797 0.409375)" xlink:href="#ArialMT-104"/>
      <use transform="translate(127.832031 0.409375)" xlink:href="#ArialMT-97"/>
      <use transform="translate(183.447266 0.409375)" xlink:href="#ArialMT-110"/>
      <use transform="translate(239.0625 0.409375)" xlink:href="#ArialMT-103"/>
      <use transform="translate(294.677734 0.409375)" xlink:href="#ArialMT-101"/>
      <use transform="translate(350.292969 0.409375)" xlink:href="#ArialMT-32"/>
      <use transform="translate(378.076172 0.409375)" xlink:href="#ArialMT-112"/>
      <use transform="translate(433.691406 0.409375)" xlink:href="#ArialMT-111"/>
      <use transform="translate(489.306641 0.409375)" xlink:href="#ArialMT-105"/>
      <use transform="translate(511.523438 0.409375)" xlink:href="#ArialMT-110"/>
      <use transform="translate(567.138672 0.409375)" xlink:href="#ArialMT-116"/>
      <use transform="translate(594.921875 0.409375)" xlink:href="#ArialMT-32"/>
      <use transform="translate(622.705078 0.409375)" xlink:href="#ArialMT-40"/>
      <use transform="translate(656.005859 0.409375)" xlink:href="#ArialMT-75"/>
      <use transform="translate(722.705078 0.409375)" xlink:href="#ArialMT-76"/>
      <use transform="translate(778.320312 0.409375)" xlink:href="#ArialMT-32"/>
      <use transform="translate(806.103516 0.409375)" xlink:href="#ArialMT-100"/>
      <use transform="translate(861.71875 0.409375)" xlink:href="#ArialMT-105"/>
      <use transform="translate(883.935547 0.409375)" xlink:href="#ArialMT-118"/>
      <use transform="translate(933.935547 0.409375)" xlink:href="#ArialMT-32"/>
      <use transform="translate(961.71875 0.409375)" xlink:href="#ArialMT-62"/>
      <use transform="translate(1020.117188 0.409375)" xlink:href="#ArialMT-32"/>
      <use transform="translate(1047.900391 0.409375)" xlink:href="#STIXGeneral-Italic-950"/>
      <use transform="translate(1114.664163 35.684375)scale(0.7)" xlink:href="#STIXGeneral-Regular-42"/>
      <use transform="translate(1164.181525 0.409375)" xlink:href="#ArialMT-41"/>
     </g>
    </g>
   </g>
  </g>
 </g>
 <defs>
  <clipPath id="pe3e7697e1e">
   <rect height="217.44" width="828" x="121.541" y="19.884063"/>
  </clipPath>
 </defs>
</svg>
