<?xml version="1.0" encoding="utf-8" standalone="no"?>
<!DOCTYPE svg PUBLIC "-//W3C//DTD SVG 1.1//EN"
  "http://www.w3.org/Graphics/SVG/1.1/DTD/svg11.dtd">
<!-- Created with matplotlib (https://matplotlib.org/) -->
<svg height="288pt" version="1.1" viewBox="0 0 1440 288" width="1440pt" xmlns="http://www.w3.org/2000/svg" xmlns:xlink="http://www.w3.org/1999/xlink">
 <defs>
  <style type="text/css">
*{stroke-linecap:butt;stroke-linejoin:round;}
  </style>
 </defs>
 <g id="figure_1">
  <g id="patch_1">
   <path d="M 0 288 
L 1440 288 
L 1440 0 
L 0 0 
z
" style="fill:#ffffff;"/>
  </g>
  <g id="axes_1">
   <g id="patch_2">
    <path d="M 180 252 
L 1008 252 
L 1008 34.56 
L 180 34.56 
z
" style="fill:#ffffff;"/>
   </g>
   <g id="PathCollection_1">
    <defs>
     <path d="M 0 3 
C 0.795609 3 1.55874 2.683901 2.12132 2.12132 
C 2.683901 1.55874 3 0.795609 3 0 
C 3 -0.795609 2.683901 -1.55874 2.12132 -2.12132 
C 1.55874 -2.683901 0.795609 -3 0 -3 
C -0.795609 -3 -1.55874 -2.683901 -2.12132 -2.12132 
C -2.683901 -1.55874 -3 -0.795609 -3 0 
C -3 0.795609 -2.683901 1.55874 -2.12132 2.12132 
C -1.55874 2.683901 -0.795609 3 0 3 
z
" id="m0f73f6c767" style="stroke:#ff0000;"/>
    </defs>
    <g clip-path="url(#p5fc1a82c8f)">
     <use style="fill:#ff0000;stroke:#ff0000;" x="468.461762" xlink:href="#m0f73f6c767" y="44.443636"/>
     <use style="fill:#ff0000;stroke:#ff0000;" x="468.712839" xlink:href="#m0f73f6c767" y="51.863851"/>
     <use style="fill:#ff0000;stroke:#ff0000;" x="468.963915" xlink:href="#m0f73f6c767" y="56.106215"/>
     <use style="fill:#ff0000;stroke:#ff0000;" x="469.214992" xlink:href="#m0f73f6c767" y="59.629082"/>
     <use style="fill:#ff0000;stroke:#ff0000;" x="469.466068" xlink:href="#m0f73f6c767" y="63.064815"/>
     <use style="fill:#ff0000;stroke:#ff0000;" x="469.717145" xlink:href="#m0f73f6c767" y="70.674302"/>
     <use style="fill:#ff0000;stroke:#ff0000;" x="469.968221" xlink:href="#m0f73f6c767" y="80.157749"/>
     <use style="fill:#ff0000;stroke:#ff0000;" x="470.219298" xlink:href="#m0f73f6c767" y="93.533687"/>
     <use style="fill:#ff0000;stroke:#ff0000;" x="470.470374" xlink:href="#m0f73f6c767" y="112.113365"/>
     <use style="fill:#ff0000;stroke:#ff0000;" x="470.721451" xlink:href="#m0f73f6c767" y="132.278813"/>
     <use style="fill:#ff0000;stroke:#ff0000;" x="470.972527" xlink:href="#m0f73f6c767" y="150.907908"/>
     <use style="fill:#ff0000;stroke:#ff0000;" x="471.223604" xlink:href="#m0f73f6c767" y="171.071064"/>
     <use style="fill:#ff0000;stroke:#ff0000;" x="474.989751" xlink:href="#m0f73f6c767" y="173.189955"/>
     <use style="fill:#ff0000;stroke:#ff0000;" x="475.240827" xlink:href="#m0f73f6c767" y="173.455235"/>
     <use style="fill:#ff0000;stroke:#ff0000;" x="475.491904" xlink:href="#m0f73f6c767" y="172.881262"/>
     <use style="fill:#ff0000;stroke:#ff0000;" x="719.538238" xlink:href="#m0f73f6c767" y="141.503349"/>
     <use style="fill:#ff0000;stroke:#ff0000;" x="719.789314" xlink:href="#m0f73f6c767" y="143.523584"/>
     <use style="fill:#ff0000;stroke:#ff0000;" x="720.040391" xlink:href="#m0f73f6c767" y="147.790544"/>
     <use style="fill:#ff0000;stroke:#ff0000;" x="720.291467" xlink:href="#m0f73f6c767" y="150.222895"/>
     <use style="fill:#ff0000;stroke:#ff0000;" x="720.542544" xlink:href="#m0f73f6c767" y="154.338334"/>
     <use style="fill:#ff0000;stroke:#ff0000;" x="720.79362" xlink:href="#m0f73f6c767" y="158.526186"/>
     <use style="fill:#ff0000;stroke:#ff0000;" x="721.044696" xlink:href="#m0f73f6c767" y="162.713313"/>
     <use style="fill:#ff0000;stroke:#ff0000;" x="721.295773" xlink:href="#m0f73f6c767" y="168.137498"/>
     <use style="fill:#ff0000;stroke:#ff0000;" x="721.546849" xlink:href="#m0f73f6c767" y="172.020401"/>
     <use style="fill:#ff0000;stroke:#ff0000;" x="770.506762" xlink:href="#m0f73f6c767" y="174.447224"/>
     <use style="fill:#ff0000;stroke:#ff0000;" x="770.757839" xlink:href="#m0f73f6c767" y="173.343716"/>
     <use style="fill:#ff0000;stroke:#ff0000;" x="771.008915" xlink:href="#m0f73f6c767" y="173.502763"/>
     <use style="fill:#ff0000;stroke:#ff0000;" x="771.259992" xlink:href="#m0f73f6c767" y="171.780889"/>
     <use style="fill:#ff0000;stroke:#ff0000;" x="771.511068" xlink:href="#m0f73f6c767" y="172.557117"/>
     <use style="fill:#ff0000;stroke:#ff0000;" x="771.762144" xlink:href="#m0f73f6c767" y="173.654498"/>
    </g>
   </g>
   <g id="matplotlib.axis_1">
    <g id="xtick_1">
     <g id="line2d_1">
      <path clip-path="url(#p5fc1a82c8f)" d="M 217.636364 252 
L 217.636364 34.56 
" style="fill:none;stroke:#b0b0b0;stroke-linecap:square;stroke-width:0.8;"/>
     </g>
     <g id="line2d_2">
      <defs>
       <path d="M 0 0 
L 0 3.5 
" id="m3928ed6b4e" style="stroke:#000000;stroke-width:0.8;"/>
      </defs>
      <g>
       <use style="stroke:#000000;stroke-width:0.8;" x="217.636364" xlink:href="#m3928ed6b4e" y="252"/>
      </g>
     </g>
     <g id="text_1">
      <!-- 0 -->
      <defs>
       <path d="M 4.15625 35.296875 
Q 4.15625 48 6.765625 55.734375 
Q 9.375 63.484375 14.515625 67.671875 
Q 19.671875 71.875 27.484375 71.875 
Q 33.25 71.875 37.59375 69.546875 
Q 41.9375 67.234375 44.765625 62.859375 
Q 47.609375 58.5 49.21875 52.21875 
Q 50.828125 45.953125 50.828125 35.296875 
Q 50.828125 22.703125 48.234375 14.96875 
Q 45.65625 7.234375 40.5 3 
Q 35.359375 -1.21875 27.484375 -1.21875 
Q 17.140625 -1.21875 11.234375 6.203125 
Q 4.15625 15.140625 4.15625 35.296875 
z
M 13.1875 35.296875 
Q 13.1875 17.671875 17.3125 11.828125 
Q 21.4375 6 27.484375 6 
Q 33.546875 6 37.671875 11.859375 
Q 41.796875 17.71875 41.796875 35.296875 
Q 41.796875 52.984375 37.671875 58.78125 
Q 33.546875 64.59375 27.390625 64.59375 
Q 21.34375 64.59375 17.71875 59.46875 
Q 13.1875 52.9375 13.1875 35.296875 
z
" id="ArialMT-48"/>
      </defs>
      <g transform="translate(210.407145 277.610313)scale(0.26 -0.26)">
       <use xlink:href="#ArialMT-48"/>
      </g>
     </g>
    </g>
    <g id="xtick_2">
     <g id="line2d_3">
      <path clip-path="url(#p5fc1a82c8f)" d="M 468.712839 252 
L 468.712839 34.56 
" style="fill:none;stroke:#b0b0b0;stroke-linecap:square;stroke-width:0.8;"/>
     </g>
     <g id="line2d_4">
      <g>
       <use style="stroke:#000000;stroke-width:0.8;" x="468.712839" xlink:href="#m3928ed6b4e" y="252"/>
      </g>
     </g>
     <g id="text_2">
      <!-- 1000 -->
      <defs>
       <path d="M 37.25 0 
L 28.46875 0 
L 28.46875 56 
Q 25.296875 52.984375 20.140625 49.953125 
Q 14.984375 46.921875 10.890625 45.40625 
L 10.890625 53.90625 
Q 18.265625 57.375 23.78125 62.296875 
Q 29.296875 67.234375 31.59375 71.875 
L 37.25 71.875 
z
" id="ArialMT-49"/>
      </defs>
      <g transform="translate(439.795964 277.610313)scale(0.26 -0.26)">
       <use xlink:href="#ArialMT-49"/>
       <use x="55.615234" xlink:href="#ArialMT-48"/>
       <use x="111.230469" xlink:href="#ArialMT-48"/>
       <use x="166.845703" xlink:href="#ArialMT-48"/>
      </g>
     </g>
    </g>
    <g id="xtick_3">
     <g id="line2d_5">
      <path clip-path="url(#p5fc1a82c8f)" d="M 719.789314 252 
L 719.789314 34.56 
" style="fill:none;stroke:#b0b0b0;stroke-linecap:square;stroke-width:0.8;"/>
     </g>
     <g id="line2d_6">
      <g>
       <use style="stroke:#000000;stroke-width:0.8;" x="719.789314" xlink:href="#m3928ed6b4e" y="252"/>
      </g>
     </g>
     <g id="text_3">
      <!-- 2000 -->
      <defs>
       <path d="M 50.34375 8.453125 
L 50.34375 0 
L 3.03125 0 
Q 2.9375 3.171875 4.046875 6.109375 
Q 5.859375 10.9375 9.828125 15.625 
Q 13.8125 20.3125 21.34375 26.46875 
Q 33.015625 36.03125 37.109375 41.625 
Q 41.21875 47.21875 41.21875 52.203125 
Q 41.21875 57.421875 37.46875 61 
Q 33.734375 64.59375 27.734375 64.59375 
Q 21.390625 64.59375 17.578125 60.78125 
Q 13.765625 56.984375 13.71875 50.25 
L 4.6875 51.171875 
Q 5.609375 61.28125 11.65625 66.578125 
Q 17.71875 71.875 27.9375 71.875 
Q 38.234375 71.875 44.234375 66.15625 
Q 50.25 60.453125 50.25 52 
Q 50.25 47.703125 48.484375 43.546875 
Q 46.734375 39.40625 42.65625 34.8125 
Q 38.578125 30.21875 29.109375 22.21875 
Q 21.1875 15.578125 18.9375 13.203125 
Q 16.703125 10.84375 15.234375 8.453125 
z
" id="ArialMT-50"/>
      </defs>
      <g transform="translate(690.872439 277.610313)scale(0.26 -0.26)">
       <use xlink:href="#ArialMT-50"/>
       <use x="55.615234" xlink:href="#ArialMT-48"/>
       <use x="111.230469" xlink:href="#ArialMT-48"/>
       <use x="166.845703" xlink:href="#ArialMT-48"/>
      </g>
     </g>
    </g>
    <g id="xtick_4">
     <g id="line2d_7">
      <path clip-path="url(#p5fc1a82c8f)" d="M 970.865789 252 
L 970.865789 34.56 
" style="fill:none;stroke:#b0b0b0;stroke-linecap:square;stroke-width:0.8;"/>
     </g>
     <g id="line2d_8">
      <g>
       <use style="stroke:#000000;stroke-width:0.8;" x="970.865789" xlink:href="#m3928ed6b4e" y="252"/>
      </g>
     </g>
     <g id="text_4">
      <!-- 3000 -->
      <defs>
       <path d="M 4.203125 18.890625 
L 12.984375 20.0625 
Q 14.5 12.59375 18.140625 9.296875 
Q 21.78125 6 27 6 
Q 33.203125 6 37.46875 10.296875 
Q 41.75 14.59375 41.75 20.953125 
Q 41.75 27 37.796875 30.921875 
Q 33.84375 34.859375 27.734375 34.859375 
Q 25.25 34.859375 21.53125 33.890625 
L 22.515625 41.609375 
Q 23.390625 41.5 23.921875 41.5 
Q 29.546875 41.5 34.03125 44.421875 
Q 38.53125 47.359375 38.53125 53.46875 
Q 38.53125 58.296875 35.25 61.46875 
Q 31.984375 64.65625 26.8125 64.65625 
Q 21.6875 64.65625 18.265625 61.421875 
Q 14.84375 58.203125 13.875 51.765625 
L 5.078125 53.328125 
Q 6.6875 62.15625 12.390625 67.015625 
Q 18.109375 71.875 26.609375 71.875 
Q 32.46875 71.875 37.390625 69.359375 
Q 42.328125 66.84375 44.9375 62.5 
Q 47.5625 58.15625 47.5625 53.265625 
Q 47.5625 48.640625 45.0625 44.828125 
Q 42.578125 41.015625 37.703125 38.765625 
Q 44.046875 37.3125 47.5625 32.6875 
Q 51.078125 28.078125 51.078125 21.140625 
Q 51.078125 11.765625 44.234375 5.25 
Q 37.40625 -1.265625 26.953125 -1.265625 
Q 17.53125 -1.265625 11.296875 4.34375 
Q 5.078125 9.96875 4.203125 18.890625 
z
" id="ArialMT-51"/>
      </defs>
      <g transform="translate(941.948914 277.610313)scale(0.26 -0.26)">
       <use xlink:href="#ArialMT-51"/>
       <use x="55.615234" xlink:href="#ArialMT-48"/>
       <use x="111.230469" xlink:href="#ArialMT-48"/>
       <use x="166.845703" xlink:href="#ArialMT-48"/>
      </g>
     </g>
    </g>
    <g id="text_5">
     <!-- # sample -->
     <defs>
      <path d="M 5.03125 -1.21875 
L 9.28125 19.578125 
L 1.03125 19.578125 
L 1.03125 26.859375 
L 10.75 26.859375 
L 14.359375 44.578125 
L 1.03125 44.578125 
L 1.03125 51.859375 
L 15.828125 51.859375 
L 20.0625 72.796875 
L 27.390625 72.796875 
L 23.140625 51.859375 
L 38.53125 51.859375 
L 42.78125 72.796875 
L 50.140625 72.796875 
L 45.90625 51.859375 
L 54.34375 51.859375 
L 54.34375 44.578125 
L 44.4375 44.578125 
L 40.765625 26.859375 
L 54.34375 26.859375 
L 54.34375 19.578125 
L 39.3125 19.578125 
L 35.0625 -1.21875 
L 27.734375 -1.21875 
L 31.9375 19.578125 
L 16.609375 19.578125 
L 12.359375 -1.21875 
z
M 18.0625 26.859375 
L 33.40625 26.859375 
L 37.0625 44.578125 
L 21.6875 44.578125 
z
" id="ArialMT-35"/>
      <path id="ArialMT-32"/>
      <path d="M 3.078125 15.484375 
L 11.765625 16.84375 
Q 12.5 11.625 15.84375 8.84375 
Q 19.1875 6.0625 25.203125 6.0625 
Q 31.25 6.0625 34.171875 8.515625 
Q 37.109375 10.984375 37.109375 14.3125 
Q 37.109375 17.28125 34.515625 19 
Q 32.71875 20.171875 25.53125 21.96875 
Q 15.875 24.421875 12.140625 26.203125 
Q 8.40625 27.984375 6.46875 31.125 
Q 4.546875 34.28125 4.546875 38.09375 
Q 4.546875 41.546875 6.125 44.5 
Q 7.71875 47.46875 10.453125 49.421875 
Q 12.5 50.921875 16.03125 51.96875 
Q 19.578125 53.03125 23.640625 53.03125 
Q 29.734375 53.03125 34.34375 51.265625 
Q 38.96875 49.515625 41.15625 46.5 
Q 43.359375 43.5 44.1875 38.484375 
L 35.59375 37.3125 
Q 35.015625 41.3125 32.203125 43.546875 
Q 29.390625 45.796875 24.265625 45.796875 
Q 18.21875 45.796875 15.625 43.796875 
Q 13.03125 41.796875 13.03125 39.109375 
Q 13.03125 37.40625 14.109375 36.03125 
Q 15.1875 34.625 17.484375 33.6875 
Q 18.796875 33.203125 25.25 31.453125 
Q 34.578125 28.953125 38.25 27.359375 
Q 41.9375 25.78125 44.03125 22.75 
Q 46.140625 19.734375 46.140625 15.234375 
Q 46.140625 10.84375 43.578125 6.953125 
Q 41.015625 3.078125 36.171875 0.953125 
Q 31.34375 -1.171875 25.25 -1.171875 
Q 15.140625 -1.171875 9.84375 3.03125 
Q 4.546875 7.234375 3.078125 15.484375 
z
" id="ArialMT-115"/>
      <path d="M 40.4375 6.390625 
Q 35.546875 2.25 31.03125 0.53125 
Q 26.515625 -1.171875 21.34375 -1.171875 
Q 12.796875 -1.171875 8.203125 3 
Q 3.609375 7.171875 3.609375 13.671875 
Q 3.609375 17.484375 5.34375 20.625 
Q 7.078125 23.78125 9.890625 25.6875 
Q 12.703125 27.59375 16.21875 28.5625 
Q 18.796875 29.25 24.03125 29.890625 
Q 34.671875 31.15625 39.703125 32.90625 
Q 39.75 34.71875 39.75 35.203125 
Q 39.75 40.578125 37.25 42.78125 
Q 33.890625 45.75 27.25 45.75 
Q 21.046875 45.75 18.09375 43.578125 
Q 15.140625 41.40625 13.71875 35.890625 
L 5.125 37.0625 
Q 6.296875 42.578125 8.984375 45.96875 
Q 11.671875 49.359375 16.75 51.1875 
Q 21.828125 53.03125 28.515625 53.03125 
Q 35.15625 53.03125 39.296875 51.46875 
Q 43.453125 49.90625 45.40625 47.53125 
Q 47.359375 45.171875 48.140625 41.546875 
Q 48.578125 39.3125 48.578125 33.453125 
L 48.578125 21.734375 
Q 48.578125 9.46875 49.140625 6.21875 
Q 49.703125 2.984375 51.375 0 
L 42.1875 0 
Q 40.828125 2.734375 40.4375 6.390625 
z
M 39.703125 26.03125 
Q 34.90625 24.078125 25.34375 22.703125 
Q 19.921875 21.921875 17.671875 20.9375 
Q 15.4375 19.96875 14.203125 18.09375 
Q 12.984375 16.21875 12.984375 13.921875 
Q 12.984375 10.40625 15.640625 8.0625 
Q 18.3125 5.71875 23.4375 5.71875 
Q 28.515625 5.71875 32.46875 7.9375 
Q 36.421875 10.15625 38.28125 14.015625 
Q 39.703125 17 39.703125 22.796875 
z
" id="ArialMT-97"/>
      <path d="M 6.59375 0 
L 6.59375 51.859375 
L 14.453125 51.859375 
L 14.453125 44.578125 
Q 16.890625 48.390625 20.9375 50.703125 
Q 25 53.03125 30.171875 53.03125 
Q 35.9375 53.03125 39.625 50.640625 
Q 43.3125 48.25 44.828125 43.953125 
Q 50.984375 53.03125 60.84375 53.03125 
Q 68.5625 53.03125 72.703125 48.75 
Q 76.859375 44.484375 76.859375 35.59375 
L 76.859375 0 
L 68.109375 0 
L 68.109375 32.671875 
Q 68.109375 37.9375 67.25 40.25 
Q 66.40625 42.578125 64.15625 43.984375 
Q 61.921875 45.40625 58.890625 45.40625 
Q 53.421875 45.40625 49.796875 41.765625 
Q 46.1875 38.140625 46.1875 30.125 
L 46.1875 0 
L 37.40625 0 
L 37.40625 33.6875 
Q 37.40625 39.546875 35.25 42.46875 
Q 33.109375 45.40625 28.21875 45.40625 
Q 24.515625 45.40625 21.359375 43.453125 
Q 18.21875 41.5 16.796875 37.734375 
Q 15.375 33.984375 15.375 26.90625 
L 15.375 0 
z
" id="ArialMT-109"/>
      <path d="M 6.59375 -19.875 
L 6.59375 51.859375 
L 14.59375 51.859375 
L 14.59375 45.125 
Q 17.4375 49.078125 21 51.046875 
Q 24.5625 53.03125 29.640625 53.03125 
Q 36.28125 53.03125 41.359375 49.609375 
Q 46.4375 46.1875 49.015625 39.953125 
Q 51.609375 33.734375 51.609375 26.3125 
Q 51.609375 18.359375 48.75 11.984375 
Q 45.90625 5.609375 40.453125 2.21875 
Q 35.015625 -1.171875 29 -1.171875 
Q 24.609375 -1.171875 21.109375 0.6875 
Q 17.625 2.546875 15.375 5.375 
L 15.375 -19.875 
z
M 14.546875 25.640625 
Q 14.546875 15.625 18.59375 10.84375 
Q 22.65625 6.0625 28.421875 6.0625 
Q 34.28125 6.0625 38.453125 11.015625 
Q 42.625 15.96875 42.625 26.375 
Q 42.625 36.28125 38.546875 41.203125 
Q 34.46875 46.140625 28.8125 46.140625 
Q 23.1875 46.140625 18.859375 40.890625 
Q 14.546875 35.640625 14.546875 25.640625 
z
" id="ArialMT-112"/>
      <path d="M 6.390625 0 
L 6.390625 71.578125 
L 15.1875 71.578125 
L 15.1875 0 
z
" id="ArialMT-108"/>
      <path d="M 42.09375 16.703125 
L 51.171875 15.578125 
Q 49.03125 7.625 43.21875 3.21875 
Q 37.40625 -1.171875 28.375 -1.171875 
Q 17 -1.171875 10.328125 5.828125 
Q 3.65625 12.84375 3.65625 25.484375 
Q 3.65625 38.578125 10.390625 45.796875 
Q 17.140625 53.03125 27.875 53.03125 
Q 38.28125 53.03125 44.875 45.953125 
Q 51.46875 38.875 51.46875 26.03125 
Q 51.46875 25.25 51.421875 23.6875 
L 12.75 23.6875 
Q 13.234375 15.140625 17.578125 10.59375 
Q 21.921875 6.0625 28.421875 6.0625 
Q 33.25 6.0625 36.671875 8.59375 
Q 40.09375 11.140625 42.09375 16.703125 
z
M 13.234375 30.90625 
L 42.1875 30.90625 
Q 41.609375 37.453125 38.875 40.71875 
Q 34.671875 45.796875 27.984375 45.796875 
Q 21.921875 45.796875 17.796875 41.75 
Q 13.671875 37.703125 13.234375 30.90625 
z
" id="ArialMT-101"/>
     </defs>
     <g transform="translate(541.254531 305.705)scale(0.26 -0.26)">
      <use xlink:href="#ArialMT-35"/>
      <use x="55.615234" xlink:href="#ArialMT-32"/>
      <use x="83.398438" xlink:href="#ArialMT-115"/>
      <use x="133.398438" xlink:href="#ArialMT-97"/>
      <use x="189.013672" xlink:href="#ArialMT-109"/>
      <use x="272.314453" xlink:href="#ArialMT-112"/>
      <use x="327.929688" xlink:href="#ArialMT-108"/>
      <use x="350.146484" xlink:href="#ArialMT-101"/>
     </g>
    </g>
   </g>
   <g id="matplotlib.axis_2">
    <g id="ytick_1">
     <g id="line2d_9">
      <path clip-path="url(#p5fc1a82c8f)" d="M 180 242.121461 
L 1008 242.121461 
" style="fill:none;stroke:#b0b0b0;stroke-linecap:square;stroke-width:0.8;"/>
     </g>
     <g id="line2d_10">
      <defs>
       <path d="M 0 0 
L -3.5 0 
" id="mb490a8d72b" style="stroke:#000000;stroke-width:0.8;"/>
      </defs>
      <g>
       <use style="stroke:#000000;stroke-width:0.8;" x="180" xlink:href="#mb490a8d72b" y="242.121461"/>
      </g>
     </g>
     <g id="text_6">
      <!-- 0 -->
      <g transform="translate(158.541562 251.426618)scale(0.26 -0.26)">
       <use xlink:href="#ArialMT-48"/>
      </g>
     </g>
    </g>
    <g id="ytick_2">
     <g id="line2d_11">
      <path clip-path="url(#p5fc1a82c8f)" d="M 180 173.080183 
L 1008 173.080183 
" style="fill:none;stroke:#b0b0b0;stroke-linecap:square;stroke-width:0.8;"/>
     </g>
     <g id="line2d_12">
      <g>
       <use style="stroke:#000000;stroke-width:0.8;" x="180" xlink:href="#mb490a8d72b" y="173.080183"/>
      </g>
     </g>
     <g id="text_7">
      <!-- 200 -->
      <g transform="translate(129.624687 182.385339)scale(0.26 -0.26)">
       <use xlink:href="#ArialMT-50"/>
       <use x="55.615234" xlink:href="#ArialMT-48"/>
       <use x="111.230469" xlink:href="#ArialMT-48"/>
      </g>
     </g>
    </g>
    <g id="ytick_3">
     <g id="line2d_13">
      <path clip-path="url(#p5fc1a82c8f)" d="M 180 104.038905 
L 1008 104.038905 
" style="fill:none;stroke:#b0b0b0;stroke-linecap:square;stroke-width:0.8;"/>
     </g>
     <g id="line2d_14">
      <g>
       <use style="stroke:#000000;stroke-width:0.8;" x="180" xlink:href="#mb490a8d72b" y="104.038905"/>
      </g>
     </g>
     <g id="text_8">
      <!-- 400 -->
      <defs>
       <path d="M 32.328125 0 
L 32.328125 17.140625 
L 1.265625 17.140625 
L 1.265625 25.203125 
L 33.9375 71.578125 
L 41.109375 71.578125 
L 41.109375 25.203125 
L 50.78125 25.203125 
L 50.78125 17.140625 
L 41.109375 17.140625 
L 41.109375 0 
z
M 32.328125 25.203125 
L 32.328125 57.46875 
L 9.90625 25.203125 
z
" id="ArialMT-52"/>
      </defs>
      <g transform="translate(129.624687 113.344061)scale(0.26 -0.26)">
       <use xlink:href="#ArialMT-52"/>
       <use x="55.615234" xlink:href="#ArialMT-48"/>
       <use x="111.230469" xlink:href="#ArialMT-48"/>
      </g>
     </g>
    </g>
    <g id="ytick_4">
     <g id="line2d_15">
      <path clip-path="url(#p5fc1a82c8f)" d="M 180 34.997626 
L 1008 34.997626 
" style="fill:none;stroke:#b0b0b0;stroke-linecap:square;stroke-width:0.8;"/>
     </g>
     <g id="line2d_16">
      <g>
       <use style="stroke:#000000;stroke-width:0.8;" x="180" xlink:href="#mb490a8d72b" y="34.997626"/>
      </g>
     </g>
     <g id="text_9">
      <!-- 600 -->
      <defs>
       <path d="M 49.75 54.046875 
L 41.015625 53.375 
Q 39.84375 58.546875 37.703125 60.890625 
Q 34.125 64.65625 28.90625 64.65625 
Q 24.703125 64.65625 21.53125 62.3125 
Q 17.390625 59.28125 14.984375 53.46875 
Q 12.59375 47.65625 12.5 36.921875 
Q 15.671875 41.75 20.265625 44.09375 
Q 24.859375 46.4375 29.890625 46.4375 
Q 38.671875 46.4375 44.84375 39.96875 
Q 51.03125 33.5 51.03125 23.25 
Q 51.03125 16.5 48.125 10.71875 
Q 45.21875 4.9375 40.140625 1.859375 
Q 35.0625 -1.21875 28.609375 -1.21875 
Q 17.625 -1.21875 10.6875 6.859375 
Q 3.765625 14.9375 3.765625 33.5 
Q 3.765625 54.25 11.421875 63.671875 
Q 18.109375 71.875 29.4375 71.875 
Q 37.890625 71.875 43.28125 67.140625 
Q 48.6875 62.40625 49.75 54.046875 
z
M 13.875 23.1875 
Q 13.875 18.65625 15.796875 14.5 
Q 17.71875 10.359375 21.1875 8.171875 
Q 24.65625 6 28.46875 6 
Q 34.03125 6 38.03125 10.484375 
Q 42.046875 14.984375 42.046875 22.703125 
Q 42.046875 30.125 38.078125 34.390625 
Q 34.125 38.671875 28.125 38.671875 
Q 22.171875 38.671875 18.015625 34.390625 
Q 13.875 30.125 13.875 23.1875 
z
" id="ArialMT-54"/>
      </defs>
      <g transform="translate(129.624687 44.302782)scale(0.26 -0.26)">
       <use xlink:href="#ArialMT-54"/>
       <use x="55.615234" xlink:href="#ArialMT-48"/>
       <use x="111.230469" xlink:href="#ArialMT-48"/>
      </g>
     </g>
    </g>
    <g id="text_10">
     <!-- Change-point score  -->
     <defs>
      <path d="M 58.796875 25.09375 
L 68.265625 22.703125 
Q 65.28125 11.03125 57.546875 4.90625 
Q 49.8125 -1.21875 38.625 -1.21875 
Q 27.046875 -1.21875 19.796875 3.484375 
Q 12.546875 8.203125 8.765625 17.140625 
Q 4.984375 26.078125 4.984375 36.328125 
Q 4.984375 47.515625 9.25 55.828125 
Q 13.53125 64.15625 21.40625 68.46875 
Q 29.296875 72.796875 38.765625 72.796875 
Q 49.515625 72.796875 56.828125 67.328125 
Q 64.15625 61.859375 67.046875 51.953125 
L 57.71875 49.75 
Q 55.21875 57.5625 50.484375 61.125 
Q 45.75 64.703125 38.578125 64.703125 
Q 30.328125 64.703125 24.78125 60.734375 
Q 19.234375 56.78125 16.984375 50.109375 
Q 14.75 43.453125 14.75 36.375 
Q 14.75 27.25 17.40625 20.4375 
Q 20.0625 13.625 25.671875 10.25 
Q 31.296875 6.890625 37.84375 6.890625 
Q 45.796875 6.890625 51.3125 11.46875 
Q 56.84375 16.0625 58.796875 25.09375 
z
" id="ArialMT-67"/>
      <path d="M 6.59375 0 
L 6.59375 71.578125 
L 15.375 71.578125 
L 15.375 45.90625 
Q 21.53125 53.03125 30.90625 53.03125 
Q 36.671875 53.03125 40.921875 50.75 
Q 45.171875 48.484375 47 44.484375 
Q 48.828125 40.484375 48.828125 32.859375 
L 48.828125 0 
L 40.046875 0 
L 40.046875 32.859375 
Q 40.046875 39.453125 37.1875 42.453125 
Q 34.328125 45.453125 29.109375 45.453125 
Q 25.203125 45.453125 21.75 43.421875 
Q 18.3125 41.40625 16.84375 37.9375 
Q 15.375 34.46875 15.375 28.375 
L 15.375 0 
z
" id="ArialMT-104"/>
      <path d="M 6.59375 0 
L 6.59375 51.859375 
L 14.5 51.859375 
L 14.5 44.484375 
Q 20.21875 53.03125 31 53.03125 
Q 35.6875 53.03125 39.625 51.34375 
Q 43.5625 49.65625 45.515625 46.921875 
Q 47.46875 44.1875 48.25 40.4375 
Q 48.734375 37.984375 48.734375 31.890625 
L 48.734375 0 
L 39.9375 0 
L 39.9375 31.546875 
Q 39.9375 36.921875 38.90625 39.578125 
Q 37.890625 42.234375 35.28125 43.8125 
Q 32.671875 45.40625 29.15625 45.40625 
Q 23.53125 45.40625 19.453125 41.84375 
Q 15.375 38.28125 15.375 28.328125 
L 15.375 0 
z
" id="ArialMT-110"/>
      <path d="M 4.984375 -4.296875 
L 13.53125 -5.5625 
Q 14.0625 -9.515625 16.5 -11.328125 
Q 19.78125 -13.765625 25.4375 -13.765625 
Q 31.546875 -13.765625 34.859375 -11.328125 
Q 38.1875 -8.890625 39.359375 -4.5 
Q 40.046875 -1.8125 39.984375 6.78125 
Q 34.234375 0 25.640625 0 
Q 14.9375 0 9.078125 7.71875 
Q 3.21875 15.4375 3.21875 26.21875 
Q 3.21875 33.640625 5.90625 39.90625 
Q 8.59375 46.1875 13.6875 49.609375 
Q 18.796875 53.03125 25.6875 53.03125 
Q 34.859375 53.03125 40.828125 45.609375 
L 40.828125 51.859375 
L 48.921875 51.859375 
L 48.921875 7.03125 
Q 48.921875 -5.078125 46.453125 -10.125 
Q 44 -15.1875 38.640625 -18.109375 
Q 33.296875 -21.046875 25.484375 -21.046875 
Q 16.21875 -21.046875 10.5 -16.875 
Q 4.78125 -12.703125 4.984375 -4.296875 
z
M 12.25 26.859375 
Q 12.25 16.65625 16.296875 11.96875 
Q 20.359375 7.28125 26.46875 7.28125 
Q 32.515625 7.28125 36.609375 11.9375 
Q 40.71875 16.609375 40.71875 26.5625 
Q 40.71875 36.078125 36.5 40.90625 
Q 32.28125 45.75 26.3125 45.75 
Q 20.453125 45.75 16.34375 40.984375 
Q 12.25 36.234375 12.25 26.859375 
z
" id="ArialMT-103"/>
      <path d="M 3.171875 21.484375 
L 3.171875 30.328125 
L 30.171875 30.328125 
L 30.171875 21.484375 
z
" id="ArialMT-45"/>
      <path d="M 3.328125 25.921875 
Q 3.328125 40.328125 11.328125 47.265625 
Q 18.015625 53.03125 27.640625 53.03125 
Q 38.328125 53.03125 45.109375 46.015625 
Q 51.90625 39.015625 51.90625 26.65625 
Q 51.90625 16.65625 48.90625 10.90625 
Q 45.90625 5.171875 40.15625 2 
Q 34.421875 -1.171875 27.640625 -1.171875 
Q 16.75 -1.171875 10.03125 5.8125 
Q 3.328125 12.796875 3.328125 25.921875 
z
M 12.359375 25.921875 
Q 12.359375 15.96875 16.703125 11.015625 
Q 21.046875 6.0625 27.640625 6.0625 
Q 34.1875 6.0625 38.53125 11.03125 
Q 42.875 16.015625 42.875 26.21875 
Q 42.875 35.84375 38.5 40.796875 
Q 34.125 45.75 27.640625 45.75 
Q 21.046875 45.75 16.703125 40.8125 
Q 12.359375 35.890625 12.359375 25.921875 
z
" id="ArialMT-111"/>
      <path d="M 6.640625 61.46875 
L 6.640625 71.578125 
L 15.4375 71.578125 
L 15.4375 61.46875 
z
M 6.640625 0 
L 6.640625 51.859375 
L 15.4375 51.859375 
L 15.4375 0 
z
" id="ArialMT-105"/>
      <path d="M 25.78125 7.859375 
L 27.046875 0.09375 
Q 23.34375 -0.6875 20.40625 -0.6875 
Q 15.625 -0.6875 12.984375 0.828125 
Q 10.359375 2.34375 9.28125 4.8125 
Q 8.203125 7.28125 8.203125 15.1875 
L 8.203125 45.015625 
L 1.765625 45.015625 
L 1.765625 51.859375 
L 8.203125 51.859375 
L 8.203125 64.703125 
L 16.9375 69.96875 
L 16.9375 51.859375 
L 25.78125 51.859375 
L 25.78125 45.015625 
L 16.9375 45.015625 
L 16.9375 14.703125 
Q 16.9375 10.9375 17.40625 9.859375 
Q 17.875 8.796875 18.921875 8.15625 
Q 19.96875 7.515625 21.921875 7.515625 
Q 23.390625 7.515625 25.78125 7.859375 
z
" id="ArialMT-116"/>
      <path d="M 40.4375 19 
L 49.078125 17.875 
Q 47.65625 8.9375 41.8125 3.875 
Q 35.984375 -1.171875 27.484375 -1.171875 
Q 16.84375 -1.171875 10.375 5.78125 
Q 3.90625 12.75 3.90625 25.734375 
Q 3.90625 34.125 6.6875 40.421875 
Q 9.46875 46.734375 15.15625 49.875 
Q 20.84375 53.03125 27.546875 53.03125 
Q 35.984375 53.03125 41.359375 48.75 
Q 46.734375 44.484375 48.25 36.625 
L 39.703125 35.296875 
Q 38.484375 40.53125 35.375 43.15625 
Q 32.28125 45.796875 27.875 45.796875 
Q 21.234375 45.796875 17.078125 41.03125 
Q 12.9375 36.28125 12.9375 25.984375 
Q 12.9375 15.53125 16.9375 10.796875 
Q 20.953125 6.0625 27.390625 6.0625 
Q 32.5625 6.0625 36.03125 9.234375 
Q 39.5 12.40625 40.4375 19 
z
" id="ArialMT-99"/>
      <path d="M 6.5 0 
L 6.5 51.859375 
L 14.40625 51.859375 
L 14.40625 44 
Q 17.4375 49.515625 20 51.265625 
Q 22.5625 53.03125 25.640625 53.03125 
Q 30.078125 53.03125 34.671875 50.203125 
L 31.640625 42.046875 
Q 28.421875 43.953125 25.203125 43.953125 
Q 22.3125 43.953125 20.015625 42.21875 
Q 17.71875 40.484375 16.75 37.40625 
Q 15.28125 32.71875 15.28125 27.15625 
L 15.28125 0 
z
" id="ArialMT-114"/>
     </defs>
     <g transform="translate(91.967687 260.340937)rotate(-90)scale(0.26 -0.26)">
      <use xlink:href="#ArialMT-67"/>
      <use x="72.216797" xlink:href="#ArialMT-104"/>
      <use x="127.832031" xlink:href="#ArialMT-97"/>
      <use x="183.447266" xlink:href="#ArialMT-110"/>
      <use x="239.0625" xlink:href="#ArialMT-103"/>
      <use x="294.677734" xlink:href="#ArialMT-101"/>
      <use x="350.292969" xlink:href="#ArialMT-45"/>
      <use x="383.59375" xlink:href="#ArialMT-112"/>
      <use x="439.208984" xlink:href="#ArialMT-111"/>
      <use x="494.824219" xlink:href="#ArialMT-105"/>
      <use x="517.041016" xlink:href="#ArialMT-110"/>
      <use x="572.65625" xlink:href="#ArialMT-116"/>
      <use x="600.439453" xlink:href="#ArialMT-32"/>
      <use x="628.222656" xlink:href="#ArialMT-115"/>
      <use x="678.222656" xlink:href="#ArialMT-99"/>
      <use x="728.222656" xlink:href="#ArialMT-111"/>
      <use x="783.837891" xlink:href="#ArialMT-114"/>
      <use x="817.138672" xlink:href="#ArialMT-101"/>
      <use x="872.753906" xlink:href="#ArialMT-32"/>
     </g>
     <!-- (KL div.) -->
     <defs>
      <path d="M 23.390625 -21.046875 
Q 16.109375 -11.859375 11.078125 0.4375 
Q 6.0625 12.75 6.0625 25.921875 
Q 6.0625 37.546875 9.8125 48.1875 
Q 14.203125 60.546875 23.390625 72.796875 
L 29.6875 72.796875 
Q 23.78125 62.640625 21.875 58.296875 
Q 18.890625 51.5625 17.1875 44.234375 
Q 15.09375 35.109375 15.09375 25.875 
Q 15.09375 2.390625 29.6875 -21.046875 
z
" id="ArialMT-40"/>
      <path d="M 7.328125 0 
L 7.328125 71.578125 
L 16.796875 71.578125 
L 16.796875 36.078125 
L 52.34375 71.578125 
L 65.1875 71.578125 
L 35.15625 42.578125 
L 66.5 0 
L 54 0 
L 28.515625 36.234375 
L 16.796875 24.8125 
L 16.796875 0 
z
" id="ArialMT-75"/>
      <path d="M 7.328125 0 
L 7.328125 71.578125 
L 16.796875 71.578125 
L 16.796875 8.453125 
L 52.046875 8.453125 
L 52.046875 0 
z
" id="ArialMT-76"/>
      <path d="M 40.234375 0 
L 40.234375 6.546875 
Q 35.296875 -1.171875 25.734375 -1.171875 
Q 19.53125 -1.171875 14.328125 2.25 
Q 9.125 5.671875 6.265625 11.796875 
Q 3.421875 17.921875 3.421875 25.875 
Q 3.421875 33.640625 6 39.96875 
Q 8.59375 46.296875 13.765625 49.65625 
Q 18.953125 53.03125 25.34375 53.03125 
Q 30.03125 53.03125 33.6875 51.046875 
Q 37.359375 49.078125 39.65625 45.90625 
L 39.65625 71.578125 
L 48.390625 71.578125 
L 48.390625 0 
z
M 12.453125 25.875 
Q 12.453125 15.921875 16.640625 10.984375 
Q 20.84375 6.0625 26.5625 6.0625 
Q 32.328125 6.0625 36.34375 10.765625 
Q 40.375 15.484375 40.375 25.140625 
Q 40.375 35.796875 36.265625 40.765625 
Q 32.171875 45.75 26.171875 45.75 
Q 20.3125 45.75 16.375 40.96875 
Q 12.453125 36.1875 12.453125 25.875 
z
" id="ArialMT-100"/>
      <path d="M 21 0 
L 1.265625 51.859375 
L 10.546875 51.859375 
L 21.6875 20.796875 
Q 23.484375 15.765625 25 10.359375 
Q 26.171875 14.453125 28.265625 20.21875 
L 39.796875 51.859375 
L 48.828125 51.859375 
L 29.203125 0 
z
" id="ArialMT-118"/>
      <path d="M 9.078125 0 
L 9.078125 10.015625 
L 19.09375 10.015625 
L 19.09375 0 
z
" id="ArialMT-46"/>
      <path d="M 12.359375 -21.046875 
L 6.0625 -21.046875 
Q 20.65625 2.390625 20.65625 25.875 
Q 20.65625 35.0625 18.5625 44.09375 
Q 16.890625 51.421875 13.921875 58.15625 
Q 12.015625 62.546875 6.0625 72.796875 
L 12.359375 72.796875 
Q 21.53125 60.546875 25.921875 48.1875 
Q 29.6875 37.546875 29.6875 25.921875 
Q 29.6875 12.75 24.625 0.4375 
Q 19.578125 -11.859375 12.359375 -21.046875 
z
" id="ArialMT-41"/>
     </defs>
     <g transform="translate(120.1525 190.232344)rotate(-90)scale(0.26 -0.26)">
      <use xlink:href="#ArialMT-40"/>
      <use x="33.300781" xlink:href="#ArialMT-75"/>
      <use x="100" xlink:href="#ArialMT-76"/>
      <use x="151.865234" xlink:href="#ArialMT-32"/>
      <use x="179.648438" xlink:href="#ArialMT-100"/>
      <use x="235.263672" xlink:href="#ArialMT-105"/>
      <use x="257.480469" xlink:href="#ArialMT-118"/>
      <use x="300.105469" xlink:href="#ArialMT-46"/>
      <use x="327.888672" xlink:href="#ArialMT-41"/>
     </g>
    </g>
   </g>
   <g id="line2d_17">
    <path clip-path="url(#p5fc1a82c8f)" d="M 217.636364 184.885744 
L 217.88744 213.177645 
L 218.138517 227.364874 
L 218.389593 234.432072 
L 218.64067 237.949193 
L 218.891746 239.642134 
L 219.142822 240.445533 
L 219.393899 240.738058 
L 219.644975 240.736739 
L 219.896052 240.510931 
L 220.147128 240.050709 
L 220.398205 239.339349 
L 220.900358 236.781633 
L 221.904664 230.769686 
L 222.15574 230.145826 
L 222.406817 230.433607 
L 222.657893 231.628407 
L 222.90897 232.183342 
L 223.662199 236.270126 
L 224.164352 238.288271 
L 224.917581 239.847646 
L 225.419734 240.208747 
L 225.670811 240.225126 
L 225.921887 240.415907 
L 226.172964 240.294642 
L 226.42404 240.319577 
L 227.679423 239.103182 
L 227.930499 238.325489 
L 228.432652 238.431673 
L 228.683729 238.016593 
L 228.934805 237.04502 
L 229.185881 237.754066 
L 229.688034 237.128672 
L 229.939111 237.627425 
L 230.190187 237.628195 
L 230.69234 238.062897 
L 230.943417 238.082875 
L 231.44557 237.144309 
L 231.696646 239.050213 
L 231.947723 238.800013 
L 232.198799 238.894991 
L 232.449876 238.769319 
L 233.203105 239.869778 
L 233.454182 239.569562 
L 233.705258 240.189425 
L 233.956335 239.836392 
L 234.458487 240.302636 
L 234.709564 239.995628 
L 234.96064 240.116898 
L 235.211717 240.539535 
L 235.71387 239.678316 
L 235.964946 239.887622 
L 236.216023 239.273467 
L 236.467099 239.701493 
L 236.718176 239.583318 
L 236.969252 239.124026 
L 237.471405 239.762934 
L 237.722482 238.8863 
L 237.973558 239.25261 
L 238.224635 238.92732 
L 238.726788 239.177633 
L 238.977864 238.908305 
L 239.480017 238.907891 
L 239.731093 239.630235 
L 239.98217 239.550572 
L 240.233246 239.756927 
L 240.484323 239.679455 
L 240.735399 239.311577 
L 240.986476 239.261144 
L 241.237552 239.807152 
L 241.488629 239.243269 
L 241.739705 239.760458 
L 242.241858 239.535592 
L 242.492935 239.720114 
L 242.744011 239.699281 
L 242.995088 239.524324 
L 243.497241 240.174559 
L 243.748317 239.909505 
L 243.999394 239.847868 
L 244.25047 239.074576 
L 244.752623 239.760622 
L 245.003699 239.751449 
L 245.254776 239.588381 
L 245.505852 239.21868 
L 245.756929 239.560829 
L 246.259082 239.060448 
L 246.510158 239.608751 
L 246.761235 239.797841 
L 247.263388 238.984082 
L 247.514464 239.694279 
L 247.765541 239.516005 
L 248.016617 239.593604 
L 248.51877 239.993253 
L 248.769847 239.730194 
L 249.020923 239.916281 
L 249.272 240.644641 
L 249.523076 240.287806 
L 249.774152 240.367043 
L 250.025229 240.244306 
L 250.276305 240.554085 
L 250.527382 240.547449 
L 251.029535 241.09079 
L 251.280611 240.430116 
L 251.782764 240.870635 
L 252.033841 240.391367 
L 252.284917 240.796078 
L 252.535994 240.559946 
L 253.038147 240.688899 
L 253.289223 240.534702 
L 253.5403 240.843036 
L 253.791376 240.86467 
L 254.042453 240.496633 
L 254.544605 240.606945 
L 254.795682 240.202235 
L 255.046758 240.267693 
L 255.548911 240.729215 
L 256.051064 240.371376 
L 256.302141 240.467799 
L 256.553217 240.303742 
L 256.804294 239.872976 
L 257.05537 240.085853 
L 257.306447 239.518311 
L 257.557523 239.849211 
L 257.8086 239.356638 
L 258.059676 239.750297 
L 258.812906 239.440479 
L 259.063982 239.699428 
L 259.315059 239.756448 
L 259.566135 239.599746 
L 259.817211 240.100773 
L 260.068288 239.674412 
L 260.319364 240.471301 
L 260.570441 239.855749 
L 260.821517 240.261246 
L 261.072594 240.232103 
L 261.32367 240.49595 
L 261.825823 240.439915 
L 262.0769 240.72336 
L 262.327976 240.464486 
L 262.579053 240.439476 
L 262.830129 240.671989 
L 263.081206 240.723781 
L 263.332282 240.382651 
L 263.583359 240.883369 
L 263.834435 240.794111 
L 264.085512 240.586888 
L 264.336588 241.224884 
L 264.587665 240.565939 
L 264.838741 241.023724 
L 265.089817 240.785196 
L 265.59197 241.038245 
L 265.843047 240.841813 
L 266.3452 241.095473 
L 266.596276 240.915348 
L 266.847353 240.323876 
L 267.098429 240.552045 
L 267.349506 240.465968 
L 267.600582 240.939773 
L 268.102735 240.319812 
L 268.353812 240.666016 
L 268.604888 240.761417 
L 268.855965 240.538742 
L 269.358118 240.515731 
L 269.609194 241.026923 
L 269.86027 240.923635 
L 270.111347 241.196227 
L 270.362423 240.672053 
L 270.6135 240.970134 
L 270.864576 240.912977 
L 271.115653 240.709369 
L 271.366729 240.917886 
L 271.617806 240.894174 
L 271.868882 241.210858 
L 272.371035 240.841652 
L 272.622112 241.262932 
L 273.124265 241.015648 
L 273.877494 241.386469 
L 274.128571 241.206177 
L 274.379647 240.691771 
L 274.8818 241.303697 
L 275.132876 241.338851 
L 275.635029 240.996164 
L 275.886106 241.094334 
L 276.137182 241.312953 
L 276.388259 240.933635 
L 276.639335 240.977365 
L 276.890412 240.793826 
L 277.141488 241.302048 
L 277.392565 241.167221 
L 277.643641 241.175078 
L 277.894718 240.984036 
L 278.145794 241.130821 
L 278.396871 240.619798 
L 278.647947 240.854736 
L 278.899024 240.822232 
L 279.1501 240.402998 
L 279.401177 240.952429 
L 279.652253 241.045675 
L 279.903329 240.909286 
L 280.154406 240.980751 
L 280.405482 240.312916 
L 280.656559 240.99019 
L 280.907635 241.023621 
L 281.158712 240.71126 
L 281.409788 241.011618 
L 281.660865 240.621076 
L 282.163018 240.862905 
L 282.916247 240.603982 
L 283.4184 241.216465 
L 283.920553 240.731193 
L 284.17163 240.885301 
L 284.422706 240.472176 
L 284.673783 240.929397 
L 284.924859 241.108131 
L 285.175935 241.101856 
L 285.427012 240.840919 
L 285.678088 240.800557 
L 285.929165 241.244385 
L 286.180241 240.864785 
L 286.431318 241.340056 
L 287.184547 241.07489 
L 287.435624 241.232659 
L 287.6867 240.946552 
L 287.937777 240.978854 
L 288.188853 241.185243 
L 288.43993 241.225468 
L 288.691006 241.41236 
L 288.942083 241.381389 
L 289.193159 241.484941 
L 289.444236 241.303666 
L 289.695312 240.975718 
L 289.946389 241.363221 
L 290.197465 241.531985 
L 290.448541 241.073311 
L 290.699618 241.296425 
L 291.201771 241.311789 
L 291.452847 241.394634 
L 291.955 241.175192 
L 292.70823 241.257649 
L 292.959306 241.064457 
L 293.210383 241.037178 
L 293.461459 241.536591 
L 293.712536 241.145248 
L 293.963612 241.296761 
L 294.214689 241.203599 
L 294.465765 241.452889 
L 295.218994 241.578986 
L 295.470071 241.40734 
L 295.972224 241.451683 
L 296.2233 241.633742 
L 296.474377 241.241219 
L 296.725453 241.691339 
L 296.97653 241.658689 
L 297.227606 241.42369 
L 297.478683 241.705334 
L 298.482989 241.60251 
L 299.236218 241.405139 
L 299.738371 241.312179 
L 300.240524 241.397455 
L 300.742677 240.776931 
L 301.24483 240.993442 
L 301.495906 240.650517 
L 301.746983 240.733194 
L 301.998059 241.083968 
L 302.249136 241.133916 
L 302.500212 241.307149 
L 302.751289 241.222741 
L 303.002365 240.658583 
L 303.253442 241.270413 
L 303.504518 240.979055 
L 304.006671 241.02251 
L 304.257748 241.537682 
L 304.508824 241.177852 
L 305.010977 241.501025 
L 305.262053 241.301008 
L 305.51313 241.348988 
L 305.764206 241.246631 
L 306.015283 241.335019 
L 306.266359 241.299894 
L 306.517436 241.003008 
L 306.768512 241.116495 
L 307.270665 240.805349 
L 307.521742 241.016031 
L 308.023895 241.178949 
L 308.274971 240.68056 
L 308.526048 241.221601 
L 308.777124 241.009156 
L 309.028201 241.126192 
L 309.279277 240.937445 
L 309.530354 241.13992 
L 309.78143 241.052131 
L 310.032507 241.515696 
L 310.283583 240.998125 
L 310.534659 241.448485 
L 311.287889 241.284503 
L 311.538965 241.327641 
L 311.790042 241.202304 
L 312.041118 241.272298 
L 312.292195 241.778138 
L 312.794348 241.231665 
L 313.045424 241.419523 
L 313.296501 241.358427 
L 313.547577 241.055647 
L 313.798654 241.448417 
L 314.04973 241.568649 
L 314.300807 241.54785 
L 314.551883 241.667234 
L 315.305112 241.502584 
L 315.807265 241.355613 
L 316.058342 241.545902 
L 316.811571 241.502463 
L 317.062648 241.417502 
L 317.313724 241.746916 
L 317.564801 241.488071 
L 318.066954 241.659083 
L 318.569107 241.43226 
L 318.820183 241.498141 
L 319.573413 241.286411 
L 319.824489 241.649082 
L 320.326642 241.440346 
L 320.577718 241.423404 
L 320.828795 241.174551 
L 321.079871 241.706482 
L 321.330948 241.600471 
L 321.582024 241.71198 
L 321.833101 241.620253 
L 322.084177 241.375719 
L 322.58633 241.8714 
L 322.837407 241.626675 
L 323.590636 241.754829 
L 323.841713 241.552456 
L 325.097095 241.854212 
L 327.60786 241.888111 
L 327.858936 241.827078 
L 328.110013 241.906139 
L 328.361089 241.789522 
L 328.612166 241.863696 
L 329.365395 241.641735 
L 329.616472 241.631651 
L 330.118625 241.453812 
L 330.871854 241.402088 
L 331.12293 241.2474 
L 331.374007 241.412825 
L 331.87616 241.203682 
L 332.127236 241.231745 
L 332.378313 241.144667 
L 332.629389 241.482512 
L 333.633695 241.28733 
L 333.884772 241.457608 
L 335.140154 241.648408 
L 335.391231 241.787403 
L 335.642307 241.596906 
L 335.893383 241.786961 
L 336.14446 241.831173 
L 336.646613 241.678299 
L 336.897689 241.779687 
L 337.399842 241.679654 
L 337.650919 241.860903 
L 337.901995 241.727843 
L 338.153072 241.731525 
L 338.404148 241.903574 
L 338.906301 241.6325 
L 339.157378 241.909482 
L 339.408454 241.653948 
L 339.659531 241.827428 
L 342.672448 241.895654 
L 342.923525 241.770197 
L 343.425678 241.90938 
L 343.676754 241.714616 
L 343.927831 241.9954 
L 344.178907 241.928963 
L 344.429984 242.03442 
L 344.68106 241.826712 
L 344.932137 241.802821 
L 345.43429 241.894598 
L 345.936442 241.836289 
L 346.187519 241.627694 
L 346.438595 241.692137 
L 346.689672 241.950227 
L 347.442901 241.784363 
L 347.693978 241.783449 
L 347.945054 241.952741 
L 348.196131 241.857779 
L 348.447207 241.947406 
L 348.698284 241.793649 
L 348.94936 241.963936 
L 349.200437 241.893029 
L 349.451513 241.987116 
L 349.70259 241.84985 
L 350.204743 241.959896 
L 350.455819 241.892808 
L 351.209048 242.006016 
L 351.460125 241.862465 
L 351.711201 241.991978 
L 354.975196 241.941588 
L 355.226272 241.823688 
L 355.477349 241.927064 
L 356.732731 241.816841 
L 357.234884 241.996595 
L 357.737037 241.90591 
L 358.23919 242.016748 
L 358.490266 241.933075 
L 358.741343 242.036267 
L 358.992419 241.869107 
L 359.243496 242.068206 
L 359.494572 241.995131 
L 359.745649 242.045382 
L 359.996725 241.974064 
L 360.498878 242.016749 
L 361.001031 241.967865 
L 361.252107 242.068827 
L 362.758566 242.015024 
L 363.260719 242.081134 
L 363.511796 241.973954 
L 364.265025 242.035115 
L 364.516102 241.963645 
L 365.018255 242.065397 
L 365.269331 241.903694 
L 365.771484 241.976018 
L 366.524713 242.005199 
L 366.77579 242.058724 
L 367.277943 241.901039 
L 367.529019 242.018627 
L 368.282249 241.919404 
L 368.533325 242.047189 
L 369.035478 241.838902 
L 369.788708 242.002872 
L 370.290861 241.917153 
L 370.541937 241.786275 
L 370.793014 242.010641 
L 371.04409 241.745746 
L 371.295166 241.94797 
L 371.797319 241.861454 
L 372.048396 241.970944 
L 372.299472 241.892514 
L 372.550549 241.983619 
L 372.801625 241.874699 
L 373.554855 242.04114 
L 373.805931 242.022055 
L 374.057008 241.832439 
L 374.308084 242.06369 
L 374.559161 241.971027 
L 375.31239 242.044462 
L 375.563467 241.989314 
L 376.316696 242.059951 
L 376.567772 241.977261 
L 377.069925 242.03012 
L 377.321002 241.946414 
L 377.572078 242.085544 
L 378.074231 242.013632 
L 378.576384 242.048213 
L 379.078537 242.044481 
L 379.329614 242.072939 
L 379.58069 241.97889 
L 380.082843 242.021724 
L 380.33392 242.049366 
L 380.584996 241.933437 
L 380.836073 242.015818 
L 381.087149 241.919757 
L 381.589302 242.019416 
L 382.844684 242.089188 
L 383.346837 242.045229 
L 386.359755 242.081864 
L 386.861908 242.093361 
L 389.874826 242.021666 
L 390.376979 242.073408 
L 393.892049 242.093196 
L 394.896355 242.057459 
L 399.666808 242.081627 
L 400.420038 242.067418 
L 401.424344 242.074411 
L 401.926496 242.075952 
L 402.930802 242.081238 
L 403.684032 242.082927 
L 406.948026 242.091167 
L 409.960944 242.106358 
L 410.96525 242.07661 
L 421.008309 242.066198 
L 421.510462 242.109673 
L 422.514767 242.072839 
L 424.021226 242.100505 
L 424.523379 242.094359 
L 451.639639 242.101281 
L 454.40148 242.109435 
L 468.210686 242.115274 
L 468.461762 44.443636 
L 468.963915 56.106215 
L 469.466068 63.064815 
L 469.968221 80.157749 
L 470.470374 112.113365 
L 471.47468 188.689618 
L 471.976833 211.402117 
L 472.22791 217.480442 
L 472.478986 219.598453 
L 472.730062 217.497044 
L 473.232215 208.956558 
L 473.985445 187.608295 
L 474.487598 176.303741 
L 474.738674 175.043201 
L 474.989751 173.189955 
L 475.240827 173.455235 
L 475.491904 172.881262 
L 475.74298 174.771482 
L 476.49621 185.345299 
L 478.504821 218.533386 
L 478.755898 221.64469 
L 479.509127 226.41847 
L 479.760204 226.70436 
L 480.01128 226.775337 
L 480.76451 225.103874 
L 481.266663 222.459029 
L 482.019892 218.699887 
L 482.773121 215.449926 
L 483.024198 215.728912 
L 483.275274 214.633801 
L 483.526351 214.242362 
L 483.777427 214.124149 
L 484.028504 214.355188 
L 485.283886 216.598041 
L 485.534963 215.856488 
L 485.786039 217.447888 
L 486.037116 216.825903 
L 486.288192 216.842302 
L 486.790345 215.811196 
L 487.041422 214.586436 
L 487.292498 214.23634 
L 487.794651 211.684414 
L 488.296804 208.020176 
L 489.30111 200.85944 
L 489.552186 198.590045 
L 489.803263 197.833366 
L 490.054339 195.390764 
L 490.305416 195.354618 
L 490.807569 192.380754 
L 491.058645 192.326205 
L 491.309722 193.480208 
L 491.560798 193.300771 
L 491.811875 195.002273 
L 492.062951 194.5918 
L 492.314028 198.664537 
L 492.565104 199.615628 
L 493.067257 205.503053 
L 493.318333 207.814876 
L 493.56941 211.193368 
L 493.820486 212.426506 
L 494.322639 219.524825 
L 495.326945 226.415078 
L 495.578022 227.639893 
L 496.080175 227.784358 
L 496.331251 227.474638 
L 496.833404 225.286578 
L 497.586634 220.500205 
L 498.842016 210.924467 
L 499.093092 211.743307 
L 499.344169 211.005688 
L 499.595245 209.909541 
L 500.097398 213.081636 
L 500.850628 214.999887 
L 501.101704 215.994997 
L 501.352781 216.216693 
L 501.603857 215.691938 
L 501.854934 216.79096 
L 502.357087 213.540006 
L 502.608163 213.726606 
L 502.859239 212.493183 
L 503.110316 213.36518 
L 503.361392 209.732908 
L 503.612469 207.826161 
L 504.114622 207.080443 
L 504.365698 206.31778 
L 504.616775 203.746542 
L 504.867851 204.619236 
L 505.118928 203.519477 
L 505.370004 204.3421 
L 505.621081 204.03186 
L 506.37431 205.682749 
L 506.876463 209.093832 
L 507.378616 211.011106 
L 507.629693 213.203184 
L 507.880769 213.425279 
L 508.885075 220.146662 
L 509.136151 220.783608 
L 509.638304 223.0976 
L 509.889381 223.699729 
L 510.140457 223.366908 
L 510.391534 222.74196 
L 510.64261 222.929133 
L 510.893687 222.076429 
L 511.144763 221.869912 
L 511.39584 220.539675 
L 511.646916 220.499287 
L 511.897993 219.225296 
L 512.149069 218.860835 
L 512.400146 217.063657 
L 512.651222 216.324163 
L 513.153375 212.806871 
L 513.404451 212.025867 
L 513.655528 211.804415 
L 513.906604 211.877128 
L 514.157681 210.681336 
L 514.408757 210.22046 
L 514.659834 211.218504 
L 514.91091 211.577748 
L 515.161987 212.278803 
L 515.413063 212.382811 
L 516.668446 218.150051 
L 516.919522 219.759772 
L 517.170599 220.560211 
L 517.421675 222.891231 
L 517.672752 222.404647 
L 517.923828 223.239835 
L 518.174904 223.172977 
L 518.425981 223.786582 
L 518.677057 222.947836 
L 518.928134 223.131079 
L 519.17921 221.954225 
L 519.430287 221.487058 
L 520.183516 218.29121 
L 520.434593 216.162785 
L 520.685669 216.074348 
L 521.187822 213.483791 
L 521.689975 212.351758 
L 522.192128 212.3703 
L 522.443205 211.769272 
L 522.694281 211.694086 
L 523.196434 212.847518 
L 523.44751 212.898669 
L 523.949663 216.247147 
L 524.20074 216.098759 
L 524.953969 220.969334 
L 525.205046 221.906385 
L 525.707199 224.832392 
L 526.460428 226.401147 
L 526.711505 226.423415 
L 526.962581 226.868288 
L 527.213658 226.365648 
L 527.464734 226.498651 
L 527.966887 225.131768 
L 528.217963 224.253347 
L 528.46904 224.154756 
L 528.720116 223.891819 
L 528.971193 222.157662 
L 530.226575 219.545497 
L 530.477652 219.580494 
L 530.728728 219.914151 
L 530.979805 219.373036 
L 531.230881 220.45768 
L 531.481958 220.529424 
L 531.984111 221.805641 
L 532.235187 223.157289 
L 532.73734 223.886271 
L 532.988417 225.310766 
L 533.239493 226.048869 
L 533.490569 226.379257 
L 533.741646 225.846109 
L 533.992722 226.542681 
L 534.243799 225.874137 
L 534.494875 225.639828 
L 535.750258 216.862743 
L 536.001334 213.772492 
L 536.252411 212.112206 
L 536.754564 205.576396 
L 537.00564 203.970302 
L 537.75887 195.990933 
L 538.009946 194.355669 
L 538.261022 193.612376 
L 538.512099 192.177546 
L 538.763175 192.170056 
L 539.014252 191.85303 
L 539.265328 192.189877 
L 539.516405 193.097095 
L 539.767481 193.043871 
L 540.269634 197.31495 
L 542.02717 208.246559 
L 542.278246 207.972176 
L 542.529323 207.942188 
L 542.780399 208.198168 
L 543.282552 207.186537 
L 543.784705 205.201036 
L 544.286858 202.466155 
L 544.537934 201.265408 
L 544.789011 199.283414 
L 545.54224 197.103816 
L 545.793317 198.196052 
L 546.044393 197.117087 
L 546.29547 197.689478 
L 546.546546 196.974482 
L 546.797623 199.96712 
L 547.048699 200.229716 
L 549.559464 223.763516 
L 550.312693 227.779923 
L 550.56377 228.083992 
L 551.065923 227.107456 
L 551.316999 226.11743 
L 552.070229 220.090025 
L 552.572382 213.610719 
L 554.83207 185.887604 
L 555.334223 181.786754 
L 555.585299 181.571494 
L 556.087452 180.426166 
L 556.338529 178.738631 
L 556.589605 179.825594 
L 556.840682 180.253128 
L 557.091758 182.133907 
L 557.342835 180.901815 
L 557.593911 181.654425 
L 557.844988 181.768839 
L 558.096064 182.089541 
L 558.598217 183.07538 
L 559.10037 182.562821 
L 559.351446 183.421998 
L 559.602523 182.837925 
L 559.853599 183.740066 
L 560.104676 184.199822 
L 560.355752 182.470286 
L 560.606829 183.440085 
L 560.857905 183.366249 
L 561.108982 184.806623 
L 561.360058 184.274193 
L 561.611135 184.712311 
L 561.862211 186.30131 
L 562.113288 186.770516 
L 562.364364 189.275224 
L 562.615441 189.241429 
L 562.866517 191.953406 
L 563.117594 193.370599 
L 564.624052 207.393679 
L 564.875129 211.060186 
L 565.126205 212.618839 
L 565.628358 217.392453 
L 566.632664 225.222 
L 566.883741 227.161949 
L 567.134817 227.58976 
L 567.385894 228.694248 
L 567.63697 229.203675 
L 567.888047 230.65007 
L 568.139123 230.868664 
L 568.3902 231.323518 
L 568.641276 231.319811 
L 568.892352 232.014954 
L 569.143429 232.177362 
L 569.394505 231.683193 
L 569.645582 232.101531 
L 569.896658 231.602337 
L 570.147735 232.084866 
L 570.398811 231.934532 
L 570.649888 232.037051 
L 571.152041 231.72637 
L 571.654194 230.939153 
L 571.90527 230.60404 
L 572.909576 226.048394 
L 574.416035 215.311724 
L 574.667111 214.487824 
L 574.918188 211.662225 
L 575.169264 211.391916 
L 575.671417 208.196019 
L 575.922494 208.09172 
L 576.17357 206.744544 
L 576.424647 207.272125 
L 576.675723 206.646555 
L 577.177876 207.379449 
L 577.428953 207.267238 
L 578.182182 211.502643 
L 578.433259 212.015216 
L 578.684335 212.785043 
L 578.935411 215.257238 
L 579.186488 216.306119 
L 579.437564 217.952037 
L 579.939717 219.876148 
L 580.944023 225.482962 
L 581.1951 225.475312 
L 581.446176 226.043959 
L 581.697253 225.976749 
L 582.199406 225.178988 
L 582.450482 224.250893 
L 582.701559 223.92045 
L 583.454788 220.132751 
L 584.459094 213.138692 
L 584.71017 212.325056 
L 585.212323 208.725063 
L 585.4634 208.354016 
L 585.965553 206.298699 
L 586.216629 207.834153 
L 586.467706 206.447599 
L 586.718782 208.125376 
L 586.969859 207.428609 
L 587.220935 209.753115 
L 587.472012 210.025423 
L 588.225241 214.977312 
L 588.476318 215.753644 
L 588.727394 217.803467 
L 588.97847 217.794639 
L 589.229547 219.055374 
L 589.480623 220.919097 
L 589.7317 221.570627 
L 589.982776 221.324556 
L 590.484929 222.813137 
L 591.238159 222.291491 
L 591.740312 221.364742 
L 591.991388 222.202266 
L 592.493541 220.333285 
L 592.744618 221.13696 
L 592.995694 221.04567 
L 593.246771 220.236741 
L 593.497847 220.276238 
L 593.748924 220.473684 
L 594 221.841577 
L 594.251076 221.670196 
L 594.753229 222.080641 
L 595.004306 223.234055 
L 595.255382 222.83757 
L 595.757535 224.42519 
L 596.008612 225.243206 
L 596.259688 224.481379 
L 596.510765 225.608594 
L 596.761841 225.015628 
L 597.012918 225.77961 
L 597.263994 225.331019 
L 597.515071 225.1162 
L 597.766147 225.616727 
L 598.017224 225.125325 
L 598.2683 223.779449 
L 598.519377 223.910392 
L 598.770453 222.552271 
L 599.02153 222.050674 
L 599.272606 222.288611 
L 599.774759 219.676645 
L 600.025835 220.118314 
L 600.779065 218.593052 
L 601.030141 218.946664 
L 601.281218 218.664821 
L 601.532294 218.833285 
L 601.783371 218.680193 
L 602.034447 219.94942 
L 602.285524 219.453693 
L 602.5366 219.804433 
L 602.787677 219.622506 
L 603.28983 220.276375 
L 603.540906 220.023206 
L 603.791983 221.241372 
L 604.043059 219.886034 
L 604.294135 220.371559 
L 604.545212 220.588203 
L 604.796288 220.22457 
L 605.047365 219.61051 
L 605.298441 219.464872 
L 605.549518 218.946086 
L 605.800594 218.774185 
L 606.051671 217.045429 
L 606.302747 217.453964 
L 606.553824 216.293675 
L 606.8049 216.884639 
L 607.307053 214.249001 
L 607.55813 213.850719 
L 607.809206 213.722224 
L 608.311359 211.701906 
L 608.562436 212.270639 
L 608.813512 212.167764 
L 609.064589 211.13615 
L 609.315665 211.104733 
L 609.566741 210.147249 
L 609.817818 210.645408 
L 610.068894 210.258369 
L 610.319971 211.166283 
L 610.571047 210.485789 
L 610.822124 211.149825 
L 611.0732 210.187483 
L 611.575353 210.962625 
L 611.82643 211.025214 
L 612.077506 211.504924 
L 612.328583 211.510704 
L 612.579659 211.766071 
L 612.830736 212.664628 
L 613.081812 212.746731 
L 613.332889 213.446206 
L 613.583965 213.133387 
L 613.835042 214.01457 
L 614.086118 213.889539 
L 614.337194 213.60789 
L 614.588271 214.647557 
L 615.090424 214.709517 
L 615.3415 215.849735 
L 616.09473 217.370026 
L 616.345806 218.333248 
L 616.596883 218.366901 
L 617.099036 218.91631 
L 617.350112 219.647972 
L 617.852265 220.008198 
L 618.103342 219.776507 
L 618.605495 219.957435 
L 618.856571 219.403906 
L 619.107648 220.045451 
L 619.358724 218.586263 
L 619.6098 218.199435 
L 620.36303 215.336901 
L 620.614106 214.082289 
L 620.865183 214.477754 
L 621.367336 211.921435 
L 621.618412 211.248619 
L 621.869489 210.208106 
L 622.120565 210.151432 
L 622.371642 209.760952 
L 622.873795 209.845702 
L 623.124871 210.436896 
L 623.878101 210.469992 
L 624.380254 213.381962 
L 624.63133 213.407397 
L 627.393171 226.048099 
L 627.895324 227.554368 
L 628.397477 229.061789 
L 628.648554 229.909663 
L 628.89963 229.900572 
L 629.150707 230.156422 
L 629.401783 230.941905 
L 629.652859 231.079756 
L 629.903936 231.429517 
L 630.155012 231.119464 
L 630.657165 231.863563 
L 630.908242 231.606445 
L 631.159318 231.974296 
L 631.661471 231.343502 
L 632.163624 231.954917 
L 632.665777 231.773098 
L 632.916854 231.869149 
L 633.16793 232.234872 
L 633.419007 232.074905 
L 633.92116 232.576108 
L 634.172236 232.199796 
L 634.423313 232.790307 
L 634.674389 232.369872 
L 634.925465 232.200458 
L 635.176542 232.551706 
L 635.427618 232.253641 
L 635.678695 232.370961 
L 635.929771 232.100544 
L 636.180848 232.07082 
L 636.431924 231.750794 
L 636.683001 231.788471 
L 636.934077 231.430367 
L 637.185154 231.62301 
L 637.687307 231.221727 
L 638.440536 231.076836 
L 638.691613 231.309047 
L 638.942689 231.007616 
L 639.444842 231.189557 
L 639.695918 230.737989 
L 639.946995 231.183263 
L 640.198071 231.257755 
L 640.449148 231.066449 
L 640.700224 231.245741 
L 640.951301 230.65593 
L 641.202377 230.603945 
L 641.453454 230.025488 
L 641.70453 230.048529 
L 641.955607 229.372769 
L 642.206683 229.292325 
L 642.959913 227.02943 
L 643.462066 225.925063 
L 643.713142 224.66102 
L 643.964219 224.292476 
L 644.968524 220.269087 
L 645.219601 220.260758 
L 645.470677 220.130855 
L 645.97283 219.371365 
L 646.223907 219.91544 
L 646.474983 219.92219 
L 646.72606 220.194297 
L 646.977136 220.719971 
L 647.228213 221.531973 
L 647.479289 221.86116 
L 648.483595 226.776652 
L 648.734672 227.341338 
L 648.985748 228.815002 
L 649.236825 229.290291 
L 649.738978 231.850531 
L 649.990054 232.146687 
L 650.743283 234.439936 
L 650.99436 234.624674 
L 651.245436 235.440635 
L 651.496513 235.24171 
L 651.747589 235.410391 
L 651.998666 235.155124 
L 652.249742 235.215675 
L 652.500819 234.551035 
L 652.751895 234.763944 
L 653.002972 234.53667 
L 653.505125 233.414359 
L 653.756201 233.676714 
L 654.007278 233.360511 
L 654.509431 232.144535 
L 654.760507 232.128846 
L 655.26266 230.882161 
L 655.513736 230.871057 
L 655.764813 230.618084 
L 656.015889 229.919509 
L 656.266966 230.120489 
L 657.020195 228.331697 
L 657.271272 228.222808 
L 657.522348 227.456511 
L 658.024501 227.231779 
L 658.526654 225.969768 
L 658.777731 225.70734 
L 659.028807 225.885535 
L 659.279884 225.132865 
L 659.53096 225.04279 
L 659.782037 224.271334 
L 660.033113 224.5553 
L 660.284189 224.594935 
L 660.535266 224.484157 
L 660.786342 224.592658 
L 661.539572 225.481988 
L 661.790648 225.652567 
L 662.292801 227.165167 
L 663.046031 228.492581 
L 663.297107 229.741113 
L 663.79926 229.899731 
L 664.301413 231.093338 
L 664.803566 232.117642 
L 665.054642 232.095271 
L 665.305719 232.642809 
L 665.556795 232.772546 
L 665.807872 232.522481 
L 666.058948 232.070307 
L 666.310025 232.125759 
L 666.561101 231.63605 
L 666.812178 231.432705 
L 667.314331 230.270972 
L 667.816484 229.335026 
L 668.318637 227.771446 
L 668.82079 227.549951 
L 669.071866 226.496364 
L 669.322943 226.669782 
L 669.574019 226.344779 
L 669.825096 225.675674 
L 670.076172 225.900424 
L 670.578325 224.783452 
L 671.331554 225.109827 
L 671.582631 225.432196 
L 671.833707 224.883363 
L 672.084784 224.941868 
L 672.33586 225.632212 
L 672.586937 225.612664 
L 672.838013 226.064565 
L 673.08909 226.165293 
L 673.340166 226.730493 
L 673.591243 226.848785 
L 674.093396 226.781749 
L 674.344472 227.340465 
L 674.595549 226.876749 
L 674.846625 226.841741 
L 675.348778 227.162912 
L 675.599854 226.89072 
L 676.102007 226.65492 
L 676.353084 227.423293 
L 676.855237 226.838648 
L 677.35739 227.463663 
L 678.361696 228.719161 
L 678.612772 229.595962 
L 678.863849 229.929994 
L 680.621384 233.900588 
L 680.87246 234.830537 
L 681.123537 235.096429 
L 681.374613 235.717446 
L 681.62569 235.889583 
L 682.127843 237.211221 
L 683.383225 238.397116 
L 683.634302 238.81511 
L 683.885378 238.605753 
L 684.136455 238.776109 
L 684.387531 238.608216 
L 684.638608 238.83177 
L 684.889684 238.689641 
L 685.140761 238.971 
L 685.391837 238.685605 
L 685.89399 238.903484 
L 686.145066 238.492468 
L 686.396143 238.308552 
L 686.647219 238.359582 
L 687.149372 238.047206 
L 688.153678 236.588344 
L 688.655831 235.710917 
L 689.157984 234.745588 
L 689.409061 234.422275 
L 689.660137 233.410884 
L 689.911214 233.120643 
L 690.16229 232.035867 
L 690.413366 231.691004 
L 690.915519 230.44548 
L 691.166596 230.324438 
L 691.417672 229.690722 
L 691.668749 228.665952 
L 691.919825 228.811598 
L 692.421978 227.744153 
L 692.673055 227.698486 
L 692.924131 226.991648 
L 693.175208 226.998489 
L 693.426284 226.890353 
L 693.677361 227.069794 
L 693.928437 226.43164 
L 694.179514 226.362661 
L 694.43059 226.472107 
L 694.681667 226.068951 
L 694.932743 226.129422 
L 695.18382 225.890168 
L 695.434896 225.302306 
L 695.685972 225.432335 
L 695.937049 224.73013 
L 696.188125 224.84436 
L 696.439202 224.761947 
L 696.690278 224.997919 
L 697.192431 223.88353 
L 697.443508 223.79336 
L 697.694584 223.487363 
L 697.945661 223.622866 
L 698.196737 223.278069 
L 698.447814 223.629223 
L 698.69889 223.451798 
L 698.949967 222.468554 
L 699.201043 222.754308 
L 699.45212 222.805055 
L 699.954273 223.431891 
L 700.205349 222.983211 
L 700.456425 224.032009 
L 700.707502 223.496562 
L 700.958578 223.508484 
L 701.209655 224.225945 
L 701.460731 224.565059 
L 701.962884 225.645886 
L 702.213961 225.68905 
L 702.465037 226.591342 
L 703.218267 227.884168 
L 703.469343 227.816787 
L 703.72042 228.566509 
L 703.971496 228.655869 
L 704.975802 230.521248 
L 705.226879 229.776157 
L 705.477955 230.308176 
L 705.729031 230.099626 
L 705.980108 230.748397 
L 706.482261 231.230003 
L 706.984414 230.850999 
L 707.486567 230.956686 
L 707.737643 231.450583 
L 707.98872 231.464951 
L 708.490873 231.948154 
L 708.993026 232.384353 
L 709.244102 232.321696 
L 709.495179 232.647589 
L 709.997332 232.807335 
L 710.248408 232.536502 
L 710.499485 232.74703 
L 711.001637 232.217515 
L 711.50379 231.930572 
L 713.261326 227.605628 
L 713.763479 226.05385 
L 714.014555 226.27954 
L 715.018861 223.544739 
L 715.269938 223.742963 
L 715.521014 222.912455 
L 715.77209 223.337983 
L 716.52532 222.979253 
L 716.776396 223.889109 
L 717.027473 223.670138 
L 717.278549 223.603834 
L 717.529626 224.836729 
L 717.780702 224.705323 
L 718.533932 227.064596 
L 719.036085 228.13224 
L 719.287161 229.250214 
L 719.538238 141.503349 
L 719.789314 143.523584 
L 720.291467 150.222895 
L 721.546849 172.020401 
L 721.797926 177.351244 
L 722.049002 180.245271 
L 722.551155 189.873286 
L 723.555461 205.515034 
L 724.559767 214.690326 
L 725.06192 216.86732 
L 725.312997 217.149057 
L 725.564073 216.963416 
L 725.815149 216.358568 
L 726.568379 212.457927 
L 726.819455 210.141082 
L 727.070532 208.985326 
L 728.074838 201.534021 
L 728.325914 200.365402 
L 728.576991 200.236563 
L 729.079144 198.693909 
L 729.581297 199.08661 
L 730.334526 202.582551 
L 731.840985 213.694092 
L 732.343138 218.524591 
L 732.845291 221.248926 
L 733.59852 225.999842 
L 734.100673 227.890525 
L 734.35175 228.411403 
L 734.602826 228.503815 
L 735.104979 230.077849 
L 735.356056 229.672771 
L 735.607132 230.231583 
L 735.858209 230.222344 
L 736.109285 229.971377 
L 736.611438 230.279601 
L 737.113591 230.000693 
L 737.364667 230.201222 
L 737.615744 229.587912 
L 737.86682 229.879001 
L 738.117897 229.732919 
L 738.62005 229.914964 
L 739.122203 230.548943 
L 739.373279 229.441563 
L 739.624356 229.805992 
L 740.126509 229.687243 
L 740.628662 229.337782 
L 740.879738 228.591351 
L 741.130814 228.541111 
L 741.381891 228.005096 
L 741.632967 227.160206 
L 741.884044 227.038385 
L 743.139426 223.181584 
L 743.641579 222.114806 
L 744.143732 220.02834 
L 744.394809 219.946797 
L 744.645885 219.649516 
L 744.896962 219.119574 
L 745.148038 219.315117 
L 745.650191 218.737318 
L 745.901268 219.752658 
L 746.40342 220.117896 
L 746.654497 220.592788 
L 746.905573 220.318225 
L 747.909879 221.301079 
L 748.160956 221.088738 
L 748.412032 220.460058 
L 748.663109 220.594013 
L 748.914185 220.511124 
L 749.416338 219.170402 
L 750.420644 215.121135 
L 750.671721 213.628507 
L 750.922797 212.885712 
L 751.42495 210.201057 
L 751.927103 207.653143 
L 752.178179 206.23027 
L 752.429256 205.553101 
L 753.182485 201.68192 
L 753.433562 201.925462 
L 753.935715 200.751784 
L 754.437868 200.84806 
L 754.688944 200.393403 
L 754.940021 201.480457 
L 755.191097 201.723388 
L 755.442174 202.500529 
L 755.69325 202.440887 
L 755.944327 203.866388 
L 756.195403 203.685153 
L 756.446479 203.844588 
L 756.697556 204.552035 
L 756.948632 204.573479 
L 757.450785 203.891937 
L 757.701862 204.138852 
L 757.952938 202.205978 
L 758.204015 201.608852 
L 758.455091 200.653549 
L 759.459397 193.881813 
L 759.710474 193.793973 
L 760.212627 191.864463 
L 760.463703 190.036271 
L 760.71478 189.752156 
L 760.965856 189.743348 
L 761.216933 189.385549 
L 761.719085 192.212841 
L 761.970162 192.510988 
L 762.472315 196.575674 
L 763.225544 203.702694 
L 764.22985 214.19096 
L 765.234156 222.218286 
L 765.736309 223.94458 
L 765.987386 223.590745 
L 766.238462 223.58932 
L 766.489538 223.776163 
L 767.242768 218.406262 
L 767.744921 213.310762 
L 770.004609 180.026766 
L 770.255686 178.271094 
L 770.506762 174.447224 
L 770.757839 173.343716 
L 771.008915 173.502763 
L 771.259992 171.780889 
L 771.762144 173.654498 
L 772.264297 176.718935 
L 773.017527 185.31786 
L 773.51968 192.328044 
L 774.272909 201.279099 
L 775.026139 207.035393 
L 775.528292 208.341818 
L 775.779368 208.286592 
L 776.030445 207.33933 
L 776.281521 206.837611 
L 777.03475 202.263512 
L 778.792286 191.177888 
L 779.043362 189.636087 
L 779.294439 189.402352 
L 779.545515 188.047213 
L 779.796592 188.909653 
L 780.047668 188.388121 
L 780.298745 188.929537 
L 780.549821 190.443085 
L 780.800898 190.20909 
L 784.315968 213.468833 
L 785.320274 216.745844 
L 785.571351 217.154839 
L 785.822427 217.238241 
L 786.073504 217.533559 
L 786.32458 217.5805 
L 786.826733 218.098856 
L 787.077809 217.828565 
L 787.328886 218.599733 
L 787.831039 218.785612 
L 788.082115 219.57719 
L 788.333192 219.836913 
L 788.584268 220.479908 
L 788.835345 221.522816 
L 789.086421 221.951096 
L 789.839651 224.03551 
L 790.341804 224.98385 
L 790.59288 224.699532 
L 790.843957 225.007703 
L 791.095033 224.830886 
L 791.34611 224.047329 
L 791.597186 223.650273 
L 792.601492 220.083504 
L 793.354721 215.975873 
L 793.605798 215.884408 
L 793.856874 214.40401 
L 794.107951 213.995364 
L 794.359027 213.179634 
L 794.610104 212.874887 
L 794.86118 212.180839 
L 795.112257 212.277536 
L 795.363333 212.913423 
L 795.61441 212.731111 
L 795.865486 213.117129 
L 796.116563 213.819717 
L 796.367639 215.199325 
L 796.618716 215.5544 
L 796.869792 216.268606 
L 797.120868 218.170972 
L 797.371945 219.065038 
L 798.376251 224.164025 
L 799.380557 227.774522 
L 799.88271 228.963048 
L 800.133786 228.72373 
L 800.635939 228.952215 
L 800.887016 228.686348 
L 801.891321 226.424992 
L 802.895627 222.581761 
L 803.146704 222.152937 
L 803.39778 221.144991 
L 803.899933 220.162159 
L 804.15101 219.37356 
L 804.653163 219.199035 
L 804.904239 218.795547 
L 805.155316 218.675247 
L 805.657469 219.493344 
L 805.908545 219.30566 
L 806.159622 220.030257 
L 806.410698 220.286657 
L 806.661775 221.040568 
L 806.912851 221.395924 
L 808.168233 224.474747 
L 808.670386 225.49099 
L 808.921463 226.552143 
L 810.678998 229.87878 
L 811.432228 230.971237 
L 811.683304 231.138917 
L 811.93438 231.07314 
L 812.185457 231.286028 
L 812.436533 231.766335 
L 812.68761 231.750583 
L 812.938686 231.980375 
L 813.189763 231.956293 
L 813.440839 232.076336 
L 813.691916 231.776518 
L 813.942992 231.987445 
L 814.194069 231.585827 
L 814.445145 231.982656 
L 815.449451 230.816275 
L 815.700528 230.27027 
L 815.951604 230.409624 
L 816.202681 229.828882 
L 816.453757 229.560682 
L 817.206986 228.182876 
L 817.458063 227.309032 
L 817.709139 227.312211 
L 817.960216 227.072958 
L 818.462369 225.153464 
L 818.713445 224.956163 
L 818.964522 223.80605 
L 819.215598 223.617947 
L 820.470981 220.411084 
L 820.722057 220.363791 
L 820.973134 219.734722 
L 821.475287 218.978149 
L 821.726363 219.050998 
L 821.97744 218.636811 
L 822.228516 218.440937 
L 822.479592 218.782027 
L 822.981745 218.898846 
L 823.232822 219.243698 
L 823.483898 219.386575 
L 823.734975 219.872173 
L 823.986051 220.939119 
L 824.237128 220.767131 
L 824.739281 221.96431 
L 824.990357 222.805954 
L 825.241434 222.643962 
L 826.24574 224.618826 
L 826.496816 225.028787 
L 826.998969 225.187488 
L 827.250045 225.551466 
L 827.752198 225.525706 
L 828.003275 225.626111 
L 828.254351 225.493889 
L 829.509734 223.238192 
L 829.76081 222.081152 
L 830.011887 221.650645 
L 830.765116 218.727575 
L 831.267269 216.85269 
L 831.769422 214.536577 
L 833.024804 211.040321 
L 833.275881 211.00924 
L 833.778034 211.369232 
L 834.02911 211.938398 
L 834.531263 212.449801 
L 835.033416 214.069748 
L 835.535569 216.443634 
L 836.037722 218.208011 
L 837.544181 222.998124 
L 837.795257 222.716661 
L 838.046334 223.512888 
L 838.29741 223.212989 
L 838.548487 223.356688 
L 838.799563 223.811653 
L 839.301716 222.714572 
L 840.306022 221.778003 
L 840.557099 221.048119 
L 840.808175 220.814676 
L 841.310328 219.793015 
L 841.561405 219.951135 
L 842.063558 219.28877 
L 842.56571 219.851871 
L 842.816787 219.346758 
L 843.067863 219.542276 
L 843.31894 220.171083 
L 843.570016 220.268554 
L 844.323246 221.291664 
L 844.574322 222.366308 
L 844.825399 222.61295 
L 845.076475 223.579208 
L 845.327552 223.914684 
L 845.578628 224.714767 
L 845.829705 224.65697 
L 846.080781 225.579226 
L 846.331858 225.886795 
L 846.582934 225.914799 
L 846.834011 226.159111 
L 847.58724 225.476745 
L 847.838316 224.925591 
L 848.089393 224.669437 
L 849.344775 220.313902 
L 850.098005 216.774184 
L 850.600158 214.907087 
L 851.102311 213.117829 
L 851.353387 213.197974 
L 851.604464 212.567516 
L 851.85554 212.403293 
L 852.106617 211.641257 
L 852.608769 212.55116 
L 852.859846 211.988011 
L 853.110922 212.104629 
L 853.361999 212.586764 
L 853.613075 212.651324 
L 853.864152 213.386356 
L 854.115228 213.631638 
L 854.366305 214.558061 
L 854.617381 214.836101 
L 854.868458 215.907377 
L 856.12384 217.85377 
L 856.374917 217.920274 
L 856.625993 218.549549 
L 856.87707 218.739629 
L 857.128146 219.085726 
L 857.630299 219.094642 
L 858.132452 220.242 
L 858.634605 219.772589 
L 859.387834 220.334853 
L 859.638911 220.522456 
L 859.889987 221.167465 
L 860.643217 221.29655 
L 860.894293 221.983387 
L 861.14537 221.821236 
L 861.396446 222.119081 
L 861.647523 222.60623 
L 861.898599 222.127794 
L 862.149676 222.308346 
L 862.651828 222.148785 
L 862.902905 221.974852 
L 863.153981 222.230453 
L 863.656134 221.378363 
L 863.907211 221.249774 
L 864.158287 220.835897 
L 864.409364 220.865057 
L 864.66044 220.599118 
L 864.911517 220.036557 
L 865.162593 219.750239 
L 865.41367 219.089693 
L 865.915823 219.046771 
L 866.166899 219.554497 
L 866.417976 219.266889 
L 866.669052 219.449579 
L 866.920129 219.835675 
L 867.422282 220.25847 
L 867.924434 221.648548 
L 868.175511 221.556716 
L 868.426587 222.819338 
L 868.677664 222.919102 
L 869.179817 224.333769 
L 869.68197 225.336841 
L 869.933046 226.238243 
L 870.435199 227.270233 
L 870.686276 227.911515 
L 870.937352 228.05151 
L 871.690582 229.21612 
L 871.941658 229.343418 
L 872.192735 229.173788 
L 872.694888 229.433744 
L 872.945964 229.340538 
L 873.19704 229.481839 
L 873.699193 229.416393 
L 873.95027 229.509622 
L 874.201346 229.35041 
L 874.452423 229.343549 
L 875.205652 230.11697 
L 875.456729 230.338913 
L 876.209958 231.664623 
L 876.461035 232.007534 
L 876.963188 233.135816 
L 877.716417 234.119804 
L 877.967493 233.912511 
L 878.21857 233.947837 
L 878.720723 233.517807 
L 879.473952 231.048 
L 882.737947 209.555876 
L 882.989023 208.379461 
L 883.742252 207.218844 
L 883.993329 207.048715 
L 884.244405 207.187149 
L 884.746558 208.298068 
L 884.997635 209.655165 
L 885.248711 210.323803 
L 886.001941 215.283668 
L 886.253017 216.309531 
L 886.504094 218.644066 
L 887.006247 221.528451 
L 887.5084 225.110685 
L 888.261629 229.181317 
L 889.014858 232.001108 
L 889.768088 232.842741 
L 890.521317 231.830934 
L 891.274547 229.062081 
L 892.278853 224.314853 
L 892.529929 223.757262 
L 893.032082 221.682402 
L 893.534235 220.759651 
L 893.785311 220.549523 
L 894.036388 220.689588 
L 894.287464 220.422272 
L 895.040694 222.678216 
L 895.542847 224.650346 
L 896.296076 228.423517 
L 897.049306 231.593483 
L 897.551459 232.803752 
L 897.802535 233.259192 
L 898.555764 233.551527 
L 898.806841 232.930455 
L 899.308994 232.298481 
L 900.3133 229.506528 
L 900.564376 228.790669 
L 900.815453 228.629708 
L 901.317606 226.961489 
L 901.568682 226.81349 
L 901.819759 226.060484 
L 902.321912 226.035566 
L 902.572988 225.90672 
L 903.075141 226.028718 
L 903.577294 226.79642 
L 903.82837 226.962667 
L 904.5816 228.023538 
L 905.083753 229.116189 
L 905.585906 229.719626 
L 906.339135 230.134626 
L 906.590212 230.446315 
L 906.841288 230.372713 
L 907.092365 230.416162 
L 907.343441 230.211104 
L 907.594518 230.316421 
L 908.347747 229.24555 
L 908.598823 229.450514 
L 908.8499 228.73404 
L 909.100976 228.479088 
L 909.352053 227.855774 
L 909.603129 227.868008 
L 909.854206 227.214936 
L 910.105282 227.323383 
L 910.356359 226.787502 
L 910.607435 226.939823 
L 911.109588 226.535758 
L 911.360665 226.817151 
L 911.611741 226.490401 
L 911.862818 226.629293 
L 912.113894 227.318034 
L 912.364971 227.297764 
L 912.616047 227.629175 
L 913.1182 228.732836 
L 913.369276 229.165782 
L 914.122506 231.228607 
L 914.624659 232.140108 
L 915.377888 234.078285 
L 916.382194 235.981605 
L 917.637577 237.392613 
L 917.888653 237.433597 
L 918.390806 237.780309 
L 919.395112 237.915457 
L 919.646188 237.535506 
L 919.897265 237.639679 
L 920.399418 237.143933 
L 920.650494 237.024637 
L 921.905877 235.362638 
L 922.156953 234.755471 
L 922.40803 234.582199 
L 923.663412 232.349935 
L 924.667718 231.618039 
L 924.918794 231.189405 
L 925.169871 231.176674 
L 925.420947 231.004409 
L 925.672024 230.429216 
L 925.9231 230.80005 
L 926.174177 230.335773 
L 926.425253 230.485946 
L 926.67633 229.979096 
L 926.927406 229.790996 
L 927.178483 230.024479 
L 927.429559 229.419838 
L 927.680636 229.321677 
L 927.931712 229.422482 
L 928.182789 229.261077 
L 928.936018 228.37961 
L 929.187094 227.610183 
L 929.438171 227.685323 
L 930.693553 226.047772 
L 930.94463 226.093706 
L 931.195706 225.911058 
L 931.446783 226.204627 
L 931.697859 225.859364 
L 931.948936 226.088862 
L 932.200012 226.063641 
L 932.702165 226.460176 
L 933.204318 227.704945 
L 933.455395 227.933198 
L 933.957547 229.26333 
L 934.208624 229.483312 
L 934.710777 230.793269 
L 935.715083 233.114824 
L 936.217236 233.917941 
L 936.719389 234.319774 
L 937.221542 234.233005 
L 937.723695 234.313856 
L 938.476924 233.672071 
L 938.728 233.774171 
L 938.979077 233.378083 
L 939.48123 233.113646 
L 939.732306 233.06193 
L 940.234459 232.458463 
L 940.485536 232.672557 
L 940.987689 232.503297 
L 941.740918 232.545176 
L 942.745224 231.919078 
L 942.996301 232.057408 
L 943.498454 231.38472 
L 944.000606 231.028556 
L 944.753836 230.516292 
L 945.507065 229.728768 
L 945.758142 229.270967 
L 946.009218 229.446972 
L 946.260295 228.563661 
L 946.511371 228.813535 
L 946.762448 228.731151 
L 947.264601 228.231682 
L 947.515677 228.20966 
L 947.766754 228.038069 
L 948.01783 228.313374 
L 948.268907 228.24453 
L 948.519983 228.579408 
L 948.771059 228.714985 
L 949.022136 228.554441 
L 949.273212 229.352597 
L 949.524289 229.379622 
L 950.277518 231.086973 
L 950.528595 231.316312 
L 950.779671 232.217755 
L 951.281824 233.27999 
L 951.532901 234.070535 
L 952.035054 234.842454 
L 952.28613 235.548444 
L 952.537207 235.596953 
L 953.03936 236.267642 
L 953.290436 236.222655 
L 953.541513 236.366467 
L 953.792589 236.294939 
L 954.545818 235.509632 
L 956.303354 232.103058 
L 956.55443 231.422767 
L 956.805507 231.077142 
L 957.056583 230.485212 
L 957.30766 230.413914 
L 957.558736 230.208712 
L 957.809813 229.625703 
L 958.311966 229.5101 
L 958.563042 229.258179 
L 958.814119 229.424398 
L 959.567348 229.239812 
L 959.818424 229.566887 
L 960.069501 229.654877 
L 960.320577 229.403252 
L 960.571654 229.790244 
L 961.073807 229.743647 
L 961.324883 229.56401 
L 961.57596 229.836756 
L 961.827036 229.669121 
L 962.078113 229.811908 
L 962.329189 229.808377 
L 962.580266 229.620383 
L 962.831342 229.832595 
L 963.082419 229.622607 
L 963.333495 229.621164 
L 963.584572 229.286828 
L 964.086724 229.128617 
L 964.337801 229.312347 
L 964.588877 229.199577 
L 965.09103 228.613852 
L 965.593183 228.753074 
L 965.84426 228.412884 
L 966.095336 228.518816 
L 966.346413 228.47502 
L 966.597489 228.704005 
L 967.099642 228.436911 
L 967.350719 228.635076 
L 967.601795 228.637346 
L 967.852872 228.949089 
L 968.606101 229.235762 
L 969.35933 230.061406 
L 969.610407 229.846324 
L 969.861483 230.222618 
L 970.11256 230.307097 
L 970.363636 230.622531 
L 970.363636 230.622531 
" style="fill:none;stroke:#1f77b4;stroke-linecap:square;stroke-width:1.5;"/>
   </g>
   <g id="patch_3">
    <path d="M 180 252 
L 180 34.56 
" style="fill:none;stroke:#000000;stroke-linecap:square;stroke-linejoin:miter;stroke-width:0.8;"/>
   </g>
   <g id="patch_4">
    <path d="M 1008 252 
L 1008 34.56 
" style="fill:none;stroke:#000000;stroke-linecap:square;stroke-linejoin:miter;stroke-width:0.8;"/>
   </g>
   <g id="patch_5">
    <path d="M 180 252 
L 1008 252 
" style="fill:none;stroke:#000000;stroke-linecap:square;stroke-linejoin:miter;stroke-width:0.8;"/>
   </g>
   <g id="patch_6">
    <path d="M 180 34.56 
L 1008 34.56 
" style="fill:none;stroke:#000000;stroke-linecap:square;stroke-linejoin:miter;stroke-width:0.8;"/>
   </g>
   <g id="legend_1">
    <g id="PathCollection_2">
     <g>
      <use style="fill:#ff0000;stroke:#ff0000;" x="1085.8" xlink:href="#m0f73f6c767" y="56.745312"/>
     </g>
    </g>
    <g id="text_11">
     <!-- &gt; mean + 3SD -->
     <defs>
      <path d="M 52.875 31.296875 
L 5.46875 11.03125 
L 5.46875 19.78125 
L 43.015625 35.359375 
L 5.46875 50.78125 
L 5.46875 59.515625 
L 52.875 39.5 
z
" id="ArialMT-62"/>
      <path d="M 25.046875 11.578125 
L 25.046875 31.203125 
L 5.5625 31.203125 
L 5.5625 39.40625 
L 25.046875 39.40625 
L 25.046875 58.890625 
L 33.34375 58.890625 
L 33.34375 39.40625 
L 52.828125 39.40625 
L 52.828125 31.203125 
L 33.34375 31.203125 
L 33.34375 11.578125 
z
" id="ArialMT-43"/>
      <path d="M 4.5 23 
L 13.421875 23.78125 
Q 14.0625 18.40625 16.375 14.96875 
Q 18.703125 11.53125 23.578125 9.40625 
Q 28.46875 7.28125 34.578125 7.28125 
Q 39.984375 7.28125 44.140625 8.890625 
Q 48.296875 10.5 50.3125 13.296875 
Q 52.34375 16.109375 52.34375 19.4375 
Q 52.34375 22.796875 50.390625 25.3125 
Q 48.4375 27.828125 43.953125 29.546875 
Q 41.0625 30.671875 31.203125 33.03125 
Q 21.34375 35.40625 17.390625 37.5 
Q 12.25 40.1875 9.734375 44.15625 
Q 7.234375 48.140625 7.234375 53.078125 
Q 7.234375 58.5 10.296875 63.203125 
Q 13.375 67.921875 19.28125 70.359375 
Q 25.203125 72.796875 32.421875 72.796875 
Q 40.375 72.796875 46.453125 70.234375 
Q 52.546875 67.671875 55.8125 62.6875 
Q 59.078125 57.71875 59.328125 51.421875 
L 50.25 50.734375 
Q 49.515625 57.515625 45.28125 60.984375 
Q 41.0625 64.453125 32.8125 64.453125 
Q 24.21875 64.453125 20.28125 61.296875 
Q 16.359375 58.15625 16.359375 53.71875 
Q 16.359375 49.859375 19.140625 47.359375 
Q 21.875 44.875 33.421875 42.265625 
Q 44.96875 39.65625 49.265625 37.703125 
Q 55.515625 34.8125 58.484375 30.390625 
Q 61.46875 25.984375 61.46875 20.21875 
Q 61.46875 14.5 58.203125 9.4375 
Q 54.9375 4.390625 48.796875 1.578125 
Q 42.671875 -1.21875 35.015625 -1.21875 
Q 25.296875 -1.21875 18.71875 1.609375 
Q 12.15625 4.4375 8.421875 10.125 
Q 4.6875 15.828125 4.5 23 
z
" id="ArialMT-83"/>
      <path d="M 7.71875 0 
L 7.71875 71.578125 
L 32.375 71.578125 
Q 40.71875 71.578125 45.125 70.5625 
Q 51.265625 69.140625 55.609375 65.4375 
Q 61.28125 60.640625 64.078125 53.1875 
Q 66.890625 45.75 66.890625 36.1875 
Q 66.890625 28.03125 64.984375 21.734375 
Q 63.09375 15.4375 60.109375 11.296875 
Q 57.125 7.171875 53.578125 4.796875 
Q 50.046875 2.4375 45.046875 1.21875 
Q 40.046875 0 33.546875 0 
z
M 17.1875 8.453125 
L 32.46875 8.453125 
Q 39.546875 8.453125 43.578125 9.765625 
Q 47.609375 11.078125 50 13.484375 
Q 53.375 16.84375 55.25 22.53125 
Q 57.125 28.21875 57.125 36.328125 
Q 57.125 47.5625 53.4375 53.59375 
Q 49.75 59.625 44.484375 61.671875 
Q 40.671875 63.140625 32.234375 63.140625 
L 17.1875 63.140625 
z
" id="ArialMT-68"/>
     </defs>
     <g transform="translate(1132.6 63.570312)scale(0.26 -0.26)">
      <use xlink:href="#ArialMT-62"/>
      <use x="58.398438" xlink:href="#ArialMT-32"/>
      <use x="86.181641" xlink:href="#ArialMT-109"/>
      <use x="169.482422" xlink:href="#ArialMT-101"/>
      <use x="225.097656" xlink:href="#ArialMT-97"/>
      <use x="280.712891" xlink:href="#ArialMT-110"/>
      <use x="336.328125" xlink:href="#ArialMT-32"/>
      <use x="364.111328" xlink:href="#ArialMT-43"/>
      <use x="422.509766" xlink:href="#ArialMT-32"/>
      <use x="450.292969" xlink:href="#ArialMT-51"/>
      <use x="505.908203" xlink:href="#ArialMT-83"/>
      <use x="572.607422" xlink:href="#ArialMT-68"/>
     </g>
    </g>
   </g>
  </g>
 </g>
 <defs>
  <clipPath id="p5fc1a82c8f">
   <rect height="217.44" width="828" x="180" y="34.56"/>
  </clipPath>
 </defs>
</svg>
