<?xml version="1.0" encoding="utf-8" standalone="no"?>
<!DOCTYPE svg PUBLIC "-//W3C//DTD SVG 1.1//EN"
  "http://www.w3.org/Graphics/SVG/1.1/DTD/svg11.dtd">
<!-- Created with matplotlib (https://matplotlib.org/) -->
<svg height="299.053438pt" version="1.1" viewBox="0 0 1252.01075 299.053438" width="1252.01075pt" xmlns="http://www.w3.org/2000/svg" xmlns:xlink="http://www.w3.org/1999/xlink">
 <defs>
  <style type="text/css">
*{stroke-linecap:butt;stroke-linejoin:round;}
  </style>
 </defs>
 <g id="figure_1">
  <g id="patch_1">
   <path d="M 0 299.053438 
L 1252.01075 299.053438 
L 1252.01075 0 
L 0 0 
z
" style="fill:#ffffff;"/>
  </g>
  <g id="axes_1">
   <g id="patch_2">
    <path d="M 114.1595 232.980938 
L 942.1595 232.980938 
L 942.1595 15.540938 
L 114.1595 15.540938 
z
" style="fill:#ffffff;"/>
   </g>
   <g id="PathCollection_1">
    <defs>
     <path d="M 0 3 
C 0.795609 3 1.55874 2.683901 2.12132 2.12132 
C 2.683901 1.55874 3 0.795609 3 0 
C 3 -0.795609 2.683901 -1.55874 2.12132 -2.12132 
C 1.55874 -2.683901 0.795609 -3 0 -3 
C -0.795609 -3 -1.55874 -2.683901 -2.12132 -2.12132 
C -2.683901 -1.55874 -3 -0.795609 -3 0 
C -3 0.795609 -2.683901 1.55874 -2.12132 2.12132 
C -1.55874 2.683901 -0.795609 3 0 3 
z
" id="m48a7dd52e3" style="stroke:#ff0000;"/>
    </defs>
    <g clip-path="url(#p9856f8e205)">
     <use style="fill:#ff0000;stroke:#ff0000;" x="402.621262" xlink:href="#m48a7dd52e3" y="25.424574"/>
     <use style="fill:#ff0000;stroke:#ff0000;" x="402.872339" xlink:href="#m48a7dd52e3" y="48.871228"/>
     <use style="fill:#ff0000;stroke:#ff0000;" x="403.123415" xlink:href="#m48a7dd52e3" y="73.80437"/>
     <use style="fill:#ff0000;stroke:#ff0000;" x="403.374492" xlink:href="#m48a7dd52e3" y="90.412263"/>
     <use style="fill:#ff0000;stroke:#ff0000;" x="403.625568" xlink:href="#m48a7dd52e3" y="104.679839"/>
     <use style="fill:#ff0000;stroke:#ff0000;" x="403.876645" xlink:href="#m48a7dd52e3" y="115.666708"/>
     <use style="fill:#ff0000;stroke:#ff0000;" x="404.127721" xlink:href="#m48a7dd52e3" y="126.109449"/>
     <use style="fill:#ff0000;stroke:#ff0000;" x="404.378798" xlink:href="#m48a7dd52e3" y="135.673216"/>
     <use style="fill:#ff0000;stroke:#ff0000;" x="404.629874" xlink:href="#m48a7dd52e3" y="141.708623"/>
     <use style="fill:#ff0000;stroke:#ff0000;" x="404.880951" xlink:href="#m48a7dd52e3" y="146.139726"/>
     <use style="fill:#ff0000;stroke:#ff0000;" x="405.132027" xlink:href="#m48a7dd52e3" y="147.633967"/>
     <use style="fill:#ff0000;stroke:#ff0000;" x="405.383104" xlink:href="#m48a7dd52e3" y="153.431778"/>
     <use style="fill:#ff0000;stroke:#ff0000;" x="405.63418" xlink:href="#m48a7dd52e3" y="156.575265"/>
     <use style="fill:#ff0000;stroke:#ff0000;" x="405.885257" xlink:href="#m48a7dd52e3" y="157.414917"/>
     <use style="fill:#ff0000;stroke:#ff0000;" x="406.136333" xlink:href="#m48a7dd52e3" y="160.500103"/>
     <use style="fill:#ff0000;stroke:#ff0000;" x="406.38741" xlink:href="#m48a7dd52e3" y="161.383437"/>
     <use style="fill:#ff0000;stroke:#ff0000;" x="406.638486" xlink:href="#m48a7dd52e3" y="163.493109"/>
     <use style="fill:#ff0000;stroke:#ff0000;" x="441.035963" xlink:href="#m48a7dd52e3" y="163.433317"/>
     <use style="fill:#ff0000;stroke:#ff0000;" x="441.28704" xlink:href="#m48a7dd52e3" y="160.987584"/>
     <use style="fill:#ff0000;stroke:#ff0000;" x="441.538116" xlink:href="#m48a7dd52e3" y="161.814667"/>
     <use style="fill:#ff0000;stroke:#ff0000;" x="441.789193" xlink:href="#m48a7dd52e3" y="163.563071"/>
     <use style="fill:#ff0000;stroke:#ff0000;" x="471.416217" xlink:href="#m48a7dd52e3" y="162.872963"/>
     <use style="fill:#ff0000;stroke:#ff0000;" x="653.697738" xlink:href="#m48a7dd52e3" y="159.703132"/>
     <use style="fill:#ff0000;stroke:#ff0000;" x="653.948814" xlink:href="#m48a7dd52e3" y="163.064749"/>
    </g>
   </g>
   <g id="matplotlib.axis_1">
    <g id="xtick_1">
     <g id="line2d_1">
      <path clip-path="url(#p9856f8e205)" d="M 151.795864 232.980938 
L 151.795864 15.540938 
" style="fill:none;stroke:#b0b0b0;stroke-linecap:square;stroke-width:0.8;"/>
     </g>
     <g id="line2d_2">
      <defs>
       <path d="M 0 0 
L 0 3.5 
" id="me51a597906" style="stroke:#000000;stroke-width:0.8;"/>
      </defs>
      <g>
       <use style="stroke:#000000;stroke-width:0.8;" x="151.795864" xlink:href="#me51a597906" y="232.980938"/>
      </g>
     </g>
     <g id="text_1">
      <!-- 0 -->
      <defs>
       <path d="M 4.15625 35.296875 
Q 4.15625 48 6.765625 55.734375 
Q 9.375 63.484375 14.515625 67.671875 
Q 19.671875 71.875 27.484375 71.875 
Q 33.25 71.875 37.59375 69.546875 
Q 41.9375 67.234375 44.765625 62.859375 
Q 47.609375 58.5 49.21875 52.21875 
Q 50.828125 45.953125 50.828125 35.296875 
Q 50.828125 22.703125 48.234375 14.96875 
Q 45.65625 7.234375 40.5 3 
Q 35.359375 -1.21875 27.484375 -1.21875 
Q 17.140625 -1.21875 11.234375 6.203125 
Q 4.15625 15.140625 4.15625 35.296875 
z
M 13.1875 35.296875 
Q 13.1875 17.671875 17.3125 11.828125 
Q 21.4375 6 27.484375 6 
Q 33.546875 6 37.671875 11.859375 
Q 41.796875 17.71875 41.796875 35.296875 
Q 41.796875 52.984375 37.671875 58.78125 
Q 33.546875 64.59375 27.390625 64.59375 
Q 21.34375 64.59375 17.71875 59.46875 
Q 13.1875 52.9375 13.1875 35.296875 
z
" id="ArialMT-48"/>
      </defs>
      <g transform="translate(144.566645 258.59125)scale(0.26 -0.26)">
       <use xlink:href="#ArialMT-48"/>
      </g>
     </g>
    </g>
    <g id="xtick_2">
     <g id="line2d_3">
      <path clip-path="url(#p9856f8e205)" d="M 402.872339 232.980938 
L 402.872339 15.540938 
" style="fill:none;stroke:#b0b0b0;stroke-linecap:square;stroke-width:0.8;"/>
     </g>
     <g id="line2d_4">
      <g>
       <use style="stroke:#000000;stroke-width:0.8;" x="402.872339" xlink:href="#me51a597906" y="232.980938"/>
      </g>
     </g>
     <g id="text_2">
      <!-- 1000 -->
      <defs>
       <path d="M 37.25 0 
L 28.46875 0 
L 28.46875 56 
Q 25.296875 52.984375 20.140625 49.953125 
Q 14.984375 46.921875 10.890625 45.40625 
L 10.890625 53.90625 
Q 18.265625 57.375 23.78125 62.296875 
Q 29.296875 67.234375 31.59375 71.875 
L 37.25 71.875 
z
" id="ArialMT-49"/>
      </defs>
      <g transform="translate(373.955464 258.59125)scale(0.26 -0.26)">
       <use xlink:href="#ArialMT-49"/>
       <use x="55.615234" xlink:href="#ArialMT-48"/>
       <use x="111.230469" xlink:href="#ArialMT-48"/>
       <use x="166.845703" xlink:href="#ArialMT-48"/>
      </g>
     </g>
    </g>
    <g id="xtick_3">
     <g id="line2d_5">
      <path clip-path="url(#p9856f8e205)" d="M 653.948814 232.980938 
L 653.948814 15.540938 
" style="fill:none;stroke:#b0b0b0;stroke-linecap:square;stroke-width:0.8;"/>
     </g>
     <g id="line2d_6">
      <g>
       <use style="stroke:#000000;stroke-width:0.8;" x="653.948814" xlink:href="#me51a597906" y="232.980938"/>
      </g>
     </g>
     <g id="text_3">
      <!-- 2000 -->
      <defs>
       <path d="M 50.34375 8.453125 
L 50.34375 0 
L 3.03125 0 
Q 2.9375 3.171875 4.046875 6.109375 
Q 5.859375 10.9375 9.828125 15.625 
Q 13.8125 20.3125 21.34375 26.46875 
Q 33.015625 36.03125 37.109375 41.625 
Q 41.21875 47.21875 41.21875 52.203125 
Q 41.21875 57.421875 37.46875 61 
Q 33.734375 64.59375 27.734375 64.59375 
Q 21.390625 64.59375 17.578125 60.78125 
Q 13.765625 56.984375 13.71875 50.25 
L 4.6875 51.171875 
Q 5.609375 61.28125 11.65625 66.578125 
Q 17.71875 71.875 27.9375 71.875 
Q 38.234375 71.875 44.234375 66.15625 
Q 50.25 60.453125 50.25 52 
Q 50.25 47.703125 48.484375 43.546875 
Q 46.734375 39.40625 42.65625 34.8125 
Q 38.578125 30.21875 29.109375 22.21875 
Q 21.1875 15.578125 18.9375 13.203125 
Q 16.703125 10.84375 15.234375 8.453125 
z
" id="ArialMT-50"/>
      </defs>
      <g transform="translate(625.031939 258.59125)scale(0.26 -0.26)">
       <use xlink:href="#ArialMT-50"/>
       <use x="55.615234" xlink:href="#ArialMT-48"/>
       <use x="111.230469" xlink:href="#ArialMT-48"/>
       <use x="166.845703" xlink:href="#ArialMT-48"/>
      </g>
     </g>
    </g>
    <g id="xtick_4">
     <g id="line2d_7">
      <path clip-path="url(#p9856f8e205)" d="M 905.025289 232.980938 
L 905.025289 15.540938 
" style="fill:none;stroke:#b0b0b0;stroke-linecap:square;stroke-width:0.8;"/>
     </g>
     <g id="line2d_8">
      <g>
       <use style="stroke:#000000;stroke-width:0.8;" x="905.025289" xlink:href="#me51a597906" y="232.980938"/>
      </g>
     </g>
     <g id="text_4">
      <!-- 3000 -->
      <defs>
       <path d="M 4.203125 18.890625 
L 12.984375 20.0625 
Q 14.5 12.59375 18.140625 9.296875 
Q 21.78125 6 27 6 
Q 33.203125 6 37.46875 10.296875 
Q 41.75 14.59375 41.75 20.953125 
Q 41.75 27 37.796875 30.921875 
Q 33.84375 34.859375 27.734375 34.859375 
Q 25.25 34.859375 21.53125 33.890625 
L 22.515625 41.609375 
Q 23.390625 41.5 23.921875 41.5 
Q 29.546875 41.5 34.03125 44.421875 
Q 38.53125 47.359375 38.53125 53.46875 
Q 38.53125 58.296875 35.25 61.46875 
Q 31.984375 64.65625 26.8125 64.65625 
Q 21.6875 64.65625 18.265625 61.421875 
Q 14.84375 58.203125 13.875 51.765625 
L 5.078125 53.328125 
Q 6.6875 62.15625 12.390625 67.015625 
Q 18.109375 71.875 26.609375 71.875 
Q 32.46875 71.875 37.390625 69.359375 
Q 42.328125 66.84375 44.9375 62.5 
Q 47.5625 58.15625 47.5625 53.265625 
Q 47.5625 48.640625 45.0625 44.828125 
Q 42.578125 41.015625 37.703125 38.765625 
Q 44.046875 37.3125 47.5625 32.6875 
Q 51.078125 28.078125 51.078125 21.140625 
Q 51.078125 11.765625 44.234375 5.25 
Q 37.40625 -1.265625 26.953125 -1.265625 
Q 17.53125 -1.265625 11.296875 4.34375 
Q 5.078125 9.96875 4.203125 18.890625 
z
" id="ArialMT-51"/>
      </defs>
      <g transform="translate(876.108414 258.59125)scale(0.26 -0.26)">
       <use xlink:href="#ArialMT-51"/>
       <use x="55.615234" xlink:href="#ArialMT-48"/>
       <use x="111.230469" xlink:href="#ArialMT-48"/>
       <use x="166.845703" xlink:href="#ArialMT-48"/>
      </g>
     </g>
    </g>
    <g id="text_5">
     <!-- # sample -->
     <defs>
      <path d="M 5.03125 -1.21875 
L 9.28125 19.578125 
L 1.03125 19.578125 
L 1.03125 26.859375 
L 10.75 26.859375 
L 14.359375 44.578125 
L 1.03125 44.578125 
L 1.03125 51.859375 
L 15.828125 51.859375 
L 20.0625 72.796875 
L 27.390625 72.796875 
L 23.140625 51.859375 
L 38.53125 51.859375 
L 42.78125 72.796875 
L 50.140625 72.796875 
L 45.90625 51.859375 
L 54.34375 51.859375 
L 54.34375 44.578125 
L 44.4375 44.578125 
L 40.765625 26.859375 
L 54.34375 26.859375 
L 54.34375 19.578125 
L 39.3125 19.578125 
L 35.0625 -1.21875 
L 27.734375 -1.21875 
L 31.9375 19.578125 
L 16.609375 19.578125 
L 12.359375 -1.21875 
z
M 18.0625 26.859375 
L 33.40625 26.859375 
L 37.0625 44.578125 
L 21.6875 44.578125 
z
" id="ArialMT-35"/>
      <path id="ArialMT-32"/>
      <path d="M 3.078125 15.484375 
L 11.765625 16.84375 
Q 12.5 11.625 15.84375 8.84375 
Q 19.1875 6.0625 25.203125 6.0625 
Q 31.25 6.0625 34.171875 8.515625 
Q 37.109375 10.984375 37.109375 14.3125 
Q 37.109375 17.28125 34.515625 19 
Q 32.71875 20.171875 25.53125 21.96875 
Q 15.875 24.421875 12.140625 26.203125 
Q 8.40625 27.984375 6.46875 31.125 
Q 4.546875 34.28125 4.546875 38.09375 
Q 4.546875 41.546875 6.125 44.5 
Q 7.71875 47.46875 10.453125 49.421875 
Q 12.5 50.921875 16.03125 51.96875 
Q 19.578125 53.03125 23.640625 53.03125 
Q 29.734375 53.03125 34.34375 51.265625 
Q 38.96875 49.515625 41.15625 46.5 
Q 43.359375 43.5 44.1875 38.484375 
L 35.59375 37.3125 
Q 35.015625 41.3125 32.203125 43.546875 
Q 29.390625 45.796875 24.265625 45.796875 
Q 18.21875 45.796875 15.625 43.796875 
Q 13.03125 41.796875 13.03125 39.109375 
Q 13.03125 37.40625 14.109375 36.03125 
Q 15.1875 34.625 17.484375 33.6875 
Q 18.796875 33.203125 25.25 31.453125 
Q 34.578125 28.953125 38.25 27.359375 
Q 41.9375 25.78125 44.03125 22.75 
Q 46.140625 19.734375 46.140625 15.234375 
Q 46.140625 10.84375 43.578125 6.953125 
Q 41.015625 3.078125 36.171875 0.953125 
Q 31.34375 -1.171875 25.25 -1.171875 
Q 15.140625 -1.171875 9.84375 3.03125 
Q 4.546875 7.234375 3.078125 15.484375 
z
" id="ArialMT-115"/>
      <path d="M 40.4375 6.390625 
Q 35.546875 2.25 31.03125 0.53125 
Q 26.515625 -1.171875 21.34375 -1.171875 
Q 12.796875 -1.171875 8.203125 3 
Q 3.609375 7.171875 3.609375 13.671875 
Q 3.609375 17.484375 5.34375 20.625 
Q 7.078125 23.78125 9.890625 25.6875 
Q 12.703125 27.59375 16.21875 28.5625 
Q 18.796875 29.25 24.03125 29.890625 
Q 34.671875 31.15625 39.703125 32.90625 
Q 39.75 34.71875 39.75 35.203125 
Q 39.75 40.578125 37.25 42.78125 
Q 33.890625 45.75 27.25 45.75 
Q 21.046875 45.75 18.09375 43.578125 
Q 15.140625 41.40625 13.71875 35.890625 
L 5.125 37.0625 
Q 6.296875 42.578125 8.984375 45.96875 
Q 11.671875 49.359375 16.75 51.1875 
Q 21.828125 53.03125 28.515625 53.03125 
Q 35.15625 53.03125 39.296875 51.46875 
Q 43.453125 49.90625 45.40625 47.53125 
Q 47.359375 45.171875 48.140625 41.546875 
Q 48.578125 39.3125 48.578125 33.453125 
L 48.578125 21.734375 
Q 48.578125 9.46875 49.140625 6.21875 
Q 49.703125 2.984375 51.375 0 
L 42.1875 0 
Q 40.828125 2.734375 40.4375 6.390625 
z
M 39.703125 26.03125 
Q 34.90625 24.078125 25.34375 22.703125 
Q 19.921875 21.921875 17.671875 20.9375 
Q 15.4375 19.96875 14.203125 18.09375 
Q 12.984375 16.21875 12.984375 13.921875 
Q 12.984375 10.40625 15.640625 8.0625 
Q 18.3125 5.71875 23.4375 5.71875 
Q 28.515625 5.71875 32.46875 7.9375 
Q 36.421875 10.15625 38.28125 14.015625 
Q 39.703125 17 39.703125 22.796875 
z
" id="ArialMT-97"/>
      <path d="M 6.59375 0 
L 6.59375 51.859375 
L 14.453125 51.859375 
L 14.453125 44.578125 
Q 16.890625 48.390625 20.9375 50.703125 
Q 25 53.03125 30.171875 53.03125 
Q 35.9375 53.03125 39.625 50.640625 
Q 43.3125 48.25 44.828125 43.953125 
Q 50.984375 53.03125 60.84375 53.03125 
Q 68.5625 53.03125 72.703125 48.75 
Q 76.859375 44.484375 76.859375 35.59375 
L 76.859375 0 
L 68.109375 0 
L 68.109375 32.671875 
Q 68.109375 37.9375 67.25 40.25 
Q 66.40625 42.578125 64.15625 43.984375 
Q 61.921875 45.40625 58.890625 45.40625 
Q 53.421875 45.40625 49.796875 41.765625 
Q 46.1875 38.140625 46.1875 30.125 
L 46.1875 0 
L 37.40625 0 
L 37.40625 33.6875 
Q 37.40625 39.546875 35.25 42.46875 
Q 33.109375 45.40625 28.21875 45.40625 
Q 24.515625 45.40625 21.359375 43.453125 
Q 18.21875 41.5 16.796875 37.734375 
Q 15.375 33.984375 15.375 26.90625 
L 15.375 0 
z
" id="ArialMT-109"/>
      <path d="M 6.59375 -19.875 
L 6.59375 51.859375 
L 14.59375 51.859375 
L 14.59375 45.125 
Q 17.4375 49.078125 21 51.046875 
Q 24.5625 53.03125 29.640625 53.03125 
Q 36.28125 53.03125 41.359375 49.609375 
Q 46.4375 46.1875 49.015625 39.953125 
Q 51.609375 33.734375 51.609375 26.3125 
Q 51.609375 18.359375 48.75 11.984375 
Q 45.90625 5.609375 40.453125 2.21875 
Q 35.015625 -1.171875 29 -1.171875 
Q 24.609375 -1.171875 21.109375 0.6875 
Q 17.625 2.546875 15.375 5.375 
L 15.375 -19.875 
z
M 14.546875 25.640625 
Q 14.546875 15.625 18.59375 10.84375 
Q 22.65625 6.0625 28.421875 6.0625 
Q 34.28125 6.0625 38.453125 11.015625 
Q 42.625 15.96875 42.625 26.375 
Q 42.625 36.28125 38.546875 41.203125 
Q 34.46875 46.140625 28.8125 46.140625 
Q 23.1875 46.140625 18.859375 40.890625 
Q 14.546875 35.640625 14.546875 25.640625 
z
" id="ArialMT-112"/>
      <path d="M 6.390625 0 
L 6.390625 71.578125 
L 15.1875 71.578125 
L 15.1875 0 
z
" id="ArialMT-108"/>
      <path d="M 42.09375 16.703125 
L 51.171875 15.578125 
Q 49.03125 7.625 43.21875 3.21875 
Q 37.40625 -1.171875 28.375 -1.171875 
Q 17 -1.171875 10.328125 5.828125 
Q 3.65625 12.84375 3.65625 25.484375 
Q 3.65625 38.578125 10.390625 45.796875 
Q 17.140625 53.03125 27.875 53.03125 
Q 38.28125 53.03125 44.875 45.953125 
Q 51.46875 38.875 51.46875 26.03125 
Q 51.46875 25.25 51.421875 23.6875 
L 12.75 23.6875 
Q 13.234375 15.140625 17.578125 10.59375 
Q 21.921875 6.0625 28.421875 6.0625 
Q 33.25 6.0625 36.671875 8.59375 
Q 40.09375 11.140625 42.09375 16.703125 
z
M 13.234375 30.90625 
L 42.1875 30.90625 
Q 41.609375 37.453125 38.875 40.71875 
Q 34.671875 45.796875 27.984375 45.796875 
Q 21.921875 45.796875 17.796875 41.75 
Q 13.671875 37.703125 13.234375 30.90625 
z
" id="ArialMT-101"/>
     </defs>
     <g transform="translate(475.414031 286.685938)scale(0.26 -0.26)">
      <use xlink:href="#ArialMT-35"/>
      <use x="55.615234" xlink:href="#ArialMT-32"/>
      <use x="83.398438" xlink:href="#ArialMT-115"/>
      <use x="133.398438" xlink:href="#ArialMT-97"/>
      <use x="189.013672" xlink:href="#ArialMT-109"/>
      <use x="272.314453" xlink:href="#ArialMT-112"/>
      <use x="327.929688" xlink:href="#ArialMT-108"/>
      <use x="350.146484" xlink:href="#ArialMT-101"/>
     </g>
    </g>
   </g>
   <g id="matplotlib.axis_2">
    <g id="ytick_1">
     <g id="line2d_9">
      <path clip-path="url(#p9856f8e205)" d="M 114.1595 223.110097 
L 942.1595 223.110097 
" style="fill:none;stroke:#b0b0b0;stroke-linecap:square;stroke-width:0.8;"/>
     </g>
     <g id="line2d_10">
      <defs>
       <path d="M 0 0 
L -3.5 0 
" id="me4694c8a97" style="stroke:#000000;stroke-width:0.8;"/>
      </defs>
      <g>
       <use style="stroke:#000000;stroke-width:0.8;" x="114.1595" xlink:href="#me4694c8a97" y="223.110097"/>
      </g>
     </g>
     <g id="text_6">
      <!-- 0 -->
      <g transform="translate(92.701063 232.415253)scale(0.26 -0.26)">
       <use xlink:href="#ArialMT-48"/>
      </g>
     </g>
    </g>
    <g id="ytick_2">
     <g id="line2d_11">
      <path clip-path="url(#p9856f8e205)" d="M 114.1595 168.086942 
L 942.1595 168.086942 
" style="fill:none;stroke:#b0b0b0;stroke-linecap:square;stroke-width:0.8;"/>
     </g>
     <g id="line2d_12">
      <g>
       <use style="stroke:#000000;stroke-width:0.8;" x="114.1595" xlink:href="#me4694c8a97" y="168.086942"/>
      </g>
     </g>
     <g id="text_7">
      <!-- 200 -->
      <g transform="translate(63.784188 177.392098)scale(0.26 -0.26)">
       <use xlink:href="#ArialMT-50"/>
       <use x="55.615234" xlink:href="#ArialMT-48"/>
       <use x="111.230469" xlink:href="#ArialMT-48"/>
      </g>
     </g>
    </g>
    <g id="ytick_3">
     <g id="line2d_13">
      <path clip-path="url(#p9856f8e205)" d="M 114.1595 113.063786 
L 942.1595 113.063786 
" style="fill:none;stroke:#b0b0b0;stroke-linecap:square;stroke-width:0.8;"/>
     </g>
     <g id="line2d_14">
      <g>
       <use style="stroke:#000000;stroke-width:0.8;" x="114.1595" xlink:href="#me4694c8a97" y="113.063786"/>
      </g>
     </g>
     <g id="text_8">
      <!-- 400 -->
      <defs>
       <path d="M 32.328125 0 
L 32.328125 17.140625 
L 1.265625 17.140625 
L 1.265625 25.203125 
L 33.9375 71.578125 
L 41.109375 71.578125 
L 41.109375 25.203125 
L 50.78125 25.203125 
L 50.78125 17.140625 
L 41.109375 17.140625 
L 41.109375 0 
z
M 32.328125 25.203125 
L 32.328125 57.46875 
L 9.90625 25.203125 
z
" id="ArialMT-52"/>
      </defs>
      <g transform="translate(63.784188 122.368943)scale(0.26 -0.26)">
       <use xlink:href="#ArialMT-52"/>
       <use x="55.615234" xlink:href="#ArialMT-48"/>
       <use x="111.230469" xlink:href="#ArialMT-48"/>
      </g>
     </g>
    </g>
    <g id="ytick_4">
     <g id="line2d_15">
      <path clip-path="url(#p9856f8e205)" d="M 114.1595 58.040631 
L 942.1595 58.040631 
" style="fill:none;stroke:#b0b0b0;stroke-linecap:square;stroke-width:0.8;"/>
     </g>
     <g id="line2d_16">
      <g>
       <use style="stroke:#000000;stroke-width:0.8;" x="114.1595" xlink:href="#me4694c8a97" y="58.040631"/>
      </g>
     </g>
     <g id="text_9">
      <!-- 600 -->
      <defs>
       <path d="M 49.75 54.046875 
L 41.015625 53.375 
Q 39.84375 58.546875 37.703125 60.890625 
Q 34.125 64.65625 28.90625 64.65625 
Q 24.703125 64.65625 21.53125 62.3125 
Q 17.390625 59.28125 14.984375 53.46875 
Q 12.59375 47.65625 12.5 36.921875 
Q 15.671875 41.75 20.265625 44.09375 
Q 24.859375 46.4375 29.890625 46.4375 
Q 38.671875 46.4375 44.84375 39.96875 
Q 51.03125 33.5 51.03125 23.25 
Q 51.03125 16.5 48.125 10.71875 
Q 45.21875 4.9375 40.140625 1.859375 
Q 35.0625 -1.21875 28.609375 -1.21875 
Q 17.625 -1.21875 10.6875 6.859375 
Q 3.765625 14.9375 3.765625 33.5 
Q 3.765625 54.25 11.421875 63.671875 
Q 18.109375 71.875 29.4375 71.875 
Q 37.890625 71.875 43.28125 67.140625 
Q 48.6875 62.40625 49.75 54.046875 
z
M 13.875 23.1875 
Q 13.875 18.65625 15.796875 14.5 
Q 17.71875 10.359375 21.1875 8.171875 
Q 24.65625 6 28.46875 6 
Q 34.03125 6 38.03125 10.484375 
Q 42.046875 14.984375 42.046875 22.703125 
Q 42.046875 30.125 38.078125 34.390625 
Q 34.125 38.671875 28.125 38.671875 
Q 22.171875 38.671875 18.015625 34.390625 
Q 13.875 30.125 13.875 23.1875 
z
" id="ArialMT-54"/>
      </defs>
      <g transform="translate(63.784188 67.345787)scale(0.26 -0.26)">
       <use xlink:href="#ArialMT-54"/>
       <use x="55.615234" xlink:href="#ArialMT-48"/>
       <use x="111.230469" xlink:href="#ArialMT-48"/>
      </g>
     </g>
    </g>
    <g id="text_10">
     <!-- Change-point score  -->
     <defs>
      <path d="M 58.796875 25.09375 
L 68.265625 22.703125 
Q 65.28125 11.03125 57.546875 4.90625 
Q 49.8125 -1.21875 38.625 -1.21875 
Q 27.046875 -1.21875 19.796875 3.484375 
Q 12.546875 8.203125 8.765625 17.140625 
Q 4.984375 26.078125 4.984375 36.328125 
Q 4.984375 47.515625 9.25 55.828125 
Q 13.53125 64.15625 21.40625 68.46875 
Q 29.296875 72.796875 38.765625 72.796875 
Q 49.515625 72.796875 56.828125 67.328125 
Q 64.15625 61.859375 67.046875 51.953125 
L 57.71875 49.75 
Q 55.21875 57.5625 50.484375 61.125 
Q 45.75 64.703125 38.578125 64.703125 
Q 30.328125 64.703125 24.78125 60.734375 
Q 19.234375 56.78125 16.984375 50.109375 
Q 14.75 43.453125 14.75 36.375 
Q 14.75 27.25 17.40625 20.4375 
Q 20.0625 13.625 25.671875 10.25 
Q 31.296875 6.890625 37.84375 6.890625 
Q 45.796875 6.890625 51.3125 11.46875 
Q 56.84375 16.0625 58.796875 25.09375 
z
" id="ArialMT-67"/>
      <path d="M 6.59375 0 
L 6.59375 71.578125 
L 15.375 71.578125 
L 15.375 45.90625 
Q 21.53125 53.03125 30.90625 53.03125 
Q 36.671875 53.03125 40.921875 50.75 
Q 45.171875 48.484375 47 44.484375 
Q 48.828125 40.484375 48.828125 32.859375 
L 48.828125 0 
L 40.046875 0 
L 40.046875 32.859375 
Q 40.046875 39.453125 37.1875 42.453125 
Q 34.328125 45.453125 29.109375 45.453125 
Q 25.203125 45.453125 21.75 43.421875 
Q 18.3125 41.40625 16.84375 37.9375 
Q 15.375 34.46875 15.375 28.375 
L 15.375 0 
z
" id="ArialMT-104"/>
      <path d="M 6.59375 0 
L 6.59375 51.859375 
L 14.5 51.859375 
L 14.5 44.484375 
Q 20.21875 53.03125 31 53.03125 
Q 35.6875 53.03125 39.625 51.34375 
Q 43.5625 49.65625 45.515625 46.921875 
Q 47.46875 44.1875 48.25 40.4375 
Q 48.734375 37.984375 48.734375 31.890625 
L 48.734375 0 
L 39.9375 0 
L 39.9375 31.546875 
Q 39.9375 36.921875 38.90625 39.578125 
Q 37.890625 42.234375 35.28125 43.8125 
Q 32.671875 45.40625 29.15625 45.40625 
Q 23.53125 45.40625 19.453125 41.84375 
Q 15.375 38.28125 15.375 28.328125 
L 15.375 0 
z
" id="ArialMT-110"/>
      <path d="M 4.984375 -4.296875 
L 13.53125 -5.5625 
Q 14.0625 -9.515625 16.5 -11.328125 
Q 19.78125 -13.765625 25.4375 -13.765625 
Q 31.546875 -13.765625 34.859375 -11.328125 
Q 38.1875 -8.890625 39.359375 -4.5 
Q 40.046875 -1.8125 39.984375 6.78125 
Q 34.234375 0 25.640625 0 
Q 14.9375 0 9.078125 7.71875 
Q 3.21875 15.4375 3.21875 26.21875 
Q 3.21875 33.640625 5.90625 39.90625 
Q 8.59375 46.1875 13.6875 49.609375 
Q 18.796875 53.03125 25.6875 53.03125 
Q 34.859375 53.03125 40.828125 45.609375 
L 40.828125 51.859375 
L 48.921875 51.859375 
L 48.921875 7.03125 
Q 48.921875 -5.078125 46.453125 -10.125 
Q 44 -15.1875 38.640625 -18.109375 
Q 33.296875 -21.046875 25.484375 -21.046875 
Q 16.21875 -21.046875 10.5 -16.875 
Q 4.78125 -12.703125 4.984375 -4.296875 
z
M 12.25 26.859375 
Q 12.25 16.65625 16.296875 11.96875 
Q 20.359375 7.28125 26.46875 7.28125 
Q 32.515625 7.28125 36.609375 11.9375 
Q 40.71875 16.609375 40.71875 26.5625 
Q 40.71875 36.078125 36.5 40.90625 
Q 32.28125 45.75 26.3125 45.75 
Q 20.453125 45.75 16.34375 40.984375 
Q 12.25 36.234375 12.25 26.859375 
z
" id="ArialMT-103"/>
      <path d="M 3.171875 21.484375 
L 3.171875 30.328125 
L 30.171875 30.328125 
L 30.171875 21.484375 
z
" id="ArialMT-45"/>
      <path d="M 3.328125 25.921875 
Q 3.328125 40.328125 11.328125 47.265625 
Q 18.015625 53.03125 27.640625 53.03125 
Q 38.328125 53.03125 45.109375 46.015625 
Q 51.90625 39.015625 51.90625 26.65625 
Q 51.90625 16.65625 48.90625 10.90625 
Q 45.90625 5.171875 40.15625 2 
Q 34.421875 -1.171875 27.640625 -1.171875 
Q 16.75 -1.171875 10.03125 5.8125 
Q 3.328125 12.796875 3.328125 25.921875 
z
M 12.359375 25.921875 
Q 12.359375 15.96875 16.703125 11.015625 
Q 21.046875 6.0625 27.640625 6.0625 
Q 34.1875 6.0625 38.53125 11.03125 
Q 42.875 16.015625 42.875 26.21875 
Q 42.875 35.84375 38.5 40.796875 
Q 34.125 45.75 27.640625 45.75 
Q 21.046875 45.75 16.703125 40.8125 
Q 12.359375 35.890625 12.359375 25.921875 
z
" id="ArialMT-111"/>
      <path d="M 6.640625 61.46875 
L 6.640625 71.578125 
L 15.4375 71.578125 
L 15.4375 61.46875 
z
M 6.640625 0 
L 6.640625 51.859375 
L 15.4375 51.859375 
L 15.4375 0 
z
" id="ArialMT-105"/>
      <path d="M 25.78125 7.859375 
L 27.046875 0.09375 
Q 23.34375 -0.6875 20.40625 -0.6875 
Q 15.625 -0.6875 12.984375 0.828125 
Q 10.359375 2.34375 9.28125 4.8125 
Q 8.203125 7.28125 8.203125 15.1875 
L 8.203125 45.015625 
L 1.765625 45.015625 
L 1.765625 51.859375 
L 8.203125 51.859375 
L 8.203125 64.703125 
L 16.9375 69.96875 
L 16.9375 51.859375 
L 25.78125 51.859375 
L 25.78125 45.015625 
L 16.9375 45.015625 
L 16.9375 14.703125 
Q 16.9375 10.9375 17.40625 9.859375 
Q 17.875 8.796875 18.921875 8.15625 
Q 19.96875 7.515625 21.921875 7.515625 
Q 23.390625 7.515625 25.78125 7.859375 
z
" id="ArialMT-116"/>
      <path d="M 40.4375 19 
L 49.078125 17.875 
Q 47.65625 8.9375 41.8125 3.875 
Q 35.984375 -1.171875 27.484375 -1.171875 
Q 16.84375 -1.171875 10.375 5.78125 
Q 3.90625 12.75 3.90625 25.734375 
Q 3.90625 34.125 6.6875 40.421875 
Q 9.46875 46.734375 15.15625 49.875 
Q 20.84375 53.03125 27.546875 53.03125 
Q 35.984375 53.03125 41.359375 48.75 
Q 46.734375 44.484375 48.25 36.625 
L 39.703125 35.296875 
Q 38.484375 40.53125 35.375 43.15625 
Q 32.28125 45.796875 27.875 45.796875 
Q 21.234375 45.796875 17.078125 41.03125 
Q 12.9375 36.28125 12.9375 25.984375 
Q 12.9375 15.53125 16.9375 10.796875 
Q 20.953125 6.0625 27.390625 6.0625 
Q 32.5625 6.0625 36.03125 9.234375 
Q 39.5 12.40625 40.4375 19 
z
" id="ArialMT-99"/>
      <path d="M 6.5 0 
L 6.5 51.859375 
L 14.40625 51.859375 
L 14.40625 44 
Q 17.4375 49.515625 20 51.265625 
Q 22.5625 53.03125 25.640625 53.03125 
Q 30.078125 53.03125 34.671875 50.203125 
L 31.640625 42.046875 
Q 28.421875 43.953125 25.203125 43.953125 
Q 22.3125 43.953125 20.015625 42.21875 
Q 17.71875 40.484375 16.75 37.40625 
Q 15.28125 32.71875 15.28125 27.15625 
L 15.28125 0 
z
" id="ArialMT-114"/>
     </defs>
     <g transform="translate(26.127188 241.321875)rotate(-90)scale(0.26 -0.26)">
      <use xlink:href="#ArialMT-67"/>
      <use x="72.216797" xlink:href="#ArialMT-104"/>
      <use x="127.832031" xlink:href="#ArialMT-97"/>
      <use x="183.447266" xlink:href="#ArialMT-110"/>
      <use x="239.0625" xlink:href="#ArialMT-103"/>
      <use x="294.677734" xlink:href="#ArialMT-101"/>
      <use x="350.292969" xlink:href="#ArialMT-45"/>
      <use x="383.59375" xlink:href="#ArialMT-112"/>
      <use x="439.208984" xlink:href="#ArialMT-111"/>
      <use x="494.824219" xlink:href="#ArialMT-105"/>
      <use x="517.041016" xlink:href="#ArialMT-110"/>
      <use x="572.65625" xlink:href="#ArialMT-116"/>
      <use x="600.439453" xlink:href="#ArialMT-32"/>
      <use x="628.222656" xlink:href="#ArialMT-115"/>
      <use x="678.222656" xlink:href="#ArialMT-99"/>
      <use x="728.222656" xlink:href="#ArialMT-111"/>
      <use x="783.837891" xlink:href="#ArialMT-114"/>
      <use x="817.138672" xlink:href="#ArialMT-101"/>
      <use x="872.753906" xlink:href="#ArialMT-32"/>
     </g>
     <!-- (KL div.) -->
     <defs>
      <path d="M 23.390625 -21.046875 
Q 16.109375 -11.859375 11.078125 0.4375 
Q 6.0625 12.75 6.0625 25.921875 
Q 6.0625 37.546875 9.8125 48.1875 
Q 14.203125 60.546875 23.390625 72.796875 
L 29.6875 72.796875 
Q 23.78125 62.640625 21.875 58.296875 
Q 18.890625 51.5625 17.1875 44.234375 
Q 15.09375 35.109375 15.09375 25.875 
Q 15.09375 2.390625 29.6875 -21.046875 
z
" id="ArialMT-40"/>
      <path d="M 7.328125 0 
L 7.328125 71.578125 
L 16.796875 71.578125 
L 16.796875 36.078125 
L 52.34375 71.578125 
L 65.1875 71.578125 
L 35.15625 42.578125 
L 66.5 0 
L 54 0 
L 28.515625 36.234375 
L 16.796875 24.8125 
L 16.796875 0 
z
" id="ArialMT-75"/>
      <path d="M 7.328125 0 
L 7.328125 71.578125 
L 16.796875 71.578125 
L 16.796875 8.453125 
L 52.046875 8.453125 
L 52.046875 0 
z
" id="ArialMT-76"/>
      <path d="M 40.234375 0 
L 40.234375 6.546875 
Q 35.296875 -1.171875 25.734375 -1.171875 
Q 19.53125 -1.171875 14.328125 2.25 
Q 9.125 5.671875 6.265625 11.796875 
Q 3.421875 17.921875 3.421875 25.875 
Q 3.421875 33.640625 6 39.96875 
Q 8.59375 46.296875 13.765625 49.65625 
Q 18.953125 53.03125 25.34375 53.03125 
Q 30.03125 53.03125 33.6875 51.046875 
Q 37.359375 49.078125 39.65625 45.90625 
L 39.65625 71.578125 
L 48.390625 71.578125 
L 48.390625 0 
z
M 12.453125 25.875 
Q 12.453125 15.921875 16.640625 10.984375 
Q 20.84375 6.0625 26.5625 6.0625 
Q 32.328125 6.0625 36.34375 10.765625 
Q 40.375 15.484375 40.375 25.140625 
Q 40.375 35.796875 36.265625 40.765625 
Q 32.171875 45.75 26.171875 45.75 
Q 20.3125 45.75 16.375 40.96875 
Q 12.453125 36.1875 12.453125 25.875 
z
" id="ArialMT-100"/>
      <path d="M 21 0 
L 1.265625 51.859375 
L 10.546875 51.859375 
L 21.6875 20.796875 
Q 23.484375 15.765625 25 10.359375 
Q 26.171875 14.453125 28.265625 20.21875 
L 39.796875 51.859375 
L 48.828125 51.859375 
L 29.203125 0 
z
" id="ArialMT-118"/>
      <path d="M 9.078125 0 
L 9.078125 10.015625 
L 19.09375 10.015625 
L 19.09375 0 
z
" id="ArialMT-46"/>
      <path d="M 12.359375 -21.046875 
L 6.0625 -21.046875 
Q 20.65625 2.390625 20.65625 25.875 
Q 20.65625 35.0625 18.5625 44.09375 
Q 16.890625 51.421875 13.921875 58.15625 
Q 12.015625 62.546875 6.0625 72.796875 
L 12.359375 72.796875 
Q 21.53125 60.546875 25.921875 48.1875 
Q 29.6875 37.546875 29.6875 25.921875 
Q 29.6875 12.75 24.625 0.4375 
Q 19.578125 -11.859375 12.359375 -21.046875 
z
" id="ArialMT-41"/>
     </defs>
     <g transform="translate(54.312 171.213281)rotate(-90)scale(0.26 -0.26)">
      <use xlink:href="#ArialMT-40"/>
      <use x="33.300781" xlink:href="#ArialMT-75"/>
      <use x="100" xlink:href="#ArialMT-76"/>
      <use x="151.865234" xlink:href="#ArialMT-32"/>
      <use x="179.648438" xlink:href="#ArialMT-100"/>
      <use x="235.263672" xlink:href="#ArialMT-105"/>
      <use x="257.480469" xlink:href="#ArialMT-118"/>
      <use x="300.105469" xlink:href="#ArialMT-46"/>
      <use x="327.888672" xlink:href="#ArialMT-41"/>
     </g>
    </g>
   </g>
   <g id="line2d_17">
    <path clip-path="url(#p9856f8e205)" d="M 151.795864 177.324703 
L 152.04694 199.983818 
L 152.298017 211.311112 
L 152.549093 216.965363 
L 152.80017 219.772709 
L 153.051246 221.181273 
L 153.302322 221.841698 
L 153.804475 222.153136 
L 154.055552 222.045291 
L 154.557705 221.405927 
L 155.059858 219.740833 
L 155.562011 217.156115 
L 156.064164 214.551109 
L 156.31524 213.980168 
L 156.566317 213.685246 
L 156.817393 213.90062 
L 157.319546 215.580959 
L 157.821699 218.145392 
L 158.323852 219.760729 
L 158.574928 219.93117 
L 158.826005 220.919385 
L 159.077081 221.250665 
L 159.328158 221.359146 
L 159.830311 221.823265 
L 160.332464 221.65463 
L 160.58354 221.562491 
L 160.834617 221.727491 
L 161.085693 221.162684 
L 161.33677 221.207329 
L 161.587846 220.733395 
L 161.838923 220.75893 
L 162.089999 220.218204 
L 162.341076 220.220261 
L 162.592152 219.915485 
L 162.843229 219.971923 
L 163.345381 219.034347 
L 163.596458 219.806123 
L 163.847534 219.705347 
L 164.098611 220.295412 
L 164.349687 219.625962 
L 164.600764 219.285823 
L 164.85184 220.60183 
L 165.102917 220.325194 
L 165.353993 219.027119 
L 165.60507 220.606742 
L 165.856146 220.425914 
L 166.358299 221.285375 
L 167.111529 220.465189 
L 167.362605 220.387481 
L 167.864758 221.407049 
L 168.115835 220.255876 
L 168.366911 221.066673 
L 168.617987 221.440914 
L 169.12014 220.456165 
L 169.371217 221.090695 
L 169.622293 220.733225 
L 169.87337 221.482135 
L 170.124446 221.038294 
L 170.375523 220.870524 
L 170.626599 220.370802 
L 170.877676 221.069908 
L 171.128752 221.086623 
L 171.379829 221.279401 
L 171.630905 220.455645 
L 171.881982 220.969394 
L 172.133058 219.986112 
L 172.384135 221.028582 
L 172.635211 220.879868 
L 172.886288 221.750603 
L 173.388441 219.620378 
L 173.639517 220.886887 
L 173.890593 220.231931 
L 174.14167 220.633897 
L 174.392746 220.27772 
L 174.643823 221.085846 
L 174.894899 221.480773 
L 175.145976 220.437133 
L 175.397052 221.432951 
L 175.648129 220.12287 
L 175.899205 221.026009 
L 176.150282 220.481234 
L 176.401358 220.833291 
L 176.652435 220.806789 
L 176.903511 221.355966 
L 177.154588 221.50278 
L 177.405664 221.383978 
L 177.656741 220.757595 
L 177.907817 221.081799 
L 178.158894 221.696617 
L 178.40997 221.255495 
L 178.661046 221.734159 
L 178.912123 221.479651 
L 179.163199 221.538585 
L 179.414276 220.78258 
L 179.665352 221.551287 
L 179.916429 221.507581 
L 180.167505 221.266518 
L 180.418582 221.267249 
L 180.669658 220.743669 
L 180.920735 220.825078 
L 181.171811 220.463495 
L 181.422888 220.996938 
L 181.673964 220.032061 
L 181.925041 220.614165 
L 182.176117 220.546117 
L 182.427194 221.550845 
L 182.67827 220.223688 
L 182.929347 220.503778 
L 183.180423 220.960237 
L 183.4315 220.335264 
L 183.682576 221.269823 
L 183.933652 220.466081 
L 184.184729 220.192324 
L 184.435805 221.003415 
L 184.686882 221.068884 
L 184.937958 221.661898 
L 185.440111 220.627127 
L 185.691188 221.59696 
L 185.942264 220.275221 
L 186.193341 221.306238 
L 186.444417 221.781529 
L 186.695494 221.628089 
L 186.94657 222.104903 
L 187.197647 221.423847 
L 187.448723 221.97351 
L 187.6998 221.486868 
L 187.950876 221.998898 
L 188.453029 221.386842 
L 188.704105 222.067344 
L 188.955182 221.017228 
L 189.457335 221.877037 
L 189.708411 221.767511 
L 189.959488 222.201281 
L 190.461641 221.150486 
L 190.712717 221.07112 
L 190.963794 221.416676 
L 191.21487 220.864848 
L 191.465947 221.970012 
L 192.470253 221.562457 
L 192.721329 221.218398 
L 192.972406 221.515712 
L 193.223482 221.467676 
L 193.474559 221.817405 
L 193.725635 221.75465 
L 193.976711 221.547583 
L 194.227788 221.550492 
L 194.478864 222.086196 
L 194.729941 220.856111 
L 194.981017 221.698073 
L 195.232094 222.150449 
L 195.48317 221.791406 
L 195.734247 220.796679 
L 195.985323 221.960187 
L 196.2364 221.648414 
L 196.989629 222.071153 
L 197.491782 221.844884 
L 197.742859 221.286072 
L 197.993935 221.350971 
L 198.245012 220.842218 
L 198.496088 221.814845 
L 198.747165 221.68174 
L 198.998241 221.720521 
L 199.249317 222.040223 
L 199.500394 221.309088 
L 199.75147 221.151688 
L 200.002547 222.285201 
L 200.253623 222.3554 
L 201.006853 221.38679 
L 201.257929 221.88711 
L 201.760082 221.954945 
L 202.011159 221.710584 
L 202.262235 221.94455 
L 202.513312 221.320794 
L 202.764388 221.675453 
L 203.015465 221.830596 
L 203.266541 221.841599 
L 203.517618 221.619202 
L 203.768694 221.850064 
L 204.01977 221.702967 
L 204.270847 221.727183 
L 204.521923 221.391572 
L 204.773 221.889572 
L 205.024076 221.908376 
L 205.275153 221.554069 
L 205.526229 220.916822 
L 205.777306 222.17707 
L 206.028382 221.630045 
L 206.530535 221.436666 
L 206.781612 222.330726 
L 207.283765 222.121428 
L 207.534841 221.661743 
L 207.785918 222.42563 
L 208.036994 222.036568 
L 208.288071 222.125487 
L 208.539147 222.445473 
L 208.790224 222.27589 
L 209.292376 222.36024 
L 209.543453 221.620868 
L 209.794529 222.319989 
L 210.045606 222.690263 
L 210.547759 221.677893 
L 210.798835 222.199134 
L 211.049912 222.044421 
L 211.300988 222.396182 
L 211.803141 222.274419 
L 212.054218 222.606887 
L 212.305294 222.719923 
L 212.556371 222.125032 
L 212.807447 222.367089 
L 213.058524 222.426335 
L 213.3096 221.668829 
L 213.811753 222.557315 
L 214.062829 222.033536 
L 214.564982 222.514128 
L 214.816059 221.137163 
L 215.067135 222.162035 
L 215.318212 221.857235 
L 215.820365 222.223004 
L 216.071441 222.276249 
L 216.322518 222.052628 
L 216.824671 221.929248 
L 217.075747 221.731041 
L 217.326824 222.019129 
L 217.828977 221.845956 
L 218.080053 221.129774 
L 218.33113 222.034603 
L 218.582206 221.942118 
L 219.335435 222.535593 
L 219.586512 222.259407 
L 219.837588 221.774266 
L 220.088665 222.372354 
L 220.339741 221.672108 
L 220.590818 222.272863 
L 220.841894 221.577777 
L 221.092971 222.17292 
L 221.344047 221.179189 
L 221.595124 222.015748 
L 221.8462 221.788967 
L 222.097277 221.942808 
L 222.59943 222.004979 
L 222.850506 222.194819 
L 223.101583 222.106372 
L 223.352659 222.354231 
L 223.603736 221.650831 
L 223.854812 221.655008 
L 224.105889 222.026329 
L 224.356965 221.815184 
L 224.608041 221.783598 
L 224.859118 222.124686 
L 225.110194 221.844239 
L 225.361271 222.063209 
L 225.612347 221.354885 
L 225.863424 221.595669 
L 226.365577 220.85391 
L 226.616653 221.72452 
L 226.86773 221.770356 
L 227.118806 222.072636 
L 227.369883 221.693757 
L 227.620959 221.66694 
L 227.872036 220.615008 
L 228.123112 221.137661 
L 228.374189 222.156539 
L 228.625265 221.951194 
L 228.876342 221.362018 
L 229.127418 221.752229 
L 229.378494 221.544823 
L 229.629571 221.986849 
L 230.131724 222.274352 
L 230.3828 221.520052 
L 230.633877 222.430641 
L 230.884953 221.558886 
L 231.13603 222.255283 
L 231.387106 222.114278 
L 231.638183 222.479089 
L 231.889259 222.02072 
L 232.140336 222.197826 
L 232.391412 222.092727 
L 232.642489 222.16856 
L 232.893565 221.58416 
L 233.144642 221.95658 
L 233.395718 221.985891 
L 233.646795 222.510597 
L 233.897871 222.478279 
L 234.400024 221.985009 
L 234.6511 222.534309 
L 235.153253 222.227234 
L 235.40433 221.893238 
L 235.655406 222.618561 
L 235.906483 222.017511 
L 236.157559 222.159062 
L 236.408636 222.442495 
L 236.659712 222.459746 
L 236.910789 222.717852 
L 237.161865 222.577528 
L 237.664018 222.615748 
L 238.668324 222.71223 
L 238.919401 222.386946 
L 239.170477 222.591284 
L 239.421553 222.183884 
L 239.923706 222.411143 
L 240.174783 222.314448 
L 240.425859 221.755436 
L 240.676936 222.154175 
L 241.179089 221.963311 
L 241.430165 222.077045 
L 241.681242 222.339002 
L 241.932318 221.543419 
L 242.183395 222.437961 
L 242.434471 221.855716 
L 242.685548 221.556294 
L 242.936624 221.66969 
L 243.187701 222.614083 
L 243.689854 222.147309 
L 243.94093 222.505377 
L 244.192007 222.335049 
L 244.443083 221.897731 
L 244.694159 222.494332 
L 244.945236 222.293298 
L 245.196312 222.344984 
L 245.447389 221.182637 
L 245.698465 221.901903 
L 245.949542 221.888615 
L 246.702771 222.431 
L 247.456001 222.117336 
L 247.707077 221.664854 
L 247.958154 222.217512 
L 248.20923 222.08787 
L 248.460307 222.462785 
L 248.711383 221.983951 
L 248.96246 221.813174 
L 249.213536 222.167636 
L 249.464612 221.319705 
L 249.715689 222.228382 
L 249.966765 221.609507 
L 250.217842 221.748866 
L 250.468918 222.153797 
L 250.719995 221.84469 
L 250.971071 221.921225 
L 251.222148 221.813815 
L 251.473224 221.86635 
L 251.975377 221.674681 
L 252.47753 222.431417 
L 252.728607 222.254722 
L 252.979683 221.864349 
L 253.23076 222.00511 
L 253.732913 221.980767 
L 253.983989 222.127588 
L 254.235066 221.612741 
L 254.486142 222.282661 
L 254.737218 222.208494 
L 254.988295 221.846078 
L 255.239371 222.221315 
L 255.490448 221.962279 
L 255.741524 222.113292 
L 255.992601 221.493752 
L 256.243677 221.56356 
L 256.494754 222.663787 
L 256.74583 221.876279 
L 256.996907 222.005123 
L 257.247983 222.599806 
L 257.49906 221.740399 
L 258.001213 222.292793 
L 258.252289 222.125276 
L 258.503366 222.810988 
L 259.005519 222.08085 
L 259.256595 222.098976 
L 259.507672 222.585298 
L 259.758748 222.040467 
L 260.009824 222.403756 
L 261.516283 222.552591 
L 261.76736 222.224556 
L 262.018436 222.610794 
L 262.269513 222.604081 
L 262.520589 222.426289 
L 262.771666 222.593928 
L 263.022742 222.480456 
L 263.273819 222.72934 
L 263.524895 222.704439 
L 263.775972 222.51556 
L 264.027048 222.929071 
L 264.278125 222.863974 
L 264.529201 222.427779 
L 265.031354 222.871542 
L 265.533507 222.351181 
L 265.784583 222.926522 
L 266.286736 222.64014 
L 267.039966 222.684045 
L 267.542119 222.093708 
L 267.793195 222.621109 
L 268.044272 222.596946 
L 268.546425 222.84276 
L 268.797501 222.465796 
L 269.048578 222.865373 
L 269.299654 222.513036 
L 269.550731 222.847352 
L 269.801807 222.827886 
L 270.052883 222.542016 
L 270.555036 222.716813 
L 270.806113 222.681748 
L 271.057189 222.450102 
L 271.308266 222.874694 
L 271.559342 222.779348 
L 271.810419 222.916942 
L 272.563648 222.884233 
L 272.814725 222.500384 
L 273.065801 222.675183 
L 273.316878 222.656004 
L 273.567954 222.757658 
L 273.819031 222.478422 
L 274.070107 222.505754 
L 274.321184 222.691448 
L 274.57226 222.457896 
L 274.823336 222.432581 
L 275.074413 222.820847 
L 275.325489 222.548483 
L 275.827642 222.659681 
L 276.078719 222.612953 
L 276.580872 222.864992 
L 276.831948 222.799019 
L 277.083025 222.558834 
L 277.334101 222.720757 
L 277.585178 222.545318 
L 277.836254 222.537826 
L 278.338407 222.963968 
L 278.589484 222.661198 
L 279.091637 222.932429 
L 279.342713 222.8049 
L 279.59379 222.449126 
L 280.095942 222.844382 
L 280.849172 222.629385 
L 281.100248 222.85069 
L 281.602401 222.811541 
L 281.853478 222.469516 
L 282.104554 222.869247 
L 282.857784 222.741338 
L 283.10886 222.867173 
L 283.359937 222.785323 
L 283.611013 222.35141 
L 284.113166 222.676652 
L 284.364243 222.566804 
L 284.615319 222.86524 
L 284.866396 222.631703 
L 285.117472 222.586739 
L 285.368548 222.763963 
L 285.619625 222.744179 
L 285.870701 223.026285 
L 286.121778 222.772102 
L 286.372854 222.752053 
L 286.623931 223.005478 
L 286.875007 222.707443 
L 287.126084 222.809574 
L 287.37716 222.60639 
L 287.628237 223.004308 
L 287.879313 222.795349 
L 288.381466 222.877947 
L 288.883619 222.760192 
L 289.385772 223.001703 
L 289.636849 222.849438 
L 289.887925 222.877502 
L 290.139001 222.719123 
L 290.641154 223.009917 
L 290.892231 222.908459 
L 291.143307 222.647043 
L 291.394384 222.574331 
L 291.64546 222.975455 
L 291.896537 222.87622 
L 292.147613 222.969637 
L 293.151919 222.836435 
L 293.402996 223.016104 
L 293.654072 222.820073 
L 293.905149 222.916593 
L 294.156225 222.65486 
L 294.407302 222.991514 
L 295.160531 222.881642 
L 295.411607 223.019073 
L 295.662684 222.84997 
L 295.91376 222.864172 
L 296.164837 222.74809 
L 296.66699 222.891545 
L 296.918066 222.800885 
L 297.169143 222.936156 
L 299.177755 222.852005 
L 299.428831 222.966654 
L 299.679908 222.783199 
L 300.433137 222.938993 
L 301.437443 222.754283 
L 301.939596 222.982177 
L 302.190672 222.745255 
L 302.441749 222.862428 
L 302.692825 222.783183 
L 302.943902 222.548528 
L 303.194978 222.787225 
L 304.701437 222.994816 
L 305.20359 222.837923 
L 305.454666 222.742467 
L 305.705743 222.889416 
L 305.956819 222.790237 
L 306.207896 222.906394 
L 306.458972 222.70136 
L 306.710049 222.708208 
L 307.212202 222.977676 
L 307.714355 222.871961 
L 308.216508 222.989083 
L 309.47189 222.881889 
L 309.722967 222.956282 
L 309.974043 222.839745 
L 310.476196 222.972424 
L 310.727272 222.857274 
L 311.229425 222.967378 
L 311.480502 222.791469 
L 311.731578 222.987833 
L 311.982655 223.017931 
L 312.233731 222.911473 
L 312.484808 223.048871 
L 312.735884 222.935886 
L 312.986961 223.066866 
L 313.238037 222.807193 
L 313.489114 222.908203 
L 313.74019 222.759847 
L 313.991267 222.893365 
L 314.242343 222.853375 
L 314.49342 222.659857 
L 314.744496 222.748666 
L 314.995573 222.651374 
L 315.246649 222.967107 
L 315.497725 222.813017 
L 315.748802 222.994517 
L 316.753108 222.968268 
L 317.255261 222.9801 
L 317.757414 222.914574 
L 318.259567 223.02366 
L 318.510643 222.882753 
L 318.76172 222.879391 
L 319.012796 223.002857 
L 319.263873 222.892769 
L 319.514949 222.999536 
L 320.017102 222.900516 
L 320.519255 223.033641 
L 320.770331 222.864398 
L 321.272484 222.880449 
L 321.774637 223.066088 
L 322.025714 222.789752 
L 322.527867 222.851319 
L 322.778943 222.776134 
L 323.03002 223.01259 
L 323.783249 222.908967 
L 324.536479 223.042602 
L 325.540784 222.87277 
L 325.791861 223.045169 
L 327.047243 222.960009 
L 327.29832 222.969073 
L 327.549396 222.740175 
L 327.800473 222.935151 
L 329.558008 222.94609 
L 330.060161 222.835486 
L 330.311238 223.043202 
L 331.315543 222.953375 
L 331.56662 222.834326 
L 332.319849 222.963617 
L 332.822002 223.050465 
L 333.073079 222.891753 
L 333.324155 223.033678 
L 333.575232 222.863391 
L 333.826308 223.009601 
L 336.588149 222.990324 
L 336.839226 223.074843 
L 337.090302 222.922759 
L 337.341379 223.024211 
L 337.843532 222.91895 
L 338.345685 223.060736 
L 338.847838 222.990083 
L 339.601067 223.042341 
L 340.10322 222.97599 
L 340.354297 223.02267 
L 340.605373 222.905915 
L 341.107526 222.982128 
L 345.12475 223.023883 
L 345.626903 223.009088 
L 362.449026 223.080027 
L 362.700103 222.95443 
L 363.202256 223.072235 
L 365.461944 222.998988 
L 365.964097 223.059491 
L 366.717326 223.035085 
L 366.968403 222.959324 
L 367.219479 223.046072 
L 367.972709 223.055982 
L 370.232397 223.036608 
L 370.985627 223.051004 
L 371.487779 223.011344 
L 373.496391 223.022573 
L 375.75608 223.000347 
L 376.007156 223.065388 
L 376.509309 223.060561 
L 378.015768 223.059203 
L 378.517921 223.016523 
L 379.522227 223.068357 
L 380.02438 223.022129 
L 380.526533 223.087414 
L 381.279762 223.045998 
L 402.370186 222.971611 
L 402.621262 25.424574 
L 403.374492 90.412263 
L 403.876645 115.666708 
L 404.378798 135.673216 
L 404.880951 146.139726 
L 405.132027 147.633967 
L 405.383104 153.431778 
L 405.63418 156.575265 
L 405.885257 157.414917 
L 406.136333 160.500103 
L 406.38741 161.383437 
L 406.638486 163.493109 
L 407.140639 169.745583 
L 407.391715 170.771966 
L 407.642792 175.08653 
L 407.893868 173.60441 
L 408.144945 178.834952 
L 408.396021 180.952697 
L 408.647098 184.869998 
L 409.149251 188.100472 
L 409.400327 192.561942 
L 409.651404 192.581867 
L 410.906786 201.337952 
L 411.157863 204.060858 
L 411.408939 202.759054 
L 411.660015 206.809116 
L 411.911092 205.812639 
L 412.664321 209.608052 
L 412.915398 209.446135 
L 413.166474 211.25425 
L 413.417551 212.040099 
L 413.668627 211.570657 
L 413.919704 211.782878 
L 414.17078 212.381562 
L 414.421857 211.303786 
L 414.672933 211.580726 
L 415.175086 209.259729 
L 415.426163 209.061845 
L 415.677239 206.648314 
L 415.928316 205.694313 
L 416.179392 205.760996 
L 416.681545 199.812282 
L 416.932621 198.504494 
L 417.183698 198.47923 
L 417.434774 197.120281 
L 417.685851 193.032009 
L 417.936927 191.805439 
L 418.188004 192.250818 
L 418.43908 192.233038 
L 418.690157 192.376504 
L 418.941233 193.61784 
L 419.19231 192.29808 
L 419.443386 193.98184 
L 419.694463 197.358045 
L 419.945539 196.732113 
L 420.447692 201.728628 
L 420.698769 201.325814 
L 420.949845 203.915594 
L 421.200922 203.654514 
L 421.954151 199.424564 
L 422.205227 195.619314 
L 422.456304 194.434945 
L 422.70738 189.916584 
L 422.958457 188.151782 
L 423.711686 175.790407 
L 423.962763 174.732283 
L 424.715992 165.614555 
L 424.967069 165.944533 
L 425.218145 166.75787 
L 425.469222 164.367856 
L 425.720298 167.434561 
L 425.971375 165.734791 
L 426.473528 170.325898 
L 426.724604 171.635296 
L 427.226757 177.665946 
L 427.477833 177.362273 
L 427.72891 179.692108 
L 427.979986 180.422679 
L 428.482139 188.29636 
L 428.733216 190.291403 
L 429.235369 195.535355 
L 429.486445 197.482819 
L 429.737522 201.707141 
L 429.988598 201.842019 
L 430.741828 208.837704 
L 430.992904 210.271991 
L 431.243981 210.428019 
L 431.99721 213.329708 
L 432.248286 212.868456 
L 432.499363 213.682022 
L 433.001516 213.091074 
L 433.252592 212.154766 
L 433.503669 211.935183 
L 433.754745 211.242499 
L 434.005822 211.031776 
L 434.256898 210.627955 
L 434.507975 209.273338 
L 434.759051 209.107006 
L 435.261204 207.695689 
L 435.512281 207.212618 
L 436.014434 204.36353 
L 437.520892 193.450279 
L 437.771969 189.088249 
L 438.274122 185.409123 
L 438.525198 181.829197 
L 438.776275 180.085702 
L 439.529504 171.523354 
L 439.780581 171.048929 
L 440.031657 169.506806 
L 440.282734 165.791088 
L 440.53381 165.287382 
L 441.035963 163.433317 
L 441.28704 160.987584 
L 441.538116 161.814667 
L 442.040269 165.877681 
L 442.291345 164.538946 
L 442.793498 165.983102 
L 443.295651 168.457513 
L 443.546728 168.746055 
L 443.797804 171.115448 
L 444.048881 171.405826 
L 444.299957 173.904351 
L 444.551034 177.529431 
L 444.80211 178.025472 
L 445.053187 180.800285 
L 445.304263 181.227796 
L 445.55534 183.106252 
L 445.806416 182.459065 
L 446.057493 185.488325 
L 446.308569 186.660459 
L 446.559646 186.276592 
L 447.061799 187.715924 
L 447.312875 189.133242 
L 447.563951 189.573957 
L 447.815028 188.723482 
L 448.066104 188.45094 
L 448.317181 190.24573 
L 448.568257 190.377735 
L 448.819334 189.701152 
L 449.07041 190.064042 
L 449.321487 189.873344 
L 449.572563 190.566485 
L 450.074716 193.940686 
L 450.576869 197.612581 
L 450.827946 198.295804 
L 451.079022 198.637846 
L 451.330099 199.325925 
L 452.083328 204.413335 
L 452.585481 204.353574 
L 452.836557 204.619686 
L 453.087634 205.115486 
L 453.33871 205.133816 
L 453.589787 204.184607 
L 453.840863 204.917008 
L 454.09194 203.932938 
L 454.343016 203.856192 
L 454.594093 204.766903 
L 454.845169 203.337499 
L 455.096246 204.605373 
L 455.347322 204.972226 
L 455.598399 203.75666 
L 455.849475 206.372208 
L 456.351628 206.640113 
L 456.602705 209.14115 
L 457.104858 211.135845 
L 457.355934 211.224514 
L 457.60701 213.537253 
L 457.858087 213.023665 
L 458.36024 214.908073 
L 458.611316 214.872787 
L 459.113469 214.407236 
L 459.364546 213.72719 
L 459.615622 211.235094 
L 459.866699 211.333419 
L 460.117775 209.435911 
L 460.368852 208.408473 
L 460.619928 205.786552 
L 460.871005 204.411772 
L 461.122081 201.59756 
L 461.373158 200.974012 
L 462.126387 192.970161 
L 462.879616 187.858872 
L 463.130693 189.119574 
L 463.381769 187.09396 
L 463.632846 186.752239 
L 463.883922 186.736419 
L 464.134999 186.914925 
L 464.386075 186.701419 
L 464.637152 190.031765 
L 464.888228 189.420403 
L 465.139305 190.218108 
L 465.390381 190.606159 
L 465.641458 192.220942 
L 465.892534 192.999862 
L 466.143611 194.305555 
L 466.394687 193.050347 
L 466.645764 193.701985 
L 467.398993 192.062924 
L 467.650069 190.015189 
L 467.901146 189.333867 
L 468.152222 186.284986 
L 468.403299 185.843497 
L 468.654375 184.309362 
L 468.905452 179.041942 
L 469.156528 178.119034 
L 469.909758 170.938192 
L 470.160834 168.79401 
L 470.411911 170.024575 
L 470.662987 169.088253 
L 470.914064 166.718785 
L 471.16514 166.286152 
L 471.416217 162.872963 
L 471.667293 166.471637 
L 472.169446 167.736626 
L 472.420522 165.838169 
L 472.922675 168.307472 
L 473.173752 168.766087 
L 473.424828 172.810231 
L 473.675905 172.393548 
L 474.178058 176.593458 
L 474.680211 179.338887 
L 475.182364 183.658949 
L 475.684517 187.812141 
L 475.935593 187.756351 
L 476.18667 190.141337 
L 476.437746 188.97936 
L 476.939899 192.71348 
L 477.190976 194.362322 
L 477.442052 194.085267 
L 477.693128 196.964065 
L 477.944205 197.234365 
L 478.446358 199.510904 
L 478.948511 203.287815 
L 479.199587 201.930165 
L 479.952817 206.415521 
L 480.203893 206.122661 
L 480.706046 209.567019 
L 480.957123 209.284088 
L 481.208199 209.252714 
L 481.459276 210.35357 
L 481.961429 211.305571 
L 482.212505 210.718823 
L 482.463582 210.745479 
L 482.965734 211.514134 
L 483.216811 211.945338 
L 483.718964 209.659395 
L 483.97004 209.706051 
L 484.221117 208.820413 
L 484.472193 208.767703 
L 484.974346 207.324327 
L 485.225423 208.286294 
L 485.476499 206.873379 
L 485.727576 207.927534 
L 485.978652 206.349158 
L 486.229729 206.835696 
L 486.480805 205.347222 
L 486.982958 206.912619 
L 487.234035 205.745024 
L 487.736187 206.057031 
L 487.987264 206.018299 
L 488.23834 204.425875 
L 488.489417 204.875328 
L 488.740493 204.483653 
L 488.99157 204.337827 
L 489.744799 200.092257 
L 489.995876 200.347148 
L 490.749105 194.539641 
L 491.000182 192.432699 
L 491.251258 191.57107 
L 491.502335 189.824788 
L 491.753411 187.203222 
L 492.255564 185.756933 
L 492.506641 183.916907 
L 492.757717 183.260372 
L 493.008793 181.021874 
L 493.25987 180.06249 
L 493.510946 181.638837 
L 493.762023 180.977659 
L 494.013099 182.046456 
L 494.264176 183.629508 
L 494.515252 184.191514 
L 495.017405 188.53664 
L 495.268482 189.32562 
L 495.770635 194.211297 
L 496.021711 194.062421 
L 496.272788 198.795178 
L 496.523864 199.197718 
L 497.026017 201.733027 
L 497.277094 201.873524 
L 497.52817 204.461213 
L 497.779246 205.211614 
L 498.030323 206.711184 
L 498.281399 205.792006 
L 498.532476 207.402553 
L 498.783552 207.385808 
L 499.285705 209.635539 
L 499.536782 209.315195 
L 499.787858 209.948764 
L 500.290011 210.355496 
L 500.541088 210.740258 
L 501.043241 212.065218 
L 501.294317 212.633381 
L 501.545394 212.333581 
L 501.79647 212.233259 
L 502.047547 213.310897 
L 502.298623 213.852421 
L 502.5497 213.020955 
L 502.800776 213.6793 
L 503.051852 213.959454 
L 503.302929 214.522158 
L 503.805082 214.112631 
L 504.056158 214.393367 
L 504.307235 214.456516 
L 504.558311 214.151109 
L 504.809388 214.049313 
L 505.060464 213.57663 
L 505.311541 213.967711 
L 505.562617 213.658545 
L 505.813694 213.142249 
L 506.06477 213.182419 
L 506.315847 212.365329 
L 506.818 212.117163 
L 507.320153 211.583693 
L 507.571229 211.845846 
L 507.822306 211.523839 
L 508.073382 211.407542 
L 508.324458 211.48953 
L 508.575535 211.822411 
L 509.077688 212.122382 
L 509.328764 211.509543 
L 509.579841 212.480903 
L 510.081994 213.244989 
L 510.33307 214.328535 
L 510.584147 214.27368 
L 510.835223 214.817904 
L 511.337376 213.891302 
L 511.588453 214.135056 
L 512.090606 212.225318 
L 512.341682 212.208568 
L 512.843835 210.924835 
L 513.094911 208.992844 
L 513.345988 208.801985 
L 513.597064 207.054124 
L 514.099217 206.097267 
L 514.350294 204.334766 
L 514.60137 203.736446 
L 514.852447 202.171258 
L 515.3546 201.603737 
L 515.605676 201.649901 
L 515.856753 201.090379 
L 516.107829 199.765155 
L 516.609982 200.072416 
L 517.112135 199.403353 
L 517.614288 200.917236 
L 517.865365 199.860121 
L 518.116441 201.463902 
L 518.367517 200.894952 
L 519.120747 204.592246 
L 519.6229 204.246162 
L 520.125053 207.550642 
L 520.878282 209.327058 
L 521.129359 211.80138 
L 521.380435 211.0264 
L 521.631512 211.606423 
L 521.882588 213.553427 
L 522.635818 214.197157 
L 522.886894 215.387591 
L 523.13797 215.395398 
L 523.640123 216.883146 
L 523.8912 217.242305 
L 524.142276 217.117881 
L 524.644429 217.205563 
L 524.895506 217.994827 
L 525.146582 217.583583 
L 525.397659 218.332923 
L 525.648735 217.992964 
L 525.899812 218.330793 
L 526.150888 217.961666 
L 526.401965 217.800272 
L 526.653041 217.060189 
L 526.904118 216.686435 
L 527.406271 214.98754 
L 527.657347 213.591246 
L 527.908424 213.428894 
L 528.1595 211.058967 
L 528.661653 208.873698 
L 528.912729 207.811965 
L 529.163806 204.35388 
L 529.414882 205.153153 
L 530.168112 200.087486 
L 530.419188 199.326976 
L 530.670265 200.515274 
L 530.921341 198.412401 
L 531.172418 198.491076 
L 531.423494 197.854762 
L 531.674571 196.844465 
L 531.925647 196.498211 
L 532.176724 196.617041 
L 532.4278 197.715264 
L 532.678877 196.549662 
L 533.18103 195.810507 
L 533.683182 196.853442 
L 533.934259 195.889735 
L 534.185335 197.484241 
L 534.436412 197.071892 
L 534.687488 196.132111 
L 534.938565 196.833045 
L 535.189641 196.914607 
L 535.440718 195.803078 
L 535.691794 196.872058 
L 535.942871 195.740357 
L 536.193947 196.87913 
L 536.445024 195.885247 
L 536.6961 194.30769 
L 536.947177 195.169757 
L 537.700406 192.83811 
L 537.951483 192.395705 
L 538.202559 193.444696 
L 538.453635 191.757244 
L 538.704712 191.634489 
L 538.955788 191.829601 
L 539.206865 190.99637 
L 539.457941 192.132321 
L 539.709018 191.760256 
L 539.960094 193.058716 
L 540.211171 193.770489 
L 540.462247 195.352884 
L 540.713324 196.053971 
L 540.9644 198.174285 
L 541.215477 197.60263 
L 541.466553 200.318026 
L 541.71763 201.597779 
L 541.968706 201.810577 
L 542.219783 203.872932 
L 542.470859 204.944971 
L 542.721936 205.193617 
L 542.973012 207.063951 
L 543.726241 210.409969 
L 543.977318 211.890432 
L 544.228394 211.705954 
L 544.479471 212.957336 
L 544.730547 213.491042 
L 544.981624 213.571803 
L 545.483777 214.446857 
L 545.734853 214.706791 
L 545.98593 215.218516 
L 546.739159 215.834149 
L 546.990236 216.361318 
L 547.241312 216.288097 
L 547.492389 216.070387 
L 547.743465 216.007591 
L 547.994542 216.14253 
L 548.245618 216.41018 
L 548.496694 216.201179 
L 548.998847 215.366858 
L 549.249924 215.746247 
L 549.501 215.185312 
L 549.752077 215.566038 
L 550.003153 214.961355 
L 550.25423 214.710815 
L 550.505306 213.899679 
L 550.756383 213.571387 
L 551.007459 212.375856 
L 551.760689 210.95705 
L 552.262842 208.982908 
L 552.513918 208.753304 
L 552.764995 207.902975 
L 553.016071 207.79674 
L 553.267148 208.349488 
L 553.518224 207.019293 
L 553.7693 207.871969 
L 554.020377 207.383882 
L 554.271453 207.786658 
L 554.773606 209.185573 
L 555.024683 207.551329 
L 555.777912 210.132771 
L 556.028989 211.684569 
L 556.280065 210.408287 
L 556.531142 211.862474 
L 557.033295 211.952559 
L 557.284371 210.902201 
L 557.786524 211.276099 
L 558.539754 209.947701 
L 558.79083 209.788052 
L 559.041906 208.332569 
L 559.292983 207.568765 
L 559.544059 207.204494 
L 559.795136 207.256117 
L 560.297289 205.321197 
L 560.548365 204.159645 
L 560.799442 204.394358 
L 561.050518 204.903336 
L 561.301595 204.605336 
L 561.803748 203.378864 
L 562.054824 204.629704 
L 562.305901 204.395679 
L 562.556977 204.946925 
L 562.808054 206.050135 
L 563.05913 205.761942 
L 563.310207 206.218506 
L 563.561283 207.853928 
L 563.812359 207.064644 
L 564.063436 208.815999 
L 564.565589 210.684567 
L 564.816665 211.002033 
L 565.067742 210.641051 
L 565.318818 211.103716 
L 565.569895 212.103404 
L 565.820971 211.919055 
L 566.323124 213.279284 
L 566.574201 213.288071 
L 566.825277 213.820168 
L 567.076354 213.405177 
L 567.578507 213.861835 
L 567.829583 213.758135 
L 568.08066 213.528785 
L 568.331736 212.934317 
L 568.582813 213.084182 
L 568.833889 212.526848 
L 569.084965 212.585289 
L 569.336042 212.312792 
L 569.587118 212.46156 
L 569.838195 210.988058 
L 570.089271 211.393427 
L 570.340348 211.092213 
L 570.591424 211.212506 
L 570.842501 210.472474 
L 571.093577 210.659251 
L 571.59573 209.96809 
L 572.34896 210.048319 
L 572.600036 209.192299 
L 573.353266 209.496813 
L 573.604342 209.032408 
L 574.106495 208.889257 
L 574.357571 208.970684 
L 574.608648 207.401874 
L 574.859724 208.872117 
L 575.110801 208.051368 
L 575.361877 208.201269 
L 575.612954 207.942767 
L 575.86403 208.020521 
L 576.115107 207.853745 
L 576.366183 207.412444 
L 576.61726 207.894302 
L 576.868336 207.972508 
L 577.621566 207.840604 
L 577.872642 208.96769 
L 578.123719 208.892989 
L 578.625872 210.320816 
L 578.876948 209.837379 
L 579.128024 211.430854 
L 579.630177 212.498909 
L 579.881254 211.890447 
L 580.634483 212.862809 
L 580.88556 213.08755 
L 581.136636 212.916755 
L 581.387713 212.900417 
L 581.638789 213.269712 
L 581.889866 213.168635 
L 582.140942 213.315939 
L 582.894172 212.167307 
L 583.145248 211.099768 
L 583.647401 210.529293 
L 583.898478 210.141647 
L 584.40063 208.75904 
L 584.651707 208.698493 
L 584.902783 208.272016 
L 585.15386 208.546308 
L 585.656013 207.924245 
L 585.907089 207.850297 
L 586.158166 208.415801 
L 586.409242 208.488209 
L 586.660319 207.822067 
L 586.911395 208.896474 
L 587.162472 208.950435 
L 587.413548 208.889233 
L 587.664625 210.106739 
L 587.915701 209.48679 
L 588.166778 210.184603 
L 588.417854 210.340178 
L 588.668931 211.439274 
L 588.920007 211.754039 
L 589.171083 212.658516 
L 589.673236 212.506132 
L 589.924313 212.741156 
L 590.175389 213.148073 
L 590.426466 213.088257 
L 590.677542 213.471038 
L 590.928619 213.244822 
L 591.179695 214.01245 
L 591.932925 214.818792 
L 592.184001 214.743003 
L 592.686154 215.067386 
L 592.937231 215.025028 
L 593.188307 215.142841 
L 593.439384 215.533245 
L 593.69046 215.457378 
L 593.941537 214.855626 
L 594.192613 214.789196 
L 594.443689 215.480129 
L 594.694766 214.971031 
L 594.945842 215.088133 
L 595.196919 214.274325 
L 595.447995 214.722418 
L 595.950148 214.166769 
L 596.452301 213.986739 
L 596.703378 214.071671 
L 596.954454 212.658764 
L 597.205531 212.354192 
L 597.456607 212.473806 
L 597.707684 211.649481 
L 597.95876 211.590486 
L 598.209837 211.767033 
L 598.71199 210.494573 
L 598.963066 211.586332 
L 599.214142 210.773556 
L 599.465219 211.159254 
L 599.716295 211.141407 
L 599.967372 210.689091 
L 600.218448 211.485134 
L 600.720601 211.939875 
L 600.971678 212.147419 
L 601.222754 212.827221 
L 601.473831 212.626965 
L 601.724907 213.504342 
L 601.975984 213.771534 
L 602.478137 214.914298 
L 602.98029 215.053609 
L 603.231366 215.573408 
L 603.482443 215.646846 
L 603.733519 216.276597 
L 604.235672 216.07964 
L 604.737825 216.70462 
L 604.988901 216.57282 
L 605.239978 216.658939 
L 605.491054 216.244505 
L 605.993207 216.729136 
L 606.244284 216.259982 
L 606.49536 216.420816 
L 606.746437 216.143347 
L 606.997513 216.641514 
L 607.24859 216.74018 
L 607.499666 216.385361 
L 607.750743 216.512746 
L 608.001819 216.393499 
L 608.503972 216.519031 
L 608.755049 216.989474 
L 609.006125 216.626359 
L 609.508278 216.771949 
L 609.759354 217.160179 
L 610.010431 216.864836 
L 610.261507 217.52511 
L 610.512584 217.82152 
L 610.76366 217.678256 
L 611.51689 218.346699 
L 611.767966 218.217402 
L 612.019043 218.337352 
L 612.270119 218.625198 
L 613.023349 218.729354 
L 613.274425 218.47078 
L 613.776578 218.329845 
L 614.027655 217.965699 
L 614.529807 217.982251 
L 614.780884 218.010876 
L 615.03196 217.881501 
L 615.283037 217.921591 
L 615.534113 217.085993 
L 615.78519 217.472933 
L 616.036266 217.338205 
L 616.538419 217.414694 
L 616.789496 217.179348 
L 617.040572 217.33015 
L 617.542725 216.371257 
L 617.793802 216.939666 
L 618.044878 216.249423 
L 618.295955 216.41045 
L 618.547031 216.831459 
L 619.300261 215.703592 
L 619.551337 215.863936 
L 619.802413 214.996038 
L 620.05349 215.643304 
L 620.304566 215.057398 
L 620.555643 215.127907 
L 620.806719 214.408513 
L 621.057796 215.246515 
L 621.308872 215.187169 
L 621.559949 214.504547 
L 621.811025 214.458876 
L 622.062102 214.971089 
L 622.313178 214.816756 
L 622.564255 215.075467 
L 622.815331 214.792051 
L 623.066408 215.186613 
L 623.317484 215.832315 
L 623.568561 215.348251 
L 623.819637 216.026995 
L 624.070714 215.890424 
L 624.572866 216.398234 
L 624.823943 217.230618 
L 625.075019 216.917797 
L 625.326096 217.670895 
L 625.577172 217.91104 
L 625.828249 217.72359 
L 626.079325 218.232355 
L 626.330402 219.159478 
L 626.581478 218.951214 
L 626.832555 219.402309 
L 627.334708 219.587377 
L 627.585784 220.058719 
L 627.836861 219.572993 
L 628.087937 219.700463 
L 628.339014 219.70282 
L 628.59009 219.848442 
L 628.841167 219.80088 
L 629.092243 219.613446 
L 629.594396 219.681717 
L 629.845472 219.578064 
L 630.096549 219.346428 
L 630.598702 219.667014 
L 630.849778 219.256648 
L 631.351931 219.874166 
L 631.603008 219.709565 
L 632.105161 219.62948 
L 632.85839 220.401274 
L 633.109467 220.380652 
L 633.360543 220.51458 
L 633.61162 220.795148 
L 633.862696 220.500614 
L 634.615925 220.78054 
L 634.867002 220.794006 
L 635.118078 220.990492 
L 635.369155 220.666517 
L 635.871308 220.654356 
L 636.122384 220.462436 
L 636.373461 220.575692 
L 636.624537 220.367978 
L 636.875614 220.480929 
L 637.12669 220.128201 
L 637.377767 219.975111 
L 637.628843 220.437888 
L 637.87992 219.798516 
L 638.130996 219.765956 
L 638.382073 219.406732 
L 638.633149 219.754512 
L 638.884226 219.649941 
L 639.135302 219.41301 
L 639.386379 219.697684 
L 639.888531 219.451665 
L 640.139608 219.570942 
L 640.641761 219.174645 
L 640.892837 219.445466 
L 641.143914 219.07746 
L 641.39499 219.504106 
L 641.646067 219.116309 
L 641.897143 219.34939 
L 642.14822 219.282544 
L 642.399296 219.040634 
L 642.650373 219.00297 
L 642.901449 218.194624 
L 643.403602 218.939735 
L 643.654679 218.722599 
L 644.407908 217.74803 
L 644.658985 217.895459 
L 644.910061 217.524177 
L 645.161137 217.71952 
L 645.412214 217.667208 
L 645.66329 217.460788 
L 645.914367 217.753912 
L 646.165443 217.262883 
L 646.41652 217.620577 
L 646.918673 217.536327 
L 647.420826 218.235176 
L 647.922979 218.27309 
L 648.174055 218.63205 
L 648.425132 219.505409 
L 648.676208 219.363141 
L 648.927285 219.811267 
L 649.178361 219.902799 
L 649.429438 220.500912 
L 649.93159 220.486815 
L 650.182667 220.602191 
L 650.433743 221.036653 
L 650.935896 220.825349 
L 651.186973 220.973133 
L 651.438049 220.904839 
L 651.689126 221.172359 
L 651.940202 220.828047 
L 652.191279 220.807163 
L 652.442355 220.538943 
L 652.693432 220.4839 
L 652.944508 220.114834 
L 653.195585 220.07839 
L 653.446661 220.279675 
L 653.697738 159.703132 
L 653.948814 163.064749 
L 654.95312 170.560502 
L 655.204196 173.287168 
L 655.455273 174.118808 
L 656.208502 178.644859 
L 656.459579 178.524818 
L 656.710655 181.02165 
L 657.212808 182.701658 
L 657.463885 181.8064 
L 657.714961 182.875106 
L 657.966038 184.829002 
L 658.217114 183.855697 
L 658.468191 185.311638 
L 659.22142 183.962416 
L 659.472497 182.684665 
L 659.723573 183.479185 
L 660.476802 182.68104 
L 660.727879 181.53579 
L 660.978955 180.918993 
L 661.230032 179.619099 
L 661.481108 177.57052 
L 661.732185 178.655347 
L 661.983261 178.015119 
L 662.234338 177.069364 
L 662.485414 177.144065 
L 662.736491 175.535171 
L 662.987567 175.254886 
L 663.238644 174.300965 
L 663.48972 175.763375 
L 663.740797 175.007492 
L 663.991873 174.754307 
L 664.24295 175.89709 
L 664.494026 174.728751 
L 664.745103 174.731764 
L 665.247255 175.605512 
L 665.498332 175.538872 
L 665.749408 176.228802 
L 666.000485 175.170142 
L 666.251561 175.476957 
L 666.502638 176.694132 
L 666.753714 174.606906 
L 667.004791 175.091068 
L 667.255867 176.153728 
L 667.506944 175.834198 
L 667.75802 173.695289 
L 668.009097 174.244915 
L 668.260173 174.466084 
L 668.51125 173.837038 
L 668.762326 174.06928 
L 669.013403 173.485849 
L 669.264479 174.194557 
L 669.515556 171.828792 
L 669.766632 173.143821 
L 670.017709 173.344455 
L 670.268785 173.198189 
L 670.770938 173.97617 
L 671.022014 172.552977 
L 671.273091 175.152269 
L 671.524167 173.984646 
L 672.02632 176.392382 
L 672.277397 176.796293 
L 672.528473 178.550703 
L 672.77955 178.519806 
L 673.030626 179.692661 
L 673.281703 181.52128 
L 673.532779 181.127017 
L 673.783856 183.346355 
L 674.537085 186.714109 
L 675.039238 186.372099 
L 675.541391 188.135373 
L 675.792467 187.356638 
L 676.043544 189.952738 
L 676.29462 188.686738 
L 676.545697 190.044703 
L 677.04785 191.413148 
L 677.298926 191.093721 
L 677.550003 191.739596 
L 677.801079 191.157317 
L 679.307538 195.384277 
L 679.558615 195.590463 
L 679.809691 197.947497 
L 680.060768 198.830873 
L 680.311844 199.040577 
L 680.813997 202.221536 
L 681.31615 205.287186 
L 681.567226 206.183063 
L 681.818303 208.139065 
L 682.069379 208.836707 
L 682.320456 210.582629 
L 682.571532 210.84839 
L 682.822609 212.916477 
L 683.073685 213.047268 
L 683.324762 213.866806 
L 683.575838 214.266381 
L 684.077991 214.029393 
L 684.831221 211.660919 
L 685.835526 206.203533 
L 686.086603 203.540764 
L 686.337679 202.282451 
L 686.588756 200.119282 
L 686.839832 199.107886 
L 687.090909 197.31073 
L 687.341985 196.431503 
L 687.844138 192.31402 
L 688.095215 192.40341 
L 688.346291 189.990303 
L 689.099521 190.246783 
L 689.350597 189.807226 
L 689.601674 188.696528 
L 689.85275 189.63619 
L 690.103827 189.737317 
L 690.354903 190.667889 
L 690.605979 190.780209 
L 690.857056 191.904 
L 691.108132 191.940632 
L 691.610285 194.048677 
L 691.861362 193.416959 
L 692.614591 197.482883 
L 692.865668 197.559055 
L 693.116744 196.929433 
L 693.367821 198.605144 
L 693.618897 197.611635 
L 693.869974 197.177976 
L 694.12105 198.159439 
L 694.623203 196.447627 
L 694.87428 196.294169 
L 695.125356 195.094052 
L 695.376433 193.30888 
L 695.627509 193.854252 
L 695.878585 191.546721 
L 696.129662 191.400107 
L 696.380738 190.088439 
L 696.631815 187.760617 
L 696.882891 186.940648 
L 697.133968 185.656672 
L 697.385044 183.236422 
L 697.636121 183.539508 
L 697.887197 183.041384 
L 698.138274 180.86678 
L 698.640427 179.270058 
L 699.14258 177.825569 
L 699.393656 177.433832 
L 699.644733 177.42644 
L 700.146886 178.02352 
L 700.397962 176.992678 
L 700.649038 178.493985 
L 700.900115 177.504909 
L 701.151191 178.6731 
L 701.402268 179.271726 
L 701.653344 180.968725 
L 701.904421 181.513676 
L 702.155497 181.441089 
L 702.406574 182.307801 
L 702.65765 182.207486 
L 702.908727 182.776117 
L 703.159803 184.892709 
L 703.41088 184.438733 
L 703.661956 184.79068 
L 703.913033 186.117786 
L 704.164109 185.545647 
L 704.415186 186.253542 
L 704.666262 186.141941 
L 704.917339 186.656061 
L 705.168415 187.976756 
L 705.419492 187.789378 
L 705.670568 188.033078 
L 706.172721 190.690994 
L 706.423797 189.877619 
L 706.92595 191.892044 
L 707.177027 192.163982 
L 707.67918 194.135095 
L 708.181333 196.014832 
L 708.683486 196.672874 
L 708.934562 197.82583 
L 709.185639 198.311759 
L 709.436715 198.107606 
L 709.687792 198.756757 
L 709.938868 198.87067 
L 710.189945 199.893282 
L 710.441021 200.222885 
L 710.692097 200.336071 
L 710.943174 200.644691 
L 711.19425 200.140105 
L 711.445327 200.986659 
L 711.696403 200.5454 
L 712.198556 200.584925 
L 712.449633 200.449452 
L 712.700709 200.561715 
L 712.951786 199.635007 
L 713.202862 200.263612 
L 713.453939 199.454491 
L 713.705015 199.174009 
L 713.956092 199.567298 
L 714.207168 197.954457 
L 714.458245 199.152741 
L 714.709321 197.637742 
L 714.960398 198.192379 
L 715.211474 198.292141 
L 715.713627 197.792173 
L 715.964703 197.623248 
L 716.21578 198.391763 
L 716.466856 197.448311 
L 716.969009 198.552423 
L 717.220086 197.241313 
L 717.471162 198.420416 
L 717.973315 199.469748 
L 718.224392 200.301127 
L 718.726545 200.302658 
L 718.977621 201.466687 
L 719.228698 201.411397 
L 720.233004 204.409578 
L 720.48408 204.264556 
L 721.237309 206.378695 
L 721.488386 207.538478 
L 721.739462 207.69105 
L 721.990539 208.104697 
L 722.241615 208.91568 
L 722.743768 209.232407 
L 722.994845 209.689467 
L 723.245921 209.60134 
L 723.496998 210.055912 
L 723.748074 209.394514 
L 723.999151 209.764207 
L 724.250227 209.607472 
L 724.501304 209.753061 
L 724.75238 208.591642 
L 725.003457 208.691941 
L 725.254533 207.658527 
L 725.50561 207.156473 
L 725.756686 205.705422 
L 726.007762 205.071927 
L 726.258839 203.280329 
L 726.509915 203.31194 
L 726.760992 202.566727 
L 727.012068 200.719861 
L 727.263145 200.338892 
L 728.016374 197.0848 
L 728.267451 196.84679 
L 728.518527 196.286802 
L 728.769604 195.429113 
L 729.02068 195.112813 
L 729.271757 194.018647 
L 729.522833 194.999047 
L 730.024986 195.008796 
L 730.276063 194.706236 
L 730.527139 195.064287 
L 730.778216 196.687828 
L 731.029292 196.511113 
L 731.280368 197.54055 
L 731.531445 197.805507 
L 731.782521 197.698998 
L 732.786827 201.261416 
L 733.037904 201.4389 
L 733.540057 203.529497 
L 733.791133 203.864361 
L 734.04221 203.233333 
L 734.544363 204.305211 
L 734.795439 204.187362 
L 735.046516 203.429044 
L 735.297592 203.768861 
L 735.799745 202.505735 
L 736.050821 202.387511 
L 736.301898 202.057937 
L 736.552974 201.384138 
L 736.804051 201.569587 
L 737.055127 200.430999 
L 737.55728 199.896396 
L 737.808357 198.614732 
L 738.059433 198.656198 
L 738.561586 197.118326 
L 738.812663 198.693601 
L 739.063739 197.966107 
L 739.314816 197.750838 
L 739.816969 197.793464 
L 740.319122 198.097044 
L 740.570198 198.256736 
L 740.821275 199.574149 
L 741.072351 199.114237 
L 741.323427 198.886259 
L 742.327733 201.150862 
L 743.080963 200.992945 
L 743.332039 200.365353 
L 743.583116 200.597268 
L 743.834192 200.406086 
L 744.085269 199.275557 
L 744.587422 198.337149 
L 744.838498 198.035125 
L 745.089575 198.145669 
L 745.340651 196.598228 
L 745.591728 196.457397 
L 745.842804 196.704344 
L 746.09388 195.730417 
L 746.344957 196.067571 
L 746.596033 196.615686 
L 747.098186 195.536375 
L 747.600339 197.532772 
L 747.851416 197.60644 
L 748.102492 198.276897 
L 748.604645 201.133892 
L 748.855722 201.066194 
L 749.106798 201.603218 
L 749.357875 202.825297 
L 750.613257 205.789877 
L 751.11541 206.668662 
L 751.366486 206.358028 
L 751.868639 206.051992 
L 752.370792 205.20051 
L 752.621869 205.336981 
L 752.872945 204.578681 
L 753.124022 204.353863 
L 753.375098 203.283232 
L 753.626175 203.260166 
L 754.379404 201.359324 
L 754.881557 200.715628 
L 755.132634 199.858107 
L 755.38371 199.843786 
L 755.885863 199.08418 
L 756.13694 198.217552 
L 756.388016 198.765768 
L 756.639092 199.04256 
L 756.890169 198.77304 
L 757.141245 199.088571 
L 757.392322 198.492028 
L 757.643398 200.008427 
L 757.894475 199.624262 
L 758.145551 199.629122 
L 758.396628 199.993065 
L 758.647704 201.060307 
L 759.149857 202.08791 
L 759.65201 202.103072 
L 760.154163 204.228694 
L 760.40524 204.631208 
L 760.656316 205.647671 
L 760.907393 205.702085 
L 761.158469 206.985778 
L 761.409545 207.058511 
L 761.660622 207.726868 
L 761.911698 209.001319 
L 762.162775 209.342406 
L 762.413851 210.218737 
L 762.664928 210.26215 
L 762.916004 211.248639 
L 763.167081 211.185014 
L 763.418157 211.610569 
L 763.92031 211.783154 
L 764.171387 212.163401 
L 764.422463 212.223728 
L 764.67354 211.887907 
L 764.924616 212.166752 
L 765.426769 212.049859 
L 765.677846 212.226991 
L 765.928922 212.198047 
L 766.179999 212.629835 
L 766.431075 212.283429 
L 766.682151 212.231468 
L 766.933228 212.758257 
L 767.184304 212.761064 
L 767.435381 212.63235 
L 767.686457 212.690744 
L 767.937534 213.477035 
L 768.18861 213.242549 
L 768.439687 213.648176 
L 768.690763 213.661207 
L 768.94184 214.092381 
L 769.192916 213.783012 
L 769.443993 214.244128 
L 769.695069 213.507913 
L 769.946146 213.546855 
L 770.197222 213.3977 
L 770.448299 212.904182 
L 770.699375 212.736688 
L 770.950452 212.739051 
L 771.703681 210.957077 
L 771.954757 209.343395 
L 772.205834 208.683273 
L 772.45691 208.627471 
L 772.959063 206.735397 
L 773.461216 204.228195 
L 773.712293 203.767784 
L 774.214446 201.620426 
L 774.465522 201.34311 
L 775.720905 197.430673 
L 775.971981 197.053653 
L 776.223058 198.010001 
L 776.474134 197.381709 
L 776.976287 198.669453 
L 777.227363 198.132006 
L 777.47844 198.499266 
L 777.729516 199.998427 
L 777.980593 200.342763 
L 778.482746 201.293389 
L 778.984899 204.014434 
L 779.487052 205.432706 
L 780.240281 209.062006 
L 780.491358 209.360373 
L 780.742434 210.110284 
L 780.993511 211.24069 
L 781.495664 212.551248 
L 781.74674 212.479507 
L 782.248893 213.903892 
L 782.499969 213.854804 
L 782.751046 214.16356 
L 783.002122 214.711633 
L 783.253199 214.219864 
L 783.755352 213.757621 
L 784.006428 213.47889 
L 784.257505 213.546075 
L 784.508581 213.81728 
L 785.261811 211.689305 
L 785.512887 211.442506 
L 785.763964 211.455335 
L 786.01504 210.75353 
L 786.266117 210.657884 
L 786.517193 209.548732 
L 786.768269 209.117375 
L 787.019346 208.056014 
L 787.521499 207.083947 
L 787.772575 206.500683 
L 788.023652 206.217328 
L 788.525805 204.811588 
L 789.279034 203.204524 
L 789.530111 203.470042 
L 789.781187 202.328452 
L 790.032264 202.613113 
L 790.28334 202.261902 
L 790.534417 201.657484 
L 790.785493 201.592925 
L 791.03657 201.73777 
L 791.287646 201.636187 
L 791.538723 201.294046 
L 791.789799 202.034179 
L 792.040875 201.98661 
L 792.543028 203.247003 
L 792.794105 203.135825 
L 793.045181 203.552226 
L 793.296258 204.830094 
L 793.547334 205.295493 
L 793.798411 206.153408 
L 794.049487 206.484293 
L 795.30487 210.423496 
L 795.555946 211.311372 
L 795.807023 211.570934 
L 796.058099 212.036477 
L 796.309176 212.056403 
L 796.560252 213.019765 
L 796.811328 212.262138 
L 797.062405 212.724297 
L 797.313481 211.944399 
L 797.564558 212.430437 
L 797.815634 211.79477 
L 798.066711 211.515076 
L 798.317787 210.506836 
L 798.568864 210.280154 
L 798.81994 209.391543 
L 799.071017 207.93096 
L 799.322093 207.247694 
L 799.824246 204.81161 
L 800.075323 204.614047 
L 801.079629 199.790875 
L 801.330705 199.831834 
L 801.581782 198.572437 
L 801.832858 198.783165 
L 802.335011 197.537906 
L 802.586087 198.089812 
L 802.837164 197.048072 
L 803.590393 197.395193 
L 804.092546 198.478536 
L 804.343623 199.742841 
L 804.594699 199.602794 
L 804.845776 199.633955 
L 805.347929 202.323779 
L 805.599005 202.196575 
L 806.101158 204.723503 
L 806.352235 204.774094 
L 807.105464 207.365036 
L 807.35654 208.649655 
L 807.607617 208.786171 
L 807.858693 209.115795 
L 808.10977 210.57563 
L 808.611923 210.884233 
L 808.862999 210.924064 
L 809.365152 211.227968 
L 809.616229 211.943677 
L 809.867305 211.611223 
L 810.118382 211.659248 
L 810.620535 212.306474 
L 810.871611 212.009782 
L 811.122688 212.477567 
L 811.373764 212.038175 
L 811.875917 212.58826 
L 812.126993 212.522415 
L 812.629146 212.827824 
L 813.382376 213.856152 
L 813.633452 213.562254 
L 814.135605 214.36269 
L 814.386682 214.182582 
L 814.637758 214.474254 
L 814.888835 214.34562 
L 815.139911 213.904884 
L 815.390988 214.199995 
L 815.893141 213.362919 
L 816.395294 212.57022 
L 816.64637 211.919251 
L 816.897447 211.642162 
L 817.399599 209.393755 
L 817.650676 209.326245 
L 818.152829 206.796569 
L 818.403905 206.625349 
L 818.906058 203.874062 
L 819.157135 203.272927 
L 819.910364 200.540229 
L 820.161441 200.571151 
L 820.412517 199.743661 
L 820.663594 198.508493 
L 820.91467 199.150319 
L 821.165747 198.160703 
L 821.6679 197.555173 
L 821.918976 197.660095 
L 822.170052 198.083337 
L 823.174358 201.065302 
L 823.425435 202.439829 
L 823.676511 203.179039 
L 824.680817 207.879519 
L 825.9362 213.608245 
L 826.187276 214.261516 
L 826.689429 216.374446 
L 826.940506 216.61294 
L 827.442658 217.684354 
L 827.944811 218.608613 
L 828.195888 218.69329 
L 828.698041 219.198771 
L 829.200194 218.839952 
L 829.45127 218.866182 
L 829.702347 218.637636 
L 830.2045 217.911042 
L 831.208806 216.421329 
L 832.715264 213.554475 
L 832.966341 212.420459 
L 833.217417 212.091995 
L 834.4728 209.14191 
L 834.723876 209.191223 
L 834.974953 208.335039 
L 835.477106 207.824298 
L 835.728182 206.988509 
L 835.979259 206.73969 
L 836.230335 206.003348 
L 836.481412 205.889221 
L 837.234641 204.473851 
L 837.485717 204.292648 
L 837.736794 203.445638 
L 837.98787 203.849361 
L 838.238947 203.615386 
L 838.490023 202.800298 
L 838.992176 202.340482 
L 839.494329 201.933218 
L 839.996482 200.771101 
L 840.247559 201.536377 
L 840.749712 200.689926 
L 841.000788 200.759456 
L 841.251865 200.062699 
L 841.502941 200.445401 
L 841.754018 200.324431 
L 842.005094 200.742141 
L 842.256171 199.781176 
L 842.758323 200.447475 
L 843.0094 201.376861 
L 843.260476 200.8725 
L 843.511553 201.303783 
L 843.762629 200.99961 
L 844.013706 202.291193 
L 844.264782 202.055428 
L 844.515859 202.10677 
L 844.766935 203.894182 
L 845.018012 203.60605 
L 845.520165 205.610361 
L 846.273394 208.156452 
L 846.524471 209.331899 
L 847.026624 210.679157 
L 847.528776 212.685426 
L 848.282006 213.726039 
L 848.533082 214.770337 
L 848.784159 214.565445 
L 849.035235 215.136757 
L 849.286312 215.037535 
L 849.537388 215.300214 
L 849.788465 214.836453 
L 850.039541 214.870575 
L 850.290618 214.043927 
L 850.541694 213.911144 
L 850.792771 214.050404 
L 851.294924 212.514497 
L 851.546 212.121767 
L 852.550306 209.78231 
L 853.052459 208.990504 
L 853.303535 209.442801 
L 853.805688 208.589046 
L 854.056765 209.136996 
L 854.307841 208.912231 
L 854.558918 208.887601 
L 854.809994 209.248229 
L 855.563224 210.813473 
L 855.8143 210.986179 
L 857.320759 213.629077 
L 857.571835 213.780756 
L 857.822912 214.178519 
L 858.073988 214.244261 
L 858.325065 214.75812 
L 858.576141 214.352354 
L 858.827218 214.183068 
L 859.078294 214.205974 
L 859.329371 213.795355 
L 859.580447 214.038092 
L 860.333677 212.929134 
L 860.83583 212.608271 
L 861.086906 212.215803 
L 861.337983 212.143048 
L 862.342289 210.258519 
L 862.593365 210.366975 
L 862.844441 210.176718 
L 863.346594 210.209657 
L 863.597671 210.285293 
L 864.099824 210.876003 
L 864.3509 210.992386 
L 864.601977 210.798153 
L 864.853053 211.712165 
L 865.606283 212.808736 
L 865.857359 213.637323 
L 866.108436 213.559824 
L 866.359512 213.904084 
L 866.610589 214.884009 
L 866.861665 215.129044 
L 867.112742 215.113905 
L 867.614895 215.852429 
L 867.865971 215.586653 
L 868.117047 216.053395 
L 868.368124 215.917914 
L 868.6192 215.53052 
L 868.870277 215.716421 
L 869.121353 215.509319 
L 869.37243 215.796516 
L 869.623506 215.897621 
L 869.874583 215.138404 
L 870.125659 215.11964 
L 870.627812 214.872551 
L 870.878889 214.374948 
L 871.129965 214.460089 
L 872.385348 213.598495 
L 872.8875 214.132103 
L 873.138577 213.980846 
L 873.389653 214.639415 
L 873.64073 214.281254 
L 873.891806 214.149208 
L 874.393959 214.55114 
L 874.645036 214.849962 
L 874.896112 214.831021 
L 875.147189 215.216831 
L 875.398265 214.931352 
L 875.649342 215.276165 
L 875.900418 214.807595 
L 876.151495 215.057171 
L 876.653648 214.892559 
L 876.904724 214.567163 
L 877.155801 214.703877 
L 877.406877 214.45093 
L 877.90903 214.537422 
L 878.160106 213.940089 
L 878.411183 213.703576 
L 878.662259 213.107689 
L 878.913336 213.30717 
L 879.164412 212.731512 
L 879.415489 212.460019 
L 879.666565 212.799017 
L 880.168718 211.438077 
L 880.670871 211.15805 
L 881.173024 211.678247 
L 881.675177 211.748195 
L 882.17733 211.466588 
L 882.679483 211.724629 
L 882.930559 212.449267 
L 883.181636 212.503344 
L 883.683789 212.890188 
L 883.934865 213.659875 
L 884.437018 214.178112 
L 884.688095 214.99029 
L 885.692401 215.95274 
L 885.943477 216.114587 
L 886.194554 216.41079 
L 886.696707 216.150118 
L 887.19886 216.268738 
L 887.701013 215.825083 
L 887.952089 215.793632 
L 888.956395 214.323195 
L 889.960701 213.132258 
L 890.462854 211.779969 
L 890.71393 211.680971 
L 890.965007 211.271069 
L 891.216083 210.454702 
L 891.46716 210.692483 
L 892.471466 209.486741 
L 892.722542 209.853099 
L 892.973619 209.303814 
L 893.224695 209.148815 
L 893.475771 209.208938 
L 893.726848 209.088518 
L 893.977924 209.532001 
L 894.480077 208.959897 
L 894.731154 208.970893 
L 894.98223 209.614172 
L 895.484383 209.223363 
L 895.73546 209.993968 
L 895.986536 210.280777 
L 896.488689 209.838624 
L 896.739766 209.838391 
L 896.990842 210.637025 
L 897.744072 211.061268 
L 897.995148 211.742785 
L 898.246224 211.682206 
L 898.497301 211.909863 
L 898.748377 212.499878 
L 898.999454 212.559348 
L 899.752683 213.99492 
L 900.00376 214.028404 
L 900.254836 214.585491 
L 900.505913 214.864697 
L 901.008066 215.960387 
L 901.259142 216.101894 
L 901.510219 216.692149 
L 901.761295 216.765729 
L 902.012372 217.323007 
L 902.263448 217.439325 
L 902.514525 218.068918 
L 903.016678 218.449121 
L 903.267754 218.733645 
L 903.51883 218.756661 
L 903.769907 219.268246 
L 904.020983 219.123842 
L 904.27206 219.140876 
L 904.523136 219.362796 
L 904.523136 219.362796 
" style="fill:none;stroke:#1f77b4;stroke-linecap:square;stroke-width:1.5;"/>
   </g>
   <g id="patch_3">
    <path d="M 114.1595 232.980938 
L 114.1595 15.540938 
" style="fill:none;stroke:#000000;stroke-linecap:square;stroke-linejoin:miter;stroke-width:0.8;"/>
   </g>
   <g id="patch_4">
    <path d="M 942.1595 232.980938 
L 942.1595 15.540938 
" style="fill:none;stroke:#000000;stroke-linecap:square;stroke-linejoin:miter;stroke-width:0.8;"/>
   </g>
   <g id="patch_5">
    <path d="M 114.1595 232.980938 
L 942.1595 232.980938 
" style="fill:none;stroke:#000000;stroke-linecap:square;stroke-linejoin:miter;stroke-width:0.8;"/>
   </g>
   <g id="patch_6">
    <path d="M 114.1595 15.540938 
L 942.1595 15.540938 
" style="fill:none;stroke:#000000;stroke-linecap:square;stroke-linejoin:miter;stroke-width:0.8;"/>
   </g>
   <g id="legend_1">
    <g id="PathCollection_2">
     <g>
      <use style="fill:#ff0000;stroke:#ff0000;" x="1019.9595" xlink:href="#m48a7dd52e3" y="37.72625"/>
     </g>
    </g>
    <g id="text_11">
     <!-- &gt; mean + 3SD -->
     <defs>
      <path d="M 52.875 31.296875 
L 5.46875 11.03125 
L 5.46875 19.78125 
L 43.015625 35.359375 
L 5.46875 50.78125 
L 5.46875 59.515625 
L 52.875 39.5 
z
" id="ArialMT-62"/>
      <path d="M 25.046875 11.578125 
L 25.046875 31.203125 
L 5.5625 31.203125 
L 5.5625 39.40625 
L 25.046875 39.40625 
L 25.046875 58.890625 
L 33.34375 58.890625 
L 33.34375 39.40625 
L 52.828125 39.40625 
L 52.828125 31.203125 
L 33.34375 31.203125 
L 33.34375 11.578125 
z
" id="ArialMT-43"/>
      <path d="M 4.5 23 
L 13.421875 23.78125 
Q 14.0625 18.40625 16.375 14.96875 
Q 18.703125 11.53125 23.578125 9.40625 
Q 28.46875 7.28125 34.578125 7.28125 
Q 39.984375 7.28125 44.140625 8.890625 
Q 48.296875 10.5 50.3125 13.296875 
Q 52.34375 16.109375 52.34375 19.4375 
Q 52.34375 22.796875 50.390625 25.3125 
Q 48.4375 27.828125 43.953125 29.546875 
Q 41.0625 30.671875 31.203125 33.03125 
Q 21.34375 35.40625 17.390625 37.5 
Q 12.25 40.1875 9.734375 44.15625 
Q 7.234375 48.140625 7.234375 53.078125 
Q 7.234375 58.5 10.296875 63.203125 
Q 13.375 67.921875 19.28125 70.359375 
Q 25.203125 72.796875 32.421875 72.796875 
Q 40.375 72.796875 46.453125 70.234375 
Q 52.546875 67.671875 55.8125 62.6875 
Q 59.078125 57.71875 59.328125 51.421875 
L 50.25 50.734375 
Q 49.515625 57.515625 45.28125 60.984375 
Q 41.0625 64.453125 32.8125 64.453125 
Q 24.21875 64.453125 20.28125 61.296875 
Q 16.359375 58.15625 16.359375 53.71875 
Q 16.359375 49.859375 19.140625 47.359375 
Q 21.875 44.875 33.421875 42.265625 
Q 44.96875 39.65625 49.265625 37.703125 
Q 55.515625 34.8125 58.484375 30.390625 
Q 61.46875 25.984375 61.46875 20.21875 
Q 61.46875 14.5 58.203125 9.4375 
Q 54.9375 4.390625 48.796875 1.578125 
Q 42.671875 -1.21875 35.015625 -1.21875 
Q 25.296875 -1.21875 18.71875 1.609375 
Q 12.15625 4.4375 8.421875 10.125 
Q 4.6875 15.828125 4.5 23 
z
" id="ArialMT-83"/>
      <path d="M 7.71875 0 
L 7.71875 71.578125 
L 32.375 71.578125 
Q 40.71875 71.578125 45.125 70.5625 
Q 51.265625 69.140625 55.609375 65.4375 
Q 61.28125 60.640625 64.078125 53.1875 
Q 66.890625 45.75 66.890625 36.1875 
Q 66.890625 28.03125 64.984375 21.734375 
Q 63.09375 15.4375 60.109375 11.296875 
Q 57.125 7.171875 53.578125 4.796875 
Q 50.046875 2.4375 45.046875 1.21875 
Q 40.046875 0 33.546875 0 
z
M 17.1875 8.453125 
L 32.46875 8.453125 
Q 39.546875 8.453125 43.578125 9.765625 
Q 47.609375 11.078125 50 13.484375 
Q 53.375 16.84375 55.25 22.53125 
Q 57.125 28.21875 57.125 36.328125 
Q 57.125 47.5625 53.4375 53.59375 
Q 49.75 59.625 44.484375 61.671875 
Q 40.671875 63.140625 32.234375 63.140625 
L 17.1875 63.140625 
z
" id="ArialMT-68"/>
     </defs>
     <g transform="translate(1066.7595 44.55125)scale(0.26 -0.26)">
      <use xlink:href="#ArialMT-62"/>
      <use x="58.398438" xlink:href="#ArialMT-32"/>
      <use x="86.181641" xlink:href="#ArialMT-109"/>
      <use x="169.482422" xlink:href="#ArialMT-101"/>
      <use x="225.097656" xlink:href="#ArialMT-97"/>
      <use x="280.712891" xlink:href="#ArialMT-110"/>
      <use x="336.328125" xlink:href="#ArialMT-32"/>
      <use x="364.111328" xlink:href="#ArialMT-43"/>
      <use x="422.509766" xlink:href="#ArialMT-32"/>
      <use x="450.292969" xlink:href="#ArialMT-51"/>
      <use x="505.908203" xlink:href="#ArialMT-83"/>
      <use x="572.607422" xlink:href="#ArialMT-68"/>
     </g>
    </g>
   </g>
  </g>
 </g>
 <defs>
  <clipPath id="p9856f8e205">
   <rect height="217.44" width="828" x="114.1595" y="15.540938"/>
  </clipPath>
 </defs>
</svg>
