<?xml version="1.0" encoding="utf-8" standalone="no"?>
<!DOCTYPE svg PUBLIC "-//W3C//DTD SVG 1.1//EN"
  "http://www.w3.org/Graphics/SVG/1.1/DTD/svg11.dtd">
<!-- Created with matplotlib (https://matplotlib.org/) -->
<svg height="288pt" version="1.1" viewBox="0 0 1440 288" width="1440pt" xmlns="http://www.w3.org/2000/svg" xmlns:xlink="http://www.w3.org/1999/xlink">
 <defs>
  <style type="text/css">
*{stroke-linecap:butt;stroke-linejoin:round;}
  </style>
 </defs>
 <g id="figure_1">
  <g id="patch_1">
   <path d="M 0 288 
L 1440 288 
L 1440 0 
L 0 0 
z
" style="fill:#ffffff;"/>
  </g>
  <g id="axes_1">
   <g id="patch_2">
    <path d="M 180 252 
L 1008 252 
L 1008 34.56 
L 180 34.56 
z
" style="fill:#ffffff;"/>
   </g>
   <g id="PathCollection_1">
    <defs>
     <path d="M 0 3 
C 0.795609 3 1.55874 2.683901 2.12132 2.12132 
C 2.683901 1.55874 3 0.795609 3 0 
C 3 -0.795609 2.683901 -1.55874 2.12132 -2.12132 
C 1.55874 -2.683901 0.795609 -3 0 -3 
C -0.795609 -3 -1.55874 -2.683901 -2.12132 -2.12132 
C -2.683901 -1.55874 -3 -0.795609 -3 0 
C -3 0.795609 -2.683901 1.55874 -2.12132 2.12132 
C -1.55874 2.683901 -0.795609 3 0 3 
z
" id="m6c74930402" style="stroke:#ff0000;"/>
    </defs>
    <g clip-path="url(#pcfb66beac1)">
     <use style="fill:#ff0000;stroke:#ff0000;" x="468.461762" xlink:href="#m6c74930402" y="44.443636"/>
     <use style="fill:#ff0000;stroke:#ff0000;" x="468.712839" xlink:href="#m6c74930402" y="69.574861"/>
     <use style="fill:#ff0000;stroke:#ff0000;" x="468.963915" xlink:href="#m6c74930402" y="86.921768"/>
     <use style="fill:#ff0000;stroke:#ff0000;" x="469.214992" xlink:href="#m6c74930402" y="107.535043"/>
     <use style="fill:#ff0000;stroke:#ff0000;" x="469.466068" xlink:href="#m6c74930402" y="117.680991"/>
     <use style="fill:#ff0000;stroke:#ff0000;" x="469.717145" xlink:href="#m6c74930402" y="133.513873"/>
     <use style="fill:#ff0000;stroke:#ff0000;" x="469.968221" xlink:href="#m6c74930402" y="142.913254"/>
     <use style="fill:#ff0000;stroke:#ff0000;" x="470.219298" xlink:href="#m6c74930402" y="151.745805"/>
     <use style="fill:#ff0000;stroke:#ff0000;" x="470.470374" xlink:href="#m6c74930402" y="160.257366"/>
     <use style="fill:#ff0000;stroke:#ff0000;" x="470.721451" xlink:href="#m6c74930402" y="161.413419"/>
     <use style="fill:#ff0000;stroke:#ff0000;" x="470.972527" xlink:href="#m6c74930402" y="165.029706"/>
     <use style="fill:#ff0000;stroke:#ff0000;" x="471.223604" xlink:href="#m6c74930402" y="171.619312"/>
     <use style="fill:#ff0000;stroke:#ff0000;" x="471.47468" xlink:href="#m6c74930402" y="173.148345"/>
     <use style="fill:#ff0000;stroke:#ff0000;" x="471.725757" xlink:href="#m6c74930402" y="173.718296"/>
     <use style="fill:#ff0000;stroke:#ff0000;" x="471.976833" xlink:href="#m6c74930402" y="174.237726"/>
     <use style="fill:#ff0000;stroke:#ff0000;" x="472.22791" xlink:href="#m6c74930402" y="180.614083"/>
     <use style="fill:#ff0000;stroke:#ff0000;" x="506.876463" xlink:href="#m6c74930402" y="179.875669"/>
     <use style="fill:#ff0000;stroke:#ff0000;" x="507.378616" xlink:href="#m6c74930402" y="181.568205"/>
     <use style="fill:#ff0000;stroke:#ff0000;" x="507.629693" xlink:href="#m6c74930402" y="181.149564"/>
     <use style="fill:#ff0000;stroke:#ff0000;" x="507.880769" xlink:href="#m6c74930402" y="180.462993"/>
     <use style="fill:#ff0000;stroke:#ff0000;" x="508.131845" xlink:href="#m6c74930402" y="178.919752"/>
     <use style="fill:#ff0000;stroke:#ff0000;" x="508.382922" xlink:href="#m6c74930402" y="181.008719"/>
     <use style="fill:#ff0000;stroke:#ff0000;" x="537.00564" xlink:href="#m6c74930402" y="181.729924"/>
     <use style="fill:#ff0000;stroke:#ff0000;" x="719.538238" xlink:href="#m6c74930402" y="177.975191"/>
     <use style="fill:#ff0000;stroke:#ff0000;" x="719.789314" xlink:href="#m6c74930402" y="181.791031"/>
     <use style="fill:#ff0000;stroke:#ff0000;" x="720.040391" xlink:href="#m6c74930402" y="181.414358"/>
    </g>
   </g>
   <g id="matplotlib.axis_1">
    <g id="xtick_1">
     <g id="line2d_1">
      <path clip-path="url(#pcfb66beac1)" d="M 217.636364 252 
L 217.636364 34.56 
" style="fill:none;stroke:#b0b0b0;stroke-linecap:square;stroke-width:0.8;"/>
     </g>
     <g id="line2d_2">
      <defs>
       <path d="M 0 0 
L 0 3.5 
" id="md8cbf63a5d" style="stroke:#000000;stroke-width:0.8;"/>
      </defs>
      <g>
       <use style="stroke:#000000;stroke-width:0.8;" x="217.636364" xlink:href="#md8cbf63a5d" y="252"/>
      </g>
     </g>
     <g id="text_1">
      <!-- 0 -->
      <defs>
       <path d="M 4.15625 35.296875 
Q 4.15625 48 6.765625 55.734375 
Q 9.375 63.484375 14.515625 67.671875 
Q 19.671875 71.875 27.484375 71.875 
Q 33.25 71.875 37.59375 69.546875 
Q 41.9375 67.234375 44.765625 62.859375 
Q 47.609375 58.5 49.21875 52.21875 
Q 50.828125 45.953125 50.828125 35.296875 
Q 50.828125 22.703125 48.234375 14.96875 
Q 45.65625 7.234375 40.5 3 
Q 35.359375 -1.21875 27.484375 -1.21875 
Q 17.140625 -1.21875 11.234375 6.203125 
Q 4.15625 15.140625 4.15625 35.296875 
z
M 13.1875 35.296875 
Q 13.1875 17.671875 17.3125 11.828125 
Q 21.4375 6 27.484375 6 
Q 33.546875 6 37.671875 11.859375 
Q 41.796875 17.71875 41.796875 35.296875 
Q 41.796875 52.984375 37.671875 58.78125 
Q 33.546875 64.59375 27.390625 64.59375 
Q 21.34375 64.59375 17.71875 59.46875 
Q 13.1875 52.9375 13.1875 35.296875 
z
" id="ArialMT-48"/>
      </defs>
      <g transform="translate(210.407145 277.610313)scale(0.26 -0.26)">
       <use xlink:href="#ArialMT-48"/>
      </g>
     </g>
    </g>
    <g id="xtick_2">
     <g id="line2d_3">
      <path clip-path="url(#pcfb66beac1)" d="M 468.712839 252 
L 468.712839 34.56 
" style="fill:none;stroke:#b0b0b0;stroke-linecap:square;stroke-width:0.8;"/>
     </g>
     <g id="line2d_4">
      <g>
       <use style="stroke:#000000;stroke-width:0.8;" x="468.712839" xlink:href="#md8cbf63a5d" y="252"/>
      </g>
     </g>
     <g id="text_2">
      <!-- 1000 -->
      <defs>
       <path d="M 37.25 0 
L 28.46875 0 
L 28.46875 56 
Q 25.296875 52.984375 20.140625 49.953125 
Q 14.984375 46.921875 10.890625 45.40625 
L 10.890625 53.90625 
Q 18.265625 57.375 23.78125 62.296875 
Q 29.296875 67.234375 31.59375 71.875 
L 37.25 71.875 
z
" id="ArialMT-49"/>
      </defs>
      <g transform="translate(439.795964 277.610313)scale(0.26 -0.26)">
       <use xlink:href="#ArialMT-49"/>
       <use x="55.615234" xlink:href="#ArialMT-48"/>
       <use x="111.230469" xlink:href="#ArialMT-48"/>
       <use x="166.845703" xlink:href="#ArialMT-48"/>
      </g>
     </g>
    </g>
    <g id="xtick_3">
     <g id="line2d_5">
      <path clip-path="url(#pcfb66beac1)" d="M 719.789314 252 
L 719.789314 34.56 
" style="fill:none;stroke:#b0b0b0;stroke-linecap:square;stroke-width:0.8;"/>
     </g>
     <g id="line2d_6">
      <g>
       <use style="stroke:#000000;stroke-width:0.8;" x="719.789314" xlink:href="#md8cbf63a5d" y="252"/>
      </g>
     </g>
     <g id="text_3">
      <!-- 2000 -->
      <defs>
       <path d="M 50.34375 8.453125 
L 50.34375 0 
L 3.03125 0 
Q 2.9375 3.171875 4.046875 6.109375 
Q 5.859375 10.9375 9.828125 15.625 
Q 13.8125 20.3125 21.34375 26.46875 
Q 33.015625 36.03125 37.109375 41.625 
Q 41.21875 47.21875 41.21875 52.203125 
Q 41.21875 57.421875 37.46875 61 
Q 33.734375 64.59375 27.734375 64.59375 
Q 21.390625 64.59375 17.578125 60.78125 
Q 13.765625 56.984375 13.71875 50.25 
L 4.6875 51.171875 
Q 5.609375 61.28125 11.65625 66.578125 
Q 17.71875 71.875 27.9375 71.875 
Q 38.234375 71.875 44.234375 66.15625 
Q 50.25 60.453125 50.25 52 
Q 50.25 47.703125 48.484375 43.546875 
Q 46.734375 39.40625 42.65625 34.8125 
Q 38.578125 30.21875 29.109375 22.21875 
Q 21.1875 15.578125 18.9375 13.203125 
Q 16.703125 10.84375 15.234375 8.453125 
z
" id="ArialMT-50"/>
      </defs>
      <g transform="translate(690.872439 277.610313)scale(0.26 -0.26)">
       <use xlink:href="#ArialMT-50"/>
       <use x="55.615234" xlink:href="#ArialMT-48"/>
       <use x="111.230469" xlink:href="#ArialMT-48"/>
       <use x="166.845703" xlink:href="#ArialMT-48"/>
      </g>
     </g>
    </g>
    <g id="xtick_4">
     <g id="line2d_7">
      <path clip-path="url(#pcfb66beac1)" d="M 970.865789 252 
L 970.865789 34.56 
" style="fill:none;stroke:#b0b0b0;stroke-linecap:square;stroke-width:0.8;"/>
     </g>
     <g id="line2d_8">
      <g>
       <use style="stroke:#000000;stroke-width:0.8;" x="970.865789" xlink:href="#md8cbf63a5d" y="252"/>
      </g>
     </g>
     <g id="text_4">
      <!-- 3000 -->
      <defs>
       <path d="M 4.203125 18.890625 
L 12.984375 20.0625 
Q 14.5 12.59375 18.140625 9.296875 
Q 21.78125 6 27 6 
Q 33.203125 6 37.46875 10.296875 
Q 41.75 14.59375 41.75 20.953125 
Q 41.75 27 37.796875 30.921875 
Q 33.84375 34.859375 27.734375 34.859375 
Q 25.25 34.859375 21.53125 33.890625 
L 22.515625 41.609375 
Q 23.390625 41.5 23.921875 41.5 
Q 29.546875 41.5 34.03125 44.421875 
Q 38.53125 47.359375 38.53125 53.46875 
Q 38.53125 58.296875 35.25 61.46875 
Q 31.984375 64.65625 26.8125 64.65625 
Q 21.6875 64.65625 18.265625 61.421875 
Q 14.84375 58.203125 13.875 51.765625 
L 5.078125 53.328125 
Q 6.6875 62.15625 12.390625 67.015625 
Q 18.109375 71.875 26.609375 71.875 
Q 32.46875 71.875 37.390625 69.359375 
Q 42.328125 66.84375 44.9375 62.5 
Q 47.5625 58.15625 47.5625 53.265625 
Q 47.5625 48.640625 45.0625 44.828125 
Q 42.578125 41.015625 37.703125 38.765625 
Q 44.046875 37.3125 47.5625 32.6875 
Q 51.078125 28.078125 51.078125 21.140625 
Q 51.078125 11.765625 44.234375 5.25 
Q 37.40625 -1.265625 26.953125 -1.265625 
Q 17.53125 -1.265625 11.296875 4.34375 
Q 5.078125 9.96875 4.203125 18.890625 
z
" id="ArialMT-51"/>
      </defs>
      <g transform="translate(941.948914 277.610313)scale(0.26 -0.26)">
       <use xlink:href="#ArialMT-51"/>
       <use x="55.615234" xlink:href="#ArialMT-48"/>
       <use x="111.230469" xlink:href="#ArialMT-48"/>
       <use x="166.845703" xlink:href="#ArialMT-48"/>
      </g>
     </g>
    </g>
    <g id="text_5">
     <!-- # sample -->
     <defs>
      <path d="M 5.03125 -1.21875 
L 9.28125 19.578125 
L 1.03125 19.578125 
L 1.03125 26.859375 
L 10.75 26.859375 
L 14.359375 44.578125 
L 1.03125 44.578125 
L 1.03125 51.859375 
L 15.828125 51.859375 
L 20.0625 72.796875 
L 27.390625 72.796875 
L 23.140625 51.859375 
L 38.53125 51.859375 
L 42.78125 72.796875 
L 50.140625 72.796875 
L 45.90625 51.859375 
L 54.34375 51.859375 
L 54.34375 44.578125 
L 44.4375 44.578125 
L 40.765625 26.859375 
L 54.34375 26.859375 
L 54.34375 19.578125 
L 39.3125 19.578125 
L 35.0625 -1.21875 
L 27.734375 -1.21875 
L 31.9375 19.578125 
L 16.609375 19.578125 
L 12.359375 -1.21875 
z
M 18.0625 26.859375 
L 33.40625 26.859375 
L 37.0625 44.578125 
L 21.6875 44.578125 
z
" id="ArialMT-35"/>
      <path id="ArialMT-32"/>
      <path d="M 3.078125 15.484375 
L 11.765625 16.84375 
Q 12.5 11.625 15.84375 8.84375 
Q 19.1875 6.0625 25.203125 6.0625 
Q 31.25 6.0625 34.171875 8.515625 
Q 37.109375 10.984375 37.109375 14.3125 
Q 37.109375 17.28125 34.515625 19 
Q 32.71875 20.171875 25.53125 21.96875 
Q 15.875 24.421875 12.140625 26.203125 
Q 8.40625 27.984375 6.46875 31.125 
Q 4.546875 34.28125 4.546875 38.09375 
Q 4.546875 41.546875 6.125 44.5 
Q 7.71875 47.46875 10.453125 49.421875 
Q 12.5 50.921875 16.03125 51.96875 
Q 19.578125 53.03125 23.640625 53.03125 
Q 29.734375 53.03125 34.34375 51.265625 
Q 38.96875 49.515625 41.15625 46.5 
Q 43.359375 43.5 44.1875 38.484375 
L 35.59375 37.3125 
Q 35.015625 41.3125 32.203125 43.546875 
Q 29.390625 45.796875 24.265625 45.796875 
Q 18.21875 45.796875 15.625 43.796875 
Q 13.03125 41.796875 13.03125 39.109375 
Q 13.03125 37.40625 14.109375 36.03125 
Q 15.1875 34.625 17.484375 33.6875 
Q 18.796875 33.203125 25.25 31.453125 
Q 34.578125 28.953125 38.25 27.359375 
Q 41.9375 25.78125 44.03125 22.75 
Q 46.140625 19.734375 46.140625 15.234375 
Q 46.140625 10.84375 43.578125 6.953125 
Q 41.015625 3.078125 36.171875 0.953125 
Q 31.34375 -1.171875 25.25 -1.171875 
Q 15.140625 -1.171875 9.84375 3.03125 
Q 4.546875 7.234375 3.078125 15.484375 
z
" id="ArialMT-115"/>
      <path d="M 40.4375 6.390625 
Q 35.546875 2.25 31.03125 0.53125 
Q 26.515625 -1.171875 21.34375 -1.171875 
Q 12.796875 -1.171875 8.203125 3 
Q 3.609375 7.171875 3.609375 13.671875 
Q 3.609375 17.484375 5.34375 20.625 
Q 7.078125 23.78125 9.890625 25.6875 
Q 12.703125 27.59375 16.21875 28.5625 
Q 18.796875 29.25 24.03125 29.890625 
Q 34.671875 31.15625 39.703125 32.90625 
Q 39.75 34.71875 39.75 35.203125 
Q 39.75 40.578125 37.25 42.78125 
Q 33.890625 45.75 27.25 45.75 
Q 21.046875 45.75 18.09375 43.578125 
Q 15.140625 41.40625 13.71875 35.890625 
L 5.125 37.0625 
Q 6.296875 42.578125 8.984375 45.96875 
Q 11.671875 49.359375 16.75 51.1875 
Q 21.828125 53.03125 28.515625 53.03125 
Q 35.15625 53.03125 39.296875 51.46875 
Q 43.453125 49.90625 45.40625 47.53125 
Q 47.359375 45.171875 48.140625 41.546875 
Q 48.578125 39.3125 48.578125 33.453125 
L 48.578125 21.734375 
Q 48.578125 9.46875 49.140625 6.21875 
Q 49.703125 2.984375 51.375 0 
L 42.1875 0 
Q 40.828125 2.734375 40.4375 6.390625 
z
M 39.703125 26.03125 
Q 34.90625 24.078125 25.34375 22.703125 
Q 19.921875 21.921875 17.671875 20.9375 
Q 15.4375 19.96875 14.203125 18.09375 
Q 12.984375 16.21875 12.984375 13.921875 
Q 12.984375 10.40625 15.640625 8.0625 
Q 18.3125 5.71875 23.4375 5.71875 
Q 28.515625 5.71875 32.46875 7.9375 
Q 36.421875 10.15625 38.28125 14.015625 
Q 39.703125 17 39.703125 22.796875 
z
" id="ArialMT-97"/>
      <path d="M 6.59375 0 
L 6.59375 51.859375 
L 14.453125 51.859375 
L 14.453125 44.578125 
Q 16.890625 48.390625 20.9375 50.703125 
Q 25 53.03125 30.171875 53.03125 
Q 35.9375 53.03125 39.625 50.640625 
Q 43.3125 48.25 44.828125 43.953125 
Q 50.984375 53.03125 60.84375 53.03125 
Q 68.5625 53.03125 72.703125 48.75 
Q 76.859375 44.484375 76.859375 35.59375 
L 76.859375 0 
L 68.109375 0 
L 68.109375 32.671875 
Q 68.109375 37.9375 67.25 40.25 
Q 66.40625 42.578125 64.15625 43.984375 
Q 61.921875 45.40625 58.890625 45.40625 
Q 53.421875 45.40625 49.796875 41.765625 
Q 46.1875 38.140625 46.1875 30.125 
L 46.1875 0 
L 37.40625 0 
L 37.40625 33.6875 
Q 37.40625 39.546875 35.25 42.46875 
Q 33.109375 45.40625 28.21875 45.40625 
Q 24.515625 45.40625 21.359375 43.453125 
Q 18.21875 41.5 16.796875 37.734375 
Q 15.375 33.984375 15.375 26.90625 
L 15.375 0 
z
" id="ArialMT-109"/>
      <path d="M 6.59375 -19.875 
L 6.59375 51.859375 
L 14.59375 51.859375 
L 14.59375 45.125 
Q 17.4375 49.078125 21 51.046875 
Q 24.5625 53.03125 29.640625 53.03125 
Q 36.28125 53.03125 41.359375 49.609375 
Q 46.4375 46.1875 49.015625 39.953125 
Q 51.609375 33.734375 51.609375 26.3125 
Q 51.609375 18.359375 48.75 11.984375 
Q 45.90625 5.609375 40.453125 2.21875 
Q 35.015625 -1.171875 29 -1.171875 
Q 24.609375 -1.171875 21.109375 0.6875 
Q 17.625 2.546875 15.375 5.375 
L 15.375 -19.875 
z
M 14.546875 25.640625 
Q 14.546875 15.625 18.59375 10.84375 
Q 22.65625 6.0625 28.421875 6.0625 
Q 34.28125 6.0625 38.453125 11.015625 
Q 42.625 15.96875 42.625 26.375 
Q 42.625 36.28125 38.546875 41.203125 
Q 34.46875 46.140625 28.8125 46.140625 
Q 23.1875 46.140625 18.859375 40.890625 
Q 14.546875 35.640625 14.546875 25.640625 
z
" id="ArialMT-112"/>
      <path d="M 6.390625 0 
L 6.390625 71.578125 
L 15.1875 71.578125 
L 15.1875 0 
z
" id="ArialMT-108"/>
      <path d="M 42.09375 16.703125 
L 51.171875 15.578125 
Q 49.03125 7.625 43.21875 3.21875 
Q 37.40625 -1.171875 28.375 -1.171875 
Q 17 -1.171875 10.328125 5.828125 
Q 3.65625 12.84375 3.65625 25.484375 
Q 3.65625 38.578125 10.390625 45.796875 
Q 17.140625 53.03125 27.875 53.03125 
Q 38.28125 53.03125 44.875 45.953125 
Q 51.46875 38.875 51.46875 26.03125 
Q 51.46875 25.25 51.421875 23.6875 
L 12.75 23.6875 
Q 13.234375 15.140625 17.578125 10.59375 
Q 21.921875 6.0625 28.421875 6.0625 
Q 33.25 6.0625 36.671875 8.59375 
Q 40.09375 11.140625 42.09375 16.703125 
z
M 13.234375 30.90625 
L 42.1875 30.90625 
Q 41.609375 37.453125 38.875 40.71875 
Q 34.671875 45.796875 27.984375 45.796875 
Q 21.921875 45.796875 17.796875 41.75 
Q 13.671875 37.703125 13.234375 30.90625 
z
" id="ArialMT-101"/>
     </defs>
     <g transform="translate(541.254531 305.705)scale(0.26 -0.26)">
      <use xlink:href="#ArialMT-35"/>
      <use x="55.615234" xlink:href="#ArialMT-32"/>
      <use x="83.398438" xlink:href="#ArialMT-115"/>
      <use x="133.398438" xlink:href="#ArialMT-97"/>
      <use x="189.013672" xlink:href="#ArialMT-109"/>
      <use x="272.314453" xlink:href="#ArialMT-112"/>
      <use x="327.929688" xlink:href="#ArialMT-108"/>
      <use x="350.146484" xlink:href="#ArialMT-101"/>
     </g>
    </g>
   </g>
   <g id="matplotlib.axis_2">
    <g id="ytick_1">
     <g id="line2d_9">
      <path clip-path="url(#pcfb66beac1)" d="M 180 242.15009 
L 1008 242.15009 
" style="fill:none;stroke:#b0b0b0;stroke-linecap:square;stroke-width:0.8;"/>
     </g>
     <g id="line2d_10">
      <defs>
       <path d="M 0 0 
L -3.5 0 
" id="m2a74061258" style="stroke:#000000;stroke-width:0.8;"/>
      </defs>
      <g>
       <use style="stroke:#000000;stroke-width:0.8;" x="180" xlink:href="#m2a74061258" y="242.15009"/>
      </g>
     </g>
     <g id="text_6">
      <!-- 0 -->
      <g transform="translate(158.541562 251.455247)scale(0.26 -0.26)">
       <use xlink:href="#ArialMT-48"/>
      </g>
     </g>
    </g>
    <g id="ytick_2">
     <g id="line2d_11">
      <path clip-path="url(#pcfb66beac1)" d="M 180 185.973525 
L 1008 185.973525 
" style="fill:none;stroke:#b0b0b0;stroke-linecap:square;stroke-width:0.8;"/>
     </g>
     <g id="line2d_12">
      <g>
       <use style="stroke:#000000;stroke-width:0.8;" x="180" xlink:href="#m2a74061258" y="185.973525"/>
      </g>
     </g>
     <g id="text_7">
      <!-- 200 -->
      <g transform="translate(129.624687 195.278681)scale(0.26 -0.26)">
       <use xlink:href="#ArialMT-50"/>
       <use x="55.615234" xlink:href="#ArialMT-48"/>
       <use x="111.230469" xlink:href="#ArialMT-48"/>
      </g>
     </g>
    </g>
    <g id="ytick_3">
     <g id="line2d_13">
      <path clip-path="url(#pcfb66beac1)" d="M 180 129.796959 
L 1008 129.796959 
" style="fill:none;stroke:#b0b0b0;stroke-linecap:square;stroke-width:0.8;"/>
     </g>
     <g id="line2d_14">
      <g>
       <use style="stroke:#000000;stroke-width:0.8;" x="180" xlink:href="#m2a74061258" y="129.796959"/>
      </g>
     </g>
     <g id="text_8">
      <!-- 400 -->
      <defs>
       <path d="M 32.328125 0 
L 32.328125 17.140625 
L 1.265625 17.140625 
L 1.265625 25.203125 
L 33.9375 71.578125 
L 41.109375 71.578125 
L 41.109375 25.203125 
L 50.78125 25.203125 
L 50.78125 17.140625 
L 41.109375 17.140625 
L 41.109375 0 
z
M 32.328125 25.203125 
L 32.328125 57.46875 
L 9.90625 25.203125 
z
" id="ArialMT-52"/>
      </defs>
      <g transform="translate(129.624687 139.102115)scale(0.26 -0.26)">
       <use xlink:href="#ArialMT-52"/>
       <use x="55.615234" xlink:href="#ArialMT-48"/>
       <use x="111.230469" xlink:href="#ArialMT-48"/>
      </g>
     </g>
    </g>
    <g id="ytick_4">
     <g id="line2d_15">
      <path clip-path="url(#pcfb66beac1)" d="M 180 73.620393 
L 1008 73.620393 
" style="fill:none;stroke:#b0b0b0;stroke-linecap:square;stroke-width:0.8;"/>
     </g>
     <g id="line2d_16">
      <g>
       <use style="stroke:#000000;stroke-width:0.8;" x="180" xlink:href="#m2a74061258" y="73.620393"/>
      </g>
     </g>
     <g id="text_9">
      <!-- 600 -->
      <defs>
       <path d="M 49.75 54.046875 
L 41.015625 53.375 
Q 39.84375 58.546875 37.703125 60.890625 
Q 34.125 64.65625 28.90625 64.65625 
Q 24.703125 64.65625 21.53125 62.3125 
Q 17.390625 59.28125 14.984375 53.46875 
Q 12.59375 47.65625 12.5 36.921875 
Q 15.671875 41.75 20.265625 44.09375 
Q 24.859375 46.4375 29.890625 46.4375 
Q 38.671875 46.4375 44.84375 39.96875 
Q 51.03125 33.5 51.03125 23.25 
Q 51.03125 16.5 48.125 10.71875 
Q 45.21875 4.9375 40.140625 1.859375 
Q 35.0625 -1.21875 28.609375 -1.21875 
Q 17.625 -1.21875 10.6875 6.859375 
Q 3.765625 14.9375 3.765625 33.5 
Q 3.765625 54.25 11.421875 63.671875 
Q 18.109375 71.875 29.4375 71.875 
Q 37.890625 71.875 43.28125 67.140625 
Q 48.6875 62.40625 49.75 54.046875 
z
M 13.875 23.1875 
Q 13.875 18.65625 15.796875 14.5 
Q 17.71875 10.359375 21.1875 8.171875 
Q 24.65625 6 28.46875 6 
Q 34.03125 6 38.03125 10.484375 
Q 42.046875 14.984375 42.046875 22.703125 
Q 42.046875 30.125 38.078125 34.390625 
Q 34.125 38.671875 28.125 38.671875 
Q 22.171875 38.671875 18.015625 34.390625 
Q 13.875 30.125 13.875 23.1875 
z
" id="ArialMT-54"/>
      </defs>
      <g transform="translate(129.624687 82.925549)scale(0.26 -0.26)">
       <use xlink:href="#ArialMT-54"/>
       <use x="55.615234" xlink:href="#ArialMT-48"/>
       <use x="111.230469" xlink:href="#ArialMT-48"/>
      </g>
     </g>
    </g>
    <g id="text_10">
     <!-- Change-point score  -->
     <defs>
      <path d="M 58.796875 25.09375 
L 68.265625 22.703125 
Q 65.28125 11.03125 57.546875 4.90625 
Q 49.8125 -1.21875 38.625 -1.21875 
Q 27.046875 -1.21875 19.796875 3.484375 
Q 12.546875 8.203125 8.765625 17.140625 
Q 4.984375 26.078125 4.984375 36.328125 
Q 4.984375 47.515625 9.25 55.828125 
Q 13.53125 64.15625 21.40625 68.46875 
Q 29.296875 72.796875 38.765625 72.796875 
Q 49.515625 72.796875 56.828125 67.328125 
Q 64.15625 61.859375 67.046875 51.953125 
L 57.71875 49.75 
Q 55.21875 57.5625 50.484375 61.125 
Q 45.75 64.703125 38.578125 64.703125 
Q 30.328125 64.703125 24.78125 60.734375 
Q 19.234375 56.78125 16.984375 50.109375 
Q 14.75 43.453125 14.75 36.375 
Q 14.75 27.25 17.40625 20.4375 
Q 20.0625 13.625 25.671875 10.25 
Q 31.296875 6.890625 37.84375 6.890625 
Q 45.796875 6.890625 51.3125 11.46875 
Q 56.84375 16.0625 58.796875 25.09375 
z
" id="ArialMT-67"/>
      <path d="M 6.59375 0 
L 6.59375 71.578125 
L 15.375 71.578125 
L 15.375 45.90625 
Q 21.53125 53.03125 30.90625 53.03125 
Q 36.671875 53.03125 40.921875 50.75 
Q 45.171875 48.484375 47 44.484375 
Q 48.828125 40.484375 48.828125 32.859375 
L 48.828125 0 
L 40.046875 0 
L 40.046875 32.859375 
Q 40.046875 39.453125 37.1875 42.453125 
Q 34.328125 45.453125 29.109375 45.453125 
Q 25.203125 45.453125 21.75 43.421875 
Q 18.3125 41.40625 16.84375 37.9375 
Q 15.375 34.46875 15.375 28.375 
L 15.375 0 
z
" id="ArialMT-104"/>
      <path d="M 6.59375 0 
L 6.59375 51.859375 
L 14.5 51.859375 
L 14.5 44.484375 
Q 20.21875 53.03125 31 53.03125 
Q 35.6875 53.03125 39.625 51.34375 
Q 43.5625 49.65625 45.515625 46.921875 
Q 47.46875 44.1875 48.25 40.4375 
Q 48.734375 37.984375 48.734375 31.890625 
L 48.734375 0 
L 39.9375 0 
L 39.9375 31.546875 
Q 39.9375 36.921875 38.90625 39.578125 
Q 37.890625 42.234375 35.28125 43.8125 
Q 32.671875 45.40625 29.15625 45.40625 
Q 23.53125 45.40625 19.453125 41.84375 
Q 15.375 38.28125 15.375 28.328125 
L 15.375 0 
z
" id="ArialMT-110"/>
      <path d="M 4.984375 -4.296875 
L 13.53125 -5.5625 
Q 14.0625 -9.515625 16.5 -11.328125 
Q 19.78125 -13.765625 25.4375 -13.765625 
Q 31.546875 -13.765625 34.859375 -11.328125 
Q 38.1875 -8.890625 39.359375 -4.5 
Q 40.046875 -1.8125 39.984375 6.78125 
Q 34.234375 0 25.640625 0 
Q 14.9375 0 9.078125 7.71875 
Q 3.21875 15.4375 3.21875 26.21875 
Q 3.21875 33.640625 5.90625 39.90625 
Q 8.59375 46.1875 13.6875 49.609375 
Q 18.796875 53.03125 25.6875 53.03125 
Q 34.859375 53.03125 40.828125 45.609375 
L 40.828125 51.859375 
L 48.921875 51.859375 
L 48.921875 7.03125 
Q 48.921875 -5.078125 46.453125 -10.125 
Q 44 -15.1875 38.640625 -18.109375 
Q 33.296875 -21.046875 25.484375 -21.046875 
Q 16.21875 -21.046875 10.5 -16.875 
Q 4.78125 -12.703125 4.984375 -4.296875 
z
M 12.25 26.859375 
Q 12.25 16.65625 16.296875 11.96875 
Q 20.359375 7.28125 26.46875 7.28125 
Q 32.515625 7.28125 36.609375 11.9375 
Q 40.71875 16.609375 40.71875 26.5625 
Q 40.71875 36.078125 36.5 40.90625 
Q 32.28125 45.75 26.3125 45.75 
Q 20.453125 45.75 16.34375 40.984375 
Q 12.25 36.234375 12.25 26.859375 
z
" id="ArialMT-103"/>
      <path d="M 3.171875 21.484375 
L 3.171875 30.328125 
L 30.171875 30.328125 
L 30.171875 21.484375 
z
" id="ArialMT-45"/>
      <path d="M 3.328125 25.921875 
Q 3.328125 40.328125 11.328125 47.265625 
Q 18.015625 53.03125 27.640625 53.03125 
Q 38.328125 53.03125 45.109375 46.015625 
Q 51.90625 39.015625 51.90625 26.65625 
Q 51.90625 16.65625 48.90625 10.90625 
Q 45.90625 5.171875 40.15625 2 
Q 34.421875 -1.171875 27.640625 -1.171875 
Q 16.75 -1.171875 10.03125 5.8125 
Q 3.328125 12.796875 3.328125 25.921875 
z
M 12.359375 25.921875 
Q 12.359375 15.96875 16.703125 11.015625 
Q 21.046875 6.0625 27.640625 6.0625 
Q 34.1875 6.0625 38.53125 11.03125 
Q 42.875 16.015625 42.875 26.21875 
Q 42.875 35.84375 38.5 40.796875 
Q 34.125 45.75 27.640625 45.75 
Q 21.046875 45.75 16.703125 40.8125 
Q 12.359375 35.890625 12.359375 25.921875 
z
" id="ArialMT-111"/>
      <path d="M 6.640625 61.46875 
L 6.640625 71.578125 
L 15.4375 71.578125 
L 15.4375 61.46875 
z
M 6.640625 0 
L 6.640625 51.859375 
L 15.4375 51.859375 
L 15.4375 0 
z
" id="ArialMT-105"/>
      <path d="M 25.78125 7.859375 
L 27.046875 0.09375 
Q 23.34375 -0.6875 20.40625 -0.6875 
Q 15.625 -0.6875 12.984375 0.828125 
Q 10.359375 2.34375 9.28125 4.8125 
Q 8.203125 7.28125 8.203125 15.1875 
L 8.203125 45.015625 
L 1.765625 45.015625 
L 1.765625 51.859375 
L 8.203125 51.859375 
L 8.203125 64.703125 
L 16.9375 69.96875 
L 16.9375 51.859375 
L 25.78125 51.859375 
L 25.78125 45.015625 
L 16.9375 45.015625 
L 16.9375 14.703125 
Q 16.9375 10.9375 17.40625 9.859375 
Q 17.875 8.796875 18.921875 8.15625 
Q 19.96875 7.515625 21.921875 7.515625 
Q 23.390625 7.515625 25.78125 7.859375 
z
" id="ArialMT-116"/>
      <path d="M 40.4375 19 
L 49.078125 17.875 
Q 47.65625 8.9375 41.8125 3.875 
Q 35.984375 -1.171875 27.484375 -1.171875 
Q 16.84375 -1.171875 10.375 5.78125 
Q 3.90625 12.75 3.90625 25.734375 
Q 3.90625 34.125 6.6875 40.421875 
Q 9.46875 46.734375 15.15625 49.875 
Q 20.84375 53.03125 27.546875 53.03125 
Q 35.984375 53.03125 41.359375 48.75 
Q 46.734375 44.484375 48.25 36.625 
L 39.703125 35.296875 
Q 38.484375 40.53125 35.375 43.15625 
Q 32.28125 45.796875 27.875 45.796875 
Q 21.234375 45.796875 17.078125 41.03125 
Q 12.9375 36.28125 12.9375 25.984375 
Q 12.9375 15.53125 16.9375 10.796875 
Q 20.953125 6.0625 27.390625 6.0625 
Q 32.5625 6.0625 36.03125 9.234375 
Q 39.5 12.40625 40.4375 19 
z
" id="ArialMT-99"/>
      <path d="M 6.5 0 
L 6.5 51.859375 
L 14.40625 51.859375 
L 14.40625 44 
Q 17.4375 49.515625 20 51.265625 
Q 22.5625 53.03125 25.640625 53.03125 
Q 30.078125 53.03125 34.671875 50.203125 
L 31.640625 42.046875 
Q 28.421875 43.953125 25.203125 43.953125 
Q 22.3125 43.953125 20.015625 42.21875 
Q 17.71875 40.484375 16.75 37.40625 
Q 15.28125 32.71875 15.28125 27.15625 
L 15.28125 0 
z
" id="ArialMT-114"/>
     </defs>
     <g transform="translate(91.967687 260.340937)rotate(-90)scale(0.26 -0.26)">
      <use xlink:href="#ArialMT-67"/>
      <use x="72.216797" xlink:href="#ArialMT-104"/>
      <use x="127.832031" xlink:href="#ArialMT-97"/>
      <use x="183.447266" xlink:href="#ArialMT-110"/>
      <use x="239.0625" xlink:href="#ArialMT-103"/>
      <use x="294.677734" xlink:href="#ArialMT-101"/>
      <use x="350.292969" xlink:href="#ArialMT-45"/>
      <use x="383.59375" xlink:href="#ArialMT-112"/>
      <use x="439.208984" xlink:href="#ArialMT-111"/>
      <use x="494.824219" xlink:href="#ArialMT-105"/>
      <use x="517.041016" xlink:href="#ArialMT-110"/>
      <use x="572.65625" xlink:href="#ArialMT-116"/>
      <use x="600.439453" xlink:href="#ArialMT-32"/>
      <use x="628.222656" xlink:href="#ArialMT-115"/>
      <use x="678.222656" xlink:href="#ArialMT-99"/>
      <use x="728.222656" xlink:href="#ArialMT-111"/>
      <use x="783.837891" xlink:href="#ArialMT-114"/>
      <use x="817.138672" xlink:href="#ArialMT-101"/>
      <use x="872.753906" xlink:href="#ArialMT-32"/>
     </g>
     <!-- (KL div.) -->
     <defs>
      <path d="M 23.390625 -21.046875 
Q 16.109375 -11.859375 11.078125 0.4375 
Q 6.0625 12.75 6.0625 25.921875 
Q 6.0625 37.546875 9.8125 48.1875 
Q 14.203125 60.546875 23.390625 72.796875 
L 29.6875 72.796875 
Q 23.78125 62.640625 21.875 58.296875 
Q 18.890625 51.5625 17.1875 44.234375 
Q 15.09375 35.109375 15.09375 25.875 
Q 15.09375 2.390625 29.6875 -21.046875 
z
" id="ArialMT-40"/>
      <path d="M 7.328125 0 
L 7.328125 71.578125 
L 16.796875 71.578125 
L 16.796875 36.078125 
L 52.34375 71.578125 
L 65.1875 71.578125 
L 35.15625 42.578125 
L 66.5 0 
L 54 0 
L 28.515625 36.234375 
L 16.796875 24.8125 
L 16.796875 0 
z
" id="ArialMT-75"/>
      <path d="M 7.328125 0 
L 7.328125 71.578125 
L 16.796875 71.578125 
L 16.796875 8.453125 
L 52.046875 8.453125 
L 52.046875 0 
z
" id="ArialMT-76"/>
      <path d="M 40.234375 0 
L 40.234375 6.546875 
Q 35.296875 -1.171875 25.734375 -1.171875 
Q 19.53125 -1.171875 14.328125 2.25 
Q 9.125 5.671875 6.265625 11.796875 
Q 3.421875 17.921875 3.421875 25.875 
Q 3.421875 33.640625 6 39.96875 
Q 8.59375 46.296875 13.765625 49.65625 
Q 18.953125 53.03125 25.34375 53.03125 
Q 30.03125 53.03125 33.6875 51.046875 
Q 37.359375 49.078125 39.65625 45.90625 
L 39.65625 71.578125 
L 48.390625 71.578125 
L 48.390625 0 
z
M 12.453125 25.875 
Q 12.453125 15.921875 16.640625 10.984375 
Q 20.84375 6.0625 26.5625 6.0625 
Q 32.328125 6.0625 36.34375 10.765625 
Q 40.375 15.484375 40.375 25.140625 
Q 40.375 35.796875 36.265625 40.765625 
Q 32.171875 45.75 26.171875 45.75 
Q 20.3125 45.75 16.375 40.96875 
Q 12.453125 36.1875 12.453125 25.875 
z
" id="ArialMT-100"/>
      <path d="M 21 0 
L 1.265625 51.859375 
L 10.546875 51.859375 
L 21.6875 20.796875 
Q 23.484375 15.765625 25 10.359375 
Q 26.171875 14.453125 28.265625 20.21875 
L 39.796875 51.859375 
L 48.828125 51.859375 
L 29.203125 0 
z
" id="ArialMT-118"/>
      <path d="M 9.078125 0 
L 9.078125 10.015625 
L 19.09375 10.015625 
L 19.09375 0 
z
" id="ArialMT-46"/>
      <path d="M 12.359375 -21.046875 
L 6.0625 -21.046875 
Q 20.65625 2.390625 20.65625 25.875 
Q 20.65625 35.0625 18.5625 44.09375 
Q 16.890625 51.421875 13.921875 58.15625 
Q 12.015625 62.546875 6.0625 72.796875 
L 12.359375 72.796875 
Q 21.53125 60.546875 25.921875 48.1875 
Q 29.6875 37.546875 29.6875 25.921875 
Q 29.6875 12.75 24.625 0.4375 
Q 19.578125 -11.859375 12.359375 -21.046875 
z
" id="ArialMT-41"/>
     </defs>
     <g transform="translate(120.1525 190.232344)rotate(-90)scale(0.26 -0.26)">
      <use xlink:href="#ArialMT-40"/>
      <use x="33.300781" xlink:href="#ArialMT-75"/>
      <use x="100" xlink:href="#ArialMT-76"/>
      <use x="151.865234" xlink:href="#ArialMT-32"/>
      <use x="179.648438" xlink:href="#ArialMT-100"/>
      <use x="235.263672" xlink:href="#ArialMT-105"/>
      <use x="257.480469" xlink:href="#ArialMT-118"/>
      <use x="300.105469" xlink:href="#ArialMT-46"/>
      <use x="327.888672" xlink:href="#ArialMT-41"/>
     </g>
    </g>
   </g>
   <g id="line2d_17">
    <path clip-path="url(#pcfb66beac1)" d="M 217.636364 195.402484 
L 217.88744 218.519672 
L 218.138517 230.107923 
L 218.389593 235.866531 
L 218.64067 238.76772 
L 218.891746 240.163003 
L 219.142822 240.839121 
L 219.393899 241.107987 
L 219.644975 241.184506 
L 220.147128 240.798826 
L 220.398205 240.386842 
L 220.900358 238.669014 
L 222.15574 232.690466 
L 222.657893 232.445989 
L 223.160046 235.097026 
L 223.411123 235.023635 
L 223.662199 236.960596 
L 224.164352 238.87318 
L 224.415428 239.262031 
L 224.666505 239.314494 
L 225.168658 240.757114 
L 225.419734 240.451737 
L 225.670811 240.714939 
L 225.921887 240.444691 
L 226.172964 240.938443 
L 226.42404 240.21207 
L 226.675117 240.260873 
L 226.926193 239.930621 
L 227.17727 240.100698 
L 227.428346 240.111416 
L 227.679423 239.694302 
L 227.930499 238.627946 
L 228.181576 239.11711 
L 228.432652 238.33847 
L 228.683729 238.212477 
L 228.934805 238.693197 
L 229.185881 238.776993 
L 229.436958 239.396873 
L 229.939111 237.477895 
L 230.441264 238.972223 
L 230.69234 239.387798 
L 230.943417 238.663459 
L 231.194493 239.145515 
L 231.696646 238.65709 
L 231.947723 239.830269 
L 232.198799 239.62302 
L 232.449876 240.144691 
L 232.700952 240.26184 
L 233.203105 239.126368 
L 233.705258 239.822646 
L 233.956335 239.215196 
L 234.207411 239.272588 
L 234.709564 240.342391 
L 234.96064 240.032687 
L 235.211717 239.446888 
L 235.462793 240.034116 
L 235.71387 239.23616 
L 236.467099 239.90928 
L 236.969252 238.318053 
L 237.220329 238.737939 
L 237.722482 240.503761 
L 237.973558 239.468164 
L 238.475711 240.026001 
L 238.726788 239.036852 
L 238.977864 239.035821 
L 239.228941 238.870184 
L 239.480017 239.147471 
L 239.731093 239.846525 
L 240.233246 239.566911 
L 240.484323 240.740143 
L 240.735399 238.564434 
L 240.986476 240.883879 
L 241.739705 238.848755 
L 241.990782 239.768517 
L 242.241858 239.366066 
L 242.492935 240.127277 
L 242.744011 239.892103 
L 242.995088 240.53845 
L 243.246164 239.210504 
L 243.497241 240.648713 
L 243.748317 239.946042 
L 243.999394 240.307226 
L 244.25047 240.11931 
L 244.501546 240.294299 
L 244.752623 239.386216 
L 245.003699 240.205733 
L 245.254776 239.521804 
L 245.505852 240.376109 
L 246.008005 238.032506 
L 246.259082 239.912198 
L 246.510158 240.303462 
L 246.761235 239.725856 
L 247.012311 240.171773 
L 247.263388 239.606719 
L 247.514464 239.768732 
L 247.765541 239.447821 
L 248.267694 239.858729 
L 248.51877 239.948965 
L 248.769847 239.494868 
L 249.020923 239.544903 
L 249.272 240.282844 
L 249.523076 238.642451 
L 249.774152 238.254706 
L 250.025229 240.519635 
L 250.276305 239.988236 
L 250.527382 240.243724 
L 250.778458 239.188606 
L 251.029535 239.892697 
L 251.280611 239.989322 
L 251.531688 240.363324 
L 251.782764 239.574999 
L 252.033841 240.410102 
L 252.284917 239.365249 
L 252.78707 241.009505 
L 253.038147 240.655233 
L 253.289223 239.234353 
L 253.791376 240.934541 
L 254.042453 239.731608 
L 254.293529 240.290755 
L 254.795682 239.859015 
L 255.046758 240.891531 
L 255.297835 240.151425 
L 255.548911 240.624628 
L 255.799988 240.698047 
L 256.302141 239.426821 
L 256.553217 240.072946 
L 256.804294 239.968838 
L 257.05537 240.342169 
L 257.306447 240.127146 
L 257.557523 240.133911 
L 257.8086 240.676055 
L 258.059676 240.688211 
L 258.310753 239.605987 
L 258.561829 240.518194 
L 258.812906 239.292611 
L 259.063982 240.433798 
L 259.315059 240.281155 
L 259.566135 239.816921 
L 259.817211 239.951283 
L 260.068288 240.831412 
L 260.319364 240.977491 
L 260.570441 240.845422 
L 260.821517 240.226434 
L 261.32367 239.6628 
L 261.574747 240.681941 
L 261.825823 241.20623 
L 262.0769 239.907033 
L 262.327976 241.011978 
L 262.830129 240.186885 
L 263.081206 240.290357 
L 263.332282 239.410438 
L 263.834435 241.249654 
L 264.336588 240.576489 
L 264.587665 240.851015 
L 264.838741 240.50273 
L 265.089817 239.584926 
L 265.340894 240.438842 
L 265.59197 240.090797 
L 265.843047 240.288535 
L 266.094123 240.980227 
L 266.3452 240.693296 
L 266.596276 240.709402 
L 266.847353 239.968434 
L 267.098429 241.07043 
L 267.349506 240.498725 
L 267.600582 240.562665 
L 268.102735 240.294753 
L 268.353812 239.566501 
L 268.604888 241.101074 
L 268.855965 240.667999 
L 269.107041 241.162583 
L 269.358118 240.470615 
L 269.609194 240.413433 
L 269.86027 241.058807 
L 270.111347 240.687563 
L 270.362423 239.621323 
L 270.6135 240.291734 
L 270.864576 239.879232 
L 271.115653 240.8561 
L 271.366729 240.16659 
L 271.617806 240.999632 
L 271.868882 240.737571 
L 272.119959 240.076242 
L 272.371035 241.02694 
L 272.622112 240.878501 
L 272.873188 241.470752 
L 273.124265 240.125862 
L 273.375341 240.571308 
L 273.626418 240.336922 
L 273.877494 240.870509 
L 274.128571 239.134928 
L 274.379647 240.133273 
L 274.630724 241.590471 
L 274.8818 240.310352 
L 275.132876 241.468146 
L 275.383953 240.646399 
L 275.635029 240.928992 
L 275.886106 241.416722 
L 276.137182 240.618898 
L 276.639335 241.624251 
L 277.392565 239.326926 
L 277.643641 241.531719 
L 278.145794 240.891636 
L 278.396871 241.401563 
L 278.647947 240.571535 
L 278.899024 241.254306 
L 279.1501 241.456745 
L 279.401177 241.225506 
L 279.652253 241.435914 
L 279.903329 240.853889 
L 280.154406 241.025156 
L 280.405482 240.836311 
L 280.656559 241.038174 
L 280.907635 240.88578 
L 281.158712 240.504298 
L 281.409788 240.79073 
L 281.660865 240.706176 
L 281.911941 240.353654 
L 282.414094 241.022926 
L 282.916247 240.98132 
L 283.167324 240.837004 
L 283.4184 241.028505 
L 283.669477 239.569385 
L 283.920553 240.755499 
L 284.673783 240.945571 
L 284.924859 241.314077 
L 285.175935 240.813616 
L 285.427012 241.391691 
L 285.678088 240.85289 
L 285.929165 241.243989 
L 286.180241 240.749572 
L 286.431318 241.019226 
L 286.682394 240.353041 
L 286.933471 241.269156 
L 287.184547 239.655765 
L 287.435624 241.036425 
L 287.6867 239.481851 
L 288.188853 240.822477 
L 288.43993 239.563341 
L 288.691006 241.009777 
L 289.193159 240.998775 
L 289.444236 240.46642 
L 289.695312 239.380595 
L 289.946389 240.755376 
L 290.197465 239.164707 
L 290.448541 241.053771 
L 290.699618 240.110443 
L 290.950694 240.479854 
L 291.201771 240.375829 
L 291.452847 240.552354 
L 291.703924 240.003376 
L 291.955 240.496108 
L 292.206077 240.642859 
L 292.457153 240.047922 
L 292.70823 240.308756 
L 292.959306 239.952138 
L 293.210383 240.582384 
L 293.461459 240.157824 
L 293.712536 240.470592 
L 293.963612 239.331271 
L 294.214689 240.405271 
L 294.465765 240.513072 
L 294.716842 240.442674 
L 294.967918 240.988396 
L 295.218994 240.00205 
L 295.470071 241.399622 
L 295.721147 241.172898 
L 295.972224 240.737505 
L 296.2233 241.606202 
L 296.474377 240.010522 
L 296.725453 239.740452 
L 297.227606 240.617253 
L 297.478683 240.523136 
L 297.729759 240.784684 
L 297.980836 241.631841 
L 298.231912 239.739712 
L 298.734065 241.08032 
L 298.985142 240.912367 
L 299.487295 241.383344 
L 299.738371 241.156989 
L 299.989448 240.68936 
L 300.240524 241.622144 
L 300.742677 241.271402 
L 301.495906 241.710135 
L 301.746983 241.469913 
L 301.998059 240.898712 
L 302.249136 241.324182 
L 302.500212 240.699537 
L 302.751289 241.956975 
L 303.002365 241.388258 
L 303.253442 241.652543 
L 303.504518 241.230983 
L 303.755595 241.449551 
L 304.006671 241.508529 
L 304.257748 240.939607 
L 304.508824 241.223072 
L 305.010977 241.195774 
L 305.262053 240.954193 
L 305.51313 241.473456 
L 305.764206 240.537106 
L 306.015283 241.213712 
L 306.266359 240.909489 
L 306.517436 241.049338 
L 306.768512 240.977133 
L 307.019589 240.66258 
L 307.521742 240.736604 
L 307.772818 241.129802 
L 308.023895 240.730395 
L 308.274971 241.549819 
L 308.526048 241.444687 
L 308.777124 240.610699 
L 309.028201 241.024434 
L 309.279277 241.040501 
L 309.530354 240.887605 
L 310.032507 240.361201 
L 310.283583 241.221195 
L 310.534659 241.341363 
L 310.785736 239.596339 
L 311.036812 241.329343 
L 311.287889 240.824348 
L 311.538965 241.20158 
L 311.790042 240.916622 
L 312.041118 240.988785 
L 312.292195 240.244866 
L 312.543271 241.551196 
L 312.794348 241.35196 
L 313.045424 240.688537 
L 313.296501 241.22202 
L 313.547577 241.175189 
L 313.798654 240.928186 
L 314.04973 241.225263 
L 314.80296 239.879897 
L 315.305112 240.926746 
L 315.807265 239.750262 
L 316.058342 240.050482 
L 316.309418 241.298002 
L 316.560495 240.366623 
L 316.811571 240.424593 
L 317.062648 239.27948 
L 317.313724 240.712272 
L 317.564801 240.623277 
L 318.066954 239.821426 
L 318.31803 239.918755 
L 318.569107 239.630291 
L 318.820183 240.8804 
L 319.07126 241.176089 
L 319.322336 241.263045 
L 319.824489 239.375338 
L 320.075566 240.496486 
L 320.326642 240.202808 
L 320.577718 241.251001 
L 321.079871 241.313736 
L 321.330948 240.546164 
L 321.582024 241.471137 
L 321.833101 240.432878 
L 322.084177 240.604018 
L 322.335254 240.424508 
L 322.58633 241.176692 
L 322.837407 240.43965 
L 323.088483 240.385852 
L 323.33956 241.104953 
L 323.590636 241.431608 
L 323.841713 240.92433 
L 324.092789 240.153438 
L 324.343866 241.01373 
L 324.594942 240.964387 
L 324.846019 239.63686 
L 325.097095 240.593194 
L 325.348172 240.140052 
L 325.599248 241.134243 
L 325.850324 240.972029 
L 326.101401 241.668963 
L 326.603554 241.674853 
L 326.85463 241.591656 
L 327.105707 241.176766 
L 327.356783 239.667445 
L 327.60786 241.374429 
L 327.858936 241.488937 
L 328.110013 241.208788 
L 328.361089 241.110938 
L 328.612166 241.673534 
L 328.863242 241.48276 
L 329.114319 241.129274 
L 329.616472 241.800276 
L 329.867548 241.842704 
L 330.369701 241.359393 
L 330.620777 240.866152 
L 330.871854 241.770082 
L 331.12293 241.833356 
L 331.374007 241.326548 
L 331.625083 241.217863 
L 331.87616 241.448307 
L 332.127236 241.345928 
L 332.378313 241.670643 
L 332.880466 241.703299 
L 333.131542 241.146583 
L 333.382619 241.420506 
L 333.633695 240.602383 
L 333.884772 241.435191 
L 334.135848 241.329635 
L 334.386925 240.665638 
L 334.638001 241.578168 
L 334.889078 241.421738 
L 335.140154 241.735087 
L 335.391231 241.573345 
L 335.642307 241.682135 
L 335.893383 240.656122 
L 336.14446 240.926429 
L 336.395536 241.635133 
L 336.646613 241.790133 
L 336.897689 240.852041 
L 337.148766 241.859493 
L 337.650919 241.526994 
L 337.901995 241.066308 
L 338.153072 241.230389 
L 338.404148 241.659035 
L 338.655225 241.11909 
L 338.906301 241.237024 
L 339.157378 241.746369 
L 339.408454 241.555713 
L 339.659531 241.575123 
L 339.910607 241.259531 
L 340.161684 241.655955 
L 340.41276 241.318152 
L 340.663836 241.446059 
L 341.417066 241.480593 
L 341.668142 241.585158 
L 341.919219 241.095332 
L 342.170295 241.661679 
L 342.421372 241.613184 
L 342.672448 241.402886 
L 342.923525 241.581712 
L 343.174601 241.244434 
L 343.425678 241.44202 
L 343.676754 241.364224 
L 343.927831 241.438126 
L 344.178907 241.864402 
L 344.429984 241.525997 
L 344.932137 241.617638 
L 345.183213 241.204613 
L 345.43429 241.604088 
L 345.685366 241.513633 
L 345.936442 241.764991 
L 346.187519 241.142282 
L 346.438595 241.030503 
L 346.689672 241.967344 
L 347.191825 241.494511 
L 347.442901 241.538616 
L 347.693978 241.348761 
L 347.945054 241.643268 
L 348.447207 241.762776 
L 348.698284 241.447484 
L 348.94936 241.445798 
L 349.451513 241.812807 
L 349.70259 241.828101 
L 349.953666 240.877474 
L 350.204743 241.618764 
L 350.706896 241.753428 
L 350.957972 241.426877 
L 351.209048 241.865785 
L 351.460125 241.317302 
L 351.711201 241.09636 
L 351.962278 241.878648 
L 352.213354 241.68086 
L 352.464431 241.659366 
L 352.966584 241.980772 
L 353.21766 241.361691 
L 353.468737 241.790961 
L 354.221966 241.754476 
L 354.473043 241.650161 
L 354.724119 241.758507 
L 354.975196 241.700996 
L 355.226272 241.943905 
L 355.728425 241.743383 
L 355.979501 241.899933 
L 356.481654 241.799573 
L 356.732731 241.196767 
L 356.983807 241.668936 
L 357.234884 241.897416 
L 357.48596 241.627396 
L 357.737037 241.697024 
L 358.490266 241.535008 
L 358.992419 241.824911 
L 359.494572 241.627712 
L 359.745649 241.814631 
L 360.498878 241.530723 
L 361.001031 241.859131 
L 361.75426 241.300534 
L 362.005337 241.553322 
L 362.256413 241.365029 
L 362.50749 241.61734 
L 362.758566 241.601004 
L 363.009643 241.934125 
L 363.260719 241.033393 
L 363.511796 241.944791 
L 363.762872 241.792944 
L 364.516102 241.799266 
L 364.767178 241.48415 
L 365.018255 241.478007 
L 365.269331 241.805706 
L 365.520408 241.815974 
L 366.02256 241.476779 
L 366.273637 241.828167 
L 366.524713 241.598953 
L 366.77579 242.055664 
L 367.026866 241.663021 
L 367.277943 241.839337 
L 367.529019 241.493004 
L 368.031172 242.036965 
L 368.282249 242.078697 
L 368.533325 241.401507 
L 368.784402 241.86985 
L 369.035478 241.796993 
L 369.537631 241.447004 
L 369.788708 241.787598 
L 370.290861 241.607666 
L 370.541937 241.929965 
L 370.793014 241.777383 
L 371.546243 241.706121 
L 371.797319 241.968694 
L 372.299472 241.743728 
L 374.057008 241.938006 
L 374.308084 241.566793 
L 374.810237 241.974064 
L 375.061314 241.486611 
L 375.563467 241.86741 
L 376.06562 241.784586 
L 376.316696 241.902131 
L 376.567772 241.571835 
L 376.818849 241.668747 
L 377.069925 241.966222 
L 377.321002 241.657379 
L 377.823155 241.956212 
L 378.074231 241.580612 
L 378.325308 241.542954 
L 378.576384 241.668472 
L 378.827461 241.939524 
L 379.329614 241.695312 
L 379.831767 242.021498 
L 380.082843 241.60306 
L 380.33392 241.822998 
L 380.836073 241.635368 
L 381.087149 241.913414 
L 381.338225 241.825386 
L 382.091455 241.990353 
L 382.342531 241.730852 
L 382.593608 241.83204 
L 382.844684 241.790218 
L 383.095761 241.565717 
L 383.346837 241.97163 
L 383.597914 241.528645 
L 383.84899 241.718534 
L 384.60222 241.863663 
L 384.853296 241.948796 
L 385.355449 241.637512 
L 385.606526 241.639575 
L 385.857602 241.901416 
L 386.359755 241.738441 
L 387.112984 242.070625 
L 387.364061 241.690144 
L 387.615137 241.9485 
L 387.866214 241.72323 
L 388.619443 242.000738 
L 388.87052 241.728172 
L 389.372673 241.962933 
L 390.125902 241.749649 
L 390.376979 241.655533 
L 390.628055 241.899553 
L 390.879132 241.892615 
L 391.130208 241.723802 
L 391.381284 241.810379 
L 391.883437 241.745477 
L 392.38559 241.8785 
L 392.636667 241.779191 
L 392.887743 241.974912 
L 393.13882 241.842287 
L 393.389896 241.952715 
L 394.143126 241.768988 
L 394.645279 241.968904 
L 394.896355 241.889411 
L 395.147432 242.076818 
L 395.398508 241.805073 
L 395.649585 241.882954 
L 395.900661 241.739731 
L 396.402814 241.858786 
L 397.658196 242.051402 
L 397.909273 241.877821 
L 398.913579 241.916489 
L 399.415732 241.821591 
L 400.168961 242.08019 
L 400.420038 241.903065 
L 400.671114 241.976886 
L 401.173267 241.918228 
L 401.424344 242.023963 
L 401.926496 241.895124 
L 402.177573 242.040049 
L 402.428649 241.986458 
L 402.679726 241.78459 
L 402.930802 242.027345 
L 403.684032 241.901296 
L 403.935108 241.673176 
L 404.186185 241.904296 
L 404.437261 241.767197 
L 405.441567 241.984421 
L 406.194797 241.832949 
L 406.445873 242.113066 
L 406.948026 242.008631 
L 407.199102 241.689532 
L 407.450179 241.899374 
L 408.454485 242.026924 
L 408.705561 241.895221 
L 409.458791 242.052851 
L 409.709867 241.891376 
L 409.960944 241.905954 
L 410.21202 241.7513 
L 410.463097 242.026571 
L 410.714173 241.841763 
L 411.216326 242.033211 
L 411.467403 241.887678 
L 411.718479 241.90835 
L 411.969555 242.063409 
L 412.220632 241.915544 
L 412.471708 242.068288 
L 412.722785 241.873081 
L 413.224938 241.827366 
L 413.476014 242.044342 
L 416.488932 241.906441 
L 416.740008 241.995213 
L 417.242161 241.872592 
L 417.493238 242.007627 
L 417.744314 241.938824 
L 418.497544 241.984947 
L 419.50185 241.962874 
L 419.752926 241.703828 
L 420.757232 242.035729 
L 421.259385 241.948979 
L 421.510462 241.871582 
L 421.761538 241.98422 
L 422.012614 241.939775 
L 422.514767 242.057638 
L 422.765844 241.912841 
L 423.01692 242.105061 
L 423.519073 242.011086 
L 424.021226 241.973358 
L 424.272303 241.794389 
L 424.523379 242.086565 
L 426.783067 241.791871 
L 427.28522 242.000214 
L 428.791679 242.014604 
L 429.293832 242.05187 
L 429.544909 241.844779 
L 430.549215 242.061402 
L 430.800291 242.050904 
L 431.051368 241.925028 
L 431.302444 242.043328 
L 431.553521 241.823772 
L 432.808903 241.948521 
L 433.059979 241.897038 
L 433.311056 242.057352 
L 433.813209 242.038531 
L 434.064285 241.864375 
L 434.566438 242.085018 
L 436.826127 241.96634 
L 437.077203 242.100067 
L 437.328279 242.08056 
L 437.579356 241.926828 
L 438.332585 242.009542 
L 440.090121 242.076741 
L 440.341197 241.868974 
L 440.592274 242.076542 
L 442.349809 241.948739 
L 442.600885 242.064645 
L 443.354115 241.970094 
L 443.856268 242.047576 
L 444.107344 241.776181 
L 444.609497 242.0304 
L 444.860574 241.90597 
L 445.11165 242.069508 
L 445.86488 242.032355 
L 446.367033 241.984595 
L 447.120262 242.071453 
L 447.622415 242.080616 
L 448.124568 242.065796 
L 448.375644 241.928304 
L 448.626721 242.029473 
L 449.882103 241.959588 
L 450.13318 242.116364 
L 450.886409 241.931887 
L 451.388562 242.054542 
L 452.895021 242.029444 
L 453.146097 242.085909 
L 453.397174 241.996955 
L 453.899327 242.050862 
L 454.150403 241.834214 
L 454.40148 242.029708 
L 454.903633 242.003661 
L 455.656862 242.045114 
L 456.912245 242.018444 
L 457.665474 242.093403 
L 459.423009 242.021165 
L 459.674086 242.0739 
L 459.925162 241.906924 
L 460.427315 242.108831 
L 460.929468 241.912503 
L 461.431621 242.05527 
L 462.184851 241.990082 
L 462.687003 242.070368 
L 463.942386 242.006909 
L 464.695615 241.998045 
L 465.448845 241.992025 
L 466.704227 242.010107 
L 466.955304 241.910843 
L 467.20638 242.081356 
L 467.959609 241.92114 
L 468.210686 242.047936 
L 468.461762 44.443636 
L 468.963915 86.921768 
L 469.214992 107.535043 
L 469.466068 117.680991 
L 469.968221 142.913254 
L 470.470374 160.257366 
L 470.721451 161.413419 
L 470.972527 165.029706 
L 471.223604 171.619312 
L 471.47468 173.148345 
L 471.976833 174.237726 
L 472.22791 180.614083 
L 472.478986 183.484531 
L 472.730062 183.51053 
L 472.981139 188.121187 
L 473.232215 188.292893 
L 473.483292 193.904632 
L 473.734368 196.653351 
L 473.985445 196.675047 
L 474.236521 203.166515 
L 474.487598 205.738214 
L 474.738674 205.005568 
L 474.989751 206.766085 
L 475.240827 211.607145 
L 475.491904 211.447574 
L 475.74298 213.642951 
L 475.994057 214.139457 
L 476.49621 218.703431 
L 476.747286 217.944561 
L 477.249439 223.529783 
L 477.751592 222.455088 
L 478.002668 226.225258 
L 478.253745 226.0973 
L 478.504821 229.405735 
L 478.755898 228.694395 
L 479.258051 231.018891 
L 479.509127 229.462431 
L 479.760204 231.34741 
L 480.01128 230.364514 
L 480.262357 231.249645 
L 480.513433 231.126535 
L 481.266663 228.141465 
L 481.517739 224.141725 
L 481.768816 224.732335 
L 482.019892 221.514426 
L 482.270969 220.899246 
L 482.773121 215.993336 
L 483.024198 215.707824 
L 483.275274 214.320497 
L 483.526351 211.387516 
L 483.777427 210.532255 
L 484.028504 211.352662 
L 484.27958 209.925308 
L 484.530657 207.754531 
L 484.781733 210.378966 
L 485.03281 211.671201 
L 485.283886 212.048749 
L 485.534963 215.251088 
L 485.786039 215.858108 
L 486.539269 221.060016 
L 486.790345 219.931963 
L 487.041422 222.229171 
L 487.292498 223.028238 
L 487.543575 222.019413 
L 488.045727 216.049561 
L 488.296804 213.959121 
L 488.798957 208.99374 
L 489.30111 196.56137 
L 489.803263 191.451999 
L 490.054339 189.824914 
L 490.305416 189.73439 
L 491.058645 182.231532 
L 491.309722 186.152203 
L 491.560798 182.113033 
L 491.811875 185.892036 
L 492.062951 187.799332 
L 492.314028 186.215784 
L 492.565104 187.520571 
L 492.81618 192.526606 
L 493.067257 193.158092 
L 493.56941 197.047908 
L 494.071563 204.634467 
L 494.322639 204.879643 
L 494.573716 210.176042 
L 494.824792 211.295927 
L 495.326945 217.031419 
L 495.578022 220.389626 
L 496.331251 224.95162 
L 496.582328 227.718493 
L 496.833404 229.246097 
L 497.084481 229.425463 
L 497.335557 229.357163 
L 497.586634 231.6759 
L 497.83771 231.20063 
L 498.088786 231.397373 
L 498.339863 230.875239 
L 498.590939 231.513059 
L 498.842016 230.710353 
L 499.093092 230.947214 
L 499.344169 230.501833 
L 499.595245 229.418764 
L 499.846322 230.649098 
L 500.097398 228.762014 
L 500.348475 227.789192 
L 500.599551 228.195574 
L 500.850628 226.850734 
L 501.101704 227.431362 
L 501.352781 224.700758 
L 501.603857 224.248981 
L 501.854934 222.804569 
L 502.10601 220.320013 
L 502.357087 220.587715 
L 503.110316 214.034235 
L 503.361392 210.410788 
L 504.114622 206.145127 
L 504.616775 196.493972 
L 505.118928 192.754074 
L 505.370004 188.997624 
L 505.621081 188.597222 
L 505.872157 187.540059 
L 506.123234 184.422368 
L 506.37431 183.098534 
L 506.625387 184.313155 
L 506.876463 179.875669 
L 507.12754 182.709926 
L 507.378616 181.568205 
L 507.629693 181.149564 
L 507.880769 180.462993 
L 508.131845 178.919752 
L 508.633998 183.618776 
L 508.885075 182.476914 
L 509.136151 184.274467 
L 509.889381 192.01414 
L 510.140457 193.474994 
L 510.391534 193.974394 
L 510.64261 196.475084 
L 510.893687 195.391773 
L 511.144763 201.007966 
L 511.39584 199.470241 
L 511.646916 201.610331 
L 511.897993 202.147071 
L 512.149069 203.112215 
L 512.400146 202.02434 
L 512.651222 206.09318 
L 512.902299 206.5657 
L 513.153375 205.535773 
L 513.404451 206.203185 
L 513.655528 208.414555 
L 513.906604 207.411395 
L 514.659834 206.074357 
L 515.161987 208.393779 
L 515.413063 211.173355 
L 515.66414 211.617724 
L 515.915216 210.40156 
L 516.166293 210.943506 
L 516.417369 215.740694 
L 516.668446 216.511791 
L 516.919522 217.905497 
L 517.170599 218.578476 
L 517.672752 221.978795 
L 517.923828 222.221294 
L 518.174904 222.251706 
L 518.425981 223.060327 
L 518.677057 221.379143 
L 518.928134 223.724397 
L 519.430287 222.653887 
L 519.681363 223.957008 
L 519.93244 221.391025 
L 520.434593 223.654144 
L 520.685669 220.502417 
L 521.438899 224.425306 
L 521.689975 223.833694 
L 521.941052 225.74262 
L 522.192128 224.879616 
L 522.443205 228.074619 
L 522.694281 227.260512 
L 522.945358 230.574674 
L 523.196434 230.343986 
L 523.44751 232.193927 
L 523.698587 232.321513 
L 523.949663 233.816944 
L 524.20074 233.714812 
L 524.702893 232.869944 
L 524.953969 233.311075 
L 525.205046 232.505462 
L 525.456122 230.701437 
L 525.707199 229.740587 
L 525.958275 226.56359 
L 526.209352 225.654951 
L 526.460428 225.311792 
L 526.711505 222.566985 
L 526.962581 221.134887 
L 527.213658 218.773811 
L 527.464734 214.750693 
L 527.715811 214.565301 
L 527.966887 210.104716 
L 528.217963 211.072249 
L 528.46904 207.239687 
L 528.720116 209.748147 
L 528.971193 206.86711 
L 529.222269 206.686201 
L 529.473346 203.40603 
L 529.724422 206.252672 
L 529.975499 203.869317 
L 530.226575 204.738576 
L 530.477652 206.05575 
L 530.728728 205.766243 
L 530.979805 206.270672 
L 531.230881 211.603365 
L 531.481958 210.487608 
L 531.733034 210.667605 
L 531.984111 210.255788 
L 532.235187 211.388072 
L 532.486264 214.3141 
L 532.73734 210.590638 
L 532.988417 212.148862 
L 533.239493 209.057817 
L 533.741646 207.227151 
L 534.997028 196.214257 
L 535.248105 193.022346 
L 535.499181 193.429248 
L 536.001334 187.766054 
L 536.252411 184.985435 
L 536.503487 185.115353 
L 536.754564 185.819831 
L 537.00564 181.729924 
L 537.256717 187.05869 
L 537.507793 183.396416 
L 537.75887 183.621659 
L 538.009946 183.257237 
L 538.261022 183.559485 
L 538.512099 185.439055 
L 539.265328 187.878787 
L 539.767481 192.934035 
L 540.018558 196.480773 
L 540.269634 198.210071 
L 540.520711 197.069412 
L 540.771787 197.799821 
L 541.022864 203.008142 
L 541.27394 203.056885 
L 541.525017 203.903608 
L 541.776093 206.75918 
L 542.02717 206.886723 
L 542.278246 209.638214 
L 542.529323 210.355535 
L 543.031476 212.69075 
L 543.282552 213.195981 
L 543.533628 214.383925 
L 543.784705 214.505911 
L 544.286858 220.412789 
L 544.537934 218.476003 
L 544.789011 219.043872 
L 545.040087 222.121821 
L 545.291164 221.972578 
L 545.54224 223.797605 
L 546.044393 225.486982 
L 546.29547 226.545728 
L 546.546546 226.800507 
L 546.797623 228.817512 
L 547.048699 228.114585 
L 547.299776 229.479689 
L 547.550852 227.641619 
L 547.801929 229.867035 
L 548.053005 228.339598 
L 548.304082 230.402951 
L 548.555158 230.194245 
L 549.057311 229.007629 
L 549.559464 229.662441 
L 549.81054 227.653139 
L 550.061617 227.750289 
L 550.312693 227.259296 
L 550.56377 228.367868 
L 550.814846 226.561174 
L 551.065923 226.06279 
L 551.316999 225.903678 
L 551.568076 226.777498 
L 552.070229 224.063837 
L 552.321305 225.061163 
L 552.823458 225.261916 
L 553.074535 225.242484 
L 553.827764 223.387978 
L 554.07884 224.663076 
L 554.329917 222.583196 
L 554.580993 223.969253 
L 554.83207 222.923791 
L 555.083146 220.841162 
L 555.334223 221.087661 
L 555.836376 218.019073 
L 556.589605 212.074725 
L 557.342835 207.502201 
L 557.593911 207.372648 
L 557.844988 202.839805 
L 558.347141 200.562028 
L 558.849293 199.524698 
L 559.10037 201.280457 
L 559.351446 197.038125 
L 559.602523 196.770457 
L 560.104676 201.093128 
L 560.355752 201.461863 
L 560.606829 205.686364 
L 561.108982 207.25368 
L 561.360058 210.15014 
L 561.862211 213.483104 
L 562.113288 215.702937 
L 562.615441 218.289603 
L 562.866517 220.471119 
L 563.619746 223.90084 
L 563.870823 223.742481 
L 564.121899 224.827892 
L 564.372976 226.624872 
L 564.624052 225.087811 
L 564.875129 227.371948 
L 565.126205 226.807482 
L 565.377282 227.672093 
L 565.628358 227.98798 
L 565.879435 229.224467 
L 566.130511 228.740063 
L 566.381588 230.385207 
L 566.632664 230.177776 
L 566.883741 230.742578 
L 567.134817 230.00626 
L 567.385894 231.66927 
L 567.63697 231.68637 
L 567.888047 231.157237 
L 568.139123 231.536399 
L 568.641276 233.04605 
L 568.892352 233.779694 
L 569.645582 233.51394 
L 569.896658 233.894993 
L 570.398811 232.250008 
L 570.649888 233.145384 
L 570.900964 231.283823 
L 571.152041 232.358702 
L 571.403117 232.081632 
L 571.654194 229.54047 
L 571.90527 232.128469 
L 572.156347 232.570813 
L 572.407423 232.338089 
L 572.909576 230.230827 
L 573.160653 230.353112 
L 573.411729 229.405674 
L 573.662806 231.083715 
L 573.913882 231.470068 
L 574.164958 229.71267 
L 574.667111 229.522167 
L 574.918188 231.76635 
L 575.420341 230.506351 
L 575.671417 232.476846 
L 575.922494 232.543224 
L 576.675723 233.54671 
L 576.9268 232.57652 
L 577.428953 232.320684 
L 577.680029 231.567887 
L 577.931106 231.296478 
L 578.182182 229.874284 
L 578.433259 230.478409 
L 578.684335 229.160374 
L 578.935411 228.602809 
L 579.186488 227.113813 
L 579.437564 227.728285 
L 579.939717 222.62347 
L 580.190794 223.765057 
L 580.44187 221.170006 
L 580.944023 220.518972 
L 581.1951 218.879558 
L 581.697253 220.250552 
L 581.948329 217.522541 
L 582.199406 217.648707 
L 582.450482 216.806241 
L 582.701559 217.814 
L 582.952635 217.312831 
L 583.454788 218.295423 
L 583.705865 219.070454 
L 583.956941 219.366562 
L 584.208017 220.787852 
L 584.459094 220.370825 
L 584.71017 221.008294 
L 584.961247 222.798944 
L 585.212323 223.021817 
L 585.4634 223.521499 
L 585.714476 225.969785 
L 585.965553 226.537186 
L 586.216629 227.834211 
L 586.467706 227.197948 
L 586.718782 227.51413 
L 586.969859 230.494673 
L 587.220935 229.659675 
L 587.723088 232.428015 
L 587.974165 231.810906 
L 588.476318 234.053433 
L 588.727394 233.919971 
L 588.97847 234.37806 
L 589.229547 235.424014 
L 589.480623 235.12442 
L 589.7317 235.733232 
L 589.982776 235.662272 
L 590.233853 236.904086 
L 590.484929 236.105862 
L 590.736006 236.716804 
L 590.987082 236.841876 
L 591.238159 236.462605 
L 591.489235 237.261678 
L 591.740312 236.736977 
L 591.991388 236.76982 
L 592.493541 235.244279 
L 592.744618 235.058235 
L 592.995694 234.203697 
L 593.246771 232.598247 
L 593.497847 233.69515 
L 594 229.490212 
L 594.251076 229.432031 
L 594.502153 227.257271 
L 594.753229 226.530602 
L 595.004306 222.465669 
L 595.255382 223.217632 
L 595.506459 219.654088 
L 595.757535 221.255886 
L 596.008612 219.431655 
L 596.259688 220.046395 
L 596.510765 217.459507 
L 596.761841 217.30755 
L 597.012918 217.930939 
L 597.263994 217.525126 
L 597.515071 214.335288 
L 597.766147 213.512675 
L 598.017224 213.727927 
L 598.2683 214.823018 
L 598.519377 215.354104 
L 598.770453 215.046247 
L 599.02153 216.980775 
L 599.272606 216.198949 
L 599.523682 214.974467 
L 599.774759 217.210018 
L 600.025835 214.994056 
L 600.276912 214.753128 
L 600.527988 215.081499 
L 600.779065 216.643344 
L 601.281218 213.90953 
L 601.532294 213.377439 
L 602.034447 215.354553 
L 602.285524 217.07236 
L 602.5366 212.842849 
L 602.787677 214.851529 
L 603.038753 210.157591 
L 603.28983 212.755364 
L 603.540906 209.135657 
L 603.791983 211.135665 
L 604.043059 208.680034 
L 604.294135 212.111027 
L 604.545212 210.446955 
L 605.298441 209.35792 
L 605.549518 211.496172 
L 605.800594 211.702707 
L 606.051671 214.92212 
L 606.302747 214.050088 
L 606.553824 213.789458 
L 606.8049 215.23186 
L 607.055977 218.563374 
L 607.307053 218.365787 
L 607.809206 221.551596 
L 608.060283 221.370491 
L 608.813512 227.168215 
L 609.064589 226.442452 
L 609.315665 228.321899 
L 609.566741 228.86892 
L 609.817818 231.282089 
L 610.068894 230.88962 
L 610.571047 232.096229 
L 610.822124 232.077343 
L 611.0732 232.453214 
L 611.575353 234.321129 
L 612.077506 233.748619 
L 612.328583 234.938055 
L 612.579659 234.667863 
L 612.830736 235.374355 
L 613.081812 233.941829 
L 613.583965 234.948633 
L 613.835042 234.794913 
L 614.086118 235.506031 
L 614.337194 234.605023 
L 614.588271 235.203906 
L 614.839347 234.912513 
L 615.090424 235.089959 
L 615.592577 233.520566 
L 615.843653 233.972218 
L 616.09473 233.555115 
L 616.345806 231.815044 
L 616.596883 231.902101 
L 616.847959 231.597738 
L 617.099036 231.071305 
L 617.350112 231.763081 
L 617.601189 229.718118 
L 617.852265 229.214385 
L 618.103342 229.360161 
L 618.354418 229.046625 
L 618.605495 227.383796 
L 618.856571 227.774474 
L 619.107648 226.761863 
L 619.358724 227.001279 
L 619.6098 226.45221 
L 619.860877 226.958127 
L 620.111953 226.675353 
L 620.36303 228.216788 
L 620.614106 226.341483 
L 620.865183 227.170022 
L 621.116259 228.937367 
L 621.367336 227.289258 
L 621.869489 229.55984 
L 622.120565 229.424923 
L 622.622718 230.745034 
L 622.873795 230.170293 
L 623.124871 231.510281 
L 623.627024 230.023663 
L 623.878101 230.393775 
L 624.129177 230.015109 
L 624.380254 229.360953 
L 624.63133 227.936663 
L 624.882406 227.434601 
L 625.133483 225.792747 
L 625.384559 225.457577 
L 625.635636 224.639529 
L 625.886712 224.480226 
L 626.137789 224.676075 
L 626.388865 222.409453 
L 626.639942 224.006735 
L 626.891018 224.287172 
L 627.142095 222.39094 
L 627.393171 224.094919 
L 627.644248 223.177679 
L 628.146401 222.800308 
L 628.397477 224.180634 
L 628.648554 223.563883 
L 628.89963 223.937466 
L 629.150707 225.511806 
L 629.401783 226.195129 
L 629.652859 225.66405 
L 629.903936 227.588293 
L 630.155012 228.007217 
L 630.406089 229.906878 
L 630.657165 228.175417 
L 630.908242 228.963427 
L 631.159318 230.737116 
L 631.410395 230.464128 
L 631.661471 230.470705 
L 631.912548 231.130955 
L 632.163624 232.123419 
L 632.414701 232.434665 
L 632.665777 231.618292 
L 632.916854 232.595154 
L 633.16793 231.826749 
L 633.419007 232.902655 
L 633.670083 232.539665 
L 633.92116 233.116703 
L 634.172236 232.925217 
L 634.423313 232.312341 
L 634.674389 230.853548 
L 634.925465 230.720335 
L 635.176542 231.610664 
L 635.427618 230.431667 
L 635.678695 230.571145 
L 635.929771 229.901401 
L 636.180848 230.533217 
L 636.431924 230.694899 
L 636.683001 228.472842 
L 636.934077 228.831309 
L 637.43623 228.577382 
L 637.687307 227.281461 
L 637.938383 228.596713 
L 638.18946 229.029027 
L 638.440536 228.195065 
L 638.691613 228.850157 
L 638.942689 227.391191 
L 639.444842 228.368672 
L 640.198071 226.207522 
L 640.449148 227.340139 
L 640.700224 227.268395 
L 640.951301 227.327517 
L 641.202377 227.996371 
L 641.453454 225.928683 
L 641.70453 226.81189 
L 641.955607 226.380097 
L 642.206683 226.356817 
L 642.708836 227.542652 
L 642.959913 227.299407 
L 643.210989 227.930433 
L 643.462066 225.899703 
L 643.713142 228.158226 
L 643.964219 228.359516 
L 644.466372 228.093124 
L 644.968524 229.097926 
L 645.219601 230.105646 
L 645.470677 230.236682 
L 645.97283 231.762349 
L 646.223907 231.738633 
L 646.474983 230.990812 
L 646.72606 231.918646 
L 646.977136 231.24838 
L 647.228213 230.96975 
L 647.981442 232.005727 
L 648.232519 231.368709 
L 648.483595 231.244958 
L 648.734672 229.669556 
L 648.985748 230.160827 
L 649.236825 229.686139 
L 649.487901 228.283845 
L 649.738978 228.905586 
L 649.990054 228.78873 
L 650.24113 228.486115 
L 650.743283 226.215262 
L 650.99436 227.040322 
L 651.245436 227.435707 
L 651.496513 227.324784 
L 651.747589 226.119667 
L 651.998666 226.860197 
L 652.249742 226.25543 
L 652.500819 226.521892 
L 653.002972 227.5923 
L 653.254048 227.796504 
L 653.505125 229.316008 
L 653.756201 228.323457 
L 654.007278 229.832896 
L 654.509431 229.420522 
L 654.760507 230.764088 
L 655.011583 230.996391 
L 655.26266 231.012655 
L 656.015889 232.741093 
L 656.266966 231.902442 
L 656.518042 232.685875 
L 656.769119 232.448678 
L 657.020195 232.378994 
L 657.271272 233.840032 
L 657.522348 233.03692 
L 657.773425 233.324422 
L 658.024501 234.099276 
L 658.275578 234.103559 
L 658.526654 233.722718 
L 658.777731 234.186342 
L 659.028807 233.257162 
L 659.279884 233.408687 
L 659.53096 234.070609 
L 660.033113 234.318285 
L 660.284189 234.047875 
L 660.535266 233.013131 
L 660.786342 233.784824 
L 661.288495 233.029586 
L 661.539572 233.695224 
L 662.041725 232.245319 
L 662.292801 232.678448 
L 662.794954 231.550554 
L 663.046031 231.668716 
L 663.297107 230.573398 
L 663.79926 230.794589 
L 664.050337 230.37068 
L 664.301413 229.637238 
L 664.55249 230.059421 
L 664.803566 230.07546 
L 665.054642 229.458186 
L 665.305719 230.013407 
L 665.807872 228.509523 
L 666.310025 231.082085 
L 666.561101 231.206868 
L 666.812178 231.083882 
L 667.063254 231.168132 
L 667.565407 232.449839 
L 668.06756 233.25557 
L 668.318637 232.998214 
L 668.569713 233.976805 
L 668.82079 234.250802 
L 669.322943 234.24522 
L 669.574019 235.553329 
L 669.825096 234.819563 
L 670.076172 235.387698 
L 670.327248 234.748042 
L 670.578325 235.23725 
L 670.829401 234.773757 
L 671.080478 235.379158 
L 671.331554 235.572636 
L 671.582631 236.239766 
L 671.833707 235.054713 
L 672.084784 235.774309 
L 672.33586 234.938207 
L 672.586937 235.202069 
L 673.08909 234.570603 
L 673.340166 235.494718 
L 673.591243 234.878724 
L 673.842319 234.588191 
L 674.093396 235.427196 
L 674.344472 235.807206 
L 674.595549 235.260807 
L 674.846625 235.30353 
L 675.097701 235.159232 
L 675.599854 236.477497 
L 675.850931 236.119091 
L 676.102007 236.151918 
L 676.353084 235.8663 
L 676.855237 237.005248 
L 677.106313 237.124648 
L 677.35739 236.851013 
L 677.608466 237.583053 
L 677.859543 237.325627 
L 678.110619 237.519985 
L 678.361696 237.534396 
L 678.612772 237.286394 
L 678.863849 237.555483 
L 679.366002 237.174089 
L 679.617078 237.294403 
L 680.119231 236.91432 
L 680.370307 237.347403 
L 680.621384 236.452512 
L 680.87246 236.648225 
L 681.123537 237.0883 
L 681.374613 236.760299 
L 681.62569 236.712988 
L 681.876766 235.822836 
L 682.127843 236.21899 
L 682.378919 235.946763 
L 682.629996 236.203825 
L 682.881072 235.788199 
L 683.132149 236.408114 
L 683.383225 235.124383 
L 683.634302 235.972181 
L 683.885378 235.806625 
L 684.136455 236.20341 
L 684.387531 234.976076 
L 684.638608 235.098806 
L 684.889684 235.540072 
L 685.391837 234.413152 
L 685.642913 234.750247 
L 685.89399 234.816483 
L 686.145066 234.765585 
L 686.396143 234.560013 
L 686.647219 233.486948 
L 686.898296 233.278209 
L 687.149372 233.813886 
L 687.651525 233.650503 
L 687.902602 233.457611 
L 688.153678 234.236648 
L 688.404755 234.005737 
L 688.906908 234.386848 
L 689.157984 234.943098 
L 689.409061 234.674684 
L 689.660137 234.77086 
L 689.911214 235.277479 
L 690.16229 234.662742 
L 690.413366 235.551904 
L 690.664443 235.598845 
L 691.417672 237.496943 
L 691.668749 236.630484 
L 692.170902 237.842439 
L 693.175208 238.733012 
L 693.426284 238.592601 
L 694.179514 239.25102 
L 694.43059 238.413739 
L 694.681667 238.808667 
L 694.932743 238.399953 
L 695.18382 239.077995 
L 695.685972 238.287336 
L 695.937049 238.270661 
L 696.439202 238.73959 
L 696.690278 238.563902 
L 696.941355 238.205509 
L 697.192431 238.176811 
L 697.443508 238.263977 
L 697.694584 239.033201 
L 697.945661 238.514077 
L 698.196737 239.14818 
L 698.447814 239.10586 
L 698.69889 239.544746 
L 698.949967 239.318123 
L 699.45212 239.673872 
L 699.703196 239.864047 
L 699.954273 239.769346 
L 700.205349 239.54215 
L 700.456425 239.683288 
L 700.707502 239.583917 
L 700.958578 239.967993 
L 701.209655 239.547402 
L 701.460731 239.58293 
L 701.711808 239.832814 
L 701.962884 239.921665 
L 702.213961 239.536702 
L 702.465037 239.676485 
L 702.716114 239.193881 
L 702.96719 239.564325 
L 703.469343 238.76235 
L 703.72042 238.721107 
L 703.971496 239.140707 
L 704.724726 238.775982 
L 705.477955 238.076971 
L 705.729031 237.883788 
L 705.980108 238.592173 
L 706.482261 238.223062 
L 706.733337 238.787422 
L 706.984414 237.94865 
L 707.23549 238.775108 
L 707.486567 238.720975 
L 707.737643 237.79283 
L 707.98872 237.992197 
L 708.490873 237.518327 
L 708.741949 237.993489 
L 708.993026 236.837517 
L 709.244102 237.301763 
L 709.495179 237.494478 
L 709.746255 237.250291 
L 709.997332 236.72837 
L 710.248408 236.520086 
L 710.499485 237.143747 
L 711.252714 236.02691 
L 711.50379 236.559531 
L 711.754867 236.372705 
L 712.005943 236.022558 
L 712.25702 236.759667 
L 712.508096 236.876057 
L 712.759173 236.664222 
L 713.010249 237.551482 
L 713.261326 237.013819 
L 713.512402 237.52511 
L 713.763479 237.095109 
L 714.014555 238.043507 
L 714.265632 238.223448 
L 714.767785 238.758651 
L 715.018861 238.8665 
L 715.269938 239.181787 
L 715.521014 239.137208 
L 716.52532 240.322255 
L 716.776396 240.016739 
L 717.529626 240.225108 
L 718.282855 239.117975 
L 718.533932 238.97586 
L 718.785008 239.486508 
L 719.036085 238.622924 
L 719.287161 238.602529 
L 719.538238 177.975191 
L 719.789314 181.791031 
L 720.040391 181.414358 
L 720.291467 182.498668 
L 720.79362 188.995032 
L 721.546849 194.783654 
L 721.797926 194.316285 
L 722.049002 195.039992 
L 722.300079 196.774129 
L 722.551155 197.026592 
L 722.802232 199.748355 
L 723.053308 200.403029 
L 723.304385 199.826044 
L 723.555461 202.233869 
L 723.806538 201.669787 
L 724.057614 201.786269 
L 724.308691 202.903347 
L 724.559767 201.516292 
L 724.810844 202.869062 
L 725.06192 202.443971 
L 725.312997 201.578567 
L 725.564073 202.039453 
L 725.815149 201.434127 
L 726.066226 201.462094 
L 726.317302 200.44868 
L 726.819455 200.050261 
L 727.070532 197.958194 
L 727.321608 198.100351 
L 727.572685 197.169422 
L 728.074838 194.192968 
L 728.325914 193.390621 
L 728.576991 193.924624 
L 728.828067 194.18846 
L 729.079144 193.64242 
L 729.33022 192.269219 
L 729.581297 191.597393 
L 729.832373 192.178216 
L 730.08345 194.140513 
L 730.334526 193.743058 
L 730.585603 193.655883 
L 730.836679 191.167043 
L 731.087755 193.221416 
L 731.338832 193.339373 
L 731.589908 194.767473 
L 731.840985 193.904131 
L 732.092061 192.216215 
L 732.343138 193.72483 
L 732.594214 192.460884 
L 732.845291 194.396902 
L 733.096367 193.345131 
L 733.347444 193.526561 
L 733.849597 192.387579 
L 734.100673 192.804382 
L 734.35175 192.375882 
L 734.602826 191.477313 
L 734.853903 191.367636 
L 735.104979 187.78085 
L 735.356056 191.378853 
L 735.607132 191.188857 
L 735.858209 190.19652 
L 736.109285 190.742082 
L 736.360361 189.805777 
L 736.611438 191.111079 
L 736.862514 191.700132 
L 737.113591 193.109737 
L 737.364667 192.434522 
L 737.615744 191.397029 
L 738.117897 195.682673 
L 738.368973 195.359877 
L 738.62005 195.556429 
L 738.871126 197.244115 
L 739.122203 195.934811 
L 739.624356 201.122602 
L 739.875432 202.278748 
L 740.126509 201.613919 
L 741.130814 205.78565 
L 741.381891 205.721128 
L 741.632967 206.203591 
L 741.884044 207.979568 
L 742.386197 209.566336 
L 742.637273 208.462687 
L 742.88835 208.685563 
L 743.139426 208.505298 
L 743.641579 210.43352 
L 743.892656 211.308637 
L 744.143732 211.775467 
L 744.394809 211.869789 
L 744.645885 212.534663 
L 744.896962 212.667446 
L 745.148038 212.945997 
L 745.399115 216.341858 
L 745.650191 216.051241 
L 745.901268 216.691721 
L 746.654497 222.350948 
L 746.905573 222.148249 
L 747.658803 226.967145 
L 747.909879 229.20336 
L 748.160956 229.512456 
L 748.663109 231.247145 
L 748.914185 231.22547 
L 749.416338 233.086623 
L 749.667415 232.090585 
L 749.918491 232.400248 
L 750.922797 229.269529 
L 751.173873 227.286904 
L 751.42495 226.597366 
L 751.676026 225.130787 
L 751.927103 222.31605 
L 752.178179 222.020651 
L 753.433562 211.309965 
L 753.684638 210.728456 
L 753.935715 210.973526 
L 754.186791 208.026658 
L 754.437868 208.274035 
L 754.688944 206.886243 
L 754.940021 208.199575 
L 755.191097 208.03722 
L 755.442174 208.591933 
L 755.69325 207.602288 
L 756.195403 209.444995 
L 756.697556 209.811213 
L 757.450785 212.070564 
L 757.701862 213.568241 
L 757.952938 212.603197 
L 758.204015 214.015 
L 758.455091 212.755156 
L 758.957244 215.187612 
L 759.208321 216.176822 
L 759.459397 215.747037 
L 759.710474 215.771783 
L 759.96155 216.813894 
L 760.212627 216.247447 
L 760.463703 215.96758 
L 760.965856 212.721865 
L 761.216933 211.938372 
L 761.468009 211.815297 
L 761.970162 210.11233 
L 762.472315 205.724202 
L 762.723391 205.589165 
L 762.974468 204.469354 
L 763.476621 200.995094 
L 763.727697 200.116938 
L 764.22985 196.570248 
L 764.480927 198.663231 
L 764.732003 197.484481 
L 764.98308 195.65742 
L 765.234156 197.614294 
L 765.485233 195.115802 
L 765.736309 195.310645 
L 765.987386 195.985523 
L 766.238462 198.101701 
L 766.489538 196.544488 
L 766.740615 197.442539 
L 766.991691 197.642803 
L 767.242768 198.979197 
L 767.493844 198.106616 
L 767.744921 199.107168 
L 767.995997 199.331063 
L 768.49815 202.523191 
L 768.749227 201.926662 
L 769.25138 203.980563 
L 769.502456 203.254615 
L 769.753533 202.001231 
L 770.004609 204.076578 
L 770.255686 202.577737 
L 770.506762 204.859171 
L 770.757839 205.896645 
L 771.008915 205.374209 
L 771.259992 206.943537 
L 771.511068 206.896724 
L 772.013221 208.365526 
L 772.264297 209.229257 
L 772.515374 210.914935 
L 772.76645 210.012929 
L 773.017527 211.814084 
L 773.268603 212.3487 
L 773.770756 214.839905 
L 774.021833 213.49693 
L 774.272909 215.076002 
L 774.523986 215.880821 
L 774.775062 216.213731 
L 775.277215 217.60089 
L 775.528292 217.293427 
L 775.779368 218.898425 
L 776.030445 218.898909 
L 776.281521 218.689305 
L 776.532597 219.351403 
L 776.783674 218.305038 
L 777.03475 218.98199 
L 777.285827 219.003983 
L 777.78798 218.408356 
L 778.039056 219.434606 
L 778.290133 218.916865 
L 778.541209 219.091751 
L 778.792286 219.041388 
L 779.294439 217.640374 
L 779.545515 218.140554 
L 779.796592 217.681157 
L 780.047668 216.875582 
L 780.298745 217.244576 
L 780.549821 217.24787 
L 780.800898 217.63923 
L 781.303051 215.945562 
L 781.554127 217.411282 
L 781.805203 216.122293 
L 782.05628 216.252511 
L 782.307356 217.265305 
L 782.558433 217.161426 
L 782.809509 217.192504 
L 783.060586 217.101514 
L 783.311662 217.463449 
L 783.562739 216.807392 
L 783.813815 217.40943 
L 784.315968 219.030237 
L 784.818121 220.157931 
L 785.069198 219.556692 
L 785.822427 222.151211 
L 786.073504 221.902374 
L 786.575656 224.233828 
L 786.826733 224.947091 
L 787.077809 224.803588 
L 787.328886 226.175032 
L 787.579962 226.824095 
L 787.831039 226.527459 
L 788.082115 227.816063 
L 788.333192 227.993903 
L 788.584268 227.942305 
L 789.086421 228.475746 
L 789.337498 228.465279 
L 789.588574 228.328146 
L 789.839651 228.434001 
L 790.090727 228.387309 
L 790.341804 226.782968 
L 790.59288 226.888856 
L 790.843957 226.031036 
L 791.095033 225.908605 
L 791.34611 225.568754 
L 791.597186 223.464197 
L 791.848262 222.534488 
L 792.099339 223.25255 
L 792.350415 220.985513 
L 792.852568 218.918417 
L 793.103645 218.716974 
L 793.354721 218.238416 
L 793.605798 215.835248 
L 793.856874 214.728526 
L 794.107951 215.105406 
L 794.359027 213.749257 
L 794.610104 214.772814 
L 794.86118 213.334961 
L 795.112257 213.127045 
L 795.363333 213.48886 
L 795.61441 213.321707 
L 795.865486 214.53537 
L 796.116563 214.066897 
L 796.367639 214.603951 
L 796.618716 213.685262 
L 797.120868 216.620609 
L 797.371945 216.469916 
L 797.623021 216.58101 
L 797.874098 218.555327 
L 798.125174 219.407173 
L 798.376251 219.804383 
L 798.627327 219.361753 
L 799.12948 221.816328 
L 799.380557 221.507108 
L 799.631633 221.907666 
L 799.88271 222.588746 
L 800.133786 222.933862 
L 800.384863 222.37949 
L 800.635939 222.39129 
L 800.887016 222.863849 
L 801.138092 222.59721 
L 801.389169 222.128911 
L 801.640245 222.106309 
L 801.891321 222.217218 
L 802.142398 220.776007 
L 802.393474 220.347645 
L 802.644551 219.617746 
L 802.895627 220.117494 
L 803.146704 218.827325 
L 803.39778 218.900391 
L 803.648857 217.29372 
L 803.899933 217.127572 
L 804.15101 215.998775 
L 804.402086 217.10176 
L 804.653163 216.143381 
L 804.904239 216.52495 
L 805.155316 217.921941 
L 805.406392 215.871825 
L 805.657469 214.890143 
L 805.908545 216.585169 
L 806.159622 216.712925 
L 806.410698 217.40418 
L 806.661775 217.390185 
L 806.912851 217.135816 
L 807.163927 218.502453 
L 807.415004 217.852157 
L 807.917157 219.348999 
L 808.921463 218.751961 
L 809.172539 218.995476 
L 809.423616 217.471609 
L 809.674692 219.205869 
L 809.925769 217.512853 
L 810.176845 216.79241 
L 810.427922 218.068754 
L 810.678998 215.832376 
L 811.181151 215.051855 
L 811.432228 214.204023 
L 811.683304 214.858122 
L 811.93438 214.256165 
L 812.436533 215.096738 
L 812.68761 214.808982 
L 812.938686 214.127647 
L 813.189763 215.668407 
L 813.440839 215.721391 
L 813.691916 215.586743 
L 813.942992 217.724559 
L 814.194069 218.215523 
L 814.696222 220.773925 
L 814.947298 220.753082 
L 815.700528 223.512884 
L 816.202681 225.234724 
L 816.453757 225.315907 
L 816.704834 224.669072 
L 816.95591 225.100712 
L 817.206986 224.83497 
L 817.709139 223.969819 
L 817.960216 224.756257 
L 818.211292 223.466254 
L 818.462369 223.299217 
L 818.713445 223.313192 
L 818.964522 221.977412 
L 819.215598 222.374317 
L 819.466675 221.371958 
L 819.717751 221.558983 
L 819.968828 220.605488 
L 820.219904 219.063563 
L 820.470981 218.630469 
L 820.722057 219.92021 
L 820.973134 218.05777 
L 821.22421 219.241941 
L 821.475287 217.429366 
L 821.97744 217.393901 
L 822.228516 216.965967 
L 822.479592 218.223351 
L 822.730669 216.563315 
L 823.232822 218.512605 
L 823.483898 217.290054 
L 823.986051 218.773093 
L 824.237128 218.311052 
L 824.488204 218.408236 
L 824.739281 220.007347 
L 824.990357 220.552433 
L 825.241434 221.546352 
L 825.49251 221.005094 
L 825.994663 223.008763 
L 826.24574 223.500545 
L 826.747893 225.318496 
L 826.998969 225.813703 
L 827.250045 225.540894 
L 827.752198 227.453864 
L 828.003275 228.863305 
L 828.254351 228.686118 
L 828.505428 229.347221 
L 828.756504 229.017381 
L 829.258657 229.913117 
L 829.509734 230.641307 
L 829.76081 230.199973 
L 830.011887 230.549761 
L 830.262963 231.413441 
L 830.765116 230.922713 
L 831.016193 230.968464 
L 831.267269 231.166742 
L 831.518346 230.671005 
L 832.020499 231.903853 
L 832.271575 231.869906 
L 832.522651 231.329545 
L 832.773728 231.929822 
L 833.024804 231.629095 
L 833.275881 231.560968 
L 833.526957 232.278837 
L 833.778034 231.918659 
L 834.02911 232.386123 
L 834.280187 232.571862 
L 834.531263 232.107318 
L 834.78234 232.725399 
L 835.033416 232.574415 
L 835.284493 232.273064 
L 835.535569 232.324511 
L 836.037722 231.764265 
L 836.288799 232.057589 
L 836.790952 231.870758 
L 837.293104 230.317315 
L 837.544181 228.779274 
L 837.795257 229.23291 
L 838.046334 228.368415 
L 838.29741 226.033266 
L 838.548487 225.621499 
L 838.799563 224.79451 
L 839.05064 223.216641 
L 839.552793 222.474746 
L 839.803869 221.264286 
L 840.054946 221.443196 
L 840.306022 219.356331 
L 840.557099 218.742725 
L 840.808175 217.121037 
L 841.059252 216.799863 
L 841.310328 216.963184 
L 841.561405 215.258343 
L 842.063558 215.762261 
L 842.314634 215.592427 
L 842.56571 216.952013 
L 842.816787 215.853193 
L 843.067863 216.171 
L 843.31894 218.197404 
L 843.570016 218.035897 
L 843.821093 218.358239 
L 844.072169 219.256485 
L 844.323246 220.646623 
L 844.574322 221.390358 
L 844.825399 222.896035 
L 845.076475 223.432203 
L 845.327552 224.390202 
L 845.578628 226.176142 
L 845.829705 226.003193 
L 846.080781 227.728081 
L 846.331858 227.675666 
L 847.085087 230.343251 
L 847.336164 230.871724 
L 847.58724 232.511818 
L 847.838316 231.966882 
L 848.089393 232.505476 
L 848.340469 232.697339 
L 848.591546 233.094264 
L 848.842622 233.222978 
L 849.093699 233.107424 
L 849.344775 232.30885 
L 849.595852 232.805447 
L 849.846928 232.560116 
L 850.098005 231.445905 
L 850.349081 232.002761 
L 850.600158 231.801854 
L 850.851234 231.094095 
L 851.102311 230.74786 
L 851.353387 231.213488 
L 852.357693 228.014191 
L 852.608769 227.640379 
L 852.859846 227.004294 
L 853.110922 225.453305 
L 853.361999 225.709429 
L 853.613075 224.813529 
L 853.864152 225.206035 
L 854.617381 222.77344 
L 854.868458 223.00589 
L 855.119534 222.368023 
L 855.370611 222.38583 
L 855.621687 221.064957 
L 856.12384 221.301149 
L 856.87707 219.807263 
L 857.128146 220.837461 
L 857.379223 220.563985 
L 857.630299 219.764601 
L 857.881375 219.573698 
L 858.132452 221.269388 
L 858.383528 221.42259 
L 858.634605 220.937084 
L 859.136758 223.88103 
L 859.387834 223.130551 
L 859.889987 224.594898 
L 860.141064 226.610972 
L 860.643217 227.993309 
L 860.894293 228.803462 
L 861.14537 228.949385 
L 861.396446 230.521713 
L 861.647523 229.948587 
L 861.898599 230.144184 
L 862.149676 231.661506 
L 862.400752 232.125687 
L 862.651828 231.313346 
L 862.902905 231.579127 
L 863.153981 231.172063 
L 863.656134 230.696778 
L 864.911517 226.491624 
L 865.162593 225.327366 
L 865.664746 224.480797 
L 866.920129 218.336141 
L 867.171205 217.896974 
L 867.422282 216.891683 
L 867.673358 217.723623 
L 867.924434 216.198884 
L 868.175511 215.740292 
L 868.426587 217.206048 
L 868.677664 216.910049 
L 868.92874 215.957479 
L 869.179817 216.732274 
L 869.430893 216.181224 
L 869.68197 216.546178 
L 870.184123 218.231875 
L 870.435199 217.471696 
L 870.686276 219.291636 
L 870.937352 219.441372 
L 871.188429 220.458023 
L 871.439505 220.470588 
L 871.690582 221.960714 
L 871.941658 222.48675 
L 872.694888 225.907665 
L 872.945964 225.772207 
L 873.448117 227.639898 
L 873.699193 227.750611 
L 873.95027 228.375985 
L 874.201346 229.45335 
L 874.452423 228.926589 
L 874.703499 230.402864 
L 874.954576 229.993417 
L 875.205652 231.095568 
L 875.707805 230.80703 
L 875.958882 230.45345 
L 876.209958 231.57016 
L 876.461035 231.134067 
L 876.712111 231.199816 
L 876.963188 230.517966 
L 877.214264 230.394059 
L 877.716417 231.661402 
L 877.967493 231.318368 
L 878.21857 231.577092 
L 878.469646 232.057722 
L 878.971799 232.108308 
L 879.222876 232.377214 
L 879.725029 233.54709 
L 879.976105 233.055968 
L 880.227182 232.821392 
L 880.478258 233.162071 
L 880.729335 232.515756 
L 880.980411 232.922638 
L 881.231488 232.834034 
L 881.482564 232.431982 
L 881.733641 231.73157 
L 881.984717 231.855612 
L 882.235794 230.490238 
L 882.48687 230.535344 
L 883.742252 226.965108 
L 883.993329 226.659444 
L 884.495482 223.430878 
L 884.746558 223.008898 
L 885.248711 220.614578 
L 885.499788 220.628553 
L 885.750864 219.00046 
L 886.504094 217.159399 
L 886.75517 217.397449 
L 887.006247 216.325585 
L 887.257323 216.397301 
L 887.5084 216.827691 
L 887.759476 216.559427 
L 888.010552 217.769383 
L 888.261629 217.038227 
L 888.512705 217.727317 
L 889.014858 220.835118 
L 889.265935 220.774735 
L 889.517011 222.415845 
L 890.019164 223.080412 
L 890.270241 226.071059 
L 890.772394 227.994393 
L 891.02347 228.694199 
L 891.274547 230.6145 
L 892.278853 234.34708 
L 892.529929 234.514546 
L 892.781006 235.640339 
L 893.534235 237.055763 
L 894.036388 237.536373 
L 894.538541 238.22248 
L 894.789617 237.685525 
L 895.040694 237.939513 
L 895.29177 237.469305 
L 895.542847 237.780426 
L 896.045 236.884672 
L 896.296076 236.808586 
L 896.547153 235.959594 
L 896.798229 235.7638 
L 898.053611 232.92057 
L 898.304688 232.948277 
L 898.555764 231.406169 
L 898.806841 232.107105 
L 899.308994 230.591098 
L 899.811147 229.180356 
L 900.062223 228.280412 
L 900.3133 227.849166 
L 900.564376 227.644683 
L 901.066529 226.20864 
L 901.317606 227.002473 
L 901.568682 225.060426 
L 901.819759 225.428569 
L 902.321912 223.439837 
L 902.572988 224.157488 
L 902.824065 223.284197 
L 903.075141 223.445703 
L 903.577294 222.086687 
L 903.82837 222.773535 
L 904.079447 221.438733 
L 904.5816 221.114172 
L 905.334829 221.067038 
L 905.836982 219.81407 
L 906.088059 219.464075 
L 906.339135 219.467559 
L 906.590212 219.75092 
L 906.841288 219.127866 
L 907.092365 219.86488 
L 907.343441 219.511039 
L 907.594518 218.840722 
L 907.845594 219.838181 
L 908.096671 218.664862 
L 908.347747 218.558717 
L 908.598823 219.088513 
L 908.8499 218.878997 
L 909.100976 219.167508 
L 909.352053 218.383193 
L 909.603129 220.435302 
L 909.854206 220.304675 
L 910.105282 221.112693 
L 910.356359 221.248249 
L 910.607435 222.807817 
L 910.858512 222.372901 
L 911.109588 223.333202 
L 911.360665 223.830319 
L 911.611741 224.920611 
L 911.862818 225.250554 
L 912.616047 228.572088 
L 913.1182 230.281406 
L 913.871429 232.466462 
L 914.122506 232.337383 
L 914.373582 232.863055 
L 914.624659 233.885411 
L 915.126812 233.483322 
L 915.377888 234.225133 
L 915.880041 233.373049 
L 916.131118 233.518658 
L 916.382194 233.301203 
L 916.633271 232.380025 
L 916.884347 232.390694 
L 917.888653 229.018213 
L 918.13973 229.170533 
L 918.390806 228.303206 
L 918.892959 227.781406 
L 919.395112 228.010441 
L 919.646188 227.417373 
L 919.897265 227.498272 
L 920.148341 228.238171 
L 920.399418 227.811714 
L 920.650494 228.545805 
L 920.901571 228.729674 
L 921.152647 229.078706 
L 921.403724 228.837711 
L 921.6548 229.807281 
L 921.905877 229.871192 
L 922.40803 232.06427 
L 922.659106 231.559981 
L 922.910183 232.211866 
L 923.161259 232.215721 
L 923.663412 233.430132 
L 923.914488 233.120902 
L 924.165565 233.540871 
L 924.416641 233.032544 
L 924.667718 233.262027 
L 924.918794 233.2779 
L 925.169871 233.095321 
L 925.420947 232.56851 
L 925.672024 232.848139 
L 925.9231 232.170041 
L 926.174177 231.969698 
L 926.425253 231.2545 
L 926.927406 230.975041 
L 927.178483 230.079037 
L 927.429559 229.716792 
L 927.680636 230.410111 
L 927.931712 229.006427 
L 928.433865 229.365303 
L 928.684941 228.296979 
L 928.936018 228.686089 
L 929.187094 229.395142 
L 929.438171 228.949769 
L 929.689247 229.327221 
L 929.940324 229.438305 
L 930.1914 229.198473 
L 930.442477 230.305306 
L 930.693553 229.496566 
L 930.94463 231.170803 
L 931.195706 231.351101 
L 931.446783 231.235946 
L 932.200012 233.049113 
L 932.451089 232.621092 
L 932.953242 234.346318 
L 933.706471 234.852026 
L 933.957547 234.435688 
L 934.208624 234.717473 
L 934.4597 234.617702 
L 934.710777 234.793187 
L 934.961853 234.198309 
L 935.21293 234.832126 
L 935.464006 234.120547 
L 935.715083 234.450736 
L 936.217236 233.667217 
L 936.468312 233.745771 
L 936.719389 233.206057 
L 936.970465 232.954986 
L 937.472618 232.915547 
L 937.723695 233.349375 
L 937.974771 232.561225 
L 938.225848 232.510087 
L 938.476924 233.070262 
L 938.728 232.667693 
L 938.979077 232.90349 
L 939.230153 232.92088 
L 939.732306 233.557816 
L 939.983383 233.448582 
L 940.234459 233.947531 
L 940.485536 233.700615 
L 940.736612 233.967848 
L 940.987689 233.790111 
L 941.238765 233.812665 
L 941.489842 234.206111 
L 941.991995 233.552609 
L 942.243071 234.039235 
L 942.494148 233.382374 
L 942.745224 233.308186 
L 942.996301 233.358344 
L 943.247377 233.212779 
L 943.498454 232.811518 
L 944.000606 233.001127 
L 944.251683 232.244025 
L 944.502759 232.561515 
L 945.004912 231.252036 
L 945.255989 231.522063 
L 945.758142 231.008651 
L 946.009218 230.966768 
L 946.260295 230.642148 
L 946.511371 230.920757 
L 946.762448 230.162162 
L 947.013524 230.264962 
L 947.515677 229.85812 
L 948.268907 230.535985 
L 948.519983 230.1403 
L 949.022136 232.112859 
L 949.273212 231.603428 
L 949.524289 231.614786 
L 949.775365 232.507003 
L 950.779671 234.22669 
L 951.030748 234.735528 
L 951.281824 234.66376 
L 951.532901 234.817342 
L 951.783977 235.135712 
L 952.035054 234.607371 
L 952.28613 235.339174 
L 952.537207 235.334115 
L 952.788283 235.006341 
L 953.03936 235.130772 
L 953.541513 234.597268 
L 953.792589 234.437495 
L 954.043665 233.7953 
L 954.294742 233.661094 
L 954.545818 234.061675 
L 954.796895 233.202459 
L 955.299048 232.397384 
L 955.550124 232.36505 
L 955.801201 231.477553 
L 956.052277 231.583669 
L 956.303354 230.648992 
L 956.805507 229.847743 
L 957.056583 229.097025 
L 957.558736 229.00963 
L 957.809813 228.381994 
L 958.060889 229.119355 
L 958.311966 228.174756 
L 958.563042 228.42497 
L 958.814119 228.340888 
L 959.065195 227.963009 
L 959.316271 228.546632 
L 959.567348 228.589207 
L 959.818424 227.602272 
L 960.069501 228.376299 
L 960.571654 227.491555 
L 960.82273 227.76157 
L 961.324883 227.796305 
L 961.57596 228.970081 
L 962.078113 228.059635 
L 962.580266 229.312721 
L 962.831342 228.60833 
L 963.082419 229.439493 
L 963.333495 229.538569 
L 963.584572 230.231366 
L 963.835648 230.31984 
L 964.086724 231.255566 
L 964.337801 231.019929 
L 964.839954 231.55875 
L 965.09103 231.693609 
L 965.342107 232.472118 
L 965.593183 232.432647 
L 965.84426 233.307284 
L 966.095336 233.498695 
L 966.346413 234.20855 
L 966.597489 234.455201 
L 966.848566 234.926208 
L 967.099642 235.089175 
L 967.350719 235.507594 
L 967.852872 236.648375 
L 968.103948 236.457845 
L 968.355025 237.341629 
L 968.606101 237.150701 
L 968.857178 237.184153 
L 969.35933 237.923121 
L 969.861483 238.115411 
L 970.11256 237.878491 
L 970.363636 238.048156 
L 970.363636 238.048156 
" style="fill:none;stroke:#1f77b4;stroke-linecap:square;stroke-width:1.5;"/>
   </g>
   <g id="patch_3">
    <path d="M 180 252 
L 180 34.56 
" style="fill:none;stroke:#000000;stroke-linecap:square;stroke-linejoin:miter;stroke-width:0.8;"/>
   </g>
   <g id="patch_4">
    <path d="M 1008 252 
L 1008 34.56 
" style="fill:none;stroke:#000000;stroke-linecap:square;stroke-linejoin:miter;stroke-width:0.8;"/>
   </g>
   <g id="patch_5">
    <path d="M 180 252 
L 1008 252 
" style="fill:none;stroke:#000000;stroke-linecap:square;stroke-linejoin:miter;stroke-width:0.8;"/>
   </g>
   <g id="patch_6">
    <path d="M 180 34.56 
L 1008 34.56 
" style="fill:none;stroke:#000000;stroke-linecap:square;stroke-linejoin:miter;stroke-width:0.8;"/>
   </g>
   <g id="legend_1">
    <g id="PathCollection_2">
     <g>
      <use style="fill:#ff0000;stroke:#ff0000;" x="1085.8" xlink:href="#m6c74930402" y="56.745312"/>
     </g>
    </g>
    <g id="text_11">
     <!-- &gt; mean + 3SD -->
     <defs>
      <path d="M 52.875 31.296875 
L 5.46875 11.03125 
L 5.46875 19.78125 
L 43.015625 35.359375 
L 5.46875 50.78125 
L 5.46875 59.515625 
L 52.875 39.5 
z
" id="ArialMT-62"/>
      <path d="M 25.046875 11.578125 
L 25.046875 31.203125 
L 5.5625 31.203125 
L 5.5625 39.40625 
L 25.046875 39.40625 
L 25.046875 58.890625 
L 33.34375 58.890625 
L 33.34375 39.40625 
L 52.828125 39.40625 
L 52.828125 31.203125 
L 33.34375 31.203125 
L 33.34375 11.578125 
z
" id="ArialMT-43"/>
      <path d="M 4.5 23 
L 13.421875 23.78125 
Q 14.0625 18.40625 16.375 14.96875 
Q 18.703125 11.53125 23.578125 9.40625 
Q 28.46875 7.28125 34.578125 7.28125 
Q 39.984375 7.28125 44.140625 8.890625 
Q 48.296875 10.5 50.3125 13.296875 
Q 52.34375 16.109375 52.34375 19.4375 
Q 52.34375 22.796875 50.390625 25.3125 
Q 48.4375 27.828125 43.953125 29.546875 
Q 41.0625 30.671875 31.203125 33.03125 
Q 21.34375 35.40625 17.390625 37.5 
Q 12.25 40.1875 9.734375 44.15625 
Q 7.234375 48.140625 7.234375 53.078125 
Q 7.234375 58.5 10.296875 63.203125 
Q 13.375 67.921875 19.28125 70.359375 
Q 25.203125 72.796875 32.421875 72.796875 
Q 40.375 72.796875 46.453125 70.234375 
Q 52.546875 67.671875 55.8125 62.6875 
Q 59.078125 57.71875 59.328125 51.421875 
L 50.25 50.734375 
Q 49.515625 57.515625 45.28125 60.984375 
Q 41.0625 64.453125 32.8125 64.453125 
Q 24.21875 64.453125 20.28125 61.296875 
Q 16.359375 58.15625 16.359375 53.71875 
Q 16.359375 49.859375 19.140625 47.359375 
Q 21.875 44.875 33.421875 42.265625 
Q 44.96875 39.65625 49.265625 37.703125 
Q 55.515625 34.8125 58.484375 30.390625 
Q 61.46875 25.984375 61.46875 20.21875 
Q 61.46875 14.5 58.203125 9.4375 
Q 54.9375 4.390625 48.796875 1.578125 
Q 42.671875 -1.21875 35.015625 -1.21875 
Q 25.296875 -1.21875 18.71875 1.609375 
Q 12.15625 4.4375 8.421875 10.125 
Q 4.6875 15.828125 4.5 23 
z
" id="ArialMT-83"/>
      <path d="M 7.71875 0 
L 7.71875 71.578125 
L 32.375 71.578125 
Q 40.71875 71.578125 45.125 70.5625 
Q 51.265625 69.140625 55.609375 65.4375 
Q 61.28125 60.640625 64.078125 53.1875 
Q 66.890625 45.75 66.890625 36.1875 
Q 66.890625 28.03125 64.984375 21.734375 
Q 63.09375 15.4375 60.109375 11.296875 
Q 57.125 7.171875 53.578125 4.796875 
Q 50.046875 2.4375 45.046875 1.21875 
Q 40.046875 0 33.546875 0 
z
M 17.1875 8.453125 
L 32.46875 8.453125 
Q 39.546875 8.453125 43.578125 9.765625 
Q 47.609375 11.078125 50 13.484375 
Q 53.375 16.84375 55.25 22.53125 
Q 57.125 28.21875 57.125 36.328125 
Q 57.125 47.5625 53.4375 53.59375 
Q 49.75 59.625 44.484375 61.671875 
Q 40.671875 63.140625 32.234375 63.140625 
L 17.1875 63.140625 
z
" id="ArialMT-68"/>
     </defs>
     <g transform="translate(1132.6 63.570312)scale(0.26 -0.26)">
      <use xlink:href="#ArialMT-62"/>
      <use x="58.398438" xlink:href="#ArialMT-32"/>
      <use x="86.181641" xlink:href="#ArialMT-109"/>
      <use x="169.482422" xlink:href="#ArialMT-101"/>
      <use x="225.097656" xlink:href="#ArialMT-97"/>
      <use x="280.712891" xlink:href="#ArialMT-110"/>
      <use x="336.328125" xlink:href="#ArialMT-32"/>
      <use x="364.111328" xlink:href="#ArialMT-43"/>
      <use x="422.509766" xlink:href="#ArialMT-32"/>
      <use x="450.292969" xlink:href="#ArialMT-51"/>
      <use x="505.908203" xlink:href="#ArialMT-83"/>
      <use x="572.607422" xlink:href="#ArialMT-68"/>
     </g>
    </g>
   </g>
  </g>
 </g>
 <defs>
  <clipPath id="pcfb66beac1">
   <rect height="217.44" width="828" x="180" y="34.56"/>
  </clipPath>
 </defs>
</svg>
