<?xml version="1.0" encoding="utf-8" standalone="no"?>
<!DOCTYPE svg PUBLIC "-//W3C//DTD SVG 1.1//EN"
  "http://www.w3.org/Graphics/SVG/1.1/DTD/svg11.dtd">
<!-- Created with matplotlib (https://matplotlib.org/) -->
<svg height="316.386094pt" version="1.1" viewBox="0 0 1165.984062 316.386094" width="1165.984062pt" xmlns="http://www.w3.org/2000/svg" xmlns:xlink="http://www.w3.org/1999/xlink">
 <defs>
  <style type="text/css">
*{stroke-linecap:butt;stroke-linejoin:round;}
  </style>
 </defs>
 <g id="figure_1">
  <g id="patch_1">
   <path d="M 0 316.386094 
L 1165.984062 316.386094 
L 1165.984062 0 
L 0 0 
z
" style="fill:#ffffff;"/>
  </g>
  <g id="axes_1">
   <g id="patch_2">
    <path d="M 71.51625 250.313594 
L 899.51625 250.313594 
L 899.51625 32.873594 
L 71.51625 32.873594 
z
" style="fill:#ffffff;"/>
   </g>
   <g id="matplotlib.axis_1">
    <g id="xtick_1">
     <g id="line2d_1">
      <path clip-path="url(#p0b6f915aa8)" d="M 109.152614 250.313594 
L 109.152614 32.873594 
" style="fill:none;stroke:#b0b0b0;stroke-linecap:square;stroke-width:0.8;"/>
     </g>
     <g id="line2d_2">
      <defs>
       <path d="M 0 0 
L 0 3.5 
" id="m65627deef6" style="stroke:#000000;stroke-width:0.8;"/>
      </defs>
      <g>
       <use style="stroke:#000000;stroke-width:0.8;" x="109.152614" xlink:href="#m65627deef6" y="250.313594"/>
      </g>
     </g>
     <g id="text_1">
      <!-- 0 -->
      <defs>
       <path d="M 4.15625 35.296875 
Q 4.15625 48 6.765625 55.734375 
Q 9.375 63.484375 14.515625 67.671875 
Q 19.671875 71.875 27.484375 71.875 
Q 33.25 71.875 37.59375 69.546875 
Q 41.9375 67.234375 44.765625 62.859375 
Q 47.609375 58.5 49.21875 52.21875 
Q 50.828125 45.953125 50.828125 35.296875 
Q 50.828125 22.703125 48.234375 14.96875 
Q 45.65625 7.234375 40.5 3 
Q 35.359375 -1.21875 27.484375 -1.21875 
Q 17.140625 -1.21875 11.234375 6.203125 
Q 4.15625 15.140625 4.15625 35.296875 
z
M 13.1875 35.296875 
Q 13.1875 17.671875 17.3125 11.828125 
Q 21.4375 6 27.484375 6 
Q 33.546875 6 37.671875 11.859375 
Q 41.796875 17.71875 41.796875 35.296875 
Q 41.796875 52.984375 37.671875 58.78125 
Q 33.546875 64.59375 27.390625 64.59375 
Q 21.34375 64.59375 17.71875 59.46875 
Q 13.1875 52.9375 13.1875 35.296875 
z
" id="ArialMT-48"/>
      </defs>
      <g transform="translate(101.923395 275.923906)scale(0.26 -0.26)">
       <use xlink:href="#ArialMT-48"/>
      </g>
     </g>
    </g>
    <g id="xtick_2">
     <g id="line2d_3">
      <path clip-path="url(#p0b6f915aa8)" d="M 360.229089 250.313594 
L 360.229089 32.873594 
" style="fill:none;stroke:#b0b0b0;stroke-linecap:square;stroke-width:0.8;"/>
     </g>
     <g id="line2d_4">
      <g>
       <use style="stroke:#000000;stroke-width:0.8;" x="360.229089" xlink:href="#m65627deef6" y="250.313594"/>
      </g>
     </g>
     <g id="text_2">
      <!-- 1000 -->
      <defs>
       <path d="M 37.25 0 
L 28.46875 0 
L 28.46875 56 
Q 25.296875 52.984375 20.140625 49.953125 
Q 14.984375 46.921875 10.890625 45.40625 
L 10.890625 53.90625 
Q 18.265625 57.375 23.78125 62.296875 
Q 29.296875 67.234375 31.59375 71.875 
L 37.25 71.875 
z
" id="ArialMT-49"/>
      </defs>
      <g transform="translate(331.312214 275.923906)scale(0.26 -0.26)">
       <use xlink:href="#ArialMT-49"/>
       <use x="55.615234" xlink:href="#ArialMT-48"/>
       <use x="111.230469" xlink:href="#ArialMT-48"/>
       <use x="166.845703" xlink:href="#ArialMT-48"/>
      </g>
     </g>
    </g>
    <g id="xtick_3">
     <g id="line2d_5">
      <path clip-path="url(#p0b6f915aa8)" d="M 611.305564 250.313594 
L 611.305564 32.873594 
" style="fill:none;stroke:#b0b0b0;stroke-linecap:square;stroke-width:0.8;"/>
     </g>
     <g id="line2d_6">
      <g>
       <use style="stroke:#000000;stroke-width:0.8;" x="611.305564" xlink:href="#m65627deef6" y="250.313594"/>
      </g>
     </g>
     <g id="text_3">
      <!-- 2000 -->
      <defs>
       <path d="M 50.34375 8.453125 
L 50.34375 0 
L 3.03125 0 
Q 2.9375 3.171875 4.046875 6.109375 
Q 5.859375 10.9375 9.828125 15.625 
Q 13.8125 20.3125 21.34375 26.46875 
Q 33.015625 36.03125 37.109375 41.625 
Q 41.21875 47.21875 41.21875 52.203125 
Q 41.21875 57.421875 37.46875 61 
Q 33.734375 64.59375 27.734375 64.59375 
Q 21.390625 64.59375 17.578125 60.78125 
Q 13.765625 56.984375 13.71875 50.25 
L 4.6875 51.171875 
Q 5.609375 61.28125 11.65625 66.578125 
Q 17.71875 71.875 27.9375 71.875 
Q 38.234375 71.875 44.234375 66.15625 
Q 50.25 60.453125 50.25 52 
Q 50.25 47.703125 48.484375 43.546875 
Q 46.734375 39.40625 42.65625 34.8125 
Q 38.578125 30.21875 29.109375 22.21875 
Q 21.1875 15.578125 18.9375 13.203125 
Q 16.703125 10.84375 15.234375 8.453125 
z
" id="ArialMT-50"/>
      </defs>
      <g transform="translate(582.388689 275.923906)scale(0.26 -0.26)">
       <use xlink:href="#ArialMT-50"/>
       <use x="55.615234" xlink:href="#ArialMT-48"/>
       <use x="111.230469" xlink:href="#ArialMT-48"/>
       <use x="166.845703" xlink:href="#ArialMT-48"/>
      </g>
     </g>
    </g>
    <g id="xtick_4">
     <g id="line2d_7">
      <path clip-path="url(#p0b6f915aa8)" d="M 862.382039 250.313594 
L 862.382039 32.873594 
" style="fill:none;stroke:#b0b0b0;stroke-linecap:square;stroke-width:0.8;"/>
     </g>
     <g id="line2d_8">
      <g>
       <use style="stroke:#000000;stroke-width:0.8;" x="862.382039" xlink:href="#m65627deef6" y="250.313594"/>
      </g>
     </g>
     <g id="text_4">
      <!-- 3000 -->
      <defs>
       <path d="M 4.203125 18.890625 
L 12.984375 20.0625 
Q 14.5 12.59375 18.140625 9.296875 
Q 21.78125 6 27 6 
Q 33.203125 6 37.46875 10.296875 
Q 41.75 14.59375 41.75 20.953125 
Q 41.75 27 37.796875 30.921875 
Q 33.84375 34.859375 27.734375 34.859375 
Q 25.25 34.859375 21.53125 33.890625 
L 22.515625 41.609375 
Q 23.390625 41.5 23.921875 41.5 
Q 29.546875 41.5 34.03125 44.421875 
Q 38.53125 47.359375 38.53125 53.46875 
Q 38.53125 58.296875 35.25 61.46875 
Q 31.984375 64.65625 26.8125 64.65625 
Q 21.6875 64.65625 18.265625 61.421875 
Q 14.84375 58.203125 13.875 51.765625 
L 5.078125 53.328125 
Q 6.6875 62.15625 12.390625 67.015625 
Q 18.109375 71.875 26.609375 71.875 
Q 32.46875 71.875 37.390625 69.359375 
Q 42.328125 66.84375 44.9375 62.5 
Q 47.5625 58.15625 47.5625 53.265625 
Q 47.5625 48.640625 45.0625 44.828125 
Q 42.578125 41.015625 37.703125 38.765625 
Q 44.046875 37.3125 47.5625 32.6875 
Q 51.078125 28.078125 51.078125 21.140625 
Q 51.078125 11.765625 44.234375 5.25 
Q 37.40625 -1.265625 26.953125 -1.265625 
Q 17.53125 -1.265625 11.296875 4.34375 
Q 5.078125 9.96875 4.203125 18.890625 
z
" id="ArialMT-51"/>
      </defs>
      <g transform="translate(833.465164 275.923906)scale(0.26 -0.26)">
       <use xlink:href="#ArialMT-51"/>
       <use x="55.615234" xlink:href="#ArialMT-48"/>
       <use x="111.230469" xlink:href="#ArialMT-48"/>
       <use x="166.845703" xlink:href="#ArialMT-48"/>
      </g>
     </g>
    </g>
    <g id="text_5">
     <!-- # sample -->
     <defs>
      <path d="M 5.03125 -1.21875 
L 9.28125 19.578125 
L 1.03125 19.578125 
L 1.03125 26.859375 
L 10.75 26.859375 
L 14.359375 44.578125 
L 1.03125 44.578125 
L 1.03125 51.859375 
L 15.828125 51.859375 
L 20.0625 72.796875 
L 27.390625 72.796875 
L 23.140625 51.859375 
L 38.53125 51.859375 
L 42.78125 72.796875 
L 50.140625 72.796875 
L 45.90625 51.859375 
L 54.34375 51.859375 
L 54.34375 44.578125 
L 44.4375 44.578125 
L 40.765625 26.859375 
L 54.34375 26.859375 
L 54.34375 19.578125 
L 39.3125 19.578125 
L 35.0625 -1.21875 
L 27.734375 -1.21875 
L 31.9375 19.578125 
L 16.609375 19.578125 
L 12.359375 -1.21875 
z
M 18.0625 26.859375 
L 33.40625 26.859375 
L 37.0625 44.578125 
L 21.6875 44.578125 
z
" id="ArialMT-35"/>
      <path id="ArialMT-32"/>
      <path d="M 3.078125 15.484375 
L 11.765625 16.84375 
Q 12.5 11.625 15.84375 8.84375 
Q 19.1875 6.0625 25.203125 6.0625 
Q 31.25 6.0625 34.171875 8.515625 
Q 37.109375 10.984375 37.109375 14.3125 
Q 37.109375 17.28125 34.515625 19 
Q 32.71875 20.171875 25.53125 21.96875 
Q 15.875 24.421875 12.140625 26.203125 
Q 8.40625 27.984375 6.46875 31.125 
Q 4.546875 34.28125 4.546875 38.09375 
Q 4.546875 41.546875 6.125 44.5 
Q 7.71875 47.46875 10.453125 49.421875 
Q 12.5 50.921875 16.03125 51.96875 
Q 19.578125 53.03125 23.640625 53.03125 
Q 29.734375 53.03125 34.34375 51.265625 
Q 38.96875 49.515625 41.15625 46.5 
Q 43.359375 43.5 44.1875 38.484375 
L 35.59375 37.3125 
Q 35.015625 41.3125 32.203125 43.546875 
Q 29.390625 45.796875 24.265625 45.796875 
Q 18.21875 45.796875 15.625 43.796875 
Q 13.03125 41.796875 13.03125 39.109375 
Q 13.03125 37.40625 14.109375 36.03125 
Q 15.1875 34.625 17.484375 33.6875 
Q 18.796875 33.203125 25.25 31.453125 
Q 34.578125 28.953125 38.25 27.359375 
Q 41.9375 25.78125 44.03125 22.75 
Q 46.140625 19.734375 46.140625 15.234375 
Q 46.140625 10.84375 43.578125 6.953125 
Q 41.015625 3.078125 36.171875 0.953125 
Q 31.34375 -1.171875 25.25 -1.171875 
Q 15.140625 -1.171875 9.84375 3.03125 
Q 4.546875 7.234375 3.078125 15.484375 
z
" id="ArialMT-115"/>
      <path d="M 40.4375 6.390625 
Q 35.546875 2.25 31.03125 0.53125 
Q 26.515625 -1.171875 21.34375 -1.171875 
Q 12.796875 -1.171875 8.203125 3 
Q 3.609375 7.171875 3.609375 13.671875 
Q 3.609375 17.484375 5.34375 20.625 
Q 7.078125 23.78125 9.890625 25.6875 
Q 12.703125 27.59375 16.21875 28.5625 
Q 18.796875 29.25 24.03125 29.890625 
Q 34.671875 31.15625 39.703125 32.90625 
Q 39.75 34.71875 39.75 35.203125 
Q 39.75 40.578125 37.25 42.78125 
Q 33.890625 45.75 27.25 45.75 
Q 21.046875 45.75 18.09375 43.578125 
Q 15.140625 41.40625 13.71875 35.890625 
L 5.125 37.0625 
Q 6.296875 42.578125 8.984375 45.96875 
Q 11.671875 49.359375 16.75 51.1875 
Q 21.828125 53.03125 28.515625 53.03125 
Q 35.15625 53.03125 39.296875 51.46875 
Q 43.453125 49.90625 45.40625 47.53125 
Q 47.359375 45.171875 48.140625 41.546875 
Q 48.578125 39.3125 48.578125 33.453125 
L 48.578125 21.734375 
Q 48.578125 9.46875 49.140625 6.21875 
Q 49.703125 2.984375 51.375 0 
L 42.1875 0 
Q 40.828125 2.734375 40.4375 6.390625 
z
M 39.703125 26.03125 
Q 34.90625 24.078125 25.34375 22.703125 
Q 19.921875 21.921875 17.671875 20.9375 
Q 15.4375 19.96875 14.203125 18.09375 
Q 12.984375 16.21875 12.984375 13.921875 
Q 12.984375 10.40625 15.640625 8.0625 
Q 18.3125 5.71875 23.4375 5.71875 
Q 28.515625 5.71875 32.46875 7.9375 
Q 36.421875 10.15625 38.28125 14.015625 
Q 39.703125 17 39.703125 22.796875 
z
" id="ArialMT-97"/>
      <path d="M 6.59375 0 
L 6.59375 51.859375 
L 14.453125 51.859375 
L 14.453125 44.578125 
Q 16.890625 48.390625 20.9375 50.703125 
Q 25 53.03125 30.171875 53.03125 
Q 35.9375 53.03125 39.625 50.640625 
Q 43.3125 48.25 44.828125 43.953125 
Q 50.984375 53.03125 60.84375 53.03125 
Q 68.5625 53.03125 72.703125 48.75 
Q 76.859375 44.484375 76.859375 35.59375 
L 76.859375 0 
L 68.109375 0 
L 68.109375 32.671875 
Q 68.109375 37.9375 67.25 40.25 
Q 66.40625 42.578125 64.15625 43.984375 
Q 61.921875 45.40625 58.890625 45.40625 
Q 53.421875 45.40625 49.796875 41.765625 
Q 46.1875 38.140625 46.1875 30.125 
L 46.1875 0 
L 37.40625 0 
L 37.40625 33.6875 
Q 37.40625 39.546875 35.25 42.46875 
Q 33.109375 45.40625 28.21875 45.40625 
Q 24.515625 45.40625 21.359375 43.453125 
Q 18.21875 41.5 16.796875 37.734375 
Q 15.375 33.984375 15.375 26.90625 
L 15.375 0 
z
" id="ArialMT-109"/>
      <path d="M 6.59375 -19.875 
L 6.59375 51.859375 
L 14.59375 51.859375 
L 14.59375 45.125 
Q 17.4375 49.078125 21 51.046875 
Q 24.5625 53.03125 29.640625 53.03125 
Q 36.28125 53.03125 41.359375 49.609375 
Q 46.4375 46.1875 49.015625 39.953125 
Q 51.609375 33.734375 51.609375 26.3125 
Q 51.609375 18.359375 48.75 11.984375 
Q 45.90625 5.609375 40.453125 2.21875 
Q 35.015625 -1.171875 29 -1.171875 
Q 24.609375 -1.171875 21.109375 0.6875 
Q 17.625 2.546875 15.375 5.375 
L 15.375 -19.875 
z
M 14.546875 25.640625 
Q 14.546875 15.625 18.59375 10.84375 
Q 22.65625 6.0625 28.421875 6.0625 
Q 34.28125 6.0625 38.453125 11.015625 
Q 42.625 15.96875 42.625 26.375 
Q 42.625 36.28125 38.546875 41.203125 
Q 34.46875 46.140625 28.8125 46.140625 
Q 23.1875 46.140625 18.859375 40.890625 
Q 14.546875 35.640625 14.546875 25.640625 
z
" id="ArialMT-112"/>
      <path d="M 6.390625 0 
L 6.390625 71.578125 
L 15.1875 71.578125 
L 15.1875 0 
z
" id="ArialMT-108"/>
      <path d="M 42.09375 16.703125 
L 51.171875 15.578125 
Q 49.03125 7.625 43.21875 3.21875 
Q 37.40625 -1.171875 28.375 -1.171875 
Q 17 -1.171875 10.328125 5.828125 
Q 3.65625 12.84375 3.65625 25.484375 
Q 3.65625 38.578125 10.390625 45.796875 
Q 17.140625 53.03125 27.875 53.03125 
Q 38.28125 53.03125 44.875 45.953125 
Q 51.46875 38.875 51.46875 26.03125 
Q 51.46875 25.25 51.421875 23.6875 
L 12.75 23.6875 
Q 13.234375 15.140625 17.578125 10.59375 
Q 21.921875 6.0625 28.421875 6.0625 
Q 33.25 6.0625 36.671875 8.59375 
Q 40.09375 11.140625 42.09375 16.703125 
z
M 13.234375 30.90625 
L 42.1875 30.90625 
Q 41.609375 37.453125 38.875 40.71875 
Q 34.671875 45.796875 27.984375 45.796875 
Q 21.921875 45.796875 17.796875 41.75 
Q 13.671875 37.703125 13.234375 30.90625 
z
" id="ArialMT-101"/>
     </defs>
     <g transform="translate(432.770781 304.018594)scale(0.26 -0.26)">
      <use xlink:href="#ArialMT-35"/>
      <use x="55.615234" xlink:href="#ArialMT-32"/>
      <use x="83.398438" xlink:href="#ArialMT-115"/>
      <use x="133.398438" xlink:href="#ArialMT-97"/>
      <use x="189.013672" xlink:href="#ArialMT-109"/>
      <use x="272.314453" xlink:href="#ArialMT-112"/>
      <use x="327.929688" xlink:href="#ArialMT-108"/>
      <use x="350.146484" xlink:href="#ArialMT-101"/>
     </g>
    </g>
   </g>
   <g id="matplotlib.axis_2">
    <g id="ytick_1">
     <g id="line2d_9">
      <path clip-path="url(#p0b6f915aa8)" d="M 71.51625 247.423361 
L 899.51625 247.423361 
" style="fill:none;stroke:#b0b0b0;stroke-linecap:square;stroke-width:0.8;"/>
     </g>
     <g id="line2d_10">
      <defs>
       <path d="M 0 0 
L -3.5 0 
" id="ma28f009aac" style="stroke:#000000;stroke-width:0.8;"/>
      </defs>
      <g>
       <use style="stroke:#000000;stroke-width:0.8;" x="71.51625" xlink:href="#ma28f009aac" y="247.423361"/>
      </g>
     </g>
     <g id="text_6">
      <!-- 0 -->
      <g transform="translate(50.057813 256.728517)scale(0.26 -0.26)">
       <use xlink:href="#ArialMT-48"/>
      </g>
     </g>
    </g>
    <g id="ytick_2">
     <g id="line2d_11">
      <path clip-path="url(#p0b6f915aa8)" d="M 71.51625 183.446963 
L 899.51625 183.446963 
" style="fill:none;stroke:#b0b0b0;stroke-linecap:square;stroke-width:0.8;"/>
     </g>
     <g id="line2d_12">
      <g>
       <use style="stroke:#000000;stroke-width:0.8;" x="71.51625" xlink:href="#ma28f009aac" y="183.446963"/>
      </g>
     </g>
     <g id="text_7">
      <!-- 10 -->
      <g transform="translate(35.599375 192.75212)scale(0.26 -0.26)">
       <use xlink:href="#ArialMT-49"/>
       <use x="55.615234" xlink:href="#ArialMT-48"/>
      </g>
     </g>
    </g>
    <g id="ytick_3">
     <g id="line2d_13">
      <path clip-path="url(#p0b6f915aa8)" d="M 71.51625 119.470565 
L 899.51625 119.470565 
" style="fill:none;stroke:#b0b0b0;stroke-linecap:square;stroke-width:0.8;"/>
     </g>
     <g id="line2d_14">
      <g>
       <use style="stroke:#000000;stroke-width:0.8;" x="71.51625" xlink:href="#ma28f009aac" y="119.470565"/>
      </g>
     </g>
     <g id="text_8">
      <!-- 20 -->
      <g transform="translate(35.599375 128.775722)scale(0.26 -0.26)">
       <use xlink:href="#ArialMT-50"/>
       <use x="55.615234" xlink:href="#ArialMT-48"/>
      </g>
     </g>
    </g>
    <g id="ytick_4">
     <g id="line2d_15">
      <path clip-path="url(#p0b6f915aa8)" d="M 71.51625 55.494168 
L 899.51625 55.494168 
" style="fill:none;stroke:#b0b0b0;stroke-linecap:square;stroke-width:0.8;"/>
     </g>
     <g id="line2d_16">
      <g>
       <use style="stroke:#000000;stroke-width:0.8;" x="71.51625" xlink:href="#ma28f009aac" y="55.494168"/>
      </g>
     </g>
     <g id="text_9">
      <!-- 30 -->
      <g transform="translate(35.599375 64.799324)scale(0.26 -0.26)">
       <use xlink:href="#ArialMT-51"/>
       <use x="55.615234" xlink:href="#ArialMT-48"/>
      </g>
     </g>
    </g>
    <g id="text_10">
     <!-- natural frequency (a.u.) -->
     <defs>
      <path d="M 6.59375 0 
L 6.59375 51.859375 
L 14.5 51.859375 
L 14.5 44.484375 
Q 20.21875 53.03125 31 53.03125 
Q 35.6875 53.03125 39.625 51.34375 
Q 43.5625 49.65625 45.515625 46.921875 
Q 47.46875 44.1875 48.25 40.4375 
Q 48.734375 37.984375 48.734375 31.890625 
L 48.734375 0 
L 39.9375 0 
L 39.9375 31.546875 
Q 39.9375 36.921875 38.90625 39.578125 
Q 37.890625 42.234375 35.28125 43.8125 
Q 32.671875 45.40625 29.15625 45.40625 
Q 23.53125 45.40625 19.453125 41.84375 
Q 15.375 38.28125 15.375 28.328125 
L 15.375 0 
z
" id="ArialMT-110"/>
      <path d="M 25.78125 7.859375 
L 27.046875 0.09375 
Q 23.34375 -0.6875 20.40625 -0.6875 
Q 15.625 -0.6875 12.984375 0.828125 
Q 10.359375 2.34375 9.28125 4.8125 
Q 8.203125 7.28125 8.203125 15.1875 
L 8.203125 45.015625 
L 1.765625 45.015625 
L 1.765625 51.859375 
L 8.203125 51.859375 
L 8.203125 64.703125 
L 16.9375 69.96875 
L 16.9375 51.859375 
L 25.78125 51.859375 
L 25.78125 45.015625 
L 16.9375 45.015625 
L 16.9375 14.703125 
Q 16.9375 10.9375 17.40625 9.859375 
Q 17.875 8.796875 18.921875 8.15625 
Q 19.96875 7.515625 21.921875 7.515625 
Q 23.390625 7.515625 25.78125 7.859375 
z
" id="ArialMT-116"/>
      <path d="M 40.578125 0 
L 40.578125 7.625 
Q 34.515625 -1.171875 24.125 -1.171875 
Q 19.53125 -1.171875 15.546875 0.578125 
Q 11.578125 2.34375 9.640625 5 
Q 7.71875 7.671875 6.9375 11.53125 
Q 6.390625 14.109375 6.390625 19.734375 
L 6.390625 51.859375 
L 15.1875 51.859375 
L 15.1875 23.09375 
Q 15.1875 16.21875 15.71875 13.8125 
Q 16.546875 10.359375 19.234375 8.375 
Q 21.921875 6.390625 25.875 6.390625 
Q 29.828125 6.390625 33.296875 8.421875 
Q 36.765625 10.453125 38.203125 13.9375 
Q 39.65625 17.4375 39.65625 24.078125 
L 39.65625 51.859375 
L 48.4375 51.859375 
L 48.4375 0 
z
" id="ArialMT-117"/>
      <path d="M 6.5 0 
L 6.5 51.859375 
L 14.40625 51.859375 
L 14.40625 44 
Q 17.4375 49.515625 20 51.265625 
Q 22.5625 53.03125 25.640625 53.03125 
Q 30.078125 53.03125 34.671875 50.203125 
L 31.640625 42.046875 
Q 28.421875 43.953125 25.203125 43.953125 
Q 22.3125 43.953125 20.015625 42.21875 
Q 17.71875 40.484375 16.75 37.40625 
Q 15.28125 32.71875 15.28125 27.15625 
L 15.28125 0 
z
" id="ArialMT-114"/>
      <path d="M 8.6875 0 
L 8.6875 45.015625 
L 0.921875 45.015625 
L 0.921875 51.859375 
L 8.6875 51.859375 
L 8.6875 57.375 
Q 8.6875 62.59375 9.625 65.140625 
Q 10.890625 68.5625 14.078125 70.671875 
Q 17.28125 72.796875 23.046875 72.796875 
Q 26.765625 72.796875 31.25 71.921875 
L 29.9375 64.265625 
Q 27.203125 64.75 24.75 64.75 
Q 20.75 64.75 19.09375 63.03125 
Q 17.4375 61.328125 17.4375 56.640625 
L 17.4375 51.859375 
L 27.546875 51.859375 
L 27.546875 45.015625 
L 17.4375 45.015625 
L 17.4375 0 
z
" id="ArialMT-102"/>
      <path d="M 39.65625 -19.875 
L 39.65625 5.515625 
Q 37.59375 2.640625 33.90625 0.734375 
Q 30.21875 -1.171875 26.078125 -1.171875 
Q 16.84375 -1.171875 10.171875 6.203125 
Q 3.515625 13.578125 3.515625 26.421875 
Q 3.515625 34.234375 6.21875 40.421875 
Q 8.9375 46.625 14.078125 49.828125 
Q 19.234375 53.03125 25.390625 53.03125 
Q 35.015625 53.03125 40.53125 44.921875 
L 40.53125 51.859375 
L 48.4375 51.859375 
L 48.4375 -19.875 
z
M 12.546875 26.078125 
Q 12.546875 16.0625 16.75 11.0625 
Q 20.953125 6.0625 26.8125 6.0625 
Q 32.421875 6.0625 36.46875 10.8125 
Q 40.53125 15.578125 40.53125 25.296875 
Q 40.53125 35.640625 36.25 40.859375 
Q 31.984375 46.09375 26.21875 46.09375 
Q 20.515625 46.09375 16.53125 41.234375 
Q 12.546875 36.375 12.546875 26.078125 
z
" id="ArialMT-113"/>
      <path d="M 40.4375 19 
L 49.078125 17.875 
Q 47.65625 8.9375 41.8125 3.875 
Q 35.984375 -1.171875 27.484375 -1.171875 
Q 16.84375 -1.171875 10.375 5.78125 
Q 3.90625 12.75 3.90625 25.734375 
Q 3.90625 34.125 6.6875 40.421875 
Q 9.46875 46.734375 15.15625 49.875 
Q 20.84375 53.03125 27.546875 53.03125 
Q 35.984375 53.03125 41.359375 48.75 
Q 46.734375 44.484375 48.25 36.625 
L 39.703125 35.296875 
Q 38.484375 40.53125 35.375 43.15625 
Q 32.28125 45.796875 27.875 45.796875 
Q 21.234375 45.796875 17.078125 41.03125 
Q 12.9375 36.28125 12.9375 25.984375 
Q 12.9375 15.53125 16.9375 10.796875 
Q 20.953125 6.0625 27.390625 6.0625 
Q 32.5625 6.0625 36.03125 9.234375 
Q 39.5 12.40625 40.4375 19 
z
" id="ArialMT-99"/>
      <path d="M 6.203125 -19.96875 
L 5.21875 -11.71875 
Q 8.109375 -12.5 10.25 -12.5 
Q 13.1875 -12.5 14.9375 -11.515625 
Q 16.703125 -10.546875 17.828125 -8.796875 
Q 18.65625 -7.46875 20.515625 -2.25 
Q 20.75 -1.515625 21.296875 -0.09375 
L 1.609375 51.859375 
L 11.078125 51.859375 
L 21.875 21.828125 
Q 23.96875 16.109375 25.640625 9.8125 
Q 27.15625 15.875 29.25 21.625 
L 40.328125 51.859375 
L 49.125 51.859375 
L 29.390625 -0.875 
Q 26.21875 -9.421875 24.46875 -12.640625 
Q 22.125 -17 19.09375 -19.015625 
Q 16.0625 -21.046875 11.859375 -21.046875 
Q 9.328125 -21.046875 6.203125 -19.96875 
z
" id="ArialMT-121"/>
      <path d="M 23.390625 -21.046875 
Q 16.109375 -11.859375 11.078125 0.4375 
Q 6.0625 12.75 6.0625 25.921875 
Q 6.0625 37.546875 9.8125 48.1875 
Q 14.203125 60.546875 23.390625 72.796875 
L 29.6875 72.796875 
Q 23.78125 62.640625 21.875 58.296875 
Q 18.890625 51.5625 17.1875 44.234375 
Q 15.09375 35.109375 15.09375 25.875 
Q 15.09375 2.390625 29.6875 -21.046875 
z
" id="ArialMT-40"/>
      <path d="M 9.078125 0 
L 9.078125 10.015625 
L 19.09375 10.015625 
L 19.09375 0 
z
" id="ArialMT-46"/>
      <path d="M 12.359375 -21.046875 
L 6.0625 -21.046875 
Q 20.65625 2.390625 20.65625 25.875 
Q 20.65625 35.0625 18.5625 44.09375 
Q 16.890625 51.421875 13.921875 58.15625 
Q 12.015625 62.546875 6.0625 72.796875 
L 12.359375 72.796875 
Q 21.53125 60.546875 25.921875 48.1875 
Q 29.6875 37.546875 29.6875 25.921875 
Q 29.6875 12.75 24.625 0.4375 
Q 19.578125 -11.859375 12.359375 -21.046875 
z
" id="ArialMT-41"/>
     </defs>
     <g transform="translate(26.127188 275.987188)rotate(-90)scale(0.26 -0.26)">
      <use xlink:href="#ArialMT-110"/>
      <use x="55.615234" xlink:href="#ArialMT-97"/>
      <use x="111.230469" xlink:href="#ArialMT-116"/>
      <use x="139.013672" xlink:href="#ArialMT-117"/>
      <use x="194.628906" xlink:href="#ArialMT-114"/>
      <use x="227.929688" xlink:href="#ArialMT-97"/>
      <use x="283.544922" xlink:href="#ArialMT-108"/>
      <use x="305.761719" xlink:href="#ArialMT-32"/>
      <use x="333.544922" xlink:href="#ArialMT-102"/>
      <use x="361.328125" xlink:href="#ArialMT-114"/>
      <use x="394.628906" xlink:href="#ArialMT-101"/>
      <use x="450.244141" xlink:href="#ArialMT-113"/>
      <use x="505.859375" xlink:href="#ArialMT-117"/>
      <use x="561.474609" xlink:href="#ArialMT-101"/>
      <use x="617.089844" xlink:href="#ArialMT-110"/>
      <use x="672.705078" xlink:href="#ArialMT-99"/>
      <use x="722.705078" xlink:href="#ArialMT-121"/>
      <use x="772.705078" xlink:href="#ArialMT-32"/>
      <use x="800.488281" xlink:href="#ArialMT-40"/>
      <use x="833.789062" xlink:href="#ArialMT-97"/>
      <use x="889.404297" xlink:href="#ArialMT-46"/>
      <use x="917.1875" xlink:href="#ArialMT-117"/>
      <use x="972.802734" xlink:href="#ArialMT-46"/>
      <use x="1000.585938" xlink:href="#ArialMT-41"/>
     </g>
    </g>
   </g>
   <g id="line2d_17">
    <path clip-path="url(#p0b6f915aa8)" d="M 109.152614 239.705332 
L 109.40369 235.845048 
L 109.654767 233.919381 
L 109.905843 232.953383 
L 110.407996 232.223499 
L 111.161225 231.971709 
L 111.914455 231.78611 
L 112.416608 231.482426 
L 112.918761 230.894981 
L 113.420914 229.848739 
L 114.676296 226.775762 
L 115.178449 226.002979 
L 116.182755 225.411764 
L 116.684908 225.337057 
L 117.438137 225.184948 
L 118.442443 224.804365 
L 119.446749 224.128482 
L 122.96182 218.489563 
L 123.212896 218.466357 
L 124.217202 217.53618 
L 125.221508 216.611874 
L 125.472585 216.552855 
L 125.974737 216.136921 
L 126.47689 215.859762 
L 127.23012 215.461853 
L 127.481196 215.150028 
L 127.732273 215.096451 
L 129.238732 213.581156 
L 129.740885 213.35766 
L 130.745191 212.555678 
L 131.247343 212.071545 
L 131.49842 212.246758 
L 132.000573 212.189269 
L 132.753802 211.993426 
L 133.004879 211.641894 
L 134.260261 211.689328 
L 134.762414 211.511842 
L 135.76672 210.447585 
L 136.268873 209.609263 
L 137.022102 208.530781 
L 137.524255 206.976561 
L 138.277485 203.954464 
L 139.030714 200.520642 
L 139.783944 197.979366 
L 140.03502 197.568033 
L 140.286097 196.607006 
L 140.537173 196.094151 
L 140.78825 195.324562 
L 141.039326 195.16298 
L 142.043632 193.741764 
L 142.294708 193.622832 
L 142.545785 193.715835 
L 142.796861 193.426956 
L 143.047938 193.38182 
L 143.550091 193.102333 
L 144.052244 192.951779 
L 144.30332 192.934748 
L 147.065161 191.188562 
L 147.567314 191.086367 
L 148.320544 189.65806 
L 149.827003 186.801379 
L 150.078079 186.121337 
L 150.329156 185.783818 
L 150.580232 185.067068 
L 150.831309 184.796135 
L 151.082385 184.809969 
L 151.333461 184.520616 
L 151.835614 183.383403 
L 152.588844 181.90653 
L 153.342073 180.60043 
L 153.59315 179.62814 
L 153.844226 179.15852 
L 154.095303 178.38247 
L 154.346379 178.014555 
L 154.597456 178.094277 
L 154.848532 177.783231 
L 155.350685 176.623339 
L 155.601762 176.015837 
L 155.852838 175.90116 
L 156.606067 174.665299 
L 156.857144 174.489491 
L 157.10822 174.465182 
L 157.359297 174.601988 
L 158.112526 174.380495 
L 158.614679 174.026784 
L 163.134056 174.122224 
L 163.636209 174.033932 
L 164.389438 173.732544 
L 165.393744 172.80243 
L 166.146974 172.293132 
L 166.39805 172.076773 
L 166.649126 171.578171 
L 166.900203 170.649463 
L 167.402356 170.241135 
L 167.904509 169.419298 
L 168.406662 168.013161 
L 168.657738 167.914958 
L 169.662044 165.959493 
L 169.913121 164.989546 
L 170.164197 164.543169 
L 170.415274 164.423922 
L 170.66635 163.829521 
L 171.419579 163.721178 
L 171.670656 163.525951 
L 171.921732 163.597003 
L 172.674962 163.249202 
L 172.926038 163.343904 
L 173.428191 162.983055 
L 174.432497 162.029733 
L 174.683574 162.173691 
L 174.93465 162.091019 
L 175.185727 161.69062 
L 175.436803 161.072742 
L 175.938956 160.668751 
L 176.190033 160.689944 
L 176.441109 160.427848 
L 176.943262 159.586457 
L 177.194338 159.299359 
L 177.445415 159.18215 
L 178.449721 157.232556 
L 178.951874 155.716827 
L 179.95618 151.789386 
L 180.207256 150.956799 
L 180.458333 150.680427 
L 180.960486 149.869201 
L 181.211562 148.810023 
L 181.713715 148.271449 
L 181.964791 148.328636 
L 183.220174 147.15802 
L 183.47125 147.124351 
L 184.475556 146.23853 
L 184.977709 146.23848 
L 185.479862 145.870139 
L 185.982015 145.860013 
L 186.484168 146.023689 
L 186.735244 145.414541 
L 186.986321 145.605983 
L 187.990627 145.505036 
L 188.241703 145.029163 
L 189.497086 144.502322 
L 189.748162 143.701351 
L 190.250315 143.050368 
L 190.501392 142.766928 
L 190.752468 142.276123 
L 191.003545 142.386549 
L 191.254621 142.368049 
L 191.505698 142.133087 
L 192.00785 141.240897 
L 192.258927 140.89649 
L 192.76108 140.636905 
L 193.012156 140.321589 
L 193.263233 140.260521 
L 194.267539 139.025977 
L 194.518615 139.081273 
L 194.769692 138.941175 
L 195.020768 138.991543 
L 195.522921 138.785462 
L 196.276151 138.667393 
L 196.527227 138.447975 
L 196.778303 137.970179 
L 197.280456 137.811073 
L 197.531533 137.642532 
L 197.782609 137.273704 
L 198.033686 137.244213 
L 198.284762 136.678886 
L 198.535839 136.421379 
L 198.786915 135.932746 
L 199.791221 133.297383 
L 200.293374 130.193508 
L 200.544451 129.843487 
L 200.795527 129.790108 
L 201.799833 127.039654 
L 202.050909 127.150713 
L 202.804139 124.31852 
L 203.055215 123.866066 
L 203.557368 122.3718 
L 204.059521 121.545267 
L 204.310598 121.577039 
L 204.561674 121.129062 
L 205.314904 120.85468 
L 206.570286 120.834623 
L 207.574592 120.768018 
L 208.327821 120.593671 
L 210.58751 120.447767 
L 210.838586 120.401447 
L 211.089663 120.473968 
L 211.340739 120.420364 
L 211.591816 120.579445 
L 212.345045 119.634849 
L 212.847198 118.918678 
L 213.349351 117.497553 
L 213.600427 115.948391 
L 214.10258 115.20402 
L 214.353657 113.867912 
L 214.604733 113.578236 
L 216.362269 110.071408 
L 216.864422 108.723227 
L 217.115498 108.366442 
L 217.366574 108.21209 
L 217.868727 107.614204 
L 218.119804 107.693112 
L 218.621957 107.452715 
L 218.873033 107.508805 
L 219.375186 107.243187 
L 219.626263 107.191975 
L 219.877339 107.388118 
L 220.128416 107.257838 
L 221.383798 107.30538 
L 221.885951 107.11989 
L 222.388104 107.085538 
L 222.890257 106.934696 
L 224.396716 106.826123 
L 224.647792 106.655713 
L 224.898869 106.770699 
L 225.401022 106.437573 
L 225.652098 106.482843 
L 225.903175 106.384708 
L 226.405328 106.034055 
L 226.907481 105.755822 
L 227.911786 105.679485 
L 228.413939 105.381651 
L 228.665016 105.325752 
L 229.167169 105.463439 
L 229.669322 105.478767 
L 230.171475 105.474129 
L 230.422551 105.551455 
L 231.92901 105.211049 
L 232.933316 105.236766 
L 233.937622 105.146974 
L 234.941928 105.295902 
L 236.19731 104.866335 
L 236.95054 104.463042 
L 237.452692 104.209834 
L 238.708075 103.7021 
L 238.959151 103.554624 
L 239.210228 103.118443 
L 239.461304 103.029686 
L 240.214534 102.300956 
L 240.46561 101.927608 
L 240.716687 102.021849 
L 241.469916 101.207153 
L 241.720993 101.053194 
L 241.972069 101.031402 
L 242.725298 100.233477 
L 242.976375 100.30658 
L 243.227451 100.230875 
L 243.478528 100.029717 
L 243.980681 100.116042 
L 244.482834 99.762606 
L 244.73391 99.759297 
L 245.236063 99.364905 
L 245.48714 99.003336 
L 245.738216 99.017626 
L 246.240369 98.632689 
L 246.491446 98.761467 
L 246.993599 98.588959 
L 247.244675 98.548327 
L 247.495751 98.753299 
L 247.997904 98.581649 
L 248.248981 98.606841 
L 248.751134 98.136135 
L 249.75544 98.104427 
L 250.257593 98.214271 
L 250.759746 98.087706 
L 251.261899 98.147857 
L 252.015128 98.161747 
L 252.768357 98.149045 
L 255.028046 98.101128 
L 255.279122 98.183635 
L 256.534505 97.969615 
L 257.036658 97.613884 
L 257.287734 97.682144 
L 258.29204 97.23508 
L 258.543116 97.00134 
L 258.794193 96.985957 
L 259.296346 96.354597 
L 259.547422 95.968714 
L 259.798499 96.369097 
L 260.802805 94.537876 
L 261.053881 93.987035 
L 261.304958 94.083263 
L 261.556034 93.760781 
L 261.807111 93.853077 
L 262.309264 93.652603 
L 262.811416 93.061788 
L 263.062493 93.236773 
L 263.313569 93.169114 
L 263.815722 92.656502 
L 264.066799 92.286412 
L 264.568952 92.044774 
L 264.820028 91.908538 
L 265.071105 91.984261 
L 265.322181 91.928181 
L 266.075411 92.098327 
L 266.326487 92.304328 
L 266.82864 92.131342 
L 267.58187 92.044137 
L 268.586175 91.887298 
L 268.837252 92.015849 
L 269.590481 91.956534 
L 272.603399 91.85035 
L 273.607705 91.768972 
L 277.876005 91.708416 
L 280.135693 91.711368 
L 315.2864 91.667978 
L 361.484471 91.776099 
L 366.254924 91.965278 
L 384.834583 92.135296 
L 410.444384 92.082031 
L 525.43741 92.052591 
L 552.302592 91.998965 
L 750.904084 92.033761 
L 769.73482 92.023427 
L 803.127991 91.939191 
L 850.581445 91.929497 
L 861.879886 91.921868 
L 861.879886 91.921868 
" style="fill:none;stroke:#1f77b4;stroke-linecap:square;stroke-width:1.5;"/>
   </g>
   <g id="line2d_18">
    <path clip-path="url(#p0b6f915aa8)" d="M 109.152614 240.177103 
L 109.40369 236.548113 
L 109.654767 234.729759 
L 109.905843 233.813828 
L 110.407996 233.113477 
L 111.161225 232.833741 
L 111.914455 232.525941 
L 112.416608 232.035439 
L 112.918761 231.150402 
L 114.42522 227.484946 
L 115.178449 226.588526 
L 115.931678 226.216059 
L 117.187061 225.871728 
L 117.94029 225.577052 
L 118.69352 225.117963 
L 119.697826 224.090324 
L 121.204284 221.833409 
L 121.706437 221.377622 
L 122.20859 220.98612 
L 123.715049 219.978645 
L 124.217202 219.826254 
L 125.723661 218.65153 
L 126.727967 218.001146 
L 127.23012 217.90121 
L 127.481196 217.709289 
L 127.732273 217.671779 
L 128.987655 216.385295 
L 129.489808 216.037658 
L 130.243038 215.794553 
L 130.996267 215.267463 
L 131.749496 214.731791 
L 132.000573 214.789117 
L 132.502726 214.523381 
L 133.004879 214.258916 
L 133.255955 214.039409 
L 133.758108 213.026121 
L 134.009185 213.009409 
L 135.264567 211.039867 
L 137.273179 209.646842 
L 137.524255 209.591157 
L 138.026408 209.368823 
L 138.277485 209.394306 
L 138.779638 209.232019 
L 140.286097 209.068595 
L 141.290402 208.978216 
L 143.299014 208.218306 
L 144.052244 207.351699 
L 144.554397 206.868689 
L 144.805473 206.967708 
L 145.05655 206.85948 
L 145.809779 205.88265 
L 146.060855 205.750991 
L 146.814085 204.702367 
L 147.818391 204.231762 
L 148.320544 203.431993 
L 148.822697 203.200246 
L 149.073773 203.221009 
L 149.32485 203.050433 
L 149.575926 203.025736 
L 150.580232 202.446264 
L 150.831309 202.50556 
L 152.337767 201.965488 
L 153.59315 201.708961 
L 153.844226 201.590895 
L 154.346379 201.60075 
L 154.597456 201.411192 
L 156.103915 201.327565 
L 156.606067 201.185789 
L 157.10822 200.919032 
L 157.610373 200.92719 
L 158.112526 200.511513 
L 158.363603 200.472543 
L 158.614679 200.293946 
L 158.865756 200.44054 
L 159.116832 200.071838 
L 159.367909 199.480518 
L 160.121138 198.630329 
L 160.372215 198.527821 
L 160.623291 198.134239 
L 160.874368 198.227801 
L 161.125444 197.79206 
L 161.627597 196.458457 
L 162.12975 195.709102 
L 162.631903 194.85331 
L 163.636209 193.757441 
L 163.887285 193.940093 
L 164.640515 193.793448 
L 164.891591 193.85015 
L 165.895897 193.666898 
L 167.904509 193.672445 
L 169.410968 193.682171 
L 170.66635 193.276594 
L 171.670656 192.547678 
L 172.172809 191.687589 
L 172.423885 191.71779 
L 172.926038 190.925439 
L 173.428191 190.695199 
L 173.679268 190.222201 
L 173.930344 190.013519 
L 174.181421 189.98662 
L 174.432497 189.340545 
L 174.683574 189.290928 
L 174.93465 189.095194 
L 175.68788 187.584961 
L 175.938956 187.274895 
L 176.441109 185.976363 
L 176.692185 185.728674 
L 176.943262 185.068944 
L 177.445415 183.46226 
L 178.198644 180.835107 
L 178.449721 180.608515 
L 179.20295 178.440013 
L 179.454027 178.104286 
L 179.705103 177.3697 
L 180.207256 176.497043 
L 180.960486 174.984097 
L 181.211562 174.677155 
L 181.964791 173.235187 
L 182.215868 173.248149 
L 182.718021 172.809031 
L 182.969097 172.529928 
L 183.722327 172.252595 
L 183.973403 172.126522 
L 184.22448 172.148238 
L 184.977709 171.756778 
L 185.228786 171.474101 
L 185.479862 171.517708 
L 185.730939 171.375278 
L 186.233092 171.389586 
L 186.735244 171.179342 
L 187.237397 170.855386 
L 187.488474 170.467997 
L 188.241703 170.182966 
L 189.748162 169.277537 
L 189.999239 168.841873 
L 190.250315 168.140761 
L 190.752468 167.936258 
L 191.003545 167.473984 
L 191.505698 167.122004 
L 192.00785 166.611061 
L 192.258927 166.652329 
L 192.510003 166.385432 
L 193.012156 166.201695 
L 193.263233 166.245544 
L 193.514309 165.976663 
L 194.016462 166.100023 
L 194.518615 165.977263 
L 195.271845 165.853236 
L 195.773998 165.800217 
L 203.055215 165.720337 
L 203.306292 165.521421 
L 203.557368 165.564282 
L 204.310598 165.13549 
L 204.812751 164.372573 
L 205.817057 162.090602 
L 206.31921 160.13026 
L 206.570286 159.375189 
L 207.323515 154.84731 
L 208.327821 147.833233 
L 208.829974 143.816073 
L 209.332127 139.904493 
L 210.085357 135.746643 
L 210.336433 135.546278 
L 211.591816 130.186877 
L 212.345045 128.955563 
L 213.349351 128.176904 
L 213.851504 128.26056 
L 214.353657 128.28427 
L 214.604733 128.28653 
L 215.106886 127.67982 
L 215.357963 127.772295 
L 215.860116 126.856228 
L 216.111192 126.472419 
L 217.366574 121.643283 
L 217.617651 121.085585 
L 218.37088 118.514739 
L 218.873033 117.362859 
L 219.12411 116.222738 
L 219.375186 115.775589 
L 219.626263 115.66316 
L 220.630569 113.799911 
L 221.132722 113.514129 
L 221.383798 113.486666 
L 222.388104 112.990287 
L 225.652098 112.893346 
L 225.903175 112.791575 
L 226.405328 112.798897 
L 227.158557 112.817606 
L 227.66071 112.396096 
L 227.911786 112.476109 
L 228.162863 112.431423 
L 228.665016 112.016194 
L 229.167169 112.126748 
L 229.418245 112.040613 
L 229.669322 112.282866 
L 230.171475 112.178849 
L 230.673628 111.975061 
L 230.924704 112.024549 
L 231.426857 111.718865 
L 233.435469 111.415549 
L 233.937622 111.454663 
L 235.444081 111.071693 
L 235.946234 110.875003 
L 236.448387 110.961483 
L 237.452692 110.481315 
L 237.703769 110.549077 
L 238.456998 110.493373 
L 240.716687 110.3473 
L 242.223146 110.388841 
L 245.48714 110.403736 
L 255.279122 110.304306 
L 256.032352 110.299197 
L 256.534505 110.301817 
L 257.287734 110.280705 
L 257.53881 110.395737 
L 258.040963 110.31424 
L 259.296346 110.278668 
L 260.300652 110.259804 
L 261.053881 109.936338 
L 261.556034 110.029428 
L 262.309264 109.974622 
L 262.811416 109.99819 
L 263.062493 109.884901 
L 263.564646 109.889364 
L 264.066799 109.814645 
L 264.568952 109.779164 
L 265.573258 109.739627 
L 266.326487 109.690982 
L 267.58187 109.747428 
L 269.339405 109.743401 
L 269.841558 109.783564 
L 276.620623 109.767409 
L 286.412605 109.65873 
L 287.165835 109.658972 
L 287.667988 109.714133 
L 289.174446 109.651446 
L 294.698129 109.456165 
L 297.962123 109.385145 
L 298.464276 109.386213 
L 299.719658 109.400595 
L 300.472888 109.372437 
L 301.979347 109.31817 
L 304.741188 109.284595 
L 305.99657 109.200514 
L 308.507335 109.216867 
L 312.524559 109.080098 
L 313.528864 109.092848 
L 314.282094 109.116553 
L 315.537476 109.171014 
L 319.5547 109.112822 
L 344.662347 109.109348 
L 350.688183 109.127262 
L 359.726936 109.129276 
L 361.484471 108.580357 
L 366.254924 106.898785 
L 368.765689 106.677787 
L 370.774301 106.515992 
L 373.033989 106.150761 
L 374.540448 105.68079 
L 377.302289 104.713305 
L 378.306595 104.609944 
L 379.059825 104.688219 
L 380.06413 105.048248 
L 381.570589 105.87183 
L 386.341042 108.86547 
L 388.098578 109.678185 
L 390.358266 110.394077 
L 392.366878 110.768759 
L 398.64379 111.450274 
L 400.652401 111.421761 
L 402.91209 111.117446 
L 404.920701 110.623615 
L 407.18039 109.848831 
L 409.691154 109.02276 
L 411.44869 108.665263 
L 413.457302 108.499539 
L 416.219143 108.522851 
L 423.751437 108.783667 
L 428.52189 108.653321 
L 436.556337 108.877064 
L 446.850473 109.238402 
L 448.356932 108.937496 
L 449.863391 108.38925 
L 455.135996 106.212175 
L 457.144608 105.87037 
L 460.157526 105.675901 
L 465.179056 105.403613 
L 471.204891 105.057511 
L 475.975344 105.132764 
L 484.009791 105.664435 
L 490.035627 106.077247 
L 494.05285 106.078781 
L 505.602368 105.847217 
L 515.896504 105.884023 
L 523.177721 106.015003 
L 531.965398 106.384062 
L 538.493386 106.564339 
L 591.470523 107.111625 
L 610.050182 106.846885 
L 621.348623 106.940519 
L 628.880917 106.949895 
L 639.175053 107.040747 
L 644.949812 107.006893 
L 654.992871 106.882475 
L 660.0144 107.023545 
L 667.797771 107.293988 
L 675.078989 107.237395 
L 682.611283 107.191136 
L 700.186636 107.50635 
L 708.47216 107.48372 
L 722.281366 107.694203 
L 728.056125 107.73647 
L 740.358872 107.951063 
L 747.389014 107.765942 
L 753.163773 107.697237 
L 759.440684 107.890394 
L 765.717596 108.023138 
L 799.863997 108.05253 
L 812.919974 108.1636 
L 819.699039 108.154312 
L 836.772239 108.484607 
L 848.07068 108.354067 
L 861.879886 108.60768 
L 861.879886 108.60768 
" style="fill:none;stroke:#ff7f0e;stroke-linecap:square;stroke-width:1.5;"/>
   </g>
   <g id="line2d_19">
    <path clip-path="url(#p0b6f915aa8)" d="M 109.152614 239.991011 
L 109.40369 236.270125 
L 109.654767 234.406497 
L 109.905843 233.467424 
L 110.407996 232.745487 
L 111.161225 232.468926 
L 111.914455 232.2099 
L 112.416608 231.803828 
L 112.918761 231.023161 
L 113.420914 229.84195 
L 114.174143 227.872793 
L 114.676296 227.053332 
L 115.178449 226.469762 
L 115.680602 226.148071 
L 116.182755 225.944235 
L 116.935984 225.812102 
L 118.69352 225.276782 
L 119.195673 224.983961 
L 120.953208 222.55897 
L 121.455361 221.989992 
L 122.20859 221.228938 
L 122.459667 221.189222 
L 123.212896 220.655463 
L 123.966126 220.313327 
L 125.221508 219.973563 
L 126.47689 219.587409 
L 127.23012 219.429135 
L 127.732273 219.326487 
L 128.234426 219.263549 
L 128.987655 218.877048 
L 129.238732 218.52084 
L 130.243038 218.060707 
L 131.247343 216.667791 
L 131.49842 216.922902 
L 131.749496 216.931281 
L 132.000573 216.803311 
L 132.502726 216.092679 
L 133.758108 214.558787 
L 134.009185 214.516875 
L 134.260261 214.008549 
L 134.511338 213.977822 
L 134.762414 213.468243 
L 135.515644 212.968361 
L 135.76672 212.602011 
L 136.017796 212.457287 
L 137.524255 210.74123 
L 138.277485 210.406275 
L 139.030714 210.050523 
L 139.281791 209.920702 
L 139.783944 209.529776 
L 140.286097 209.458511 
L 141.792555 209.267906 
L 142.545785 209.002889 
L 142.796861 208.82028 
L 143.299014 208.851547 
L 143.550091 208.748105 
L 144.052244 208.317042 
L 144.30332 208.319566 
L 145.558703 206.949966 
L 145.809779 206.515549 
L 146.060855 206.338649 
L 146.311932 205.948013 
L 146.563008 205.922807 
L 146.814085 205.628903 
L 147.567314 204.157164 
L 147.818391 203.816586 
L 148.069467 203.153725 
L 149.575926 201.816497 
L 150.329156 200.948566 
L 150.831309 200.781406 
L 151.333461 200.466765 
L 151.584538 200.433146 
L 151.835614 200.544474 
L 152.83992 200.271741 
L 153.090997 199.988663 
L 153.844226 199.680889 
L 155.350685 197.965726 
L 155.852838 196.280606 
L 156.354991 195.147476 
L 156.606067 194.959712 
L 157.359297 191.418152 
L 157.610373 190.646022 
L 158.112526 188.79957 
L 159.116832 185.042009 
L 159.870062 182.034942 
L 160.121138 181.671695 
L 160.372215 180.915334 
L 160.623291 180.826389 
L 161.125444 180.283689 
L 161.627597 179.585172 
L 162.12975 179.271315 
L 163.385132 179.254593 
L 164.640515 179.317169 
L 165.142668 179.406441 
L 166.900203 178.996376 
L 167.653432 178.871023 
L 169.159891 178.900024 
L 170.164197 178.833364 
L 170.415274 179.023929 
L 171.168503 178.777907 
L 171.670656 178.205798 
L 172.172809 178.135078 
L 172.423885 178.296416 
L 173.930344 177.665187 
L 174.432497 177.329752 
L 174.683574 177.327353 
L 174.93465 177.480659 
L 176.190033 177.336703 
L 176.692185 177.263935 
L 179.454027 177.345763 
L 179.95618 177.405623 
L 180.207256 177.346451 
L 180.709409 177.476361 
L 181.211562 177.099081 
L 181.462639 176.641617 
L 181.713715 176.520652 
L 182.215868 175.308606 
L 182.718021 173.159673 
L 183.973403 164.79902 
L 184.726633 162.078389 
L 185.228786 158.908183 
L 185.479862 157.929431 
L 185.730939 157.625762 
L 186.484168 155.484814 
L 186.986321 154.737896 
L 187.488474 153.622114 
L 187.73955 152.787443 
L 188.49278 152.349525 
L 188.994933 152.203137 
L 189.748162 150.859583 
L 189.999239 150.601686 
L 190.250315 150.568207 
L 190.501392 150.072305 
L 191.003545 149.998969 
L 191.254621 149.945108 
L 191.756774 149.316211 
L 192.00785 149.173731 
L 192.258927 149.194544 
L 192.510003 149.037821 
L 193.514309 149.035123 
L 194.267539 149.062342 
L 194.769692 149.091564 
L 195.020768 148.980982 
L 195.773998 148.942906 
L 196.025074 148.936672 
L 196.276151 148.710687 
L 196.527227 148.75192 
L 197.280456 148.372985 
L 197.531533 147.984976 
L 197.782609 147.827375 
L 198.033686 147.324661 
L 198.284762 147.331507 
L 198.535839 147.473291 
L 199.289068 146.400694 
L 200.042298 146.074574 
L 200.293374 145.654922 
L 200.544451 145.734898 
L 201.548757 145.398761 
L 201.799833 145.14028 
L 202.553062 145.081223 
L 203.055215 144.938883 
L 203.557368 144.851672 
L 204.059521 144.721668 
L 204.310598 144.502274 
L 204.561674 144.456594 
L 206.068133 142.149586 
L 206.31921 141.309079 
L 206.570286 141.34216 
L 207.574592 137.833839 
L 208.829974 132.015163 
L 209.081051 130.676256 
L 209.332127 130.111109 
L 209.583204 129.259968 
L 209.83428 129.097252 
L 210.336433 127.599178 
L 210.58751 127.165874 
L 210.838586 127.104592 
L 211.089663 126.743061 
L 211.340739 126.593181 
L 211.591816 126.586527 
L 212.093968 126.403925 
L 212.596121 126.353701 
L 213.600427 126.318256 
L 214.353657 125.943134 
L 214.604733 125.642327 
L 214.85581 124.99508 
L 215.106886 124.704529 
L 215.357963 124.01514 
L 215.609039 123.660666 
L 215.860116 123.738138 
L 216.864422 122.23274 
L 217.115498 121.364783 
L 217.617651 120.638945 
L 218.119804 120.600688 
L 218.621957 119.888371 
L 219.12411 119.665842 
L 219.877339 119.492486 
L 220.379492 119.334103 
L 221.885951 119.256973 
L 222.388104 119.222792 
L 222.63918 118.953399 
L 223.141333 118.822119 
L 224.396716 117.254453 
L 224.898869 115.692687 
L 225.903175 114.124356 
L 226.154251 113.519257 
L 226.405328 113.321142 
L 226.656404 112.839376 
L 226.907481 112.662904 
L 227.409633 111.80015 
L 227.911786 111.284021 
L 228.162863 111.057277 
L 228.413939 110.52574 
L 228.665016 110.305322 
L 228.916092 110.302689 
L 229.920398 109.486621 
L 230.171475 109.525151 
L 230.673628 109.359481 
L 231.92901 109.341176 
L 237.201616 109.107159 
L 237.703769 108.967102 
L 238.205922 108.477887 
L 238.456998 108.631053 
L 238.708075 108.456734 
L 238.959151 108.590823 
L 239.210228 108.084964 
L 239.712381 107.942054 
L 239.963457 107.35912 
L 240.46561 106.954337 
L 240.716687 106.857837 
L 240.967763 106.487095 
L 241.21884 106.597112 
L 241.469916 106.451156 
L 241.720993 106.104786 
L 241.972069 106.050519 
L 242.976375 105.427298 
L 243.227451 105.532106 
L 243.729604 105.192612 
L 244.231757 104.83484 
L 244.73391 105.075272 
L 245.236063 105.131254 
L 245.48714 105.060306 
L 245.989293 104.638851 
L 246.491446 104.561564 
L 249.75544 104.196411 
L 250.508669 104.106476 
L 250.759746 103.990599 
L 251.010822 104.066512 
L 251.512975 103.834973 
L 251.764052 103.985874 
L 252.015128 103.869169 
L 252.517281 103.294125 
L 252.768357 103.421501 
L 253.521587 102.122274 
L 253.772663 102.315796 
L 254.02374 102.334615 
L 254.274816 101.696124 
L 254.525893 101.798661 
L 254.776969 101.461374 
L 255.028046 101.416513 
L 255.781275 100.612965 
L 256.283428 100.70749 
L 256.534505 100.448746 
L 256.785581 100.528618 
L 257.036658 100.421277 
L 257.287734 100.510938 
L 258.794193 100.126331 
L 259.296346 100.160605 
L 259.798499 99.938074 
L 260.802805 99.817466 
L 262.309264 99.713842 
L 264.568952 99.779393 
L 277.122776 99.666676 
L 278.127081 99.615433 
L 278.629234 99.614693 
L 280.135693 99.544082 
L 280.637846 99.545408 
L 281.139999 99.467042 
L 282.144305 99.551347 
L 284.152917 99.606297 
L 288.421217 99.557819 
L 288.92337 99.505132 
L 289.927676 99.607548 
L 293.442746 99.521765 
L 305.243341 99.542899 
L 307.251953 99.540346 
L 309.009488 99.484588 
L 310.013794 99.48504 
L 340.394047 99.457334 
L 347.926342 99.463668 
L 353.701101 99.446952 
L 355.709712 99.480382 
L 356.965095 99.46946 
L 359.726936 99.485426 
L 360.731242 102.469891 
L 361.735548 104.662113 
L 362.739854 106.316403 
L 363.74416 107.500388 
L 364.748465 108.350315 
L 365.752771 108.936703 
L 367.008154 109.389866 
L 368.514613 109.673982 
L 370.523224 109.813616 
L 376.297983 109.860674 
L 380.566283 110.073066 
L 386.341042 110.353621 
L 399.397019 110.589465 
L 411.197613 111.58915 
L 414.461608 112.033181 
L 416.219143 112.094353 
L 417.474525 111.928137 
L 418.729908 111.537032 
L 419.98529 110.882472 
L 421.491749 109.769505 
L 423.500361 107.92253 
L 425.760049 105.941974 
L 427.266508 104.909214 
L 428.270814 104.381006 
L 430.028349 103.663004 
L 431.534808 103.282388 
L 434.296649 102.917206 
L 436.807414 102.789788 
L 443.084326 102.767374 
L 448.859085 102.760896 
L 450.61662 102.51802 
L 452.374155 102.049396 
L 454.633844 101.201085 
L 460.408602 98.979576 
L 465.179056 97.679143 
L 468.945203 96.941295 
L 470.702738 96.760834 
L 473.464579 96.809024 
L 476.22642 97.183008 
L 483.005485 98.402987 
L 486.018403 98.675229 
L 489.282397 98.806159 
L 495.057156 99.110735 
L 501.585144 99.815906 
L 505.853444 100.148836 
L 510.121745 100.202943 
L 527.446021 99.620799 
L 536.986927 99.243965 
L 557.826275 98.892908 
L 564.103187 99.162257 
L 578.665622 99.801936 
L 589.461911 100.131126 
L 601.513582 100.187221 
L 609.799105 100.01787 
L 612.058794 100.038244 
L 616.076017 100.073311 
L 621.348623 99.87501 
L 631.893835 99.48027 
L 637.91967 99.566032 
L 644.949812 99.621572 
L 655.495024 99.567495 
L 670.810689 100.047088 
L 680.602671 100.218291 
L 691.39896 100.406662 
L 861.879886 100.032508 
L 861.879886 100.032508 
" style="fill:none;stroke:#2ca02c;stroke-linecap:square;stroke-width:1.5;"/>
   </g>
   <g id="line2d_20">
    <path clip-path="url(#p0b6f915aa8)" d="M 109.152614 238.820565 
L 109.40369 234.52834 
L 109.654767 232.38599 
L 109.905843 231.318928 
L 110.15692 230.788608 
L 110.659072 230.402346 
L 112.416608 229.826084 
L 112.918761 229.089665 
L 113.420914 227.485812 
L 113.923067 224.580119 
L 115.429526 213.929405 
L 115.931678 212.119918 
L 116.684908 210.84339 
L 116.935984 210.704269 
L 117.187061 210.702269 
L 117.94029 210.38863 
L 118.442443 210.106369 
L 118.944596 209.531832 
L 120.451055 207.373177 
L 120.953208 205.571144 
L 121.204284 204.8827 
L 121.957514 201.763171 
L 122.96182 198.366514 
L 123.463973 196.289985 
L 124.217202 194.613103 
L 124.468279 193.622922 
L 126.47689 190.942141 
L 127.481196 190.184472 
L 128.736579 188.946979 
L 129.238732 188.536793 
L 129.740885 187.581769 
L 130.243038 187.248938 
L 130.745191 185.52533 
L 130.996267 184.934587 
L 132.753802 177.831098 
L 133.255955 176.955837 
L 133.758108 175.722961 
L 134.260261 174.513656 
L 134.511338 174.5166 
L 135.013491 173.050399 
L 135.515644 172.52593 
L 136.268873 171.660277 
L 136.771026 170.790329 
L 137.273179 170.648579 
L 138.026408 169.05237 
L 138.779638 167.050368 
L 139.030714 166.681708 
L 139.532867 165.188299 
L 139.783944 164.919465 
L 140.03502 164.429791 
L 141.541479 159.88001 
L 141.792555 159.513042 
L 142.294708 158.286952 
L 142.545785 157.999645 
L 143.299014 156.197194 
L 143.550091 155.925418 
L 144.052244 154.813705 
L 144.30332 154.653097 
L 144.805473 153.550257 
L 145.307626 153.083858 
L 146.060855 151.407375 
L 147.065161 148.827801 
L 147.567314 147.453617 
L 149.32485 141.336619 
L 149.575926 140.843986 
L 150.831309 137.093343 
L 151.082385 136.717264 
L 151.584538 134.942765 
L 151.835614 134.531745 
L 152.086691 133.83635 
L 152.83992 132.999386 
L 153.090997 132.416865 
L 153.342073 132.337621 
L 154.597456 131.095114 
L 155.601762 130.226877 
L 156.606067 128.617721 
L 156.857144 127.931488 
L 157.10822 127.684575 
L 158.112526 125.737679 
L 158.614679 123.640659 
L 159.367909 121.369086 
L 160.623291 118.165229 
L 160.874368 117.156267 
L 161.125444 116.932022 
L 161.627597 115.53222 
L 161.878673 114.218894 
L 162.12975 113.528541 
L 162.882979 110.72516 
L 163.134056 110.405373 
L 164.891591 105.393913 
L 165.142668 105.177995 
L 165.895897 104.003552 
L 166.649126 103.26128 
L 167.151279 102.251725 
L 167.653432 102.114109 
L 169.159891 101.501889 
L 169.662044 101.489095 
L 170.415274 100.579642 
L 170.917427 99.318926 
L 171.168503 99.433438 
L 171.921732 98.241885 
L 172.423885 96.309421 
L 173.177115 94.113756 
L 173.428191 93.966733 
L 173.930344 92.651095 
L 174.93465 89.759653 
L 175.185727 89.329613 
L 175.436803 88.484621 
L 175.68788 88.04825 
L 175.938956 87.319078 
L 176.190033 87.049825 
L 176.692185 86.9437 
L 176.943262 86.692058 
L 177.445415 86.799578 
L 177.696491 86.301072 
L 177.947568 86.050153 
L 178.198644 86.174946 
L 178.700797 85.836324 
L 180.207256 85.440056 
L 180.458333 85.306061 
L 180.709409 85.369439 
L 181.211562 85.280508 
L 182.718021 85.270154 
L 187.237397 85.217897 
L 187.73955 85.056503 
L 187.990627 84.810568 
L 188.241703 85.063836 
L 189.497086 83.840864 
L 190.250315 83.809748 
L 190.501392 83.487714 
L 191.756774 83.236107 
L 192.00785 83.222449 
L 192.510003 82.951573 
L 194.769692 82.128464 
L 195.020768 82.202193 
L 196.276151 81.890401 
L 197.02938 81.468102 
L 197.531533 81.442228 
L 198.033686 81.067152 
L 199.037992 81.293894 
L 199.791221 80.760522 
L 200.293374 80.867872 
L 200.544451 80.833565 
L 200.795527 80.511026 
L 201.29768 80.409809 
L 202.050909 79.857356 
L 203.557368 78.908439 
L 204.310598 78.724917 
L 204.561674 78.65211 
L 204.812751 78.713127 
L 205.063827 78.655601 
L 205.314904 78.741421 
L 207.072439 78.172145 
L 208.076745 78.087817 
L 210.58751 77.955471 
L 216.613345 77.922036 
L 218.621957 77.840493 
L 219.375186 77.850686 
L 220.881645 77.535687 
L 221.132722 77.393589 
L 222.388104 77.47835 
L 231.426857 77.569408 
L 359.978012 77.496409 
L 361.986624 77.398895 
L 366.757077 77.539898 
L 374.038295 77.56806 
L 398.894866 77.777386 
L 409.440078 77.970982 
L 426.011125 77.912363 
L 462.417214 77.457928 
L 510.121745 77.405928 
L 595.487746 77.486409 
L 634.4046 77.639714 
L 643.945506 77.705938 
L 733.077655 77.637104 
L 745.129325 77.695675 
L 769.232667 77.620649 
L 818.945809 77.636923 
L 847.819604 77.632651 
L 861.879886 77.688126 
L 861.879886 77.688126 
" style="fill:none;stroke:#d62728;stroke-linecap:square;stroke-width:1.5;"/>
   </g>
   <g id="line2d_21">
    <path clip-path="url(#p0b6f915aa8)" d="M 109.152614 237.371843 
L 109.40369 232.34645 
L 109.654767 229.82046 
L 109.905843 228.547194 
L 110.407996 227.520667 
L 111.412302 226.385096 
L 111.663378 225.798905 
L 111.914455 224.920929 
L 112.165531 223.563136 
L 112.667684 218.84036 
L 113.169837 211.089776 
L 114.174143 194.682636 
L 114.676296 189.438204 
L 115.178449 186.020393 
L 115.680602 183.810999 
L 116.433831 181.611159 
L 118.191367 177.248439 
L 118.944596 173.902009 
L 119.697826 169.543585 
L 121.204284 159.322537 
L 122.20859 154.614685 
L 123.212896 151.502948 
L 123.966126 149.897161 
L 125.472585 145.747842 
L 125.974737 144.118771 
L 126.727967 140.679406 
L 127.23012 138.171152 
L 127.732273 135.254643 
L 130.745191 115.907488 
L 132.000573 109.76201 
L 132.753802 106.983288 
L 133.255955 104.652383 
L 134.260261 101.425141 
L 136.519949 93.617754 
L 137.524255 89.842639 
L 137.775332 89.064192 
L 138.528561 85.948819 
L 139.030714 83.91621 
L 139.281791 83.356948 
L 140.03502 81.038477 
L 141.039326 78.753494 
L 141.792555 76.576172 
L 142.294708 75.477626 
L 143.801167 72.48079 
L 145.558703 69.474518 
L 146.563008 67.255569 
L 148.320544 64.829578 
L 148.822697 64.124789 
L 149.073773 64.146157 
L 150.831309 62.113295 
L 151.333461 61.564274 
L 151.835614 61.001059 
L 152.337767 59.843208 
L 152.588844 59.687749 
L 154.597456 56.735272 
L 154.848532 56.476972 
L 155.601762 55.341754 
L 156.103915 54.702559 
L 156.606067 53.890661 
L 156.857144 53.660327 
L 157.10822 53.582524 
L 157.359297 53.342555 
L 157.610373 53.292787 
L 158.614679 52.658355 
L 159.116832 52.423051 
L 160.372215 51.892212 
L 162.380826 51.551074 
L 162.882979 51.011476 
L 163.134056 50.927 
L 163.636209 50.424011 
L 164.138362 50.323698 
L 164.891591 50.330355 
L 165.142668 50.287569 
L 165.644821 50.01867 
L 167.151279 49.509585 
L 167.904509 49.182709 
L 168.155585 48.99594 
L 168.908815 48.877607 
L 169.662044 48.59693 
L 170.164197 48.485799 
L 170.917427 48.138011 
L 171.921732 47.603425 
L 172.423885 47.428004 
L 172.674962 47.230913 
L 173.177115 47.043012 
L 173.679268 46.758992 
L 173.930344 46.727339 
L 174.683574 46.080689 
L 174.93465 45.998131 
L 175.68788 45.275315 
L 176.190033 45.187419 
L 176.943262 44.899551 
L 177.445415 44.701083 
L 177.696491 44.497872 
L 178.449721 44.253534 
L 178.700797 44.00357 
L 178.951874 43.989656 
L 179.20295 43.794664 
L 183.722327 43.184791 
L 186.735244 43.020905 
L 187.73955 43.053274 
L 189.748162 42.8286 
L 193.765386 42.800581 
L 195.271845 42.789773 
L 207.825668 42.794558 
L 367.510307 42.828722 
L 376.297983 42.791272 
L 386.341042 42.814265 
L 397.639484 42.761053 
L 428.019737 42.849311 
L 467.68982 42.820014 
L 494.80608 42.807494 
L 532.718627 42.801256 
L 587.453299 42.82133 
L 643.694429 42.819618 
L 659.010094 42.824617 
L 861.879886 42.837597 
L 861.879886 42.837597 
" style="fill:none;stroke:#9467bd;stroke-linecap:square;stroke-width:1.5;"/>
   </g>
   <g id="line2d_22">
    <path clip-path="url(#p0b6f915aa8)" d="M 109.152614 240.163133 
L 109.40369 236.532505 
L 109.654767 234.707177 
L 109.905843 233.788343 
L 110.407996 233.086684 
L 111.161225 232.800121 
L 111.914455 232.493214 
L 112.416608 231.993279 
L 112.918761 231.058821 
L 114.676296 227.011766 
L 115.680602 226.231875 
L 117.94029 225.581711 
L 119.195673 225.023634 
L 120.953208 222.87207 
L 121.706437 222.186884 
L 121.957514 221.866591 
L 122.20859 221.797566 
L 122.710743 221.263523 
L 123.212896 221.14308 
L 124.970432 220.228985 
L 125.221508 220.316734 
L 125.974737 219.937778 
L 126.225814 220.014978 
L 127.732273 219.281829 
L 127.983349 219.054133 
L 128.234426 219.075016 
L 128.736579 218.732762 
L 128.987655 218.765841 
L 129.238732 218.669669 
L 129.740885 218.352316 
L 130.494114 217.985421 
L 131.247343 217.66796 
L 132.753802 217.267185 
L 133.004879 217.067323 
L 133.255955 217.08684 
L 133.507032 217.251345 
L 134.009185 216.951055 
L 135.76672 215.107267 
L 136.268873 214.159816 
L 136.519949 213.993648 
L 137.022102 212.685027 
L 138.277485 210.816113 
L 138.528561 210.865663 
L 139.030714 210.522957 
L 139.783944 210.284173 
L 140.286097 210.253344 
L 140.78825 210.163296 
L 141.290402 210.197762 
L 142.294708 210.018089 
L 142.545785 210.011255 
L 143.550091 209.381962 
L 144.052244 209.103629 
L 144.30332 208.909807 
L 144.554397 208.873328 
L 145.05655 208.443079 
L 145.307626 208.335764 
L 145.809779 207.497467 
L 146.563008 207.14793 
L 147.065161 206.491305 
L 147.567314 206.078187 
L 147.818391 205.475372 
L 148.069467 205.238852 
L 148.320544 205.182076 
L 148.57162 204.899711 
L 149.073773 204.885748 
L 149.32485 204.884089 
L 149.575926 204.757924 
L 150.580232 203.542299 
L 150.831309 203.570358 
L 151.082385 203.45624 
L 151.333461 203.167315 
L 151.835614 202.968888 
L 152.588844 202.60685 
L 152.83992 202.26256 
L 153.342073 201.294642 
L 153.844226 200.746398 
L 154.346379 200.11114 
L 154.597456 199.882723 
L 154.848532 199.84943 
L 155.099609 199.209831 
L 155.601762 198.738449 
L 156.103915 197.61284 
L 156.354991 197.090724 
L 156.606067 196.835285 
L 157.10822 196.095769 
L 158.112526 195.080037 
L 159.116832 192.677676 
L 160.623291 190.728797 
L 160.874368 190.027236 
L 161.125444 189.828637 
L 161.878673 188.917645 
L 162.380826 188.318779 
L 163.887285 188.483627 
L 166.900203 188.395161 
L 168.657738 188.297609 
L 169.159891 188.302519 
L 169.913121 188.027915 
L 170.415274 187.678913 
L 170.917427 186.742043 
L 171.168503 186.426801 
L 171.419579 186.351732 
L 171.670656 186.093079 
L 171.921732 186.130658 
L 172.674962 184.805524 
L 172.926038 184.450578 
L 173.177115 184.695178 
L 173.679268 184.196759 
L 173.930344 184.173119 
L 174.432497 183.52862 
L 174.683574 183.365449 
L 174.93465 183.430049 
L 175.68788 182.98608 
L 176.190033 183.035987 
L 176.943262 182.853122 
L 177.194338 182.752179 
L 177.947568 182.77945 
L 180.458333 182.715337 
L 182.718021 182.217294 
L 183.47125 181.017454 
L 184.475556 176.886139 
L 185.228786 171.906691 
L 185.479862 168.977012 
L 185.730939 167.83129 
L 186.735244 161.511165 
L 187.237397 158.995312 
L 187.488474 158.383606 
L 187.73955 156.662221 
L 187.990627 156.012433 
L 188.49278 153.560397 
L 188.743856 152.614128 
L 188.994933 152.318586 
L 189.748162 150.559407 
L 190.250315 149.829099 
L 190.501392 149.810548 
L 190.752468 149.64421 
L 195.522921 149.724271 
L 196.025074 149.865837 
L 199.289068 149.717482 
L 199.540145 149.838941 
L 200.042298 149.809515 
L 200.544451 149.378509 
L 200.795527 149.476157 
L 202.553062 148.544827 
L 202.804139 148.705257 
L 203.557368 146.457287 
L 203.808445 146.305778 
L 204.310598 145.370052 
L 204.561674 145.011729 
L 204.812751 144.863803 
L 205.314904 144.01159 
L 205.56598 143.816939 
L 205.817057 143.831891 
L 206.068133 143.582717 
L 206.31921 143.631757 
L 206.570286 143.496569 
L 207.574592 143.521362 
L 207.825668 143.351346 
L 208.327821 143.321344 
L 208.578898 142.893709 
L 208.829974 142.883708 
L 209.332127 142.144822 
L 209.583204 141.886823 
L 209.83428 141.859294 
L 210.085357 141.438917 
L 211.089663 137.469858 
L 211.340739 135.873961 
L 211.591816 135.135392 
L 212.093968 133.064588 
L 212.596121 131.121922 
L 213.098274 129.206333 
L 213.600427 127.527812 
L 214.353657 125.510215 
L 214.85581 125.286458 
L 215.609039 124.328782 
L 216.111192 124.368486 
L 216.362269 124.182666 
L 217.868727 124.24078 
L 218.37088 124.205206 
L 218.873033 124.268722 
L 219.12411 124.102484 
L 219.626263 124.123035 
L 220.128416 123.856428 
L 220.630569 123.841429 
L 222.388104 123.797563 
L 222.63918 123.689962 
L 222.890257 123.893115 
L 223.39241 123.814743 
L 223.894563 123.247358 
L 224.647792 122.830551 
L 225.652098 121.127433 
L 226.154251 120.282604 
L 226.405328 120.459549 
L 226.907481 119.923365 
L 227.158557 119.913638 
L 228.162863 119.212045 
L 228.413939 119.028356 
L 228.665016 119.004585 
L 228.916092 118.861376 
L 229.418245 118.935141 
L 230.422551 118.847366 
L 231.175781 118.460709 
L 231.426857 118.686686 
L 231.677934 118.534225 
L 232.180086 117.693656 
L 232.431163 117.39437 
L 233.184392 115.961077 
L 233.435469 115.427474 
L 233.686545 115.169737 
L 233.937622 115.307648 
L 234.188698 114.71239 
L 234.690851 114.400425 
L 234.941928 114.052789 
L 235.444081 112.839341 
L 235.695157 112.727389 
L 235.946234 112.427558 
L 236.19731 112.410386 
L 236.95054 111.724275 
L 237.201616 111.173824 
L 237.954845 110.988569 
L 238.456998 110.587942 
L 238.708075 110.674543 
L 239.210228 110.626995 
L 239.461304 110.778877 
L 239.963457 110.729112 
L 242.223146 110.786785 
L 242.725298 110.84506 
L 243.478528 110.793101 
L 246.742522 110.736577 
L 247.997904 110.734692 
L 248.248981 110.801093 
L 249.00221 110.62924 
L 249.75544 110.559889 
L 250.508669 110.490548 
L 251.010822 110.257324 
L 252.266205 109.143646 
L 252.768357 109.050187 
L 253.019434 108.990361 
L 253.27051 109.111588 
L 254.02374 107.90977 
L 254.274816 107.857328 
L 254.525893 107.545649 
L 254.776969 107.573156 
L 256.032352 106.234957 
L 256.283428 106.137528 
L 256.534505 105.841912 
L 258.040963 105.512512 
L 258.543116 104.86235 
L 259.045269 104.575214 
L 259.547422 104.560157 
L 259.798499 104.458943 
L 260.049575 104.647526 
L 261.053881 104.348416 
L 262.811416 104.121317 
L 267.079717 104.003485 
L 268.084022 103.933652 
L 270.343711 103.834167 
L 271.85017 103.868245 
L 272.854475 103.6128 
L 274.109858 103.511856 
L 275.36524 102.939454 
L 275.616317 102.928144 
L 276.620623 102.067493 
L 276.871699 102.026361 
L 277.373852 101.555227 
L 278.378158 101.901513 
L 279.382464 101.299954 
L 279.63354 101.054121 
L 280.637846 100.844909 
L 280.888923 100.948087 
L 281.391076 100.897984 
L 281.893229 100.974346 
L 282.646458 100.983325 
L 283.148611 100.793535 
L 288.17014 100.829589 
L 289.676599 100.831633 
L 296.455664 100.75322 
L 302.732576 100.683446 
L 303.987958 100.535984 
L 304.490111 100.596862 
L 305.745494 100.612606 
L 305.99657 100.752302 
L 306.7498 100.767205 
L 307.251953 100.709376 
L 308.758411 100.678665 
L 309.260564 100.742357 
L 310.013794 100.741066 
L 310.767023 100.778724 
L 311.771329 100.663141 
L 314.282094 100.698426 
L 317.043935 100.679346 
L 322.567618 100.808125 
L 324.074076 100.904005 
L 328.0913 100.93695 
L 330.099912 100.891564 
L 331.606371 100.898033 
L 333.363906 100.832196 
L 334.870365 100.779006 
L 361.233395 100.611259 
L 364.999542 99.844085 
L 367.510307 99.528964 
L 370.774301 99.364574 
L 373.787219 99.377681 
L 377.302289 99.590579 
L 381.319513 99.813509 
L 384.081354 99.730488 
L 387.596425 99.613523 
L 390.358266 99.838506 
L 392.115801 99.857771 
L 393.371184 99.654955 
L 395.128719 99.042162 
L 397.137331 98.093088 
L 400.652401 96.48468 
L 402.409937 95.930697 
L 403.916396 95.651267 
L 405.673931 95.571019 
L 407.431466 95.732411 
L 414.210531 96.596073 
L 418.227755 96.720615 
L 419.483137 96.999098 
L 420.738519 97.510179 
L 421.742825 98.08073 
L 422.998208 98.9835 
L 424.755743 100.572568 
L 428.772967 104.408462 
L 430.530502 105.666091 
L 431.785884 106.316725 
L 433.54342 106.936517 
L 435.049878 107.196615 
L 436.807414 107.292251 
L 439.067102 107.198433 
L 441.828943 106.778854 
L 444.339708 106.191334 
L 446.599396 105.434125 
L 448.859085 104.330318 
L 452.123079 102.329127 
L 454.382767 101.075017 
L 456.140302 100.416147 
L 457.646761 100.103937 
L 458.902144 100.011052 
L 460.659679 100.08059 
L 463.672597 100.501844 
L 473.464579 102.077615 
L 477.481803 102.537804 
L 480.243644 102.645709 
L 482.754409 102.520378 
L 486.520556 102.021703 
L 496.814691 100.626234 
L 500.078686 100.389185 
L 503.091603 100.389248 
L 506.355597 100.589088 
L 517.402962 101.448842 
L 523.428798 101.580138 
L 532.216474 101.532247 
L 546.77891 101.323065 
L 559.58381 101.425808 
L 571.384405 101.512683 
L 577.661316 101.323528 
L 594.48344 100.557655 
L 601.513582 100.654323 
L 611.305564 100.742847 
L 623.608311 99.690885 
L 646.205194 99.611201 
L 654.741794 99.648836 
L 752.410543 99.508721 
L 760.947143 99.633495 
L 770.488049 99.764707 
L 810.409209 99.885403 
L 861.879886 99.983131 
L 861.879886 99.983131 
" style="fill:none;stroke:#8c564b;stroke-linecap:square;stroke-width:1.5;"/>
   </g>
   <g id="line2d_23">
    <path clip-path="url(#p0b6f915aa8)" d="M 109.152614 240.429957 
L 109.40369 236.926977 
L 109.654767 235.180573 
L 109.905843 234.313361 
L 110.407996 233.655223 
L 111.161225 233.362607 
L 111.663378 233.144077 
L 112.165531 232.658883 
L 112.667684 231.663464 
L 113.420914 229.310635 
L 114.174143 227.092031 
L 114.676296 226.130512 
L 115.429526 225.446089 
L 116.433831 224.925405 
L 117.187061 224.638617 
L 118.69352 223.264603 
L 118.944596 222.93814 
L 120.451055 219.953267 
L 122.20859 217.293208 
L 123.966126 215.624097 
L 126.225814 213.157473 
L 128.234426 209.74202 
L 128.485502 209.548196 
L 128.736579 209.205089 
L 129.238732 208.004964 
L 129.991961 207.610662 
L 130.494114 206.885592 
L 130.996267 206.103124 
L 131.247343 206.007011 
L 132.000573 204.739661 
L 132.753802 203.464147 
L 133.004879 203.277632 
L 133.507032 202.125496 
L 134.009185 200.858199 
L 134.511338 200.141594 
L 134.762414 200.19083 
L 135.013491 199.56314 
L 136.519949 198.37331 
L 136.771026 198.395579 
L 137.273179 198.230734 
L 139.783944 197.904392 
L 140.03502 197.619141 
L 140.78825 197.375614 
L 141.792555 196.435743 
L 142.043632 195.865147 
L 142.294708 195.836387 
L 143.299014 194.499041 
L 143.550091 194.36698 
L 144.30332 192.942472 
L 144.805473 192.567712 
L 145.05655 191.927079 
L 145.307626 191.760193 
L 145.558703 191.729168 
L 146.060855 191.200029 
L 146.563008 190.778439 
L 147.567314 190.60932 
L 148.57162 190.006518 
L 149.575926 190.132792 
L 149.827003 189.830628 
L 150.078079 189.930176 
L 150.580232 189.694638 
L 151.082385 189.106576 
L 151.835614 188.846374 
L 152.086691 188.921518 
L 152.337767 188.690894 
L 152.588844 188.748419 
L 153.090997 188.480587 
L 153.59315 188.482625 
L 154.095303 188.175711 
L 154.346379 188.188459 
L 154.848532 187.813027 
L 155.350685 187.681723 
L 155.601762 187.78513 
L 155.852838 187.420667 
L 156.354991 187.315303 
L 157.359297 186.321583 
L 157.610373 186.339744 
L 157.86145 186.155028 
L 158.112526 185.412747 
L 158.363603 185.111664 
L 158.614679 185.022006 
L 159.116832 184.18613 
L 159.618985 183.567045 
L 159.870062 182.454541 
L 160.623291 180.802946 
L 161.125444 179.339137 
L 161.37652 178.496253 
L 161.878673 176.121339 
L 162.631903 173.905907 
L 162.882979 172.168118 
L 163.636209 169.73157 
L 164.138362 168.140944 
L 164.640515 167.187168 
L 164.891591 166.937441 
L 165.142668 166.86554 
L 165.644821 166.206843 
L 166.649126 165.916989 
L 168.908815 165.863677 
L 170.415274 165.852618 
L 170.66635 165.95597 
L 171.419579 165.480519 
L 171.670656 165.185502 
L 171.921732 165.198006 
L 172.423885 164.761402 
L 172.926038 164.206662 
L 173.177115 164.170963 
L 174.181421 163.530235 
L 174.432497 163.604549 
L 174.683574 163.40556 
L 174.93465 163.359792 
L 175.436803 163.415682 
L 175.938956 162.778341 
L 176.441109 162.891425 
L 177.445415 162.453148 
L 178.198644 162.45534 
L 178.951874 162.223851 
L 179.454027 162.283538 
L 179.705103 162.071661 
L 180.458333 162.001325 
L 181.713715 161.98487 
L 181.964791 161.759733 
L 183.722327 161.800137 
L 184.22448 161.599724 
L 184.726633 161.581689 
L 185.228786 161.585101 
L 185.730939 161.495642 
L 186.233092 161.508265 
L 186.484168 161.664497 
L 187.488474 161.441375 
L 187.73955 161.428941 
L 188.241703 161.103083 
L 188.49278 161.169503 
L 189.748162 160.842156 
L 190.501392 160.81505 
L 191.003545 160.716344 
L 194.518615 160.624575 
L 196.527227 160.528311 
L 196.778303 160.616217 
L 198.033686 159.333524 
L 198.535839 158.148097 
L 198.786915 157.883539 
L 199.037992 157.923535 
L 199.289068 157.080308 
L 199.540145 156.873072 
L 200.042298 155.628853 
L 200.293374 155.374311 
L 200.544451 154.786676 
L 200.795527 154.793754 
L 201.29768 154.422857 
L 201.548757 154.430503 
L 202.050909 154.221061 
L 204.561674 154.043993 
L 204.812751 153.764939 
L 205.063827 153.286862 
L 205.314904 153.118376 
L 205.56598 152.444598 
L 206.068133 151.933356 
L 207.323515 147.796443 
L 207.825668 147.373659 
L 208.327821 146.126112 
L 208.578898 146.131458 
L 209.081051 145.248696 
L 209.583204 143.429157 
L 210.085357 142.342863 
L 210.838586 140.80936 
L 211.089663 140.33944 
L 211.340739 140.472187 
L 211.591816 140.434006 
L 211.842892 140.152249 
L 212.345045 140.038419 
L 212.596121 139.607108 
L 212.847198 139.778915 
L 213.098274 139.727494 
L 213.349351 139.479288 
L 213.600427 139.593213 
L 214.604733 139.289676 
L 215.357963 139.003638 
L 216.362269 138.945886 
L 217.366574 138.565251 
L 218.119804 137.982767 
L 218.621957 138.035733 
L 218.873033 138.278514 
L 219.12411 138.243299 
L 219.626263 137.562789 
L 220.128416 137.369023 
L 220.630569 136.808247 
L 220.881645 136.734205 
L 221.634875 136.147857 
L 221.885951 135.510569 
L 222.137027 135.204194 
L 222.63918 135.135825 
L 222.890257 134.324416 
L 223.141333 134.426823 
L 224.145639 133.712243 
L 224.396716 133.312577 
L 225.149945 132.922673 
L 225.401022 132.689237 
L 225.652098 132.617609 
L 226.154251 132.739263 
L 227.409633 132.633268 
L 227.66071 132.521387 
L 227.911786 132.632193 
L 228.665016 132.05178 
L 228.916092 132.387938 
L 229.418245 132.11941 
L 229.669322 132.08129 
L 229.920398 131.849916 
L 230.171475 130.737605 
L 230.422551 130.153037 
L 230.673628 130.430047 
L 231.426857 128.9765 
L 231.677934 127.858265 
L 231.92901 127.2705 
L 232.180086 126.328239 
L 232.431163 126.041785 
L 232.682239 126.17461 
L 233.184392 125.508366 
L 233.435469 125.035164 
L 233.686545 124.902233 
L 233.937622 124.964371 
L 234.188698 124.804376 
L 234.439775 124.922176 
L 234.690851 125.16561 
L 235.444081 125.227024 
L 236.95054 125.226556 
L 238.205922 124.062108 
L 238.456998 124.062103 
L 238.959151 124.375082 
L 239.712381 123.474516 
L 239.963457 123.68274 
L 240.214534 123.117214 
L 240.46561 123.085392 
L 240.716687 122.542549 
L 241.21884 121.044443 
L 241.720993 120.026447 
L 242.223146 119.311875 
L 242.725298 118.703276 
L 242.976375 118.95452 
L 243.227451 118.876829 
L 243.729604 118.106496 
L 243.980681 118.129328 
L 244.73391 116.421382 
L 245.236063 116.137237 
L 245.989293 115.652972 
L 246.491446 114.98502 
L 246.993599 114.707505 
L 247.244675 114.80599 
L 247.746828 114.289561 
L 248.751134 114.410371 
L 249.00221 114.356575 
L 249.253287 114.147128 
L 249.504363 114.094941 
L 249.75544 114.191964 
L 250.006516 113.990247 
L 250.257593 114.060319 
L 250.759746 113.99895 
L 251.261899 114.007208 
L 251.512975 113.828174 
L 252.768357 113.872337 
L 253.019434 113.969617 
L 253.772663 113.938281 
L 256.283428 113.942899 
L 256.534505 113.832769 
L 256.785581 113.855852 
L 257.036658 113.644774 
L 257.53881 113.593361 
L 257.789887 113.480391 
L 258.29204 112.985969 
L 259.296346 112.509898 
L 259.547422 112.504081 
L 259.798499 112.321007 
L 260.049575 112.395459 
L 260.300652 112.079823 
L 261.053881 111.917028 
L 261.556034 111.664962 
L 262.309264 111.38672 
L 262.56034 111.415595 
L 262.811416 111.287628 
L 263.062493 111.320482 
L 263.815722 110.940798 
L 264.317875 111.153819 
L 264.820028 111.246203 
L 265.322181 111.209364 
L 270.092634 111.053122 
L 271.348017 110.795327 
L 271.599093 110.693877 
L 272.101246 110.279822 
L 272.603399 110.144822 
L 273.356628 110.059901 
L 274.612011 110.10288 
L 275.114164 109.886145 
L 275.867393 109.890748 
L 276.11847 109.790055 
L 276.620623 109.99479 
L 277.373852 109.887061 
L 281.139999 109.717263 
L 282.144305 109.748035 
L 283.90184 109.752086 
L 286.914758 109.79452 
L 287.416911 109.723473 
L 287.919064 109.731751 
L 288.421217 109.644576 
L 293.944899 109.585768 
L 295.200282 109.595839 
L 295.953511 109.658822 
L 296.957817 109.740883 
L 297.208894 109.679082 
L 297.962123 109.846531 
L 298.715352 109.88194 
L 299.970735 109.890978 
L 300.975041 109.637668 
L 302.4815 109.53896 
L 303.485805 109.593652 
L 304.490111 109.688519 
L 304.992264 109.628403 
L 305.745494 109.704873 
L 306.7498 109.678694 
L 310.767023 109.557175 
L 314.282094 109.595424 
L 319.805776 109.685565 
L 323.571923 109.634649 
L 326.333765 109.637096 
L 332.861753 109.66195 
L 337.632206 109.675 
L 352.194642 109.678275 
L 359.978012 109.708878 
L 360.982318 109.954952 
L 361.735548 110.34423 
L 362.488777 110.946825 
L 363.493083 112.00951 
L 365.250618 113.963056 
L 366.254924 114.668361 
L 367.008154 114.957539 
L 368.01246 115.069565 
L 371.276454 115.047805 
L 372.28076 115.297712 
L 373.285066 115.820342 
L 374.038295 116.433155 
L 374.791524 117.248408 
L 376.297983 119.348948 
L 377.302289 120.622332 
L 378.055519 121.172883 
L 378.557672 121.288452 
L 379.059825 121.180161 
L 379.561977 120.837466 
L 380.06413 120.340397 
L 380.81736 119.310149 
L 384.33243 113.808632 
L 385.587813 112.503203 
L 386.592119 111.828435 
L 387.596425 111.407149 
L 388.600731 111.254678 
L 389.605036 111.29978 
L 390.860419 111.564123 
L 392.617954 112.031771 
L 393.62226 112.13192 
L 394.626566 112.002878 
L 395.630872 111.629378 
L 397.137331 110.771946 
L 399.397019 109.476379 
L 400.652401 108.995847 
L 401.907784 108.739832 
L 403.163166 108.725646 
L 404.418549 108.925648 
L 406.176084 109.466664 
L 408.937925 110.31402 
L 410.444384 110.456163 
L 412.452996 110.348244 
L 415.968066 110.1781 
L 418.478831 110.308779 
L 420.487443 110.616825 
L 423.751437 111.228341 
L 425.006819 111.176796 
L 426.262202 110.868204 
L 428.019737 110.120836 
L 430.781578 108.912082 
L 432.539114 108.407942 
L 434.296649 108.156992 
L 436.556337 108.064686 
L 438.564949 107.921899 
L 440.824637 107.476147 
L 444.088632 106.763331 
L 445.846167 106.628846 
L 447.352626 106.739369 
L 448.859085 107.057944 
L 453.629538 108.288175 
L 455.135996 108.345719 
L 457.395685 108.165135 
L 460.910755 107.887183 
L 464.927979 107.858156 
L 469.949509 107.786658 
L 480.996873 107.217179 
L 487.524862 107.1544 
L 493.048544 107.082326 
L 497.316844 107.204322 
L 501.585144 107.344899 
L 512.381433 107.363153 
L 515.896504 107.367264 
L 518.909421 107.124428 
L 525.43741 106.525801 
L 531.714321 106.056091 
L 535.982622 105.599609 
L 538.493386 105.546149 
L 541.255228 105.726727 
L 548.034292 106.391058 
L 558.077351 106.735139 
L 561.843498 106.790459 
L 587.453299 106.522797 
L 598.249587 106.544124 
L 623.106158 106.433144 
L 633.400294 106.207171 
L 638.170747 106.348917 
L 643.443353 106.464816 
L 648.715959 106.281113 
L 653.235335 106.231875 
L 656.49933 106.42924 
L 661.018706 106.729617 
L 664.031624 106.653149 
L 670.308536 106.45403 
L 675.078989 106.559704 
L 693.909724 107.291645 
L 699.684483 107.521483 
L 703.952783 107.636054 
L 707.216778 107.46697 
L 712.489384 107.152492 
L 715.502301 107.222661 
L 724.289978 107.657335 
L 733.077655 107.584951 
L 746.635784 107.719779 
L 761.700373 107.79291 
L 766.219749 107.827665 
L 776.262808 107.722025 
L 787.310173 108.157973 
L 795.595697 108.196995 
L 811.162438 108.375326 
L 818.19258 108.441922 
L 827.733486 108.779441 
L 839.031927 108.706753 
L 846.062068 108.787477 
L 858.113739 108.725527 
L 861.879886 108.7599 
L 861.879886 108.7599 
" style="fill:none;stroke:#e377c2;stroke-linecap:square;stroke-width:1.5;"/>
   </g>
   <g id="line2d_24">
    <path clip-path="url(#p0b6f915aa8)" d="M 109.152614 239.440279 
L 109.40369 235.437554 
L 109.654767 233.441055 
L 109.905843 232.439652 
L 110.15692 231.936364 
L 110.659072 231.553741 
L 112.416608 231.014602 
L 112.918761 230.440799 
L 113.420914 229.472121 
L 113.923067 227.831852 
L 114.927373 224.533216 
L 115.429526 223.758027 
L 116.182755 223.004151 
L 116.684908 222.764441 
L 117.438137 222.497639 
L 118.191367 222.196587 
L 118.944596 221.644652 
L 120.199979 219.666625 
L 121.455361 216.29237 
L 121.957514 213.785063 
L 122.459667 212.586313 
L 122.710743 211.465279 
L 124.217202 208.168426 
L 124.468279 207.915057 
L 124.719355 207.311235 
L 125.723661 206.226374 
L 125.974737 206.157858 
L 126.979043 205.219923 
L 127.481196 204.807212 
L 127.732273 204.584793 
L 128.234426 203.847399 
L 128.485502 203.451884 
L 128.736579 203.361972 
L 128.987655 203.02423 
L 129.238732 202.88278 
L 129.740885 202.174601 
L 130.243038 200.785833 
L 130.494114 200.468503 
L 130.996267 199.389047 
L 131.49842 198.893069 
L 131.749496 198.455835 
L 132.000573 198.271533 
L 132.251649 198.237952 
L 133.004879 197.211027 
L 133.255955 196.979007 
L 133.507032 196.952547 
L 134.009185 196.729726 
L 136.519949 196.718814 
L 136.771026 196.801171 
L 137.273179 196.585743 
L 137.775332 196.27698 
L 138.026408 196.019805 
L 138.277485 195.591246 
L 138.779638 193.917259 
L 139.532867 189.340976 
L 139.783944 189.07909 
L 140.286097 186.780359 
L 140.78825 183.59684 
L 142.545785 176.365489 
L 142.796861 175.678715 
L 143.299014 173.745861 
L 143.550091 173.190192 
L 144.30332 172.549057 
L 144.554397 172.619354 
L 145.307626 172.052343 
L 146.060855 171.969754 
L 146.814085 171.717805 
L 147.316238 171.702862 
L 147.818391 171.093932 
L 148.069467 170.970325 
L 149.073773 169.856293 
L 149.32485 169.762994 
L 149.575926 168.991912 
L 149.827003 169.019515 
L 150.078079 168.527896 
L 150.329156 168.366243 
L 150.831309 167.458449 
L 151.333461 165.819099 
L 152.337767 162.295193 
L 153.090997 160.430622 
L 153.59315 159.436843 
L 154.095303 158.884915 
L 154.346379 159.136475 
L 154.597456 159.001732 
L 154.848532 158.455194 
L 155.099609 158.296884 
L 155.350685 158.282599 
L 155.852838 158.042175 
L 156.857144 157.715272 
L 157.359297 157.669779 
L 157.86145 157.640767 
L 158.614679 157.708054 
L 160.623291 157.668104 
L 162.380826 157.669874 
L 162.631903 157.523951 
L 163.134056 157.643852 
L 164.138362 157.163568 
L 164.640515 157.030322 
L 165.393744 156.341693 
L 165.644821 156.347736 
L 165.895897 156.220942 
L 166.146974 156.285482 
L 166.39805 156.093262 
L 166.649126 156.161695 
L 167.151279 155.916046 
L 168.155585 155.567261 
L 168.406662 155.355765 
L 170.66635 154.917795 
L 170.917427 154.880898 
L 171.419579 154.978291 
L 171.670656 154.912434 
L 171.921732 154.9813 
L 172.423885 154.663674 
L 172.674962 154.693375 
L 173.428191 153.767672 
L 173.679268 153.84159 
L 174.181421 153.495939 
L 174.93465 152.945555 
L 175.185727 153.257678 
L 175.436803 153.26822 
L 176.441109 152.948071 
L 176.692185 152.96473 
L 177.445415 152.426522 
L 177.696491 152.340271 
L 177.947568 152.479457 
L 178.449721 152.217799 
L 178.700797 151.796002 
L 179.20295 151.96939 
L 179.95618 151.891487 
L 180.207256 151.975812 
L 181.713715 151.660577 
L 181.964791 151.543371 
L 182.215868 151.653753 
L 182.718021 151.404091 
L 182.969097 151.198927 
L 183.220174 151.190958 
L 183.722327 150.655885 
L 183.973403 150.299799 
L 184.22448 150.291758 
L 184.475556 150.077316 
L 184.726633 150.165575 
L 185.479862 149.313957 
L 185.730939 148.631022 
L 186.233092 148.042697 
L 186.735244 146.6431 
L 186.986321 146.685385 
L 187.73955 145.459846 
L 187.990627 145.09199 
L 188.241703 145.174269 
L 188.49278 144.779206 
L 188.743856 144.833033 
L 189.497086 144.150636 
L 189.748162 144.398958 
L 192.510003 144.255318 
L 197.02938 144.246271 
L 198.284762 143.528576 
L 198.535839 142.946318 
L 198.786915 142.664282 
L 199.791221 140.830719 
L 200.042298 139.936711 
L 200.544451 139.548579 
L 201.29768 137.838735 
L 201.548757 137.424788 
L 203.055215 132.200907 
L 203.557368 130.861726 
L 203.808445 130.594416 
L 204.059521 130.086675 
L 206.570286 120.772162 
L 206.821362 118.996065 
L 207.072439 118.797183 
L 207.825668 116.142103 
L 208.076745 115.496613 
L 208.829974 112.511894 
L 209.081051 111.944464 
L 209.332127 110.66516 
L 209.583204 110.550353 
L 210.336433 108.994313 
L 210.58751 108.731964 
L 211.089663 107.45867 
L 211.340739 106.957978 
L 211.842892 105.339092 
L 212.093968 105.071475 
L 213.098274 102.971337 
L 213.349351 102.192779 
L 214.10258 101.004811 
L 214.353657 101.311968 
L 214.604733 101.367826 
L 215.609039 100.542531 
L 216.111192 100.593169 
L 216.362269 100.38096 
L 216.864422 100.518493 
L 217.366574 100.305649 
L 218.873033 100.398581 
L 219.877339 100.172899 
L 220.379492 100.208775 
L 221.132722 100.06762 
L 223.141333 100.110297 
L 224.647792 99.933362 
L 224.898869 99.767599 
L 225.401022 99.748229 
L 225.903175 99.679284 
L 226.154251 99.766292 
L 226.405328 99.710527 
L 226.656404 99.791342 
L 227.158557 99.718318 
L 229.167169 99.648491 
L 229.669322 99.532528 
L 230.171475 99.55742 
L 231.175781 98.747914 
L 231.426857 98.418282 
L 231.677934 98.399403 
L 231.92901 97.979358 
L 232.180086 97.893648 
L 232.431163 97.621989 
L 232.933316 96.798786 
L 233.937622 95.712053 
L 234.690851 95.106849 
L 234.941928 94.693218 
L 235.193004 94.673658 
L 235.444081 94.514399 
L 235.695157 94.613799 
L 235.946234 94.292338 
L 236.448387 94.461518 
L 236.699463 94.670682 
L 236.95054 94.069645 
L 237.201616 93.978988 
L 237.954845 93.349331 
L 238.205922 92.737664 
L 238.456998 92.604664 
L 239.210228 91.203399 
L 239.461304 91.107721 
L 239.963457 90.685654 
L 240.214534 90.699042 
L 240.46561 90.591812 
L 240.716687 90.232429 
L 240.967763 90.120177 
L 241.469916 89.473423 
L 241.972069 89.365124 
L 242.474222 88.811645 
L 243.227451 88.394984 
L 243.980681 88.20381 
L 245.236063 87.875699 
L 246.240369 87.685692 
L 246.742522 87.781294 
L 247.244675 87.623886 
L 247.997904 87.507832 
L 248.500057 87.574745 
L 249.00221 87.470833 
L 249.75544 87.427243 
L 250.759746 87.30157 
L 251.261899 87.390073 
L 251.764052 87.364337 
L 371.276454 87.237276 
L 383.579201 87.188606 
L 392.115801 87.057471 
L 475.473191 87.188639 
L 490.035627 87.193439 
L 511.377127 87.173335 
L 590.21514 87.191648 
L 655.495024 87.184937 
L 675.330065 87.237955 
L 752.410543 87.237026 
L 785.803714 87.183692 
L 823.214109 87.268777 
L 861.879886 87.265529 
L 861.879886 87.265529 
" style="fill:none;stroke:#7f7f7f;stroke-linecap:square;stroke-width:1.5;"/>
   </g>
   <g id="line2d_25">
    <path clip-path="url(#p0b6f915aa8)" d="M 109.152614 238.003194 
L 109.40369 233.299272 
L 109.654767 230.953481 
L 109.905843 229.782425 
L 110.15692 229.188232 
L 110.659072 228.721357 
L 111.663378 228.145116 
L 111.914455 227.86653 
L 112.416608 226.720068 
L 112.667684 225.769234 
L 113.169837 222.400258 
L 113.923067 214.55209 
L 114.676296 207.246812 
L 115.178449 203.955216 
L 115.680602 201.846648 
L 116.182755 200.410866 
L 116.684908 199.608686 
L 117.689214 198.509293 
L 119.195673 197.329193 
L 121.455361 193.168956 
L 122.459667 190.224212 
L 122.96182 188.226596 
L 124.217202 185.050266 
L 124.468279 184.256579 
L 124.719355 183.871635 
L 124.970432 182.932646 
L 125.221508 182.533804 
L 126.225814 179.327615 
L 126.727967 178.10947 
L 127.983349 174.990988 
L 128.485502 174.248021 
L 128.736579 173.985078 
L 129.238732 172.991392 
L 129.740885 171.474979 
L 130.243038 170.480107 
L 130.494114 169.963655 
L 131.247343 166.977048 
L 131.49842 166.341073 
L 132.000573 164.372917 
L 132.502726 162.911903 
L 132.753802 162.79195 
L 133.255955 160.84858 
L 133.758108 158.60099 
L 134.009185 157.461656 
L 134.260261 157.098852 
L 134.511338 156.316151 
L 135.013491 155.364021 
L 135.515644 154.177473 
L 136.017796 153.573697 
L 136.771026 152.920709 
L 137.022102 152.6716 
L 138.528561 152.124594 
L 139.281791 151.341031 
L 139.783944 150.440992 
L 140.286097 149.132651 
L 141.039326 147.629515 
L 141.290402 146.887678 
L 141.792555 145.081419 
L 142.294708 144.004451 
L 142.796861 142.341598 
L 144.554397 139.15657 
L 145.05655 138.730249 
L 145.307626 138.415668 
L 146.060855 138.100051 
L 146.563008 137.655717 
L 148.320544 136.354958 
L 149.32485 134.937365 
L 150.329156 133.303983 
L 150.580232 132.736375 
L 150.831309 132.446359 
L 151.082385 132.329424 
L 152.588844 130.689232 
L 152.83992 130.613368 
L 153.342073 129.917958 
L 153.844226 129.645085 
L 154.095303 129.469886 
L 155.099609 127.962384 
L 155.350685 127.408758 
L 155.852838 127.192199 
L 156.606067 127.016039 
L 157.10822 126.640521 
L 158.112526 126.272852 
L 159.367909 125.416015 
L 159.618985 125.090577 
L 159.870062 125.106643 
L 160.623291 124.628673 
L 161.627597 124.177666 
L 162.882979 123.788559 
L 164.138362 123.194708 
L 164.640515 123.345888 
L 165.644821 123.342143 
L 171.921732 122.989658 
L 172.423885 122.753577 
L 173.177115 122.644816 
L 174.432497 122.080197 
L 175.185727 120.901989 
L 175.436803 120.45977 
L 175.68788 120.341496 
L 176.190033 119.673304 
L 176.692185 119.059999 
L 176.943262 118.817505 
L 178.198644 116.335843 
L 179.20295 113.764803 
L 179.454027 113.933305 
L 180.709409 111.389168 
L 182.466944 103.564235 
L 182.718021 102.897849 
L 183.220174 100.603717 
L 183.722327 97.868208 
L 184.22448 96.099487 
L 185.730939 91.76632 
L 185.982015 91.571397 
L 186.484168 90.578864 
L 186.735244 90.141337 
L 186.986321 90.028674 
L 187.237397 90.291198 
L 187.73955 89.824209 
L 188.49278 89.739553 
L 188.994933 89.259218 
L 189.497086 88.66142 
L 189.748162 88.470773 
L 189.999239 88.083134 
L 190.752468 86.06773 
L 191.003545 85.809077 
L 191.756774 83.878536 
L 192.258927 82.522973 
L 192.510003 81.86485 
L 192.76108 80.594081 
L 193.012156 80.22181 
L 193.514309 77.961433 
L 194.016462 76.696582 
L 194.267539 76.439444 
L 195.020768 74.779487 
L 195.271845 74.662553 
L 195.522921 74.065712 
L 195.773998 74.061185 
L 196.778303 71.842345 
L 197.280456 71.221453 
L 197.531533 71.346786 
L 197.782609 70.792156 
L 198.786915 70.003095 
L 200.293374 69.228757 
L 200.544451 69.28116 
L 200.795527 69.192796 
L 201.29768 68.585591 
L 201.548757 68.743076 
L 201.799833 68.311376 
L 202.553062 67.917343 
L 202.804139 67.029116 
L 203.808445 65.110091 
L 205.817057 61.719403 
L 206.31921 61.336365 
L 206.570286 61.238958 
L 206.821362 60.915128 
L 207.323515 60.644009 
L 207.574592 60.452483 
L 207.825668 60.451712 
L 208.076745 60.589878 
L 208.829974 60.279233 
L 210.336433 60.009301 
L 210.838586 60.060831 
L 215.106886 60.042148 
L 216.613345 60.03829 
L 220.128416 60.011531 
L 223.141333 59.972358 
L 225.149945 59.969613 
L 251.010822 59.955799 
L 362.488777 60.031719 
L 370.272148 60.058696 
L 396.384101 59.998433 
L 406.42716 59.937425 
L 469.447356 60.025052 
L 508.364209 60.198368 
L 522.173415 60.225247 
L 561.592422 60.254074 
L 595.738823 60.229708 
L 618.586782 60.275635 
L 639.928282 60.195037 
L 657.754712 60.201101 
L 673.321453 60.101286 
L 701.190942 60.206173 
L 710.229695 60.181759 
L 724.792131 60.10708 
L 861.879886 60.10385 
L 861.879886 60.10385 
" style="fill:none;stroke:#bcbd22;stroke-linecap:square;stroke-width:1.5;"/>
   </g>
   <g id="line2d_26">
    <path clip-path="url(#p0b6f915aa8)" d="M 109.152614 238.566626 
L 109.40369 234.128567 
L 109.654767 231.894449 
L 109.905843 230.767385 
L 110.407996 229.893056 
L 110.910149 229.61565 
L 111.914455 229.161673 
L 112.416608 228.568305 
L 112.667684 228.0295 
L 112.918761 227.227403 
L 113.420914 224.404418 
L 114.174143 217.075638 
L 114.927373 209.493975 
L 115.429526 206.155039 
L 115.931678 203.857794 
L 116.433831 202.600698 
L 116.935984 201.688763 
L 118.442443 200.476607 
L 118.69352 200.339386 
L 118.944596 200.035034 
L 119.446749 199.737386 
L 120.199979 198.966598 
L 120.953208 197.340784 
L 121.204284 196.893879 
L 122.20859 193.765542 
L 123.715049 188.516376 
L 123.966126 187.859428 
L 124.217202 186.747295 
L 124.468279 186.246075 
L 124.970432 184.296333 
L 125.221508 183.949122 
L 125.472585 183.01875 
L 126.225814 181.788368 
L 126.47689 181.034039 
L 127.23012 179.87907 
L 127.481196 179.328723 
L 127.983349 179.032848 
L 128.234426 178.687484 
L 128.485502 178.540856 
L 128.736579 178.236571 
L 129.238732 177.911158 
L 129.489808 177.635096 
L 129.991961 176.755006 
L 130.243038 176.699038 
L 131.49842 175.638327 
L 131.749496 175.537254 
L 132.502726 174.659595 
L 133.004879 174.528123 
L 133.507032 174.146067 
L 134.260261 173.820934 
L 134.511338 173.553225 
L 134.762414 173.546317 
L 136.268873 172.079091 
L 137.022102 171.091673 
L 137.273179 170.789995 
L 138.528561 167.541487 
L 138.779638 167.421421 
L 140.03502 163.559373 
L 140.537173 161.969248 
L 140.78825 161.293051 
L 141.039326 161.068768 
L 141.792555 159.317595 
L 142.043632 159.034371 
L 142.294708 158.989746 
L 142.796861 157.651439 
L 143.047938 157.586725 
L 143.550091 156.281809 
L 144.052244 155.748464 
L 144.30332 155.682466 
L 144.554397 155.733873 
L 146.311932 153.065624 
L 147.065161 152.463636 
L 148.069467 151.542313 
L 148.320544 151.415872 
L 149.32485 150.211771 
L 152.337767 147.350797 
L 153.59315 146.305063 
L 153.844226 145.921634 
L 154.095303 145.881443 
L 155.099609 144.774732 
L 155.601762 142.954761 
L 156.354991 141.693687 
L 156.857144 141.198687 
L 157.10822 140.44537 
L 157.359297 140.253889 
L 159.618985 137.172445 
L 160.623291 134.186396 
L 160.874368 133.661161 
L 161.125444 132.663857 
L 161.627597 131.603135 
L 163.385132 126.736739 
L 164.138362 124.02455 
L 164.389438 123.648526 
L 165.142668 121.354017 
L 165.393744 120.916235 
L 165.895897 119.643849 
L 166.39805 118.612941 
L 166.649126 118.335621 
L 166.900203 117.774698 
L 167.151279 117.820123 
L 167.402356 117.667225 
L 168.155585 115.232875 
L 169.159891 112.956225 
L 169.410968 113.007307 
L 169.662044 112.876169 
L 170.164197 112.912647 
L 170.415274 112.682005 
L 170.917427 112.52632 
L 171.670656 112.217892 
L 173.177115 112.138525 
L 175.68788 111.876481 
L 175.938956 111.755681 
L 176.190033 111.809263 
L 178.198644 110.967112 
L 179.95618 110.337915 
L 180.960486 110.482717 
L 181.713715 109.850945 
L 181.964791 109.715288 
L 182.215868 109.776263 
L 183.220174 108.956103 
L 183.47125 108.566783 
L 183.722327 108.432168 
L 183.973403 108.102679 
L 184.22448 107.57214 
L 184.475556 107.412582 
L 184.726633 106.832518 
L 184.977709 106.563253 
L 185.479862 105.492905 
L 185.730939 105.268578 
L 186.484168 102.437009 
L 186.735244 101.767428 
L 187.237397 99.980226 
L 187.488474 99.869678 
L 187.73955 99.240116 
L 187.990627 99.145575 
L 188.241703 98.37852 
L 188.743856 97.978853 
L 189.246009 97.896446 
L 190.501392 98.015659 
L 190.752468 97.827469 
L 192.258927 97.821787 
L 192.510003 97.686601 
L 192.76108 97.414822 
L 193.012156 97.50836 
L 194.016462 97.198691 
L 195.522921 97.330213 
L 195.773998 97.373598 
L 196.276151 97.153555 
L 196.527227 97.045883 
L 196.778303 96.566342 
L 197.531533 93.708703 
L 198.284762 90.130593 
L 199.791221 84.848432 
L 200.042298 84.567846 
L 200.293374 83.711415 
L 201.799833 81.628799 
L 202.050909 81.558497 
L 202.301986 81.265706 
L 202.553062 81.252951 
L 202.804139 81.091815 
L 203.055215 81.29118 
L 203.306292 81.100749 
L 203.557368 81.074565 
L 203.808445 80.91386 
L 204.812751 80.910088 
L 205.56598 81.047824 
L 206.570286 80.738192 
L 208.076745 80.519123 
L 209.332127 80.472193 
L 209.83428 80.314298 
L 210.838586 80.171215 
L 211.340739 79.551312 
L 211.591816 78.75214 
L 211.842892 78.889606 
L 212.093968 78.264354 
L 212.345045 77.286984 
L 213.098274 75.969457 
L 213.349351 74.963872 
L 213.600427 74.445744 
L 213.851504 74.241612 
L 214.353657 72.683432 
L 214.604733 72.45331 
L 215.106886 70.882811 
L 215.609039 69.942558 
L 215.860116 70.054123 
L 216.111192 69.401163 
L 216.362269 69.15204 
L 216.613345 69.193056 
L 218.119804 67.519721 
L 219.375186 67.330165 
L 220.630569 66.657959 
L 220.881645 66.678332 
L 221.132722 66.513896 
L 223.39241 66.315396 
L 224.145639 66.509832 
L 226.907481 66.444734 
L 230.171475 66.440349 
L 234.941928 66.456161 
L 236.448387 66.471756 
L 237.954845 66.390029 
L 240.46561 66.383689 
L 241.972069 66.414013 
L 242.725298 66.40313 
L 248.751134 66.352419 
L 256.032352 66.355102 
L 260.802805 66.350315 
L 274.612011 66.352571 
L 360.229089 66.395598 
L 364.246312 66.589128 
L 369.016765 66.576782 
L 380.566283 66.490638 
L 415.214837 66.369764 
L 431.785884 66.404645 
L 450.61662 66.476775 
L 468.694126 66.517937 
L 490.286703 66.475048 
L 507.61098 66.361871 
L 545.774604 66.445219 
L 581.929616 66.467809 
L 632.144912 66.341317 
L 654.992871 66.182395 
L 670.308536 66.223542 
L 687.883889 66.245281 
L 701.190942 66.320192 
L 715.753378 66.404112 
L 763.206832 66.392049 
L 791.82955 66.318054 
L 846.815298 66.255784 
L 861.879886 66.328822 
L 861.879886 66.328822 
" style="fill:none;stroke:#17becf;stroke-linecap:square;stroke-width:1.5;"/>
   </g>
   <g id="patch_3">
    <path d="M 71.51625 250.313594 
L 71.51625 32.873594 
" style="fill:none;stroke:#000000;stroke-linecap:square;stroke-linejoin:miter;stroke-width:0.8;"/>
   </g>
   <g id="patch_4">
    <path d="M 899.51625 250.313594 
L 899.51625 32.873594 
" style="fill:none;stroke:#000000;stroke-linecap:square;stroke-linejoin:miter;stroke-width:0.8;"/>
   </g>
   <g id="patch_5">
    <path d="M 71.51625 250.313594 
L 899.51625 250.313594 
" style="fill:none;stroke:#000000;stroke-linecap:square;stroke-linejoin:miter;stroke-width:0.8;"/>
   </g>
   <g id="patch_6">
    <path d="M 71.51625 32.873594 
L 899.51625 32.873594 
" style="fill:none;stroke:#000000;stroke-linecap:square;stroke-linejoin:miter;stroke-width:0.8;"/>
   </g>
   <g id="legend_1">
    <g id="patch_7">
     <path d="M 946.11625 151.007031 
L 1153.584062 151.007031 
Q 1158.784062 151.007031 1158.784062 145.807031 
L 1158.784062 38.073594 
Q 1158.784062 32.873594 1153.584062 32.873594 
L 946.11625 32.873594 
Q 940.91625 32.873594 940.91625 38.073594 
L 940.91625 145.807031 
Q 940.91625 151.007031 946.11625 151.007031 
z
" style="fill:#ffffff;opacity:0.8;stroke:#cccccc;stroke-linejoin:miter;"/>
    </g>
    <g id="line2d_27">
     <path d="M 951.31625 52.783906 
L 1003.31625 52.783906 
" style="fill:none;stroke:#1f77b4;stroke-linecap:square;stroke-width:1.5;"/>
    </g>
    <g id="line2d_28"/>
    <g id="text_11">
     <!-- oscillator 1 -->
     <defs>
      <path d="M 3.328125 25.921875 
Q 3.328125 40.328125 11.328125 47.265625 
Q 18.015625 53.03125 27.640625 53.03125 
Q 38.328125 53.03125 45.109375 46.015625 
Q 51.90625 39.015625 51.90625 26.65625 
Q 51.90625 16.65625 48.90625 10.90625 
Q 45.90625 5.171875 40.15625 2 
Q 34.421875 -1.171875 27.640625 -1.171875 
Q 16.75 -1.171875 10.03125 5.8125 
Q 3.328125 12.796875 3.328125 25.921875 
z
M 12.359375 25.921875 
Q 12.359375 15.96875 16.703125 11.015625 
Q 21.046875 6.0625 27.640625 6.0625 
Q 34.1875 6.0625 38.53125 11.03125 
Q 42.875 16.015625 42.875 26.21875 
Q 42.875 35.84375 38.5 40.796875 
Q 34.125 45.75 27.640625 45.75 
Q 21.046875 45.75 16.703125 40.8125 
Q 12.359375 35.890625 12.359375 25.921875 
z
" id="ArialMT-111"/>
      <path d="M 6.640625 61.46875 
L 6.640625 71.578125 
L 15.4375 71.578125 
L 15.4375 61.46875 
z
M 6.640625 0 
L 6.640625 51.859375 
L 15.4375 51.859375 
L 15.4375 0 
z
" id="ArialMT-105"/>
     </defs>
     <g transform="translate(1024.11625 61.883906)scale(0.26 -0.26)">
      <use xlink:href="#ArialMT-111"/>
      <use x="55.615234" xlink:href="#ArialMT-115"/>
      <use x="105.615234" xlink:href="#ArialMT-99"/>
      <use x="155.615234" xlink:href="#ArialMT-105"/>
      <use x="177.832031" xlink:href="#ArialMT-108"/>
      <use x="200.048828" xlink:href="#ArialMT-108"/>
      <use x="222.265625" xlink:href="#ArialMT-97"/>
      <use x="277.880859" xlink:href="#ArialMT-116"/>
      <use x="305.664062" xlink:href="#ArialMT-111"/>
      <use x="361.279297" xlink:href="#ArialMT-114"/>
      <use x="394.580078" xlink:href="#ArialMT-32"/>
      <use x="422.363281" xlink:href="#ArialMT-49"/>
     </g>
    </g>
    <g id="line2d_29">
     <path d="M 951.31625 89.561719 
L 1003.31625 89.561719 
" style="fill:none;stroke:#ff7f0e;stroke-linecap:square;stroke-width:1.5;"/>
    </g>
    <g id="line2d_30"/>
    <g id="text_12">
     <!-- oscillator 2 -->
     <g transform="translate(1024.11625 98.661719)scale(0.26 -0.26)">
      <use xlink:href="#ArialMT-111"/>
      <use x="55.615234" xlink:href="#ArialMT-115"/>
      <use x="105.615234" xlink:href="#ArialMT-99"/>
      <use x="155.615234" xlink:href="#ArialMT-105"/>
      <use x="177.832031" xlink:href="#ArialMT-108"/>
      <use x="200.048828" xlink:href="#ArialMT-108"/>
      <use x="222.265625" xlink:href="#ArialMT-97"/>
      <use x="277.880859" xlink:href="#ArialMT-116"/>
      <use x="305.664062" xlink:href="#ArialMT-111"/>
      <use x="361.279297" xlink:href="#ArialMT-114"/>
      <use x="394.580078" xlink:href="#ArialMT-32"/>
      <use x="422.363281" xlink:href="#ArialMT-50"/>
     </g>
    </g>
    <g id="line2d_31">
     <path d="M 951.31625 126.339531 
L 1003.31625 126.339531 
" style="fill:none;stroke:#2ca02c;stroke-linecap:square;stroke-width:1.5;"/>
    </g>
    <g id="line2d_32"/>
    <g id="text_13">
     <!-- oscillator 3 -->
     <g transform="translate(1024.11625 135.439531)scale(0.26 -0.26)">
      <use xlink:href="#ArialMT-111"/>
      <use x="55.615234" xlink:href="#ArialMT-115"/>
      <use x="105.615234" xlink:href="#ArialMT-99"/>
      <use x="155.615234" xlink:href="#ArialMT-105"/>
      <use x="177.832031" xlink:href="#ArialMT-108"/>
      <use x="200.048828" xlink:href="#ArialMT-108"/>
      <use x="222.265625" xlink:href="#ArialMT-97"/>
      <use x="277.880859" xlink:href="#ArialMT-116"/>
      <use x="305.664062" xlink:href="#ArialMT-111"/>
      <use x="361.279297" xlink:href="#ArialMT-114"/>
      <use x="394.580078" xlink:href="#ArialMT-32"/>
      <use x="422.363281" xlink:href="#ArialMT-51"/>
     </g>
    </g>
   </g>
  </g>
 </g>
 <defs>
  <clipPath id="p0b6f915aa8">
   <rect height="217.44" width="828" x="71.51625" y="32.873594"/>
  </clipPath>
 </defs>
</svg>
