<?xml version="1.0" encoding="utf-8" standalone="no"?>
<!DOCTYPE svg PUBLIC "-//W3C//DTD SVG 1.1//EN"
  "http://www.w3.org/Graphics/SVG/1.1/DTD/svg11.dtd">
<!-- Created with matplotlib (https://matplotlib.org/) -->
<svg height="288pt" version="1.1" viewBox="0 0 1440 288" width="1440pt" xmlns="http://www.w3.org/2000/svg" xmlns:xlink="http://www.w3.org/1999/xlink">
 <defs>
  <style type="text/css">
*{stroke-linecap:butt;stroke-linejoin:round;}
  </style>
 </defs>
 <g id="figure_1">
  <g id="patch_1">
   <path d="M 0 288 
L 1440 288 
L 1440 0 
L 0 0 
z
" style="fill:#ffffff;"/>
  </g>
  <g id="axes_1">
   <g id="patch_2">
    <path d="M 180 252 
L 1008 252 
L 1008 34.56 
L 180 34.56 
z
" style="fill:#ffffff;"/>
   </g>
   <g id="PathCollection_1">
    <defs>
     <path d="M 0 3 
C 0.795609 3 1.55874 2.683901 2.12132 2.12132 
C 2.683901 1.55874 3 0.795609 3 0 
C 3 -0.795609 2.683901 -1.55874 2.12132 -2.12132 
C 1.55874 -2.683901 0.795609 -3 0 -3 
C -0.795609 -3 -1.55874 -2.683901 -2.12132 -2.12132 
C -2.683901 -1.55874 -3 -0.795609 -3 0 
C -3 0.795609 -2.683901 1.55874 -2.12132 2.12132 
C -1.55874 2.683901 -0.795609 3 0 3 
z
" id="m7a788fb1d6" style="stroke:#ff0000;"/>
    </defs>
    <g clip-path="url(#p6cae140feb)">
     <use style="fill:#ff0000;stroke:#ff0000;" x="217.636364" xlink:href="#m7a788fb1d6" y="132.324578"/>
     <use style="fill:#ff0000;stroke:#ff0000;" x="468.461762" xlink:href="#m7a788fb1d6" y="44.443636"/>
     <use style="fill:#ff0000;stroke:#ff0000;" x="468.712839" xlink:href="#m7a788fb1d6" y="52.849474"/>
     <use style="fill:#ff0000;stroke:#ff0000;" x="468.963915" xlink:href="#m7a788fb1d6" y="61.473614"/>
     <use style="fill:#ff0000;stroke:#ff0000;" x="469.214992" xlink:href="#m7a788fb1d6" y="69.87194"/>
     <use style="fill:#ff0000;stroke:#ff0000;" x="469.466068" xlink:href="#m7a788fb1d6" y="81.017875"/>
     <use style="fill:#ff0000;stroke:#ff0000;" x="469.717145" xlink:href="#m7a788fb1d6" y="88.803889"/>
     <use style="fill:#ff0000;stroke:#ff0000;" x="469.968221" xlink:href="#m7a788fb1d6" y="102.48133"/>
     <use style="fill:#ff0000;stroke:#ff0000;" x="470.219298" xlink:href="#m7a788fb1d6" y="111.989149"/>
     <use style="fill:#ff0000;stroke:#ff0000;" x="470.470374" xlink:href="#m7a788fb1d6" y="125.219759"/>
     <use style="fill:#ff0000;stroke:#ff0000;" x="470.721451" xlink:href="#m7a788fb1d6" y="134.722984"/>
     <use style="fill:#ff0000;stroke:#ff0000;" x="470.972527" xlink:href="#m7a788fb1d6" y="144.933227"/>
     <use style="fill:#ff0000;stroke:#ff0000;" x="485.786039" xlink:href="#m7a788fb1d6" y="146.036128"/>
     <use style="fill:#ff0000;stroke:#ff0000;" x="486.037116" xlink:href="#m7a788fb1d6" y="144.403083"/>
     <use style="fill:#ff0000;stroke:#ff0000;" x="486.288192" xlink:href="#m7a788fb1d6" y="144.735642"/>
     <use style="fill:#ff0000;stroke:#ff0000;" x="486.539269" xlink:href="#m7a788fb1d6" y="143.650556"/>
     <use style="fill:#ff0000;stroke:#ff0000;" x="520.183516" xlink:href="#m7a788fb1d6" y="143.687634"/>
     <use style="fill:#ff0000;stroke:#ff0000;" x="520.434593" xlink:href="#m7a788fb1d6" y="139.696656"/>
     <use style="fill:#ff0000;stroke:#ff0000;" x="520.685669" xlink:href="#m7a788fb1d6" y="137.473267"/>
     <use style="fill:#ff0000;stroke:#ff0000;" x="520.936746" xlink:href="#m7a788fb1d6" y="132.68987"/>
     <use style="fill:#ff0000;stroke:#ff0000;" x="521.187822" xlink:href="#m7a788fb1d6" y="130.93663"/>
     <use style="fill:#ff0000;stroke:#ff0000;" x="521.438899" xlink:href="#m7a788fb1d6" y="127.49192"/>
     <use style="fill:#ff0000;stroke:#ff0000;" x="521.689975" xlink:href="#m7a788fb1d6" y="124.248936"/>
     <use style="fill:#ff0000;stroke:#ff0000;" x="521.941052" xlink:href="#m7a788fb1d6" y="122.594216"/>
     <use style="fill:#ff0000;stroke:#ff0000;" x="522.192128" xlink:href="#m7a788fb1d6" y="116.841232"/>
     <use style="fill:#ff0000;stroke:#ff0000;" x="522.443205" xlink:href="#m7a788fb1d6" y="113.356281"/>
     <use style="fill:#ff0000;stroke:#ff0000;" x="522.694281" xlink:href="#m7a788fb1d6" y="109.890004"/>
     <use style="fill:#ff0000;stroke:#ff0000;" x="522.945358" xlink:href="#m7a788fb1d6" y="109.094885"/>
     <use style="fill:#ff0000;stroke:#ff0000;" x="523.196434" xlink:href="#m7a788fb1d6" y="105.790893"/>
     <use style="fill:#ff0000;stroke:#ff0000;" x="523.44751" xlink:href="#m7a788fb1d6" y="102.398779"/>
     <use style="fill:#ff0000;stroke:#ff0000;" x="523.698587" xlink:href="#m7a788fb1d6" y="100.217466"/>
     <use style="fill:#ff0000;stroke:#ff0000;" x="523.949663" xlink:href="#m7a788fb1d6" y="100.810044"/>
     <use style="fill:#ff0000;stroke:#ff0000;" x="524.20074" xlink:href="#m7a788fb1d6" y="100.125985"/>
     <use style="fill:#ff0000;stroke:#ff0000;" x="524.451816" xlink:href="#m7a788fb1d6" y="96.98422"/>
     <use style="fill:#ff0000;stroke:#ff0000;" x="524.702893" xlink:href="#m7a788fb1d6" y="96.497217"/>
     <use style="fill:#ff0000;stroke:#ff0000;" x="524.953969" xlink:href="#m7a788fb1d6" y="94.150384"/>
     <use style="fill:#ff0000;stroke:#ff0000;" x="525.205046" xlink:href="#m7a788fb1d6" y="100.989223"/>
     <use style="fill:#ff0000;stroke:#ff0000;" x="525.456122" xlink:href="#m7a788fb1d6" y="99.293984"/>
     <use style="fill:#ff0000;stroke:#ff0000;" x="525.707199" xlink:href="#m7a788fb1d6" y="100.834849"/>
     <use style="fill:#ff0000;stroke:#ff0000;" x="525.958275" xlink:href="#m7a788fb1d6" y="105.14534"/>
     <use style="fill:#ff0000;stroke:#ff0000;" x="526.209352" xlink:href="#m7a788fb1d6" y="110.279932"/>
     <use style="fill:#ff0000;stroke:#ff0000;" x="526.460428" xlink:href="#m7a788fb1d6" y="112.583761"/>
     <use style="fill:#ff0000;stroke:#ff0000;" x="526.711505" xlink:href="#m7a788fb1d6" y="116.819308"/>
     <use style="fill:#ff0000;stroke:#ff0000;" x="526.962581" xlink:href="#m7a788fb1d6" y="124.700568"/>
     <use style="fill:#ff0000;stroke:#ff0000;" x="527.213658" xlink:href="#m7a788fb1d6" y="127.463248"/>
     <use style="fill:#ff0000;stroke:#ff0000;" x="527.464734" xlink:href="#m7a788fb1d6" y="134.524496"/>
     <use style="fill:#ff0000;stroke:#ff0000;" x="527.715811" xlink:href="#m7a788fb1d6" y="138.893747"/>
     <use style="fill:#ff0000;stroke:#ff0000;" x="527.966887" xlink:href="#m7a788fb1d6" y="146.677682"/>
     <use style="fill:#ff0000;stroke:#ff0000;" x="555.334223" xlink:href="#m7a788fb1d6" y="140.163045"/>
     <use style="fill:#ff0000;stroke:#ff0000;" x="555.585299" xlink:href="#m7a788fb1d6" y="135.750736"/>
     <use style="fill:#ff0000;stroke:#ff0000;" x="555.836376" xlink:href="#m7a788fb1d6" y="126.905757"/>
     <use style="fill:#ff0000;stroke:#ff0000;" x="556.087452" xlink:href="#m7a788fb1d6" y="124.488427"/>
     <use style="fill:#ff0000;stroke:#ff0000;" x="556.338529" xlink:href="#m7a788fb1d6" y="117.753846"/>
     <use style="fill:#ff0000;stroke:#ff0000;" x="556.589605" xlink:href="#m7a788fb1d6" y="112.972048"/>
     <use style="fill:#ff0000;stroke:#ff0000;" x="556.840682" xlink:href="#m7a788fb1d6" y="109.265792"/>
     <use style="fill:#ff0000;stroke:#ff0000;" x="557.091758" xlink:href="#m7a788fb1d6" y="104.045586"/>
     <use style="fill:#ff0000;stroke:#ff0000;" x="557.342835" xlink:href="#m7a788fb1d6" y="98.203226"/>
     <use style="fill:#ff0000;stroke:#ff0000;" x="557.593911" xlink:href="#m7a788fb1d6" y="95.565752"/>
     <use style="fill:#ff0000;stroke:#ff0000;" x="557.844988" xlink:href="#m7a788fb1d6" y="94.823897"/>
     <use style="fill:#ff0000;stroke:#ff0000;" x="558.096064" xlink:href="#m7a788fb1d6" y="88.408726"/>
     <use style="fill:#ff0000;stroke:#ff0000;" x="558.347141" xlink:href="#m7a788fb1d6" y="88.397999"/>
     <use style="fill:#ff0000;stroke:#ff0000;" x="558.598217" xlink:href="#m7a788fb1d6" y="86.983371"/>
     <use style="fill:#ff0000;stroke:#ff0000;" x="558.849293" xlink:href="#m7a788fb1d6" y="86.360161"/>
     <use style="fill:#ff0000;stroke:#ff0000;" x="559.10037" xlink:href="#m7a788fb1d6" y="82.680098"/>
     <use style="fill:#ff0000;stroke:#ff0000;" x="559.351446" xlink:href="#m7a788fb1d6" y="83.530045"/>
     <use style="fill:#ff0000;stroke:#ff0000;" x="559.602523" xlink:href="#m7a788fb1d6" y="86.922935"/>
     <use style="fill:#ff0000;stroke:#ff0000;" x="559.853599" xlink:href="#m7a788fb1d6" y="88.806724"/>
     <use style="fill:#ff0000;stroke:#ff0000;" x="560.104676" xlink:href="#m7a788fb1d6" y="93.100513"/>
     <use style="fill:#ff0000;stroke:#ff0000;" x="560.355752" xlink:href="#m7a788fb1d6" y="95.748791"/>
     <use style="fill:#ff0000;stroke:#ff0000;" x="560.606829" xlink:href="#m7a788fb1d6" y="99.825614"/>
     <use style="fill:#ff0000;stroke:#ff0000;" x="560.857905" xlink:href="#m7a788fb1d6" y="102.145132"/>
     <use style="fill:#ff0000;stroke:#ff0000;" x="561.108982" xlink:href="#m7a788fb1d6" y="108.551475"/>
     <use style="fill:#ff0000;stroke:#ff0000;" x="561.360058" xlink:href="#m7a788fb1d6" y="112.04378"/>
     <use style="fill:#ff0000;stroke:#ff0000;" x="561.611135" xlink:href="#m7a788fb1d6" y="115.868585"/>
     <use style="fill:#ff0000;stroke:#ff0000;" x="561.862211" xlink:href="#m7a788fb1d6" y="124.071348"/>
     <use style="fill:#ff0000;stroke:#ff0000;" x="562.113288" xlink:href="#m7a788fb1d6" y="129.96752"/>
     <use style="fill:#ff0000;stroke:#ff0000;" x="562.364364" xlink:href="#m7a788fb1d6" y="135.744319"/>
     <use style="fill:#ff0000;stroke:#ff0000;" x="562.615441" xlink:href="#m7a788fb1d6" y="140.253171"/>
     <use style="fill:#ff0000;stroke:#ff0000;" x="562.866517" xlink:href="#m7a788fb1d6" y="146.946101"/>
     <use style="fill:#ff0000;stroke:#ff0000;" x="719.538238" xlink:href="#m7a788fb1d6" y="72.187163"/>
     <use style="fill:#ff0000;stroke:#ff0000;" x="719.789314" xlink:href="#m7a788fb1d6" y="80.320491"/>
     <use style="fill:#ff0000;stroke:#ff0000;" x="720.040391" xlink:href="#m7a788fb1d6" y="87.657344"/>
     <use style="fill:#ff0000;stroke:#ff0000;" x="720.291467" xlink:href="#m7a788fb1d6" y="97.513151"/>
     <use style="fill:#ff0000;stroke:#ff0000;" x="720.542544" xlink:href="#m7a788fb1d6" y="105.100017"/>
     <use style="fill:#ff0000;stroke:#ff0000;" x="720.79362" xlink:href="#m7a788fb1d6" y="114.092891"/>
     <use style="fill:#ff0000;stroke:#ff0000;" x="721.044696" xlink:href="#m7a788fb1d6" y="120.721315"/>
     <use style="fill:#ff0000;stroke:#ff0000;" x="721.295773" xlink:href="#m7a788fb1d6" y="127.349105"/>
     <use style="fill:#ff0000;stroke:#ff0000;" x="721.546849" xlink:href="#m7a788fb1d6" y="133.935238"/>
     <use style="fill:#ff0000;stroke:#ff0000;" x="721.797926" xlink:href="#m7a788fb1d6" y="140.557123"/>
     <use style="fill:#ff0000;stroke:#ff0000;" x="722.049002" xlink:href="#m7a788fb1d6" y="146.970449"/>
    </g>
   </g>
   <g id="matplotlib.axis_1">
    <g id="xtick_1">
     <g id="line2d_1">
      <path clip-path="url(#p6cae140feb)" d="M 217.636364 252 
L 217.636364 34.56 
" style="fill:none;stroke:#b0b0b0;stroke-linecap:square;stroke-width:0.8;"/>
     </g>
     <g id="line2d_2">
      <defs>
       <path d="M 0 0 
L 0 3.5 
" id="mfc624e87a0" style="stroke:#000000;stroke-width:0.8;"/>
      </defs>
      <g>
       <use style="stroke:#000000;stroke-width:0.8;" x="217.636364" xlink:href="#mfc624e87a0" y="252"/>
      </g>
     </g>
     <g id="text_1">
      <!-- 0 -->
      <defs>
       <path d="M 4.15625 35.296875 
Q 4.15625 48 6.765625 55.734375 
Q 9.375 63.484375 14.515625 67.671875 
Q 19.671875 71.875 27.484375 71.875 
Q 33.25 71.875 37.59375 69.546875 
Q 41.9375 67.234375 44.765625 62.859375 
Q 47.609375 58.5 49.21875 52.21875 
Q 50.828125 45.953125 50.828125 35.296875 
Q 50.828125 22.703125 48.234375 14.96875 
Q 45.65625 7.234375 40.5 3 
Q 35.359375 -1.21875 27.484375 -1.21875 
Q 17.140625 -1.21875 11.234375 6.203125 
Q 4.15625 15.140625 4.15625 35.296875 
z
M 13.1875 35.296875 
Q 13.1875 17.671875 17.3125 11.828125 
Q 21.4375 6 27.484375 6 
Q 33.546875 6 37.671875 11.859375 
Q 41.796875 17.71875 41.796875 35.296875 
Q 41.796875 52.984375 37.671875 58.78125 
Q 33.546875 64.59375 27.390625 64.59375 
Q 21.34375 64.59375 17.71875 59.46875 
Q 13.1875 52.9375 13.1875 35.296875 
z
" id="ArialMT-48"/>
      </defs>
      <g transform="translate(210.407145 277.610313)scale(0.26 -0.26)">
       <use xlink:href="#ArialMT-48"/>
      </g>
     </g>
    </g>
    <g id="xtick_2">
     <g id="line2d_3">
      <path clip-path="url(#p6cae140feb)" d="M 468.712839 252 
L 468.712839 34.56 
" style="fill:none;stroke:#b0b0b0;stroke-linecap:square;stroke-width:0.8;"/>
     </g>
     <g id="line2d_4">
      <g>
       <use style="stroke:#000000;stroke-width:0.8;" x="468.712839" xlink:href="#mfc624e87a0" y="252"/>
      </g>
     </g>
     <g id="text_2">
      <!-- 1000 -->
      <defs>
       <path d="M 37.25 0 
L 28.46875 0 
L 28.46875 56 
Q 25.296875 52.984375 20.140625 49.953125 
Q 14.984375 46.921875 10.890625 45.40625 
L 10.890625 53.90625 
Q 18.265625 57.375 23.78125 62.296875 
Q 29.296875 67.234375 31.59375 71.875 
L 37.25 71.875 
z
" id="ArialMT-49"/>
      </defs>
      <g transform="translate(439.795964 277.610313)scale(0.26 -0.26)">
       <use xlink:href="#ArialMT-49"/>
       <use x="55.615234" xlink:href="#ArialMT-48"/>
       <use x="111.230469" xlink:href="#ArialMT-48"/>
       <use x="166.845703" xlink:href="#ArialMT-48"/>
      </g>
     </g>
    </g>
    <g id="xtick_3">
     <g id="line2d_5">
      <path clip-path="url(#p6cae140feb)" d="M 719.789314 252 
L 719.789314 34.56 
" style="fill:none;stroke:#b0b0b0;stroke-linecap:square;stroke-width:0.8;"/>
     </g>
     <g id="line2d_6">
      <g>
       <use style="stroke:#000000;stroke-width:0.8;" x="719.789314" xlink:href="#mfc624e87a0" y="252"/>
      </g>
     </g>
     <g id="text_3">
      <!-- 2000 -->
      <defs>
       <path d="M 50.34375 8.453125 
L 50.34375 0 
L 3.03125 0 
Q 2.9375 3.171875 4.046875 6.109375 
Q 5.859375 10.9375 9.828125 15.625 
Q 13.8125 20.3125 21.34375 26.46875 
Q 33.015625 36.03125 37.109375 41.625 
Q 41.21875 47.21875 41.21875 52.203125 
Q 41.21875 57.421875 37.46875 61 
Q 33.734375 64.59375 27.734375 64.59375 
Q 21.390625 64.59375 17.578125 60.78125 
Q 13.765625 56.984375 13.71875 50.25 
L 4.6875 51.171875 
Q 5.609375 61.28125 11.65625 66.578125 
Q 17.71875 71.875 27.9375 71.875 
Q 38.234375 71.875 44.234375 66.15625 
Q 50.25 60.453125 50.25 52 
Q 50.25 47.703125 48.484375 43.546875 
Q 46.734375 39.40625 42.65625 34.8125 
Q 38.578125 30.21875 29.109375 22.21875 
Q 21.1875 15.578125 18.9375 13.203125 
Q 16.703125 10.84375 15.234375 8.453125 
z
" id="ArialMT-50"/>
      </defs>
      <g transform="translate(690.872439 277.610313)scale(0.26 -0.26)">
       <use xlink:href="#ArialMT-50"/>
       <use x="55.615234" xlink:href="#ArialMT-48"/>
       <use x="111.230469" xlink:href="#ArialMT-48"/>
       <use x="166.845703" xlink:href="#ArialMT-48"/>
      </g>
     </g>
    </g>
    <g id="xtick_4">
     <g id="line2d_7">
      <path clip-path="url(#p6cae140feb)" d="M 970.865789 252 
L 970.865789 34.56 
" style="fill:none;stroke:#b0b0b0;stroke-linecap:square;stroke-width:0.8;"/>
     </g>
     <g id="line2d_8">
      <g>
       <use style="stroke:#000000;stroke-width:0.8;" x="970.865789" xlink:href="#mfc624e87a0" y="252"/>
      </g>
     </g>
     <g id="text_4">
      <!-- 3000 -->
      <defs>
       <path d="M 4.203125 18.890625 
L 12.984375 20.0625 
Q 14.5 12.59375 18.140625 9.296875 
Q 21.78125 6 27 6 
Q 33.203125 6 37.46875 10.296875 
Q 41.75 14.59375 41.75 20.953125 
Q 41.75 27 37.796875 30.921875 
Q 33.84375 34.859375 27.734375 34.859375 
Q 25.25 34.859375 21.53125 33.890625 
L 22.515625 41.609375 
Q 23.390625 41.5 23.921875 41.5 
Q 29.546875 41.5 34.03125 44.421875 
Q 38.53125 47.359375 38.53125 53.46875 
Q 38.53125 58.296875 35.25 61.46875 
Q 31.984375 64.65625 26.8125 64.65625 
Q 21.6875 64.65625 18.265625 61.421875 
Q 14.84375 58.203125 13.875 51.765625 
L 5.078125 53.328125 
Q 6.6875 62.15625 12.390625 67.015625 
Q 18.109375 71.875 26.609375 71.875 
Q 32.46875 71.875 37.390625 69.359375 
Q 42.328125 66.84375 44.9375 62.5 
Q 47.5625 58.15625 47.5625 53.265625 
Q 47.5625 48.640625 45.0625 44.828125 
Q 42.578125 41.015625 37.703125 38.765625 
Q 44.046875 37.3125 47.5625 32.6875 
Q 51.078125 28.078125 51.078125 21.140625 
Q 51.078125 11.765625 44.234375 5.25 
Q 37.40625 -1.265625 26.953125 -1.265625 
Q 17.53125 -1.265625 11.296875 4.34375 
Q 5.078125 9.96875 4.203125 18.890625 
z
" id="ArialMT-51"/>
      </defs>
      <g transform="translate(941.948914 277.610313)scale(0.26 -0.26)">
       <use xlink:href="#ArialMT-51"/>
       <use x="55.615234" xlink:href="#ArialMT-48"/>
       <use x="111.230469" xlink:href="#ArialMT-48"/>
       <use x="166.845703" xlink:href="#ArialMT-48"/>
      </g>
     </g>
    </g>
    <g id="text_5">
     <!-- # sample -->
     <defs>
      <path d="M 5.03125 -1.21875 
L 9.28125 19.578125 
L 1.03125 19.578125 
L 1.03125 26.859375 
L 10.75 26.859375 
L 14.359375 44.578125 
L 1.03125 44.578125 
L 1.03125 51.859375 
L 15.828125 51.859375 
L 20.0625 72.796875 
L 27.390625 72.796875 
L 23.140625 51.859375 
L 38.53125 51.859375 
L 42.78125 72.796875 
L 50.140625 72.796875 
L 45.90625 51.859375 
L 54.34375 51.859375 
L 54.34375 44.578125 
L 44.4375 44.578125 
L 40.765625 26.859375 
L 54.34375 26.859375 
L 54.34375 19.578125 
L 39.3125 19.578125 
L 35.0625 -1.21875 
L 27.734375 -1.21875 
L 31.9375 19.578125 
L 16.609375 19.578125 
L 12.359375 -1.21875 
z
M 18.0625 26.859375 
L 33.40625 26.859375 
L 37.0625 44.578125 
L 21.6875 44.578125 
z
" id="ArialMT-35"/>
      <path id="ArialMT-32"/>
      <path d="M 3.078125 15.484375 
L 11.765625 16.84375 
Q 12.5 11.625 15.84375 8.84375 
Q 19.1875 6.0625 25.203125 6.0625 
Q 31.25 6.0625 34.171875 8.515625 
Q 37.109375 10.984375 37.109375 14.3125 
Q 37.109375 17.28125 34.515625 19 
Q 32.71875 20.171875 25.53125 21.96875 
Q 15.875 24.421875 12.140625 26.203125 
Q 8.40625 27.984375 6.46875 31.125 
Q 4.546875 34.28125 4.546875 38.09375 
Q 4.546875 41.546875 6.125 44.5 
Q 7.71875 47.46875 10.453125 49.421875 
Q 12.5 50.921875 16.03125 51.96875 
Q 19.578125 53.03125 23.640625 53.03125 
Q 29.734375 53.03125 34.34375 51.265625 
Q 38.96875 49.515625 41.15625 46.5 
Q 43.359375 43.5 44.1875 38.484375 
L 35.59375 37.3125 
Q 35.015625 41.3125 32.203125 43.546875 
Q 29.390625 45.796875 24.265625 45.796875 
Q 18.21875 45.796875 15.625 43.796875 
Q 13.03125 41.796875 13.03125 39.109375 
Q 13.03125 37.40625 14.109375 36.03125 
Q 15.1875 34.625 17.484375 33.6875 
Q 18.796875 33.203125 25.25 31.453125 
Q 34.578125 28.953125 38.25 27.359375 
Q 41.9375 25.78125 44.03125 22.75 
Q 46.140625 19.734375 46.140625 15.234375 
Q 46.140625 10.84375 43.578125 6.953125 
Q 41.015625 3.078125 36.171875 0.953125 
Q 31.34375 -1.171875 25.25 -1.171875 
Q 15.140625 -1.171875 9.84375 3.03125 
Q 4.546875 7.234375 3.078125 15.484375 
z
" id="ArialMT-115"/>
      <path d="M 40.4375 6.390625 
Q 35.546875 2.25 31.03125 0.53125 
Q 26.515625 -1.171875 21.34375 -1.171875 
Q 12.796875 -1.171875 8.203125 3 
Q 3.609375 7.171875 3.609375 13.671875 
Q 3.609375 17.484375 5.34375 20.625 
Q 7.078125 23.78125 9.890625 25.6875 
Q 12.703125 27.59375 16.21875 28.5625 
Q 18.796875 29.25 24.03125 29.890625 
Q 34.671875 31.15625 39.703125 32.90625 
Q 39.75 34.71875 39.75 35.203125 
Q 39.75 40.578125 37.25 42.78125 
Q 33.890625 45.75 27.25 45.75 
Q 21.046875 45.75 18.09375 43.578125 
Q 15.140625 41.40625 13.71875 35.890625 
L 5.125 37.0625 
Q 6.296875 42.578125 8.984375 45.96875 
Q 11.671875 49.359375 16.75 51.1875 
Q 21.828125 53.03125 28.515625 53.03125 
Q 35.15625 53.03125 39.296875 51.46875 
Q 43.453125 49.90625 45.40625 47.53125 
Q 47.359375 45.171875 48.140625 41.546875 
Q 48.578125 39.3125 48.578125 33.453125 
L 48.578125 21.734375 
Q 48.578125 9.46875 49.140625 6.21875 
Q 49.703125 2.984375 51.375 0 
L 42.1875 0 
Q 40.828125 2.734375 40.4375 6.390625 
z
M 39.703125 26.03125 
Q 34.90625 24.078125 25.34375 22.703125 
Q 19.921875 21.921875 17.671875 20.9375 
Q 15.4375 19.96875 14.203125 18.09375 
Q 12.984375 16.21875 12.984375 13.921875 
Q 12.984375 10.40625 15.640625 8.0625 
Q 18.3125 5.71875 23.4375 5.71875 
Q 28.515625 5.71875 32.46875 7.9375 
Q 36.421875 10.15625 38.28125 14.015625 
Q 39.703125 17 39.703125 22.796875 
z
" id="ArialMT-97"/>
      <path d="M 6.59375 0 
L 6.59375 51.859375 
L 14.453125 51.859375 
L 14.453125 44.578125 
Q 16.890625 48.390625 20.9375 50.703125 
Q 25 53.03125 30.171875 53.03125 
Q 35.9375 53.03125 39.625 50.640625 
Q 43.3125 48.25 44.828125 43.953125 
Q 50.984375 53.03125 60.84375 53.03125 
Q 68.5625 53.03125 72.703125 48.75 
Q 76.859375 44.484375 76.859375 35.59375 
L 76.859375 0 
L 68.109375 0 
L 68.109375 32.671875 
Q 68.109375 37.9375 67.25 40.25 
Q 66.40625 42.578125 64.15625 43.984375 
Q 61.921875 45.40625 58.890625 45.40625 
Q 53.421875 45.40625 49.796875 41.765625 
Q 46.1875 38.140625 46.1875 30.125 
L 46.1875 0 
L 37.40625 0 
L 37.40625 33.6875 
Q 37.40625 39.546875 35.25 42.46875 
Q 33.109375 45.40625 28.21875 45.40625 
Q 24.515625 45.40625 21.359375 43.453125 
Q 18.21875 41.5 16.796875 37.734375 
Q 15.375 33.984375 15.375 26.90625 
L 15.375 0 
z
" id="ArialMT-109"/>
      <path d="M 6.59375 -19.875 
L 6.59375 51.859375 
L 14.59375 51.859375 
L 14.59375 45.125 
Q 17.4375 49.078125 21 51.046875 
Q 24.5625 53.03125 29.640625 53.03125 
Q 36.28125 53.03125 41.359375 49.609375 
Q 46.4375 46.1875 49.015625 39.953125 
Q 51.609375 33.734375 51.609375 26.3125 
Q 51.609375 18.359375 48.75 11.984375 
Q 45.90625 5.609375 40.453125 2.21875 
Q 35.015625 -1.171875 29 -1.171875 
Q 24.609375 -1.171875 21.109375 0.6875 
Q 17.625 2.546875 15.375 5.375 
L 15.375 -19.875 
z
M 14.546875 25.640625 
Q 14.546875 15.625 18.59375 10.84375 
Q 22.65625 6.0625 28.421875 6.0625 
Q 34.28125 6.0625 38.453125 11.015625 
Q 42.625 15.96875 42.625 26.375 
Q 42.625 36.28125 38.546875 41.203125 
Q 34.46875 46.140625 28.8125 46.140625 
Q 23.1875 46.140625 18.859375 40.890625 
Q 14.546875 35.640625 14.546875 25.640625 
z
" id="ArialMT-112"/>
      <path d="M 6.390625 0 
L 6.390625 71.578125 
L 15.1875 71.578125 
L 15.1875 0 
z
" id="ArialMT-108"/>
      <path d="M 42.09375 16.703125 
L 51.171875 15.578125 
Q 49.03125 7.625 43.21875 3.21875 
Q 37.40625 -1.171875 28.375 -1.171875 
Q 17 -1.171875 10.328125 5.828125 
Q 3.65625 12.84375 3.65625 25.484375 
Q 3.65625 38.578125 10.390625 45.796875 
Q 17.140625 53.03125 27.875 53.03125 
Q 38.28125 53.03125 44.875 45.953125 
Q 51.46875 38.875 51.46875 26.03125 
Q 51.46875 25.25 51.421875 23.6875 
L 12.75 23.6875 
Q 13.234375 15.140625 17.578125 10.59375 
Q 21.921875 6.0625 28.421875 6.0625 
Q 33.25 6.0625 36.671875 8.59375 
Q 40.09375 11.140625 42.09375 16.703125 
z
M 13.234375 30.90625 
L 42.1875 30.90625 
Q 41.609375 37.453125 38.875 40.71875 
Q 34.671875 45.796875 27.984375 45.796875 
Q 21.921875 45.796875 17.796875 41.75 
Q 13.671875 37.703125 13.234375 30.90625 
z
" id="ArialMT-101"/>
     </defs>
     <g transform="translate(541.254531 305.705)scale(0.26 -0.26)">
      <use xlink:href="#ArialMT-35"/>
      <use x="55.615234" xlink:href="#ArialMT-32"/>
      <use x="83.398438" xlink:href="#ArialMT-115"/>
      <use x="133.398438" xlink:href="#ArialMT-97"/>
      <use x="189.013672" xlink:href="#ArialMT-109"/>
      <use x="272.314453" xlink:href="#ArialMT-112"/>
      <use x="327.929688" xlink:href="#ArialMT-108"/>
      <use x="350.146484" xlink:href="#ArialMT-101"/>
     </g>
    </g>
   </g>
   <g id="matplotlib.axis_2">
    <g id="ytick_1">
     <g id="line2d_9">
      <path clip-path="url(#p6cae140feb)" d="M 180 242.127193 
L 1008 242.127193 
" style="fill:none;stroke:#b0b0b0;stroke-linecap:square;stroke-width:0.8;"/>
     </g>
     <g id="line2d_10">
      <defs>
       <path d="M 0 0 
L -3.5 0 
" id="m9bffdf58e3" style="stroke:#000000;stroke-width:0.8;"/>
      </defs>
      <g>
       <use style="stroke:#000000;stroke-width:0.8;" x="180" xlink:href="#m9bffdf58e3" y="242.127193"/>
      </g>
     </g>
     <g id="text_6">
      <!-- 0 -->
      <g transform="translate(158.541562 251.432349)scale(0.26 -0.26)">
       <use xlink:href="#ArialMT-48"/>
      </g>
     </g>
    </g>
    <g id="ytick_2">
     <g id="line2d_11">
      <path clip-path="url(#p6cae140feb)" d="M 180 176.340597 
L 1008 176.340597 
" style="fill:none;stroke:#b0b0b0;stroke-linecap:square;stroke-width:0.8;"/>
     </g>
     <g id="line2d_12">
      <g>
       <use style="stroke:#000000;stroke-width:0.8;" x="180" xlink:href="#m9bffdf58e3" y="176.340597"/>
      </g>
     </g>
     <g id="text_7">
      <!-- 100 -->
      <g transform="translate(129.624687 185.645754)scale(0.26 -0.26)">
       <use xlink:href="#ArialMT-49"/>
       <use x="55.615234" xlink:href="#ArialMT-48"/>
       <use x="111.230469" xlink:href="#ArialMT-48"/>
      </g>
     </g>
    </g>
    <g id="ytick_3">
     <g id="line2d_13">
      <path clip-path="url(#p6cae140feb)" d="M 180 110.554002 
L 1008 110.554002 
" style="fill:none;stroke:#b0b0b0;stroke-linecap:square;stroke-width:0.8;"/>
     </g>
     <g id="line2d_14">
      <g>
       <use style="stroke:#000000;stroke-width:0.8;" x="180" xlink:href="#m9bffdf58e3" y="110.554002"/>
      </g>
     </g>
     <g id="text_8">
      <!-- 200 -->
      <g transform="translate(129.624687 119.859158)scale(0.26 -0.26)">
       <use xlink:href="#ArialMT-50"/>
       <use x="55.615234" xlink:href="#ArialMT-48"/>
       <use x="111.230469" xlink:href="#ArialMT-48"/>
      </g>
     </g>
    </g>
    <g id="ytick_4">
     <g id="line2d_15">
      <path clip-path="url(#p6cae140feb)" d="M 180 44.767407 
L 1008 44.767407 
" style="fill:none;stroke:#b0b0b0;stroke-linecap:square;stroke-width:0.8;"/>
     </g>
     <g id="line2d_16">
      <g>
       <use style="stroke:#000000;stroke-width:0.8;" x="180" xlink:href="#m9bffdf58e3" y="44.767407"/>
      </g>
     </g>
     <g id="text_9">
      <!-- 300 -->
      <g transform="translate(129.624687 54.072563)scale(0.26 -0.26)">
       <use xlink:href="#ArialMT-51"/>
       <use x="55.615234" xlink:href="#ArialMT-48"/>
       <use x="111.230469" xlink:href="#ArialMT-48"/>
      </g>
     </g>
    </g>
    <g id="text_10">
     <!-- Change-point score  -->
     <defs>
      <path d="M 58.796875 25.09375 
L 68.265625 22.703125 
Q 65.28125 11.03125 57.546875 4.90625 
Q 49.8125 -1.21875 38.625 -1.21875 
Q 27.046875 -1.21875 19.796875 3.484375 
Q 12.546875 8.203125 8.765625 17.140625 
Q 4.984375 26.078125 4.984375 36.328125 
Q 4.984375 47.515625 9.25 55.828125 
Q 13.53125 64.15625 21.40625 68.46875 
Q 29.296875 72.796875 38.765625 72.796875 
Q 49.515625 72.796875 56.828125 67.328125 
Q 64.15625 61.859375 67.046875 51.953125 
L 57.71875 49.75 
Q 55.21875 57.5625 50.484375 61.125 
Q 45.75 64.703125 38.578125 64.703125 
Q 30.328125 64.703125 24.78125 60.734375 
Q 19.234375 56.78125 16.984375 50.109375 
Q 14.75 43.453125 14.75 36.375 
Q 14.75 27.25 17.40625 20.4375 
Q 20.0625 13.625 25.671875 10.25 
Q 31.296875 6.890625 37.84375 6.890625 
Q 45.796875 6.890625 51.3125 11.46875 
Q 56.84375 16.0625 58.796875 25.09375 
z
" id="ArialMT-67"/>
      <path d="M 6.59375 0 
L 6.59375 71.578125 
L 15.375 71.578125 
L 15.375 45.90625 
Q 21.53125 53.03125 30.90625 53.03125 
Q 36.671875 53.03125 40.921875 50.75 
Q 45.171875 48.484375 47 44.484375 
Q 48.828125 40.484375 48.828125 32.859375 
L 48.828125 0 
L 40.046875 0 
L 40.046875 32.859375 
Q 40.046875 39.453125 37.1875 42.453125 
Q 34.328125 45.453125 29.109375 45.453125 
Q 25.203125 45.453125 21.75 43.421875 
Q 18.3125 41.40625 16.84375 37.9375 
Q 15.375 34.46875 15.375 28.375 
L 15.375 0 
z
" id="ArialMT-104"/>
      <path d="M 6.59375 0 
L 6.59375 51.859375 
L 14.5 51.859375 
L 14.5 44.484375 
Q 20.21875 53.03125 31 53.03125 
Q 35.6875 53.03125 39.625 51.34375 
Q 43.5625 49.65625 45.515625 46.921875 
Q 47.46875 44.1875 48.25 40.4375 
Q 48.734375 37.984375 48.734375 31.890625 
L 48.734375 0 
L 39.9375 0 
L 39.9375 31.546875 
Q 39.9375 36.921875 38.90625 39.578125 
Q 37.890625 42.234375 35.28125 43.8125 
Q 32.671875 45.40625 29.15625 45.40625 
Q 23.53125 45.40625 19.453125 41.84375 
Q 15.375 38.28125 15.375 28.328125 
L 15.375 0 
z
" id="ArialMT-110"/>
      <path d="M 4.984375 -4.296875 
L 13.53125 -5.5625 
Q 14.0625 -9.515625 16.5 -11.328125 
Q 19.78125 -13.765625 25.4375 -13.765625 
Q 31.546875 -13.765625 34.859375 -11.328125 
Q 38.1875 -8.890625 39.359375 -4.5 
Q 40.046875 -1.8125 39.984375 6.78125 
Q 34.234375 0 25.640625 0 
Q 14.9375 0 9.078125 7.71875 
Q 3.21875 15.4375 3.21875 26.21875 
Q 3.21875 33.640625 5.90625 39.90625 
Q 8.59375 46.1875 13.6875 49.609375 
Q 18.796875 53.03125 25.6875 53.03125 
Q 34.859375 53.03125 40.828125 45.609375 
L 40.828125 51.859375 
L 48.921875 51.859375 
L 48.921875 7.03125 
Q 48.921875 -5.078125 46.453125 -10.125 
Q 44 -15.1875 38.640625 -18.109375 
Q 33.296875 -21.046875 25.484375 -21.046875 
Q 16.21875 -21.046875 10.5 -16.875 
Q 4.78125 -12.703125 4.984375 -4.296875 
z
M 12.25 26.859375 
Q 12.25 16.65625 16.296875 11.96875 
Q 20.359375 7.28125 26.46875 7.28125 
Q 32.515625 7.28125 36.609375 11.9375 
Q 40.71875 16.609375 40.71875 26.5625 
Q 40.71875 36.078125 36.5 40.90625 
Q 32.28125 45.75 26.3125 45.75 
Q 20.453125 45.75 16.34375 40.984375 
Q 12.25 36.234375 12.25 26.859375 
z
" id="ArialMT-103"/>
      <path d="M 3.171875 21.484375 
L 3.171875 30.328125 
L 30.171875 30.328125 
L 30.171875 21.484375 
z
" id="ArialMT-45"/>
      <path d="M 3.328125 25.921875 
Q 3.328125 40.328125 11.328125 47.265625 
Q 18.015625 53.03125 27.640625 53.03125 
Q 38.328125 53.03125 45.109375 46.015625 
Q 51.90625 39.015625 51.90625 26.65625 
Q 51.90625 16.65625 48.90625 10.90625 
Q 45.90625 5.171875 40.15625 2 
Q 34.421875 -1.171875 27.640625 -1.171875 
Q 16.75 -1.171875 10.03125 5.8125 
Q 3.328125 12.796875 3.328125 25.921875 
z
M 12.359375 25.921875 
Q 12.359375 15.96875 16.703125 11.015625 
Q 21.046875 6.0625 27.640625 6.0625 
Q 34.1875 6.0625 38.53125 11.03125 
Q 42.875 16.015625 42.875 26.21875 
Q 42.875 35.84375 38.5 40.796875 
Q 34.125 45.75 27.640625 45.75 
Q 21.046875 45.75 16.703125 40.8125 
Q 12.359375 35.890625 12.359375 25.921875 
z
" id="ArialMT-111"/>
      <path d="M 6.640625 61.46875 
L 6.640625 71.578125 
L 15.4375 71.578125 
L 15.4375 61.46875 
z
M 6.640625 0 
L 6.640625 51.859375 
L 15.4375 51.859375 
L 15.4375 0 
z
" id="ArialMT-105"/>
      <path d="M 25.78125 7.859375 
L 27.046875 0.09375 
Q 23.34375 -0.6875 20.40625 -0.6875 
Q 15.625 -0.6875 12.984375 0.828125 
Q 10.359375 2.34375 9.28125 4.8125 
Q 8.203125 7.28125 8.203125 15.1875 
L 8.203125 45.015625 
L 1.765625 45.015625 
L 1.765625 51.859375 
L 8.203125 51.859375 
L 8.203125 64.703125 
L 16.9375 69.96875 
L 16.9375 51.859375 
L 25.78125 51.859375 
L 25.78125 45.015625 
L 16.9375 45.015625 
L 16.9375 14.703125 
Q 16.9375 10.9375 17.40625 9.859375 
Q 17.875 8.796875 18.921875 8.15625 
Q 19.96875 7.515625 21.921875 7.515625 
Q 23.390625 7.515625 25.78125 7.859375 
z
" id="ArialMT-116"/>
      <path d="M 40.4375 19 
L 49.078125 17.875 
Q 47.65625 8.9375 41.8125 3.875 
Q 35.984375 -1.171875 27.484375 -1.171875 
Q 16.84375 -1.171875 10.375 5.78125 
Q 3.90625 12.75 3.90625 25.734375 
Q 3.90625 34.125 6.6875 40.421875 
Q 9.46875 46.734375 15.15625 49.875 
Q 20.84375 53.03125 27.546875 53.03125 
Q 35.984375 53.03125 41.359375 48.75 
Q 46.734375 44.484375 48.25 36.625 
L 39.703125 35.296875 
Q 38.484375 40.53125 35.375 43.15625 
Q 32.28125 45.796875 27.875 45.796875 
Q 21.234375 45.796875 17.078125 41.03125 
Q 12.9375 36.28125 12.9375 25.984375 
Q 12.9375 15.53125 16.9375 10.796875 
Q 20.953125 6.0625 27.390625 6.0625 
Q 32.5625 6.0625 36.03125 9.234375 
Q 39.5 12.40625 40.4375 19 
z
" id="ArialMT-99"/>
      <path d="M 6.5 0 
L 6.5 51.859375 
L 14.40625 51.859375 
L 14.40625 44 
Q 17.4375 49.515625 20 51.265625 
Q 22.5625 53.03125 25.640625 53.03125 
Q 30.078125 53.03125 34.671875 50.203125 
L 31.640625 42.046875 
Q 28.421875 43.953125 25.203125 43.953125 
Q 22.3125 43.953125 20.015625 42.21875 
Q 17.71875 40.484375 16.75 37.40625 
Q 15.28125 32.71875 15.28125 27.15625 
L 15.28125 0 
z
" id="ArialMT-114"/>
     </defs>
     <g transform="translate(91.967687 260.340937)rotate(-90)scale(0.26 -0.26)">
      <use xlink:href="#ArialMT-67"/>
      <use x="72.216797" xlink:href="#ArialMT-104"/>
      <use x="127.832031" xlink:href="#ArialMT-97"/>
      <use x="183.447266" xlink:href="#ArialMT-110"/>
      <use x="239.0625" xlink:href="#ArialMT-103"/>
      <use x="294.677734" xlink:href="#ArialMT-101"/>
      <use x="350.292969" xlink:href="#ArialMT-45"/>
      <use x="383.59375" xlink:href="#ArialMT-112"/>
      <use x="439.208984" xlink:href="#ArialMT-111"/>
      <use x="494.824219" xlink:href="#ArialMT-105"/>
      <use x="517.041016" xlink:href="#ArialMT-110"/>
      <use x="572.65625" xlink:href="#ArialMT-116"/>
      <use x="600.439453" xlink:href="#ArialMT-32"/>
      <use x="628.222656" xlink:href="#ArialMT-115"/>
      <use x="678.222656" xlink:href="#ArialMT-99"/>
      <use x="728.222656" xlink:href="#ArialMT-111"/>
      <use x="783.837891" xlink:href="#ArialMT-114"/>
      <use x="817.138672" xlink:href="#ArialMT-101"/>
      <use x="872.753906" xlink:href="#ArialMT-32"/>
     </g>
     <!-- (KL div.) -->
     <defs>
      <path d="M 23.390625 -21.046875 
Q 16.109375 -11.859375 11.078125 0.4375 
Q 6.0625 12.75 6.0625 25.921875 
Q 6.0625 37.546875 9.8125 48.1875 
Q 14.203125 60.546875 23.390625 72.796875 
L 29.6875 72.796875 
Q 23.78125 62.640625 21.875 58.296875 
Q 18.890625 51.5625 17.1875 44.234375 
Q 15.09375 35.109375 15.09375 25.875 
Q 15.09375 2.390625 29.6875 -21.046875 
z
" id="ArialMT-40"/>
      <path d="M 7.328125 0 
L 7.328125 71.578125 
L 16.796875 71.578125 
L 16.796875 36.078125 
L 52.34375 71.578125 
L 65.1875 71.578125 
L 35.15625 42.578125 
L 66.5 0 
L 54 0 
L 28.515625 36.234375 
L 16.796875 24.8125 
L 16.796875 0 
z
" id="ArialMT-75"/>
      <path d="M 7.328125 0 
L 7.328125 71.578125 
L 16.796875 71.578125 
L 16.796875 8.453125 
L 52.046875 8.453125 
L 52.046875 0 
z
" id="ArialMT-76"/>
      <path d="M 40.234375 0 
L 40.234375 6.546875 
Q 35.296875 -1.171875 25.734375 -1.171875 
Q 19.53125 -1.171875 14.328125 2.25 
Q 9.125 5.671875 6.265625 11.796875 
Q 3.421875 17.921875 3.421875 25.875 
Q 3.421875 33.640625 6 39.96875 
Q 8.59375 46.296875 13.765625 49.65625 
Q 18.953125 53.03125 25.34375 53.03125 
Q 30.03125 53.03125 33.6875 51.046875 
Q 37.359375 49.078125 39.65625 45.90625 
L 39.65625 71.578125 
L 48.390625 71.578125 
L 48.390625 0 
z
M 12.453125 25.875 
Q 12.453125 15.921875 16.640625 10.984375 
Q 20.84375 6.0625 26.5625 6.0625 
Q 32.328125 6.0625 36.34375 10.765625 
Q 40.375 15.484375 40.375 25.140625 
Q 40.375 35.796875 36.265625 40.765625 
Q 32.171875 45.75 26.171875 45.75 
Q 20.3125 45.75 16.375 40.96875 
Q 12.453125 36.1875 12.453125 25.875 
z
" id="ArialMT-100"/>
      <path d="M 21 0 
L 1.265625 51.859375 
L 10.546875 51.859375 
L 21.6875 20.796875 
Q 23.484375 15.765625 25 10.359375 
Q 26.171875 14.453125 28.265625 20.21875 
L 39.796875 51.859375 
L 48.828125 51.859375 
L 29.203125 0 
z
" id="ArialMT-118"/>
      <path d="M 9.078125 0 
L 9.078125 10.015625 
L 19.09375 10.015625 
L 19.09375 0 
z
" id="ArialMT-46"/>
      <path d="M 12.359375 -21.046875 
L 6.0625 -21.046875 
Q 20.65625 2.390625 20.65625 25.875 
Q 20.65625 35.0625 18.5625 44.09375 
Q 16.890625 51.421875 13.921875 58.15625 
Q 12.015625 62.546875 6.0625 72.796875 
L 12.359375 72.796875 
Q 21.53125 60.546875 25.921875 48.1875 
Q 29.6875 37.546875 29.6875 25.921875 
Q 29.6875 12.75 24.625 0.4375 
Q 19.578125 -11.859375 12.359375 -21.046875 
z
" id="ArialMT-41"/>
     </defs>
     <g transform="translate(120.1525 190.232344)rotate(-90)scale(0.26 -0.26)">
      <use xlink:href="#ArialMT-40"/>
      <use x="33.300781" xlink:href="#ArialMT-75"/>
      <use x="100" xlink:href="#ArialMT-76"/>
      <use x="151.865234" xlink:href="#ArialMT-32"/>
      <use x="179.648438" xlink:href="#ArialMT-100"/>
      <use x="235.263672" xlink:href="#ArialMT-105"/>
      <use x="257.480469" xlink:href="#ArialMT-118"/>
      <use x="300.105469" xlink:href="#ArialMT-46"/>
      <use x="327.888672" xlink:href="#ArialMT-41"/>
     </g>
    </g>
   </g>
   <g id="line2d_17">
    <path clip-path="url(#p6cae140feb)" d="M 217.636364 132.324578 
L 217.88744 186.706155 
L 218.138517 213.835373 
L 218.389593 227.431173 
L 218.64067 234.2173 
L 218.891746 237.523453 
L 219.142822 239.141989 
L 219.393899 239.791969 
L 219.644975 239.958312 
L 219.896052 239.782646 
L 220.398205 238.468211 
L 220.900358 235.077408 
L 221.151434 232.802488 
L 221.904664 224.014105 
L 222.406817 220.816382 
L 222.90897 222.960867 
L 223.411123 227.519811 
L 223.662199 229.475879 
L 223.913276 232.367706 
L 224.917581 238.525704 
L 225.168658 238.486613 
L 225.670811 239.7549 
L 226.42404 239.879893 
L 226.675117 239.621036 
L 227.930499 237.10459 
L 228.432652 235.084177 
L 228.683729 235.448013 
L 228.934805 234.594722 
L 229.185881 234.650929 
L 229.436958 233.427012 
L 229.688034 233.014927 
L 229.939111 233.818769 
L 230.190187 233.162192 
L 230.441264 234.369854 
L 230.69234 234.456994 
L 231.194493 235.163966 
L 231.44557 236.398543 
L 231.696646 236.218182 
L 232.198799 238.078126 
L 232.449876 237.772989 
L 232.952029 238.205598 
L 233.203105 237.581305 
L 233.454182 238.574045 
L 233.705258 239.105336 
L 233.956335 238.914481 
L 234.207411 238.91202 
L 234.458487 238.315955 
L 234.709564 238.869207 
L 234.96064 238.932093 
L 235.462793 237.314911 
L 235.71387 237.489355 
L 235.964946 237.407313 
L 236.216023 237.915839 
L 236.718176 237.265151 
L 236.969252 237.42712 
L 237.220329 238.170712 
L 237.471405 237.449091 
L 237.722482 237.109061 
L 237.973558 237.144516 
L 238.224635 238.106311 
L 238.475711 237.344148 
L 238.726788 238.318416 
L 238.977864 238.535819 
L 239.228941 237.987891 
L 239.480017 238.861126 
L 239.731093 238.945325 
L 239.98217 239.972333 
L 240.233246 238.943207 
L 240.484323 239.057535 
L 240.735399 239.868251 
L 240.986476 239.307281 
L 241.488629 240.257391 
L 241.739705 239.406171 
L 241.990782 239.77724 
L 242.241858 239.743646 
L 242.492935 239.474944 
L 242.744011 239.530626 
L 243.246164 238.120745 
L 243.497241 238.043173 
L 243.748317 238.391837 
L 243.999394 237.732694 
L 244.501546 235.447118 
L 244.752623 236.881838 
L 245.003699 236.173855 
L 245.254776 236.414632 
L 245.505852 236.22367 
L 245.756929 236.902884 
L 246.008005 236.35516 
L 246.259082 237.136592 
L 246.510158 235.937109 
L 247.012311 237.987362 
L 247.514464 238.309436 
L 247.765541 238.239501 
L 248.016617 238.956945 
L 248.267694 239.008698 
L 248.51877 238.52822 
L 248.769847 239.385925 
L 249.272 239.195458 
L 249.523076 238.492245 
L 249.774152 239.087017 
L 250.276305 238.584861 
L 250.527382 238.811134 
L 250.778458 239.977229 
L 251.029535 240.162212 
L 251.531688 238.90577 
L 251.782764 238.468805 
L 252.033841 239.120512 
L 252.284917 239.379648 
L 252.535994 238.722291 
L 252.78707 238.48614 
L 253.038147 237.779299 
L 253.289223 238.679716 
L 253.5403 238.633632 
L 253.791376 237.1799 
L 254.042453 236.858915 
L 254.293529 237.950691 
L 254.544605 236.934472 
L 254.795682 238.443425 
L 255.046758 237.657746 
L 255.297835 237.987544 
L 255.548911 239.022835 
L 255.799988 237.975466 
L 256.051064 238.124475 
L 256.302141 238.561439 
L 256.553217 238.419832 
L 256.804294 239.230745 
L 257.05537 239.594947 
L 257.306447 238.904972 
L 257.557523 239.365524 
L 257.8086 239.410733 
L 258.059676 239.087043 
L 258.561829 239.774208 
L 258.812906 239.262348 
L 259.063982 239.524474 
L 259.315059 239.080091 
L 259.566135 239.17527 
L 259.817211 239.529538 
L 260.319364 239.399083 
L 261.072594 239.855125 
L 261.574747 239.58837 
L 261.825823 238.998782 
L 262.0769 239.551398 
L 262.327976 239.765431 
L 262.579053 238.919504 
L 262.830129 239.214299 
L 263.081206 237.715866 
L 263.332282 239.048975 
L 263.583359 239.07806 
L 263.834435 237.842478 
L 264.085512 238.673236 
L 264.336588 238.376192 
L 264.587665 237.275369 
L 264.838741 237.526421 
L 265.089817 237.055013 
L 265.340894 237.671657 
L 265.59197 237.730481 
L 265.843047 237.131889 
L 266.094123 235.715947 
L 266.3452 237.584551 
L 266.596276 236.701832 
L 266.847353 237.339611 
L 267.098429 236.057125 
L 267.349506 237.220481 
L 267.600582 237.699968 
L 267.851659 235.974424 
L 268.353812 238.234856 
L 268.604888 237.62365 
L 268.855965 238.534619 
L 269.107041 237.559396 
L 269.358118 238.885759 
L 269.609194 238.091849 
L 269.86027 238.958822 
L 270.111347 239.122146 
L 270.362423 238.996844 
L 270.6135 239.446077 
L 270.864576 238.840084 
L 271.115653 239.971407 
L 271.366729 239.540442 
L 271.617806 240.01908 
L 271.868882 239.88644 
L 272.119959 239.353152 
L 272.371035 239.153257 
L 272.622112 239.429454 
L 273.124265 238.080082 
L 273.375341 237.317667 
L 273.626418 237.83279 
L 274.379647 236.237047 
L 274.630724 236.301602 
L 274.8818 235.756019 
L 275.132876 236.007473 
L 275.383953 235.773486 
L 275.635029 235.211052 
L 275.886106 236.520012 
L 276.137182 236.33319 
L 276.388259 237.212991 
L 276.639335 237.436369 
L 277.141488 237.122515 
L 277.643641 236.608632 
L 278.145794 237.727991 
L 278.396871 237.26946 
L 278.647947 238.311322 
L 279.1501 237.08684 
L 279.401177 238.884408 
L 279.652253 236.136992 
L 279.903329 238.725011 
L 280.405482 236.866002 
L 280.907635 238.356311 
L 281.158712 238.406521 
L 281.409788 239.233017 
L 281.660865 238.208528 
L 282.163018 237.183213 
L 282.414094 237.512391 
L 282.665171 236.675753 
L 282.916247 236.77637 
L 283.167324 237.759957 
L 283.4184 237.026645 
L 283.669477 237.379827 
L 283.920553 236.889412 
L 284.17163 237.222665 
L 284.422706 236.211925 
L 284.673783 237.752572 
L 284.924859 237.172924 
L 285.175935 237.494863 
L 285.427012 238.25583 
L 285.678088 237.648757 
L 285.929165 238.776119 
L 286.180241 238.891899 
L 286.431318 237.479091 
L 286.682394 238.764864 
L 286.933471 238.218171 
L 287.184547 238.56052 
L 287.435624 237.795883 
L 287.6867 237.760071 
L 287.937777 237.40809 
L 288.188853 238.409517 
L 288.691006 237.303552 
L 288.942083 237.367632 
L 289.193159 239.087065 
L 289.695312 238.536418 
L 289.946389 238.528588 
L 290.197465 238.26044 
L 290.448541 238.43647 
L 290.699618 238.42789 
L 290.950694 239.714552 
L 291.201771 239.708042 
L 291.452847 239.918432 
L 291.703924 240.323441 
L 291.955 240.263807 
L 292.206077 240.424734 
L 292.457153 240.379195 
L 292.70823 240.181002 
L 292.959306 240.763097 
L 293.210383 240.31958 
L 293.461459 240.511159 
L 293.712536 240.861902 
L 293.963612 240.958483 
L 294.214689 240.605487 
L 294.465765 240.83674 
L 294.716842 240.028049 
L 294.967918 240.614633 
L 295.218994 239.657185 
L 295.470071 240.440965 
L 295.721147 240.588605 
L 295.972224 239.881338 
L 296.2233 240.754631 
L 296.474377 239.317403 
L 296.725453 239.74151 
L 296.97653 239.129483 
L 297.227606 240.699043 
L 297.478683 240.205169 
L 297.729759 240.099145 
L 297.980836 240.236208 
L 298.231912 239.913465 
L 298.482989 240.72474 
L 298.985142 240.90793 
L 299.236218 241.139875 
L 299.487295 240.662629 
L 299.989448 240.922362 
L 300.240524 241.091366 
L 300.4916 240.993136 
L 300.742677 240.598954 
L 300.993753 240.603824 
L 301.495906 240.257944 
L 302.500212 240.543476 
L 302.751289 239.823633 
L 303.002365 239.850503 
L 303.253442 240.308984 
L 303.504518 239.632446 
L 303.755595 240.464655 
L 304.006671 239.708237 
L 304.508824 240.756231 
L 304.759901 240.395838 
L 305.010977 240.968623 
L 305.262053 240.68206 
L 305.51313 240.975821 
L 306.015283 241.002221 
L 306.266359 240.72602 
L 306.517436 240.990262 
L 307.270665 240.989424 
L 308.023895 240.109794 
L 308.274971 240.724539 
L 308.526048 240.238739 
L 309.028201 240.688298 
L 309.279277 240.041823 
L 309.530354 239.827607 
L 310.032507 240.79739 
L 310.283583 239.762619 
L 311.036812 240.718607 
L 311.287889 240.215893 
L 311.538965 241.141224 
L 311.790042 241.235689 
L 312.041118 240.480894 
L 312.292195 240.310989 
L 312.543271 240.94175 
L 312.794348 240.487366 
L 313.045424 241.024388 
L 313.296501 240.475071 
L 313.547577 240.942068 
L 313.798654 240.844606 
L 314.04973 240.567365 
L 314.300807 241.249591 
L 314.551883 241.213684 
L 314.80296 241.427718 
L 315.054036 241.270441 
L 315.556189 241.518818 
L 315.807265 241.298701 
L 316.058342 241.329208 
L 316.309418 241.137803 
L 316.560495 241.122225 
L 316.811571 241.35284 
L 317.062648 241.055583 
L 317.313724 241.43232 
L 317.564801 241.310461 
L 318.31803 241.423831 
L 318.569107 241.373452 
L 318.820183 241.474077 
L 319.07126 241.361965 
L 319.322336 241.12735 
L 319.573413 241.432681 
L 320.075566 240.258792 
L 320.326642 240.501275 
L 320.577718 239.628943 
L 320.828795 240.256372 
L 321.079871 240.080824 
L 321.330948 239.309895 
L 321.833101 240.540786 
L 322.084177 240.163671 
L 322.58633 241.078619 
L 322.837407 240.72832 
L 323.088483 240.583544 
L 323.33956 240.971941 
L 323.590636 240.552786 
L 323.841713 241.13847 
L 324.343866 240.862737 
L 324.594942 241.173388 
L 325.097095 241.366202 
L 325.348172 241.293395 
L 325.599248 241.585389 
L 325.850324 241.33142 
L 326.101401 241.353335 
L 326.352477 241.639518 
L 326.603554 241.48466 
L 326.85463 241.501559 
L 327.105707 241.221383 
L 327.356783 241.305562 
L 327.60786 241.581677 
L 327.858936 241.689125 
L 328.110013 241.562318 
L 328.361089 241.785989 
L 328.612166 241.669683 
L 329.114319 241.888012 
L 329.365395 241.650227 
L 329.616472 241.752063 
L 329.867548 241.666548 
L 330.118625 241.807906 
L 330.369701 241.770516 
L 330.620777 241.617841 
L 331.12293 241.938402 
L 331.374007 241.755078 
L 331.625083 241.821908 
L 331.87616 241.717955 
L 332.378313 241.815265 
L 332.629389 241.581114 
L 332.880466 241.528978 
L 333.131542 241.768848 
L 333.382619 241.811286 
L 333.633695 241.609184 
L 333.884772 241.961087 
L 334.135848 241.410199 
L 334.386925 241.87193 
L 334.889078 241.899371 
L 335.391231 241.579527 
L 335.642307 241.474722 
L 335.893383 241.703458 
L 336.14446 241.642903 
L 336.395536 241.819105 
L 336.646613 241.489046 
L 336.897689 241.922945 
L 337.148766 241.802955 
L 337.399842 241.952084 
L 337.650919 241.690432 
L 337.901995 241.882401 
L 338.655225 241.94904 
L 338.906301 241.757712 
L 339.910607 241.909689 
L 340.161684 241.610953 
L 340.41276 241.795761 
L 340.914913 241.855311 
L 341.668142 241.703152 
L 341.919219 241.928152 
L 342.170295 241.740241 
L 342.672448 241.855355 
L 344.178907 241.888693 
L 344.68106 241.696963 
L 344.932137 241.910844 
L 345.43429 241.883053 
L 345.685366 242.014328 
L 345.936442 241.733519 
L 346.940748 241.940188 
L 347.442901 241.682147 
L 348.196131 241.859983 
L 348.447207 241.748337 
L 348.94936 241.948819 
L 349.200437 241.816514 
L 349.70259 241.835452 
L 349.953666 241.966909 
L 350.204743 241.856839 
L 350.455819 241.875995 
L 350.706896 241.65299 
L 350.957972 241.968018 
L 351.209048 241.895134 
L 351.711201 241.958469 
L 352.464431 241.905175 
L 352.966584 241.934599 
L 353.21766 241.721582 
L 354.473043 241.957016 
L 354.724119 241.782923 
L 355.477349 241.901102 
L 356.481654 242.026927 
L 356.983807 241.662756 
L 357.48596 242.019064 
L 358.741343 241.849025 
L 360.498878 242.047095 
L 360.749955 241.828273 
L 361.001031 241.829692 
L 361.252107 241.969587 
L 362.005337 241.863576 
L 363.762872 241.926751 
L 364.013949 241.749146 
L 364.767178 241.980284 
L 365.018255 241.786346 
L 365.269331 241.93755 
L 365.520408 241.847983 
L 365.771484 241.985219 
L 366.02256 241.894057 
L 366.273637 241.970872 
L 366.524713 241.748788 
L 366.77579 241.921118 
L 367.277943 241.933813 
L 367.529019 241.724736 
L 367.780096 241.789061 
L 368.031172 241.580015 
L 368.533325 241.865177 
L 368.784402 241.749269 
L 369.035478 241.891932 
L 369.537631 241.806513 
L 369.788708 241.949047 
L 370.039784 241.633739 
L 370.290861 241.926507 
L 370.541937 241.86751 
L 370.793014 241.589755 
L 371.04409 241.951619 
L 371.546243 241.775639 
L 371.797319 241.95581 
L 372.550549 241.914623 
L 373.052702 242.015714 
L 373.554855 241.955287 
L 373.805931 242.043741 
L 374.308084 241.951747 
L 374.559161 242.009611 
L 374.810237 241.879361 
L 375.061314 242.021255 
L 375.563467 241.914173 
L 376.06562 241.986052 
L 376.316696 241.757974 
L 376.567772 241.910806 
L 376.818849 241.871728 
L 377.069925 242.016256 
L 377.823155 241.863353 
L 378.325308 241.934691 
L 378.576384 241.897515 
L 378.827461 241.980524 
L 379.58069 241.897323 
L 380.082843 241.958909 
L 380.584996 241.874075 
L 380.836073 241.888351 
L 381.087149 242.024691 
L 382.091455 241.880344 
L 382.342531 241.85304 
L 382.593608 242.029609 
L 384.351143 242.026124 
L 384.60222 241.915356 
L 385.104373 241.99949 
L 386.861908 241.830284 
L 387.112984 242.000412 
L 387.364061 241.863136 
L 387.615137 241.905648 
L 387.866214 241.808276 
L 388.11729 241.896738 
L 388.368367 241.753524 
L 388.619443 241.904697 
L 389.121596 241.781932 
L 389.623749 241.97035 
L 389.874826 241.769957 
L 390.376979 241.886429 
L 392.134514 241.88704 
L 392.38559 242.01561 
L 392.636667 241.957425 
L 392.887743 242.066177 
L 393.892049 241.93235 
L 394.394202 242.044001 
L 394.896355 242.03327 
L 397.40712 242.021441 
L 397.658196 241.943756 
L 397.909273 242.060027 
L 399.164655 241.90945 
L 399.415732 242.080548 
L 402.679726 242.001048 
L 403.684032 242.02674 
L 404.688338 242.041954 
L 404.939414 242.066093 
L 405.441567 241.994274 
L 415.735703 242.016614 
L 415.986779 242.103865 
L 416.488932 242.074915 
L 433.813209 241.994093 
L 434.064285 241.94742 
L 434.315362 242.062746 
L 434.817515 242.05388 
L 438.332585 242.071606 
L 439.587968 242.097729 
L 441.094427 242.068201 
L 441.847656 242.107689 
L 443.856268 242.074642 
L 447.120262 242.094128 
L 450.13318 242.109516 
L 450.384256 242.043608 
L 450.635333 242.100314 
L 451.137486 242.060936 
L 452.392868 242.04078 
L 453.397174 242.098483 
L 457.665474 242.068287 
L 458.418703 242.103687 
L 460.427315 242.018595 
L 460.929468 242.071365 
L 463.440233 242.083016 
L 463.691309 242.010382 
L 464.193462 242.080754 
L 467.708533 242.072635 
L 468.210686 242.10237 
L 468.461762 44.443636 
L 469.717145 88.803889 
L 470.470374 125.219759 
L 471.223604 156.762599 
L 471.976833 187.134724 
L 472.981139 215.288585 
L 473.483292 225.875225 
L 473.985445 230.958938 
L 474.487598 231.806106 
L 474.738674 232.054512 
L 475.240827 230.177579 
L 475.491904 228.658366 
L 476.245133 220.61447 
L 476.49621 219.41533 
L 476.998363 213.599898 
L 477.751592 209.586941 
L 478.002668 208.659859 
L 478.253745 206.343843 
L 478.504821 206.471454 
L 478.755898 205.953199 
L 479.006974 207.542057 
L 479.258051 206.168964 
L 479.509127 206.256653 
L 479.760204 206.077148 
L 480.01128 207.75664 
L 480.262357 206.678272 
L 480.513433 206.251902 
L 480.76451 205.277468 
L 481.015586 207.120483 
L 481.266663 205.078762 
L 481.517739 205.491854 
L 482.019892 198.98359 
L 482.270969 196.064192 
L 482.522045 191.798698 
L 482.773121 191.484996 
L 483.275274 181.723643 
L 483.526351 179.466222 
L 483.777427 172.228536 
L 484.028504 169.973338 
L 484.530657 160.260197 
L 485.03281 152.636165 
L 486.037116 144.403083 
L 486.288192 144.735642 
L 486.539269 143.650556 
L 486.790345 149.089254 
L 487.041422 147.873658 
L 487.292498 152.477381 
L 487.794651 157.964058 
L 488.296804 168.787452 
L 488.798957 176.043068 
L 489.30111 190.150851 
L 489.552186 193.202976 
L 490.305416 209.887878 
L 490.556492 213.213043 
L 490.807569 218.655278 
L 491.058645 220.15115 
L 491.560798 226.084308 
L 492.062951 229.32575 
L 492.314028 229.728981 
L 492.81618 229.866566 
L 493.067257 229.485278 
L 493.56941 226.792037 
L 494.824792 214.089884 
L 495.326945 209.94319 
L 496.080175 202.318122 
L 497.084481 195.175859 
L 497.586634 190.309125 
L 497.83771 189.690846 
L 498.088786 189.90729 
L 498.339863 188.516973 
L 498.590939 186.447914 
L 498.842016 186.731952 
L 499.093092 185.832809 
L 499.344169 186.028756 
L 499.595245 186.520709 
L 500.097398 184.352705 
L 500.348475 184.540676 
L 500.599551 186.611414 
L 500.850628 185.148185 
L 501.101704 187.282675 
L 501.352781 186.804036 
L 501.603857 188.100544 
L 501.854934 188.682005 
L 502.10601 188.663635 
L 502.357087 189.347748 
L 502.608163 191.772013 
L 502.859239 190.907331 
L 503.110316 191.464402 
L 503.361392 193.92508 
L 503.612469 194.434974 
L 503.863545 194.427117 
L 504.365698 198.414546 
L 505.118928 201.423924 
L 505.370004 203.50585 
L 505.621081 203.32796 
L 505.872157 205.904654 
L 506.123234 206.54269 
L 506.37431 207.66188 
L 506.625387 208.031435 
L 506.876463 209.694798 
L 507.378616 210.573022 
L 507.629693 211.614299 
L 507.880769 211.593041 
L 508.131845 213.101947 
L 508.382922 213.211592 
L 508.633998 212.657536 
L 508.885075 213.066313 
L 509.136151 213.123187 
L 509.387228 213.970781 
L 509.638304 212.294752 
L 509.889381 213.293892 
L 510.140457 213.305539 
L 510.391534 212.63239 
L 510.64261 213.436892 
L 510.893687 212.239926 
L 511.144763 212.374475 
L 511.39584 211.788134 
L 511.646916 211.518104 
L 511.897993 210.331998 
L 512.149069 210.001674 
L 512.651222 206.928753 
L 512.902299 207.38361 
L 513.153375 204.894317 
L 513.404451 204.848685 
L 513.655528 203.729414 
L 514.659834 195.974539 
L 514.91091 195.022342 
L 515.413063 190.228473 
L 515.66414 189.655015 
L 516.166293 184.312535 
L 516.417369 184.434509 
L 517.170599 176.566463 
L 517.421675 175.253783 
L 517.672752 170.973833 
L 517.923828 169.389643 
L 518.425981 164.909812 
L 518.677057 162.971034 
L 518.928134 157.776396 
L 519.17921 156.39195 
L 519.681363 149.761148 
L 519.93244 147.532965 
L 520.936746 132.68987 
L 521.187822 130.93663 
L 521.689975 124.248936 
L 521.941052 122.594216 
L 522.443205 113.356281 
L 522.694281 109.890004 
L 522.945358 109.094885 
L 523.698587 100.217466 
L 523.949663 100.810044 
L 524.20074 100.125985 
L 524.451816 96.98422 
L 524.702893 96.497217 
L 524.953969 94.150384 
L 525.205046 100.989223 
L 525.456122 99.293984 
L 525.707199 100.834849 
L 526.711505 116.819308 
L 526.962581 124.700568 
L 527.213658 127.463248 
L 528.46904 159.696868 
L 529.222269 177.203546 
L 530.226575 198.456246 
L 531.230881 208.783087 
L 531.733034 212.272379 
L 531.984111 213.761234 
L 532.235187 216.217532 
L 532.73734 215.636889 
L 532.988417 217.86062 
L 533.490569 218.771487 
L 533.741646 218.394169 
L 533.992722 220.325688 
L 534.243799 221.319687 
L 534.494875 221.075783 
L 534.745952 221.752045 
L 534.997028 223.578962 
L 535.499181 225.796881 
L 535.750258 225.843796 
L 536.252411 228.397134 
L 536.503487 228.346393 
L 536.754564 229.671741 
L 537.00564 229.048288 
L 537.507793 231.113583 
L 538.009946 231.223403 
L 538.261022 231.507674 
L 538.512099 231.349058 
L 538.763175 231.611309 
L 539.014252 231.665434 
L 539.265328 232.170375 
L 539.516405 231.210194 
L 539.767481 231.587649 
L 540.018558 231.200702 
L 540.269634 231.042092 
L 540.520711 230.346085 
L 540.771787 230.597771 
L 541.022864 230.207961 
L 541.27394 229.355648 
L 541.525017 229.074999 
L 542.02717 226.744821 
L 542.278246 226.183742 
L 542.529323 225.255407 
L 542.780399 223.146581 
L 543.031476 222.765179 
L 543.282552 220.736009 
L 543.533628 219.932074 
L 544.035781 216.057673 
L 544.286858 215.162775 
L 544.537934 212.610918 
L 544.789011 212.049868 
L 545.54224 207.493592 
L 545.793317 207.101214 
L 546.29547 204.085202 
L 546.546546 201.651953 
L 546.797623 201.009482 
L 547.048699 201.907926 
L 547.550852 197.793537 
L 547.801929 199.646642 
L 548.053005 199.211719 
L 548.304082 198.307628 
L 548.806234 197.541487 
L 549.057311 197.621472 
L 549.308387 196.617815 
L 549.559464 196.344529 
L 549.81054 196.726418 
L 550.061617 195.99915 
L 550.312693 195.958722 
L 550.56377 196.093936 
L 551.065923 194.589813 
L 551.316999 193.145686 
L 551.568076 194.484751 
L 552.321305 187.917442 
L 552.823458 184.824575 
L 553.325611 178.829969 
L 553.576687 172.689187 
L 554.07884 167.296908 
L 554.83207 152.098761 
L 555.083146 148.864845 
L 555.334223 140.163045 
L 555.585299 135.750736 
L 555.836376 126.905757 
L 556.087452 124.488427 
L 556.589605 112.972048 
L 557.091758 104.045586 
L 557.342835 98.203226 
L 557.593911 95.565752 
L 557.844988 94.823897 
L 558.096064 88.408726 
L 558.347141 88.397999 
L 558.598217 86.983371 
L 558.849293 86.360161 
L 559.10037 82.680098 
L 559.351446 83.530045 
L 559.602523 86.922935 
L 559.853599 88.806724 
L 560.606829 99.825614 
L 560.857905 102.145132 
L 561.108982 108.551475 
L 561.611135 115.868585 
L 562.113288 129.96752 
L 563.117594 151.255746 
L 563.36867 153.501907 
L 563.870823 162.473241 
L 564.121899 165.08262 
L 564.372976 170.203184 
L 564.624052 172.831685 
L 564.875129 174.237311 
L 565.126205 177.241033 
L 565.377282 177.800608 
L 565.628358 179.699059 
L 565.879435 179.595316 
L 566.130511 179.367655 
L 566.381588 181.384835 
L 566.632664 179.870105 
L 566.883741 181.139495 
L 567.134817 183.490752 
L 567.385894 182.746496 
L 568.3902 186.851359 
L 568.641276 187.445957 
L 568.892352 187.693697 
L 569.143429 189.906866 
L 569.394505 190.874224 
L 569.896658 195.994964 
L 570.147735 196.424132 
L 570.398811 198.477751 
L 570.649888 199.585018 
L 570.900964 202.637441 
L 571.152041 203.217216 
L 571.654194 208.682336 
L 571.90527 208.836537 
L 572.156347 211.72588 
L 572.6585 214.42664 
L 572.909576 216.775777 
L 573.160653 217.268961 
L 573.411729 219.439719 
L 573.662806 219.963418 
L 574.416035 222.178477 
L 574.667111 222.961298 
L 575.169264 225.64511 
L 575.420341 225.830656 
L 575.671417 226.989772 
L 575.922494 227.614867 
L 576.17357 229.115783 
L 576.424647 228.55609 
L 576.9268 230.200043 
L 577.177876 230.894369 
L 577.428953 230.048571 
L 577.680029 230.517519 
L 577.931106 231.2414 
L 578.182182 230.51765 
L 578.433259 230.31836 
L 578.684335 229.782928 
L 578.935411 229.870619 
L 579.186488 229.755229 
L 579.939717 226.395106 
L 580.44187 224.917835 
L 581.1951 222.268008 
L 581.446176 220.632543 
L 581.697253 219.937345 
L 582.450482 216.77672 
L 582.701559 216.494803 
L 582.952635 215.886553 
L 583.203712 214.618575 
L 583.454788 215.274597 
L 583.956941 213.788648 
L 584.208017 213.261551 
L 584.459094 213.300927 
L 584.71017 214.260868 
L 584.961247 213.771251 
L 585.212323 214.80125 
L 585.4634 214.893483 
L 585.714476 215.315222 
L 585.965553 216.128024 
L 586.216629 216.225703 
L 586.467706 216.629129 
L 586.718782 216.279833 
L 586.969859 217.984739 
L 587.220935 216.816562 
L 587.723088 217.540141 
L 587.974165 216.915015 
L 588.225241 217.726072 
L 588.476318 217.728377 
L 588.727394 216.863039 
L 588.97847 217.121772 
L 589.229547 216.700729 
L 589.480623 216.868833 
L 589.7317 215.666285 
L 589.982776 215.78814 
L 590.233853 214.000078 
L 590.484929 214.083986 
L 590.736006 213.47749 
L 590.987082 214.014288 
L 591.238159 212.425926 
L 591.489235 211.9945 
L 591.740312 212.583839 
L 591.991388 211.45361 
L 592.242465 212.39066 
L 592.493541 212.369627 
L 592.744618 212.572649 
L 592.995694 213.178257 
L 593.246771 213.175167 
L 594 215.35874 
L 594.251076 214.968552 
L 594.502153 216.453893 
L 595.255382 218.561955 
L 595.506459 219.817379 
L 595.757535 220.284533 
L 596.259688 221.735833 
L 596.510765 221.800857 
L 596.761841 222.538454 
L 597.012918 223.740084 
L 597.263994 224.17322 
L 597.515071 224.055436 
L 597.766147 224.809321 
L 598.2683 224.62595 
L 598.519377 225.09527 
L 598.770453 224.491856 
L 599.02153 224.978247 
L 599.523682 225.448923 
L 599.774759 225.751355 
L 600.025835 225.58293 
L 600.276912 225.639432 
L 600.527988 225.515797 
L 600.779065 225.627083 
L 601.030141 224.968819 
L 601.281218 225.18625 
L 601.532294 224.836495 
L 601.783371 224.691013 
L 602.034447 224.10519 
L 602.5366 223.617957 
L 602.787677 223.798216 
L 603.038753 222.51394 
L 603.28983 222.303222 
L 603.540906 221.261869 
L 603.791983 220.853277 
L 604.043059 220.194559 
L 604.545212 217.774405 
L 605.549518 214.274616 
L 605.800594 215.007956 
L 606.051671 213.072751 
L 606.302747 213.573915 
L 606.553824 213.005782 
L 606.8049 212.829393 
L 607.055977 213.817538 
L 607.307053 214.00968 
L 607.55813 214.045566 
L 608.060283 217.022408 
L 608.311359 217.502773 
L 608.813512 220.961074 
L 609.064589 221.233412 
L 609.315665 223.768755 
L 609.566741 225.103037 
L 609.817818 225.833638 
L 610.319971 229.180017 
L 610.822124 230.74113 
L 611.0732 231.275652 
L 611.324277 232.231148 
L 611.575353 231.699451 
L 611.82643 232.208022 
L 612.328583 231.291221 
L 612.830736 228.976889 
L 613.332889 226.831001 
L 613.835042 222.468575 
L 614.086118 220.649799 
L 614.588271 215.763594 
L 614.839347 215.131797 
L 615.592577 209.300013 
L 616.09473 207.093104 
L 616.596883 204.076058 
L 616.847959 204.08277 
L 617.350112 204.757596 
L 617.601189 203.418916 
L 618.103342 205.599886 
L 618.354418 205.718993 
L 618.605495 208.069759 
L 618.856571 208.621876 
L 619.107648 209.468924 
L 619.358724 211.748032 
L 619.6098 212.686408 
L 620.36303 217.946485 
L 620.614106 218.883417 
L 620.865183 221.005438 
L 621.116259 221.511976 
L 621.869489 225.444586 
L 622.120565 226.481834 
L 622.371642 226.808122 
L 622.622718 228.481524 
L 622.873795 227.96905 
L 623.124871 228.714602 
L 623.375948 228.795373 
L 623.627024 229.064721 
L 623.878101 229.608956 
L 624.129177 229.538332 
L 624.380254 229.775761 
L 624.63133 229.208188 
L 624.882406 229.030902 
L 625.133483 229.657061 
L 625.635636 229.589456 
L 625.886712 228.942048 
L 626.137789 229.97938 
L 626.639942 229.430869 
L 626.891018 230.256627 
L 627.393171 230.573194 
L 627.644248 230.27181 
L 627.895324 231.230631 
L 628.146401 231.438104 
L 628.397477 231.929008 
L 628.648554 232.050451 
L 629.150707 233.667769 
L 629.401783 233.762147 
L 629.652859 234.566624 
L 629.903936 234.227593 
L 630.155012 234.232281 
L 630.406089 234.836838 
L 630.657165 234.718291 
L 630.908242 234.195246 
L 631.159318 234.605098 
L 631.410395 234.573733 
L 631.661471 234.162829 
L 631.912548 234.112522 
L 632.163624 233.807881 
L 632.414701 232.886635 
L 632.665777 232.777882 
L 632.916854 231.966283 
L 633.16793 231.894288 
L 633.419007 231.394173 
L 633.670083 229.845635 
L 633.92116 229.895948 
L 634.423313 228.418362 
L 634.674389 228.400031 
L 634.925465 227.240392 
L 635.427618 226.454475 
L 635.678695 226.494123 
L 635.929771 226.146304 
L 636.180848 226.149606 
L 636.431924 225.464562 
L 636.683001 225.415932 
L 636.934077 225.908713 
L 637.185154 225.412288 
L 637.687307 225.155799 
L 637.938383 224.477638 
L 638.18946 225.413493 
L 638.440536 224.547818 
L 638.691613 225.104903 
L 638.942689 225.113619 
L 639.193766 224.320105 
L 639.444842 225.025264 
L 639.695918 224.276026 
L 639.946995 224.861448 
L 640.198071 224.547762 
L 640.449148 224.809946 
L 640.700224 225.253127 
L 640.951301 224.77292 
L 641.202377 226.033455 
L 641.453454 226.53876 
L 641.70453 225.878951 
L 641.955607 226.114586 
L 642.45776 227.432746 
L 642.959913 227.588866 
L 643.462066 228.731429 
L 643.713142 229.021615 
L 643.964219 229.797821 
L 644.215295 229.702194 
L 644.466372 230.120668 
L 644.717448 229.747725 
L 644.968524 230.767769 
L 645.470677 230.770734 
L 645.721754 230.382496 
L 645.97283 231.143785 
L 646.977136 230.300897 
L 647.228213 229.962314 
L 647.479289 230.073915 
L 647.730366 229.602914 
L 647.981442 229.944489 
L 648.734672 228.8814 
L 648.985748 228.710135 
L 649.236825 228.24081 
L 649.487901 228.505235 
L 649.738978 228.278138 
L 649.990054 228.66774 
L 650.24113 228.366874 
L 650.492207 228.288359 
L 650.743283 229.425322 
L 650.99436 229.775548 
L 651.245436 229.344457 
L 651.496513 229.867815 
L 651.747589 229.824781 
L 651.998666 230.355231 
L 652.249742 230.538389 
L 652.751895 231.271319 
L 653.254048 232.474592 
L 653.756201 232.677752 
L 654.007278 232.982491 
L 654.258354 233.073906 
L 654.509431 233.033308 
L 654.760507 233.114639 
L 655.011583 232.259362 
L 655.26266 232.057804 
L 655.513736 231.657156 
L 655.764813 230.640437 
L 656.015889 230.267614 
L 656.518042 228.348424 
L 656.769119 227.91479 
L 657.020195 226.942785 
L 657.271272 226.489775 
L 657.522348 225.386634 
L 657.773425 223.563949 
L 658.024501 223.121951 
L 658.526654 221.268967 
L 659.028807 220.558804 
L 659.279884 219.677895 
L 659.53096 219.759601 
L 659.782037 219.584722 
L 660.033113 219.798257 
L 660.284189 219.313168 
L 660.535266 220.375238 
L 660.786342 220.641956 
L 661.037419 221.226531 
L 661.288495 221.202993 
L 662.292801 225.842355 
L 662.543878 226.591883 
L 663.046031 228.474538 
L 663.297107 229.346467 
L 663.548184 230.711219 
L 663.79926 230.765114 
L 664.050337 231.600053 
L 664.301413 231.94657 
L 664.55249 232.932544 
L 664.803566 232.820095 
L 665.054642 233.144406 
L 665.305719 232.955607 
L 665.556795 233.450582 
L 665.807872 232.753305 
L 666.058948 233.042115 
L 667.063254 231.883614 
L 667.565407 231.344278 
L 668.06756 230.778571 
L 668.318637 230.058863 
L 668.569713 230.50197 
L 668.82079 230.565759 
L 669.071866 230.380528 
L 669.322943 230.944317 
L 669.574019 231.230141 
L 670.076172 231.413554 
L 670.327248 232.398065 
L 670.578325 232.41764 
L 673.340166 239.378738 
L 674.093396 240.129723 
L 674.344472 240.307777 
L 674.595549 240.751461 
L 675.097701 240.891088 
L 675.348778 240.951403 
L 675.599854 240.813645 
L 675.850931 240.856986 
L 676.102007 240.730771 
L 676.60416 240.156598 
L 676.855237 240.253815 
L 677.608466 239.459296 
L 678.110619 239.087508 
L 678.361696 238.777774 
L 678.612772 238.727194 
L 679.114925 238.257944 
L 679.366002 237.89824 
L 679.617078 238.29482 
L 679.868155 237.744765 
L 680.621384 237.424557 
L 681.123537 237.125228 
L 681.374613 236.700435 
L 681.876766 236.810288 
L 682.127843 236.343362 
L 683.132149 236.141934 
L 683.885378 235.231374 
L 684.136455 235.37885 
L 684.387531 235.141368 
L 684.638608 234.695835 
L 684.889684 234.939354 
L 685.140761 234.724413 
L 685.391837 234.247492 
L 685.642913 234.38446 
L 685.89399 234.654395 
L 686.396143 233.96283 
L 686.647219 233.793612 
L 686.898296 234.040717 
L 687.149372 234.127823 
L 687.400449 233.814248 
L 687.902602 233.718353 
L 688.153678 233.816466 
L 688.906908 233.531954 
L 689.409061 233.955421 
L 689.660137 233.206933 
L 689.911214 233.634947 
L 690.16229 233.613917 
L 690.413366 233.312631 
L 690.664443 233.339773 
L 690.915519 233.179812 
L 691.166596 233.476372 
L 691.417672 233.370028 
L 691.668749 232.518864 
L 691.919825 233.279538 
L 692.170902 232.943602 
L 692.421978 233.258575 
L 692.924131 232.494219 
L 693.175208 232.686251 
L 693.426284 232.55066 
L 693.677361 231.982095 
L 693.928437 232.115602 
L 694.43059 231.598031 
L 694.681667 231.767419 
L 694.932743 230.779577 
L 695.18382 230.379925 
L 695.434896 230.342636 
L 695.685972 229.429817 
L 695.937049 229.134654 
L 696.188125 228.334347 
L 696.439202 227.941696 
L 696.690278 226.992271 
L 696.941355 227.484783 
L 697.443508 224.979185 
L 697.694584 224.517148 
L 697.945661 223.38676 
L 698.447814 222.518584 
L 699.45212 218.639633 
L 699.703196 218.078718 
L 700.205349 216.508778 
L 700.456425 214.934799 
L 700.707502 215.466902 
L 701.209655 213.661891 
L 701.460731 213.314497 
L 701.711808 212.536924 
L 701.962884 211.358423 
L 702.213961 211.344643 
L 702.465037 209.823074 
L 702.96719 210.010709 
L 703.218267 209.554064 
L 703.72042 209.664535 
L 703.971496 210.116743 
L 704.222573 208.756146 
L 704.473649 209.248123 
L 704.724726 210.817819 
L 704.975802 209.823853 
L 705.226879 210.679371 
L 705.477955 210.464298 
L 705.980108 212.465353 
L 706.231184 212.56106 
L 706.733337 214.10595 
L 707.23549 216.7233 
L 707.737643 218.877857 
L 707.98872 220.994777 
L 708.239796 221.225422 
L 708.490873 223.367524 
L 708.741949 224.40845 
L 709.495179 228.905119 
L 709.746255 229.780072 
L 709.997332 231.536008 
L 710.248408 232.23245 
L 711.001637 236.002611 
L 711.754867 237.883769 
L 712.005943 238.486647 
L 713.010249 239.178123 
L 713.261326 239.147088 
L 713.512402 238.883742 
L 713.763479 238.9325 
L 714.014555 238.692956 
L 714.516708 238.550072 
L 714.767785 238.451632 
L 715.018861 238.046936 
L 715.269938 238.059443 
L 715.521014 237.567191 
L 715.77209 237.956335 
L 716.023167 237.617736 
L 716.52532 237.593921 
L 716.776396 237.45998 
L 717.027473 237.703926 
L 717.278549 237.709931 
L 717.780702 238.125104 
L 718.282855 238.263992 
L 718.785008 238.854419 
L 719.036085 238.776772 
L 719.287161 238.853024 
L 719.538238 72.187163 
L 721.546849 133.935238 
L 722.300079 152.918668 
L 722.551155 155.573797 
L 723.053308 167.329614 
L 723.806538 178.850748 
L 724.057614 182.742928 
L 724.308691 184.875495 
L 724.810844 191.14048 
L 725.312997 195.785694 
L 725.815149 200.074282 
L 726.066226 200.818405 
L 726.317302 202.125852 
L 726.819455 203.233711 
L 727.070532 205.38602 
L 727.823761 209.133624 
L 728.074838 208.924299 
L 728.325914 209.760368 
L 728.576991 211.543703 
L 729.079144 212.815658 
L 729.33022 214.380839 
L 729.581297 215.111558 
L 729.832373 217.250512 
L 730.08345 218.371721 
L 730.334526 218.434192 
L 730.585603 219.118427 
L 731.589908 223.550241 
L 732.343138 225.823524 
L 732.594214 226.816963 
L 733.096367 227.243148 
L 733.347444 227.958198 
L 733.59852 228.211644 
L 733.849597 228.713215 
L 734.35175 228.922212 
L 734.602826 228.285423 
L 734.853903 228.672687 
L 735.356056 227.620377 
L 735.607132 228.110619 
L 735.858209 227.037622 
L 736.611438 226.17532 
L 737.113591 223.979147 
L 737.364667 223.697257 
L 737.615744 222.710217 
L 737.86682 222.337201 
L 738.117897 221.46502 
L 738.368973 220.04666 
L 738.62005 219.938926 
L 738.871126 219.404785 
L 739.122203 218.406353 
L 739.373279 218.014299 
L 739.624356 216.802207 
L 739.875432 217.27305 
L 740.126509 215.592331 
L 740.377585 215.125326 
L 740.628662 215.864799 
L 740.879738 214.455187 
L 741.130814 215.46182 
L 741.381891 214.28812 
L 741.632967 214.377077 
L 741.884044 214.914613 
L 742.13512 214.577098 
L 742.386197 214.468519 
L 742.637273 214.109665 
L 742.88835 215.139011 
L 743.390503 216.212583 
L 743.641579 216.989924 
L 743.892656 216.50144 
L 744.143732 217.517814 
L 744.896962 217.595363 
L 745.148038 216.71979 
L 745.399115 217.407323 
L 745.650191 217.583446 
L 746.152344 216.576905 
L 746.40342 215.487298 
L 746.654497 214.968116 
L 746.905573 214.794593 
L 747.407726 212.840136 
L 747.658803 212.315143 
L 748.663109 208.173636 
L 748.914185 208.02707 
L 749.416338 205.916682 
L 749.667415 205.244872 
L 750.169568 203.392899 
L 751.173873 202.291284 
L 751.42495 203.042657 
L 751.676026 202.76567 
L 751.927103 202.160754 
L 752.178179 203.256734 
L 752.429256 203.654667 
L 752.680332 204.503439 
L 752.931409 204.951342 
L 753.182485 205.80224 
L 753.433562 206.131039 
L 753.684638 207.261299 
L 753.935715 207.58875 
L 754.437868 209.808203 
L 754.688944 210.786744 
L 754.940021 211.00443 
L 755.191097 212.911049 
L 755.442174 213.057642 
L 755.69325 214.003498 
L 756.195403 216.285452 
L 756.446479 216.850825 
L 756.697556 217.013509 
L 756.948632 218.900614 
L 757.199709 219.810923 
L 757.450785 219.990356 
L 757.701862 221.44807 
L 757.952938 221.754072 
L 758.204015 223.091834 
L 758.455091 223.168917 
L 758.706168 223.799161 
L 758.957244 225.220671 
L 759.208321 225.669727 
L 759.459397 226.967114 
L 759.96155 228.3358 
L 760.212627 229.773685 
L 760.463703 229.993426 
L 760.965856 232.123344 
L 761.216933 232.662198 
L 761.970162 235.372783 
L 763.476621 238.359868 
L 763.727697 238.511619 
L 763.978774 238.861669 
L 764.480927 238.964032 
L 764.98308 239.14676 
L 765.234156 238.969128 
L 765.485233 239.219958 
L 765.736309 239.014294 
L 765.987386 238.59402 
L 766.238462 238.622291 
L 766.489538 238.145209 
L 766.740615 238.116927 
L 767.242768 237.529256 
L 767.493844 236.983022 
L 767.995997 236.650525 
L 768.49815 235.672279 
L 768.749227 235.311075 
L 769.000303 234.736115 
L 769.25138 234.712749 
L 770.004609 232.405915 
L 770.506762 231.667498 
L 771.762144 227.916214 
L 772.013221 227.412721 
L 772.264297 226.607884 
L 772.515374 226.178532 
L 772.76645 225.44764 
L 773.017527 225.531203 
L 773.268603 224.653614 
L 773.51968 224.212318 
L 773.770756 223.460156 
L 774.021833 223.77228 
L 774.272909 223.398211 
L 774.775062 224.027038 
L 775.277215 223.98322 
L 776.030445 226.343153 
L 776.281521 226.547092 
L 778.290133 233.975133 
L 778.541209 234.498712 
L 778.792286 235.606307 
L 779.043362 236.076576 
L 779.294439 237.060689 
L 779.545515 237.334268 
L 780.298745 238.468662 
L 781.051974 238.899714 
L 781.303051 239.011003 
L 782.05628 238.513968 
L 782.307356 238.622416 
L 782.558433 238.42052 
L 782.809509 238.372339 
L 783.060586 238.11846 
L 783.311662 238.292462 
L 783.562739 238.012559 
L 783.813815 238.30033 
L 784.315968 238.178778 
L 784.818121 238.319377 
L 785.069198 238.260251 
L 785.822427 238.436857 
L 786.073504 238.293184 
L 786.32458 238.586266 
L 786.575656 238.619157 
L 786.826733 238.794235 
L 787.077809 238.588559 
L 787.831039 238.584422 
L 788.333192 238.487338 
L 788.835345 238.190885 
L 789.337498 237.460475 
L 789.839651 237.242961 
L 790.090727 236.600108 
L 790.341804 236.447334 
L 790.59288 235.964091 
L 790.843957 235.883574 
L 791.095033 235.443967 
L 791.34611 235.285223 
L 791.848262 234.634247 
L 792.099339 234.716346 
L 792.852568 233.142328 
L 794.107951 229.444126 
L 794.359027 228.426423 
L 794.86118 224.634651 
L 795.112257 224.206612 
L 796.869792 206.992812 
L 798.878404 184.18424 
L 799.380557 179.690725 
L 799.631633 179.982848 
L 799.88271 179.137392 
L 800.133786 177.352362 
L 800.384863 177.037671 
L 800.635939 178.069304 
L 800.887016 177.92278 
L 801.138092 180.203085 
L 801.389169 180.408307 
L 802.142398 188.752397 
L 802.644551 194.650776 
L 803.899933 212.093374 
L 805.657469 228.013005 
L 805.908545 228.744102 
L 806.159622 228.826833 
L 806.410698 229.325677 
L 806.661775 229.376205 
L 806.912851 229.20293 
L 807.163927 228.601898 
L 807.917157 225.467149 
L 808.41931 223.879266 
L 808.670386 222.724467 
L 808.921463 222.349419 
L 809.172539 220.963882 
L 809.925769 219.494952 
L 810.176845 220.242355 
L 810.427922 220.61508 
L 810.678998 220.353091 
L 810.930075 220.993087 
L 811.181151 222.272087 
L 811.683304 223.283306 
L 812.436533 226.079678 
L 812.68761 226.694177 
L 813.440839 229.624665 
L 813.691916 230.237999 
L 814.194069 232.099057 
L 814.445145 232.276717 
L 814.696222 233.171412 
L 814.947298 233.30465 
L 815.198375 234.32031 
L 815.449451 234.439785 
L 815.951604 235.219974 
L 816.704834 235.648446 
L 816.95591 236.017476 
L 817.206986 236.074038 
L 817.458063 236.011777 
L 817.709139 236.397327 
L 818.211292 236.365183 
L 818.462369 236.821391 
L 818.713445 236.723892 
L 818.964522 237.014641 
L 819.215598 236.879914 
L 819.717751 237.284994 
L 819.968828 237.302656 
L 820.219904 237.586566 
L 820.470981 237.425919 
L 820.973134 237.737792 
L 821.22421 237.950147 
L 821.475287 237.893773 
L 821.726363 238.236466 
L 822.730669 238.417626 
L 822.981745 238.272031 
L 823.232822 238.70963 
L 823.734975 238.67689 
L 823.986051 239.086735 
L 824.237128 238.925991 
L 824.488204 238.898798 
L 824.739281 239.076601 
L 825.49251 239.118676 
L 825.743587 239.005754 
L 826.24574 239.39176 
L 826.496816 239.062844 
L 826.998969 239.174141 
L 827.501122 239.115239 
L 828.505428 239.01101 
L 828.756504 238.710345 
L 829.007581 238.85969 
L 829.258657 238.672849 
L 829.509734 238.683388 
L 829.76081 238.356005 
L 830.262963 238.378735 
L 830.51404 237.922161 
L 831.267269 237.68763 
L 831.518346 237.381356 
L 831.769422 237.333478 
L 832.020499 236.990512 
L 832.271575 236.449682 
L 833.024804 236.015765 
L 833.275881 235.331999 
L 833.526957 235.488772 
L 833.778034 235.343729 
L 834.02911 234.925416 
L 834.280187 234.799904 
L 834.531263 234.32254 
L 834.78234 234.241368 
L 835.033416 233.790963 
L 835.284493 234.027182 
L 835.786646 232.854468 
L 836.037722 232.932316 
L 836.288799 232.160562 
L 836.539875 232.270156 
L 836.790952 231.843397 
L 837.042028 231.767869 
L 837.293104 231.512249 
L 837.544181 230.76148 
L 837.795257 230.413571 
L 838.046334 230.298717 
L 838.29741 229.639924 
L 838.548487 230.125206 
L 839.05064 229.59161 
L 839.301716 229.46812 
L 840.054946 229.962708 
L 840.557099 230.118592 
L 840.808175 230.223138 
L 841.310328 231.011662 
L 842.314634 232.441421 
L 842.56571 233.355425 
L 843.067863 234.047679 
L 843.31894 234.970514 
L 843.570016 234.979271 
L 844.072169 236.124165 
L 844.574322 236.942733 
L 845.076475 237.528115 
L 845.327552 237.905862 
L 845.578628 237.954888 
L 845.829705 238.216702 
L 846.080781 238.241364 
L 846.331858 238.721438 
L 846.582934 238.505565 
L 847.085087 238.737247 
L 847.336164 238.63308 
L 847.58724 238.925418 
L 848.089393 238.656633 
L 848.340469 238.964112 
L 848.591546 238.840454 
L 848.842622 238.971007 
L 849.093699 238.944577 
L 849.344775 239.101193 
L 849.595852 238.965197 
L 849.846928 239.177386 
L 850.098005 239.030936 
L 850.600158 239.289881 
L 851.353387 239.284103 
L 851.604464 239.397313 
L 852.106617 239.141555 
L 852.357693 239.245448 
L 852.608769 239.202469 
L 853.110922 238.577752 
L 853.613075 238.34511 
L 853.864152 237.933727 
L 854.115228 237.788209 
L 854.366305 237.232235 
L 854.617381 237.356004 
L 854.868458 236.837961 
L 855.119534 236.618413 
L 855.621687 235.788318 
L 855.872764 235.697437 
L 856.12384 235.045435 
L 856.374917 235.337974 
L 856.87707 234.60706 
L 857.128146 234.765049 
L 857.379223 234.467492 
L 857.881375 235.204197 
L 858.132452 235.265043 
L 858.634605 236.262109 
L 859.136758 236.888893 
L 859.387834 237.166976 
L 860.39214 239.105105 
L 860.643217 239.3762 
L 860.894293 239.988123 
L 862.149676 241.060774 
L 862.651828 241.123602 
L 863.153981 241.0196 
L 863.405058 240.72056 
L 863.907211 240.406802 
L 865.162593 239.449775 
L 865.664746 238.935967 
L 866.166899 238.497494 
L 867.673358 238.100648 
L 867.924434 238.502999 
L 868.175511 238.149682 
L 868.677664 238.513063 
L 870.435199 239.745813 
L 870.686276 239.799157 
L 871.188429 240.201249 
L 871.439505 240.078435 
L 871.690582 240.429822 
L 871.941658 240.294029 
L 872.192735 240.49469 
L 872.443811 240.465 
L 872.945964 240.560922 
L 873.19704 240.487822 
L 873.448117 240.554697 
L 873.699193 240.465334 
L 873.95027 240.58972 
L 874.954576 240.324925 
L 875.456729 240.37232 
L 875.707805 240.305576 
L 875.958882 240.422528 
L 876.209958 240.115513 
L 876.461035 240.233813 
L 876.963188 240.152133 
L 877.214264 240.371293 
L 877.465341 240.266763 
L 877.716417 240.427019 
L 877.967493 240.206306 
L 878.469646 240.387221 
L 878.720723 240.176376 
L 878.971799 240.160722 
L 879.222876 240.284466 
L 879.473952 240.015047 
L 880.227182 239.956527 
L 881.482564 238.876321 
L 881.733641 238.336878 
L 882.235794 237.913382 
L 882.48687 237.514958 
L 882.737947 236.728243 
L 882.989023 236.533324 
L 883.491176 235.301912 
L 883.742252 234.516862 
L 883.993329 234.19139 
L 884.997635 231.14922 
L 885.248711 230.581577 
L 886.253017 226.129089 
L 886.75517 224.436405 
L 887.257323 222.180044 
L 888.010552 219.105716 
L 888.261629 217.818742 
L 888.512705 218.013194 
L 889.265935 216.143989 
L 889.517011 216.346152 
L 889.768088 215.262609 
L 890.270241 216.185399 
L 890.521317 215.866627 
L 890.772394 216.100548 
L 891.02347 217.427672 
L 891.7767 219.300546 
L 892.027776 220.585949 
L 892.278853 221.028685 
L 892.529929 222.280259 
L 892.781006 222.644568 
L 893.534235 225.444158 
L 893.785311 225.748289 
L 894.036388 226.468165 
L 894.287464 226.657733 
L 894.538541 227.213245 
L 894.789617 227.286769 
L 895.040694 227.15411 
L 895.29177 227.566069 
L 896.045 226.736529 
L 896.547153 227.604202 
L 896.798229 226.550558 
L 897.049306 226.982831 
L 897.300382 226.825763 
L 897.802535 228.159168 
L 898.053611 228.453154 
L 898.304688 229.006139 
L 898.555764 229.202031 
L 900.564376 233.311756 
L 901.066529 234.078231 
L 901.317606 233.983155 
L 901.568682 234.320561 
L 901.819759 234.342191 
L 902.070835 234.493829 
L 902.321912 234.271718 
L 902.572988 234.401891 
L 903.075141 234.350111 
L 903.326217 233.711061 
L 903.577294 233.661823 
L 904.330523 232.419973 
L 904.832676 231.945826 
L 906.841288 228.184845 
L 907.092365 228.075846 
L 907.343441 227.520593 
L 907.594518 227.257111 
L 907.845594 227.238275 
L 908.096671 227.486604 
L 908.347747 227.067574 
L 909.100976 228.122331 
L 909.352053 228.040057 
L 909.603129 228.760252 
L 910.105282 229.519635 
L 910.607435 230.761656 
L 910.858512 231.277504 
L 911.360665 232.72906 
L 911.611741 233.01368 
L 911.862818 233.950807 
L 913.1182 236.25691 
L 913.369276 236.452966 
L 913.620353 236.954196 
L 913.871429 237.112798 
L 914.373582 237.884375 
L 914.624659 237.768836 
L 914.875735 237.894593 
L 915.126812 237.867183 
L 915.628965 238.274252 
L 915.880041 238.209898 
L 916.633271 238.500828 
L 916.884347 238.366401 
L 917.135424 238.559572 
L 917.3865 238.444459 
L 917.888653 238.738271 
L 918.390806 238.996851 
L 918.641882 238.897283 
L 919.144035 239.203319 
L 919.897265 239.471016 
L 921.403724 240.304072 
L 921.905877 240.398468 
L 922.910183 240.882678 
L 923.914488 241.010948 
L 925.420947 241.261343 
L 925.672024 241.17636 
L 925.9231 241.330112 
L 926.67633 241.445153 
L 927.429559 241.541744 
L 927.680636 241.635112 
L 928.182789 241.565163 
L 928.433865 241.540932 
L 928.684941 241.675463 
L 930.94463 240.980075 
L 932.953242 239.45034 
L 933.204318 239.196449 
L 933.455395 239.133731 
L 933.706471 238.776185 
L 934.208624 238.562821 
L 934.4597 238.259997 
L 934.961853 238.160455 
L 935.464006 237.718613 
L 935.715083 237.732787 
L 937.221542 236.977863 
L 937.472618 236.780461 
L 937.723695 236.846392 
L 937.974771 236.356635 
L 938.225848 236.305437 
L 938.476924 236.417078 
L 938.728 236.26113 
L 938.979077 236.264575 
L 939.230153 235.90471 
L 939.48123 236.097914 
L 939.983383 235.531996 
L 940.234459 235.774761 
L 940.485536 235.529129 
L 941.238765 235.531693 
L 941.489842 235.783092 
L 941.740918 235.462992 
L 942.494148 236.199119 
L 942.745224 236.077579 
L 942.996301 236.312221 
L 943.247377 236.361606 
L 943.498454 236.70695 
L 943.74953 236.686767 
L 944.251683 237.62829 
L 944.502759 237.891637 
L 944.753836 237.941884 
L 945.004912 238.114157 
L 945.507065 238.806098 
L 946.009218 239.233885 
L 946.260295 239.59929 
L 946.511371 239.687542 
L 947.013524 240.205407 
L 947.515677 240.617976 
L 948.519983 241.088254 
L 949.273212 241.448024 
L 951.030748 241.460779 
L 952.035054 240.999819 
L 952.537207 240.676044 
L 953.03936 240.210078 
L 953.541513 239.853929 
L 953.792589 239.679998 
L 954.796895 238.410157 
L 955.047971 238.374877 
L 955.550124 237.999989 
L 955.801201 237.951755 
L 956.052277 237.723049 
L 956.55443 237.086681 
L 956.805507 236.85405 
L 957.056583 237.098956 
L 957.30766 236.853875 
L 957.809813 236.800263 
L 958.060889 236.502119 
L 958.311966 236.521405 
L 958.563042 236.768572 
L 958.814119 236.48349 
L 959.065195 236.766723 
L 959.316271 236.676541 
L 959.567348 236.734953 
L 960.320577 236.617968 
L 960.571654 236.684635 
L 960.82273 236.464671 
L 961.324883 236.747274 
L 961.57596 236.43938 
L 961.827036 236.548118 
L 962.078113 236.368276 
L 962.831342 236.269936 
L 963.082419 236.001295 
L 963.333495 236.372749 
L 964.086724 236.163336 
L 964.337801 236.448431 
L 964.839954 236.142384 
L 965.593183 236.66658 
L 965.84426 236.455658 
L 966.095336 236.744002 
L 966.346413 237.271996 
L 966.597489 237.314233 
L 967.099642 237.817686 
L 967.350719 237.795699 
L 967.601795 238.00714 
L 968.355025 238.95921 
L 968.857178 239.233164 
L 970.363636 240.258704 
L 970.363636 240.258704 
" style="fill:none;stroke:#1f77b4;stroke-linecap:square;stroke-width:1.5;"/>
   </g>
   <g id="patch_3">
    <path d="M 180 252 
L 180 34.56 
" style="fill:none;stroke:#000000;stroke-linecap:square;stroke-linejoin:miter;stroke-width:0.8;"/>
   </g>
   <g id="patch_4">
    <path d="M 1008 252 
L 1008 34.56 
" style="fill:none;stroke:#000000;stroke-linecap:square;stroke-linejoin:miter;stroke-width:0.8;"/>
   </g>
   <g id="patch_5">
    <path d="M 180 252 
L 1008 252 
" style="fill:none;stroke:#000000;stroke-linecap:square;stroke-linejoin:miter;stroke-width:0.8;"/>
   </g>
   <g id="patch_6">
    <path d="M 180 34.56 
L 1008 34.56 
" style="fill:none;stroke:#000000;stroke-linecap:square;stroke-linejoin:miter;stroke-width:0.8;"/>
   </g>
   <g id="legend_1">
    <g id="PathCollection_2">
     <g>
      <use style="fill:#ff0000;stroke:#ff0000;" x="1085.8" xlink:href="#m7a788fb1d6" y="56.745312"/>
     </g>
    </g>
    <g id="text_11">
     <!-- &gt; mean + 3SD -->
     <defs>
      <path d="M 52.875 31.296875 
L 5.46875 11.03125 
L 5.46875 19.78125 
L 43.015625 35.359375 
L 5.46875 50.78125 
L 5.46875 59.515625 
L 52.875 39.5 
z
" id="ArialMT-62"/>
      <path d="M 25.046875 11.578125 
L 25.046875 31.203125 
L 5.5625 31.203125 
L 5.5625 39.40625 
L 25.046875 39.40625 
L 25.046875 58.890625 
L 33.34375 58.890625 
L 33.34375 39.40625 
L 52.828125 39.40625 
L 52.828125 31.203125 
L 33.34375 31.203125 
L 33.34375 11.578125 
z
" id="ArialMT-43"/>
      <path d="M 4.5 23 
L 13.421875 23.78125 
Q 14.0625 18.40625 16.375 14.96875 
Q 18.703125 11.53125 23.578125 9.40625 
Q 28.46875 7.28125 34.578125 7.28125 
Q 39.984375 7.28125 44.140625 8.890625 
Q 48.296875 10.5 50.3125 13.296875 
Q 52.34375 16.109375 52.34375 19.4375 
Q 52.34375 22.796875 50.390625 25.3125 
Q 48.4375 27.828125 43.953125 29.546875 
Q 41.0625 30.671875 31.203125 33.03125 
Q 21.34375 35.40625 17.390625 37.5 
Q 12.25 40.1875 9.734375 44.15625 
Q 7.234375 48.140625 7.234375 53.078125 
Q 7.234375 58.5 10.296875 63.203125 
Q 13.375 67.921875 19.28125 70.359375 
Q 25.203125 72.796875 32.421875 72.796875 
Q 40.375 72.796875 46.453125 70.234375 
Q 52.546875 67.671875 55.8125 62.6875 
Q 59.078125 57.71875 59.328125 51.421875 
L 50.25 50.734375 
Q 49.515625 57.515625 45.28125 60.984375 
Q 41.0625 64.453125 32.8125 64.453125 
Q 24.21875 64.453125 20.28125 61.296875 
Q 16.359375 58.15625 16.359375 53.71875 
Q 16.359375 49.859375 19.140625 47.359375 
Q 21.875 44.875 33.421875 42.265625 
Q 44.96875 39.65625 49.265625 37.703125 
Q 55.515625 34.8125 58.484375 30.390625 
Q 61.46875 25.984375 61.46875 20.21875 
Q 61.46875 14.5 58.203125 9.4375 
Q 54.9375 4.390625 48.796875 1.578125 
Q 42.671875 -1.21875 35.015625 -1.21875 
Q 25.296875 -1.21875 18.71875 1.609375 
Q 12.15625 4.4375 8.421875 10.125 
Q 4.6875 15.828125 4.5 23 
z
" id="ArialMT-83"/>
      <path d="M 7.71875 0 
L 7.71875 71.578125 
L 32.375 71.578125 
Q 40.71875 71.578125 45.125 70.5625 
Q 51.265625 69.140625 55.609375 65.4375 
Q 61.28125 60.640625 64.078125 53.1875 
Q 66.890625 45.75 66.890625 36.1875 
Q 66.890625 28.03125 64.984375 21.734375 
Q 63.09375 15.4375 60.109375 11.296875 
Q 57.125 7.171875 53.578125 4.796875 
Q 50.046875 2.4375 45.046875 1.21875 
Q 40.046875 0 33.546875 0 
z
M 17.1875 8.453125 
L 32.46875 8.453125 
Q 39.546875 8.453125 43.578125 9.765625 
Q 47.609375 11.078125 50 13.484375 
Q 53.375 16.84375 55.25 22.53125 
Q 57.125 28.21875 57.125 36.328125 
Q 57.125 47.5625 53.4375 53.59375 
Q 49.75 59.625 44.484375 61.671875 
Q 40.671875 63.140625 32.234375 63.140625 
L 17.1875 63.140625 
z
" id="ArialMT-68"/>
     </defs>
     <g transform="translate(1132.6 63.570312)scale(0.26 -0.26)">
      <use xlink:href="#ArialMT-62"/>
      <use x="58.398438" xlink:href="#ArialMT-32"/>
      <use x="86.181641" xlink:href="#ArialMT-109"/>
      <use x="169.482422" xlink:href="#ArialMT-101"/>
      <use x="225.097656" xlink:href="#ArialMT-97"/>
      <use x="280.712891" xlink:href="#ArialMT-110"/>
      <use x="336.328125" xlink:href="#ArialMT-32"/>
      <use x="364.111328" xlink:href="#ArialMT-43"/>
      <use x="422.509766" xlink:href="#ArialMT-32"/>
      <use x="450.292969" xlink:href="#ArialMT-51"/>
      <use x="505.908203" xlink:href="#ArialMT-83"/>
      <use x="572.607422" xlink:href="#ArialMT-68"/>
     </g>
    </g>
   </g>
  </g>
 </g>
 <defs>
  <clipPath id="p6cae140feb">
   <rect height="217.44" width="828" x="180" y="34.56"/>
  </clipPath>
 </defs>
</svg>
