<?xml version="1.0" encoding="utf-8" standalone="no"?>
<!DOCTYPE svg PUBLIC "-//W3C//DTD SVG 1.1//EN"
  "http://www.w3.org/Graphics/SVG/1.1/DTD/svg11.dtd">
<!-- Created with matplotlib (https://matplotlib.org/) -->
<svg height="288pt" version="1.1" viewBox="0 0 1440 288" width="1440pt" xmlns="http://www.w3.org/2000/svg" xmlns:xlink="http://www.w3.org/1999/xlink">
 <defs>
  <style type="text/css">
*{stroke-linecap:butt;stroke-linejoin:round;}
  </style>
 </defs>
 <g id="figure_1">
  <g id="patch_1">
   <path d="M 0 288 
L 1440 288 
L 1440 0 
L 0 0 
z
" style="fill:#ffffff;"/>
  </g>
  <g id="axes_1">
   <g id="patch_2">
    <path d="M 180 252 
L 1008 252 
L 1008 34.56 
L 180 34.56 
z
" style="fill:#ffffff;"/>
   </g>
   <g id="matplotlib.axis_1">
    <g id="xtick_1">
     <g id="line2d_1">
      <path clip-path="url(#pf733411786)" d="M 217.636364 252 
L 217.636364 34.56 
" style="fill:none;stroke:#b0b0b0;stroke-linecap:square;stroke-width:0.8;"/>
     </g>
     <g id="line2d_2">
      <defs>
       <path d="M 0 0 
L 0 3.5 
" id="m56357042b5" style="stroke:#000000;stroke-width:0.8;"/>
      </defs>
      <g>
       <use style="stroke:#000000;stroke-width:0.8;" x="217.636364" xlink:href="#m56357042b5" y="252"/>
      </g>
     </g>
     <g id="text_1">
      <!-- 0 -->
      <defs>
       <path d="M 4.15625 35.296875 
Q 4.15625 48 6.765625 55.734375 
Q 9.375 63.484375 14.515625 67.671875 
Q 19.671875 71.875 27.484375 71.875 
Q 33.25 71.875 37.59375 69.546875 
Q 41.9375 67.234375 44.765625 62.859375 
Q 47.609375 58.5 49.21875 52.21875 
Q 50.828125 45.953125 50.828125 35.296875 
Q 50.828125 22.703125 48.234375 14.96875 
Q 45.65625 7.234375 40.5 3 
Q 35.359375 -1.21875 27.484375 -1.21875 
Q 17.140625 -1.21875 11.234375 6.203125 
Q 4.15625 15.140625 4.15625 35.296875 
z
M 13.1875 35.296875 
Q 13.1875 17.671875 17.3125 11.828125 
Q 21.4375 6 27.484375 6 
Q 33.546875 6 37.671875 11.859375 
Q 41.796875 17.71875 41.796875 35.296875 
Q 41.796875 52.984375 37.671875 58.78125 
Q 33.546875 64.59375 27.390625 64.59375 
Q 21.34375 64.59375 17.71875 59.46875 
Q 13.1875 52.9375 13.1875 35.296875 
z
" id="ArialMT-48"/>
      </defs>
      <g transform="translate(210.407145 277.610313)scale(0.26 -0.26)">
       <use xlink:href="#ArialMT-48"/>
      </g>
     </g>
    </g>
    <g id="xtick_2">
     <g id="line2d_3">
      <path clip-path="url(#pf733411786)" d="M 468.712839 252 
L 468.712839 34.56 
" style="fill:none;stroke:#b0b0b0;stroke-linecap:square;stroke-width:0.8;"/>
     </g>
     <g id="line2d_4">
      <g>
       <use style="stroke:#000000;stroke-width:0.8;" x="468.712839" xlink:href="#m56357042b5" y="252"/>
      </g>
     </g>
     <g id="text_2">
      <!-- 1000 -->
      <defs>
       <path d="M 37.25 0 
L 28.46875 0 
L 28.46875 56 
Q 25.296875 52.984375 20.140625 49.953125 
Q 14.984375 46.921875 10.890625 45.40625 
L 10.890625 53.90625 
Q 18.265625 57.375 23.78125 62.296875 
Q 29.296875 67.234375 31.59375 71.875 
L 37.25 71.875 
z
" id="ArialMT-49"/>
      </defs>
      <g transform="translate(439.795964 277.610313)scale(0.26 -0.26)">
       <use xlink:href="#ArialMT-49"/>
       <use x="55.615234" xlink:href="#ArialMT-48"/>
       <use x="111.230469" xlink:href="#ArialMT-48"/>
       <use x="166.845703" xlink:href="#ArialMT-48"/>
      </g>
     </g>
    </g>
    <g id="xtick_3">
     <g id="line2d_5">
      <path clip-path="url(#pf733411786)" d="M 719.789314 252 
L 719.789314 34.56 
" style="fill:none;stroke:#b0b0b0;stroke-linecap:square;stroke-width:0.8;"/>
     </g>
     <g id="line2d_6">
      <g>
       <use style="stroke:#000000;stroke-width:0.8;" x="719.789314" xlink:href="#m56357042b5" y="252"/>
      </g>
     </g>
     <g id="text_3">
      <!-- 2000 -->
      <defs>
       <path d="M 50.34375 8.453125 
L 50.34375 0 
L 3.03125 0 
Q 2.9375 3.171875 4.046875 6.109375 
Q 5.859375 10.9375 9.828125 15.625 
Q 13.8125 20.3125 21.34375 26.46875 
Q 33.015625 36.03125 37.109375 41.625 
Q 41.21875 47.21875 41.21875 52.203125 
Q 41.21875 57.421875 37.46875 61 
Q 33.734375 64.59375 27.734375 64.59375 
Q 21.390625 64.59375 17.578125 60.78125 
Q 13.765625 56.984375 13.71875 50.25 
L 4.6875 51.171875 
Q 5.609375 61.28125 11.65625 66.578125 
Q 17.71875 71.875 27.9375 71.875 
Q 38.234375 71.875 44.234375 66.15625 
Q 50.25 60.453125 50.25 52 
Q 50.25 47.703125 48.484375 43.546875 
Q 46.734375 39.40625 42.65625 34.8125 
Q 38.578125 30.21875 29.109375 22.21875 
Q 21.1875 15.578125 18.9375 13.203125 
Q 16.703125 10.84375 15.234375 8.453125 
z
" id="ArialMT-50"/>
      </defs>
      <g transform="translate(690.872439 277.610313)scale(0.26 -0.26)">
       <use xlink:href="#ArialMT-50"/>
       <use x="55.615234" xlink:href="#ArialMT-48"/>
       <use x="111.230469" xlink:href="#ArialMT-48"/>
       <use x="166.845703" xlink:href="#ArialMT-48"/>
      </g>
     </g>
    </g>
    <g id="xtick_4">
     <g id="line2d_7">
      <path clip-path="url(#pf733411786)" d="M 970.865789 252 
L 970.865789 34.56 
" style="fill:none;stroke:#b0b0b0;stroke-linecap:square;stroke-width:0.8;"/>
     </g>
     <g id="line2d_8">
      <g>
       <use style="stroke:#000000;stroke-width:0.8;" x="970.865789" xlink:href="#m56357042b5" y="252"/>
      </g>
     </g>
     <g id="text_4">
      <!-- 3000 -->
      <defs>
       <path d="M 4.203125 18.890625 
L 12.984375 20.0625 
Q 14.5 12.59375 18.140625 9.296875 
Q 21.78125 6 27 6 
Q 33.203125 6 37.46875 10.296875 
Q 41.75 14.59375 41.75 20.953125 
Q 41.75 27 37.796875 30.921875 
Q 33.84375 34.859375 27.734375 34.859375 
Q 25.25 34.859375 21.53125 33.890625 
L 22.515625 41.609375 
Q 23.390625 41.5 23.921875 41.5 
Q 29.546875 41.5 34.03125 44.421875 
Q 38.53125 47.359375 38.53125 53.46875 
Q 38.53125 58.296875 35.25 61.46875 
Q 31.984375 64.65625 26.8125 64.65625 
Q 21.6875 64.65625 18.265625 61.421875 
Q 14.84375 58.203125 13.875 51.765625 
L 5.078125 53.328125 
Q 6.6875 62.15625 12.390625 67.015625 
Q 18.109375 71.875 26.609375 71.875 
Q 32.46875 71.875 37.390625 69.359375 
Q 42.328125 66.84375 44.9375 62.5 
Q 47.5625 58.15625 47.5625 53.265625 
Q 47.5625 48.640625 45.0625 44.828125 
Q 42.578125 41.015625 37.703125 38.765625 
Q 44.046875 37.3125 47.5625 32.6875 
Q 51.078125 28.078125 51.078125 21.140625 
Q 51.078125 11.765625 44.234375 5.25 
Q 37.40625 -1.265625 26.953125 -1.265625 
Q 17.53125 -1.265625 11.296875 4.34375 
Q 5.078125 9.96875 4.203125 18.890625 
z
" id="ArialMT-51"/>
      </defs>
      <g transform="translate(941.948914 277.610313)scale(0.26 -0.26)">
       <use xlink:href="#ArialMT-51"/>
       <use x="55.615234" xlink:href="#ArialMT-48"/>
       <use x="111.230469" xlink:href="#ArialMT-48"/>
       <use x="166.845703" xlink:href="#ArialMT-48"/>
      </g>
     </g>
    </g>
    <g id="text_5">
     <!-- # sample -->
     <defs>
      <path d="M 5.03125 -1.21875 
L 9.28125 19.578125 
L 1.03125 19.578125 
L 1.03125 26.859375 
L 10.75 26.859375 
L 14.359375 44.578125 
L 1.03125 44.578125 
L 1.03125 51.859375 
L 15.828125 51.859375 
L 20.0625 72.796875 
L 27.390625 72.796875 
L 23.140625 51.859375 
L 38.53125 51.859375 
L 42.78125 72.796875 
L 50.140625 72.796875 
L 45.90625 51.859375 
L 54.34375 51.859375 
L 54.34375 44.578125 
L 44.4375 44.578125 
L 40.765625 26.859375 
L 54.34375 26.859375 
L 54.34375 19.578125 
L 39.3125 19.578125 
L 35.0625 -1.21875 
L 27.734375 -1.21875 
L 31.9375 19.578125 
L 16.609375 19.578125 
L 12.359375 -1.21875 
z
M 18.0625 26.859375 
L 33.40625 26.859375 
L 37.0625 44.578125 
L 21.6875 44.578125 
z
" id="ArialMT-35"/>
      <path id="ArialMT-32"/>
      <path d="M 3.078125 15.484375 
L 11.765625 16.84375 
Q 12.5 11.625 15.84375 8.84375 
Q 19.1875 6.0625 25.203125 6.0625 
Q 31.25 6.0625 34.171875 8.515625 
Q 37.109375 10.984375 37.109375 14.3125 
Q 37.109375 17.28125 34.515625 19 
Q 32.71875 20.171875 25.53125 21.96875 
Q 15.875 24.421875 12.140625 26.203125 
Q 8.40625 27.984375 6.46875 31.125 
Q 4.546875 34.28125 4.546875 38.09375 
Q 4.546875 41.546875 6.125 44.5 
Q 7.71875 47.46875 10.453125 49.421875 
Q 12.5 50.921875 16.03125 51.96875 
Q 19.578125 53.03125 23.640625 53.03125 
Q 29.734375 53.03125 34.34375 51.265625 
Q 38.96875 49.515625 41.15625 46.5 
Q 43.359375 43.5 44.1875 38.484375 
L 35.59375 37.3125 
Q 35.015625 41.3125 32.203125 43.546875 
Q 29.390625 45.796875 24.265625 45.796875 
Q 18.21875 45.796875 15.625 43.796875 
Q 13.03125 41.796875 13.03125 39.109375 
Q 13.03125 37.40625 14.109375 36.03125 
Q 15.1875 34.625 17.484375 33.6875 
Q 18.796875 33.203125 25.25 31.453125 
Q 34.578125 28.953125 38.25 27.359375 
Q 41.9375 25.78125 44.03125 22.75 
Q 46.140625 19.734375 46.140625 15.234375 
Q 46.140625 10.84375 43.578125 6.953125 
Q 41.015625 3.078125 36.171875 0.953125 
Q 31.34375 -1.171875 25.25 -1.171875 
Q 15.140625 -1.171875 9.84375 3.03125 
Q 4.546875 7.234375 3.078125 15.484375 
z
" id="ArialMT-115"/>
      <path d="M 40.4375 6.390625 
Q 35.546875 2.25 31.03125 0.53125 
Q 26.515625 -1.171875 21.34375 -1.171875 
Q 12.796875 -1.171875 8.203125 3 
Q 3.609375 7.171875 3.609375 13.671875 
Q 3.609375 17.484375 5.34375 20.625 
Q 7.078125 23.78125 9.890625 25.6875 
Q 12.703125 27.59375 16.21875 28.5625 
Q 18.796875 29.25 24.03125 29.890625 
Q 34.671875 31.15625 39.703125 32.90625 
Q 39.75 34.71875 39.75 35.203125 
Q 39.75 40.578125 37.25 42.78125 
Q 33.890625 45.75 27.25 45.75 
Q 21.046875 45.75 18.09375 43.578125 
Q 15.140625 41.40625 13.71875 35.890625 
L 5.125 37.0625 
Q 6.296875 42.578125 8.984375 45.96875 
Q 11.671875 49.359375 16.75 51.1875 
Q 21.828125 53.03125 28.515625 53.03125 
Q 35.15625 53.03125 39.296875 51.46875 
Q 43.453125 49.90625 45.40625 47.53125 
Q 47.359375 45.171875 48.140625 41.546875 
Q 48.578125 39.3125 48.578125 33.453125 
L 48.578125 21.734375 
Q 48.578125 9.46875 49.140625 6.21875 
Q 49.703125 2.984375 51.375 0 
L 42.1875 0 
Q 40.828125 2.734375 40.4375 6.390625 
z
M 39.703125 26.03125 
Q 34.90625 24.078125 25.34375 22.703125 
Q 19.921875 21.921875 17.671875 20.9375 
Q 15.4375 19.96875 14.203125 18.09375 
Q 12.984375 16.21875 12.984375 13.921875 
Q 12.984375 10.40625 15.640625 8.0625 
Q 18.3125 5.71875 23.4375 5.71875 
Q 28.515625 5.71875 32.46875 7.9375 
Q 36.421875 10.15625 38.28125 14.015625 
Q 39.703125 17 39.703125 22.796875 
z
" id="ArialMT-97"/>
      <path d="M 6.59375 0 
L 6.59375 51.859375 
L 14.453125 51.859375 
L 14.453125 44.578125 
Q 16.890625 48.390625 20.9375 50.703125 
Q 25 53.03125 30.171875 53.03125 
Q 35.9375 53.03125 39.625 50.640625 
Q 43.3125 48.25 44.828125 43.953125 
Q 50.984375 53.03125 60.84375 53.03125 
Q 68.5625 53.03125 72.703125 48.75 
Q 76.859375 44.484375 76.859375 35.59375 
L 76.859375 0 
L 68.109375 0 
L 68.109375 32.671875 
Q 68.109375 37.9375 67.25 40.25 
Q 66.40625 42.578125 64.15625 43.984375 
Q 61.921875 45.40625 58.890625 45.40625 
Q 53.421875 45.40625 49.796875 41.765625 
Q 46.1875 38.140625 46.1875 30.125 
L 46.1875 0 
L 37.40625 0 
L 37.40625 33.6875 
Q 37.40625 39.546875 35.25 42.46875 
Q 33.109375 45.40625 28.21875 45.40625 
Q 24.515625 45.40625 21.359375 43.453125 
Q 18.21875 41.5 16.796875 37.734375 
Q 15.375 33.984375 15.375 26.90625 
L 15.375 0 
z
" id="ArialMT-109"/>
      <path d="M 6.59375 -19.875 
L 6.59375 51.859375 
L 14.59375 51.859375 
L 14.59375 45.125 
Q 17.4375 49.078125 21 51.046875 
Q 24.5625 53.03125 29.640625 53.03125 
Q 36.28125 53.03125 41.359375 49.609375 
Q 46.4375 46.1875 49.015625 39.953125 
Q 51.609375 33.734375 51.609375 26.3125 
Q 51.609375 18.359375 48.75 11.984375 
Q 45.90625 5.609375 40.453125 2.21875 
Q 35.015625 -1.171875 29 -1.171875 
Q 24.609375 -1.171875 21.109375 0.6875 
Q 17.625 2.546875 15.375 5.375 
L 15.375 -19.875 
z
M 14.546875 25.640625 
Q 14.546875 15.625 18.59375 10.84375 
Q 22.65625 6.0625 28.421875 6.0625 
Q 34.28125 6.0625 38.453125 11.015625 
Q 42.625 15.96875 42.625 26.375 
Q 42.625 36.28125 38.546875 41.203125 
Q 34.46875 46.140625 28.8125 46.140625 
Q 23.1875 46.140625 18.859375 40.890625 
Q 14.546875 35.640625 14.546875 25.640625 
z
" id="ArialMT-112"/>
      <path d="M 6.390625 0 
L 6.390625 71.578125 
L 15.1875 71.578125 
L 15.1875 0 
z
" id="ArialMT-108"/>
      <path d="M 42.09375 16.703125 
L 51.171875 15.578125 
Q 49.03125 7.625 43.21875 3.21875 
Q 37.40625 -1.171875 28.375 -1.171875 
Q 17 -1.171875 10.328125 5.828125 
Q 3.65625 12.84375 3.65625 25.484375 
Q 3.65625 38.578125 10.390625 45.796875 
Q 17.140625 53.03125 27.875 53.03125 
Q 38.28125 53.03125 44.875 45.953125 
Q 51.46875 38.875 51.46875 26.03125 
Q 51.46875 25.25 51.421875 23.6875 
L 12.75 23.6875 
Q 13.234375 15.140625 17.578125 10.59375 
Q 21.921875 6.0625 28.421875 6.0625 
Q 33.25 6.0625 36.671875 8.59375 
Q 40.09375 11.140625 42.09375 16.703125 
z
M 13.234375 30.90625 
L 42.1875 30.90625 
Q 41.609375 37.453125 38.875 40.71875 
Q 34.671875 45.796875 27.984375 45.796875 
Q 21.921875 45.796875 17.796875 41.75 
Q 13.671875 37.703125 13.234375 30.90625 
z
" id="ArialMT-101"/>
     </defs>
     <g transform="translate(541.254531 305.705)scale(0.26 -0.26)">
      <use xlink:href="#ArialMT-35"/>
      <use x="55.615234" xlink:href="#ArialMT-32"/>
      <use x="83.398438" xlink:href="#ArialMT-115"/>
      <use x="133.398438" xlink:href="#ArialMT-97"/>
      <use x="189.013672" xlink:href="#ArialMT-109"/>
      <use x="272.314453" xlink:href="#ArialMT-112"/>
      <use x="327.929688" xlink:href="#ArialMT-108"/>
      <use x="350.146484" xlink:href="#ArialMT-101"/>
     </g>
    </g>
   </g>
   <g id="matplotlib.axis_2">
    <g id="ytick_1">
     <g id="line2d_9">
      <path clip-path="url(#pf733411786)" d="M 180 249.3498 
L 1008 249.3498 
" style="fill:none;stroke:#b0b0b0;stroke-linecap:square;stroke-width:0.8;"/>
     </g>
     <g id="line2d_10">
      <defs>
       <path d="M 0 0 
L -3.5 0 
" id="m8e68dcfc6e" style="stroke:#000000;stroke-width:0.8;"/>
      </defs>
      <g>
       <use style="stroke:#000000;stroke-width:0.8;" x="180" xlink:href="#m8e68dcfc6e" y="249.3498"/>
      </g>
     </g>
     <g id="text_6">
      <!-- 0 -->
      <g transform="translate(158.541562 258.654957)scale(0.26 -0.26)">
       <use xlink:href="#ArialMT-48"/>
      </g>
     </g>
    </g>
    <g id="ytick_2">
     <g id="line2d_11">
      <path clip-path="url(#pf733411786)" d="M 180 180.559142 
L 1008 180.559142 
" style="fill:none;stroke:#b0b0b0;stroke-linecap:square;stroke-width:0.8;"/>
     </g>
     <g id="line2d_12">
      <g>
       <use style="stroke:#000000;stroke-width:0.8;" x="180" xlink:href="#m8e68dcfc6e" y="180.559142"/>
      </g>
     </g>
     <g id="text_7">
      <!-- 10 -->
      <g transform="translate(144.083125 189.864298)scale(0.26 -0.26)">
       <use xlink:href="#ArialMT-49"/>
       <use x="55.615234" xlink:href="#ArialMT-48"/>
      </g>
     </g>
    </g>
    <g id="ytick_3">
     <g id="line2d_13">
      <path clip-path="url(#pf733411786)" d="M 180 111.768483 
L 1008 111.768483 
" style="fill:none;stroke:#b0b0b0;stroke-linecap:square;stroke-width:0.8;"/>
     </g>
     <g id="line2d_14">
      <g>
       <use style="stroke:#000000;stroke-width:0.8;" x="180" xlink:href="#m8e68dcfc6e" y="111.768483"/>
      </g>
     </g>
     <g id="text_8">
      <!-- 20 -->
      <g transform="translate(144.083125 121.073639)scale(0.26 -0.26)">
       <use xlink:href="#ArialMT-50"/>
       <use x="55.615234" xlink:href="#ArialMT-48"/>
      </g>
     </g>
    </g>
    <g id="ytick_4">
     <g id="line2d_15">
      <path clip-path="url(#pf733411786)" d="M 180 42.977824 
L 1008 42.977824 
" style="fill:none;stroke:#b0b0b0;stroke-linecap:square;stroke-width:0.8;"/>
     </g>
     <g id="line2d_16">
      <g>
       <use style="stroke:#000000;stroke-width:0.8;" x="180" xlink:href="#m8e68dcfc6e" y="42.977824"/>
      </g>
     </g>
     <g id="text_9">
      <!-- 30 -->
      <g transform="translate(144.083125 52.28298)scale(0.26 -0.26)">
       <use xlink:href="#ArialMT-51"/>
       <use x="55.615234" xlink:href="#ArialMT-48"/>
      </g>
     </g>
    </g>
    <g id="text_10">
     <!-- natural frequency (a.u.) -->
     <defs>
      <path d="M 6.59375 0 
L 6.59375 51.859375 
L 14.5 51.859375 
L 14.5 44.484375 
Q 20.21875 53.03125 31 53.03125 
Q 35.6875 53.03125 39.625 51.34375 
Q 43.5625 49.65625 45.515625 46.921875 
Q 47.46875 44.1875 48.25 40.4375 
Q 48.734375 37.984375 48.734375 31.890625 
L 48.734375 0 
L 39.9375 0 
L 39.9375 31.546875 
Q 39.9375 36.921875 38.90625 39.578125 
Q 37.890625 42.234375 35.28125 43.8125 
Q 32.671875 45.40625 29.15625 45.40625 
Q 23.53125 45.40625 19.453125 41.84375 
Q 15.375 38.28125 15.375 28.328125 
L 15.375 0 
z
" id="ArialMT-110"/>
      <path d="M 25.78125 7.859375 
L 27.046875 0.09375 
Q 23.34375 -0.6875 20.40625 -0.6875 
Q 15.625 -0.6875 12.984375 0.828125 
Q 10.359375 2.34375 9.28125 4.8125 
Q 8.203125 7.28125 8.203125 15.1875 
L 8.203125 45.015625 
L 1.765625 45.015625 
L 1.765625 51.859375 
L 8.203125 51.859375 
L 8.203125 64.703125 
L 16.9375 69.96875 
L 16.9375 51.859375 
L 25.78125 51.859375 
L 25.78125 45.015625 
L 16.9375 45.015625 
L 16.9375 14.703125 
Q 16.9375 10.9375 17.40625 9.859375 
Q 17.875 8.796875 18.921875 8.15625 
Q 19.96875 7.515625 21.921875 7.515625 
Q 23.390625 7.515625 25.78125 7.859375 
z
" id="ArialMT-116"/>
      <path d="M 40.578125 0 
L 40.578125 7.625 
Q 34.515625 -1.171875 24.125 -1.171875 
Q 19.53125 -1.171875 15.546875 0.578125 
Q 11.578125 2.34375 9.640625 5 
Q 7.71875 7.671875 6.9375 11.53125 
Q 6.390625 14.109375 6.390625 19.734375 
L 6.390625 51.859375 
L 15.1875 51.859375 
L 15.1875 23.09375 
Q 15.1875 16.21875 15.71875 13.8125 
Q 16.546875 10.359375 19.234375 8.375 
Q 21.921875 6.390625 25.875 6.390625 
Q 29.828125 6.390625 33.296875 8.421875 
Q 36.765625 10.453125 38.203125 13.9375 
Q 39.65625 17.4375 39.65625 24.078125 
L 39.65625 51.859375 
L 48.4375 51.859375 
L 48.4375 0 
z
" id="ArialMT-117"/>
      <path d="M 6.5 0 
L 6.5 51.859375 
L 14.40625 51.859375 
L 14.40625 44 
Q 17.4375 49.515625 20 51.265625 
Q 22.5625 53.03125 25.640625 53.03125 
Q 30.078125 53.03125 34.671875 50.203125 
L 31.640625 42.046875 
Q 28.421875 43.953125 25.203125 43.953125 
Q 22.3125 43.953125 20.015625 42.21875 
Q 17.71875 40.484375 16.75 37.40625 
Q 15.28125 32.71875 15.28125 27.15625 
L 15.28125 0 
z
" id="ArialMT-114"/>
      <path d="M 8.6875 0 
L 8.6875 45.015625 
L 0.921875 45.015625 
L 0.921875 51.859375 
L 8.6875 51.859375 
L 8.6875 57.375 
Q 8.6875 62.59375 9.625 65.140625 
Q 10.890625 68.5625 14.078125 70.671875 
Q 17.28125 72.796875 23.046875 72.796875 
Q 26.765625 72.796875 31.25 71.921875 
L 29.9375 64.265625 
Q 27.203125 64.75 24.75 64.75 
Q 20.75 64.75 19.09375 63.03125 
Q 17.4375 61.328125 17.4375 56.640625 
L 17.4375 51.859375 
L 27.546875 51.859375 
L 27.546875 45.015625 
L 17.4375 45.015625 
L 17.4375 0 
z
" id="ArialMT-102"/>
      <path d="M 39.65625 -19.875 
L 39.65625 5.515625 
Q 37.59375 2.640625 33.90625 0.734375 
Q 30.21875 -1.171875 26.078125 -1.171875 
Q 16.84375 -1.171875 10.171875 6.203125 
Q 3.515625 13.578125 3.515625 26.421875 
Q 3.515625 34.234375 6.21875 40.421875 
Q 8.9375 46.625 14.078125 49.828125 
Q 19.234375 53.03125 25.390625 53.03125 
Q 35.015625 53.03125 40.53125 44.921875 
L 40.53125 51.859375 
L 48.4375 51.859375 
L 48.4375 -19.875 
z
M 12.546875 26.078125 
Q 12.546875 16.0625 16.75 11.0625 
Q 20.953125 6.0625 26.8125 6.0625 
Q 32.421875 6.0625 36.46875 10.8125 
Q 40.53125 15.578125 40.53125 25.296875 
Q 40.53125 35.640625 36.25 40.859375 
Q 31.984375 46.09375 26.21875 46.09375 
Q 20.515625 46.09375 16.53125 41.234375 
Q 12.546875 36.375 12.546875 26.078125 
z
" id="ArialMT-113"/>
      <path d="M 40.4375 19 
L 49.078125 17.875 
Q 47.65625 8.9375 41.8125 3.875 
Q 35.984375 -1.171875 27.484375 -1.171875 
Q 16.84375 -1.171875 10.375 5.78125 
Q 3.90625 12.75 3.90625 25.734375 
Q 3.90625 34.125 6.6875 40.421875 
Q 9.46875 46.734375 15.15625 49.875 
Q 20.84375 53.03125 27.546875 53.03125 
Q 35.984375 53.03125 41.359375 48.75 
Q 46.734375 44.484375 48.25 36.625 
L 39.703125 35.296875 
Q 38.484375 40.53125 35.375 43.15625 
Q 32.28125 45.796875 27.875 45.796875 
Q 21.234375 45.796875 17.078125 41.03125 
Q 12.9375 36.28125 12.9375 25.984375 
Q 12.9375 15.53125 16.9375 10.796875 
Q 20.953125 6.0625 27.390625 6.0625 
Q 32.5625 6.0625 36.03125 9.234375 
Q 39.5 12.40625 40.4375 19 
z
" id="ArialMT-99"/>
      <path d="M 6.203125 -19.96875 
L 5.21875 -11.71875 
Q 8.109375 -12.5 10.25 -12.5 
Q 13.1875 -12.5 14.9375 -11.515625 
Q 16.703125 -10.546875 17.828125 -8.796875 
Q 18.65625 -7.46875 20.515625 -2.25 
Q 20.75 -1.515625 21.296875 -0.09375 
L 1.609375 51.859375 
L 11.078125 51.859375 
L 21.875 21.828125 
Q 23.96875 16.109375 25.640625 9.8125 
Q 27.15625 15.875 29.25 21.625 
L 40.328125 51.859375 
L 49.125 51.859375 
L 29.390625 -0.875 
Q 26.21875 -9.421875 24.46875 -12.640625 
Q 22.125 -17 19.09375 -19.015625 
Q 16.0625 -21.046875 11.859375 -21.046875 
Q 9.328125 -21.046875 6.203125 -19.96875 
z
" id="ArialMT-121"/>
      <path d="M 23.390625 -21.046875 
Q 16.109375 -11.859375 11.078125 0.4375 
Q 6.0625 12.75 6.0625 25.921875 
Q 6.0625 37.546875 9.8125 48.1875 
Q 14.203125 60.546875 23.390625 72.796875 
L 29.6875 72.796875 
Q 23.78125 62.640625 21.875 58.296875 
Q 18.890625 51.5625 17.1875 44.234375 
Q 15.09375 35.109375 15.09375 25.875 
Q 15.09375 2.390625 29.6875 -21.046875 
z
" id="ArialMT-40"/>
      <path d="M 9.078125 0 
L 9.078125 10.015625 
L 19.09375 10.015625 
L 19.09375 0 
z
" id="ArialMT-46"/>
      <path d="M 12.359375 -21.046875 
L 6.0625 -21.046875 
Q 20.65625 2.390625 20.65625 25.875 
Q 20.65625 35.0625 18.5625 44.09375 
Q 16.890625 51.421875 13.921875 58.15625 
Q 12.015625 62.546875 6.0625 72.796875 
L 12.359375 72.796875 
Q 21.53125 60.546875 25.921875 48.1875 
Q 29.6875 37.546875 29.6875 25.921875 
Q 29.6875 12.75 24.625 0.4375 
Q 19.578125 -11.859375 12.359375 -21.046875 
z
" id="ArialMT-41"/>
     </defs>
     <g transform="translate(134.610937 277.673594)rotate(-90)scale(0.26 -0.26)">
      <use xlink:href="#ArialMT-110"/>
      <use x="55.615234" xlink:href="#ArialMT-97"/>
      <use x="111.230469" xlink:href="#ArialMT-116"/>
      <use x="139.013672" xlink:href="#ArialMT-117"/>
      <use x="194.628906" xlink:href="#ArialMT-114"/>
      <use x="227.929688" xlink:href="#ArialMT-97"/>
      <use x="283.544922" xlink:href="#ArialMT-108"/>
      <use x="305.761719" xlink:href="#ArialMT-32"/>
      <use x="333.544922" xlink:href="#ArialMT-102"/>
      <use x="361.328125" xlink:href="#ArialMT-114"/>
      <use x="394.628906" xlink:href="#ArialMT-101"/>
      <use x="450.244141" xlink:href="#ArialMT-113"/>
      <use x="505.859375" xlink:href="#ArialMT-117"/>
      <use x="561.474609" xlink:href="#ArialMT-101"/>
      <use x="617.089844" xlink:href="#ArialMT-110"/>
      <use x="672.705078" xlink:href="#ArialMT-99"/>
      <use x="722.705078" xlink:href="#ArialMT-121"/>
      <use x="772.705078" xlink:href="#ArialMT-32"/>
      <use x="800.488281" xlink:href="#ArialMT-40"/>
      <use x="833.789062" xlink:href="#ArialMT-97"/>
      <use x="889.404297" xlink:href="#ArialMT-46"/>
      <use x="917.1875" xlink:href="#ArialMT-117"/>
      <use x="972.802734" xlink:href="#ArialMT-46"/>
      <use x="1000.585938" xlink:href="#ArialMT-41"/>
     </g>
    </g>
   </g>
   <g id="line2d_17">
    <path clip-path="url(#pf733411786)" d="M 217.636364 238.931079 
L 217.88744 233.723586 
L 218.138517 231.116638 
L 218.389593 229.812277 
L 218.891746 228.808512 
L 220.147128 227.742796 
L 220.398205 227.276443 
L 220.900358 225.507092 
L 221.402511 222.145706 
L 222.90897 208.618315 
L 223.411123 206.310728 
L 223.913276 205.024562 
L 224.415428 204.403159 
L 224.917581 204.112061 
L 225.670811 203.951571 
L 226.926193 203.646387 
L 227.428346 203.22675 
L 227.930499 202.614851 
L 228.432652 201.609211 
L 229.185881 199.793363 
L 230.441264 196.549067 
L 231.44557 195.200636 
L 231.947723 194.69299 
L 233.705258 193.855978 
L 234.207411 193.665866 
L 235.462793 192.887167 
L 238.475711 189.865122 
L 239.228941 189.699234 
L 241.739705 189.50403 
L 242.241858 189.107627 
L 242.995088 187.767254 
L 243.748317 185.160817 
L 245.505852 176.71268 
L 246.008005 175.472378 
L 246.761235 174.380026 
L 247.263388 174.162735 
L 248.51877 174.08775 
L 249.774152 174.002765 
L 250.276305 173.815223 
L 251.029535 173.297926 
L 251.280611 172.970261 
L 251.782764 171.795017 
L 252.535994 169.422308 
L 253.791376 163.662872 
L 254.544605 158.637103 
L 256.553217 148.30497 
L 257.306447 145.904364 
L 258.561829 143.418977 
L 259.566135 142.370574 
L 260.068288 142.012897 
L 260.570441 141.760357 
L 261.32367 141.472588 
L 262.579053 140.368807 
L 263.081206 139.680922 
L 263.583359 138.841099 
L 264.587665 136.612554 
L 265.843047 132.999183 
L 267.600582 125.683619 
L 268.604888 121.103514 
L 269.609194 117.107916 
L 270.362423 114.8633 
L 272.371035 110.593689 
L 272.873188 109.846081 
L 274.379647 105.275222 
L 275.383953 100.192179 
L 276.890412 90.518057 
L 278.899024 77.706268 
L 280.405482 71.431635 
L 281.409788 69.409106 
L 282.414094 67.822998 
L 283.669477 66.925672 
L 283.920553 66.914206 
L 284.422706 66.43512 
L 284.924859 66.040507 
L 285.929165 64.999114 
L 286.431318 64.27076 
L 287.184547 62.566796 
L 288.43993 58.511843 
L 288.942083 56.865204 
L 289.444236 55.816998 
L 290.448541 54.869811 
L 291.201771 54.552449 
L 292.457153 54.318623 
L 293.963612 53.865632 
L 294.214689 53.691749 
L 294.465765 53.777164 
L 294.967918 53.518096 
L 295.972224 52.486918 
L 296.474377 52.116827 
L 297.980836 50.981368 
L 298.231912 50.656253 
L 298.734065 50.335659 
L 299.989448 49.706433 
L 300.4916 49.555447 
L 300.993753 49.461373 
L 301.746983 49.071376 
L 303.002365 48.955155 
L 303.755595 48.707001 
L 304.006671 48.638031 
L 304.257748 48.69217 
L 304.759901 48.526839 
L 305.262053 48.453154 
L 307.521742 47.8649 
L 308.274971 47.412181 
L 309.028201 47.346388 
L 311.287889 46.235419 
L 312.292195 46.028173 
L 313.296501 46.137199 
L 313.798654 45.947421 
L 314.551883 45.992877 
L 315.305112 45.945168 
L 316.811571 45.737138 
L 317.815877 45.56048 
L 318.820183 45.617971 
L 319.824489 45.523954 
L 321.079871 45.466944 
L 325.097095 45.459299 
L 328.110013 45.200375 
L 329.114319 45.053219 
L 330.620777 44.974506 
L 333.633695 44.986144 
L 351.962278 44.936996 
L 352.715507 44.862606 
L 359.494572 44.756766 
L 383.346837 44.732838 
L 429.544909 44.735628 
L 498.339863 44.649466 
L 508.131845 44.473276 
L 517.923828 44.492391 
L 524.953969 44.763623 
L 532.235187 44.984337 
L 539.265328 44.924505 
L 551.568076 44.794205 
L 573.913882 44.831527 
L 582.199406 44.769116 
L 600.527988 44.701234 
L 611.0732 44.705956 
L 627.644248 44.807816 
L 764.480927 44.858949 
L 803.648857 44.865996 
L 821.97744 44.920145 
L 841.812481 44.956684 
L 919.646188 44.868067 
L 970.363636 44.863556 
L 970.363636 44.863556 
" style="fill:none;stroke:#1f77b4;stroke-linecap:square;stroke-width:1.5;"/>
   </g>
   <g id="line2d_18">
    <path clip-path="url(#pf733411786)" d="M 217.636364 240.231523 
L 217.88744 235.670171 
L 218.138517 233.384126 
L 218.389593 232.236838 
L 218.64067 231.661452 
L 219.142822 231.217043 
L 220.900358 230.540988 
L 221.151434 230.253933 
L 221.402511 229.780799 
L 221.904664 228.066959 
L 222.406817 224.801592 
L 224.164352 210.136182 
L 224.666505 208.552337 
L 225.168658 207.854217 
L 225.670811 207.647259 
L 227.17727 207.612026 
L 227.930499 207.563907 
L 228.432652 207.38269 
L 228.683729 207.206361 
L 229.185881 206.421364 
L 229.688034 205.163822 
L 230.69234 200.633445 
L 234.207411 181.845946 
L 235.462793 177.14281 
L 236.718176 173.149201 
L 236.969252 172.382699 
L 237.471405 171.454884 
L 237.722482 170.937623 
L 238.224635 170.477659 
L 239.228941 169.435572 
L 239.731093 169.253915 
L 242.492935 169.185891 
L 243.497241 168.989789 
L 243.999394 168.707752 
L 244.752623 167.314306 
L 245.756929 164.485103 
L 247.263388 156.286774 
L 248.016617 152.75312 
L 248.769847 150.41549 
L 249.272 149.541831 
L 249.774152 148.785299 
L 250.778458 148.184229 
L 252.033841 148.145238 
L 252.78707 148.113276 
L 254.544605 147.826175 
L 255.799988 147.795929 
L 257.05537 147.319141 
L 259.063982 145.402713 
L 259.566135 145.050113 
L 260.570441 144.73867 
L 261.825823 144.482424 
L 262.830129 144.232777 
L 263.583359 143.92947 
L 264.587665 143.307648 
L 265.089817 143.026022 
L 266.596276 142.198208 
L 267.349506 142.147377 
L 268.353812 142.069651 
L 270.864576 141.138551 
L 271.617806 141.084256 
L 271.868882 140.988186 
L 272.873188 140.046357 
L 273.626418 138.342512 
L 274.379647 135.947851 
L 275.132876 132.999323 
L 276.137182 129.24751 
L 277.643641 125.652963 
L 278.396871 124.50391 
L 279.1501 123.795346 
L 279.903329 123.322116 
L 280.907635 123.239326 
L 281.660865 123.118503 
L 282.163018 122.870159 
L 283.167324 121.393517 
L 284.17163 118.59731 
L 284.673783 116.851626 
L 285.175935 115.916617 
L 285.427012 115.49191 
L 285.929165 115.180367 
L 287.184547 114.934091 
L 287.6867 114.518465 
L 287.937777 114.095757 
L 288.43993 112.252425 
L 289.444236 106.23284 
L 290.448541 97.0768 
L 290.950694 92.252819 
L 291.452847 88.599887 
L 292.457153 83.432799 
L 293.210383 81.045915 
L 293.963612 79.904065 
L 294.214689 79.612661 
L 295.470071 79.202634 
L 296.474377 79.289073 
L 297.227606 79.38199 
L 301.495906 79.255012 
L 302.249136 79.208929 
L 306.015283 79.187714 
L 306.517436 79.171253 
L 307.270665 79.062209 
L 307.772818 78.854539 
L 309.028201 77.295983 
L 310.283583 75.651735 
L 310.785736 75.146381 
L 311.287889 74.281982 
L 311.538965 74.206148 
L 312.543271 73.04469 
L 312.794348 72.6584 
L 314.300807 71.784619 
L 314.80296 71.5778 
L 315.305112 71.411474 
L 315.807265 71.276639 
L 316.560495 70.882669 
L 317.564801 70.487891 
L 318.31803 70.506119 
L 318.820183 70.367959 
L 319.322336 70.396989 
L 320.326642 70.368999 
L 321.582024 70.355068 
L 322.58633 70.101859 
L 322.837407 70.083058 
L 323.590636 69.574556 
L 324.092789 69.145865 
L 324.846019 68.745893 
L 325.599248 68.385008 
L 326.352477 68.244942 
L 327.858936 68.182955 
L 333.884772 68.122235 
L 334.135848 67.926956 
L 334.889078 67.818759 
L 335.391231 67.697441 
L 338.655225 67.396955 
L 343.425678 67.410642 
L 348.94936 66.863898 
L 349.451513 66.916519 
L 350.957972 66.823814 
L 356.732731 66.724601 
L 366.524713 66.7499 
L 380.836073 66.724868 
L 383.346837 66.602851 
L 389.874826 66.676533 
L 394.394202 66.717484 
L 397.40712 66.67966 
L 403.935108 66.68151 
L 409.458791 66.708774 
L 419.752926 66.662557 
L 481.517739 66.698102 
L 714.767785 66.756854 
L 932.200012 66.746517 
L 970.363636 66.733252 
L 970.363636 66.733252 
" style="fill:none;stroke:#ff7f0e;stroke-linecap:square;stroke-width:1.5;"/>
   </g>
   <g id="line2d_19">
    <path clip-path="url(#pf733411786)" d="M 217.636364 241.606853 
L 217.88744 237.743357 
L 218.138517 235.811206 
L 218.389593 234.845931 
L 218.891746 234.118085 
L 219.644975 233.819477 
L 220.147128 233.596609 
L 220.649281 233.127515 
L 221.151434 232.170832 
L 221.653587 230.48438 
L 222.90897 225.472808 
L 223.411123 224.288235 
L 223.913276 223.555953 
L 224.666505 222.928064 
L 226.42404 222.073794 
L 227.17727 221.375721 
L 227.679423 220.59751 
L 228.181576 219.45459 
L 230.69234 211.297003 
L 231.696646 209.098801 
L 232.700952 208.646376 
L 234.709564 208.117882 
L 235.964946 207.426114 
L 238.475711 204.947925 
L 241.739705 202.832748 
L 245.505852 197.017854 
L 246.510158 196.054896 
L 247.765541 195.727932 
L 251.531688 195.182856 
L 252.033841 194.853471 
L 252.284917 194.762456 
L 253.289223 193.702586 
L 254.042453 192.484746 
L 255.297835 189.695582 
L 256.302141 187.339746 
L 259.315059 179.243336 
L 259.817211 178.324923 
L 261.32367 176.329276 
L 261.825823 175.642885 
L 262.0769 175.162588 
L 263.332282 173.871481 
L 264.085512 173.051015 
L 264.838741 172.253852 
L 265.340894 171.554724 
L 265.843047 171.142787 
L 266.3452 170.903046 
L 266.847353 170.682407 
L 270.362423 170.130112 
L 270.864576 169.559926 
L 271.366729 169.275013 
L 272.119959 168.924025 
L 273.626418 168.833677 
L 274.379647 168.534815 
L 275.132876 167.772141 
L 275.635029 167.173896 
L 276.890412 166.630675 
L 278.396871 166.570348 
L 280.154406 166.506295 
L 280.907635 166.313957 
L 281.409788 166.061548 
L 281.911941 165.406943 
L 283.167324 161.338505 
L 283.669477 158.239424 
L 284.924859 148.6791 
L 285.427012 145.11983 
L 285.929165 140.817876 
L 286.180241 139.269584 
L 286.682394 135.277072 
L 286.933471 133.409492 
L 287.184547 132.480292 
L 288.188853 126.728964 
L 288.691006 125.031164 
L 289.193159 123.268 
L 290.448541 120.006997 
L 291.201771 118.649634 
L 292.70823 116.998662 
L 292.959306 116.998232 
L 293.210383 116.52986 
L 294.465765 115.77458 
L 295.218994 115.484223 
L 295.721147 115.274154 
L 296.97653 115.041985 
L 297.227606 115.041798 
L 298.734065 113.951154 
L 299.236218 113.637901 
L 300.240524 112.748107 
L 301.24483 111.864234 
L 302.751289 109.897036 
L 303.002365 109.19209 
L 303.755595 108.200795 
L 304.508824 107.161257 
L 304.759901 106.389276 
L 305.262053 105.681935 
L 305.764206 104.297786 
L 307.270665 100.835603 
L 307.772818 99.476935 
L 308.274971 98.866779 
L 308.777124 98.156187 
L 309.279277 97.910787 
L 309.78143 97.235514 
L 310.283583 96.914562 
L 310.534659 96.337471 
L 310.785736 96.219327 
L 311.287889 95.710157 
L 311.538965 95.4964 
L 312.292195 94.22518 
L 313.547577 91.429814 
L 314.04973 89.890596 
L 314.300807 89.13932 
L 315.305112 87.763109 
L 316.058342 87.095496 
L 317.815877 86.723254 
L 318.569107 86.693655 
L 324.092789 85.830878 
L 324.594942 85.544696 
L 325.599248 85.379045 
L 326.101401 85.282778 
L 326.603554 85.250044 
L 327.60786 85.145127 
L 343.425678 84.899295 
L 558.598217 84.854741 
L 675.850931 84.847252 
L 970.363636 84.841899 
L 970.363636 84.841899 
" style="fill:none;stroke:#2ca02c;stroke-linecap:square;stroke-width:1.5;"/>
   </g>
   <g id="line2d_20">
    <path clip-path="url(#pf733411786)" d="M 217.636364 239.071138 
L 217.88744 233.917351 
L 218.138517 231.326882 
L 218.389593 230.020112 
L 218.891746 228.984783 
L 220.147128 227.892721 
L 220.649281 226.73396 
L 221.151434 224.268837 
L 221.653587 220.032128 
L 222.657893 210.182052 
L 223.160046 206.940844 
L 223.662199 205.114164 
L 224.164352 204.126867 
L 224.666505 203.648523 
L 225.921887 203.282414 
L 226.675117 203.094612 
L 227.17727 202.800776 
L 227.679423 202.245459 
L 228.181576 201.24104 
L 228.934805 199.074038 
L 230.441264 193.894197 
L 231.44557 191.763401 
L 232.198799 190.658189 
L 233.454182 189.276845 
L 234.207411 188.354875 
L 234.96064 187.13549 
L 236.216023 184.453065 
L 237.973558 180.79846 
L 238.726788 180.1598 
L 239.480017 179.949597 
L 240.484323 179.928336 
L 242.492935 179.908268 
L 242.995088 179.694781 
L 243.246164 179.489646 
L 243.999394 177.941595 
L 244.25047 177.22079 
L 246.259082 168.48313 
L 246.761235 167.500883 
L 247.263388 167.018748 
L 247.765541 166.864859 
L 249.272 166.768999 
L 250.527382 166.49171 
L 251.782764 166.458228 
L 252.535994 166.146789 
L 253.038147 165.327294 
L 253.5403 164.494922 
L 254.544605 162.187156 
L 255.046758 160.703766 
L 255.548911 159.570672 
L 256.051064 158.792666 
L 256.553217 158.225677 
L 257.05537 158.072098 
L 258.310753 158.021102 
L 259.315059 157.856793 
L 260.319364 157.737919 
L 261.072594 157.674633 
L 261.32367 157.547294 
L 262.0769 156.733606 
L 263.332282 154.432991 
L 263.583359 154.172218 
L 264.587665 151.920351 
L 265.089817 150.307627 
L 266.847353 143.006595 
L 269.107041 131.076663 
L 269.86027 128.665823 
L 270.362423 128.050959 
L 271.366729 127.97215 
L 271.868882 127.896376 
L 272.371035 126.942469 
L 273.124265 124.064553 
L 274.128571 116.936152 
L 275.132876 109.058819 
L 275.886106 104.595477 
L 276.639335 101.876746 
L 277.141488 101.180244 
L 277.643641 100.953654 
L 278.396871 100.92718 
L 278.899024 100.637843 
L 279.401177 100.187303 
L 279.652253 99.270788 
L 279.903329 98.930725 
L 280.154406 98.243856 
L 282.414094 86.486554 
L 283.167324 82.146068 
L 283.920553 79.866854 
L 284.422706 79.134139 
L 284.673783 79.109627 
L 285.175935 78.898247 
L 285.929165 78.913091 
L 286.431318 78.492274 
L 286.682394 78.409207 
L 287.184547 77.917846 
L 288.188853 75.993323 
L 288.942083 75.050963 
L 289.946389 74.545728 
L 290.448541 74.479746 
L 291.703924 74.342877 
L 292.206077 74.147706 
L 292.959306 73.318216 
L 293.210383 73.23575 
L 293.712536 72.821226 
L 293.963612 72.820133 
L 294.214689 72.683769 
L 294.716842 72.641222 
L 295.218994 72.522452 
L 296.474377 72.424024 
L 297.729759 70.644059 
L 298.231912 69.721031 
L 298.482989 69.300349 
L 298.734065 69.19286 
L 299.487295 68.60139 
L 300.742677 68.389967 
L 301.746983 67.27944 
L 302.500212 65.809649 
L 302.751289 65.580809 
L 304.006671 63.138747 
L 304.257748 62.687818 
L 305.262053 62.015629 
L 306.768512 61.788004 
L 308.274971 61.572945 
L 309.028201 61.368187 
L 310.283583 61.301467 
L 311.538965 61.282499 
L 313.045424 60.848815 
L 313.547577 60.626717 
L 314.04973 60.451507 
L 315.054036 60.488634 
L 315.807265 60.549579 
L 317.313724 60.361497 
L 318.066954 60.019109 
L 318.31803 59.905075 
L 319.573413 58.609161 
L 320.577718 56.389031 
L 321.079871 55.510936 
L 322.335254 53.619991 
L 323.088483 53.151436 
L 323.33956 52.791821 
L 324.343866 52.517426 
L 333.884772 52.086991 
L 334.386925 52.033774 
L 335.893383 51.804232 
L 337.399842 51.759582 
L 338.153072 51.766735 
L 339.910607 50.84771 
L 340.41276 50.201994 
L 342.923525 48.491988 
L 343.927831 48.14645 
L 346.438595 47.794065 
L 349.953666 47.737818 
L 350.455819 47.767849 
L 351.460125 47.786595 
L 360.749955 47.771631 
L 362.005337 47.687288 
L 367.026866 47.637687 
L 372.550549 48.085912 
L 375.563467 48.067115 
L 383.84899 47.982467 
L 699.703196 47.909893 
L 970.363636 47.922145 
L 970.363636 47.922145 
" style="fill:none;stroke:#d62728;stroke-linecap:square;stroke-width:1.5;"/>
   </g>
   <g id="line2d_21">
    <path clip-path="url(#pf733411786)" d="M 217.636364 240.776237 
L 217.88744 236.49481 
L 218.138517 234.35591 
L 218.389593 233.29168 
L 218.64067 232.766205 
L 219.142822 232.37616 
L 220.900358 231.838636 
L 221.402511 231.236175 
L 221.904664 229.84342 
L 222.406817 227.555634 
L 223.411123 222.065139 
L 224.164352 219.510292 
L 224.666505 218.471911 
L 225.670811 217.359112 
L 228.181576 215.327925 
L 230.69234 212.365194 
L 231.194493 212.034499 
L 233.705258 211.208751 
L 234.207411 211.0084 
L 235.211717 210.264205 
L 235.71387 209.478793 
L 236.216023 208.752317 
L 237.220329 207.19075 
L 238.224635 205.504251 
L 239.731093 203.810733 
L 240.484323 203.238422 
L 241.739705 202.288881 
L 242.241858 202.069893 
L 243.246164 201.670421 
L 243.748317 201.502806 
L 243.999394 201.336258 
L 244.501546 201.257344 
L 245.254776 200.82266 
L 246.510158 199.760261 
L 247.012311 199.383791 
L 247.263388 199.147309 
L 247.514464 199.170321 
L 248.769847 197.933004 
L 249.774152 197.232356 
L 250.276305 196.841577 
L 251.029535 196.54432 
L 255.297835 196.201969 
L 256.302141 195.782309 
L 257.05537 195.135302 
L 257.557523 194.337151 
L 258.059676 193.526318 
L 259.315059 191.041449 
L 259.566135 190.793067 
L 260.068288 189.70986 
L 260.570441 188.511226 
L 260.821517 188.315345 
L 261.574747 187.001301 
L 261.825823 186.854689 
L 262.327976 186.183795 
L 262.830129 185.805436 
L 263.332282 185.260626 
L 264.336588 184.37895 
L 266.094123 181.376911 
L 266.847353 179.715688 
L 268.604888 175.544462 
L 268.855965 175.194283 
L 269.358118 174.156266 
L 270.111347 173.39651 
L 271.868882 171.953957 
L 273.124265 171.26246 
L 273.626418 170.957689 
L 275.635029 168.687047 
L 276.388259 167.358558 
L 277.392565 164.840863 
L 277.894718 162.308662 
L 278.899024 158.122002 
L 279.652253 153.352505 
L 280.154406 150.644703 
L 281.158712 143.828162 
L 282.414094 138.408698 
L 282.916247 137.365036 
L 283.669477 136.863088 
L 284.422706 136.710238 
L 286.180241 136.582452 
L 286.933471 136.146046 
L 287.435624 135.680945 
L 287.6867 135.638483 
L 288.188853 135.267982 
L 289.695312 132.855064 
L 291.452847 128.294193 
L 291.955 127.478314 
L 292.70823 127.238324 
L 293.712536 127.127131 
L 294.214689 126.60137 
L 294.465765 126.091282 
L 295.218994 123.147721 
L 296.2233 118.280573 
L 296.97653 113.495174 
L 297.478683 111.598838 
L 297.980836 109.442803 
L 298.985142 106.48947 
L 299.236218 106.078342 
L 299.738371 104.916399 
L 300.240524 104.066581 
L 300.742677 103.562587 
L 301.998059 101.95881 
L 302.500212 101.314696 
L 303.002365 100.748985 
L 303.253442 100.613017 
L 303.755595 99.904637 
L 305.262053 96.779405 
L 305.51313 96.66619 
L 306.015283 95.953505 
L 306.266359 95.450545 
L 307.772818 94.098615 
L 308.526048 94.02699 
L 309.028201 94.045832 
L 309.78143 93.656593 
L 310.283583 93.026586 
L 310.785736 92.271122 
L 311.036812 92.241733 
L 311.790042 91.19784 
L 312.292195 89.943429 
L 312.543271 89.71042 
L 314.04973 87.105369 
L 314.300807 87.104634 
L 314.80296 86.718316 
L 315.807265 86.29629 
L 317.313724 86.183326 
L 317.815877 85.645848 
L 318.31803 84.842112 
L 320.075566 83.101833 
L 321.582024 82.379569 
L 326.101401 81.762899 
L 328.110013 81.770931 
L 334.638001 81.661717 
L 336.395536 81.589387 
L 336.646613 81.393553 
L 342.672448 80.921633 
L 343.676754 80.936622 
L 344.68106 80.904598 
L 350.957972 80.881613 
L 362.256413 80.866265 
L 363.260719 80.771683 
L 365.771484 80.764429 
L 366.273637 80.792819 
L 366.77579 80.935659 
L 370.290861 80.753873 
L 371.797319 80.734518 
L 380.082843 80.75038 
L 380.836073 80.759554 
L 382.844684 80.739742 
L 385.857602 80.647453 
L 391.632361 80.402387 
L 400.922191 80.381324 
L 402.177573 80.370764 
L 412.471708 80.28143 
L 414.982473 80.286939 
L 420.255079 80.259657 
L 424.523379 80.249782 
L 428.289526 80.256548 
L 468.210686 80.262715 
L 472.478986 77.225063 
L 473.734368 76.836996 
L 474.989751 76.721413 
L 476.49621 76.86107 
L 478.253745 77.295938 
L 484.27958 79.071687 
L 485.786039 79.169268 
L 487.292498 79.040059 
L 489.30111 78.595723 
L 492.81618 77.73896 
L 495.829098 77.366898 
L 500.599551 77.086787 
L 504.365698 77.006647 
L 506.625387 77.174609 
L 509.387228 77.629917 
L 518.928134 79.613367 
L 524.451816 80.840004 
L 526.962581 81.155729 
L 529.222269 81.220221 
L 532.235187 81.051351 
L 537.256717 80.752282 
L 548.806234 80.559023 
L 554.07884 80.419828 
L 566.381588 79.766781 
L 582.952635 79.852969 
L 597.012918 80.382044 
L 612.830736 80.568875 
L 620.111953 81.070448 
L 625.635636 81.371958 
L 630.908242 81.402723 
L 645.97283 81.457548 
L 659.782037 81.563417 
L 665.305719 81.238474 
L 672.084784 80.844783 
L 677.106313 80.797354 
L 704.222573 80.909841 
L 722.802232 80.671731 
L 730.08345 80.300825 
L 739.875432 80.008243 
L 745.399115 80.117135 
L 753.684638 80.261596 
L 791.597186 80.299607 
L 797.120868 80.558292 
L 803.39778 80.86917 
L 807.917157 80.81176 
L 817.960216 80.611265 
L 830.262963 80.53369 
L 844.825399 80.204608 
L 891.02347 80.317452 
L 898.806841 80.393332 
L 917.637577 80.383486 
L 940.736612 80.507861 
L 952.537207 80.630783 
L 970.363636 80.520883 
L 970.363636 80.520883 
" style="fill:none;stroke:#9467bd;stroke-linecap:square;stroke-width:1.5;"/>
   </g>
   <g id="line2d_22">
    <path clip-path="url(#pf733411786)" d="M 217.636364 241.663587 
L 217.88744 237.824215 
L 218.138517 235.900607 
L 218.389593 234.942359 
L 218.891746 234.215933 
L 219.644975 233.927996 
L 220.398205 233.57969 
L 220.900358 232.956222 
L 221.402511 231.718537 
L 222.15574 228.726488 
L 222.90897 226.013043 
L 223.662199 224.353851 
L 224.415428 223.399313 
L 226.172964 221.807454 
L 226.675117 221.287812 
L 227.679423 219.677535 
L 228.181576 218.460865 
L 229.436958 214.447918 
L 231.194493 207.463085 
L 231.947723 205.107937 
L 232.952029 203.206279 
L 233.705258 202.212796 
L 234.96064 201.263871 
L 235.462793 200.909543 
L 237.220329 199.368676 
L 238.224635 197.905759 
L 239.228941 195.729785 
L 243.999394 184.167071 
L 244.501546 183.301205 
L 245.254776 182.467666 
L 246.761235 180.561481 
L 247.765541 179.03657 
L 249.272 175.964347 
L 250.025229 173.510623 
L 250.527382 172.015595 
L 251.029535 171.072943 
L 251.782764 169.296758 
L 252.535994 168.252713 
L 253.791376 167.148258 
L 254.795682 166.263672 
L 255.297835 165.996151 
L 255.548911 165.935635 
L 257.05537 164.811744 
L 259.566135 163.476916 
L 261.072594 162.251169 
L 261.825823 161.494048 
L 264.587665 156.555151 
L 265.089817 155.931997 
L 266.094123 154.795156 
L 266.596276 154.386883 
L 267.098429 154.065378 
L 268.102735 153.445122 
L 268.604888 152.961881 
L 268.855965 152.882363 
L 269.609194 151.796516 
L 270.6135 149.407464 
L 272.622112 142.458643 
L 273.375341 138.755536 
L 274.128571 135.450909 
L 275.635029 131.167966 
L 276.137182 130.527201 
L 276.388259 130.369139 
L 277.643641 130.142376 
L 278.145794 129.76075 
L 278.396871 129.456629 
L 279.1501 127.882208 
L 280.154406 127.076903 
L 280.907635 127.003685 
L 281.409788 126.509253 
L 281.660865 126.233094 
L 281.911941 125.671256 
L 282.665171 121.851449 
L 284.422706 110.67654 
L 285.175935 107.215987 
L 285.678088 105.453576 
L 286.180241 104.568799 
L 287.184547 103.726633 
L 288.691006 103.257877 
L 296.97653 103.028844 
L 297.729759 102.86217 
L 298.734065 102.83745 
L 299.989448 102.560571 
L 300.993753 102.455842 
L 301.495906 102.387329 
L 307.270665 102.271841 
L 309.530354 102.14429 
L 310.534659 102.15053 
L 317.313724 101.941276 
L 318.31803 101.923041 
L 319.573413 101.904165 
L 320.828795 101.884926 
L 344.68106 101.950275 
L 541.27394 101.88734 
L 560.606829 101.85357 
L 571.152041 101.886649 
L 581.446176 101.875625 
L 596.510765 101.835907 
L 660.535266 101.808931 
L 676.102007 101.793671 
L 970.363636 101.724173 
L 970.363636 101.724173 
" style="fill:none;stroke:#8c564b;stroke-linecap:square;stroke-width:1.5;"/>
   </g>
   <g id="line2d_23">
    <path clip-path="url(#pf733411786)" d="M 217.636364 239.523138 
L 217.88744 234.601146 
L 218.138517 232.135312 
L 218.389593 230.8931 
L 218.64067 230.25844 
L 219.142822 229.749104 
L 220.147128 229.221014 
L 220.649281 228.629909 
L 221.151434 227.253223 
L 221.653587 224.568042 
L 222.406817 218.480096 
L 223.160046 212.971659 
L 223.662199 210.834992 
L 224.164352 209.648374 
L 224.666505 209.024093 
L 225.419734 208.667337 
L 227.17727 208.205794 
L 227.679423 207.784929 
L 228.181576 207.236784 
L 228.934805 205.828009 
L 229.688034 203.677541 
L 230.943417 200.412568 
L 232.449876 198.442023 
L 233.705258 197.609967 
L 234.207411 197.373342 
L 235.211717 196.431676 
L 236.969252 194.355715 
L 237.722482 193.198951 
L 238.977864 192.342856 
L 239.480017 192.291056 
L 241.990782 192.294433 
L 242.492935 192.193813 
L 242.995088 191.855071 
L 243.497241 190.921258 
L 243.999394 189.778492 
L 245.756929 183.529379 
L 247.012311 179.332524 
L 248.016617 177.378306 
L 248.769847 176.291936 
L 250.527382 174.365902 
L 252.033841 173.374188 
L 252.284917 173.317699 
L 252.78707 172.973749 
L 253.289223 172.722318 
L 254.293529 172.180518 
L 254.795682 172.07574 
L 258.310753 170.032496 
L 259.315059 168.149419 
L 260.570441 164.16565 
L 261.574747 161.82042 
L 261.825823 161.106663 
L 262.327976 160.501069 
L 263.081206 158.637421 
L 263.332282 158.445703 
L 264.336588 156.88104 
L 265.089817 155.278604 
L 265.843047 153.421845 
L 266.596276 151.142596 
L 267.600582 148.389708 
L 268.102735 146.357231 
L 268.604888 144.820224 
L 269.107041 143.453721 
L 269.358118 143.017702 
L 269.86027 141.804377 
L 270.6135 140.487542 
L 271.115653 139.921173 
L 271.617806 139.485744 
L 272.622112 139.265118 
L 273.124265 139.229762 
L 274.8818 139.094965 
L 275.635029 138.588701 
L 275.886106 138.435428 
L 276.388259 137.756769 
L 276.639335 137.491325 
L 277.392565 135.61935 
L 277.894718 134.290743 
L 278.396871 132.656632 
L 278.647947 132.056234 
L 280.656559 124.332054 
L 281.409788 122.497345 
L 281.911941 121.278223 
L 283.167324 117.628833 
L 283.920553 115.236139 
L 284.422706 113.290279 
L 285.427012 109.05756 
L 285.929165 107.24085 
L 287.6867 103.295258 
L 288.43993 102.262222 
L 289.193159 101.559671 
L 289.695312 101.327912 
L 290.197465 101.041328 
L 293.461459 100.925571 
L 294.465765 100.321341 
L 294.967918 99.881181 
L 295.972224 99.43447 
L 297.980836 99.13915 
L 299.236218 98.233937 
L 299.487295 98.075619 
L 300.240524 96.418665 
L 300.742677 94.604772 
L 302.500212 86.837829 
L 303.002365 84.236011 
L 303.755595 80.475038 
L 304.257748 77.834815 
L 305.262053 73.946485 
L 307.019589 69.342778 
L 307.521742 68.7884 
L 308.274971 67.77227 
L 308.777124 67.135471 
L 309.028201 66.875038 
L 309.530354 66.631356 
L 309.78143 66.290914 
L 313.045424 64.837058 
L 313.296501 64.810446 
L 313.798654 64.562471 
L 314.551883 64.428054 
L 315.305112 63.959386 
L 315.807265 63.727612 
L 316.058342 63.582937 
L 317.564801 61.943267 
L 318.066954 61.762137 
L 318.820183 61.174256 
L 319.07126 61.17918 
L 319.573413 60.833891 
L 319.824489 60.686567 
L 320.828795 60.585427 
L 321.582024 60.47107 
L 326.603554 60.012888 
L 328.361089 59.960519 
L 328.612166 59.859287 
L 328.863242 59.90918 
L 330.369701 59.341997 
L 330.871854 58.881798 
L 331.87616 58.5175 
L 332.629389 57.980336 
L 332.880466 57.74053 
L 333.382619 57.585937 
L 333.633695 57.429303 
L 335.391231 57.173079 
L 335.893383 56.911354 
L 342.170295 56.613844 
L 350.957972 56.553119 
L 355.728425 56.294366 
L 365.269331 56.264389 
L 366.77579 56.239378 
L 368.533325 56.164589 
L 370.541937 56.037723 
L 375.061314 56.038583 
L 382.091455 56.035444 
L 470.219298 56.172776 
L 476.998363 56.591689 
L 480.76451 56.526916 
L 484.781733 56.225997 
L 489.803263 55.890333 
L 494.071563 55.851818 
L 501.854934 56.043652 
L 511.646916 56.202081 
L 551.819152 56.331161 
L 559.351446 56.150541 
L 574.918188 55.682689 
L 589.982776 55.678654 
L 643.713142 55.749894 
L 697.945661 55.8119 
L 720.040391 56.072626 
L 731.840985 55.910336 
L 744.394809 56.003243 
L 767.493844 56.131756 
L 804.904239 56.030285 
L 820.973134 55.958324 
L 856.87707 56.056001 
L 904.330523 55.997313 
L 952.035054 55.967944 
L 970.363636 55.981802 
L 970.363636 55.981802 
" style="fill:none;stroke:#e377c2;stroke-linecap:square;stroke-width:1.5;"/>
   </g>
   <g id="line2d_24">
    <path clip-path="url(#pf733411786)" d="M 217.636364 240.603891 
L 217.88744 236.239616 
L 218.138517 234.057726 
L 218.389593 232.966879 
L 218.64067 232.423355 
L 219.142822 232.008346 
L 220.900358 231.423616 
L 221.402511 230.736792 
L 221.653587 230.152299 
L 222.15574 228.092697 
L 222.657893 224.625603 
L 223.662199 216.364307 
L 224.415428 212.399357 
L 224.917581 210.752689 
L 225.670811 209.693485 
L 226.172964 209.317348 
L 227.428346 208.951828 
L 229.185881 207.973711 
L 230.441264 206.895973 
L 231.696646 205.685336 
L 232.952029 204.99823 
L 233.454182 204.540537 
L 233.956335 204.369042 
L 234.458487 203.964802 
L 234.709564 203.864924 
L 235.462793 202.961577 
L 236.718176 200.81582 
L 237.973558 196.732076 
L 239.731093 190.921431 
L 240.735399 188.775297 
L 241.488629 187.9461 
L 241.990782 187.613822 
L 245.254776 186.930328 
L 245.756929 186.61054 
L 246.510158 185.49843 
L 247.263388 183.374817 
L 249.020923 176.289327 
L 252.284917 158.590962 
L 255.548911 136.383107 
L 256.553217 131.928471 
L 256.804294 131.024063 
L 257.306447 130.137571 
L 257.557523 129.885873 
L 258.561829 129.694082 
L 260.068288 129.559632 
L 261.072594 129.511735 
L 261.574747 129.240833 
L 262.579053 127.967058 
L 262.830129 127.345555 
L 264.085512 122.223581 
L 265.59197 113.27409 
L 265.843047 112.162476 
L 266.596276 107.866712 
L 267.349506 104.471288 
L 267.851659 102.983608 
L 268.353812 101.622577 
L 268.604888 101.100901 
L 269.358118 100.573679 
L 270.362423 100.351684 
L 270.864576 100.384626 
L 272.873188 100.142738 
L 273.877494 99.557698 
L 274.8818 97.954341 
L 276.137182 94.293041 
L 276.890412 92.411872 
L 277.643641 90.591882 
L 277.894718 90.145512 
L 278.145794 90.158558 
L 278.396871 89.764262 
L 279.1501 89.626878 
L 279.903329 89.517766 
L 280.907635 88.979637 
L 281.911941 87.868715 
L 282.163018 87.743873 
L 282.665171 87.250331 
L 283.669477 87.053701 
L 284.673783 86.939895 
L 284.924859 86.824066 
L 286.180241 85.150703 
L 287.184547 82.152422 
L 288.691006 77.683722 
L 289.946389 75.528817 
L 290.699618 75.089952 
L 291.452847 75.069185 
L 293.963612 74.909985 
L 294.716842 74.359239 
L 295.470071 73.850086 
L 295.721147 73.845155 
L 296.2233 73.54351 
L 296.97653 73.360788 
L 297.729759 73.393686 
L 299.738371 73.290016 
L 304.759901 72.416958 
L 313.296501 71.961323 
L 313.798654 71.83283 
L 314.551883 71.370596 
L 315.556189 71.155645 
L 315.807265 71.053184 
L 316.058342 71.115565 
L 318.31803 70.460204 
L 319.573413 70.375184 
L 326.352477 70.237545 
L 326.85463 70.117498 
L 327.356783 70.087129 
L 332.629389 69.656998 
L 350.455819 69.489948 
L 367.780096 69.45899 
L 371.04409 69.239943 
L 376.567772 69.288506 
L 391.632361 69.236316 
L 393.892049 69.18982 
L 470.470374 68.837249 
L 473.483292 68.753483 
L 486.539269 68.758751 
L 490.807569 68.550676 
L 497.084481 68.184799 
L 501.854934 67.924577 
L 508.885075 67.384545 
L 511.144763 67.515616 
L 513.906604 67.923911 
L 518.174904 68.841278 
L 525.205046 70.381103 
L 528.46904 70.837293 
L 531.733034 71.054556 
L 536.001334 71.091996 
L 545.291164 71.139728 
L 552.321305 71.413579 
L 558.849293 71.902212 
L 566.130511 72.420793 
L 571.152041 72.530299 
L 585.4634 72.450246 
L 590.233853 72.174594 
L 596.008612 71.844844 
L 601.030141 71.84003 
L 607.55813 71.789722 
L 616.09473 71.705013 
L 627.393171 71.628303 
L 633.419007 71.295948 
L 641.453454 70.822353 
L 646.977136 70.760668 
L 656.266966 70.877272 
L 661.288495 71.202123 
L 668.569713 71.705618 
L 673.591243 71.784237 
L 694.681667 71.826825 
L 699.954273 71.762882 
L 715.269938 71.418324 
L 720.291467 71.338664 
L 725.815149 71.112964 
L 735.104979 70.987527 
L 752.680332 71.018595 
L 764.98308 71.048616 
L 777.03475 71.144711 
L 787.328886 71.25426 
L 798.627327 71.282253 
L 806.159622 71.651793 
L 814.445145 71.964994 
L 823.483898 72.043722 
L 835.535569 71.952282 
L 854.868458 71.548428 
L 882.48687 71.674351 
L 894.036388 71.839261 
L 906.590212 71.865117 
L 930.94463 71.933051 
L 957.558736 71.657471 
L 968.606101 71.358587 
L 970.363636 71.357577 
L 970.363636 71.357577 
" style="fill:none;stroke:#7f7f7f;stroke-linecap:square;stroke-width:1.5;"/>
   </g>
   <g id="line2d_25">
    <path clip-path="url(#pf733411786)" d="M 217.636364 241.145097 
L 217.88744 237.049695 
L 218.138517 235.013935 
L 218.389593 234.002264 
L 218.64067 233.503833 
L 219.142822 233.138697 
L 220.649281 232.646924 
L 221.151434 232.045004 
L 221.653587 230.767062 
L 222.15574 228.841995 
L 222.90897 225.570589 
L 223.411123 223.935988 
L 223.913276 222.822068 
L 224.666505 221.809543 
L 225.419734 221.09427 
L 226.172964 220.600677 
L 226.926193 220.049947 
L 227.930499 218.47246 
L 228.683729 216.915808 
L 228.934805 216.530634 
L 230.190187 213.509768 
L 231.44557 211.856469 
L 232.449876 211.255132 
L 235.211717 210.488511 
L 236.969252 208.526603 
L 239.480017 206.211212 
L 239.731093 206.008708 
L 239.98217 205.992635 
L 240.484323 205.772097 
L 241.488629 205.555249 
L 241.990782 205.265032 
L 242.492935 205.051848 
L 244.25047 203.993457 
L 245.505852 202.349179 
L 245.756929 202.013435 
L 246.008005 201.885761 
L 247.765541 200.009741 
L 248.267694 199.686443 
L 249.020923 199.256605 
L 250.276305 198.927284 
L 251.029535 198.947491 
L 252.033841 198.75751 
L 252.535994 198.762643 
L 253.791376 198.408549 
L 254.795682 198.145763 
L 255.548911 197.798485 
L 256.553217 196.88738 
L 256.804294 196.726898 
L 257.557523 195.855602 
L 257.8086 195.632499 
L 258.310753 194.842497 
L 258.561829 194.700625 
L 260.570441 192.389297 
L 260.821517 192.051507 
L 261.32367 191.758848 
L 265.340894 186.94132 
L 266.094123 185.671656 
L 266.3452 185.434332 
L 267.098429 184.046921 
L 267.349506 183.596715 
L 268.604888 182.68238 
L 269.609194 182.646313 
L 273.375341 182.58098 
L 273.877494 182.452402 
L 274.379647 182.237513 
L 275.132876 181.383102 
L 275.635029 180.711758 
L 275.886106 180.5918 
L 276.388259 179.706738 
L 277.643641 178.318405 
L 277.894718 178.03667 
L 278.396871 177.846257 
L 279.1501 177.285357 
L 281.158712 176.877994 
L 281.911941 176.798407 
L 282.414094 176.739399 
L 283.920553 176.166837 
L 284.17163 176.01439 
L 284.673783 175.900257 
L 285.175935 175.696028 
L 285.678088 175.334855 
L 286.682394 175.011293 
L 287.184547 174.91093 
L 291.201771 174.863706 
L 292.457153 174.454849 
L 293.210383 173.917379 
L 294.214689 172.817241 
L 294.967918 170.909907 
L 295.721147 168.751795 
L 296.474377 166.173607 
L 297.478683 162.820512 
L 298.734065 160.328342 
L 298.985142 160.200174 
L 299.487295 159.774345 
L 300.240524 159.606737 
L 301.495906 159.458165 
L 302.249136 159.390722 
L 302.500212 159.252553 
L 303.002365 158.750487 
L 304.508824 157.88334 
L 305.51313 157.90512 
L 306.768512 157.769732 
L 307.521742 155.955492 
L 307.772818 154.972054 
L 309.279277 145.367146 
L 309.78143 141.6199 
L 310.785736 135.130074 
L 311.036812 134.186938 
L 311.538965 131.838501 
L 313.045424 128.865689 
L 314.04973 128.619531 
L 315.054036 128.563644 
L 315.556189 128.361655 
L 316.560495 127.106586 
L 317.313724 125.771303 
L 318.31803 125.17569 
L 318.820183 125.172813 
L 319.07126 124.955128 
L 319.573413 123.607881 
L 319.824489 122.18293 
L 320.577718 115.109879 
L 322.084177 100.350598 
L 323.088483 93.987107 
L 323.33956 93.237952 
L 323.590636 91.835422 
L 324.092789 90.00169 
L 324.594942 88.18007 
L 325.348172 86.241587 
L 326.352477 84.442041 
L 326.85463 83.751959 
L 327.356783 82.855564 
L 328.110013 82.316052 
L 328.863242 82.220456 
L 333.382619 82.206588 
L 335.391231 82.134247 
L 336.14446 81.852574 
L 336.646613 81.905769 
L 336.897689 81.826935 
L 337.148766 81.898058 
L 340.161684 81.145142 
L 341.417066 81.062805 
L 344.178907 80.882037 
L 345.685366 81.046582 
L 346.689672 80.887311 
L 347.191825 80.917663 
L 347.693978 80.500306 
L 347.945054 80.562266 
L 349.451513 80.087534 
L 352.966584 79.770901 
L 353.468737 79.614522 
L 354.221966 79.658659 
L 360.247802 79.620752 
L 378.325308 79.473097 
L 389.121596 79.335702 
L 391.883437 79.331633 
L 422.514767 79.293715 
L 425.276609 79.232222 
L 428.03845 79.241243 
L 435.068591 79.247036 
L 470.972527 79.387181 
L 475.994057 79.529131 
L 480.513433 79.412221 
L 493.56941 78.930098 
L 514.659834 78.734789 
L 529.473346 78.611566 
L 535.248105 78.593518 
L 550.814846 78.789291 
L 557.593911 79.251931 
L 566.632664 79.848635 
L 571.403117 79.909327 
L 578.433259 79.746839 
L 587.723088 79.577107 
L 666.058948 79.505055 
L 704.222573 79.429975 
L 720.040391 79.368661 
L 754.940021 79.424126 
L 805.908545 79.63577 
L 816.704834 79.644685 
L 864.409364 79.642634 
L 970.363636 79.664316 
L 970.363636 79.664316 
" style="fill:none;stroke:#bcbd22;stroke-linecap:square;stroke-width:1.5;"/>
   </g>
   <g id="line2d_26">
    <path clip-path="url(#pf733411786)" d="M 217.636364 242.116364 
L 217.88744 238.487083 
L 218.138517 236.659161 
L 218.389593 235.734771 
L 218.891746 235.0046 
L 220.398205 234.032242 
L 220.900358 233.05512 
L 221.402511 231.312949 
L 222.657893 225.828903 
L 223.160046 224.387383 
L 223.662199 223.42457 
L 224.666505 222.206028 
L 225.670811 221.1604 
L 226.42404 220.102813 
L 226.926193 219.09756 
L 227.428346 217.657351 
L 228.181576 214.727663 
L 230.943417 200.233554 
L 231.696646 197.530538 
L 232.198799 196.29776 
L 232.700952 195.177192 
L 233.203105 194.403857 
L 233.705258 193.953808 
L 234.207411 193.550761 
L 234.709564 193.152356 
L 235.964946 192.225853 
L 236.467099 191.584655 
L 236.718176 191.396679 
L 238.224635 188.988767 
L 238.977864 187.268387 
L 239.98217 184.731855 
L 241.990782 180.439247 
L 243.748317 177.87797 
L 245.756929 175.481731 
L 246.510158 174.492563 
L 248.51877 172.381227 
L 251.531688 171.519834 
L 251.782764 171.513355 
L 253.289223 170.802792 
L 253.791376 170.732021 
L 254.795682 170.351981 
L 255.548911 170.115442 
L 259.817211 167.27914 
L 261.072594 166.700185 
L 264.587665 166.144282 
L 265.340894 165.873917 
L 265.59197 165.817281 
L 265.843047 165.624837 
L 266.596276 164.728231 
L 267.349506 163.924603 
L 269.107041 161.05558 
L 270.111347 158.327815 
L 270.864576 155.954176 
L 274.128571 144.807022 
L 274.630724 143.064573 
L 275.635029 139.978682 
L 277.392565 135.832115 
L 277.894718 135.065537 
L 279.1501 132.563998 
L 279.652253 132.252175 
L 280.405482 131.554735 
L 281.158712 130.824185 
L 282.163018 130.36808 
L 282.916247 129.947875 
L 283.669477 129.59877 
L 284.673783 129.39746 
L 285.175935 128.836238 
L 285.678088 128.286462 
L 286.180241 127.254219 
L 286.933471 124.907429 
L 287.937777 120.904688 
L 289.444236 116.208397 
L 290.197465 115.130854 
L 290.699618 114.226416 
L 290.950694 114.03052 
L 291.452847 113.439198 
L 291.703924 113.473263 
L 292.206077 113.109726 
L 293.210383 112.533154 
L 293.712536 112.219734 
L 295.218994 111.839152 
L 295.470071 111.904804 
L 298.985142 111.01092 
L 299.487295 110.973082 
L 300.4916 110.876288 
L 301.24483 110.739488 
L 323.33956 110.713575 
L 325.850324 110.704863 
L 336.646613 110.695551 
L 471.976833 110.757987 
L 479.760204 110.728092 
L 485.786039 110.787068 
L 493.318333 110.87034 
L 515.161987 110.797799 
L 523.44751 110.825171 
L 533.992722 110.658755 
L 556.589605 110.664827 
L 565.628358 110.561861 
L 578.433259 110.608268 
L 738.871126 110.581237 
L 752.931409 110.545351 
L 770.004609 110.553591 
L 970.363636 110.536967 
L 970.363636 110.536967 
" style="fill:none;stroke:#17becf;stroke-linecap:square;stroke-width:1.5;"/>
   </g>
   <g id="patch_3">
    <path d="M 180 252 
L 180 34.56 
" style="fill:none;stroke:#000000;stroke-linecap:square;stroke-linejoin:miter;stroke-width:0.8;"/>
   </g>
   <g id="patch_4">
    <path d="M 1008 252 
L 1008 34.56 
" style="fill:none;stroke:#000000;stroke-linecap:square;stroke-linejoin:miter;stroke-width:0.8;"/>
   </g>
   <g id="patch_5">
    <path d="M 180 252 
L 1008 252 
" style="fill:none;stroke:#000000;stroke-linecap:square;stroke-linejoin:miter;stroke-width:0.8;"/>
   </g>
   <g id="patch_6">
    <path d="M 180 34.56 
L 1008 34.56 
" style="fill:none;stroke:#000000;stroke-linecap:square;stroke-linejoin:miter;stroke-width:0.8;"/>
   </g>
   <g id="legend_1">
    <g id="patch_7">
     <path d="M 1054.6 152.693437 
L 1262.067812 152.693437 
Q 1267.267812 152.693437 1267.267812 147.493437 
L 1267.267812 39.76 
Q 1267.267812 34.56 1262.067812 34.56 
L 1054.6 34.56 
Q 1049.4 34.56 1049.4 39.76 
L 1049.4 147.493437 
Q 1049.4 152.693437 1054.6 152.693437 
z
" style="fill:#ffffff;opacity:0.8;stroke:#cccccc;stroke-linejoin:miter;"/>
    </g>
    <g id="line2d_27">
     <path d="M 1059.8 54.470312 
L 1111.8 54.470312 
" style="fill:none;stroke:#1f77b4;stroke-linecap:square;stroke-width:1.5;"/>
    </g>
    <g id="line2d_28"/>
    <g id="text_11">
     <!-- oscillator 1 -->
     <defs>
      <path d="M 3.328125 25.921875 
Q 3.328125 40.328125 11.328125 47.265625 
Q 18.015625 53.03125 27.640625 53.03125 
Q 38.328125 53.03125 45.109375 46.015625 
Q 51.90625 39.015625 51.90625 26.65625 
Q 51.90625 16.65625 48.90625 10.90625 
Q 45.90625 5.171875 40.15625 2 
Q 34.421875 -1.171875 27.640625 -1.171875 
Q 16.75 -1.171875 10.03125 5.8125 
Q 3.328125 12.796875 3.328125 25.921875 
z
M 12.359375 25.921875 
Q 12.359375 15.96875 16.703125 11.015625 
Q 21.046875 6.0625 27.640625 6.0625 
Q 34.1875 6.0625 38.53125 11.03125 
Q 42.875 16.015625 42.875 26.21875 
Q 42.875 35.84375 38.5 40.796875 
Q 34.125 45.75 27.640625 45.75 
Q 21.046875 45.75 16.703125 40.8125 
Q 12.359375 35.890625 12.359375 25.921875 
z
" id="ArialMT-111"/>
      <path d="M 6.640625 61.46875 
L 6.640625 71.578125 
L 15.4375 71.578125 
L 15.4375 61.46875 
z
M 6.640625 0 
L 6.640625 51.859375 
L 15.4375 51.859375 
L 15.4375 0 
z
" id="ArialMT-105"/>
     </defs>
     <g transform="translate(1132.6 63.570312)scale(0.26 -0.26)">
      <use xlink:href="#ArialMT-111"/>
      <use x="55.615234" xlink:href="#ArialMT-115"/>
      <use x="105.615234" xlink:href="#ArialMT-99"/>
      <use x="155.615234" xlink:href="#ArialMT-105"/>
      <use x="177.832031" xlink:href="#ArialMT-108"/>
      <use x="200.048828" xlink:href="#ArialMT-108"/>
      <use x="222.265625" xlink:href="#ArialMT-97"/>
      <use x="277.880859" xlink:href="#ArialMT-116"/>
      <use x="305.664062" xlink:href="#ArialMT-111"/>
      <use x="361.279297" xlink:href="#ArialMT-114"/>
      <use x="394.580078" xlink:href="#ArialMT-32"/>
      <use x="422.363281" xlink:href="#ArialMT-49"/>
     </g>
    </g>
    <g id="line2d_29">
     <path d="M 1059.8 91.248125 
L 1111.8 91.248125 
" style="fill:none;stroke:#ff7f0e;stroke-linecap:square;stroke-width:1.5;"/>
    </g>
    <g id="line2d_30"/>
    <g id="text_12">
     <!-- oscillator 2 -->
     <g transform="translate(1132.6 100.348125)scale(0.26 -0.26)">
      <use xlink:href="#ArialMT-111"/>
      <use x="55.615234" xlink:href="#ArialMT-115"/>
      <use x="105.615234" xlink:href="#ArialMT-99"/>
      <use x="155.615234" xlink:href="#ArialMT-105"/>
      <use x="177.832031" xlink:href="#ArialMT-108"/>
      <use x="200.048828" xlink:href="#ArialMT-108"/>
      <use x="222.265625" xlink:href="#ArialMT-97"/>
      <use x="277.880859" xlink:href="#ArialMT-116"/>
      <use x="305.664062" xlink:href="#ArialMT-111"/>
      <use x="361.279297" xlink:href="#ArialMT-114"/>
      <use x="394.580078" xlink:href="#ArialMT-32"/>
      <use x="422.363281" xlink:href="#ArialMT-50"/>
     </g>
    </g>
    <g id="line2d_31">
     <path d="M 1059.8 128.025937 
L 1111.8 128.025937 
" style="fill:none;stroke:#2ca02c;stroke-linecap:square;stroke-width:1.5;"/>
    </g>
    <g id="line2d_32"/>
    <g id="text_13">
     <!-- oscillator 3 -->
     <g transform="translate(1132.6 137.125937)scale(0.26 -0.26)">
      <use xlink:href="#ArialMT-111"/>
      <use x="55.615234" xlink:href="#ArialMT-115"/>
      <use x="105.615234" xlink:href="#ArialMT-99"/>
      <use x="155.615234" xlink:href="#ArialMT-105"/>
      <use x="177.832031" xlink:href="#ArialMT-108"/>
      <use x="200.048828" xlink:href="#ArialMT-108"/>
      <use x="222.265625" xlink:href="#ArialMT-97"/>
      <use x="277.880859" xlink:href="#ArialMT-116"/>
      <use x="305.664062" xlink:href="#ArialMT-111"/>
      <use x="361.279297" xlink:href="#ArialMT-114"/>
      <use x="394.580078" xlink:href="#ArialMT-32"/>
      <use x="422.363281" xlink:href="#ArialMT-51"/>
     </g>
    </g>
   </g>
  </g>
 </g>
 <defs>
  <clipPath id="pf733411786">
   <rect height="217.44" width="828" x="180" y="34.56"/>
  </clipPath>
 </defs>
</svg>
