<?xml version="1.0" encoding="utf-8" standalone="no"?>
<!DOCTYPE svg PUBLIC "-//W3C//DTD SVG 1.1//EN"
  "http://www.w3.org/Graphics/SVG/1.1/DTD/svg11.dtd">
<!-- Created with matplotlib (https://matplotlib.org/) -->
<svg height="316.386094pt" version="1.1" viewBox="0 0 1165.984062 316.386094" width="1165.984062pt" xmlns="http://www.w3.org/2000/svg" xmlns:xlink="http://www.w3.org/1999/xlink">
 <defs>
  <style type="text/css">
*{stroke-linecap:butt;stroke-linejoin:round;}
  </style>
 </defs>
 <g id="figure_1">
  <g id="patch_1">
   <path d="M 0 316.386094 
L 1165.984062 316.386094 
L 1165.984062 0 
L 0 0 
z
" style="fill:#ffffff;"/>
  </g>
  <g id="axes_1">
   <g id="patch_2">
    <path d="M 71.51625 250.313594 
L 899.51625 250.313594 
L 899.51625 32.873594 
L 71.51625 32.873594 
z
" style="fill:#ffffff;"/>
   </g>
   <g id="matplotlib.axis_1">
    <g id="xtick_1">
     <g id="line2d_1">
      <path clip-path="url(#paa6387484d)" d="M 109.152614 250.313594 
L 109.152614 32.873594 
" style="fill:none;stroke:#b0b0b0;stroke-linecap:square;stroke-width:0.8;"/>
     </g>
     <g id="line2d_2">
      <defs>
       <path d="M 0 0 
L 0 3.5 
" id="md62e4aab14" style="stroke:#000000;stroke-width:0.8;"/>
      </defs>
      <g>
       <use style="stroke:#000000;stroke-width:0.8;" x="109.152614" xlink:href="#md62e4aab14" y="250.313594"/>
      </g>
     </g>
     <g id="text_1">
      <!-- 0 -->
      <defs>
       <path d="M 4.15625 35.296875 
Q 4.15625 48 6.765625 55.734375 
Q 9.375 63.484375 14.515625 67.671875 
Q 19.671875 71.875 27.484375 71.875 
Q 33.25 71.875 37.59375 69.546875 
Q 41.9375 67.234375 44.765625 62.859375 
Q 47.609375 58.5 49.21875 52.21875 
Q 50.828125 45.953125 50.828125 35.296875 
Q 50.828125 22.703125 48.234375 14.96875 
Q 45.65625 7.234375 40.5 3 
Q 35.359375 -1.21875 27.484375 -1.21875 
Q 17.140625 -1.21875 11.234375 6.203125 
Q 4.15625 15.140625 4.15625 35.296875 
z
M 13.1875 35.296875 
Q 13.1875 17.671875 17.3125 11.828125 
Q 21.4375 6 27.484375 6 
Q 33.546875 6 37.671875 11.859375 
Q 41.796875 17.71875 41.796875 35.296875 
Q 41.796875 52.984375 37.671875 58.78125 
Q 33.546875 64.59375 27.390625 64.59375 
Q 21.34375 64.59375 17.71875 59.46875 
Q 13.1875 52.9375 13.1875 35.296875 
z
" id="ArialMT-48"/>
      </defs>
      <g transform="translate(101.923395 275.923906)scale(0.26 -0.26)">
       <use xlink:href="#ArialMT-48"/>
      </g>
     </g>
    </g>
    <g id="xtick_2">
     <g id="line2d_3">
      <path clip-path="url(#paa6387484d)" d="M 360.229089 250.313594 
L 360.229089 32.873594 
" style="fill:none;stroke:#b0b0b0;stroke-linecap:square;stroke-width:0.8;"/>
     </g>
     <g id="line2d_4">
      <g>
       <use style="stroke:#000000;stroke-width:0.8;" x="360.229089" xlink:href="#md62e4aab14" y="250.313594"/>
      </g>
     </g>
     <g id="text_2">
      <!-- 1000 -->
      <defs>
       <path d="M 37.25 0 
L 28.46875 0 
L 28.46875 56 
Q 25.296875 52.984375 20.140625 49.953125 
Q 14.984375 46.921875 10.890625 45.40625 
L 10.890625 53.90625 
Q 18.265625 57.375 23.78125 62.296875 
Q 29.296875 67.234375 31.59375 71.875 
L 37.25 71.875 
z
" id="ArialMT-49"/>
      </defs>
      <g transform="translate(331.312214 275.923906)scale(0.26 -0.26)">
       <use xlink:href="#ArialMT-49"/>
       <use x="55.615234" xlink:href="#ArialMT-48"/>
       <use x="111.230469" xlink:href="#ArialMT-48"/>
       <use x="166.845703" xlink:href="#ArialMT-48"/>
      </g>
     </g>
    </g>
    <g id="xtick_3">
     <g id="line2d_5">
      <path clip-path="url(#paa6387484d)" d="M 611.305564 250.313594 
L 611.305564 32.873594 
" style="fill:none;stroke:#b0b0b0;stroke-linecap:square;stroke-width:0.8;"/>
     </g>
     <g id="line2d_6">
      <g>
       <use style="stroke:#000000;stroke-width:0.8;" x="611.305564" xlink:href="#md62e4aab14" y="250.313594"/>
      </g>
     </g>
     <g id="text_3">
      <!-- 2000 -->
      <defs>
       <path d="M 50.34375 8.453125 
L 50.34375 0 
L 3.03125 0 
Q 2.9375 3.171875 4.046875 6.109375 
Q 5.859375 10.9375 9.828125 15.625 
Q 13.8125 20.3125 21.34375 26.46875 
Q 33.015625 36.03125 37.109375 41.625 
Q 41.21875 47.21875 41.21875 52.203125 
Q 41.21875 57.421875 37.46875 61 
Q 33.734375 64.59375 27.734375 64.59375 
Q 21.390625 64.59375 17.578125 60.78125 
Q 13.765625 56.984375 13.71875 50.25 
L 4.6875 51.171875 
Q 5.609375 61.28125 11.65625 66.578125 
Q 17.71875 71.875 27.9375 71.875 
Q 38.234375 71.875 44.234375 66.15625 
Q 50.25 60.453125 50.25 52 
Q 50.25 47.703125 48.484375 43.546875 
Q 46.734375 39.40625 42.65625 34.8125 
Q 38.578125 30.21875 29.109375 22.21875 
Q 21.1875 15.578125 18.9375 13.203125 
Q 16.703125 10.84375 15.234375 8.453125 
z
" id="ArialMT-50"/>
      </defs>
      <g transform="translate(582.388689 275.923906)scale(0.26 -0.26)">
       <use xlink:href="#ArialMT-50"/>
       <use x="55.615234" xlink:href="#ArialMT-48"/>
       <use x="111.230469" xlink:href="#ArialMT-48"/>
       <use x="166.845703" xlink:href="#ArialMT-48"/>
      </g>
     </g>
    </g>
    <g id="xtick_4">
     <g id="line2d_7">
      <path clip-path="url(#paa6387484d)" d="M 862.382039 250.313594 
L 862.382039 32.873594 
" style="fill:none;stroke:#b0b0b0;stroke-linecap:square;stroke-width:0.8;"/>
     </g>
     <g id="line2d_8">
      <g>
       <use style="stroke:#000000;stroke-width:0.8;" x="862.382039" xlink:href="#md62e4aab14" y="250.313594"/>
      </g>
     </g>
     <g id="text_4">
      <!-- 3000 -->
      <defs>
       <path d="M 4.203125 18.890625 
L 12.984375 20.0625 
Q 14.5 12.59375 18.140625 9.296875 
Q 21.78125 6 27 6 
Q 33.203125 6 37.46875 10.296875 
Q 41.75 14.59375 41.75 20.953125 
Q 41.75 27 37.796875 30.921875 
Q 33.84375 34.859375 27.734375 34.859375 
Q 25.25 34.859375 21.53125 33.890625 
L 22.515625 41.609375 
Q 23.390625 41.5 23.921875 41.5 
Q 29.546875 41.5 34.03125 44.421875 
Q 38.53125 47.359375 38.53125 53.46875 
Q 38.53125 58.296875 35.25 61.46875 
Q 31.984375 64.65625 26.8125 64.65625 
Q 21.6875 64.65625 18.265625 61.421875 
Q 14.84375 58.203125 13.875 51.765625 
L 5.078125 53.328125 
Q 6.6875 62.15625 12.390625 67.015625 
Q 18.109375 71.875 26.609375 71.875 
Q 32.46875 71.875 37.390625 69.359375 
Q 42.328125 66.84375 44.9375 62.5 
Q 47.5625 58.15625 47.5625 53.265625 
Q 47.5625 48.640625 45.0625 44.828125 
Q 42.578125 41.015625 37.703125 38.765625 
Q 44.046875 37.3125 47.5625 32.6875 
Q 51.078125 28.078125 51.078125 21.140625 
Q 51.078125 11.765625 44.234375 5.25 
Q 37.40625 -1.265625 26.953125 -1.265625 
Q 17.53125 -1.265625 11.296875 4.34375 
Q 5.078125 9.96875 4.203125 18.890625 
z
" id="ArialMT-51"/>
      </defs>
      <g transform="translate(833.465164 275.923906)scale(0.26 -0.26)">
       <use xlink:href="#ArialMT-51"/>
       <use x="55.615234" xlink:href="#ArialMT-48"/>
       <use x="111.230469" xlink:href="#ArialMT-48"/>
       <use x="166.845703" xlink:href="#ArialMT-48"/>
      </g>
     </g>
    </g>
    <g id="text_5">
     <!-- # sample -->
     <defs>
      <path d="M 5.03125 -1.21875 
L 9.28125 19.578125 
L 1.03125 19.578125 
L 1.03125 26.859375 
L 10.75 26.859375 
L 14.359375 44.578125 
L 1.03125 44.578125 
L 1.03125 51.859375 
L 15.828125 51.859375 
L 20.0625 72.796875 
L 27.390625 72.796875 
L 23.140625 51.859375 
L 38.53125 51.859375 
L 42.78125 72.796875 
L 50.140625 72.796875 
L 45.90625 51.859375 
L 54.34375 51.859375 
L 54.34375 44.578125 
L 44.4375 44.578125 
L 40.765625 26.859375 
L 54.34375 26.859375 
L 54.34375 19.578125 
L 39.3125 19.578125 
L 35.0625 -1.21875 
L 27.734375 -1.21875 
L 31.9375 19.578125 
L 16.609375 19.578125 
L 12.359375 -1.21875 
z
M 18.0625 26.859375 
L 33.40625 26.859375 
L 37.0625 44.578125 
L 21.6875 44.578125 
z
" id="ArialMT-35"/>
      <path id="ArialMT-32"/>
      <path d="M 3.078125 15.484375 
L 11.765625 16.84375 
Q 12.5 11.625 15.84375 8.84375 
Q 19.1875 6.0625 25.203125 6.0625 
Q 31.25 6.0625 34.171875 8.515625 
Q 37.109375 10.984375 37.109375 14.3125 
Q 37.109375 17.28125 34.515625 19 
Q 32.71875 20.171875 25.53125 21.96875 
Q 15.875 24.421875 12.140625 26.203125 
Q 8.40625 27.984375 6.46875 31.125 
Q 4.546875 34.28125 4.546875 38.09375 
Q 4.546875 41.546875 6.125 44.5 
Q 7.71875 47.46875 10.453125 49.421875 
Q 12.5 50.921875 16.03125 51.96875 
Q 19.578125 53.03125 23.640625 53.03125 
Q 29.734375 53.03125 34.34375 51.265625 
Q 38.96875 49.515625 41.15625 46.5 
Q 43.359375 43.5 44.1875 38.484375 
L 35.59375 37.3125 
Q 35.015625 41.3125 32.203125 43.546875 
Q 29.390625 45.796875 24.265625 45.796875 
Q 18.21875 45.796875 15.625 43.796875 
Q 13.03125 41.796875 13.03125 39.109375 
Q 13.03125 37.40625 14.109375 36.03125 
Q 15.1875 34.625 17.484375 33.6875 
Q 18.796875 33.203125 25.25 31.453125 
Q 34.578125 28.953125 38.25 27.359375 
Q 41.9375 25.78125 44.03125 22.75 
Q 46.140625 19.734375 46.140625 15.234375 
Q 46.140625 10.84375 43.578125 6.953125 
Q 41.015625 3.078125 36.171875 0.953125 
Q 31.34375 -1.171875 25.25 -1.171875 
Q 15.140625 -1.171875 9.84375 3.03125 
Q 4.546875 7.234375 3.078125 15.484375 
z
" id="ArialMT-115"/>
      <path d="M 40.4375 6.390625 
Q 35.546875 2.25 31.03125 0.53125 
Q 26.515625 -1.171875 21.34375 -1.171875 
Q 12.796875 -1.171875 8.203125 3 
Q 3.609375 7.171875 3.609375 13.671875 
Q 3.609375 17.484375 5.34375 20.625 
Q 7.078125 23.78125 9.890625 25.6875 
Q 12.703125 27.59375 16.21875 28.5625 
Q 18.796875 29.25 24.03125 29.890625 
Q 34.671875 31.15625 39.703125 32.90625 
Q 39.75 34.71875 39.75 35.203125 
Q 39.75 40.578125 37.25 42.78125 
Q 33.890625 45.75 27.25 45.75 
Q 21.046875 45.75 18.09375 43.578125 
Q 15.140625 41.40625 13.71875 35.890625 
L 5.125 37.0625 
Q 6.296875 42.578125 8.984375 45.96875 
Q 11.671875 49.359375 16.75 51.1875 
Q 21.828125 53.03125 28.515625 53.03125 
Q 35.15625 53.03125 39.296875 51.46875 
Q 43.453125 49.90625 45.40625 47.53125 
Q 47.359375 45.171875 48.140625 41.546875 
Q 48.578125 39.3125 48.578125 33.453125 
L 48.578125 21.734375 
Q 48.578125 9.46875 49.140625 6.21875 
Q 49.703125 2.984375 51.375 0 
L 42.1875 0 
Q 40.828125 2.734375 40.4375 6.390625 
z
M 39.703125 26.03125 
Q 34.90625 24.078125 25.34375 22.703125 
Q 19.921875 21.921875 17.671875 20.9375 
Q 15.4375 19.96875 14.203125 18.09375 
Q 12.984375 16.21875 12.984375 13.921875 
Q 12.984375 10.40625 15.640625 8.0625 
Q 18.3125 5.71875 23.4375 5.71875 
Q 28.515625 5.71875 32.46875 7.9375 
Q 36.421875 10.15625 38.28125 14.015625 
Q 39.703125 17 39.703125 22.796875 
z
" id="ArialMT-97"/>
      <path d="M 6.59375 0 
L 6.59375 51.859375 
L 14.453125 51.859375 
L 14.453125 44.578125 
Q 16.890625 48.390625 20.9375 50.703125 
Q 25 53.03125 30.171875 53.03125 
Q 35.9375 53.03125 39.625 50.640625 
Q 43.3125 48.25 44.828125 43.953125 
Q 50.984375 53.03125 60.84375 53.03125 
Q 68.5625 53.03125 72.703125 48.75 
Q 76.859375 44.484375 76.859375 35.59375 
L 76.859375 0 
L 68.109375 0 
L 68.109375 32.671875 
Q 68.109375 37.9375 67.25 40.25 
Q 66.40625 42.578125 64.15625 43.984375 
Q 61.921875 45.40625 58.890625 45.40625 
Q 53.421875 45.40625 49.796875 41.765625 
Q 46.1875 38.140625 46.1875 30.125 
L 46.1875 0 
L 37.40625 0 
L 37.40625 33.6875 
Q 37.40625 39.546875 35.25 42.46875 
Q 33.109375 45.40625 28.21875 45.40625 
Q 24.515625 45.40625 21.359375 43.453125 
Q 18.21875 41.5 16.796875 37.734375 
Q 15.375 33.984375 15.375 26.90625 
L 15.375 0 
z
" id="ArialMT-109"/>
      <path d="M 6.59375 -19.875 
L 6.59375 51.859375 
L 14.59375 51.859375 
L 14.59375 45.125 
Q 17.4375 49.078125 21 51.046875 
Q 24.5625 53.03125 29.640625 53.03125 
Q 36.28125 53.03125 41.359375 49.609375 
Q 46.4375 46.1875 49.015625 39.953125 
Q 51.609375 33.734375 51.609375 26.3125 
Q 51.609375 18.359375 48.75 11.984375 
Q 45.90625 5.609375 40.453125 2.21875 
Q 35.015625 -1.171875 29 -1.171875 
Q 24.609375 -1.171875 21.109375 0.6875 
Q 17.625 2.546875 15.375 5.375 
L 15.375 -19.875 
z
M 14.546875 25.640625 
Q 14.546875 15.625 18.59375 10.84375 
Q 22.65625 6.0625 28.421875 6.0625 
Q 34.28125 6.0625 38.453125 11.015625 
Q 42.625 15.96875 42.625 26.375 
Q 42.625 36.28125 38.546875 41.203125 
Q 34.46875 46.140625 28.8125 46.140625 
Q 23.1875 46.140625 18.859375 40.890625 
Q 14.546875 35.640625 14.546875 25.640625 
z
" id="ArialMT-112"/>
      <path d="M 6.390625 0 
L 6.390625 71.578125 
L 15.1875 71.578125 
L 15.1875 0 
z
" id="ArialMT-108"/>
      <path d="M 42.09375 16.703125 
L 51.171875 15.578125 
Q 49.03125 7.625 43.21875 3.21875 
Q 37.40625 -1.171875 28.375 -1.171875 
Q 17 -1.171875 10.328125 5.828125 
Q 3.65625 12.84375 3.65625 25.484375 
Q 3.65625 38.578125 10.390625 45.796875 
Q 17.140625 53.03125 27.875 53.03125 
Q 38.28125 53.03125 44.875 45.953125 
Q 51.46875 38.875 51.46875 26.03125 
Q 51.46875 25.25 51.421875 23.6875 
L 12.75 23.6875 
Q 13.234375 15.140625 17.578125 10.59375 
Q 21.921875 6.0625 28.421875 6.0625 
Q 33.25 6.0625 36.671875 8.59375 
Q 40.09375 11.140625 42.09375 16.703125 
z
M 13.234375 30.90625 
L 42.1875 30.90625 
Q 41.609375 37.453125 38.875 40.71875 
Q 34.671875 45.796875 27.984375 45.796875 
Q 21.921875 45.796875 17.796875 41.75 
Q 13.671875 37.703125 13.234375 30.90625 
z
" id="ArialMT-101"/>
     </defs>
     <g transform="translate(432.770781 304.018594)scale(0.26 -0.26)">
      <use xlink:href="#ArialMT-35"/>
      <use x="55.615234" xlink:href="#ArialMT-32"/>
      <use x="83.398438" xlink:href="#ArialMT-115"/>
      <use x="133.398438" xlink:href="#ArialMT-97"/>
      <use x="189.013672" xlink:href="#ArialMT-109"/>
      <use x="272.314453" xlink:href="#ArialMT-112"/>
      <use x="327.929688" xlink:href="#ArialMT-108"/>
      <use x="350.146484" xlink:href="#ArialMT-101"/>
     </g>
    </g>
   </g>
   <g id="matplotlib.axis_2">
    <g id="ytick_1">
     <g id="line2d_9">
      <path clip-path="url(#paa6387484d)" d="M 71.51625 247.398077 
L 899.51625 247.398077 
" style="fill:none;stroke:#b0b0b0;stroke-linecap:square;stroke-width:0.8;"/>
     </g>
     <g id="line2d_10">
      <defs>
       <path d="M 0 0 
L -3.5 0 
" id="m89094a59a3" style="stroke:#000000;stroke-width:0.8;"/>
      </defs>
      <g>
       <use style="stroke:#000000;stroke-width:0.8;" x="71.51625" xlink:href="#m89094a59a3" y="247.398077"/>
      </g>
     </g>
     <g id="text_6">
      <!-- 0 -->
      <g transform="translate(50.057813 256.703233)scale(0.26 -0.26)">
       <use xlink:href="#ArialMT-48"/>
      </g>
     </g>
    </g>
    <g id="ytick_2">
     <g id="line2d_11">
      <path clip-path="url(#paa6387484d)" d="M 71.51625 179.566891 
L 899.51625 179.566891 
" style="fill:none;stroke:#b0b0b0;stroke-linecap:square;stroke-width:0.8;"/>
     </g>
     <g id="line2d_12">
      <g>
       <use style="stroke:#000000;stroke-width:0.8;" x="71.51625" xlink:href="#m89094a59a3" y="179.566891"/>
      </g>
     </g>
     <g id="text_7">
      <!-- 10 -->
      <g transform="translate(35.599375 188.872047)scale(0.26 -0.26)">
       <use xlink:href="#ArialMT-49"/>
       <use x="55.615234" xlink:href="#ArialMT-48"/>
      </g>
     </g>
    </g>
    <g id="ytick_3">
     <g id="line2d_13">
      <path clip-path="url(#paa6387484d)" d="M 71.51625 111.735705 
L 899.51625 111.735705 
" style="fill:none;stroke:#b0b0b0;stroke-linecap:square;stroke-width:0.8;"/>
     </g>
     <g id="line2d_14">
      <g>
       <use style="stroke:#000000;stroke-width:0.8;" x="71.51625" xlink:href="#m89094a59a3" y="111.735705"/>
      </g>
     </g>
     <g id="text_8">
      <!-- 20 -->
      <g transform="translate(35.599375 121.040861)scale(0.26 -0.26)">
       <use xlink:href="#ArialMT-50"/>
       <use x="55.615234" xlink:href="#ArialMT-48"/>
      </g>
     </g>
    </g>
    <g id="ytick_4">
     <g id="line2d_15">
      <path clip-path="url(#paa6387484d)" d="M 71.51625 43.904519 
L 899.51625 43.904519 
" style="fill:none;stroke:#b0b0b0;stroke-linecap:square;stroke-width:0.8;"/>
     </g>
     <g id="line2d_16">
      <g>
       <use style="stroke:#000000;stroke-width:0.8;" x="71.51625" xlink:href="#m89094a59a3" y="43.904519"/>
      </g>
     </g>
     <g id="text_9">
      <!-- 30 -->
      <g transform="translate(35.599375 53.209676)scale(0.26 -0.26)">
       <use xlink:href="#ArialMT-51"/>
       <use x="55.615234" xlink:href="#ArialMT-48"/>
      </g>
     </g>
    </g>
    <g id="text_10">
     <!-- natural frequency (a.u.) -->
     <defs>
      <path d="M 6.59375 0 
L 6.59375 51.859375 
L 14.5 51.859375 
L 14.5 44.484375 
Q 20.21875 53.03125 31 53.03125 
Q 35.6875 53.03125 39.625 51.34375 
Q 43.5625 49.65625 45.515625 46.921875 
Q 47.46875 44.1875 48.25 40.4375 
Q 48.734375 37.984375 48.734375 31.890625 
L 48.734375 0 
L 39.9375 0 
L 39.9375 31.546875 
Q 39.9375 36.921875 38.90625 39.578125 
Q 37.890625 42.234375 35.28125 43.8125 
Q 32.671875 45.40625 29.15625 45.40625 
Q 23.53125 45.40625 19.453125 41.84375 
Q 15.375 38.28125 15.375 28.328125 
L 15.375 0 
z
" id="ArialMT-110"/>
      <path d="M 25.78125 7.859375 
L 27.046875 0.09375 
Q 23.34375 -0.6875 20.40625 -0.6875 
Q 15.625 -0.6875 12.984375 0.828125 
Q 10.359375 2.34375 9.28125 4.8125 
Q 8.203125 7.28125 8.203125 15.1875 
L 8.203125 45.015625 
L 1.765625 45.015625 
L 1.765625 51.859375 
L 8.203125 51.859375 
L 8.203125 64.703125 
L 16.9375 69.96875 
L 16.9375 51.859375 
L 25.78125 51.859375 
L 25.78125 45.015625 
L 16.9375 45.015625 
L 16.9375 14.703125 
Q 16.9375 10.9375 17.40625 9.859375 
Q 17.875 8.796875 18.921875 8.15625 
Q 19.96875 7.515625 21.921875 7.515625 
Q 23.390625 7.515625 25.78125 7.859375 
z
" id="ArialMT-116"/>
      <path d="M 40.578125 0 
L 40.578125 7.625 
Q 34.515625 -1.171875 24.125 -1.171875 
Q 19.53125 -1.171875 15.546875 0.578125 
Q 11.578125 2.34375 9.640625 5 
Q 7.71875 7.671875 6.9375 11.53125 
Q 6.390625 14.109375 6.390625 19.734375 
L 6.390625 51.859375 
L 15.1875 51.859375 
L 15.1875 23.09375 
Q 15.1875 16.21875 15.71875 13.8125 
Q 16.546875 10.359375 19.234375 8.375 
Q 21.921875 6.390625 25.875 6.390625 
Q 29.828125 6.390625 33.296875 8.421875 
Q 36.765625 10.453125 38.203125 13.9375 
Q 39.65625 17.4375 39.65625 24.078125 
L 39.65625 51.859375 
L 48.4375 51.859375 
L 48.4375 0 
z
" id="ArialMT-117"/>
      <path d="M 6.5 0 
L 6.5 51.859375 
L 14.40625 51.859375 
L 14.40625 44 
Q 17.4375 49.515625 20 51.265625 
Q 22.5625 53.03125 25.640625 53.03125 
Q 30.078125 53.03125 34.671875 50.203125 
L 31.640625 42.046875 
Q 28.421875 43.953125 25.203125 43.953125 
Q 22.3125 43.953125 20.015625 42.21875 
Q 17.71875 40.484375 16.75 37.40625 
Q 15.28125 32.71875 15.28125 27.15625 
L 15.28125 0 
z
" id="ArialMT-114"/>
      <path d="M 8.6875 0 
L 8.6875 45.015625 
L 0.921875 45.015625 
L 0.921875 51.859375 
L 8.6875 51.859375 
L 8.6875 57.375 
Q 8.6875 62.59375 9.625 65.140625 
Q 10.890625 68.5625 14.078125 70.671875 
Q 17.28125 72.796875 23.046875 72.796875 
Q 26.765625 72.796875 31.25 71.921875 
L 29.9375 64.265625 
Q 27.203125 64.75 24.75 64.75 
Q 20.75 64.75 19.09375 63.03125 
Q 17.4375 61.328125 17.4375 56.640625 
L 17.4375 51.859375 
L 27.546875 51.859375 
L 27.546875 45.015625 
L 17.4375 45.015625 
L 17.4375 0 
z
" id="ArialMT-102"/>
      <path d="M 39.65625 -19.875 
L 39.65625 5.515625 
Q 37.59375 2.640625 33.90625 0.734375 
Q 30.21875 -1.171875 26.078125 -1.171875 
Q 16.84375 -1.171875 10.171875 6.203125 
Q 3.515625 13.578125 3.515625 26.421875 
Q 3.515625 34.234375 6.21875 40.421875 
Q 8.9375 46.625 14.078125 49.828125 
Q 19.234375 53.03125 25.390625 53.03125 
Q 35.015625 53.03125 40.53125 44.921875 
L 40.53125 51.859375 
L 48.4375 51.859375 
L 48.4375 -19.875 
z
M 12.546875 26.078125 
Q 12.546875 16.0625 16.75 11.0625 
Q 20.953125 6.0625 26.8125 6.0625 
Q 32.421875 6.0625 36.46875 10.8125 
Q 40.53125 15.578125 40.53125 25.296875 
Q 40.53125 35.640625 36.25 40.859375 
Q 31.984375 46.09375 26.21875 46.09375 
Q 20.515625 46.09375 16.53125 41.234375 
Q 12.546875 36.375 12.546875 26.078125 
z
" id="ArialMT-113"/>
      <path d="M 40.4375 19 
L 49.078125 17.875 
Q 47.65625 8.9375 41.8125 3.875 
Q 35.984375 -1.171875 27.484375 -1.171875 
Q 16.84375 -1.171875 10.375 5.78125 
Q 3.90625 12.75 3.90625 25.734375 
Q 3.90625 34.125 6.6875 40.421875 
Q 9.46875 46.734375 15.15625 49.875 
Q 20.84375 53.03125 27.546875 53.03125 
Q 35.984375 53.03125 41.359375 48.75 
Q 46.734375 44.484375 48.25 36.625 
L 39.703125 35.296875 
Q 38.484375 40.53125 35.375 43.15625 
Q 32.28125 45.796875 27.875 45.796875 
Q 21.234375 45.796875 17.078125 41.03125 
Q 12.9375 36.28125 12.9375 25.984375 
Q 12.9375 15.53125 16.9375 10.796875 
Q 20.953125 6.0625 27.390625 6.0625 
Q 32.5625 6.0625 36.03125 9.234375 
Q 39.5 12.40625 40.4375 19 
z
" id="ArialMT-99"/>
      <path d="M 6.203125 -19.96875 
L 5.21875 -11.71875 
Q 8.109375 -12.5 10.25 -12.5 
Q 13.1875 -12.5 14.9375 -11.515625 
Q 16.703125 -10.546875 17.828125 -8.796875 
Q 18.65625 -7.46875 20.515625 -2.25 
Q 20.75 -1.515625 21.296875 -0.09375 
L 1.609375 51.859375 
L 11.078125 51.859375 
L 21.875 21.828125 
Q 23.96875 16.109375 25.640625 9.8125 
Q 27.15625 15.875 29.25 21.625 
L 40.328125 51.859375 
L 49.125 51.859375 
L 29.390625 -0.875 
Q 26.21875 -9.421875 24.46875 -12.640625 
Q 22.125 -17 19.09375 -19.015625 
Q 16.0625 -21.046875 11.859375 -21.046875 
Q 9.328125 -21.046875 6.203125 -19.96875 
z
" id="ArialMT-121"/>
      <path d="M 23.390625 -21.046875 
Q 16.109375 -11.859375 11.078125 0.4375 
Q 6.0625 12.75 6.0625 25.921875 
Q 6.0625 37.546875 9.8125 48.1875 
Q 14.203125 60.546875 23.390625 72.796875 
L 29.6875 72.796875 
Q 23.78125 62.640625 21.875 58.296875 
Q 18.890625 51.5625 17.1875 44.234375 
Q 15.09375 35.109375 15.09375 25.875 
Q 15.09375 2.390625 29.6875 -21.046875 
z
" id="ArialMT-40"/>
      <path d="M 9.078125 0 
L 9.078125 10.015625 
L 19.09375 10.015625 
L 19.09375 0 
z
" id="ArialMT-46"/>
      <path d="M 12.359375 -21.046875 
L 6.0625 -21.046875 
Q 20.65625 2.390625 20.65625 25.875 
Q 20.65625 35.0625 18.5625 44.09375 
Q 16.890625 51.421875 13.921875 58.15625 
Q 12.015625 62.546875 6.0625 72.796875 
L 12.359375 72.796875 
Q 21.53125 60.546875 25.921875 48.1875 
Q 29.6875 37.546875 29.6875 25.921875 
Q 29.6875 12.75 24.625 0.4375 
Q 19.578125 -11.859375 12.359375 -21.046875 
z
" id="ArialMT-41"/>
     </defs>
     <g transform="translate(26.127188 275.987188)rotate(-90)scale(0.26 -0.26)">
      <use xlink:href="#ArialMT-110"/>
      <use x="55.615234" xlink:href="#ArialMT-97"/>
      <use x="111.230469" xlink:href="#ArialMT-116"/>
      <use x="139.013672" xlink:href="#ArialMT-117"/>
      <use x="194.628906" xlink:href="#ArialMT-114"/>
      <use x="227.929688" xlink:href="#ArialMT-97"/>
      <use x="283.544922" xlink:href="#ArialMT-108"/>
      <use x="305.761719" xlink:href="#ArialMT-32"/>
      <use x="333.544922" xlink:href="#ArialMT-102"/>
      <use x="361.328125" xlink:href="#ArialMT-114"/>
      <use x="394.628906" xlink:href="#ArialMT-101"/>
      <use x="450.244141" xlink:href="#ArialMT-113"/>
      <use x="505.859375" xlink:href="#ArialMT-117"/>
      <use x="561.474609" xlink:href="#ArialMT-101"/>
      <use x="617.089844" xlink:href="#ArialMT-110"/>
      <use x="672.705078" xlink:href="#ArialMT-99"/>
      <use x="722.705078" xlink:href="#ArialMT-121"/>
      <use x="772.705078" xlink:href="#ArialMT-32"/>
      <use x="800.488281" xlink:href="#ArialMT-40"/>
      <use x="833.789062" xlink:href="#ArialMT-97"/>
      <use x="889.404297" xlink:href="#ArialMT-46"/>
      <use x="917.1875" xlink:href="#ArialMT-117"/>
      <use x="972.802734" xlink:href="#ArialMT-46"/>
      <use x="1000.585938" xlink:href="#ArialMT-41"/>
     </g>
    </g>
   </g>
   <g id="line2d_17">
    <path clip-path="url(#paa6387484d)" d="M 109.152614 237.265493 
L 109.40369 232.196639 
L 109.654767 229.652733 
L 109.905843 228.365241 
L 110.407996 227.351605 
L 111.663378 226.222282 
L 112.165531 224.97448 
L 112.667684 222.440173 
L 114.42522 210.688229 
L 114.927373 209.21688 
L 115.429526 208.306223 
L 116.935984 206.258364 
L 117.689214 204.556206 
L 118.191367 202.817037 
L 118.69352 200.32139 
L 120.451055 189.72601 
L 121.455361 185.620045 
L 121.957514 184.119826 
L 122.96182 182.156963 
L 123.715049 181.248271 
L 124.719355 180.273901 
L 125.974737 178.866873 
L 127.983349 176.124791 
L 128.234426 176.025997 
L 129.238732 174.413088 
L 129.489808 174.298799 
L 130.745191 172.230034 
L 131.247343 171.522498 
L 131.749496 170.493267 
L 132.000573 170.340018 
L 133.004879 168.315811 
L 134.009185 166.614993 
L 134.260261 166.396431 
L 135.013491 164.969036 
L 136.268873 163.282904 
L 136.771026 162.838276 
L 137.022102 162.912869 
L 137.775332 162.687351 
L 139.532867 162.324668 
L 140.03502 162.336342 
L 141.290402 162.174963 
L 142.043632 162.110401 
L 142.796861 162.102813 
L 143.801167 161.570903 
L 144.805473 160.585914 
L 145.05655 160.168314 
L 146.311932 155.470919 
L 147.065161 152.686229 
L 147.567314 150.454166 
L 147.818391 150.047667 
L 148.320544 148.992666 
L 149.073773 148.418317 
L 149.575926 147.929546 
L 151.333461 146.852399 
L 151.835614 146.864832 
L 152.588844 146.601814 
L 153.090997 146.526 
L 154.095303 145.754301 
L 154.346379 145.837984 
L 157.610373 144.132545 
L 157.86145 144.170071 
L 158.363603 143.673879 
L 159.870062 141.678467 
L 160.372215 140.338341 
L 160.623291 140.042705 
L 161.37652 138.425134 
L 161.627597 137.643427 
L 162.380826 134.210777 
L 162.882979 133.006881 
L 163.134056 131.915274 
L 163.636209 128.608883 
L 163.887285 127.641021 
L 164.138362 125.65743 
L 165.142668 123.310127 
L 165.393744 123.07546 
L 165.644821 122.653184 
L 167.904509 122.56395 
L 168.406662 122.03745 
L 168.657738 121.626184 
L 168.908815 121.533052 
L 169.159891 121.226789 
L 169.410968 121.296294 
L 169.913121 121.030883 
L 170.66635 121.05876 
L 171.168503 121.089026 
L 171.921732 120.822462 
L 172.926038 120.08044 
L 173.428191 119.758905 
L 174.432497 118.125676 
L 174.93465 117.554033 
L 175.185727 116.628399 
L 175.436803 116.328669 
L 175.68788 115.821819 
L 175.938956 115.601238 
L 176.190033 114.713136 
L 177.445415 112.577577 
L 178.198644 111.833864 
L 179.454027 110.563848 
L 179.705103 110.564908 
L 179.95618 110.405602 
L 180.709409 110.475989 
L 183.47125 110.433171 
L 184.22448 110.144499 
L 184.475556 109.880972 
L 184.726633 109.842737 
L 185.479862 109.397957 
L 185.730939 109.372118 
L 187.237397 108.39994 
L 187.488474 108.138638 
L 188.241703 107.926749 
L 189.497086 107.845223 
L 189.999239 107.746357 
L 190.250315 107.848382 
L 191.003545 107.458613 
L 191.505698 107.349537 
L 192.00785 107.037756 
L 192.76108 106.980365 
L 193.263233 106.964388 
L 194.267539 106.060754 
L 195.271845 103.23725 
L 196.025074 100.302839 
L 196.527227 99.624549 
L 197.02938 98.484823 
L 198.535839 97.084329 
L 199.540145 96.55303 
L 199.791221 96.503176 
L 200.795527 95.448177 
L 201.046604 94.912226 
L 202.050909 89.278701 
L 203.306292 78.150918 
L 203.557368 75.631564 
L 204.059521 74.014794 
L 204.812751 69.571288 
L 205.314904 66.918146 
L 205.56598 65.75622 
L 205.817057 63.989542 
L 206.068133 63.2016 
L 206.31921 61.652824 
L 206.821362 60.399874 
L 207.072439 60.264883 
L 208.076745 58.407876 
L 208.829974 57.830381 
L 209.583204 57.759491 
L 211.089663 57.81573 
L 211.842892 57.755956 
L 212.093968 57.766016 
L 212.345045 57.615866 
L 217.115498 57.537705 
L 217.868727 57.259551 
L 218.119804 57.225625 
L 218.37088 57.02786 
L 218.621957 57.27574 
L 218.873033 57.102621 
L 220.881645 53.268244 
L 221.383798 51.346588 
L 221.634875 51.077822 
L 222.388104 49.576677 
L 222.63918 49.641596 
L 222.890257 49.46308 
L 223.643486 48.00625 
L 223.894563 47.775544 
L 224.647792 47.651132 
L 224.898869 47.506122 
L 225.149945 47.616758 
L 225.652098 47.556625 
L 226.154251 46.824999 
L 226.405328 46.832011 
L 227.158557 46.243688 
L 227.911786 46.130319 
L 228.162863 45.838389 
L 229.167169 45.927405 
L 229.920398 45.716943 
L 231.677934 45.768041 
L 231.92901 45.84425 
L 232.682239 45.743096 
L 234.188698 45.735738 
L 235.193004 45.681741 
L 235.946234 45.709273 
L 236.699463 45.759728 
L 241.21884 45.670711 
L 241.972069 45.708575 
L 242.976375 45.684946 
L 247.244675 45.637544 
L 249.00221 45.644545 
L 256.534505 45.647314 
L 360.480165 45.762285 
L 362.739854 45.918458 
L 367.510307 45.933658 
L 370.523224 45.756521 
L 375.042601 45.38284 
L 378.306595 45.413495 
L 385.336736 45.497048 
L 389.856113 45.456577 
L 391.613648 45.189581 
L 393.62226 44.601153 
L 398.141637 43.092108 
L 399.899172 42.821105 
L 401.656707 42.761147 
L 403.916396 42.928904 
L 414.96376 44.257769 
L 421.993902 44.841862 
L 426.513278 45.186973 
L 430.781578 45.204299 
L 437.560643 44.922886 
L 443.837555 44.596373 
L 449.361238 44.288454 
L 451.872002 44.402954 
L 454.131691 44.707451 
L 459.404297 45.497068 
L 462.166138 45.654793 
L 465.932285 45.643369 
L 477.732879 45.254332 
L 482.001179 45.126223 
L 485.265174 45.24309 
L 497.567921 45.845124 
L 507.359903 46.044359 
L 538.24231 45.862747 
L 545.272451 45.793959 
L 553.306898 45.977863 
L 561.592422 46.057902 
L 568.12041 45.884972 
L 574.648399 45.795683 
L 580.674234 45.953344 
L 590.96837 46.24531 
L 601.262505 46.15697 
L 626.872306 46.111934 
L 639.175053 46.00664 
L 649.971341 46.000687 
L 682.10913 46.021689 
L 742.116408 46.039996 
L 861.879886 46.048766 
L 861.879886 46.048766 
" style="fill:none;stroke:#1f77b4;stroke-linecap:square;stroke-width:1.5;"/>
   </g>
   <g id="line2d_18">
    <path clip-path="url(#paa6387484d)" d="M 109.152614 238.139188 
L 109.40369 233.508498 
L 109.654767 231.189923 
L 109.905843 230.023565 
L 110.15692 229.438188 
L 110.659072 228.977587 
L 112.165531 228.37377 
L 112.667684 227.714305 
L 113.169837 226.492408 
L 114.927373 220.960537 
L 115.429526 220.240444 
L 115.931678 219.724582 
L 116.433831 219.446636 
L 117.187061 219.185953 
L 118.442443 218.067638 
L 119.195673 217.020378 
L 122.20859 209.553935 
L 122.96182 208.198941 
L 123.463973 207.711245 
L 123.715049 207.331404 
L 125.221508 206.269986 
L 125.723661 205.834829 
L 126.225814 205.135604 
L 126.727967 203.966424 
L 127.23012 202.968327 
L 127.481196 202.368079 
L 127.732273 202.194971 
L 127.983349 201.490259 
L 128.234426 200.448669 
L 128.736579 199.576797 
L 129.991961 196.304993 
L 130.745191 194.277064 
L 130.996267 193.996363 
L 131.247343 193.907774 
L 131.749496 193.434098 
L 132.502726 192.778749 
L 134.009185 190.673732 
L 134.260261 190.1876 
L 134.511338 189.978274 
L 134.762414 189.9465 
L 135.013491 189.320875 
L 135.515644 188.887952 
L 135.76672 188.683432 
L 136.017796 188.692898 
L 136.268873 188.413757 
L 136.519949 187.881591 
L 136.771026 187.908238 
L 137.273179 186.6008 
L 137.524255 186.493001 
L 138.026408 185.840029 
L 138.277485 185.170272 
L 139.030714 184.319711 
L 139.532867 183.514515 
L 141.039326 183.332182 
L 142.545785 183.295431 
L 145.809779 183.082214 
L 146.563008 182.48179 
L 146.814085 182.527091 
L 147.818391 181.956846 
L 148.57162 180.763239 
L 148.822697 180.754276 
L 149.073773 180.322055 
L 150.580232 179.075526 
L 151.082385 178.531493 
L 151.835614 177.639572 
L 152.086691 177.545335 
L 153.090997 175.923473 
L 153.342073 175.028376 
L 153.59315 174.717485 
L 154.848532 170.671645 
L 155.350685 169.265161 
L 155.852838 166.95817 
L 156.103915 166.598242 
L 157.10822 163.144846 
L 158.112526 160.431228 
L 158.363603 159.500034 
L 159.367909 159.020846 
L 159.870062 158.982248 
L 160.623291 159.004827 
L 161.627597 158.91816 
L 161.878673 158.728441 
L 162.12975 158.823659 
L 165.142668 158.470543 
L 166.39805 158.40889 
L 166.900203 158.523283 
L 167.402356 158.41855 
L 168.155585 158.139448 
L 168.908815 157.729157 
L 169.662044 157.190332 
L 170.415274 156.123481 
L 170.66635 155.861658 
L 171.168503 155.781469 
L 171.670656 155.223274 
L 172.674962 154.757787 
L 172.926038 154.814356 
L 174.181421 154.482753 
L 174.683574 154.579516 
L 175.938956 154.557416 
L 176.692185 154.567903 
L 178.198644 154.555464 
L 178.449721 154.312438 
L 178.700797 154.578523 
L 178.951874 154.468343 
L 179.20295 154.482011 
L 179.454027 154.234149 
L 179.705103 153.814568 
L 179.95618 153.896923 
L 180.458333 152.508429 
L 181.462639 149.723469 
L 181.964791 148.342627 
L 182.215868 147.820264 
L 183.220174 144.60847 
L 183.47125 143.858457 
L 184.726633 142.979047 
L 184.977709 142.740673 
L 185.228786 142.196805 
L 185.730939 141.716704 
L 186.233092 140.599571 
L 186.484168 140.480761 
L 186.986321 139.515325 
L 187.488474 137.693347 
L 187.990627 135.179222 
L 188.241703 133.69336 
L 189.748162 117.875409 
L 190.752468 107.147025 
L 191.003545 104.957831 
L 191.756774 102.524625 
L 192.00785 102.190272 
L 192.258927 101.637535 
L 192.76108 101.392117 
L 193.263233 101.442822 
L 193.765386 101.317035 
L 194.267539 100.973178 
L 194.518615 100.808027 
L 194.769692 100.952316 
L 196.025074 99.303831 
L 196.276151 99.45744 
L 197.531533 99.44752 
L 198.033686 98.859319 
L 198.284762 98.137596 
L 198.786915 94.690318 
L 199.540145 88.623571 
L 200.042298 83.493731 
L 200.293374 82.892451 
L 200.795527 80.53133 
L 202.050909 77.216274 
L 202.301986 77.020298 
L 202.804139 76.885104 
L 203.557368 76.034102 
L 203.808445 75.984285 
L 204.310598 75.625201 
L 205.063827 75.18254 
L 205.314904 74.75854 
L 205.56598 74.681504 
L 205.817057 74.320718 
L 206.068133 74.155975 
L 206.570286 74.197783 
L 207.072439 74.061175 
L 207.825668 74.141346 
L 208.578898 73.993901 
L 208.829974 74.024911 
L 209.081051 73.83856 
L 209.583204 73.843057 
L 209.83428 73.921075 
L 210.336433 73.807032 
L 213.349351 73.798029 
L 214.10258 73.707935 
L 214.353657 73.76643 
L 215.106886 73.536806 
L 216.362269 73.501983 
L 217.115498 73.276284 
L 217.366574 73.119395 
L 217.617651 73.15967 
L 217.868727 73.045118 
L 218.37088 73.125273 
L 219.12411 72.763855 
L 219.626263 72.586039 
L 221.383798 72.566382 
L 222.137027 72.377223 
L 226.154251 72.469135 
L 227.911786 72.424232 
L 228.916092 72.244566 
L 229.167169 72.34846 
L 230.171475 72.208531 
L 231.426857 71.986305 
L 231.677934 71.855848 
L 232.180086 71.991517 
L 232.682239 71.914411 
L 233.435469 71.987914 
L 234.941928 71.948496 
L 235.444081 71.73952 
L 236.448387 71.795831 
L 236.95054 71.721478 
L 237.452692 71.84842 
L 237.954845 71.707281 
L 238.205922 71.796734 
L 238.959151 71.233237 
L 239.712381 71.224606 
L 239.963457 70.910159 
L 240.214534 70.892558 
L 240.967763 70.522867 
L 241.720993 70.402751 
L 242.223146 70.32496 
L 242.474222 70.180984 
L 242.976375 70.207949 
L 243.227451 70.152675 
L 244.231757 70.455055 
L 244.984987 70.253466 
L 245.236063 70.122067 
L 245.738216 70.133477 
L 246.491446 70.013489 
L 246.993599 70.232249 
L 247.244675 70.27538 
L 247.495751 70.095397 
L 247.746828 70.126782 
L 247.997904 69.949157 
L 248.500057 69.819154 
L 249.504363 69.365082 
L 249.75544 69.54455 
L 250.257593 69.590415 
L 253.019434 68.817047 
L 253.27051 68.820381 
L 254.02374 68.509005 
L 254.776969 68.459183 
L 255.781275 68.490179 
L 257.036658 68.420225 
L 259.045269 68.409875 
L 260.300652 68.402856 
L 261.053881 68.403451 
L 261.556034 68.221542 
L 262.058187 68.293264 
L 263.313569 68.063386 
L 263.815722 67.940686 
L 264.568952 67.69048 
L 265.071105 67.67319 
L 265.322181 67.537412 
L 267.330793 67.414018 
L 268.084022 67.374565 
L 268.837252 67.382359 
L 269.841558 67.381518 
L 272.101246 67.423193 
L 289.425523 67.472481 
L 298.966429 67.542567 
L 299.970735 67.457432 
L 301.72827 67.379693 
L 303.736882 67.35429 
L 310.767023 67.243251 
L 311.520253 67.263541 
L 312.524559 67.301583 
L 317.043935 67.402476 
L 318.80147 67.308742 
L 320.056853 67.312721 
L 322.316541 67.315223 
L 332.610677 67.278216 
L 341.900506 67.273119 
L 547.783216 67.357706 
L 749.648702 67.353905 
L 861.879886 67.357101 
L 861.879886 67.357101 
" style="fill:none;stroke:#ff7f0e;stroke-linecap:square;stroke-width:1.5;"/>
   </g>
   <g id="line2d_19">
    <path clip-path="url(#paa6387484d)" d="M 109.152614 239.353539 
L 109.40369 235.327048 
L 109.654767 233.313003 
L 109.905843 232.302671 
L 110.407996 231.531784 
L 110.910149 231.325007 
L 111.914455 231.062908 
L 112.416608 230.752995 
L 112.918761 229.944996 
L 113.420914 228.310281 
L 114.174143 224.03669 
L 114.927373 219.643439 
L 115.429526 217.852356 
L 115.931678 216.585878 
L 116.182755 216.150486 
L 117.689214 215.614067 
L 118.944596 215.363162 
L 119.697826 214.701851 
L 120.199979 213.926589 
L 120.702131 212.685299 
L 121.706437 208.646605 
L 122.710743 204.886795 
L 122.96182 204.175052 
L 123.463973 202.339992 
L 123.966126 201.36936 
L 124.719355 200.15342 
L 124.970432 200.014526 
L 125.221508 199.713546 
L 125.472585 199.614223 
L 125.974737 199.624469 
L 126.47689 199.629731 
L 127.23012 199.650495 
L 127.732273 199.545471 
L 127.983349 199.522491 
L 128.736579 199.015007 
L 129.740885 197.49201 
L 130.243038 196.775941 
L 130.494114 196.191346 
L 130.745191 195.941181 
L 132.000573 192.729229 
L 132.502726 191.460357 
L 132.753802 191.158896 
L 133.004879 190.399699 
L 133.507032 190.000834 
L 133.758108 189.954461 
L 134.260261 189.156301 
L 135.013491 188.695656 
L 135.515644 188.263771 
L 137.022102 187.81469 
L 137.524255 187.421564 
L 138.026408 187.441836 
L 138.528561 187.273742 
L 138.779638 187.015248 
L 139.030714 186.961151 
L 139.532867 186.47045 
L 139.783944 186.288168 
L 140.03502 185.901478 
L 140.286097 185.839254 
L 140.78825 185.297027 
L 141.541479 184.229048 
L 141.792555 183.51373 
L 142.043632 183.260077 
L 142.545785 182.273555 
L 142.796861 182.035844 
L 143.299014 181.292686 
L 143.550091 181.175588 
L 144.30332 179.809617 
L 146.311932 178.076949 
L 146.814085 177.447908 
L 147.065161 176.745601 
L 147.567314 176.609107 
L 147.818391 176.313988 
L 148.320544 175.587895 
L 148.57162 175.446385 
L 149.32485 174.211657 
L 149.575926 174.13934 
L 150.580232 173.468544 
L 150.831309 173.351128 
L 151.082385 172.828933 
L 151.333461 172.689659 
L 151.584538 172.39415 
L 151.835614 172.47662 
L 152.337767 172.242461 
L 152.83992 172.137536 
L 154.346379 172.108748 
L 154.597456 172.000799 
L 154.848532 172.048751 
L 156.103915 170.696568 
L 157.10822 168.483239 
L 157.610373 165.985601 
L 157.86145 165.869898 
L 158.112526 164.760528 
L 158.865756 163.289954 
L 159.618985 163.251374 
L 160.121138 163.209893 
L 160.372215 163.021357 
L 160.623291 162.673364 
L 161.37652 160.893231 
L 161.878673 159.542751 
L 162.380826 157.797184 
L 163.134056 153.816019 
L 164.138362 151.711713 
L 164.640515 151.45349 
L 166.146974 151.25374 
L 166.39805 151.093436 
L 166.649126 151.167427 
L 167.904509 150.241933 
L 168.155585 149.961216 
L 168.406662 150.036374 
L 168.908815 149.731709 
L 170.66635 149.472118 
L 170.917427 149.208935 
L 171.168503 149.185938 
L 171.670656 148.748354 
L 172.172809 148.630934 
L 172.423885 147.873076 
L 172.926038 147.062366 
L 173.177115 146.445495 
L 173.679268 145.931042 
L 173.930344 145.806666 
L 174.181421 145.164712 
L 174.432497 145.012692 
L 174.93465 144.420177 
L 175.185727 144.455026 
L 175.938956 144.121799 
L 176.943262 143.954405 
L 180.458333 143.599149 
L 180.960486 143.559545 
L 181.713715 143.420672 
L 183.722327 143.335479 
L 186.735244 143.11333 
L 186.986321 142.960414 
L 187.237397 143.069456 
L 187.488474 142.997191 
L 187.73955 142.170825 
L 188.49278 141.459022 
L 188.743856 140.619805 
L 188.994933 140.773468 
L 189.497086 139.576946 
L 189.748162 139.190395 
L 190.752468 135.764891 
L 191.505698 133.445057 
L 192.00785 131.042763 
L 192.258927 130.764774 
L 193.012156 128.071894 
L 193.514309 127.418124 
L 194.769692 127.022801 
L 195.020768 127.113028 
L 195.271845 126.684888 
L 195.522921 125.720688 
L 195.773998 125.216735 
L 196.527227 121.641874 
L 196.778303 118.730111 
L 197.531533 114.076162 
L 198.033686 109.769845 
L 199.037992 104.36432 
L 199.289068 102.902679 
L 200.042298 101.377262 
L 200.293374 101.616621 
L 200.544451 101.247728 
L 201.046604 101.135139 
L 201.29768 100.781883 
L 201.548757 100.737317 
L 201.799833 100.571882 
L 202.804139 100.547872 
L 203.306292 100.601897 
L 203.808445 100.831319 
L 204.310598 100.559458 
L 204.561674 100.083988 
L 204.812751 99.926431 
L 205.063827 99.539314 
L 205.817057 99.788059 
L 206.068133 99.665981 
L 206.570286 99.631376 
L 207.323515 99.49402 
L 208.327821 99.552449 
L 208.578898 99.585389 
L 209.332127 99.309067 
L 210.336433 99.253707 
L 210.838586 98.912059 
L 211.089663 99.070206 
L 211.340739 98.902552 
L 212.093968 99.034231 
L 212.596121 98.377152 
L 212.847198 98.457401 
L 213.349351 98.174516 
L 213.600427 98.146228 
L 214.10258 98.275922 
L 214.353657 97.873932 
L 214.604733 98.079861 
L 214.85581 98.006129 
L 215.357963 97.347539 
L 216.111192 97.528888 
L 216.362269 97.690287 
L 216.613345 97.274998 
L 217.366574 96.929931 
L 217.868727 96.824137 
L 218.873033 96.852287 
L 219.375186 96.780785 
L 221.132722 96.679855 
L 221.634875 96.573322 
L 222.137027 96.933056 
L 222.388104 96.57156 
L 223.141333 96.572332 
L 223.39241 96.637833 
L 223.643486 96.300395 
L 223.894563 96.320347 
L 224.145639 95.581191 
L 224.647792 95.063385 
L 224.898869 95.174255 
L 225.149945 94.665776 
L 225.401022 94.677031 
L 225.652098 94.33857 
L 225.903175 94.242872 
L 226.154251 94.022695 
L 226.405328 94.215529 
L 230.171475 94.003002 
L 230.924704 93.895547 
L 231.677934 93.954538 
L 232.682239 93.904035 
L 233.184392 93.701454 
L 234.941928 92.233437 
L 235.444081 91.146329 
L 235.695157 90.503426 
L 235.946234 90.283716 
L 236.19731 90.238131 
L 236.448387 89.9452 
L 236.699463 89.849385 
L 237.201616 89.038465 
L 237.703769 88.480852 
L 237.954845 87.934552 
L 238.205922 87.716877 
L 238.456998 87.654624 
L 238.708075 87.469906 
L 239.712381 87.389781 
L 239.963457 87.242573 
L 240.214534 87.363288 
L 240.967763 86.862812 
L 241.469916 86.875467 
L 241.972069 86.638272 
L 242.474222 86.438117 
L 242.725298 86.540637 
L 243.227451 86.39438 
L 244.73391 86.159326 
L 245.236063 86.195104 
L 245.989293 86.079897 
L 247.997904 86.064438 
L 249.00221 86.015322 
L 251.512975 85.963955 
L 252.266205 85.9346 
L 254.02374 86.011023 
L 255.028046 85.998509 
L 255.781275 86.040033 
L 256.534505 86.010471 
L 257.53881 86.083479 
L 258.29204 86.036523 
L 259.798499 86.007635 
L 261.556034 85.992789 
L 265.573258 85.978916 
L 266.82864 85.919226 
L 268.837252 85.930806 
L 270.092634 85.941203 
L 273.607705 85.844172 
L 276.369546 85.794376 
L 279.131387 85.787629 
L 292.187364 85.686026 
L 292.689517 85.557847 
L 293.442746 85.608475 
L 293.944899 85.480179 
L 296.455664 85.376569 
L 296.957817 85.380391 
L 312.273482 85.248615 
L 321.312235 85.248465 
L 335.372518 85.297912 
L 336.878977 85.27918 
L 340.8962 85.26209 
L 343.909118 85.215254 
L 350.18603 85.231822 
L 368.263536 85.248117 
L 375.293677 85.242196 
L 401.907784 85.240497 
L 425.006819 85.227395 
L 473.464579 85.234739 
L 861.879886 85.221957 
L 861.879886 85.221957 
" style="fill:none;stroke:#2ca02c;stroke-linecap:square;stroke-width:1.5;"/>
   </g>
   <g id="line2d_20">
    <path clip-path="url(#paa6387484d)" d="M 109.152614 237.787259 
L 109.40369 232.969442 
L 109.654767 230.548005 
L 109.905843 229.318159 
L 110.407996 228.359476 
L 111.161225 227.908662 
L 111.663378 227.578561 
L 112.165531 226.89906 
L 112.667684 225.478032 
L 113.169837 222.96547 
L 114.174143 217.376958 
L 114.676296 215.653737 
L 115.178449 214.598176 
L 115.931678 213.678609 
L 116.684908 212.997584 
L 117.689214 212.031869 
L 118.191367 211.110145 
L 119.195673 208.915203 
L 121.204284 202.950301 
L 121.706437 201.695556 
L 122.459667 200.321225 
L 123.212896 199.287669 
L 123.966126 198.746515 
L 124.217202 198.503232 
L 124.970432 197.310211 
L 125.472585 197.032662 
L 126.47689 195.447722 
L 127.23012 193.839142 
L 128.485502 192.225814 
L 128.736579 192.10086 
L 128.987655 191.501796 
L 129.238732 191.287302 
L 130.243038 189.695589 
L 131.49842 188.147689 
L 132.753802 186.477069 
L 133.255955 184.90082 
L 133.507032 184.527887 
L 133.758108 183.917406 
L 134.260261 182.184706 
L 134.511338 181.669063 
L 135.013491 179.467486 
L 135.515644 178.006339 
L 137.022102 174.663559 
L 138.026408 173.3517 
L 138.528561 173.184981 
L 139.030714 172.779182 
L 140.03502 172.411753 
L 140.286097 172.422217 
L 140.78825 172.275451 
L 143.299014 172.127709 
L 144.052244 172.003205 
L 145.307626 171.989764 
L 145.809779 171.816346 
L 146.060855 171.423472 
L 147.316238 166.786442 
L 148.57162 157.79164 
L 148.822697 156.609755 
L 149.575926 151.136105 
L 150.580232 146.774355 
L 151.835614 143.576583 
L 153.342073 142.083972 
L 153.59315 142.026512 
L 153.844226 141.752857 
L 154.095303 141.777024 
L 154.597456 141.408118 
L 155.601762 141.170279 
L 157.86145 140.975612 
L 158.865756 140.963951 
L 160.121138 140.816509 
L 160.874368 140.073365 
L 161.125444 139.804303 
L 162.12975 136.589483 
L 162.882979 132.452772 
L 163.887285 125.828891 
L 164.389438 123.802135 
L 164.640515 123.673193 
L 164.891591 122.589376 
L 165.644821 121.820909 
L 166.146974 121.69718 
L 166.900203 121.589369 
L 167.402356 121.173606 
L 167.653432 121.191387 
L 167.904509 121.086483 
L 168.155585 121.250225 
L 168.406662 121.061669 
L 168.657738 121.091735 
L 168.908815 121.004693 
L 169.159891 120.720865 
L 169.410968 120.693113 
L 169.662044 120.4295 
L 170.66635 120.348051 
L 171.921732 120.250118 
L 172.172809 120.179599 
L 172.674962 119.796335 
L 172.926038 119.777516 
L 173.679268 119.285065 
L 173.930344 118.958023 
L 174.181421 118.927333 
L 174.683574 118.480136 
L 174.93465 118.322741 
L 176.441109 115.420972 
L 176.692185 114.713114 
L 176.943262 114.72065 
L 177.696491 113.520623 
L 177.947568 112.565891 
L 178.700797 111.323713 
L 179.95618 109.597629 
L 180.709409 108.945089 
L 181.211562 108.683737 
L 181.964791 108.491181 
L 183.220174 107.682239 
L 183.973403 104.624952 
L 184.22448 104.182932 
L 184.726633 101.573203 
L 185.228786 99.798012 
L 185.982015 96.328086 
L 186.484168 94.300069 
L 186.986321 92.682823 
L 187.237397 92.561899 
L 187.488474 92.270838 
L 187.990627 92.183301 
L 188.49278 92.147715 
L 189.246009 91.765336 
L 189.497086 91.836844 
L 189.748162 91.282642 
L 189.999239 90.399388 
L 190.250315 90.065308 
L 190.501392 89.473159 
L 191.003545 87.801453 
L 191.505698 87.028014 
L 192.00785 85.587134 
L 192.258927 85.117849 
L 192.76108 85.001889 
L 193.514309 84.975531 
L 193.765386 84.485677 
L 194.016462 84.489218 
L 194.267539 83.939419 
L 195.522921 78.945143 
L 196.025074 76.036613 
L 196.276151 75.79105 
L 196.527227 74.715274 
L 197.782609 72.121098 
L 199.037992 71.897993 
L 199.289068 71.982798 
L 199.540145 71.870371 
L 199.791221 71.555031 
L 201.548757 65.813618 
L 203.055215 63.528868 
L 203.306292 63.302587 
L 204.561674 63.278296 
L 205.314904 62.916585 
L 205.56598 63.087296 
L 205.817057 62.844094 
L 206.068133 61.983456 
L 206.31921 61.830321 
L 206.570286 60.954621 
L 206.821362 60.888985 
L 207.323515 59.833876 
L 207.825668 58.394562 
L 208.076745 57.796477 
L 208.327821 56.827335 
L 208.578898 56.767652 
L 208.829974 56.041945 
L 209.332127 55.85018 
L 209.583204 55.486629 
L 209.83428 55.443791 
L 210.085357 54.909938 
L 211.340739 54.125566 
L 212.345045 53.894416 
L 213.349351 53.891819 
L 215.609039 53.787457 
L 216.111192 53.759438 
L 217.366574 53.691552 
L 218.621957 53.293218 
L 219.12411 53.185743 
L 220.630569 52.875652 
L 221.132722 52.419065 
L 221.383798 52.5104 
L 221.885951 52.460786 
L 223.39241 52.417621 
L 223.643486 52.282005 
L 224.145639 52.452477 
L 224.647792 51.955322 
L 224.898869 51.854672 
L 225.149945 51.944051 
L 225.652098 51.782686 
L 225.903175 51.636259 
L 226.154251 51.304156 
L 227.158557 51.009453 
L 227.911786 50.36275 
L 228.413939 50.253009 
L 228.665016 50.112438 
L 229.418245 50.103345 
L 231.677934 49.497936 
L 232.431163 49.422657 
L 233.184392 49.299626 
L 235.444081 49.271035 
L 236.448387 49.277311 
L 240.716687 49.121641 
L 241.21884 49.023823 
L 241.972069 49.094818 
L 242.976375 49.025635 
L 245.738216 49.052328 
L 246.491446 49.042507 
L 247.495751 48.916715 
L 269.339405 48.718377 
L 270.594787 48.699311 
L 272.101246 48.754762 
L 273.356628 48.751973 
L 275.114164 48.778317 
L 298.213199 48.813037 
L 310.515947 48.815708 
L 786.054791 48.785068 
L 861.879886 48.784882 
L 861.879886 48.784882 
" style="fill:none;stroke:#d62728;stroke-linecap:square;stroke-width:1.5;"/>
   </g>
   <g id="line2d_21">
    <path clip-path="url(#paa6387484d)" d="M 109.152614 239.35431 
L 109.40369 235.344262 
L 109.654767 233.345465 
L 109.905843 232.353461 
L 110.15692 231.866573 
L 110.659072 231.505453 
L 112.165531 231.028785 
L 112.667684 230.411464 
L 113.169837 228.994529 
L 113.67199 226.422364 
L 114.927373 218.406292 
L 115.429526 216.515787 
L 115.931678 215.487952 
L 116.684908 214.644577 
L 117.187061 214.405391 
L 118.69352 214.157508 
L 119.195673 213.908304 
L 119.948902 213.562751 
L 120.702131 212.041255 
L 120.953208 211.391968 
L 121.204284 210.316076 
L 121.706437 209.039446 
L 122.20859 207.556769 
L 123.212896 202.756202 
L 123.715049 201.580668 
L 124.719355 199.518126 
L 125.472585 199.000756 
L 125.723661 198.968305 
L 125.974737 198.792654 
L 126.225814 198.817715 
L 126.727967 198.70808 
L 127.481196 198.660102 
L 127.732273 198.487 
L 128.485502 198.430047 
L 128.987655 198.281467 
L 129.740885 197.598911 
L 130.494114 197.128352 
L 130.745191 196.789127 
L 131.247343 195.310997 
L 131.49842 195.019077 
L 132.000573 193.545829 
L 132.251649 193.279287 
L 132.502726 192.602706 
L 132.753802 192.576315 
L 133.004879 192.408468 
L 133.255955 192.091361 
L 133.758108 191.276555 
L 134.260261 190.765985 
L 135.013491 190.676864 
L 138.277485 190.41961 
L 138.779638 190.272908 
L 139.030714 190.285187 
L 139.783944 189.602167 
L 140.03502 189.526963 
L 140.537173 188.859086 
L 140.78825 188.695383 
L 141.792555 187.421722 
L 142.294708 187.01199 
L 142.545785 186.512472 
L 143.550091 185.853942 
L 144.30332 185.719337 
L 147.567314 185.337647 
L 148.57162 185.098286 
L 148.822697 184.830405 
L 149.073773 184.88564 
L 149.32485 184.649524 
L 149.575926 184.658519 
L 149.827003 184.463436 
L 150.078079 184.426291 
L 150.831309 183.830582 
L 151.082385 183.269499 
L 151.333461 183.047437 
L 151.584538 183.153745 
L 152.086691 182.742294 
L 152.337767 182.443423 
L 152.83992 182.268878 
L 154.095303 181.737456 
L 154.597456 181.742965 
L 154.848532 181.527318 
L 155.852838 181.56351 
L 159.618985 181.493301 
L 160.372215 181.547048 
L 161.878673 181.328652 
L 162.380826 181.292456 
L 162.882979 181.314168 
L 166.39805 181.224599 
L 166.900203 180.885495 
L 167.904509 180.282991 
L 168.908815 179.924983 
L 169.159891 179.845193 
L 169.410968 179.892054 
L 170.415274 179.608843 
L 170.917427 179.553015 
L 171.670656 179.248776 
L 173.679268 179.232617 
L 176.692185 179.200239 
L 177.194338 178.916567 
L 177.696491 178.639186 
L 177.947568 178.258519 
L 178.449721 177.947893 
L 178.700797 177.702617 
L 178.951874 177.733577 
L 180.207256 176.975426 
L 180.458333 177.159856 
L 180.709409 177.086146 
L 181.462639 176.541398 
L 181.964791 176.424481 
L 184.475556 176.040192 
L 185.479862 176.081557 
L 186.233092 175.956306 
L 186.986321 175.680324 
L 187.237397 175.749861 
L 187.488474 175.34023 
L 187.73955 175.347498 
L 188.241703 175.242428 
L 188.743856 174.412325 
L 189.246009 173.01934 
L 189.497086 172.807985 
L 189.999239 172.094104 
L 190.250315 172.28612 
L 190.752468 171.626548 
L 191.003545 170.710653 
L 191.505698 170.063266 
L 191.756774 169.787989 
L 192.258927 169.681092 
L 193.514309 169.637338 
L 194.016462 169.658688 
L 194.518615 169.278941 
L 194.769692 168.718375 
L 195.020768 168.620541 
L 195.271845 168.042052 
L 196.276151 164.551894 
L 197.02938 159.172737 
L 197.782609 153.037245 
L 200.544451 133.557173 
L 200.795527 133.282386 
L 201.046604 133.4446 
L 201.29768 132.650896 
L 201.799833 132.757788 
L 202.553062 130.416083 
L 202.804139 130.258487 
L 203.055215 129.481079 
L 203.557368 129.098845 
L 203.808445 128.696161 
L 204.059521 127.602762 
L 204.310598 127.556139 
L 204.561674 126.738701 
L 204.812751 126.561729 
L 205.063827 125.937538 
L 205.314904 125.864896 
L 206.821362 121.634029 
L 208.578898 113.111046 
L 208.829974 112.890477 
L 209.332127 110.99867 
L 209.583204 111.297717 
L 210.085357 109.967346 
L 210.838586 107.790278 
L 211.089663 108.143601 
L 211.591816 106.919254 
L 212.093968 106.794255 
L 212.345045 106.906432 
L 212.596121 106.683695 
L 212.847198 106.614195 
L 213.098274 106.06369 
L 213.349351 105.935124 
L 213.600427 105.228452 
L 214.353657 104.461689 
L 214.85581 104.369097 
L 216.111192 103.334206 
L 216.864422 103.237398 
L 217.366574 102.806136 
L 217.617651 102.859233 
L 217.868727 102.577355 
L 218.119804 102.122391 
L 218.37088 102.416553 
L 218.621957 101.902054 
L 219.12411 101.479329 
L 219.375186 101.226389 
L 219.626263 101.236848 
L 220.379492 99.185515 
L 220.630569 98.049571 
L 221.885951 95.229098 
L 222.137027 94.162242 
L 222.388104 94.081745 
L 222.890257 92.701241 
L 223.141333 92.462463 
L 223.643486 91.713809 
L 223.894563 91.760231 
L 224.647792 91.466329 
L 225.149945 90.385445 
L 225.401022 90.169279 
L 225.652098 90.166784 
L 225.903175 90.034017 
L 226.154251 89.75044 
L 226.656404 89.86601 
L 226.907481 89.681279 
L 227.158557 89.77274 
L 227.409633 89.462239 
L 227.911786 89.415925 
L 228.413939 88.893318 
L 229.167169 88.28008 
L 230.171475 87.635553 
L 230.422551 87.144867 
L 231.426857 86.879662 
L 232.180086 86.381535 
L 232.431163 86.550698 
L 233.435469 85.876182 
L 233.686545 85.549068 
L 233.937622 85.586299 
L 234.188698 85.496719 
L 234.690851 85.041661 
L 235.193004 85.339053 
L 235.444081 85.067704 
L 236.19731 85.036845 
L 236.95054 85.105364 
L 240.967763 85.115329 
L 242.474222 85.01483 
L 242.725298 84.969322 
L 242.976375 85.058399 
L 243.478528 85.0284 
L 243.729604 85.100529 
L 244.984987 84.72565 
L 245.989293 84.735477 
L 246.993599 84.631049 
L 248.751134 84.641553 
L 253.019434 84.744055 
L 253.772663 84.776684 
L 254.776969 84.767553 
L 257.036658 84.857087 
L 257.53881 84.974005 
L 257.789887 84.964547 
L 258.29204 84.594927 
L 258.543116 84.665768 
L 258.794193 84.459977 
L 261.053881 84.442427 
L 261.556034 84.49076 
L 262.56034 84.482166 
L 263.815722 84.544052 
L 264.066799 84.310214 
L 264.317875 84.315042 
L 264.568952 84.125568 
L 264.820028 84.242356 
L 265.573258 84.06869 
L 265.824334 83.886179 
L 266.326487 83.709148 
L 266.82864 83.440567 
L 267.832946 82.81288 
L 268.084022 82.907844 
L 268.586175 82.693519 
L 268.837252 82.78563 
L 270.343711 82.478924 
L 271.09694 82.38914 
L 271.599093 82.606307 
L 271.85017 82.590846 
L 272.352323 82.425078 
L 272.603399 82.456528 
L 272.854475 82.36478 
L 273.356628 82.523416 
L 273.858781 82.632584 
L 274.109858 82.56496 
L 274.863087 82.636837 
L 275.36524 82.577167 
L 275.867393 82.331139 
L 276.369546 82.285827 
L 276.871699 82.098097 
L 277.624929 82.051209 
L 279.63354 82.029908 
L 280.637846 81.881312 
L 280.888923 81.952061 
L 281.139999 81.82387 
L 281.642152 81.820517 
L 282.144305 81.590526 
L 282.646458 81.76647 
L 282.897534 81.719019 
L 283.399687 81.771908 
L 283.650764 81.658507 
L 284.152917 81.815148 
L 284.65507 81.722239 
L 285.659376 81.753862 
L 288.421217 81.787361 
L 291.685211 81.627077 
L 292.438441 81.592849 
L 293.693823 81.523496 
L 293.944899 81.451729 
L 294.195976 81.496319 
L 294.447052 81.311174 
L 296.957817 81.072036 
L 297.208894 80.983908 
L 297.45997 81.138234 
L 298.213199 81.264897 
L 298.715352 81.314016 
L 299.719658 81.161808 
L 300.723964 81.14241 
L 300.975041 81.053903 
L 301.226117 81.130195 
L 301.72827 80.993695 
L 302.230423 81.049113 
L 304.239035 80.985551 
L 305.745494 80.939792 
L 319.5547 80.900778 
L 320.056853 80.816521 
L 321.312235 80.79403 
L 322.818694 80.851037 
L 324.827306 80.718904 
L 325.580535 80.669051 
L 326.333765 80.733174 
L 327.086994 80.863764 
L 328.342377 80.858974 
L 329.848835 80.866935 
L 331.104218 80.843621 
L 332.3596 80.772353 
L 332.861753 80.834454 
L 335.372518 80.869465 
L 336.125747 80.873222 
L 336.376824 80.98689 
L 338.887588 80.819442 
L 339.640818 80.809471 
L 342.904812 80.758028 
L 343.658041 80.733515 
L 344.913424 80.715528 
L 345.91773 80.687563 
L 359.726936 80.654359 
L 360.731242 81.942033 
L 361.484471 82.594928 
L 362.488777 83.169468 
L 363.995236 83.69207 
L 366.254924 84.193831 
L 367.761383 84.246177 
L 368.765689 84.033921 
L 370.021071 83.406836 
L 371.778607 81.975646 
L 374.038295 80.028144 
L 375.544754 78.955991 
L 376.54906 78.485799 
L 377.553366 78.188767 
L 378.808748 78.084859 
L 380.81736 78.476034 
L 383.328125 79.62721 
L 385.08566 80.44924 
L 386.341042 80.899253 
L 387.847501 81.170143 
L 389.102884 81.143452 
L 390.358266 80.920264 
L 391.864725 80.364057 
L 393.120107 79.703585 
L 394.877642 78.453741 
L 396.886254 76.720448 
L 403.916396 70.252257 
L 405.422854 69.404595 
L 406.678237 69.046327 
L 407.682543 69.026133 
L 408.686849 69.233683 
L 409.691154 69.730441 
L 410.444384 70.238918 
L 411.699766 71.401228 
L 413.206225 73.089563 
L 416.470219 76.923254 
L 418.478831 78.887827 
L 419.98529 80.061691 
L 421.742825 81.026529 
L 423.249284 81.528589 
L 425.006819 81.742262 
L 426.262202 81.674206 
L 427.768661 81.399417 
L 430.279425 80.620864 
L 432.539114 79.940697 
L 434.798802 79.487003 
L 436.807414 79.305154 
L 439.569255 79.342732 
L 445.092937 79.52989 
L 447.854779 79.340846 
L 454.131691 78.760866 
L 457.646761 78.812565 
L 464.17475 78.904444 
L 470.953814 78.797053 
L 474.217809 78.770179 
L 475.975344 78.995925 
L 477.732879 79.496547 
L 481.24795 80.963304 
L 483.507638 81.754183 
L 485.265174 82.125625 
L 487.273785 82.3495 
L 490.035627 82.403668 
L 493.550697 82.273743 
L 497.818997 81.887836 
L 504.598062 81.306241 
L 511.628203 80.995209 
L 522.675568 81.017567 
L 532.718627 81.530847 
L 536.986927 81.972602 
L 545.272451 82.945725 
L 549.289675 83.087582 
L 562.596728 83.269256 
L 565.609646 83.642014 
L 568.87364 84.062767 
L 571.635481 84.219656 
L 575.150552 84.061727 
L 578.414546 83.700604 
L 588.959758 82.388921 
L 592.725905 82.275741 
L 597.998511 82.398665 
L 604.526499 82.434165 
L 608.794799 82.247233 
L 611.305564 81.952395 
L 616.327094 80.936822 
L 618.837858 80.688554 
L 621.5997 80.656028 
L 625.616923 80.859304 
L 630.638453 81.088631 
L 635.408906 81.096205 
L 654.490718 80.965563 
L 685.373124 81.287066 
L 702.446325 81.786123 
L 715.251225 82.159509 
L 720.272754 82.166545 
L 741.614255 81.834726 
L 753.665926 81.662258 
L 764.964367 81.601855 
L 784.046179 81.530777 
L 796.851079 81.470389 
L 817.690427 81.430935 
L 837.023315 81.322966 
L 861.879886 81.174865 
L 861.879886 81.174865 
" style="fill:none;stroke:#9467bd;stroke-linecap:square;stroke-width:1.5;"/>
   </g>
   <g id="line2d_22">
    <path clip-path="url(#paa6387484d)" d="M 109.152614 240.21403 
L 109.40369 236.651241 
L 109.654767 234.88603 
L 109.905843 234.012835 
L 110.15692 233.596309 
L 110.659072 233.290989 
L 111.412302 233.028971 
L 111.914455 232.528685 
L 112.165531 232.075591 
L 112.416608 231.35171 
L 112.918761 228.903563 
L 114.676296 217.789984 
L 115.178449 216.369056 
L 115.680602 215.616796 
L 116.684908 214.822946 
L 117.438137 214.446821 
L 117.94029 214.179271 
L 118.442443 213.598381 
L 119.446749 211.617586 
L 120.199979 209.432469 
L 120.953208 206.591937 
L 121.957514 204.204666 
L 122.710743 203.176415 
L 123.715049 201.999453 
L 123.966126 202.017495 
L 124.719355 201.489234 
L 124.970432 201.284631 
L 125.221508 200.909592 
L 125.472585 200.827181 
L 126.225814 200.236094 
L 126.727967 199.906958 
L 127.983349 198.291958 
L 128.485502 197.28037 
L 129.489808 196.276358 
L 130.243038 194.92452 
L 130.745191 195.091851 
L 131.247343 194.372283 
L 132.251649 193.497896 
L 132.753802 193.054559 
L 133.758108 192.56629 
L 134.260261 192.432591 
L 134.762414 192.253285 
L 135.013491 192.058469 
L 135.264567 192.019548 
L 135.515644 191.774377 
L 135.76672 191.95473 
L 136.268873 190.928448 
L 136.519949 190.675505 
L 136.771026 190.016634 
L 137.273179 189.374804 
L 138.026408 186.884925 
L 139.281791 182.461109 
L 139.532867 181.895029 
L 140.03502 179.979875 
L 140.286097 179.383524 
L 141.541479 174.074223 
L 141.792555 173.51334 
L 142.294708 171.913567 
L 142.545785 171.451179 
L 142.796861 170.69974 
L 143.550091 169.683466 
L 143.801167 169.470077 
L 144.052244 168.94422 
L 144.30332 168.796657 
L 145.05655 167.958099 
L 145.558703 167.816359 
L 146.060855 167.710158 
L 148.069467 167.773218 
L 148.57162 167.601281 
L 148.822697 167.359866 
L 149.32485 166.165944 
L 149.575926 165.395022 
L 149.827003 165.117212 
L 150.329156 163.611397 
L 151.082385 159.992599 
L 151.584538 157.841196 
L 153.090997 150.821513 
L 153.342073 150.401761 
L 153.844226 148.493001 
L 154.095303 147.983612 
L 154.848532 147.143178 
L 155.350685 146.538742 
L 155.601762 146.244798 
L 156.606067 145.715593 
L 157.610373 144.760712 
L 158.112526 144.819661 
L 158.363603 144.599636 
L 158.614679 144.556086 
L 158.865756 144.345255 
L 159.116832 143.953249 
L 159.367909 143.849664 
L 159.870062 143.173806 
L 160.874368 141.723324 
L 161.627597 141.599735 
L 161.878673 141.778383 
L 162.882979 141.783905 
L 163.636209 141.773473 
L 163.887285 141.831217 
L 164.389438 141.745693 
L 164.891591 141.804678 
L 165.644821 141.761306 
L 165.895897 141.661908 
L 166.649126 140.841272 
L 166.900203 140.424741 
L 167.904509 137.505644 
L 168.657738 132.693394 
L 169.159891 129.740746 
L 170.164197 122.681722 
L 171.921732 115.271029 
L 172.172809 114.822027 
L 172.926038 112.335483 
L 173.177115 110.987911 
L 174.181421 108.292707 
L 175.436803 107.337658 
L 175.938956 106.518149 
L 176.943262 106.109084 
L 177.194338 106.094609 
L 177.445415 105.950598 
L 178.449721 105.948591 
L 180.207256 105.891751 
L 180.709409 105.653978 
L 181.211562 105.278034 
L 181.713715 105.100457 
L 181.964791 105.228822 
L 182.718021 104.867241 
L 182.969097 104.843193 
L 183.220174 104.682624 
L 183.47125 104.663556 
L 183.973403 104.828502 
L 184.475556 104.664942 
L 188.743856 104.572212 
L 188.994933 104.483111 
L 189.497086 104.512086 
L 193.263233 103.756695 
L 193.514309 103.501788 
L 193.765386 103.564121 
L 195.271845 103.056385 
L 195.773998 102.744254 
L 196.025074 102.916808 
L 196.276151 102.674894 
L 197.280456 102.863747 
L 199.791221 102.483292 
L 201.29768 102.442968 
L 201.799833 102.339196 
L 202.804139 102.289501 
L 203.557368 102.079586 
L 204.310598 102.143534 
L 204.812751 102.211674 
L 205.817057 102.174039 
L 213.098274 102.215237 
L 215.860116 102.225039 
L 219.375186 102.140071 
L 220.379492 102.110654 
L 223.39241 102.109405 
L 226.405328 102.123175 
L 228.665016 102.157189 
L 229.920398 102.194538 
L 231.175781 102.15797 
L 236.95054 102.122065 
L 240.46561 102.099972 
L 295.953511 102.04919 
L 362.99093 101.944565 
L 367.761383 101.943423 
L 379.561977 102.109997 
L 395.881948 102.017976 
L 405.422854 101.851991 
L 417.223449 101.945979 
L 456.391379 101.938776 
L 472.460273 101.842623 
L 486.520556 101.94028 
L 494.303927 101.955852 
L 510.372821 101.911066 
L 861.879886 101.868598 
L 861.879886 101.868598 
" style="fill:none;stroke:#8c564b;stroke-linecap:square;stroke-width:1.5;"/>
   </g>
   <g id="line2d_23">
    <path clip-path="url(#paa6387484d)" d="M 109.152614 238.14977 
L 109.40369 233.528713 
L 109.654767 231.218619 
L 109.905843 230.078754 
L 110.15692 229.501732 
L 110.659072 229.068835 
L 112.165531 228.496104 
L 112.667684 227.804184 
L 113.169837 226.424587 
L 115.178449 219.336139 
L 115.680602 218.547969 
L 116.433831 217.987312 
L 117.187061 217.636146 
L 117.689214 217.396657 
L 118.191367 217.174477 
L 119.195673 216.01873 
L 119.446749 215.593848 
L 119.697826 215.392811 
L 120.451055 213.969758 
L 122.459667 210.176451 
L 123.212896 208.964073 
L 123.715049 207.849927 
L 123.966126 207.581952 
L 125.221508 204.891718 
L 125.974737 201.685894 
L 126.225814 200.963681 
L 126.727967 198.648906 
L 126.979043 197.960274 
L 127.481196 195.566035 
L 128.234426 192.865095 
L 128.485502 192.708682 
L 129.489808 191.61186 
L 131.247343 191.096755 
L 131.49842 191.098168 
L 132.502726 190.589011 
L 132.753802 190.676153 
L 133.758108 189.513926 
L 134.511338 187.828473 
L 135.515644 183.996266 
L 138.026408 169.387668 
L 138.528561 165.594907 
L 138.779638 163.506148 
L 139.030714 162.782119 
L 140.03502 157.02349 
L 140.537173 153.229131 
L 141.290402 146.986498 
L 142.043632 141.648206 
L 143.550091 133.273281 
L 144.805473 130.61673 
L 145.307626 129.660615 
L 145.809779 129.037768 
L 146.563008 129.038371 
L 147.065161 128.842631 
L 149.575926 128.688432 
L 150.078079 128.494988 
L 150.580232 128.387882 
L 152.086691 128.168599 
L 152.83992 127.898723 
L 153.090997 127.873892 
L 153.342073 127.641751 
L 153.844226 127.621513 
L 154.597456 127.268093 
L 154.848532 127.312668 
L 155.601762 127.055289 
L 155.852838 127.138493 
L 156.103915 126.860109 
L 156.354991 126.974135 
L 156.606067 126.943421 
L 156.857144 126.688638 
L 157.610373 125.423883 
L 157.86145 125.324914 
L 158.112526 124.814694 
L 159.116832 120.686459 
L 159.618985 117.956154 
L 160.121138 116.680881 
L 160.623291 113.899286 
L 161.125444 111.623619 
L 161.878673 107.168066 
L 162.12975 105.989174 
L 162.380826 103.84013 
L 162.631903 102.792153 
L 162.882979 100.435869 
L 163.636209 96.688281 
L 164.138362 95.656234 
L 164.640515 94.908816 
L 165.142668 94.716901 
L 165.895897 94.561952 
L 166.146974 94.515675 
L 166.39805 94.04435 
L 167.151279 93.463135 
L 167.653432 91.80265 
L 168.406662 89.872443 
L 168.657738 89.63396 
L 169.159891 88.766321 
L 169.662044 88.509632 
L 169.913121 88.277203 
L 170.917427 88.088229 
L 172.172809 87.939969 
L 172.674962 87.355397 
L 172.926038 87.328933 
L 173.177115 86.789089 
L 173.679268 86.229406 
L 174.181421 84.675223 
L 174.432497 84.475489 
L 174.93465 83.660659 
L 175.436803 83.172656 
L 175.68788 82.799855 
L 176.190033 82.570525 
L 176.441109 82.648691 
L 176.943262 82.233853 
L 177.947568 82.331953 
L 179.705103 82.274627 
L 180.709409 81.749028 
L 181.211562 81.786726 
L 181.713715 81.705643 
L 182.718021 81.64345 
L 183.220174 81.494418 
L 183.47125 81.439943 
L 183.722327 81.510738 
L 183.973403 81.048566 
L 184.22448 80.100249 
L 184.475556 79.657629 
L 185.228786 77.617743 
L 185.982015 74.126472 
L 186.233092 74.051032 
L 186.735244 72.931663 
L 187.237397 72.119397 
L 188.241703 70.483164 
L 188.49278 70.532768 
L 189.497086 70.127149 
L 190.501392 70.158889 
L 192.76108 69.639964 
L 194.267539 69.562629 
L 194.769692 69.069878 
L 195.020768 69.117514 
L 195.271845 68.716402 
L 195.522921 68.616185 
L 195.773998 68.354805 
L 196.276151 67.296907 
L 196.778303 65.820662 
L 197.531533 64.289306 
L 197.782609 63.684032 
L 198.033686 63.409987 
L 198.284762 62.831829 
L 199.037992 62.30236 
L 199.540145 61.368514 
L 201.548757 60.069049 
L 202.301986 60.019175 
L 202.553062 59.856578 
L 202.804139 59.871541 
L 203.055215 59.689539 
L 204.310598 59.584488 
L 205.063827 59.286251 
L 205.56598 59.262937 
L 205.817057 59.223159 
L 206.068133 59.329249 
L 207.072439 58.978273 
L 207.323515 58.811646 
L 207.825668 58.808502 
L 208.076745 58.539325 
L 208.578898 58.497761 
L 209.081051 58.367291 
L 209.583204 58.37616 
L 210.085357 57.933274 
L 210.58751 57.784471 
L 211.089663 57.634445 
L 211.340739 57.799148 
L 211.591816 57.738433 
L 212.093968 57.93802 
L 212.596121 57.774671 
L 213.349351 57.753948 
L 215.860116 57.907911 
L 217.115498 57.754342 
L 218.37088 57.700623 
L 224.647792 57.652886 
L 226.154251 57.516267 
L 226.405328 57.444904 
L 226.907481 57.516855 
L 227.409633 57.430797 
L 227.66071 57.360705 
L 227.911786 57.504797 
L 228.413939 57.470112 
L 228.665016 57.2759 
L 229.920398 57.20088 
L 230.422551 57.064843 
L 232.180086 56.956148 
L 232.933316 56.914153 
L 235.193004 56.91452 
L 235.946234 56.893134 
L 243.227451 56.883649 
L 244.73391 56.88092 
L 246.993599 56.909449 
L 255.279122 56.839623 
L 261.304958 56.819472 
L 267.079717 56.800278 
L 279.63354 56.815634 
L 281.139999 56.776039 
L 282.646458 56.778903 
L 286.914758 56.814853 
L 290.680905 56.813115 
L 296.706741 56.808779 
L 325.831612 56.803853 
L 362.739854 56.892828 
L 374.038295 57.127831 
L 388.349654 57.166756 
L 411.197613 56.665273 
L 419.734213 56.562003 
L 452.625232 56.575071 
L 556.06874 56.647772 
L 697.173719 56.795289 
L 712.991537 56.84859 
L 731.822272 56.904989 
L 800.617226 56.861 
L 848.07068 56.90439 
L 861.879886 56.80911 
L 861.879886 56.80911 
" style="fill:none;stroke:#e377c2;stroke-linecap:square;stroke-width:1.5;"/>
   </g>
   <g id="line2d_24">
    <path clip-path="url(#paa6387484d)" d="M 109.152614 238.338052 
L 109.40369 233.80182 
L 109.654767 231.527487 
L 109.905843 230.381736 
L 110.407996 229.510252 
L 110.910149 229.25772 
L 111.914455 228.950108 
L 112.416608 228.556476 
L 112.918761 227.679431 
L 113.420914 226.084412 
L 114.676296 221.004106 
L 115.178449 219.833397 
L 115.680602 219.206003 
L 116.433831 218.639744 
L 117.94029 217.983418 
L 119.446749 216.727371 
L 119.948902 215.722302 
L 120.199979 214.998107 
L 120.953208 213.831468 
L 123.966126 208.192948 
L 124.217202 207.909596 
L 124.970432 206.273628 
L 125.723661 205.676198 
L 126.979043 202.333686 
L 127.481196 200.883387 
L 128.234426 197.438775 
L 128.736579 195.795764 
L 128.987655 195.673146 
L 129.489808 193.813811 
L 129.740885 193.4215 
L 129.991961 192.528429 
L 130.243038 192.265335 
L 130.996267 190.394917 
L 131.49842 189.964753 
L 132.000573 189.692327 
L 132.251649 189.263719 
L 132.753802 189.145318 
L 133.004879 189.038434 
L 133.255955 188.78584 
L 134.260261 188.732274 
L 135.264567 188.555522 
L 135.76672 188.542882 
L 136.268873 188.374306 
L 136.771026 188.376653 
L 137.022102 188.462041 
L 137.775332 188.115006 
L 138.026408 188.126555 
L 138.277485 187.986444 
L 138.528561 188.082998 
L 139.030714 187.708764 
L 139.783944 187.607962 
L 140.286097 187.363088 
L 140.537173 187.144372 
L 140.78825 187.127194 
L 141.541479 186.633573 
L 142.043632 186.543323 
L 142.294708 186.6089 
L 144.554397 185.538463 
L 145.307626 185.502114 
L 145.809779 184.940263 
L 146.060855 184.9141 
L 148.320544 180.845033 
L 148.57162 180.062565 
L 149.32485 179.307976 
L 151.333461 175.414854 
L 152.086691 174.428134 
L 153.342073 172.226459 
L 153.844226 170.797098 
L 154.095303 170.452669 
L 154.597456 169.453316 
L 155.099609 168.89628 
L 155.350685 168.328106 
L 155.601762 168.130746 
L 155.852838 167.149226 
L 156.354991 166.228064 
L 156.606067 166.356737 
L 157.10822 165.475128 
L 158.614679 163.914374 
L 162.380826 163.71708 
L 163.636209 163.887586 
L 164.640515 163.863816 
L 164.891591 163.609963 
L 165.142668 163.524169 
L 165.644821 162.847455 
L 166.146974 161.175512 
L 166.39805 160.821952 
L 166.900203 159.14106 
L 167.402356 157.990079 
L 168.406662 155.061525 
L 168.657738 155.042078 
L 168.908815 154.777756 
L 169.159891 154.013663 
L 169.913121 153.419027 
L 170.164197 153.339081 
L 170.415274 153.093271 
L 171.419579 152.825703 
L 172.674962 152.687939 
L 175.938956 152.729801 
L 176.441109 152.322112 
L 176.692185 152.290712 
L 177.696491 151.058944 
L 178.449721 149.391906 
L 178.951874 147.930067 
L 179.454027 147.197941 
L 179.705103 147.146034 
L 180.458333 146.060364 
L 180.709409 146.012968 
L 180.960486 145.80331 
L 182.466944 145.579582 
L 182.969097 144.621937 
L 183.220174 144.682877 
L 183.47125 144.274321 
L 183.973403 141.520839 
L 184.22448 140.886498 
L 184.475556 139.286914 
L 184.977709 133.749494 
L 185.730939 128.897572 
L 185.982015 126.518013 
L 186.986321 121.51914 
L 187.237397 120.9853 
L 187.488474 121.091001 
L 187.73955 120.640844 
L 187.990627 119.932199 
L 188.241703 120.026356 
L 188.49278 119.666884 
L 188.994933 119.591564 
L 189.748162 119.526033 
L 189.999239 119.369771 
L 190.250315 119.426281 
L 191.254621 119.062048 
L 191.756774 118.513546 
L 192.258927 118.483033 
L 192.76108 118.404792 
L 193.263233 118.302098 
L 194.016462 117.875964 
L 194.267539 117.699685 
L 194.518615 117.350739 
L 194.769692 116.773337 
L 195.020768 115.649719 
L 195.522921 114.604815 
L 195.773998 114.557682 
L 196.778303 112.014019 
L 197.02938 111.918072 
L 197.531533 111.329515 
L 197.782609 110.961243 
L 198.033686 111.168213 
L 198.535839 110.645743 
L 198.786915 110.649037 
L 199.289068 110.419331 
L 202.301986 110.184005 
L 202.553062 110.037828 
L 203.055215 110.006304 
L 204.310598 109.947756 
L 204.812751 109.176454 
L 205.063827 108.97466 
L 205.56598 107.412072 
L 205.817057 106.891006 
L 206.068133 106.64044 
L 206.570286 105.70472 
L 206.821362 104.845068 
L 207.072439 104.716796 
L 207.323515 104.160865 
L 208.829974 99.494269 
L 209.081051 98.703903 
L 209.583204 96.335935 
L 209.83428 96.00862 
L 210.085357 94.960619 
L 210.336433 94.582222 
L 210.838586 93.25552 
L 211.089663 93.110602 
L 211.340739 92.816406 
L 211.591816 92.920652 
L 212.093968 92.605905 
L 212.847198 92.69783 
L 214.353657 92.773728 
L 214.604733 92.84225 
L 216.111192 91.983021 
L 216.864422 91.102854 
L 217.366574 90.881959 
L 217.617651 90.718149 
L 218.119804 90.719786 
L 218.37088 90.464973 
L 219.375186 90.874668 
L 219.626263 90.675635 
L 220.128416 90.627544 
L 220.379492 90.775643 
L 220.881645 90.312697 
L 221.132722 90.039869 
L 221.383798 90.198419 
L 221.885951 89.629504 
L 222.137027 89.374279 
L 222.63918 88.521845 
L 223.141333 88.344114 
L 223.39241 88.243242 
L 223.894563 87.255537 
L 224.145639 87.329469 
L 224.396716 86.794054 
L 224.898869 86.696339 
L 225.401022 85.45401 
L 225.652098 85.111324 
L 226.154251 84.83228 
L 226.405328 84.548329 
L 226.907481 83.481065 
L 227.158557 83.509214 
L 227.409633 83.306119 
L 227.66071 83.279487 
L 228.413939 82.629723 
L 228.665016 82.558353 
L 229.418245 82.678952 
L 232.682239 82.683853 
L 233.184392 82.611718 
L 233.435469 82.618789 
L 233.937622 82.266907 
L 234.188698 81.900845 
L 234.439775 81.836102 
L 234.690851 81.054663 
L 234.941928 81.225435 
L 235.193004 81.134843 
L 235.695157 81.390772 
L 235.946234 81.214427 
L 236.19731 81.225048 
L 236.95054 79.720627 
L 237.703769 78.842015 
L 237.954845 78.635417 
L 238.205922 78.802127 
L 238.959151 78.55393 
L 239.461304 78.653012 
L 240.967763 78.585095 
L 242.725298 78.509253 
L 243.227451 78.326311 
L 243.478528 78.417706 
L 243.980681 78.206762 
L 244.231757 78.327771 
L 244.482834 78.231711 
L 244.73391 78.014421 
L 246.993599 77.404021 
L 247.997904 76.989225 
L 248.248981 77.047941 
L 248.500057 76.966898 
L 248.751134 76.725507 
L 249.00221 76.780684 
L 249.504363 76.660656 
L 249.75544 76.772241 
L 250.006516 76.729282 
L 250.508669 76.509241 
L 251.764052 76.283771 
L 253.27051 76.067352 
L 253.521587 76.166456 
L 254.525893 75.843799 
L 254.776969 75.629097 
L 255.028046 75.669362 
L 255.279122 75.558697 
L 255.530199 75.619567 
L 255.781275 75.409177 
L 257.036658 75.218996 
L 257.53881 75.046623 
L 258.543116 74.926441 
L 262.058187 74.728371 
L 262.309264 74.618797 
L 262.56034 74.698416 
L 263.062493 74.61177 
L 263.815722 74.829081 
L 264.820028 74.752368 
L 267.330793 74.683667 
L 268.586175 73.882753 
L 268.837252 74.026156 
L 269.339405 73.643698 
L 270.092634 73.728518 
L 270.343711 73.416586 
L 270.594787 73.287559 
L 271.348017 73.2692 
L 271.599093 73.201253 
L 272.101246 72.727928 
L 272.603399 72.720758 
L 273.858781 72.616903 
L 277.122776 72.665039 
L 277.624929 72.260249 
L 278.378158 72.127933 
L 278.629234 71.916157 
L 279.131387 71.852421 
L 279.382464 71.643344 
L 279.884617 71.824197 
L 280.38677 71.520115 
L 281.642152 71.464455 
L 283.399687 71.434217 
L 284.152917 71.437208 
L 286.663682 71.199869 
L 287.919064 71.121372 
L 289.927676 71.018014 
L 290.178752 71.002146 
L 290.429829 70.874044 
L 290.931982 70.836079 
L 292.187364 70.258012 
L 292.689517 70.081747 
L 292.940594 70.016048 
L 293.442746 69.718748 
L 293.693823 69.770244 
L 293.944899 69.948753 
L 294.447052 69.844354 
L 294.698129 70.036579 
L 294.949205 69.827527 
L 295.200282 69.847969 
L 295.451358 69.723345 
L 296.455664 69.729864 
L 299.468582 69.598759 
L 299.719658 69.51818 
L 300.221811 69.57267 
L 300.472888 69.494451 
L 301.226117 69.573412 
L 301.72827 69.565491 
L 302.4815 69.6055 
L 303.736882 69.669414 
L 305.745494 69.634844 
L 310.013794 69.648426 
L 311.269176 69.651378 
L 313.528864 69.656481 
L 314.53317 69.600566 
L 317.043935 69.60434 
L 331.606371 69.60171 
L 333.11283 69.623657 
L 334.870365 69.629291 
L 341.147277 69.650143 
L 352.696795 69.690566 
L 359.726936 69.664017 
L 362.739854 69.701362 
L 374.289371 69.812436 
L 377.804442 70.152704 
L 382.323819 70.586371 
L 385.838889 70.61971 
L 388.098578 70.76434 
L 390.358266 71.156222 
L 393.873337 72.001502 
L 397.137331 72.683372 
L 400.401325 73.096289 
L 403.665319 73.273774 
L 411.950843 73.557922 
L 418.227755 74.268328 
L 421.491749 74.158863 
L 424.25359 74.185725 
L 427.768661 74.526492 
L 431.534808 74.842188 
L 434.547726 74.860865 
L 438.564949 74.628977 
L 450.61662 73.816447 
L 453.127385 73.985366 
L 456.642455 74.54008 
L 460.157526 75.091956 
L 462.417214 75.232552 
L 464.425826 75.142162 
L 466.183361 74.864309 
L 468.44305 74.251444 
L 471.455967 73.155417 
L 475.473191 71.685111 
L 477.481803 71.131494 
L 479.741491 70.722154 
L 482.001179 70.551779 
L 490.035627 70.224767 
L 495.057156 69.808048 
L 499.07438 69.740852 
L 546.527833 69.916802 
L 568.87364 69.844457 
L 578.163469 70.230419 
L 584.189305 70.12945 
L 590.717293 70.029878 
L 594.232364 70.222463 
L 599.756046 70.523778 
L 605.028652 70.451774 
L 617.582476 70.21214 
L 625.868 70.284446 
L 644.196582 70.627296 
L 674.576836 70.605083 
L 685.875277 70.620677 
L 695.918336 70.812408 
L 706.463548 70.645386 
L 714.497995 70.609202 
L 721.025984 70.563312 
L 725.294284 70.231125 
L 730.817966 69.8235 
L 735.839496 69.715499 
L 758.687455 69.500683 
L 765.968673 69.237559 
L 771.492355 69.321789 
L 778.522497 69.384688 
L 790.072014 69.18911 
L 805.638756 68.975415 
L 818.694733 68.950255 
L 834.512551 68.71038 
L 847.317451 68.3585 
L 861.879886 67.903029 
L 861.879886 67.903029 
" style="fill:none;stroke:#7f7f7f;stroke-linecap:square;stroke-width:1.5;"/>
   </g>
   <g id="line2d_25">
    <path clip-path="url(#paa6387484d)" d="M 109.152614 239.147422 
L 109.40369 235.009965 
L 109.654767 232.936103 
L 109.905843 231.891893 
L 110.407996 231.084872 
L 110.910149 230.840213 
L 112.165531 230.439068 
L 112.667684 229.966097 
L 113.169837 228.914091 
L 113.67199 226.803076 
L 115.429526 217.545942 
L 116.182755 215.875453 
L 116.935984 215.257698 
L 117.438137 214.974403 
L 119.446749 214.483517 
L 119.697826 214.319284 
L 120.199979 213.772051 
L 120.451055 213.606289 
L 121.957514 211.319511 
L 122.20859 210.501934 
L 122.96182 209.155027 
L 123.715049 206.940069 
L 123.966126 206.834918 
L 124.217202 206.495485 
L 124.468279 205.748504 
L 124.719355 205.454168 
L 125.221508 204.152716 
L 125.723661 203.327794 
L 126.225814 203.086123 
L 126.47689 203.086404 
L 126.979043 202.833867 
L 127.23012 202.518063 
L 127.481196 202.45614 
L 127.732273 202.642466 
L 130.243038 202.081256 
L 130.996267 201.50148 
L 131.749496 201.131541 
L 132.251649 200.633067 
L 133.004879 199.567255 
L 133.507032 199.193382 
L 134.009185 199.088821 
L 134.511338 198.280956 
L 134.762414 198.265383 
L 135.013491 197.818098 
L 135.264567 197.744429 
L 135.76672 196.917291 
L 136.017796 196.92323 
L 138.528561 193.717819 
L 139.281791 192.739169 
L 139.532867 191.910179 
L 139.783944 191.701785 
L 140.537173 190.198757 
L 140.78825 189.993873 
L 141.290402 189.402369 
L 141.792555 188.935784 
L 142.043632 188.842492 
L 142.294708 188.533217 
L 142.796861 188.50763 
L 144.052244 188.503112 
L 144.554397 188.539411 
L 145.558703 188.51052 
L 146.563008 188.187692 
L 147.316238 187.962458 
L 148.57162 186.236129 
L 148.822697 185.682458 
L 149.073773 185.526305 
L 149.575926 184.535296 
L 150.329156 182.541371 
L 151.835614 179.381396 
L 152.337767 178.530438 
L 152.588844 177.967656 
L 152.83992 177.75012 
L 153.090997 177.722152 
L 154.597456 174.969775 
L 155.099609 174.866347 
L 155.350685 174.705642 
L 155.852838 174.70187 
L 156.354991 174.579261 
L 159.116832 174.149808 
L 159.870062 173.61607 
L 160.372215 172.559654 
L 160.623291 172.375863 
L 160.874368 172.011003 
L 161.37652 170.840667 
L 161.627597 170.403177 
L 163.385132 164.650477 
L 163.636209 164.32799 
L 164.389438 161.866687 
L 164.891591 160.704854 
L 165.393744 160.348649 
L 165.644821 159.674938 
L 166.146974 159.034817 
L 166.649126 158.381376 
L 167.402356 157.542766 
L 167.904509 157.491124 
L 169.662044 157.442201 
L 173.679268 157.473062 
L 173.930344 157.448678 
L 174.432497 157.632368 
L 174.683574 157.604143 
L 175.185727 157.385276 
L 175.938956 157.185838 
L 176.692185 156.78784 
L 176.943262 156.535908 
L 177.445415 156.475229 
L 177.696491 156.299052 
L 178.951874 156.252516 
L 179.454027 156.291656 
L 179.705103 156.31919 
L 179.95618 156.230565 
L 180.960486 156.389586 
L 181.713715 155.825877 
L 181.964791 155.909399 
L 182.215868 155.655238 
L 182.466944 155.226537 
L 182.718021 154.476802 
L 182.969097 154.460876 
L 183.47125 153.117509 
L 183.973403 152.339786 
L 184.22448 151.988326 
L 184.726633 150.021368 
L 185.479862 148.107319 
L 185.730939 147.168442 
L 185.982015 146.757881 
L 186.484168 145.241926 
L 187.237397 143.640614 
L 187.488474 142.83522 
L 187.73955 142.667597 
L 188.49278 141.181717 
L 188.994933 140.65964 
L 189.999239 140.278424 
L 190.250315 140.442802 
L 191.003545 140.189726 
L 191.505698 140.275431 
L 193.012156 140.277188 
L 194.016462 140.336225 
L 194.518615 140.277525 
L 195.773998 139.673216 
L 196.025074 139.840629 
L 196.276151 139.518075 
L 196.527227 139.502719 
L 196.778303 139.277785 
L 197.02938 138.903129 
L 197.280456 138.832503 
L 197.782609 137.979777 
L 198.033686 137.373045 
L 198.284762 136.342862 
L 198.535839 135.985184 
L 198.786915 135.162163 
L 199.037992 133.431208 
L 200.293374 130.034312 
L 200.544451 129.648292 
L 201.29768 129.155416 
L 202.050909 127.533032 
L 202.301986 127.201941 
L 202.553062 127.112236 
L 203.055215 126.612869 
L 203.306292 126.407563 
L 203.557368 126.44971 
L 203.808445 126.084424 
L 204.310598 125.971754 
L 204.812751 126.178625 
L 205.817057 126.191734 
L 206.068133 125.979254 
L 206.31921 125.56773 
L 207.574592 124.974161 
L 207.825668 124.689173 
L 208.076745 124.822251 
L 208.327821 124.406233 
L 209.081051 124.357044 
L 209.332127 124.136016 
L 209.583204 124.286274 
L 210.085357 124.226136 
L 211.089663 123.439616 
L 211.340739 123.453427 
L 211.591816 123.264378 
L 211.842892 123.291342 
L 212.345045 123.033166 
L 212.596121 123.100217 
L 213.098274 122.712096 
L 213.600427 122.727612 
L 215.609039 122.287403 
L 216.111192 122.367566 
L 217.617651 122.055926 
L 218.119804 121.664509 
L 218.37088 120.974027 
L 218.621957 121.091631 
L 219.375186 118.733295 
L 220.128416 114.726006 
L 220.379492 113.765809 
L 220.881645 110.83002 
L 221.634875 108.291259 
L 222.388104 104.849432 
L 223.141333 101.130953 
L 223.643486 98.846505 
L 223.894563 99.254427 
L 225.149945 93.959745 
L 225.652098 93.211367 
L 225.903175 92.622585 
L 226.154251 92.602349 
L 226.656404 91.54714 
L 226.907481 91.628495 
L 227.158557 91.498154 
L 227.409633 91.176351 
L 227.66071 91.468392 
L 227.911786 91.437593 
L 228.162863 91.591685 
L 228.413939 91.570176 
L 229.669322 90.869575 
L 230.171475 90.808862 
L 230.422551 90.670976 
L 231.175781 90.691484 
L 233.435469 90.340634 
L 233.686545 90.675304 
L 234.690851 90.305933 
L 234.941928 90.317801 
L 235.444081 89.964698 
L 235.695157 89.970859 
L 236.19731 89.620925 
L 236.448387 89.308027 
L 236.95054 89.362725 
L 237.452692 89.348752 
L 237.703769 89.532329 
L 238.205922 89.2698 
L 238.456998 89.412131 
L 238.708075 89.006647 
L 239.210228 88.763527 
L 239.712381 87.859571 
L 239.963457 87.755814 
L 240.214534 87.79907 
L 240.46561 87.607489 
L 240.967763 87.744071 
L 241.21884 87.466765 
L 241.469916 87.467376 
L 241.720993 87.009042 
L 241.972069 87.336116 
L 242.725298 86.794309 
L 243.227451 86.521175 
L 243.478528 86.332189 
L 243.980681 86.370972 
L 244.231757 86.21115 
L 244.73391 86.231805 
L 248.500057 86.089699 
L 250.257593 85.436495 
L 250.508669 85.402092 
L 251.010822 85.559389 
L 251.261899 85.39088 
L 251.512975 84.977161 
L 251.764052 85.008788 
L 252.266205 84.772441 
L 253.27051 84.712539 
L 254.02374 84.172029 
L 254.525893 84.406405 
L 256.283428 84.254449 
L 256.534505 84.035409 
L 257.287734 84.256528 
L 258.543116 84.074536 
L 259.045269 84.030514 
L 260.802805 84.104765 
L 261.556034 83.873188 
L 261.807111 83.706286 
L 262.058187 83.844108 
L 263.313569 83.549551 
L 263.564646 83.353065 
L 264.066799 83.530986 
L 264.317875 83.324379 
L 264.820028 83.101702 
L 265.071105 82.786904 
L 265.573258 83.098508 
L 266.326487 82.615106 
L 266.82864 82.058678 
L 267.079717 81.909518 
L 267.330793 81.997669 
L 267.58187 82.222386 
L 268.837252 82.036918 
L 269.088328 82.008012 
L 269.339405 81.743556 
L 269.841558 81.698403 
L 270.845864 81.873061 
L 271.09694 82.008654 
L 271.599093 81.822645 
L 271.85017 81.962226 
L 272.101246 81.795748 
L 275.114164 81.738787 
L 276.620623 81.742583 
L 280.888923 81.709765 
L 281.391076 81.801967 
L 281.893229 81.743307 
L 282.395382 81.743221 
L 283.650764 81.745341 
L 285.157223 81.681298 
L 286.161529 81.498466 
L 286.663682 81.570839 
L 287.416911 81.457643 
L 288.17014 81.449744 
L 291.685211 81.354484 
L 292.438441 81.3578 
L 293.19167 81.341546 
L 293.693823 81.250082 
L 294.195976 81.147103 
L 294.949205 81.206571 
L 295.702435 81.082391 
L 298.213199 80.97085 
L 298.966429 80.707093 
L 300.221811 80.626363 
L 302.732576 80.489096 
L 303.736882 80.456081 
L 306.7498 80.301578 
L 308.507335 80.317467 
L 309.260564 80.325136 
L 310.26487 80.190694 
L 311.269176 80.185561 
L 314.282094 80.149117 
L 319.5547 80.157735 
L 329.095606 80.053493 
L 329.848835 80.001241 
L 332.3596 79.969083 
L 333.363906 79.935168 
L 334.870365 79.976717 
L 335.623594 79.942349 
L 336.878977 79.989968 
L 337.38113 79.930882 
L 339.640818 79.906561 
L 340.142971 79.832003 
L 340.645124 79.894898 
L 342.151583 79.898616 
L 343.658041 79.8887 
L 344.662347 79.83396 
L 358.973706 79.754152 
L 359.726936 79.759288 
L 361.484471 81.842246 
L 363.242007 83.463798 
L 364.999542 84.696075 
L 366.506001 85.50499 
L 368.01246 86.113401 
L 370.021071 86.667514 
L 371.52753 86.896257 
L 373.536142 86.951157 
L 377.553366 86.804411 
L 381.570589 86.756722 
L 384.583507 86.904737 
L 387.345348 87.273442 
L 392.617954 88.043177 
L 395.128719 88.092 
L 397.388407 87.968142 
L 400.150248 87.572796 
L 402.15886 87.071928 
L 403.665319 86.467829 
L 405.171778 85.606879 
L 406.929313 84.232121 
L 412.452996 79.444107 
L 413.959455 78.596205 
L 415.71699 77.957947 
L 417.474525 77.673343 
L 419.483137 77.62617 
L 422.747131 77.879689 
L 427.015431 78.20629 
L 431.283731 78.354005 
L 446.34832 78.721467 
L 450.61662 79.132689 
L 455.889226 79.623081 
L 459.655373 79.674197 
L 474.971038 79.371668 
L 478.737185 78.908476 
L 481.750103 78.604018 
L 483.758715 78.599919 
L 486.018403 78.82273 
L 495.308233 80.070728 
L 498.823303 80.133892 
L 505.351292 79.955449 
L 510.121745 79.98809 
L 531.965398 80.371198 
L 549.540751 80.350276 
L 556.570892 80.510434 
L 604.777576 80.528059 
L 617.080323 80.236767 
L 625.365847 79.605336 
L 629.885223 79.579994 
L 635.157829 79.546763 
L 642.690123 79.328438 
L 648.967035 79.582609 
L 655.997177 79.795056 
L 662.776242 79.736701 
L 672.066071 79.677273 
L 686.879583 79.624482 
L 696.169413 79.584064 
L 704.957089 79.436732 
L 712.238307 79.417313 
L 717.259837 79.589667 
L 729.81366 80.049705 
L 739.354566 79.916894 
L 753.665926 79.836396 
L 777.267114 79.592104 
L 792.080626 79.451457 
L 826.980256 79.452126 
L 861.879886 79.547742 
L 861.879886 79.547742 
" style="fill:none;stroke:#bcbd22;stroke-linecap:square;stroke-width:1.5;"/>
   </g>
   <g id="line2d_26">
    <path clip-path="url(#paa6387484d)" d="M 109.152614 240.429957 
L 109.40369 236.960873 
L 109.654767 235.253351 
L 109.905843 234.409852 
L 110.407996 233.810613 
L 111.663378 233.16612 
L 111.914455 232.813934 
L 112.165531 232.245822 
L 112.416608 231.387119 
L 112.918761 228.494356 
L 114.42522 217.512006 
L 114.927373 215.685187 
L 115.429526 214.436003 
L 115.931678 213.625854 
L 116.684908 212.773029 
L 117.438137 211.964319 
L 118.191367 210.522402 
L 118.944596 208.371243 
L 119.948902 204.544442 
L 120.953208 200.708761 
L 121.455361 198.880411 
L 122.459667 196.960589 
L 122.710743 196.661685 
L 123.212896 196.456056 
L 123.715049 195.850919 
L 124.719355 194.835586 
L 125.974737 192.915179 
L 126.47689 191.787034 
L 127.23012 190.603334 
L 127.732273 189.519538 
L 129.489808 186.59972 
L 129.740885 186.367131 
L 130.243038 185.615415 
L 130.494114 185.472131 
L 130.745191 185.185545 
L 130.996267 185.183169 
L 131.247343 184.931777 
L 131.49842 184.873308 
L 134.511338 182.717963 
L 135.76672 180.322651 
L 136.017796 179.923786 
L 136.268873 179.777642 
L 136.771026 178.740641 
L 137.273179 177.768107 
L 138.528561 175.790271 
L 138.779638 175.530019 
L 139.030714 174.620841 
L 139.281791 174.36443 
L 139.783944 173.530363 
L 140.78825 172.42992 
L 141.290402 171.443565 
L 141.792555 170.488712 
L 142.043632 170.383384 
L 142.796861 169.372911 
L 143.801167 168.285513 
L 144.052244 168.36343 
L 145.307626 167.391258 
L 145.558703 167.373439 
L 146.060855 166.809571 
L 146.814085 166.058933 
L 147.065161 165.852343 
L 147.316238 165.809341 
L 148.57162 164.989273 
L 149.073773 164.781052 
L 150.580232 163.496379 
L 150.831309 163.345962 
L 151.333461 163.248942 
L 151.584538 163.064833 
L 152.588844 161.72847 
L 153.342073 161.350142 
L 153.59315 160.816584 
L 153.844226 160.545593 
L 154.095303 159.960624 
L 155.350685 158.757032 
L 155.852838 157.846421 
L 156.103915 157.691557 
L 157.359297 155.554664 
L 157.86145 154.066568 
L 158.614679 152.685845 
L 158.865756 152.002275 
L 159.116832 150.987023 
L 160.874368 147.884988 
L 161.125444 147.810949 
L 161.37652 147.069364 
L 162.380826 145.521655 
L 162.631903 145.718961 
L 163.134056 144.928425 
L 163.636209 144.626338 
L 163.887285 144.248568 
L 164.138362 144.208047 
L 164.640515 143.358402 
L 164.891591 143.468754 
L 165.393744 143.237023 
L 165.644821 143.132951 
L 165.895897 143.176346 
L 166.146974 142.975447 
L 166.39805 142.289135 
L 166.649126 142.014704 
L 166.900203 141.415088 
L 167.151279 141.145059 
L 167.402356 140.357731 
L 167.653432 140.0141 
L 167.904509 139.972869 
L 169.159891 137.418624 
L 170.164197 133.874686 
L 170.415274 132.463309 
L 170.917427 131.817272 
L 171.419579 130.225427 
L 171.670656 129.989338 
L 171.921732 129.324449 
L 172.172809 129.29626 
L 172.674962 128.316836 
L 173.679268 127.449334 
L 174.181421 127.229055 
L 174.93465 127.007181 
L 175.436803 126.894475 
L 175.68788 126.961139 
L 176.692185 126.736597 
L 176.943262 126.761393 
L 177.194338 126.659545 
L 177.696491 126.656429 
L 178.198644 126.4542 
L 178.449721 126.287944 
L 178.700797 126.261324 
L 178.951874 126.104677 
L 179.20295 126.175975 
L 179.454027 125.890343 
L 179.705103 125.79543 
L 180.207256 124.916175 
L 180.709409 124.117252 
L 181.713715 123.866199 
L 182.215868 123.28104 
L 182.718021 122.352063 
L 183.220174 121.974732 
L 183.47125 122.027751 
L 183.722327 121.800594 
L 183.973403 121.789789 
L 184.475556 121.548411 
L 184.726633 121.573952 
L 184.977709 121.422329 
L 185.479862 120.899605 
L 185.730939 121.025492 
L 185.982015 120.787943 
L 186.233092 120.383536 
L 186.484168 119.42544 
L 186.735244 119.045102 
L 186.986321 118.223081 
L 187.237397 117.877779 
L 187.73955 116.18451 
L 188.241703 114.568041 
L 188.49278 114.542829 
L 188.994933 113.303481 
L 189.246009 113.273753 
L 189.748162 112.83534 
L 190.250315 112.489966 
L 190.752468 111.90283 
L 191.254621 111.885509 
L 191.756774 111.716001 
L 192.00785 111.906397 
L 192.76108 111.594134 
L 193.514309 111.728068 
L 194.016462 111.518804 
L 198.284762 111.567213 
L 198.535839 111.36814 
L 199.037992 111.365855 
L 199.289068 111.122217 
L 199.540145 111.047186 
L 200.042298 110.717487 
L 200.795527 110.684164 
L 201.29768 110.649204 
L 201.548757 110.616786 
L 202.050909 110.772999 
L 203.557368 110.902781 
L 204.059521 110.839574 
L 219.12411 110.633459 
L 225.903175 110.64752 
L 234.439775 110.63491 
L 365.250618 110.557238 
L 370.021071 110.604074 
L 378.055519 110.756378 
L 403.665319 110.706181 
L 411.44869 110.742493 
L 424.504667 110.74116 
L 470.200585 110.720418 
L 503.593756 110.641046 
L 572.38871 110.654815 
L 584.189305 110.529049 
L 861.879886 110.556229 
L 861.879886 110.556229 
" style="fill:none;stroke:#17becf;stroke-linecap:square;stroke-width:1.5;"/>
   </g>
   <g id="patch_3">
    <path d="M 71.51625 250.313594 
L 71.51625 32.873594 
" style="fill:none;stroke:#000000;stroke-linecap:square;stroke-linejoin:miter;stroke-width:0.8;"/>
   </g>
   <g id="patch_4">
    <path d="M 899.51625 250.313594 
L 899.51625 32.873594 
" style="fill:none;stroke:#000000;stroke-linecap:square;stroke-linejoin:miter;stroke-width:0.8;"/>
   </g>
   <g id="patch_5">
    <path d="M 71.51625 250.313594 
L 899.51625 250.313594 
" style="fill:none;stroke:#000000;stroke-linecap:square;stroke-linejoin:miter;stroke-width:0.8;"/>
   </g>
   <g id="patch_6">
    <path d="M 71.51625 32.873594 
L 899.51625 32.873594 
" style="fill:none;stroke:#000000;stroke-linecap:square;stroke-linejoin:miter;stroke-width:0.8;"/>
   </g>
   <g id="legend_1">
    <g id="patch_7">
     <path d="M 946.11625 151.007031 
L 1153.584062 151.007031 
Q 1158.784062 151.007031 1158.784062 145.807031 
L 1158.784062 38.073594 
Q 1158.784062 32.873594 1153.584062 32.873594 
L 946.11625 32.873594 
Q 940.91625 32.873594 940.91625 38.073594 
L 940.91625 145.807031 
Q 940.91625 151.007031 946.11625 151.007031 
z
" style="fill:#ffffff;opacity:0.8;stroke:#cccccc;stroke-linejoin:miter;"/>
    </g>
    <g id="line2d_27">
     <path d="M 951.31625 52.783906 
L 1003.31625 52.783906 
" style="fill:none;stroke:#1f77b4;stroke-linecap:square;stroke-width:1.5;"/>
    </g>
    <g id="line2d_28"/>
    <g id="text_11">
     <!-- oscillator 1 -->
     <defs>
      <path d="M 3.328125 25.921875 
Q 3.328125 40.328125 11.328125 47.265625 
Q 18.015625 53.03125 27.640625 53.03125 
Q 38.328125 53.03125 45.109375 46.015625 
Q 51.90625 39.015625 51.90625 26.65625 
Q 51.90625 16.65625 48.90625 10.90625 
Q 45.90625 5.171875 40.15625 2 
Q 34.421875 -1.171875 27.640625 -1.171875 
Q 16.75 -1.171875 10.03125 5.8125 
Q 3.328125 12.796875 3.328125 25.921875 
z
M 12.359375 25.921875 
Q 12.359375 15.96875 16.703125 11.015625 
Q 21.046875 6.0625 27.640625 6.0625 
Q 34.1875 6.0625 38.53125 11.03125 
Q 42.875 16.015625 42.875 26.21875 
Q 42.875 35.84375 38.5 40.796875 
Q 34.125 45.75 27.640625 45.75 
Q 21.046875 45.75 16.703125 40.8125 
Q 12.359375 35.890625 12.359375 25.921875 
z
" id="ArialMT-111"/>
      <path d="M 6.640625 61.46875 
L 6.640625 71.578125 
L 15.4375 71.578125 
L 15.4375 61.46875 
z
M 6.640625 0 
L 6.640625 51.859375 
L 15.4375 51.859375 
L 15.4375 0 
z
" id="ArialMT-105"/>
     </defs>
     <g transform="translate(1024.11625 61.883906)scale(0.26 -0.26)">
      <use xlink:href="#ArialMT-111"/>
      <use x="55.615234" xlink:href="#ArialMT-115"/>
      <use x="105.615234" xlink:href="#ArialMT-99"/>
      <use x="155.615234" xlink:href="#ArialMT-105"/>
      <use x="177.832031" xlink:href="#ArialMT-108"/>
      <use x="200.048828" xlink:href="#ArialMT-108"/>
      <use x="222.265625" xlink:href="#ArialMT-97"/>
      <use x="277.880859" xlink:href="#ArialMT-116"/>
      <use x="305.664062" xlink:href="#ArialMT-111"/>
      <use x="361.279297" xlink:href="#ArialMT-114"/>
      <use x="394.580078" xlink:href="#ArialMT-32"/>
      <use x="422.363281" xlink:href="#ArialMT-49"/>
     </g>
    </g>
    <g id="line2d_29">
     <path d="M 951.31625 89.561719 
L 1003.31625 89.561719 
" style="fill:none;stroke:#ff7f0e;stroke-linecap:square;stroke-width:1.5;"/>
    </g>
    <g id="line2d_30"/>
    <g id="text_12">
     <!-- oscillator 2 -->
     <g transform="translate(1024.11625 98.661719)scale(0.26 -0.26)">
      <use xlink:href="#ArialMT-111"/>
      <use x="55.615234" xlink:href="#ArialMT-115"/>
      <use x="105.615234" xlink:href="#ArialMT-99"/>
      <use x="155.615234" xlink:href="#ArialMT-105"/>
      <use x="177.832031" xlink:href="#ArialMT-108"/>
      <use x="200.048828" xlink:href="#ArialMT-108"/>
      <use x="222.265625" xlink:href="#ArialMT-97"/>
      <use x="277.880859" xlink:href="#ArialMT-116"/>
      <use x="305.664062" xlink:href="#ArialMT-111"/>
      <use x="361.279297" xlink:href="#ArialMT-114"/>
      <use x="394.580078" xlink:href="#ArialMT-32"/>
      <use x="422.363281" xlink:href="#ArialMT-50"/>
     </g>
    </g>
    <g id="line2d_31">
     <path d="M 951.31625 126.339531 
L 1003.31625 126.339531 
" style="fill:none;stroke:#2ca02c;stroke-linecap:square;stroke-width:1.5;"/>
    </g>
    <g id="line2d_32"/>
    <g id="text_13">
     <!-- oscillator 3 -->
     <g transform="translate(1024.11625 135.439531)scale(0.26 -0.26)">
      <use xlink:href="#ArialMT-111"/>
      <use x="55.615234" xlink:href="#ArialMT-115"/>
      <use x="105.615234" xlink:href="#ArialMT-99"/>
      <use x="155.615234" xlink:href="#ArialMT-105"/>
      <use x="177.832031" xlink:href="#ArialMT-108"/>
      <use x="200.048828" xlink:href="#ArialMT-108"/>
      <use x="222.265625" xlink:href="#ArialMT-97"/>
      <use x="277.880859" xlink:href="#ArialMT-116"/>
      <use x="305.664062" xlink:href="#ArialMT-111"/>
      <use x="361.279297" xlink:href="#ArialMT-114"/>
      <use x="394.580078" xlink:href="#ArialMT-32"/>
      <use x="422.363281" xlink:href="#ArialMT-51"/>
     </g>
    </g>
   </g>
  </g>
 </g>
 <defs>
  <clipPath id="paa6387484d">
   <rect height="217.44" width="828" x="71.51625" y="32.873594"/>
  </clipPath>
 </defs>
</svg>
