<?xml version="1.0" encoding="utf-8" standalone="no"?>
<!DOCTYPE svg PUBLIC "-//W3C//DTD SVG 1.1//EN"
  "http://www.w3.org/Graphics/SVG/1.1/DTD/svg11.dtd">
<!-- Created with matplotlib (https://matplotlib.org/) -->
<svg height="504pt" version="1.1" viewBox="0 0 720 504" width="720pt" xmlns="http://www.w3.org/2000/svg" xmlns:xlink="http://www.w3.org/1999/xlink">
 <defs>
  <style type="text/css">
*{stroke-linecap:butt;stroke-linejoin:round;}
  </style>
 </defs>
 <g id="figure_1">
  <g id="patch_1">
   <path d="M 0 504 
L 720 504 
L 720 0 
L 0 0 
z
" style="fill:#ffffff;"/>
  </g>
  <g id="axes_1">
   <g id="patch_2">
    <path d="M 246.9375 277.165 
L 491.0625 277.165 
L 491.0625 60.48 
L 246.9375 60.48 
z
" style="fill:#ffffff;"/>
   </g>
   <g id="matplotlib.axis_1">
    <g id="xtick_1">
     <g id="line2d_1">
      <defs>
       <path d="M 0 0 
L 0 3.5 
" id="m01a166078c" style="stroke:#000000;stroke-width:0.8;"/>
      </defs>
      <g>
       <use style="stroke:#000000;stroke-width:0.8;" x="258.034091" xlink:href="#m01a166078c" y="277.165"/>
      </g>
     </g>
     <g id="text_1">
      <!-- 0 -->
      <defs>
       <path d="M 4.15625 35.296875 
Q 4.15625 48 6.765625 55.734375 
Q 9.375 63.484375 14.515625 67.671875 
Q 19.671875 71.875 27.484375 71.875 
Q 33.25 71.875 37.59375 69.546875 
Q 41.9375 67.234375 44.765625 62.859375 
Q 47.609375 58.5 49.21875 52.21875 
Q 50.828125 45.953125 50.828125 35.296875 
Q 50.828125 22.703125 48.234375 14.96875 
Q 45.65625 7.234375 40.5 3 
Q 35.359375 -1.21875 27.484375 -1.21875 
Q 17.140625 -1.21875 11.234375 6.203125 
Q 4.15625 15.140625 4.15625 35.296875 
z
M 13.1875 35.296875 
Q 13.1875 17.671875 17.3125 11.828125 
Q 21.4375 6 27.484375 6 
Q 33.546875 6 37.671875 11.859375 
Q 41.796875 17.71875 41.796875 35.296875 
Q 41.796875 52.984375 37.671875 58.78125 
Q 33.546875 64.59375 27.390625 64.59375 
Q 21.34375 64.59375 17.71875 59.46875 
Q 13.1875 52.9375 13.1875 35.296875 
z
" id="ArialMT-48"/>
      </defs>
      <g transform="translate(253.863388 294.901719)scale(0.15 -0.15)">
       <use xlink:href="#ArialMT-48"/>
      </g>
     </g>
    </g>
    <g id="xtick_2">
     <g id="line2d_2">
      <g>
       <use style="stroke:#000000;stroke-width:0.8;" x="313.544801" xlink:href="#m01a166078c" y="277.165"/>
      </g>
     </g>
     <g id="text_2">
      <!-- 1000 -->
      <defs>
       <path d="M 37.25 0 
L 28.46875 0 
L 28.46875 56 
Q 25.296875 52.984375 20.140625 49.953125 
Q 14.984375 46.921875 10.890625 45.40625 
L 10.890625 53.90625 
Q 18.265625 57.375 23.78125 62.296875 
Q 29.296875 67.234375 31.59375 71.875 
L 37.25 71.875 
z
" id="ArialMT-49"/>
      </defs>
      <g transform="translate(296.861988 294.901719)scale(0.15 -0.15)">
       <use xlink:href="#ArialMT-49"/>
       <use x="55.615234" xlink:href="#ArialMT-48"/>
       <use x="111.230469" xlink:href="#ArialMT-48"/>
       <use x="166.845703" xlink:href="#ArialMT-48"/>
      </g>
     </g>
    </g>
    <g id="xtick_3">
     <g id="line2d_3">
      <g>
       <use style="stroke:#000000;stroke-width:0.8;" x="369.055511" xlink:href="#m01a166078c" y="277.165"/>
      </g>
     </g>
     <g id="text_3">
      <!-- 2000 -->
      <defs>
       <path d="M 50.34375 8.453125 
L 50.34375 0 
L 3.03125 0 
Q 2.9375 3.171875 4.046875 6.109375 
Q 5.859375 10.9375 9.828125 15.625 
Q 13.8125 20.3125 21.34375 26.46875 
Q 33.015625 36.03125 37.109375 41.625 
Q 41.21875 47.21875 41.21875 52.203125 
Q 41.21875 57.421875 37.46875 61 
Q 33.734375 64.59375 27.734375 64.59375 
Q 21.390625 64.59375 17.578125 60.78125 
Q 13.765625 56.984375 13.71875 50.25 
L 4.6875 51.171875 
Q 5.609375 61.28125 11.65625 66.578125 
Q 17.71875 71.875 27.9375 71.875 
Q 38.234375 71.875 44.234375 66.15625 
Q 50.25 60.453125 50.25 52 
Q 50.25 47.703125 48.484375 43.546875 
Q 46.734375 39.40625 42.65625 34.8125 
Q 38.578125 30.21875 29.109375 22.21875 
Q 21.1875 15.578125 18.9375 13.203125 
Q 16.703125 10.84375 15.234375 8.453125 
z
" id="ArialMT-50"/>
      </defs>
      <g transform="translate(352.372698 294.901719)scale(0.15 -0.15)">
       <use xlink:href="#ArialMT-50"/>
       <use x="55.615234" xlink:href="#ArialMT-48"/>
       <use x="111.230469" xlink:href="#ArialMT-48"/>
       <use x="166.845703" xlink:href="#ArialMT-48"/>
      </g>
     </g>
    </g>
    <g id="xtick_4">
     <g id="line2d_4">
      <g>
       <use style="stroke:#000000;stroke-width:0.8;" x="424.566221" xlink:href="#m01a166078c" y="277.165"/>
      </g>
     </g>
     <g id="text_4">
      <!-- 3000 -->
      <defs>
       <path d="M 4.203125 18.890625 
L 12.984375 20.0625 
Q 14.5 12.59375 18.140625 9.296875 
Q 21.78125 6 27 6 
Q 33.203125 6 37.46875 10.296875 
Q 41.75 14.59375 41.75 20.953125 
Q 41.75 27 37.796875 30.921875 
Q 33.84375 34.859375 27.734375 34.859375 
Q 25.25 34.859375 21.53125 33.890625 
L 22.515625 41.609375 
Q 23.390625 41.5 23.921875 41.5 
Q 29.546875 41.5 34.03125 44.421875 
Q 38.53125 47.359375 38.53125 53.46875 
Q 38.53125 58.296875 35.25 61.46875 
Q 31.984375 64.65625 26.8125 64.65625 
Q 21.6875 64.65625 18.265625 61.421875 
Q 14.84375 58.203125 13.875 51.765625 
L 5.078125 53.328125 
Q 6.6875 62.15625 12.390625 67.015625 
Q 18.109375 71.875 26.609375 71.875 
Q 32.46875 71.875 37.390625 69.359375 
Q 42.328125 66.84375 44.9375 62.5 
Q 47.5625 58.15625 47.5625 53.265625 
Q 47.5625 48.640625 45.0625 44.828125 
Q 42.578125 41.015625 37.703125 38.765625 
Q 44.046875 37.3125 47.5625 32.6875 
Q 51.078125 28.078125 51.078125 21.140625 
Q 51.078125 11.765625 44.234375 5.25 
Q 37.40625 -1.265625 26.953125 -1.265625 
Q 17.53125 -1.265625 11.296875 4.34375 
Q 5.078125 9.96875 4.203125 18.890625 
z
" id="ArialMT-51"/>
      </defs>
      <g transform="translate(407.883408 294.901719)scale(0.15 -0.15)">
       <use xlink:href="#ArialMT-51"/>
       <use x="55.615234" xlink:href="#ArialMT-48"/>
       <use x="111.230469" xlink:href="#ArialMT-48"/>
       <use x="166.845703" xlink:href="#ArialMT-48"/>
      </g>
     </g>
    </g>
    <g id="xtick_5">
     <g id="line2d_5">
      <g>
       <use style="stroke:#000000;stroke-width:0.8;" x="480.076931" xlink:href="#m01a166078c" y="277.165"/>
      </g>
     </g>
     <g id="text_5">
      <!-- 4000 -->
      <defs>
       <path d="M 32.328125 0 
L 32.328125 17.140625 
L 1.265625 17.140625 
L 1.265625 25.203125 
L 33.9375 71.578125 
L 41.109375 71.578125 
L 41.109375 25.203125 
L 50.78125 25.203125 
L 50.78125 17.140625 
L 41.109375 17.140625 
L 41.109375 0 
z
M 32.328125 25.203125 
L 32.328125 57.46875 
L 9.90625 25.203125 
z
" id="ArialMT-52"/>
      </defs>
      <g transform="translate(463.394118 294.901719)scale(0.15 -0.15)">
       <use xlink:href="#ArialMT-52"/>
       <use x="55.615234" xlink:href="#ArialMT-48"/>
       <use x="111.230469" xlink:href="#ArialMT-48"/>
       <use x="166.845703" xlink:href="#ArialMT-48"/>
      </g>
     </g>
    </g>
    <g id="text_6">
     <!-- # sample -->
     <defs>
      <path d="M 5.03125 -1.21875 
L 9.28125 19.578125 
L 1.03125 19.578125 
L 1.03125 26.859375 
L 10.75 26.859375 
L 14.359375 44.578125 
L 1.03125 44.578125 
L 1.03125 51.859375 
L 15.828125 51.859375 
L 20.0625 72.796875 
L 27.390625 72.796875 
L 23.140625 51.859375 
L 38.53125 51.859375 
L 42.78125 72.796875 
L 50.140625 72.796875 
L 45.90625 51.859375 
L 54.34375 51.859375 
L 54.34375 44.578125 
L 44.4375 44.578125 
L 40.765625 26.859375 
L 54.34375 26.859375 
L 54.34375 19.578125 
L 39.3125 19.578125 
L 35.0625 -1.21875 
L 27.734375 -1.21875 
L 31.9375 19.578125 
L 16.609375 19.578125 
L 12.359375 -1.21875 
z
M 18.0625 26.859375 
L 33.40625 26.859375 
L 37.0625 44.578125 
L 21.6875 44.578125 
z
" id="ArialMT-35"/>
      <path id="ArialMT-32"/>
      <path d="M 3.078125 15.484375 
L 11.765625 16.84375 
Q 12.5 11.625 15.84375 8.84375 
Q 19.1875 6.0625 25.203125 6.0625 
Q 31.25 6.0625 34.171875 8.515625 
Q 37.109375 10.984375 37.109375 14.3125 
Q 37.109375 17.28125 34.515625 19 
Q 32.71875 20.171875 25.53125 21.96875 
Q 15.875 24.421875 12.140625 26.203125 
Q 8.40625 27.984375 6.46875 31.125 
Q 4.546875 34.28125 4.546875 38.09375 
Q 4.546875 41.546875 6.125 44.5 
Q 7.71875 47.46875 10.453125 49.421875 
Q 12.5 50.921875 16.03125 51.96875 
Q 19.578125 53.03125 23.640625 53.03125 
Q 29.734375 53.03125 34.34375 51.265625 
Q 38.96875 49.515625 41.15625 46.5 
Q 43.359375 43.5 44.1875 38.484375 
L 35.59375 37.3125 
Q 35.015625 41.3125 32.203125 43.546875 
Q 29.390625 45.796875 24.265625 45.796875 
Q 18.21875 45.796875 15.625 43.796875 
Q 13.03125 41.796875 13.03125 39.109375 
Q 13.03125 37.40625 14.109375 36.03125 
Q 15.1875 34.625 17.484375 33.6875 
Q 18.796875 33.203125 25.25 31.453125 
Q 34.578125 28.953125 38.25 27.359375 
Q 41.9375 25.78125 44.03125 22.75 
Q 46.140625 19.734375 46.140625 15.234375 
Q 46.140625 10.84375 43.578125 6.953125 
Q 41.015625 3.078125 36.171875 0.953125 
Q 31.34375 -1.171875 25.25 -1.171875 
Q 15.140625 -1.171875 9.84375 3.03125 
Q 4.546875 7.234375 3.078125 15.484375 
z
" id="ArialMT-115"/>
      <path d="M 40.4375 6.390625 
Q 35.546875 2.25 31.03125 0.53125 
Q 26.515625 -1.171875 21.34375 -1.171875 
Q 12.796875 -1.171875 8.203125 3 
Q 3.609375 7.171875 3.609375 13.671875 
Q 3.609375 17.484375 5.34375 20.625 
Q 7.078125 23.78125 9.890625 25.6875 
Q 12.703125 27.59375 16.21875 28.5625 
Q 18.796875 29.25 24.03125 29.890625 
Q 34.671875 31.15625 39.703125 32.90625 
Q 39.75 34.71875 39.75 35.203125 
Q 39.75 40.578125 37.25 42.78125 
Q 33.890625 45.75 27.25 45.75 
Q 21.046875 45.75 18.09375 43.578125 
Q 15.140625 41.40625 13.71875 35.890625 
L 5.125 37.0625 
Q 6.296875 42.578125 8.984375 45.96875 
Q 11.671875 49.359375 16.75 51.1875 
Q 21.828125 53.03125 28.515625 53.03125 
Q 35.15625 53.03125 39.296875 51.46875 
Q 43.453125 49.90625 45.40625 47.53125 
Q 47.359375 45.171875 48.140625 41.546875 
Q 48.578125 39.3125 48.578125 33.453125 
L 48.578125 21.734375 
Q 48.578125 9.46875 49.140625 6.21875 
Q 49.703125 2.984375 51.375 0 
L 42.1875 0 
Q 40.828125 2.734375 40.4375 6.390625 
z
M 39.703125 26.03125 
Q 34.90625 24.078125 25.34375 22.703125 
Q 19.921875 21.921875 17.671875 20.9375 
Q 15.4375 19.96875 14.203125 18.09375 
Q 12.984375 16.21875 12.984375 13.921875 
Q 12.984375 10.40625 15.640625 8.0625 
Q 18.3125 5.71875 23.4375 5.71875 
Q 28.515625 5.71875 32.46875 7.9375 
Q 36.421875 10.15625 38.28125 14.015625 
Q 39.703125 17 39.703125 22.796875 
z
" id="ArialMT-97"/>
      <path d="M 6.59375 0 
L 6.59375 51.859375 
L 14.453125 51.859375 
L 14.453125 44.578125 
Q 16.890625 48.390625 20.9375 50.703125 
Q 25 53.03125 30.171875 53.03125 
Q 35.9375 53.03125 39.625 50.640625 
Q 43.3125 48.25 44.828125 43.953125 
Q 50.984375 53.03125 60.84375 53.03125 
Q 68.5625 53.03125 72.703125 48.75 
Q 76.859375 44.484375 76.859375 35.59375 
L 76.859375 0 
L 68.109375 0 
L 68.109375 32.671875 
Q 68.109375 37.9375 67.25 40.25 
Q 66.40625 42.578125 64.15625 43.984375 
Q 61.921875 45.40625 58.890625 45.40625 
Q 53.421875 45.40625 49.796875 41.765625 
Q 46.1875 38.140625 46.1875 30.125 
L 46.1875 0 
L 37.40625 0 
L 37.40625 33.6875 
Q 37.40625 39.546875 35.25 42.46875 
Q 33.109375 45.40625 28.21875 45.40625 
Q 24.515625 45.40625 21.359375 43.453125 
Q 18.21875 41.5 16.796875 37.734375 
Q 15.375 33.984375 15.375 26.90625 
L 15.375 0 
z
" id="ArialMT-109"/>
      <path d="M 6.59375 -19.875 
L 6.59375 51.859375 
L 14.59375 51.859375 
L 14.59375 45.125 
Q 17.4375 49.078125 21 51.046875 
Q 24.5625 53.03125 29.640625 53.03125 
Q 36.28125 53.03125 41.359375 49.609375 
Q 46.4375 46.1875 49.015625 39.953125 
Q 51.609375 33.734375 51.609375 26.3125 
Q 51.609375 18.359375 48.75 11.984375 
Q 45.90625 5.609375 40.453125 2.21875 
Q 35.015625 -1.171875 29 -1.171875 
Q 24.609375 -1.171875 21.109375 0.6875 
Q 17.625 2.546875 15.375 5.375 
L 15.375 -19.875 
z
M 14.546875 25.640625 
Q 14.546875 15.625 18.59375 10.84375 
Q 22.65625 6.0625 28.421875 6.0625 
Q 34.28125 6.0625 38.453125 11.015625 
Q 42.625 15.96875 42.625 26.375 
Q 42.625 36.28125 38.546875 41.203125 
Q 34.46875 46.140625 28.8125 46.140625 
Q 23.1875 46.140625 18.859375 40.890625 
Q 14.546875 35.640625 14.546875 25.640625 
z
" id="ArialMT-112"/>
      <path d="M 6.390625 0 
L 6.390625 71.578125 
L 15.1875 71.578125 
L 15.1875 0 
z
" id="ArialMT-108"/>
      <path d="M 42.09375 16.703125 
L 51.171875 15.578125 
Q 49.03125 7.625 43.21875 3.21875 
Q 37.40625 -1.171875 28.375 -1.171875 
Q 17 -1.171875 10.328125 5.828125 
Q 3.65625 12.84375 3.65625 25.484375 
Q 3.65625 38.578125 10.390625 45.796875 
Q 17.140625 53.03125 27.875 53.03125 
Q 38.28125 53.03125 44.875 45.953125 
Q 51.46875 38.875 51.46875 26.03125 
Q 51.46875 25.25 51.421875 23.6875 
L 12.75 23.6875 
Q 13.234375 15.140625 17.578125 10.59375 
Q 21.921875 6.0625 28.421875 6.0625 
Q 33.25 6.0625 36.671875 8.59375 
Q 40.09375 11.140625 42.09375 16.703125 
z
M 13.234375 30.90625 
L 42.1875 30.90625 
Q 41.609375 37.453125 38.875 40.71875 
Q 34.671875 45.796875 27.984375 45.796875 
Q 21.921875 45.796875 17.796875 41.75 
Q 13.671875 37.703125 13.234375 30.90625 
z
" id="ArialMT-101"/>
     </defs>
     <g transform="translate(338.569922 312.8025)scale(0.15 -0.15)">
      <use xlink:href="#ArialMT-35"/>
      <use x="55.615234" xlink:href="#ArialMT-32"/>
      <use x="83.398438" xlink:href="#ArialMT-115"/>
      <use x="133.398438" xlink:href="#ArialMT-97"/>
      <use x="189.013672" xlink:href="#ArialMT-109"/>
      <use x="272.314453" xlink:href="#ArialMT-112"/>
      <use x="327.929688" xlink:href="#ArialMT-108"/>
      <use x="350.146484" xlink:href="#ArialMT-101"/>
     </g>
    </g>
   </g>
   <g id="matplotlib.axis_2">
    <g id="ytick_1">
     <g id="line2d_6">
      <defs>
       <path d="M 0 0 
L -3.5 0 
" id="me3135b632d" style="stroke:#000000;stroke-width:0.8;"/>
      </defs>
      <g>
       <use style="stroke:#000000;stroke-width:0.8;" x="246.9375" xlink:href="#me3135b632d" y="277.165"/>
      </g>
     </g>
     <g id="text_7">
      <!-- 0.0 -->
      <defs>
       <path d="M 9.078125 0 
L 9.078125 10.015625 
L 19.09375 10.015625 
L 19.09375 0 
z
" id="ArialMT-46"/>
      </defs>
      <g transform="translate(219.0875 282.533359)scale(0.15 -0.15)">
       <use xlink:href="#ArialMT-48"/>
       <use x="55.615234" xlink:href="#ArialMT-46"/>
       <use x="83.398438" xlink:href="#ArialMT-48"/>
      </g>
     </g>
    </g>
    <g id="ytick_2">
     <g id="line2d_7">
      <g>
       <use style="stroke:#000000;stroke-width:0.8;" x="246.9375" xlink:href="#me3135b632d" y="233.828"/>
      </g>
     </g>
     <g id="text_8">
      <!-- 0.5 -->
      <defs>
       <path d="M 4.15625 18.75 
L 13.375 19.53125 
Q 14.40625 12.796875 18.140625 9.390625 
Q 21.875 6 27.15625 6 
Q 33.5 6 37.890625 10.78125 
Q 42.28125 15.578125 42.28125 23.484375 
Q 42.28125 31 38.0625 35.34375 
Q 33.84375 39.703125 27 39.703125 
Q 22.75 39.703125 19.328125 37.765625 
Q 15.921875 35.84375 13.96875 32.765625 
L 5.71875 33.84375 
L 12.640625 70.609375 
L 48.25 70.609375 
L 48.25 62.203125 
L 19.671875 62.203125 
L 15.828125 42.96875 
Q 22.265625 47.46875 29.34375 47.46875 
Q 38.71875 47.46875 45.15625 40.96875 
Q 51.609375 34.46875 51.609375 24.265625 
Q 51.609375 14.546875 45.953125 7.46875 
Q 39.0625 -1.21875 27.15625 -1.21875 
Q 17.390625 -1.21875 11.203125 4.25 
Q 5.03125 9.71875 4.15625 18.75 
z
" id="ArialMT-53"/>
      </defs>
      <g transform="translate(219.0875 239.196359)scale(0.15 -0.15)">
       <use xlink:href="#ArialMT-48"/>
       <use x="55.615234" xlink:href="#ArialMT-46"/>
       <use x="83.398438" xlink:href="#ArialMT-53"/>
      </g>
     </g>
    </g>
    <g id="ytick_3">
     <g id="line2d_8">
      <g>
       <use style="stroke:#000000;stroke-width:0.8;" x="246.9375" xlink:href="#me3135b632d" y="190.491"/>
      </g>
     </g>
     <g id="text_9">
      <!-- 1.0 -->
      <g transform="translate(219.0875 195.859359)scale(0.15 -0.15)">
       <use xlink:href="#ArialMT-49"/>
       <use x="55.615234" xlink:href="#ArialMT-46"/>
       <use x="83.398438" xlink:href="#ArialMT-48"/>
      </g>
     </g>
    </g>
    <g id="ytick_4">
     <g id="line2d_9">
      <g>
       <use style="stroke:#000000;stroke-width:0.8;" x="246.9375" xlink:href="#me3135b632d" y="147.154"/>
      </g>
     </g>
     <g id="text_10">
      <!-- 1.5 -->
      <g transform="translate(219.0875 152.522359)scale(0.15 -0.15)">
       <use xlink:href="#ArialMT-49"/>
       <use x="55.615234" xlink:href="#ArialMT-46"/>
       <use x="83.398438" xlink:href="#ArialMT-53"/>
      </g>
     </g>
    </g>
    <g id="ytick_5">
     <g id="line2d_10">
      <g>
       <use style="stroke:#000000;stroke-width:0.8;" x="246.9375" xlink:href="#me3135b632d" y="103.817"/>
      </g>
     </g>
     <g id="text_11">
      <!-- 2.0 -->
      <g transform="translate(219.0875 109.185359)scale(0.15 -0.15)">
       <use xlink:href="#ArialMT-50"/>
       <use x="55.615234" xlink:href="#ArialMT-46"/>
       <use x="83.398438" xlink:href="#ArialMT-48"/>
      </g>
     </g>
    </g>
    <g id="ytick_6">
     <g id="line2d_11">
      <g>
       <use style="stroke:#000000;stroke-width:0.8;" x="246.9375" xlink:href="#me3135b632d" y="60.48"/>
      </g>
     </g>
     <g id="text_12">
      <!-- 2.5 -->
      <g transform="translate(219.0875 65.848359)scale(0.15 -0.15)">
       <use xlink:href="#ArialMT-50"/>
       <use x="55.615234" xlink:href="#ArialMT-46"/>
       <use x="83.398438" xlink:href="#ArialMT-53"/>
      </g>
     </g>
    </g>
    <g id="text_13">
     <!-- mean absolute error (a.u.) -->
     <defs>
      <path d="M 6.59375 0 
L 6.59375 51.859375 
L 14.5 51.859375 
L 14.5 44.484375 
Q 20.21875 53.03125 31 53.03125 
Q 35.6875 53.03125 39.625 51.34375 
Q 43.5625 49.65625 45.515625 46.921875 
Q 47.46875 44.1875 48.25 40.4375 
Q 48.734375 37.984375 48.734375 31.890625 
L 48.734375 0 
L 39.9375 0 
L 39.9375 31.546875 
Q 39.9375 36.921875 38.90625 39.578125 
Q 37.890625 42.234375 35.28125 43.8125 
Q 32.671875 45.40625 29.15625 45.40625 
Q 23.53125 45.40625 19.453125 41.84375 
Q 15.375 38.28125 15.375 28.328125 
L 15.375 0 
z
" id="ArialMT-110"/>
      <path d="M 14.703125 0 
L 6.546875 0 
L 6.546875 71.578125 
L 15.328125 71.578125 
L 15.328125 46.046875 
Q 20.90625 53.03125 29.546875 53.03125 
Q 34.328125 53.03125 38.59375 51.09375 
Q 42.875 49.171875 45.625 45.671875 
Q 48.390625 42.1875 49.953125 37.25 
Q 51.515625 32.328125 51.515625 26.703125 
Q 51.515625 13.375 44.921875 6.09375 
Q 38.328125 -1.171875 29.109375 -1.171875 
Q 19.921875 -1.171875 14.703125 6.5 
z
M 14.59375 26.3125 
Q 14.59375 17 17.140625 12.84375 
Q 21.296875 6.0625 28.375 6.0625 
Q 34.125 6.0625 38.328125 11.0625 
Q 42.53125 16.0625 42.53125 25.984375 
Q 42.53125 36.140625 38.5 40.96875 
Q 34.46875 45.796875 28.765625 45.796875 
Q 23 45.796875 18.796875 40.796875 
Q 14.59375 35.796875 14.59375 26.3125 
z
" id="ArialMT-98"/>
      <path d="M 3.328125 25.921875 
Q 3.328125 40.328125 11.328125 47.265625 
Q 18.015625 53.03125 27.640625 53.03125 
Q 38.328125 53.03125 45.109375 46.015625 
Q 51.90625 39.015625 51.90625 26.65625 
Q 51.90625 16.65625 48.90625 10.90625 
Q 45.90625 5.171875 40.15625 2 
Q 34.421875 -1.171875 27.640625 -1.171875 
Q 16.75 -1.171875 10.03125 5.8125 
Q 3.328125 12.796875 3.328125 25.921875 
z
M 12.359375 25.921875 
Q 12.359375 15.96875 16.703125 11.015625 
Q 21.046875 6.0625 27.640625 6.0625 
Q 34.1875 6.0625 38.53125 11.03125 
Q 42.875 16.015625 42.875 26.21875 
Q 42.875 35.84375 38.5 40.796875 
Q 34.125 45.75 27.640625 45.75 
Q 21.046875 45.75 16.703125 40.8125 
Q 12.359375 35.890625 12.359375 25.921875 
z
" id="ArialMT-111"/>
      <path d="M 40.578125 0 
L 40.578125 7.625 
Q 34.515625 -1.171875 24.125 -1.171875 
Q 19.53125 -1.171875 15.546875 0.578125 
Q 11.578125 2.34375 9.640625 5 
Q 7.71875 7.671875 6.9375 11.53125 
Q 6.390625 14.109375 6.390625 19.734375 
L 6.390625 51.859375 
L 15.1875 51.859375 
L 15.1875 23.09375 
Q 15.1875 16.21875 15.71875 13.8125 
Q 16.546875 10.359375 19.234375 8.375 
Q 21.921875 6.390625 25.875 6.390625 
Q 29.828125 6.390625 33.296875 8.421875 
Q 36.765625 10.453125 38.203125 13.9375 
Q 39.65625 17.4375 39.65625 24.078125 
L 39.65625 51.859375 
L 48.4375 51.859375 
L 48.4375 0 
z
" id="ArialMT-117"/>
      <path d="M 25.78125 7.859375 
L 27.046875 0.09375 
Q 23.34375 -0.6875 20.40625 -0.6875 
Q 15.625 -0.6875 12.984375 0.828125 
Q 10.359375 2.34375 9.28125 4.8125 
Q 8.203125 7.28125 8.203125 15.1875 
L 8.203125 45.015625 
L 1.765625 45.015625 
L 1.765625 51.859375 
L 8.203125 51.859375 
L 8.203125 64.703125 
L 16.9375 69.96875 
L 16.9375 51.859375 
L 25.78125 51.859375 
L 25.78125 45.015625 
L 16.9375 45.015625 
L 16.9375 14.703125 
Q 16.9375 10.9375 17.40625 9.859375 
Q 17.875 8.796875 18.921875 8.15625 
Q 19.96875 7.515625 21.921875 7.515625 
Q 23.390625 7.515625 25.78125 7.859375 
z
" id="ArialMT-116"/>
      <path d="M 6.5 0 
L 6.5 51.859375 
L 14.40625 51.859375 
L 14.40625 44 
Q 17.4375 49.515625 20 51.265625 
Q 22.5625 53.03125 25.640625 53.03125 
Q 30.078125 53.03125 34.671875 50.203125 
L 31.640625 42.046875 
Q 28.421875 43.953125 25.203125 43.953125 
Q 22.3125 43.953125 20.015625 42.21875 
Q 17.71875 40.484375 16.75 37.40625 
Q 15.28125 32.71875 15.28125 27.15625 
L 15.28125 0 
z
" id="ArialMT-114"/>
      <path d="M 23.390625 -21.046875 
Q 16.109375 -11.859375 11.078125 0.4375 
Q 6.0625 12.75 6.0625 25.921875 
Q 6.0625 37.546875 9.8125 48.1875 
Q 14.203125 60.546875 23.390625 72.796875 
L 29.6875 72.796875 
Q 23.78125 62.640625 21.875 58.296875 
Q 18.890625 51.5625 17.1875 44.234375 
Q 15.09375 35.109375 15.09375 25.875 
Q 15.09375 2.390625 29.6875 -21.046875 
z
" id="ArialMT-40"/>
      <path d="M 12.359375 -21.046875 
L 6.0625 -21.046875 
Q 20.65625 2.390625 20.65625 25.875 
Q 20.65625 35.0625 18.5625 44.09375 
Q 16.890625 51.421875 13.921875 58.15625 
Q 12.015625 62.546875 6.0625 72.796875 
L 12.359375 72.796875 
Q 21.53125 60.546875 25.921875 48.1875 
Q 29.6875 37.546875 29.6875 25.921875 
Q 29.6875 12.75 24.625 0.4375 
Q 19.578125 -11.859375 12.359375 -21.046875 
z
" id="ArialMT-41"/>
     </defs>
     <g transform="translate(211.930469 255.5225)rotate(-90)scale(0.15 -0.15)">
      <use xlink:href="#ArialMT-109"/>
      <use x="83.300781" xlink:href="#ArialMT-101"/>
      <use x="138.916016" xlink:href="#ArialMT-97"/>
      <use x="194.53125" xlink:href="#ArialMT-110"/>
      <use x="250.146484" xlink:href="#ArialMT-32"/>
      <use x="277.929688" xlink:href="#ArialMT-97"/>
      <use x="333.544922" xlink:href="#ArialMT-98"/>
      <use x="389.160156" xlink:href="#ArialMT-115"/>
      <use x="439.160156" xlink:href="#ArialMT-111"/>
      <use x="494.775391" xlink:href="#ArialMT-108"/>
      <use x="516.992188" xlink:href="#ArialMT-117"/>
      <use x="572.607422" xlink:href="#ArialMT-116"/>
      <use x="600.390625" xlink:href="#ArialMT-101"/>
      <use x="656.005859" xlink:href="#ArialMT-32"/>
      <use x="683.789062" xlink:href="#ArialMT-101"/>
      <use x="739.404297" xlink:href="#ArialMT-114"/>
      <use x="772.705078" xlink:href="#ArialMT-114"/>
      <use x="806.005859" xlink:href="#ArialMT-111"/>
      <use x="861.621094" xlink:href="#ArialMT-114"/>
      <use x="894.921875" xlink:href="#ArialMT-32"/>
      <use x="922.705078" xlink:href="#ArialMT-40"/>
      <use x="956.005859" xlink:href="#ArialMT-97"/>
      <use x="1011.621094" xlink:href="#ArialMT-46"/>
      <use x="1039.404297" xlink:href="#ArialMT-117"/>
      <use x="1095.019531" xlink:href="#ArialMT-46"/>
      <use x="1122.802734" xlink:href="#ArialMT-41"/>
     </g>
    </g>
   </g>
   <g id="line2d_12">
    <path clip-path="url(#p85be5cb0b1)" d="M 258.034091 134.190325 
L 258.200623 80.418149 
L 258.367155 74.783814 
L 258.478177 74.247246 
L 258.533687 74.296999 
L 258.644709 75.181378 
L 258.811241 80.442459 
L 259.421859 112.904502 
L 259.588391 113.451712 
L 259.865944 111.399046 
L 259.976966 111.197275 
L 260.032476 111.255024 
L 260.143498 111.223786 
L 260.365541 111.599846 
L 260.754116 115.066801 
L 261.142691 120.978747 
L 261.808819 131.176666 
L 262.086373 140.252155 
L 262.474948 161.579684 
L 263.807205 244.876664 
L 264.25129 261.168088 
L 264.528844 258.402464 
L 264.584355 258.746243 
L 265.02844 262.432835 
L 265.250483 265.805282 
L 265.305994 265.608381 
L 265.583547 267.112798 
L 266.194165 271.0691 
L 266.305187 271.961187 
L 266.52723 274.080342 
L 266.693762 274.362462 
L 266.749272 274.729097 
L 266.804783 274.290638 
L 266.860294 274.603344 
L 266.915804 274.531788 
L 266.971315 274.824931 
L 267.137847 273.53314 
L 267.193358 273.494151 
L 267.637444 274.969035 
L 267.859487 274.2573 
L 268.081529 275.075057 
L 268.13704 274.733852 
L 268.192551 275.033276 
L 268.303572 275.207855 
L 268.359083 275.059399 
L 268.414594 275.290866 
L 268.470104 275.140037 
L 268.581126 275.200852 
L 268.747658 274.785686 
L 268.803169 274.910505 
L 269.080722 274.678569 
L 269.302765 274.152025 
L 269.69134 274.849686 
L 269.802361 274.653821 
L 270.024404 275.099297 
L 270.301958 274.4283 
L 270.357469 274.517615 
L 270.524001 274.213195 
L 270.635022 274.379616 
L 270.690533 274.33374 
L 270.746043 274.340439 
L 270.912576 274.571932 
L 270.968086 274.557407 
L 271.301151 275.395287 
L 271.412172 275.256414 
L 271.634215 275.572195 
L 271.689726 275.539943 
L 271.745236 275.675697 
L 271.800747 275.609936 
L 271.856258 275.505476 
L 271.911768 275.542778 
L 272.02279 275.620272 
L 272.078301 275.537261 
L 272.244833 275.446775 
L 272.466875 275.83797 
L 272.522386 275.701135 
L 272.79994 275.326777 
L 272.85545 275.407401 
L 272.910961 275.567146 
L 272.966472 275.425318 
L 273.077493 275.453849 
L 273.355047 275.752692 
L 273.466068 275.590333 
L 273.521579 275.748374 
L 273.57709 275.633543 
L 273.688111 275.52294 
L 273.743622 275.451387 
L 273.799133 275.526806 
L 274.021175 275.622558 
L 274.298729 275.52835 
L 274.687304 275.676257 
L 274.742815 275.815426 
L 274.798325 275.76179 
L 274.964857 275.729687 
L 275.13139 275.791642 
L 275.464454 275.72558 
L 275.630986 275.90057 
L 275.686497 275.824997 
L 275.797518 275.806562 
L 276.130582 275.867372 
L 276.297114 275.722391 
L 276.463647 275.853126 
L 276.796711 275.674775 
L 277.018754 275.49912 
L 277.684882 275.599257 
L 277.851414 275.826379 
L 277.962436 275.803951 
L 278.128968 275.745061 
L 278.406521 275.809985 
L 278.795096 275.751577 
L 278.850607 275.845145 
L 278.906118 275.774955 
L 279.128161 275.809106 
L 279.294693 275.995994 
L 279.461225 276.065041 
L 279.627757 276.045052 
L 279.738778 276.102088 
L 280.016332 275.90398 
L 280.238375 275.872132 
L 280.515928 275.809197 
L 285.511892 276.048848 
L 285.900467 276.022646 
L 286.400064 276.013013 
L 287.399256 276.017694 
L 287.732321 276.040806 
L 289.952749 275.886191 
L 290.285813 275.889995 
L 298.390377 276.014261 
L 298.778952 275.982883 
L 299.38957 275.993932 
L 300.16672 275.998744 
L 300.444273 276.021492 
L 300.610805 276.049144 
L 302.331637 276.123359 
L 302.55368 276.120288 
L 302.942255 276.132992 
L 306.272898 276.200668 
L 308.326794 276.180629 
L 326.367775 276.080371 
L 327.033903 276.099243 
L 327.58901 276.111256 
L 328.255139 276.158559 
L 363.50444 276.247988 
L 365.169761 276.238633 
L 365.83589 276.238996 
L 367.223657 276.244933 
L 368.833468 276.273014 
L 371.775535 276.293367 
L 372.386153 276.299418 
L 377.215585 276.277748 
L 377.60416 276.265995 
L 380.046631 276.290426 
L 393.424712 276.238496 
L 394.090841 276.237617 
L 398.309655 276.20076 
L 399.974976 276.207407 
L 401.86234 276.209671 
L 411.687736 276.258226 
L 413.5751 276.273338 
L 414.463271 276.267984 
L 417.183296 276.272542 
L 454.764047 276.19444 
L 456.762432 276.190904 
L 460.259607 276.182831 
L 470.806642 276.20699 
L 471.805835 276.203114 
L 472.527474 276.205664 
L 474.747902 276.228675 
L 477.079352 276.224265 
L 479.466313 276.229815 
L 479.965909 276.229998 
L 479.965909 276.229998 
" style="fill:none;stroke:#4169e1;stroke-linecap:square;stroke-width:1.5;"/>
   </g>
   <g id="line2d_13">
    <path clip-path="url(#p85be5cb0b1)" d="M 258.034091 190.663414 
L 258.200623 156.521105 
L 258.367155 152.923196 
L 258.589198 152.357829 
L 258.700219 152.351496 
L 258.811241 152.546126 
L 258.977773 153.512257 
L 259.088794 154.006172 
L 259.199816 152.555102 
L 259.699412 141.452523 
L 259.921455 140.599599 
L 260.087987 140.559035 
L 260.254519 140.968629 
L 260.587584 142.672894 
L 260.920648 143.967545 
L 260.976159 144.029255 
L 261.142691 143.516358 
L 261.86433 140.683418 
L 262.086373 140.534695 
L 262.530458 140.923505 
L 262.808012 141.723117 
L 263.307608 143.129627 
L 263.640673 143.807148 
L 263.862715 143.962924 
L 264.528844 144.122151 
L 264.750887 144.361856 
L 265.694569 147.241972 
L 266.138655 148.641193 
L 266.194165 148.610963 
L 266.416208 148.504749 
L 266.804783 148.080957 
L 267.248869 148.504591 
L 267.748465 149.391395 
L 269.025211 153.706037 
L 269.802361 154.137626 
L 270.46849 154.770817 
L 270.690533 154.708123 
L 270.912576 154.929243 
L 271.134618 155.146163 
L 271.634215 155.638923 
L 271.745236 155.678079 
L 271.856258 155.795273 
L 273.188515 159.641914 
L 273.910154 161.655413 
L 274.021175 161.634995 
L 274.298729 162.133263 
L 274.798325 162.070058 
L 275.353432 163.175241 
L 275.686497 164.044188 
L 275.853029 164.081067 
L 276.019561 164.226068 
L 276.186093 164.384115 
L 276.352625 164.304371 
L 276.852222 165.326885 
L 277.407329 168.177216 
L 277.795904 170.959783 
L 279.07265 175.769578 
L 279.350204 177.106586 
L 279.461225 177.413245 
L 280.071843 180.20712 
L 282.292271 190.438992 
L 282.625335 193.52764 
L 284.290657 207.186704 
L 284.5127 207.954444 
L 285.789446 212.23168 
L 286.011489 212.299 
L 286.622107 213.890115 
L 286.955171 215.6938 
L 287.288235 217.429242 
L 287.787831 220.874178 
L 288.45396 225.02897 
L 288.731513 226.23138 
L 289.397642 229.814163 
L 290.174792 231.974544 
L 290.507856 233.182956 
L 290.729899 233.55817 
L 291.396028 234.410578 
L 292.062156 235.638397 
L 292.228688 235.752363 
L 292.450731 235.860131 
L 292.839306 236.065237 
L 293.061349 236.675814 
L 293.227881 237.083955 
L 294.560138 240.917117 
L 294.893202 241.409959 
L 295.892395 242.059818 
L 296.391991 242.848323 
L 296.891588 243.355411 
L 297.113631 243.390544 
L 298.61242 243.769719 
L 299.334059 244.034649 
L 300.444273 244.76006 
L 301.609998 246.746967 
L 302.054084 247.42756 
L 302.55368 248.105725 
L 302.664702 248.132037 
L 302.942255 248.517011 
L 304.052469 249.405788 
L 304.607577 249.733866 
L 304.829619 249.864099 
L 305.329216 250.155301 
L 305.717791 250.294587 
L 306.050855 250.731823 
L 306.272898 251.011927 
L 306.661473 251.673057 
L 307.438623 253.500232 
L 307.771687 253.947322 
L 308.881901 254.999971 
L 309.381498 255.279362 
L 310.103137 255.709236 
L 310.824776 256.584849 
L 311.15784 256.833258 
L 311.601926 257.228324 
L 311.823969 257.36497 
L 312.823162 259.952871 
L 314.044397 264.883841 
L 314.543994 265.96074 
L 314.766036 266.465982 
L 314.932569 266.710905 
L 315.04359 266.85644 
L 315.099101 266.82194 
L 315.321144 267.02083 
L 315.765229 267.314041 
L 316.042783 267.340192 
L 319.428936 267.73304 
L 319.70649 267.811048 
L 321.538343 267.966274 
L 322.037939 268.03005 
L 322.426514 268.026343 
L 323.980814 268.215578 
L 324.591432 268.23542 
L 325.313071 268.375438 
L 328.532692 268.696453 
L 328.921267 268.770403 
L 330.086992 268.824538 
L 330.420057 268.947417 
L 330.642099 268.912726 
L 331.585782 269.555939 
L 331.696803 269.504081 
L 331.918846 269.752444 
L 332.196399 269.837274 
L 332.473953 269.82364 
L 332.751506 269.985957 
L 333.80621 270.063814 
L 334.749892 269.97466 
L 334.916424 269.990229 
L 335.082956 270.040459 
L 335.249488 270.081793 
L 336.859299 270.553556 
L 338.080535 270.810188 
L 339.468302 271.882693 
L 339.690345 271.904373 
L 340.07892 272.128048 
L 340.689538 272.146077 
L 341.189134 272.119961 
L 341.744241 272.121393 
L 342.632413 272.185297 
L 345.130395 272.29359 
L 345.296927 272.361807 
L 345.463459 272.36154 
L 345.741013 272.478 
L 346.407141 272.520761 
L 346.629184 272.533255 
L 347.017759 272.587868 
L 347.239802 272.579853 
L 347.572866 272.586697 
L 348.572059 272.596066 
L 349.071655 272.598041 
L 349.682273 272.658597 
L 350.126359 272.612267 
L 351.625148 272.605602 
L 354.844769 272.401134 
L 361.617076 272.420218 
L 361.894629 272.391118 
L 362.560758 272.375674 
L 364.670165 272.504615 
L 364.892207 272.470228 
L 365.225272 272.434173 
L 365.946911 272.414728 
L 366.335486 272.41331 
L 373.163303 272.415736 
L 373.71841 272.454725 
L 375.661285 272.452694 
L 376.04986 272.402257 
L 376.549457 272.497915 
L 378.159267 272.522445 
L 381.434399 272.590598 
L 381.822974 272.619369 
L 382.489103 272.589987 
L 383.09972 272.57716 
L 385.042595 272.665941 
L 385.320149 272.728009 
L 385.708724 272.750919 
L 386.541384 272.776009 
L 392.814095 272.850391 
L 393.25818 272.897665 
L 393.979819 272.892132 
L 396.644334 272.947054 
L 399.197826 272.986024 
L 400.974169 272.985552 
L 402.306426 272.958622 
L 403.083576 272.975214 
L 404.748897 273.00891 
L 406.469729 273.032646 
L 406.747283 273.054069 
L 407.690965 273.044788 
L 410.077925 273.037216 
L 410.355479 273.029381 
L 410.688543 273.008826 
L 411.132629 272.999071 
L 412.631418 273.003001 
L 415.240421 273.137422 
L 416.073082 273.191425 
L 424.399688 273.246684 
L 424.732753 273.291182 
L 426.287053 273.321426 
L 427.785842 273.299235 
L 449.54604 273.502297 
L 450.156658 273.552179 
L 450.489722 273.551071 
L 451.988511 273.494306 
L 452.65464 273.47297 
L 453.4873 273.466059 
L 454.542004 273.438608 
L 454.930579 273.432708 
L 456.54039 273.450043 
L 457.428561 273.462082 
L 459.815521 273.501543 
L 461.647375 273.463974 
L 462.424525 273.468356 
L 464.200867 273.500823 
L 464.922507 273.533418 
L 466.920892 273.502263 
L 467.809064 273.538857 
L 469.030299 273.510482 
L 476.801799 273.42444 
L 477.634459 273.442681 
L 479.965909 273.512808 
L 479.965909 273.512808 
" style="fill:none;stroke:#ff6347;stroke-linecap:square;stroke-width:1.5;"/>
   </g>
   <g id="line2d_14">
    <path clip-path="url(#p85be5cb0b1)" d="M 258.034091 203.692174 
L 258.200623 173.519357 
L 258.367155 170.255337 
L 258.589198 169.602641 
L 258.75573 169.582183 
L 258.922262 169.878597 
L 258.977773 169.782055 
L 259.144305 167.427462 
L 259.53288 160.96918 
L 259.810434 159.620822 
L 259.976966 159.59648 
L 260.143498 159.900647 
L 260.698605 161.462726 
L 261.031669 160.290915 
L 261.364734 159.523516 
L 261.586776 159.476647 
L 261.808819 159.941046 
L 262.308416 161.57104 
L 262.363926 161.509989 
L 262.585969 160.882361 
L 263.030055 159.83622 
L 263.252098 159.54764 
L 263.751694 159.295878 
L 264.084758 159.307351 
L 264.473333 159.214652 
L 264.639865 159.160221 
L 265.194972 158.903963 
L 265.528037 158.863664 
L 265.916612 158.466151 
L 266.471719 157.089148 
L 266.804783 156.482244 
L 267.026826 156.434833 
L 267.248869 156.748196 
L 267.470912 157.372938 
L 268.13704 159.514333 
L 268.470104 160.027251 
L 268.91419 160.418312 
L 270.024404 162.53528 
L 270.190936 162.593973 
L 270.357469 162.594995 
L 270.635022 162.834577 
L 271.079108 163.59382 
L 273.299536 170.477658 
L 274.076686 171.86383 
L 275.353432 172.696969 
L 275.908539 173.552181 
L 276.408136 174.841374 
L 276.630179 174.902229 
L 277.462839 174.302819 
L 277.740393 174.679422 
L 279.183671 177.530623 
L 279.350204 177.674831 
L 279.516736 177.983031 
L 279.960821 180.103582 
L 280.682461 183.50535 
L 280.793482 183.613127 
L 281.182057 183.655413 
L 281.293078 183.512626 
L 281.348589 183.544924 
L 281.903696 183.982277 
L 282.23676 183.958954 
L 282.458803 184.234023 
L 283.01391 184.912272 
L 283.291464 185.232331 
L 283.624528 185.573926 
L 283.73555 185.681396 
L 284.290657 186.608851 
L 284.401678 186.674747 
L 284.679232 187.143557 
L 285.012296 187.488732 
L 285.234339 187.771622 
L 286.011489 188.699002 
L 286.289042 188.710049 
L 286.677617 189.136495 
L 287.510278 190.02048 
L 287.67681 189.979669 
L 287.954364 189.871967 
L 288.231917 190.13789 
L 289.009067 189.951324 
L 289.23111 190.003133 
L 289.952749 190.868907 
L 290.063771 190.955416 
L 290.230303 191.167416 
L 291.451538 194.33713 
L 291.840113 196.018243 
L 292.783795 200.520567 
L 292.839306 200.557216 
L 293.11686 201.363728 
L 293.782988 202.021575 
L 294.338095 202.312666 
L 294.837692 203.830814 
L 295.392799 206.356402 
L 295.614842 206.855125 
L 296.003416 207.547568 
L 296.114438 207.639556 
L 296.28097 207.899601 
L 296.391991 207.995954 
L 297.05812 210.489059 
L 297.446695 211.944352 
L 297.779759 212.472825 
L 298.112823 212.705685 
L 299.112016 213.469431 
L 299.556102 214.364416 
L 299.778145 214.57498 
L 299.889166 214.583905 
L 300.16672 214.69544 
L 300.832848 214.73581 
L 300.888359 214.592419 
L 300.94387 214.62036 
L 301.665509 214.673574 
L 302.331637 215.250379 
L 302.886745 215.468386 
L 303.108787 215.521413 
L 304.552066 217.199779 
L 304.996151 217.273571 
L 305.162684 217.124585 
L 305.218194 217.188459 
L 305.606769 217.281249 
L 306.050855 217.688048 
L 306.605962 218.551287 
L 306.772494 218.748459 
L 307.21658 219.401085 
L 307.383112 219.55633 
L 307.605155 219.683408 
L 308.104751 220.062822 
L 308.659858 220.461223 
L 309.214965 220.347834 
L 309.659051 220.330476 
L 309.881094 220.346492 
L 310.436201 220.634097 
L 310.824776 221.271703 
L 311.324372 222.353612 
L 312.101522 224.137053 
L 313.211737 225.539453 
L 313.655822 225.8457 
L 314.044397 226.08561 
L 314.488483 226.156652 
L 314.988079 226.431611 
L 315.376654 226.795168 
L 316.042783 227.129988 
L 316.653401 227.598365 
L 317.097486 228.500481 
L 317.319529 228.878036 
L 318.041168 230.869771 
L 318.707297 233.531742 
L 318.98485 234.174795 
L 319.317915 235.002167 
L 321.038747 237.347807 
L 321.205279 237.46753 
L 322.371004 239.282316 
L 323.370196 240.081856 
L 323.758771 240.665418 
L 324.147346 241.544965 
L 325.091028 244.397384 
L 325.701646 245.736054 
L 325.923689 246.120805 
L 326.589818 247.081725 
L 326.700839 247.165229 
L 326.867371 247.365283 
L 327.089414 247.66765 
L 327.477989 248.202214 
L 327.58901 248.340402 
L 328.199628 249.247882 
L 328.588203 249.789896 
L 328.810246 249.969944 
L 328.976778 250.107684 
L 329.198821 250.4018 
L 329.92046 250.732676 
L 330.031482 250.718842 
L 330.253524 250.875519 
L 330.420057 250.876134 
L 330.69761 250.901526 
L 332.029867 250.929949 
L 332.307421 251.010781 
L 332.973549 251.229532 
L 333.584167 252.212876 
L 333.639678 252.242192 
L 333.917231 252.756485 
L 334.860913 253.912218 
L 336.304192 254.85724 
L 336.748278 254.813653 
L 337.636449 254.793705 
L 338.358088 255.14505 
L 339.30177 256.216791 
L 339.468302 256.224685 
L 339.690345 256.254065 
L 339.967899 256.506166 
L 340.134431 256.509419 
L 340.411984 256.723123 
L 340.578517 256.794031 
L 340.967092 256.921159 
L 341.022602 256.878522 
L 341.078113 256.957776 
L 341.411177 257.260092 
L 341.688731 257.562828 
L 342.077306 257.860086 
L 342.576902 258.022283 
L 343.520584 258.699938 
L 344.519777 259.873921 
L 345.241416 260.254548 
L 346.462652 261.069035 
L 346.740205 261.261718 
L 347.017759 261.509227 
L 347.184291 261.448271 
L 347.406334 261.645235 
L 348.072462 261.782437 
L 348.294505 261.864817 
L 348.905123 261.960715 
L 349.182677 261.923546 
L 349.46023 262.009494 
L 349.793294 262.011857 
L 350.959019 262.1107 
L 351.292084 262.102539 
L 351.958212 262.107688 
L 355.233344 262.488736 
L 355.399876 262.579128 
L 355.954983 262.734182 
L 356.51009 262.950637 
L 357.342751 263.259289 
L 358.06439 263.365905 
L 358.563987 263.522474 
L 358.952562 263.51758 
L 360.950947 263.572888 
L 361.395033 263.570837 
L 362.560758 264.027607 
L 362.893822 264.294997 
L 363.060354 264.452553 
L 363.226886 264.765837 
L 363.448929 264.805529 
L 366.390997 265.406723 
L 366.835082 265.38615 
L 368.500404 265.470457 
L 370.443278 265.560713 
L 372.1086 265.543453 
L 373.940453 265.630566 
L 374.106985 265.635755 
L 374.49556 265.734198 
L 376.604967 266.096164 
L 377.382117 266.012216 
L 377.826203 266.067565 
L 378.603353 266.097824 
L 378.991928 266.15733 
L 380.435206 266.342234 
L 380.823781 266.296798 
L 381.822974 266.725362 
L 382.045017 266.885384 
L 383.932381 267.170362 
L 392.036945 267.795876 
L 392.592052 267.890433 
L 393.147159 268.038044 
L 394.534927 268.601303 
L 394.701459 268.647827 
L 396.588823 268.949689 
L 397.254951 269.194672 
L 400.585594 269.891099 
L 400.918658 270.13428 
L 401.08519 270.219689 
L 401.473765 270.480409 
L 401.751319 270.568295 
L 402.028872 270.635527 
L 402.306426 270.594204 
L 404.415833 270.551369 
L 408.412604 270.550093 
L 408.85669 270.576343 
L 412.964482 270.715667 
L 413.797143 270.790078 
L 416.628189 270.922031 
L 418.126978 271.04021 
L 418.737596 271.072729 
L 420.291896 271.228825 
L 420.735982 271.305208 
L 421.180067 271.303987 
L 421.679664 271.272542 
L 429.395652 271.409018 
L 435.557341 271.455286 
L 439.942687 271.561811 
L 440.553305 271.532127 
L 442.995776 271.540246 
L 451.211361 271.48846 
L 451.933001 271.46396 
L 458.871839 271.560984 
L 479.965909 271.650994 
L 479.965909 271.650994 
" style="fill:none;stroke:#228b22;stroke-linecap:square;stroke-width:1.5;"/>
   </g>
   <g id="line2d_15">
    <path clip-path="url(#p85be5cb0b1)" d="M 258.034091 216.167032 
L 258.200623 189.860099 
L 258.367155 187.137387 
L 258.589198 186.679158 
L 258.866752 186.511238 
L 258.977773 185.995764 
L 259.255327 182.126826 
L 259.53288 179.559851 
L 259.810434 178.875562 
L 259.976966 178.833945 
L 260.254519 179.051644 
L 260.421051 178.5583 
L 261.253712 174.950836 
L 261.642287 174.31883 
L 261.808819 174.466128 
L 262.197394 174.856437 
L 262.308416 174.703583 
L 262.585969 174.182171 
L 262.808012 173.90683 
L 263.307608 172.780408 
L 263.529651 172.725607 
L 264.19578 172.604847 
L 264.750887 172.809507 
L 264.97293 172.497634 
L 265.417015 171.874472 
L 265.694569 171.713952 
L 265.916612 171.940884 
L 266.249676 172.623301 
L 266.804783 173.807756 
L 266.971315 173.799424 
L 267.748465 172.943544 
L 269.191744 173.408177 
L 269.857872 174.182502 
L 270.357469 174.534463 
L 270.968086 174.646614 
L 271.356661 175.050754 
L 272.189322 175.390626 
L 272.522386 175.116289 
L 272.85545 175.294524 
L 273.355047 175.35874 
L 273.521579 175.654103 
L 273.910154 176.328865 
L 274.687304 176.383773 
L 275.686497 176.91548 
L 275.96405 177.273695 
L 276.186093 177.313163 
L 276.963243 176.123993 
L 277.129775 176.178858 
L 277.906925 177.138248 
L 278.795096 178.49532 
L 279.516736 179.599429 
L 279.905311 180.34152 
L 280.293886 180.415688 
L 280.460418 180.635498 
L 281.015525 181.714885 
L 281.959207 184.276055 
L 282.347782 184.552243 
L 282.569825 184.53429 
L 282.791868 184.586482 
L 283.346975 185.111509 
L 283.73555 185.483186 
L 285.844957 189.133043 
L 286.289042 190.031852 
L 286.511085 190.202474 
L 286.844149 190.507137 
L 287.343746 191.098945 
L 288.120896 190.805066 
L 288.564981 190.98585 
L 288.731513 191.040782 
L 289.453153 191.330461 
L 289.619685 191.245223 
L 290.00826 191.419531 
L 290.119281 191.426211 
L 290.285813 191.429181 
L 290.507856 191.462425 
L 291.007453 191.99171 
L 291.396028 192.714874 
L 291.673581 192.877712 
L 292.117667 192.899832 
L 292.450731 193.223491 
L 293.283392 195.447837 
L 293.727477 195.466076 
L 293.94952 195.574612 
L 294.615649 195.998625 
L 295.004224 195.919137 
L 296.28097 196.119195 
L 296.558524 196.561096 
L 296.947099 197.243693 
L 297.224652 197.439064 
L 297.557716 197.522838 
L 297.668738 197.643191 
L 298.112823 198.209621 
L 298.723441 198.657833 
L 299.334059 198.943292 
L 299.944677 199.302681 
L 300.16672 199.359985 
L 301.110402 200.408539 
L 302.054084 200.984534 
L 302.609191 201.67026 
L 303.164298 202.003598 
L 303.497362 202.197304 
L 304.274512 202.488668 
L 305.384726 202.898632 
L 306.605962 203.645997 
L 306.828005 203.793646 
L 306.994537 203.908927 
L 307.21658 204.002871 
L 307.494133 204.119403 
L 308.215773 204.78967 
L 308.548837 205.01397 
L 308.992923 205.101771 
L 309.54803 205.492479 
L 310.047626 205.87585 
L 312.545608 208.396154 
L 312.878672 208.515844 
L 313.045204 208.557515 
L 313.322758 208.595977 
L 313.933376 208.647855 
L 314.543994 208.647834 
L 314.710526 208.689296 
L 315.154611 208.823075 
L 316.320336 209.351034 
L 316.875443 209.601534 
L 317.430551 209.823505 
L 317.763615 209.957429 
L 317.985658 209.972552 
L 318.596275 210.180652 
L 318.873829 210.25215 
L 319.817511 210.371039 
L 320.150575 210.434286 
L 320.705682 210.65562 
L 321.3163 210.790146 
L 321.760386 210.984827 
L 322.09345 211.181642 
L 324.091836 211.458252 
L 324.757964 211.555642 
L 326.423286 212.405511 
L 327.200435 212.524486 
L 327.644521 212.585233 
L 327.977585 212.627505 
L 328.865757 212.848283 
L 330.919653 213.105011 
L 331.308228 213.084321 
L 332.307421 213.384473 
L 333.251103 213.563977 
L 333.473146 213.632667 
L 333.695189 213.654222 
L 334.194785 213.736305 
L 334.58336 213.780355 
L 335.304999 213.814558 
L 335.749085 213.777149 
L 336.248681 213.786754 
L 336.91481 213.707452 
L 339.024217 213.94661 
L 339.357281 213.968072 
L 343.465073 214.012318 
L 345.241416 213.840684 
L 345.907545 213.914591 
L 347.017759 213.948106 
L 347.517355 214.04647 
L 349.293698 214.029956 
L 349.737784 214.300512 
L 350.459423 214.973393 
L 350.736976 215.094518 
L 351.847191 215.506274 
L 352.56883 215.585264 
L 352.901894 215.525915 
L 353.401491 215.50437 
L 353.790065 215.48428 
L 354.567215 215.450947 
L 357.342751 215.407868 
L 358.897051 215.679155 
L 359.285626 215.900571 
L 360.229308 216.405076 
L 361.561565 216.716258 
L 362.283204 217.064406 
L 362.671779 217.266236 
L 363.004843 217.403977 
L 363.948525 217.545467 
L 364.503632 217.62793 
L 365.003229 217.840143 
L 365.447315 217.919853 
L 365.780379 217.957746 
L 366.224465 217.934271 
L 366.446507 217.900004 
L 368.777957 217.93675 
L 369.388575 217.929026 
L 370.221236 217.914027 
L 370.443278 217.965754 
L 373.107793 217.94623 
L 373.829432 217.906428 
L 374.273517 217.852915 
L 374.662092 217.88774 
L 375.27271 217.921573 
L 376.327414 218.099669 
L 377.382117 218.115214 
L 378.214778 218.246542 
L 379.769078 218.324927 
L 380.268674 218.343953 
L 380.601738 218.373196 
L 382.26706 218.464054 
L 382.711145 218.429796 
L 382.988699 218.470077 
L 383.87687 218.37875 
L 384.931574 218.357278 
L 385.597702 218.402692 
L 386.652406 218.489831 
L 388.151195 218.620557 
L 388.817323 218.605628 
L 389.427941 218.644435 
L 390.14958 218.729587 
L 391.148773 218.699043 
L 391.481838 218.713525 
L 393.369202 219.30297 
L 395.201055 219.368226 
L 401.196212 219.267833 
L 402.028872 219.244396 
L 402.528469 219.177132 
L 403.41664 219.107178 
L 404.249301 219.074415 
L 405.526047 219.147188 
L 406.025644 219.17498 
L 410.522011 219.101644 
L 410.910586 219.230931 
L 411.743247 219.384271 
L 413.131014 219.468578 
L 413.686121 219.496045 
L 414.074696 219.497781 
L 415.184911 219.491522 
L 417.238807 219.613497 
L 418.737596 219.73849 
L 419.292703 219.77905 
L 420.402917 220.047996 
L 420.62496 220.071191 
L 421.40211 220.081971 
L 421.957217 219.984037 
L 422.345792 219.96999 
L 423.511517 220.106673 
L 424.344178 220.148571 
L 425.176838 220.191205 
L 427.119713 220.436211 
L 428.174417 220.441618 
L 429.118099 220.584847 
L 430.672399 220.480715 
L 432.393231 220.414973 
L 433.392423 220.484777 
L 433.947531 220.470459 
L 436.334491 220.352248 
L 439.221048 220.479974 
L 440.775348 220.884683 
L 442.718223 220.954199 
L 445.60478 220.810416 
L 446.43744 220.758124 
L 448.213783 220.746121 
L 448.990933 220.786574 
L 450.989319 220.766244 
L 451.988511 220.636587 
L 453.764854 220.698424 
L 455.097111 220.758049 
L 455.596707 220.802685 
L 457.262029 220.829544 
L 458.039179 220.885461 
L 458.483264 220.9092 
L 459.982054 221.051179 
L 462.257993 221.170678 
L 462.979632 221.188771 
L 468.641724 221.046274 
L 470.085003 221.059801 
L 471.250728 221.003578 
L 475.691584 220.850135 
L 477.745481 220.97126 
L 479.965909 220.963239 
L 479.965909 220.963239 
" style="fill:none;stroke:#ff0000;stroke-linecap:square;stroke-width:1.5;"/>
   </g>
   <g id="patch_3">
    <path d="M 246.9375 277.165 
L 246.9375 60.48 
" style="fill:none;stroke:#000000;stroke-linecap:square;stroke-linejoin:miter;stroke-width:0.8;"/>
   </g>
   <g id="patch_4">
    <path d="M 491.0625 277.165 
L 491.0625 60.48 
" style="fill:none;stroke:#000000;stroke-linecap:square;stroke-linejoin:miter;stroke-width:0.8;"/>
   </g>
   <g id="patch_5">
    <path d="M 246.9375 277.165 
L 491.0625 277.165 
" style="fill:none;stroke:#000000;stroke-linecap:square;stroke-linejoin:miter;stroke-width:0.8;"/>
   </g>
   <g id="patch_6">
    <path d="M 246.9375 60.48 
L 491.0625 60.48 
" style="fill:none;stroke:#000000;stroke-linecap:square;stroke-linejoin:miter;stroke-width:0.8;"/>
   </g>
   <g id="legend_1">
    <g id="patch_7">
     <path d="M 506.26875 149.851875 
L 612.76875 149.851875 
Q 615.76875 149.851875 615.76875 146.851875 
L 615.76875 63.48 
Q 615.76875 60.48 612.76875 60.48 
L 506.26875 60.48 
Q 503.26875 60.48 503.26875 63.48 
L 503.26875 146.851875 
Q 503.26875 149.851875 506.26875 149.851875 
z
" style="fill:#ffffff;opacity:0.8;stroke:#cccccc;stroke-linejoin:miter;"/>
    </g>
    <g id="line2d_16">
     <path d="M 509.26875 71.966719 
L 539.26875 71.966719 
" style="fill:none;stroke:#4169e1;stroke-linecap:square;stroke-width:1.5;"/>
    </g>
    <g id="line2d_17"/>
    <g id="text_14">
     <!-- $N_{osc}$ =  3 -->
     <defs>
      <path d="M 72.703125 65.296875 
L 72.703125 63.703125 
Q 70 63.09375 68.953125 62.75 
Q 67.90625 62.40625 66.65625 60.65625 
Q 65.40625 58.90625 64.75 56.796875 
Q 64.09375 54.703125 62.5 49.203125 
L 47.90625 -1.5 
L 46.09375 -1.5 
L 23.09375 53.5 
L 11.703125 11.296875 
Q 10.796875 8.203125 10.796875 5.90625 
Q 10.796875 3.796875 12.34375 2.84375 
Q 13.90625 1.90625 17.796875 1.59375 
L 17.796875 0 
L -2 0 
L -2 1.59375 
Q 2.296875 2.203125 4.09375 4.75 
Q 5.90625 7.296875 8.59375 16.796875 
L 20.296875 58.296875 
Q 18 63.703125 11.703125 63.703125 
L 11.703125 65.296875 
L 27.703125 65.296875 
L 48.40625 15.40625 
L 59 54.203125 
Q 59.796875 57 59.796875 58.59375 
Q 59.796875 61.296875 58.4375 62.296875 
Q 57.09375 63.296875 52.90625 63.703125 
L 52.90625 65.296875 
z
" id="STIXGeneral-Italic-78"/>
      <path d="M 46.796875 30.09375 
Q 46.796875 24.40625 43.9375 18.25 
Q 41.09375 12.09375 36.203125 7.203125 
Q 27.90625 -1.09375 17.40625 -1.09375 
Q 10.40625 -1.09375 6.546875 2.546875 
Q 2.703125 6.203125 2.703125 12.796875 
Q 2.703125 21.09375 7.75 29 
Q 12.796875 36.90625 20.703125 41.09375 
Q 26.296875 44.09375 32.703125 44.09375 
Q 38.90625 44.09375 42.84375 40.34375 
Q 46.796875 36.59375 46.796875 30.09375 
z
M 38.40625 32.59375 
Q 38.40625 37.09375 36.5 39.546875 
Q 34.59375 42 31.296875 42 
Q 24.59375 42 18.5 32.90625 
Q 11.09375 21.59375 11.09375 10.09375 
Q 11.09375 5.703125 13.1875 3.34375 
Q 15.296875 1 18.90625 1 
Q 25 1 31 9.296875 
Q 34.40625 13.90625 36.40625 20.34375 
Q 38.40625 26.796875 38.40625 32.59375 
z
" id="STIXGeneral-Italic-111"/>
      <path d="M 36.59375 44.203125 
L 34.59375 30.203125 
L 33 30.203125 
Q 31.59375 41.796875 24.09375 41.796875 
Q 21.40625 41.796875 19.796875 40.296875 
Q 18.203125 38.796875 18.203125 36.09375 
Q 18.203125 32.296875 23.59375 25.90625 
Q 30.40625 18 30.40625 12.296875 
Q 30.40625 6.203125 26.34375 2.546875 
Q 22.296875 -1.09375 16 -1.09375 
Q 13.09375 -1.09375 10.5 -0.09375 
Q 8.40625 0.796875 6.09375 0.796875 
Q 4.09375 0.796875 3.203125 -1.296875 
L 1.59375 -1.296875 
L 3.59375 14.59375 
L 5.203125 14.59375 
Q 7.203125 1 15.203125 1 
Q 18.796875 1 20.796875 3 
Q 22.796875 5 22.796875 8.703125 
Q 22.796875 13.203125 17.203125 20.203125 
Q 10.90625 28.09375 10.90625 33.296875 
Q 10.90625 38.296875 14.203125 41.1875 
Q 17.5 44.09375 23 44.09375 
Q 25 44.09375 28.59375 43.09375 
Q 30.796875 42.40625 32.203125 42.40625 
Q 34.203125 42.40625 35.203125 44.203125 
z
" id="STIXGeneral-Italic-115"/>
      <path d="M 35 10.703125 
L 36.59375 9.703125 
Q 32 3.90625 27.640625 1.40625 
Q 23.296875 -1.09375 17.703125 -1.09375 
Q 10.59375 -1.09375 6.796875 2.796875 
Q 3 6.703125 3 14.296875 
Q 3 21 6.390625 27.25 
Q 9.796875 33.5 15.296875 38 
Q 23 44.09375 32 44.09375 
Q 36.59375 44.09375 39.546875 41.796875 
Q 42.5 39.5 42.5 36 
Q 42.5 34 41.09375 32.59375 
Q 39.703125 31.203125 37.703125 31.203125 
Q 35.703125 31.203125 34.75 32.34375 
Q 33.796875 33.5 33.796875 35.203125 
Q 33.796875 36.09375 34.546875 37.546875 
Q 35.296875 39 35.296875 40 
Q 35.296875 42 31.59375 42 
Q 25.296875 42 20.703125 37.203125 
Q 11.59375 27.59375 11.59375 13.90625 
Q 11.59375 8.5 13.890625 5.5 
Q 16.203125 2.5 20.5 2.5 
Q 24.40625 2.5 27.59375 4.390625 
Q 30.796875 6.296875 35 10.703125 
z
" id="STIXGeneral-Italic-99"/>
      <path d="M 52.828125 42.09375 
L 5.5625 42.09375 
L 5.5625 50.296875 
L 52.828125 50.296875 
z
M 52.828125 20.359375 
L 5.5625 20.359375 
L 5.5625 28.5625 
L 52.828125 28.5625 
z
" id="ArialMT-61"/>
     </defs>
     <g transform="translate(551.26875 77.216719)scale(0.15 -0.15)">
      <use transform="translate(0 0.125)" xlink:href="#STIXGeneral-Italic-78"/>
      <use transform="translate(66.699997 -13.103125)scale(0.7)" xlink:href="#STIXGeneral-Italic-111"/>
      <use transform="translate(101.699986 -13.103125)scale(0.7)" xlink:href="#STIXGeneral-Italic-115"/>
      <use transform="translate(128.929982 -13.103125)scale(0.7)" xlink:href="#STIXGeneral-Italic-99"/>
      <use transform="translate(164.419353 0.125)" xlink:href="#ArialMT-32"/>
      <use transform="translate(192.202556 0.125)" xlink:href="#ArialMT-61"/>
      <use transform="translate(250.600993 0.125)" xlink:href="#ArialMT-32"/>
      <use transform="translate(278.384196 0.125)" xlink:href="#ArialMT-32"/>
      <use transform="translate(306.1674 0.125)" xlink:href="#ArialMT-51"/>
     </g>
    </g>
    <g id="line2d_18">
     <path d="M 509.26875 93.184688 
L 539.26875 93.184688 
" style="fill:none;stroke:#ff6347;stroke-linecap:square;stroke-width:1.5;"/>
    </g>
    <g id="line2d_19"/>
    <g id="text_15">
     <!-- $N_{osc}$ = 10 -->
     <g transform="translate(551.26875 98.434688)scale(0.15 -0.15)">
      <use transform="translate(0 0.125)" xlink:href="#STIXGeneral-Italic-78"/>
      <use transform="translate(66.699997 -13.103125)scale(0.7)" xlink:href="#STIXGeneral-Italic-111"/>
      <use transform="translate(101.699986 -13.103125)scale(0.7)" xlink:href="#STIXGeneral-Italic-115"/>
      <use transform="translate(128.929982 -13.103125)scale(0.7)" xlink:href="#STIXGeneral-Italic-99"/>
      <use transform="translate(164.419353 0.125)" xlink:href="#ArialMT-32"/>
      <use transform="translate(192.202556 0.125)" xlink:href="#ArialMT-61"/>
      <use transform="translate(250.600993 0.125)" xlink:href="#ArialMT-32"/>
      <use transform="translate(278.384196 0.125)" xlink:href="#ArialMT-49"/>
      <use transform="translate(333.999431 0.125)" xlink:href="#ArialMT-48"/>
     </g>
    </g>
    <g id="line2d_20">
     <path d="M 509.26875 114.402656 
L 539.26875 114.402656 
" style="fill:none;stroke:#228b22;stroke-linecap:square;stroke-width:1.5;"/>
    </g>
    <g id="line2d_21"/>
    <g id="text_16">
     <!-- $N_{osc}$ = 15 -->
     <g transform="translate(551.26875 119.652656)scale(0.15 -0.15)">
      <use transform="translate(0 0.125)" xlink:href="#STIXGeneral-Italic-78"/>
      <use transform="translate(66.699997 -13.103125)scale(0.7)" xlink:href="#STIXGeneral-Italic-111"/>
      <use transform="translate(101.699986 -13.103125)scale(0.7)" xlink:href="#STIXGeneral-Italic-115"/>
      <use transform="translate(128.929982 -13.103125)scale(0.7)" xlink:href="#STIXGeneral-Italic-99"/>
      <use transform="translate(164.419353 0.125)" xlink:href="#ArialMT-32"/>
      <use transform="translate(192.202556 0.125)" xlink:href="#ArialMT-61"/>
      <use transform="translate(250.600993 0.125)" xlink:href="#ArialMT-32"/>
      <use transform="translate(278.384196 0.125)" xlink:href="#ArialMT-49"/>
      <use transform="translate(333.999431 0.125)" xlink:href="#ArialMT-53"/>
     </g>
    </g>
    <g id="line2d_22">
     <path d="M 509.26875 135.620625 
L 539.26875 135.620625 
" style="fill:none;stroke:#ff0000;stroke-linecap:square;stroke-width:1.5;"/>
    </g>
    <g id="line2d_23"/>
    <g id="text_17">
     <!-- $N_{osc}$ = 20 -->
     <g transform="translate(551.26875 140.870625)scale(0.15 -0.15)">
      <use transform="translate(0 0.125)" xlink:href="#STIXGeneral-Italic-78"/>
      <use transform="translate(66.699997 -13.103125)scale(0.7)" xlink:href="#STIXGeneral-Italic-111"/>
      <use transform="translate(101.699986 -13.103125)scale(0.7)" xlink:href="#STIXGeneral-Italic-115"/>
      <use transform="translate(128.929982 -13.103125)scale(0.7)" xlink:href="#STIXGeneral-Italic-99"/>
      <use transform="translate(164.419353 0.125)" xlink:href="#ArialMT-32"/>
      <use transform="translate(192.202556 0.125)" xlink:href="#ArialMT-61"/>
      <use transform="translate(250.600993 0.125)" xlink:href="#ArialMT-32"/>
      <use transform="translate(278.384196 0.125)" xlink:href="#ArialMT-50"/>
      <use transform="translate(333.999431 0.125)" xlink:href="#ArialMT-48"/>
     </g>
    </g>
   </g>
  </g>
  <g id="axes_2">
   <g id="patch_8">
    <path d="M 90 441 
L 177.1875 441 
L 177.1875 361.725 
L 90 361.725 
z
" style="fill:#ffffff;"/>
   </g>
   <g id="matplotlib.axis_3">
    <g id="xtick_6">
     <g id="line2d_24">
      <g>
       <use style="stroke:#000000;stroke-width:0.8;" x="93.632812" xlink:href="#m01a166078c" y="441"/>
      </g>
     </g>
     <g id="text_18">
      <!-- 0 -->
      <g transform="translate(89.462109 458.736719)scale(0.15 -0.15)">
       <use xlink:href="#ArialMT-48"/>
      </g>
     </g>
    </g>
    <g id="xtick_7">
     <g id="line2d_25">
      <g>
       <use style="stroke:#000000;stroke-width:0.8;" x="129.960938" xlink:href="#m01a166078c" y="441"/>
      </g>
     </g>
     <g id="text_19">
      <!-- 500 -->
      <g transform="translate(117.448828 458.736719)scale(0.15 -0.15)">
       <use xlink:href="#ArialMT-53"/>
       <use x="55.615234" xlink:href="#ArialMT-48"/>
       <use x="111.230469" xlink:href="#ArialMT-48"/>
      </g>
     </g>
    </g>
    <g id="xtick_8">
     <g id="line2d_26">
      <g>
       <use style="stroke:#000000;stroke-width:0.8;" x="166.289062" xlink:href="#m01a166078c" y="441"/>
      </g>
     </g>
     <g id="text_20">
      <!-- 1000 -->
      <g transform="translate(149.60625 458.736719)scale(0.15 -0.15)">
       <use xlink:href="#ArialMT-49"/>
       <use x="55.615234" xlink:href="#ArialMT-48"/>
       <use x="111.230469" xlink:href="#ArialMT-48"/>
       <use x="166.845703" xlink:href="#ArialMT-48"/>
      </g>
     </g>
    </g>
    <g id="text_21">
     <!-- # sample -->
     <g transform="translate(103.163672 476.6375)scale(0.15 -0.15)">
      <use xlink:href="#ArialMT-35"/>
      <use x="55.615234" xlink:href="#ArialMT-32"/>
      <use x="83.398438" xlink:href="#ArialMT-115"/>
      <use x="133.398438" xlink:href="#ArialMT-97"/>
      <use x="189.013672" xlink:href="#ArialMT-109"/>
      <use x="272.314453" xlink:href="#ArialMT-112"/>
      <use x="327.929688" xlink:href="#ArialMT-108"/>
      <use x="350.146484" xlink:href="#ArialMT-101"/>
     </g>
    </g>
   </g>
   <g id="matplotlib.axis_4">
    <g id="ytick_7">
     <g id="line2d_27">
      <g>
       <use style="stroke:#000000;stroke-width:0.8;" x="90" xlink:href="#me3135b632d" y="441"/>
      </g>
     </g>
     <g id="text_22">
      <!-- 0 -->
      <g transform="translate(74.658594 446.368359)scale(0.15 -0.15)">
       <use xlink:href="#ArialMT-48"/>
      </g>
     </g>
    </g>
    <g id="ytick_8">
     <g id="line2d_28">
      <g>
       <use style="stroke:#000000;stroke-width:0.8;" x="90" xlink:href="#me3135b632d" y="377.58"/>
      </g>
     </g>
     <g id="text_23">
      <!-- 2 -->
      <g transform="translate(74.658594 382.948359)scale(0.15 -0.15)">
       <use xlink:href="#ArialMT-50"/>
      </g>
     </g>
    </g>
    <g id="text_24">
     <!-- MAE (a.u.) -->
     <defs>
      <path d="M 7.421875 0 
L 7.421875 71.578125 
L 21.6875 71.578125 
L 38.625 20.90625 
Q 40.96875 13.8125 42.046875 10.296875 
Q 43.265625 14.203125 45.84375 21.78125 
L 62.984375 71.578125 
L 75.734375 71.578125 
L 75.734375 0 
L 66.609375 0 
L 66.609375 59.90625 
L 45.796875 0 
L 37.25 0 
L 16.546875 60.9375 
L 16.546875 0 
z
" id="ArialMT-77"/>
      <path d="M -0.140625 0 
L 27.34375 71.578125 
L 37.546875 71.578125 
L 66.84375 0 
L 56.0625 0 
L 47.703125 21.6875 
L 17.78125 21.6875 
L 9.90625 0 
z
M 20.515625 29.390625 
L 44.78125 29.390625 
L 37.3125 49.21875 
Q 33.890625 58.25 32.234375 64.0625 
Q 30.859375 57.171875 28.375 50.390625 
z
" id="ArialMT-65"/>
      <path d="M 7.90625 0 
L 7.90625 71.578125 
L 59.671875 71.578125 
L 59.671875 63.140625 
L 17.390625 63.140625 
L 17.390625 41.21875 
L 56.984375 41.21875 
L 56.984375 32.8125 
L 17.390625 32.8125 
L 17.390625 8.453125 
L 61.328125 8.453125 
L 61.328125 0 
z
" id="ArialMT-69"/>
     </defs>
     <g transform="translate(67.501562 437.201953)rotate(-90)scale(0.15 -0.15)">
      <use xlink:href="#ArialMT-77"/>
      <use x="83.300781" xlink:href="#ArialMT-65"/>
      <use x="150" xlink:href="#ArialMT-69"/>
      <use x="216.699219" xlink:href="#ArialMT-32"/>
      <use x="244.482422" xlink:href="#ArialMT-40"/>
      <use x="277.783203" xlink:href="#ArialMT-97"/>
      <use x="333.398438" xlink:href="#ArialMT-46"/>
      <use x="361.181641" xlink:href="#ArialMT-117"/>
      <use x="416.796875" xlink:href="#ArialMT-46"/>
      <use x="444.580078" xlink:href="#ArialMT-41"/>
     </g>
    </g>
   </g>
   <g id="line2d_29">
    <path clip-path="url(#p11471466ef)" d="M 93.632812 388.692192 
L 93.850781 369.019445 
L 94.06875 366.958103 
L 94.214062 366.761797 
L 94.359375 366.88294 
L 94.504688 367.491158 
L 94.722656 370.279747 
L 95.303906 380.631009 
L 95.594531 381.09773 
L 95.667187 381.104894 
L 95.957813 380.445881 
L 96.175781 380.280101 
L 96.684375 380.427383 
L 97.192969 381.695781 
L 97.628906 383.319707 
L 97.846875 384.369304 
L 98.500781 386.97486 
L 99.009375 391.820572 
L 99.590625 401.548531 
L 100.4625 418.839889 
L 101.479687 432.586824 
L 101.770313 435.147471 
L 101.842969 434.957084 
L 101.915625 434.876772 
L 102.133594 434.135657 
L 102.569531 435.033523 
L 102.932812 436.463424 
L 103.078125 436.844006 
L 103.150781 436.771969 
L 103.296094 437.098016 
L 104.458594 439.096166 
L 104.603906 439.511476 
L 104.676563 439.50969 
L 104.821875 439.898978 
L 104.894531 439.871431 
L 105.039844 440.108816 
L 105.1125 439.948404 
L 105.330469 440.143877 
L 105.403125 439.707772 
L 105.475781 439.758289 
L 105.621094 439.657006 
L 106.202344 440.196598 
L 106.492969 439.936207 
L 106.710938 440.128328 
L 106.783594 440.235387 
L 106.85625 440.110556 
L 107.074219 440.283971 
L 107.146875 440.229658 
L 107.292187 440.25916 
L 107.582813 440.230413 
L 107.728125 440.175185 
L 108.091406 440.09033 
L 108.382031 439.897692 
L 108.890625 440.152934 
L 109.108594 440.165243 
L 109.326562 440.244255 
L 109.835156 439.960516 
L 110.198437 439.964173 
L 110.561719 440.046003 
L 110.997656 440.352544 
L 111.215625 440.35142 
L 112.886719 440.396442 
L 113.032031 440.356976 
L 113.177344 440.363531 
L 113.540625 440.439818 
L 113.758594 440.452503 
L 114.194531 440.373068 
L 114.557812 440.435692 
L 115.066406 440.427332 
L 115.720313 440.497474 
L 116.083594 440.489043 
L 116.592187 440.505682 
L 116.810156 440.489575 
L 117.391406 440.496531 
L 118.626563 440.420779 
L 122.477344 440.545108 
L 123.13125 440.50535 
L 123.7125 440.491786 
L 124.875 440.558367 
L 125.528906 440.563609 
L 128.071875 440.581415 
L 129.525 440.591793 
L 153.864844 440.65472 
L 155.172656 440.660659 
L 156.480469 440.643768 
L 160.185938 440.639792 
L 163.164844 440.6143 
L 165.780469 440.606455 
L 170.2125 440.605708 
L 174.28125 440.590196 
L 175.807031 440.585311 
L 177.260156 440.593856 
L 177.260156 440.593856 
" style="fill:none;stroke:#4169e1;stroke-linecap:square;stroke-width:1.5;"/>
   </g>
   <g id="line2d_30">
    <path clip-path="url(#p11471466ef)" d="M 90 409.428684 
L 387.745313 409.428684 
" style="fill:none;stroke:#000000;stroke-dasharray:5.55,2.4;stroke-dashoffset:0;stroke-width:1.5;"/>
   </g>
   <g id="patch_9">
    <path d="M 90 441 
L 90 361.725 
" style="fill:none;stroke:#000000;stroke-linecap:square;stroke-linejoin:miter;stroke-width:0.8;"/>
   </g>
   <g id="patch_10">
    <path d="M 177.1875 441 
L 177.1875 361.725 
" style="fill:none;stroke:#000000;stroke-linecap:square;stroke-linejoin:miter;stroke-width:0.8;"/>
   </g>
   <g id="patch_11">
    <path d="M 90 441 
L 177.1875 441 
" style="fill:none;stroke:#000000;stroke-linecap:square;stroke-linejoin:miter;stroke-width:0.8;"/>
   </g>
   <g id="patch_12">
    <path d="M 90 361.725 
L 177.1875 361.725 
" style="fill:none;stroke:#000000;stroke-linecap:square;stroke-linejoin:miter;stroke-width:0.8;"/>
   </g>
   <g id="text_25">
    <!-- $95 \%$ CI -->
    <defs>
     <path d="M 5.90625 -2.203125 
L 5.59375 -0.203125 
Q 17.09375 1.796875 25.046875 9.5 
Q 33 17.203125 36 29.40625 
Q 30.203125 23.703125 21 23.703125 
Q 12.90625 23.703125 7.953125 29.296875 
Q 3 34.90625 3 44 
Q 3 54.09375 8.953125 60.84375 
Q 14.90625 67.59375 23.796875 67.59375 
Q 33.296875 67.59375 39.5 60 
Q 45.90625 52 45.90625 39.40625 
Q 45.90625 30.59375 42.84375 22.84375 
Q 39.796875 15.09375 33.90625 9.703125 
Q 27.703125 4.09375 21.796875 1.640625 
Q 15.90625 -0.796875 5.90625 -2.203125 
z
M 36.203125 35.5 
L 36.203125 39.40625 
Q 36.203125 64.796875 23 64.796875 
Q 18.296875 64.796875 15.703125 61.40625 
Q 14.203125 59.40625 13.203125 55.40625 
Q 12.203125 51.40625 12.203125 47.40625 
Q 12.203125 38.5 15.546875 33.25 
Q 18.90625 28 24.5 28 
Q 28.5 28 32.34375 29.953125 
Q 36.203125 31.90625 36.203125 35.5 
z
" id="STIXGeneral-Regular-57"/>
     <path d="M 43.796875 68.09375 
L 40.203125 59.59375 
Q 39.59375 58.296875 37.5 58.296875 
L 18.09375 58.296875 
L 14.09375 49.796875 
Q 25.09375 47.703125 30 45.25 
Q 34.90625 42.796875 39.09375 37 
Q 42.59375 32.203125 42.59375 24.296875 
Q 42.59375 17.09375 40.25 12.1875 
Q 37.90625 7.296875 32.796875 3.5 
Q 26 -1.40625 15.796875 -1.40625 
Q 10.09375 -1.40625 6.59375 0.296875 
Q 3.09375 2 3.09375 4.796875 
Q 3.09375 8.59375 7.59375 8.59375 
Q 11.203125 8.59375 15 5.5 
Q 18.90625 2.296875 22.09375 2.296875 
Q 27.296875 2.296875 31.4375 7.5 
Q 35.59375 12.703125 35.59375 19.203125 
Q 35.59375 28.796875 28.90625 34.203125 
Q 20.203125 41.203125 7.59375 41.203125 
Q 6.40625 41.203125 6.40625 42 
L 6.5 42.5 
L 17.40625 66.203125 
L 38.09375 66.203125 
Q 39.796875 66.203125 40.75 66.703125 
Q 41.703125 67.203125 42.90625 68.796875 
z
" id="STIXGeneral-Regular-53"/>
     <path d="M 68.59375 21.296875 
Q 68.59375 12.203125 63.59375 5.140625 
Q 58.59375 -1.90625 52.203125 -1.90625 
Q 47.09375 -1.90625 43.59375 2.09375 
Q 40.09375 6.09375 40.09375 11.90625 
Q 40.09375 19.90625 45.9375 26.453125 
Q 51.796875 33 59 33 
Q 63.59375 33 66.09375 29.953125 
Q 68.59375 26.90625 68.59375 21.296875 
z
M 66.296875 21.5 
Q 66.296875 25.40625 64.546875 27.796875 
Q 62.796875 30.203125 60 30.203125 
Q 57.09375 30.203125 55.09375 27.90625 
Q 51.796875 24.40625 49.546875 18.546875 
Q 47.296875 12.703125 47.296875 7.59375 
Q 47.296875 4.703125 48.890625 2.75 
Q 50.5 0.796875 52.90625 0.796875 
Q 58.09375 0.796875 62.1875 7.140625 
Q 66.296875 13.5 66.296875 21.5 
z
M 62.09375 70.59375 
L 19.09375 -1.796875 
L 14.40625 -1.796875 
L 53.796875 64 
Q 51 60.796875 48.34375 59.546875 
Q 45.703125 58.296875 41.703125 58.296875 
Q 38.203125 58.296875 34.09375 59.703125 
Q 34.5 57.40625 34.5 55.296875 
Q 34.5 50.09375 32.296875 44.890625 
Q 30.09375 39.703125 26.5 36.296875 
Q 22.703125 32.59375 17.90625 32.59375 
Q 12.90625 32.59375 9.5 36.546875 
Q 6.09375 40.5 6.09375 46.296875 
Q 6.09375 54.796875 11.890625 61.1875 
Q 17.703125 67.59375 25.40625 67.59375 
Q 28 67.59375 31.40625 64.796875 
Q 36.09375 60.90625 41 60.90625 
Q 45.59375 60.90625 48.1875 62.40625 
Q 50.796875 63.90625 57.703125 70.59375 
z
M 32.09375 56.90625 
Q 32.09375 59.09375 31.640625 59.890625 
Q 31.203125 60.703125 29.59375 61.5 
Q 27.296875 62.59375 25.203125 64.90625 
Q 22.09375 63.40625 20.796875 62.25 
Q 19.5 61.09375 18 58.59375 
Q 13.203125 51 13.203125 42.296875 
Q 13.203125 39.203125 14.75 37.25 
Q 16.296875 35.296875 18.90625 35.296875 
Q 24.203125 35.296875 28.140625 41.796875 
Q 32.09375 48.296875 32.09375 56.90625 
z
" id="STIXGeneral-Regular-37"/>
     <path d="M 58.796875 25.09375 
L 68.265625 22.703125 
Q 65.28125 11.03125 57.546875 4.90625 
Q 49.8125 -1.21875 38.625 -1.21875 
Q 27.046875 -1.21875 19.796875 3.484375 
Q 12.546875 8.203125 8.765625 17.140625 
Q 4.984375 26.078125 4.984375 36.328125 
Q 4.984375 47.515625 9.25 55.828125 
Q 13.53125 64.15625 21.40625 68.46875 
Q 29.296875 72.796875 38.765625 72.796875 
Q 49.515625 72.796875 56.828125 67.328125 
Q 64.15625 61.859375 67.046875 51.953125 
L 57.71875 49.75 
Q 55.21875 57.5625 50.484375 61.125 
Q 45.75 64.703125 38.578125 64.703125 
Q 30.328125 64.703125 24.78125 60.734375 
Q 19.234375 56.78125 16.984375 50.109375 
Q 14.75 43.453125 14.75 36.375 
Q 14.75 27.25 17.40625 20.4375 
Q 20.0625 13.625 25.671875 10.25 
Q 31.296875 6.890625 37.84375 6.890625 
Q 45.796875 6.890625 51.3125 11.46875 
Q 56.84375 16.0625 58.796875 25.09375 
z
" id="ArialMT-67"/>
     <path d="M 9.328125 0 
L 9.328125 71.578125 
L 18.796875 71.578125 
L 18.796875 0 
z
" id="ArialMT-73"/>
    </defs>
    <g transform="translate(129.032813 406.447434)scale(0.15 -0.15)">
     <use transform="translate(0 0.203125)" xlink:href="#STIXGeneral-Regular-57"/>
     <use transform="translate(49.999985 0.203125)" xlink:href="#STIXGeneral-Regular-53"/>
     <use transform="translate(99.999969 0.203125)" xlink:href="#STIXGeneral-Regular-37"/>
     <use transform="translate(174.699951 0.203125)" xlink:href="#ArialMT-32"/>
     <use transform="translate(202.483154 0.203125)" xlink:href="#ArialMT-67"/>
     <use transform="translate(274.699951 0.203125)" xlink:href="#ArialMT-73"/>
    </g>
   </g>
   <g id="text_26">
    <!-- $N_{osc}$ =  3 -->
    <g transform="translate(101.01375 355.725)scale(0.18 -0.18)">
     <use transform="translate(0 0.125)" xlink:href="#STIXGeneral-Italic-78"/>
     <use transform="translate(66.699997 -13.103125)scale(0.7)" xlink:href="#STIXGeneral-Italic-111"/>
     <use transform="translate(101.699986 -13.103125)scale(0.7)" xlink:href="#STIXGeneral-Italic-115"/>
     <use transform="translate(128.929982 -13.103125)scale(0.7)" xlink:href="#STIXGeneral-Italic-99"/>
     <use transform="translate(164.419353 0.125)" xlink:href="#ArialMT-32"/>
     <use transform="translate(192.202556 0.125)" xlink:href="#ArialMT-61"/>
     <use transform="translate(250.600993 0.125)" xlink:href="#ArialMT-32"/>
     <use transform="translate(278.384196 0.125)" xlink:href="#ArialMT-32"/>
     <use transform="translate(306.1674 0.125)" xlink:href="#ArialMT-51"/>
    </g>
   </g>
  </g>
  <g id="axes_3">
   <g id="patch_13">
    <path d="M 246.9375 441 
L 334.125 441 
L 334.125 361.725 
L 246.9375 361.725 
z
" style="fill:#ffffff;"/>
   </g>
   <g id="matplotlib.axis_5">
    <g id="xtick_9">
     <g id="line2d_31">
      <g>
       <use style="stroke:#000000;stroke-width:0.8;" x="250.570312" xlink:href="#m01a166078c" y="441"/>
      </g>
     </g>
     <g id="text_27">
      <!-- 0 -->
      <g transform="translate(246.399609 458.736719)scale(0.15 -0.15)">
       <use xlink:href="#ArialMT-48"/>
      </g>
     </g>
    </g>
    <g id="xtick_10">
     <g id="line2d_32">
      <g>
       <use style="stroke:#000000;stroke-width:0.8;" x="286.898438" xlink:href="#m01a166078c" y="441"/>
      </g>
     </g>
     <g id="text_28">
      <!-- 500 -->
      <g transform="translate(274.386328 458.736719)scale(0.15 -0.15)">
       <use xlink:href="#ArialMT-53"/>
       <use x="55.615234" xlink:href="#ArialMT-48"/>
       <use x="111.230469" xlink:href="#ArialMT-48"/>
      </g>
     </g>
    </g>
    <g id="xtick_11">
     <g id="line2d_33">
      <g>
       <use style="stroke:#000000;stroke-width:0.8;" x="323.226562" xlink:href="#m01a166078c" y="441"/>
      </g>
     </g>
     <g id="text_29">
      <!-- 1000 -->
      <g transform="translate(306.54375 458.736719)scale(0.15 -0.15)">
       <use xlink:href="#ArialMT-49"/>
       <use x="55.615234" xlink:href="#ArialMT-48"/>
       <use x="111.230469" xlink:href="#ArialMT-48"/>
       <use x="166.845703" xlink:href="#ArialMT-48"/>
      </g>
     </g>
    </g>
    <g id="text_30">
     <!-- # sample -->
     <g transform="translate(260.101172 476.6375)scale(0.15 -0.15)">
      <use xlink:href="#ArialMT-35"/>
      <use x="55.615234" xlink:href="#ArialMT-32"/>
      <use x="83.398438" xlink:href="#ArialMT-115"/>
      <use x="133.398438" xlink:href="#ArialMT-97"/>
      <use x="189.013672" xlink:href="#ArialMT-109"/>
      <use x="272.314453" xlink:href="#ArialMT-112"/>
      <use x="327.929688" xlink:href="#ArialMT-108"/>
      <use x="350.146484" xlink:href="#ArialMT-101"/>
     </g>
    </g>
   </g>
   <g id="matplotlib.axis_6">
    <g id="ytick_9">
     <g id="line2d_34">
      <g>
       <use style="stroke:#000000;stroke-width:0.8;" x="246.9375" xlink:href="#me3135b632d" y="441"/>
      </g>
     </g>
     <g id="text_31">
      <!-- 0 -->
      <g transform="translate(231.596094 446.368359)scale(0.15 -0.15)">
       <use xlink:href="#ArialMT-48"/>
      </g>
     </g>
    </g>
    <g id="ytick_10">
     <g id="line2d_35">
      <g>
       <use style="stroke:#000000;stroke-width:0.8;" x="246.9375" xlink:href="#me3135b632d" y="377.58"/>
      </g>
     </g>
     <g id="text_32">
      <!-- 2 -->
      <g transform="translate(231.596094 382.948359)scale(0.15 -0.15)">
       <use xlink:href="#ArialMT-50"/>
      </g>
     </g>
    </g>
    <g id="text_33">
     <!-- MAE (a.u.) -->
     <g transform="translate(224.439063 437.201953)rotate(-90)scale(0.15 -0.15)">
      <use xlink:href="#ArialMT-77"/>
      <use x="83.300781" xlink:href="#ArialMT-65"/>
      <use x="150" xlink:href="#ArialMT-69"/>
      <use x="216.699219" xlink:href="#ArialMT-32"/>
      <use x="244.482422" xlink:href="#ArialMT-40"/>
      <use x="277.783203" xlink:href="#ArialMT-97"/>
      <use x="333.398438" xlink:href="#ArialMT-46"/>
      <use x="361.181641" xlink:href="#ArialMT-117"/>
      <use x="416.796875" xlink:href="#ArialMT-46"/>
      <use x="444.580078" xlink:href="#ArialMT-41"/>
     </g>
    </g>
   </g>
   <g id="line2d_36">
    <path clip-path="url(#p9c0dcf0b79)" d="M 250.570312 409.353078 
L 250.788281 396.86199 
L 251.00625 395.545682 
L 251.296875 395.33884 
L 251.5875 395.407729 
L 251.805469 395.761192 
L 251.950781 395.941892 
L 252.096094 395.411013 
L 252.677344 391.511071 
L 252.967969 391.089996 
L 253.185937 391.009411 
L 253.476562 391.172059 
L 253.9125 391.795571 
L 254.275781 392.238372 
L 254.49375 392.250374 
L 254.929688 391.761541 
L 255.510938 391.114073 
L 255.874219 391.013303 
L 256.600781 391.246959 
L 256.964063 391.537495 
L 257.254687 391.79091 
L 257.98125 392.242077 
L 258.707812 392.304483 
L 259.14375 392.341629 
L 259.942969 392.760233 
L 261.250781 393.968035 
L 261.759375 393.840506 
L 262.05 393.77413 
L 262.994531 394.056516 
L 263.357813 394.328893 
L 263.79375 394.773326 
L 264.665625 395.715452 
L 265.028906 395.840634 
L 268.734375 396.650402 
L 269.242969 396.925247 
L 270.1875 397.811815 
L 270.986719 398.489031 
L 271.713281 398.908939 
L 272.948438 399.077414 
L 273.820312 399.646078 
L 274.110937 399.680878 
L 274.474219 399.723734 
L 274.764844 399.776262 
L 275.128125 399.967215 
L 276.871875 402.614261 
L 277.525781 403.1998 
L 279.850781 406.17471 
L 280.722656 407.199298 
L 282.175781 408.976162 
L 283.410937 412.010848 
L 284.936719 415.398184 
L 285.3 415.751682 
L 286.026563 416.576419 
L 286.971094 417.246563 
L 287.407031 417.344079 
L 288.642187 418.809148 
L 289.732031 420.840215 
L 290.022656 421.368882 
L 290.676562 422.305116 
L 290.894531 422.59504 
L 291.475781 423.527773 
L 292.202344 424.017393 
L 292.347656 424.127364 
L 293.001562 424.844854 
L 293.364844 425.046282 
L 294.382031 425.428035 
L 294.817969 425.748441 
L 296.125781 425.963501 
L 296.416406 426.186883 
L 296.997656 426.564256 
L 298.523438 427.820777 
L 299.25 427.960434 
L 300.121875 428.156641 
L 300.921094 428.501616 
L 301.865625 428.655411 
L 303.827344 428.776439 
L 304.263281 428.817448 
L 304.626562 428.87914 
L 306.297656 429.244832 
L 306.733594 429.40595 
L 307.024219 429.498067 
L 308.041406 430.087297 
L 308.477344 430.221661 
L 309.421875 430.537653 
L 310.29375 430.72024 
L 311.165625 430.880303 
L 313.127344 431.223562 
L 314.289844 431.729568 
L 314.871094 432.129295 
L 315.307031 432.383228 
L 315.670313 432.505728 
L 317.414062 432.926938 
L 319.085156 433.303968 
L 319.59375 433.451661 
L 321.628125 434.090967 
L 323.953125 436.543253 
L 325.696875 437.327529 
L 327.440625 437.453977 
L 329.329687 437.465743 
L 329.765625 437.490543 
L 334.197656 437.664507 
L 334.197656 437.664507 
" style="fill:none;stroke:#ff6347;stroke-linecap:square;stroke-width:1.5;"/>
   </g>
   <g id="line2d_37">
    <path clip-path="url(#p9c0dcf0b79)" d="M 246.9375 417.571604 
L 544.682812 417.571604 
" style="fill:none;stroke:#000000;stroke-dasharray:5.55,2.4;stroke-dashoffset:0;stroke-width:1.5;"/>
   </g>
   <g id="patch_14">
    <path d="M 246.9375 441 
L 246.9375 361.725 
" style="fill:none;stroke:#000000;stroke-linecap:square;stroke-linejoin:miter;stroke-width:0.8;"/>
   </g>
   <g id="patch_15">
    <path d="M 334.125 441 
L 334.125 361.725 
" style="fill:none;stroke:#000000;stroke-linecap:square;stroke-linejoin:miter;stroke-width:0.8;"/>
   </g>
   <g id="patch_16">
    <path d="M 246.9375 441 
L 334.125 441 
" style="fill:none;stroke:#000000;stroke-linecap:square;stroke-linejoin:miter;stroke-width:0.8;"/>
   </g>
   <g id="patch_17">
    <path d="M 246.9375 361.725 
L 334.125 361.725 
" style="fill:none;stroke:#000000;stroke-linecap:square;stroke-linejoin:miter;stroke-width:0.8;"/>
   </g>
   <g id="text_34">
    <!-- $95 \%$ CI -->
    <g transform="translate(285.970312 414.590354)scale(0.15 -0.15)">
     <use transform="translate(0 0.203125)" xlink:href="#STIXGeneral-Regular-57"/>
     <use transform="translate(49.999985 0.203125)" xlink:href="#STIXGeneral-Regular-53"/>
     <use transform="translate(99.999969 0.203125)" xlink:href="#STIXGeneral-Regular-37"/>
     <use transform="translate(174.699951 0.203125)" xlink:href="#ArialMT-32"/>
     <use transform="translate(202.483154 0.203125)" xlink:href="#ArialMT-67"/>
     <use transform="translate(274.699951 0.203125)" xlink:href="#ArialMT-73"/>
    </g>
   </g>
   <g id="text_35">
    <!-- $N_{osc}$ = 10 -->
    <g transform="translate(255.43125 355.725)scale(0.18 -0.18)">
     <use transform="translate(0 0.125)" xlink:href="#STIXGeneral-Italic-78"/>
     <use transform="translate(66.699997 -13.103125)scale(0.7)" xlink:href="#STIXGeneral-Italic-111"/>
     <use transform="translate(101.699986 -13.103125)scale(0.7)" xlink:href="#STIXGeneral-Italic-115"/>
     <use transform="translate(128.929982 -13.103125)scale(0.7)" xlink:href="#STIXGeneral-Italic-99"/>
     <use transform="translate(164.419353 0.125)" xlink:href="#ArialMT-32"/>
     <use transform="translate(192.202556 0.125)" xlink:href="#ArialMT-61"/>
     <use transform="translate(250.600993 0.125)" xlink:href="#ArialMT-32"/>
     <use transform="translate(278.384196 0.125)" xlink:href="#ArialMT-49"/>
     <use transform="translate(333.999431 0.125)" xlink:href="#ArialMT-48"/>
    </g>
   </g>
  </g>
  <g id="axes_4">
   <g id="patch_18">
    <path d="M 403.875 441 
L 491.0625 441 
L 491.0625 361.725 
L 403.875 361.725 
z
" style="fill:#ffffff;"/>
   </g>
   <g id="matplotlib.axis_7">
    <g id="xtick_12">
     <g id="line2d_38">
      <g>
       <use style="stroke:#000000;stroke-width:0.8;" x="407.507812" xlink:href="#m01a166078c" y="441"/>
      </g>
     </g>
     <g id="text_36">
      <!-- 0 -->
      <g transform="translate(403.337109 458.736719)scale(0.15 -0.15)">
       <use xlink:href="#ArialMT-48"/>
      </g>
     </g>
    </g>
    <g id="xtick_13">
     <g id="line2d_39">
      <g>
       <use style="stroke:#000000;stroke-width:0.8;" x="443.835938" xlink:href="#m01a166078c" y="441"/>
      </g>
     </g>
     <g id="text_37">
      <!-- 500 -->
      <g transform="translate(431.323828 458.736719)scale(0.15 -0.15)">
       <use xlink:href="#ArialMT-53"/>
       <use x="55.615234" xlink:href="#ArialMT-48"/>
       <use x="111.230469" xlink:href="#ArialMT-48"/>
      </g>
     </g>
    </g>
    <g id="xtick_14">
     <g id="line2d_40">
      <g>
       <use style="stroke:#000000;stroke-width:0.8;" x="480.164062" xlink:href="#m01a166078c" y="441"/>
      </g>
     </g>
     <g id="text_38">
      <!-- 1000 -->
      <g transform="translate(463.48125 458.736719)scale(0.15 -0.15)">
       <use xlink:href="#ArialMT-49"/>
       <use x="55.615234" xlink:href="#ArialMT-48"/>
       <use x="111.230469" xlink:href="#ArialMT-48"/>
       <use x="166.845703" xlink:href="#ArialMT-48"/>
      </g>
     </g>
    </g>
    <g id="text_39">
     <!-- # sample -->
     <g transform="translate(417.038672 476.6375)scale(0.15 -0.15)">
      <use xlink:href="#ArialMT-35"/>
      <use x="55.615234" xlink:href="#ArialMT-32"/>
      <use x="83.398438" xlink:href="#ArialMT-115"/>
      <use x="133.398438" xlink:href="#ArialMT-97"/>
      <use x="189.013672" xlink:href="#ArialMT-109"/>
      <use x="272.314453" xlink:href="#ArialMT-112"/>
      <use x="327.929688" xlink:href="#ArialMT-108"/>
      <use x="350.146484" xlink:href="#ArialMT-101"/>
     </g>
    </g>
   </g>
   <g id="matplotlib.axis_8">
    <g id="ytick_11">
     <g id="line2d_41">
      <g>
       <use style="stroke:#000000;stroke-width:0.8;" x="403.875" xlink:href="#me3135b632d" y="441"/>
      </g>
     </g>
     <g id="text_40">
      <!-- 0 -->
      <g transform="translate(388.533594 446.368359)scale(0.15 -0.15)">
       <use xlink:href="#ArialMT-48"/>
      </g>
     </g>
    </g>
    <g id="ytick_12">
     <g id="line2d_42">
      <g>
       <use style="stroke:#000000;stroke-width:0.8;" x="403.875" xlink:href="#me3135b632d" y="377.58"/>
      </g>
     </g>
     <g id="text_41">
      <!-- 2 -->
      <g transform="translate(388.533594 382.948359)scale(0.15 -0.15)">
       <use xlink:href="#ArialMT-50"/>
      </g>
     </g>
    </g>
    <g id="text_42">
     <!-- MAE (a.u.) -->
     <g transform="translate(381.376563 437.201953)rotate(-90)scale(0.15 -0.15)">
      <use xlink:href="#ArialMT-77"/>
      <use x="83.300781" xlink:href="#ArialMT-65"/>
      <use x="150" xlink:href="#ArialMT-69"/>
      <use x="216.699219" xlink:href="#ArialMT-32"/>
      <use x="244.482422" xlink:href="#ArialMT-40"/>
      <use x="277.783203" xlink:href="#ArialMT-97"/>
      <use x="333.398438" xlink:href="#ArialMT-46"/>
      <use x="361.181641" xlink:href="#ArialMT-117"/>
      <use x="416.796875" xlink:href="#ArialMT-46"/>
      <use x="444.580078" xlink:href="#ArialMT-41"/>
     </g>
    </g>
   </g>
   <g id="line2d_43">
    <path clip-path="url(#p0ad725d001)" d="M 407.507812 414.119698 
L 407.725781 403.080862 
L 407.94375 401.886709 
L 408.234375 401.647917 
L 408.525 401.673982 
L 408.742969 401.713557 
L 408.888281 401.22279 
L 409.542188 398.329197 
L 409.832812 397.996032 
L 410.123438 398.009896 
L 410.486719 398.304266 
L 410.922656 398.671876 
L 411.067969 398.616223 
L 411.939844 397.949859 
L 412.230469 397.973784 
L 412.666406 398.335018 
L 413.102344 398.709527 
L 413.392969 398.516595 
L 414.192187 398.0038 
L 414.991406 397.877151 
L 415.863281 397.86133 
L 417.098437 397.733349 
L 417.389063 397.704739 
L 418.188281 397.357144 
L 418.9875 396.847772 
L 419.423437 396.881848 
L 419.859375 397.173636 
L 420.73125 397.957073 
L 421.239844 398.156905 
L 422.111719 398.471677 
L 422.547656 398.732373 
L 423.201563 399.062297 
L 423.855469 399.124666 
L 424.509375 399.398968 
L 425.817187 400.441902 
L 426.834375 401.472399 
L 427.851562 402.147194 
L 428.505469 402.475182 
L 430.467188 402.864555 
L 431.847656 403.586791 
L 433.010156 403.38547 
L 434.1 403.91 
L 434.971875 404.486307 
L 435.625781 404.713914 
L 436.207031 405.489725 
L 437.151563 406.734274 
L 438.314062 406.837888 
L 438.895312 406.89832 
L 439.185938 406.900227 
L 439.549219 407.021342 
L 440.057813 407.19533 
L 441.510938 407.72416 
L 442.382812 408.065326 
L 443.4 408.398885 
L 443.908594 408.579161 
L 444.344531 408.626466 
L 444.635156 408.674003 
L 445.216406 408.883122 
L 445.507031 409.032624 
L 446.378906 409.085651 
L 446.596875 409.050435 
L 447.46875 409.101172 
L 448.558594 409.190857 
L 449.067187 409.357435 
L 450.011719 409.725249 
L 451.828125 411.420945 
L 453.28125 413.19656 
L 453.717188 413.338105 
L 454.225781 413.487199 
L 455.533594 413.980993 
L 456.405469 415.094415 
L 456.76875 415.320256 
L 457.132031 415.527858 
L 457.495313 415.621087 
L 458.149219 416.086056 
L 458.5125 416.497376 
L 459.021094 417.085725 
L 459.529688 417.332131 
L 460.183594 417.443059 
L 461.273438 417.696743 
L 462 418.08704 
L 464.90625 418.216362 
L 465.4875 418.348309 
L 467.521875 418.792013 
L 468.975 419.088502 
L 469.338281 419.056736 
L 470.500781 419.314696 
L 471.154688 419.570626 
L 472.244531 419.979016 
L 472.898438 420.062808 
L 473.770312 420.254716 
L 475.223437 420.21164 
L 476.095312 420.317962 
L 477.039844 420.800035 
L 479.146875 421.95575 
L 480.236719 422.21349 
L 484.450781 422.951609 
L 485.903906 423.944474 
L 486.267187 424.329885 
L 486.775781 424.903319 
L 487.502344 425.444405 
L 488.083594 425.732914 
L 488.664844 425.99712 
L 489.609375 426.317983 
L 490.408594 426.579674 
L 491.135156 426.926958 
L 491.135156 426.926958 
" style="fill:none;stroke:#228b22;stroke-linecap:square;stroke-width:1.5;"/>
   </g>
   <g id="line2d_44">
    <path clip-path="url(#p0ad725d001)" d="M 403.875 418.174458 
L 701.620312 418.174458 
" style="fill:none;stroke:#000000;stroke-dasharray:5.55,2.4;stroke-dashoffset:0;stroke-width:1.5;"/>
   </g>
   <g id="patch_19">
    <path d="M 403.875 441 
L 403.875 361.725 
" style="fill:none;stroke:#000000;stroke-linecap:square;stroke-linejoin:miter;stroke-width:0.8;"/>
   </g>
   <g id="patch_20">
    <path d="M 491.0625 441 
L 491.0625 361.725 
" style="fill:none;stroke:#000000;stroke-linecap:square;stroke-linejoin:miter;stroke-width:0.8;"/>
   </g>
   <g id="patch_21">
    <path d="M 403.875 441 
L 491.0625 441 
" style="fill:none;stroke:#000000;stroke-linecap:square;stroke-linejoin:miter;stroke-width:0.8;"/>
   </g>
   <g id="patch_22">
    <path d="M 403.875 361.725 
L 491.0625 361.725 
" style="fill:none;stroke:#000000;stroke-linecap:square;stroke-linejoin:miter;stroke-width:0.8;"/>
   </g>
   <g id="text_43">
    <!-- $95 \%$ CI -->
    <g transform="translate(442.907812 415.193208)scale(0.15 -0.15)">
     <use transform="translate(0 0.203125)" xlink:href="#STIXGeneral-Regular-57"/>
     <use transform="translate(49.999985 0.203125)" xlink:href="#STIXGeneral-Regular-53"/>
     <use transform="translate(99.999969 0.203125)" xlink:href="#STIXGeneral-Regular-37"/>
     <use transform="translate(174.699951 0.203125)" xlink:href="#ArialMT-32"/>
     <use transform="translate(202.483154 0.203125)" xlink:href="#ArialMT-67"/>
     <use transform="translate(274.699951 0.203125)" xlink:href="#ArialMT-73"/>
    </g>
   </g>
   <g id="text_44">
    <!-- $N_{osc}$ = 15 -->
    <g transform="translate(412.36875 355.725)scale(0.18 -0.18)">
     <use transform="translate(0 0.125)" xlink:href="#STIXGeneral-Italic-78"/>
     <use transform="translate(66.699997 -13.103125)scale(0.7)" xlink:href="#STIXGeneral-Italic-111"/>
     <use transform="translate(101.699986 -13.103125)scale(0.7)" xlink:href="#STIXGeneral-Italic-115"/>
     <use transform="translate(128.929982 -13.103125)scale(0.7)" xlink:href="#STIXGeneral-Italic-99"/>
     <use transform="translate(164.419353 0.125)" xlink:href="#ArialMT-32"/>
     <use transform="translate(192.202556 0.125)" xlink:href="#ArialMT-61"/>
     <use transform="translate(250.600993 0.125)" xlink:href="#ArialMT-32"/>
     <use transform="translate(278.384196 0.125)" xlink:href="#ArialMT-49"/>
     <use transform="translate(333.999431 0.125)" xlink:href="#ArialMT-53"/>
    </g>
   </g>
  </g>
  <g id="axes_5">
   <g id="patch_23">
    <path d="M 560.8125 441 
L 648 441 
L 648 361.725 
L 560.8125 361.725 
z
" style="fill:#ffffff;"/>
   </g>
   <g id="matplotlib.axis_9">
    <g id="xtick_15">
     <g id="line2d_45">
      <g>
       <use style="stroke:#000000;stroke-width:0.8;" x="564.445312" xlink:href="#m01a166078c" y="441"/>
      </g>
     </g>
     <g id="text_45">
      <!-- 0 -->
      <g transform="translate(560.274609 458.736719)scale(0.15 -0.15)">
       <use xlink:href="#ArialMT-48"/>
      </g>
     </g>
    </g>
    <g id="xtick_16">
     <g id="line2d_46">
      <g>
       <use style="stroke:#000000;stroke-width:0.8;" x="600.773438" xlink:href="#m01a166078c" y="441"/>
      </g>
     </g>
     <g id="text_46">
      <!-- 500 -->
      <g transform="translate(588.261328 458.736719)scale(0.15 -0.15)">
       <use xlink:href="#ArialMT-53"/>
       <use x="55.615234" xlink:href="#ArialMT-48"/>
       <use x="111.230469" xlink:href="#ArialMT-48"/>
      </g>
     </g>
    </g>
    <g id="xtick_17">
     <g id="line2d_47">
      <g>
       <use style="stroke:#000000;stroke-width:0.8;" x="637.101562" xlink:href="#m01a166078c" y="441"/>
      </g>
     </g>
     <g id="text_47">
      <!-- 1000 -->
      <g transform="translate(620.41875 458.736719)scale(0.15 -0.15)">
       <use xlink:href="#ArialMT-49"/>
       <use x="55.615234" xlink:href="#ArialMT-48"/>
       <use x="111.230469" xlink:href="#ArialMT-48"/>
       <use x="166.845703" xlink:href="#ArialMT-48"/>
      </g>
     </g>
    </g>
    <g id="text_48">
     <!-- # sample -->
     <g transform="translate(573.976172 476.6375)scale(0.15 -0.15)">
      <use xlink:href="#ArialMT-35"/>
      <use x="55.615234" xlink:href="#ArialMT-32"/>
      <use x="83.398438" xlink:href="#ArialMT-115"/>
      <use x="133.398438" xlink:href="#ArialMT-97"/>
      <use x="189.013672" xlink:href="#ArialMT-109"/>
      <use x="272.314453" xlink:href="#ArialMT-112"/>
      <use x="327.929688" xlink:href="#ArialMT-108"/>
      <use x="350.146484" xlink:href="#ArialMT-101"/>
     </g>
    </g>
   </g>
   <g id="matplotlib.axis_10">
    <g id="ytick_13">
     <g id="line2d_48">
      <g>
       <use style="stroke:#000000;stroke-width:0.8;" x="560.8125" xlink:href="#me3135b632d" y="441"/>
      </g>
     </g>
     <g id="text_49">
      <!-- 0 -->
      <g transform="translate(545.471094 446.368359)scale(0.15 -0.15)">
       <use xlink:href="#ArialMT-48"/>
      </g>
     </g>
    </g>
    <g id="ytick_14">
     <g id="line2d_49">
      <g>
       <use style="stroke:#000000;stroke-width:0.8;" x="560.8125" xlink:href="#me3135b632d" y="377.58"/>
      </g>
     </g>
     <g id="text_50">
      <!-- 2 -->
      <g transform="translate(545.471094 382.948359)scale(0.15 -0.15)">
       <use xlink:href="#ArialMT-50"/>
      </g>
     </g>
    </g>
    <g id="text_51">
     <!-- MAE (a.u.) -->
     <g transform="translate(538.314062 437.201953)rotate(-90)scale(0.15 -0.15)">
      <use xlink:href="#ArialMT-77"/>
      <use x="83.300781" xlink:href="#ArialMT-65"/>
      <use x="150" xlink:href="#ArialMT-69"/>
      <use x="216.699219" xlink:href="#ArialMT-32"/>
      <use x="244.482422" xlink:href="#ArialMT-40"/>
      <use x="277.783203" xlink:href="#ArialMT-97"/>
      <use x="333.398438" xlink:href="#ArialMT-46"/>
      <use x="361.181641" xlink:href="#ArialMT-117"/>
      <use x="416.796875" xlink:href="#ArialMT-46"/>
      <use x="444.580078" xlink:href="#ArialMT-41"/>
     </g>
    </g>
   </g>
   <g id="line2d_50">
    <path clip-path="url(#pd3f5e2762c)" d="M 564.445312 418.68367 
L 564.663281 409.059182 
L 564.88125 408.063068 
L 565.171875 407.895424 
L 565.607813 407.761751 
L 565.753125 407.435926 
L 566.334375 405.405403 
L 566.625 405.094353 
L 566.988281 405.025224 
L 567.424219 405.064215 
L 567.860156 404.552904 
L 568.659375 403.604574 
L 569.167969 403.373352 
L 569.749219 403.550918 
L 570.039844 403.514116 
L 570.475781 403.304356 
L 570.839062 403.110229 
L 571.275 402.843046 
L 571.638281 402.790466 
L 572.728125 402.795922 
L 573.309375 402.804979 
L 574.544531 402.431923 
L 575.053125 402.651917 
L 575.925 403.186374 
L 576.288281 403.122644 
L 577.160156 402.870199 
L 579.339844 403.128017 
L 581.010937 403.438962 
L 581.519531 403.54634 
L 581.955469 403.651511 
L 584.789062 403.909966 
L 585.225 404.108731 
L 586.532812 404.189238 
L 588.349219 404.401726 
L 589.511719 404.075339 
L 590.45625 404.404847 
L 591.764063 404.951342 
L 592.272656 405.102975 
L 593.071875 405.576776 
L 593.725781 405.645759 
L 594.960938 406.411535 
L 595.542187 406.891159 
L 596.123438 407.096418 
L 597.285938 407.233729 
L 598.521094 407.63763 
L 599.029688 407.836547 
L 600.046875 408.396151 
L 601.572656 409.176147 
L 602.008594 409.26496 
L 602.517187 409.464783 
L 602.880469 409.502611 
L 604.042969 409.452927 
L 605.496094 409.583905 
L 606.295313 409.629706 
L 606.949219 409.645399 
L 607.748438 409.94649 
L 608.547656 410.159845 
L 609.492188 410.289692 
L 610.582031 411.103477 
L 611.453906 411.149858 
L 612.54375 411.288195 
L 613.052344 411.277909 
L 614.796094 411.465304 
L 615.522656 411.800512 
L 617.339062 412.213942 
L 617.775 412.283868 
L 619.010156 412.477872 
L 620.245312 412.749562 
L 620.68125 412.905869 
L 621.044531 412.945691 
L 621.480469 413.000907 
L 622.207031 413.182116 
L 622.788281 413.379973 
L 628.092188 414.127674 
L 628.673437 414.210888 
L 629.908594 414.461084 
L 630.998438 414.630071 
L 631.652344 414.739583 
L 633.178125 415.137041 
L 635.939062 415.874903 
L 637.319531 415.916038 
L 638.7 415.959762 
L 645.311719 416.563185 
L 646.328906 416.64875 
L 648.072656 416.827772 
L 648.072656 416.827772 
" style="fill:none;stroke:#ff0000;stroke-linecap:square;stroke-width:1.5;"/>
   </g>
   <g id="line2d_51">
    <path clip-path="url(#pd3f5e2762c)" d="M 560.8125 412.363767 
L 721 412.363767 
" style="fill:none;stroke:#000000;stroke-dasharray:5.55,2.4;stroke-dashoffset:0;stroke-width:1.5;"/>
   </g>
   <g id="patch_24">
    <path d="M 560.8125 441 
L 560.8125 361.725 
" style="fill:none;stroke:#000000;stroke-linecap:square;stroke-linejoin:miter;stroke-width:0.8;"/>
   </g>
   <g id="patch_25">
    <path d="M 648 441 
L 648 361.725 
" style="fill:none;stroke:#000000;stroke-linecap:square;stroke-linejoin:miter;stroke-width:0.8;"/>
   </g>
   <g id="patch_26">
    <path d="M 560.8125 441 
L 648 441 
" style="fill:none;stroke:#000000;stroke-linecap:square;stroke-linejoin:miter;stroke-width:0.8;"/>
   </g>
   <g id="patch_27">
    <path d="M 560.8125 361.725 
L 648 361.725 
" style="fill:none;stroke:#000000;stroke-linecap:square;stroke-linejoin:miter;stroke-width:0.8;"/>
   </g>
   <g id="text_52">
    <!-- $95 \%$ CI -->
    <g transform="translate(599.845312 409.382517)scale(0.15 -0.15)">
     <use transform="translate(0 0.203125)" xlink:href="#STIXGeneral-Regular-57"/>
     <use transform="translate(49.999985 0.203125)" xlink:href="#STIXGeneral-Regular-53"/>
     <use transform="translate(99.999969 0.203125)" xlink:href="#STIXGeneral-Regular-37"/>
     <use transform="translate(174.699951 0.203125)" xlink:href="#ArialMT-32"/>
     <use transform="translate(202.483154 0.203125)" xlink:href="#ArialMT-67"/>
     <use transform="translate(274.699951 0.203125)" xlink:href="#ArialMT-73"/>
    </g>
   </g>
   <g id="text_53">
    <!-- $N_{osc}$ = 20 -->
    <g transform="translate(569.30625 355.725)scale(0.18 -0.18)">
     <use transform="translate(0 0.125)" xlink:href="#STIXGeneral-Italic-78"/>
     <use transform="translate(66.699997 -13.103125)scale(0.7)" xlink:href="#STIXGeneral-Italic-111"/>
     <use transform="translate(101.699986 -13.103125)scale(0.7)" xlink:href="#STIXGeneral-Italic-115"/>
     <use transform="translate(128.929982 -13.103125)scale(0.7)" xlink:href="#STIXGeneral-Italic-99"/>
     <use transform="translate(164.419353 0.125)" xlink:href="#ArialMT-32"/>
     <use transform="translate(192.202556 0.125)" xlink:href="#ArialMT-61"/>
     <use transform="translate(250.600993 0.125)" xlink:href="#ArialMT-32"/>
     <use transform="translate(278.384196 0.125)" xlink:href="#ArialMT-50"/>
     <use transform="translate(333.999431 0.125)" xlink:href="#ArialMT-48"/>
    </g>
   </g>
  </g>
 </g>
 <defs>
  <clipPath id="p85be5cb0b1">
   <rect height="216.685" width="244.125" x="246.9375" y="60.48"/>
  </clipPath>
  <clipPath id="p11471466ef">
   <rect height="79.275" width="87.1875" x="90" y="361.725"/>
  </clipPath>
  <clipPath id="p9c0dcf0b79">
   <rect height="79.275" width="87.1875" x="246.9375" y="361.725"/>
  </clipPath>
  <clipPath id="p0ad725d001">
   <rect height="79.275" width="87.1875" x="403.875" y="361.725"/>
  </clipPath>
  <clipPath id="pd3f5e2762c">
   <rect height="79.275" width="87.1875" x="560.8125" y="361.725"/>
  </clipPath>
 </defs>
</svg>
