<?xml version="1.0" encoding="utf-8" standalone="no"?>
<!DOCTYPE svg PUBLIC "-//W3C//DTD SVG 1.1//EN"
  "http://www.w3.org/Graphics/SVG/1.1/DTD/svg11.dtd">
<!-- Created with matplotlib (https://matplotlib.org/) -->
<svg height="288pt" version="1.1" viewBox="0 0 1440 288" width="1440pt" xmlns="http://www.w3.org/2000/svg" xmlns:xlink="http://www.w3.org/1999/xlink">
 <defs>
  <style type="text/css">
*{stroke-linecap:butt;stroke-linejoin:round;}
  </style>
 </defs>
 <g id="figure_1">
  <g id="patch_1">
   <path d="M 0 288 
L 1440 288 
L 1440 0 
L 0 0 
z
" style="fill:#ffffff;"/>
  </g>
  <g id="axes_1">
   <g id="patch_2">
    <path d="M 180 252 
L 1008 252 
L 1008 34.56 
L 180 34.56 
z
" style="fill:#ffffff;"/>
   </g>
   <g id="matplotlib.axis_1">
    <g id="xtick_1">
     <g id="line2d_1">
      <path clip-path="url(#p91a4ed4dcb)" d="M 217.636364 252 
L 217.636364 34.56 
" style="fill:none;stroke:#b0b0b0;stroke-linecap:square;stroke-width:0.8;"/>
     </g>
     <g id="line2d_2">
      <defs>
       <path d="M 0 0 
L 0 3.5 
" id="m2124b000dc" style="stroke:#000000;stroke-width:0.8;"/>
      </defs>
      <g>
       <use style="stroke:#000000;stroke-width:0.8;" x="217.636364" xlink:href="#m2124b000dc" y="252"/>
      </g>
     </g>
     <g id="text_1">
      <!-- 0 -->
      <defs>
       <path d="M 4.15625 35.296875 
Q 4.15625 48 6.765625 55.734375 
Q 9.375 63.484375 14.515625 67.671875 
Q 19.671875 71.875 27.484375 71.875 
Q 33.25 71.875 37.59375 69.546875 
Q 41.9375 67.234375 44.765625 62.859375 
Q 47.609375 58.5 49.21875 52.21875 
Q 50.828125 45.953125 50.828125 35.296875 
Q 50.828125 22.703125 48.234375 14.96875 
Q 45.65625 7.234375 40.5 3 
Q 35.359375 -1.21875 27.484375 -1.21875 
Q 17.140625 -1.21875 11.234375 6.203125 
Q 4.15625 15.140625 4.15625 35.296875 
z
M 13.1875 35.296875 
Q 13.1875 17.671875 17.3125 11.828125 
Q 21.4375 6 27.484375 6 
Q 33.546875 6 37.671875 11.859375 
Q 41.796875 17.71875 41.796875 35.296875 
Q 41.796875 52.984375 37.671875 58.78125 
Q 33.546875 64.59375 27.390625 64.59375 
Q 21.34375 64.59375 17.71875 59.46875 
Q 13.1875 52.9375 13.1875 35.296875 
z
" id="ArialMT-48"/>
      </defs>
      <g transform="translate(210.407145 277.610313)scale(0.26 -0.26)">
       <use xlink:href="#ArialMT-48"/>
      </g>
     </g>
    </g>
    <g id="xtick_2">
     <g id="line2d_3">
      <path clip-path="url(#p91a4ed4dcb)" d="M 468.650044 252 
L 468.650044 34.56 
" style="fill:none;stroke:#b0b0b0;stroke-linecap:square;stroke-width:0.8;"/>
     </g>
     <g id="line2d_4">
      <g>
       <use style="stroke:#000000;stroke-width:0.8;" x="468.650044" xlink:href="#m2124b000dc" y="252"/>
      </g>
     </g>
     <g id="text_2">
      <!-- 1600 -->
      <defs>
       <path d="M 37.25 0 
L 28.46875 0 
L 28.46875 56 
Q 25.296875 52.984375 20.140625 49.953125 
Q 14.984375 46.921875 10.890625 45.40625 
L 10.890625 53.90625 
Q 18.265625 57.375 23.78125 62.296875 
Q 29.296875 67.234375 31.59375 71.875 
L 37.25 71.875 
z
" id="ArialMT-49"/>
       <path d="M 49.75 54.046875 
L 41.015625 53.375 
Q 39.84375 58.546875 37.703125 60.890625 
Q 34.125 64.65625 28.90625 64.65625 
Q 24.703125 64.65625 21.53125 62.3125 
Q 17.390625 59.28125 14.984375 53.46875 
Q 12.59375 47.65625 12.5 36.921875 
Q 15.671875 41.75 20.265625 44.09375 
Q 24.859375 46.4375 29.890625 46.4375 
Q 38.671875 46.4375 44.84375 39.96875 
Q 51.03125 33.5 51.03125 23.25 
Q 51.03125 16.5 48.125 10.71875 
Q 45.21875 4.9375 40.140625 1.859375 
Q 35.0625 -1.21875 28.609375 -1.21875 
Q 17.625 -1.21875 10.6875 6.859375 
Q 3.765625 14.9375 3.765625 33.5 
Q 3.765625 54.25 11.421875 63.671875 
Q 18.109375 71.875 29.4375 71.875 
Q 37.890625 71.875 43.28125 67.140625 
Q 48.6875 62.40625 49.75 54.046875 
z
M 13.875 23.1875 
Q 13.875 18.65625 15.796875 14.5 
Q 17.71875 10.359375 21.1875 8.171875 
Q 24.65625 6 28.46875 6 
Q 34.03125 6 38.03125 10.484375 
Q 42.046875 14.984375 42.046875 22.703125 
Q 42.046875 30.125 38.078125 34.390625 
Q 34.125 38.671875 28.125 38.671875 
Q 22.171875 38.671875 18.015625 34.390625 
Q 13.875 30.125 13.875 23.1875 
z
" id="ArialMT-54"/>
      </defs>
      <g transform="translate(439.733169 277.610313)scale(0.26 -0.26)">
       <use xlink:href="#ArialMT-49"/>
       <use x="55.615234" xlink:href="#ArialMT-54"/>
       <use x="111.230469" xlink:href="#ArialMT-48"/>
       <use x="166.845703" xlink:href="#ArialMT-48"/>
      </g>
     </g>
    </g>
    <g id="xtick_3">
     <g id="line2d_5">
      <path clip-path="url(#p91a4ed4dcb)" d="M 719.663724 252 
L 719.663724 34.56 
" style="fill:none;stroke:#b0b0b0;stroke-linecap:square;stroke-width:0.8;"/>
     </g>
     <g id="line2d_6">
      <g>
       <use style="stroke:#000000;stroke-width:0.8;" x="719.663724" xlink:href="#m2124b000dc" y="252"/>
      </g>
     </g>
     <g id="text_3">
      <!-- 3200 -->
      <defs>
       <path d="M 4.203125 18.890625 
L 12.984375 20.0625 
Q 14.5 12.59375 18.140625 9.296875 
Q 21.78125 6 27 6 
Q 33.203125 6 37.46875 10.296875 
Q 41.75 14.59375 41.75 20.953125 
Q 41.75 27 37.796875 30.921875 
Q 33.84375 34.859375 27.734375 34.859375 
Q 25.25 34.859375 21.53125 33.890625 
L 22.515625 41.609375 
Q 23.390625 41.5 23.921875 41.5 
Q 29.546875 41.5 34.03125 44.421875 
Q 38.53125 47.359375 38.53125 53.46875 
Q 38.53125 58.296875 35.25 61.46875 
Q 31.984375 64.65625 26.8125 64.65625 
Q 21.6875 64.65625 18.265625 61.421875 
Q 14.84375 58.203125 13.875 51.765625 
L 5.078125 53.328125 
Q 6.6875 62.15625 12.390625 67.015625 
Q 18.109375 71.875 26.609375 71.875 
Q 32.46875 71.875 37.390625 69.359375 
Q 42.328125 66.84375 44.9375 62.5 
Q 47.5625 58.15625 47.5625 53.265625 
Q 47.5625 48.640625 45.0625 44.828125 
Q 42.578125 41.015625 37.703125 38.765625 
Q 44.046875 37.3125 47.5625 32.6875 
Q 51.078125 28.078125 51.078125 21.140625 
Q 51.078125 11.765625 44.234375 5.25 
Q 37.40625 -1.265625 26.953125 -1.265625 
Q 17.53125 -1.265625 11.296875 4.34375 
Q 5.078125 9.96875 4.203125 18.890625 
z
" id="ArialMT-51"/>
       <path d="M 50.34375 8.453125 
L 50.34375 0 
L 3.03125 0 
Q 2.9375 3.171875 4.046875 6.109375 
Q 5.859375 10.9375 9.828125 15.625 
Q 13.8125 20.3125 21.34375 26.46875 
Q 33.015625 36.03125 37.109375 41.625 
Q 41.21875 47.21875 41.21875 52.203125 
Q 41.21875 57.421875 37.46875 61 
Q 33.734375 64.59375 27.734375 64.59375 
Q 21.390625 64.59375 17.578125 60.78125 
Q 13.765625 56.984375 13.71875 50.25 
L 4.6875 51.171875 
Q 5.609375 61.28125 11.65625 66.578125 
Q 17.71875 71.875 27.9375 71.875 
Q 38.234375 71.875 44.234375 66.15625 
Q 50.25 60.453125 50.25 52 
Q 50.25 47.703125 48.484375 43.546875 
Q 46.734375 39.40625 42.65625 34.8125 
Q 38.578125 30.21875 29.109375 22.21875 
Q 21.1875 15.578125 18.9375 13.203125 
Q 16.703125 10.84375 15.234375 8.453125 
z
" id="ArialMT-50"/>
      </defs>
      <g transform="translate(690.746849 277.610313)scale(0.26 -0.26)">
       <use xlink:href="#ArialMT-51"/>
       <use x="55.615234" xlink:href="#ArialMT-50"/>
       <use x="111.230469" xlink:href="#ArialMT-48"/>
       <use x="166.845703" xlink:href="#ArialMT-48"/>
      </g>
     </g>
    </g>
    <g id="xtick_4">
     <g id="line2d_7">
      <path clip-path="url(#p91a4ed4dcb)" d="M 970.677403 252 
L 970.677403 34.56 
" style="fill:none;stroke:#b0b0b0;stroke-linecap:square;stroke-width:0.8;"/>
     </g>
     <g id="line2d_8">
      <g>
       <use style="stroke:#000000;stroke-width:0.8;" x="970.677403" xlink:href="#m2124b000dc" y="252"/>
      </g>
     </g>
     <g id="text_4">
      <!-- 4800 -->
      <defs>
       <path d="M 32.328125 0 
L 32.328125 17.140625 
L 1.265625 17.140625 
L 1.265625 25.203125 
L 33.9375 71.578125 
L 41.109375 71.578125 
L 41.109375 25.203125 
L 50.78125 25.203125 
L 50.78125 17.140625 
L 41.109375 17.140625 
L 41.109375 0 
z
M 32.328125 25.203125 
L 32.328125 57.46875 
L 9.90625 25.203125 
z
" id="ArialMT-52"/>
       <path d="M 17.671875 38.8125 
Q 12.203125 40.828125 9.5625 44.53125 
Q 6.9375 48.25 6.9375 53.421875 
Q 6.9375 61.234375 12.546875 66.546875 
Q 18.171875 71.875 27.484375 71.875 
Q 36.859375 71.875 42.578125 66.421875 
Q 48.296875 60.984375 48.296875 53.171875 
Q 48.296875 48.1875 45.671875 44.5 
Q 43.0625 40.828125 37.75 38.8125 
Q 44.34375 36.671875 47.78125 31.875 
Q 51.21875 27.09375 51.21875 20.453125 
Q 51.21875 11.28125 44.71875 5.03125 
Q 38.234375 -1.21875 27.640625 -1.21875 
Q 17.046875 -1.21875 10.546875 5.046875 
Q 4.046875 11.328125 4.046875 20.703125 
Q 4.046875 27.6875 7.59375 32.390625 
Q 11.140625 37.109375 17.671875 38.8125 
z
M 15.921875 53.71875 
Q 15.921875 48.640625 19.1875 45.40625 
Q 22.46875 42.1875 27.6875 42.1875 
Q 32.765625 42.1875 36.015625 45.375 
Q 39.265625 48.578125 39.265625 53.21875 
Q 39.265625 58.0625 35.90625 61.359375 
Q 32.5625 64.65625 27.59375 64.65625 
Q 22.5625 64.65625 19.234375 61.421875 
Q 15.921875 58.203125 15.921875 53.71875 
z
M 13.09375 20.65625 
Q 13.09375 16.890625 14.875 13.375 
Q 16.65625 9.859375 20.171875 7.921875 
Q 23.6875 6 27.734375 6 
Q 34.03125 6 38.125 10.046875 
Q 42.234375 14.109375 42.234375 20.359375 
Q 42.234375 26.703125 38.015625 30.859375 
Q 33.796875 35.015625 27.4375 35.015625 
Q 21.234375 35.015625 17.15625 30.90625 
Q 13.09375 26.8125 13.09375 20.65625 
z
" id="ArialMT-56"/>
      </defs>
      <g transform="translate(941.760528 277.610313)scale(0.26 -0.26)">
       <use xlink:href="#ArialMT-52"/>
       <use x="55.615234" xlink:href="#ArialMT-56"/>
       <use x="111.230469" xlink:href="#ArialMT-48"/>
       <use x="166.845703" xlink:href="#ArialMT-48"/>
      </g>
     </g>
    </g>
    <g id="text_5">
     <!-- # sample -->
     <defs>
      <path d="M 5.03125 -1.21875 
L 9.28125 19.578125 
L 1.03125 19.578125 
L 1.03125 26.859375 
L 10.75 26.859375 
L 14.359375 44.578125 
L 1.03125 44.578125 
L 1.03125 51.859375 
L 15.828125 51.859375 
L 20.0625 72.796875 
L 27.390625 72.796875 
L 23.140625 51.859375 
L 38.53125 51.859375 
L 42.78125 72.796875 
L 50.140625 72.796875 
L 45.90625 51.859375 
L 54.34375 51.859375 
L 54.34375 44.578125 
L 44.4375 44.578125 
L 40.765625 26.859375 
L 54.34375 26.859375 
L 54.34375 19.578125 
L 39.3125 19.578125 
L 35.0625 -1.21875 
L 27.734375 -1.21875 
L 31.9375 19.578125 
L 16.609375 19.578125 
L 12.359375 -1.21875 
z
M 18.0625 26.859375 
L 33.40625 26.859375 
L 37.0625 44.578125 
L 21.6875 44.578125 
z
" id="ArialMT-35"/>
      <path id="ArialMT-32"/>
      <path d="M 3.078125 15.484375 
L 11.765625 16.84375 
Q 12.5 11.625 15.84375 8.84375 
Q 19.1875 6.0625 25.203125 6.0625 
Q 31.25 6.0625 34.171875 8.515625 
Q 37.109375 10.984375 37.109375 14.3125 
Q 37.109375 17.28125 34.515625 19 
Q 32.71875 20.171875 25.53125 21.96875 
Q 15.875 24.421875 12.140625 26.203125 
Q 8.40625 27.984375 6.46875 31.125 
Q 4.546875 34.28125 4.546875 38.09375 
Q 4.546875 41.546875 6.125 44.5 
Q 7.71875 47.46875 10.453125 49.421875 
Q 12.5 50.921875 16.03125 51.96875 
Q 19.578125 53.03125 23.640625 53.03125 
Q 29.734375 53.03125 34.34375 51.265625 
Q 38.96875 49.515625 41.15625 46.5 
Q 43.359375 43.5 44.1875 38.484375 
L 35.59375 37.3125 
Q 35.015625 41.3125 32.203125 43.546875 
Q 29.390625 45.796875 24.265625 45.796875 
Q 18.21875 45.796875 15.625 43.796875 
Q 13.03125 41.796875 13.03125 39.109375 
Q 13.03125 37.40625 14.109375 36.03125 
Q 15.1875 34.625 17.484375 33.6875 
Q 18.796875 33.203125 25.25 31.453125 
Q 34.578125 28.953125 38.25 27.359375 
Q 41.9375 25.78125 44.03125 22.75 
Q 46.140625 19.734375 46.140625 15.234375 
Q 46.140625 10.84375 43.578125 6.953125 
Q 41.015625 3.078125 36.171875 0.953125 
Q 31.34375 -1.171875 25.25 -1.171875 
Q 15.140625 -1.171875 9.84375 3.03125 
Q 4.546875 7.234375 3.078125 15.484375 
z
" id="ArialMT-115"/>
      <path d="M 40.4375 6.390625 
Q 35.546875 2.25 31.03125 0.53125 
Q 26.515625 -1.171875 21.34375 -1.171875 
Q 12.796875 -1.171875 8.203125 3 
Q 3.609375 7.171875 3.609375 13.671875 
Q 3.609375 17.484375 5.34375 20.625 
Q 7.078125 23.78125 9.890625 25.6875 
Q 12.703125 27.59375 16.21875 28.5625 
Q 18.796875 29.25 24.03125 29.890625 
Q 34.671875 31.15625 39.703125 32.90625 
Q 39.75 34.71875 39.75 35.203125 
Q 39.75 40.578125 37.25 42.78125 
Q 33.890625 45.75 27.25 45.75 
Q 21.046875 45.75 18.09375 43.578125 
Q 15.140625 41.40625 13.71875 35.890625 
L 5.125 37.0625 
Q 6.296875 42.578125 8.984375 45.96875 
Q 11.671875 49.359375 16.75 51.1875 
Q 21.828125 53.03125 28.515625 53.03125 
Q 35.15625 53.03125 39.296875 51.46875 
Q 43.453125 49.90625 45.40625 47.53125 
Q 47.359375 45.171875 48.140625 41.546875 
Q 48.578125 39.3125 48.578125 33.453125 
L 48.578125 21.734375 
Q 48.578125 9.46875 49.140625 6.21875 
Q 49.703125 2.984375 51.375 0 
L 42.1875 0 
Q 40.828125 2.734375 40.4375 6.390625 
z
M 39.703125 26.03125 
Q 34.90625 24.078125 25.34375 22.703125 
Q 19.921875 21.921875 17.671875 20.9375 
Q 15.4375 19.96875 14.203125 18.09375 
Q 12.984375 16.21875 12.984375 13.921875 
Q 12.984375 10.40625 15.640625 8.0625 
Q 18.3125 5.71875 23.4375 5.71875 
Q 28.515625 5.71875 32.46875 7.9375 
Q 36.421875 10.15625 38.28125 14.015625 
Q 39.703125 17 39.703125 22.796875 
z
" id="ArialMT-97"/>
      <path d="M 6.59375 0 
L 6.59375 51.859375 
L 14.453125 51.859375 
L 14.453125 44.578125 
Q 16.890625 48.390625 20.9375 50.703125 
Q 25 53.03125 30.171875 53.03125 
Q 35.9375 53.03125 39.625 50.640625 
Q 43.3125 48.25 44.828125 43.953125 
Q 50.984375 53.03125 60.84375 53.03125 
Q 68.5625 53.03125 72.703125 48.75 
Q 76.859375 44.484375 76.859375 35.59375 
L 76.859375 0 
L 68.109375 0 
L 68.109375 32.671875 
Q 68.109375 37.9375 67.25 40.25 
Q 66.40625 42.578125 64.15625 43.984375 
Q 61.921875 45.40625 58.890625 45.40625 
Q 53.421875 45.40625 49.796875 41.765625 
Q 46.1875 38.140625 46.1875 30.125 
L 46.1875 0 
L 37.40625 0 
L 37.40625 33.6875 
Q 37.40625 39.546875 35.25 42.46875 
Q 33.109375 45.40625 28.21875 45.40625 
Q 24.515625 45.40625 21.359375 43.453125 
Q 18.21875 41.5 16.796875 37.734375 
Q 15.375 33.984375 15.375 26.90625 
L 15.375 0 
z
" id="ArialMT-109"/>
      <path d="M 6.59375 -19.875 
L 6.59375 51.859375 
L 14.59375 51.859375 
L 14.59375 45.125 
Q 17.4375 49.078125 21 51.046875 
Q 24.5625 53.03125 29.640625 53.03125 
Q 36.28125 53.03125 41.359375 49.609375 
Q 46.4375 46.1875 49.015625 39.953125 
Q 51.609375 33.734375 51.609375 26.3125 
Q 51.609375 18.359375 48.75 11.984375 
Q 45.90625 5.609375 40.453125 2.21875 
Q 35.015625 -1.171875 29 -1.171875 
Q 24.609375 -1.171875 21.109375 0.6875 
Q 17.625 2.546875 15.375 5.375 
L 15.375 -19.875 
z
M 14.546875 25.640625 
Q 14.546875 15.625 18.59375 10.84375 
Q 22.65625 6.0625 28.421875 6.0625 
Q 34.28125 6.0625 38.453125 11.015625 
Q 42.625 15.96875 42.625 26.375 
Q 42.625 36.28125 38.546875 41.203125 
Q 34.46875 46.140625 28.8125 46.140625 
Q 23.1875 46.140625 18.859375 40.890625 
Q 14.546875 35.640625 14.546875 25.640625 
z
" id="ArialMT-112"/>
      <path d="M 6.390625 0 
L 6.390625 71.578125 
L 15.1875 71.578125 
L 15.1875 0 
z
" id="ArialMT-108"/>
      <path d="M 42.09375 16.703125 
L 51.171875 15.578125 
Q 49.03125 7.625 43.21875 3.21875 
Q 37.40625 -1.171875 28.375 -1.171875 
Q 17 -1.171875 10.328125 5.828125 
Q 3.65625 12.84375 3.65625 25.484375 
Q 3.65625 38.578125 10.390625 45.796875 
Q 17.140625 53.03125 27.875 53.03125 
Q 38.28125 53.03125 44.875 45.953125 
Q 51.46875 38.875 51.46875 26.03125 
Q 51.46875 25.25 51.421875 23.6875 
L 12.75 23.6875 
Q 13.234375 15.140625 17.578125 10.59375 
Q 21.921875 6.0625 28.421875 6.0625 
Q 33.25 6.0625 36.671875 8.59375 
Q 40.09375 11.140625 42.09375 16.703125 
z
M 13.234375 30.90625 
L 42.1875 30.90625 
Q 41.609375 37.453125 38.875 40.71875 
Q 34.671875 45.796875 27.984375 45.796875 
Q 21.921875 45.796875 17.796875 41.75 
Q 13.671875 37.703125 13.234375 30.90625 
z
" id="ArialMT-101"/>
     </defs>
     <g transform="translate(557.483906 299.88125)scale(0.18 -0.18)">
      <use xlink:href="#ArialMT-35"/>
      <use x="55.615234" xlink:href="#ArialMT-32"/>
      <use x="83.398438" xlink:href="#ArialMT-115"/>
      <use x="133.398438" xlink:href="#ArialMT-97"/>
      <use x="189.013672" xlink:href="#ArialMT-109"/>
      <use x="272.314453" xlink:href="#ArialMT-112"/>
      <use x="327.929688" xlink:href="#ArialMT-108"/>
      <use x="350.146484" xlink:href="#ArialMT-101"/>
     </g>
    </g>
   </g>
   <g id="matplotlib.axis_2">
    <g id="ytick_1">
     <g id="line2d_9">
      <path clip-path="url(#p91a4ed4dcb)" d="M 180 210.240987 
L 1008 210.240987 
" style="fill:none;stroke:#b0b0b0;stroke-linecap:square;stroke-width:0.8;"/>
     </g>
     <g id="line2d_10">
      <defs>
       <path d="M 0 0 
L -3.5 0 
" id="m7ae7dceee9" style="stroke:#000000;stroke-width:0.8;"/>
      </defs>
      <g>
       <use style="stroke:#000000;stroke-width:0.8;" x="180" xlink:href="#m7ae7dceee9" y="210.240987"/>
      </g>
     </g>
     <g id="text_6">
      <!-- −1000 -->
      <defs>
       <path d="M 52.828125 31.203125 
L 5.5625 31.203125 
L 5.5625 39.40625 
L 52.828125 39.40625 
z
" id="ArialMT-8722"/>
      </defs>
      <g transform="translate(99.980625 219.546144)scale(0.26 -0.26)">
       <use xlink:href="#ArialMT-8722"/>
       <use x="58.398438" xlink:href="#ArialMT-49"/>
       <use x="114.013672" xlink:href="#ArialMT-48"/>
       <use x="169.628906" xlink:href="#ArialMT-48"/>
       <use x="225.244141" xlink:href="#ArialMT-48"/>
      </g>
     </g>
    </g>
    <g id="ytick_2">
     <g id="line2d_11">
      <path clip-path="url(#p91a4ed4dcb)" d="M 180 127.34231 
L 1008 127.34231 
" style="fill:none;stroke:#b0b0b0;stroke-linecap:square;stroke-width:0.8;"/>
     </g>
     <g id="line2d_12">
      <g>
       <use style="stroke:#000000;stroke-width:0.8;" x="180" xlink:href="#m7ae7dceee9" y="127.34231"/>
      </g>
     </g>
     <g id="text_7">
      <!-- −500 -->
      <defs>
       <path d="M 4.15625 18.75 
L 13.375 19.53125 
Q 14.40625 12.796875 18.140625 9.390625 
Q 21.875 6 27.15625 6 
Q 33.5 6 37.890625 10.78125 
Q 42.28125 15.578125 42.28125 23.484375 
Q 42.28125 31 38.0625 35.34375 
Q 33.84375 39.703125 27 39.703125 
Q 22.75 39.703125 19.328125 37.765625 
Q 15.921875 35.84375 13.96875 32.765625 
L 5.71875 33.84375 
L 12.640625 70.609375 
L 48.25 70.609375 
L 48.25 62.203125 
L 19.671875 62.203125 
L 15.828125 42.96875 
Q 22.265625 47.46875 29.34375 47.46875 
Q 38.71875 47.46875 45.15625 40.96875 
Q 51.609375 34.46875 51.609375 24.265625 
Q 51.609375 14.546875 45.953125 7.46875 
Q 39.0625 -1.21875 27.15625 -1.21875 
Q 17.390625 -1.21875 11.203125 4.25 
Q 5.03125 9.71875 4.15625 18.75 
z
" id="ArialMT-53"/>
      </defs>
      <g transform="translate(114.439063 136.647466)scale(0.26 -0.26)">
       <use xlink:href="#ArialMT-8722"/>
       <use x="58.398438" xlink:href="#ArialMT-53"/>
       <use x="114.013672" xlink:href="#ArialMT-48"/>
       <use x="169.628906" xlink:href="#ArialMT-48"/>
      </g>
     </g>
    </g>
    <g id="ytick_3">
     <g id="line2d_13">
      <path clip-path="url(#p91a4ed4dcb)" d="M 180 44.443632 
L 1008 44.443632 
" style="fill:none;stroke:#b0b0b0;stroke-linecap:square;stroke-width:0.8;"/>
     </g>
     <g id="line2d_14">
      <g>
       <use style="stroke:#000000;stroke-width:0.8;" x="180" xlink:href="#m7ae7dceee9" y="44.443632"/>
      </g>
     </g>
     <g id="text_8">
      <!-- 0 -->
      <g transform="translate(158.541562 53.748788)scale(0.26 -0.26)">
       <use xlink:href="#ArialMT-48"/>
      </g>
     </g>
    </g>
    <g id="text_9">
     <!-- Log-likelihood (a.u.) -->
     <defs>
      <path d="M 7.328125 0 
L 7.328125 71.578125 
L 16.796875 71.578125 
L 16.796875 8.453125 
L 52.046875 8.453125 
L 52.046875 0 
z
" id="ArialMT-76"/>
      <path d="M 3.328125 25.921875 
Q 3.328125 40.328125 11.328125 47.265625 
Q 18.015625 53.03125 27.640625 53.03125 
Q 38.328125 53.03125 45.109375 46.015625 
Q 51.90625 39.015625 51.90625 26.65625 
Q 51.90625 16.65625 48.90625 10.90625 
Q 45.90625 5.171875 40.15625 2 
Q 34.421875 -1.171875 27.640625 -1.171875 
Q 16.75 -1.171875 10.03125 5.8125 
Q 3.328125 12.796875 3.328125 25.921875 
z
M 12.359375 25.921875 
Q 12.359375 15.96875 16.703125 11.015625 
Q 21.046875 6.0625 27.640625 6.0625 
Q 34.1875 6.0625 38.53125 11.03125 
Q 42.875 16.015625 42.875 26.21875 
Q 42.875 35.84375 38.5 40.796875 
Q 34.125 45.75 27.640625 45.75 
Q 21.046875 45.75 16.703125 40.8125 
Q 12.359375 35.890625 12.359375 25.921875 
z
" id="ArialMT-111"/>
      <path d="M 4.984375 -4.296875 
L 13.53125 -5.5625 
Q 14.0625 -9.515625 16.5 -11.328125 
Q 19.78125 -13.765625 25.4375 -13.765625 
Q 31.546875 -13.765625 34.859375 -11.328125 
Q 38.1875 -8.890625 39.359375 -4.5 
Q 40.046875 -1.8125 39.984375 6.78125 
Q 34.234375 0 25.640625 0 
Q 14.9375 0 9.078125 7.71875 
Q 3.21875 15.4375 3.21875 26.21875 
Q 3.21875 33.640625 5.90625 39.90625 
Q 8.59375 46.1875 13.6875 49.609375 
Q 18.796875 53.03125 25.6875 53.03125 
Q 34.859375 53.03125 40.828125 45.609375 
L 40.828125 51.859375 
L 48.921875 51.859375 
L 48.921875 7.03125 
Q 48.921875 -5.078125 46.453125 -10.125 
Q 44 -15.1875 38.640625 -18.109375 
Q 33.296875 -21.046875 25.484375 -21.046875 
Q 16.21875 -21.046875 10.5 -16.875 
Q 4.78125 -12.703125 4.984375 -4.296875 
z
M 12.25 26.859375 
Q 12.25 16.65625 16.296875 11.96875 
Q 20.359375 7.28125 26.46875 7.28125 
Q 32.515625 7.28125 36.609375 11.9375 
Q 40.71875 16.609375 40.71875 26.5625 
Q 40.71875 36.078125 36.5 40.90625 
Q 32.28125 45.75 26.3125 45.75 
Q 20.453125 45.75 16.34375 40.984375 
Q 12.25 36.234375 12.25 26.859375 
z
" id="ArialMT-103"/>
      <path d="M 3.171875 21.484375 
L 3.171875 30.328125 
L 30.171875 30.328125 
L 30.171875 21.484375 
z
" id="ArialMT-45"/>
      <path d="M 6.640625 61.46875 
L 6.640625 71.578125 
L 15.4375 71.578125 
L 15.4375 61.46875 
z
M 6.640625 0 
L 6.640625 51.859375 
L 15.4375 51.859375 
L 15.4375 0 
z
" id="ArialMT-105"/>
      <path d="M 6.640625 0 
L 6.640625 71.578125 
L 15.4375 71.578125 
L 15.4375 30.765625 
L 36.234375 51.859375 
L 47.609375 51.859375 
L 27.78125 32.625 
L 49.609375 0 
L 38.765625 0 
L 21.625 26.515625 
L 15.4375 20.5625 
L 15.4375 0 
z
" id="ArialMT-107"/>
      <path d="M 6.59375 0 
L 6.59375 71.578125 
L 15.375 71.578125 
L 15.375 45.90625 
Q 21.53125 53.03125 30.90625 53.03125 
Q 36.671875 53.03125 40.921875 50.75 
Q 45.171875 48.484375 47 44.484375 
Q 48.828125 40.484375 48.828125 32.859375 
L 48.828125 0 
L 40.046875 0 
L 40.046875 32.859375 
Q 40.046875 39.453125 37.1875 42.453125 
Q 34.328125 45.453125 29.109375 45.453125 
Q 25.203125 45.453125 21.75 43.421875 
Q 18.3125 41.40625 16.84375 37.9375 
Q 15.375 34.46875 15.375 28.375 
L 15.375 0 
z
" id="ArialMT-104"/>
      <path d="M 40.234375 0 
L 40.234375 6.546875 
Q 35.296875 -1.171875 25.734375 -1.171875 
Q 19.53125 -1.171875 14.328125 2.25 
Q 9.125 5.671875 6.265625 11.796875 
Q 3.421875 17.921875 3.421875 25.875 
Q 3.421875 33.640625 6 39.96875 
Q 8.59375 46.296875 13.765625 49.65625 
Q 18.953125 53.03125 25.34375 53.03125 
Q 30.03125 53.03125 33.6875 51.046875 
Q 37.359375 49.078125 39.65625 45.90625 
L 39.65625 71.578125 
L 48.390625 71.578125 
L 48.390625 0 
z
M 12.453125 25.875 
Q 12.453125 15.921875 16.640625 10.984375 
Q 20.84375 6.0625 26.5625 6.0625 
Q 32.328125 6.0625 36.34375 10.765625 
Q 40.375 15.484375 40.375 25.140625 
Q 40.375 35.796875 36.265625 40.765625 
Q 32.171875 45.75 26.171875 45.75 
Q 20.3125 45.75 16.375 40.96875 
Q 12.453125 36.1875 12.453125 25.875 
z
" id="ArialMT-100"/>
      <path d="M 23.390625 -21.046875 
Q 16.109375 -11.859375 11.078125 0.4375 
Q 6.0625 12.75 6.0625 25.921875 
Q 6.0625 37.546875 9.8125 48.1875 
Q 14.203125 60.546875 23.390625 72.796875 
L 29.6875 72.796875 
Q 23.78125 62.640625 21.875 58.296875 
Q 18.890625 51.5625 17.1875 44.234375 
Q 15.09375 35.109375 15.09375 25.875 
Q 15.09375 2.390625 29.6875 -21.046875 
z
" id="ArialMT-40"/>
      <path d="M 9.078125 0 
L 9.078125 10.015625 
L 19.09375 10.015625 
L 19.09375 0 
z
" id="ArialMT-46"/>
      <path d="M 40.578125 0 
L 40.578125 7.625 
Q 34.515625 -1.171875 24.125 -1.171875 
Q 19.53125 -1.171875 15.546875 0.578125 
Q 11.578125 2.34375 9.640625 5 
Q 7.71875 7.671875 6.9375 11.53125 
Q 6.390625 14.109375 6.390625 19.734375 
L 6.390625 51.859375 
L 15.1875 51.859375 
L 15.1875 23.09375 
Q 15.1875 16.21875 15.71875 13.8125 
Q 16.546875 10.359375 19.234375 8.375 
Q 21.921875 6.390625 25.875 6.390625 
Q 29.828125 6.390625 33.296875 8.421875 
Q 36.765625 10.453125 38.203125 13.9375 
Q 39.65625 17.4375 39.65625 24.078125 
L 39.65625 51.859375 
L 48.4375 51.859375 
L 48.4375 0 
z
" id="ArialMT-117"/>
      <path d="M 12.359375 -21.046875 
L 6.0625 -21.046875 
Q 20.65625 2.390625 20.65625 25.875 
Q 20.65625 35.0625 18.5625 44.09375 
Q 16.890625 51.421875 13.921875 58.15625 
Q 12.015625 62.546875 6.0625 72.796875 
L 12.359375 72.796875 
Q 21.53125 60.546875 25.921875 48.1875 
Q 29.6875 37.546875 29.6875 25.921875 
Q 29.6875 12.75 24.625 0.4375 
Q 19.578125 -11.859375 12.359375 -21.046875 
z
" id="ArialMT-41"/>
     </defs>
     <g transform="translate(92.192188 222.318281)rotate(-90)scale(0.18 -0.18)">
      <use xlink:href="#ArialMT-76"/>
      <use x="55.615234" xlink:href="#ArialMT-111"/>
      <use x="111.230469" xlink:href="#ArialMT-103"/>
      <use x="166.845703" xlink:href="#ArialMT-45"/>
      <use x="200.146484" xlink:href="#ArialMT-108"/>
      <use x="222.363281" xlink:href="#ArialMT-105"/>
      <use x="244.580078" xlink:href="#ArialMT-107"/>
      <use x="294.580078" xlink:href="#ArialMT-101"/>
      <use x="350.195312" xlink:href="#ArialMT-108"/>
      <use x="372.412109" xlink:href="#ArialMT-105"/>
      <use x="394.628906" xlink:href="#ArialMT-104"/>
      <use x="450.244141" xlink:href="#ArialMT-111"/>
      <use x="505.859375" xlink:href="#ArialMT-111"/>
      <use x="561.474609" xlink:href="#ArialMT-100"/>
      <use x="617.089844" xlink:href="#ArialMT-32"/>
      <use x="644.873047" xlink:href="#ArialMT-40"/>
      <use x="678.173828" xlink:href="#ArialMT-97"/>
      <use x="733.789062" xlink:href="#ArialMT-46"/>
      <use x="761.572266" xlink:href="#ArialMT-117"/>
      <use x="817.1875" xlink:href="#ArialMT-46"/>
      <use x="844.970703" xlink:href="#ArialMT-41"/>
     </g>
    </g>
   </g>
   <g id="line2d_15">
    <path clip-path="url(#p91a4ed4dcb)" d="M 217.636364 242.116364 
L 217.793247 93.959052 
L 217.950131 56.882127 
L 218.107014 47.60617 
L 218.263898 45.222284 
L 218.577665 44.529897 
L 219.205199 44.460199 
L 220.617151 44.691402 
L 220.930918 44.822767 
L 221.244685 44.804228 
L 221.401569 45.045518 
L 221.715336 44.66481 
L 221.872219 44.727105 
L 222.185987 44.534459 
L 222.499754 44.51033 
L 224.068589 44.499048 
L 224.53924 44.465711 
L 226.578726 44.481951 
L 226.73561 44.607982 
L 227.049377 44.529156 
L 227.520027 44.47116 
L 227.676911 44.621278 
L 227.990678 44.467966 
L 229.088863 44.460143 
L 229.40263 44.452867 
L 235.364205 44.504875 
L 235.677972 44.450903 
L 235.991739 44.455843 
L 237.089924 44.45654 
L 245.404752 44.445259 
L 468.336276 44.444284 
L 468.49316 45.062081 
L 468.806927 45.080946 
L 469.277578 45.049502 
L 470.061996 44.967968 
L 471.16018 44.901037 
L 474.925386 44.595836 
L 476.02357 44.550933 
L 477.278639 44.515221 
L 481.671378 44.483044 
L 483.553981 44.493365 
L 495.790898 44.808489 
L 496.261548 44.829389 
L 497.359733 44.849807 
L 497.830384 44.810587 
L 499.242336 44.833627 
L 499.556103 44.836944 
L 500.026754 44.855773 
L 500.340521 44.862872 
L 501.438706 44.812657 
L 501.595589 44.894061 
L 502.06624 44.8373 
L 503.478192 44.821246 
L 503.948842 44.867774 
L 505.360794 44.830378 
L 506.615863 44.802837 
L 508.655349 44.728492 
L 509.59665 44.720309 
L 510.224184 44.674458 
L 511.008602 44.614816 
L 511.322369 44.604968 
L 517.283944 44.474296 
L 522.304218 44.501111 
L 524.657471 44.499308 
L 534.854902 44.620252 
L 535.325552 44.564097 
L 545.83675 44.48526 
L 549.288188 44.568303 
L 550.70014 44.583422 
L 553.837811 44.65516 
L 554.308462 44.614274 
L 554.779113 44.669177 
L 556.191064 44.654366 
L 556.818599 44.659697 
L 558.230551 44.673296 
L 558.544318 44.655469 
L 559.95627 44.70657 
L 560.583804 44.673791 
L 561.054455 44.718232 
L 561.525105 44.673565 
L 561.995756 44.712945 
L 562.309523 44.688172 
L 563.093941 44.711318 
L 563.564591 44.688243 
L 594.470651 44.485519 
L 601.05976 44.589857 
L 601.373527 44.569423 
L 602.157945 44.570055 
L 602.942362 44.550802 
L 604.668081 44.536154 
L 605.92315 44.496701 
L 607.962636 44.452274 
L 618.473834 44.547618 
L 619.415135 44.564153 
L 620.199553 44.573855 
L 620.827087 44.569178 
L 624.121642 44.604127 
L 624.592292 44.614341 
L 645.457804 44.563418 
L 647.811058 44.519251 
L 650.634962 44.481738 
L 652.831331 44.452734 
L 655.027701 44.457701 
L 659.42044 44.462688 
L 661.459926 44.459031 
L 667.892152 44.519819 
L 670.872939 44.525717 
L 673.853727 44.513153 
L 679.972185 44.445139 
L 695.66054 44.557883 
L 696.444958 44.568704 
L 697.072492 44.571965 
L 721.232559 44.610195 
L 721.389443 44.670855 
L 721.860093 44.482827 
L 722.330744 44.495386 
L 724.683997 44.462709 
L 724.840881 44.671038 
L 725.154648 44.462294 
L 725.625298 44.528395 
L 725.939066 44.624348 
L 726.252833 44.454693 
L 727.664785 44.563269 
L 728.135435 44.482463 
L 728.292319 44.555807 
L 728.606086 44.497817 
L 730.802456 44.520085 
L 730.959339 44.711564 
L 731.116223 44.535991 
L 731.90064 44.536043 
L 732.057524 44.688441 
L 732.214408 44.472909 
L 732.371291 44.596796 
L 732.685058 44.475933 
L 732.841942 44.598838 
L 732.998825 44.446787 
L 733.155709 44.638613 
L 733.469476 44.502382 
L 733.626359 44.629282 
L 733.783243 44.558687 
L 733.940127 44.640442 
L 734.410777 44.448363 
L 734.567661 44.696049 
L 734.724544 44.459867 
L 735.352079 44.461756 
L 735.508962 44.623512 
L 735.822729 44.495579 
L 735.979613 44.774263 
L 736.136496 44.455097 
L 736.29338 44.590261 
L 736.607147 44.561059 
L 736.76403 44.589918 
L 736.920914 44.501041 
L 737.077798 44.702581 
L 737.234681 44.550168 
L 738.019099 44.554559 
L 738.175982 44.497507 
L 738.332866 44.58282 
L 738.803517 44.463414 
L 738.9604 44.700854 
L 739.274167 44.590433 
L 739.431051 44.529118 
L 739.587934 44.593413 
L 739.744818 44.531764 
L 739.901701 44.793848 
L 740.058585 44.835195 
L 740.215469 44.491062 
L 740.372352 44.627029 
L 740.529236 44.468357 
L 740.686119 44.679488 
L 740.999886 44.512738 
L 741.470537 44.604282 
L 741.627421 44.776742 
L 741.941188 44.466771 
L 742.098071 44.605838 
L 742.254955 44.461251 
L 742.411838 44.933647 
L 742.568722 44.563154 
L 742.725605 44.671551 
L 743.510023 44.502168 
L 743.666907 44.776228 
L 743.980674 44.490075 
L 744.608208 44.506467 
L 746.02016 44.670194 
L 746.177043 44.45782 
L 746.333927 44.703128 
L 746.647694 44.471407 
L 748.059646 44.520338 
L 748.21653 44.594005 
L 748.68718 44.472336 
L 749.000947 44.456059 
L 749.157831 44.453311 
L 749.471598 44.561875 
L 749.785365 44.508411 
L 750.256016 44.489985 
L 750.726666 44.692439 
L 750.88355 44.475492 
L 753.07992 44.527054 
L 753.236803 44.739119 
L 753.393687 44.452904 
L 753.864337 44.460626 
L 754.021221 44.641572 
L 754.178105 44.477388 
L 755.433173 44.527624 
L 755.590056 44.453022 
L 755.74694 44.58835 
L 755.903824 44.464041 
L 756.531358 44.613277 
L 756.688241 44.468182 
L 756.845125 44.63489 
L 757.158892 44.48752 
L 757.472659 44.688891 
L 757.94331 44.511037 
L 759.982796 44.616971 
L 760.139679 44.501122 
L 760.296563 44.57607 
L 760.453447 44.511532 
L 760.61033 44.599236 
L 760.924097 44.456171 
L 761.080981 44.5411 
L 761.237864 44.487615 
L 761.394748 44.60274 
L 761.551631 44.482905 
L 761.865398 44.842073 
L 762.179166 44.47902 
L 762.336049 44.636084 
L 762.492933 44.463105 
L 762.649816 44.471479 
L 762.963583 44.923382 
L 763.120467 44.51931 
L 763.27735 44.467369 
L 763.434234 44.70857 
L 763.748001 44.564632 
L 764.218652 44.606646 
L 764.375535 44.527011 
L 764.532419 44.689017 
L 764.689302 44.493474 
L 764.846186 44.557481 
L 765.003069 44.820508 
L 765.316837 44.537989 
L 765.47372 44.537063 
L 765.630604 44.660166 
L 766.101254 44.458669 
L 766.258138 44.814296 
L 766.415021 44.51895 
L 766.571905 44.645548 
L 766.728789 44.620183 
L 766.885672 44.744044 
L 767.042556 44.491041 
L 767.199439 44.576902 
L 767.356323 44.534016 
L 767.513206 44.760973 
L 767.826973 44.614847 
L 767.983857 44.637669 
L 768.14074 44.467522 
L 768.454508 44.741332 
L 768.611391 44.590835 
L 768.768275 44.682909 
L 769.552692 44.497086 
L 769.709576 44.651047 
L 769.86646 44.575332 
L 770.180227 44.680082 
L 770.493994 44.46248 
L 770.650877 44.727514 
L 770.807761 44.52956 
L 771.121528 44.598374 
L 771.435295 44.480889 
L 771.592179 44.694647 
L 771.749062 44.536642 
L 771.905946 44.803352 
L 772.219713 44.512223 
L 772.376596 44.623576 
L 772.53348 44.87377 
L 772.847247 44.476704 
L 773.161014 44.575148 
L 773.631665 44.575008 
L 773.788548 44.630296 
L 773.945432 44.530058 
L 774.259199 44.64869 
L 774.572966 44.514484 
L 775.043617 44.64286 
L 775.2005 44.813488 
L 775.514267 44.492641 
L 775.671151 44.518382 
L 775.828034 44.77188 
L 775.984918 44.488953 
L 776.298685 44.489417 
L 776.455569 44.636517 
L 776.769336 44.488908 
L 776.926219 44.711151 
L 777.083103 44.539831 
L 777.239986 44.65626 
L 777.710637 44.585977 
L 778.024404 44.586629 
L 778.181288 44.758143 
L 778.338171 44.528878 
L 778.495055 44.664846 
L 778.651938 44.522574 
L 779.122589 44.593694 
L 779.279473 44.698371 
L 779.59324 44.590168 
L 779.750123 44.719057 
L 780.06389 44.501182 
L 780.534541 44.669916 
L 781.162075 44.58237 
L 781.318959 44.455279 
L 781.632726 44.684573 
L 781.789609 44.720195 
L 781.946493 44.526008 
L 782.103376 44.768525 
L 782.26026 44.599791 
L 782.417144 44.765596 
L 782.574027 44.450784 
L 782.730911 44.798655 
L 782.887794 44.469739 
L 783.201561 44.591145 
L 783.515328 44.504201 
L 784.299746 44.680009 
L 784.613513 44.466919 
L 784.770397 44.610601 
L 785.241047 44.515112 
L 785.397931 44.675904 
L 785.554815 44.644198 
L 785.711698 44.749964 
L 786.339232 44.47389 
L 786.652999 44.551187 
L 786.966766 44.570634 
L 787.12365 44.833384 
L 787.437417 44.476832 
L 787.751184 44.531681 
L 787.908068 44.479276 
L 788.064951 44.641008 
L 788.221835 44.452233 
L 788.378718 44.976661 
L 788.535602 44.456392 
L 789.79067 44.567824 
L 789.947554 44.680695 
L 790.104437 44.532257 
L 790.261321 44.576299 
L 790.575088 44.469503 
L 791.202622 44.497408 
L 791.359506 44.622304 
L 791.673273 44.452607 
L 792.457691 44.536938 
L 793.869643 44.539648 
L 794.18341 44.468248 
L 794.497177 44.507509 
L 794.65406 44.471834 
L 794.810944 44.603096 
L 794.967828 44.57595 
L 795.124711 44.683392 
L 795.281595 44.488891 
L 795.595362 44.505278 
L 795.752245 44.446501 
L 796.066012 44.668767 
L 796.379779 44.454877 
L 796.536663 44.553783 
L 797.007314 44.44597 
L 797.164197 44.693366 
L 797.321081 44.492071 
L 797.477964 44.565056 
L 797.791731 44.444861 
L 798.262382 44.650691 
L 798.576149 44.517195 
L 798.733033 44.664371 
L 798.889916 44.477393 
L 799.360567 44.65192 
L 799.988101 44.465286 
L 800.458752 44.62868 
L 800.772519 44.502997 
L 800.929402 44.685689 
L 801.086286 44.474172 
L 801.71382 44.455313 
L 801.870704 44.596366 
L 802.027587 44.464759 
L 802.184471 44.487902 
L 802.341354 44.664345 
L 802.968889 44.45545 
L 803.125772 44.474684 
L 803.282656 44.629847 
L 803.439539 44.476674 
L 803.753306 44.692805 
L 804.067073 44.493602 
L 804.223957 44.453342 
L 804.380841 44.622919 
L 804.694608 44.497608 
L 804.851491 44.641559 
L 805.008375 44.473239 
L 805.322142 44.61232 
L 805.792792 44.510403 
L 806.10656 44.564395 
L 806.890977 44.48673 
L 808.302929 44.495976 
L 808.459813 44.780586 
L 808.616696 44.832869 
L 808.77358 44.479501 
L 809.557998 44.502555 
L 809.714881 44.648803 
L 810.028648 44.480153 
L 810.185532 44.726172 
L 810.499299 44.514597 
L 810.813066 44.701702 
L 810.96995 44.541702 
L 811.126833 44.657848 
L 811.597484 44.510759 
L 811.754367 44.597345 
L 812.225018 44.469688 
L 813.166319 44.549698 
L 813.480086 44.487838 
L 813.793853 44.476228 
L 814.264504 44.554042 
L 814.421388 44.490818 
L 814.578271 44.592598 
L 814.735155 44.463284 
L 814.892038 44.622158 
L 815.048922 44.477055 
L 815.205805 44.638329 
L 815.519573 44.467155 
L 815.676456 44.570492 
L 815.990223 44.456673 
L 816.147107 44.528558 
L 816.30399 44.45125 
L 816.617757 44.515882 
L 816.931524 44.470195 
L 817.245292 44.624669 
L 817.402175 44.464114 
L 817.715942 44.528116 
L 818.029709 44.505285 
L 818.343476 44.455664 
L 818.50036 44.635344 
L 818.657244 44.46944 
L 818.971011 44.524354 
L 819.598545 44.489174 
L 819.755428 44.713224 
L 819.912312 44.477239 
L 820.069195 44.54366 
L 820.539846 44.48237 
L 820.853613 44.546556 
L 821.010497 44.464471 
L 821.324264 44.553672 
L 821.481147 44.468545 
L 821.794915 44.516668 
L 821.951798 44.54813 
L 822.108682 44.74992 
L 822.422449 44.457891 
L 822.579332 44.495945 
L 822.736216 44.751955 
L 822.893099 44.573882 
L 823.049983 44.666606 
L 823.206866 44.573567 
L 823.36375 44.664479 
L 823.677517 44.505491 
L 823.834401 44.650054 
L 823.991284 44.462222 
L 824.618818 44.674236 
L 824.775702 44.451101 
L 824.932586 44.7023 
L 825.089469 44.461509 
L 825.873887 44.627475 
L 826.03077 44.505686 
L 826.344537 44.484342 
L 826.501421 44.456116 
L 826.815188 44.613436 
L 826.972072 44.474844 
L 828.070257 44.56134 
L 828.384024 44.459216 
L 828.540907 44.475905 
L 828.697791 44.768528 
L 828.854674 44.478941 
L 829.011558 44.478954 
L 829.168441 44.659251 
L 829.325325 44.487942 
L 829.952859 44.484577 
L 830.109743 44.732155 
L 830.42351 44.505296 
L 830.580393 44.613053 
L 830.89416 44.489078 
L 831.051044 44.539502 
L 831.364811 44.466825 
L 831.521695 44.543091 
L 831.678578 44.487474 
L 831.992345 44.7381 
L 832.306112 44.53817 
L 832.619879 44.551311 
L 832.776763 44.591139 
L 832.933647 44.503445 
L 833.09053 44.593613 
L 833.404297 44.515429 
L 834.816249 44.562736 
L 834.973133 44.448372 
L 835.600667 44.641331 
L 835.75755 44.835372 
L 835.914434 44.517708 
L 836.071318 44.848689 
L 836.385085 44.473638 
L 836.855735 44.529788 
L 837.169502 44.472909 
L 837.48327 44.596741 
L 837.640153 44.515133 
L 837.797037 44.652885 
L 837.95392 44.599712 
L 838.110804 44.721141 
L 838.267687 44.466511 
L 838.581454 44.466608 
L 839.052105 44.687322 
L 839.365872 44.482129 
L 839.522756 44.799921 
L 839.679639 44.507844 
L 840.307173 44.653325 
L 840.620941 44.461626 
L 840.777824 44.662398 
L 840.934708 44.514724 
L 841.091591 44.605622 
L 841.248475 44.494596 
L 841.405358 44.595816 
L 841.876009 44.471369 
L 842.34666 44.749168 
L 842.503543 44.824015 
L 842.81731 44.556298 
L 842.974194 44.635029 
L 843.131077 44.588551 
L 843.287961 44.673292 
L 843.444844 44.47468 
L 843.601728 44.607173 
L 844.386146 44.525842 
L 845.01368 44.772009 
L 845.327447 44.505047 
L 845.484331 44.602517 
L 845.641214 44.474702 
L 845.798098 44.693164 
L 846.111865 44.48984 
L 846.582515 44.810462 
L 846.739399 44.513869 
L 847.366933 44.480102 
L 847.837584 44.772736 
L 848.151351 44.538551 
L 848.465118 44.721711 
L 848.778885 44.489162 
L 849.092652 44.453138 
L 849.249536 44.613561 
L 849.563303 44.522788 
L 849.87707 44.468764 
L 850.033954 44.661757 
L 850.190837 44.471364 
L 850.661488 44.534919 
L 850.818371 44.4474 
L 850.975255 44.5364 
L 851.289022 44.473888 
L 851.916556 44.641343 
L 852.07344 44.483467 
L 853.171625 44.503769 
L 853.485392 44.505113 
L 854.426693 44.460855 
L 854.583576 44.676695 
L 854.897344 44.688975 
L 855.054227 44.465245 
L 855.367994 44.481479 
L 855.524878 44.633673 
L 855.681761 44.509913 
L 855.995528 44.581127 
L 856.309296 44.473615 
L 856.466179 44.738478 
L 856.779946 44.48381 
L 856.93683 44.590895 
L 857.093713 44.499793 
L 857.250597 44.802233 
L 857.40748 44.554461 
L 857.721247 44.631035 
L 858.035015 44.447561 
L 859.290083 44.595319 
L 859.446967 44.483656 
L 859.760734 44.531303 
L 860.074501 44.485691 
L 860.388268 44.495874 
L 860.545151 44.473354 
L 860.858918 44.568048 
L 861.015802 44.493453 
L 861.172686 44.561045 
L 861.329569 44.461301 
L 861.80022 44.554923 
L 862.113987 44.505274 
L 864.46724 44.448793 
L 864.781007 44.80232 
L 864.937891 44.503293 
L 865.094774 44.477348 
L 865.251658 44.728989 
L 865.565425 44.455431 
L 865.722309 44.576191 
L 866.349843 44.444318 
L 866.820493 44.485671 
L 867.291144 44.461866 
L 867.448028 44.57105 
L 867.604911 44.537609 
L 867.761795 44.67671 
L 867.918678 44.487751 
L 868.85998 44.495136 
L 869.016863 44.700629 
L 869.173747 44.495742 
L 869.644397 44.547884 
L 870.115048 44.656676 
L 870.271931 44.476137 
L 872.625185 44.500348 
L 872.782068 44.727301 
L 872.938952 44.455892 
L 878.272993 44.589015 
L 878.429876 44.450896 
L 878.900527 44.61053 
L 879.371177 44.522195 
L 879.841828 44.579904 
L 879.998712 44.518375 
L 880.155595 44.664562 
L 880.312479 44.476925 
L 880.469362 44.651506 
L 880.626246 44.643559 
L 880.783129 44.457607 
L 881.25378 44.684256 
L 881.410664 44.456699 
L 881.567547 44.632668 
L 881.881314 44.458375 
L 882.508848 44.4535 
L 882.665732 44.656056 
L 882.822615 44.466645 
L 883.136383 44.448953 
L 883.293266 44.777817 
L 883.45015 44.517373 
L 884.077684 44.514436 
L 884.234567 44.682096 
L 884.391451 44.571371 
L 884.548335 44.742454 
L 884.862102 44.47702 
L 885.175869 44.452975 
L 885.332752 44.674727 
L 885.646519 44.469003 
L 885.960286 44.495498 
L 886.430937 44.618663 
L 886.587821 44.446354 
L 887.372238 44.618002 
L 887.999773 44.519627 
L 888.627307 44.555072 
L 888.941074 44.449432 
L 889.725492 44.515718 
L 890.039259 44.46747 
L 890.666793 44.624173 
L 890.823677 44.452808 
L 891.137444 44.523908 
L 893.961348 44.591334 
L 894.118231 44.716964 
L 894.275115 44.481903 
L 896.157717 44.488649 
L 896.628368 44.473484 
L 897.569669 44.515223 
L 898.667854 44.514008 
L 899.609155 44.476324 
L 899.766039 44.582908 
L 899.922922 44.548025 
L 900.23669 44.660671 
L 900.393573 44.469169 
L 900.550457 44.582476 
L 900.864224 44.507044 
L 901.021107 44.740052 
L 901.177991 44.528784 
L 902.119292 44.460777 
L 902.276176 44.69861 
L 902.433059 44.473659 
L 902.589943 44.583335 
L 902.90371 44.45701 
L 903.060593 44.67455 
L 904.315662 44.458438 
L 904.472545 44.624491 
L 904.629429 44.498812 
L 904.786312 44.584794 
L 904.943196 44.450522 
L 905.256963 44.67958 
L 905.413847 44.463682 
L 905.727614 44.708501 
L 906.041381 44.535773 
L 906.198264 44.636487 
L 906.355148 44.49683 
L 906.668915 44.519405 
L 906.982682 44.521801 
L 907.610216 44.621947 
L 907.7671 44.478191 
L 907.923983 44.644498 
L 908.080867 44.460161 
L 908.394634 44.644117 
L 908.551518 44.670835 
L 908.708401 44.48638 
L 908.865285 44.795561 
L 909.179052 44.488272 
L 909.806586 44.477805 
L 910.277237 44.552897 
L 910.43412 44.487336 
L 910.591004 44.545594 
L 910.747887 44.465709 
L 910.904771 44.683633 
L 911.218538 44.451744 
L 911.532305 44.55031 
L 911.846072 44.621446 
L 912.159839 44.521377 
L 912.787374 44.55532 
L 912.944257 44.700444 
L 913.101141 44.529609 
L 913.258024 44.630615 
L 913.728675 44.527887 
L 914.669976 44.791768 
L 914.82686 44.534189 
L 914.983743 44.686372 
L 915.29751 44.502351 
L 915.611277 44.606146 
L 915.925045 44.460869 
L 916.395695 44.4543 
L 916.552579 44.588746 
L 917.023229 44.462374 
L 917.336996 44.67581 
L 917.49388 44.477506 
L 917.964531 44.599888 
L 918.278298 44.488484 
L 918.592065 44.617909 
L 920.474667 44.510258 
L 920.631551 44.562549 
L 920.945318 44.496099 
L 921.415969 44.499233 
L 921.572852 44.855305 
L 921.886619 44.550661 
L 922.514154 44.543408 
L 923.612338 44.532108 
L 923.769222 44.631908 
L 924.082989 44.47165 
L 924.55364 44.527803 
L 925.02429 44.486127 
L 925.181174 44.701445 
L 925.338058 44.489698 
L 925.651825 44.577199 
L 925.965592 44.483328 
L 927.534427 44.526332 
L 927.691311 44.708034 
L 927.848194 44.664804 
L 928.005078 44.476795 
L 928.946379 44.548557 
L 931.770283 44.481171 
L 931.927167 44.671919 
L 932.08405 44.484994 
L 932.397817 44.562135 
L 932.868468 44.453729 
L 933.496002 44.571359 
L 933.809769 44.513267 
L 933.966653 44.687192 
L 934.28042 44.471072 
L 934.437303 44.447998 
L 934.751071 44.591683 
L 935.221721 44.489698 
L 937.104324 44.512137 
L 937.261207 44.600734 
L 937.574974 44.486942 
L 939.928228 44.549375 
L 940.241995 44.516765 
L 940.555762 44.566868 
L 940.712645 44.458622 
L 940.869529 44.691194 
L 941.026413 44.468432 
L 941.34018 44.536635 
L 941.653947 44.529941 
L 941.81083 44.450671 
L 941.967714 44.573118 
L 942.438364 44.461175 
L 942.595248 44.534427 
L 942.909015 44.51461 
L 943.065899 44.634178 
L 943.379666 44.501404 
L 944.164084 44.496582 
L 944.320967 44.560904 
L 944.477851 44.451857 
L 944.948501 44.498439 
L 945.732919 44.490696 
L 946.20357 44.689226 
L 946.360453 44.476727 
L 946.517337 44.460287 
L 946.67422 44.618466 
L 946.987987 44.477917 
L 947.458638 44.486514 
L 947.615522 44.627348 
L 947.772405 44.46751 
L 948.399939 44.580156 
L 948.713706 44.510345 
L 949.498124 44.572971 
L 949.811891 44.494813 
L 950.125658 44.482982 
L 950.439426 44.582257 
L 950.596309 44.705608 
L 951.223843 44.543038 
L 951.380727 44.626787 
L 951.53761 44.496065 
L 951.694494 44.632242 
L 952.008261 44.453039 
L 953.890864 44.512012 
L 954.204631 44.528608 
L 954.518398 44.615011 
L 954.675281 44.477407 
L 955.145932 44.524494 
L 955.302816 44.726164 
L 955.459699 44.666281 
L 955.773466 44.472428 
L 955.93035 44.652126 
L 956.087233 44.523077 
L 956.244117 44.719654 
L 956.401 44.486189 
L 956.871651 44.572758 
L 957.185418 44.458597 
L 957.342302 44.719541 
L 957.499185 44.456107 
L 957.969836 44.486686 
L 959.538671 44.49837 
L 959.695555 44.6307 
L 959.852439 44.456338 
L 960.009322 44.598036 
L 961.421274 44.45548 
L 962.362575 44.499023 
L 962.519459 44.704953 
L 962.676342 44.518505 
L 963.146993 44.600848 
L 963.617644 44.458127 
L 964.245178 44.499708 
L 964.402061 44.715737 
L 964.872712 44.544821 
L 965.186479 44.493721 
L 965.343363 44.717787 
L 965.65713 44.482034 
L 965.970897 44.664022 
L 966.284664 44.466295 
L 966.598431 44.612039 
L 966.755315 44.45629 
L 966.912198 44.867078 
L 967.069082 44.503092 
L 967.696616 44.550723 
L 967.8535 44.669622 
L 968.010383 44.51837 
L 968.167267 44.569695 
L 968.481034 44.51382 
L 968.951684 44.468784 
L 969.892986 44.580262 
L 970.206753 44.5045 
L 970.363636 44.647158 
L 970.363636 44.647158 
" style="fill:none;stroke:#1f77b4;stroke-linecap:square;stroke-width:1.5;"/>
   </g>
   <g id="patch_3">
    <path d="M 180 252 
L 180 34.56 
" style="fill:none;stroke:#000000;stroke-linecap:square;stroke-linejoin:miter;stroke-width:0.8;"/>
   </g>
   <g id="patch_4">
    <path d="M 1008 252 
L 1008 34.56 
" style="fill:none;stroke:#000000;stroke-linecap:square;stroke-linejoin:miter;stroke-width:0.8;"/>
   </g>
   <g id="patch_5">
    <path d="M 180 252 
L 1008 252 
" style="fill:none;stroke:#000000;stroke-linecap:square;stroke-linejoin:miter;stroke-width:0.8;"/>
   </g>
   <g id="patch_6">
    <path d="M 180 34.56 
L 1008 34.56 
" style="fill:none;stroke:#000000;stroke-linecap:square;stroke-linejoin:miter;stroke-width:0.8;"/>
   </g>
  </g>
 </g>
 <defs>
  <clipPath id="p91a4ed4dcb">
   <rect height="217.44" width="828" x="180" y="34.56"/>
  </clipPath>
 </defs>
</svg>
