<?xml version="1.0" encoding="utf-8" standalone="no"?>
<!DOCTYPE svg PUBLIC "-//W3C//DTD SVG 1.1//EN"
  "http://www.w3.org/Graphics/SVG/1.1/DTD/svg11.dtd">
<!-- Created with matplotlib (https://matplotlib.org/) -->
<svg height="288pt" version="1.1" viewBox="0 0 1440 288" width="1440pt" xmlns="http://www.w3.org/2000/svg" xmlns:xlink="http://www.w3.org/1999/xlink">
 <defs>
  <style type="text/css">
*{stroke-linecap:butt;stroke-linejoin:round;}
  </style>
 </defs>
 <g id="figure_1">
  <g id="patch_1">
   <path d="M 0 288 
L 1440 288 
L 1440 0 
L 0 0 
z
" style="fill:#ffffff;"/>
  </g>
  <g id="axes_1">
   <g id="patch_2">
    <path d="M 180 252 
L 1008 252 
L 1008 34.56 
L 180 34.56 
z
" style="fill:#ffffff;"/>
   </g>
   <g id="matplotlib.axis_1">
    <g id="xtick_1">
     <g id="line2d_1">
      <path clip-path="url(#p9dc26e5ae7)" d="M 217.636364 252 
L 217.636364 34.56 
" style="fill:none;stroke:#b0b0b0;stroke-linecap:square;stroke-width:0.8;"/>
     </g>
     <g id="line2d_2">
      <defs>
       <path d="M 0 0 
L 0 3.5 
" id="m0c2d4119d5" style="stroke:#000000;stroke-width:0.8;"/>
      </defs>
      <g>
       <use style="stroke:#000000;stroke-width:0.8;" x="217.636364" xlink:href="#m0c2d4119d5" y="252"/>
      </g>
     </g>
     <g id="text_1">
      <!-- 0 -->
      <defs>
       <path d="M 4.15625 35.296875 
Q 4.15625 48 6.765625 55.734375 
Q 9.375 63.484375 14.515625 67.671875 
Q 19.671875 71.875 27.484375 71.875 
Q 33.25 71.875 37.59375 69.546875 
Q 41.9375 67.234375 44.765625 62.859375 
Q 47.609375 58.5 49.21875 52.21875 
Q 50.828125 45.953125 50.828125 35.296875 
Q 50.828125 22.703125 48.234375 14.96875 
Q 45.65625 7.234375 40.5 3 
Q 35.359375 -1.21875 27.484375 -1.21875 
Q 17.140625 -1.21875 11.234375 6.203125 
Q 4.15625 15.140625 4.15625 35.296875 
z
M 13.1875 35.296875 
Q 13.1875 17.671875 17.3125 11.828125 
Q 21.4375 6 27.484375 6 
Q 33.546875 6 37.671875 11.859375 
Q 41.796875 17.71875 41.796875 35.296875 
Q 41.796875 52.984375 37.671875 58.78125 
Q 33.546875 64.59375 27.390625 64.59375 
Q 21.34375 64.59375 17.71875 59.46875 
Q 13.1875 52.9375 13.1875 35.296875 
z
" id="ArialMT-48"/>
      </defs>
      <g transform="translate(210.407145 277.610313)scale(0.26 -0.26)">
       <use xlink:href="#ArialMT-48"/>
      </g>
     </g>
    </g>
    <g id="xtick_2">
     <g id="line2d_3">
      <path clip-path="url(#p9dc26e5ae7)" d="M 468.650044 252 
L 468.650044 34.56 
" style="fill:none;stroke:#b0b0b0;stroke-linecap:square;stroke-width:0.8;"/>
     </g>
     <g id="line2d_4">
      <g>
       <use style="stroke:#000000;stroke-width:0.8;" x="468.650044" xlink:href="#m0c2d4119d5" y="252"/>
      </g>
     </g>
     <g id="text_2">
      <!-- 1600 -->
      <defs>
       <path d="M 37.25 0 
L 28.46875 0 
L 28.46875 56 
Q 25.296875 52.984375 20.140625 49.953125 
Q 14.984375 46.921875 10.890625 45.40625 
L 10.890625 53.90625 
Q 18.265625 57.375 23.78125 62.296875 
Q 29.296875 67.234375 31.59375 71.875 
L 37.25 71.875 
z
" id="ArialMT-49"/>
       <path d="M 49.75 54.046875 
L 41.015625 53.375 
Q 39.84375 58.546875 37.703125 60.890625 
Q 34.125 64.65625 28.90625 64.65625 
Q 24.703125 64.65625 21.53125 62.3125 
Q 17.390625 59.28125 14.984375 53.46875 
Q 12.59375 47.65625 12.5 36.921875 
Q 15.671875 41.75 20.265625 44.09375 
Q 24.859375 46.4375 29.890625 46.4375 
Q 38.671875 46.4375 44.84375 39.96875 
Q 51.03125 33.5 51.03125 23.25 
Q 51.03125 16.5 48.125 10.71875 
Q 45.21875 4.9375 40.140625 1.859375 
Q 35.0625 -1.21875 28.609375 -1.21875 
Q 17.625 -1.21875 10.6875 6.859375 
Q 3.765625 14.9375 3.765625 33.5 
Q 3.765625 54.25 11.421875 63.671875 
Q 18.109375 71.875 29.4375 71.875 
Q 37.890625 71.875 43.28125 67.140625 
Q 48.6875 62.40625 49.75 54.046875 
z
M 13.875 23.1875 
Q 13.875 18.65625 15.796875 14.5 
Q 17.71875 10.359375 21.1875 8.171875 
Q 24.65625 6 28.46875 6 
Q 34.03125 6 38.03125 10.484375 
Q 42.046875 14.984375 42.046875 22.703125 
Q 42.046875 30.125 38.078125 34.390625 
Q 34.125 38.671875 28.125 38.671875 
Q 22.171875 38.671875 18.015625 34.390625 
Q 13.875 30.125 13.875 23.1875 
z
" id="ArialMT-54"/>
      </defs>
      <g transform="translate(439.733169 277.610313)scale(0.26 -0.26)">
       <use xlink:href="#ArialMT-49"/>
       <use x="55.615234" xlink:href="#ArialMT-54"/>
       <use x="111.230469" xlink:href="#ArialMT-48"/>
       <use x="166.845703" xlink:href="#ArialMT-48"/>
      </g>
     </g>
    </g>
    <g id="xtick_3">
     <g id="line2d_5">
      <path clip-path="url(#p9dc26e5ae7)" d="M 719.663724 252 
L 719.663724 34.56 
" style="fill:none;stroke:#b0b0b0;stroke-linecap:square;stroke-width:0.8;"/>
     </g>
     <g id="line2d_6">
      <g>
       <use style="stroke:#000000;stroke-width:0.8;" x="719.663724" xlink:href="#m0c2d4119d5" y="252"/>
      </g>
     </g>
     <g id="text_3">
      <!-- 3200 -->
      <defs>
       <path d="M 4.203125 18.890625 
L 12.984375 20.0625 
Q 14.5 12.59375 18.140625 9.296875 
Q 21.78125 6 27 6 
Q 33.203125 6 37.46875 10.296875 
Q 41.75 14.59375 41.75 20.953125 
Q 41.75 27 37.796875 30.921875 
Q 33.84375 34.859375 27.734375 34.859375 
Q 25.25 34.859375 21.53125 33.890625 
L 22.515625 41.609375 
Q 23.390625 41.5 23.921875 41.5 
Q 29.546875 41.5 34.03125 44.421875 
Q 38.53125 47.359375 38.53125 53.46875 
Q 38.53125 58.296875 35.25 61.46875 
Q 31.984375 64.65625 26.8125 64.65625 
Q 21.6875 64.65625 18.265625 61.421875 
Q 14.84375 58.203125 13.875 51.765625 
L 5.078125 53.328125 
Q 6.6875 62.15625 12.390625 67.015625 
Q 18.109375 71.875 26.609375 71.875 
Q 32.46875 71.875 37.390625 69.359375 
Q 42.328125 66.84375 44.9375 62.5 
Q 47.5625 58.15625 47.5625 53.265625 
Q 47.5625 48.640625 45.0625 44.828125 
Q 42.578125 41.015625 37.703125 38.765625 
Q 44.046875 37.3125 47.5625 32.6875 
Q 51.078125 28.078125 51.078125 21.140625 
Q 51.078125 11.765625 44.234375 5.25 
Q 37.40625 -1.265625 26.953125 -1.265625 
Q 17.53125 -1.265625 11.296875 4.34375 
Q 5.078125 9.96875 4.203125 18.890625 
z
" id="ArialMT-51"/>
       <path d="M 50.34375 8.453125 
L 50.34375 0 
L 3.03125 0 
Q 2.9375 3.171875 4.046875 6.109375 
Q 5.859375 10.9375 9.828125 15.625 
Q 13.8125 20.3125 21.34375 26.46875 
Q 33.015625 36.03125 37.109375 41.625 
Q 41.21875 47.21875 41.21875 52.203125 
Q 41.21875 57.421875 37.46875 61 
Q 33.734375 64.59375 27.734375 64.59375 
Q 21.390625 64.59375 17.578125 60.78125 
Q 13.765625 56.984375 13.71875 50.25 
L 4.6875 51.171875 
Q 5.609375 61.28125 11.65625 66.578125 
Q 17.71875 71.875 27.9375 71.875 
Q 38.234375 71.875 44.234375 66.15625 
Q 50.25 60.453125 50.25 52 
Q 50.25 47.703125 48.484375 43.546875 
Q 46.734375 39.40625 42.65625 34.8125 
Q 38.578125 30.21875 29.109375 22.21875 
Q 21.1875 15.578125 18.9375 13.203125 
Q 16.703125 10.84375 15.234375 8.453125 
z
" id="ArialMT-50"/>
      </defs>
      <g transform="translate(690.746849 277.610313)scale(0.26 -0.26)">
       <use xlink:href="#ArialMT-51"/>
       <use x="55.615234" xlink:href="#ArialMT-50"/>
       <use x="111.230469" xlink:href="#ArialMT-48"/>
       <use x="166.845703" xlink:href="#ArialMT-48"/>
      </g>
     </g>
    </g>
    <g id="xtick_4">
     <g id="line2d_7">
      <path clip-path="url(#p9dc26e5ae7)" d="M 970.677403 252 
L 970.677403 34.56 
" style="fill:none;stroke:#b0b0b0;stroke-linecap:square;stroke-width:0.8;"/>
     </g>
     <g id="line2d_8">
      <g>
       <use style="stroke:#000000;stroke-width:0.8;" x="970.677403" xlink:href="#m0c2d4119d5" y="252"/>
      </g>
     </g>
     <g id="text_4">
      <!-- 4800 -->
      <defs>
       <path d="M 32.328125 0 
L 32.328125 17.140625 
L 1.265625 17.140625 
L 1.265625 25.203125 
L 33.9375 71.578125 
L 41.109375 71.578125 
L 41.109375 25.203125 
L 50.78125 25.203125 
L 50.78125 17.140625 
L 41.109375 17.140625 
L 41.109375 0 
z
M 32.328125 25.203125 
L 32.328125 57.46875 
L 9.90625 25.203125 
z
" id="ArialMT-52"/>
       <path d="M 17.671875 38.8125 
Q 12.203125 40.828125 9.5625 44.53125 
Q 6.9375 48.25 6.9375 53.421875 
Q 6.9375 61.234375 12.546875 66.546875 
Q 18.171875 71.875 27.484375 71.875 
Q 36.859375 71.875 42.578125 66.421875 
Q 48.296875 60.984375 48.296875 53.171875 
Q 48.296875 48.1875 45.671875 44.5 
Q 43.0625 40.828125 37.75 38.8125 
Q 44.34375 36.671875 47.78125 31.875 
Q 51.21875 27.09375 51.21875 20.453125 
Q 51.21875 11.28125 44.71875 5.03125 
Q 38.234375 -1.21875 27.640625 -1.21875 
Q 17.046875 -1.21875 10.546875 5.046875 
Q 4.046875 11.328125 4.046875 20.703125 
Q 4.046875 27.6875 7.59375 32.390625 
Q 11.140625 37.109375 17.671875 38.8125 
z
M 15.921875 53.71875 
Q 15.921875 48.640625 19.1875 45.40625 
Q 22.46875 42.1875 27.6875 42.1875 
Q 32.765625 42.1875 36.015625 45.375 
Q 39.265625 48.578125 39.265625 53.21875 
Q 39.265625 58.0625 35.90625 61.359375 
Q 32.5625 64.65625 27.59375 64.65625 
Q 22.5625 64.65625 19.234375 61.421875 
Q 15.921875 58.203125 15.921875 53.71875 
z
M 13.09375 20.65625 
Q 13.09375 16.890625 14.875 13.375 
Q 16.65625 9.859375 20.171875 7.921875 
Q 23.6875 6 27.734375 6 
Q 34.03125 6 38.125 10.046875 
Q 42.234375 14.109375 42.234375 20.359375 
Q 42.234375 26.703125 38.015625 30.859375 
Q 33.796875 35.015625 27.4375 35.015625 
Q 21.234375 35.015625 17.15625 30.90625 
Q 13.09375 26.8125 13.09375 20.65625 
z
" id="ArialMT-56"/>
      </defs>
      <g transform="translate(941.760528 277.610313)scale(0.26 -0.26)">
       <use xlink:href="#ArialMT-52"/>
       <use x="55.615234" xlink:href="#ArialMT-56"/>
       <use x="111.230469" xlink:href="#ArialMT-48"/>
       <use x="166.845703" xlink:href="#ArialMT-48"/>
      </g>
     </g>
    </g>
    <g id="text_5">
     <!-- # sample -->
     <defs>
      <path d="M 5.03125 -1.21875 
L 9.28125 19.578125 
L 1.03125 19.578125 
L 1.03125 26.859375 
L 10.75 26.859375 
L 14.359375 44.578125 
L 1.03125 44.578125 
L 1.03125 51.859375 
L 15.828125 51.859375 
L 20.0625 72.796875 
L 27.390625 72.796875 
L 23.140625 51.859375 
L 38.53125 51.859375 
L 42.78125 72.796875 
L 50.140625 72.796875 
L 45.90625 51.859375 
L 54.34375 51.859375 
L 54.34375 44.578125 
L 44.4375 44.578125 
L 40.765625 26.859375 
L 54.34375 26.859375 
L 54.34375 19.578125 
L 39.3125 19.578125 
L 35.0625 -1.21875 
L 27.734375 -1.21875 
L 31.9375 19.578125 
L 16.609375 19.578125 
L 12.359375 -1.21875 
z
M 18.0625 26.859375 
L 33.40625 26.859375 
L 37.0625 44.578125 
L 21.6875 44.578125 
z
" id="ArialMT-35"/>
      <path id="ArialMT-32"/>
      <path d="M 3.078125 15.484375 
L 11.765625 16.84375 
Q 12.5 11.625 15.84375 8.84375 
Q 19.1875 6.0625 25.203125 6.0625 
Q 31.25 6.0625 34.171875 8.515625 
Q 37.109375 10.984375 37.109375 14.3125 
Q 37.109375 17.28125 34.515625 19 
Q 32.71875 20.171875 25.53125 21.96875 
Q 15.875 24.421875 12.140625 26.203125 
Q 8.40625 27.984375 6.46875 31.125 
Q 4.546875 34.28125 4.546875 38.09375 
Q 4.546875 41.546875 6.125 44.5 
Q 7.71875 47.46875 10.453125 49.421875 
Q 12.5 50.921875 16.03125 51.96875 
Q 19.578125 53.03125 23.640625 53.03125 
Q 29.734375 53.03125 34.34375 51.265625 
Q 38.96875 49.515625 41.15625 46.5 
Q 43.359375 43.5 44.1875 38.484375 
L 35.59375 37.3125 
Q 35.015625 41.3125 32.203125 43.546875 
Q 29.390625 45.796875 24.265625 45.796875 
Q 18.21875 45.796875 15.625 43.796875 
Q 13.03125 41.796875 13.03125 39.109375 
Q 13.03125 37.40625 14.109375 36.03125 
Q 15.1875 34.625 17.484375 33.6875 
Q 18.796875 33.203125 25.25 31.453125 
Q 34.578125 28.953125 38.25 27.359375 
Q 41.9375 25.78125 44.03125 22.75 
Q 46.140625 19.734375 46.140625 15.234375 
Q 46.140625 10.84375 43.578125 6.953125 
Q 41.015625 3.078125 36.171875 0.953125 
Q 31.34375 -1.171875 25.25 -1.171875 
Q 15.140625 -1.171875 9.84375 3.03125 
Q 4.546875 7.234375 3.078125 15.484375 
z
" id="ArialMT-115"/>
      <path d="M 40.4375 6.390625 
Q 35.546875 2.25 31.03125 0.53125 
Q 26.515625 -1.171875 21.34375 -1.171875 
Q 12.796875 -1.171875 8.203125 3 
Q 3.609375 7.171875 3.609375 13.671875 
Q 3.609375 17.484375 5.34375 20.625 
Q 7.078125 23.78125 9.890625 25.6875 
Q 12.703125 27.59375 16.21875 28.5625 
Q 18.796875 29.25 24.03125 29.890625 
Q 34.671875 31.15625 39.703125 32.90625 
Q 39.75 34.71875 39.75 35.203125 
Q 39.75 40.578125 37.25 42.78125 
Q 33.890625 45.75 27.25 45.75 
Q 21.046875 45.75 18.09375 43.578125 
Q 15.140625 41.40625 13.71875 35.890625 
L 5.125 37.0625 
Q 6.296875 42.578125 8.984375 45.96875 
Q 11.671875 49.359375 16.75 51.1875 
Q 21.828125 53.03125 28.515625 53.03125 
Q 35.15625 53.03125 39.296875 51.46875 
Q 43.453125 49.90625 45.40625 47.53125 
Q 47.359375 45.171875 48.140625 41.546875 
Q 48.578125 39.3125 48.578125 33.453125 
L 48.578125 21.734375 
Q 48.578125 9.46875 49.140625 6.21875 
Q 49.703125 2.984375 51.375 0 
L 42.1875 0 
Q 40.828125 2.734375 40.4375 6.390625 
z
M 39.703125 26.03125 
Q 34.90625 24.078125 25.34375 22.703125 
Q 19.921875 21.921875 17.671875 20.9375 
Q 15.4375 19.96875 14.203125 18.09375 
Q 12.984375 16.21875 12.984375 13.921875 
Q 12.984375 10.40625 15.640625 8.0625 
Q 18.3125 5.71875 23.4375 5.71875 
Q 28.515625 5.71875 32.46875 7.9375 
Q 36.421875 10.15625 38.28125 14.015625 
Q 39.703125 17 39.703125 22.796875 
z
" id="ArialMT-97"/>
      <path d="M 6.59375 0 
L 6.59375 51.859375 
L 14.453125 51.859375 
L 14.453125 44.578125 
Q 16.890625 48.390625 20.9375 50.703125 
Q 25 53.03125 30.171875 53.03125 
Q 35.9375 53.03125 39.625 50.640625 
Q 43.3125 48.25 44.828125 43.953125 
Q 50.984375 53.03125 60.84375 53.03125 
Q 68.5625 53.03125 72.703125 48.75 
Q 76.859375 44.484375 76.859375 35.59375 
L 76.859375 0 
L 68.109375 0 
L 68.109375 32.671875 
Q 68.109375 37.9375 67.25 40.25 
Q 66.40625 42.578125 64.15625 43.984375 
Q 61.921875 45.40625 58.890625 45.40625 
Q 53.421875 45.40625 49.796875 41.765625 
Q 46.1875 38.140625 46.1875 30.125 
L 46.1875 0 
L 37.40625 0 
L 37.40625 33.6875 
Q 37.40625 39.546875 35.25 42.46875 
Q 33.109375 45.40625 28.21875 45.40625 
Q 24.515625 45.40625 21.359375 43.453125 
Q 18.21875 41.5 16.796875 37.734375 
Q 15.375 33.984375 15.375 26.90625 
L 15.375 0 
z
" id="ArialMT-109"/>
      <path d="M 6.59375 -19.875 
L 6.59375 51.859375 
L 14.59375 51.859375 
L 14.59375 45.125 
Q 17.4375 49.078125 21 51.046875 
Q 24.5625 53.03125 29.640625 53.03125 
Q 36.28125 53.03125 41.359375 49.609375 
Q 46.4375 46.1875 49.015625 39.953125 
Q 51.609375 33.734375 51.609375 26.3125 
Q 51.609375 18.359375 48.75 11.984375 
Q 45.90625 5.609375 40.453125 2.21875 
Q 35.015625 -1.171875 29 -1.171875 
Q 24.609375 -1.171875 21.109375 0.6875 
Q 17.625 2.546875 15.375 5.375 
L 15.375 -19.875 
z
M 14.546875 25.640625 
Q 14.546875 15.625 18.59375 10.84375 
Q 22.65625 6.0625 28.421875 6.0625 
Q 34.28125 6.0625 38.453125 11.015625 
Q 42.625 15.96875 42.625 26.375 
Q 42.625 36.28125 38.546875 41.203125 
Q 34.46875 46.140625 28.8125 46.140625 
Q 23.1875 46.140625 18.859375 40.890625 
Q 14.546875 35.640625 14.546875 25.640625 
z
" id="ArialMT-112"/>
      <path d="M 6.390625 0 
L 6.390625 71.578125 
L 15.1875 71.578125 
L 15.1875 0 
z
" id="ArialMT-108"/>
      <path d="M 42.09375 16.703125 
L 51.171875 15.578125 
Q 49.03125 7.625 43.21875 3.21875 
Q 37.40625 -1.171875 28.375 -1.171875 
Q 17 -1.171875 10.328125 5.828125 
Q 3.65625 12.84375 3.65625 25.484375 
Q 3.65625 38.578125 10.390625 45.796875 
Q 17.140625 53.03125 27.875 53.03125 
Q 38.28125 53.03125 44.875 45.953125 
Q 51.46875 38.875 51.46875 26.03125 
Q 51.46875 25.25 51.421875 23.6875 
L 12.75 23.6875 
Q 13.234375 15.140625 17.578125 10.59375 
Q 21.921875 6.0625 28.421875 6.0625 
Q 33.25 6.0625 36.671875 8.59375 
Q 40.09375 11.140625 42.09375 16.703125 
z
M 13.234375 30.90625 
L 42.1875 30.90625 
Q 41.609375 37.453125 38.875 40.71875 
Q 34.671875 45.796875 27.984375 45.796875 
Q 21.921875 45.796875 17.796875 41.75 
Q 13.671875 37.703125 13.234375 30.90625 
z
" id="ArialMT-101"/>
     </defs>
     <g transform="translate(557.483906 299.88125)scale(0.18 -0.18)">
      <use xlink:href="#ArialMT-35"/>
      <use x="55.615234" xlink:href="#ArialMT-32"/>
      <use x="83.398438" xlink:href="#ArialMT-115"/>
      <use x="133.398438" xlink:href="#ArialMT-97"/>
      <use x="189.013672" xlink:href="#ArialMT-109"/>
      <use x="272.314453" xlink:href="#ArialMT-112"/>
      <use x="327.929688" xlink:href="#ArialMT-108"/>
      <use x="350.146484" xlink:href="#ArialMT-101"/>
     </g>
    </g>
   </g>
   <g id="matplotlib.axis_2">
    <g id="ytick_1">
     <g id="line2d_9">
      <path clip-path="url(#p9dc26e5ae7)" d="M 180 210.097424 
L 1008 210.097424 
" style="fill:none;stroke:#b0b0b0;stroke-linecap:square;stroke-width:0.8;"/>
     </g>
     <g id="line2d_10">
      <defs>
       <path d="M 0 0 
L -3.5 0 
" id="m8f2f4ba8bc" style="stroke:#000000;stroke-width:0.8;"/>
      </defs>
      <g>
       <use style="stroke:#000000;stroke-width:0.8;" x="180" xlink:href="#m8f2f4ba8bc" y="210.097424"/>
      </g>
     </g>
     <g id="text_6">
      <!-- −1000 -->
      <defs>
       <path d="M 52.828125 31.203125 
L 5.5625 31.203125 
L 5.5625 39.40625 
L 52.828125 39.40625 
z
" id="ArialMT-8722"/>
      </defs>
      <g transform="translate(99.980625 219.40258)scale(0.26 -0.26)">
       <use xlink:href="#ArialMT-8722"/>
       <use x="58.398438" xlink:href="#ArialMT-49"/>
       <use x="114.013672" xlink:href="#ArialMT-48"/>
       <use x="169.628906" xlink:href="#ArialMT-48"/>
       <use x="225.244141" xlink:href="#ArialMT-48"/>
      </g>
     </g>
    </g>
    <g id="ytick_2">
     <g id="line2d_11">
      <path clip-path="url(#p9dc26e5ae7)" d="M 180 127.270529 
L 1008 127.270529 
" style="fill:none;stroke:#b0b0b0;stroke-linecap:square;stroke-width:0.8;"/>
     </g>
     <g id="line2d_12">
      <g>
       <use style="stroke:#000000;stroke-width:0.8;" x="180" xlink:href="#m8f2f4ba8bc" y="127.270529"/>
      </g>
     </g>
     <g id="text_7">
      <!-- −500 -->
      <defs>
       <path d="M 4.15625 18.75 
L 13.375 19.53125 
Q 14.40625 12.796875 18.140625 9.390625 
Q 21.875 6 27.15625 6 
Q 33.5 6 37.890625 10.78125 
Q 42.28125 15.578125 42.28125 23.484375 
Q 42.28125 31 38.0625 35.34375 
Q 33.84375 39.703125 27 39.703125 
Q 22.75 39.703125 19.328125 37.765625 
Q 15.921875 35.84375 13.96875 32.765625 
L 5.71875 33.84375 
L 12.640625 70.609375 
L 48.25 70.609375 
L 48.25 62.203125 
L 19.671875 62.203125 
L 15.828125 42.96875 
Q 22.265625 47.46875 29.34375 47.46875 
Q 38.71875 47.46875 45.15625 40.96875 
Q 51.609375 34.46875 51.609375 24.265625 
Q 51.609375 14.546875 45.953125 7.46875 
Q 39.0625 -1.21875 27.15625 -1.21875 
Q 17.390625 -1.21875 11.203125 4.25 
Q 5.03125 9.71875 4.15625 18.75 
z
" id="ArialMT-53"/>
      </defs>
      <g transform="translate(114.439063 136.575685)scale(0.26 -0.26)">
       <use xlink:href="#ArialMT-8722"/>
       <use x="58.398438" xlink:href="#ArialMT-53"/>
       <use x="114.013672" xlink:href="#ArialMT-48"/>
       <use x="169.628906" xlink:href="#ArialMT-48"/>
      </g>
     </g>
    </g>
    <g id="ytick_3">
     <g id="line2d_13">
      <path clip-path="url(#p9dc26e5ae7)" d="M 180 44.443634 
L 1008 44.443634 
" style="fill:none;stroke:#b0b0b0;stroke-linecap:square;stroke-width:0.8;"/>
     </g>
     <g id="line2d_14">
      <g>
       <use style="stroke:#000000;stroke-width:0.8;" x="180" xlink:href="#m8f2f4ba8bc" y="44.443634"/>
      </g>
     </g>
     <g id="text_8">
      <!-- 0 -->
      <g transform="translate(158.541562 53.74879)scale(0.26 -0.26)">
       <use xlink:href="#ArialMT-48"/>
      </g>
     </g>
    </g>
    <g id="text_9">
     <!-- Log-likelihood (a.u.) -->
     <defs>
      <path d="M 7.328125 0 
L 7.328125 71.578125 
L 16.796875 71.578125 
L 16.796875 8.453125 
L 52.046875 8.453125 
L 52.046875 0 
z
" id="ArialMT-76"/>
      <path d="M 3.328125 25.921875 
Q 3.328125 40.328125 11.328125 47.265625 
Q 18.015625 53.03125 27.640625 53.03125 
Q 38.328125 53.03125 45.109375 46.015625 
Q 51.90625 39.015625 51.90625 26.65625 
Q 51.90625 16.65625 48.90625 10.90625 
Q 45.90625 5.171875 40.15625 2 
Q 34.421875 -1.171875 27.640625 -1.171875 
Q 16.75 -1.171875 10.03125 5.8125 
Q 3.328125 12.796875 3.328125 25.921875 
z
M 12.359375 25.921875 
Q 12.359375 15.96875 16.703125 11.015625 
Q 21.046875 6.0625 27.640625 6.0625 
Q 34.1875 6.0625 38.53125 11.03125 
Q 42.875 16.015625 42.875 26.21875 
Q 42.875 35.84375 38.5 40.796875 
Q 34.125 45.75 27.640625 45.75 
Q 21.046875 45.75 16.703125 40.8125 
Q 12.359375 35.890625 12.359375 25.921875 
z
" id="ArialMT-111"/>
      <path d="M 4.984375 -4.296875 
L 13.53125 -5.5625 
Q 14.0625 -9.515625 16.5 -11.328125 
Q 19.78125 -13.765625 25.4375 -13.765625 
Q 31.546875 -13.765625 34.859375 -11.328125 
Q 38.1875 -8.890625 39.359375 -4.5 
Q 40.046875 -1.8125 39.984375 6.78125 
Q 34.234375 0 25.640625 0 
Q 14.9375 0 9.078125 7.71875 
Q 3.21875 15.4375 3.21875 26.21875 
Q 3.21875 33.640625 5.90625 39.90625 
Q 8.59375 46.1875 13.6875 49.609375 
Q 18.796875 53.03125 25.6875 53.03125 
Q 34.859375 53.03125 40.828125 45.609375 
L 40.828125 51.859375 
L 48.921875 51.859375 
L 48.921875 7.03125 
Q 48.921875 -5.078125 46.453125 -10.125 
Q 44 -15.1875 38.640625 -18.109375 
Q 33.296875 -21.046875 25.484375 -21.046875 
Q 16.21875 -21.046875 10.5 -16.875 
Q 4.78125 -12.703125 4.984375 -4.296875 
z
M 12.25 26.859375 
Q 12.25 16.65625 16.296875 11.96875 
Q 20.359375 7.28125 26.46875 7.28125 
Q 32.515625 7.28125 36.609375 11.9375 
Q 40.71875 16.609375 40.71875 26.5625 
Q 40.71875 36.078125 36.5 40.90625 
Q 32.28125 45.75 26.3125 45.75 
Q 20.453125 45.75 16.34375 40.984375 
Q 12.25 36.234375 12.25 26.859375 
z
" id="ArialMT-103"/>
      <path d="M 3.171875 21.484375 
L 3.171875 30.328125 
L 30.171875 30.328125 
L 30.171875 21.484375 
z
" id="ArialMT-45"/>
      <path d="M 6.640625 61.46875 
L 6.640625 71.578125 
L 15.4375 71.578125 
L 15.4375 61.46875 
z
M 6.640625 0 
L 6.640625 51.859375 
L 15.4375 51.859375 
L 15.4375 0 
z
" id="ArialMT-105"/>
      <path d="M 6.640625 0 
L 6.640625 71.578125 
L 15.4375 71.578125 
L 15.4375 30.765625 
L 36.234375 51.859375 
L 47.609375 51.859375 
L 27.78125 32.625 
L 49.609375 0 
L 38.765625 0 
L 21.625 26.515625 
L 15.4375 20.5625 
L 15.4375 0 
z
" id="ArialMT-107"/>
      <path d="M 6.59375 0 
L 6.59375 71.578125 
L 15.375 71.578125 
L 15.375 45.90625 
Q 21.53125 53.03125 30.90625 53.03125 
Q 36.671875 53.03125 40.921875 50.75 
Q 45.171875 48.484375 47 44.484375 
Q 48.828125 40.484375 48.828125 32.859375 
L 48.828125 0 
L 40.046875 0 
L 40.046875 32.859375 
Q 40.046875 39.453125 37.1875 42.453125 
Q 34.328125 45.453125 29.109375 45.453125 
Q 25.203125 45.453125 21.75 43.421875 
Q 18.3125 41.40625 16.84375 37.9375 
Q 15.375 34.46875 15.375 28.375 
L 15.375 0 
z
" id="ArialMT-104"/>
      <path d="M 40.234375 0 
L 40.234375 6.546875 
Q 35.296875 -1.171875 25.734375 -1.171875 
Q 19.53125 -1.171875 14.328125 2.25 
Q 9.125 5.671875 6.265625 11.796875 
Q 3.421875 17.921875 3.421875 25.875 
Q 3.421875 33.640625 6 39.96875 
Q 8.59375 46.296875 13.765625 49.65625 
Q 18.953125 53.03125 25.34375 53.03125 
Q 30.03125 53.03125 33.6875 51.046875 
Q 37.359375 49.078125 39.65625 45.90625 
L 39.65625 71.578125 
L 48.390625 71.578125 
L 48.390625 0 
z
M 12.453125 25.875 
Q 12.453125 15.921875 16.640625 10.984375 
Q 20.84375 6.0625 26.5625 6.0625 
Q 32.328125 6.0625 36.34375 10.765625 
Q 40.375 15.484375 40.375 25.140625 
Q 40.375 35.796875 36.265625 40.765625 
Q 32.171875 45.75 26.171875 45.75 
Q 20.3125 45.75 16.375 40.96875 
Q 12.453125 36.1875 12.453125 25.875 
z
" id="ArialMT-100"/>
      <path d="M 23.390625 -21.046875 
Q 16.109375 -11.859375 11.078125 0.4375 
Q 6.0625 12.75 6.0625 25.921875 
Q 6.0625 37.546875 9.8125 48.1875 
Q 14.203125 60.546875 23.390625 72.796875 
L 29.6875 72.796875 
Q 23.78125 62.640625 21.875 58.296875 
Q 18.890625 51.5625 17.1875 44.234375 
Q 15.09375 35.109375 15.09375 25.875 
Q 15.09375 2.390625 29.6875 -21.046875 
z
" id="ArialMT-40"/>
      <path d="M 9.078125 0 
L 9.078125 10.015625 
L 19.09375 10.015625 
L 19.09375 0 
z
" id="ArialMT-46"/>
      <path d="M 40.578125 0 
L 40.578125 7.625 
Q 34.515625 -1.171875 24.125 -1.171875 
Q 19.53125 -1.171875 15.546875 0.578125 
Q 11.578125 2.34375 9.640625 5 
Q 7.71875 7.671875 6.9375 11.53125 
Q 6.390625 14.109375 6.390625 19.734375 
L 6.390625 51.859375 
L 15.1875 51.859375 
L 15.1875 23.09375 
Q 15.1875 16.21875 15.71875 13.8125 
Q 16.546875 10.359375 19.234375 8.375 
Q 21.921875 6.390625 25.875 6.390625 
Q 29.828125 6.390625 33.296875 8.421875 
Q 36.765625 10.453125 38.203125 13.9375 
Q 39.65625 17.4375 39.65625 24.078125 
L 39.65625 51.859375 
L 48.4375 51.859375 
L 48.4375 0 
z
" id="ArialMT-117"/>
      <path d="M 12.359375 -21.046875 
L 6.0625 -21.046875 
Q 20.65625 2.390625 20.65625 25.875 
Q 20.65625 35.0625 18.5625 44.09375 
Q 16.890625 51.421875 13.921875 58.15625 
Q 12.015625 62.546875 6.0625 72.796875 
L 12.359375 72.796875 
Q 21.53125 60.546875 25.921875 48.1875 
Q 29.6875 37.546875 29.6875 25.921875 
Q 29.6875 12.75 24.625 0.4375 
Q 19.578125 -11.859375 12.359375 -21.046875 
z
" id="ArialMT-41"/>
     </defs>
     <g transform="translate(92.192188 222.318281)rotate(-90)scale(0.18 -0.18)">
      <use xlink:href="#ArialMT-76"/>
      <use x="55.615234" xlink:href="#ArialMT-111"/>
      <use x="111.230469" xlink:href="#ArialMT-103"/>
      <use x="166.845703" xlink:href="#ArialMT-45"/>
      <use x="200.146484" xlink:href="#ArialMT-108"/>
      <use x="222.363281" xlink:href="#ArialMT-105"/>
      <use x="244.580078" xlink:href="#ArialMT-107"/>
      <use x="294.580078" xlink:href="#ArialMT-101"/>
      <use x="350.195312" xlink:href="#ArialMT-108"/>
      <use x="372.412109" xlink:href="#ArialMT-105"/>
      <use x="394.628906" xlink:href="#ArialMT-104"/>
      <use x="450.244141" xlink:href="#ArialMT-111"/>
      <use x="505.859375" xlink:href="#ArialMT-111"/>
      <use x="561.474609" xlink:href="#ArialMT-100"/>
      <use x="617.089844" xlink:href="#ArialMT-32"/>
      <use x="644.873047" xlink:href="#ArialMT-40"/>
      <use x="678.173828" xlink:href="#ArialMT-97"/>
      <use x="733.789062" xlink:href="#ArialMT-46"/>
      <use x="761.572266" xlink:href="#ArialMT-117"/>
      <use x="817.1875" xlink:href="#ArialMT-46"/>
      <use x="844.970703" xlink:href="#ArialMT-41"/>
     </g>
    </g>
   </g>
   <g id="line2d_15">
    <path clip-path="url(#p9dc26e5ae7)" d="M 217.636364 242.116364 
L 217.793247 94.123538 
L 217.950131 56.697099 
L 218.107014 47.518016 
L 218.263898 45.305105 
L 218.577665 44.505565 
L 219.205199 44.47039 
L 220.460268 44.605778 
L 220.774035 44.902856 
L 221.087802 44.899424 
L 221.401569 44.895251 
L 221.558452 44.900139 
L 221.715336 44.619432 
L 223.127288 44.454491 
L 225.794308 44.511559 
L 226.421842 44.473597 
L 226.578726 44.554268 
L 226.73561 44.496353 
L 226.892493 44.568126 
L 227.20626 44.498144 
L 229.088863 44.505045 
L 229.559513 44.464478 
L 231.599 44.447207 
L 234.893554 44.469077 
L 235.050438 44.527102 
L 235.364205 44.445204 
L 235.521088 44.557524 
L 235.677972 44.459265 
L 235.991739 44.47153 
L 236.619273 44.461177 
L 237.246807 44.462317 
L 238.188109 44.44688 
L 241.012013 44.446109 
L 251.209443 44.443981 
L 277.252113 44.445054 
L 304.392967 44.444291 
L 314.747281 44.444813 
L 378.912653 44.443909 
L 404.327788 44.444989 
L 437.273334 44.444088 
L 468.336276 44.444107 
L 468.49316 45.09712 
L 468.806927 45.054369 
L 476.02357 44.543191 
L 477.749289 44.515295 
L 485.436583 44.539281 
L 486.064118 44.57046 
L 490.456857 44.701309 
L 498.928569 44.829285 
L 499.712986 44.827409 
L 500.654288 44.872776 
L 501.124938 44.833526 
L 501.752473 44.839729 
L 502.53689 44.86022 
L 503.007541 44.854293 
L 503.321308 44.863491 
L 503.791959 44.877043 
L 504.262609 44.833286 
L 506.458979 44.806838 
L 512.734321 44.549548 
L 521.833567 44.501932 
L 524.657471 44.50492 
L 527.010724 44.493254 
L 530.148395 44.572104 
L 531.24658 44.599248 
L 532.815416 44.613515 
L 533.44295 44.605377 
L 534.227367 44.612957 
L 535.011785 44.598364 
L 539.718292 44.452341 
L 542.071545 44.446977 
L 546.621168 44.509106 
L 553.524044 44.654783 
L 554.151578 44.663362 
L 554.935996 44.683739 
L 555.249763 44.691154 
L 557.603016 44.672705 
L 564.662776 44.69537 
L 565.447194 44.713585 
L 566.388495 44.663265 
L 566.702262 44.702829 
L 567.016029 44.706875 
L 569.996817 44.680153 
L 570.467468 44.677313 
L 570.781235 44.680136 
L 571.565652 44.670279 
L 572.820721 44.672997 
L 573.291371 44.680584 
L 574.389556 44.640049 
L 575.01709 44.660986 
L 579.566713 44.538503 
L 580.351131 44.543412 
L 581.919967 44.477499 
L 583.488802 44.473768 
L 588.352192 44.475046 
L 589.764144 44.474508 
L 602.942362 44.561917 
L 604.040547 44.530036 
L 604.668081 44.527827 
L 606.3938 44.487067 
L 610.78654 44.44556 
L 624.592292 44.613353 
L 625.37671 44.62571 
L 625.847361 44.59899 
L 626.945545 44.616062 
L 628.985032 44.614423 
L 632.122703 44.599599 
L 634.162189 44.62324 
L 634.632839 44.61035 
L 635.887908 44.604501 
L 636.672326 44.598594 
L 641.692599 44.589357 
L 642.6339 44.596871 
L 643.104551 44.57319 
L 643.575202 44.583093 
L 644.35962 44.574882 
L 662.558111 44.458321 
L 665.852666 44.490091 
L 668.519686 44.507839 
L 668.990337 44.530133 
L 671.029823 44.525201 
L 673.069309 44.523941 
L 674.481261 44.484449 
L 677.462049 44.455923 
L 682.639206 44.458067 
L 684.521808 44.47817 
L 686.561294 44.510029 
L 690.483383 44.543016 
L 691.110917 44.529696 
L 691.895335 44.547521 
L 698.955095 44.556773 
L 701.465232 44.554581 
L 703.818485 44.551143 
L 705.857971 44.542131 
L 707.269923 44.547478 
L 721.232559 44.547523 
L 721.389443 44.645675 
L 721.70321 44.453499 
L 722.17386 44.618723 
L 722.487627 44.518303 
L 722.958278 44.483397 
L 723.428929 44.541385 
L 723.585812 44.468857 
L 723.899579 44.548707 
L 724.056463 44.57081 
L 724.213346 44.452375 
L 724.37023 44.570429 
L 724.527114 44.513904 
L 724.683997 44.583453 
L 724.997764 44.464974 
L 725.154648 44.459437 
L 725.468415 44.709234 
L 725.625298 44.518508 
L 725.782182 44.644733 
L 725.939066 44.524259 
L 726.095949 44.605335 
L 726.252833 44.449023 
L 726.723483 44.686523 
L 726.880367 44.473383 
L 727.03725 44.752695 
L 727.194134 44.454282 
L 727.507901 44.461618 
L 727.664785 44.665347 
L 727.821668 44.538578 
L 727.978552 44.642035 
L 728.292319 44.539729 
L 728.606086 44.487423 
L 728.919853 44.636642 
L 729.23362 44.511798 
L 729.547387 44.494093 
L 729.704271 44.62539 
L 729.861154 44.473628 
L 730.331805 44.569512 
L 730.488688 44.770051 
L 730.802456 44.464061 
L 731.273106 44.528481 
L 731.42999 44.44828 
L 731.586873 44.570066 
L 731.90064 44.465178 
L 733.626359 44.589836 
L 733.783243 44.6522 
L 733.940127 44.46873 
L 734.724544 44.520766 
L 735.038311 44.495118 
L 735.979613 44.518612 
L 736.136496 44.623213 
L 736.450263 44.517679 
L 737.234681 44.612922 
L 737.705332 44.445865 
L 737.862215 44.66303 
L 738.332866 44.460812 
L 738.646633 44.565074 
L 739.117284 44.559368 
L 739.274167 44.586647 
L 739.431051 44.819585 
L 739.587934 44.554843 
L 740.058585 44.812998 
L 740.215469 44.466707 
L 740.529236 44.51424 
L 741.15677 44.491552 
L 741.313653 44.737023 
L 741.470537 44.548521 
L 741.627421 44.642663 
L 741.784304 44.533455 
L 741.941188 44.630452 
L 742.098071 44.483858 
L 742.254955 44.883636 
L 742.411838 44.45829 
L 742.568722 44.653577 
L 743.039372 44.523761 
L 743.196256 44.506013 
L 743.35314 44.643381 
L 743.510023 44.493919 
L 743.666907 44.630942 
L 743.980674 44.550196 
L 744.137557 44.449925 
L 744.294441 44.555919 
L 744.451324 44.501063 
L 744.608208 44.760297 
L 744.765092 44.47849 
L 745.392626 44.494001 
L 745.549509 44.67318 
L 745.706393 44.461808 
L 746.02016 44.46148 
L 746.961461 44.511584 
L 747.275228 44.46665 
L 748.844064 44.511157 
L 749.000947 44.663286 
L 749.314714 44.551333 
L 750.726666 44.477101 
L 750.88355 44.593308 
L 751.197317 44.467706 
L 751.511084 44.501213 
L 752.138618 44.468292 
L 752.295502 44.67146 
L 752.609269 44.531589 
L 752.923036 44.627513 
L 753.236803 44.451527 
L 754.178105 44.483599 
L 754.805639 44.494629 
L 755.276289 44.519509 
L 755.903824 44.4805 
L 756.217591 44.502641 
L 756.374474 44.916415 
L 756.531358 44.457943 
L 757.472659 44.641229 
L 757.94331 44.521246 
L 758.570844 44.473539 
L 758.884611 44.718271 
L 759.198378 44.570362 
L 759.512145 44.517191 
L 759.669029 44.516752 
L 759.825912 44.766485 
L 759.982796 44.451099 
L 760.139679 44.64688 
L 761.394748 44.534792 
L 761.551631 44.720118 
L 761.708515 44.515245 
L 762.022282 44.728673 
L 762.336049 44.611594 
L 762.492933 44.463166 
L 762.649816 44.668087 
L 762.963583 44.585273 
L 763.120467 44.636238 
L 763.27735 44.521583 
L 763.748001 44.760003 
L 763.904885 44.74063 
L 764.061768 44.501908 
L 764.375535 44.481838 
L 764.532419 44.752153 
L 764.689302 44.487034 
L 765.47372 44.565019 
L 765.630604 44.621413 
L 765.787487 44.510845 
L 765.944371 44.682328 
L 766.101254 44.492697 
L 767.199439 44.624429 
L 767.513206 44.536498 
L 767.67009 44.726697 
L 767.826973 44.468362 
L 768.14074 44.560165 
L 768.297624 44.595337 
L 768.611391 44.499707 
L 768.925158 44.644828 
L 769.238925 44.537224 
L 769.395809 44.706115 
L 769.552692 44.544229 
L 770.023343 44.537417 
L 770.180227 44.667586 
L 770.493994 44.563701 
L 770.650877 44.736998 
L 770.964644 44.656435 
L 771.278411 44.751759 
L 771.435295 44.493316 
L 771.592179 44.510989 
L 771.749062 44.765837 
L 771.905946 44.728646 
L 772.062829 44.481748 
L 772.219713 44.646886 
L 772.376596 44.461765 
L 772.53348 44.698726 
L 773.004131 44.461291 
L 773.474781 44.691685 
L 773.631665 44.552595 
L 773.788548 44.598987 
L 774.102315 44.449163 
L 774.416082 44.537993 
L 774.72985 44.446369 
L 775.043617 44.646514 
L 775.357384 44.488085 
L 775.514267 44.584292 
L 775.828034 44.476745 
L 775.984918 44.571482 
L 776.455569 44.534057 
L 777.083103 44.532313 
L 777.239986 44.804962 
L 777.39687 44.565516 
L 778.024404 44.564582 
L 778.181288 44.765593 
L 778.338171 44.738379 
L 778.495055 44.501179 
L 778.965705 44.540634 
L 779.279473 44.55391 
L 779.436356 44.633235 
L 779.59324 44.50653 
L 779.750123 44.665716 
L 780.691424 44.646107 
L 780.848308 44.47557 
L 781.162075 44.622837 
L 781.318959 44.469528 
L 781.789609 44.605879 
L 781.946493 44.469105 
L 782.417144 44.471652 
L 782.574027 44.681741 
L 782.730911 44.651983 
L 782.887794 44.466916 
L 783.201561 44.525001 
L 783.515328 44.517374 
L 783.672212 44.701028 
L 783.829095 44.462131 
L 784.142863 44.56762 
L 784.45663 44.476786 
L 784.613513 44.57278 
L 784.770397 44.483295 
L 784.92728 44.549597 
L 785.241047 44.487612 
L 785.397931 44.572214 
L 785.711698 44.456606 
L 786.182349 44.595072 
L 786.496116 44.447907 
L 786.652999 44.557835 
L 786.809883 44.503606 
L 786.966766 44.578628 
L 787.280534 44.510437 
L 788.064951 44.652854 
L 788.221835 44.524193 
L 788.378718 44.627788 
L 788.535602 44.48332 
L 788.692486 44.58061 
L 789.32002 44.460284 
L 789.476903 44.539313 
L 789.79067 44.458395 
L 790.418205 44.449095 
L 790.575088 44.88275 
L 790.888855 44.458212 
L 791.202622 44.513245 
L 791.673273 44.557942 
L 791.830157 44.454518 
L 792.143924 44.552477 
L 793.398992 44.450137 
L 793.555876 44.7282 
L 794.026526 44.468132 
L 794.18341 44.593391 
L 794.340293 44.492067 
L 794.497177 44.711717 
L 794.967828 44.504518 
L 795.595362 44.619176 
L 795.909129 44.446599 
L 796.066012 44.61178 
L 796.379779 44.487803 
L 797.164197 44.444926 
L 797.321081 44.652632 
L 797.477964 44.505769 
L 797.634848 44.672274 
L 797.791731 44.47275 
L 798.576149 44.514942 
L 799.203683 44.497985 
L 799.360567 44.666238 
L 799.51745 44.481168 
L 799.988101 44.631929 
L 800.144985 44.471204 
L 800.458752 44.554506 
L 800.772519 44.475483 
L 800.929402 44.646705 
L 801.24317 44.505073 
L 801.400053 44.468703 
L 801.556937 44.578441 
L 801.71382 44.456028 
L 802.027587 44.480904 
L 803.91019 44.633234 
L 804.223957 44.483514 
L 804.380841 44.697913 
L 804.537724 44.46064 
L 805.792792 44.52717 
L 805.949676 44.7699 
L 806.10656 44.500494 
L 806.263443 44.720162 
L 806.57721 44.525473 
L 806.734094 44.501577 
L 806.890977 44.621425 
L 807.047861 44.53161 
L 807.361628 44.710972 
L 807.675395 44.504747 
L 808.302929 44.541896 
L 808.459813 44.627334 
L 808.77358 44.453669 
L 809.087347 44.596728 
L 809.244231 44.467617 
L 809.401114 44.657273 
L 810.028648 44.45907 
L 810.813066 44.540489 
L 811.911251 44.559384 
L 812.538785 44.537845 
L 813.166319 44.527183 
L 813.323203 44.49065 
L 813.480086 44.652206 
L 814.421388 44.44795 
L 814.578271 44.655036 
L 814.892038 44.446998 
L 815.519573 44.508493 
L 815.83334 44.518928 
L 815.990223 44.562855 
L 816.147107 44.478537 
L 816.30399 44.560229 
L 816.617757 44.539291 
L 817.715942 44.481879 
L 817.872826 44.622731 
L 818.186593 44.489472 
L 818.343476 44.456871 
L 818.50036 44.554618 
L 818.657244 44.479324 
L 818.814127 44.584212 
L 819.127894 44.492811 
L 819.598545 44.497231 
L 819.755428 44.621152 
L 819.912312 44.50579 
L 820.226079 44.617207 
L 820.382963 44.469473 
L 820.539846 44.531952 
L 820.69673 44.465576 
L 821.010497 44.497487 
L 821.481147 44.462583 
L 821.951798 44.643253 
L 822.422449 44.463445 
L 822.736216 44.495281 
L 823.520634 44.52358 
L 823.677517 44.688639 
L 823.834401 44.470204 
L 824.932586 44.581159 
L 825.246353 44.462803 
L 825.403236 44.649886 
L 825.717003 44.478042 
L 825.873887 44.619471 
L 826.344537 44.495419 
L 826.658305 44.568345 
L 826.972072 44.579386 
L 827.128955 44.681535 
L 827.285839 44.476499 
L 827.599606 44.537997 
L 827.913373 44.470583 
L 828.070257 44.59152 
L 828.384024 44.456783 
L 828.697791 44.591156 
L 829.011558 44.4722 
L 829.168441 44.458289 
L 829.325325 44.642137 
L 829.639092 44.533572 
L 829.795976 44.446898 
L 829.952859 44.65262 
L 830.266626 44.519237 
L 830.580393 44.713625 
L 830.89416 44.622321 
L 831.051044 44.631462 
L 831.207928 44.477283 
L 831.678578 44.565195 
L 831.992345 44.489741 
L 832.619879 44.567809 
L 832.776763 44.888596 
L 832.933647 44.614803 
L 833.09053 44.779163 
L 833.247414 44.575885 
L 833.404297 44.607109 
L 833.561181 44.458738 
L 834.031831 44.59304 
L 834.188715 44.760109 
L 834.345599 44.573697 
L 834.659366 44.770504 
L 834.816249 44.785159 
L 834.973133 44.474865 
L 835.130016 44.588094 
L 835.2869 44.461065 
L 835.600667 44.501776 
L 836.071318 44.468125 
L 836.698852 44.547435 
L 836.855735 44.490728 
L 837.012619 44.689103 
L 837.169502 44.509932 
L 837.326386 44.664583 
L 837.48327 44.49608 
L 837.797037 44.619896 
L 837.95392 44.55004 
L 838.424571 44.771507 
L 838.738338 44.574639 
L 839.052105 44.580945 
L 839.208989 44.536414 
L 839.365872 44.629362 
L 839.522756 44.485148 
L 839.836523 44.682921 
L 839.993406 44.565576 
L 840.307173 44.600975 
L 840.620941 44.513888 
L 840.934708 44.709363 
L 841.248475 44.494069 
L 841.405358 44.727626 
L 842.189776 44.519981 
L 842.974194 44.49079 
L 843.131077 44.721973 
L 843.287961 44.495483 
L 843.444844 44.838277 
L 843.601728 44.550533 
L 843.915495 44.54516 
L 844.386146 44.449261 
L 844.856796 44.784269 
L 845.01368 44.53445 
L 845.170563 44.789851 
L 845.327447 44.738094 
L 845.484331 44.458926 
L 845.641214 44.57057 
L 845.954981 44.49542 
L 846.268748 44.559034 
L 846.425632 44.791073 
L 846.582515 44.741131 
L 846.739399 44.508757 
L 847.21005 44.458598 
L 847.366933 44.647497 
L 847.523817 44.618848 
L 847.6807 44.709867 
L 847.994467 44.463927 
L 848.151351 44.468314 
L 848.465118 44.704337 
L 848.622002 44.589266 
L 848.778885 44.703648 
L 848.935769 44.515122 
L 849.092652 44.572757 
L 849.249536 44.878595 
L 849.563303 44.548587 
L 849.720186 44.456151 
L 849.87707 44.737979 
L 850.190837 44.495051 
L 850.504604 44.680932 
L 850.661488 44.481581 
L 850.975255 44.5408 
L 851.132138 44.451788 
L 851.445905 44.647738 
L 851.602789 44.86351 
L 851.916556 44.494778 
L 852.387207 44.52235 
L 852.54409 44.453093 
L 852.700974 44.890862 
L 852.857857 44.484719 
L 853.014741 44.746656 
L 853.171625 44.477859 
L 853.328508 44.55272 
L 853.485392 44.481336 
L 853.799159 44.634426 
L 854.112926 44.549371 
L 854.426693 44.670935 
L 854.583576 44.508593 
L 854.74046 44.590122 
L 854.897344 44.451654 
L 855.054227 44.577748 
L 855.367994 44.630502 
L 855.524878 44.757008 
L 855.838645 44.509365 
L 856.309296 44.537027 
L 856.466179 44.744033 
L 856.779946 44.536655 
L 858.505665 44.457 
L 858.819432 44.638661 
L 858.976316 44.453874 
L 859.446967 44.478272 
L 859.917617 44.452494 
L 860.231384 44.503861 
L 860.702035 44.463723 
L 860.858918 44.62553 
L 861.172686 44.450514 
L 861.329569 44.547983 
L 861.643336 44.489614 
L 862.113987 44.691039 
L 862.427754 44.452522 
L 862.584638 44.449387 
L 862.741521 44.575973 
L 863.369055 44.476275 
L 863.525939 44.574126 
L 863.682822 44.465504 
L 863.996589 44.657826 
L 864.153473 44.45546 
L 865.251658 44.603777 
L 865.408541 44.488631 
L 865.565425 44.521066 
L 865.722309 44.693458 
L 865.879192 44.466975 
L 866.036076 44.557678 
L 866.192959 44.472767 
L 866.349843 44.557926 
L 866.66361 44.460147 
L 866.820493 44.625083 
L 867.13426 44.504039 
L 867.448028 44.609411 
L 867.761795 44.507901 
L 867.918678 44.465541 
L 868.075562 44.557608 
L 868.703096 44.458256 
L 868.85998 44.602074 
L 869.33063 44.450717 
L 869.487514 44.527388 
L 869.644397 44.454863 
L 869.801281 44.521364 
L 869.958164 44.457158 
L 870.428815 44.51365 
L 870.899466 44.566875 
L 871.056349 44.65871 
L 871.213233 44.453559 
L 871.840767 44.531204 
L 872.154534 44.496336 
L 872.311418 44.845612 
L 872.468301 44.484509 
L 873.409602 44.497815 
L 874.037137 44.463345 
L 874.19402 44.505311 
L 874.350904 44.692121 
L 874.664671 44.511653 
L 875.135322 44.482483 
L 875.762856 44.473882 
L 876.076623 44.668914 
L 876.233506 44.453643 
L 877.174808 44.535523 
L 877.331691 44.447153 
L 877.645458 44.47281 
L 877.959225 44.544527 
L 878.116109 44.647851 
L 878.429876 44.482678 
L 878.58676 44.569501 
L 878.743643 44.499322 
L 879.05741 44.705591 
L 879.214294 44.535702 
L 880.469362 44.455635 
L 880.783129 44.733055 
L 880.940013 44.730357 
L 881.25378 44.461578 
L 881.410664 44.617663 
L 882.038198 44.48901 
L 882.195081 44.532043 
L 882.351965 44.457061 
L 882.508848 44.556918 
L 882.822615 44.472714 
L 883.293266 44.541115 
L 883.607033 44.446901 
L 884.077684 44.571126 
L 884.234567 44.690428 
L 884.391451 44.452729 
L 885.332752 44.534833 
L 885.646519 44.494354 
L 886.274054 44.458359 
L 886.430937 44.444869 
L 886.587821 44.771418 
L 886.744704 44.450147 
L 888.31354 44.552964 
L 888.470423 44.481437 
L 888.627307 44.570705 
L 888.941074 44.477876 
L 889.254841 44.504511 
L 889.568608 44.535699 
L 890.196142 44.475871 
L 890.353026 44.533047 
L 890.666793 44.449793 
L 890.823677 44.620371 
L 890.98056 44.491143 
L 891.294327 44.6516 
L 891.608094 44.490009 
L 892.078745 44.556301 
L 892.235628 44.475192 
L 892.392512 44.622984 
L 892.549396 44.448321 
L 893.020046 44.646736 
L 893.490697 44.531002 
L 893.64758 44.509942 
L 893.804464 44.60372 
L 893.961348 44.476204 
L 894.118231 44.654767 
L 894.431998 44.497474 
L 894.902649 44.447847 
L 895.059532 44.569907 
L 895.216416 44.461256 
L 895.530183 44.567846 
L 896.000834 44.50062 
L 896.157717 44.570759 
L 896.314601 44.452992 
L 896.471484 44.650187 
L 896.628368 44.537557 
L 896.942135 44.640636 
L 897.099019 44.460064 
L 897.255902 44.468896 
L 897.569669 44.687985 
L 897.726553 44.466236 
L 898.04032 44.480344 
L 898.197203 44.659744 
L 898.354087 44.490795 
L 899.295388 44.477867 
L 899.452272 44.70987 
L 899.609155 44.53203 
L 899.766039 44.578767 
L 899.922922 44.475774 
L 900.23669 44.687753 
L 900.393573 44.4508 
L 900.70734 44.518602 
L 900.864224 44.47292 
L 901.021107 44.556565 
L 901.177991 44.478999 
L 901.334874 44.855512 
L 901.491758 44.526108 
L 901.962409 44.529063 
L 902.119292 44.583738 
L 902.276176 44.46754 
L 902.433059 44.653326 
L 902.589943 44.547268 
L 902.90371 44.556089 
L 903.060593 44.540071 
L 903.217477 44.680706 
L 903.374361 44.490526 
L 904.158778 44.476828 
L 904.315662 44.711442 
L 904.472545 44.530245 
L 904.629429 44.596844 
L 904.943196 44.524323 
L 905.256963 44.507436 
L 905.413847 44.568434 
L 905.57073 44.474591 
L 905.727614 44.923568 
L 905.884497 44.789005 
L 906.041381 44.471428 
L 906.198264 44.851379 
L 906.668915 44.458893 
L 906.825799 44.531173 
L 907.139566 44.464489 
L 907.453333 44.684364 
L 907.610216 44.497273 
L 907.923983 44.534699 
L 908.080867 44.642077 
L 908.237751 44.461854 
L 908.394634 44.549699 
L 908.551518 44.836054 
L 908.708401 44.523436 
L 908.865285 44.579824 
L 909.022168 44.490459 
L 909.179052 44.63031 
L 909.806586 44.490175 
L 909.96347 44.475456 
L 910.120353 44.594637 
L 910.277237 44.481536 
L 910.591004 44.550118 
L 910.904771 44.652676 
L 911.061654 44.503631 
L 911.375422 44.738437 
L 911.532305 44.472076 
L 911.689189 44.725388 
L 911.846072 44.759984 
L 912.002956 44.500133 
L 913.571791 44.458401 
L 913.885558 44.749744 
L 914.042442 44.472004 
L 914.199325 44.589243 
L 914.356209 44.546609 
L 914.513093 44.646327 
L 914.669976 44.4838 
L 914.82686 44.627542 
L 914.983743 44.564761 
L 915.140627 44.62697 
L 915.29751 44.487853 
L 915.611277 44.51048 
L 915.768161 44.51607 
L 915.925045 44.643028 
L 916.395695 44.493375 
L 916.709462 44.642306 
L 916.866346 44.809494 
L 917.023229 44.479027 
L 917.180113 44.574014 
L 917.336996 44.51054 
L 917.49388 44.580586 
L 917.807647 44.462874 
L 918.435181 44.567449 
L 918.748948 44.508884 
L 918.905832 44.648046 
L 919.062716 44.470125 
L 919.219599 44.461162 
L 919.533366 44.666755 
L 919.69025 44.741744 
L 920.004017 44.467042 
L 920.1609 44.591878 
L 920.317784 44.4571 
L 920.788435 44.609207 
L 921.102202 44.473883 
L 921.572852 44.554899 
L 921.886619 44.468553 
L 922.043503 44.725814 
L 922.200387 44.481523 
L 922.35727 44.768721 
L 922.514154 44.615885 
L 922.984804 44.634193 
L 923.141688 44.524238 
L 923.298571 44.587165 
L 923.455455 44.493586 
L 924.082989 44.724025 
L 924.239873 44.512491 
L 926.750009 44.503307 
L 927.22066 44.462343 
L 927.691311 44.541067 
L 927.848194 44.635884 
L 928.161961 44.601872 
L 928.318845 44.714361 
L 928.632612 44.471031 
L 929.41703 44.532169 
L 929.88768 44.459683 
L 930.044564 44.760841 
L 930.358331 44.503106 
L 930.672098 44.60562 
L 930.985865 44.480774 
L 931.299632 44.562593 
L 931.456516 44.454596 
L 931.6134 44.721462 
L 931.770283 44.506948 
L 931.927167 44.546528 
L 932.240934 44.496509 
L 933.339119 44.480681 
L 933.496002 44.59874 
L 933.809769 44.451033 
L 934.28042 44.513585 
L 934.594187 44.447333 
L 934.751071 44.557803 
L 935.064838 44.520983 
L 935.378605 44.523103 
L 936.633673 44.500557 
L 936.790557 44.748886 
L 937.104324 44.494332 
L 938.516276 44.522163 
L 938.830043 44.481945 
L 939.14381 44.595184 
L 939.300693 44.475704 
L 939.457577 44.575284 
L 939.771344 44.5156 
L 940.241995 44.504896 
L 941.183296 44.45415 
L 941.497063 44.536914 
L 941.81083 44.552992 
L 942.438364 44.511382 
L 942.595248 44.749264 
L 942.752132 44.495164 
L 943.065899 44.537909 
L 944.0072 44.457426 
L 944.634734 44.459013 
L 945.889803 44.566909 
L 946.20357 44.517847 
L 946.517337 44.51504 
L 946.831104 44.501123 
L 947.144871 44.501963 
L 947.458638 44.511749 
L 947.615522 44.598929 
L 947.772405 44.541995 
L 947.929289 44.631244 
L 948.086172 44.476884 
L 948.713706 44.507494 
L 949.498124 44.491375 
L 949.655008 44.480781 
L 949.811891 44.607897 
L 950.125658 44.490494 
L 950.439426 44.464703 
L 950.596309 44.492404 
L 950.753193 44.667205 
L 951.06696 44.517881 
L 951.380727 44.485217 
L 952.008261 44.574197 
L 952.322028 44.523738 
L 953.106446 44.465936 
L 953.263329 44.644885 
L 953.73398 44.447201 
L 954.047747 44.513891 
L 954.204631 44.770948 
L 954.361514 44.506654 
L 954.518398 44.651086 
L 954.675281 44.526419 
L 955.145932 44.477876 
L 955.616583 44.474601 
L 955.93035 44.504106 
L 956.401 44.461741 
L 957.028535 44.483204 
L 957.185418 44.668369 
L 957.342302 44.446356 
L 957.812952 44.599657 
L 958.283603 44.449154 
L 959.381788 44.535273 
L 960.166206 44.464281 
L 960.636856 44.583857 
L 960.79374 44.472658 
L 960.950623 44.535268 
L 961.26439 44.491778 
L 961.421274 44.5119 
L 961.578158 44.756703 
L 961.735041 44.504993 
L 961.891925 44.647971 
L 962.048808 44.582859 
L 962.205692 44.752289 
L 962.519459 44.509983 
L 962.676342 44.619709 
L 962.99011 44.488748 
L 963.46076 44.474174 
L 963.617644 44.449717 
L 963.774527 44.560551 
L 963.931411 44.465346 
L 964.088294 44.668781 
L 964.245178 44.449808 
L 966.127781 44.512128 
L 966.284664 44.478389 
L 966.598431 44.635917 
L 966.755315 44.479551 
L 968.010383 44.468427 
L 968.167267 44.453368 
L 968.32415 44.692627 
L 968.637917 44.449909 
L 970.363636 44.564944 
L 970.363636 44.564944 
" style="fill:none;stroke:#1f77b4;stroke-linecap:square;stroke-width:1.5;"/>
   </g>
   <g id="patch_3">
    <path d="M 180 252 
L 180 34.56 
" style="fill:none;stroke:#000000;stroke-linecap:square;stroke-linejoin:miter;stroke-width:0.8;"/>
   </g>
   <g id="patch_4">
    <path d="M 1008 252 
L 1008 34.56 
" style="fill:none;stroke:#000000;stroke-linecap:square;stroke-linejoin:miter;stroke-width:0.8;"/>
   </g>
   <g id="patch_5">
    <path d="M 180 252 
L 1008 252 
" style="fill:none;stroke:#000000;stroke-linecap:square;stroke-linejoin:miter;stroke-width:0.8;"/>
   </g>
   <g id="patch_6">
    <path d="M 180 34.56 
L 1008 34.56 
" style="fill:none;stroke:#000000;stroke-linecap:square;stroke-linejoin:miter;stroke-width:0.8;"/>
   </g>
  </g>
 </g>
 <defs>
  <clipPath id="p9dc26e5ae7">
   <rect height="217.44" width="828" x="180" y="34.56"/>
  </clipPath>
 </defs>
</svg>
