<?xml version="1.0" encoding="utf-8" standalone="no"?>
<!DOCTYPE svg PUBLIC "-//W3C//DTD SVG 1.1//EN"
  "http://www.w3.org/Graphics/SVG/1.1/DTD/svg11.dtd">
<!-- Created with matplotlib (https://matplotlib.org/) -->
<svg height="288pt" version="1.1" viewBox="0 0 1440 288" width="1440pt" xmlns="http://www.w3.org/2000/svg" xmlns:xlink="http://www.w3.org/1999/xlink">
 <defs>
  <style type="text/css">
*{stroke-linecap:butt;stroke-linejoin:round;}
  </style>
 </defs>
 <g id="figure_1">
  <g id="patch_1">
   <path d="M 0 288 
L 1440 288 
L 1440 0 
L 0 0 
z
" style="fill:#ffffff;"/>
  </g>
  <g id="axes_1">
   <g id="patch_2">
    <path d="M 180 252 
L 1008 252 
L 1008 34.56 
L 180 34.56 
z
" style="fill:#ffffff;"/>
   </g>
   <g id="matplotlib.axis_1">
    <g id="xtick_1">
     <g id="line2d_1">
      <path clip-path="url(#p3a4e9469cc)" d="M 217.636364 252 
L 217.636364 34.56 
" style="fill:none;stroke:#b0b0b0;stroke-linecap:square;stroke-width:0.8;"/>
     </g>
     <g id="line2d_2">
      <defs>
       <path d="M 0 0 
L 0 3.5 
" id="ma8a4e01872" style="stroke:#000000;stroke-width:0.8;"/>
      </defs>
      <g>
       <use style="stroke:#000000;stroke-width:0.8;" x="217.636364" xlink:href="#ma8a4e01872" y="252"/>
      </g>
     </g>
     <g id="text_1">
      <!-- 0 -->
      <defs>
       <path d="M 4.15625 35.296875 
Q 4.15625 48 6.765625 55.734375 
Q 9.375 63.484375 14.515625 67.671875 
Q 19.671875 71.875 27.484375 71.875 
Q 33.25 71.875 37.59375 69.546875 
Q 41.9375 67.234375 44.765625 62.859375 
Q 47.609375 58.5 49.21875 52.21875 
Q 50.828125 45.953125 50.828125 35.296875 
Q 50.828125 22.703125 48.234375 14.96875 
Q 45.65625 7.234375 40.5 3 
Q 35.359375 -1.21875 27.484375 -1.21875 
Q 17.140625 -1.21875 11.234375 6.203125 
Q 4.15625 15.140625 4.15625 35.296875 
z
M 13.1875 35.296875 
Q 13.1875 17.671875 17.3125 11.828125 
Q 21.4375 6 27.484375 6 
Q 33.546875 6 37.671875 11.859375 
Q 41.796875 17.71875 41.796875 35.296875 
Q 41.796875 52.984375 37.671875 58.78125 
Q 33.546875 64.59375 27.390625 64.59375 
Q 21.34375 64.59375 17.71875 59.46875 
Q 13.1875 52.9375 13.1875 35.296875 
z
" id="ArialMT-48"/>
      </defs>
      <g transform="translate(214.855895 266.157812)scale(0.1 -0.1)">
       <use xlink:href="#ArialMT-48"/>
      </g>
     </g>
    </g>
    <g id="xtick_2">
     <g id="line2d_3">
      <path clip-path="url(#p3a4e9469cc)" d="M 468.650044 252 
L 468.650044 34.56 
" style="fill:none;stroke:#b0b0b0;stroke-linecap:square;stroke-width:0.8;"/>
     </g>
     <g id="line2d_4">
      <g>
       <use style="stroke:#000000;stroke-width:0.8;" x="468.650044" xlink:href="#ma8a4e01872" y="252"/>
      </g>
     </g>
     <g id="text_2">
      <!-- 1600 -->
      <defs>
       <path d="M 37.25 0 
L 28.46875 0 
L 28.46875 56 
Q 25.296875 52.984375 20.140625 49.953125 
Q 14.984375 46.921875 10.890625 45.40625 
L 10.890625 53.90625 
Q 18.265625 57.375 23.78125 62.296875 
Q 29.296875 67.234375 31.59375 71.875 
L 37.25 71.875 
z
" id="ArialMT-49"/>
       <path d="M 49.75 54.046875 
L 41.015625 53.375 
Q 39.84375 58.546875 37.703125 60.890625 
Q 34.125 64.65625 28.90625 64.65625 
Q 24.703125 64.65625 21.53125 62.3125 
Q 17.390625 59.28125 14.984375 53.46875 
Q 12.59375 47.65625 12.5 36.921875 
Q 15.671875 41.75 20.265625 44.09375 
Q 24.859375 46.4375 29.890625 46.4375 
Q 38.671875 46.4375 44.84375 39.96875 
Q 51.03125 33.5 51.03125 23.25 
Q 51.03125 16.5 48.125 10.71875 
Q 45.21875 4.9375 40.140625 1.859375 
Q 35.0625 -1.21875 28.609375 -1.21875 
Q 17.625 -1.21875 10.6875 6.859375 
Q 3.765625 14.9375 3.765625 33.5 
Q 3.765625 54.25 11.421875 63.671875 
Q 18.109375 71.875 29.4375 71.875 
Q 37.890625 71.875 43.28125 67.140625 
Q 48.6875 62.40625 49.75 54.046875 
z
M 13.875 23.1875 
Q 13.875 18.65625 15.796875 14.5 
Q 17.71875 10.359375 21.1875 8.171875 
Q 24.65625 6 28.46875 6 
Q 34.03125 6 38.03125 10.484375 
Q 42.046875 14.984375 42.046875 22.703125 
Q 42.046875 30.125 38.078125 34.390625 
Q 34.125 38.671875 28.125 38.671875 
Q 22.171875 38.671875 18.015625 34.390625 
Q 13.875 30.125 13.875 23.1875 
z
" id="ArialMT-54"/>
      </defs>
      <g transform="translate(457.528169 266.157812)scale(0.1 -0.1)">
       <use xlink:href="#ArialMT-49"/>
       <use x="55.615234" xlink:href="#ArialMT-54"/>
       <use x="111.230469" xlink:href="#ArialMT-48"/>
       <use x="166.845703" xlink:href="#ArialMT-48"/>
      </g>
     </g>
    </g>
    <g id="xtick_3">
     <g id="line2d_5">
      <path clip-path="url(#p3a4e9469cc)" d="M 719.663724 252 
L 719.663724 34.56 
" style="fill:none;stroke:#b0b0b0;stroke-linecap:square;stroke-width:0.8;"/>
     </g>
     <g id="line2d_6">
      <g>
       <use style="stroke:#000000;stroke-width:0.8;" x="719.663724" xlink:href="#ma8a4e01872" y="252"/>
      </g>
     </g>
     <g id="text_3">
      <!-- 3200 -->
      <defs>
       <path d="M 4.203125 18.890625 
L 12.984375 20.0625 
Q 14.5 12.59375 18.140625 9.296875 
Q 21.78125 6 27 6 
Q 33.203125 6 37.46875 10.296875 
Q 41.75 14.59375 41.75 20.953125 
Q 41.75 27 37.796875 30.921875 
Q 33.84375 34.859375 27.734375 34.859375 
Q 25.25 34.859375 21.53125 33.890625 
L 22.515625 41.609375 
Q 23.390625 41.5 23.921875 41.5 
Q 29.546875 41.5 34.03125 44.421875 
Q 38.53125 47.359375 38.53125 53.46875 
Q 38.53125 58.296875 35.25 61.46875 
Q 31.984375 64.65625 26.8125 64.65625 
Q 21.6875 64.65625 18.265625 61.421875 
Q 14.84375 58.203125 13.875 51.765625 
L 5.078125 53.328125 
Q 6.6875 62.15625 12.390625 67.015625 
Q 18.109375 71.875 26.609375 71.875 
Q 32.46875 71.875 37.390625 69.359375 
Q 42.328125 66.84375 44.9375 62.5 
Q 47.5625 58.15625 47.5625 53.265625 
Q 47.5625 48.640625 45.0625 44.828125 
Q 42.578125 41.015625 37.703125 38.765625 
Q 44.046875 37.3125 47.5625 32.6875 
Q 51.078125 28.078125 51.078125 21.140625 
Q 51.078125 11.765625 44.234375 5.25 
Q 37.40625 -1.265625 26.953125 -1.265625 
Q 17.53125 -1.265625 11.296875 4.34375 
Q 5.078125 9.96875 4.203125 18.890625 
z
" id="ArialMT-51"/>
       <path d="M 50.34375 8.453125 
L 50.34375 0 
L 3.03125 0 
Q 2.9375 3.171875 4.046875 6.109375 
Q 5.859375 10.9375 9.828125 15.625 
Q 13.8125 20.3125 21.34375 26.46875 
Q 33.015625 36.03125 37.109375 41.625 
Q 41.21875 47.21875 41.21875 52.203125 
Q 41.21875 57.421875 37.46875 61 
Q 33.734375 64.59375 27.734375 64.59375 
Q 21.390625 64.59375 17.578125 60.78125 
Q 13.765625 56.984375 13.71875 50.25 
L 4.6875 51.171875 
Q 5.609375 61.28125 11.65625 66.578125 
Q 17.71875 71.875 27.9375 71.875 
Q 38.234375 71.875 44.234375 66.15625 
Q 50.25 60.453125 50.25 52 
Q 50.25 47.703125 48.484375 43.546875 
Q 46.734375 39.40625 42.65625 34.8125 
Q 38.578125 30.21875 29.109375 22.21875 
Q 21.1875 15.578125 18.9375 13.203125 
Q 16.703125 10.84375 15.234375 8.453125 
z
" id="ArialMT-50"/>
      </defs>
      <g transform="translate(708.541849 266.157812)scale(0.1 -0.1)">
       <use xlink:href="#ArialMT-51"/>
       <use x="55.615234" xlink:href="#ArialMT-50"/>
       <use x="111.230469" xlink:href="#ArialMT-48"/>
       <use x="166.845703" xlink:href="#ArialMT-48"/>
      </g>
     </g>
    </g>
    <g id="xtick_4">
     <g id="line2d_7">
      <path clip-path="url(#p3a4e9469cc)" d="M 970.677403 252 
L 970.677403 34.56 
" style="fill:none;stroke:#b0b0b0;stroke-linecap:square;stroke-width:0.8;"/>
     </g>
     <g id="line2d_8">
      <g>
       <use style="stroke:#000000;stroke-width:0.8;" x="970.677403" xlink:href="#ma8a4e01872" y="252"/>
      </g>
     </g>
     <g id="text_4">
      <!-- 4800 -->
      <defs>
       <path d="M 32.328125 0 
L 32.328125 17.140625 
L 1.265625 17.140625 
L 1.265625 25.203125 
L 33.9375 71.578125 
L 41.109375 71.578125 
L 41.109375 25.203125 
L 50.78125 25.203125 
L 50.78125 17.140625 
L 41.109375 17.140625 
L 41.109375 0 
z
M 32.328125 25.203125 
L 32.328125 57.46875 
L 9.90625 25.203125 
z
" id="ArialMT-52"/>
       <path d="M 17.671875 38.8125 
Q 12.203125 40.828125 9.5625 44.53125 
Q 6.9375 48.25 6.9375 53.421875 
Q 6.9375 61.234375 12.546875 66.546875 
Q 18.171875 71.875 27.484375 71.875 
Q 36.859375 71.875 42.578125 66.421875 
Q 48.296875 60.984375 48.296875 53.171875 
Q 48.296875 48.1875 45.671875 44.5 
Q 43.0625 40.828125 37.75 38.8125 
Q 44.34375 36.671875 47.78125 31.875 
Q 51.21875 27.09375 51.21875 20.453125 
Q 51.21875 11.28125 44.71875 5.03125 
Q 38.234375 -1.21875 27.640625 -1.21875 
Q 17.046875 -1.21875 10.546875 5.046875 
Q 4.046875 11.328125 4.046875 20.703125 
Q 4.046875 27.6875 7.59375 32.390625 
Q 11.140625 37.109375 17.671875 38.8125 
z
M 15.921875 53.71875 
Q 15.921875 48.640625 19.1875 45.40625 
Q 22.46875 42.1875 27.6875 42.1875 
Q 32.765625 42.1875 36.015625 45.375 
Q 39.265625 48.578125 39.265625 53.21875 
Q 39.265625 58.0625 35.90625 61.359375 
Q 32.5625 64.65625 27.59375 64.65625 
Q 22.5625 64.65625 19.234375 61.421875 
Q 15.921875 58.203125 15.921875 53.71875 
z
M 13.09375 20.65625 
Q 13.09375 16.890625 14.875 13.375 
Q 16.65625 9.859375 20.171875 7.921875 
Q 23.6875 6 27.734375 6 
Q 34.03125 6 38.125 10.046875 
Q 42.234375 14.109375 42.234375 20.359375 
Q 42.234375 26.703125 38.015625 30.859375 
Q 33.796875 35.015625 27.4375 35.015625 
Q 21.234375 35.015625 17.15625 30.90625 
Q 13.09375 26.8125 13.09375 20.65625 
z
" id="ArialMT-56"/>
      </defs>
      <g transform="translate(959.555528 266.157812)scale(0.1 -0.1)">
       <use xlink:href="#ArialMT-52"/>
       <use x="55.615234" xlink:href="#ArialMT-56"/>
       <use x="111.230469" xlink:href="#ArialMT-48"/>
       <use x="166.845703" xlink:href="#ArialMT-48"/>
      </g>
     </g>
    </g>
    <g id="text_5">
     <!-- # sample -->
     <defs>
      <path d="M 5.03125 -1.21875 
L 9.28125 19.578125 
L 1.03125 19.578125 
L 1.03125 26.859375 
L 10.75 26.859375 
L 14.359375 44.578125 
L 1.03125 44.578125 
L 1.03125 51.859375 
L 15.828125 51.859375 
L 20.0625 72.796875 
L 27.390625 72.796875 
L 23.140625 51.859375 
L 38.53125 51.859375 
L 42.78125 72.796875 
L 50.140625 72.796875 
L 45.90625 51.859375 
L 54.34375 51.859375 
L 54.34375 44.578125 
L 44.4375 44.578125 
L 40.765625 26.859375 
L 54.34375 26.859375 
L 54.34375 19.578125 
L 39.3125 19.578125 
L 35.0625 -1.21875 
L 27.734375 -1.21875 
L 31.9375 19.578125 
L 16.609375 19.578125 
L 12.359375 -1.21875 
z
M 18.0625 26.859375 
L 33.40625 26.859375 
L 37.0625 44.578125 
L 21.6875 44.578125 
z
" id="ArialMT-35"/>
      <path id="ArialMT-32"/>
      <path d="M 3.078125 15.484375 
L 11.765625 16.84375 
Q 12.5 11.625 15.84375 8.84375 
Q 19.1875 6.0625 25.203125 6.0625 
Q 31.25 6.0625 34.171875 8.515625 
Q 37.109375 10.984375 37.109375 14.3125 
Q 37.109375 17.28125 34.515625 19 
Q 32.71875 20.171875 25.53125 21.96875 
Q 15.875 24.421875 12.140625 26.203125 
Q 8.40625 27.984375 6.46875 31.125 
Q 4.546875 34.28125 4.546875 38.09375 
Q 4.546875 41.546875 6.125 44.5 
Q 7.71875 47.46875 10.453125 49.421875 
Q 12.5 50.921875 16.03125 51.96875 
Q 19.578125 53.03125 23.640625 53.03125 
Q 29.734375 53.03125 34.34375 51.265625 
Q 38.96875 49.515625 41.15625 46.5 
Q 43.359375 43.5 44.1875 38.484375 
L 35.59375 37.3125 
Q 35.015625 41.3125 32.203125 43.546875 
Q 29.390625 45.796875 24.265625 45.796875 
Q 18.21875 45.796875 15.625 43.796875 
Q 13.03125 41.796875 13.03125 39.109375 
Q 13.03125 37.40625 14.109375 36.03125 
Q 15.1875 34.625 17.484375 33.6875 
Q 18.796875 33.203125 25.25 31.453125 
Q 34.578125 28.953125 38.25 27.359375 
Q 41.9375 25.78125 44.03125 22.75 
Q 46.140625 19.734375 46.140625 15.234375 
Q 46.140625 10.84375 43.578125 6.953125 
Q 41.015625 3.078125 36.171875 0.953125 
Q 31.34375 -1.171875 25.25 -1.171875 
Q 15.140625 -1.171875 9.84375 3.03125 
Q 4.546875 7.234375 3.078125 15.484375 
z
" id="ArialMT-115"/>
      <path d="M 40.4375 6.390625 
Q 35.546875 2.25 31.03125 0.53125 
Q 26.515625 -1.171875 21.34375 -1.171875 
Q 12.796875 -1.171875 8.203125 3 
Q 3.609375 7.171875 3.609375 13.671875 
Q 3.609375 17.484375 5.34375 20.625 
Q 7.078125 23.78125 9.890625 25.6875 
Q 12.703125 27.59375 16.21875 28.5625 
Q 18.796875 29.25 24.03125 29.890625 
Q 34.671875 31.15625 39.703125 32.90625 
Q 39.75 34.71875 39.75 35.203125 
Q 39.75 40.578125 37.25 42.78125 
Q 33.890625 45.75 27.25 45.75 
Q 21.046875 45.75 18.09375 43.578125 
Q 15.140625 41.40625 13.71875 35.890625 
L 5.125 37.0625 
Q 6.296875 42.578125 8.984375 45.96875 
Q 11.671875 49.359375 16.75 51.1875 
Q 21.828125 53.03125 28.515625 53.03125 
Q 35.15625 53.03125 39.296875 51.46875 
Q 43.453125 49.90625 45.40625 47.53125 
Q 47.359375 45.171875 48.140625 41.546875 
Q 48.578125 39.3125 48.578125 33.453125 
L 48.578125 21.734375 
Q 48.578125 9.46875 49.140625 6.21875 
Q 49.703125 2.984375 51.375 0 
L 42.1875 0 
Q 40.828125 2.734375 40.4375 6.390625 
z
M 39.703125 26.03125 
Q 34.90625 24.078125 25.34375 22.703125 
Q 19.921875 21.921875 17.671875 20.9375 
Q 15.4375 19.96875 14.203125 18.09375 
Q 12.984375 16.21875 12.984375 13.921875 
Q 12.984375 10.40625 15.640625 8.0625 
Q 18.3125 5.71875 23.4375 5.71875 
Q 28.515625 5.71875 32.46875 7.9375 
Q 36.421875 10.15625 38.28125 14.015625 
Q 39.703125 17 39.703125 22.796875 
z
" id="ArialMT-97"/>
      <path d="M 6.59375 0 
L 6.59375 51.859375 
L 14.453125 51.859375 
L 14.453125 44.578125 
Q 16.890625 48.390625 20.9375 50.703125 
Q 25 53.03125 30.171875 53.03125 
Q 35.9375 53.03125 39.625 50.640625 
Q 43.3125 48.25 44.828125 43.953125 
Q 50.984375 53.03125 60.84375 53.03125 
Q 68.5625 53.03125 72.703125 48.75 
Q 76.859375 44.484375 76.859375 35.59375 
L 76.859375 0 
L 68.109375 0 
L 68.109375 32.671875 
Q 68.109375 37.9375 67.25 40.25 
Q 66.40625 42.578125 64.15625 43.984375 
Q 61.921875 45.40625 58.890625 45.40625 
Q 53.421875 45.40625 49.796875 41.765625 
Q 46.1875 38.140625 46.1875 30.125 
L 46.1875 0 
L 37.40625 0 
L 37.40625 33.6875 
Q 37.40625 39.546875 35.25 42.46875 
Q 33.109375 45.40625 28.21875 45.40625 
Q 24.515625 45.40625 21.359375 43.453125 
Q 18.21875 41.5 16.796875 37.734375 
Q 15.375 33.984375 15.375 26.90625 
L 15.375 0 
z
" id="ArialMT-109"/>
      <path d="M 6.59375 -19.875 
L 6.59375 51.859375 
L 14.59375 51.859375 
L 14.59375 45.125 
Q 17.4375 49.078125 21 51.046875 
Q 24.5625 53.03125 29.640625 53.03125 
Q 36.28125 53.03125 41.359375 49.609375 
Q 46.4375 46.1875 49.015625 39.953125 
Q 51.609375 33.734375 51.609375 26.3125 
Q 51.609375 18.359375 48.75 11.984375 
Q 45.90625 5.609375 40.453125 2.21875 
Q 35.015625 -1.171875 29 -1.171875 
Q 24.609375 -1.171875 21.109375 0.6875 
Q 17.625 2.546875 15.375 5.375 
L 15.375 -19.875 
z
M 14.546875 25.640625 
Q 14.546875 15.625 18.59375 10.84375 
Q 22.65625 6.0625 28.421875 6.0625 
Q 34.28125 6.0625 38.453125 11.015625 
Q 42.625 15.96875 42.625 26.375 
Q 42.625 36.28125 38.546875 41.203125 
Q 34.46875 46.140625 28.8125 46.140625 
Q 23.1875 46.140625 18.859375 40.890625 
Q 14.546875 35.640625 14.546875 25.640625 
z
" id="ArialMT-112"/>
      <path d="M 6.390625 0 
L 6.390625 71.578125 
L 15.1875 71.578125 
L 15.1875 0 
z
" id="ArialMT-108"/>
      <path d="M 42.09375 16.703125 
L 51.171875 15.578125 
Q 49.03125 7.625 43.21875 3.21875 
Q 37.40625 -1.171875 28.375 -1.171875 
Q 17 -1.171875 10.328125 5.828125 
Q 3.65625 12.84375 3.65625 25.484375 
Q 3.65625 38.578125 10.390625 45.796875 
Q 17.140625 53.03125 27.875 53.03125 
Q 38.28125 53.03125 44.875 45.953125 
Q 51.46875 38.875 51.46875 26.03125 
Q 51.46875 25.25 51.421875 23.6875 
L 12.75 23.6875 
Q 13.234375 15.140625 17.578125 10.59375 
Q 21.921875 6.0625 28.421875 6.0625 
Q 33.25 6.0625 36.671875 8.59375 
Q 40.09375 11.140625 42.09375 16.703125 
z
M 13.234375 30.90625 
L 42.1875 30.90625 
Q 41.609375 37.453125 38.875 40.71875 
Q 34.671875 45.796875 27.984375 45.796875 
Q 21.921875 45.796875 17.796875 41.75 
Q 13.671875 37.703125 13.234375 30.90625 
z
" id="ArialMT-101"/>
     </defs>
     <g transform="translate(557.483906 285.24875)scale(0.18 -0.18)">
      <use xlink:href="#ArialMT-35"/>
      <use x="55.615234" xlink:href="#ArialMT-32"/>
      <use x="83.398438" xlink:href="#ArialMT-115"/>
      <use x="133.398438" xlink:href="#ArialMT-97"/>
      <use x="189.013672" xlink:href="#ArialMT-109"/>
      <use x="272.314453" xlink:href="#ArialMT-112"/>
      <use x="327.929688" xlink:href="#ArialMT-108"/>
      <use x="350.146484" xlink:href="#ArialMT-101"/>
     </g>
    </g>
   </g>
   <g id="matplotlib.axis_2">
    <g id="ytick_1">
     <g id="line2d_9">
      <path clip-path="url(#p3a4e9469cc)" d="M 180 242.805242 
L 1008 242.805242 
" style="fill:none;stroke:#b0b0b0;stroke-linecap:square;stroke-width:0.8;"/>
     </g>
     <g id="line2d_10">
      <defs>
       <path d="M 0 0 
L -3.5 0 
" id="m8f1db6ec40" style="stroke:#000000;stroke-width:0.8;"/>
      </defs>
      <g>
       <use style="stroke:#000000;stroke-width:0.8;" x="180" xlink:href="#m8f1db6ec40" y="242.805242"/>
      </g>
     </g>
     <g id="text_6">
      <!-- −1200 -->
      <defs>
       <path d="M 52.828125 31.203125 
L 5.5625 31.203125 
L 5.5625 39.40625 
L 52.828125 39.40625 
z
" id="ArialMT-8722"/>
      </defs>
      <g transform="translate(144.915625 246.384148)scale(0.1 -0.1)">
       <use xlink:href="#ArialMT-8722"/>
       <use x="58.398438" xlink:href="#ArialMT-49"/>
       <use x="114.013672" xlink:href="#ArialMT-50"/>
       <use x="169.628906" xlink:href="#ArialMT-48"/>
       <use x="225.244141" xlink:href="#ArialMT-48"/>
      </g>
     </g>
    </g>
    <g id="ytick_2">
     <g id="line2d_11">
      <path clip-path="url(#p3a4e9469cc)" d="M 180 209.744974 
L 1008 209.744974 
" style="fill:none;stroke:#b0b0b0;stroke-linecap:square;stroke-width:0.8;"/>
     </g>
     <g id="line2d_12">
      <g>
       <use style="stroke:#000000;stroke-width:0.8;" x="180" xlink:href="#m8f1db6ec40" y="209.744974"/>
      </g>
     </g>
     <g id="text_7">
      <!-- −1000 -->
      <g transform="translate(144.915625 213.32388)scale(0.1 -0.1)">
       <use xlink:href="#ArialMT-8722"/>
       <use x="58.398438" xlink:href="#ArialMT-49"/>
       <use x="114.013672" xlink:href="#ArialMT-48"/>
       <use x="169.628906" xlink:href="#ArialMT-48"/>
       <use x="225.244141" xlink:href="#ArialMT-48"/>
      </g>
     </g>
    </g>
    <g id="ytick_3">
     <g id="line2d_13">
      <path clip-path="url(#p3a4e9469cc)" d="M 180 176.684706 
L 1008 176.684706 
" style="fill:none;stroke:#b0b0b0;stroke-linecap:square;stroke-width:0.8;"/>
     </g>
     <g id="line2d_14">
      <g>
       <use style="stroke:#000000;stroke-width:0.8;" x="180" xlink:href="#m8f1db6ec40" y="176.684706"/>
      </g>
     </g>
     <g id="text_8">
      <!-- −800 -->
      <g transform="translate(150.476562 180.263612)scale(0.1 -0.1)">
       <use xlink:href="#ArialMT-8722"/>
       <use x="58.398438" xlink:href="#ArialMT-56"/>
       <use x="114.013672" xlink:href="#ArialMT-48"/>
       <use x="169.628906" xlink:href="#ArialMT-48"/>
      </g>
     </g>
    </g>
    <g id="ytick_4">
     <g id="line2d_15">
      <path clip-path="url(#p3a4e9469cc)" d="M 180 143.624438 
L 1008 143.624438 
" style="fill:none;stroke:#b0b0b0;stroke-linecap:square;stroke-width:0.8;"/>
     </g>
     <g id="line2d_16">
      <g>
       <use style="stroke:#000000;stroke-width:0.8;" x="180" xlink:href="#m8f1db6ec40" y="143.624438"/>
      </g>
     </g>
     <g id="text_9">
      <!-- −600 -->
      <g transform="translate(150.476562 147.203345)scale(0.1 -0.1)">
       <use xlink:href="#ArialMT-8722"/>
       <use x="58.398438" xlink:href="#ArialMT-54"/>
       <use x="114.013672" xlink:href="#ArialMT-48"/>
       <use x="169.628906" xlink:href="#ArialMT-48"/>
      </g>
     </g>
    </g>
    <g id="ytick_5">
     <g id="line2d_17">
      <path clip-path="url(#p3a4e9469cc)" d="M 180 110.56417 
L 1008 110.56417 
" style="fill:none;stroke:#b0b0b0;stroke-linecap:square;stroke-width:0.8;"/>
     </g>
     <g id="line2d_18">
      <g>
       <use style="stroke:#000000;stroke-width:0.8;" x="180" xlink:href="#m8f1db6ec40" y="110.56417"/>
      </g>
     </g>
     <g id="text_10">
      <!-- −400 -->
      <g transform="translate(150.476562 114.143077)scale(0.1 -0.1)">
       <use xlink:href="#ArialMT-8722"/>
       <use x="58.398438" xlink:href="#ArialMT-52"/>
       <use x="114.013672" xlink:href="#ArialMT-48"/>
       <use x="169.628906" xlink:href="#ArialMT-48"/>
      </g>
     </g>
    </g>
    <g id="ytick_6">
     <g id="line2d_19">
      <path clip-path="url(#p3a4e9469cc)" d="M 180 77.503902 
L 1008 77.503902 
" style="fill:none;stroke:#b0b0b0;stroke-linecap:square;stroke-width:0.8;"/>
     </g>
     <g id="line2d_20">
      <g>
       <use style="stroke:#000000;stroke-width:0.8;" x="180" xlink:href="#m8f1db6ec40" y="77.503902"/>
      </g>
     </g>
     <g id="text_11">
      <!-- −200 -->
      <g transform="translate(150.476562 81.082809)scale(0.1 -0.1)">
       <use xlink:href="#ArialMT-8722"/>
       <use x="58.398438" xlink:href="#ArialMT-50"/>
       <use x="114.013672" xlink:href="#ArialMT-48"/>
       <use x="169.628906" xlink:href="#ArialMT-48"/>
      </g>
     </g>
    </g>
    <g id="ytick_7">
     <g id="line2d_21">
      <path clip-path="url(#p3a4e9469cc)" d="M 180 44.443634 
L 1008 44.443634 
" style="fill:none;stroke:#b0b0b0;stroke-linecap:square;stroke-width:0.8;"/>
     </g>
     <g id="line2d_22">
      <g>
       <use style="stroke:#000000;stroke-width:0.8;" x="180" xlink:href="#m8f1db6ec40" y="44.443634"/>
      </g>
     </g>
     <g id="text_12">
      <!-- 0 -->
      <g transform="translate(167.439063 48.022541)scale(0.1 -0.1)">
       <use xlink:href="#ArialMT-48"/>
      </g>
     </g>
    </g>
    <g id="text_13">
     <!-- Log-likelihood (a.u.) -->
     <defs>
      <path d="M 7.328125 0 
L 7.328125 71.578125 
L 16.796875 71.578125 
L 16.796875 8.453125 
L 52.046875 8.453125 
L 52.046875 0 
z
" id="ArialMT-76"/>
      <path d="M 3.328125 25.921875 
Q 3.328125 40.328125 11.328125 47.265625 
Q 18.015625 53.03125 27.640625 53.03125 
Q 38.328125 53.03125 45.109375 46.015625 
Q 51.90625 39.015625 51.90625 26.65625 
Q 51.90625 16.65625 48.90625 10.90625 
Q 45.90625 5.171875 40.15625 2 
Q 34.421875 -1.171875 27.640625 -1.171875 
Q 16.75 -1.171875 10.03125 5.8125 
Q 3.328125 12.796875 3.328125 25.921875 
z
M 12.359375 25.921875 
Q 12.359375 15.96875 16.703125 11.015625 
Q 21.046875 6.0625 27.640625 6.0625 
Q 34.1875 6.0625 38.53125 11.03125 
Q 42.875 16.015625 42.875 26.21875 
Q 42.875 35.84375 38.5 40.796875 
Q 34.125 45.75 27.640625 45.75 
Q 21.046875 45.75 16.703125 40.8125 
Q 12.359375 35.890625 12.359375 25.921875 
z
" id="ArialMT-111"/>
      <path d="M 4.984375 -4.296875 
L 13.53125 -5.5625 
Q 14.0625 -9.515625 16.5 -11.328125 
Q 19.78125 -13.765625 25.4375 -13.765625 
Q 31.546875 -13.765625 34.859375 -11.328125 
Q 38.1875 -8.890625 39.359375 -4.5 
Q 40.046875 -1.8125 39.984375 6.78125 
Q 34.234375 0 25.640625 0 
Q 14.9375 0 9.078125 7.71875 
Q 3.21875 15.4375 3.21875 26.21875 
Q 3.21875 33.640625 5.90625 39.90625 
Q 8.59375 46.1875 13.6875 49.609375 
Q 18.796875 53.03125 25.6875 53.03125 
Q 34.859375 53.03125 40.828125 45.609375 
L 40.828125 51.859375 
L 48.921875 51.859375 
L 48.921875 7.03125 
Q 48.921875 -5.078125 46.453125 -10.125 
Q 44 -15.1875 38.640625 -18.109375 
Q 33.296875 -21.046875 25.484375 -21.046875 
Q 16.21875 -21.046875 10.5 -16.875 
Q 4.78125 -12.703125 4.984375 -4.296875 
z
M 12.25 26.859375 
Q 12.25 16.65625 16.296875 11.96875 
Q 20.359375 7.28125 26.46875 7.28125 
Q 32.515625 7.28125 36.609375 11.9375 
Q 40.71875 16.609375 40.71875 26.5625 
Q 40.71875 36.078125 36.5 40.90625 
Q 32.28125 45.75 26.3125 45.75 
Q 20.453125 45.75 16.34375 40.984375 
Q 12.25 36.234375 12.25 26.859375 
z
" id="ArialMT-103"/>
      <path d="M 3.171875 21.484375 
L 3.171875 30.328125 
L 30.171875 30.328125 
L 30.171875 21.484375 
z
" id="ArialMT-45"/>
      <path d="M 6.640625 61.46875 
L 6.640625 71.578125 
L 15.4375 71.578125 
L 15.4375 61.46875 
z
M 6.640625 0 
L 6.640625 51.859375 
L 15.4375 51.859375 
L 15.4375 0 
z
" id="ArialMT-105"/>
      <path d="M 6.640625 0 
L 6.640625 71.578125 
L 15.4375 71.578125 
L 15.4375 30.765625 
L 36.234375 51.859375 
L 47.609375 51.859375 
L 27.78125 32.625 
L 49.609375 0 
L 38.765625 0 
L 21.625 26.515625 
L 15.4375 20.5625 
L 15.4375 0 
z
" id="ArialMT-107"/>
      <path d="M 6.59375 0 
L 6.59375 71.578125 
L 15.375 71.578125 
L 15.375 45.90625 
Q 21.53125 53.03125 30.90625 53.03125 
Q 36.671875 53.03125 40.921875 50.75 
Q 45.171875 48.484375 47 44.484375 
Q 48.828125 40.484375 48.828125 32.859375 
L 48.828125 0 
L 40.046875 0 
L 40.046875 32.859375 
Q 40.046875 39.453125 37.1875 42.453125 
Q 34.328125 45.453125 29.109375 45.453125 
Q 25.203125 45.453125 21.75 43.421875 
Q 18.3125 41.40625 16.84375 37.9375 
Q 15.375 34.46875 15.375 28.375 
L 15.375 0 
z
" id="ArialMT-104"/>
      <path d="M 40.234375 0 
L 40.234375 6.546875 
Q 35.296875 -1.171875 25.734375 -1.171875 
Q 19.53125 -1.171875 14.328125 2.25 
Q 9.125 5.671875 6.265625 11.796875 
Q 3.421875 17.921875 3.421875 25.875 
Q 3.421875 33.640625 6 39.96875 
Q 8.59375 46.296875 13.765625 49.65625 
Q 18.953125 53.03125 25.34375 53.03125 
Q 30.03125 53.03125 33.6875 51.046875 
Q 37.359375 49.078125 39.65625 45.90625 
L 39.65625 71.578125 
L 48.390625 71.578125 
L 48.390625 0 
z
M 12.453125 25.875 
Q 12.453125 15.921875 16.640625 10.984375 
Q 20.84375 6.0625 26.5625 6.0625 
Q 32.328125 6.0625 36.34375 10.765625 
Q 40.375 15.484375 40.375 25.140625 
Q 40.375 35.796875 36.265625 40.765625 
Q 32.171875 45.75 26.171875 45.75 
Q 20.3125 45.75 16.375 40.96875 
Q 12.453125 36.1875 12.453125 25.875 
z
" id="ArialMT-100"/>
      <path d="M 23.390625 -21.046875 
Q 16.109375 -11.859375 11.078125 0.4375 
Q 6.0625 12.75 6.0625 25.921875 
Q 6.0625 37.546875 9.8125 48.1875 
Q 14.203125 60.546875 23.390625 72.796875 
L 29.6875 72.796875 
Q 23.78125 62.640625 21.875 58.296875 
Q 18.890625 51.5625 17.1875 44.234375 
Q 15.09375 35.109375 15.09375 25.875 
Q 15.09375 2.390625 29.6875 -21.046875 
z
" id="ArialMT-40"/>
      <path d="M 9.078125 0 
L 9.078125 10.015625 
L 19.09375 10.015625 
L 19.09375 0 
z
" id="ArialMT-46"/>
      <path d="M 40.578125 0 
L 40.578125 7.625 
Q 34.515625 -1.171875 24.125 -1.171875 
Q 19.53125 -1.171875 15.546875 0.578125 
Q 11.578125 2.34375 9.640625 5 
Q 7.71875 7.671875 6.9375 11.53125 
Q 6.390625 14.109375 6.390625 19.734375 
L 6.390625 51.859375 
L 15.1875 51.859375 
L 15.1875 23.09375 
Q 15.1875 16.21875 15.71875 13.8125 
Q 16.546875 10.359375 19.234375 8.375 
Q 21.921875 6.390625 25.875 6.390625 
Q 29.828125 6.390625 33.296875 8.421875 
Q 36.765625 10.453125 38.203125 13.9375 
Q 39.65625 17.4375 39.65625 24.078125 
L 39.65625 51.859375 
L 48.4375 51.859375 
L 48.4375 0 
z
" id="ArialMT-117"/>
      <path d="M 12.359375 -21.046875 
L 6.0625 -21.046875 
Q 20.65625 2.390625 20.65625 25.875 
Q 20.65625 35.0625 18.5625 44.09375 
Q 16.890625 51.421875 13.921875 58.15625 
Q 12.015625 62.546875 6.0625 72.796875 
L 12.359375 72.796875 
Q 21.53125 60.546875 25.921875 48.1875 
Q 29.6875 37.546875 29.6875 25.921875 
Q 29.6875 12.75 24.625 0.4375 
Q 19.578125 -11.859375 12.359375 -21.046875 
z
" id="ArialMT-41"/>
     </defs>
     <g transform="translate(137.127187 222.318281)rotate(-90)scale(0.18 -0.18)">
      <use xlink:href="#ArialMT-76"/>
      <use x="55.615234" xlink:href="#ArialMT-111"/>
      <use x="111.230469" xlink:href="#ArialMT-103"/>
      <use x="166.845703" xlink:href="#ArialMT-45"/>
      <use x="200.146484" xlink:href="#ArialMT-108"/>
      <use x="222.363281" xlink:href="#ArialMT-105"/>
      <use x="244.580078" xlink:href="#ArialMT-107"/>
      <use x="294.580078" xlink:href="#ArialMT-101"/>
      <use x="350.195312" xlink:href="#ArialMT-108"/>
      <use x="372.412109" xlink:href="#ArialMT-105"/>
      <use x="394.628906" xlink:href="#ArialMT-104"/>
      <use x="450.244141" xlink:href="#ArialMT-111"/>
      <use x="505.859375" xlink:href="#ArialMT-111"/>
      <use x="561.474609" xlink:href="#ArialMT-100"/>
      <use x="617.089844" xlink:href="#ArialMT-32"/>
      <use x="644.873047" xlink:href="#ArialMT-40"/>
      <use x="678.173828" xlink:href="#ArialMT-97"/>
      <use x="733.789062" xlink:href="#ArialMT-46"/>
      <use x="761.572266" xlink:href="#ArialMT-117"/>
      <use x="817.1875" xlink:href="#ArialMT-46"/>
      <use x="844.970703" xlink:href="#ArialMT-41"/>
     </g>
    </g>
   </g>
   <g id="line2d_23">
    <path clip-path="url(#p3a4e9469cc)" d="M 217.636364 242.116364 
L 217.793247 93.577755 
L 217.950131 56.552027 
L 218.107014 47.655744 
L 218.263898 45.256284 
L 218.420781 44.673266 
L 218.734548 44.481483 
L 219.518966 44.469077 
L 220.774035 44.66075 
L 221.087802 45.070642 
L 221.401569 44.733776 
L 221.715336 44.840478 
L 222.029103 44.541704 
L 468.336276 44.444047 
L 468.49316 45.085468 
L 468.963811 45.046112 
L 471.16018 44.852487 
L 472.415249 44.765046 
L 474.611618 44.593618 
L 474.925386 44.570739 
L 475.866687 44.54166 
L 476.494221 44.532585 
L 481.671378 44.474444 
L 482.769563 44.49313 
L 486.377885 44.581136 
L 487.632953 44.613947 
L 491.084391 44.706215 
L 491.398158 44.712541 
L 494.222062 44.766872 
L 494.535829 44.846282 
L 494.849596 44.798593 
L 495.320247 44.813929 
L 497.516617 44.825964 
L 497.987267 44.839465 
L 500.183637 44.859398 
L 500.654288 44.799954 
L 500.968055 44.86396 
L 501.752473 44.830103 
L 502.380007 44.869864 
L 503.635075 44.856114 
L 506.92963 44.774361 
L 517.911478 44.477576 
L 519.32343 44.484428 
L 538.463223 44.484268 
L 540.032059 44.451111 
L 548.503771 44.537518 
L 549.445072 44.577544 
L 550.857024 44.606637 
L 551.327674 44.632841 
L 551.955209 44.614408 
L 552.739626 44.634207 
L 553.524044 44.637922 
L 554.151578 44.669166 
L 556.975482 44.693161 
L 559.014968 44.68978 
L 561.525105 44.68018 
L 562.152639 44.679351 
L 567.172913 44.687534 
L 567.643564 44.688194 
L 568.898632 44.655283 
L 569.526166 44.706179 
L 570.1537 44.669607 
L 571.408769 44.696095 
L 572.506954 44.657981 
L 573.605139 44.66244 
L 575.01709 44.614739 
L 576.115275 44.626192 
L 577.370344 44.584343 
L 577.997878 44.57713 
L 578.311645 44.578237 
L 583.645686 44.461637 
L 586.312706 44.467596 
L 592.588048 44.463081 
L 594.470651 44.479961 
L 605.138732 44.504585 
L 608.903937 44.44454 
L 624.906059 44.615534 
L 626.318011 44.610498 
L 627.259313 44.622117 
L 631.808936 44.615088 
L 641.221949 44.593329 
L 641.849483 44.57965 
L 645.457804 44.566772 
L 647.811058 44.5097 
L 650.321194 44.479579 
L 654.243283 44.457726 
L 656.439653 44.463707 
L 660.047975 44.458946 
L 663.970063 44.471161 
L 666.793967 44.495445 
L 668.519686 44.519356 
L 670.245405 44.519549 
L 671.029823 44.533639 
L 671.971124 44.530571 
L 673.069309 44.50482 
L 676.677631 44.45742 
L 683.26674 44.462373 
L 685.306226 44.490015 
L 688.757664 44.518144 
L 689.385198 44.527315 
L 690.79715 44.532258 
L 692.052219 44.547613 
L 693.464171 44.557621 
L 698.327561 44.568672 
L 700.05328 44.564233 
L 702.249649 44.557657 
L 719.977491 44.499186 
L 720.291258 44.679436 
L 720.448141 44.50032 
L 720.605025 44.774361 
L 720.761908 44.516444 
L 720.918792 44.486129 
L 721.075675 44.580558 
L 721.232559 44.481294 
L 721.70321 44.542882 
L 722.016977 44.483432 
L 722.487627 44.585741 
L 724.683997 44.507725 
L 724.997764 44.640045 
L 725.311531 44.480249 
L 725.468415 44.620955 
L 725.782182 44.54818 
L 726.095949 44.470951 
L 726.723483 44.469511 
L 727.03725 44.495557 
L 727.351017 44.633714 
L 727.821668 44.474557 
L 728.449202 44.573445 
L 728.919853 44.498503 
L 729.076737 44.745057 
L 729.23362 44.473034 
L 729.861154 44.499888 
L 730.018038 44.675454 
L 730.331805 44.492325 
L 730.645572 44.474706 
L 730.802456 44.594154 
L 731.116223 44.456228 
L 731.273106 44.600199 
L 731.42999 44.483995 
L 731.743757 44.635872 
L 731.90064 44.461099 
L 732.057524 44.568855 
L 732.528175 44.459107 
L 732.841942 44.576801 
L 732.998825 44.474266 
L 733.312592 44.543524 
L 733.626359 44.539835 
L 734.09701 44.508148 
L 734.724544 44.592803 
L 735.038311 44.451494 
L 735.195195 44.553193 
L 735.352079 44.505428 
L 735.508962 44.635911 
L 735.665846 44.457741 
L 735.822729 44.448488 
L 735.979613 44.578942 
L 736.450263 44.490537 
L 737.077798 44.727087 
L 737.234681 44.460521 
L 737.391565 44.467166 
L 737.548448 44.597147 
L 737.705332 44.469552 
L 737.862215 44.577956 
L 738.175982 44.517671 
L 738.332866 44.77722 
L 738.646633 44.461908 
L 738.803517 44.47353 
L 738.9604 44.596579 
L 739.117284 44.475551 
L 739.587934 44.622013 
L 739.744818 44.50817 
L 739.901701 44.669343 
L 740.215469 44.492803 
L 740.686119 44.491618 
L 740.999886 44.545881 
L 741.470537 44.759949 
L 741.627421 44.512935 
L 741.784304 44.631283 
L 741.941188 44.516199 
L 742.725605 44.718201 
L 742.882489 44.508986 
L 743.039372 44.529165 
L 743.196256 44.722354 
L 743.35314 44.49694 
L 743.980674 44.528309 
L 744.294441 44.485127 
L 744.608208 44.62243 
L 744.921975 44.44818 
L 745.078859 44.584866 
L 745.549509 44.480794 
L 745.706393 44.660711 
L 746.177043 44.506464 
L 746.647694 44.463306 
L 747.118345 44.561207 
L 747.432112 44.487674 
L 747.745879 44.460491 
L 747.902763 44.618392 
L 748.530297 44.45225 
L 749.471598 44.487498 
L 749.942249 44.481746 
L 750.256016 44.527012 
L 750.88355 44.462238 
L 751.040434 44.545774 
L 751.197317 44.44784 
L 751.354201 44.656607 
L 751.667968 44.458775 
L 751.981735 44.666137 
L 752.138618 44.447601 
L 752.295502 44.467839 
L 752.452385 44.681782 
L 752.609269 44.522687 
L 752.923036 44.510127 
L 753.07992 44.855558 
L 753.236803 44.48985 
L 753.864337 44.513459 
L 754.021221 44.543658 
L 754.178105 44.45621 
L 754.334988 44.594821 
L 754.491872 44.534512 
L 754.648755 44.622032 
L 754.805639 44.517759 
L 754.962522 44.616605 
L 755.119406 44.468541 
L 755.276289 44.786211 
L 755.433173 44.482623 
L 755.590056 44.607034 
L 755.903824 44.494225 
L 756.060707 44.69156 
L 756.217591 44.486324 
L 757.315776 44.470468 
L 757.472659 44.467284 
L 757.629543 44.680008 
L 757.786426 44.598388 
L 757.94331 44.815873 
L 758.100193 44.5514 
L 758.727727 44.621426 
L 759.041495 44.445871 
L 759.355262 44.651721 
L 759.512145 44.60241 
L 759.669029 44.728981 
L 759.825912 44.492249 
L 759.982796 44.505992 
L 760.139679 44.703191 
L 760.296563 44.515621 
L 761.237864 44.561893 
L 761.708515 44.463239 
L 761.865398 44.597567 
L 762.022282 45.011385 
L 762.336049 44.52011 
L 762.492933 44.679 
L 762.8067 44.48765 
L 762.963583 44.576162 
L 763.120467 44.498839 
L 763.434234 44.591168 
L 763.591118 44.552788 
L 763.748001 44.681132 
L 763.904885 44.478396 
L 764.846186 44.603518 
L 765.003069 44.458862 
L 765.316837 44.773132 
L 765.47372 44.446365 
L 765.630604 44.597704 
L 765.787487 44.505969 
L 765.944371 44.724424 
L 766.258138 44.685279 
L 766.415021 44.495231 
L 766.571905 44.55807 
L 766.885672 44.468511 
L 767.042556 44.609759 
L 767.356323 44.557302 
L 767.513206 44.730723 
L 767.67009 44.548032 
L 767.826973 44.823626 
L 767.983857 44.865932 
L 768.14074 44.736636 
L 768.297624 44.941028 
L 768.454508 44.653222 
L 768.611391 44.667444 
L 768.768275 44.881305 
L 768.925158 44.563697 
L 769.082042 44.673224 
L 769.238925 44.587095 
L 769.395809 44.691551 
L 769.552692 44.541706 
L 769.86646 44.61801 
L 770.023343 44.461095 
L 770.180227 44.590113 
L 770.33711 44.54622 
L 770.650877 44.709718 
L 770.807761 44.446216 
L 770.964644 44.564812 
L 771.121528 44.492758 
L 771.278411 44.655377 
L 772.690363 44.539801 
L 772.847247 44.70563 
L 773.474781 44.45501 
L 773.631665 44.561139 
L 774.102315 44.463304 
L 774.259199 44.683647 
L 774.416082 44.466219 
L 774.72985 44.582949 
L 774.886733 44.504061 
L 775.043617 44.778004 
L 775.2005 44.473834 
L 775.514267 44.68651 
L 775.671151 44.450504 
L 775.828034 44.477332 
L 775.984918 44.643534 
L 776.141802 44.576668 
L 776.298685 44.834067 
L 776.455569 44.508263 
L 776.926219 44.590428 
L 777.083103 44.450241 
L 777.239986 44.666772 
L 777.39687 44.685234 
L 777.553753 44.485327 
L 778.338171 44.697021 
L 778.495055 44.482265 
L 778.808822 44.581129 
L 779.122589 44.66197 
L 779.279473 44.491628 
L 779.436356 44.746082 
L 779.59324 44.499481 
L 779.750123 44.615677 
L 779.907007 44.514758 
L 780.06389 44.66113 
L 780.691424 44.502549 
L 781.475842 44.687034 
L 782.574027 44.54413 
L 782.730911 44.71122 
L 782.887794 44.533054 
L 783.044678 44.775995 
L 783.358445 44.492387 
L 783.515328 44.949296 
L 783.829095 44.586355 
L 784.45663 44.689878 
L 784.613513 44.525391 
L 784.770397 44.672092 
L 784.92728 44.463587 
L 785.241047 44.628966 
L 785.397931 44.526412 
L 785.554815 44.639579 
L 786.496116 44.462426 
L 786.652999 44.778714 
L 786.809883 44.498615 
L 786.966766 44.515815 
L 787.12365 44.761044 
L 787.280534 44.509979 
L 787.594301 44.699537 
L 787.751184 44.486315 
L 788.064951 44.52121 
L 788.535602 44.478593 
L 788.849369 44.522289 
L 789.163136 44.510531 
L 789.476903 44.625214 
L 789.947554 44.504073 
L 790.731972 44.501401 
L 791.98704 44.467868 
L 792.457691 44.619041 
L 792.771458 44.514448 
L 793.555876 44.563127 
L 797.007314 44.518536 
L 797.164197 44.600625 
L 797.321081 44.521501 
L 797.477964 44.651866 
L 797.634848 44.521384 
L 797.791731 44.712444 
L 798.105499 44.48162 
L 798.576149 44.570938 
L 798.889916 44.516527 
L 799.0468 44.554882 
L 799.203683 44.455614 
L 799.360567 44.728787 
L 799.51745 44.452572 
L 799.674334 44.558185 
L 799.831218 44.478567 
L 800.301868 44.690847 
L 800.458752 44.493008 
L 800.772519 44.576178 
L 801.086286 44.508618 
L 801.400053 44.499066 
L 802.027587 44.589086 
L 802.184471 44.458005 
L 802.655121 44.55125 
L 803.125772 44.461573 
L 803.282656 44.623032 
L 803.439539 44.501417 
L 803.753306 44.563676 
L 804.067073 44.529189 
L 804.537724 44.53278 
L 804.851491 44.515141 
L 805.479025 44.497003 
L 806.57721 44.736405 
L 806.734094 44.452519 
L 807.675395 44.547552 
L 807.832279 44.45017 
L 807.989162 44.633563 
L 808.302929 44.499312 
L 808.459813 44.636574 
L 808.77358 44.479381 
L 808.930463 44.632027 
L 809.244231 44.499978 
L 809.401114 44.73264 
L 809.557998 44.500886 
L 809.871765 44.704544 
L 810.185532 44.489823 
L 810.342415 44.566477 
L 810.499299 44.45172 
L 810.656183 44.557091 
L 810.813066 44.462772 
L 811.126833 44.480536 
L 811.4406 44.52576 
L 811.597484 44.880074 
L 811.754367 44.485146 
L 811.911251 44.559041 
L 812.068134 44.493629 
L 812.225018 44.560927 
L 812.538785 44.471955 
L 812.852552 44.470199 
L 813.166319 44.603735 
L 813.323203 44.495096 
L 813.63697 44.63382 
L 813.793853 44.475248 
L 813.950737 44.535539 
L 814.107621 44.734166 
L 815.205805 44.519577 
L 815.362689 44.597325 
L 815.83334 44.463096 
L 815.990223 44.57581 
L 816.30399 44.469009 
L 817.245292 44.54434 
L 817.402175 44.714412 
L 817.559059 44.461028 
L 817.872826 44.502712 
L 818.186593 44.49646 
L 818.50036 44.518353 
L 818.814127 44.458358 
L 822.265565 44.50616 
L 822.422449 44.485124 
L 822.579332 44.576629 
L 822.736216 44.492596 
L 823.049983 44.623893 
L 823.206866 44.538311 
L 823.36375 44.648885 
L 823.677517 44.525939 
L 823.834401 44.462738 
L 824.305051 44.654868 
L 824.461935 44.447037 
L 824.618818 44.573468 
L 824.775702 44.489055 
L 824.932586 44.610922 
L 825.089469 44.51731 
L 825.246353 44.579683 
L 825.56012 44.471309 
L 825.717003 44.922413 
L 825.873887 44.482499 
L 826.815188 44.571684 
L 826.972072 44.449341 
L 827.285839 44.557725 
L 827.442722 44.758816 
L 827.599606 44.474987 
L 827.756489 44.62991 
L 827.913373 44.496601 
L 828.22714 44.548951 
L 828.384024 44.682687 
L 828.540907 44.491787 
L 829.011558 44.604557 
L 829.168441 44.476435 
L 829.325325 44.650648 
L 829.639092 44.482011 
L 829.795976 44.515859 
L 829.952859 44.788739 
L 830.109743 44.460338 
L 830.266626 44.45178 
L 830.42351 44.591281 
L 830.89416 44.521234 
L 831.207928 44.448781 
L 831.364811 44.678699 
L 831.521695 44.701463 
L 831.992345 44.472305 
L 832.149229 44.503277 
L 832.462996 44.698981 
L 832.619879 44.556566 
L 832.776763 44.640299 
L 832.933647 44.477767 
L 833.09053 44.509428 
L 833.247414 44.708109 
L 833.561181 44.579863 
L 833.874948 44.503702 
L 834.031831 44.642444 
L 834.345599 44.465557 
L 834.502482 44.634242 
L 834.659366 44.605867 
L 834.816249 44.692711 
L 834.973133 44.45985 
L 835.130016 44.607327 
L 835.443783 44.485099 
L 835.75755 44.516129 
L 836.071318 44.697242 
L 836.228201 44.489452 
L 836.385085 44.539201 
L 836.541968 44.454139 
L 836.698852 44.610984 
L 837.169502 44.50049 
L 837.326386 44.765331 
L 837.640153 44.477361 
L 837.797037 44.515891 
L 838.110804 44.758773 
L 838.267687 44.562877 
L 838.424571 44.85723 
L 838.581454 44.563536 
L 838.738338 44.73326 
L 839.052105 44.511887 
L 839.208989 44.512626 
L 839.365872 44.748585 
L 839.679639 44.532022 
L 839.836523 44.60467 
L 839.993406 44.493858 
L 840.307173 44.524717 
L 840.464057 44.719385 
L 840.620941 44.509747 
L 840.777824 44.688653 
L 841.091591 44.543103 
L 842.503543 44.544502 
L 842.81731 44.481615 
L 843.601728 44.548639 
L 843.758612 44.461587 
L 844.072379 44.66095 
L 844.229262 44.482749 
L 844.386146 44.568812 
L 844.543029 44.453478 
L 844.856796 44.452981 
L 845.01368 44.646645 
L 845.327447 44.504711 
L 845.484331 44.724537 
L 845.798098 44.516742 
L 845.954981 44.59178 
L 846.111865 44.512398 
L 846.739399 44.629712 
L 847.053166 44.499513 
L 847.6807 44.60015 
L 847.837584 44.747801 
L 848.465118 44.46576 
L 848.935769 44.458303 
L 849.092652 44.760325 
L 849.249536 44.552551 
L 850.033954 44.632997 
L 850.190837 44.449874 
L 850.347721 44.915287 
L 850.504604 44.574174 
L 850.818371 44.575688 
L 850.975255 44.501767 
L 851.132138 44.646093 
L 851.289022 44.455931 
L 852.07344 44.658121 
L 852.387207 44.494552 
L 852.857857 44.573277 
L 853.014741 44.69284 
L 853.328508 44.457305 
L 853.642275 44.507841 
L 853.799159 44.673222 
L 854.112926 44.473927 
L 854.269809 44.49128 
L 854.426693 44.628847 
L 854.74046 44.50216 
L 854.897344 44.578854 
L 855.054227 44.480024 
L 855.524878 44.611724 
L 855.838645 44.471937 
L 856.466179 44.50516 
L 858.035015 44.51228 
L 858.191898 44.639064 
L 858.348782 44.497649 
L 859.446967 44.557271 
L 859.60385 44.452983 
L 860.074501 44.575543 
L 860.231384 44.500718 
L 860.388268 44.66213 
L 860.545151 44.481952 
L 860.858918 44.516424 
L 861.015802 44.565179 
L 861.329569 44.477883 
L 861.957103 44.487122 
L 862.113987 44.448255 
L 862.27087 44.656927 
L 862.427754 44.452474 
L 862.584638 44.578509 
L 862.741521 44.453458 
L 862.898405 44.531403 
L 863.055288 44.455549 
L 863.369055 44.593276 
L 863.682822 44.5352 
L 863.839706 44.583271 
L 863.996589 44.452278 
L 865.094774 44.561139 
L 865.251658 44.453262 
L 865.565425 44.600564 
L 865.722309 44.540363 
L 865.879192 44.623271 
L 866.349843 44.449952 
L 866.820493 44.498206 
L 867.13426 44.462488 
L 867.291144 44.531893 
L 867.604911 44.461541 
L 867.918678 44.45159 
L 868.075562 44.62135 
L 868.703096 44.469367 
L 868.85998 44.606681 
L 869.33063 44.460852 
L 869.487514 44.597356 
L 869.644397 44.450307 
L 869.958164 44.609079 
L 870.115048 44.45505 
L 870.428815 44.595072 
L 870.585699 44.623446 
L 870.742582 44.449094 
L 871.683883 44.587213 
L 871.840767 44.450528 
L 871.997651 44.564767 
L 872.154534 44.465962 
L 872.782068 44.55612 
L 872.938952 44.465249 
L 873.409602 44.538089 
L 873.72337 44.543982 
L 874.037137 44.591203 
L 874.350904 44.494699 
L 874.507787 44.660725 
L 874.821554 44.491698 
L 875.135322 44.458524 
L 875.919739 44.566321 
L 876.076623 44.678222 
L 876.233506 44.451295 
L 876.547273 44.538226 
L 876.861041 44.476787 
L 877.017924 44.616803 
L 877.174808 44.46788 
L 877.331691 44.498121 
L 877.488575 44.689473 
L 877.802342 44.542398 
L 877.959225 44.691119 
L 878.116109 44.518733 
L 878.272993 44.569862 
L 878.429876 44.494695 
L 878.58676 44.679133 
L 878.900527 44.589606 
L 879.05741 44.638093 
L 879.214294 44.470447 
L 879.371177 44.635049 
L 879.841828 44.474387 
L 879.998712 44.573444 
L 880.312479 44.50128 
L 880.626246 44.523033 
L 881.410664 44.505348 
L 881.724431 44.462063 
L 882.665732 44.563921 
L 882.979499 44.495554 
L 884.077684 44.524942 
L 884.862102 44.541163 
L 885.018985 44.677001 
L 885.175869 44.491174 
L 885.332752 44.598743 
L 885.960286 44.469757 
L 886.587821 44.638151 
L 886.744704 44.617697 
L 886.901588 44.451587 
L 887.058471 44.452672 
L 887.372238 44.58867 
L 887.686006 44.46541 
L 887.842889 44.57398 
L 888.31354 44.502678 
L 888.78419 44.649406 
L 888.941074 44.461836 
L 889.568608 44.533328 
L 889.725492 44.466586 
L 889.882375 44.559948 
L 890.353026 44.445886 
L 890.666793 44.529281 
L 890.823677 44.450428 
L 890.98056 44.50903 
L 891.137444 44.447459 
L 891.451211 44.544372 
L 891.921861 44.496723 
L 892.078745 44.536947 
L 892.392512 44.495895 
L 893.333813 44.527792 
L 893.64758 44.478784 
L 894.118231 44.523135 
L 894.431998 44.443975 
L 894.588882 44.6594 
L 894.745765 44.48008 
L 895.216416 44.599252 
L 895.373299 44.768354 
L 895.530183 44.452812 
L 896.942135 44.630549 
L 897.099019 44.456754 
L 897.255902 44.616718 
L 897.412786 44.475798 
L 897.569669 44.606082 
L 897.726553 44.543774 
L 897.883436 44.678209 
L 898.04032 44.492237 
L 898.197203 44.487136 
L 898.354087 44.598819 
L 898.51097 44.476075 
L 898.824738 44.718022 
L 898.981621 44.49015 
L 899.138505 44.741767 
L 899.295388 44.740037 
L 899.452272 44.453622 
L 899.766039 44.450783 
L 899.922922 44.687115 
L 900.079806 44.488536 
L 902.119292 44.466006 
L 902.276176 44.79105 
L 902.589943 44.473389 
L 902.746826 44.727395 
L 903.060593 44.452852 
L 904.001895 44.487531 
L 904.158778 44.605845 
L 904.472545 44.479031 
L 904.786312 44.518436 
L 904.943196 44.704787 
L 905.10008 44.684935 
L 905.256963 44.449896 
L 906.041381 44.706019 
L 906.198264 44.497801 
L 906.668915 44.493935 
L 906.825799 44.664753 
L 907.139566 44.479976 
L 907.296449 44.640242 
L 907.453333 44.479888 
L 907.923983 44.727001 
L 908.080867 44.485374 
L 908.237751 44.673632 
L 909.179052 44.533411 
L 909.492819 44.555028 
L 909.649703 44.504022 
L 909.806586 44.694736 
L 910.120353 44.450149 
L 910.43412 44.52653 
L 910.591004 44.502439 
L 910.747887 44.600923 
L 911.375422 44.450972 
L 911.689189 44.667604 
L 911.846072 44.467256 
L 912.473606 44.658594 
L 912.63049 44.561937 
L 912.787374 44.633688 
L 913.101141 44.464485 
L 913.414908 44.494232 
L 914.042442 44.547922 
L 914.199325 44.607124 
L 914.356209 44.445639 
L 914.669976 44.489232 
L 914.983743 44.75166 
L 915.140627 44.508273 
L 915.454394 44.488273 
L 915.925045 44.727558 
L 916.081928 44.594875 
L 916.238812 44.715761 
L 916.709462 44.456159 
L 917.023229 44.497818 
L 918.278298 44.527067 
L 919.219599 44.500334 
L 919.376483 44.640068 
L 919.847133 44.495365 
L 920.004017 44.645413 
L 920.1609 44.543614 
L 920.317784 44.730109 
L 920.474667 44.486601 
L 920.631551 44.591822 
L 920.788435 44.527278 
L 920.945318 44.639738 
L 921.102202 44.525595 
L 922.35727 44.738864 
L 922.514154 44.516792 
L 922.827921 44.609309 
L 922.984804 44.450191 
L 923.298571 44.591615 
L 923.612338 44.475332 
L 923.926106 44.604494 
L 924.082989 44.559368 
L 924.239873 44.645836 
L 924.867407 44.480022 
L 925.02429 44.532331 
L 925.338058 44.490592 
L 925.651825 44.516712 
L 925.965592 44.590437 
L 926.122475 44.453495 
L 927.691311 44.543636 
L 927.848194 44.452161 
L 928.005078 44.532934 
L 928.161961 44.486257 
L 928.318845 44.635509 
L 929.103263 44.593792 
L 929.260146 44.705531 
L 929.573913 44.53912 
L 930.515215 44.456526 
L 930.672098 44.569602 
L 930.985865 44.445976 
L 931.299632 44.525005 
L 931.770283 44.485769 
L 931.927167 44.661107 
L 932.08405 44.455478 
L 932.397817 44.533398 
L 932.554701 44.453608 
L 932.711584 44.56213 
L 933.025351 44.553488 
L 933.182235 44.61777 
L 933.339119 44.475962 
L 933.966653 44.593405 
L 934.123536 44.471342 
L 934.437303 44.538768 
L 934.907954 44.508154 
L 935.064838 44.653402 
L 935.221721 44.478433 
L 935.535488 44.563646 
L 936.319906 44.470246 
L 936.47679 44.456281 
L 936.633673 44.666186 
L 936.94744 44.461382 
L 937.104324 44.587897 
L 937.418091 44.489093 
L 937.888742 44.463048 
L 938.830043 44.481753 
L 939.14381 44.518729 
L 939.300693 44.627011 
L 939.614461 44.456271 
L 940.241995 44.601185 
L 940.398878 44.470052 
L 940.869529 44.513704 
L 941.026413 44.465712 
L 941.183296 44.542337 
L 941.34018 44.480589 
L 941.497063 44.567729 
L 941.967714 44.50844 
L 942.909015 44.511935 
L 943.065899 44.451534 
L 943.536549 44.716096 
L 943.693433 44.467256 
L 944.948501 44.524366 
L 945.105385 44.472566 
L 945.262268 44.645124 
L 945.576035 44.566301 
L 945.889803 44.447245 
L 946.046686 44.552683 
L 946.360453 44.457115 
L 946.517337 44.519648 
L 946.67422 44.46201 
L 946.831104 44.678066 
L 946.987987 44.472216 
L 947.144871 44.57256 
L 947.458638 44.481075 
L 947.615522 44.639629 
L 947.929289 44.621278 
L 948.399939 44.535865 
L 948.87059 44.552993 
L 949.027474 44.60558 
L 949.184357 44.449007 
L 949.498124 44.57205 
L 949.655008 44.607854 
L 949.811891 44.513953 
L 949.968775 44.6226 
L 950.125658 44.486539 
L 950.282542 44.623449 
L 950.439426 44.450531 
L 950.910076 44.51109 
L 951.06696 44.465075 
L 951.223843 44.575388 
L 951.380727 44.525542 
L 951.53761 44.627143 
L 951.694494 44.460653 
L 951.851377 44.624062 
L 952.165145 44.584994 
L 953.263329 44.51306 
L 953.420213 44.672174 
L 953.73398 44.532871 
L 953.890864 44.64586 
L 954.204631 44.459414 
L 954.361514 44.664804 
L 954.518398 44.553577 
L 954.675281 44.617231 
L 954.832165 44.814139 
L 954.989048 44.492678 
L 955.145932 44.468508 
L 955.302816 44.61192 
L 955.459699 44.452115 
L 955.773466 44.453293 
L 955.93035 44.885749 
L 956.087233 44.801125 
L 956.401 44.466856 
L 956.871651 44.454785 
L 957.028535 44.627224 
L 957.185418 44.604873 
L 957.342302 44.461231 
L 957.969836 44.55389 
L 958.283603 44.462241 
L 958.911137 44.555597 
L 959.224904 44.450516 
L 959.381788 44.572124 
L 959.852439 44.479555 
L 960.166206 44.489312 
L 960.323089 44.46088 
L 960.479973 44.559413 
L 960.79374 44.477568 
L 962.519459 44.46444 
L 962.676342 44.733678 
L 962.833226 44.531655 
L 963.303877 44.535251 
L 963.617644 44.475452 
L 963.774527 44.611174 
L 963.931411 44.48146 
L 964.088294 44.573246 
L 964.402061 44.486844 
L 964.558945 44.595679 
L 964.872712 44.483475 
L 965.814013 44.634462 
L 965.970897 44.492586 
L 966.912198 44.703715 
L 967.069082 44.47003 
L 967.382849 44.531107 
L 967.539732 44.477615 
L 967.696616 44.589319 
L 967.8535 44.525144 
L 968.010383 44.769408 
L 968.167267 44.470966 
L 970.363636 44.452591 
L 970.363636 44.452591 
" style="fill:none;stroke:#1f77b4;stroke-linecap:square;stroke-width:1.5;"/>
   </g>
   <g id="patch_3">
    <path d="M 180 252 
L 180 34.56 
" style="fill:none;stroke:#000000;stroke-linecap:square;stroke-linejoin:miter;stroke-width:0.8;"/>
   </g>
   <g id="patch_4">
    <path d="M 1008 252 
L 1008 34.56 
" style="fill:none;stroke:#000000;stroke-linecap:square;stroke-linejoin:miter;stroke-width:0.8;"/>
   </g>
   <g id="patch_5">
    <path d="M 180 252 
L 1008 252 
" style="fill:none;stroke:#000000;stroke-linecap:square;stroke-linejoin:miter;stroke-width:0.8;"/>
   </g>
   <g id="patch_6">
    <path d="M 180 34.56 
L 1008 34.56 
" style="fill:none;stroke:#000000;stroke-linecap:square;stroke-linejoin:miter;stroke-width:0.8;"/>
   </g>
  </g>
 </g>
 <defs>
  <clipPath id="p3a4e9469cc">
   <rect height="217.44" width="828" x="180" y="34.56"/>
  </clipPath>
 </defs>
</svg>
