<?xml version="1.0" encoding="utf-8" standalone="no"?>
<!DOCTYPE svg PUBLIC "-//W3C//DTD SVG 1.1//EN"
  "http://www.w3.org/Graphics/SVG/1.1/DTD/svg11.dtd">
<!-- Created with matplotlib (https://matplotlib.org/) -->
<svg height="288pt" version="1.1" viewBox="0 0 1440 288" width="1440pt" xmlns="http://www.w3.org/2000/svg" xmlns:xlink="http://www.w3.org/1999/xlink">
 <defs>
  <style type="text/css">
*{stroke-linecap:butt;stroke-linejoin:round;}
  </style>
 </defs>
 <g id="figure_1">
  <g id="patch_1">
   <path d="M 0 288 
L 1440 288 
L 1440 0 
L 0 0 
z
" style="fill:#ffffff;"/>
  </g>
  <g id="axes_1">
   <g id="patch_2">
    <path d="M 180 252 
L 1008 252 
L 1008 34.56 
L 180 34.56 
z
" style="fill:#ffffff;"/>
   </g>
   <g id="matplotlib.axis_1">
    <g id="xtick_1">
     <g id="line2d_1">
      <path clip-path="url(#p2dcdb35a99)" d="M 217.636364 252 
L 217.636364 34.56 
" style="fill:none;stroke:#b0b0b0;stroke-linecap:square;stroke-width:0.8;"/>
     </g>
     <g id="line2d_2">
      <defs>
       <path d="M 0 0 
L 0 3.5 
" id="m59426059ff" style="stroke:#000000;stroke-width:0.8;"/>
      </defs>
      <g>
       <use style="stroke:#000000;stroke-width:0.8;" x="217.636364" xlink:href="#m59426059ff" y="252"/>
      </g>
     </g>
     <g id="text_1">
      <!-- 0 -->
      <defs>
       <path d="M 4.15625 35.296875 
Q 4.15625 48 6.765625 55.734375 
Q 9.375 63.484375 14.515625 67.671875 
Q 19.671875 71.875 27.484375 71.875 
Q 33.25 71.875 37.59375 69.546875 
Q 41.9375 67.234375 44.765625 62.859375 
Q 47.609375 58.5 49.21875 52.21875 
Q 50.828125 45.953125 50.828125 35.296875 
Q 50.828125 22.703125 48.234375 14.96875 
Q 45.65625 7.234375 40.5 3 
Q 35.359375 -1.21875 27.484375 -1.21875 
Q 17.140625 -1.21875 11.234375 6.203125 
Q 4.15625 15.140625 4.15625 35.296875 
z
M 13.1875 35.296875 
Q 13.1875 17.671875 17.3125 11.828125 
Q 21.4375 6 27.484375 6 
Q 33.546875 6 37.671875 11.859375 
Q 41.796875 17.71875 41.796875 35.296875 
Q 41.796875 52.984375 37.671875 58.78125 
Q 33.546875 64.59375 27.390625 64.59375 
Q 21.34375 64.59375 17.71875 59.46875 
Q 13.1875 52.9375 13.1875 35.296875 
z
" id="ArialMT-48"/>
      </defs>
      <g transform="translate(210.407145 277.610313)scale(0.26 -0.26)">
       <use xlink:href="#ArialMT-48"/>
      </g>
     </g>
    </g>
    <g id="xtick_2">
     <g id="line2d_3">
      <path clip-path="url(#p2dcdb35a99)" d="M 468.650044 252 
L 468.650044 34.56 
" style="fill:none;stroke:#b0b0b0;stroke-linecap:square;stroke-width:0.8;"/>
     </g>
     <g id="line2d_4">
      <g>
       <use style="stroke:#000000;stroke-width:0.8;" x="468.650044" xlink:href="#m59426059ff" y="252"/>
      </g>
     </g>
     <g id="text_2">
      <!-- 1600 -->
      <defs>
       <path d="M 37.25 0 
L 28.46875 0 
L 28.46875 56 
Q 25.296875 52.984375 20.140625 49.953125 
Q 14.984375 46.921875 10.890625 45.40625 
L 10.890625 53.90625 
Q 18.265625 57.375 23.78125 62.296875 
Q 29.296875 67.234375 31.59375 71.875 
L 37.25 71.875 
z
" id="ArialMT-49"/>
       <path d="M 49.75 54.046875 
L 41.015625 53.375 
Q 39.84375 58.546875 37.703125 60.890625 
Q 34.125 64.65625 28.90625 64.65625 
Q 24.703125 64.65625 21.53125 62.3125 
Q 17.390625 59.28125 14.984375 53.46875 
Q 12.59375 47.65625 12.5 36.921875 
Q 15.671875 41.75 20.265625 44.09375 
Q 24.859375 46.4375 29.890625 46.4375 
Q 38.671875 46.4375 44.84375 39.96875 
Q 51.03125 33.5 51.03125 23.25 
Q 51.03125 16.5 48.125 10.71875 
Q 45.21875 4.9375 40.140625 1.859375 
Q 35.0625 -1.21875 28.609375 -1.21875 
Q 17.625 -1.21875 10.6875 6.859375 
Q 3.765625 14.9375 3.765625 33.5 
Q 3.765625 54.25 11.421875 63.671875 
Q 18.109375 71.875 29.4375 71.875 
Q 37.890625 71.875 43.28125 67.140625 
Q 48.6875 62.40625 49.75 54.046875 
z
M 13.875 23.1875 
Q 13.875 18.65625 15.796875 14.5 
Q 17.71875 10.359375 21.1875 8.171875 
Q 24.65625 6 28.46875 6 
Q 34.03125 6 38.03125 10.484375 
Q 42.046875 14.984375 42.046875 22.703125 
Q 42.046875 30.125 38.078125 34.390625 
Q 34.125 38.671875 28.125 38.671875 
Q 22.171875 38.671875 18.015625 34.390625 
Q 13.875 30.125 13.875 23.1875 
z
" id="ArialMT-54"/>
      </defs>
      <g transform="translate(439.733169 277.610313)scale(0.26 -0.26)">
       <use xlink:href="#ArialMT-49"/>
       <use x="55.615234" xlink:href="#ArialMT-54"/>
       <use x="111.230469" xlink:href="#ArialMT-48"/>
       <use x="166.845703" xlink:href="#ArialMT-48"/>
      </g>
     </g>
    </g>
    <g id="xtick_3">
     <g id="line2d_5">
      <path clip-path="url(#p2dcdb35a99)" d="M 719.663724 252 
L 719.663724 34.56 
" style="fill:none;stroke:#b0b0b0;stroke-linecap:square;stroke-width:0.8;"/>
     </g>
     <g id="line2d_6">
      <g>
       <use style="stroke:#000000;stroke-width:0.8;" x="719.663724" xlink:href="#m59426059ff" y="252"/>
      </g>
     </g>
     <g id="text_3">
      <!-- 3200 -->
      <defs>
       <path d="M 4.203125 18.890625 
L 12.984375 20.0625 
Q 14.5 12.59375 18.140625 9.296875 
Q 21.78125 6 27 6 
Q 33.203125 6 37.46875 10.296875 
Q 41.75 14.59375 41.75 20.953125 
Q 41.75 27 37.796875 30.921875 
Q 33.84375 34.859375 27.734375 34.859375 
Q 25.25 34.859375 21.53125 33.890625 
L 22.515625 41.609375 
Q 23.390625 41.5 23.921875 41.5 
Q 29.546875 41.5 34.03125 44.421875 
Q 38.53125 47.359375 38.53125 53.46875 
Q 38.53125 58.296875 35.25 61.46875 
Q 31.984375 64.65625 26.8125 64.65625 
Q 21.6875 64.65625 18.265625 61.421875 
Q 14.84375 58.203125 13.875 51.765625 
L 5.078125 53.328125 
Q 6.6875 62.15625 12.390625 67.015625 
Q 18.109375 71.875 26.609375 71.875 
Q 32.46875 71.875 37.390625 69.359375 
Q 42.328125 66.84375 44.9375 62.5 
Q 47.5625 58.15625 47.5625 53.265625 
Q 47.5625 48.640625 45.0625 44.828125 
Q 42.578125 41.015625 37.703125 38.765625 
Q 44.046875 37.3125 47.5625 32.6875 
Q 51.078125 28.078125 51.078125 21.140625 
Q 51.078125 11.765625 44.234375 5.25 
Q 37.40625 -1.265625 26.953125 -1.265625 
Q 17.53125 -1.265625 11.296875 4.34375 
Q 5.078125 9.96875 4.203125 18.890625 
z
" id="ArialMT-51"/>
       <path d="M 50.34375 8.453125 
L 50.34375 0 
L 3.03125 0 
Q 2.9375 3.171875 4.046875 6.109375 
Q 5.859375 10.9375 9.828125 15.625 
Q 13.8125 20.3125 21.34375 26.46875 
Q 33.015625 36.03125 37.109375 41.625 
Q 41.21875 47.21875 41.21875 52.203125 
Q 41.21875 57.421875 37.46875 61 
Q 33.734375 64.59375 27.734375 64.59375 
Q 21.390625 64.59375 17.578125 60.78125 
Q 13.765625 56.984375 13.71875 50.25 
L 4.6875 51.171875 
Q 5.609375 61.28125 11.65625 66.578125 
Q 17.71875 71.875 27.9375 71.875 
Q 38.234375 71.875 44.234375 66.15625 
Q 50.25 60.453125 50.25 52 
Q 50.25 47.703125 48.484375 43.546875 
Q 46.734375 39.40625 42.65625 34.8125 
Q 38.578125 30.21875 29.109375 22.21875 
Q 21.1875 15.578125 18.9375 13.203125 
Q 16.703125 10.84375 15.234375 8.453125 
z
" id="ArialMT-50"/>
      </defs>
      <g transform="translate(690.746849 277.610313)scale(0.26 -0.26)">
       <use xlink:href="#ArialMT-51"/>
       <use x="55.615234" xlink:href="#ArialMT-50"/>
       <use x="111.230469" xlink:href="#ArialMT-48"/>
       <use x="166.845703" xlink:href="#ArialMT-48"/>
      </g>
     </g>
    </g>
    <g id="xtick_4">
     <g id="line2d_7">
      <path clip-path="url(#p2dcdb35a99)" d="M 970.677403 252 
L 970.677403 34.56 
" style="fill:none;stroke:#b0b0b0;stroke-linecap:square;stroke-width:0.8;"/>
     </g>
     <g id="line2d_8">
      <g>
       <use style="stroke:#000000;stroke-width:0.8;" x="970.677403" xlink:href="#m59426059ff" y="252"/>
      </g>
     </g>
     <g id="text_4">
      <!-- 4800 -->
      <defs>
       <path d="M 32.328125 0 
L 32.328125 17.140625 
L 1.265625 17.140625 
L 1.265625 25.203125 
L 33.9375 71.578125 
L 41.109375 71.578125 
L 41.109375 25.203125 
L 50.78125 25.203125 
L 50.78125 17.140625 
L 41.109375 17.140625 
L 41.109375 0 
z
M 32.328125 25.203125 
L 32.328125 57.46875 
L 9.90625 25.203125 
z
" id="ArialMT-52"/>
       <path d="M 17.671875 38.8125 
Q 12.203125 40.828125 9.5625 44.53125 
Q 6.9375 48.25 6.9375 53.421875 
Q 6.9375 61.234375 12.546875 66.546875 
Q 18.171875 71.875 27.484375 71.875 
Q 36.859375 71.875 42.578125 66.421875 
Q 48.296875 60.984375 48.296875 53.171875 
Q 48.296875 48.1875 45.671875 44.5 
Q 43.0625 40.828125 37.75 38.8125 
Q 44.34375 36.671875 47.78125 31.875 
Q 51.21875 27.09375 51.21875 20.453125 
Q 51.21875 11.28125 44.71875 5.03125 
Q 38.234375 -1.21875 27.640625 -1.21875 
Q 17.046875 -1.21875 10.546875 5.046875 
Q 4.046875 11.328125 4.046875 20.703125 
Q 4.046875 27.6875 7.59375 32.390625 
Q 11.140625 37.109375 17.671875 38.8125 
z
M 15.921875 53.71875 
Q 15.921875 48.640625 19.1875 45.40625 
Q 22.46875 42.1875 27.6875 42.1875 
Q 32.765625 42.1875 36.015625 45.375 
Q 39.265625 48.578125 39.265625 53.21875 
Q 39.265625 58.0625 35.90625 61.359375 
Q 32.5625 64.65625 27.59375 64.65625 
Q 22.5625 64.65625 19.234375 61.421875 
Q 15.921875 58.203125 15.921875 53.71875 
z
M 13.09375 20.65625 
Q 13.09375 16.890625 14.875 13.375 
Q 16.65625 9.859375 20.171875 7.921875 
Q 23.6875 6 27.734375 6 
Q 34.03125 6 38.125 10.046875 
Q 42.234375 14.109375 42.234375 20.359375 
Q 42.234375 26.703125 38.015625 30.859375 
Q 33.796875 35.015625 27.4375 35.015625 
Q 21.234375 35.015625 17.15625 30.90625 
Q 13.09375 26.8125 13.09375 20.65625 
z
" id="ArialMT-56"/>
      </defs>
      <g transform="translate(941.760528 277.610313)scale(0.26 -0.26)">
       <use xlink:href="#ArialMT-52"/>
       <use x="55.615234" xlink:href="#ArialMT-56"/>
       <use x="111.230469" xlink:href="#ArialMT-48"/>
       <use x="166.845703" xlink:href="#ArialMT-48"/>
      </g>
     </g>
    </g>
    <g id="text_5">
     <!-- # sample -->
     <defs>
      <path d="M 5.03125 -1.21875 
L 9.28125 19.578125 
L 1.03125 19.578125 
L 1.03125 26.859375 
L 10.75 26.859375 
L 14.359375 44.578125 
L 1.03125 44.578125 
L 1.03125 51.859375 
L 15.828125 51.859375 
L 20.0625 72.796875 
L 27.390625 72.796875 
L 23.140625 51.859375 
L 38.53125 51.859375 
L 42.78125 72.796875 
L 50.140625 72.796875 
L 45.90625 51.859375 
L 54.34375 51.859375 
L 54.34375 44.578125 
L 44.4375 44.578125 
L 40.765625 26.859375 
L 54.34375 26.859375 
L 54.34375 19.578125 
L 39.3125 19.578125 
L 35.0625 -1.21875 
L 27.734375 -1.21875 
L 31.9375 19.578125 
L 16.609375 19.578125 
L 12.359375 -1.21875 
z
M 18.0625 26.859375 
L 33.40625 26.859375 
L 37.0625 44.578125 
L 21.6875 44.578125 
z
" id="ArialMT-35"/>
      <path id="ArialMT-32"/>
      <path d="M 3.078125 15.484375 
L 11.765625 16.84375 
Q 12.5 11.625 15.84375 8.84375 
Q 19.1875 6.0625 25.203125 6.0625 
Q 31.25 6.0625 34.171875 8.515625 
Q 37.109375 10.984375 37.109375 14.3125 
Q 37.109375 17.28125 34.515625 19 
Q 32.71875 20.171875 25.53125 21.96875 
Q 15.875 24.421875 12.140625 26.203125 
Q 8.40625 27.984375 6.46875 31.125 
Q 4.546875 34.28125 4.546875 38.09375 
Q 4.546875 41.546875 6.125 44.5 
Q 7.71875 47.46875 10.453125 49.421875 
Q 12.5 50.921875 16.03125 51.96875 
Q 19.578125 53.03125 23.640625 53.03125 
Q 29.734375 53.03125 34.34375 51.265625 
Q 38.96875 49.515625 41.15625 46.5 
Q 43.359375 43.5 44.1875 38.484375 
L 35.59375 37.3125 
Q 35.015625 41.3125 32.203125 43.546875 
Q 29.390625 45.796875 24.265625 45.796875 
Q 18.21875 45.796875 15.625 43.796875 
Q 13.03125 41.796875 13.03125 39.109375 
Q 13.03125 37.40625 14.109375 36.03125 
Q 15.1875 34.625 17.484375 33.6875 
Q 18.796875 33.203125 25.25 31.453125 
Q 34.578125 28.953125 38.25 27.359375 
Q 41.9375 25.78125 44.03125 22.75 
Q 46.140625 19.734375 46.140625 15.234375 
Q 46.140625 10.84375 43.578125 6.953125 
Q 41.015625 3.078125 36.171875 0.953125 
Q 31.34375 -1.171875 25.25 -1.171875 
Q 15.140625 -1.171875 9.84375 3.03125 
Q 4.546875 7.234375 3.078125 15.484375 
z
" id="ArialMT-115"/>
      <path d="M 40.4375 6.390625 
Q 35.546875 2.25 31.03125 0.53125 
Q 26.515625 -1.171875 21.34375 -1.171875 
Q 12.796875 -1.171875 8.203125 3 
Q 3.609375 7.171875 3.609375 13.671875 
Q 3.609375 17.484375 5.34375 20.625 
Q 7.078125 23.78125 9.890625 25.6875 
Q 12.703125 27.59375 16.21875 28.5625 
Q 18.796875 29.25 24.03125 29.890625 
Q 34.671875 31.15625 39.703125 32.90625 
Q 39.75 34.71875 39.75 35.203125 
Q 39.75 40.578125 37.25 42.78125 
Q 33.890625 45.75 27.25 45.75 
Q 21.046875 45.75 18.09375 43.578125 
Q 15.140625 41.40625 13.71875 35.890625 
L 5.125 37.0625 
Q 6.296875 42.578125 8.984375 45.96875 
Q 11.671875 49.359375 16.75 51.1875 
Q 21.828125 53.03125 28.515625 53.03125 
Q 35.15625 53.03125 39.296875 51.46875 
Q 43.453125 49.90625 45.40625 47.53125 
Q 47.359375 45.171875 48.140625 41.546875 
Q 48.578125 39.3125 48.578125 33.453125 
L 48.578125 21.734375 
Q 48.578125 9.46875 49.140625 6.21875 
Q 49.703125 2.984375 51.375 0 
L 42.1875 0 
Q 40.828125 2.734375 40.4375 6.390625 
z
M 39.703125 26.03125 
Q 34.90625 24.078125 25.34375 22.703125 
Q 19.921875 21.921875 17.671875 20.9375 
Q 15.4375 19.96875 14.203125 18.09375 
Q 12.984375 16.21875 12.984375 13.921875 
Q 12.984375 10.40625 15.640625 8.0625 
Q 18.3125 5.71875 23.4375 5.71875 
Q 28.515625 5.71875 32.46875 7.9375 
Q 36.421875 10.15625 38.28125 14.015625 
Q 39.703125 17 39.703125 22.796875 
z
" id="ArialMT-97"/>
      <path d="M 6.59375 0 
L 6.59375 51.859375 
L 14.453125 51.859375 
L 14.453125 44.578125 
Q 16.890625 48.390625 20.9375 50.703125 
Q 25 53.03125 30.171875 53.03125 
Q 35.9375 53.03125 39.625 50.640625 
Q 43.3125 48.25 44.828125 43.953125 
Q 50.984375 53.03125 60.84375 53.03125 
Q 68.5625 53.03125 72.703125 48.75 
Q 76.859375 44.484375 76.859375 35.59375 
L 76.859375 0 
L 68.109375 0 
L 68.109375 32.671875 
Q 68.109375 37.9375 67.25 40.25 
Q 66.40625 42.578125 64.15625 43.984375 
Q 61.921875 45.40625 58.890625 45.40625 
Q 53.421875 45.40625 49.796875 41.765625 
Q 46.1875 38.140625 46.1875 30.125 
L 46.1875 0 
L 37.40625 0 
L 37.40625 33.6875 
Q 37.40625 39.546875 35.25 42.46875 
Q 33.109375 45.40625 28.21875 45.40625 
Q 24.515625 45.40625 21.359375 43.453125 
Q 18.21875 41.5 16.796875 37.734375 
Q 15.375 33.984375 15.375 26.90625 
L 15.375 0 
z
" id="ArialMT-109"/>
      <path d="M 6.59375 -19.875 
L 6.59375 51.859375 
L 14.59375 51.859375 
L 14.59375 45.125 
Q 17.4375 49.078125 21 51.046875 
Q 24.5625 53.03125 29.640625 53.03125 
Q 36.28125 53.03125 41.359375 49.609375 
Q 46.4375 46.1875 49.015625 39.953125 
Q 51.609375 33.734375 51.609375 26.3125 
Q 51.609375 18.359375 48.75 11.984375 
Q 45.90625 5.609375 40.453125 2.21875 
Q 35.015625 -1.171875 29 -1.171875 
Q 24.609375 -1.171875 21.109375 0.6875 
Q 17.625 2.546875 15.375 5.375 
L 15.375 -19.875 
z
M 14.546875 25.640625 
Q 14.546875 15.625 18.59375 10.84375 
Q 22.65625 6.0625 28.421875 6.0625 
Q 34.28125 6.0625 38.453125 11.015625 
Q 42.625 15.96875 42.625 26.375 
Q 42.625 36.28125 38.546875 41.203125 
Q 34.46875 46.140625 28.8125 46.140625 
Q 23.1875 46.140625 18.859375 40.890625 
Q 14.546875 35.640625 14.546875 25.640625 
z
" id="ArialMT-112"/>
      <path d="M 6.390625 0 
L 6.390625 71.578125 
L 15.1875 71.578125 
L 15.1875 0 
z
" id="ArialMT-108"/>
      <path d="M 42.09375 16.703125 
L 51.171875 15.578125 
Q 49.03125 7.625 43.21875 3.21875 
Q 37.40625 -1.171875 28.375 -1.171875 
Q 17 -1.171875 10.328125 5.828125 
Q 3.65625 12.84375 3.65625 25.484375 
Q 3.65625 38.578125 10.390625 45.796875 
Q 17.140625 53.03125 27.875 53.03125 
Q 38.28125 53.03125 44.875 45.953125 
Q 51.46875 38.875 51.46875 26.03125 
Q 51.46875 25.25 51.421875 23.6875 
L 12.75 23.6875 
Q 13.234375 15.140625 17.578125 10.59375 
Q 21.921875 6.0625 28.421875 6.0625 
Q 33.25 6.0625 36.671875 8.59375 
Q 40.09375 11.140625 42.09375 16.703125 
z
M 13.234375 30.90625 
L 42.1875 30.90625 
Q 41.609375 37.453125 38.875 40.71875 
Q 34.671875 45.796875 27.984375 45.796875 
Q 21.921875 45.796875 17.796875 41.75 
Q 13.671875 37.703125 13.234375 30.90625 
z
" id="ArialMT-101"/>
     </defs>
     <g transform="translate(541.254531 305.705)scale(0.26 -0.26)">
      <use xlink:href="#ArialMT-35"/>
      <use x="55.615234" xlink:href="#ArialMT-32"/>
      <use x="83.398438" xlink:href="#ArialMT-115"/>
      <use x="133.398438" xlink:href="#ArialMT-97"/>
      <use x="189.013672" xlink:href="#ArialMT-109"/>
      <use x="272.314453" xlink:href="#ArialMT-112"/>
      <use x="327.929688" xlink:href="#ArialMT-108"/>
      <use x="350.146484" xlink:href="#ArialMT-101"/>
     </g>
    </g>
   </g>
   <g id="matplotlib.axis_2">
    <g id="ytick_1">
     <g id="line2d_9">
      <path clip-path="url(#p2dcdb35a99)" d="M 180 209.728009 
L 1008 209.728009 
" style="fill:none;stroke:#b0b0b0;stroke-linecap:square;stroke-width:0.8;"/>
     </g>
     <g id="line2d_10">
      <defs>
       <path d="M 0 0 
L -3.5 0 
" id="md01d51eeac" style="stroke:#000000;stroke-width:0.8;"/>
      </defs>
      <g>
       <use style="stroke:#000000;stroke-width:0.8;" x="180" xlink:href="#md01d51eeac" y="209.728009"/>
      </g>
     </g>
     <g id="text_6">
      <!-- −1000 -->
      <defs>
       <path d="M 52.828125 31.203125 
L 5.5625 31.203125 
L 5.5625 39.40625 
L 52.828125 39.40625 
z
" id="ArialMT-8722"/>
      </defs>
      <g transform="translate(99.980625 219.033166)scale(0.26 -0.26)">
       <use xlink:href="#ArialMT-8722"/>
       <use x="58.398438" xlink:href="#ArialMT-49"/>
       <use x="114.013672" xlink:href="#ArialMT-48"/>
       <use x="169.628906" xlink:href="#ArialMT-48"/>
       <use x="225.244141" xlink:href="#ArialMT-48"/>
      </g>
     </g>
    </g>
    <g id="ytick_2">
     <g id="line2d_11">
      <path clip-path="url(#p2dcdb35a99)" d="M 180 127.085823 
L 1008 127.085823 
" style="fill:none;stroke:#b0b0b0;stroke-linecap:square;stroke-width:0.8;"/>
     </g>
     <g id="line2d_12">
      <g>
       <use style="stroke:#000000;stroke-width:0.8;" x="180" xlink:href="#md01d51eeac" y="127.085823"/>
      </g>
     </g>
     <g id="text_7">
      <!-- −500 -->
      <defs>
       <path d="M 4.15625 18.75 
L 13.375 19.53125 
Q 14.40625 12.796875 18.140625 9.390625 
Q 21.875 6 27.15625 6 
Q 33.5 6 37.890625 10.78125 
Q 42.28125 15.578125 42.28125 23.484375 
Q 42.28125 31 38.0625 35.34375 
Q 33.84375 39.703125 27 39.703125 
Q 22.75 39.703125 19.328125 37.765625 
Q 15.921875 35.84375 13.96875 32.765625 
L 5.71875 33.84375 
L 12.640625 70.609375 
L 48.25 70.609375 
L 48.25 62.203125 
L 19.671875 62.203125 
L 15.828125 42.96875 
Q 22.265625 47.46875 29.34375 47.46875 
Q 38.71875 47.46875 45.15625 40.96875 
Q 51.609375 34.46875 51.609375 24.265625 
Q 51.609375 14.546875 45.953125 7.46875 
Q 39.0625 -1.21875 27.15625 -1.21875 
Q 17.390625 -1.21875 11.203125 4.25 
Q 5.03125 9.71875 4.15625 18.75 
z
" id="ArialMT-53"/>
      </defs>
      <g transform="translate(114.439063 136.390979)scale(0.26 -0.26)">
       <use xlink:href="#ArialMT-8722"/>
       <use x="58.398438" xlink:href="#ArialMT-53"/>
       <use x="114.013672" xlink:href="#ArialMT-48"/>
       <use x="169.628906" xlink:href="#ArialMT-48"/>
      </g>
     </g>
    </g>
    <g id="ytick_3">
     <g id="line2d_13">
      <path clip-path="url(#p2dcdb35a99)" d="M 180 44.443636 
L 1008 44.443636 
" style="fill:none;stroke:#b0b0b0;stroke-linecap:square;stroke-width:0.8;"/>
     </g>
     <g id="line2d_14">
      <g>
       <use style="stroke:#000000;stroke-width:0.8;" x="180" xlink:href="#md01d51eeac" y="44.443636"/>
      </g>
     </g>
     <g id="text_8">
      <!-- 0 -->
      <g transform="translate(158.541562 53.748792)scale(0.26 -0.26)">
       <use xlink:href="#ArialMT-48"/>
      </g>
     </g>
    </g>
    <g id="text_9">
     <!-- Log-likelihood (a.u.) -->
     <defs>
      <path d="M 7.328125 0 
L 7.328125 71.578125 
L 16.796875 71.578125 
L 16.796875 8.453125 
L 52.046875 8.453125 
L 52.046875 0 
z
" id="ArialMT-76"/>
      <path d="M 3.328125 25.921875 
Q 3.328125 40.328125 11.328125 47.265625 
Q 18.015625 53.03125 27.640625 53.03125 
Q 38.328125 53.03125 45.109375 46.015625 
Q 51.90625 39.015625 51.90625 26.65625 
Q 51.90625 16.65625 48.90625 10.90625 
Q 45.90625 5.171875 40.15625 2 
Q 34.421875 -1.171875 27.640625 -1.171875 
Q 16.75 -1.171875 10.03125 5.8125 
Q 3.328125 12.796875 3.328125 25.921875 
z
M 12.359375 25.921875 
Q 12.359375 15.96875 16.703125 11.015625 
Q 21.046875 6.0625 27.640625 6.0625 
Q 34.1875 6.0625 38.53125 11.03125 
Q 42.875 16.015625 42.875 26.21875 
Q 42.875 35.84375 38.5 40.796875 
Q 34.125 45.75 27.640625 45.75 
Q 21.046875 45.75 16.703125 40.8125 
Q 12.359375 35.890625 12.359375 25.921875 
z
" id="ArialMT-111"/>
      <path d="M 4.984375 -4.296875 
L 13.53125 -5.5625 
Q 14.0625 -9.515625 16.5 -11.328125 
Q 19.78125 -13.765625 25.4375 -13.765625 
Q 31.546875 -13.765625 34.859375 -11.328125 
Q 38.1875 -8.890625 39.359375 -4.5 
Q 40.046875 -1.8125 39.984375 6.78125 
Q 34.234375 0 25.640625 0 
Q 14.9375 0 9.078125 7.71875 
Q 3.21875 15.4375 3.21875 26.21875 
Q 3.21875 33.640625 5.90625 39.90625 
Q 8.59375 46.1875 13.6875 49.609375 
Q 18.796875 53.03125 25.6875 53.03125 
Q 34.859375 53.03125 40.828125 45.609375 
L 40.828125 51.859375 
L 48.921875 51.859375 
L 48.921875 7.03125 
Q 48.921875 -5.078125 46.453125 -10.125 
Q 44 -15.1875 38.640625 -18.109375 
Q 33.296875 -21.046875 25.484375 -21.046875 
Q 16.21875 -21.046875 10.5 -16.875 
Q 4.78125 -12.703125 4.984375 -4.296875 
z
M 12.25 26.859375 
Q 12.25 16.65625 16.296875 11.96875 
Q 20.359375 7.28125 26.46875 7.28125 
Q 32.515625 7.28125 36.609375 11.9375 
Q 40.71875 16.609375 40.71875 26.5625 
Q 40.71875 36.078125 36.5 40.90625 
Q 32.28125 45.75 26.3125 45.75 
Q 20.453125 45.75 16.34375 40.984375 
Q 12.25 36.234375 12.25 26.859375 
z
" id="ArialMT-103"/>
      <path d="M 3.171875 21.484375 
L 3.171875 30.328125 
L 30.171875 30.328125 
L 30.171875 21.484375 
z
" id="ArialMT-45"/>
      <path d="M 6.640625 61.46875 
L 6.640625 71.578125 
L 15.4375 71.578125 
L 15.4375 61.46875 
z
M 6.640625 0 
L 6.640625 51.859375 
L 15.4375 51.859375 
L 15.4375 0 
z
" id="ArialMT-105"/>
      <path d="M 6.640625 0 
L 6.640625 71.578125 
L 15.4375 71.578125 
L 15.4375 30.765625 
L 36.234375 51.859375 
L 47.609375 51.859375 
L 27.78125 32.625 
L 49.609375 0 
L 38.765625 0 
L 21.625 26.515625 
L 15.4375 20.5625 
L 15.4375 0 
z
" id="ArialMT-107"/>
      <path d="M 6.59375 0 
L 6.59375 71.578125 
L 15.375 71.578125 
L 15.375 45.90625 
Q 21.53125 53.03125 30.90625 53.03125 
Q 36.671875 53.03125 40.921875 50.75 
Q 45.171875 48.484375 47 44.484375 
Q 48.828125 40.484375 48.828125 32.859375 
L 48.828125 0 
L 40.046875 0 
L 40.046875 32.859375 
Q 40.046875 39.453125 37.1875 42.453125 
Q 34.328125 45.453125 29.109375 45.453125 
Q 25.203125 45.453125 21.75 43.421875 
Q 18.3125 41.40625 16.84375 37.9375 
Q 15.375 34.46875 15.375 28.375 
L 15.375 0 
z
" id="ArialMT-104"/>
      <path d="M 40.234375 0 
L 40.234375 6.546875 
Q 35.296875 -1.171875 25.734375 -1.171875 
Q 19.53125 -1.171875 14.328125 2.25 
Q 9.125 5.671875 6.265625 11.796875 
Q 3.421875 17.921875 3.421875 25.875 
Q 3.421875 33.640625 6 39.96875 
Q 8.59375 46.296875 13.765625 49.65625 
Q 18.953125 53.03125 25.34375 53.03125 
Q 30.03125 53.03125 33.6875 51.046875 
Q 37.359375 49.078125 39.65625 45.90625 
L 39.65625 71.578125 
L 48.390625 71.578125 
L 48.390625 0 
z
M 12.453125 25.875 
Q 12.453125 15.921875 16.640625 10.984375 
Q 20.84375 6.0625 26.5625 6.0625 
Q 32.328125 6.0625 36.34375 10.765625 
Q 40.375 15.484375 40.375 25.140625 
Q 40.375 35.796875 36.265625 40.765625 
Q 32.171875 45.75 26.171875 45.75 
Q 20.3125 45.75 16.375 40.96875 
Q 12.453125 36.1875 12.453125 25.875 
z
" id="ArialMT-100"/>
      <path d="M 23.390625 -21.046875 
Q 16.109375 -11.859375 11.078125 0.4375 
Q 6.0625 12.75 6.0625 25.921875 
Q 6.0625 37.546875 9.8125 48.1875 
Q 14.203125 60.546875 23.390625 72.796875 
L 29.6875 72.796875 
Q 23.78125 62.640625 21.875 58.296875 
Q 18.890625 51.5625 17.1875 44.234375 
Q 15.09375 35.109375 15.09375 25.875 
Q 15.09375 2.390625 29.6875 -21.046875 
z
" id="ArialMT-40"/>
      <path d="M 9.078125 0 
L 9.078125 10.015625 
L 19.09375 10.015625 
L 19.09375 0 
z
" id="ArialMT-46"/>
      <path d="M 40.578125 0 
L 40.578125 7.625 
Q 34.515625 -1.171875 24.125 -1.171875 
Q 19.53125 -1.171875 15.546875 0.578125 
Q 11.578125 2.34375 9.640625 5 
Q 7.71875 7.671875 6.9375 11.53125 
Q 6.390625 14.109375 6.390625 19.734375 
L 6.390625 51.859375 
L 15.1875 51.859375 
L 15.1875 23.09375 
Q 15.1875 16.21875 15.71875 13.8125 
Q 16.546875 10.359375 19.234375 8.375 
Q 21.921875 6.390625 25.875 6.390625 
Q 29.828125 6.390625 33.296875 8.421875 
Q 36.765625 10.453125 38.203125 13.9375 
Q 39.65625 17.4375 39.65625 24.078125 
L 39.65625 51.859375 
L 48.4375 51.859375 
L 48.4375 0 
z
" id="ArialMT-117"/>
      <path d="M 12.359375 -21.046875 
L 6.0625 -21.046875 
Q 20.65625 2.390625 20.65625 25.875 
Q 20.65625 35.0625 18.5625 44.09375 
Q 16.890625 51.421875 13.921875 58.15625 
Q 12.015625 62.546875 6.0625 72.796875 
L 12.359375 72.796875 
Q 21.53125 60.546875 25.921875 48.1875 
Q 29.6875 37.546875 29.6875 25.921875 
Q 29.6875 12.75 24.625 0.4375 
Q 19.578125 -11.859375 12.359375 -21.046875 
z
" id="ArialMT-41"/>
     </defs>
     <g transform="translate(90.508437 257.446406)rotate(-90)scale(0.26 -0.26)">
      <use xlink:href="#ArialMT-76"/>
      <use x="55.615234" xlink:href="#ArialMT-111"/>
      <use x="111.230469" xlink:href="#ArialMT-103"/>
      <use x="166.845703" xlink:href="#ArialMT-45"/>
      <use x="200.146484" xlink:href="#ArialMT-108"/>
      <use x="222.363281" xlink:href="#ArialMT-105"/>
      <use x="244.580078" xlink:href="#ArialMT-107"/>
      <use x="294.580078" xlink:href="#ArialMT-101"/>
      <use x="350.195312" xlink:href="#ArialMT-108"/>
      <use x="372.412109" xlink:href="#ArialMT-105"/>
      <use x="394.628906" xlink:href="#ArialMT-104"/>
      <use x="450.244141" xlink:href="#ArialMT-111"/>
      <use x="505.859375" xlink:href="#ArialMT-111"/>
      <use x="561.474609" xlink:href="#ArialMT-100"/>
      <use x="617.089844" xlink:href="#ArialMT-32"/>
      <use x="644.873047" xlink:href="#ArialMT-40"/>
      <use x="678.173828" xlink:href="#ArialMT-97"/>
      <use x="733.789062" xlink:href="#ArialMT-46"/>
      <use x="761.572266" xlink:href="#ArialMT-117"/>
      <use x="817.1875" xlink:href="#ArialMT-46"/>
      <use x="844.970703" xlink:href="#ArialMT-41"/>
     </g>
    </g>
   </g>
   <g id="line2d_15">
    <path clip-path="url(#p2dcdb35a99)" d="M 217.636364 242.116364 
L 217.793247 93.533029 
L 217.950131 56.955115 
L 218.107014 47.469053 
L 218.263898 45.230225 
L 218.420781 44.685785 
L 218.734548 44.480953 
L 219.518966 44.450592 
L 219.989617 44.506073 
L 220.303384 44.570559 
L 220.617151 44.771563 
L 220.930918 44.805305 
L 221.087802 45.155168 
L 221.715336 44.613946 
L 221.872219 44.647668 
L 222.029103 44.511 
L 222.656637 44.49379 
L 223.284171 44.466091 
L 225.794308 44.485011 
L 225.951192 44.570428 
L 226.578726 44.477412 
L 227.049377 44.507834 
L 227.990678 44.485624 
L 229.088863 44.482272 
L 229.716397 44.44957 
L 247.287355 44.446941 
L 253.876464 44.444894 
L 438.528402 44.444751 
L 443.234908 44.444443 
L 468.336276 44.444507 
L 468.49316 45.080432 
L 470.532646 45.01575 
L 472.885899 44.759153 
L 474.140968 44.680831 
L 479.945659 44.500175 
L 494.065179 44.765051 
L 494.849596 44.792697 
L 495.790898 44.809712 
L 497.6735 44.808518 
L 499.86987 44.856577 
L 500.497404 44.844974 
L 502.06624 44.823839 
L 503.007541 44.852189 
L 503.635075 44.81 
L 505.360794 44.826448 
L 505.988328 44.807128 
L 507.40028 44.774207 
L 508.655349 44.723755 
L 509.125999 44.748695 
L 509.753534 44.682744 
L 512.106787 44.609562 
L 512.734321 44.559123 
L 514.930691 44.487369 
L 516.65641 44.479519 
L 529.677745 44.537255 
L 531.089696 44.582098 
L 533.44295 44.618295 
L 538.149456 44.501096 
L 539.875175 44.458374 
L 559.328735 44.689505 
L 559.799386 44.661598 
L 560.270037 44.689413 
L 561.681989 44.674349 
L 562.780174 44.708903 
L 563.564591 44.668913 
L 563.878358 44.679605 
L 566.074728 44.676094 
L 566.859146 44.700326 
L 567.172913 44.659841 
L 567.957331 44.713641 
L 569.369283 44.668997 
L 570.310584 44.683612 
L 570.781235 44.667446 
L 572.506954 44.688009 
L 572.977604 44.649007 
L 573.291371 44.637959 
L 574.232673 44.662054 
L 575.01709 44.632089 
L 576.74281 44.616526 
L 577.527227 44.594954 
L 599.177157 44.536993 
L 600.275342 44.557645 
L 610.629656 44.444597 
L 614.394861 44.480669 
L 621.611505 44.555786 
L 622.239039 44.580779 
L 623.023457 44.594928 
L 634.946607 44.606757 
L 636.201675 44.59914 
L 636.986093 44.611898 
L 638.398045 44.583685 
L 639.182462 44.598737 
L 643.575202 44.564464 
L 648.438592 44.517001 
L 649.69366 44.51078 
L 651.733146 44.467686 
L 655.341468 44.469014 
L 660.832392 44.462613 
L 664.28383 44.467335 
L 667.578385 44.497754 
L 669.931638 44.53463 
L 673.383076 44.508191 
L 674.638145 44.513344 
L 676.520747 44.464012 
L 697.85691 44.56138 
L 700.05328 44.569749 
L 708.838759 44.540793 
L 710.250711 44.54071 
L 712.44708 44.523323 
L 713.074614 44.542372 
L 719.349956 44.484083 
L 719.663724 44.497674 
L 719.977491 44.717336 
L 720.291258 44.520304 
L 720.448141 44.585286 
L 720.761908 44.467627 
L 720.918792 44.614651 
L 721.70321 44.47936 
L 722.016977 44.718205 
L 722.330744 44.457867 
L 722.487627 44.586251 
L 723.115162 44.451066 
L 723.899579 44.543399 
L 724.056463 44.61361 
L 724.527114 44.468878 
L 726.880367 44.543109 
L 727.194134 44.472846 
L 727.664785 44.50363 
L 728.292319 44.506691 
L 728.449202 44.581546 
L 728.606086 44.457409 
L 728.919853 44.540062 
L 729.23362 44.449343 
L 729.390504 44.556875 
L 729.547387 44.463236 
L 729.861154 44.484401 
L 730.331805 44.470846 
L 730.488688 44.4485 
L 730.802456 44.561658 
L 731.42999 44.466505 
L 731.743757 44.625745 
L 732.371291 44.511057 
L 732.528175 44.621097 
L 732.685058 44.475913 
L 733.155709 44.629026 
L 733.469476 44.459024 
L 733.626359 44.606257 
L 733.940127 44.475472 
L 734.253894 44.615847 
L 734.410777 44.660324 
L 734.567661 44.497022 
L 736.29338 44.71215 
L 736.450263 44.473257 
L 736.607147 44.588296 
L 736.76403 44.446998 
L 737.077798 44.594261 
L 737.705332 44.470817 
L 737.862215 44.497487 
L 738.019099 44.675221 
L 738.48975 44.4995 
L 740.058585 44.470264 
L 740.215469 44.674451 
L 740.372352 44.54411 
L 740.686119 44.693813 
L 740.999886 44.480969 
L 741.313653 44.609067 
L 741.627421 44.466138 
L 741.941188 44.598516 
L 742.098071 44.456586 
L 742.254955 44.635021 
L 742.411838 44.600494 
L 742.568722 44.713828 
L 742.725605 44.520101 
L 742.882489 44.563864 
L 743.039372 44.477455 
L 743.510023 44.614254 
L 743.980674 44.507065 
L 744.137557 44.594389 
L 744.921975 44.450722 
L 745.863276 44.516156 
L 746.02016 44.694047 
L 746.333927 44.518866 
L 746.961461 44.454559 
L 747.118345 44.654157 
L 747.275228 44.475437 
L 747.588995 44.487756 
L 747.902763 44.516361 
L 748.059646 44.617223 
L 748.21653 44.460004 
L 748.530297 44.539125 
L 748.844064 44.497142 
L 749.000947 44.660163 
L 749.157831 44.490389 
L 749.471598 44.461418 
L 749.785365 44.458958 
L 750.256016 44.470838 
L 750.412899 44.545953 
L 750.569783 44.475633 
L 750.726666 44.667802 
L 751.040434 44.468835 
L 751.511084 44.536099 
L 751.981735 44.476916 
L 752.138618 44.607663 
L 752.452385 44.468162 
L 752.609269 44.593676 
L 752.923036 44.523067 
L 753.07992 44.46114 
L 753.393687 44.633002 
L 753.864337 44.470994 
L 754.178105 44.54576 
L 754.334988 44.717352 
L 754.648755 44.511459 
L 755.276289 44.641749 
L 755.433173 44.465384 
L 755.74694 44.591931 
L 756.060707 44.573536 
L 756.217591 44.825359 
L 756.531358 44.514634 
L 756.688241 44.687072 
L 756.845125 44.499462 
L 757.002008 44.82464 
L 757.158892 44.506234 
L 757.315776 44.600516 
L 757.472659 44.459458 
L 757.629543 44.768569 
L 758.41396 44.460915 
L 758.727727 44.515763 
L 759.041495 44.496268 
L 759.198378 44.633963 
L 759.355262 44.464164 
L 759.512145 44.930254 
L 759.669029 44.45667 
L 759.825912 44.472477 
L 759.982796 44.628456 
L 760.139679 44.529302 
L 760.296563 44.583754 
L 760.453447 44.459717 
L 760.924097 44.612693 
L 761.080981 44.463337 
L 761.237864 44.537752 
L 761.394748 44.459711 
L 761.551631 44.783404 
L 761.708515 44.579829 
L 762.179166 44.516691 
L 762.336049 44.684214 
L 762.8067 44.53495 
L 763.120467 44.575059 
L 763.27735 44.667731 
L 763.434234 44.549418 
L 763.748001 44.631532 
L 763.904885 44.8431 
L 764.061768 44.561733 
L 764.532419 44.724124 
L 764.689302 44.552276 
L 764.846186 44.610933 
L 765.159953 44.487568 
L 765.316837 44.744138 
L 765.630604 44.483605 
L 765.944371 44.546427 
L 766.101254 44.524576 
L 766.258138 44.630446 
L 766.415021 44.464355 
L 766.571905 44.629268 
L 766.728789 44.475027 
L 766.885672 44.687969 
L 767.199439 44.508501 
L 767.67009 44.595737 
L 767.826973 44.696447 
L 767.983857 44.487401 
L 768.14074 44.487133 
L 768.297624 44.612308 
L 768.454508 44.508016 
L 768.768275 44.495469 
L 768.925158 44.497583 
L 769.082042 44.717519 
L 769.238925 44.511254 
L 769.552692 44.685588 
L 769.709576 44.519867 
L 771.592179 44.646554 
L 771.749062 44.509684 
L 771.905946 44.752478 
L 772.062829 44.529286 
L 772.53348 44.595056 
L 772.690363 44.71971 
L 772.847247 44.496816 
L 773.004131 44.688482 
L 773.317898 44.68159 
L 773.631665 44.615935 
L 773.788548 44.474742 
L 773.945432 44.680258 
L 774.259199 44.518804 
L 774.416082 44.762038 
L 774.572966 44.501713 
L 774.72985 44.587295 
L 774.886733 44.542404 
L 775.2005 44.67883 
L 775.357384 44.573152 
L 775.514267 44.709296 
L 775.671151 44.509308 
L 775.828034 44.69385 
L 776.769336 44.519609 
L 777.083103 44.836203 
L 777.239986 44.566497 
L 777.39687 44.704713 
L 777.710637 44.473908 
L 777.867521 44.467484 
L 778.181288 44.570865 
L 778.338171 44.528171 
L 778.495055 44.846116 
L 778.651938 44.566758 
L 778.965705 44.703011 
L 779.59324 44.490421 
L 779.907007 44.682199 
L 780.06389 45.005849 
L 780.220774 44.670591 
L 780.691424 44.587394 
L 781.005192 44.707214 
L 781.162075 44.573672 
L 781.318959 44.641938 
L 781.632726 44.52391 
L 781.789609 44.597753 
L 781.946493 44.518006 
L 782.103376 44.592702 
L 782.26026 44.47873 
L 782.417144 44.608771 
L 782.887794 44.473862 
L 783.201561 44.561057 
L 783.672212 44.500126 
L 783.985979 44.762805 
L 784.142863 44.497422 
L 784.299746 44.463491 
L 784.45663 44.644006 
L 784.770397 44.485897 
L 785.397931 44.551856 
L 785.554815 44.484564 
L 785.711698 44.720167 
L 785.868582 44.473262 
L 786.182349 44.526059 
L 786.496116 44.574809 
L 786.652999 44.49841 
L 786.809883 44.593798 
L 786.966766 44.503206 
L 787.12365 44.758091 
L 787.280534 44.790929 
L 787.437417 44.608175 
L 787.594301 44.652894 
L 787.751184 44.485022 
L 788.064951 44.681856 
L 788.378718 44.455672 
L 789.006253 44.659433 
L 789.32002 44.537481 
L 789.633787 44.5961 
L 790.261321 44.477278 
L 790.418205 44.640738 
L 790.731972 44.573157 
L 790.888855 44.687298 
L 791.045739 44.511722 
L 791.202622 44.659667 
L 791.359506 44.508538 
L 791.673273 44.530212 
L 791.830157 44.466996 
L 792.300807 44.566717 
L 792.614574 44.501416 
L 793.085225 44.510277 
L 793.712759 44.519319 
L 793.869643 44.7118 
L 794.340293 44.54883 
L 794.497177 44.627552 
L 794.65406 44.489767 
L 794.810944 44.639187 
L 794.967828 44.487432 
L 795.281595 44.590099 
L 795.595362 44.668542 
L 795.909129 44.468814 
L 797.164197 44.494926 
L 797.477964 44.65813 
L 797.634848 44.494401 
L 800.615635 44.474233 
L 800.772519 44.620089 
L 800.929402 44.464028 
L 801.24317 44.572824 
L 801.400053 44.473328 
L 801.556937 44.680066 
L 802.341354 44.463099 
L 803.125772 44.711696 
L 803.282656 44.67724 
L 803.439539 44.475621 
L 803.596423 44.597954 
L 803.753306 44.465788 
L 803.91019 44.827573 
L 804.067073 44.480511 
L 804.851491 44.510693 
L 805.008375 44.591475 
L 805.322142 44.500173 
L 805.479025 44.595234 
L 805.792792 44.475003 
L 806.263443 44.479508 
L 806.57721 44.710126 
L 806.734094 44.459857 
L 806.890977 44.45083 
L 807.047861 44.564511 
L 807.204744 44.46935 
L 807.518512 44.519194 
L 807.832279 44.469509 
L 807.989162 44.946104 
L 808.146046 44.480732 
L 808.77358 44.553946 
L 808.930463 44.701063 
L 809.244231 44.552185 
L 809.557998 44.475248 
L 809.714881 44.704396 
L 810.342415 44.529302 
L 810.813066 44.719558 
L 810.96995 44.546521 
L 811.126833 44.957887 
L 811.283717 44.467931 
L 811.4406 44.586631 
L 811.597484 44.494142 
L 811.911251 44.508079 
L 813.009436 44.536711 
L 813.793853 44.492416 
L 814.107621 44.636846 
L 815.362689 44.480275 
L 815.519573 44.601566 
L 815.83334 44.477083 
L 815.990223 44.585695 
L 816.147107 44.465352 
L 816.30399 44.640328 
L 816.460874 44.481416 
L 818.657244 44.518121 
L 818.814127 44.706717 
L 818.971011 44.450594 
L 820.069195 44.526901 
L 820.226079 44.469247 
L 820.539846 44.499679 
L 821.324264 44.531703 
L 821.481147 44.458015 
L 821.638031 44.567836 
L 821.951798 44.449054 
L 822.736216 44.509585 
L 822.893099 44.570061 
L 823.206866 44.479338 
L 823.520634 44.483595 
L 823.991284 44.472517 
L 824.461935 44.499069 
L 824.775702 44.529643 
L 824.932586 44.618955 
L 825.089469 44.467618 
L 825.246353 44.68998 
L 825.403236 44.521518 
L 825.56012 44.613277 
L 825.873887 44.534452 
L 826.344537 44.552613 
L 826.658305 44.592985 
L 826.815188 44.468408 
L 826.972072 44.685504 
L 827.128955 44.483439 
L 827.285839 44.682115 
L 827.756489 44.455638 
L 827.913373 44.769038 
L 828.070257 44.461027 
L 829.952859 44.571389 
L 830.266626 44.478219 
L 830.737277 44.529264 
L 830.89416 44.46762 
L 831.051044 44.575153 
L 831.207928 44.536946 
L 831.364811 44.701221 
L 831.521695 44.521413 
L 831.678578 44.613604 
L 831.835462 44.485212 
L 831.992345 44.667537 
L 832.149229 44.544421 
L 832.306112 44.689525 
L 832.619879 44.636475 
L 832.933647 44.531543 
L 833.09053 44.753154 
L 833.404297 44.53278 
L 833.718064 44.584542 
L 833.874948 44.674035 
L 834.031831 44.52021 
L 834.345599 44.950947 
L 834.502482 44.566083 
L 835.2869 44.58447 
L 835.443783 44.460682 
L 835.914434 44.510629 
L 836.228201 44.488895 
L 836.385085 44.829145 
L 836.541968 44.578276 
L 837.48327 44.560291 
L 837.640153 44.652719 
L 837.797037 44.51432 
L 838.267687 44.554316 
L 839.522756 44.627031 
L 839.679639 44.493228 
L 839.836523 44.566341 
L 840.15029 44.557982 
L 840.307173 44.597092 
L 840.464057 44.83164 
L 840.620941 44.518559 
L 841.248475 44.544522 
L 841.405358 44.698781 
L 841.562242 44.576917 
L 841.876009 44.635588 
L 842.34666 44.578086 
L 842.503543 44.656994 
L 842.660427 44.503942 
L 843.131077 44.567512 
L 843.287961 44.875329 
L 843.444844 44.584061 
L 843.601728 44.821183 
L 843.758612 44.470549 
L 843.915495 44.523014 
L 844.072379 44.788782 
L 844.386146 44.515067 
L 844.856796 44.535612 
L 845.170563 44.5119 
L 845.484331 44.803874 
L 845.798098 44.596073 
L 845.954981 44.518942 
L 846.268748 44.633118 
L 846.425632 44.529355 
L 846.739399 44.693034 
L 847.053166 44.558929 
L 847.21005 44.690701 
L 847.523817 44.593541 
L 847.6807 44.522795 
L 847.837584 44.576326 
L 847.994467 44.505919 
L 848.151351 44.69403 
L 848.935769 44.486468 
L 849.249536 44.678425 
L 849.720186 44.615122 
L 849.87707 44.727668 
L 850.504604 44.515952 
L 850.661488 44.713365 
L 850.818371 44.471667 
L 850.975255 44.612371 
L 851.132138 44.582626 
L 851.289022 44.878671 
L 851.602789 44.549777 
L 852.230323 44.471638 
L 852.387207 44.779091 
L 852.54409 44.561529 
L 852.700974 44.595367 
L 853.014741 44.508044 
L 853.171625 44.54803 
L 853.328508 44.458569 
L 853.642275 44.554985 
L 854.583576 44.46607 
L 854.74046 44.584845 
L 855.211111 44.565851 
L 855.367994 44.644293 
L 855.524878 44.450793 
L 855.838645 44.710623 
L 855.995528 44.679511 
L 856.152412 44.443992 
L 856.309296 44.560867 
L 856.466179 44.450588 
L 857.093713 44.582456 
L 857.250597 44.485735 
L 857.564364 44.699602 
L 857.721247 44.511518 
L 857.878131 44.748371 
L 858.035015 44.488566 
L 858.505665 44.658279 
L 859.60385 44.491055 
L 859.760734 44.607616 
L 860.388268 44.457745 
L 861.329569 44.565727 
L 861.486453 44.463306 
L 861.643336 44.66464 
L 861.80022 44.492775 
L 862.113987 44.4851 
L 862.427754 44.483595 
L 862.584638 44.721444 
L 862.741521 44.470188 
L 862.898405 44.553172 
L 863.212172 44.480943 
L 863.525939 44.51611 
L 863.682822 44.448969 
L 863.996589 44.470491 
L 864.937891 44.546636 
L 865.408541 44.448372 
L 865.565425 44.577976 
L 865.879192 44.508629 
L 866.036076 44.457707 
L 866.349843 44.618081 
L 866.977377 44.446822 
L 867.448028 44.525616 
L 867.604911 44.452377 
L 867.761795 44.504857 
L 867.918678 44.739849 
L 868.075562 44.468901 
L 868.703096 44.498162 
L 868.85998 44.703091 
L 869.016863 44.444474 
L 869.173747 44.51553 
L 869.487514 44.455334 
L 869.644397 44.552915 
L 869.958164 44.484678 
L 870.115048 44.634434 
L 870.271931 44.466187 
L 870.742582 44.548097 
L 870.899466 44.632478 
L 871.213233 44.521139 
L 871.370116 44.559605 
L 871.527 44.467882 
L 871.683883 44.637691 
L 871.840767 44.50383 
L 872.154534 44.621263 
L 872.311418 44.506624 
L 872.468301 44.555798 
L 872.625185 44.460588 
L 872.938952 44.615229 
L 873.252719 44.489682 
L 873.566486 44.480295 
L 873.72337 44.637136 
L 874.037137 44.530998 
L 874.19402 44.723185 
L 874.350904 44.491113 
L 875.919739 44.470315 
L 876.076623 44.629899 
L 876.39039 44.44952 
L 876.704157 44.454978 
L 876.861041 44.676764 
L 877.174808 44.46927 
L 877.331691 44.59236 
L 877.645458 44.45608 
L 877.959225 44.709756 
L 878.116109 44.448783 
L 878.429876 44.456005 
L 878.58676 44.635032 
L 879.05741 44.504311 
L 879.841828 44.616072 
L 880.155595 44.465698 
L 880.312479 44.640654 
L 880.469362 44.501273 
L 881.096896 44.53473 
L 882.038198 44.47157 
L 882.665732 44.603717 
L 882.822615 44.470505 
L 883.607033 44.620244 
L 883.9208 44.495261 
L 884.548335 44.591325 
L 884.705218 44.696972 
L 885.018985 44.458854 
L 885.175869 44.683791 
L 885.332752 44.52954 
L 885.489636 44.64363 
L 885.960286 44.457873 
L 886.274054 44.460677 
L 886.430937 44.480612 
L 886.587821 44.725765 
L 886.901588 44.472367 
L 887.686006 44.569213 
L 888.470423 44.655159 
L 888.78419 44.45769 
L 888.941074 44.473489 
L 889.097957 44.708385 
L 889.411725 44.485675 
L 889.568608 44.863133 
L 889.725492 44.48619 
L 890.039259 44.485992 
L 890.353026 44.532622 
L 890.823677 44.467185 
L 890.98056 44.876071 
L 891.137444 44.490928 
L 891.608094 44.598396 
L 891.921861 44.459164 
L 892.078745 44.531188 
L 892.235628 44.452891 
L 892.549396 44.527483 
L 893.490697 44.491749 
L 893.64758 44.633118 
L 893.961348 44.459613 
L 895.530183 44.524224 
L 896.785251 44.486505 
L 896.942135 44.653994 
L 897.099019 44.646172 
L 897.255902 44.443813 
L 897.569669 44.52145 
L 897.726553 44.451608 
L 897.883436 44.557118 
L 898.197203 44.464051 
L 898.354087 44.59319 
L 898.51097 44.489155 
L 898.824738 44.496978 
L 899.609155 44.491939 
L 900.864224 44.559904 
L 901.334874 44.472896 
L 901.648641 44.541555 
L 901.805525 44.462636 
L 901.962409 44.567908 
L 902.276176 44.464111 
L 903.374361 44.512277 
L 903.531244 44.484427 
L 903.688128 44.790797 
L 903.845011 44.506289 
L 904.158778 44.627628 
L 904.629429 44.500969 
L 904.786312 44.494168 
L 905.10008 44.591791 
L 905.884497 44.472411 
L 906.041381 44.720734 
L 906.198264 44.489579 
L 906.512032 44.495924 
L 906.668915 44.592741 
L 906.982682 44.50059 
L 907.139566 44.50283 
L 907.296449 44.752407 
L 907.453333 44.497154 
L 907.610216 44.677215 
L 907.7671 44.45068 
L 908.080867 44.702059 
L 908.394634 44.511778 
L 908.551518 44.777331 
L 908.708401 44.731955 
L 909.022168 44.471502 
L 909.179052 44.658458 
L 909.492819 44.490628 
L 909.649703 44.665226 
L 909.96347 44.557255 
L 910.277237 44.56061 
L 910.591004 44.640234 
L 910.747887 44.71691 
L 911.061654 44.60899 
L 911.218538 44.645899 
L 911.375422 44.511631 
L 911.532305 44.662957 
L 911.689189 44.456701 
L 912.159839 44.678991 
L 912.316723 44.515777 
L 912.473606 44.59596 
L 912.787374 44.456685 
L 912.944257 44.604543 
L 913.258024 44.543553 
L 913.414908 44.781618 
L 913.885558 44.591449 
L 914.042442 44.824343 
L 914.199325 44.456485 
L 914.513093 44.515499 
L 914.669976 44.806923 
L 914.983743 44.526977 
L 915.29751 44.480324 
L 915.454394 44.577552 
L 915.611277 44.505274 
L 915.925045 44.574725 
L 916.081928 44.445544 
L 916.238812 44.709316 
L 916.395695 44.504654 
L 916.552579 44.533242 
L 916.866346 44.702484 
L 917.023229 44.536768 
L 917.180113 44.711054 
L 917.336996 44.476764 
L 917.964531 44.640367 
L 918.121414 44.489589 
L 918.278298 44.618021 
L 918.592065 44.615471 
L 918.748948 44.705652 
L 918.905832 44.577183 
L 919.062716 44.671682 
L 919.219599 44.491124 
L 920.004017 44.562372 
L 920.474667 44.477799 
L 920.631551 44.57261 
L 920.788435 44.493305 
L 921.102202 44.540236 
L 921.259085 44.871615 
L 921.415969 44.501972 
L 921.572852 44.759237 
L 921.729736 44.534525 
L 922.043503 44.655033 
L 922.200387 44.473938 
L 922.35727 44.800857 
L 922.514154 44.49921 
L 922.984804 44.509474 
L 923.141688 44.501855 
L 923.298571 44.675009 
L 923.612338 44.45979 
L 923.926106 44.491148 
L 924.396756 44.545585 
L 924.55364 44.658268 
L 924.710523 44.484035 
L 924.867407 44.646106 
L 925.181174 44.452212 
L 926.122475 44.673686 
L 926.279359 44.46749 
L 926.750009 44.527343 
L 927.22066 44.450518 
L 927.377544 44.598723 
L 927.691311 44.616497 
L 927.848194 44.698216 
L 928.005078 44.452512 
L 928.318845 44.521182 
L 928.475729 44.463435 
L 928.789496 44.750033 
L 928.946379 44.496287 
L 929.103263 44.689173 
L 929.41703 44.521092 
L 931.299632 44.649581 
L 931.456516 44.472664 
L 932.240934 44.472661 
L 932.711584 44.549585 
L 932.868468 44.736596 
L 933.182235 44.501939 
L 933.339119 44.501191 
L 933.496002 44.658729 
L 933.809769 44.496763 
L 934.751071 44.598019 
L 934.907954 44.801663 
L 935.221721 44.454743 
L 936.94744 44.48501 
L 937.104324 44.453722 
L 937.418091 44.525701 
L 937.731858 44.525635 
L 937.888742 44.549239 
L 938.045625 44.456253 
L 938.359392 44.732342 
L 938.516276 44.479114 
L 939.300693 44.468832 
L 940.869529 44.478055 
L 941.183296 44.539867 
L 941.497063 44.497415 
L 941.653947 44.638304 
L 942.124597 44.447574 
L 942.438364 44.48874 
L 946.20357 44.557768 
L 946.517337 44.447397 
L 946.67422 44.536247 
L 946.987987 44.477801 
L 947.144871 44.574338 
L 947.615522 44.519826 
L 947.772405 44.471019 
L 947.929289 44.608938 
L 948.243056 44.485565 
L 949.184357 44.480256 
L 949.968775 44.517342 
L 950.596309 44.459209 
L 950.910076 44.515591 
L 951.06696 44.610404 
L 951.380727 44.464616 
L 952.478912 44.538179 
L 952.635795 44.452801 
L 953.106446 44.718215 
L 953.263329 44.479024 
L 953.577097 44.592447 
L 953.890864 44.469764 
L 954.989048 44.488543 
L 955.145932 44.729836 
L 955.459699 44.472157 
L 955.616583 44.581355 
L 955.93035 44.484096 
L 956.087233 44.639031 
L 956.244117 44.469345 
L 956.714768 44.579621 
L 957.185418 44.453456 
L 957.812952 44.514668 
L 959.224904 44.483909 
L 959.381788 44.679083 
L 959.538671 44.491415 
L 959.695555 44.628729 
L 960.009322 44.455079 
L 960.323089 44.511201 
L 960.636856 44.478691 
L 962.833226 44.524401 
L 963.146993 44.478631 
L 963.303877 44.476785 
L 963.46076 44.850382 
L 963.617644 44.54129 
L 963.774527 44.635466 
L 963.931411 44.502084 
L 964.245178 44.548413 
L 964.715829 44.494652 
L 965.029596 44.499378 
L 965.186479 44.622943 
L 965.343363 44.458108 
L 965.500246 44.572418 
L 965.814013 44.466962 
L 965.970897 44.57083 
L 966.127781 44.506743 
L 966.441548 44.612568 
L 967.225965 44.472355 
L 968.794801 44.487366 
L 968.951684 44.660733 
L 969.108568 44.494785 
L 969.892986 44.489533 
L 970.363636 44.501189 
L 970.363636 44.501189 
" style="fill:none;stroke:#1f77b4;stroke-linecap:square;stroke-width:1.5;"/>
   </g>
   <g id="patch_3">
    <path d="M 180 252 
L 180 34.56 
" style="fill:none;stroke:#000000;stroke-linecap:square;stroke-linejoin:miter;stroke-width:0.8;"/>
   </g>
   <g id="patch_4">
    <path d="M 1008 252 
L 1008 34.56 
" style="fill:none;stroke:#000000;stroke-linecap:square;stroke-linejoin:miter;stroke-width:0.8;"/>
   </g>
   <g id="patch_5">
    <path d="M 180 252 
L 1008 252 
" style="fill:none;stroke:#000000;stroke-linecap:square;stroke-linejoin:miter;stroke-width:0.8;"/>
   </g>
   <g id="patch_6">
    <path d="M 180 34.56 
L 1008 34.56 
" style="fill:none;stroke:#000000;stroke-linecap:square;stroke-linejoin:miter;stroke-width:0.8;"/>
   </g>
  </g>
 </g>
 <defs>
  <clipPath id="p2dcdb35a99">
   <rect height="217.44" width="828" x="180" y="34.56"/>
  </clipPath>
 </defs>
</svg>
