<?xml version="1.0" encoding="utf-8" standalone="no"?>
<!DOCTYPE svg PUBLIC "-//W3C//DTD SVG 1.1//EN"
  "http://www.w3.org/Graphics/SVG/1.1/DTD/svg11.dtd">
<!-- Created with matplotlib (https://matplotlib.org/) -->
<svg height="288pt" version="1.1" viewBox="0 0 1440 288" width="1440pt" xmlns="http://www.w3.org/2000/svg" xmlns:xlink="http://www.w3.org/1999/xlink">
 <defs>
  <style type="text/css">
*{stroke-linecap:butt;stroke-linejoin:round;}
  </style>
 </defs>
 <g id="figure_1">
  <g id="patch_1">
   <path d="M 0 288 
L 1440 288 
L 1440 0 
L 0 0 
z
" style="fill:#ffffff;"/>
  </g>
  <g id="axes_1">
   <g id="patch_2">
    <path d="M 180 252 
L 1008 252 
L 1008 34.56 
L 180 34.56 
z
" style="fill:#ffffff;"/>
   </g>
   <g id="matplotlib.axis_1">
    <g id="xtick_1">
     <g id="line2d_1">
      <path clip-path="url(#pe40a4e3c0a)" d="M 217.636364 252 
L 217.636364 34.56 
" style="fill:none;stroke:#b0b0b0;stroke-linecap:square;stroke-width:0.8;"/>
     </g>
     <g id="line2d_2">
      <defs>
       <path d="M 0 0 
L 0 3.5 
" id="mb60c5cd6bc" style="stroke:#000000;stroke-width:0.8;"/>
      </defs>
      <g>
       <use style="stroke:#000000;stroke-width:0.8;" x="217.636364" xlink:href="#mb60c5cd6bc" y="252"/>
      </g>
     </g>
     <g id="text_1">
      <!-- 0 -->
      <defs>
       <path d="M 4.15625 35.296875 
Q 4.15625 48 6.765625 55.734375 
Q 9.375 63.484375 14.515625 67.671875 
Q 19.671875 71.875 27.484375 71.875 
Q 33.25 71.875 37.59375 69.546875 
Q 41.9375 67.234375 44.765625 62.859375 
Q 47.609375 58.5 49.21875 52.21875 
Q 50.828125 45.953125 50.828125 35.296875 
Q 50.828125 22.703125 48.234375 14.96875 
Q 45.65625 7.234375 40.5 3 
Q 35.359375 -1.21875 27.484375 -1.21875 
Q 17.140625 -1.21875 11.234375 6.203125 
Q 4.15625 15.140625 4.15625 35.296875 
z
M 13.1875 35.296875 
Q 13.1875 17.671875 17.3125 11.828125 
Q 21.4375 6 27.484375 6 
Q 33.546875 6 37.671875 11.859375 
Q 41.796875 17.71875 41.796875 35.296875 
Q 41.796875 52.984375 37.671875 58.78125 
Q 33.546875 64.59375 27.390625 64.59375 
Q 21.34375 64.59375 17.71875 59.46875 
Q 13.1875 52.9375 13.1875 35.296875 
z
" id="ArialMT-48"/>
      </defs>
      <g transform="translate(210.407145 277.610313)scale(0.26 -0.26)">
       <use xlink:href="#ArialMT-48"/>
      </g>
     </g>
    </g>
    <g id="xtick_2">
     <g id="line2d_3">
      <path clip-path="url(#pe40a4e3c0a)" d="M 594.094114 252 
L 594.094114 34.56 
" style="fill:none;stroke:#b0b0b0;stroke-linecap:square;stroke-width:0.8;"/>
     </g>
     <g id="line2d_4">
      <g>
       <use style="stroke:#000000;stroke-width:0.8;" x="594.094114" xlink:href="#mb60c5cd6bc" y="252"/>
      </g>
     </g>
     <g id="text_2">
      <!-- 2000 -->
      <defs>
       <path d="M 50.34375 8.453125 
L 50.34375 0 
L 3.03125 0 
Q 2.9375 3.171875 4.046875 6.109375 
Q 5.859375 10.9375 9.828125 15.625 
Q 13.8125 20.3125 21.34375 26.46875 
Q 33.015625 36.03125 37.109375 41.625 
Q 41.21875 47.21875 41.21875 52.203125 
Q 41.21875 57.421875 37.46875 61 
Q 33.734375 64.59375 27.734375 64.59375 
Q 21.390625 64.59375 17.578125 60.78125 
Q 13.765625 56.984375 13.71875 50.25 
L 4.6875 51.171875 
Q 5.609375 61.28125 11.65625 66.578125 
Q 17.71875 71.875 27.9375 71.875 
Q 38.234375 71.875 44.234375 66.15625 
Q 50.25 60.453125 50.25 52 
Q 50.25 47.703125 48.484375 43.546875 
Q 46.734375 39.40625 42.65625 34.8125 
Q 38.578125 30.21875 29.109375 22.21875 
Q 21.1875 15.578125 18.9375 13.203125 
Q 16.703125 10.84375 15.234375 8.453125 
z
" id="ArialMT-50"/>
      </defs>
      <g transform="translate(565.177239 277.610313)scale(0.26 -0.26)">
       <use xlink:href="#ArialMT-50"/>
       <use x="55.615234" xlink:href="#ArialMT-48"/>
       <use x="111.230469" xlink:href="#ArialMT-48"/>
       <use x="166.845703" xlink:href="#ArialMT-48"/>
      </g>
     </g>
    </g>
    <g id="xtick_3">
     <g id="line2d_5">
      <path clip-path="url(#pe40a4e3c0a)" d="M 970.551865 252 
L 970.551865 34.56 
" style="fill:none;stroke:#b0b0b0;stroke-linecap:square;stroke-width:0.8;"/>
     </g>
     <g id="line2d_6">
      <g>
       <use style="stroke:#000000;stroke-width:0.8;" x="970.551865" xlink:href="#mb60c5cd6bc" y="252"/>
      </g>
     </g>
     <g id="text_3">
      <!-- 4000 -->
      <defs>
       <path d="M 32.328125 0 
L 32.328125 17.140625 
L 1.265625 17.140625 
L 1.265625 25.203125 
L 33.9375 71.578125 
L 41.109375 71.578125 
L 41.109375 25.203125 
L 50.78125 25.203125 
L 50.78125 17.140625 
L 41.109375 17.140625 
L 41.109375 0 
z
M 32.328125 25.203125 
L 32.328125 57.46875 
L 9.90625 25.203125 
z
" id="ArialMT-52"/>
      </defs>
      <g transform="translate(941.63499 277.610313)scale(0.26 -0.26)">
       <use xlink:href="#ArialMT-52"/>
       <use x="55.615234" xlink:href="#ArialMT-48"/>
       <use x="111.230469" xlink:href="#ArialMT-48"/>
       <use x="166.845703" xlink:href="#ArialMT-48"/>
      </g>
     </g>
    </g>
    <g id="text_4">
     <!-- # sample -->
     <defs>
      <path d="M 5.03125 -1.21875 
L 9.28125 19.578125 
L 1.03125 19.578125 
L 1.03125 26.859375 
L 10.75 26.859375 
L 14.359375 44.578125 
L 1.03125 44.578125 
L 1.03125 51.859375 
L 15.828125 51.859375 
L 20.0625 72.796875 
L 27.390625 72.796875 
L 23.140625 51.859375 
L 38.53125 51.859375 
L 42.78125 72.796875 
L 50.140625 72.796875 
L 45.90625 51.859375 
L 54.34375 51.859375 
L 54.34375 44.578125 
L 44.4375 44.578125 
L 40.765625 26.859375 
L 54.34375 26.859375 
L 54.34375 19.578125 
L 39.3125 19.578125 
L 35.0625 -1.21875 
L 27.734375 -1.21875 
L 31.9375 19.578125 
L 16.609375 19.578125 
L 12.359375 -1.21875 
z
M 18.0625 26.859375 
L 33.40625 26.859375 
L 37.0625 44.578125 
L 21.6875 44.578125 
z
" id="ArialMT-35"/>
      <path id="ArialMT-32"/>
      <path d="M 3.078125 15.484375 
L 11.765625 16.84375 
Q 12.5 11.625 15.84375 8.84375 
Q 19.1875 6.0625 25.203125 6.0625 
Q 31.25 6.0625 34.171875 8.515625 
Q 37.109375 10.984375 37.109375 14.3125 
Q 37.109375 17.28125 34.515625 19 
Q 32.71875 20.171875 25.53125 21.96875 
Q 15.875 24.421875 12.140625 26.203125 
Q 8.40625 27.984375 6.46875 31.125 
Q 4.546875 34.28125 4.546875 38.09375 
Q 4.546875 41.546875 6.125 44.5 
Q 7.71875 47.46875 10.453125 49.421875 
Q 12.5 50.921875 16.03125 51.96875 
Q 19.578125 53.03125 23.640625 53.03125 
Q 29.734375 53.03125 34.34375 51.265625 
Q 38.96875 49.515625 41.15625 46.5 
Q 43.359375 43.5 44.1875 38.484375 
L 35.59375 37.3125 
Q 35.015625 41.3125 32.203125 43.546875 
Q 29.390625 45.796875 24.265625 45.796875 
Q 18.21875 45.796875 15.625 43.796875 
Q 13.03125 41.796875 13.03125 39.109375 
Q 13.03125 37.40625 14.109375 36.03125 
Q 15.1875 34.625 17.484375 33.6875 
Q 18.796875 33.203125 25.25 31.453125 
Q 34.578125 28.953125 38.25 27.359375 
Q 41.9375 25.78125 44.03125 22.75 
Q 46.140625 19.734375 46.140625 15.234375 
Q 46.140625 10.84375 43.578125 6.953125 
Q 41.015625 3.078125 36.171875 0.953125 
Q 31.34375 -1.171875 25.25 -1.171875 
Q 15.140625 -1.171875 9.84375 3.03125 
Q 4.546875 7.234375 3.078125 15.484375 
z
" id="ArialMT-115"/>
      <path d="M 40.4375 6.390625 
Q 35.546875 2.25 31.03125 0.53125 
Q 26.515625 -1.171875 21.34375 -1.171875 
Q 12.796875 -1.171875 8.203125 3 
Q 3.609375 7.171875 3.609375 13.671875 
Q 3.609375 17.484375 5.34375 20.625 
Q 7.078125 23.78125 9.890625 25.6875 
Q 12.703125 27.59375 16.21875 28.5625 
Q 18.796875 29.25 24.03125 29.890625 
Q 34.671875 31.15625 39.703125 32.90625 
Q 39.75 34.71875 39.75 35.203125 
Q 39.75 40.578125 37.25 42.78125 
Q 33.890625 45.75 27.25 45.75 
Q 21.046875 45.75 18.09375 43.578125 
Q 15.140625 41.40625 13.71875 35.890625 
L 5.125 37.0625 
Q 6.296875 42.578125 8.984375 45.96875 
Q 11.671875 49.359375 16.75 51.1875 
Q 21.828125 53.03125 28.515625 53.03125 
Q 35.15625 53.03125 39.296875 51.46875 
Q 43.453125 49.90625 45.40625 47.53125 
Q 47.359375 45.171875 48.140625 41.546875 
Q 48.578125 39.3125 48.578125 33.453125 
L 48.578125 21.734375 
Q 48.578125 9.46875 49.140625 6.21875 
Q 49.703125 2.984375 51.375 0 
L 42.1875 0 
Q 40.828125 2.734375 40.4375 6.390625 
z
M 39.703125 26.03125 
Q 34.90625 24.078125 25.34375 22.703125 
Q 19.921875 21.921875 17.671875 20.9375 
Q 15.4375 19.96875 14.203125 18.09375 
Q 12.984375 16.21875 12.984375 13.921875 
Q 12.984375 10.40625 15.640625 8.0625 
Q 18.3125 5.71875 23.4375 5.71875 
Q 28.515625 5.71875 32.46875 7.9375 
Q 36.421875 10.15625 38.28125 14.015625 
Q 39.703125 17 39.703125 22.796875 
z
" id="ArialMT-97"/>
      <path d="M 6.59375 0 
L 6.59375 51.859375 
L 14.453125 51.859375 
L 14.453125 44.578125 
Q 16.890625 48.390625 20.9375 50.703125 
Q 25 53.03125 30.171875 53.03125 
Q 35.9375 53.03125 39.625 50.640625 
Q 43.3125 48.25 44.828125 43.953125 
Q 50.984375 53.03125 60.84375 53.03125 
Q 68.5625 53.03125 72.703125 48.75 
Q 76.859375 44.484375 76.859375 35.59375 
L 76.859375 0 
L 68.109375 0 
L 68.109375 32.671875 
Q 68.109375 37.9375 67.25 40.25 
Q 66.40625 42.578125 64.15625 43.984375 
Q 61.921875 45.40625 58.890625 45.40625 
Q 53.421875 45.40625 49.796875 41.765625 
Q 46.1875 38.140625 46.1875 30.125 
L 46.1875 0 
L 37.40625 0 
L 37.40625 33.6875 
Q 37.40625 39.546875 35.25 42.46875 
Q 33.109375 45.40625 28.21875 45.40625 
Q 24.515625 45.40625 21.359375 43.453125 
Q 18.21875 41.5 16.796875 37.734375 
Q 15.375 33.984375 15.375 26.90625 
L 15.375 0 
z
" id="ArialMT-109"/>
      <path d="M 6.59375 -19.875 
L 6.59375 51.859375 
L 14.59375 51.859375 
L 14.59375 45.125 
Q 17.4375 49.078125 21 51.046875 
Q 24.5625 53.03125 29.640625 53.03125 
Q 36.28125 53.03125 41.359375 49.609375 
Q 46.4375 46.1875 49.015625 39.953125 
Q 51.609375 33.734375 51.609375 26.3125 
Q 51.609375 18.359375 48.75 11.984375 
Q 45.90625 5.609375 40.453125 2.21875 
Q 35.015625 -1.171875 29 -1.171875 
Q 24.609375 -1.171875 21.109375 0.6875 
Q 17.625 2.546875 15.375 5.375 
L 15.375 -19.875 
z
M 14.546875 25.640625 
Q 14.546875 15.625 18.59375 10.84375 
Q 22.65625 6.0625 28.421875 6.0625 
Q 34.28125 6.0625 38.453125 11.015625 
Q 42.625 15.96875 42.625 26.375 
Q 42.625 36.28125 38.546875 41.203125 
Q 34.46875 46.140625 28.8125 46.140625 
Q 23.1875 46.140625 18.859375 40.890625 
Q 14.546875 35.640625 14.546875 25.640625 
z
" id="ArialMT-112"/>
      <path d="M 6.390625 0 
L 6.390625 71.578125 
L 15.1875 71.578125 
L 15.1875 0 
z
" id="ArialMT-108"/>
      <path d="M 42.09375 16.703125 
L 51.171875 15.578125 
Q 49.03125 7.625 43.21875 3.21875 
Q 37.40625 -1.171875 28.375 -1.171875 
Q 17 -1.171875 10.328125 5.828125 
Q 3.65625 12.84375 3.65625 25.484375 
Q 3.65625 38.578125 10.390625 45.796875 
Q 17.140625 53.03125 27.875 53.03125 
Q 38.28125 53.03125 44.875 45.953125 
Q 51.46875 38.875 51.46875 26.03125 
Q 51.46875 25.25 51.421875 23.6875 
L 12.75 23.6875 
Q 13.234375 15.140625 17.578125 10.59375 
Q 21.921875 6.0625 28.421875 6.0625 
Q 33.25 6.0625 36.671875 8.59375 
Q 40.09375 11.140625 42.09375 16.703125 
z
M 13.234375 30.90625 
L 42.1875 30.90625 
Q 41.609375 37.453125 38.875 40.71875 
Q 34.671875 45.796875 27.984375 45.796875 
Q 21.921875 45.796875 17.796875 41.75 
Q 13.671875 37.703125 13.234375 30.90625 
z
" id="ArialMT-101"/>
     </defs>
     <g transform="translate(541.254531 305.705)scale(0.26 -0.26)">
      <use xlink:href="#ArialMT-35"/>
      <use x="55.615234" xlink:href="#ArialMT-32"/>
      <use x="83.398438" xlink:href="#ArialMT-115"/>
      <use x="133.398438" xlink:href="#ArialMT-97"/>
      <use x="189.013672" xlink:href="#ArialMT-109"/>
      <use x="272.314453" xlink:href="#ArialMT-112"/>
      <use x="327.929688" xlink:href="#ArialMT-108"/>
      <use x="350.146484" xlink:href="#ArialMT-101"/>
     </g>
    </g>
   </g>
   <g id="matplotlib.axis_2">
    <g id="ytick_1">
     <g id="line2d_7">
      <path clip-path="url(#pe40a4e3c0a)" d="M 180 241.784153 
L 1008 241.784153 
" style="fill:none;stroke:#b0b0b0;stroke-linecap:square;stroke-width:0.8;"/>
     </g>
     <g id="line2d_8">
      <defs>
       <path d="M 0 0 
L -3.5 0 
" id="m08f8a2059e" style="stroke:#000000;stroke-width:0.8;"/>
      </defs>
      <g>
       <use style="stroke:#000000;stroke-width:0.8;" x="180" xlink:href="#m08f8a2059e" y="241.784153"/>
      </g>
     </g>
     <g id="text_5">
      <!-- 20.0 -->
      <defs>
       <path d="M 9.078125 0 
L 9.078125 10.015625 
L 19.09375 10.015625 
L 19.09375 0 
z
" id="ArialMT-46"/>
      </defs>
      <g transform="translate(122.401562 251.089309)scale(0.26 -0.26)">
       <use xlink:href="#ArialMT-50"/>
       <use x="55.615234" xlink:href="#ArialMT-48"/>
       <use x="111.230469" xlink:href="#ArialMT-46"/>
       <use x="139.013672" xlink:href="#ArialMT-48"/>
      </g>
     </g>
    </g>
    <g id="ytick_2">
     <g id="line2d_9">
      <path clip-path="url(#pe40a4e3c0a)" d="M 180 181.585526 
L 1008 181.585526 
" style="fill:none;stroke:#b0b0b0;stroke-linecap:square;stroke-width:0.8;"/>
     </g>
     <g id="line2d_10">
      <g>
       <use style="stroke:#000000;stroke-width:0.8;" x="180" xlink:href="#m08f8a2059e" y="181.585526"/>
      </g>
     </g>
     <g id="text_6">
      <!-- 22.5 -->
      <defs>
       <path d="M 4.15625 18.75 
L 13.375 19.53125 
Q 14.40625 12.796875 18.140625 9.390625 
Q 21.875 6 27.15625 6 
Q 33.5 6 37.890625 10.78125 
Q 42.28125 15.578125 42.28125 23.484375 
Q 42.28125 31 38.0625 35.34375 
Q 33.84375 39.703125 27 39.703125 
Q 22.75 39.703125 19.328125 37.765625 
Q 15.921875 35.84375 13.96875 32.765625 
L 5.71875 33.84375 
L 12.640625 70.609375 
L 48.25 70.609375 
L 48.25 62.203125 
L 19.671875 62.203125 
L 15.828125 42.96875 
Q 22.265625 47.46875 29.34375 47.46875 
Q 38.71875 47.46875 45.15625 40.96875 
Q 51.609375 34.46875 51.609375 24.265625 
Q 51.609375 14.546875 45.953125 7.46875 
Q 39.0625 -1.21875 27.15625 -1.21875 
Q 17.390625 -1.21875 11.203125 4.25 
Q 5.03125 9.71875 4.15625 18.75 
z
" id="ArialMT-53"/>
      </defs>
      <g transform="translate(122.401562 190.890683)scale(0.26 -0.26)">
       <use xlink:href="#ArialMT-50"/>
       <use x="55.615234" xlink:href="#ArialMT-50"/>
       <use x="111.230469" xlink:href="#ArialMT-46"/>
       <use x="139.013672" xlink:href="#ArialMT-53"/>
      </g>
     </g>
    </g>
    <g id="ytick_3">
     <g id="line2d_11">
      <path clip-path="url(#pe40a4e3c0a)" d="M 180 121.3869 
L 1008 121.3869 
" style="fill:none;stroke:#b0b0b0;stroke-linecap:square;stroke-width:0.8;"/>
     </g>
     <g id="line2d_12">
      <g>
       <use style="stroke:#000000;stroke-width:0.8;" x="180" xlink:href="#m08f8a2059e" y="121.3869"/>
      </g>
     </g>
     <g id="text_7">
      <!-- 25.0 -->
      <g transform="translate(122.401562 130.692056)scale(0.26 -0.26)">
       <use xlink:href="#ArialMT-50"/>
       <use x="55.615234" xlink:href="#ArialMT-53"/>
       <use x="111.230469" xlink:href="#ArialMT-46"/>
       <use x="139.013672" xlink:href="#ArialMT-48"/>
      </g>
     </g>
    </g>
    <g id="ytick_4">
     <g id="line2d_13">
      <path clip-path="url(#pe40a4e3c0a)" d="M 180 61.188273 
L 1008 61.188273 
" style="fill:none;stroke:#b0b0b0;stroke-linecap:square;stroke-width:0.8;"/>
     </g>
     <g id="line2d_14">
      <g>
       <use style="stroke:#000000;stroke-width:0.8;" x="180" xlink:href="#m08f8a2059e" y="61.188273"/>
      </g>
     </g>
     <g id="text_8">
      <!-- 27.5 -->
      <defs>
       <path d="M 4.734375 62.203125 
L 4.734375 70.65625 
L 51.078125 70.65625 
L 51.078125 63.8125 
Q 44.234375 56.546875 37.515625 44.484375 
Q 30.8125 32.421875 27.15625 19.671875 
Q 24.515625 10.6875 23.78125 0 
L 14.75 0 
Q 14.890625 8.453125 18.0625 20.40625 
Q 21.234375 32.375 27.171875 43.484375 
Q 33.109375 54.59375 39.796875 62.203125 
z
" id="ArialMT-55"/>
      </defs>
      <g transform="translate(122.401562 70.493429)scale(0.26 -0.26)">
       <use xlink:href="#ArialMT-50"/>
       <use x="55.615234" xlink:href="#ArialMT-55"/>
       <use x="111.230469" xlink:href="#ArialMT-46"/>
       <use x="139.013672" xlink:href="#ArialMT-53"/>
      </g>
     </g>
    </g>
    <g id="text_9">
     <!-- phase velocity -->
     <defs>
      <path d="M 6.59375 0 
L 6.59375 71.578125 
L 15.375 71.578125 
L 15.375 45.90625 
Q 21.53125 53.03125 30.90625 53.03125 
Q 36.671875 53.03125 40.921875 50.75 
Q 45.171875 48.484375 47 44.484375 
Q 48.828125 40.484375 48.828125 32.859375 
L 48.828125 0 
L 40.046875 0 
L 40.046875 32.859375 
Q 40.046875 39.453125 37.1875 42.453125 
Q 34.328125 45.453125 29.109375 45.453125 
Q 25.203125 45.453125 21.75 43.421875 
Q 18.3125 41.40625 16.84375 37.9375 
Q 15.375 34.46875 15.375 28.375 
L 15.375 0 
z
" id="ArialMT-104"/>
      <path d="M 21 0 
L 1.265625 51.859375 
L 10.546875 51.859375 
L 21.6875 20.796875 
Q 23.484375 15.765625 25 10.359375 
Q 26.171875 14.453125 28.265625 20.21875 
L 39.796875 51.859375 
L 48.828125 51.859375 
L 29.203125 0 
z
" id="ArialMT-118"/>
      <path d="M 3.328125 25.921875 
Q 3.328125 40.328125 11.328125 47.265625 
Q 18.015625 53.03125 27.640625 53.03125 
Q 38.328125 53.03125 45.109375 46.015625 
Q 51.90625 39.015625 51.90625 26.65625 
Q 51.90625 16.65625 48.90625 10.90625 
Q 45.90625 5.171875 40.15625 2 
Q 34.421875 -1.171875 27.640625 -1.171875 
Q 16.75 -1.171875 10.03125 5.8125 
Q 3.328125 12.796875 3.328125 25.921875 
z
M 12.359375 25.921875 
Q 12.359375 15.96875 16.703125 11.015625 
Q 21.046875 6.0625 27.640625 6.0625 
Q 34.1875 6.0625 38.53125 11.03125 
Q 42.875 16.015625 42.875 26.21875 
Q 42.875 35.84375 38.5 40.796875 
Q 34.125 45.75 27.640625 45.75 
Q 21.046875 45.75 16.703125 40.8125 
Q 12.359375 35.890625 12.359375 25.921875 
z
" id="ArialMT-111"/>
      <path d="M 40.4375 19 
L 49.078125 17.875 
Q 47.65625 8.9375 41.8125 3.875 
Q 35.984375 -1.171875 27.484375 -1.171875 
Q 16.84375 -1.171875 10.375 5.78125 
Q 3.90625 12.75 3.90625 25.734375 
Q 3.90625 34.125 6.6875 40.421875 
Q 9.46875 46.734375 15.15625 49.875 
Q 20.84375 53.03125 27.546875 53.03125 
Q 35.984375 53.03125 41.359375 48.75 
Q 46.734375 44.484375 48.25 36.625 
L 39.703125 35.296875 
Q 38.484375 40.53125 35.375 43.15625 
Q 32.28125 45.796875 27.875 45.796875 
Q 21.234375 45.796875 17.078125 41.03125 
Q 12.9375 36.28125 12.9375 25.984375 
Q 12.9375 15.53125 16.9375 10.796875 
Q 20.953125 6.0625 27.390625 6.0625 
Q 32.5625 6.0625 36.03125 9.234375 
Q 39.5 12.40625 40.4375 19 
z
" id="ArialMT-99"/>
      <path d="M 6.640625 61.46875 
L 6.640625 71.578125 
L 15.4375 71.578125 
L 15.4375 61.46875 
z
M 6.640625 0 
L 6.640625 51.859375 
L 15.4375 51.859375 
L 15.4375 0 
z
" id="ArialMT-105"/>
      <path d="M 25.78125 7.859375 
L 27.046875 0.09375 
Q 23.34375 -0.6875 20.40625 -0.6875 
Q 15.625 -0.6875 12.984375 0.828125 
Q 10.359375 2.34375 9.28125 4.8125 
Q 8.203125 7.28125 8.203125 15.1875 
L 8.203125 45.015625 
L 1.765625 45.015625 
L 1.765625 51.859375 
L 8.203125 51.859375 
L 8.203125 64.703125 
L 16.9375 69.96875 
L 16.9375 51.859375 
L 25.78125 51.859375 
L 25.78125 45.015625 
L 16.9375 45.015625 
L 16.9375 14.703125 
Q 16.9375 10.9375 17.40625 9.859375 
Q 17.875 8.796875 18.921875 8.15625 
Q 19.96875 7.515625 21.921875 7.515625 
Q 23.390625 7.515625 25.78125 7.859375 
z
" id="ArialMT-116"/>
      <path d="M 6.203125 -19.96875 
L 5.21875 -11.71875 
Q 8.109375 -12.5 10.25 -12.5 
Q 13.1875 -12.5 14.9375 -11.515625 
Q 16.703125 -10.546875 17.828125 -8.796875 
Q 18.65625 -7.46875 20.515625 -2.25 
Q 20.75 -1.515625 21.296875 -0.09375 
L 1.609375 51.859375 
L 11.078125 51.859375 
L 21.875 21.828125 
Q 23.96875 16.109375 25.640625 9.8125 
Q 27.15625 15.875 29.25 21.625 
L 40.328125 51.859375 
L 49.125 51.859375 
L 29.390625 -0.875 
Q 26.21875 -9.421875 24.46875 -12.640625 
Q 22.125 -17 19.09375 -19.015625 
Q 16.0625 -21.046875 11.859375 -21.046875 
Q 9.328125 -21.046875 6.203125 -19.96875 
z
" id="ArialMT-121"/>
     </defs>
     <g transform="translate(112.929375 225.655313)rotate(-90)scale(0.26 -0.26)">
      <use xlink:href="#ArialMT-112"/>
      <use x="55.615234" xlink:href="#ArialMT-104"/>
      <use x="111.230469" xlink:href="#ArialMT-97"/>
      <use x="166.845703" xlink:href="#ArialMT-115"/>
      <use x="216.845703" xlink:href="#ArialMT-101"/>
      <use x="272.460938" xlink:href="#ArialMT-32"/>
      <use x="300.244141" xlink:href="#ArialMT-118"/>
      <use x="350.244141" xlink:href="#ArialMT-101"/>
      <use x="405.859375" xlink:href="#ArialMT-108"/>
      <use x="428.076172" xlink:href="#ArialMT-111"/>
      <use x="483.691406" xlink:href="#ArialMT-99"/>
      <use x="533.691406" xlink:href="#ArialMT-105"/>
      <use x="555.908203" xlink:href="#ArialMT-116"/>
      <use x="583.691406" xlink:href="#ArialMT-121"/>
     </g>
    </g>
   </g>
   <g id="line2d_15">
    <path clip-path="url(#pe40a4e3c0a)" d="M 217.636364 44.443636 
L 970.363636 44.443636 
L 970.363636 44.443636 
" style="fill:none;stroke:#1f77b4;stroke-linecap:square;stroke-width:1.5;"/>
   </g>
   <g id="line2d_16">
    <path clip-path="url(#pe40a4e3c0a)" d="M 217.636364 227.682055 
L 218.012821 227.832085 
L 218.577508 228.360966 
L 219.142195 229.234445 
L 219.89511 230.861621 
L 221.024483 233.992446 
L 222.906772 239.391684 
L 223.659688 240.962576 
L 224.224374 241.731541 
L 224.789061 242.092202 
L 225.165519 242.091632 
L 225.541976 241.897686 
L 226.106663 241.255964 
L 226.67135 240.237891 
L 227.424265 238.413146 
L 228.930096 233.96164 
L 230.247698 230.372414 
L 231.000614 228.877691 
L 231.5653 228.125859 
L 232.129987 227.728686 
L 232.506445 227.670671 
L 232.882903 227.779714 
L 233.447589 228.249303 
L 234.012276 229.067634 
L 234.765191 230.634391 
L 235.706336 233.166084 
L 238.153311 240.047932 
L 238.906227 241.395722 
L 239.470913 241.965781 
L 239.847371 242.110407 
L 240.223829 242.061489 
L 240.600286 241.81955 
L 241.164973 241.112969 
L 241.72966 240.037481 
L 242.670804 237.626427 
L 245.494237 229.757381 
L 246.247153 228.46346 
L 246.811839 227.884194 
L 247.376526 227.669635 
L 247.752984 227.73538 
L 248.31767 228.143044 
L 248.882357 228.904593 
L 249.635272 230.407007 
L 250.576417 232.883791 
L 253.211621 240.246804 
L 253.964537 241.517451 
L 254.529223 242.019041 
L 254.905681 242.116364 
L 255.282139 242.019422 
L 255.658596 241.731301 
L 256.223283 240.959842 
L 256.976199 239.385978 
L 257.917343 236.811897 
L 260.176089 230.383743 
L 260.929005 228.88347 
L 261.493692 228.128678 
L 262.058378 227.729211 
L 262.434836 227.670542 
L 262.811294 227.77886 
L 263.37598 228.248383 
L 263.940667 229.066292 
L 264.693582 230.631449 
L 265.634727 233.15626 
L 268.081702 240.04261 
L 268.834618 241.393654 
L 269.399304 241.964438 
L 269.775762 242.110168 
L 270.15222 242.061877 
L 270.528678 241.820343 
L 271.093364 241.114192 
L 271.658051 240.041678 
L 272.599195 237.637341 
L 275.422628 229.760895 
L 276.175544 228.466732 
L 276.740231 227.884635 
L 277.304917 227.669729 
L 277.681375 227.734613 
L 278.246062 228.142374 
L 278.810748 228.90357 
L 279.563664 230.407661 
L 280.504808 232.887271 
L 283.140012 240.246985 
L 283.892928 241.518052 
L 284.457614 242.019228 
L 284.834072 242.116363 
L 285.21053 242.018691 
L 285.586988 241.730055 
L 286.151674 240.958762 
L 286.90459 239.382403 
L 287.845734 236.804603 
L 290.104481 230.369767 
L 290.857396 228.875371 
L 291.422083 228.124055 
L 291.986769 227.728351 
L 292.363227 227.670685 
L 292.739685 227.779762 
L 293.304372 228.250938 
L 293.869058 229.071296 
L 294.621974 230.641017 
L 295.563118 233.171756 
L 298.010093 240.059621 
L 298.763009 241.403906 
L 299.327696 241.969218 
L 299.704153 242.111123 
L 300.080611 242.059015 
L 300.457069 241.813948 
L 301.021755 241.103512 
L 301.586442 240.023807 
L 302.527586 237.610289 
L 305.35102 229.742441 
L 306.103935 228.452085 
L 306.668622 227.877476 
L 307.233308 227.66928 
L 307.609766 227.73884 
L 308.174453 228.152774 
L 308.739139 228.919351 
L 309.492055 230.429189 
L 310.433199 232.908459 
L 313.068403 240.265716 
L 313.821319 241.529328 
L 314.386006 242.023797 
L 314.762463 242.116316 
L 315.138921 242.015145 
L 315.515379 241.721873 
L 316.080065 240.943335 
L 316.832981 239.361437 
L 317.962354 236.217891 
L 319.844643 230.802587 
L 320.597558 229.188193 
L 321.350474 228.11846 
L 321.915161 227.726045 
L 322.291618 227.671152 
L 322.668076 227.783615 
L 323.232763 228.259222 
L 323.797449 229.083627 
L 324.550365 230.65663 
L 325.491509 233.189273 
L 327.938485 240.074327 
L 328.6914 241.412101 
L 329.256087 241.973347 
L 329.632544 242.111784 
L 330.009002 242.056949 
L 330.38546 241.809832 
L 330.950147 241.095359 
L 331.703062 239.584501 
L 332.644207 237.050288 
L 335.091182 230.137707 
L 335.844097 228.7175 
L 336.408784 228.027254 
L 336.973471 227.696737 
L 337.349928 227.683451 
L 337.726386 227.836736 
L 338.291073 228.370617 
L 338.855759 229.247639 
L 339.608675 230.881179 
L 340.738048 234.022187 
L 342.620337 239.415122 
L 343.373252 240.97712 
L 343.937939 241.739915 
L 344.502626 242.09422 
L 344.879083 242.089743 
L 345.255541 241.892518 
L 345.820228 241.248325 
L 346.384914 240.227644 
L 347.13783 238.395566 
L 348.643661 233.940349 
L 349.961263 230.357185 
L 350.714179 228.867281 
L 351.278865 228.119035 
L 351.843552 227.726322 
L 352.22001 227.67114 
L 352.596467 227.783292 
L 353.161154 228.25927 
L 353.725841 229.081193 
L 354.478756 230.650685 
L 355.4199 233.184777 
L 357.866876 240.066373 
L 358.619791 241.408354 
L 359.184478 241.971244 
L 359.560936 242.111572 
L 359.937393 242.057462 
L 360.313851 241.809469 
L 360.878538 241.094408 
L 361.443224 240.015152 
L 362.384369 237.597905 
L 365.207802 229.739358 
L 365.960717 228.452283 
L 366.525404 227.877396 
L 367.090091 227.669239 
L 367.466548 227.738868 
L 368.031235 228.152292 
L 368.595922 228.918693 
L 369.348837 230.42736 
L 370.289982 232.908718 
L 372.925186 240.26541 
L 373.678101 241.529739 
L 374.242788 242.024065 
L 374.619246 242.1163 
L 374.995703 242.014088 
L 375.372161 241.720787 
L 375.936848 240.943249 
L 376.689763 239.363866 
L 377.630908 236.788851 
L 379.889654 230.364231 
L 380.64257 228.871377 
L 381.207256 228.121454 
L 381.771943 227.727232 
L 382.148401 227.670872 
L 382.524858 227.78133 
L 383.089545 228.254092 
L 383.654232 229.07577 
L 384.407147 230.64562 
L 385.348292 233.178955 
L 387.795267 240.057953 
L 388.548183 241.402165 
L 389.112869 241.968329 
L 389.489327 242.110926 
L 389.865785 242.059868 
L 390.242242 241.815876 
L 390.806929 241.107181 
L 391.559845 239.601603 
L 392.500989 237.074844 
L 394.947964 230.155103 
L 395.70088 228.726997 
L 396.265566 228.033483 
L 396.830253 227.698165 
L 397.206711 227.682512 
L 397.583169 227.8332 
L 398.147855 228.365424 
L 398.712542 229.242527 
L 399.465457 230.872084 
L 400.594831 234.007492 
L 402.477119 239.403151 
L 403.230035 240.96938 
L 403.794721 241.735062 
L 404.359408 242.092999 
L 404.735866 242.091149 
L 405.112324 241.895699 
L 405.67701 241.254188 
L 406.241697 240.233623 
L 406.994612 238.407462 
L 408.500443 233.954073 
L 409.818045 230.366845 
L 410.570961 228.87342 
L 411.135648 228.123665 
L 411.700334 227.728433 
L 412.076792 227.670678 
L 412.45325 227.780427 
L 413.017936 228.251752 
L 413.582623 229.072178 
L 414.335538 230.640046 
L 415.464912 233.727519 
L 417.535429 239.624419 
L 418.288345 241.120675 
L 418.853031 241.823512 
L 419.229489 242.062811 
L 419.605947 242.109898 
L 419.982405 241.963138 
L 420.547091 241.389565 
L 421.111778 240.430101 
L 421.864693 238.664974 
L 423.182296 234.816365 
L 424.688127 230.601915 
L 425.441042 229.042943 
L 426.005729 228.23257 
L 426.570415 227.771514 
L 426.946873 227.669675 
L 427.323331 227.735371 
L 427.888017 228.142713 
L 428.452704 228.904862 
L 429.20562 230.405892 
L 430.146764 232.882464 
L 432.781968 240.246674 
L 433.534884 241.518321 
L 434.09957 242.018905 
L 434.476028 242.116363 
L 434.852486 242.019557 
L 435.228944 241.732728 
L 435.79363 240.963688 
L 436.546546 239.390917 
L 437.48769 236.816185 
L 439.746437 230.385387 
L 440.499352 228.886601 
L 441.064039 228.131213 
L 441.628725 227.73066 
L 442.005183 227.670351 
L 442.381641 227.7777 
L 442.946327 228.245602 
L 443.511014 229.062851 
L 444.26393 230.627257 
L 445.393303 233.708794 
L 447.463821 239.614277 
L 448.216736 241.114324 
L 448.781423 241.819606 
L 449.15788 242.061174 
L 449.534338 242.110347 
L 449.910796 241.965448 
L 450.475483 241.395447 
L 451.040169 240.436923 
L 451.793085 238.67201 
L 453.110687 234.829171 
L 454.616518 230.609119 
L 455.369433 229.04525 
L 455.93412 228.233078 
L 456.498807 227.771433 
L 456.875264 227.669733 
L 457.251722 227.734893 
L 457.816409 228.142632 
L 458.381095 228.903532 
L 459.134011 230.406474 
L 460.075155 232.885718 
L 462.710359 240.245693 
L 463.463275 241.516763 
L 464.027962 242.019342 
L 464.404419 242.116364 
L 464.780877 242.019117 
L 465.157335 241.731198 
L 465.722021 240.961844 
L 466.474937 239.389638 
L 467.416081 236.812414 
L 469.674828 230.378708 
L 470.427743 228.8823 
L 470.99243 228.128677 
L 471.557117 227.729741 
L 471.933574 227.670472 
L 472.310032 227.778348 
L 472.874719 228.246819 
L 473.439405 229.063202 
L 474.192321 230.627163 
L 475.133465 233.155034 
L 477.580441 240.040836 
L 478.333356 241.392148 
L 478.898043 241.9647 
L 479.2745 242.11024 
L 479.650958 242.061676 
L 480.027416 241.820471 
L 480.592103 241.115686 
L 481.156789 240.042633 
L 482.097934 237.636204 
L 484.921367 229.757435 
L 485.674282 228.460926 
L 486.238969 227.882944 
L 486.803655 227.669554 
L 487.180113 227.736047 
L 487.7448 228.145349 
L 488.309486 228.908277 
L 489.062402 230.415544 
L 490.003546 232.892609 
L 492.638751 240.254093 
L 493.391666 241.52263 
L 493.956353 242.021759 
L 494.33281 242.116349 
L 494.709268 242.016525 
L 495.085726 241.72528 
L 495.650413 240.951424 
L 496.403328 239.376351 
L 497.344472 236.796155 
L 499.603219 230.364117 
L 500.356134 228.86943 
L 500.920821 228.121353 
L 501.485508 227.727006 
L 501.861965 227.670945 
L 502.238423 227.781627 
L 502.80311 228.254676 
L 503.367796 229.076963 
L 504.120712 230.646217 
L 505.061856 233.178017 
L 507.508832 240.060782 
L 508.261747 241.403428 
L 508.826434 241.969324 
L 509.202892 242.111165 
L 509.579349 242.058905 
L 509.955807 241.813746 
L 510.520494 241.103042 
L 511.273409 239.597246 
L 512.214554 237.067748 
L 514.661529 230.154275 
L 515.414445 228.725198 
L 515.979131 228.031406 
L 516.543818 227.697698 
L 516.920276 227.682772 
L 517.296733 227.83409 
L 517.86142 228.367408 
L 518.426107 229.243203 
L 519.179022 230.874418 
L 520.308395 234.009967 
L 522.190684 239.410001 
L 522.9436 240.974131 
L 523.508286 241.738489 
L 524.072973 242.093941 
L 524.449431 242.090163 
L 524.825888 241.892808 
L 525.390575 241.248813 
L 525.955262 240.227194 
L 526.708177 238.394099 
L 528.214008 233.94014 
L 529.53161 230.357235 
L 530.284526 228.866919 
L 530.849212 228.117829 
L 531.413899 227.725952 
L 531.790357 227.671133 
L 532.166814 227.783057 
L 532.731501 228.257761 
L 533.296188 229.078821 
L 534.049103 230.647305 
L 534.990248 233.17584 
L 537.437223 240.055514 
L 538.190138 241.401109 
L 538.754825 241.967719 
L 539.131283 242.110785 
L 539.507741 242.060552 
L 539.884198 241.818144 
L 540.448885 241.11141 
L 541.013572 240.036212 
L 541.954716 237.625424 
L 544.778149 229.755599 
L 545.531065 228.460723 
L 546.095751 227.882605 
L 546.660438 227.669569 
L 547.036896 227.736204 
L 547.601582 228.144745 
L 548.166269 228.904842 
L 548.919184 230.404982 
L 549.860329 232.886178 
L 552.495533 240.24668 
L 553.248448 241.517354 
L 553.813135 242.018854 
L 554.189593 242.116363 
L 554.566051 242.019893 
L 554.942508 241.731733 
L 555.507195 240.96109 
L 556.26011 239.390538 
L 557.389484 236.255171 
L 559.271772 230.832316 
L 560.024688 229.210854 
L 560.589375 228.344016 
L 561.154061 227.822783 
L 561.530519 227.679459 
L 561.906977 227.702998 
L 562.283434 227.892847 
L 562.848121 228.479731 
L 563.412808 229.405527 
L 564.165723 231.0897 
L 565.295097 234.271118 
L 567.177385 239.615815 
L 567.930301 241.11417 
L 568.494987 241.818674 
L 568.871445 242.060751 
L 569.247903 242.110646 
L 569.624361 241.966432 
L 570.189047 241.39663 
L 570.753734 240.440391 
L 571.506649 238.672396 
L 572.824252 234.826376 
L 574.330083 230.602844 
L 575.082998 229.043154 
L 575.647685 228.231214 
L 576.212371 227.77124 
L 576.588829 227.669702 
L 576.965287 227.734728 
L 577.529973 228.141529 
L 578.09466 228.900752 
L 578.847576 230.399045 
L 579.78872 232.87159 
L 582.423924 240.233579 
L 583.17684 241.511219 
L 583.741526 242.016698 
L 584.117984 242.116351 
L 584.494442 242.021308 
L 584.8709 241.734828 
L 585.435586 240.965269 
L 586.188502 239.392912 
L 587.129646 236.81735 
L 589.388393 230.391397 
L 590.141308 228.893328 
L 590.705995 228.134239 
L 591.270681 227.732006 
L 591.647139 227.670066 
L 592.023597 227.77504 
L 592.588283 228.240478 
L 593.15297 229.054281 
L 593.905886 230.614393 
L 595.035259 233.695674 
L 597.105776 239.603241 
L 597.858692 241.105026 
L 598.423379 241.814167 
L 598.799836 242.058909 
L 599.176294 242.111139 
L 599.552752 241.968881 
L 600.117438 241.40356 
L 600.682125 240.450607 
L 601.435041 238.686674 
L 602.752643 234.841312 
L 604.258474 230.61855 
L 605.011389 229.051569 
L 605.576076 228.239032 
L 606.140762 227.773785 
L 606.51722 227.669934 
L 606.893678 227.733215 
L 607.458365 228.1376 
L 608.023051 228.896996 
L 608.775967 230.395864 
L 609.717111 232.869792 
L 612.352315 240.232704 
L 613.105231 241.509072 
L 613.669917 242.015468 
L 614.046375 242.116322 
L 614.422833 242.023423 
L 614.799291 241.738658 
L 615.363977 240.974194 
L 616.116893 239.409007 
L 617.058037 236.835512 
L 619.316784 230.397749 
L 620.069699 228.895819 
L 620.634386 228.136298 
L 621.199072 227.732934 
L 621.57553 227.669945 
L 621.951988 227.773895 
L 622.516675 228.237675 
L 623.081361 229.051127 
L 623.834277 230.610124 
L 624.775421 233.134905 
L 627.222397 240.028989 
L 627.975312 241.38499 
L 628.539999 241.960389 
L 628.916456 242.109241 
L 629.292914 242.064743 
L 629.669372 241.827959 
L 630.234059 241.129204 
L 630.798745 240.061186 
L 631.73989 237.661628 
L 634.563323 229.781065 
L 635.316238 228.476878 
L 635.880925 227.889554 
L 636.445611 227.670112 
L 636.822069 227.731738 
L 637.386756 228.133739 
L 637.951442 228.889157 
L 638.704358 230.386582 
L 639.645502 232.858733 
L 642.280707 240.225455 
L 643.033622 241.505104 
L 643.598309 242.013745 
L 643.974766 242.116285 
L 644.351224 242.024741 
L 644.727682 241.742655 
L 645.292369 240.978308 
L 646.045284 239.415191 
L 646.986428 236.848175 
L 649.245175 230.408361 
L 649.99809 228.905104 
L 650.562777 228.141973 
L 651.127464 227.734898 
L 651.503921 227.669718 
L 651.880379 227.771429 
L 652.445066 228.231075 
L 653.009752 229.03966 
L 653.762668 230.594162 
L 654.703812 233.113131 
L 657.150788 240.014646 
L 657.903703 241.376777 
L 658.46839 241.955567 
L 658.844848 242.108305 
L 659.221305 242.067003 
L 659.597763 241.833715 
L 660.16245 241.137965 
L 660.727136 240.072243 
L 661.668281 237.672634 
L 664.491714 229.787683 
L 665.244629 228.481151 
L 665.809316 227.892871 
L 666.374003 227.670373 
L 666.75046 227.730428 
L 667.315147 228.12941 
L 667.879834 228.882566 
L 668.632749 230.377756 
L 669.573893 232.848357 
L 672.209098 240.22019 
L 672.962013 241.501065 
L 673.5267 242.012022 
L 673.903158 242.116234 
L 674.279615 242.025846 
L 674.656073 241.744335 
L 675.22076 240.983034 
L 675.973675 239.419832 
L 676.91482 236.850876 
L 679.173566 230.40732 
L 679.926482 228.901219 
L 680.491168 228.139827 
L 681.055855 227.733808 
L 681.432313 227.669815 
L 681.80877 227.772662 
L 682.373457 228.23564 
L 682.938144 229.04788 
L 683.691059 230.607021 
L 684.632204 233.128817 
L 687.079179 240.026395 
L 687.832094 241.382507 
L 688.396781 241.959491 
L 688.773239 242.109316 
L 689.149697 242.064409 
L 689.526154 241.827123 
L 690.090841 241.126094 
L 690.655528 240.057837 
L 691.596672 237.657267 
L 694.420105 229.781546 
L 695.173021 228.476596 
L 695.737707 227.891059 
L 696.302394 227.670157 
L 696.678852 227.731507 
L 697.243538 228.132843 
L 697.808225 228.887883 
L 698.56114 230.38448 
L 699.502285 232.857751 
L 702.137489 240.2288 
L 702.890404 241.507168 
L 703.455091 242.01506 
L 703.831549 242.116318 
L 704.208007 242.023639 
L 704.584464 241.740337 
L 705.149151 240.974534 
L 705.902066 239.410853 
L 706.843211 236.839043 
L 709.101957 230.403508 
L 709.854873 228.898898 
L 710.419559 228.137661 
L 710.984246 227.733224 
L 711.360704 227.669913 
L 711.737162 227.773639 
L 712.301848 228.237985 
L 712.866535 229.051807 
L 713.61945 230.613763 
L 714.560595 233.138744 
L 717.00757 240.029772 
L 717.760486 241.387013 
L 718.325172 241.960831 
L 718.70163 242.109433 
L 719.078088 242.064345 
L 719.454545 241.827066 
L 720.019232 241.125895 
L 720.772148 239.627967 
L 721.713292 237.107513 
L 724.160267 230.183955 
L 724.913183 228.744995 
L 725.477869 228.043017 
L 726.042556 227.701609 
L 726.419014 227.680278 
L 726.795472 227.826019 
L 727.360158 228.349638 
L 727.924845 229.216754 
L 728.67776 230.839446 
L 729.807134 233.967295 
L 731.689422 239.377655 
L 732.442338 240.951656 
L 733.007024 241.725086 
L 733.571711 242.090287 
L 733.948169 242.09371 
L 734.324627 241.903523 
L 734.889313 241.268744 
L 735.454 240.257674 
L 736.206915 238.437558 
L 737.712746 233.989334 
L 739.030348 230.395664 
L 739.783264 228.895194 
L 740.347951 228.13675 
L 740.912637 227.732617 
L 741.289095 227.669973 
L 741.665553 227.773656 
L 742.230239 228.237164 
L 742.794926 229.051192 
L 743.547842 230.612822 
L 744.488986 233.136566 
L 746.935961 240.029391 
L 747.688877 241.383973 
L 748.253563 241.960452 
L 748.630021 242.109182 
L 749.006479 242.064677 
L 749.382937 241.82657 
L 749.947623 241.126268 
L 750.51231 240.055353 
L 751.453454 237.649555 
L 754.276887 229.769983 
L 755.029803 228.469808 
L 755.59449 227.887332 
L 756.159176 227.669896 
L 756.535634 227.733319 
L 757.100321 228.137158 
L 757.665007 228.892991 
L 758.417923 230.391537 
L 759.359067 232.864963 
L 761.994271 240.233486 
L 762.747187 241.511444 
L 763.311873 242.017121 
L 763.688331 242.116348 
L 764.064789 242.021809 
L 764.441247 241.734906 
L 765.005933 240.966028 
L 765.758849 239.394504 
L 766.699993 236.816952 
L 768.95874 230.383771 
L 769.711655 228.884323 
L 770.276342 228.129468 
L 770.841028 227.730196 
L 771.217486 227.670334 
L 771.593944 227.777447 
L 772.158631 228.245669 
L 772.723317 229.062696 
L 773.476233 230.628297 
L 774.417377 233.150443 
L 776.864352 240.038048 
L 777.617268 241.389135 
L 778.181955 241.962408 
L 778.558412 242.109785 
L 778.93487 242.062982 
L 779.311328 241.823252 
L 779.876014 241.119489 
L 780.440701 240.047153 
L 781.381845 237.641568 
L 784.205279 229.761673 
L 784.958194 228.466961 
L 785.522881 227.885176 
L 786.087567 227.669766 
L 786.464025 227.734148 
L 787.028712 228.139478 
L 787.593398 228.898655 
L 788.346314 230.400362 
L 789.287458 232.877688 
L 791.922662 240.240977 
L 792.675578 241.515334 
L 793.240265 242.018315 
L 793.616722 242.116358 
L 793.99318 242.020476 
L 794.369638 241.73385 
L 794.934324 240.966015 
L 795.68724 239.393423 
L 796.628384 236.821796 
L 798.887131 230.392324 
L 799.640046 228.893944 
L 800.204733 228.135501 
L 800.76942 227.73235 
L 801.145877 227.670062 
L 801.522335 227.774727 
L 802.087022 228.238786 
L 802.651708 229.053428 
L 803.404624 230.612374 
L 804.345768 233.135247 
L 806.792744 240.028167 
L 807.545659 241.383489 
L 808.110346 241.959525 
L 808.486804 242.109305 
L 808.863261 242.064511 
L 809.239719 241.826665 
L 809.804406 241.125316 
L 810.369092 240.054044 
L 811.310237 237.651985 
L 814.13367 229.773043 
L 814.886585 228.473642 
L 815.451272 227.888647 
L 816.015959 227.670028 
L 816.392416 227.73257 
L 816.957103 228.135653 
L 817.52179 228.89362 
L 818.274705 230.391666 
L 819.215849 232.86161 
L 821.851054 240.234515 
L 822.603969 241.50965 
L 823.168656 242.016397 
L 823.545114 242.116341 
L 823.921571 242.022229 
L 824.298029 241.736177 
L 824.862716 240.967687 
L 825.615631 239.399515 
L 826.556776 236.826557 
L 828.815522 230.395606 
L 829.568438 228.892819 
L 830.133124 228.134561 
L 830.697811 227.732081 
L 831.074269 227.670053 
L 831.450726 227.775048 
L 832.015413 228.23895 
L 832.5801 229.051574 
L 833.333015 230.612076 
L 834.274159 233.137364 
L 836.721135 240.032198 
L 837.47405 241.387765 
L 838.038737 241.962471 
L 838.415195 242.109778 
L 838.791652 242.063054 
L 839.16811 241.823357 
L 839.732797 241.119563 
L 840.297483 240.047574 
L 841.238628 237.645313 
L 844.062061 229.762002 
L 844.814976 228.46345 
L 845.379663 227.883481 
L 845.94435 227.669589 
L 846.320807 227.735593 
L 846.885494 228.143531 
L 847.450181 228.90627 
L 848.203096 230.412546 
L 849.144241 232.892906 
L 851.779445 240.251955 
L 852.53236 241.520366 
L 853.097047 242.020225 
L 853.473505 242.116362 
L 853.849962 242.018206 
L 854.22642 241.728008 
L 854.791107 240.954537 
L 855.544022 239.377701 
L 856.673396 236.238331 
L 858.555684 230.82053 
L 859.3086 229.201515 
L 859.873287 228.336041 
L 860.437973 227.81927 
L 860.814431 227.678489 
L 861.190889 227.704987 
L 861.567346 227.897623 
L 862.132033 228.489895 
L 862.69672 229.419435 
L 863.449635 231.103753 
L 864.579008 234.288099 
L 866.461297 239.63092 
L 867.214213 241.126515 
L 867.778899 241.82574 
L 868.155357 242.063984 
L 868.531815 242.109366 
L 868.908273 241.960931 
L 869.472959 241.385184 
L 870.037646 240.422921 
L 870.790561 238.652266 
L 872.108163 234.797664 
L 873.613994 230.582599 
L 874.36691 229.027425 
L 874.931597 228.222539 
L 875.496283 227.766583 
L 875.872741 227.669257 
L 876.249199 227.738734 
L 876.813885 228.151876 
L 877.378572 228.919394 
L 878.131487 230.429326 
L 879.072632 232.912616 
L 881.707836 240.265352 
L 882.460752 241.528319 
L 883.025438 242.023821 
L 883.401896 242.116304 
L 883.778354 242.014666 
L 884.154811 241.722433 
L 884.719498 240.946197 
L 885.472414 239.370182 
L 886.413558 236.788879 
L 888.672304 230.360432 
L 889.42522 228.871278 
L 889.989907 228.12143 
L 890.554593 227.727066 
L 890.931051 227.670964 
L 891.307509 227.781998 
L 891.872195 228.25624 
L 892.436882 229.078878 
L 893.189797 230.648214 
L 894.130942 233.177209 
L 896.577917 240.058419 
L 897.330833 241.401736 
L 897.895519 241.968551 
L 898.271977 242.111095 
L 898.648435 242.059088 
L 899.024893 241.814043 
L 899.589579 241.103304 
L 900.154266 240.025914 
L 901.09541 237.613704 
L 903.918843 229.745331 
L 904.671759 228.454324 
L 905.236445 227.878975 
L 905.801132 227.669373 
L 906.17759 227.737812 
L 906.742276 228.149992 
L 907.306963 228.913792 
L 908.059879 230.420577 
L 909.001023 232.899441 
L 911.636227 240.255567 
L 912.389143 241.523247 
L 912.953829 242.02169 
L 913.330287 242.116347 
L 913.706745 242.016857 
L 914.083203 241.726401 
L 914.647889 240.952849 
L 915.400805 239.377546 
L 916.341949 236.799462 
L 918.600696 230.371628 
L 919.353611 228.876429 
L 919.918298 228.123875 
L 920.482984 227.728048 
L 920.859442 227.670749 
L 921.2359 227.780528 
L 921.800587 228.253705 
L 922.365273 229.07564 
L 923.118189 230.646295 
L 924.059333 233.177034 
L 926.506308 240.060268 
L 927.259224 241.404774 
L 927.823911 241.969267 
L 928.200368 242.111215 
L 928.576826 242.058761 
L 928.953284 241.813485 
L 929.51797 241.101522 
L 930.082657 240.021742 
L 931.023801 237.608326 
L 933.847235 229.73875 
L 934.60015 228.449317 
L 935.164837 227.876687 
L 935.729523 227.669219 
L 936.105981 227.739519 
L 936.670668 228.154087 
L 937.235354 228.923717 
L 937.98827 230.430792 
L 938.929414 232.914799 
L 941.37639 239.860724 
L 942.129305 241.276011 
L 942.693992 241.906293 
L 943.070449 242.09463 
L 943.446907 242.089441 
L 943.823365 241.89094 
L 944.388052 241.245895 
L 944.952738 240.22459 
L 945.705654 238.396131 
L 947.211485 233.942578 
L 948.529087 230.354724 
L 949.282002 228.866367 
L 949.846689 228.118672 
L 950.411376 227.725715 
L 950.787833 227.671199 
L 951.164291 227.783722 
L 951.728978 228.25994 
L 952.293664 229.084104 
L 953.04658 230.655458 
L 953.987724 233.182628 
L 956.4347 240.067544 
L 957.187615 241.407142 
L 957.752302 241.970729 
L 958.128759 242.111443 
L 958.505217 242.058227 
L 958.881675 241.812165 
L 959.446362 241.099818 
L 960.199277 239.592423 
L 961.140421 237.063546 
L 963.587397 230.145163 
L 964.340312 228.721099 
L 964.904999 228.02957 
L 965.469686 227.697001 
L 965.846143 227.683157 
L 966.222601 227.835703 
L 966.787288 228.36928 
L 967.351974 229.246863 
L 968.10489 230.881494 
L 969.234263 234.021681 
L 970.363636 237.399796 
L 970.363636 237.399796 
" style="fill:none;stroke:#ff7f0e;stroke-linecap:square;stroke-width:1.5;"/>
   </g>
   <g id="line2d_17">
    <path clip-path="url(#pe40a4e3c0a)" d="M 217.636364 59.81988 
L 223.095001 59.100818 
L 228.741867 58.589008 
L 234.95342 58.285934 
L 240.788515 58.240149 
L 246.62361 58.421244 
L 252.082248 58.808872 
L 257.729114 59.432174 
L 262.811294 60.207261 
L 267.893473 61.1949 
L 273.352111 62.495468 
L 278.998977 64.101102 
L 284.081157 65.745785 
L 290.669167 68.046509 
L 297.821865 70.417699 
L 301.398213 71.40026 
L 304.598104 72.074305 
L 307.421537 72.473669 
L 310.24497 72.663604 
L 313.068403 72.631415 
L 315.891837 72.380295 
L 318.903499 71.888364 
L 322.479847 71.04732 
L 326.056196 69.990871 
L 333.020664 67.619191 
L 341.114506 64.849023 
L 347.326059 62.97403 
L 352.784696 61.582167 
L 357.490418 60.596812 
L 362.384369 59.760837 
L 367.466548 59.102886 
L 373.489872 58.562661 
L 379.136739 58.292363 
L 385.160063 58.23982 
L 390.995158 58.41981 
L 396.642024 58.814472 
L 402.28889 59.442235 
L 407.559299 60.254649 
L 412.076792 61.129571 
L 417.723658 62.481741 
L 422.241151 63.746459 
L 428.640933 65.801125 
L 444.640387 71.098789 
L 448.404965 71.96088 
L 451.416627 72.427093 
L 454.24006 72.648626 
L 457.063493 72.65119 
L 459.886926 72.433082 
L 462.898588 71.972987 
L 465.91025 71.309175 
L 469.863057 70.187369 
L 475.698152 68.239116 
L 488.121258 64.040054 
L 493.203437 62.581476 
L 498.662075 61.261179 
L 503.556025 60.293361 
L 509.014663 59.448516 
L 514.661529 58.821094 
L 520.496624 58.413188 
L 525.955262 58.242509 
L 531.602128 58.277898 
L 537.437223 58.540801 
L 543.272318 59.039533 
L 548.354498 59.67966 
L 553.248448 60.484516 
L 558.142399 61.495925 
L 564.542181 63.127116 
L 570.189047 64.838747 
L 577.529973 67.339606 
L 586.753188 70.442766 
L 591.082452 71.590206 
L 594.470572 72.23488 
L 597.482234 72.57755 
L 600.305667 72.677615 
L 603.1291 72.556737 
L 606.140762 72.191261 
L 609.340653 71.561779 
L 613.29346 70.515498 
L 618.563868 68.804748 
L 627.975312 65.525615 
L 633.810407 63.68131 
L 640.210189 61.943043 
L 644.351224 61.006736 
L 650.374548 59.91356 
L 655.644957 59.195236 
L 661.291823 58.646866 
L 666.938689 58.330044 
L 672.962013 58.231207 
L 678.797108 58.365946 
L 684.443975 58.717047 
L 690.27907 59.322788 
L 695.549478 60.08723 
L 700.631658 61.048225 
L 705.713838 62.215401 
L 710.796017 63.610863 
L 716.066426 65.265304 
L 734.136398 71.221751 
L 737.712746 72.014936 
L 740.724408 72.457614 
L 743.547842 72.659412 
L 746.371275 72.63841 
L 749.194708 72.396691 
L 752.20637 71.915815 
L 755.782718 71.081589 
L 759.735525 69.918401 
L 765.382391 68.003015 
L 775.170293 64.641405 
L 780.817159 62.957567 
L 787.028712 61.40369 
L 792.675578 60.269361 
L 797.757758 59.482704 
L 803.028166 58.879757 
L 808.675032 58.455008 
L 814.510128 58.24807 
L 820.345223 58.271653 
L 826.180318 58.524118 
L 831.827184 58.995417 
L 837.285821 59.6716 
L 842.932688 60.619545 
L 848.203096 61.755416 
L 853.285276 63.064404 
L 857.61454 64.363473 
L 864.579008 66.686147 
L 875.684512 70.454525 
L 879.637318 71.515237 
L 883.213667 72.218162 
L 886.225329 72.571094 
L 889.048762 72.677782 
L 891.872195 72.560866 
L 894.883857 72.202126 
L 897.895519 71.624058 
L 901.283639 70.749276 
L 906.17759 69.213665 
L 923.494646 63.41733 
L 929.141513 61.908128 
L 936.482439 60.361489 
L 940.811703 59.656874 
L 945.517425 59.062153 
L 951.35252 58.549001 
L 957.187615 58.281723 
L 962.834481 58.2401 
L 968.481348 58.410695 
L 970.363636 58.514676 
L 970.363636 58.514676 
" style="fill:none;stroke:#2ca02c;stroke-linecap:square;stroke-width:1.5;"/>
   </g>
   <g id="patch_3">
    <path d="M 180 252 
L 180 34.56 
" style="fill:none;stroke:#000000;stroke-linecap:square;stroke-linejoin:miter;stroke-width:0.8;"/>
   </g>
   <g id="patch_4">
    <path d="M 1008 252 
L 1008 34.56 
" style="fill:none;stroke:#000000;stroke-linecap:square;stroke-linejoin:miter;stroke-width:0.8;"/>
   </g>
   <g id="patch_5">
    <path d="M 180 252 
L 1008 252 
" style="fill:none;stroke:#000000;stroke-linecap:square;stroke-linejoin:miter;stroke-width:0.8;"/>
   </g>
   <g id="patch_6">
    <path d="M 180 34.56 
L 1008 34.56 
" style="fill:none;stroke:#000000;stroke-linecap:square;stroke-linejoin:miter;stroke-width:0.8;"/>
   </g>
   <g id="text_10">
    <!-- synthetic data -->
    <defs>
     <path d="M 6.59375 0 
L 6.59375 51.859375 
L 14.5 51.859375 
L 14.5 44.484375 
Q 20.21875 53.03125 31 53.03125 
Q 35.6875 53.03125 39.625 51.34375 
Q 43.5625 49.65625 45.515625 46.921875 
Q 47.46875 44.1875 48.25 40.4375 
Q 48.734375 37.984375 48.734375 31.890625 
L 48.734375 0 
L 39.9375 0 
L 39.9375 31.546875 
Q 39.9375 36.921875 38.90625 39.578125 
Q 37.890625 42.234375 35.28125 43.8125 
Q 32.671875 45.40625 29.15625 45.40625 
Q 23.53125 45.40625 19.453125 41.84375 
Q 15.375 38.28125 15.375 28.328125 
L 15.375 0 
z
" id="ArialMT-110"/>
     <path d="M 40.234375 0 
L 40.234375 6.546875 
Q 35.296875 -1.171875 25.734375 -1.171875 
Q 19.53125 -1.171875 14.328125 2.25 
Q 9.125 5.671875 6.265625 11.796875 
Q 3.421875 17.921875 3.421875 25.875 
Q 3.421875 33.640625 6 39.96875 
Q 8.59375 46.296875 13.765625 49.65625 
Q 18.953125 53.03125 25.34375 53.03125 
Q 30.03125 53.03125 33.6875 51.046875 
Q 37.359375 49.078125 39.65625 45.90625 
L 39.65625 71.578125 
L 48.390625 71.578125 
L 48.390625 0 
z
M 12.453125 25.875 
Q 12.453125 15.921875 16.640625 10.984375 
Q 20.84375 6.0625 26.5625 6.0625 
Q 32.328125 6.0625 36.34375 10.765625 
Q 40.375 15.484375 40.375 25.140625 
Q 40.375 35.796875 36.265625 40.765625 
Q 32.171875 45.75 26.171875 45.75 
Q 20.3125 45.75 16.375 40.96875 
Q 12.453125 36.1875 12.453125 25.875 
z
" id="ArialMT-100"/>
    </defs>
    <g transform="translate(497.748 27.993375)scale(0.312 -0.312)">
     <use xlink:href="#ArialMT-115"/>
     <use x="50" xlink:href="#ArialMT-121"/>
     <use x="100" xlink:href="#ArialMT-110"/>
     <use x="155.615234" xlink:href="#ArialMT-116"/>
     <use x="183.398438" xlink:href="#ArialMT-104"/>
     <use x="239.013672" xlink:href="#ArialMT-101"/>
     <use x="294.628906" xlink:href="#ArialMT-116"/>
     <use x="322.412109" xlink:href="#ArialMT-105"/>
     <use x="344.628906" xlink:href="#ArialMT-99"/>
     <use x="394.628906" xlink:href="#ArialMT-32"/>
     <use x="422.412109" xlink:href="#ArialMT-100"/>
     <use x="478.027344" xlink:href="#ArialMT-97"/>
     <use x="533.642578" xlink:href="#ArialMT-116"/>
     <use x="561.425781" xlink:href="#ArialMT-97"/>
    </g>
   </g>
   <g id="legend_1">
    <g id="patch_7">
     <path d="M 1054.6 152.693437 
L 1262.067812 152.693437 
Q 1267.267812 152.693437 1267.267812 147.493437 
L 1267.267812 39.76 
Q 1267.267812 34.56 1262.067812 34.56 
L 1054.6 34.56 
Q 1049.4 34.56 1049.4 39.76 
L 1049.4 147.493437 
Q 1049.4 152.693437 1054.6 152.693437 
z
" style="fill:#ffffff;opacity:0.8;stroke:#cccccc;stroke-linejoin:miter;"/>
    </g>
    <g id="line2d_18">
     <path d="M 1059.8 54.470312 
L 1111.8 54.470312 
" style="fill:none;stroke:#1f77b4;stroke-linecap:square;stroke-width:1.5;"/>
    </g>
    <g id="line2d_19"/>
    <g id="text_11">
     <!-- oscillator 1 -->
     <defs>
      <path d="M 6.5 0 
L 6.5 51.859375 
L 14.40625 51.859375 
L 14.40625 44 
Q 17.4375 49.515625 20 51.265625 
Q 22.5625 53.03125 25.640625 53.03125 
Q 30.078125 53.03125 34.671875 50.203125 
L 31.640625 42.046875 
Q 28.421875 43.953125 25.203125 43.953125 
Q 22.3125 43.953125 20.015625 42.21875 
Q 17.71875 40.484375 16.75 37.40625 
Q 15.28125 32.71875 15.28125 27.15625 
L 15.28125 0 
z
" id="ArialMT-114"/>
      <path d="M 37.25 0 
L 28.46875 0 
L 28.46875 56 
Q 25.296875 52.984375 20.140625 49.953125 
Q 14.984375 46.921875 10.890625 45.40625 
L 10.890625 53.90625 
Q 18.265625 57.375 23.78125 62.296875 
Q 29.296875 67.234375 31.59375 71.875 
L 37.25 71.875 
z
" id="ArialMT-49"/>
     </defs>
     <g transform="translate(1132.6 63.570312)scale(0.26 -0.26)">
      <use xlink:href="#ArialMT-111"/>
      <use x="55.615234" xlink:href="#ArialMT-115"/>
      <use x="105.615234" xlink:href="#ArialMT-99"/>
      <use x="155.615234" xlink:href="#ArialMT-105"/>
      <use x="177.832031" xlink:href="#ArialMT-108"/>
      <use x="200.048828" xlink:href="#ArialMT-108"/>
      <use x="222.265625" xlink:href="#ArialMT-97"/>
      <use x="277.880859" xlink:href="#ArialMT-116"/>
      <use x="305.664062" xlink:href="#ArialMT-111"/>
      <use x="361.279297" xlink:href="#ArialMT-114"/>
      <use x="394.580078" xlink:href="#ArialMT-32"/>
      <use x="422.363281" xlink:href="#ArialMT-49"/>
     </g>
    </g>
    <g id="line2d_20">
     <path d="M 1059.8 91.248125 
L 1111.8 91.248125 
" style="fill:none;stroke:#ff7f0e;stroke-linecap:square;stroke-width:1.5;"/>
    </g>
    <g id="line2d_21"/>
    <g id="text_12">
     <!-- oscillator 2 -->
     <g transform="translate(1132.6 100.348125)scale(0.26 -0.26)">
      <use xlink:href="#ArialMT-111"/>
      <use x="55.615234" xlink:href="#ArialMT-115"/>
      <use x="105.615234" xlink:href="#ArialMT-99"/>
      <use x="155.615234" xlink:href="#ArialMT-105"/>
      <use x="177.832031" xlink:href="#ArialMT-108"/>
      <use x="200.048828" xlink:href="#ArialMT-108"/>
      <use x="222.265625" xlink:href="#ArialMT-97"/>
      <use x="277.880859" xlink:href="#ArialMT-116"/>
      <use x="305.664062" xlink:href="#ArialMT-111"/>
      <use x="361.279297" xlink:href="#ArialMT-114"/>
      <use x="394.580078" xlink:href="#ArialMT-32"/>
      <use x="422.363281" xlink:href="#ArialMT-50"/>
     </g>
    </g>
    <g id="line2d_22">
     <path d="M 1059.8 128.025937 
L 1111.8 128.025937 
" style="fill:none;stroke:#2ca02c;stroke-linecap:square;stroke-width:1.5;"/>
    </g>
    <g id="line2d_23"/>
    <g id="text_13">
     <!-- oscillator 3 -->
     <defs>
      <path d="M 4.203125 18.890625 
L 12.984375 20.0625 
Q 14.5 12.59375 18.140625 9.296875 
Q 21.78125 6 27 6 
Q 33.203125 6 37.46875 10.296875 
Q 41.75 14.59375 41.75 20.953125 
Q 41.75 27 37.796875 30.921875 
Q 33.84375 34.859375 27.734375 34.859375 
Q 25.25 34.859375 21.53125 33.890625 
L 22.515625 41.609375 
Q 23.390625 41.5 23.921875 41.5 
Q 29.546875 41.5 34.03125 44.421875 
Q 38.53125 47.359375 38.53125 53.46875 
Q 38.53125 58.296875 35.25 61.46875 
Q 31.984375 64.65625 26.8125 64.65625 
Q 21.6875 64.65625 18.265625 61.421875 
Q 14.84375 58.203125 13.875 51.765625 
L 5.078125 53.328125 
Q 6.6875 62.15625 12.390625 67.015625 
Q 18.109375 71.875 26.609375 71.875 
Q 32.46875 71.875 37.390625 69.359375 
Q 42.328125 66.84375 44.9375 62.5 
Q 47.5625 58.15625 47.5625 53.265625 
Q 47.5625 48.640625 45.0625 44.828125 
Q 42.578125 41.015625 37.703125 38.765625 
Q 44.046875 37.3125 47.5625 32.6875 
Q 51.078125 28.078125 51.078125 21.140625 
Q 51.078125 11.765625 44.234375 5.25 
Q 37.40625 -1.265625 26.953125 -1.265625 
Q 17.53125 -1.265625 11.296875 4.34375 
Q 5.078125 9.96875 4.203125 18.890625 
z
" id="ArialMT-51"/>
     </defs>
     <g transform="translate(1132.6 137.125937)scale(0.26 -0.26)">
      <use xlink:href="#ArialMT-111"/>
      <use x="55.615234" xlink:href="#ArialMT-115"/>
      <use x="105.615234" xlink:href="#ArialMT-99"/>
      <use x="155.615234" xlink:href="#ArialMT-105"/>
      <use x="177.832031" xlink:href="#ArialMT-108"/>
      <use x="200.048828" xlink:href="#ArialMT-108"/>
      <use x="222.265625" xlink:href="#ArialMT-97"/>
      <use x="277.880859" xlink:href="#ArialMT-116"/>
      <use x="305.664062" xlink:href="#ArialMT-111"/>
      <use x="361.279297" xlink:href="#ArialMT-114"/>
      <use x="394.580078" xlink:href="#ArialMT-32"/>
      <use x="422.363281" xlink:href="#ArialMT-51"/>
     </g>
    </g>
   </g>
  </g>
 </g>
 <defs>
  <clipPath id="pe40a4e3c0a">
   <rect height="217.44" width="828" x="180" y="34.56"/>
  </clipPath>
 </defs>
</svg>
