<?xml version="1.0" encoding="utf-8" standalone="no"?>
<!DOCTYPE svg PUBLIC "-//W3C//DTD SVG 1.1//EN"
  "http://www.w3.org/Graphics/SVG/1.1/DTD/svg11.dtd">
<!-- Created with matplotlib (https://matplotlib.org/) -->
<svg height="288pt" version="1.1" viewBox="0 0 1440 288" width="1440pt" xmlns="http://www.w3.org/2000/svg" xmlns:xlink="http://www.w3.org/1999/xlink">
 <defs>
  <style type="text/css">
*{stroke-linecap:butt;stroke-linejoin:round;}
  </style>
 </defs>
 <g id="figure_1">
  <g id="patch_1">
   <path d="M 0 288 
L 1440 288 
L 1440 0 
L 0 0 
z
" style="fill:#ffffff;"/>
  </g>
  <g id="axes_1">
   <g id="patch_2">
    <path d="M 180 252 
L 1008 252 
L 1008 34.56 
L 180 34.56 
z
" style="fill:#ffffff;"/>
   </g>
   <g id="matplotlib.axis_1">
    <g id="xtick_1">
     <g id="line2d_1">
      <path clip-path="url(#p07e83dbf5b)" d="M 217.636364 252 
L 217.636364 34.56 
" style="fill:none;stroke:#b0b0b0;stroke-linecap:square;stroke-width:0.8;"/>
     </g>
     <g id="line2d_2">
      <defs>
       <path d="M 0 0 
L 0 3.5 
" id="mb2e9ea52e1" style="stroke:#000000;stroke-width:0.8;"/>
      </defs>
      <g>
       <use style="stroke:#000000;stroke-width:0.8;" x="217.636364" xlink:href="#mb2e9ea52e1" y="252"/>
      </g>
     </g>
     <g id="text_1">
      <!-- 0 -->
      <defs>
       <path d="M 4.15625 35.296875 
Q 4.15625 48 6.765625 55.734375 
Q 9.375 63.484375 14.515625 67.671875 
Q 19.671875 71.875 27.484375 71.875 
Q 33.25 71.875 37.59375 69.546875 
Q 41.9375 67.234375 44.765625 62.859375 
Q 47.609375 58.5 49.21875 52.21875 
Q 50.828125 45.953125 50.828125 35.296875 
Q 50.828125 22.703125 48.234375 14.96875 
Q 45.65625 7.234375 40.5 3 
Q 35.359375 -1.21875 27.484375 -1.21875 
Q 17.140625 -1.21875 11.234375 6.203125 
Q 4.15625 15.140625 4.15625 35.296875 
z
M 13.1875 35.296875 
Q 13.1875 17.671875 17.3125 11.828125 
Q 21.4375 6 27.484375 6 
Q 33.546875 6 37.671875 11.859375 
Q 41.796875 17.71875 41.796875 35.296875 
Q 41.796875 52.984375 37.671875 58.78125 
Q 33.546875 64.59375 27.390625 64.59375 
Q 21.34375 64.59375 17.71875 59.46875 
Q 13.1875 52.9375 13.1875 35.296875 
z
" id="ArialMT-48"/>
      </defs>
      <g transform="translate(210.407145 277.610313)scale(0.26 -0.26)">
       <use xlink:href="#ArialMT-48"/>
      </g>
     </g>
    </g>
    <g id="xtick_2">
     <g id="line2d_3">
      <path clip-path="url(#p07e83dbf5b)" d="M 594.094114 252 
L 594.094114 34.56 
" style="fill:none;stroke:#b0b0b0;stroke-linecap:square;stroke-width:0.8;"/>
     </g>
     <g id="line2d_4">
      <g>
       <use style="stroke:#000000;stroke-width:0.8;" x="594.094114" xlink:href="#mb2e9ea52e1" y="252"/>
      </g>
     </g>
     <g id="text_2">
      <!-- 2000 -->
      <defs>
       <path d="M 50.34375 8.453125 
L 50.34375 0 
L 3.03125 0 
Q 2.9375 3.171875 4.046875 6.109375 
Q 5.859375 10.9375 9.828125 15.625 
Q 13.8125 20.3125 21.34375 26.46875 
Q 33.015625 36.03125 37.109375 41.625 
Q 41.21875 47.21875 41.21875 52.203125 
Q 41.21875 57.421875 37.46875 61 
Q 33.734375 64.59375 27.734375 64.59375 
Q 21.390625 64.59375 17.578125 60.78125 
Q 13.765625 56.984375 13.71875 50.25 
L 4.6875 51.171875 
Q 5.609375 61.28125 11.65625 66.578125 
Q 17.71875 71.875 27.9375 71.875 
Q 38.234375 71.875 44.234375 66.15625 
Q 50.25 60.453125 50.25 52 
Q 50.25 47.703125 48.484375 43.546875 
Q 46.734375 39.40625 42.65625 34.8125 
Q 38.578125 30.21875 29.109375 22.21875 
Q 21.1875 15.578125 18.9375 13.203125 
Q 16.703125 10.84375 15.234375 8.453125 
z
" id="ArialMT-50"/>
      </defs>
      <g transform="translate(565.177239 277.610313)scale(0.26 -0.26)">
       <use xlink:href="#ArialMT-50"/>
       <use x="55.615234" xlink:href="#ArialMT-48"/>
       <use x="111.230469" xlink:href="#ArialMT-48"/>
       <use x="166.845703" xlink:href="#ArialMT-48"/>
      </g>
     </g>
    </g>
    <g id="xtick_3">
     <g id="line2d_5">
      <path clip-path="url(#p07e83dbf5b)" d="M 970.551865 252 
L 970.551865 34.56 
" style="fill:none;stroke:#b0b0b0;stroke-linecap:square;stroke-width:0.8;"/>
     </g>
     <g id="line2d_6">
      <g>
       <use style="stroke:#000000;stroke-width:0.8;" x="970.551865" xlink:href="#mb2e9ea52e1" y="252"/>
      </g>
     </g>
     <g id="text_3">
      <!-- 4000 -->
      <defs>
       <path d="M 32.328125 0 
L 32.328125 17.140625 
L 1.265625 17.140625 
L 1.265625 25.203125 
L 33.9375 71.578125 
L 41.109375 71.578125 
L 41.109375 25.203125 
L 50.78125 25.203125 
L 50.78125 17.140625 
L 41.109375 17.140625 
L 41.109375 0 
z
M 32.328125 25.203125 
L 32.328125 57.46875 
L 9.90625 25.203125 
z
" id="ArialMT-52"/>
      </defs>
      <g transform="translate(941.63499 277.610313)scale(0.26 -0.26)">
       <use xlink:href="#ArialMT-52"/>
       <use x="55.615234" xlink:href="#ArialMT-48"/>
       <use x="111.230469" xlink:href="#ArialMT-48"/>
       <use x="166.845703" xlink:href="#ArialMT-48"/>
      </g>
     </g>
    </g>
    <g id="text_4">
     <!-- # sample -->
     <defs>
      <path d="M 5.03125 -1.21875 
L 9.28125 19.578125 
L 1.03125 19.578125 
L 1.03125 26.859375 
L 10.75 26.859375 
L 14.359375 44.578125 
L 1.03125 44.578125 
L 1.03125 51.859375 
L 15.828125 51.859375 
L 20.0625 72.796875 
L 27.390625 72.796875 
L 23.140625 51.859375 
L 38.53125 51.859375 
L 42.78125 72.796875 
L 50.140625 72.796875 
L 45.90625 51.859375 
L 54.34375 51.859375 
L 54.34375 44.578125 
L 44.4375 44.578125 
L 40.765625 26.859375 
L 54.34375 26.859375 
L 54.34375 19.578125 
L 39.3125 19.578125 
L 35.0625 -1.21875 
L 27.734375 -1.21875 
L 31.9375 19.578125 
L 16.609375 19.578125 
L 12.359375 -1.21875 
z
M 18.0625 26.859375 
L 33.40625 26.859375 
L 37.0625 44.578125 
L 21.6875 44.578125 
z
" id="ArialMT-35"/>
      <path id="ArialMT-32"/>
      <path d="M 3.078125 15.484375 
L 11.765625 16.84375 
Q 12.5 11.625 15.84375 8.84375 
Q 19.1875 6.0625 25.203125 6.0625 
Q 31.25 6.0625 34.171875 8.515625 
Q 37.109375 10.984375 37.109375 14.3125 
Q 37.109375 17.28125 34.515625 19 
Q 32.71875 20.171875 25.53125 21.96875 
Q 15.875 24.421875 12.140625 26.203125 
Q 8.40625 27.984375 6.46875 31.125 
Q 4.546875 34.28125 4.546875 38.09375 
Q 4.546875 41.546875 6.125 44.5 
Q 7.71875 47.46875 10.453125 49.421875 
Q 12.5 50.921875 16.03125 51.96875 
Q 19.578125 53.03125 23.640625 53.03125 
Q 29.734375 53.03125 34.34375 51.265625 
Q 38.96875 49.515625 41.15625 46.5 
Q 43.359375 43.5 44.1875 38.484375 
L 35.59375 37.3125 
Q 35.015625 41.3125 32.203125 43.546875 
Q 29.390625 45.796875 24.265625 45.796875 
Q 18.21875 45.796875 15.625 43.796875 
Q 13.03125 41.796875 13.03125 39.109375 
Q 13.03125 37.40625 14.109375 36.03125 
Q 15.1875 34.625 17.484375 33.6875 
Q 18.796875 33.203125 25.25 31.453125 
Q 34.578125 28.953125 38.25 27.359375 
Q 41.9375 25.78125 44.03125 22.75 
Q 46.140625 19.734375 46.140625 15.234375 
Q 46.140625 10.84375 43.578125 6.953125 
Q 41.015625 3.078125 36.171875 0.953125 
Q 31.34375 -1.171875 25.25 -1.171875 
Q 15.140625 -1.171875 9.84375 3.03125 
Q 4.546875 7.234375 3.078125 15.484375 
z
" id="ArialMT-115"/>
      <path d="M 40.4375 6.390625 
Q 35.546875 2.25 31.03125 0.53125 
Q 26.515625 -1.171875 21.34375 -1.171875 
Q 12.796875 -1.171875 8.203125 3 
Q 3.609375 7.171875 3.609375 13.671875 
Q 3.609375 17.484375 5.34375 20.625 
Q 7.078125 23.78125 9.890625 25.6875 
Q 12.703125 27.59375 16.21875 28.5625 
Q 18.796875 29.25 24.03125 29.890625 
Q 34.671875 31.15625 39.703125 32.90625 
Q 39.75 34.71875 39.75 35.203125 
Q 39.75 40.578125 37.25 42.78125 
Q 33.890625 45.75 27.25 45.75 
Q 21.046875 45.75 18.09375 43.578125 
Q 15.140625 41.40625 13.71875 35.890625 
L 5.125 37.0625 
Q 6.296875 42.578125 8.984375 45.96875 
Q 11.671875 49.359375 16.75 51.1875 
Q 21.828125 53.03125 28.515625 53.03125 
Q 35.15625 53.03125 39.296875 51.46875 
Q 43.453125 49.90625 45.40625 47.53125 
Q 47.359375 45.171875 48.140625 41.546875 
Q 48.578125 39.3125 48.578125 33.453125 
L 48.578125 21.734375 
Q 48.578125 9.46875 49.140625 6.21875 
Q 49.703125 2.984375 51.375 0 
L 42.1875 0 
Q 40.828125 2.734375 40.4375 6.390625 
z
M 39.703125 26.03125 
Q 34.90625 24.078125 25.34375 22.703125 
Q 19.921875 21.921875 17.671875 20.9375 
Q 15.4375 19.96875 14.203125 18.09375 
Q 12.984375 16.21875 12.984375 13.921875 
Q 12.984375 10.40625 15.640625 8.0625 
Q 18.3125 5.71875 23.4375 5.71875 
Q 28.515625 5.71875 32.46875 7.9375 
Q 36.421875 10.15625 38.28125 14.015625 
Q 39.703125 17 39.703125 22.796875 
z
" id="ArialMT-97"/>
      <path d="M 6.59375 0 
L 6.59375 51.859375 
L 14.453125 51.859375 
L 14.453125 44.578125 
Q 16.890625 48.390625 20.9375 50.703125 
Q 25 53.03125 30.171875 53.03125 
Q 35.9375 53.03125 39.625 50.640625 
Q 43.3125 48.25 44.828125 43.953125 
Q 50.984375 53.03125 60.84375 53.03125 
Q 68.5625 53.03125 72.703125 48.75 
Q 76.859375 44.484375 76.859375 35.59375 
L 76.859375 0 
L 68.109375 0 
L 68.109375 32.671875 
Q 68.109375 37.9375 67.25 40.25 
Q 66.40625 42.578125 64.15625 43.984375 
Q 61.921875 45.40625 58.890625 45.40625 
Q 53.421875 45.40625 49.796875 41.765625 
Q 46.1875 38.140625 46.1875 30.125 
L 46.1875 0 
L 37.40625 0 
L 37.40625 33.6875 
Q 37.40625 39.546875 35.25 42.46875 
Q 33.109375 45.40625 28.21875 45.40625 
Q 24.515625 45.40625 21.359375 43.453125 
Q 18.21875 41.5 16.796875 37.734375 
Q 15.375 33.984375 15.375 26.90625 
L 15.375 0 
z
" id="ArialMT-109"/>
      <path d="M 6.59375 -19.875 
L 6.59375 51.859375 
L 14.59375 51.859375 
L 14.59375 45.125 
Q 17.4375 49.078125 21 51.046875 
Q 24.5625 53.03125 29.640625 53.03125 
Q 36.28125 53.03125 41.359375 49.609375 
Q 46.4375 46.1875 49.015625 39.953125 
Q 51.609375 33.734375 51.609375 26.3125 
Q 51.609375 18.359375 48.75 11.984375 
Q 45.90625 5.609375 40.453125 2.21875 
Q 35.015625 -1.171875 29 -1.171875 
Q 24.609375 -1.171875 21.109375 0.6875 
Q 17.625 2.546875 15.375 5.375 
L 15.375 -19.875 
z
M 14.546875 25.640625 
Q 14.546875 15.625 18.59375 10.84375 
Q 22.65625 6.0625 28.421875 6.0625 
Q 34.28125 6.0625 38.453125 11.015625 
Q 42.625 15.96875 42.625 26.375 
Q 42.625 36.28125 38.546875 41.203125 
Q 34.46875 46.140625 28.8125 46.140625 
Q 23.1875 46.140625 18.859375 40.890625 
Q 14.546875 35.640625 14.546875 25.640625 
z
" id="ArialMT-112"/>
      <path d="M 6.390625 0 
L 6.390625 71.578125 
L 15.1875 71.578125 
L 15.1875 0 
z
" id="ArialMT-108"/>
      <path d="M 42.09375 16.703125 
L 51.171875 15.578125 
Q 49.03125 7.625 43.21875 3.21875 
Q 37.40625 -1.171875 28.375 -1.171875 
Q 17 -1.171875 10.328125 5.828125 
Q 3.65625 12.84375 3.65625 25.484375 
Q 3.65625 38.578125 10.390625 45.796875 
Q 17.140625 53.03125 27.875 53.03125 
Q 38.28125 53.03125 44.875 45.953125 
Q 51.46875 38.875 51.46875 26.03125 
Q 51.46875 25.25 51.421875 23.6875 
L 12.75 23.6875 
Q 13.234375 15.140625 17.578125 10.59375 
Q 21.921875 6.0625 28.421875 6.0625 
Q 33.25 6.0625 36.671875 8.59375 
Q 40.09375 11.140625 42.09375 16.703125 
z
M 13.234375 30.90625 
L 42.1875 30.90625 
Q 41.609375 37.453125 38.875 40.71875 
Q 34.671875 45.796875 27.984375 45.796875 
Q 21.921875 45.796875 17.796875 41.75 
Q 13.671875 37.703125 13.234375 30.90625 
z
" id="ArialMT-101"/>
     </defs>
     <g transform="translate(541.254531 305.705)scale(0.26 -0.26)">
      <use xlink:href="#ArialMT-35"/>
      <use x="55.615234" xlink:href="#ArialMT-32"/>
      <use x="83.398438" xlink:href="#ArialMT-115"/>
      <use x="133.398438" xlink:href="#ArialMT-97"/>
      <use x="189.013672" xlink:href="#ArialMT-109"/>
      <use x="272.314453" xlink:href="#ArialMT-112"/>
      <use x="327.929688" xlink:href="#ArialMT-108"/>
      <use x="350.146484" xlink:href="#ArialMT-101"/>
     </g>
    </g>
   </g>
   <g id="matplotlib.axis_2">
    <g id="ytick_1">
     <g id="line2d_7">
      <path clip-path="url(#p07e83dbf5b)" d="M 180 241.784155 
L 1008 241.784155 
" style="fill:none;stroke:#b0b0b0;stroke-linecap:square;stroke-width:0.8;"/>
     </g>
     <g id="line2d_8">
      <defs>
       <path d="M 0 0 
L -3.5 0 
" id="m71bef20214" style="stroke:#000000;stroke-width:0.8;"/>
      </defs>
      <g>
       <use style="stroke:#000000;stroke-width:0.8;" x="180" xlink:href="#m71bef20214" y="241.784155"/>
      </g>
     </g>
     <g id="text_5">
      <!-- 20.0 -->
      <defs>
       <path d="M 9.078125 0 
L 9.078125 10.015625 
L 19.09375 10.015625 
L 19.09375 0 
z
" id="ArialMT-46"/>
      </defs>
      <g transform="translate(122.401562 251.089311)scale(0.26 -0.26)">
       <use xlink:href="#ArialMT-50"/>
       <use x="55.615234" xlink:href="#ArialMT-48"/>
       <use x="111.230469" xlink:href="#ArialMT-46"/>
       <use x="139.013672" xlink:href="#ArialMT-48"/>
      </g>
     </g>
    </g>
    <g id="ytick_2">
     <g id="line2d_9">
      <path clip-path="url(#p07e83dbf5b)" d="M 180 181.585527 
L 1008 181.585527 
" style="fill:none;stroke:#b0b0b0;stroke-linecap:square;stroke-width:0.8;"/>
     </g>
     <g id="line2d_10">
      <g>
       <use style="stroke:#000000;stroke-width:0.8;" x="180" xlink:href="#m71bef20214" y="181.585527"/>
      </g>
     </g>
     <g id="text_6">
      <!-- 22.5 -->
      <defs>
       <path d="M 4.15625 18.75 
L 13.375 19.53125 
Q 14.40625 12.796875 18.140625 9.390625 
Q 21.875 6 27.15625 6 
Q 33.5 6 37.890625 10.78125 
Q 42.28125 15.578125 42.28125 23.484375 
Q 42.28125 31 38.0625 35.34375 
Q 33.84375 39.703125 27 39.703125 
Q 22.75 39.703125 19.328125 37.765625 
Q 15.921875 35.84375 13.96875 32.765625 
L 5.71875 33.84375 
L 12.640625 70.609375 
L 48.25 70.609375 
L 48.25 62.203125 
L 19.671875 62.203125 
L 15.828125 42.96875 
Q 22.265625 47.46875 29.34375 47.46875 
Q 38.71875 47.46875 45.15625 40.96875 
Q 51.609375 34.46875 51.609375 24.265625 
Q 51.609375 14.546875 45.953125 7.46875 
Q 39.0625 -1.21875 27.15625 -1.21875 
Q 17.390625 -1.21875 11.203125 4.25 
Q 5.03125 9.71875 4.15625 18.75 
z
" id="ArialMT-53"/>
      </defs>
      <g transform="translate(122.401562 190.890684)scale(0.26 -0.26)">
       <use xlink:href="#ArialMT-50"/>
       <use x="55.615234" xlink:href="#ArialMT-50"/>
       <use x="111.230469" xlink:href="#ArialMT-46"/>
       <use x="139.013672" xlink:href="#ArialMT-53"/>
      </g>
     </g>
    </g>
    <g id="ytick_3">
     <g id="line2d_11">
      <path clip-path="url(#p07e83dbf5b)" d="M 180 121.3869 
L 1008 121.3869 
" style="fill:none;stroke:#b0b0b0;stroke-linecap:square;stroke-width:0.8;"/>
     </g>
     <g id="line2d_12">
      <g>
       <use style="stroke:#000000;stroke-width:0.8;" x="180" xlink:href="#m71bef20214" y="121.3869"/>
      </g>
     </g>
     <g id="text_7">
      <!-- 25.0 -->
      <g transform="translate(122.401562 130.692057)scale(0.26 -0.26)">
       <use xlink:href="#ArialMT-50"/>
       <use x="55.615234" xlink:href="#ArialMT-53"/>
       <use x="111.230469" xlink:href="#ArialMT-46"/>
       <use x="139.013672" xlink:href="#ArialMT-48"/>
      </g>
     </g>
    </g>
    <g id="ytick_4">
     <g id="line2d_13">
      <path clip-path="url(#p07e83dbf5b)" d="M 180 61.188273 
L 1008 61.188273 
" style="fill:none;stroke:#b0b0b0;stroke-linecap:square;stroke-width:0.8;"/>
     </g>
     <g id="line2d_14">
      <g>
       <use style="stroke:#000000;stroke-width:0.8;" x="180" xlink:href="#m71bef20214" y="61.188273"/>
      </g>
     </g>
     <g id="text_8">
      <!-- 27.5 -->
      <defs>
       <path d="M 4.734375 62.203125 
L 4.734375 70.65625 
L 51.078125 70.65625 
L 51.078125 63.8125 
Q 44.234375 56.546875 37.515625 44.484375 
Q 30.8125 32.421875 27.15625 19.671875 
Q 24.515625 10.6875 23.78125 0 
L 14.75 0 
Q 14.890625 8.453125 18.0625 20.40625 
Q 21.234375 32.375 27.171875 43.484375 
Q 33.109375 54.59375 39.796875 62.203125 
z
" id="ArialMT-55"/>
      </defs>
      <g transform="translate(122.401562 70.493429)scale(0.26 -0.26)">
       <use xlink:href="#ArialMT-50"/>
       <use x="55.615234" xlink:href="#ArialMT-55"/>
       <use x="111.230469" xlink:href="#ArialMT-46"/>
       <use x="139.013672" xlink:href="#ArialMT-53"/>
      </g>
     </g>
    </g>
    <g id="text_9">
     <!-- phase velocity -->
     <defs>
      <path d="M 6.59375 0 
L 6.59375 71.578125 
L 15.375 71.578125 
L 15.375 45.90625 
Q 21.53125 53.03125 30.90625 53.03125 
Q 36.671875 53.03125 40.921875 50.75 
Q 45.171875 48.484375 47 44.484375 
Q 48.828125 40.484375 48.828125 32.859375 
L 48.828125 0 
L 40.046875 0 
L 40.046875 32.859375 
Q 40.046875 39.453125 37.1875 42.453125 
Q 34.328125 45.453125 29.109375 45.453125 
Q 25.203125 45.453125 21.75 43.421875 
Q 18.3125 41.40625 16.84375 37.9375 
Q 15.375 34.46875 15.375 28.375 
L 15.375 0 
z
" id="ArialMT-104"/>
      <path d="M 21 0 
L 1.265625 51.859375 
L 10.546875 51.859375 
L 21.6875 20.796875 
Q 23.484375 15.765625 25 10.359375 
Q 26.171875 14.453125 28.265625 20.21875 
L 39.796875 51.859375 
L 48.828125 51.859375 
L 29.203125 0 
z
" id="ArialMT-118"/>
      <path d="M 3.328125 25.921875 
Q 3.328125 40.328125 11.328125 47.265625 
Q 18.015625 53.03125 27.640625 53.03125 
Q 38.328125 53.03125 45.109375 46.015625 
Q 51.90625 39.015625 51.90625 26.65625 
Q 51.90625 16.65625 48.90625 10.90625 
Q 45.90625 5.171875 40.15625 2 
Q 34.421875 -1.171875 27.640625 -1.171875 
Q 16.75 -1.171875 10.03125 5.8125 
Q 3.328125 12.796875 3.328125 25.921875 
z
M 12.359375 25.921875 
Q 12.359375 15.96875 16.703125 11.015625 
Q 21.046875 6.0625 27.640625 6.0625 
Q 34.1875 6.0625 38.53125 11.03125 
Q 42.875 16.015625 42.875 26.21875 
Q 42.875 35.84375 38.5 40.796875 
Q 34.125 45.75 27.640625 45.75 
Q 21.046875 45.75 16.703125 40.8125 
Q 12.359375 35.890625 12.359375 25.921875 
z
" id="ArialMT-111"/>
      <path d="M 40.4375 19 
L 49.078125 17.875 
Q 47.65625 8.9375 41.8125 3.875 
Q 35.984375 -1.171875 27.484375 -1.171875 
Q 16.84375 -1.171875 10.375 5.78125 
Q 3.90625 12.75 3.90625 25.734375 
Q 3.90625 34.125 6.6875 40.421875 
Q 9.46875 46.734375 15.15625 49.875 
Q 20.84375 53.03125 27.546875 53.03125 
Q 35.984375 53.03125 41.359375 48.75 
Q 46.734375 44.484375 48.25 36.625 
L 39.703125 35.296875 
Q 38.484375 40.53125 35.375 43.15625 
Q 32.28125 45.796875 27.875 45.796875 
Q 21.234375 45.796875 17.078125 41.03125 
Q 12.9375 36.28125 12.9375 25.984375 
Q 12.9375 15.53125 16.9375 10.796875 
Q 20.953125 6.0625 27.390625 6.0625 
Q 32.5625 6.0625 36.03125 9.234375 
Q 39.5 12.40625 40.4375 19 
z
" id="ArialMT-99"/>
      <path d="M 6.640625 61.46875 
L 6.640625 71.578125 
L 15.4375 71.578125 
L 15.4375 61.46875 
z
M 6.640625 0 
L 6.640625 51.859375 
L 15.4375 51.859375 
L 15.4375 0 
z
" id="ArialMT-105"/>
      <path d="M 25.78125 7.859375 
L 27.046875 0.09375 
Q 23.34375 -0.6875 20.40625 -0.6875 
Q 15.625 -0.6875 12.984375 0.828125 
Q 10.359375 2.34375 9.28125 4.8125 
Q 8.203125 7.28125 8.203125 15.1875 
L 8.203125 45.015625 
L 1.765625 45.015625 
L 1.765625 51.859375 
L 8.203125 51.859375 
L 8.203125 64.703125 
L 16.9375 69.96875 
L 16.9375 51.859375 
L 25.78125 51.859375 
L 25.78125 45.015625 
L 16.9375 45.015625 
L 16.9375 14.703125 
Q 16.9375 10.9375 17.40625 9.859375 
Q 17.875 8.796875 18.921875 8.15625 
Q 19.96875 7.515625 21.921875 7.515625 
Q 23.390625 7.515625 25.78125 7.859375 
z
" id="ArialMT-116"/>
      <path d="M 6.203125 -19.96875 
L 5.21875 -11.71875 
Q 8.109375 -12.5 10.25 -12.5 
Q 13.1875 -12.5 14.9375 -11.515625 
Q 16.703125 -10.546875 17.828125 -8.796875 
Q 18.65625 -7.46875 20.515625 -2.25 
Q 20.75 -1.515625 21.296875 -0.09375 
L 1.609375 51.859375 
L 11.078125 51.859375 
L 21.875 21.828125 
Q 23.96875 16.109375 25.640625 9.8125 
Q 27.15625 15.875 29.25 21.625 
L 40.328125 51.859375 
L 49.125 51.859375 
L 29.390625 -0.875 
Q 26.21875 -9.421875 24.46875 -12.640625 
Q 22.125 -17 19.09375 -19.015625 
Q 16.0625 -21.046875 11.859375 -21.046875 
Q 9.328125 -21.046875 6.203125 -19.96875 
z
" id="ArialMT-121"/>
     </defs>
     <g transform="translate(112.929375 225.655313)rotate(-90)scale(0.26 -0.26)">
      <use xlink:href="#ArialMT-112"/>
      <use x="55.615234" xlink:href="#ArialMT-104"/>
      <use x="111.230469" xlink:href="#ArialMT-97"/>
      <use x="166.845703" xlink:href="#ArialMT-115"/>
      <use x="216.845703" xlink:href="#ArialMT-101"/>
      <use x="272.460938" xlink:href="#ArialMT-32"/>
      <use x="300.244141" xlink:href="#ArialMT-118"/>
      <use x="350.244141" xlink:href="#ArialMT-101"/>
      <use x="405.859375" xlink:href="#ArialMT-108"/>
      <use x="428.076172" xlink:href="#ArialMT-111"/>
      <use x="483.691406" xlink:href="#ArialMT-99"/>
      <use x="533.691406" xlink:href="#ArialMT-105"/>
      <use x="555.908203" xlink:href="#ArialMT-116"/>
      <use x="583.691406" xlink:href="#ArialMT-121"/>
     </g>
    </g>
   </g>
   <g id="line2d_15">
    <path clip-path="url(#p07e83dbf5b)" d="M 217.636364 44.443636 
L 970.363636 44.443636 
L 970.363636 44.443636 
" style="fill:none;stroke:#1f77b4;stroke-linecap:square;stroke-width:1.5;"/>
   </g>
   <g id="line2d_16">
    <path clip-path="url(#p07e83dbf5b)" d="M 217.636364 227.682056 
L 218.012821 227.832284 
L 218.577508 228.363196 
L 219.142195 229.237258 
L 219.89511 230.865599 
L 221.024483 233.999644 
L 222.906772 239.398544 
L 223.659688 240.964945 
L 224.224374 241.731843 
L 224.789061 242.092503 
L 225.165519 242.091684 
L 225.541976 241.896825 
L 226.106663 241.256944 
L 226.67135 240.237994 
L 227.424265 238.411042 
L 228.930096 233.958413 
L 230.247698 230.372704 
L 231.000614 228.877442 
L 231.5653 228.125028 
L 232.129987 227.728566 
L 232.506445 227.670637 
L 232.882903 227.779169 
L 233.447589 228.248816 
L 234.012276 229.067302 
L 234.765191 230.635089 
L 235.706336 233.166274 
L 238.153311 240.046848 
L 238.906227 241.397135 
L 239.470913 241.966205 
L 239.847371 242.110468 
L 240.223829 242.061117 
L 240.600286 241.818927 
L 241.164973 241.112132 
L 241.72966 240.036446 
L 242.670804 237.628459 
L 245.494237 229.752602 
L 246.247153 228.459511 
L 246.811839 227.881186 
L 247.376526 227.669473 
L 247.752984 227.736765 
L 248.31767 228.146709 
L 248.882357 228.910722 
L 249.635272 230.414734 
L 250.576417 232.89233 
L 253.211621 240.253566 
L 253.964537 241.523216 
L 254.529223 242.021556 
L 254.905681 242.116347 
L 255.282139 242.016448 
L 255.658596 241.725337 
L 256.223283 240.949618 
L 256.976199 239.370587 
L 258.105572 236.226191 
L 259.987861 230.816382 
L 260.740776 229.195695 
L 261.493692 228.1226 
L 262.058378 227.727381 
L 262.434836 227.670934 
L 262.811294 227.781679 
L 263.37598 228.25477 
L 263.940667 229.075928 
L 264.693582 230.645603 
L 265.822956 233.734448 
L 267.893473 239.638234 
L 268.646389 241.130459 
L 269.211075 241.827889 
L 269.587533 242.064779 
L 269.963991 242.109096 
L 270.340449 241.959375 
L 270.905135 241.381097 
L 271.469822 240.414944 
L 272.222738 238.640402 
L 273.54034 234.790608 
L 275.046171 230.578861 
L 275.799086 229.024874 
L 276.363773 228.219847 
L 276.928459 227.766811 
L 277.304917 227.669278 
L 277.681375 227.738765 
L 278.246062 228.151256 
L 278.810748 228.916687 
L 279.563664 230.423952 
L 280.504808 232.903425 
L 283.140012 240.2597 
L 283.892928 241.525452 
L 284.457614 242.021992 
L 284.834072 242.116346 
L 285.21053 242.016722 
L 285.586988 241.725861 
L 286.151674 240.951461 
L 286.90459 239.377356 
L 288.033963 236.242545 
L 289.916252 230.827326 
L 290.669167 229.203864 
L 291.233854 228.338651 
L 291.798541 227.820671 
L 292.174998 227.678935 
L 292.551456 227.704212 
L 292.927914 227.896181 
L 293.4926 228.487889 
L 294.057287 229.416052 
L 294.810203 231.101503 
L 295.939576 234.285996 
L 297.821865 239.632965 
L 298.57478 241.124908 
L 299.139467 241.82523 
L 299.515924 242.063657 
L 299.892382 242.109603 
L 300.26884 241.961769 
L 300.833527 241.387102 
L 301.398213 240.425549 
L 302.151129 238.657275 
L 303.468731 234.813232 
L 304.974562 230.594889 
L 305.727477 229.035468 
L 306.292164 228.226921 
L 306.856851 227.768878 
L 307.233308 227.669438 
L 307.609766 227.737047 
L 308.174453 228.147108 
L 308.739139 228.90925 
L 309.492055 230.414489 
L 310.433199 232.894077 
L 313.068403 240.252075 
L 313.821319 241.520822 
L 314.386006 242.020265 
L 314.762463 242.11636 
L 315.138921 242.018046 
L 315.515379 241.728489 
L 316.080065 240.954649 
L 316.832981 239.379861 
L 317.774125 236.802383 
L 320.032872 230.372071 
L 320.785787 228.876139 
L 321.350474 228.124504 
L 321.915161 227.727901 
L 322.291618 227.670802 
L 322.668076 227.7811 
L 323.232763 228.252815 
L 323.797449 229.074356 
L 324.550365 230.644529 
L 325.491509 233.176044 
L 327.938485 240.059652 
L 328.6914 241.405158 
L 329.256087 241.970179 
L 329.632544 242.111271 
L 330.009002 242.058111 
L 330.38546 241.811938 
L 330.950147 241.098306 
L 331.514833 240.016953 
L 332.455978 237.606002 
L 335.279411 229.742286 
L 336.032326 228.453293 
L 336.597013 227.878415 
L 337.1617 227.669268 
L 337.538157 227.738985 
L 338.102844 228.15178 
L 338.667531 228.918523 
L 339.420446 230.42861 
L 340.36159 232.91246 
L 342.808566 239.858035 
L 343.561481 241.274582 
L 344.126168 241.905885 
L 344.502626 242.094599 
L 344.879083 242.08947 
L 345.255541 241.890927 
L 345.820228 241.245027 
L 346.384914 240.221844 
L 347.13783 238.392155 
L 348.643661 233.939168 
L 349.773034 230.805659 
L 350.52595 229.19046 
L 351.278865 228.119487 
L 351.843552 227.726561 
L 352.22001 227.671044 
L 352.596467 227.782468 
L 353.161154 228.257794 
L 353.725841 229.081582 
L 354.478756 230.654211 
L 355.608129 233.738084 
L 357.678647 239.643479 
L 358.431562 241.131639 
L 358.996249 241.829037 
L 359.372707 242.065587 
L 359.749165 242.108933 
L 360.125622 241.958213 
L 360.690309 241.379786 
L 361.254996 240.416859 
L 362.007911 238.64495 
L 363.325513 234.794742 
L 364.831344 230.582174 
L 365.58426 229.025753 
L 366.148946 228.219988 
L 366.713633 227.766178 
L 367.090091 227.669232 
L 367.466548 227.739235 
L 368.031235 228.152308 
L 368.595922 228.919743 
L 369.348837 230.429548 
L 370.289982 232.91484 
L 372.736957 239.857461 
L 373.489872 241.27556 
L 374.054559 241.905998 
L 374.431017 242.094542 
L 374.807475 242.089196 
L 375.183932 241.891074 
L 375.748619 241.244613 
L 376.313306 240.220873 
L 377.066221 238.388748 
L 378.572052 233.930958 
L 379.889654 230.352682 
L 380.64257 228.863381 
L 381.207256 228.116289 
L 381.771943 227.725174 
L 382.148401 227.671346 
L 382.524858 227.784152 
L 383.089545 228.260931 
L 383.654232 229.086305 
L 384.407147 230.659966 
L 385.53652 233.74338 
L 387.607038 239.645645 
L 388.359954 241.135353 
L 388.92464 241.830787 
L 389.301098 242.066018 
L 389.677556 242.108736 
L 390.054014 241.957531 
L 390.6187 241.37795 
L 391.183387 240.41185 
L 391.936302 238.638034 
L 393.253904 234.788511 
L 394.759735 230.574036 
L 395.512651 229.021244 
L 396.077338 228.218054 
L 396.642024 227.765287 
L 397.018482 227.669155 
L 397.39494 227.740158 
L 397.959626 228.156357 
L 398.524313 228.925838 
L 399.277228 230.434489 
L 400.218373 232.919653 
L 402.853577 240.274429 
L 403.606493 241.534728 
L 404.171179 242.026183 
L 404.547637 242.116242 
L 404.924095 242.012364 
L 405.300552 241.717615 
L 405.865239 240.938753 
L 406.618155 239.35573 
L 407.559299 236.76866 
L 409.818045 230.341971 
L 410.570961 228.856637 
L 411.135648 228.112509 
L 411.700334 227.723471 
L 412.076792 227.67177 
L 412.45325 227.787163 
L 413.017936 228.267688 
L 413.582623 229.093741 
L 414.335538 230.670687 
L 415.276683 233.20746 
L 417.535429 239.651035 
L 418.288345 241.138907 
L 418.853031 241.833596 
L 419.229489 242.067394 
L 419.605947 242.108128 
L 419.982405 241.954664 
L 420.547091 241.372799 
L 421.111778 240.403607 
L 421.864693 238.627829 
L 423.182296 234.775077 
L 424.688127 230.564592 
L 425.441042 229.013863 
L 426.005729 228.213182 
L 426.570415 227.763821 
L 426.946873 227.669094 
L 427.323331 227.741061 
L 427.888017 228.158142 
L 428.452704 228.92854 
L 429.20562 230.44019 
L 430.146764 232.923176 
L 432.593739 239.866966 
L 433.346655 241.281118 
L 433.911341 241.909452 
L 434.287799 242.095766 
L 434.664257 242.087957 
L 435.040715 241.886846 
L 435.605401 241.237728 
L 436.170088 240.211093 
L 436.923003 238.379568 
L 438.617063 233.365164 
L 439.746437 230.346617 
L 440.499352 228.858727 
L 441.064039 228.113817 
L 441.628725 227.724369 
L 442.005183 227.671503 
L 442.381641 227.785325 
L 442.946327 228.263176 
L 443.511014 229.088923 
L 444.26393 230.664194 
L 445.393303 233.757631 
L 447.463821 239.649778 
L 448.216736 241.137375 
L 448.781423 241.833362 
L 449.15788 242.067264 
L 449.534338 242.108184 
L 449.910796 241.9546 
L 450.475483 241.372114 
L 451.040169 240.401746 
L 451.793085 238.625791 
L 453.110687 234.774882 
L 454.616518 230.566368 
L 455.369433 229.015169 
L 455.93412 228.213013 
L 456.498807 227.763363 
L 456.875264 227.669037 
L 457.251722 227.741863 
L 457.816409 228.159188 
L 458.381095 228.928867 
L 459.134011 230.441488 
L 460.075155 232.926965 
L 462.710359 240.273552 
L 463.463275 241.533283 
L 464.027962 242.025926 
L 464.404419 242.116248 
L 464.780877 242.01248 
L 465.157335 241.717899 
L 465.722021 240.939373 
L 466.474937 239.357813 
L 467.60431 236.211467 
L 469.486599 230.800413 
L 470.239514 229.188233 
L 470.804201 228.328622 
L 471.368888 227.815484 
L 471.745345 227.677652 
L 472.121803 227.706405 
L 472.498261 227.901628 
L 473.062948 228.497112 
L 473.627634 229.428827 
L 474.38055 231.117619 
L 475.509923 234.30794 
L 477.392212 239.649436 
L 478.145127 241.13777 
L 478.709814 241.83164 
L 479.086272 242.066476 
L 479.462729 242.108392 
L 479.839187 241.956099 
L 480.403874 241.375559 
L 480.96856 240.409431 
L 481.721476 238.635745 
L 483.039078 234.785575 
L 484.544909 230.574824 
L 485.297824 229.021262 
L 485.862511 228.218089 
L 486.427198 227.765051 
L 486.803655 227.669155 
L 487.180113 227.740089 
L 487.7448 228.155332 
L 488.309486 228.923416 
L 489.062402 230.433401 
L 490.003546 232.916424 
L 492.638751 240.268583 
L 493.391666 241.532824 
L 493.956353 242.025176 
L 494.33281 242.116271 
L 494.709268 242.013043 
L 495.085726 241.71829 
L 495.650413 240.938552 
L 496.403328 239.353692 
L 497.532701 236.204989 
L 499.41499 230.797518 
L 500.167906 229.182816 
L 500.732592 228.324946 
L 501.297279 227.81417 
L 501.673737 227.677301 
L 502.050194 227.707325 
L 502.426652 227.90404 
L 502.991339 228.500627 
L 503.556025 229.433403 
L 504.308941 231.12521 
L 505.438314 234.311291 
L 507.320603 239.646966 
L 508.073518 241.136333 
L 508.638205 241.831635 
L 509.014663 242.066484 
L 509.391121 242.108695 
L 509.767578 241.956531 
L 510.332265 241.376147 
L 510.896952 240.410259 
L 511.649867 238.636804 
L 512.967469 234.785016 
L 514.4733 230.57506 
L 515.226216 229.022803 
L 515.790902 228.217342 
L 516.355589 227.764934 
L 516.732047 227.669168 
L 517.108504 227.740249 
L 517.673191 228.155858 
L 518.237878 228.924815 
L 518.990793 230.436548 
L 519.931938 232.91866 
L 522.567142 240.272729 
L 523.320057 241.533197 
L 523.884744 242.025205 
L 524.261202 242.116274 
L 524.637659 242.013082 
L 525.014117 241.719165 
L 525.578804 240.939112 
L 526.331719 239.357504 
L 527.272864 236.774535 
L 529.53161 230.352522 
L 530.284526 228.863597 
L 530.849212 228.11593 
L 531.413899 227.725193 
L 531.790357 227.671308 
L 532.166814 227.784635 
L 532.731501 228.261241 
L 533.296188 229.086659 
L 534.049103 230.658274 
L 534.990248 233.18869 
L 537.437223 240.067216 
L 538.190138 241.408468 
L 538.754825 241.971197 
L 539.131283 242.111565 
L 539.507741 242.057417 
L 539.884198 241.811274 
L 540.448885 241.097159 
L 541.013572 240.016291 
L 541.954716 237.59895 
L 544.778149 229.732657 
L 545.531065 228.446184 
L 546.095751 227.874546 
L 546.660438 227.669126 
L 547.036896 227.740469 
L 547.601582 228.155542 
L 548.166269 228.923164 
L 548.919184 230.433652 
L 549.860329 232.917529 
L 552.495533 240.263293 
L 553.248448 241.528692 
L 553.813135 242.023447 
L 554.189593 242.116328 
L 554.566051 242.015662 
L 554.942508 241.724312 
L 555.507195 240.948185 
L 556.26011 239.373888 
L 557.201255 236.793465 
L 559.460001 230.367478 
L 560.212917 228.875248 
L 560.777603 228.125404 
L 561.34229 227.728227 
L 561.718748 227.670737 
L 562.095206 227.780598 
L 562.659892 228.253058 
L 563.224579 229.07306 
L 563.977494 230.643732 
L 564.918639 233.17423 
L 567.365614 240.057361 
L 568.11853 241.401307 
L 568.683216 241.967694 
L 569.059674 242.110831 
L 569.436132 242.060032 
L 569.81259 241.816581 
L 570.377276 241.108076 
L 570.941963 240.030533 
L 571.883107 237.618642 
L 574.70654 229.752915 
L 575.459456 228.459346 
L 576.024142 227.881503 
L 576.588829 227.669547 
L 576.965287 227.736299 
L 577.529973 228.14636 
L 578.09466 228.91005 
L 578.847576 230.412902 
L 579.78872 232.894259 
L 582.423924 240.258137 
L 583.17684 241.525631 
L 583.741526 242.021942 
L 584.117984 242.116344 
L 584.494442 242.01582 
L 584.8709 241.724522 
L 585.435586 240.949657 
L 586.188502 239.372765 
L 587.129646 236.794415 
L 589.388393 230.368362 
L 590.141308 228.87255 
L 590.705995 228.122182 
L 591.270681 227.727322 
L 591.647139 227.670872 
L 592.023597 227.781317 
L 592.588283 228.255733 
L 593.15297 229.07904 
L 593.905886 230.650076 
L 594.84703 233.183844 
L 597.294005 240.061262 
L 598.046921 241.404063 
L 598.611607 241.969736 
L 598.988065 242.111198 
L 599.364523 242.058975 
L 599.740981 241.814592 
L 600.305667 241.104572 
L 601.058583 239.596422 
L 601.999727 237.068123 
L 604.446703 230.152851 
L 605.199618 228.724051 
L 605.764305 228.030986 
L 606.328991 227.697615 
L 606.705449 227.682875 
L 607.081907 227.834725 
L 607.646593 228.367152 
L 608.21128 229.242645 
L 608.964196 230.871843 
L 610.093569 234.009147 
L 611.975858 239.405903 
L 612.728773 240.969925 
L 613.29346 241.737178 
L 613.858146 242.093725 
L 614.234604 242.09034 
L 614.611062 241.893186 
L 615.175748 241.251504 
L 615.740435 240.231956 
L 616.493351 238.402316 
L 617.999182 233.956886 
L 619.316784 230.371005 
L 620.069699 228.875679 
L 620.634386 228.124008 
L 621.199072 227.728109 
L 621.57553 227.670716 
L 621.951988 227.780466 
L 622.516675 228.252223 
L 623.081361 229.071004 
L 623.834277 230.640231 
L 624.775421 233.170694 
L 627.222397 240.055277 
L 627.975312 241.40204 
L 628.539999 241.968416 
L 628.916456 242.111003 
L 629.292914 242.059592 
L 629.669372 241.816053 
L 630.234059 241.106339 
L 630.798745 240.028152 
L 631.73989 237.617953 
L 634.563323 229.749518 
L 635.316238 228.456423 
L 635.880925 227.879621 
L 636.445611 227.66937 
L 636.822069 227.737677 
L 637.386756 228.149301 
L 637.951442 228.915543 
L 638.704358 230.424415 
L 639.645502 232.906722 
L 642.092478 239.855379 
L 642.845393 241.272241 
L 643.41008 241.905184 
L 643.786538 242.094024 
L 644.162995 242.089943 
L 644.539453 241.892614 
L 645.10414 241.248126 
L 645.668826 240.226931 
L 646.421742 238.399918 
L 647.927573 233.947472 
L 649.245175 230.363071 
L 649.99809 228.870518 
L 650.562777 228.120795 
L 651.127464 227.72687 
L 651.503921 227.67097 
L 651.880379 227.78187 
L 652.445066 228.255011 
L 653.009752 229.076254 
L 653.762668 230.649454 
L 654.703812 233.182559 
L 657.150788 240.064964 
L 657.903703 241.406217 
L 658.46839 241.97023 
L 658.844848 242.111308 
L 659.221305 242.058544 
L 659.597763 241.813407 
L 660.16245 241.100894 
L 660.727136 240.019545 
L 661.668281 237.606984 
L 664.491714 229.740104 
L 665.244629 228.451677 
L 665.809316 227.877053 
L 666.374003 227.669252 
L 666.75046 227.739193 
L 667.315147 228.153003 
L 667.879834 228.920265 
L 668.632749 230.43032 
L 669.573893 232.91073 
L 672.209098 240.267681 
L 672.962013 241.530561 
L 673.5267 242.02422 
L 673.903158 242.116297 
L 674.279615 242.013922 
L 674.656073 241.720672 
L 675.22076 240.943045 
L 675.973675 239.363334 
L 676.91482 236.779602 
L 679.173566 230.35005 
L 679.926482 228.862462 
L 680.491168 228.115276 
L 681.055855 227.725005 
L 681.432313 227.671316 
L 681.80877 227.784516 
L 682.373457 228.260746 
L 682.938144 229.087896 
L 683.691059 230.661016 
L 684.632204 233.196859 
L 686.89095 239.649727 
L 687.643866 241.139006 
L 688.208552 241.833134 
L 688.58501 242.067003 
L 688.961468 242.108242 
L 689.337925 241.955754 
L 689.902612 241.376155 
L 690.467299 240.41004 
L 691.220214 238.635637 
L 692.537816 234.784478 
L 694.043647 230.572927 
L 694.796563 229.022094 
L 695.361249 228.218614 
L 695.925936 227.76568 
L 696.302394 227.669212 
L 696.678852 227.739573 
L 697.243538 228.154409 
L 697.808225 228.922849 
L 698.56114 230.434298 
L 699.502285 232.917163 
L 702.137489 240.270919 
L 702.890404 241.532621 
L 703.455091 242.025037 
L 703.831549 242.116275 
L 704.208007 242.013159 
L 704.584464 241.719809 
L 705.149151 240.943268 
L 705.902066 239.362846 
L 706.843211 236.780554 
L 709.101957 230.360022 
L 709.854873 228.869341 
L 710.419559 228.119662 
L 710.984246 227.726739 
L 711.360704 227.671039 
L 711.737162 227.782305 
L 712.301848 228.256902 
L 712.866535 229.079344 
L 713.61945 230.649306 
L 714.560595 233.180582 
L 717.00757 240.060159 
L 717.760486 241.404104 
L 718.325172 241.968909 
L 718.70163 242.111095 
L 719.078088 242.059336 
L 719.454545 241.814578 
L 720.019232 241.105112 
L 720.583919 240.028139 
L 721.525063 237.617752 
L 724.348496 229.747301 
L 725.101412 228.457062 
L 725.666098 227.880796 
L 726.230785 227.669398 
L 726.607243 227.737609 
L 727.171929 228.148613 
L 727.736616 228.91161 
L 728.489531 230.418636 
L 729.430676 232.898482 
L 732.06588 240.259024 
L 732.818796 241.526536 
L 733.383482 242.023244 
L 733.75994 242.116323 
L 734.136398 242.015234 
L 734.512855 241.722897 
L 735.077542 240.946914 
L 735.830458 239.369602 
L 736.771602 236.787319 
L 739.030348 230.359789 
L 739.783264 228.867148 
L 740.347951 228.118671 
L 740.912637 227.726317 
L 741.289095 227.671152 
L 741.665553 227.782956 
L 742.230239 228.258 
L 742.794926 229.082578 
L 743.547842 230.653987 
L 744.488986 233.187264 
L 746.747732 239.644181 
L 747.500648 241.133461 
L 748.065335 241.830031 
L 748.441792 242.065529 
L 748.81825 242.108875 
L 749.194708 241.958405 
L 749.759394 241.380942 
L 750.324081 240.419516 
L 751.076997 238.649262 
L 752.394599 234.799195 
L 753.90043 230.582748 
L 754.653345 229.027367 
L 755.218032 228.221495 
L 755.782718 227.767057 
L 756.159176 227.669323 
L 756.535634 227.73837 
L 757.100321 228.151543 
L 757.665007 228.916849 
L 758.417923 230.423666 
L 759.359067 232.902934 
L 761.806042 239.850426 
L 762.558958 241.271006 
L 763.123645 241.903469 
L 763.500102 242.093672 
L 763.87656 242.090292 
L 764.253018 241.893544 
L 764.817704 241.250667 
L 765.382391 240.229457 
L 766.135307 238.401052 
L 767.641138 233.952021 
L 768.95874 230.370244 
L 769.711655 228.875588 
L 770.276342 228.124328 
L 770.841028 227.728049 
L 771.217486 227.670806 
L 771.593944 227.780733 
L 772.158631 228.25268 
L 772.723317 229.074338 
L 773.476233 230.643269 
L 774.417377 233.17603 
L 776.864352 240.06227 
L 777.617268 241.404949 
L 778.181955 241.96928 
L 778.558412 242.111056 
L 778.93487 242.059165 
L 779.311328 241.814653 
L 779.876014 241.106055 
L 780.440701 240.027531 
L 781.381845 237.61463 
L 784.205279 229.748187 
L 784.958194 228.456223 
L 785.522881 227.878984 
L 786.087567 227.669302 
L 786.464025 227.738544 
L 787.028712 228.152008 
L 787.593398 228.918922 
L 788.346314 230.427819 
L 789.287458 232.90648 
L 791.734434 239.857389 
L 792.487349 241.273173 
L 793.052036 241.905343 
L 793.428493 242.094378 
L 793.804951 242.089339 
L 794.181409 241.891314 
L 794.746096 241.24684 
L 795.310782 240.224292 
L 796.063698 238.396299 
L 797.569529 233.950127 
L 798.887131 230.366801 
L 799.640046 228.873667 
L 800.204733 228.123783 
L 800.76942 227.727887 
L 801.145877 227.670826 
L 801.522335 227.781103 
L 802.087022 228.253856 
L 802.651708 229.074124 
L 803.404624 230.642493 
L 804.345768 233.172758 
L 806.604515 239.627747 
L 807.35743 241.123427 
L 807.922117 241.825348 
L 808.298575 242.063497 
L 808.675032 242.109608 
L 809.05149 241.961497 
L 809.616177 241.387955 
L 810.180863 240.428508 
L 810.933779 238.660194 
L 812.251381 234.815039 
L 813.757212 230.597376 
L 814.510128 229.037749 
L 815.074814 228.228937 
L 815.639501 227.769687 
L 816.015959 227.669535 
L 816.392416 227.736166 
L 816.957103 228.145271 
L 817.52179 228.907786 
L 818.274705 230.414132 
L 819.215849 232.892782 
L 821.851054 240.251586 
L 822.603969 241.519585 
L 823.168656 242.019988 
L 823.545114 242.116362 
L 823.921571 242.017855 
L 824.298029 241.728649 
L 824.862716 240.955521 
L 825.615631 239.379986 
L 826.556776 236.804714 
L 828.815522 230.375212 
L 829.568438 228.877866 
L 830.133124 228.126261 
L 830.697811 227.728903 
L 831.074269 227.670565 
L 831.450726 227.779057 
L 832.015413 228.249499 
L 832.5801 229.06709 
L 833.333015 230.636392 
L 834.274159 233.16693 
L 836.721135 240.048605 
L 837.47405 241.397435 
L 838.038737 241.966303 
L 838.415195 242.110638 
L 838.791652 242.060615 
L 839.16811 241.819162 
L 839.732797 241.114019 
L 840.485712 239.612128 
L 841.426857 237.086871 
L 843.873832 230.166538 
L 844.626748 228.733945 
L 845.191434 228.036496 
L 845.756121 227.699199 
L 846.132579 227.681626 
L 846.509036 227.83056 
L 847.073723 228.360244 
L 847.63841 229.234704 
L 848.391325 230.860545 
L 849.520698 233.997084 
L 851.402987 239.400286 
L 852.155903 240.965251 
L 852.720589 241.733335 
L 853.285276 242.092722 
L 853.661734 242.091313 
L 854.038191 241.89596 
L 854.602878 241.255142 
L 855.167565 240.236537 
L 855.92048 238.406052 
L 857.426311 233.958244 
L 858.743913 230.374317 
L 859.496829 228.878004 
L 860.061515 228.12552 
L 860.626202 227.728706 
L 861.00266 227.670661 
L 861.379118 227.779845 
L 861.943804 228.250891 
L 862.508491 229.071494 
L 863.261406 230.639211 
L 864.202551 233.169629 
L 866.649526 240.049983 
L 867.402442 241.397657 
L 867.967128 241.965813 
L 868.343586 242.110496 
L 868.720044 242.060943 
L 869.096501 241.818701 
L 869.661188 241.112363 
L 870.225875 240.03855 
L 871.167019 237.628638 
L 873.990452 229.753686 
L 874.743368 228.459781 
L 875.308054 227.881049 
L 875.872741 227.66946 
L 876.249199 227.736837 
L 876.813885 228.147447 
L 877.378572 228.912085 
L 878.131487 230.416258 
L 879.072632 232.894922 
L 881.707836 240.256927 
L 882.460752 241.523796 
L 883.025438 242.021777 
L 883.401896 242.116353 
L 883.778354 242.017547 
L 884.154811 241.726874 
L 884.719498 240.952878 
L 885.472414 239.375982 
L 886.413558 236.800276 
L 888.672304 230.373041 
L 889.42522 228.877396 
L 889.989907 228.124898 
L 890.554593 227.728509 
L 890.931051 227.670692 
L 891.307509 227.780122 
L 891.872195 228.252073 
L 892.436882 229.07352 
L 893.189797 230.642563 
L 894.130942 233.174545 
L 896.389688 239.636188 
L 897.142604 241.127829 
L 897.70729 241.827514 
L 898.083748 242.06468 
L 898.460206 242.109353 
L 898.836664 241.960909 
L 899.40135 241.385394 
L 899.966037 240.422823 
L 900.718952 238.651462 
L 902.036555 234.80009 
L 903.542386 230.586735 
L 904.295301 229.0305 
L 904.859988 228.223065 
L 905.424674 227.767529 
L 905.801132 227.669322 
L 906.17759 227.738308 
L 906.742276 228.151378 
L 907.306963 228.918744 
L 908.059879 230.426448 
L 909.001023 232.906805 
L 911.636227 240.267317 
L 912.389143 241.530235 
L 912.953829 242.02436 
L 913.330287 242.116305 
L 913.706745 242.01417 
L 914.083203 241.721171 
L 914.647889 240.943229 
L 915.400805 239.36415 
L 916.341949 236.788147 
L 918.600696 230.363608 
L 919.353611 228.872707 
L 919.918298 228.123188 
L 920.482984 227.727555 
L 920.859442 227.670842 
L 921.2359 227.781316 
L 921.800587 228.254642 
L 922.365273 229.074574 
L 923.118189 230.642834 
L 924.247562 233.728103 
L 926.31808 239.636019 
L 927.070995 241.127689 
L 927.635682 241.827677 
L 928.012139 242.064574 
L 928.388597 242.109323 
L 928.765055 241.959785 
L 929.329742 241.382329 
L 929.894428 240.418906 
L 930.647344 238.648403 
L 931.964946 234.796758 
L 933.470777 230.586599 
L 934.223692 229.031624 
L 934.788379 228.224957 
L 935.353066 227.768488 
L 935.729523 227.669424 
L 936.105981 227.737342 
L 936.670668 228.148653 
L 937.235354 228.913773 
L 937.98827 230.420991 
L 938.929414 232.904922 
L 941.564618 240.263637 
L 942.317534 241.529226 
L 942.882221 242.023453 
L 943.258678 242.116324 
L 943.635136 242.015263 
L 944.011594 241.722741 
L 944.57628 240.946158 
L 945.329196 239.367198 
L 946.27034 236.780402 
L 948.529087 230.359823 
L 949.282002 228.870494 
L 949.846689 228.120944 
L 950.411376 227.726383 
L 950.787833 227.671091 
L 951.164291 227.782357 
L 951.728978 228.256038 
L 952.293664 229.078065 
L 953.04658 230.647962 
L 953.987724 233.180729 
L 956.4347 240.060499 
L 957.187615 241.405504 
L 957.752302 241.97005 
L 958.128759 242.111261 
L 958.505217 242.058681 
L 958.881675 241.813093 
L 959.446362 241.101925 
L 960.199277 239.592875 
L 961.140421 237.06127 
L 963.587397 230.145159 
L 964.340312 228.719801 
L 964.904999 228.028188 
L 965.469686 227.696971 
L 965.846143 227.683363 
L 966.222601 227.83656 
L 966.787288 228.371445 
L 967.351974 229.248889 
L 968.10489 230.882139 
L 969.234263 234.023001 
L 970.363636 237.4023 
L 970.363636 237.4023 
" style="fill:none;stroke:#ff7f0e;stroke-linecap:square;stroke-width:1.5;"/>
   </g>
   <g id="line2d_17">
    <path clip-path="url(#p07e83dbf5b)" d="M 217.636364 59.81988 
L 222.906772 59.115799 
L 228.36541 58.609616 
L 233.824047 58.319101 
L 239.659142 58.231668 
L 245.306008 58.366715 
L 250.764646 58.703469 
L 256.223283 59.25523 
L 261.68192 60.028899 
L 266.575871 60.93102 
L 272.034509 62.176826 
L 276.928459 63.510119 
L 282.010639 65.090465 
L 287.845734 67.073955 
L 298.386551 70.611439 
L 302.527586 71.678141 
L 305.539248 72.242515 
L 308.55091 72.580947 
L 311.374344 72.677359 
L 314.197777 72.553375 
L 317.02121 72.214232 
L 320.032872 71.635472 
L 323.60922 70.709563 
L 327.373798 69.538932 
L 333.208893 67.524187 
L 341.490964 64.696708 
L 347.890745 62.786652 
L 353.725841 61.351459 
L 359.560936 60.198796 
L 364.831344 59.400796 
L 370.666439 58.766593 
L 376.125077 58.400676 
L 381.771943 58.237121 
L 387.418809 58.289284 
L 393.065676 58.555953 
L 398.712542 59.046357 
L 403.794721 59.690237 
L 409.06513 60.57556 
L 414.335538 61.691183 
L 419.229489 62.945659 
L 424.12344 64.3918 
L 431.464366 66.848518 
L 440.687581 70.014569 
L 445.016845 71.260344 
L 448.404965 72.009625 
L 451.604856 72.476035 
L 454.428289 72.664239 
L 457.251722 72.629781 
L 460.075155 72.374849 
L 463.086817 71.881019 
L 466.286708 71.140297 
L 470.239514 69.985524 
L 475.509923 68.205596 
L 485.674282 64.716097 
L 491.321148 63.01587 
L 496.02687 61.792679 
L 500.544363 60.800234 
L 505.626543 59.895882 
L 511.461638 59.111822 
L 517.296733 58.583346 
L 523.131828 58.295409 
L 528.778695 58.235739 
L 534.61379 58.40135 
L 540.448885 58.799833 
L 545.719293 59.374423 
L 551.930846 60.307022 
L 557.013026 61.313152 
L 561.718748 62.436056 
L 567.177385 63.976421 
L 573.765396 66.117875 
L 589.011935 71.143712 
L 592.400055 71.924854 
L 595.411717 72.40209 
L 598.23515 72.640049 
L 601.058583 72.658654 
L 603.882016 72.458065 
L 606.705449 72.044956 
L 609.90534 71.358163 
L 614.046375 70.194956 
L 618.375639 68.767653 
L 633.433949 63.700885 
L 638.704358 62.241833 
L 644.539453 60.911538 
L 649.433404 60.012866 
L 654.327355 59.306013 
L 659.409534 58.771566 
L 664.868172 58.403971 
L 670.891496 58.234905 
L 676.538362 58.297578 
L 682.185228 58.578322 
L 687.455637 59.043554 
L 693.290732 59.794677 
L 698.937598 60.779483 
L 703.831549 61.854126 
L 709.290186 63.288166 
L 715.31351 65.137797 
L 721.901521 67.385653 
L 730.37182 70.254054 
L 734.324627 71.361041 
L 737.712746 72.082265 
L 740.912637 72.516753 
L 743.73607 72.672976 
L 746.559504 72.608276 
L 749.382937 72.326019 
L 752.394599 71.802524 
L 755.970947 70.932518 
L 760.111983 69.680532 
L 767.26468 67.212988 
L 777.052581 63.935222 
L 782.511219 62.395612 
L 788.911 60.914376 
L 793.99318 59.981084 
L 799.07536 59.262169 
L 804.722226 58.695122 
L 810.369092 58.355724 
L 815.82773 58.231534 
L 821.662825 58.319727 
L 827.121462 58.609518 
L 832.768328 59.127985 
L 838.415195 59.88844 
L 843.873832 60.861756 
L 849.144241 62.050948 
L 853.849962 63.310668 
L 861.00266 65.543203 
L 876.437428 70.728705 
L 880.013776 71.648131 
L 883.213667 72.250875 
L 886.413558 72.598902 
L 889.236991 72.675056 
L 892.060424 72.528932 
L 895.072086 72.138419 
L 898.271977 71.48855 
L 902.036555 70.470462 
L 906.17759 69.143529 
L 913.518516 66.574944 
L 921.612358 63.917696 
L 928.012139 62.139958 
L 933.470777 60.898917 
L 939.305872 59.850452 
L 944.011594 59.206507 
L 949.65846 58.656229 
L 955.870013 58.315011 
L 961.893337 58.233214 
L 967.540203 58.376474 
L 970.363636 58.529231 
L 970.363636 58.529231 
" style="fill:none;stroke:#2ca02c;stroke-linecap:square;stroke-width:1.5;"/>
   </g>
   <g id="patch_3">
    <path d="M 180 252 
L 180 34.56 
" style="fill:none;stroke:#000000;stroke-linecap:square;stroke-linejoin:miter;stroke-width:0.8;"/>
   </g>
   <g id="patch_4">
    <path d="M 1008 252 
L 1008 34.56 
" style="fill:none;stroke:#000000;stroke-linecap:square;stroke-linejoin:miter;stroke-width:0.8;"/>
   </g>
   <g id="patch_5">
    <path d="M 180 252 
L 1008 252 
" style="fill:none;stroke:#000000;stroke-linecap:square;stroke-linejoin:miter;stroke-width:0.8;"/>
   </g>
   <g id="patch_6">
    <path d="M 180 34.56 
L 1008 34.56 
" style="fill:none;stroke:#000000;stroke-linecap:square;stroke-linejoin:miter;stroke-width:0.8;"/>
   </g>
   <g id="text_10">
    <!-- synthetic data -->
    <defs>
     <path d="M 6.59375 0 
L 6.59375 51.859375 
L 14.5 51.859375 
L 14.5 44.484375 
Q 20.21875 53.03125 31 53.03125 
Q 35.6875 53.03125 39.625 51.34375 
Q 43.5625 49.65625 45.515625 46.921875 
Q 47.46875 44.1875 48.25 40.4375 
Q 48.734375 37.984375 48.734375 31.890625 
L 48.734375 0 
L 39.9375 0 
L 39.9375 31.546875 
Q 39.9375 36.921875 38.90625 39.578125 
Q 37.890625 42.234375 35.28125 43.8125 
Q 32.671875 45.40625 29.15625 45.40625 
Q 23.53125 45.40625 19.453125 41.84375 
Q 15.375 38.28125 15.375 28.328125 
L 15.375 0 
z
" id="ArialMT-110"/>
     <path d="M 40.234375 0 
L 40.234375 6.546875 
Q 35.296875 -1.171875 25.734375 -1.171875 
Q 19.53125 -1.171875 14.328125 2.25 
Q 9.125 5.671875 6.265625 11.796875 
Q 3.421875 17.921875 3.421875 25.875 
Q 3.421875 33.640625 6 39.96875 
Q 8.59375 46.296875 13.765625 49.65625 
Q 18.953125 53.03125 25.34375 53.03125 
Q 30.03125 53.03125 33.6875 51.046875 
Q 37.359375 49.078125 39.65625 45.90625 
L 39.65625 71.578125 
L 48.390625 71.578125 
L 48.390625 0 
z
M 12.453125 25.875 
Q 12.453125 15.921875 16.640625 10.984375 
Q 20.84375 6.0625 26.5625 6.0625 
Q 32.328125 6.0625 36.34375 10.765625 
Q 40.375 15.484375 40.375 25.140625 
Q 40.375 35.796875 36.265625 40.765625 
Q 32.171875 45.75 26.171875 45.75 
Q 20.3125 45.75 16.375 40.96875 
Q 12.453125 36.1875 12.453125 25.875 
z
" id="ArialMT-100"/>
    </defs>
    <g transform="translate(497.748 27.993375)scale(0.312 -0.312)">
     <use xlink:href="#ArialMT-115"/>
     <use x="50" xlink:href="#ArialMT-121"/>
     <use x="100" xlink:href="#ArialMT-110"/>
     <use x="155.615234" xlink:href="#ArialMT-116"/>
     <use x="183.398438" xlink:href="#ArialMT-104"/>
     <use x="239.013672" xlink:href="#ArialMT-101"/>
     <use x="294.628906" xlink:href="#ArialMT-116"/>
     <use x="322.412109" xlink:href="#ArialMT-105"/>
     <use x="344.628906" xlink:href="#ArialMT-99"/>
     <use x="394.628906" xlink:href="#ArialMT-32"/>
     <use x="422.412109" xlink:href="#ArialMT-100"/>
     <use x="478.027344" xlink:href="#ArialMT-97"/>
     <use x="533.642578" xlink:href="#ArialMT-116"/>
     <use x="561.425781" xlink:href="#ArialMT-97"/>
    </g>
   </g>
   <g id="legend_1">
    <g id="patch_7">
     <path d="M 1054.6 152.693437 
L 1262.067812 152.693437 
Q 1267.267812 152.693437 1267.267812 147.493437 
L 1267.267812 39.76 
Q 1267.267812 34.56 1262.067812 34.56 
L 1054.6 34.56 
Q 1049.4 34.56 1049.4 39.76 
L 1049.4 147.493437 
Q 1049.4 152.693437 1054.6 152.693437 
z
" style="fill:#ffffff;opacity:0.8;stroke:#cccccc;stroke-linejoin:miter;"/>
    </g>
    <g id="line2d_18">
     <path d="M 1059.8 54.470312 
L 1111.8 54.470312 
" style="fill:none;stroke:#1f77b4;stroke-linecap:square;stroke-width:1.5;"/>
    </g>
    <g id="line2d_19"/>
    <g id="text_11">
     <!-- oscillator 1 -->
     <defs>
      <path d="M 6.5 0 
L 6.5 51.859375 
L 14.40625 51.859375 
L 14.40625 44 
Q 17.4375 49.515625 20 51.265625 
Q 22.5625 53.03125 25.640625 53.03125 
Q 30.078125 53.03125 34.671875 50.203125 
L 31.640625 42.046875 
Q 28.421875 43.953125 25.203125 43.953125 
Q 22.3125 43.953125 20.015625 42.21875 
Q 17.71875 40.484375 16.75 37.40625 
Q 15.28125 32.71875 15.28125 27.15625 
L 15.28125 0 
z
" id="ArialMT-114"/>
      <path d="M 37.25 0 
L 28.46875 0 
L 28.46875 56 
Q 25.296875 52.984375 20.140625 49.953125 
Q 14.984375 46.921875 10.890625 45.40625 
L 10.890625 53.90625 
Q 18.265625 57.375 23.78125 62.296875 
Q 29.296875 67.234375 31.59375 71.875 
L 37.25 71.875 
z
" id="ArialMT-49"/>
     </defs>
     <g transform="translate(1132.6 63.570312)scale(0.26 -0.26)">
      <use xlink:href="#ArialMT-111"/>
      <use x="55.615234" xlink:href="#ArialMT-115"/>
      <use x="105.615234" xlink:href="#ArialMT-99"/>
      <use x="155.615234" xlink:href="#ArialMT-105"/>
      <use x="177.832031" xlink:href="#ArialMT-108"/>
      <use x="200.048828" xlink:href="#ArialMT-108"/>
      <use x="222.265625" xlink:href="#ArialMT-97"/>
      <use x="277.880859" xlink:href="#ArialMT-116"/>
      <use x="305.664062" xlink:href="#ArialMT-111"/>
      <use x="361.279297" xlink:href="#ArialMT-114"/>
      <use x="394.580078" xlink:href="#ArialMT-32"/>
      <use x="422.363281" xlink:href="#ArialMT-49"/>
     </g>
    </g>
    <g id="line2d_20">
     <path d="M 1059.8 91.248125 
L 1111.8 91.248125 
" style="fill:none;stroke:#ff7f0e;stroke-linecap:square;stroke-width:1.5;"/>
    </g>
    <g id="line2d_21"/>
    <g id="text_12">
     <!-- oscillator 2 -->
     <g transform="translate(1132.6 100.348125)scale(0.26 -0.26)">
      <use xlink:href="#ArialMT-111"/>
      <use x="55.615234" xlink:href="#ArialMT-115"/>
      <use x="105.615234" xlink:href="#ArialMT-99"/>
      <use x="155.615234" xlink:href="#ArialMT-105"/>
      <use x="177.832031" xlink:href="#ArialMT-108"/>
      <use x="200.048828" xlink:href="#ArialMT-108"/>
      <use x="222.265625" xlink:href="#ArialMT-97"/>
      <use x="277.880859" xlink:href="#ArialMT-116"/>
      <use x="305.664062" xlink:href="#ArialMT-111"/>
      <use x="361.279297" xlink:href="#ArialMT-114"/>
      <use x="394.580078" xlink:href="#ArialMT-32"/>
      <use x="422.363281" xlink:href="#ArialMT-50"/>
     </g>
    </g>
    <g id="line2d_22">
     <path d="M 1059.8 128.025937 
L 1111.8 128.025937 
" style="fill:none;stroke:#2ca02c;stroke-linecap:square;stroke-width:1.5;"/>
    </g>
    <g id="line2d_23"/>
    <g id="text_13">
     <!-- oscillator 3 -->
     <defs>
      <path d="M 4.203125 18.890625 
L 12.984375 20.0625 
Q 14.5 12.59375 18.140625 9.296875 
Q 21.78125 6 27 6 
Q 33.203125 6 37.46875 10.296875 
Q 41.75 14.59375 41.75 20.953125 
Q 41.75 27 37.796875 30.921875 
Q 33.84375 34.859375 27.734375 34.859375 
Q 25.25 34.859375 21.53125 33.890625 
L 22.515625 41.609375 
Q 23.390625 41.5 23.921875 41.5 
Q 29.546875 41.5 34.03125 44.421875 
Q 38.53125 47.359375 38.53125 53.46875 
Q 38.53125 58.296875 35.25 61.46875 
Q 31.984375 64.65625 26.8125 64.65625 
Q 21.6875 64.65625 18.265625 61.421875 
Q 14.84375 58.203125 13.875 51.765625 
L 5.078125 53.328125 
Q 6.6875 62.15625 12.390625 67.015625 
Q 18.109375 71.875 26.609375 71.875 
Q 32.46875 71.875 37.390625 69.359375 
Q 42.328125 66.84375 44.9375 62.5 
Q 47.5625 58.15625 47.5625 53.265625 
Q 47.5625 48.640625 45.0625 44.828125 
Q 42.578125 41.015625 37.703125 38.765625 
Q 44.046875 37.3125 47.5625 32.6875 
Q 51.078125 28.078125 51.078125 21.140625 
Q 51.078125 11.765625 44.234375 5.25 
Q 37.40625 -1.265625 26.953125 -1.265625 
Q 17.53125 -1.265625 11.296875 4.34375 
Q 5.078125 9.96875 4.203125 18.890625 
z
" id="ArialMT-51"/>
     </defs>
     <g transform="translate(1132.6 137.125937)scale(0.26 -0.26)">
      <use xlink:href="#ArialMT-111"/>
      <use x="55.615234" xlink:href="#ArialMT-115"/>
      <use x="105.615234" xlink:href="#ArialMT-99"/>
      <use x="155.615234" xlink:href="#ArialMT-105"/>
      <use x="177.832031" xlink:href="#ArialMT-108"/>
      <use x="200.048828" xlink:href="#ArialMT-108"/>
      <use x="222.265625" xlink:href="#ArialMT-97"/>
      <use x="277.880859" xlink:href="#ArialMT-116"/>
      <use x="305.664062" xlink:href="#ArialMT-111"/>
      <use x="361.279297" xlink:href="#ArialMT-114"/>
      <use x="394.580078" xlink:href="#ArialMT-32"/>
      <use x="422.363281" xlink:href="#ArialMT-51"/>
     </g>
    </g>
   </g>
  </g>
 </g>
 <defs>
  <clipPath id="p07e83dbf5b">
   <rect height="217.44" width="828" x="180" y="34.56"/>
  </clipPath>
 </defs>
</svg>
