<?xml version="1.0" encoding="utf-8" standalone="no"?>
<!DOCTYPE svg PUBLIC "-//W3C//DTD SVG 1.1//EN"
  "http://www.w3.org/Graphics/SVG/1.1/DTD/svg11.dtd">
<!-- Created with matplotlib (https://matplotlib.org/) -->
<svg height="288pt" version="1.1" viewBox="0 0 1440 288" width="1440pt" xmlns="http://www.w3.org/2000/svg" xmlns:xlink="http://www.w3.org/1999/xlink">
 <defs>
  <style type="text/css">
*{stroke-linecap:butt;stroke-linejoin:round;}
  </style>
 </defs>
 <g id="figure_1">
  <g id="patch_1">
   <path d="M 0 288 
L 1440 288 
L 1440 0 
L 0 0 
z
" style="fill:#ffffff;"/>
  </g>
  <g id="axes_1">
   <g id="patch_2">
    <path d="M 180 252 
L 1008 252 
L 1008 34.56 
L 180 34.56 
z
" style="fill:#ffffff;"/>
   </g>
   <g id="line2d_1">
    <path clip-path="url(#p94904fc11c)" d="M 217.636364 44.492822 
L 970.363636 44.492822 
L 970.363636 44.492822 
" style="fill:none;stroke:#808080;stroke-linecap:square;stroke-width:4;"/>
   </g>
   <g id="line2d_2">
    <path clip-path="url(#p94904fc11c)" d="M 217.636364 128.472292 
L 218.20105 128.60355 
L 218.953966 129.033996 
L 219.706881 129.723105 
L 220.836255 131.108779 
L 223.095001 134.041733 
L 223.847917 134.695484 
L 224.600832 135.043257 
L 225.165519 135.076304 
L 225.730205 134.910169 
L 226.483121 134.399925 
L 227.424265 133.390428 
L 231.000614 129.020261 
L 231.753529 128.596606 
L 232.506445 128.467075 
L 233.071131 128.570309 
L 233.824047 128.965819 
L 234.576962 129.625368 
L 235.706336 130.985662 
L 238.153311 134.139662 
L 238.906227 134.757363 
L 239.659142 135.062803 
L 240.223829 135.062489 
L 240.788515 134.863764 
L 241.541431 134.316116 
L 242.482575 133.272242 
L 245.682466 129.251418 
L 246.435382 128.723757 
L 247.188297 128.480319 
L 247.752984 128.496732 
L 248.505899 128.782476 
L 249.258815 129.347828 
L 250.199959 130.373383 
L 253.588079 134.558382 
L 254.340994 134.987627 
L 254.905681 135.087639 
L 255.470368 134.987883 
L 256.035054 134.695176 
L 256.78797 134.040056 
L 257.917343 132.656564 
L 260.176089 129.710495 
L 261.117234 128.890284 
L 261.870149 128.536218 
L 262.434836 128.467016 
L 262.999523 128.569732 
L 263.752438 128.964665 
L 264.505354 129.623886 
L 265.634727 130.981159 
L 268.081702 134.137223 
L 268.834618 134.756416 
L 269.587533 135.062452 
L 270.15222 135.062667 
L 270.716906 134.864498 
L 271.469822 134.317383 
L 272.410966 133.276873 
L 275.799086 129.097053 
L 276.552002 128.635767 
L 277.304917 128.466643 
L 277.869604 128.54004 
L 278.622519 128.898471 
L 279.375435 129.527637 
L 280.316579 130.612627 
L 283.328241 134.40313 
L 284.081157 134.91131 
L 284.645843 135.076522 
L 285.21053 135.042875 
L 285.775217 134.812783 
L 286.528132 134.227616 
L 287.469276 133.151854 
L 290.480938 129.332288 
L 291.233854 128.772198 
L 291.986769 128.49351 
L 292.551456 128.482508 
L 293.304372 128.733016 
L 294.057287 129.267193 
L 294.998431 130.264531 
L 296.692491 132.54108 
L 298.010093 134.145019 
L 298.763009 134.761114 
L 299.515924 135.063746 
L 300.080611 135.061355 
L 300.645298 134.860599 
L 301.398213 134.310743 
L 302.339358 133.265043 
L 305.539248 129.244803 
L 306.292164 128.719494 
L 307.045079 128.47921 
L 307.609766 128.498317 
L 308.362682 128.787983 
L 309.115597 129.35618 
L 310.056741 130.385509 
L 313.444861 134.56521 
L 314.197777 134.99104 
L 314.762463 135.087617 
L 315.32715 134.984765 
L 315.891837 134.688525 
L 316.644752 134.029218 
L 317.774125 132.641682 
L 320.032872 129.697397 
L 320.974016 128.882957 
L 321.726932 128.533589 
L 322.291618 128.467295 
L 322.856305 128.573112 
L 323.60922 128.97198 
L 324.362136 129.634748 
L 325.491509 130.99629 
L 327.938485 134.151759 
L 328.6914 134.76487 
L 329.444316 135.064848 
L 330.009002 135.060408 
L 330.573689 134.858244 
L 331.326604 134.305723 
L 332.267749 133.259386 
L 335.46764 129.242007 
L 336.220555 128.718218 
L 336.973471 128.479021 
L 337.538157 128.498558 
L 338.291073 128.787865 
L 339.043988 129.356032 
L 339.985133 130.38576 
L 343.373252 134.565515 
L 344.126168 134.990861 
L 344.690855 135.087615 
L 345.255541 134.985049 
L 345.820228 134.68981 
L 346.573143 134.032903 
L 347.702517 132.644981 
L 349.961263 129.698323 
L 350.902407 128.883918 
L 351.655323 128.533739 
L 352.22001 128.46729 
L 352.784696 128.573004 
L 353.537612 128.970925 
L 354.290527 129.632484 
L 355.4199 130.994229 
L 357.866876 134.148113 
L 358.619791 134.763153 
L 359.372707 135.064371 
L 359.937393 135.060644 
L 360.50208 134.858213 
L 361.254996 134.306564 
L 362.19614 133.258677 
L 365.396031 129.243876 
L 366.148946 128.719476 
L 366.901862 128.479116 
L 367.466548 128.49833 
L 368.219464 128.78782 
L 368.972379 129.355644 
L 369.913524 130.384132 
L 373.301644 134.565374 
L 374.054559 134.991119 
L 374.619246 135.087609 
L 375.183932 134.984273 
L 375.748619 134.688258 
L 376.501534 134.030342 
L 377.630908 132.646002 
L 379.889654 129.701552 
L 380.830799 128.885408 
L 381.583714 128.534541 
L 382.148401 128.467167 
L 382.713087 128.571437 
L 383.466003 128.968942 
L 384.218918 129.63025 
L 385.348292 130.991561 
L 387.795267 134.144254 
L 388.548183 134.760316 
L 389.301098 135.063533 
L 389.865785 135.061746 
L 390.430471 134.861861 
L 391.183387 134.31274 
L 392.124531 133.268688 
L 395.324422 129.247425 
L 396.077338 128.721473 
L 396.830253 128.479676 
L 397.39494 128.497547 
L 398.147855 128.785485 
L 398.900771 129.353205 
L 399.841915 130.380872 
L 403.230035 134.561968 
L 403.98295 134.989263 
L 404.547637 135.087634 
L 405.112324 134.986507 
L 405.67701 134.692497 
L 406.429926 134.035806 
L 407.37107 132.903237 
L 410.006274 129.509234 
L 410.75919 128.886389 
L 411.512105 128.535209 
L 412.076792 128.467078 
L 412.641479 128.570811 
L 413.394394 128.96743 
L 414.14731 129.62751 
L 415.276683 130.989168 
L 417.723658 134.14109 
L 418.476574 134.758928 
L 419.229489 135.063095 
L 419.794176 135.062103 
L 420.358862 134.863081 
L 421.111778 134.314812 
L 422.052922 133.273176 
L 425.252813 129.253209 
L 426.005729 128.724597 
L 426.758644 128.480401 
L 427.323331 128.496727 
L 428.076246 128.782334 
L 428.829162 129.347663 
L 429.770306 130.373435 
L 433.158426 134.558661 
L 433.911341 134.987766 
L 434.476028 135.087638 
L 435.040715 134.988345 
L 435.605401 134.696277 
L 436.358317 134.041887 
L 437.48769 132.658529 
L 439.746437 129.711249 
L 440.687581 128.891835 
L 441.440496 128.537064 
L 442.005183 128.466928 
L 442.56987 128.569123 
L 443.322785 128.963378 
L 444.075701 129.621743 
L 445.205074 130.979825 
L 447.652049 134.137155 
L 448.404965 134.756113 
L 449.15788 135.062345 
L 449.722567 135.062748 
L 450.287254 134.865126 
L 451.040169 134.317939 
L 451.981314 133.275936 
L 455.181204 129.254491 
L 455.93412 128.72483 
L 456.687035 128.480449 
L 457.251722 128.496508 
L 458.004638 128.782284 
L 458.757553 129.347586 
L 459.698697 130.373646 
L 463.086817 134.557912 
L 463.839733 134.987776 
L 464.404419 135.087639 
L 464.969106 134.987914 
L 465.533793 134.695881 
L 466.286708 134.041169 
L 467.227852 132.910072 
L 469.863057 129.515107 
L 470.615972 128.88972 
L 471.368888 128.536356 
L 471.933574 128.466984 
L 472.498261 128.569541 
L 473.251176 128.963869 
L 474.004092 129.622075 
L 475.133465 130.980598 
L 477.580441 134.136409 
L 478.333356 134.755726 
L 479.086272 135.062483 
L 479.650958 135.062575 
L 480.215645 134.864894 
L 480.96856 134.318287 
L 481.909705 133.276137 
L 485.297824 129.09434 
L 486.05074 128.634527 
L 486.803655 128.466563 
L 487.368342 128.541044 
L 488.121258 128.900365 
L 488.874173 129.531023 
L 489.815317 130.614985 
L 492.826979 134.406146 
L 493.579895 134.912787 
L 494.144582 135.077034 
L 494.709268 135.041882 
L 495.273955 134.810009 
L 496.02687 134.224767 
L 496.968015 133.149982 
L 499.979677 129.328887 
L 500.732592 128.770397 
L 501.485508 128.492894 
L 502.050194 128.48307 
L 502.80311 128.734729 
L 503.556025 129.269742 
L 504.49717 130.267099 
L 506.003001 132.286003 
L 507.320603 133.950288 
L 508.073518 134.634295 
L 508.826434 135.020249 
L 509.391121 135.084427 
L 509.955807 134.948947 
L 510.708723 134.475616 
L 511.461638 133.723225 
L 512.77924 131.99786 
L 514.4733 129.804731 
L 515.414445 128.950372 
L 516.16736 128.562622 
L 516.920276 128.472621 
L 517.484962 128.605165 
L 518.237878 129.037749 
L 518.990793 129.728912 
L 520.120166 131.115837 
L 522.378913 134.049148 
L 523.131828 134.700736 
L 523.884744 135.04494 
L 524.449431 135.075631 
L 525.014117 134.907511 
L 525.767033 134.395339 
L 526.708177 133.381698 
L 528.590466 130.832484 
L 529.719839 129.505748 
L 530.472755 128.883236 
L 531.22567 128.533501 
L 531.790357 128.467287 
L 532.355043 128.572592 
L 533.107959 128.970483 
L 533.860874 129.631182 
L 534.990248 130.990133 
L 537.437223 134.143137 
L 538.190138 134.759832 
L 538.943054 135.063375 
L 539.507741 135.06206 
L 540.072427 134.86325 
L 540.825343 134.315364 
L 541.766487 133.272016 
L 544.966378 129.250937 
L 545.719293 128.722808 
L 546.472209 128.480066 
L 547.036896 128.497109 
L 547.789811 128.782794 
L 548.542727 129.346837 
L 549.483871 130.373949 
L 552.871991 134.558286 
L 553.624906 134.987458 
L 554.189593 135.087638 
L 554.754279 134.988197 
L 555.318966 134.695613 
L 556.071882 134.041099 
L 557.013026 132.911415 
L 559.64823 129.517655 
L 560.401146 128.891081 
L 561.154061 128.536789 
L 561.718748 128.466932 
L 562.283434 128.5689 
L 563.03635 128.962789 
L 563.789265 129.621344 
L 564.918639 130.978934 
L 567.365614 134.137158 
L 568.11853 134.755677 
L 568.871445 135.062151 
L 569.436132 135.063064 
L 570.000818 134.865783 
L 570.753734 134.319528 
L 571.694878 133.276349 
L 574.894769 129.253051 
L 575.647685 128.723976 
L 576.4006 128.480405 
L 576.965287 128.496433 
L 577.718202 128.781452 
L 578.471118 129.345158 
L 579.412262 130.3694 
L 581.294551 132.90923 
L 582.423924 134.224745 
L 583.17684 134.810297 
L 583.741526 135.041961 
L 584.306213 135.077008 
L 584.8709 134.912778 
L 585.623815 134.40422 
L 586.564959 133.395246 
L 588.447248 130.84804 
L 589.576621 129.520869 
L 590.329537 128.894168 
L 591.082452 128.537963 
L 591.647139 128.466798 
L 592.211826 128.567327 
L 592.964741 128.960258 
L 593.717657 129.616676 
L 594.84703 130.974989 
L 597.294005 134.131043 
L 598.046921 134.752292 
L 598.799836 135.061307 
L 599.364523 135.063741 
L 599.92921 134.868169 
L 600.682125 134.32421 
L 601.623269 133.283635 
L 605.011389 129.099951 
L 605.764305 128.637983 
L 606.51722 128.466737 
L 607.081907 128.538844 
L 607.834822 128.895984 
L 608.587738 129.522524 
L 609.528882 130.605647 
L 612.540544 134.3977 
L 613.29346 134.907672 
L 613.858146 135.07558 
L 614.422833 135.045044 
L 614.98752 134.817673 
L 615.740435 134.237311 
L 616.681579 133.165973 
L 619.693241 129.342786 
L 620.446157 128.778963 
L 621.199072 128.495611 
L 621.763759 128.48102 
L 622.516675 128.726937 
L 623.26959 129.256251 
L 624.210735 130.248735 
L 625.716566 132.264854 
L 627.034168 133.934418 
L 627.787083 134.623958 
L 628.539999 135.016154 
L 629.104685 135.085299 
L 629.669372 134.955461 
L 630.422287 134.489366 
L 631.175203 133.741614 
L 632.492805 132.019735 
L 634.186865 129.821985 
L 635.128009 128.961323 
L 635.880925 128.567391 
L 636.63384 128.471397 
L 637.198527 128.599205 
L 637.951442 129.025516 
L 638.704358 129.711796 
L 639.833731 131.096039 
L 642.092478 134.032078 
L 642.845393 134.688385 
L 643.598309 135.040608 
L 644.162995 135.07773 
L 644.727682 134.916365 
L 645.480597 134.411327 
L 646.421742 133.407204 
L 648.304031 130.858289 
L 649.433404 129.527861 
L 650.186319 128.899008 
L 650.939235 128.540069 
L 651.503921 128.466638 
L 652.068608 128.564976 
L 652.821524 128.954462 
L 653.574439 129.608053 
L 654.703812 130.961393 
L 657.150788 134.124407 
L 657.903703 134.748681 
L 658.656619 135.060037 
L 659.221305 135.065016 
L 659.785992 134.87232 
L 660.538907 134.330524 
L 661.480052 133.291794 
L 664.868172 129.105913 
L 665.621087 128.640746 
L 666.374003 128.466938 
L 666.938689 128.53678 
L 667.691605 128.889952 
L 668.44452 129.514507 
L 669.385665 130.595001 
L 672.397327 134.391916 
L 673.150242 134.904459 
L 673.714929 135.074833 
L 674.279615 135.046154 
L 674.844302 134.820977 
L 675.597217 134.241604 
L 676.538362 133.171893 
L 679.738253 129.181391 
L 680.491168 128.682093 
L 681.244084 128.471794 
L 681.80877 128.513818 
L 682.561686 128.832902 
L 683.314601 129.426909 
L 684.255746 130.479425 
L 687.455637 134.475446 
L 688.208552 134.94834 
L 688.773239 135.084409 
L 689.337925 135.020211 
L 689.902612 134.760936 
L 690.655528 134.144201 
L 691.596672 133.044003 
L 694.420105 129.434504 
L 695.173021 128.836436 
L 695.925936 128.515296 
L 696.490623 128.471325 
L 697.055309 128.599084 
L 697.808225 129.024932 
L 698.56114 129.710833 
L 699.690514 131.096593 
L 701.94926 134.033344 
L 702.702176 134.68965 
L 703.455091 135.041211 
L 704.019778 135.077496 
L 704.584464 134.915303 
L 705.33738 134.409517 
L 706.278524 133.404237 
L 708.160813 130.856886 
L 709.290186 129.525617 
L 710.043102 128.89652 
L 710.796017 128.538831 
L 711.360704 128.466727 
L 711.92539 128.566587 
L 712.678306 128.958766 
L 713.431221 129.615464 
L 714.560595 130.973132 
L 717.00757 134.131339 
L 717.760486 134.753372 
L 718.513401 135.061462 
L 719.078088 135.063798 
L 719.642774 134.868538 
L 720.39569 134.323289 
L 721.336834 133.283162 
L 724.724954 129.101335 
L 725.477869 128.637724 
L 726.230785 128.466784 
L 726.795472 128.538272 
L 727.548387 128.894039 
L 728.301303 129.520396 
L 729.242447 130.601724 
L 732.254109 134.397693 
L 733.007024 134.908314 
L 733.571711 135.075688 
L 734.136398 135.044775 
L 734.701084 134.816643 
L 735.454 134.235788 
L 736.395144 133.164224 
L 739.406806 129.342505 
L 740.159722 128.779108 
L 740.912637 128.495465 
L 741.477324 128.481024 
L 742.230239 128.726703 
L 742.983155 129.257048 
L 743.924299 130.250323 
L 745.43013 132.267277 
L 746.747732 133.9348 
L 747.500648 134.623629 
L 748.253563 135.016183 
L 748.81825 135.085293 
L 749.382937 134.954824 
L 750.135852 134.488283 
L 750.888768 133.737441 
L 752.20637 132.015135 
L 753.90043 129.816777 
L 754.841574 128.957817 
L 755.59449 128.566372 
L 756.347405 128.471706 
L 756.912092 128.600729 
L 757.665007 129.027273 
L 758.417923 129.714067 
L 759.547296 131.099199 
L 761.806042 134.036462 
L 762.558958 134.692047 
L 763.311873 135.042155 
L 763.87656 135.077045 
L 764.441247 134.912814 
L 765.194162 134.4051 
L 766.135307 133.395556 
L 769.711655 129.0233 
L 770.464571 128.597649 
L 771.217486 128.46692 
L 771.782173 128.568866 
L 772.535088 128.963282 
L 773.288004 129.622224 
L 774.417377 130.978494 
L 776.864352 134.135132 
L 777.617268 134.754345 
L 778.370183 135.061932 
L 778.93487 135.063174 
L 779.499557 134.866138 
L 780.252472 134.320588 
L 781.193617 133.278973 
L 784.581736 129.096915 
L 785.334652 128.635954 
L 786.087567 128.46666 
L 786.652254 128.539392 
L 787.405169 128.896641 
L 788.158085 129.524944 
L 789.099229 130.608447 
L 792.110891 134.400669 
L 792.863807 134.910203 
L 793.428493 135.076274 
L 793.99318 135.043693 
L 794.557867 134.8149 
L 795.310782 134.231965 
L 796.251927 133.158941 
L 799.263589 129.342035 
L 800.016504 128.778667 
L 800.76942 128.495343 
L 801.334106 128.481256 
L 802.087022 128.727446 
L 802.839937 129.257153 
L 803.781082 130.250086 
L 805.286913 132.266072 
L 806.604515 133.93395 
L 807.35743 134.623682 
L 808.110346 135.015758 
L 808.675032 135.085267 
L 809.239719 134.954868 
L 809.992635 134.48707 
L 810.74555 133.736601 
L 812.063152 132.017218 
L 813.757212 129.817499 
L 814.698356 128.959745 
L 815.451272 128.566975 
L 816.204187 128.471527 
L 816.768874 128.600039 
L 817.52179 129.027561 
L 818.274705 129.714126 
L 819.404078 131.097843 
L 821.662825 134.036129 
L 822.41574 134.691645 
L 823.168656 135.041823 
L 823.733342 135.077115 
L 824.298029 134.913396 
L 825.050945 134.406049 
L 825.992089 133.399624 
L 827.874378 130.851195 
L 829.003751 129.521997 
L 829.756666 128.894116 
L 830.509582 128.538008 
L 831.074269 128.466792 
L 831.638955 128.567175 
L 832.391871 128.958835 
L 833.144786 129.615357 
L 834.274159 130.972499 
L 836.721135 134.132451 
L 837.47405 134.753717 
L 838.226966 135.061947 
L 838.791652 135.063206 
L 839.356339 134.866314 
L 840.109255 134.320428 
L 841.050399 133.280377 
L 844.438519 129.095864 
L 845.191434 128.635117 
L 845.94435 128.466579 
L 846.509036 128.540577 
L 847.261952 128.899525 
L 848.014867 129.529746 
L 848.956012 130.61568 
L 851.967674 134.405005 
L 852.720589 134.911996 
L 853.285276 135.076707 
L 853.849962 135.042652 
L 854.414649 134.811127 
L 855.167565 134.225568 
L 856.108709 133.149341 
L 859.120371 129.33292 
L 859.873287 128.772019 
L 860.626202 128.49341 
L 861.190889 128.482802 
L 861.943804 128.73394 
L 862.69672 129.268546 
L 863.637864 130.263312 
L 865.331924 132.542756 
L 866.649526 134.143601 
L 867.402442 134.760579 
L 868.155357 135.063633 
L 868.720044 135.061412 
L 869.28473 134.861384 
L 870.037646 134.311522 
L 870.97879 133.266797 
L 874.178681 129.244989 
L 874.931597 128.72 
L 875.684512 128.47915 
L 876.249199 128.498269 
L 877.002114 128.787459 
L 877.75503 129.355811 
L 878.696174 130.385211 
L 882.084294 134.56506 
L 882.837209 134.99095 
L 883.401896 135.087611 
L 883.966583 134.984859 
L 884.531269 134.689474 
L 885.284185 134.032976 
L 886.413558 132.646015 
L 888.672304 129.699812 
L 889.613449 128.885432 
L 890.366364 128.534392 
L 890.931051 128.467209 
L 891.495738 128.572144 
L 892.248653 128.969731 
L 893.001569 129.631472 
L 894.130942 130.99076 
L 896.577917 134.144468 
L 897.330833 134.76012 
L 898.083748 135.063587 
L 898.648435 135.061389 
L 899.213121 134.860638 
L 899.966037 134.311167 
L 900.907181 133.267108 
L 904.107072 129.246381 
L 904.859988 128.720057 
L 905.612903 128.479526 
L 906.17759 128.497846 
L 906.930505 128.786212 
L 907.683421 129.352446 
L 908.624565 130.380748 
L 912.012685 134.561595 
L 912.7656 134.989274 
L 913.330287 135.087631 
L 913.894974 134.986255 
L 914.45966 134.69242 
L 915.212576 134.036092 
L 916.341949 132.650865 
L 918.600696 129.704943 
L 919.54184 128.887743 
L 920.294756 128.534968 
L 920.859442 128.467111 
L 921.424129 128.571064 
L 922.177044 128.968426 
L 922.92996 129.629651 
L 924.059333 130.99068 
L 926.506308 134.145315 
L 927.259224 134.761512 
L 928.012139 135.0639 
L 928.576826 135.061239 
L 929.141513 134.860304 
L 929.894428 134.309933 
L 930.835573 133.265161 
L 934.035463 129.243364 
L 934.788379 128.718177 
L 935.541294 128.479065 
L 936.105981 128.498628 
L 936.858897 128.788904 
L 937.611812 129.357833 
L 938.552956 130.386675 
L 941.941076 134.566715 
L 942.693992 134.991362 
L 943.258678 135.087607 
L 943.823365 134.984326 
L 944.388052 134.688697 
L 945.140967 134.031277 
L 946.27034 132.645216 
L 948.529087 129.697196 
L 949.470231 128.883552 
L 950.223147 128.533623 
L 950.787833 128.467317 
L 951.35252 128.573207 
L 952.105435 128.972313 
L 952.858351 129.634675 
L 953.987724 130.993244 
L 956.4347 134.14865 
L 957.187615 134.762597 
L 957.940531 135.064252 
L 958.505217 135.060994 
L 959.069904 134.85973 
L 959.822819 134.309113 
L 960.763964 133.263845 
L 963.963855 129.244657 
L 964.71677 128.719391 
L 965.469686 128.479142 
L 966.034372 128.498266 
L 966.787288 128.787252 
L 967.540203 129.355615 
L 968.481348 130.385764 
L 970.363636 132.926002 
L 970.363636 132.926002 
" style="fill:none;stroke:#808080;stroke-linecap:square;stroke-width:4;"/>
   </g>
   <g id="line2d_3">
    <path clip-path="url(#p94904fc11c)" d="M 217.636364 51.539864 
L 225.541976 51.095953 
L 233.824047 50.852892 
L 242.482575 50.829115 
L 250.764646 51.024578 
L 259.234945 51.457041 
L 267.328787 52.114541 
L 275.2344 52.998031 
L 283.892928 54.226565 
L 301.774671 56.888546 
L 306.480393 57.288446 
L 310.809657 57.431463 
L 314.950692 57.34571 
L 319.279956 57.035377 
L 324.173907 56.466547 
L 330.573689 55.507881 
L 344.690855 53.334608 
L 352.408238 52.387069 
L 360.125622 51.676935 
L 368.219464 51.173408 
L 376.689763 50.880802 
L 385.348292 50.816781 
L 393.818591 50.976131 
L 401.912433 51.344107 
L 409.629817 51.913956 
L 416.970743 52.67007 
L 425.252813 53.769216 
L 448.028507 57.070516 
L 452.546 57.370455 
L 456.687035 57.426262 
L 460.828071 57.265782 
L 465.533793 56.848095 
L 470.99243 56.128332 
L 479.462729 54.789119 
L 489.627089 53.265809 
L 497.344472 52.336836 
L 504.873627 51.653133 
L 512.967469 51.157345 
L 521.24954 50.878717 
L 529.908068 50.817765 
L 538.378367 50.982955 
L 546.472209 51.357613 
L 554.189593 51.926933 
L 561.906977 52.728386 
L 569.059674 53.674841 
L 578.471118 55.137291 
L 588.07079 56.58363 
L 593.341199 57.144662 
L 597.858692 57.398633 
L 601.999727 57.411599 
L 606.328991 57.195689 
L 611.222942 56.707929 
L 616.869808 55.923373 
L 635.880925 53.034521 
L 643.974766 52.1196 
L 651.880379 51.478096 
L 659.597763 51.066983 
L 667.315147 50.851132 
L 675.785446 50.828537 
L 684.255746 51.027568 
L 692.161359 51.426276 
L 700.2552 52.067546 
L 707.596126 52.862896 
L 714.748824 53.836986 
L 726.042556 55.620288 
L 733.948169 56.743717 
L 739.218577 57.243563 
L 743.547842 57.424312 
L 747.688877 57.375331 
L 752.018141 57.100368 
L 757.100321 56.535404 
L 763.311873 55.620337 
L 780.817159 52.977888 
L 789.475687 52.024052 
L 796.251927 51.482029 
L 804.345768 51.053724 
L 812.251381 50.843543 
L 820.72168 50.834657 
L 829.19198 51.048617 
L 837.662279 51.497568 
L 845.379663 52.134575 
L 853.285276 53.026852 
L 860.437973 54.039856 
L 870.225875 55.594239 
L 877.943259 56.706962 
L 882.64898 57.179917 
L 886.978245 57.406849 
L 891.11928 57.403547 
L 895.448544 57.17245 
L 900.154266 56.692594 
L 906.17759 55.845102 
L 925.565164 52.921619 
L 931.964946 52.199782 
L 940.247016 51.502953 
L 947.9644 51.079897 
L 955.870013 50.853419 
L 964.340312 50.82708 
L 970.363636 50.941679 
L 970.363636 50.941679 
" style="fill:none;stroke:#808080;stroke-linecap:square;stroke-width:4;"/>
   </g>
   <g id="line2d_4">
    <path clip-path="url(#p94904fc11c)" d="M 217.636364 200.157663 
L 218.012821 83.646681 
L 218.389279 54.81727 
L 218.765737 47.750902 
L 218.953966 46.632602 
L 219.142195 46.248958 
L 219.706881 46.327691 
L 220.083339 46.712766 
L 221.024483 46.597099 
L 221.400941 46.161507 
L 221.58917 46.047378 
L 221.965628 45.498366 
L 222.342086 45.018003 
L 223.28323 44.563489 
L 224.600832 44.580284 
L 224.97729 44.518426 
L 227.424265 44.577936 
L 227.988952 44.478191 
L 237.776853 44.91304 
L 243.988406 44.56319 
L 247.564755 44.537244 
L 250.01173 44.524544 
L 272.034509 44.491583 
L 278.057833 44.497934 
L 301.774671 44.48906 
L 304.409875 44.502611 
L 306.668622 44.49213 
L 315.32715 44.50039 
L 319.656414 44.495508 
L 330.761918 44.510768 
L 342.243879 44.503783 
L 390.430471 44.496897 
L 444.075701 44.490585 
L 566.048012 44.498789 
L 647.739344 44.493874 
L 713.807679 44.496564 
L 771.970402 44.49511 
L 970.175407 44.50001 
L 970.175407 44.50001 
" style="fill:none;stroke:#000000;stroke-linecap:square;stroke-width:1.5;"/>
   </g>
   <g id="line2d_5">
    <path clip-path="url(#p94904fc11c)" d="M 217.636364 242.116364 
L 218.012821 157.173292 
L 218.389279 136.424344 
L 218.765737 131.780865 
L 218.953966 131.15898 
L 219.142195 131.222649 
L 219.706881 132.237579 
L 220.459797 133.921795 
L 221.024483 134.380851 
L 221.400941 134.40788 
L 221.777399 134.220704 
L 222.153857 134.021626 
L 223.095001 134.456906 
L 223.471459 134.815035 
L 223.659688 134.824835 
L 223.847917 134.998151 
L 224.224374 135.069612 
L 224.97729 135.314857 
L 225.541976 135.041545 
L 225.918434 135.041264 
L 226.106663 134.953359 
L 230.812385 129.243092 
L 231.377072 128.780096 
L 231.5653 128.611788 
L 231.941758 128.530272 
L 232.506445 128.437488 
L 233.071131 128.46982 
L 234.012276 129.064654 
L 235.518107 130.800308 
L 237.776853 133.799559 
L 239.282684 134.948394 
L 239.847371 135.096459 
L 240.600286 134.992689 
L 240.976744 134.772941 
L 241.917889 133.965875 
L 242.670804 133.071981 
L 245.306008 129.559459 
L 246.247153 128.759983 
L 247.000068 128.459398 
L 247.752984 128.458552 
L 248.505899 128.761219 
L 249.258815 129.358496 
L 250.01173 130.155733 
L 253.588079 134.566384 
L 254.340994 134.978484 
L 254.905681 135.109334 
L 255.470368 135.006046 
L 256.223283 134.574681 
L 257.164427 133.605144 
L 258.293801 132.124836 
L 259.987861 129.881803 
L 260.929005 129.004516 
L 261.68192 128.596911 
L 262.434836 128.473258 
L 262.999523 128.565648 
L 263.752438 128.958616 
L 264.505354 129.604661 
L 265.446498 130.699764 
L 268.269931 134.28993 
L 269.022847 134.84567 
L 269.587533 135.054269 
L 270.15222 135.067232 
L 270.716906 134.886853 
L 271.281593 134.505882 
L 272.222738 133.515781 
L 273.916797 131.242179 
L 275.046171 129.814955 
L 275.987315 128.947739 
L 276.740231 128.560984 
L 277.304917 128.465958 
L 277.869604 128.534956 
L 278.622519 128.879845 
L 279.563664 129.701738 
L 280.881266 131.358062 
L 282.763555 133.814951 
L 283.704699 134.6699 
L 284.269386 134.955856 
L 284.834072 135.059794 
L 285.398759 134.961746 
L 286.151674 134.534611 
L 286.90459 133.818397 
L 288.033963 132.394551 
L 290.104481 129.732566 
L 290.857396 129.048281 
L 291.610312 128.62018 
L 292.363227 128.479893 
L 292.927914 128.589848 
L 293.4926 128.851476 
L 294.245516 129.447 
L 295.18666 130.493612 
L 298.386551 134.483242 
L 299.139467 134.944201 
L 299.704153 135.074089 
L 300.26884 135.00437 
L 300.833527 134.736177 
L 301.586442 134.113215 
L 302.527586 133.013156 
L 305.35102 129.414058 
L 306.103935 128.82799 
L 306.856851 128.518228 
L 307.421537 128.47808 
L 308.174453 128.698112 
L 308.927368 129.20207 
L 309.868513 130.170371 
L 311.374344 132.171832 
L 312.880175 134.060558 
L 313.63309 134.70757 
L 314.386006 135.040177 
L 314.950692 135.068155 
L 315.515379 134.905828 
L 316.268294 134.396053 
L 317.02121 133.61381 
L 318.338812 131.865806 
L 319.844643 129.905807 
L 320.785787 129.018627 
L 321.538703 128.591622 
L 322.103389 128.467041 
L 322.856305 128.57503 
L 323.60922 128.973961 
L 324.362136 129.636087 
L 325.30328 130.748347 
L 328.126713 134.345834 
L 328.879629 134.892416 
L 329.444316 135.080923 
L 330.009002 135.075571 
L 330.573689 134.871538 
L 331.326604 134.318549 
L 332.267749 133.270411 
L 335.655869 129.072477 
L 336.408784 128.613516 
L 337.1617 128.444662 
L 337.726386 128.521415 
L 338.479302 128.890094 
L 339.232217 129.529549 
L 340.173362 130.625213 
L 343.185024 134.437404 
L 343.937939 134.944145 
L 344.502626 135.105761 
L 345.067312 135.065566 
L 345.631999 134.829601 
L 346.384914 134.237764 
L 347.326059 133.154976 
L 350.337721 129.314725 
L 351.090636 128.752563 
L 351.843552 128.474863 
L 352.408238 128.468022 
L 353.161154 128.721541 
L 353.914069 129.257963 
L 354.855214 130.263331 
L 356.549274 132.557048 
L 357.866876 134.165075 
L 358.619791 134.78619 
L 359.372707 135.089822 
L 359.937393 135.088318 
L 360.50208 134.887975 
L 361.254996 134.331729 
L 362.19614 133.276068 
L 365.58426 129.071647 
L 366.337175 128.612162 
L 367.090091 128.445854 
L 367.654777 128.523197 
L 368.407693 128.887874 
L 369.160608 129.522816 
L 370.101753 130.615936 
L 373.113415 134.433278 
L 373.86633 134.941824 
L 374.431017 135.106296 
L 374.995703 135.068743 
L 375.56039 134.834147 
L 376.313306 134.240656 
L 377.25445 133.156946 
L 380.266112 129.318265 
L 381.019027 128.75452 
L 381.771943 128.474584 
L 382.33663 128.464511 
L 382.901316 128.625877 
L 383.654232 129.096987 
L 384.407147 129.819137 
L 385.53652 131.242558 
L 387.607038 133.962852 
L 388.359954 134.650354 
L 389.112869 135.040292 
L 389.677556 135.105699 
L 390.242242 134.971799 
L 390.995158 134.49824 
L 391.748073 133.741605 
L 393.065676 132.007267 
L 394.759735 129.801278 
L 395.70088 128.941778 
L 396.453795 128.550184 
L 397.206711 128.458764 
L 397.771397 128.59025 
L 398.524313 129.025242 
L 399.277228 129.718544 
L 400.406602 131.10965 
L 402.665348 134.055619 
L 403.418264 134.710487 
L 404.171179 135.058733 
L 404.735866 135.092765 
L 405.300552 134.9257 
L 406.053468 134.413817 
L 406.994612 133.400891 
L 410.570961 129.016992 
L 411.323876 128.589119 
L 412.076792 128.459096 
L 412.641479 128.560405 
L 413.394394 128.956879 
L 414.14731 129.617265 
L 415.276683 130.981873 
L 417.723658 134.141744 
L 418.476574 134.762005 
L 419.229489 135.070667 
L 419.794176 135.072141 
L 420.358862 134.875429 
L 421.111778 134.327859 
L 422.052922 133.284989 
L 425.441042 129.09488 
L 426.193958 128.632302 
L 426.946873 128.460911 
L 427.51156 128.533925 
L 428.264475 128.892777 
L 429.017391 129.521615 
L 429.958535 130.604943 
L 432.970197 134.406333 
L 433.723113 134.913312 
L 434.287799 135.077846 
L 434.852486 135.043077 
L 435.417172 134.814565 
L 436.170088 134.231932 
L 437.111232 133.159328 
L 440.311123 129.176376 
L 441.064039 128.679582 
L 441.816954 128.473193 
L 442.381641 128.519844 
L 443.134556 128.841056 
L 443.887472 129.436363 
L 444.828616 130.493083 
L 448.028507 134.480898 
L 448.781423 134.950365 
L 449.346109 135.083467 
L 449.910796 135.015463 
L 450.475483 134.753226 
L 451.228398 134.132715 
L 452.169542 133.029317 
L 454.992976 129.426778 
L 455.745891 128.835144 
L 456.498807 128.51624 
L 457.063493 128.478035 
L 457.816409 128.691698 
L 458.569324 129.192284 
L 459.510469 130.155204 
L 461.0163 132.15661 
L 462.333902 133.845602 
L 463.275046 134.69648 
L 464.027962 135.042509 
L 464.592648 135.072456 
L 465.157335 134.903719 
L 465.91025 134.392434 
L 466.851395 133.381232 
L 470.427743 129.020245 
L 471.180659 128.597187 
L 471.933574 128.469795 
L 472.498261 128.574607 
L 473.251176 128.97122 
L 474.004092 129.630696 
L 475.133465 130.991648 
L 477.580441 134.146222 
L 478.333356 134.764141 
L 478.898043 135.025399 
L 479.462729 135.089747 
L 480.027416 134.953687 
L 480.780331 134.479721 
L 481.533247 133.724421 
L 482.850849 131.998024 
L 484.544909 129.80012 
L 485.486053 128.946836 
L 486.238969 128.559844 
L 486.803655 128.464287 
L 487.368342 128.540425 
L 488.121258 128.902811 
L 488.874173 129.537117 
L 489.815317 130.622164 
L 492.826979 134.41543 
L 493.579895 134.922304 
L 494.144582 135.085913 
L 494.709268 135.050736 
L 495.273955 134.816894 
L 496.02687 134.227799 
L 496.968015 133.148987 
L 499.979677 129.322834 
L 500.732592 128.762566 
L 501.485508 128.485984 
L 502.050194 128.477201 
L 502.614881 128.639434 
L 503.367796 129.108927 
L 504.308941 130.043992 
L 505.626543 131.76955 
L 507.320603 133.960204 
L 508.073518 134.645277 
L 508.826434 135.031229 
L 509.391121 135.095411 
L 509.955807 134.959789 
L 510.708723 134.485245 
L 511.461638 133.729868 
L 512.77924 132.000205 
L 514.4733 129.801737 
L 515.414445 128.945633 
L 516.16736 128.555985 
L 516.920276 128.465143 
L 517.484962 128.598875 
L 518.237878 129.032136 
L 518.990793 129.725779 
L 520.120166 131.114872 
L 522.378913 134.056373 
L 523.131828 134.710038 
L 523.884744 135.056346 
L 524.449431 135.087882 
L 525.014117 134.9202 
L 525.767033 134.406717 
L 526.708177 133.39157 
L 528.590466 130.837598 
L 529.719839 129.506789 
L 530.472755 128.881023 
L 531.22567 128.528555 
L 531.978586 128.476015 
L 532.731501 128.727128 
L 533.484417 129.261033 
L 534.425561 130.255818 
L 536.119621 132.539268 
L 537.437223 134.146627 
L 538.190138 134.767116 
L 538.943054 135.073764 
L 539.507741 135.074169 
L 540.072427 134.876849 
L 540.825343 134.330502 
L 541.766487 133.287146 
L 545.154607 129.094269 
L 545.907522 128.629846 
L 546.660438 128.459934 
L 547.225124 128.531697 
L 547.97804 128.887471 
L 548.730955 129.513913 
L 549.6721 130.602021 
L 552.683762 134.403729 
L 553.436677 134.913803 
L 554.001364 135.082197 
L 554.566051 135.051667 
L 555.130737 134.823875 
L 555.883653 134.241619 
L 556.824797 133.168943 
L 559.836459 129.343423 
L 560.589375 128.777299 
L 561.34229 128.493285 
L 561.906977 128.478865 
L 562.659892 128.724988 
L 563.412808 129.255048 
L 564.353952 130.248605 
L 565.859783 132.266228 
L 567.177385 133.935586 
L 567.930301 134.623987 
L 568.683216 135.01579 
L 569.247903 135.085749 
L 569.81259 134.956451 
L 570.565505 134.489517 
L 571.318421 133.740243 
L 572.636023 132.018693 
L 574.330083 129.820183 
L 575.271227 128.962218 
L 576.024142 128.570265 
L 576.777058 128.475009 
L 577.341745 128.603448 
L 578.09466 129.029185 
L 578.847576 129.713389 
L 579.976949 131.094083 
L 582.235695 134.027611 
L 582.988611 134.684891 
L 583.741526 135.037418 
L 584.306213 135.075141 
L 584.8709 134.913498 
L 585.623815 134.408544 
L 586.564959 133.401784 
L 588.447248 130.856283 
L 589.576621 129.528077 
L 590.329537 128.899966 
L 591.082452 128.542659 
L 591.647139 128.470446 
L 592.211826 128.570318 
L 592.964741 128.961321 
L 593.717657 129.616164 
L 594.84703 130.974252 
L 597.294005 134.125627 
L 598.046921 134.747005 
L 598.799836 135.055763 
L 599.364523 135.05936 
L 599.92921 134.86383 
L 600.682125 134.321157 
L 601.623269 133.284183 
L 605.011389 129.104328 
L 605.764305 128.642822 
L 606.51722 128.471204 
L 607.081907 128.543629 
L 607.834822 128.901362 
L 608.587738 129.528071 
L 609.528882 130.609601 
L 612.540544 134.397372 
L 613.29346 134.906034 
L 613.858146 135.073613 
L 614.422833 135.042682 
L 614.98752 134.814018 
L 615.740435 134.233458 
L 616.681579 133.163005 
L 619.693241 129.341753 
L 620.446157 128.778926 
L 621.199072 128.495372 
L 621.763759 128.481313 
L 622.516675 128.728469 
L 623.26959 129.258602 
L 624.210735 130.252326 
L 625.716566 132.2695 
L 627.034168 133.939658 
L 627.787083 134.628991 
L 628.539999 135.019968 
L 629.104685 135.087967 
L 629.669372 134.956991 
L 630.422287 134.489489 
L 631.175203 133.740753 
L 632.492805 132.017711 
L 634.186865 129.817677 
L 635.128009 128.957071 
L 635.880925 128.564026 
L 636.63384 128.468242 
L 637.198527 128.596745 
L 637.951442 129.02408 
L 638.704358 129.712265 
L 639.833731 131.099219 
L 642.092478 134.037509 
L 642.845393 134.694244 
L 643.598309 135.04569 
L 644.162995 135.082687 
L 644.727682 134.920316 
L 645.480597 134.414308 
L 646.421742 133.408447 
L 648.304031 130.857161 
L 649.433404 129.524959 
L 650.186319 128.895203 
L 650.939235 128.535915 
L 651.503921 128.462211 
L 652.068608 128.560196 
L 652.821524 128.950338 
L 653.574439 129.604431 
L 654.703812 130.959001 
L 657.150788 134.129039 
L 657.903703 134.754261 
L 658.656619 135.066335 
L 659.221305 135.071737 
L 659.785992 134.878347 
L 660.538907 134.336049 
L 661.480052 133.295984 
L 664.868172 129.102033 
L 665.621087 128.635802 
L 666.374003 128.460592 
L 666.938689 128.530359 
L 667.691605 128.882776 
L 668.44452 129.508568 
L 669.385665 130.590944 
L 672.397327 134.395662 
L 673.150242 134.909904 
L 673.714929 135.081777 
L 674.279615 135.05391 
L 674.844302 134.828618 
L 675.597217 134.249561 
L 676.538362 133.178451 
L 679.738253 129.17929 
L 680.491168 128.67771 
L 681.244084 128.465252 
L 681.80877 128.506336 
L 682.561686 128.824846 
L 683.314601 129.418999 
L 684.255746 130.472733 
L 687.455637 134.478876 
L 688.208552 134.953992 
L 688.773239 135.092491 
L 689.337925 135.029394 
L 689.902612 134.770887 
L 690.655528 134.154459 
L 691.596672 133.052736 
L 694.420105 129.434734 
L 695.173021 128.834375 
L 695.925936 128.511038 
L 696.490623 128.465456 
L 697.055309 128.591775 
L 697.808225 129.017252 
L 698.56114 129.702718 
L 699.690514 131.090771 
L 701.94926 134.034782 
L 702.702176 134.694105 
L 703.455091 135.048229 
L 704.019778 135.085653 
L 704.584464 134.924238 
L 705.33738 134.419424 
L 706.278524 133.413092 
L 707.972584 131.114939 
L 709.290186 129.527512 
L 710.043102 128.895801 
L 710.796017 128.536024 
L 711.360704 128.462379 
L 711.92539 128.56135 
L 712.678306 128.953219 
L 713.431221 129.60936 
L 714.560595 130.967054 
L 717.00757 134.129918 
L 717.760486 134.754822 
L 718.513401 135.065125 
L 719.078088 135.068793 
L 719.642774 134.874466 
L 720.39569 134.331081 
L 721.336834 133.292552 
L 724.724954 129.10527 
L 725.477869 128.639852 
L 726.230785 128.466651 
L 726.795472 128.536908 
L 727.548387 128.890347 
L 728.301303 129.515723 
L 729.242447 130.595957 
L 732.254109 134.395628 
L 733.007024 134.90775 
L 733.571711 135.076372 
L 734.136398 135.04651 
L 734.701084 134.820027 
L 735.454 134.240206 
L 736.395144 133.169899 
L 739.406806 129.347888 
L 740.159722 128.782983 
L 740.912637 128.498425 
L 741.477324 128.482433 
L 742.230239 128.726946 
L 742.983155 129.256696 
L 743.924299 130.249128 
L 745.43013 132.265276 
L 746.747732 133.933168 
L 747.500648 134.62184 
L 748.253563 135.014685 
L 748.81825 135.083953 
L 749.382937 134.954416 
L 750.135852 134.488122 
L 750.888768 133.739372 
L 752.20637 132.018163 
L 753.90043 129.819628 
L 754.841574 128.96135 
L 755.59449 128.569097 
L 756.347405 128.474424 
L 756.912092 128.60302 
L 757.665007 129.028574 
L 758.417923 129.714524 
L 759.547296 131.099868 
L 761.806042 134.036916 
L 762.558958 134.693175 
L 763.311873 135.043178 
L 763.87656 135.077641 
L 764.441247 134.914255 
L 765.194162 134.406057 
L 766.135307 133.396552 
L 769.711655 129.023638 
L 770.464571 128.597539 
L 771.217486 128.466696 
L 771.782173 128.569143 
L 772.535088 128.964064 
L 773.288004 129.623317 
L 774.417377 130.979589 
L 776.864352 134.137121 
L 777.617268 134.757187 
L 778.370183 135.065627 
L 778.93487 135.067371 
L 779.499557 134.870397 
L 780.252472 134.324553 
L 781.193617 133.281762 
L 784.581736 129.095695 
L 785.334652 128.634 
L 786.087567 128.464101 
L 786.652254 128.536472 
L 787.405169 128.893708 
L 788.158085 129.52256 
L 789.099229 130.606982 
L 792.110891 134.404615 
L 792.863807 134.915429 
L 793.428493 135.081499 
L 793.99318 135.049421 
L 794.557867 134.82006 
L 795.310782 134.237269 
L 796.251927 133.16312 
L 799.263589 129.340736 
L 800.016504 128.776207 
L 800.76942 128.492287 
L 801.334106 128.477977 
L 802.087022 128.724541 
L 802.839937 129.254674 
L 803.781082 130.248144 
L 805.286913 132.266318 
L 806.604515 133.93707 
L 807.35743 134.62771 
L 808.110346 135.02095 
L 808.675032 135.090942 
L 809.239719 134.961203 
L 809.992635 134.492985 
L 810.74555 133.742462 
L 812.063152 132.020625 
L 813.757212 129.816846 
L 814.698356 128.957165 
L 815.451272 128.563496 
L 816.204187 128.467227 
L 816.768874 128.595249 
L 817.52179 129.023527 
L 818.274705 129.711094 
L 819.404078 131.096583 
L 821.662825 134.040753 
L 822.41574 134.697305 
L 823.168656 135.048483 
L 823.733342 135.084127 
L 824.298029 134.920523 
L 825.050945 134.412683 
L 825.992089 133.40455 
L 827.874378 130.851903 
L 829.003751 129.520253 
L 829.756666 128.89126 
L 830.509582 128.534155 
L 831.074269 128.462404 
L 831.638955 128.562431 
L 832.391871 128.954159 
L 833.144786 129.611803 
L 834.274159 130.97102 
L 836.721135 134.137428 
L 837.47405 134.760484 
L 838.226966 135.070312 
L 838.791652 135.071763 
L 839.356339 134.874677 
L 840.109255 134.327945 
L 841.050399 133.286244 
L 844.438519 129.093795 
L 845.191434 128.631704 
L 845.94435 128.461926 
L 846.509036 128.535206 
L 847.261952 128.894503 
L 848.014867 129.525749 
L 848.956012 130.613838 
L 851.967674 134.409586 
L 852.720589 134.918379 
L 853.285276 135.084323 
L 853.849962 135.051413 
L 854.414649 134.820248 
L 855.167565 134.234052 
L 856.108709 133.156316 
L 859.120371 129.332889 
L 859.873287 128.770758 
L 860.626202 128.490711 
L 861.190889 128.479657 
L 861.943804 128.730066 
L 862.69672 129.264432 
L 863.637864 130.259456 
L 865.331924 132.542745 
L 866.649526 134.146677 
L 867.402442 134.765152 
L 868.155357 135.069598 
L 868.720044 135.068054 
L 869.28473 134.868352 
L 870.037646 134.318634 
L 870.97879 133.273439 
L 874.178681 129.246157 
L 874.931597 128.719831 
L 875.684512 128.478246 
L 876.249199 128.496605 
L 877.002114 128.785691 
L 877.75503 129.354561 
L 878.696174 130.38429 
L 882.084294 134.566715 
L 882.837209 134.993726 
L 883.401896 135.090775 
L 883.966583 134.988351 
L 884.531269 134.69322 
L 885.284185 134.036383 
L 886.413558 132.649782 
L 888.672304 129.701906 
L 889.613449 128.886951 
L 890.366364 128.535686 
L 890.931051 128.468492 
L 891.495738 128.57355 
L 892.248653 128.971396 
L 893.001569 129.633346 
L 894.130942 130.992884 
L 896.577917 134.147079 
L 897.330833 134.762205 
L 898.083748 135.066379 
L 898.648435 135.064005 
L 899.213121 134.863286 
L 899.966037 134.312715 
L 900.907181 133.267692 
L 904.107072 129.246071 
L 904.859988 128.720493 
L 905.612903 128.480362 
L 906.17759 128.499033 
L 906.930505 128.788223 
L 907.683421 129.35476 
L 908.624565 130.383948 
L 912.012685 134.566829 
L 912.7656 134.993646 
L 913.330287 135.09142 
L 913.894974 134.98931 
L 914.45966 134.694518 
L 915.212576 134.037367 
L 916.341949 132.650649 
L 918.600696 129.702899 
L 919.54184 128.885921 
L 920.294756 128.534111 
L 920.859442 128.466924 
L 921.424129 128.572015 
L 922.177044 128.970991 
L 922.92996 129.633279 
L 924.059333 130.995805 
L 926.506308 134.152021 
L 927.259224 134.767697 
L 928.012139 135.069156 
L 928.576826 135.065523 
L 929.141513 134.864004 
L 929.894428 134.312362 
L 930.835573 133.266089 
L 934.035463 129.241347 
L 934.788379 128.716742 
L 935.541294 128.47803 
L 936.105981 128.497942 
L 936.858897 128.78945 
L 937.611812 129.359314 
L 938.552956 130.38991 
L 941.941076 134.573813 
L 942.693992 134.997962 
L 943.258678 135.093549 
L 943.823365 134.98965 
L 944.388052 134.692843 
L 945.140967 134.034067 
L 946.27034 132.645936 
L 948.529087 129.696959 
L 949.470231 128.882578 
L 950.223147 128.532664 
L 950.787833 128.466502 
L 951.35252 128.573009 
L 952.105435 128.972474 
L 952.858351 129.635398 
L 953.987724 130.994975 
L 956.4347 134.153928 
L 957.187615 134.768123 
L 957.940531 135.070283 
L 958.505217 135.066945 
L 959.069904 134.865424 
L 959.822819 134.314377 
L 960.763964 133.267912 
L 963.963855 129.243961 
L 964.71677 128.717921 
L 965.469686 128.477478 
L 966.034372 128.496531 
L 966.787288 128.785719 
L 967.540203 129.354863 
L 968.481348 130.386127 
L 970.175407 132.677344 
L 970.175407 132.677344 
" style="fill:none;stroke:#000000;stroke-linecap:square;stroke-width:1.5;"/>
   </g>
   <g id="line2d_6">
    <path clip-path="url(#p94904fc11c)" d="M 217.636364 203.662188 
L 218.012821 89.727874 
L 218.389279 61.431242 
L 218.765737 54.504692 
L 219.142195 53.021105 
L 219.518652 52.963694 
L 219.89511 53.08734 
L 220.271568 53.230925 
L 220.836255 53.181066 
L 221.212712 53.070002 
L 221.58917 52.570485 
L 222.153857 52.035536 
L 222.530314 51.617412 
L 222.906772 51.464301 
L 223.28323 51.324397 
L 224.036145 51.277876 
L 224.412603 51.208415 
L 224.97729 51.063635 
L 225.730205 50.96558 
L 226.859579 51.182937 
L 231.5653 51.082445 
L 232.129987 51.124108 
L 233.071131 51.058495 
L 233.635818 51.064707 
L 234.200505 51.079279 
L 234.95342 51.140374 
L 235.706336 51.148881 
L 237.776853 51.214327 
L 238.717998 51.122954 
L 241.353202 51.022485 
L 241.917889 50.964845 
L 244.364864 50.930554 
L 259.046716 51.455499 
L 261.870149 51.677683 
L 267.328787 52.127334 
L 272.787424 52.686155 
L 276.552002 53.16796 
L 292.174998 55.511669 
L 299.704153 56.660409 
L 303.65696 57.08142 
L 311.374344 57.447783 
L 314.574234 57.388702 
L 319.656414 57.00436 
L 323.985678 56.494746 
L 347.514288 52.964921 
L 356.172816 52.00624 
L 365.58426 51.312178 
L 374.431017 50.933237 
L 383.277774 50.810833 
L 392.877447 50.941161 
L 402.28889 51.366258 
L 409.818045 51.929509 
L 418.288345 52.831172 
L 426.758644 53.99803 
L 446.710905 56.941899 
L 451.604856 57.329198 
L 455.557662 57.429408 
L 459.510469 57.332447 
L 463.651504 57.03628 
L 468.733683 56.445565 
L 476.262838 55.298635 
L 490.756462 53.108512 
L 497.72093 52.289727 
L 504.685399 51.664948 
L 511.461638 51.228916 
L 518.802564 50.937565 
L 526.331719 50.814786 
L 534.425561 50.882164 
L 542.89586 51.169079 
L 551.742617 51.725977 
L 558.895315 52.396232 
L 567.177385 53.415916 
L 576.588829 54.839259 
L 589.200164 56.722623 
L 594.282343 57.209167 
L 598.611607 57.410014 
L 602.564414 57.387789 
L 606.893678 57.137222 
L 611.975858 56.59808 
L 618.940326 55.589327 
L 636.445611 52.960242 
L 644.727682 52.040751 
L 652.068608 51.467253 
L 660.350679 51.031859 
L 668.068062 50.84307 
L 677.103048 50.842184 
L 685.19689 51.069428 
L 693.478961 51.510295 
L 700.819887 52.128331 
L 708.537271 52.981434 
L 715.689968 53.980747 
L 734.324627 56.785655 
L 739.030348 57.225519 
L 743.547842 57.412805 
L 747.877106 57.357946 
L 752.20637 57.075649 
L 757.288549 56.500167 
L 763.688331 55.545771 
L 781.946532 52.827131 
L 788.722772 52.093729 
L 795.875469 51.500925 
L 802.839937 51.119171 
L 812.063152 50.844584 
L 820.156994 50.83507 
L 829.19198 51.049069 
L 838.038737 51.529955 
L 845.567892 52.152487 
L 853.473505 53.054809 
L 862.508491 54.35463 
L 879.44909 56.8705 
L 884.531269 57.300174 
L 888.672304 57.427594 
L 893.001569 57.320264 
L 897.70729 56.957023 
L 902.977699 56.312879 
L 912.200914 54.874728 
L 921.988815 53.390269 
L 930.270886 52.36812 
L 937.98827 51.668333 
L 945.893883 51.16996 
L 953.611266 50.900083 
L 962.458024 50.813513 
L 970.175407 50.938893 
L 970.175407 50.938893 
" style="fill:none;stroke:#000000;stroke-linecap:square;stroke-width:1.5;"/>
   </g>
   <g id="matplotlib.axis_1">
    <g id="xtick_1">
     <g id="line2d_7">
      <path clip-path="url(#p94904fc11c)" d="M 217.636364 252 
L 217.636364 34.56 
" style="fill:none;stroke:#b0b0b0;stroke-linecap:square;stroke-width:0.8;"/>
     </g>
     <g id="line2d_8">
      <defs>
       <path d="M 0 0 
L 0 3.5 
" id="ma675ff3aad" style="stroke:#000000;stroke-width:0.8;"/>
      </defs>
      <g>
       <use style="stroke:#000000;stroke-width:0.8;" x="217.636364" xlink:href="#ma675ff3aad" y="252"/>
      </g>
     </g>
     <g id="text_1">
      <!-- 0 -->
      <defs>
       <path d="M 4.15625 35.296875 
Q 4.15625 48 6.765625 55.734375 
Q 9.375 63.484375 14.515625 67.671875 
Q 19.671875 71.875 27.484375 71.875 
Q 33.25 71.875 37.59375 69.546875 
Q 41.9375 67.234375 44.765625 62.859375 
Q 47.609375 58.5 49.21875 52.21875 
Q 50.828125 45.953125 50.828125 35.296875 
Q 50.828125 22.703125 48.234375 14.96875 
Q 45.65625 7.234375 40.5 3 
Q 35.359375 -1.21875 27.484375 -1.21875 
Q 17.140625 -1.21875 11.234375 6.203125 
Q 4.15625 15.140625 4.15625 35.296875 
z
M 13.1875 35.296875 
Q 13.1875 17.671875 17.3125 11.828125 
Q 21.4375 6 27.484375 6 
Q 33.546875 6 37.671875 11.859375 
Q 41.796875 17.71875 41.796875 35.296875 
Q 41.796875 52.984375 37.671875 58.78125 
Q 33.546875 64.59375 27.390625 64.59375 
Q 21.34375 64.59375 17.71875 59.46875 
Q 13.1875 52.9375 13.1875 35.296875 
z
" id="ArialMT-48"/>
      </defs>
      <g transform="translate(210.407145 277.610313)scale(0.26 -0.26)">
       <use xlink:href="#ArialMT-48"/>
      </g>
     </g>
    </g>
    <g id="xtick_2">
     <g id="line2d_9">
      <path clip-path="url(#p94904fc11c)" d="M 594.094114 252 
L 594.094114 34.56 
" style="fill:none;stroke:#b0b0b0;stroke-linecap:square;stroke-width:0.8;"/>
     </g>
     <g id="line2d_10">
      <g>
       <use style="stroke:#000000;stroke-width:0.8;" x="594.094114" xlink:href="#ma675ff3aad" y="252"/>
      </g>
     </g>
     <g id="text_2">
      <!-- 2000 -->
      <defs>
       <path d="M 50.34375 8.453125 
L 50.34375 0 
L 3.03125 0 
Q 2.9375 3.171875 4.046875 6.109375 
Q 5.859375 10.9375 9.828125 15.625 
Q 13.8125 20.3125 21.34375 26.46875 
Q 33.015625 36.03125 37.109375 41.625 
Q 41.21875 47.21875 41.21875 52.203125 
Q 41.21875 57.421875 37.46875 61 
Q 33.734375 64.59375 27.734375 64.59375 
Q 21.390625 64.59375 17.578125 60.78125 
Q 13.765625 56.984375 13.71875 50.25 
L 4.6875 51.171875 
Q 5.609375 61.28125 11.65625 66.578125 
Q 17.71875 71.875 27.9375 71.875 
Q 38.234375 71.875 44.234375 66.15625 
Q 50.25 60.453125 50.25 52 
Q 50.25 47.703125 48.484375 43.546875 
Q 46.734375 39.40625 42.65625 34.8125 
Q 38.578125 30.21875 29.109375 22.21875 
Q 21.1875 15.578125 18.9375 13.203125 
Q 16.703125 10.84375 15.234375 8.453125 
z
" id="ArialMT-50"/>
      </defs>
      <g transform="translate(565.177239 277.610313)scale(0.26 -0.26)">
       <use xlink:href="#ArialMT-50"/>
       <use x="55.615234" xlink:href="#ArialMT-48"/>
       <use x="111.230469" xlink:href="#ArialMT-48"/>
       <use x="166.845703" xlink:href="#ArialMT-48"/>
      </g>
     </g>
    </g>
    <g id="xtick_3">
     <g id="line2d_11">
      <path clip-path="url(#p94904fc11c)" d="M 970.551865 252 
L 970.551865 34.56 
" style="fill:none;stroke:#b0b0b0;stroke-linecap:square;stroke-width:0.8;"/>
     </g>
     <g id="line2d_12">
      <g>
       <use style="stroke:#000000;stroke-width:0.8;" x="970.551865" xlink:href="#ma675ff3aad" y="252"/>
      </g>
     </g>
     <g id="text_3">
      <!-- 4000 -->
      <defs>
       <path d="M 32.328125 0 
L 32.328125 17.140625 
L 1.265625 17.140625 
L 1.265625 25.203125 
L 33.9375 71.578125 
L 41.109375 71.578125 
L 41.109375 25.203125 
L 50.78125 25.203125 
L 50.78125 17.140625 
L 41.109375 17.140625 
L 41.109375 0 
z
M 32.328125 25.203125 
L 32.328125 57.46875 
L 9.90625 25.203125 
z
" id="ArialMT-52"/>
      </defs>
      <g transform="translate(941.63499 277.610313)scale(0.26 -0.26)">
       <use xlink:href="#ArialMT-52"/>
       <use x="55.615234" xlink:href="#ArialMT-48"/>
       <use x="111.230469" xlink:href="#ArialMT-48"/>
       <use x="166.845703" xlink:href="#ArialMT-48"/>
      </g>
     </g>
    </g>
    <g id="text_4">
     <!-- # sample -->
     <defs>
      <path d="M 5.03125 -1.21875 
L 9.28125 19.578125 
L 1.03125 19.578125 
L 1.03125 26.859375 
L 10.75 26.859375 
L 14.359375 44.578125 
L 1.03125 44.578125 
L 1.03125 51.859375 
L 15.828125 51.859375 
L 20.0625 72.796875 
L 27.390625 72.796875 
L 23.140625 51.859375 
L 38.53125 51.859375 
L 42.78125 72.796875 
L 50.140625 72.796875 
L 45.90625 51.859375 
L 54.34375 51.859375 
L 54.34375 44.578125 
L 44.4375 44.578125 
L 40.765625 26.859375 
L 54.34375 26.859375 
L 54.34375 19.578125 
L 39.3125 19.578125 
L 35.0625 -1.21875 
L 27.734375 -1.21875 
L 31.9375 19.578125 
L 16.609375 19.578125 
L 12.359375 -1.21875 
z
M 18.0625 26.859375 
L 33.40625 26.859375 
L 37.0625 44.578125 
L 21.6875 44.578125 
z
" id="ArialMT-35"/>
      <path id="ArialMT-32"/>
      <path d="M 3.078125 15.484375 
L 11.765625 16.84375 
Q 12.5 11.625 15.84375 8.84375 
Q 19.1875 6.0625 25.203125 6.0625 
Q 31.25 6.0625 34.171875 8.515625 
Q 37.109375 10.984375 37.109375 14.3125 
Q 37.109375 17.28125 34.515625 19 
Q 32.71875 20.171875 25.53125 21.96875 
Q 15.875 24.421875 12.140625 26.203125 
Q 8.40625 27.984375 6.46875 31.125 
Q 4.546875 34.28125 4.546875 38.09375 
Q 4.546875 41.546875 6.125 44.5 
Q 7.71875 47.46875 10.453125 49.421875 
Q 12.5 50.921875 16.03125 51.96875 
Q 19.578125 53.03125 23.640625 53.03125 
Q 29.734375 53.03125 34.34375 51.265625 
Q 38.96875 49.515625 41.15625 46.5 
Q 43.359375 43.5 44.1875 38.484375 
L 35.59375 37.3125 
Q 35.015625 41.3125 32.203125 43.546875 
Q 29.390625 45.796875 24.265625 45.796875 
Q 18.21875 45.796875 15.625 43.796875 
Q 13.03125 41.796875 13.03125 39.109375 
Q 13.03125 37.40625 14.109375 36.03125 
Q 15.1875 34.625 17.484375 33.6875 
Q 18.796875 33.203125 25.25 31.453125 
Q 34.578125 28.953125 38.25 27.359375 
Q 41.9375 25.78125 44.03125 22.75 
Q 46.140625 19.734375 46.140625 15.234375 
Q 46.140625 10.84375 43.578125 6.953125 
Q 41.015625 3.078125 36.171875 0.953125 
Q 31.34375 -1.171875 25.25 -1.171875 
Q 15.140625 -1.171875 9.84375 3.03125 
Q 4.546875 7.234375 3.078125 15.484375 
z
" id="ArialMT-115"/>
      <path d="M 40.4375 6.390625 
Q 35.546875 2.25 31.03125 0.53125 
Q 26.515625 -1.171875 21.34375 -1.171875 
Q 12.796875 -1.171875 8.203125 3 
Q 3.609375 7.171875 3.609375 13.671875 
Q 3.609375 17.484375 5.34375 20.625 
Q 7.078125 23.78125 9.890625 25.6875 
Q 12.703125 27.59375 16.21875 28.5625 
Q 18.796875 29.25 24.03125 29.890625 
Q 34.671875 31.15625 39.703125 32.90625 
Q 39.75 34.71875 39.75 35.203125 
Q 39.75 40.578125 37.25 42.78125 
Q 33.890625 45.75 27.25 45.75 
Q 21.046875 45.75 18.09375 43.578125 
Q 15.140625 41.40625 13.71875 35.890625 
L 5.125 37.0625 
Q 6.296875 42.578125 8.984375 45.96875 
Q 11.671875 49.359375 16.75 51.1875 
Q 21.828125 53.03125 28.515625 53.03125 
Q 35.15625 53.03125 39.296875 51.46875 
Q 43.453125 49.90625 45.40625 47.53125 
Q 47.359375 45.171875 48.140625 41.546875 
Q 48.578125 39.3125 48.578125 33.453125 
L 48.578125 21.734375 
Q 48.578125 9.46875 49.140625 6.21875 
Q 49.703125 2.984375 51.375 0 
L 42.1875 0 
Q 40.828125 2.734375 40.4375 6.390625 
z
M 39.703125 26.03125 
Q 34.90625 24.078125 25.34375 22.703125 
Q 19.921875 21.921875 17.671875 20.9375 
Q 15.4375 19.96875 14.203125 18.09375 
Q 12.984375 16.21875 12.984375 13.921875 
Q 12.984375 10.40625 15.640625 8.0625 
Q 18.3125 5.71875 23.4375 5.71875 
Q 28.515625 5.71875 32.46875 7.9375 
Q 36.421875 10.15625 38.28125 14.015625 
Q 39.703125 17 39.703125 22.796875 
z
" id="ArialMT-97"/>
      <path d="M 6.59375 0 
L 6.59375 51.859375 
L 14.453125 51.859375 
L 14.453125 44.578125 
Q 16.890625 48.390625 20.9375 50.703125 
Q 25 53.03125 30.171875 53.03125 
Q 35.9375 53.03125 39.625 50.640625 
Q 43.3125 48.25 44.828125 43.953125 
Q 50.984375 53.03125 60.84375 53.03125 
Q 68.5625 53.03125 72.703125 48.75 
Q 76.859375 44.484375 76.859375 35.59375 
L 76.859375 0 
L 68.109375 0 
L 68.109375 32.671875 
Q 68.109375 37.9375 67.25 40.25 
Q 66.40625 42.578125 64.15625 43.984375 
Q 61.921875 45.40625 58.890625 45.40625 
Q 53.421875 45.40625 49.796875 41.765625 
Q 46.1875 38.140625 46.1875 30.125 
L 46.1875 0 
L 37.40625 0 
L 37.40625 33.6875 
Q 37.40625 39.546875 35.25 42.46875 
Q 33.109375 45.40625 28.21875 45.40625 
Q 24.515625 45.40625 21.359375 43.453125 
Q 18.21875 41.5 16.796875 37.734375 
Q 15.375 33.984375 15.375 26.90625 
L 15.375 0 
z
" id="ArialMT-109"/>
      <path d="M 6.59375 -19.875 
L 6.59375 51.859375 
L 14.59375 51.859375 
L 14.59375 45.125 
Q 17.4375 49.078125 21 51.046875 
Q 24.5625 53.03125 29.640625 53.03125 
Q 36.28125 53.03125 41.359375 49.609375 
Q 46.4375 46.1875 49.015625 39.953125 
Q 51.609375 33.734375 51.609375 26.3125 
Q 51.609375 18.359375 48.75 11.984375 
Q 45.90625 5.609375 40.453125 2.21875 
Q 35.015625 -1.171875 29 -1.171875 
Q 24.609375 -1.171875 21.109375 0.6875 
Q 17.625 2.546875 15.375 5.375 
L 15.375 -19.875 
z
M 14.546875 25.640625 
Q 14.546875 15.625 18.59375 10.84375 
Q 22.65625 6.0625 28.421875 6.0625 
Q 34.28125 6.0625 38.453125 11.015625 
Q 42.625 15.96875 42.625 26.375 
Q 42.625 36.28125 38.546875 41.203125 
Q 34.46875 46.140625 28.8125 46.140625 
Q 23.1875 46.140625 18.859375 40.890625 
Q 14.546875 35.640625 14.546875 25.640625 
z
" id="ArialMT-112"/>
      <path d="M 6.390625 0 
L 6.390625 71.578125 
L 15.1875 71.578125 
L 15.1875 0 
z
" id="ArialMT-108"/>
      <path d="M 42.09375 16.703125 
L 51.171875 15.578125 
Q 49.03125 7.625 43.21875 3.21875 
Q 37.40625 -1.171875 28.375 -1.171875 
Q 17 -1.171875 10.328125 5.828125 
Q 3.65625 12.84375 3.65625 25.484375 
Q 3.65625 38.578125 10.390625 45.796875 
Q 17.140625 53.03125 27.875 53.03125 
Q 38.28125 53.03125 44.875 45.953125 
Q 51.46875 38.875 51.46875 26.03125 
Q 51.46875 25.25 51.421875 23.6875 
L 12.75 23.6875 
Q 13.234375 15.140625 17.578125 10.59375 
Q 21.921875 6.0625 28.421875 6.0625 
Q 33.25 6.0625 36.671875 8.59375 
Q 40.09375 11.140625 42.09375 16.703125 
z
M 13.234375 30.90625 
L 42.1875 30.90625 
Q 41.609375 37.453125 38.875 40.71875 
Q 34.671875 45.796875 27.984375 45.796875 
Q 21.921875 45.796875 17.796875 41.75 
Q 13.671875 37.703125 13.234375 30.90625 
z
" id="ArialMT-101"/>
     </defs>
     <g transform="translate(541.254531 305.705)scale(0.26 -0.26)">
      <use xlink:href="#ArialMT-35"/>
      <use x="55.615234" xlink:href="#ArialMT-32"/>
      <use x="83.398438" xlink:href="#ArialMT-115"/>
      <use x="133.398438" xlink:href="#ArialMT-97"/>
      <use x="189.013672" xlink:href="#ArialMT-109"/>
      <use x="272.314453" xlink:href="#ArialMT-112"/>
      <use x="327.929688" xlink:href="#ArialMT-108"/>
      <use x="350.146484" xlink:href="#ArialMT-101"/>
     </g>
    </g>
   </g>
   <g id="matplotlib.axis_2">
    <g id="ytick_1">
     <g id="line2d_13">
      <path clip-path="url(#p94904fc11c)" d="M 180 245.293219 
L 1008 245.293219 
" style="fill:none;stroke:#b0b0b0;stroke-linecap:square;stroke-width:0.8;"/>
     </g>
     <g id="line2d_14">
      <defs>
       <path d="M 0 0 
L -3.5 0 
" id="m2e7e015294" style="stroke:#000000;stroke-width:0.8;"/>
      </defs>
      <g>
       <use style="stroke:#000000;stroke-width:0.8;" x="180" xlink:href="#m2e7e015294" y="245.293219"/>
      </g>
     </g>
     <g id="text_5">
      <!-- 10 -->
      <defs>
       <path d="M 37.25 0 
L 28.46875 0 
L 28.46875 56 
Q 25.296875 52.984375 20.140625 49.953125 
Q 14.984375 46.921875 10.890625 45.40625 
L 10.890625 53.90625 
Q 18.265625 57.375 23.78125 62.296875 
Q 29.296875 67.234375 31.59375 71.875 
L 37.25 71.875 
z
" id="ArialMT-49"/>
      </defs>
      <g transform="translate(144.083125 254.598375)scale(0.26 -0.26)">
       <use xlink:href="#ArialMT-49"/>
       <use x="55.615234" xlink:href="#ArialMT-48"/>
      </g>
     </g>
    </g>
    <g id="ytick_2">
     <g id="line2d_15">
      <path clip-path="url(#p94904fc11c)" d="M 180 190.114302 
L 1008 190.114302 
" style="fill:none;stroke:#b0b0b0;stroke-linecap:square;stroke-width:0.8;"/>
     </g>
     <g id="line2d_16">
      <g>
       <use style="stroke:#000000;stroke-width:0.8;" x="180" xlink:href="#m2e7e015294" y="190.114302"/>
      </g>
     </g>
     <g id="text_6">
      <!-- 15 -->
      <defs>
       <path d="M 4.15625 18.75 
L 13.375 19.53125 
Q 14.40625 12.796875 18.140625 9.390625 
Q 21.875 6 27.15625 6 
Q 33.5 6 37.890625 10.78125 
Q 42.28125 15.578125 42.28125 23.484375 
Q 42.28125 31 38.0625 35.34375 
Q 33.84375 39.703125 27 39.703125 
Q 22.75 39.703125 19.328125 37.765625 
Q 15.921875 35.84375 13.96875 32.765625 
L 5.71875 33.84375 
L 12.640625 70.609375 
L 48.25 70.609375 
L 48.25 62.203125 
L 19.671875 62.203125 
L 15.828125 42.96875 
Q 22.265625 47.46875 29.34375 47.46875 
Q 38.71875 47.46875 45.15625 40.96875 
Q 51.609375 34.46875 51.609375 24.265625 
Q 51.609375 14.546875 45.953125 7.46875 
Q 39.0625 -1.21875 27.15625 -1.21875 
Q 17.390625 -1.21875 11.203125 4.25 
Q 5.03125 9.71875 4.15625 18.75 
z
" id="ArialMT-53"/>
      </defs>
      <g transform="translate(144.083125 199.419458)scale(0.26 -0.26)">
       <use xlink:href="#ArialMT-49"/>
       <use x="55.615234" xlink:href="#ArialMT-53"/>
      </g>
     </g>
    </g>
    <g id="ytick_3">
     <g id="line2d_17">
      <path clip-path="url(#p94904fc11c)" d="M 180 134.935384 
L 1008 134.935384 
" style="fill:none;stroke:#b0b0b0;stroke-linecap:square;stroke-width:0.8;"/>
     </g>
     <g id="line2d_18">
      <g>
       <use style="stroke:#000000;stroke-width:0.8;" x="180" xlink:href="#m2e7e015294" y="134.935384"/>
      </g>
     </g>
     <g id="text_7">
      <!-- 20 -->
      <g transform="translate(144.083125 144.24054)scale(0.26 -0.26)">
       <use xlink:href="#ArialMT-50"/>
       <use x="55.615234" xlink:href="#ArialMT-48"/>
      </g>
     </g>
    </g>
    <g id="ytick_4">
     <g id="line2d_19">
      <path clip-path="url(#p94904fc11c)" d="M 180 79.756467 
L 1008 79.756467 
" style="fill:none;stroke:#b0b0b0;stroke-linecap:square;stroke-width:0.8;"/>
     </g>
     <g id="line2d_20">
      <g>
       <use style="stroke:#000000;stroke-width:0.8;" x="180" xlink:href="#m2e7e015294" y="79.756467"/>
      </g>
     </g>
     <g id="text_8">
      <!-- 25 -->
      <g transform="translate(144.083125 89.061623)scale(0.26 -0.26)">
       <use xlink:href="#ArialMT-50"/>
       <use x="55.615234" xlink:href="#ArialMT-53"/>
      </g>
     </g>
    </g>
    <g id="text_9">
     <!-- phase velocity -->
     <defs>
      <path d="M 6.59375 0 
L 6.59375 71.578125 
L 15.375 71.578125 
L 15.375 45.90625 
Q 21.53125 53.03125 30.90625 53.03125 
Q 36.671875 53.03125 40.921875 50.75 
Q 45.171875 48.484375 47 44.484375 
Q 48.828125 40.484375 48.828125 32.859375 
L 48.828125 0 
L 40.046875 0 
L 40.046875 32.859375 
Q 40.046875 39.453125 37.1875 42.453125 
Q 34.328125 45.453125 29.109375 45.453125 
Q 25.203125 45.453125 21.75 43.421875 
Q 18.3125 41.40625 16.84375 37.9375 
Q 15.375 34.46875 15.375 28.375 
L 15.375 0 
z
" id="ArialMT-104"/>
      <path d="M 21 0 
L 1.265625 51.859375 
L 10.546875 51.859375 
L 21.6875 20.796875 
Q 23.484375 15.765625 25 10.359375 
Q 26.171875 14.453125 28.265625 20.21875 
L 39.796875 51.859375 
L 48.828125 51.859375 
L 29.203125 0 
z
" id="ArialMT-118"/>
      <path d="M 3.328125 25.921875 
Q 3.328125 40.328125 11.328125 47.265625 
Q 18.015625 53.03125 27.640625 53.03125 
Q 38.328125 53.03125 45.109375 46.015625 
Q 51.90625 39.015625 51.90625 26.65625 
Q 51.90625 16.65625 48.90625 10.90625 
Q 45.90625 5.171875 40.15625 2 
Q 34.421875 -1.171875 27.640625 -1.171875 
Q 16.75 -1.171875 10.03125 5.8125 
Q 3.328125 12.796875 3.328125 25.921875 
z
M 12.359375 25.921875 
Q 12.359375 15.96875 16.703125 11.015625 
Q 21.046875 6.0625 27.640625 6.0625 
Q 34.1875 6.0625 38.53125 11.03125 
Q 42.875 16.015625 42.875 26.21875 
Q 42.875 35.84375 38.5 40.796875 
Q 34.125 45.75 27.640625 45.75 
Q 21.046875 45.75 16.703125 40.8125 
Q 12.359375 35.890625 12.359375 25.921875 
z
" id="ArialMT-111"/>
      <path d="M 40.4375 19 
L 49.078125 17.875 
Q 47.65625 8.9375 41.8125 3.875 
Q 35.984375 -1.171875 27.484375 -1.171875 
Q 16.84375 -1.171875 10.375 5.78125 
Q 3.90625 12.75 3.90625 25.734375 
Q 3.90625 34.125 6.6875 40.421875 
Q 9.46875 46.734375 15.15625 49.875 
Q 20.84375 53.03125 27.546875 53.03125 
Q 35.984375 53.03125 41.359375 48.75 
Q 46.734375 44.484375 48.25 36.625 
L 39.703125 35.296875 
Q 38.484375 40.53125 35.375 43.15625 
Q 32.28125 45.796875 27.875 45.796875 
Q 21.234375 45.796875 17.078125 41.03125 
Q 12.9375 36.28125 12.9375 25.984375 
Q 12.9375 15.53125 16.9375 10.796875 
Q 20.953125 6.0625 27.390625 6.0625 
Q 32.5625 6.0625 36.03125 9.234375 
Q 39.5 12.40625 40.4375 19 
z
" id="ArialMT-99"/>
      <path d="M 6.640625 61.46875 
L 6.640625 71.578125 
L 15.4375 71.578125 
L 15.4375 61.46875 
z
M 6.640625 0 
L 6.640625 51.859375 
L 15.4375 51.859375 
L 15.4375 0 
z
" id="ArialMT-105"/>
      <path d="M 25.78125 7.859375 
L 27.046875 0.09375 
Q 23.34375 -0.6875 20.40625 -0.6875 
Q 15.625 -0.6875 12.984375 0.828125 
Q 10.359375 2.34375 9.28125 4.8125 
Q 8.203125 7.28125 8.203125 15.1875 
L 8.203125 45.015625 
L 1.765625 45.015625 
L 1.765625 51.859375 
L 8.203125 51.859375 
L 8.203125 64.703125 
L 16.9375 69.96875 
L 16.9375 51.859375 
L 25.78125 51.859375 
L 25.78125 45.015625 
L 16.9375 45.015625 
L 16.9375 14.703125 
Q 16.9375 10.9375 17.40625 9.859375 
Q 17.875 8.796875 18.921875 8.15625 
Q 19.96875 7.515625 21.921875 7.515625 
Q 23.390625 7.515625 25.78125 7.859375 
z
" id="ArialMT-116"/>
      <path d="M 6.203125 -19.96875 
L 5.21875 -11.71875 
Q 8.109375 -12.5 10.25 -12.5 
Q 13.1875 -12.5 14.9375 -11.515625 
Q 16.703125 -10.546875 17.828125 -8.796875 
Q 18.65625 -7.46875 20.515625 -2.25 
Q 20.75 -1.515625 21.296875 -0.09375 
L 1.609375 51.859375 
L 11.078125 51.859375 
L 21.875 21.828125 
Q 23.96875 16.109375 25.640625 9.8125 
Q 27.15625 15.875 29.25 21.625 
L 40.328125 51.859375 
L 49.125 51.859375 
L 29.390625 -0.875 
Q 26.21875 -9.421875 24.46875 -12.640625 
Q 22.125 -17 19.09375 -19.015625 
Q 16.0625 -21.046875 11.859375 -21.046875 
Q 9.328125 -21.046875 6.203125 -19.96875 
z
" id="ArialMT-121"/>
     </defs>
     <g transform="translate(134.610937 225.655313)rotate(-90)scale(0.26 -0.26)">
      <use xlink:href="#ArialMT-112"/>
      <use x="55.615234" xlink:href="#ArialMT-104"/>
      <use x="111.230469" xlink:href="#ArialMT-97"/>
      <use x="166.845703" xlink:href="#ArialMT-115"/>
      <use x="216.845703" xlink:href="#ArialMT-101"/>
      <use x="272.460938" xlink:href="#ArialMT-32"/>
      <use x="300.244141" xlink:href="#ArialMT-118"/>
      <use x="350.244141" xlink:href="#ArialMT-101"/>
      <use x="405.859375" xlink:href="#ArialMT-108"/>
      <use x="428.076172" xlink:href="#ArialMT-111"/>
      <use x="483.691406" xlink:href="#ArialMT-99"/>
      <use x="533.691406" xlink:href="#ArialMT-105"/>
      <use x="555.908203" xlink:href="#ArialMT-116"/>
      <use x="583.691406" xlink:href="#ArialMT-121"/>
     </g>
    </g>
   </g>
   <g id="patch_3">
    <path d="M 180 252 
L 180 34.56 
" style="fill:none;stroke:#000000;stroke-linecap:square;stroke-linejoin:miter;stroke-width:0.8;"/>
   </g>
   <g id="patch_4">
    <path d="M 1008 252 
L 1008 34.56 
" style="fill:none;stroke:#000000;stroke-linecap:square;stroke-linejoin:miter;stroke-width:0.8;"/>
   </g>
   <g id="patch_5">
    <path d="M 180 252 
L 1008 252 
" style="fill:none;stroke:#000000;stroke-linecap:square;stroke-linejoin:miter;stroke-width:0.8;"/>
   </g>
   <g id="patch_6">
    <path d="M 180 34.56 
L 1008 34.56 
" style="fill:none;stroke:#000000;stroke-linecap:square;stroke-linejoin:miter;stroke-width:0.8;"/>
   </g>
   <g id="legend_1">
    <g id="patch_7">
     <path d="M 1054.6 115.915625 
L 1197.055625 115.915625 
Q 1202.255625 115.915625 1202.255625 110.715625 
L 1202.255625 39.76 
Q 1202.255625 34.56 1197.055625 34.56 
L 1054.6 34.56 
Q 1049.4 34.56 1049.4 39.76 
L 1049.4 110.715625 
Q 1049.4 115.915625 1054.6 115.915625 
z
" style="fill:#ffffff;opacity:0.8;stroke:#cccccc;stroke-linejoin:miter;"/>
    </g>
    <g id="line2d_21">
     <path d="M 1059.8 54.470312 
L 1111.8 54.470312 
" style="fill:none;stroke:#000000;stroke-linecap:square;stroke-width:1.5;"/>
    </g>
    <g id="line2d_22"/>
    <g id="text_10">
     <!-- pred. -->
     <defs>
      <path d="M 6.5 0 
L 6.5 51.859375 
L 14.40625 51.859375 
L 14.40625 44 
Q 17.4375 49.515625 20 51.265625 
Q 22.5625 53.03125 25.640625 53.03125 
Q 30.078125 53.03125 34.671875 50.203125 
L 31.640625 42.046875 
Q 28.421875 43.953125 25.203125 43.953125 
Q 22.3125 43.953125 20.015625 42.21875 
Q 17.71875 40.484375 16.75 37.40625 
Q 15.28125 32.71875 15.28125 27.15625 
L 15.28125 0 
z
" id="ArialMT-114"/>
      <path d="M 40.234375 0 
L 40.234375 6.546875 
Q 35.296875 -1.171875 25.734375 -1.171875 
Q 19.53125 -1.171875 14.328125 2.25 
Q 9.125 5.671875 6.265625 11.796875 
Q 3.421875 17.921875 3.421875 25.875 
Q 3.421875 33.640625 6 39.96875 
Q 8.59375 46.296875 13.765625 49.65625 
Q 18.953125 53.03125 25.34375 53.03125 
Q 30.03125 53.03125 33.6875 51.046875 
Q 37.359375 49.078125 39.65625 45.90625 
L 39.65625 71.578125 
L 48.390625 71.578125 
L 48.390625 0 
z
M 12.453125 25.875 
Q 12.453125 15.921875 16.640625 10.984375 
Q 20.84375 6.0625 26.5625 6.0625 
Q 32.328125 6.0625 36.34375 10.765625 
Q 40.375 15.484375 40.375 25.140625 
Q 40.375 35.796875 36.265625 40.765625 
Q 32.171875 45.75 26.171875 45.75 
Q 20.3125 45.75 16.375 40.96875 
Q 12.453125 36.1875 12.453125 25.875 
z
" id="ArialMT-100"/>
      <path d="M 9.078125 0 
L 9.078125 10.015625 
L 19.09375 10.015625 
L 19.09375 0 
z
" id="ArialMT-46"/>
     </defs>
     <g transform="translate(1132.6 63.570312)scale(0.26 -0.26)">
      <use xlink:href="#ArialMT-112"/>
      <use x="55.615234" xlink:href="#ArialMT-114"/>
      <use x="88.916016" xlink:href="#ArialMT-101"/>
      <use x="144.53125" xlink:href="#ArialMT-100"/>
      <use x="200.146484" xlink:href="#ArialMT-46"/>
     </g>
    </g>
    <g id="line2d_23">
     <path d="M 1059.8 91.248125 
L 1111.8 91.248125 
" style="fill:none;stroke:#808080;stroke-linecap:square;stroke-width:4;"/>
    </g>
    <g id="line2d_24"/>
    <g id="text_11">
     <!-- true -->
     <defs>
      <path d="M 40.578125 0 
L 40.578125 7.625 
Q 34.515625 -1.171875 24.125 -1.171875 
Q 19.53125 -1.171875 15.546875 0.578125 
Q 11.578125 2.34375 9.640625 5 
Q 7.71875 7.671875 6.9375 11.53125 
Q 6.390625 14.109375 6.390625 19.734375 
L 6.390625 51.859375 
L 15.1875 51.859375 
L 15.1875 23.09375 
Q 15.1875 16.21875 15.71875 13.8125 
Q 16.546875 10.359375 19.234375 8.375 
Q 21.921875 6.390625 25.875 6.390625 
Q 29.828125 6.390625 33.296875 8.421875 
Q 36.765625 10.453125 38.203125 13.9375 
Q 39.65625 17.4375 39.65625 24.078125 
L 39.65625 51.859375 
L 48.4375 51.859375 
L 48.4375 0 
z
" id="ArialMT-117"/>
     </defs>
     <g transform="translate(1132.6 100.348125)scale(0.26 -0.26)">
      <use xlink:href="#ArialMT-116"/>
      <use x="27.783203" xlink:href="#ArialMT-114"/>
      <use x="61.083984" xlink:href="#ArialMT-117"/>
      <use x="116.699219" xlink:href="#ArialMT-101"/>
     </g>
    </g>
   </g>
  </g>
 </g>
 <defs>
  <clipPath id="p94904fc11c">
   <rect height="217.44" width="828" x="180" y="34.56"/>
  </clipPath>
 </defs>
</svg>
