<?xml version="1.0" encoding="utf-8" standalone="no"?>
<!DOCTYPE svg PUBLIC "-//W3C//DTD SVG 1.1//EN"
  "http://www.w3.org/Graphics/SVG/1.1/DTD/svg11.dtd">
<!-- Created with matplotlib (https://matplotlib.org/) -->
<svg height="288pt" version="1.1" viewBox="0 0 1440 288" width="1440pt" xmlns="http://www.w3.org/2000/svg" xmlns:xlink="http://www.w3.org/1999/xlink">
 <defs>
  <style type="text/css">
*{stroke-linecap:butt;stroke-linejoin:round;}
  </style>
 </defs>
 <g id="figure_1">
  <g id="patch_1">
   <path d="M 0 288 
L 1440 288 
L 1440 0 
L 0 0 
z
" style="fill:#ffffff;"/>
  </g>
  <g id="axes_1">
   <g id="patch_2">
    <path d="M 180 252 
L 1008 252 
L 1008 34.56 
L 180 34.56 
z
" style="fill:#ffffff;"/>
   </g>
   <g id="line2d_1">
    <path clip-path="url(#paa31b1de05)" d="M 217.636364 44.515007 
L 970.363636 44.515007 
L 970.363636 44.515007 
" style="fill:none;stroke:#808080;stroke-linecap:square;stroke-width:4;"/>
   </g>
   <g id="line2d_2">
    <path clip-path="url(#paa31b1de05)" d="M 217.636364 97.846256 
L 218.389279 97.981424 
L 219.330424 98.404566 
L 220.459797 99.206684 
L 223.471459 101.613599 
L 224.412603 101.984258 
L 225.165519 102.040155 
L 225.918434 101.872256 
L 226.859579 101.380416 
L 227.988952 100.500412 
L 230.435927 98.506976 
L 231.377072 98.037114 
L 232.129987 97.859793 
L 232.882903 97.874521 
L 233.635818 98.079839 
L 234.576962 98.578012 
L 235.894565 99.603689 
L 238.153311 101.445009 
L 239.094455 101.906444 
L 239.847371 102.045622 
L 240.600286 101.96077 
L 241.353202 101.661797 
L 242.294346 101.042676 
L 244.176635 99.43042 
L 245.494237 98.448885 
L 246.435382 98.004833 
L 247.188297 97.851019 
L 247.941213 97.890096 
L 248.694128 98.118818 
L 249.635272 98.641598 
L 250.952875 99.684163 
L 253.023392 101.385953 
L 253.964537 101.874704 
L 254.717452 102.040635 
L 255.470368 101.982824 
L 256.223283 101.707759 
L 257.164427 101.110208 
L 258.858487 99.670538 
L 260.364318 98.50498 
L 261.305463 98.036222 
L 262.058378 97.859448 
L 262.811294 97.875251 
L 263.564209 98.081939 
L 264.505354 98.580984 
L 265.822956 99.607795 
L 268.081702 101.450025 
L 269.022847 101.908493 
L 269.775762 102.045875 
L 270.528678 101.958976 
L 271.281593 101.65734 
L 272.222738 101.035665 
L 275.987315 98.14825 
L 276.928459 97.870924 
L 277.681375 97.862761 
L 278.43429 98.04597 
L 279.375435 98.521178 
L 280.504808 99.365927 
L 283.328241 101.616237 
L 284.269386 101.985137 
L 285.022301 102.039874 
L 285.775217 101.871255 
L 286.716361 101.3792 
L 287.845734 100.501161 
L 290.29271 98.507984 
L 291.233854 98.037357 
L 292.174998 97.845348 
L 292.927914 97.908577 
L 293.869058 98.250675 
L 294.810203 98.841481 
L 296.316034 100.100132 
L 298.010093 101.448205 
L 298.951238 101.907516 
L 299.704153 102.045748 
L 300.457069 101.960004 
L 301.209984 101.659971 
L 302.151129 101.040576 
L 304.033417 99.430288 
L 305.35102 98.449262 
L 306.292164 98.004838 
L 307.045079 97.850968 
L 307.797995 97.890172 
L 308.55091 98.118476 
L 309.492055 98.641526 
L 310.809657 99.685336 
L 312.880175 101.385322 
L 313.821319 101.874007 
L 314.574234 102.04045 
L 315.32715 101.983481 
L 316.080065 101.709223 
L 317.02121 101.1133 
L 318.71527 99.673975 
L 320.221101 98.506564 
L 321.162245 98.036953 
L 321.915161 97.859599 
L 322.668076 97.875083 
L 323.420992 98.081281 
L 324.362136 98.581313 
L 325.491509 99.445272 
L 328.126713 101.563296 
L 329.067858 101.963375 
L 329.820773 102.045229 
L 330.573689 101.902479 
L 331.326604 101.552073 
L 332.455978 100.734605 
L 335.46764 98.337074 
L 336.408784 97.94767 
L 337.1617 97.842534 
L 337.914615 97.931259 
L 338.855759 98.30175 
L 339.796904 98.915824 
L 341.490964 100.353098 
L 342.996795 101.508905 
L 343.937939 101.937967 
L 344.690855 102.047319 
L 345.44377 101.932131 
L 346.196686 101.606628 
L 347.13783 100.963413 
L 350.714179 98.191351 
L 351.655323 97.885435 
L 352.408238 97.853181 
L 353.161154 98.013824 
L 354.102298 98.464732 
L 355.231672 99.290024 
L 358.055105 101.565012 
L 358.996249 101.963712 
L 359.749165 102.045176 
L 360.50208 101.902366 
L 361.443224 101.437219 
L 362.572598 100.576613 
L 365.207802 98.445875 
L 366.148946 98.00282 
L 366.901862 97.850591 
L 367.654777 97.891167 
L 368.407693 98.121156 
L 369.348837 98.645909 
L 370.666439 99.692341 
L 372.736957 101.389888 
L 373.678101 101.876757 
L 374.431017 102.040987 
L 375.183932 101.981768 
L 375.936848 101.70575 
L 376.877992 101.107681 
L 378.572052 99.664989 
L 380.077883 98.501727 
L 381.019027 98.034033 
L 381.771943 97.858806 
L 382.524858 97.875971 
L 383.277774 98.083902 
L 384.218918 98.585578 
L 385.53652 99.610395 
L 387.795267 101.452038 
L 388.736411 101.909705 
L 389.489327 102.045982 
L 390.242242 101.95818 
L 390.995158 101.656666 
L 391.936302 101.034976 
L 394.00682 99.264617 
L 395.136193 98.443805 
L 396.077338 98.002257 
L 396.830253 97.850406 
L 397.583169 97.891692 
L 398.336084 98.122607 
L 399.277228 98.647347 
L 400.594831 99.693577 
L 402.665348 101.39212 
L 403.606493 101.878054 
L 404.359408 102.041241 
L 405.112324 101.981079 
L 405.865239 101.704597 
L 406.806383 101.105674 
L 408.500443 99.662645 
L 410.006274 98.498362 
L 410.947419 98.032324 
L 411.888563 97.8447 
L 412.641479 97.911828 
L 413.582623 98.257125 
L 414.523767 98.851412 
L 416.029598 100.111459 
L 417.723658 101.45306 
L 418.664803 101.910704 
L 419.417718 102.046089 
L 420.170634 101.957155 
L 420.923549 101.654545 
L 421.864693 101.032006 
L 425.629271 98.14553 
L 426.570415 97.870054 
L 427.323331 97.863429 
L 428.076246 98.048479 
L 429.017391 98.52517 
L 430.146764 99.371676 
L 432.781968 101.511676 
L 433.723113 101.939309 
L 434.476028 102.047292 
L 435.228944 101.930712 
L 435.981859 101.60358 
L 436.923003 100.95975 
L 440.499352 98.188724 
L 441.440496 97.884412 
L 442.193412 97.85368 
L 442.946327 98.01539 
L 443.887472 98.467003 
L 445.016845 99.294649 
L 447.840278 101.56672 
L 448.781423 101.964971 
L 449.534338 102.044958 
L 450.287254 101.900275 
L 451.040169 101.548302 
L 452.169542 100.72856 
L 454.992976 98.441672 
L 455.93412 98.00079 
L 456.687035 97.850152 
L 457.439951 97.892317 
L 458.381095 98.209139 
L 459.32224 98.78134 
L 460.828071 100.025794 
L 462.522131 101.392347 
L 463.463275 101.877634 
L 464.21619 102.041198 
L 464.969106 101.981132 
L 465.722021 101.704777 
L 466.663166 101.106129 
L 468.357226 99.665654 
L 469.863057 98.501706 
L 470.804201 98.034438 
L 471.557117 97.859031 
L 472.310032 97.875775 
L 473.062948 98.083477 
L 474.004092 98.583773 
L 475.133465 99.448913 
L 477.768669 101.566933 
L 478.709814 101.96447 
L 479.462729 102.045018 
L 480.215645 101.901148 
L 480.96856 101.550538 
L 482.097934 100.732483 
L 485.109596 98.335271 
L 486.05074 97.946596 
L 486.803655 97.842501 
L 487.556571 97.931907 
L 488.497715 98.303399 
L 489.627089 99.062436 
L 493.203437 101.803309 
L 493.956353 102.020798 
L 494.709268 102.017267 
L 495.462184 101.792775 
L 496.403328 101.243267 
L 497.72093 100.161425 
L 499.603219 98.622754 
L 500.544363 98.105863 
L 501.485508 97.858807 
L 502.238423 97.876217 
L 502.991339 98.0845 
L 503.932483 98.585856 
L 505.250085 99.611532 
L 507.508832 101.452078 
L 508.449976 101.909888 
L 509.202892 102.045995 
L 509.955807 101.957829 
L 510.708723 101.6561 
L 511.649867 101.034618 
L 515.414445 98.147537 
L 516.355589 97.870378 
L 517.108504 97.863193 
L 517.86142 98.047791 
L 518.802564 98.524161 
L 519.931938 99.370361 
L 522.567142 101.510752 
L 523.508286 101.938704 
L 524.261202 102.047312 
L 525.014117 101.931734 
L 525.767033 101.605455 
L 526.708177 100.961045 
L 530.284526 98.190142 
L 531.22567 97.884815 
L 531.978586 97.853536 
L 532.731501 98.014827 
L 533.672645 98.466063 
L 534.802019 99.291532 
L 537.813681 101.668568 
L 538.566596 101.963885 
L 539.319512 102.045133 
L 540.072427 101.902245 
L 541.013572 101.436116 
L 542.142945 100.573509 
L 544.778149 98.44308 
L 545.719293 98.001566 
L 546.472209 97.850312 
L 547.225124 97.89172 
L 547.97804 98.122059 
L 548.919184 98.647104 
L 550.236786 99.692876 
L 552.307304 101.388781 
L 553.248448 101.876297 
L 554.001364 102.040834 
L 554.754279 101.982458 
L 555.507195 101.707342 
L 556.448339 101.111528 
L 558.142399 99.671184 
L 559.64823 98.505346 
L 560.589375 98.036872 
L 561.530519 97.845246 
L 562.283434 97.908918 
L 563.224579 98.251105 
L 564.165723 98.843031 
L 565.671554 100.102216 
L 567.365614 101.448069 
L 568.306759 101.907253 
L 569.059674 102.045728 
L 569.81259 101.960087 
L 570.565505 101.660451 
L 571.506649 101.040215 
L 573.577167 99.270866 
L 574.894769 98.33962 
L 575.835914 97.948889 
L 576.588829 97.842615 
L 577.341745 97.929694 
L 578.282889 98.298794 
L 579.224033 98.911367 
L 580.918093 100.34897 
L 582.423924 101.506504 
L 583.365069 101.936961 
L 584.117984 102.047333 
L 584.8709 101.933294 
L 585.623815 101.608534 
L 586.564959 100.966147 
L 590.141308 98.192748 
L 591.082452 97.885747 
L 591.835368 97.853013 
L 592.588283 98.013224 
L 593.529428 98.463554 
L 594.658801 99.289281 
L 597.482234 101.563368 
L 598.423379 101.963103 
L 599.176294 102.045291 
L 599.92921 101.903627 
L 600.682125 101.55438 
L 601.811498 100.736356 
L 604.82316 98.337975 
L 605.764305 97.947812 
L 606.51722 97.842554 
L 607.270136 97.930808 
L 608.21128 98.300463 
L 609.340653 99.057898 
L 612.917002 101.80054 
L 613.669917 102.020076 
L 614.422833 102.018087 
L 615.175748 101.795622 
L 616.116893 101.249382 
L 617.434495 100.170696 
L 619.316784 98.628871 
L 620.257928 98.109662 
L 621.199072 97.85966 
L 621.951988 97.874898 
L 622.704903 98.08092 
L 623.646048 98.580078 
L 624.775421 99.443716 
L 627.410625 101.562185 
L 628.35177 101.962513 
L 629.104685 102.04535 
L 629.857601 101.904091 
L 630.610516 101.555359 
L 631.73989 100.738083 
L 634.751552 98.338731 
L 635.692696 97.94819 
L 636.445611 97.842564 
L 637.198527 97.930579 
L 638.139671 98.30073 
L 639.269045 99.059961 
L 642.845393 101.801658 
L 643.598309 102.020312 
L 644.351224 102.017906 
L 645.10414 101.794639 
L 646.045284 101.247768 
L 647.362886 100.168175 
L 649.245175 98.626561 
L 650.186319 98.108422 
L 651.127464 97.859299 
L 651.880379 97.875307 
L 652.633295 98.081696 
L 653.574439 98.58249 
L 654.703812 99.447169 
L 657.339017 101.564657 
L 658.280161 101.963395 
L 659.033076 102.045247 
L 659.785992 101.902941 
L 660.538907 101.552794 
L 661.668281 100.73489 
L 664.679943 98.336286 
L 665.621087 97.947072 
L 666.374003 97.84253 
L 667.126918 97.931277 
L 668.068062 98.302337 
L 669.197436 99.061418 
L 672.773784 101.802805 
L 673.5267 102.02052 
L 674.279615 102.017523 
L 675.032531 101.793576 
L 675.973675 101.246074 
L 677.291277 100.164243 
L 679.173566 98.622772 
L 680.11471 98.106264 
L 681.055855 97.858756 
L 681.80877 97.876077 
L 682.561686 98.084117 
L 683.50283 98.585533 
L 684.820432 99.613235 
L 687.079179 101.45323 
L 688.020323 101.910425 
L 688.773239 102.046066 
L 689.526154 101.957671 
L 690.27907 101.655719 
L 691.220214 101.034278 
L 693.290732 99.264373 
L 694.420105 98.443364 
L 695.361249 98.002421 
L 696.114165 97.850486 
L 696.86708 97.891343 
L 697.619996 98.121982 
L 698.56114 98.647292 
L 699.878742 99.692808 
L 701.94926 101.391153 
L 702.890404 101.877441 
L 703.64332 102.041097 
L 704.396235 101.981474 
L 705.149151 101.705911 
L 706.090295 101.108291 
L 707.784355 99.667776 
L 709.290186 98.50344 
L 710.231331 98.035241 
L 710.984246 97.859261 
L 711.737162 97.875433 
L 712.490077 98.08263 
L 713.431221 98.582266 
L 714.748824 99.60835 
L 717.00757 101.448883 
L 717.948714 101.908062 
L 718.70163 102.045805 
L 719.454545 101.959504 
L 720.207461 101.659501 
L 721.148605 101.040215 
L 723.030894 99.427934 
L 724.348496 98.447342 
L 725.289641 98.004415 
L 726.042556 97.850923 
L 726.795472 97.890479 
L 727.548387 98.11908 
L 728.489531 98.642733 
L 729.807134 99.687881 
L 731.877651 101.387566 
L 732.818796 101.87567 
L 733.571711 102.04085 
L 734.324627 101.982155 
L 735.077542 101.706972 
L 736.018686 101.110255 
L 737.712746 99.668186 
L 739.218577 98.503192 
L 740.159722 98.034802 
L 740.912637 97.859138 
L 741.665553 97.875623 
L 742.418468 98.083079 
L 743.359613 98.583526 
L 744.677215 99.610387 
L 746.935961 101.451702 
L 747.877106 101.909336 
L 748.630021 102.04593 
L 749.382937 101.958512 
L 750.135852 101.658166 
L 751.076997 101.038244 
L 753.147514 99.267386 
L 754.465116 98.337175 
L 755.406261 97.947527 
L 756.159176 97.84255 
L 756.912092 97.93085 
L 757.853236 98.300898 
L 758.982609 99.059398 
L 762.558958 101.801298 
L 763.311873 102.019978 
L 764.064789 102.018012 
L 764.817704 101.795379 
L 765.758849 101.248576 
L 767.076451 100.169014 
L 768.95874 98.628649 
L 769.899884 98.109691 
L 770.841028 97.859642 
L 771.593944 97.874976 
L 772.346859 98.081014 
L 773.288004 98.580535 
L 774.605606 99.606616 
L 776.864352 101.449498 
L 777.805497 101.908268 
L 778.558412 102.045794 
L 779.311328 101.959526 
L 780.064243 101.659931 
L 781.005388 101.038903 
L 783.075905 99.269899 
L 784.393507 98.338807 
L 785.334652 97.947987 
L 786.087567 97.842544 
L 786.840483 97.93116 
L 787.781627 98.302104 
L 788.911 99.059734 
L 792.487349 101.801929 
L 793.240265 102.020433 
L 793.99318 102.017594 
L 794.746096 101.794265 
L 795.68724 101.247108 
L 797.004842 100.16873 
L 798.887131 98.627647 
L 799.828275 98.109314 
L 800.76942 97.859595 
L 801.522335 97.875084 
L 802.275251 98.08161 
L 803.216395 98.580579 
L 804.345768 99.444316 
L 806.792744 101.447161 
L 807.733888 101.907467 
L 808.486804 102.045748 
L 809.239719 101.960061 
L 809.992635 101.660523 
L 810.933779 101.041426 
L 813.004297 99.272184 
L 814.321899 98.340257 
L 815.263043 97.949177 
L 816.015959 97.842612 
L 816.768874 97.929563 
L 817.710018 98.298286 
L 818.839392 99.056206 
L 822.41574 101.798941 
L 823.168656 102.019288 
L 823.921571 102.018667 
L 824.674487 101.797085 
L 825.615631 101.25092 
L 826.933233 100.17247 
L 828.815522 98.630095 
L 829.756666 98.110174 
L 830.697811 97.859891 
L 831.450726 97.874488 
L 832.203642 98.07986 
L 833.144786 98.57877 
L 834.462388 99.603895 
L 836.721135 101.445521 
L 837.662279 101.906449 
L 838.415195 102.045672 
L 839.16811 101.960838 
L 839.921026 101.662252 
L 840.86217 101.043901 
L 842.744459 99.432341 
L 844.062061 98.450874 
L 845.003205 98.00585 
L 845.756121 97.851246 
L 846.509036 97.889478 
L 847.261952 98.117815 
L 848.203096 98.640372 
L 849.520698 99.684235 
L 851.591216 101.385328 
L 852.53236 101.873826 
L 853.285276 102.040457 
L 854.038191 101.98319 
L 854.791107 101.709266 
L 855.732251 101.112848 
L 857.426311 99.672931 
L 858.932142 98.507041 
L 859.873287 98.037116 
L 860.626202 97.859834 
L 861.379118 97.874718 
L 862.132033 98.08069 
L 863.073177 98.579753 
L 864.202551 99.443405 
L 866.837755 101.560331 
L 867.778899 101.961781 
L 868.531815 102.045497 
L 869.28473 101.905142 
L 870.037646 101.557694 
L 871.167019 100.741193 
L 874.178681 98.339909 
L 875.119825 97.948623 
L 875.872741 97.84259 
L 876.625656 97.930177 
L 877.566801 98.299257 
L 878.696174 99.057015 
L 882.272523 101.800291 
L 883.025438 102.019809 
L 883.778354 102.018578 
L 884.531269 101.796212 
L 885.472414 101.249755 
L 886.790016 100.171164 
L 888.672304 98.629463 
L 889.613449 98.110347 
L 890.554593 97.859776 
L 891.307509 97.874798 
L 892.060424 98.080913 
L 893.001569 98.58064 
L 894.130942 99.444836 
L 896.577917 101.449349 
L 897.519062 101.908443 
L 898.271977 102.045835 
L 899.024893 101.959693 
L 899.777808 101.659061 
L 900.718952 101.038884 
L 902.78947 99.268924 
L 904.107072 98.338013 
L 905.048217 97.947827 
L 905.801132 97.84255 
L 906.554048 97.930979 
L 907.495192 98.301812 
L 908.436336 98.914658 
L 910.130396 100.351946 
L 911.636227 101.509176 
L 912.577372 101.938176 
L 913.330287 102.047321 
L 914.083203 101.932318 
L 914.836118 101.606329 
L 915.777262 100.964507 
L 919.353611 98.192793 
L 920.294756 97.88586 
L 921.047671 97.852961 
L 921.800587 98.012906 
L 922.741731 98.461871 
L 923.871104 99.286802 
L 926.694537 101.56352 
L 927.635682 101.963316 
L 928.388597 102.045289 
L 929.141513 101.903057 
L 930.082657 101.438343 
L 931.21203 100.577336 
L 933.847235 98.447032 
L 934.788379 98.004267 
L 935.541294 97.850937 
L 936.29421 97.890396 
L 937.047125 98.119406 
L 937.98827 98.643419 
L 939.305872 99.688932 
L 941.37639 101.389164 
L 942.317534 101.876453 
L 943.070449 102.040841 
L 943.823365 101.982065 
L 944.57628 101.706752 
L 945.517425 101.109113 
L 947.211485 99.667806 
L 948.717316 98.503292 
L 949.65846 98.035359 
L 950.599604 97.84503 
L 951.35252 97.90968 
L 952.293664 98.252562 
L 953.234809 98.84475 
L 954.74064 100.1036 
L 956.246471 101.324812 
L 957.187615 101.840444 
L 957.940531 102.032327 
L 958.693446 102.001692 
L 959.446362 101.752088 
L 960.387506 101.178934 
L 961.893337 99.917513 
L 963.587397 98.563138 
L 964.528541 98.070182 
L 965.469686 97.850597 
L 966.222601 97.891224 
L 966.975517 98.121292 
L 967.916661 98.645839 
L 969.234263 99.691778 
L 970.363636 100.675318 
L 970.363636 100.675318 
" style="fill:none;stroke:#808080;stroke-linecap:square;stroke-width:4;"/>
   </g>
   <g id="line2d_3">
    <path clip-path="url(#paa31b1de05)" d="M 217.636364 48.990238 
L 227.424265 48.659043 
L 237.588624 48.529476 
L 248.129441 48.610605 
L 258.670258 48.918398 
L 268.45816 49.430379 
L 277.304917 50.096516 
L 289.163336 51.23582 
L 302.151129 52.417345 
L 307.986224 52.691271 
L 313.256632 52.71545 
L 318.71527 52.510667 
L 325.30328 52.011944 
L 336.973471 50.84866 
L 348.267203 49.82432 
L 358.243334 49.169114 
L 368.219464 48.75215 
L 378.572052 48.548798 
L 389.301098 48.563536 
L 399.653686 48.795306 
L 409.441588 49.231151 
L 419.04126 49.885204 
L 428.452704 50.733113 
L 447.840278 52.506483 
L 453.298916 52.714379 
L 458.569324 52.691678 
L 464.21619 52.431655 
L 470.804201 51.896264 
L 499.41499 49.34323 
L 508.826434 48.877567 
L 518.990793 48.599018 
L 529.53161 48.531691 
L 540.072427 48.683723 
L 550.236786 49.050211 
L 559.836459 49.614991 
L 569.436132 50.405527 
L 594.282343 52.607918 
L 599.740981 52.732435 
L 605.011389 52.627466 
L 610.658255 52.292539 
L 618.18741 51.613289 
L 637.763214 49.765859 
L 648.304031 49.102408 
L 657.903703 48.725237 
L 668.632749 48.539121 
L 679.173566 48.577516 
L 689.526154 48.832986 
L 698.937598 49.269529 
L 708.160813 49.907276 
L 718.889859 50.887416 
L 734.512855 52.362718 
L 740.347951 52.669077 
L 745.806588 52.723581 
L 751.265225 52.542456 
L 757.665007 52.082587 
L 766.699993 51.200271 
L 780.817159 49.870953 
L 789.852145 49.253227 
L 799.451817 48.814778 
L 809.616177 48.573485 
L 820.156994 48.540674 
L 830.697811 48.725687 
L 840.297483 49.099712 
L 849.332469 49.652951 
L 859.685058 50.529459 
L 880.013776 52.432832 
L 885.660642 52.692905 
L 890.931051 52.71391 
L 896.201459 52.516315 
L 902.601241 52.041357 
L 913.518516 50.956289 
L 926.129851 49.806674 
L 935.917752 49.167113 
L 945.893883 48.750381 
L 955.305326 48.558102 
L 965.846143 48.551305 
L 970.363636 48.614597 
L 970.363636 48.614597 
" style="fill:none;stroke:#808080;stroke-linecap:square;stroke-width:4;"/>
   </g>
   <g id="line2d_4">
    <path clip-path="url(#paa31b1de05)" d="M 217.636364 242.116364 
L 217.824593 44.590762 
L 218.012821 44.714445 
L 218.389279 45.316356 
L 218.765737 45.087197 
L 219.330424 44.530566 
L 219.89511 44.667809 
L 220.271568 44.570242 
L 220.836255 44.639681 
L 221.58917 44.538007 
L 222.153857 44.575186 
L 222.530314 44.526843 
L 227.236036 44.638797 
L 227.988952 44.699841 
L 233.071131 44.769755 
L 234.012276 44.704282 
L 239.659142 44.526369 
L 241.541431 44.523504 
L 247.564755 44.519868 
L 251.894019 44.521794 
L 255.846825 44.495906 
L 272.222738 44.49299 
L 278.43429 44.514173 
L 289.163336 44.518439 
L 294.810203 44.512327 
L 307.421537 44.501768 
L 312.880175 44.522533 
L 399.277228 44.516434 
L 564.542181 44.52113 
L 636.257383 44.512807 
L 795.68724 44.514436 
L 875.308054 44.515406 
L 970.175407 44.519059 
L 970.175407 44.519059 
" style="fill:none;stroke:#000000;stroke-linecap:square;stroke-width:1.5;"/>
   </g>
   <g id="line2d_5">
    <path clip-path="url(#paa31b1de05)" d="M 217.636364 242.116364 
L 217.824593 98.079734 
L 218.012821 98.160837 
L 218.389279 99.057027 
L 218.577508 99.111767 
L 218.765737 98.841139 
L 218.953966 98.826452 
L 219.142195 98.667823 
L 219.330424 98.775353 
L 219.518652 98.67912 
L 220.083339 98.937905 
L 220.836255 99.579576 
L 222.718543 101.185791 
L 223.847917 101.748562 
L 224.600832 101.977488 
L 224.97729 102.067602 
L 225.918434 101.944813 
L 226.67135 101.567637 
L 230.624156 98.376787 
L 231.377072 98.013922 
L 232.506445 97.816463 
L 233.25936 97.916834 
L 234.012276 98.217135 
L 235.141649 98.997895 
L 238.906227 101.847549 
L 239.847371 102.044543 
L 240.600286 101.962317 
L 241.353202 101.658597 
L 242.482575 100.894343 
L 245.494237 98.437504 
L 246.435382 98.002813 
L 247.376526 97.846097 
L 248.129441 97.918385 
L 248.882357 98.194505 
L 249.823501 98.765183 
L 251.517561 100.176433 
L 253.023392 101.411962 
L 253.964537 101.903985 
L 254.717452 102.078021 
L 255.470368 102.01071 
L 256.223283 101.735003 
L 257.164427 101.127215 
L 258.858487 99.651106 
L 260.364318 98.477921 
L 261.305463 98.010185 
L 262.246607 97.819565 
L 262.999523 97.887912 
L 263.940667 98.240456 
L 265.07004 98.990447 
L 268.646389 101.788968 
L 269.399304 102.026183 
L 270.15222 102.045825 
L 270.905135 101.844128 
L 271.658051 101.454599 
L 272.787424 100.588549 
L 275.2344 98.556915 
L 276.175544 98.054402 
L 277.116688 97.826914 
L 277.869604 97.863423 
L 278.622519 98.097373 
L 279.563664 98.631341 
L 280.693037 99.523714 
L 283.140012 101.536259 
L 284.081157 101.963719 
L 284.834072 102.074746 
L 285.586988 101.960912 
L 286.339903 101.638616 
L 287.281048 100.983278 
L 290.857396 98.18118 
L 291.798541 97.867135 
L 292.551456 97.835493 
L 293.304372 98.003735 
L 294.245516 98.454952 
L 295.374889 99.283899 
L 298.57478 101.772367 
L 299.327696 102.018773 
L 300.080611 102.046132 
L 300.833527 101.849485 
L 301.774671 101.324218 
L 303.092273 100.248797 
L 304.974562 98.680119 
L 305.915706 98.139212 
L 306.668622 97.895247 
L 307.421537 97.841163 
L 308.362682 98.043383 
L 309.303826 98.520821 
L 310.433199 99.371007 
L 313.256632 101.624907 
L 314.197777 101.992242 
L 314.950692 102.04511 
L 315.703608 101.873014 
L 316.644752 101.380182 
L 317.774125 100.494183 
L 320.032872 98.620831 
L 320.974016 98.102303 
L 321.915161 97.855006 
L 322.668076 97.875464 
L 323.420992 98.079402 
L 324.362136 98.583369 
L 325.491509 99.450992 
L 327.938485 101.456977 
L 328.879629 101.91811 
L 329.632544 102.053377 
L 330.38546 101.968723 
L 331.138376 101.664956 
L 332.07952 101.03904 
L 333.961809 99.417525 
L 335.279411 98.436806 
L 336.220555 97.993441 
L 336.973471 97.841584 
L 337.726386 97.884646 
L 338.479302 98.118224 
L 339.420446 98.64523 
L 340.738048 99.698645 
L 342.808566 101.401205 
L 343.74971 101.887905 
L 344.502626 102.05291 
L 345.255541 101.991363 
L 346.008457 101.711892 
L 346.949601 101.110973 
L 348.643661 99.664403 
L 350.149492 98.496346 
L 351.090636 98.028572 
L 351.843552 97.852916 
L 352.596467 97.871152 
L 353.349383 98.082233 
L 354.290527 98.585662 
L 355.4199 99.451933 
L 358.055105 101.573095 
L 358.996249 101.970548 
L 359.749165 102.051975 
L 360.50208 101.907234 
L 361.443224 101.439759 
L 362.572598 100.575382 
L 365.207802 98.441349 
L 366.148946 98.000856 
L 366.901862 97.848996 
L 367.654777 97.890667 
L 368.407693 98.12182 
L 369.348837 98.647789 
L 370.666439 99.698316 
L 372.736957 101.395564 
L 373.678101 101.882948 
L 374.431017 102.045466 
L 375.183932 101.985311 
L 375.936848 101.708338 
L 376.877992 101.108916 
L 378.572052 99.664251 
L 380.077883 98.499464 
L 381.019027 98.032249 
L 381.960172 97.843893 
L 382.713087 97.90924 
L 383.654232 98.255463 
L 384.595376 98.850147 
L 386.101207 100.108965 
L 387.795267 101.45841 
L 388.736411 101.916334 
L 389.489327 102.052532 
L 390.242242 101.963845 
L 390.995158 101.660994 
L 391.936302 101.038074 
L 395.70088 98.144807 
L 396.642024 97.867871 
L 397.39494 97.861206 
L 398.147855 98.047602 
L 399.089 98.524964 
L 400.218373 99.374076 
L 402.853577 101.5189 
L 403.794721 101.946459 
L 404.547637 102.05364 
L 405.300552 101.936619 
L 406.053468 101.608005 
L 406.994612 100.962399 
L 410.570961 98.188444 
L 411.512105 97.884318 
L 412.265021 97.85453 
L 413.017936 98.018301 
L 413.959081 98.47022 
L 415.088454 99.299706 
L 417.911887 101.570286 
L 418.853031 101.969338 
L 419.605947 102.050705 
L 420.358862 101.905794 
L 421.111778 101.55477 
L 422.241151 100.733095 
L 425.064584 98.442887 
L 426.005729 98.002706 
L 426.758644 97.85145 
L 427.51156 97.89269 
L 428.452704 98.209814 
L 429.393848 98.782664 
L 430.899679 100.029969 
L 432.593739 101.396338 
L 433.534884 101.881586 
L 434.287799 102.045019 
L 435.040715 101.984485 
L 435.79363 101.706146 
L 436.734775 101.106931 
L 438.428834 99.664073 
L 439.934665 98.500044 
L 440.87581 98.03324 
L 441.628725 97.859501 
L 442.381641 97.876689 
L 443.134556 98.08676 
L 444.075701 98.589633 
L 445.393303 99.618312 
L 447.652049 101.45549 
L 448.593194 101.91548 
L 449.346109 102.050767 
L 450.099025 101.961618 
L 450.85194 101.658209 
L 451.793085 101.034567 
L 455.557662 98.142611 
L 456.498807 97.867624 
L 457.251722 97.862568 
L 458.004638 98.04771 
L 458.945782 98.525916 
L 460.075155 99.374335 
L 462.898588 101.625473 
L 463.839733 101.994207 
L 464.592648 102.046785 
L 465.345564 101.874564 
L 466.286708 101.379135 
L 467.416081 100.494697 
L 469.863057 98.498554 
L 470.804201 98.030305 
L 471.745345 97.840553 
L 472.498261 97.906746 
L 473.439405 98.251897 
L 474.38055 98.846627 
L 475.886381 100.110343 
L 477.392212 101.336854 
L 478.333356 101.850487 
L 479.086272 102.039722 
L 479.839187 102.006824 
L 480.592103 101.754628 
L 481.533247 101.178546 
L 483.039078 99.912919 
L 484.733138 98.5583 
L 485.674282 98.065453 
L 486.615427 97.84753 
L 487.368342 97.889108 
L 488.121258 98.121009 
L 489.062402 98.646861 
L 490.380004 99.694193 
L 492.450522 101.395504 
L 493.391666 101.884586 
L 494.144582 102.047783 
L 494.897497 101.987784 
L 495.650413 101.709875 
L 496.591557 101.108895 
L 498.285617 99.6644 
L 499.791448 98.49838 
L 500.732592 98.030537 
L 501.485508 97.855043 
L 502.238423 97.872541 
L 502.991339 98.080953 
L 503.932483 98.583727 
L 505.061856 99.448486 
L 507.508832 101.457033 
L 508.449976 101.916204 
L 509.202892 102.052474 
L 509.955807 101.964409 
L 510.708723 101.661962 
L 511.649867 101.039228 
L 513.720385 99.264826 
L 515.037987 98.332753 
L 515.979131 97.94306 
L 516.732047 97.838681 
L 517.484962 97.928951 
L 518.426107 98.301203 
L 519.55548 99.061843 
L 523.131828 101.808823 
L 523.884744 102.026125 
L 524.637659 102.022674 
L 525.390575 101.797142 
L 526.331719 101.247446 
L 527.649321 100.164382 
L 529.53161 98.621389 
L 530.472755 98.103967 
L 531.413899 97.855983 
L 532.166814 97.87393 
L 532.91973 98.082958 
L 533.860874 98.5845 
L 535.178476 99.610666 
L 537.437223 101.454148 
L 538.378367 101.912656 
L 539.131283 102.04975 
L 539.884198 101.961516 
L 540.637114 101.65942 
L 541.578258 101.036844 
L 543.648776 99.263534 
L 544.966378 98.332852 
L 545.907522 97.944048 
L 546.660438 97.839859 
L 547.413353 97.929317 
L 548.354498 98.300768 
L 549.295642 98.916981 
L 550.989702 100.355217 
L 552.307304 101.391202 
L 553.248448 101.879903 
L 554.001364 102.044064 
L 554.754279 101.985128 
L 555.507195 101.709732 
L 556.448339 101.112817 
L 558.142399 99.670733 
L 559.64823 98.504416 
L 560.589375 98.035578 
L 561.34229 97.858543 
L 562.095206 97.874214 
L 562.848121 98.081024 
L 563.789265 98.581138 
L 564.918639 99.446125 
L 567.553843 101.564384 
L 568.494987 101.963935 
L 569.247903 102.046482 
L 570.000818 101.904947 
L 570.753734 101.555877 
L 571.883107 100.737926 
L 574.894769 98.337796 
L 575.835914 97.947639 
L 576.588829 97.841707 
L 577.341745 97.929474 
L 578.282889 98.299969 
L 579.224033 98.913314 
L 580.918093 100.353366 
L 582.423924 101.510746 
L 583.365069 101.940589 
L 584.117984 102.049722 
L 584.8709 101.93451 
L 585.623815 101.608545 
L 586.564959 100.964521 
L 590.141308 98.189926 
L 591.082452 97.883799 
L 591.835368 97.851214 
L 592.588283 98.013051 
L 593.529428 98.465616 
L 594.658801 99.293066 
L 597.482234 101.567604 
L 598.423379 101.966748 
L 599.176294 102.048128 
L 599.92921 101.905031 
L 600.870354 101.439353 
L 601.999727 100.576783 
L 604.634931 98.444046 
L 605.576076 98.001054 
L 606.328991 97.848587 
L 607.081907 97.889021 
L 607.834822 98.119582 
L 608.775967 98.643349 
L 610.093569 99.689835 
L 612.164086 101.390952 
L 613.105231 101.880138 
L 613.858146 102.046145 
L 614.611062 101.987806 
L 615.363977 101.711932 
L 616.305122 101.11414 
L 617.999182 99.670327 
L 619.505013 98.502387 
L 620.446157 98.032797 
L 621.387301 97.841393 
L 622.140217 97.905356 
L 623.081361 98.247687 
L 624.022506 98.840699 
L 625.528337 100.102916 
L 627.222397 101.452611 
L 628.163541 101.913558 
L 628.916456 102.051846 
L 629.669372 101.965578 
L 630.422287 101.664404 
L 631.363432 101.04259 
L 633.433949 99.268235 
L 634.751552 98.33546 
L 635.692696 97.94422 
L 636.445611 97.838896 
L 637.198527 97.926843 
L 638.139671 98.298434 
L 639.269045 99.059774 
L 642.845393 101.807125 
L 643.598309 102.025602 
L 644.351224 102.02269 
L 645.10414 101.798399 
L 646.045284 101.250001 
L 647.362886 100.168147 
L 649.245175 98.624263 
L 650.186319 98.105872 
L 651.127464 97.857083 
L 651.880379 97.873238 
L 652.633295 98.079708 
L 653.574439 98.582004 
L 654.703812 99.448278 
L 657.339017 101.569193 
L 658.280161 101.967684 
L 659.033076 102.049559 
L 659.785992 101.90675 
L 660.538907 101.556078 
L 661.668281 100.736547 
L 664.679943 98.334509 
L 665.621087 97.945089 
L 666.374003 97.840655 
L 667.126918 97.929642 
L 668.068062 98.301743 
L 669.197436 99.062027 
L 672.773784 101.806483 
L 673.5267 102.024291 
L 674.279615 102.021084 
L 675.032531 101.796628 
L 675.973675 101.248549 
L 677.291277 100.165459 
L 679.173566 98.622553 
L 680.11471 98.105689 
L 681.055855 97.857909 
L 681.80877 97.875104 
L 682.561686 98.083705 
L 683.50283 98.585636 
L 684.820432 99.614972 
L 687.079179 101.456414 
L 688.020323 101.913535 
L 688.773239 102.049108 
L 689.526154 101.960318 
L 690.27907 101.657777 
L 691.220214 101.035853 
L 694.984792 98.147262 
L 695.925936 97.870033 
L 696.678852 97.86256 
L 697.431767 98.047606 
L 698.372911 98.524437 
L 699.502285 99.372141 
L 702.137489 101.512754 
L 703.078633 101.940935 
L 703.831549 102.048784 
L 704.584464 101.932467 
L 705.33738 101.606507 
L 706.278524 100.962627 
L 709.854873 98.191939 
L 710.796017 97.886423 
L 711.548933 97.85469 
L 712.301848 98.015533 
L 713.242993 98.466387 
L 714.372366 99.292092 
L 717.195799 101.564946 
L 718.136943 101.964234 
L 718.889859 102.045662 
L 719.642774 101.903161 
L 720.583919 101.438294 
L 721.713292 100.577604 
L 724.348496 98.446393 
L 725.289641 98.004624 
L 726.042556 97.852225 
L 726.795472 97.892999 
L 727.548387 98.121681 
L 728.489531 98.646823 
L 729.807134 99.693113 
L 731.877651 101.392226 
L 732.818796 101.878945 
L 733.571711 102.04289 
L 734.324627 101.982607 
L 735.077542 101.705778 
L 736.018686 101.107562 
L 737.712746 99.664117 
L 739.218577 98.500002 
L 740.159722 98.033266 
L 740.912637 97.858772 
L 741.665553 97.876709 
L 742.418468 98.085814 
L 743.359613 98.588088 
L 744.677215 99.616663 
L 746.935961 101.458315 
L 747.877106 101.914246 
L 748.630021 102.049534 
L 749.382937 101.960797 
L 750.135852 101.65793 
L 751.076997 101.035192 
L 753.147514 99.262312 
L 754.465116 98.332728 
L 755.406261 97.944334 
L 756.159176 97.841062 
L 756.912092 97.931051 
L 757.853236 98.303311 
L 758.982609 99.064526 
L 762.558958 101.808021 
L 763.311873 102.025278 
L 764.064789 102.022014 
L 764.817704 101.797372 
L 765.758849 101.248306 
L 767.076451 100.165751 
L 768.95874 98.623873 
L 769.899884 98.105382 
L 770.841028 97.856351 
L 771.593944 97.873193 
L 772.346859 98.080868 
L 773.288004 98.582477 
L 774.605606 99.61114 
L 776.864352 101.456126 
L 777.805497 101.914427 
L 778.558412 102.05071 
L 779.311328 101.96323 
L 780.064243 101.661623 
L 781.005388 101.039151 
L 783.075905 99.267111 
L 784.393507 98.335821 
L 785.334652 97.945673 
L 786.087567 97.841212 
L 786.840483 97.930746 
L 787.781627 98.302942 
L 788.911 99.061799 
L 792.487349 101.806083 
L 793.240265 102.02449 
L 793.99318 102.021102 
L 794.746096 101.796494 
L 795.68724 101.248169 
L 797.004842 100.168337 
L 798.887131 98.626855 
L 799.828275 98.108532 
L 800.76942 97.859247 
L 801.522335 97.875406 
L 802.275251 98.082542 
L 803.216395 98.582193 
L 804.345768 99.446723 
L 806.792744 101.450292 
L 807.733888 101.910456 
L 808.486804 102.04839 
L 809.239719 101.962037 
L 809.992635 101.661825 
L 810.933779 101.041962 
L 813.004297 99.271469 
L 814.321899 98.339925 
L 815.263043 97.949299 
L 816.015959 97.843307 
L 816.768874 97.930983 
L 817.710018 98.300202 
L 818.839392 99.059158 
L 822.41574 101.800687 
L 823.168656 102.020523 
L 823.921571 102.019625 
L 824.674487 101.797574 
L 825.615631 101.250865 
L 826.933233 100.171781 
L 828.815522 98.630253 
L 829.756666 98.111388 
L 830.697811 97.861607 
L 831.450726 97.876701 
L 832.203642 98.082357 
L 833.144786 98.581993 
L 834.462388 99.607302 
L 836.721135 101.446989 
L 837.662279 101.907084 
L 838.415195 102.045838 
L 839.16811 101.959906 
L 839.921026 101.660846 
L 840.86217 101.042349 
L 842.932688 99.274065 
L 844.25029 98.343116 
L 845.191434 97.952072 
L 845.94435 97.8459 
L 846.697265 97.933227 
L 847.63841 98.302442 
L 848.767783 99.058834 
L 852.344131 101.799153 
L 853.097047 102.018316 
L 853.849962 102.01655 
L 854.602878 101.793997 
L 855.544022 101.247858 
L 856.861624 100.168955 
L 858.743913 98.630489 
L 859.685058 98.112615 
L 860.626202 97.863513 
L 861.379118 97.879645 
L 862.132033 98.086166 
L 863.073177 98.585477 
L 864.202551 99.448512 
L 866.649526 101.446692 
L 867.59067 101.905722 
L 868.343586 102.043414 
L 869.096501 101.957773 
L 869.849417 101.658414 
L 870.790561 101.039565 
L 872.67285 99.428546 
L 873.990452 98.44976 
L 874.931597 98.007155 
L 875.684512 97.854549 
L 876.437428 97.894877 
L 877.190343 98.125241 
L 878.131487 98.648266 
L 879.44909 99.692459 
L 881.519607 101.389287 
L 882.460752 101.875603 
L 883.213667 102.039748 
L 883.966583 101.980608 
L 884.719498 101.705072 
L 885.660642 101.108124 
L 887.354702 99.668927 
L 888.860533 98.505042 
L 889.801678 98.037345 
L 890.554593 97.861395 
L 891.307509 97.877824 
L 892.060424 98.085515 
L 893.001569 98.586457 
L 894.130942 99.451583 
L 896.577917 101.453903 
L 897.519062 101.911093 
L 898.271977 102.046652 
L 899.024893 101.958359 
L 899.777808 101.656464 
L 900.718952 101.035112 
L 904.48353 98.147882 
L 905.424674 97.870979 
L 906.17759 97.863871 
L 906.930505 98.049375 
L 907.87165 98.525942 
L 909.001023 99.372265 
L 911.636227 101.514414 
L 912.577372 101.941983 
L 913.330287 102.049463 
L 914.083203 101.93265 
L 914.836118 101.605741 
L 915.777262 100.962184 
L 919.353611 98.190181 
L 920.294756 97.88447 
L 921.047671 97.85269 
L 921.800587 98.014218 
L 922.741731 98.464476 
L 923.871104 99.290722 
L 926.694537 101.568718 
L 927.635682 101.96777 
L 928.388597 102.04843 
L 929.141513 101.905048 
L 929.894428 101.554173 
L 931.023801 100.735083 
L 934.035463 98.335503 
L 934.976608 97.945987 
L 935.729523 97.841104 
L 936.482439 97.93019 
L 937.423583 98.301475 
L 938.364728 98.916844 
L 940.058787 100.355735 
L 941.37639 101.39371 
L 942.317534 101.880815 
L 943.070449 102.044206 
L 943.823365 101.984634 
L 944.57628 101.708257 
L 945.517425 101.109728 
L 947.211485 99.666817 
L 948.717316 98.501934 
L 949.65846 98.033999 
L 950.411376 97.858626 
L 951.164291 97.875273 
L 951.917207 98.082453 
L 952.858351 98.583191 
L 953.987724 99.44906 
L 956.622928 101.56634 
L 957.564073 101.966429 
L 958.316988 102.047973 
L 959.069904 101.905463 
L 959.822819 101.555329 
L 960.952193 100.735647 
L 963.963855 98.33611 
L 964.904999 97.946818 
L 965.657914 97.842488 
L 966.41083 97.931942 
L 967.351974 98.303321 
L 968.293119 98.917807 
L 969.987179 100.355403 
L 970.175407 100.51808 
L 970.175407 100.51808 
" style="fill:none;stroke:#000000;stroke-linecap:square;stroke-width:1.5;"/>
   </g>
   <g id="line2d_6">
    <path clip-path="url(#paa31b1de05)" d="M 217.636364 242.116364 
L 217.824593 49.0861 
L 218.012821 49.487496 
L 218.577508 49.576468 
L 219.142195 49.386534 
L 219.518652 48.988678 
L 220.271568 48.979388 
L 222.530314 48.819193 
L 223.095001 48.806993 
L 223.659688 48.725804 
L 229.118325 48.886419 
L 229.871241 48.887151 
L 231.5653 48.797972 
L 232.318216 48.807244 
L 233.071131 48.771787 
L 234.576962 48.717677 
L 235.329878 48.673527 
L 237.965082 48.603512 
L 244.553093 48.609899 
L 248.31767 48.651801 
L 259.423174 48.959415 
L 262.246607 49.078412 
L 273.163882 49.764697 
L 288.222192 51.125554 
L 299.327696 52.201819 
L 304.221646 52.541602 
L 310.621428 52.732599 
L 316.268294 52.624273 
L 324.362136 52.097576 
L 332.644207 51.294448 
L 350.337721 49.672545 
L 359.372707 49.117027 
L 368.595922 48.750576 
L 379.136739 48.549674 
L 389.865785 48.578055 
L 400.783059 48.841231 
L 412.45325 49.411715 
L 423.182296 50.237036 
L 430.899679 50.976707 
L 444.26393 52.255976 
L 450.099025 52.618106 
L 455.557662 52.732837 
L 461.0163 52.604507 
L 467.227852 52.212646 
L 476.07461 51.375554 
L 491.321148 49.925191 
L 499.603219 49.335907 
L 509.014663 48.875181 
L 519.367251 48.598906 
L 530.284526 48.539543 
L 541.578258 48.730657 
L 553.06022 49.196182 
L 562.848121 49.839299 
L 572.071336 50.658294 
L 592.776512 52.533953 
L 598.23515 52.717826 
L 603.317329 52.682247 
L 609.152424 52.402058 
L 616.116893 51.815508 
L 640.586647 49.565295 
L 650.374548 49.00319 
L 660.350679 48.665523 
L 670.515038 48.533637 
L 682.185228 48.630018 
L 692.161359 48.938492 
L 702.325718 49.480975 
L 712.301848 50.257954 
L 726.419014 51.649128 
L 734.512855 52.360094 
L 740.159722 52.663012 
L 745.43013 52.723743 
L 750.888768 52.559786 
L 756.912092 52.14817 
L 766.888222 51.179321 
L 780.440701 49.902045 
L 788.911 49.312461 
L 798.322444 48.857959 
L 808.110346 48.599409 
L 819.027621 48.536336 
L 829.568438 48.695869 
L 839.16811 49.046716 
L 848.014867 49.559968 
L 856.673396 50.251496 
L 870.225875 51.582735 
L 878.884403 52.35263 
L 884.719498 52.664201 
L 889.989907 52.725463 
L 895.448544 52.556174 
L 901.471868 52.138973 
L 911.259769 51.188657 
L 925.376935 49.867291 
L 934.976608 49.220565 
L 944.764509 48.789364 
L 955.493555 48.557627 
L 966.599059 48.560723 
L 970.175407 48.611809 
L 970.175407 48.611809 
" style="fill:none;stroke:#000000;stroke-linecap:square;stroke-width:1.5;"/>
   </g>
   <g id="matplotlib.axis_1">
    <g id="xtick_1">
     <g id="line2d_7">
      <path clip-path="url(#paa31b1de05)" d="M 217.636364 252 
L 217.636364 34.56 
" style="fill:none;stroke:#b0b0b0;stroke-linecap:square;stroke-width:0.8;"/>
     </g>
     <g id="line2d_8">
      <defs>
       <path d="M 0 0 
L 0 3.5 
" id="m9418061703" style="stroke:#000000;stroke-width:0.8;"/>
      </defs>
      <g>
       <use style="stroke:#000000;stroke-width:0.8;" x="217.636364" xlink:href="#m9418061703" y="252"/>
      </g>
     </g>
     <g id="text_1">
      <!-- 0 -->
      <defs>
       <path d="M 4.15625 35.296875 
Q 4.15625 48 6.765625 55.734375 
Q 9.375 63.484375 14.515625 67.671875 
Q 19.671875 71.875 27.484375 71.875 
Q 33.25 71.875 37.59375 69.546875 
Q 41.9375 67.234375 44.765625 62.859375 
Q 47.609375 58.5 49.21875 52.21875 
Q 50.828125 45.953125 50.828125 35.296875 
Q 50.828125 22.703125 48.234375 14.96875 
Q 45.65625 7.234375 40.5 3 
Q 35.359375 -1.21875 27.484375 -1.21875 
Q 17.140625 -1.21875 11.234375 6.203125 
Q 4.15625 15.140625 4.15625 35.296875 
z
M 13.1875 35.296875 
Q 13.1875 17.671875 17.3125 11.828125 
Q 21.4375 6 27.484375 6 
Q 33.546875 6 37.671875 11.859375 
Q 41.796875 17.71875 41.796875 35.296875 
Q 41.796875 52.984375 37.671875 58.78125 
Q 33.546875 64.59375 27.390625 64.59375 
Q 21.34375 64.59375 17.71875 59.46875 
Q 13.1875 52.9375 13.1875 35.296875 
z
" id="ArialMT-48"/>
      </defs>
      <g transform="translate(210.407145 277.610313)scale(0.26 -0.26)">
       <use xlink:href="#ArialMT-48"/>
      </g>
     </g>
    </g>
    <g id="xtick_2">
     <g id="line2d_9">
      <path clip-path="url(#paa31b1de05)" d="M 594.094114 252 
L 594.094114 34.56 
" style="fill:none;stroke:#b0b0b0;stroke-linecap:square;stroke-width:0.8;"/>
     </g>
     <g id="line2d_10">
      <g>
       <use style="stroke:#000000;stroke-width:0.8;" x="594.094114" xlink:href="#m9418061703" y="252"/>
      </g>
     </g>
     <g id="text_2">
      <!-- 2000 -->
      <defs>
       <path d="M 50.34375 8.453125 
L 50.34375 0 
L 3.03125 0 
Q 2.9375 3.171875 4.046875 6.109375 
Q 5.859375 10.9375 9.828125 15.625 
Q 13.8125 20.3125 21.34375 26.46875 
Q 33.015625 36.03125 37.109375 41.625 
Q 41.21875 47.21875 41.21875 52.203125 
Q 41.21875 57.421875 37.46875 61 
Q 33.734375 64.59375 27.734375 64.59375 
Q 21.390625 64.59375 17.578125 60.78125 
Q 13.765625 56.984375 13.71875 50.25 
L 4.6875 51.171875 
Q 5.609375 61.28125 11.65625 66.578125 
Q 17.71875 71.875 27.9375 71.875 
Q 38.234375 71.875 44.234375 66.15625 
Q 50.25 60.453125 50.25 52 
Q 50.25 47.703125 48.484375 43.546875 
Q 46.734375 39.40625 42.65625 34.8125 
Q 38.578125 30.21875 29.109375 22.21875 
Q 21.1875 15.578125 18.9375 13.203125 
Q 16.703125 10.84375 15.234375 8.453125 
z
" id="ArialMT-50"/>
      </defs>
      <g transform="translate(565.177239 277.610313)scale(0.26 -0.26)">
       <use xlink:href="#ArialMT-50"/>
       <use x="55.615234" xlink:href="#ArialMT-48"/>
       <use x="111.230469" xlink:href="#ArialMT-48"/>
       <use x="166.845703" xlink:href="#ArialMT-48"/>
      </g>
     </g>
    </g>
    <g id="xtick_3">
     <g id="line2d_11">
      <path clip-path="url(#paa31b1de05)" d="M 970.551865 252 
L 970.551865 34.56 
" style="fill:none;stroke:#b0b0b0;stroke-linecap:square;stroke-width:0.8;"/>
     </g>
     <g id="line2d_12">
      <g>
       <use style="stroke:#000000;stroke-width:0.8;" x="970.551865" xlink:href="#m9418061703" y="252"/>
      </g>
     </g>
     <g id="text_3">
      <!-- 4000 -->
      <defs>
       <path d="M 32.328125 0 
L 32.328125 17.140625 
L 1.265625 17.140625 
L 1.265625 25.203125 
L 33.9375 71.578125 
L 41.109375 71.578125 
L 41.109375 25.203125 
L 50.78125 25.203125 
L 50.78125 17.140625 
L 41.109375 17.140625 
L 41.109375 0 
z
M 32.328125 25.203125 
L 32.328125 57.46875 
L 9.90625 25.203125 
z
" id="ArialMT-52"/>
      </defs>
      <g transform="translate(941.63499 277.610313)scale(0.26 -0.26)">
       <use xlink:href="#ArialMT-52"/>
       <use x="55.615234" xlink:href="#ArialMT-48"/>
       <use x="111.230469" xlink:href="#ArialMT-48"/>
       <use x="166.845703" xlink:href="#ArialMT-48"/>
      </g>
     </g>
    </g>
    <g id="text_4">
     <!-- # sample -->
     <defs>
      <path d="M 5.03125 -1.21875 
L 9.28125 19.578125 
L 1.03125 19.578125 
L 1.03125 26.859375 
L 10.75 26.859375 
L 14.359375 44.578125 
L 1.03125 44.578125 
L 1.03125 51.859375 
L 15.828125 51.859375 
L 20.0625 72.796875 
L 27.390625 72.796875 
L 23.140625 51.859375 
L 38.53125 51.859375 
L 42.78125 72.796875 
L 50.140625 72.796875 
L 45.90625 51.859375 
L 54.34375 51.859375 
L 54.34375 44.578125 
L 44.4375 44.578125 
L 40.765625 26.859375 
L 54.34375 26.859375 
L 54.34375 19.578125 
L 39.3125 19.578125 
L 35.0625 -1.21875 
L 27.734375 -1.21875 
L 31.9375 19.578125 
L 16.609375 19.578125 
L 12.359375 -1.21875 
z
M 18.0625 26.859375 
L 33.40625 26.859375 
L 37.0625 44.578125 
L 21.6875 44.578125 
z
" id="ArialMT-35"/>
      <path id="ArialMT-32"/>
      <path d="M 3.078125 15.484375 
L 11.765625 16.84375 
Q 12.5 11.625 15.84375 8.84375 
Q 19.1875 6.0625 25.203125 6.0625 
Q 31.25 6.0625 34.171875 8.515625 
Q 37.109375 10.984375 37.109375 14.3125 
Q 37.109375 17.28125 34.515625 19 
Q 32.71875 20.171875 25.53125 21.96875 
Q 15.875 24.421875 12.140625 26.203125 
Q 8.40625 27.984375 6.46875 31.125 
Q 4.546875 34.28125 4.546875 38.09375 
Q 4.546875 41.546875 6.125 44.5 
Q 7.71875 47.46875 10.453125 49.421875 
Q 12.5 50.921875 16.03125 51.96875 
Q 19.578125 53.03125 23.640625 53.03125 
Q 29.734375 53.03125 34.34375 51.265625 
Q 38.96875 49.515625 41.15625 46.5 
Q 43.359375 43.5 44.1875 38.484375 
L 35.59375 37.3125 
Q 35.015625 41.3125 32.203125 43.546875 
Q 29.390625 45.796875 24.265625 45.796875 
Q 18.21875 45.796875 15.625 43.796875 
Q 13.03125 41.796875 13.03125 39.109375 
Q 13.03125 37.40625 14.109375 36.03125 
Q 15.1875 34.625 17.484375 33.6875 
Q 18.796875 33.203125 25.25 31.453125 
Q 34.578125 28.953125 38.25 27.359375 
Q 41.9375 25.78125 44.03125 22.75 
Q 46.140625 19.734375 46.140625 15.234375 
Q 46.140625 10.84375 43.578125 6.953125 
Q 41.015625 3.078125 36.171875 0.953125 
Q 31.34375 -1.171875 25.25 -1.171875 
Q 15.140625 -1.171875 9.84375 3.03125 
Q 4.546875 7.234375 3.078125 15.484375 
z
" id="ArialMT-115"/>
      <path d="M 40.4375 6.390625 
Q 35.546875 2.25 31.03125 0.53125 
Q 26.515625 -1.171875 21.34375 -1.171875 
Q 12.796875 -1.171875 8.203125 3 
Q 3.609375 7.171875 3.609375 13.671875 
Q 3.609375 17.484375 5.34375 20.625 
Q 7.078125 23.78125 9.890625 25.6875 
Q 12.703125 27.59375 16.21875 28.5625 
Q 18.796875 29.25 24.03125 29.890625 
Q 34.671875 31.15625 39.703125 32.90625 
Q 39.75 34.71875 39.75 35.203125 
Q 39.75 40.578125 37.25 42.78125 
Q 33.890625 45.75 27.25 45.75 
Q 21.046875 45.75 18.09375 43.578125 
Q 15.140625 41.40625 13.71875 35.890625 
L 5.125 37.0625 
Q 6.296875 42.578125 8.984375 45.96875 
Q 11.671875 49.359375 16.75 51.1875 
Q 21.828125 53.03125 28.515625 53.03125 
Q 35.15625 53.03125 39.296875 51.46875 
Q 43.453125 49.90625 45.40625 47.53125 
Q 47.359375 45.171875 48.140625 41.546875 
Q 48.578125 39.3125 48.578125 33.453125 
L 48.578125 21.734375 
Q 48.578125 9.46875 49.140625 6.21875 
Q 49.703125 2.984375 51.375 0 
L 42.1875 0 
Q 40.828125 2.734375 40.4375 6.390625 
z
M 39.703125 26.03125 
Q 34.90625 24.078125 25.34375 22.703125 
Q 19.921875 21.921875 17.671875 20.9375 
Q 15.4375 19.96875 14.203125 18.09375 
Q 12.984375 16.21875 12.984375 13.921875 
Q 12.984375 10.40625 15.640625 8.0625 
Q 18.3125 5.71875 23.4375 5.71875 
Q 28.515625 5.71875 32.46875 7.9375 
Q 36.421875 10.15625 38.28125 14.015625 
Q 39.703125 17 39.703125 22.796875 
z
" id="ArialMT-97"/>
      <path d="M 6.59375 0 
L 6.59375 51.859375 
L 14.453125 51.859375 
L 14.453125 44.578125 
Q 16.890625 48.390625 20.9375 50.703125 
Q 25 53.03125 30.171875 53.03125 
Q 35.9375 53.03125 39.625 50.640625 
Q 43.3125 48.25 44.828125 43.953125 
Q 50.984375 53.03125 60.84375 53.03125 
Q 68.5625 53.03125 72.703125 48.75 
Q 76.859375 44.484375 76.859375 35.59375 
L 76.859375 0 
L 68.109375 0 
L 68.109375 32.671875 
Q 68.109375 37.9375 67.25 40.25 
Q 66.40625 42.578125 64.15625 43.984375 
Q 61.921875 45.40625 58.890625 45.40625 
Q 53.421875 45.40625 49.796875 41.765625 
Q 46.1875 38.140625 46.1875 30.125 
L 46.1875 0 
L 37.40625 0 
L 37.40625 33.6875 
Q 37.40625 39.546875 35.25 42.46875 
Q 33.109375 45.40625 28.21875 45.40625 
Q 24.515625 45.40625 21.359375 43.453125 
Q 18.21875 41.5 16.796875 37.734375 
Q 15.375 33.984375 15.375 26.90625 
L 15.375 0 
z
" id="ArialMT-109"/>
      <path d="M 6.59375 -19.875 
L 6.59375 51.859375 
L 14.59375 51.859375 
L 14.59375 45.125 
Q 17.4375 49.078125 21 51.046875 
Q 24.5625 53.03125 29.640625 53.03125 
Q 36.28125 53.03125 41.359375 49.609375 
Q 46.4375 46.1875 49.015625 39.953125 
Q 51.609375 33.734375 51.609375 26.3125 
Q 51.609375 18.359375 48.75 11.984375 
Q 45.90625 5.609375 40.453125 2.21875 
Q 35.015625 -1.171875 29 -1.171875 
Q 24.609375 -1.171875 21.109375 0.6875 
Q 17.625 2.546875 15.375 5.375 
L 15.375 -19.875 
z
M 14.546875 25.640625 
Q 14.546875 15.625 18.59375 10.84375 
Q 22.65625 6.0625 28.421875 6.0625 
Q 34.28125 6.0625 38.453125 11.015625 
Q 42.625 15.96875 42.625 26.375 
Q 42.625 36.28125 38.546875 41.203125 
Q 34.46875 46.140625 28.8125 46.140625 
Q 23.1875 46.140625 18.859375 40.890625 
Q 14.546875 35.640625 14.546875 25.640625 
z
" id="ArialMT-112"/>
      <path d="M 6.390625 0 
L 6.390625 71.578125 
L 15.1875 71.578125 
L 15.1875 0 
z
" id="ArialMT-108"/>
      <path d="M 42.09375 16.703125 
L 51.171875 15.578125 
Q 49.03125 7.625 43.21875 3.21875 
Q 37.40625 -1.171875 28.375 -1.171875 
Q 17 -1.171875 10.328125 5.828125 
Q 3.65625 12.84375 3.65625 25.484375 
Q 3.65625 38.578125 10.390625 45.796875 
Q 17.140625 53.03125 27.875 53.03125 
Q 38.28125 53.03125 44.875 45.953125 
Q 51.46875 38.875 51.46875 26.03125 
Q 51.46875 25.25 51.421875 23.6875 
L 12.75 23.6875 
Q 13.234375 15.140625 17.578125 10.59375 
Q 21.921875 6.0625 28.421875 6.0625 
Q 33.25 6.0625 36.671875 8.59375 
Q 40.09375 11.140625 42.09375 16.703125 
z
M 13.234375 30.90625 
L 42.1875 30.90625 
Q 41.609375 37.453125 38.875 40.71875 
Q 34.671875 45.796875 27.984375 45.796875 
Q 21.921875 45.796875 17.796875 41.75 
Q 13.671875 37.703125 13.234375 30.90625 
z
" id="ArialMT-101"/>
     </defs>
     <g transform="translate(541.254531 305.705)scale(0.26 -0.26)">
      <use xlink:href="#ArialMT-35"/>
      <use x="55.615234" xlink:href="#ArialMT-32"/>
      <use x="83.398438" xlink:href="#ArialMT-115"/>
      <use x="133.398438" xlink:href="#ArialMT-97"/>
      <use x="189.013672" xlink:href="#ArialMT-109"/>
      <use x="272.314453" xlink:href="#ArialMT-112"/>
      <use x="327.929688" xlink:href="#ArialMT-108"/>
      <use x="350.146484" xlink:href="#ArialMT-101"/>
     </g>
    </g>
   </g>
   <g id="matplotlib.axis_2">
    <g id="ytick_1">
     <g id="line2d_13">
      <path clip-path="url(#paa31b1de05)" d="M 180 242.116364 
L 1008 242.116364 
" style="fill:none;stroke:#b0b0b0;stroke-linecap:square;stroke-width:0.8;"/>
     </g>
     <g id="line2d_14">
      <defs>
       <path d="M 0 0 
L -3.5 0 
" id="mfcf4209e51" style="stroke:#000000;stroke-width:0.8;"/>
      </defs>
      <g>
       <use style="stroke:#000000;stroke-width:0.8;" x="180" xlink:href="#mfcf4209e51" y="242.116364"/>
      </g>
     </g>
     <g id="text_5">
      <!-- 0 -->
      <g transform="translate(158.541562 251.42152)scale(0.26 -0.26)">
       <use xlink:href="#ArialMT-48"/>
      </g>
     </g>
    </g>
    <g id="ytick_2">
     <g id="line2d_15">
      <path clip-path="url(#paa31b1de05)" d="M 180 172.033507 
L 1008 172.033507 
" style="fill:none;stroke:#b0b0b0;stroke-linecap:square;stroke-width:0.8;"/>
     </g>
     <g id="line2d_16">
      <g>
       <use style="stroke:#000000;stroke-width:0.8;" x="180" xlink:href="#mfcf4209e51" y="172.033507"/>
      </g>
     </g>
     <g id="text_6">
      <!-- 10 -->
      <defs>
       <path d="M 37.25 0 
L 28.46875 0 
L 28.46875 56 
Q 25.296875 52.984375 20.140625 49.953125 
Q 14.984375 46.921875 10.890625 45.40625 
L 10.890625 53.90625 
Q 18.265625 57.375 23.78125 62.296875 
Q 29.296875 67.234375 31.59375 71.875 
L 37.25 71.875 
z
" id="ArialMT-49"/>
      </defs>
      <g transform="translate(144.083125 181.338663)scale(0.26 -0.26)">
       <use xlink:href="#ArialMT-49"/>
       <use x="55.615234" xlink:href="#ArialMT-48"/>
      </g>
     </g>
    </g>
    <g id="ytick_3">
     <g id="line2d_17">
      <path clip-path="url(#paa31b1de05)" d="M 180 101.950649 
L 1008 101.950649 
" style="fill:none;stroke:#b0b0b0;stroke-linecap:square;stroke-width:0.8;"/>
     </g>
     <g id="line2d_18">
      <g>
       <use style="stroke:#000000;stroke-width:0.8;" x="180" xlink:href="#mfcf4209e51" y="101.950649"/>
      </g>
     </g>
     <g id="text_7">
      <!-- 20 -->
      <g transform="translate(144.083125 111.255806)scale(0.26 -0.26)">
       <use xlink:href="#ArialMT-50"/>
       <use x="55.615234" xlink:href="#ArialMT-48"/>
      </g>
     </g>
    </g>
    <g id="text_8">
     <!-- phase velocity -->
     <defs>
      <path d="M 6.59375 0 
L 6.59375 71.578125 
L 15.375 71.578125 
L 15.375 45.90625 
Q 21.53125 53.03125 30.90625 53.03125 
Q 36.671875 53.03125 40.921875 50.75 
Q 45.171875 48.484375 47 44.484375 
Q 48.828125 40.484375 48.828125 32.859375 
L 48.828125 0 
L 40.046875 0 
L 40.046875 32.859375 
Q 40.046875 39.453125 37.1875 42.453125 
Q 34.328125 45.453125 29.109375 45.453125 
Q 25.203125 45.453125 21.75 43.421875 
Q 18.3125 41.40625 16.84375 37.9375 
Q 15.375 34.46875 15.375 28.375 
L 15.375 0 
z
" id="ArialMT-104"/>
      <path d="M 21 0 
L 1.265625 51.859375 
L 10.546875 51.859375 
L 21.6875 20.796875 
Q 23.484375 15.765625 25 10.359375 
Q 26.171875 14.453125 28.265625 20.21875 
L 39.796875 51.859375 
L 48.828125 51.859375 
L 29.203125 0 
z
" id="ArialMT-118"/>
      <path d="M 3.328125 25.921875 
Q 3.328125 40.328125 11.328125 47.265625 
Q 18.015625 53.03125 27.640625 53.03125 
Q 38.328125 53.03125 45.109375 46.015625 
Q 51.90625 39.015625 51.90625 26.65625 
Q 51.90625 16.65625 48.90625 10.90625 
Q 45.90625 5.171875 40.15625 2 
Q 34.421875 -1.171875 27.640625 -1.171875 
Q 16.75 -1.171875 10.03125 5.8125 
Q 3.328125 12.796875 3.328125 25.921875 
z
M 12.359375 25.921875 
Q 12.359375 15.96875 16.703125 11.015625 
Q 21.046875 6.0625 27.640625 6.0625 
Q 34.1875 6.0625 38.53125 11.03125 
Q 42.875 16.015625 42.875 26.21875 
Q 42.875 35.84375 38.5 40.796875 
Q 34.125 45.75 27.640625 45.75 
Q 21.046875 45.75 16.703125 40.8125 
Q 12.359375 35.890625 12.359375 25.921875 
z
" id="ArialMT-111"/>
      <path d="M 40.4375 19 
L 49.078125 17.875 
Q 47.65625 8.9375 41.8125 3.875 
Q 35.984375 -1.171875 27.484375 -1.171875 
Q 16.84375 -1.171875 10.375 5.78125 
Q 3.90625 12.75 3.90625 25.734375 
Q 3.90625 34.125 6.6875 40.421875 
Q 9.46875 46.734375 15.15625 49.875 
Q 20.84375 53.03125 27.546875 53.03125 
Q 35.984375 53.03125 41.359375 48.75 
Q 46.734375 44.484375 48.25 36.625 
L 39.703125 35.296875 
Q 38.484375 40.53125 35.375 43.15625 
Q 32.28125 45.796875 27.875 45.796875 
Q 21.234375 45.796875 17.078125 41.03125 
Q 12.9375 36.28125 12.9375 25.984375 
Q 12.9375 15.53125 16.9375 10.796875 
Q 20.953125 6.0625 27.390625 6.0625 
Q 32.5625 6.0625 36.03125 9.234375 
Q 39.5 12.40625 40.4375 19 
z
" id="ArialMT-99"/>
      <path d="M 6.640625 61.46875 
L 6.640625 71.578125 
L 15.4375 71.578125 
L 15.4375 61.46875 
z
M 6.640625 0 
L 6.640625 51.859375 
L 15.4375 51.859375 
L 15.4375 0 
z
" id="ArialMT-105"/>
      <path d="M 25.78125 7.859375 
L 27.046875 0.09375 
Q 23.34375 -0.6875 20.40625 -0.6875 
Q 15.625 -0.6875 12.984375 0.828125 
Q 10.359375 2.34375 9.28125 4.8125 
Q 8.203125 7.28125 8.203125 15.1875 
L 8.203125 45.015625 
L 1.765625 45.015625 
L 1.765625 51.859375 
L 8.203125 51.859375 
L 8.203125 64.703125 
L 16.9375 69.96875 
L 16.9375 51.859375 
L 25.78125 51.859375 
L 25.78125 45.015625 
L 16.9375 45.015625 
L 16.9375 14.703125 
Q 16.9375 10.9375 17.40625 9.859375 
Q 17.875 8.796875 18.921875 8.15625 
Q 19.96875 7.515625 21.921875 7.515625 
Q 23.390625 7.515625 25.78125 7.859375 
z
" id="ArialMT-116"/>
      <path d="M 6.203125 -19.96875 
L 5.21875 -11.71875 
Q 8.109375 -12.5 10.25 -12.5 
Q 13.1875 -12.5 14.9375 -11.515625 
Q 16.703125 -10.546875 17.828125 -8.796875 
Q 18.65625 -7.46875 20.515625 -2.25 
Q 20.75 -1.515625 21.296875 -0.09375 
L 1.609375 51.859375 
L 11.078125 51.859375 
L 21.875 21.828125 
Q 23.96875 16.109375 25.640625 9.8125 
Q 27.15625 15.875 29.25 21.625 
L 40.328125 51.859375 
L 49.125 51.859375 
L 29.390625 -0.875 
Q 26.21875 -9.421875 24.46875 -12.640625 
Q 22.125 -17 19.09375 -19.015625 
Q 16.0625 -21.046875 11.859375 -21.046875 
Q 9.328125 -21.046875 6.203125 -19.96875 
z
" id="ArialMT-121"/>
     </defs>
     <g transform="translate(134.610937 225.655313)rotate(-90)scale(0.26 -0.26)">
      <use xlink:href="#ArialMT-112"/>
      <use x="55.615234" xlink:href="#ArialMT-104"/>
      <use x="111.230469" xlink:href="#ArialMT-97"/>
      <use x="166.845703" xlink:href="#ArialMT-115"/>
      <use x="216.845703" xlink:href="#ArialMT-101"/>
      <use x="272.460938" xlink:href="#ArialMT-32"/>
      <use x="300.244141" xlink:href="#ArialMT-118"/>
      <use x="350.244141" xlink:href="#ArialMT-101"/>
      <use x="405.859375" xlink:href="#ArialMT-108"/>
      <use x="428.076172" xlink:href="#ArialMT-111"/>
      <use x="483.691406" xlink:href="#ArialMT-99"/>
      <use x="533.691406" xlink:href="#ArialMT-105"/>
      <use x="555.908203" xlink:href="#ArialMT-116"/>
      <use x="583.691406" xlink:href="#ArialMT-121"/>
     </g>
    </g>
   </g>
   <g id="patch_3">
    <path d="M 180 252 
L 180 34.56 
" style="fill:none;stroke:#000000;stroke-linecap:square;stroke-linejoin:miter;stroke-width:0.8;"/>
   </g>
   <g id="patch_4">
    <path d="M 1008 252 
L 1008 34.56 
" style="fill:none;stroke:#000000;stroke-linecap:square;stroke-linejoin:miter;stroke-width:0.8;"/>
   </g>
   <g id="patch_5">
    <path d="M 180 252 
L 1008 252 
" style="fill:none;stroke:#000000;stroke-linecap:square;stroke-linejoin:miter;stroke-width:0.8;"/>
   </g>
   <g id="patch_6">
    <path d="M 180 34.56 
L 1008 34.56 
" style="fill:none;stroke:#000000;stroke-linecap:square;stroke-linejoin:miter;stroke-width:0.8;"/>
   </g>
   <g id="legend_1">
    <g id="patch_7">
     <path d="M 1054.6 115.915625 
L 1197.055625 115.915625 
Q 1202.255625 115.915625 1202.255625 110.715625 
L 1202.255625 39.76 
Q 1202.255625 34.56 1197.055625 34.56 
L 1054.6 34.56 
Q 1049.4 34.56 1049.4 39.76 
L 1049.4 110.715625 
Q 1049.4 115.915625 1054.6 115.915625 
z
" style="fill:#ffffff;opacity:0.8;stroke:#cccccc;stroke-linejoin:miter;"/>
    </g>
    <g id="line2d_19">
     <path d="M 1059.8 54.470312 
L 1111.8 54.470312 
" style="fill:none;stroke:#000000;stroke-linecap:square;stroke-width:1.5;"/>
    </g>
    <g id="line2d_20"/>
    <g id="text_9">
     <!-- pred. -->
     <defs>
      <path d="M 6.5 0 
L 6.5 51.859375 
L 14.40625 51.859375 
L 14.40625 44 
Q 17.4375 49.515625 20 51.265625 
Q 22.5625 53.03125 25.640625 53.03125 
Q 30.078125 53.03125 34.671875 50.203125 
L 31.640625 42.046875 
Q 28.421875 43.953125 25.203125 43.953125 
Q 22.3125 43.953125 20.015625 42.21875 
Q 17.71875 40.484375 16.75 37.40625 
Q 15.28125 32.71875 15.28125 27.15625 
L 15.28125 0 
z
" id="ArialMT-114"/>
      <path d="M 40.234375 0 
L 40.234375 6.546875 
Q 35.296875 -1.171875 25.734375 -1.171875 
Q 19.53125 -1.171875 14.328125 2.25 
Q 9.125 5.671875 6.265625 11.796875 
Q 3.421875 17.921875 3.421875 25.875 
Q 3.421875 33.640625 6 39.96875 
Q 8.59375 46.296875 13.765625 49.65625 
Q 18.953125 53.03125 25.34375 53.03125 
Q 30.03125 53.03125 33.6875 51.046875 
Q 37.359375 49.078125 39.65625 45.90625 
L 39.65625 71.578125 
L 48.390625 71.578125 
L 48.390625 0 
z
M 12.453125 25.875 
Q 12.453125 15.921875 16.640625 10.984375 
Q 20.84375 6.0625 26.5625 6.0625 
Q 32.328125 6.0625 36.34375 10.765625 
Q 40.375 15.484375 40.375 25.140625 
Q 40.375 35.796875 36.265625 40.765625 
Q 32.171875 45.75 26.171875 45.75 
Q 20.3125 45.75 16.375 40.96875 
Q 12.453125 36.1875 12.453125 25.875 
z
" id="ArialMT-100"/>
      <path d="M 9.078125 0 
L 9.078125 10.015625 
L 19.09375 10.015625 
L 19.09375 0 
z
" id="ArialMT-46"/>
     </defs>
     <g transform="translate(1132.6 63.570312)scale(0.26 -0.26)">
      <use xlink:href="#ArialMT-112"/>
      <use x="55.615234" xlink:href="#ArialMT-114"/>
      <use x="88.916016" xlink:href="#ArialMT-101"/>
      <use x="144.53125" xlink:href="#ArialMT-100"/>
      <use x="200.146484" xlink:href="#ArialMT-46"/>
     </g>
    </g>
    <g id="line2d_21">
     <path d="M 1059.8 91.248125 
L 1111.8 91.248125 
" style="fill:none;stroke:#808080;stroke-linecap:square;stroke-width:4;"/>
    </g>
    <g id="line2d_22"/>
    <g id="text_10">
     <!-- true -->
     <defs>
      <path d="M 40.578125 0 
L 40.578125 7.625 
Q 34.515625 -1.171875 24.125 -1.171875 
Q 19.53125 -1.171875 15.546875 0.578125 
Q 11.578125 2.34375 9.640625 5 
Q 7.71875 7.671875 6.9375 11.53125 
Q 6.390625 14.109375 6.390625 19.734375 
L 6.390625 51.859375 
L 15.1875 51.859375 
L 15.1875 23.09375 
Q 15.1875 16.21875 15.71875 13.8125 
Q 16.546875 10.359375 19.234375 8.375 
Q 21.921875 6.390625 25.875 6.390625 
Q 29.828125 6.390625 33.296875 8.421875 
Q 36.765625 10.453125 38.203125 13.9375 
Q 39.65625 17.4375 39.65625 24.078125 
L 39.65625 51.859375 
L 48.4375 51.859375 
L 48.4375 0 
z
" id="ArialMT-117"/>
     </defs>
     <g transform="translate(1132.6 100.348125)scale(0.26 -0.26)">
      <use xlink:href="#ArialMT-116"/>
      <use x="27.783203" xlink:href="#ArialMT-114"/>
      <use x="61.083984" xlink:href="#ArialMT-117"/>
      <use x="116.699219" xlink:href="#ArialMT-101"/>
     </g>
    </g>
   </g>
  </g>
 </g>
 <defs>
  <clipPath id="paa31b1de05">
   <rect height="217.44" width="828" x="180" y="34.56"/>
  </clipPath>
 </defs>
</svg>
