<?xml version="1.0" encoding="utf-8" standalone="no"?>
<!DOCTYPE svg PUBLIC "-//W3C//DTD SVG 1.1//EN"
  "http://www.w3.org/Graphics/SVG/1.1/DTD/svg11.dtd">
<!-- Created with matplotlib (https://matplotlib.org/) -->
<svg height="288pt" version="1.1" viewBox="0 0 1440 288" width="1440pt" xmlns="http://www.w3.org/2000/svg" xmlns:xlink="http://www.w3.org/1999/xlink">
 <defs>
  <style type="text/css">
*{stroke-linecap:butt;stroke-linejoin:round;}
  </style>
 </defs>
 <g id="figure_1">
  <g id="patch_1">
   <path d="M 0 288 
L 1440 288 
L 1440 0 
L 0 0 
z
" style="fill:#ffffff;"/>
  </g>
  <g id="axes_1">
   <g id="patch_2">
    <path d="M 180 252 
L 1008 252 
L 1008 34.56 
L 180 34.56 
z
" style="fill:#ffffff;"/>
   </g>
   <g id="line2d_1">
    <path clip-path="url(#p2bfd6b1881)" d="M 217.636364 44.968257 
L 970.363636 44.968257 
L 970.363636 44.968257 
" style="fill:none;stroke:#808080;stroke-linecap:square;stroke-width:4;"/>
   </g>
   <g id="line2d_2">
    <path clip-path="url(#p2bfd6b1881)" d="M 217.636364 227.598446 
L 218.012821 227.748176 
L 218.577508 228.277326 
L 219.142195 229.148486 
L 219.89511 230.771422 
L 221.024483 233.895064 
L 222.906772 239.276043 
L 223.659688 240.837244 
L 224.224374 241.601598 
L 224.789061 241.96106 
L 225.165519 241.960244 
L 225.541976 241.766032 
L 226.106663 241.128275 
L 226.67135 240.112707 
L 227.424265 238.291819 
L 228.930096 233.85397 
L 230.247698 230.280163 
L 231.000614 228.789864 
L 231.5653 228.039948 
L 232.129987 227.644802 
L 232.506445 227.587065 
L 232.882903 227.695237 
L 233.447589 228.163325 
L 234.012276 228.979094 
L 234.765191 230.541677 
L 235.706336 233.064461 
L 238.153311 239.922195 
L 238.906227 241.268 
L 239.470913 241.835182 
L 239.847371 241.978966 
L 240.223829 241.929778 
L 240.600286 241.688392 
L 241.164973 240.983944 
L 241.72966 239.911828 
L 242.670804 237.511833 
L 245.494237 229.662119 
L 246.247153 228.37332 
L 246.811839 227.796916 
L 247.376526 227.585905 
L 247.752984 227.652974 
L 248.31767 228.061557 
L 248.882357 228.823034 
L 249.635272 230.322054 
L 250.576417 232.791425 
L 253.211621 240.128227 
L 253.964537 241.393663 
L 254.529223 241.890349 
L 254.905681 241.984825 
L 255.282139 241.885258 
L 255.658596 241.595113 
L 256.223283 240.821969 
L 256.976199 239.248179 
L 258.105572 236.114221 
L 259.987861 230.722368 
L 260.740776 229.107061 
L 261.493692 228.037528 
L 262.058378 227.643621 
L 262.434836 227.587361 
L 262.811294 227.697738 
L 263.37598 228.169259 
L 263.940667 228.987692 
L 264.693582 230.552156 
L 265.822956 233.630748 
L 267.893473 239.514938 
L 268.646389 241.00221 
L 269.211075 241.697325 
L 269.587533 241.933428 
L 269.963991 241.977598 
L 270.340449 241.828374 
L 270.905135 241.252015 
L 271.469822 240.289069 
L 272.222738 238.520418 
L 273.54034 234.683403 
L 275.046171 230.485636 
L 275.799086 228.936807 
L 276.363773 228.134452 
L 276.928459 227.68292 
L 277.304917 227.585711 
L 277.681375 227.654967 
L 278.246062 228.066089 
L 278.810748 228.82898 
L 279.563664 230.331241 
L 280.504808 232.802484 
L 283.140012 240.13434 
L 283.892928 241.395892 
L 284.457614 241.890783 
L 284.834072 241.984824 
L 285.21053 241.885531 
L 285.586988 241.595635 
L 286.151674 240.823806 
L 286.90459 239.254925 
L 288.033963 236.13052 
L 289.916252 230.733276 
L 290.669167 229.115203 
L 291.422083 228.041364 
L 291.986769 227.645255 
L 292.363227 227.587031 
L 292.739685 227.695531 
L 293.304372 228.165736 
L 293.869058 228.983358 
L 294.621974 230.544048 
L 295.563118 233.066247 
L 298.010093 239.933139 
L 298.763009 241.273415 
L 299.327696 241.837074 
L 299.704153 241.979397 
L 300.080611 241.928372 
L 300.457069 241.685769 
L 301.021755 240.978322 
L 301.586442 239.904719 
L 302.527586 237.506574 
L 305.35102 229.663408 
L 306.103935 228.373217 
L 306.668622 227.796413 
L 307.233308 227.58587 
L 307.609766 227.653255 
L 308.174453 228.061955 
L 308.739139 228.821567 
L 309.492055 230.321809 
L 310.433199 232.793167 
L 313.068403 240.126741 
L 313.821319 241.391276 
L 314.386006 241.889062 
L 314.762463 241.984838 
L 315.138921 241.88685 
L 315.515379 241.598254 
L 316.080065 240.826983 
L 316.832981 239.257422 
L 317.774125 236.6885 
L 320.032872 230.279533 
L 320.785787 228.788566 
L 321.350474 228.039426 
L 321.915161 227.64414 
L 322.291618 227.58723 
L 322.668076 227.697161 
L 323.232763 228.16731 
L 323.797449 228.986124 
L 324.550365 230.551085 
L 325.491509 233.074198 
L 327.938485 239.934957 
L 328.6914 241.275997 
L 329.256087 241.839142 
L 329.632544 241.979765 
L 330.009002 241.926783 
L 330.38546 241.681426 
L 330.950147 240.970163 
L 331.514833 239.892399 
L 332.455978 237.489452 
L 335.279411 229.651838 
L 336.032326 228.367123 
L 336.597013 227.794154 
L 337.1617 227.585701 
L 337.538157 227.655186 
L 338.102844 228.066611 
L 338.667531 228.830809 
L 339.420446 230.335883 
L 340.36159 232.811489 
L 342.808566 239.734009 
L 343.561481 241.145854 
L 344.126168 241.775061 
L 344.502626 241.96315 
L 344.879083 241.958037 
L 345.255541 241.760154 
L 345.820228 241.116397 
L 346.384914 240.09661 
L 347.13783 238.272995 
L 348.643661 233.834789 
L 349.773034 230.711681 
L 350.52595 229.101844 
L 351.278865 228.034426 
L 351.843552 227.642803 
L 352.22001 227.587471 
L 352.596467 227.698525 
L 353.161154 228.172273 
L 353.725841 228.993327 
L 354.478756 230.560735 
L 355.608129 233.634372 
L 357.678647 239.520166 
L 358.431562 241.003386 
L 358.996249 241.698469 
L 359.372707 241.934234 
L 359.749165 241.977436 
L 360.125622 241.827216 
L 360.690309 241.250709 
L 361.254996 240.290978 
L 362.007911 238.524951 
L 363.325513 234.687523 
L 364.831344 230.488937 
L 365.58426 228.937683 
L 366.148946 228.134593 
L 366.713633 227.682289 
L 367.090091 227.585665 
L 367.466548 227.655436 
L 368.031235 228.067137 
L 368.595922 228.832025 
L 369.348837 230.336819 
L 370.289982 232.813861 
L 372.736957 239.733437 
L 373.489872 241.146828 
L 374.054559 241.775174 
L 374.431017 241.963093 
L 374.807475 241.957764 
L 375.183932 241.7603 
L 375.748619 241.115985 
L 376.313306 240.095642 
L 377.066221 238.269599 
L 378.572052 233.826606 
L 379.889654 230.260208 
L 380.64257 228.77585 
L 381.207256 228.031238 
L 381.771943 227.641421 
L 382.148401 227.587771 
L 382.524858 227.700204 
L 383.089545 228.1754 
L 383.654232 228.998034 
L 384.407147 230.566472 
L 385.53652 233.639651 
L 387.607038 239.522325 
L 388.359954 241.007087 
L 388.92464 241.700213 
L 389.301098 241.934663 
L 389.677556 241.97724 
L 390.054014 241.826536 
L 390.6187 241.248879 
L 391.183387 240.285986 
L 391.936302 238.518058 
L 393.253904 234.681312 
L 394.759735 230.480827 
L 395.512651 228.933189 
L 396.077338 228.132665 
L 396.642024 227.681401 
L 397.018482 227.585588 
L 397.39494 227.656356 
L 397.959626 228.071173 
L 398.524313 228.8381 
L 399.277228 230.341743 
L 400.218373 232.818658 
L 402.853577 240.149021 
L 403.606493 241.405137 
L 404.171179 241.89496 
L 404.547637 241.98472 
L 404.924095 241.881187 
L 405.300552 241.587417 
L 405.865239 240.81114 
L 406.618155 239.233371 
L 407.559299 236.654889 
L 409.818045 230.249533 
L 410.570961 228.769128 
L 411.135648 228.02747 
L 411.700334 227.639724 
L 412.076792 227.588194 
L 412.45325 227.703204 
L 413.017936 228.182135 
L 413.582623 229.005446 
L 414.335538 230.577157 
L 415.276683 233.10551 
L 417.535429 239.527696 
L 418.288345 241.010629 
L 418.853031 241.703012 
L 419.229489 241.936035 
L 419.605947 241.976633 
L 419.982405 241.823679 
L 420.547091 241.243746 
L 421.111778 240.27777 
L 421.864693 238.507887 
L 423.182296 234.667923 
L 424.688127 230.471414 
L 425.441042 228.925833 
L 426.005729 228.12781 
L 426.570415 227.67994 
L 426.946873 227.585527 
L 427.323331 227.657255 
L 427.888017 228.072952 
L 428.452704 228.840793 
L 429.20562 230.347425 
L 430.146764 232.82217 
L 432.593739 239.742911 
L 433.346655 241.152368 
L 433.911341 241.778617 
L 434.287799 241.964312 
L 434.664257 241.956529 
L 435.040715 241.756086 
L 435.605401 241.109123 
L 436.170088 240.085895 
L 436.923003 238.26045 
L 438.617063 233.26269 
L 439.746437 230.254163 
L 440.499352 228.771212 
L 441.064039 228.028774 
L 441.628725 227.640619 
L 442.005183 227.587928 
L 442.381641 227.701373 
L 442.946327 228.177637 
L 443.511014 229.000644 
L 444.26393 230.570686 
L 445.393303 233.653854 
L 447.463821 239.526444 
L 448.216736 241.009102 
L 448.781423 241.702779 
L 449.15788 241.935905 
L 449.534338 241.976689 
L 449.910796 241.823615 
L 450.475483 241.243062 
L 451.040169 240.275915 
L 451.793085 238.505855 
L 453.110687 234.667729 
L 454.616518 230.473184 
L 455.369433 228.927134 
L 455.93412 228.127641 
L 456.498807 227.679483 
L 456.875264 227.58547 
L 457.251722 227.658055 
L 457.816409 228.073995 
L 458.381095 228.841119 
L 459.134011 230.348719 
L 460.075155 232.825946 
L 462.710359 240.148147 
L 463.463275 241.403696 
L 464.027962 241.894704 
L 464.404419 241.984726 
L 464.780877 241.881303 
L 465.157335 241.5877 
L 465.722021 240.811758 
L 466.474937 239.235447 
L 467.60431 236.099546 
L 469.486599 230.706452 
L 470.239514 229.099624 
L 470.804201 228.242866 
L 471.368888 227.731431 
L 471.745345 227.594057 
L 472.121803 227.622715 
L 472.498261 227.817289 
L 473.062948 228.410797 
L 473.627634 229.339419 
L 474.38055 231.022606 
L 475.509923 234.202337 
L 477.392212 239.526103 
L 478.145127 241.009497 
L 478.709814 241.701063 
L 479.086272 241.935119 
L 479.462729 241.976896 
L 479.839187 241.825109 
L 480.403874 241.246496 
L 480.96856 240.283575 
L 481.721476 238.515776 
L 483.039078 234.678387 
L 484.544909 230.481612 
L 485.297824 228.933207 
L 485.862511 228.1327 
L 486.427198 227.681165 
L 486.803655 227.585588 
L 487.180113 227.656287 
L 487.7448 228.070152 
L 488.309486 228.835686 
L 489.062402 230.340659 
L 490.003546 232.815439 
L 492.638751 240.143194 
L 493.391666 241.403239 
L 493.956353 241.893957 
L 494.33281 241.984749 
L 494.709268 241.881864 
L 495.085726 241.588089 
L 495.650413 240.81094 
L 496.403328 239.231341 
L 497.532701 236.093089 
L 499.41499 230.703567 
L 500.167906 229.094225 
L 500.920821 228.029906 
L 501.485508 227.641426 
L 501.861965 227.587811 
L 502.238423 227.701046 
L 502.80311 228.176671 
L 503.367796 228.999258 
L 504.120712 230.567589 
L 505.061856 233.088526 
L 507.320603 239.523641 
L 508.073518 241.008064 
L 508.638205 241.701058 
L 509.014663 241.935127 
L 509.391121 241.977199 
L 509.767578 241.825539 
L 510.332265 241.247082 
L 510.896952 240.2844 
L 511.649867 238.516832 
L 512.967469 234.67783 
L 514.4733 230.481847 
L 515.226216 228.934743 
L 515.790902 228.131956 
L 516.355589 227.68105 
L 516.732047 227.585601 
L 517.108504 227.656446 
L 517.673191 228.070675 
L 518.237878 228.83708 
L 518.990793 230.343795 
L 519.931938 232.817668 
L 522.567142 240.147327 
L 523.320057 241.40361 
L 523.884744 241.893986 
L 524.261202 241.984752 
L 524.637659 241.881903 
L 525.014117 241.588961 
L 525.578804 240.811498 
L 526.331719 239.23514 
L 527.272864 236.660745 
L 529.53161 230.260048 
L 530.284526 228.776065 
L 530.849212 228.03088 
L 531.413899 227.64144 
L 531.790357 227.587734 
L 532.166814 227.700685 
L 532.731501 228.175709 
L 533.296188 228.998387 
L 534.049103 230.564786 
L 534.990248 233.086802 
L 537.437223 239.942496 
L 538.190138 241.279296 
L 538.754825 241.840156 
L 539.131283 241.980059 
L 539.507741 241.92609 
L 539.884198 241.680765 
L 540.448885 240.96902 
L 541.013572 239.89174 
L 541.954716 237.482423 
L 544.778149 229.642241 
L 545.531065 228.360038 
L 546.095751 227.790297 
L 546.660438 227.58556 
L 547.036896 227.656666 
L 547.601582 228.07036 
L 548.166269 228.835435 
L 548.919184 230.340909 
L 549.860329 232.816541 
L 552.495533 240.137922 
L 553.248448 241.399121 
L 553.813135 241.892233 
L 554.189593 241.984806 
L 554.566051 241.884474 
L 554.942508 241.594092 
L 555.507195 240.82054 
L 556.26011 239.25147 
L 557.201255 236.679612 
L 559.460001 230.274955 
L 560.212917 228.787677 
L 560.777603 228.040323 
L 561.34229 227.644464 
L 561.718748 227.587165 
L 562.095206 227.696661 
L 562.659892 228.167553 
L 563.224579 228.984833 
L 563.977494 230.550292 
L 564.918639 233.07239 
L 567.365614 239.932673 
L 568.11853 241.272159 
L 568.683216 241.836665 
L 569.059674 241.979328 
L 569.436132 241.928697 
L 569.81259 241.686054 
L 570.377276 240.979901 
L 570.941963 239.905934 
L 571.883107 237.502049 
L 574.70654 229.662432 
L 575.459456 228.373156 
L 576.024142 227.797231 
L 576.588829 227.585978 
L 576.965287 227.65251 
L 577.529973 228.061209 
L 578.09466 228.822364 
L 578.847576 230.320227 
L 579.78872 232.793348 
L 582.423924 240.132783 
L 583.17684 241.39607 
L 583.741526 241.890734 
L 584.117984 241.984822 
L 584.494442 241.884631 
L 584.8709 241.594301 
L 585.435586 240.822007 
L 586.188502 239.25035 
L 587.129646 236.680559 
L 589.388393 230.275836 
L 590.141308 228.784989 
L 590.705995 228.037111 
L 591.270681 227.643562 
L 591.647139 227.5873 
L 592.023597 227.697378 
L 592.588283 228.170219 
L 593.15297 228.990793 
L 593.905886 230.556615 
L 594.84703 233.081972 
L 597.294005 239.936562 
L 598.046921 241.274905 
L 598.611607 241.838701 
L 598.988065 241.979693 
L 599.364523 241.927643 
L 599.740981 241.684072 
L 600.305667 240.976409 
L 601.058583 239.473265 
L 601.999727 236.953358 
L 604.446703 230.061039 
L 605.199618 228.636983 
L 605.764305 227.946218 
L 606.328991 227.613954 
L 606.705449 227.599262 
L 607.081907 227.750608 
L 607.646593 228.281268 
L 608.21128 229.153855 
L 608.964196 230.777645 
L 610.093569 233.904535 
L 611.975858 239.283378 
L 612.728773 240.842209 
L 613.29346 241.606915 
L 613.858146 241.962278 
L 614.234604 241.958905 
L 614.611062 241.762405 
L 615.175748 241.122853 
L 615.740435 240.106689 
L 616.493351 238.283122 
L 617.999182 233.852448 
L 619.316784 230.27847 
L 620.069699 228.788107 
L 620.634386 228.038931 
L 621.199072 227.644346 
L 621.57553 227.587144 
L 621.951988 227.69653 
L 622.516675 228.166721 
L 623.081361 228.982784 
L 623.834277 230.546802 
L 624.775421 233.068866 
L 627.222397 239.930596 
L 627.975312 241.272889 
L 628.539999 241.837385 
L 628.916456 241.979499 
L 629.292914 241.928259 
L 629.669372 241.685528 
L 630.234059 240.978169 
L 630.798745 239.903562 
L 631.73989 237.501363 
L 634.563323 229.659045 
L 635.316238 228.370243 
L 635.880925 227.795356 
L 636.445611 227.585802 
L 636.822069 227.653883 
L 637.386756 228.064141 
L 637.951442 228.827839 
L 638.704358 230.331703 
L 639.645502 232.80577 
L 642.092478 239.731362 
L 642.845393 241.143521 
L 643.41008 241.774363 
L 643.786538 241.962576 
L 644.162995 241.958509 
L 644.539453 241.761835 
L 645.10414 241.119486 
L 645.668826 240.10168 
L 646.421742 238.280732 
L 647.927573 233.843065 
L 649.245175 230.270562 
L 649.99809 228.782963 
L 650.562777 228.035729 
L 651.127464 227.643112 
L 651.503921 227.587397 
L 651.880379 227.697929 
L 652.445066 228.1695 
L 653.009752 228.988016 
L 653.762668 230.555994 
L 654.703812 233.080692 
L 657.150788 239.940252 
L 657.903703 241.277053 
L 658.46839 241.839193 
L 658.844848 241.979802 
L 659.221305 241.927214 
L 659.597763 241.682891 
L 660.16245 240.972743 
L 660.727136 239.894983 
L 661.668281 237.49043 
L 664.491714 229.649663 
L 665.244629 228.365512 
L 665.809316 227.792796 
L 666.374003 227.585685 
L 666.75046 227.655394 
L 667.315147 228.06783 
L 667.879834 228.832545 
L 668.632749 230.337588 
L 669.573893 232.809764 
L 672.209098 240.142295 
L 672.962013 241.400983 
L 673.5267 241.893004 
L 673.903158 241.984775 
L 674.279615 241.88274 
L 674.656073 241.590463 
L 675.22076 240.815418 
L 675.973675 239.240951 
L 676.91482 236.665794 
L 679.173566 230.257584 
L 679.926482 228.774934 
L 680.491168 228.030229 
L 681.055855 227.641253 
L 681.432313 227.587742 
L 681.80877 227.700567 
L 682.373457 228.175215 
L 682.938144 228.99962 
L 683.691059 230.567518 
L 684.632204 233.094944 
L 686.89095 239.526393 
L 687.643866 241.010728 
L 688.208552 241.702552 
L 688.58501 241.935645 
L 688.961468 241.976747 
L 689.337925 241.824765 
L 689.902612 241.24709 
L 690.467299 240.284182 
L 691.220214 238.515668 
L 692.537816 234.677292 
L 694.043647 230.479722 
L 694.796563 228.934037 
L 695.361249 228.133224 
L 695.925936 227.681793 
L 696.302394 227.585645 
L 696.678852 227.655772 
L 697.243538 228.069231 
L 697.808225 228.83512 
L 698.56114 230.341553 
L 699.502285 232.816176 
L 702.137489 240.145522 
L 702.890404 241.403037 
L 703.455091 241.893818 
L 703.831549 241.984753 
L 704.208007 241.88198 
L 704.584464 241.589604 
L 705.149151 240.81564 
L 705.902066 239.240464 
L 706.843211 236.666743 
L 709.101957 230.267523 
L 709.854873 228.78179 
L 710.419559 228.0346 
L 710.984246 227.642981 
L 711.360704 227.587466 
L 711.737162 227.698363 
L 712.301848 228.171384 
L 712.866535 228.991096 
L 713.61945 230.555847 
L 714.560595 233.078721 
L 717.00757 239.935462 
L 717.760486 241.274947 
L 718.325172 241.837876 
L 718.70163 241.97959 
L 719.078088 241.928003 
L 719.454545 241.684058 
L 720.019232 240.976947 
L 720.583919 239.903549 
L 721.525063 237.501162 
L 724.348496 229.656836 
L 725.101412 228.37088 
L 725.666098 227.796527 
L 726.230785 227.585831 
L 726.607243 227.653815 
L 727.171929 228.063455 
L 727.736616 228.823919 
L 728.489531 230.325943 
L 729.430676 232.797557 
L 732.06588 240.133667 
L 732.818796 241.396972 
L 733.383482 241.892031 
L 733.75994 241.984801 
L 734.136398 241.884048 
L 734.512855 241.592681 
L 735.077542 240.819274 
L 735.830458 239.247197 
L 736.771602 236.673486 
L 739.030348 230.267291 
L 739.783264 228.779605 
L 740.347951 228.033612 
L 740.912637 227.64256 
L 741.289095 227.587578 
L 741.665553 227.699012 
L 742.230239 228.172479 
L 742.794926 228.99432 
L 743.547842 230.560512 
L 744.488986 233.085381 
L 746.935961 239.945113 
L 747.688877 241.280117 
L 748.253563 241.840598 
L 748.630021 241.980019 
L 749.006479 241.926381 
L 749.382937 241.680661 
L 749.947623 240.972403 
L 750.51231 239.898453 
L 751.453454 237.494461 
L 754.276887 229.652168 
L 755.029803 228.366301 
L 755.59449 227.793963 
L 756.159176 227.585755 
L 756.535634 227.654573 
L 757.100321 228.066375 
L 757.665007 228.82914 
L 758.417923 230.330956 
L 759.359067 232.801994 
L 761.806042 239.726426 
L 762.558958 241.14229 
L 763.123645 241.772654 
L 763.500102 241.962226 
L 763.87656 241.958857 
L 764.253018 241.762762 
L 764.817704 241.122018 
L 765.382391 240.104199 
L 766.135307 238.281863 
L 767.641138 233.847599 
L 768.95874 230.277711 
L 769.711655 228.788017 
L 770.276342 228.039251 
L 770.841028 227.644287 
L 771.217486 227.587233 
L 771.593944 227.696796 
L 772.158631 228.167176 
L 772.723317 228.986107 
L 773.476233 230.54983 
L 774.417377 233.074184 
L 776.864352 239.937566 
L 777.617268 241.275788 
L 778.181955 241.838246 
L 778.558412 241.979552 
L 778.93487 241.927832 
L 779.311328 241.684132 
L 779.876014 240.977886 
L 780.440701 239.902943 
L 781.381845 237.498051 
L 784.205279 229.657719 
L 784.958194 228.370043 
L 785.522881 227.79472 
L 786.087567 227.585734 
L 786.464025 227.654747 
L 787.028712 228.066838 
L 787.593398 228.831206 
L 788.346314 230.335096 
L 789.287458 232.805528 
L 791.734434 239.733365 
L 792.487349 241.14445 
L 793.052036 241.774521 
L 793.428493 241.962928 
L 793.804951 241.957907 
L 794.181409 241.760539 
L 794.746096 241.118205 
L 795.310782 240.09905 
L 796.063698 238.277125 
L 797.569529 233.845711 
L 798.887131 230.27428 
L 799.640046 228.786102 
L 800.204733 228.038707 
L 800.76942 227.644126 
L 801.145877 227.587254 
L 801.522335 227.697165 
L 802.087022 228.168348 
L 802.651708 228.985893 
L 803.404624 230.549057 
L 804.345768 233.070923 
L 806.604515 239.504485 
L 807.35743 240.9952 
L 807.922117 241.694792 
L 808.298575 241.93215 
L 808.675032 241.978108 
L 809.05149 241.830489 
L 809.616177 241.25885 
L 810.180863 240.302588 
L 810.933779 238.540144 
L 812.251381 234.707752 
L 813.757212 230.504089 
L 814.510128 228.949639 
L 815.074814 228.143512 
L 815.639501 227.685786 
L 816.015959 227.585966 
L 816.392416 227.652376 
L 816.957103 228.060124 
L 817.52179 228.820107 
L 818.274705 230.321454 
L 819.215849 232.791876 
L 821.851054 240.126253 
L 822.603969 241.390044 
L 823.168656 241.888786 
L 823.545114 241.98484 
L 823.921571 241.88666 
L 824.298029 241.598414 
L 824.862716 240.827852 
L 825.615631 239.257547 
L 826.556776 236.690823 
L 828.815522 230.282663 
L 829.568438 228.790287 
L 830.133124 228.041177 
L 830.697811 227.645138 
L 831.074269 227.586994 
L 831.450726 227.695126 
L 832.015413 228.164006 
L 832.5801 228.978883 
L 833.333015 230.542976 
L 834.274159 233.065115 
L 836.721135 239.923947 
L 837.47405 241.268299 
L 838.038737 241.835279 
L 838.415195 241.979135 
L 838.791652 241.929278 
L 839.16811 241.688627 
L 839.732797 240.985824 
L 840.485712 239.488919 
L 841.426857 236.972044 
L 843.873832 230.074681 
L 844.626748 228.646843 
L 845.191434 227.95171 
L 845.756121 227.615533 
L 846.132579 227.598018 
L 846.509036 227.746458 
L 847.073723 228.274383 
L 847.63841 229.145941 
L 848.391325 230.766385 
L 849.520698 233.892513 
L 851.402987 239.27778 
L 852.155903 240.83755 
L 852.720589 241.603084 
L 853.285276 241.961278 
L 853.661734 241.959874 
L 854.038191 241.76517 
L 854.602878 241.126479 
L 855.167565 240.111255 
L 855.92048 238.286845 
L 857.426311 233.853802 
L 858.743913 230.28177 
L 859.496829 228.790425 
L 860.061515 228.040439 
L 860.626202 227.644942 
L 861.00266 227.587089 
L 861.379118 227.695911 
L 861.943804 228.165393 
L 862.508491 228.983272 
L 863.261406 230.545786 
L 864.202551 233.067804 
L 866.649526 239.92532 
L 867.402442 241.26852 
L 867.967128 241.834791 
L 868.343586 241.978993 
L 868.720044 241.929605 
L 869.096501 241.688167 
L 869.661188 240.984174 
L 870.225875 239.913924 
L 871.167019 237.512013 
L 873.990452 229.6632 
L 874.743368 228.37359 
L 875.308054 227.796779 
L 875.872741 227.585892 
L 876.249199 227.653045 
L 876.813885 228.062293 
L 877.378572 228.824393 
L 878.131487 230.323573 
L 879.072632 232.794009 
L 881.707836 240.131577 
L 882.460752 241.394241 
L 883.025438 241.890569 
L 883.401896 241.984831 
L 883.778354 241.886353 
L 884.154811 241.596645 
L 884.719498 240.825218 
L 885.472414 239.253556 
L 886.413558 236.6864 
L 888.672304 230.280499 
L 889.42522 228.789819 
L 889.989907 228.039818 
L 890.554593 227.644746 
L 890.931051 227.58712 
L 891.307509 227.696187 
L 891.872195 228.166571 
L 892.436882 228.985292 
L 893.189797 230.549127 
L 894.130942 233.072704 
L 896.389688 239.512899 
L 897.142604 240.999588 
L 897.70729 241.69695 
L 898.083748 241.93333 
L 898.460206 241.977854 
L 898.836664 241.829903 
L 899.40135 241.256298 
L 899.966037 240.296922 
L 900.718952 238.531441 
L 902.036555 234.692853 
L 903.542386 230.493483 
L 904.295301 228.942414 
L 904.859988 228.137659 
L 905.424674 227.683636 
L 905.801132 227.585754 
L 906.17759 227.654511 
L 906.742276 228.06621 
L 907.306963 228.83103 
L 908.059879 230.333729 
L 909.001023 232.805853 
L 911.636227 240.141932 
L 912.389143 241.400658 
L 912.953829 241.893144 
L 913.330287 241.984783 
L 913.706745 241.882987 
L 914.083203 241.590961 
L 914.647889 240.815601 
L 915.400805 239.241764 
L 916.341949 236.674311 
L 918.600696 230.271097 
L 919.353611 228.785145 
L 919.918298 228.038114 
L 920.482984 227.643794 
L 920.859442 227.58727 
L 921.2359 227.697377 
L 921.800587 228.169132 
L 922.365273 228.986343 
L 923.118189 230.549397 
L 924.247562 233.624424 
L 926.31808 239.51273 
L 927.070995 240.999449 
L 927.635682 241.697113 
L 928.012139 241.933224 
L 928.388597 241.977824 
L 928.765055 241.828783 
L 929.329742 241.253244 
L 929.894428 240.293019 
L 930.647344 238.528392 
L 931.964946 234.689533 
L 933.470777 230.493349 
L 934.223692 228.943535 
L 934.788379 228.139545 
L 935.353066 227.684591 
L 935.729523 227.585857 
L 936.105981 227.653549 
L 936.670668 228.063494 
L 937.235354 228.826075 
L 937.98827 230.32829 
L 938.929414 232.803975 
L 941.564618 240.138265 
L 942.317534 241.399653 
L 942.882221 241.89224 
L 943.258678 241.984802 
L 943.635136 241.884077 
L 944.011594 241.592526 
L 944.57628 240.81852 
L 945.329196 239.244801 
L 946.27034 236.666591 
L 948.529087 230.267325 
L 949.282002 228.782939 
L 949.846689 228.035877 
L 950.411376 227.642626 
L 950.787833 227.587518 
L 951.164291 227.698415 
L 951.728978 228.170523 
L 952.293664 228.989822 
L 953.04658 230.554507 
L 953.987724 233.078867 
L 956.4347 239.935801 
L 957.187615 241.276341 
L 957.752302 241.839014 
L 958.128759 241.979756 
L 958.505217 241.927351 
L 958.881675 241.682577 
L 959.446362 240.97377 
L 960.199277 239.469729 
L 961.140421 236.946527 
L 963.587397 230.053373 
L 964.340312 228.632747 
L 964.904999 227.943429 
L 965.469686 227.613312 
L 965.846143 227.599749 
L 966.222601 227.752438 
L 966.787288 228.285547 
L 967.351974 229.160079 
L 968.10489 230.787907 
L 969.234263 233.918344 
L 970.363636 237.286425 
L 970.363636 237.286425 
" style="fill:none;stroke:#808080;stroke-linecap:square;stroke-width:4;"/>
   </g>
   <g id="line2d_3">
    <path clip-path="url(#p2bfd6b1881)" d="M 217.636364 60.293462 
L 222.906772 59.591718 
L 228.36541 59.087215 
L 233.824047 58.797665 
L 239.659142 58.710522 
L 245.306008 58.845121 
L 250.764646 59.180757 
L 256.223283 59.730686 
L 261.68192 60.501787 
L 266.575871 61.400914 
L 272.034509 62.642585 
L 277.116688 64.025602 
L 283.704699 66.105123 
L 299.515924 71.367225 
L 303.280502 72.272359 
L 306.480393 72.805752 
L 309.115597 73.049043 
L 311.93903 73.100955 
L 314.762463 72.933459 
L 317.774125 72.522661 
L 320.974016 71.849288 
L 324.550365 70.870375 
L 329.067858 69.41293 
L 343.185024 64.618026 
L 349.020119 62.952808 
L 353.914069 61.779279 
L 359.372707 60.704438 
L 364.266658 59.950648 
L 370.289982 59.276934 
L 375.372161 58.917199 
L 381.019027 58.725343 
L 386.665894 58.748731 
L 392.31276 58.98588 
L 397.959626 59.444969 
L 403.418264 60.110232 
L 408.688672 60.976973 
L 413.582623 61.985901 
L 419.04126 63.358229 
L 423.746982 64.731886 
L 431.464366 67.29877 
L 440.687581 70.454311 
L 445.016845 71.695952 
L 448.404965 72.442746 
L 451.604856 72.907607 
L 454.428289 73.095186 
L 457.251722 73.060842 
L 460.075155 72.806757 
L 463.086817 72.314566 
L 466.286708 71.576303 
L 470.239514 70.425363 
L 475.509923 68.651343 
L 485.674282 65.173427 
L 491.321148 63.478844 
L 496.02687 62.259713 
L 500.544363 61.270562 
L 505.626543 60.369211 
L 511.461638 59.587755 
L 517.296733 59.061032 
L 523.131828 58.774052 
L 528.966924 58.716393 
L 534.802019 58.888925 
L 540.448885 59.276801 
L 545.719293 59.849484 
L 551.930846 60.778987 
L 557.013026 61.781777 
L 561.718748 62.900954 
L 567.177385 64.436206 
L 573.765396 66.570552 
L 589.011935 71.579706 
L 592.400055 72.358256 
L 595.411717 72.833908 
L 598.23515 73.071076 
L 601.058583 73.08962 
L 603.882016 72.889696 
L 606.705449 72.477959 
L 609.90534 71.793445 
L 614.046375 70.6341 
L 618.375639 69.211534 
L 633.433949 64.161585 
L 638.704358 62.707376 
L 644.539453 61.381497 
L 649.433404 60.485808 
L 654.327355 59.7813 
L 659.409534 59.248628 
L 664.868172 58.882253 
L 670.891496 58.713748 
L 676.538362 58.776213 
L 682.185228 59.056025 
L 687.455637 59.519713 
L 693.290732 60.268342 
L 698.937598 61.24988 
L 703.831549 62.320955 
L 709.290186 63.750235 
L 715.31351 65.593727 
L 721.901521 67.834122 
L 730.37182 70.693002 
L 734.324627 71.796314 
L 737.712746 72.515144 
L 740.912637 72.94819 
L 743.73607 73.103894 
L 746.559504 73.039409 
L 749.382937 72.758089 
L 752.394599 72.236331 
L 755.970947 71.369213 
L 760.111983 70.121383 
L 767.26468 67.66203 
L 777.052581 64.395144 
L 782.511219 62.860644 
L 788.911 61.384325 
L 793.99318 60.454131 
L 799.07536 59.737603 
L 804.722226 59.172437 
L 810.369092 58.834166 
L 815.82773 58.710389 
L 821.662825 58.798288 
L 827.121462 59.087118 
L 832.768328 59.603864 
L 838.415195 60.361795 
L 843.873832 61.33188 
L 849.144241 62.517124 
L 853.849962 63.772663 
L 861.190889 66.06217 
L 869.849417 69.05092 
L 876.06097 71.059408 
L 880.202005 72.124163 
L 883.401896 72.710141 
L 886.413558 73.030066 
L 889.236991 73.105967 
L 892.060424 72.960328 
L 895.072086 72.571112 
L 898.271977 71.9234 
L 902.036555 70.908692 
L 906.17759 69.586163 
L 913.518516 67.026104 
L 921.612358 64.377676 
L 928.012139 62.605839 
L 933.470777 61.368917 
L 939.305872 60.323932 
L 944.011594 59.682125 
L 949.65846 59.133673 
L 955.870013 58.793588 
L 961.893337 58.712063 
L 967.540203 58.854847 
L 970.363636 59.007097 
L 970.363636 59.007097 
" style="fill:none;stroke:#808080;stroke-linecap:square;stroke-width:4;"/>
   </g>
   <g id="line2d_4">
    <path clip-path="url(#p2bfd6b1881)" d="M 217.636364 44.567462 
L 217.824593 44.443636 
L 218.389279 45.59379 
L 218.577508 45.611746 
L 218.953966 45.290523 
L 219.142195 44.894123 
L 219.706881 45.306737 
L 219.89511 45.073599 
L 220.083339 45.095294 
L 220.271568 45.259599 
L 220.459797 45.228254 
L 220.648026 45.319131 
L 221.212712 45.032898 
L 221.58917 45.176535 
L 221.777399 45.255322 
L 222.342086 45.026305 
L 222.718543 44.912652 
L 222.906772 44.780079 
L 223.659688 44.876704 
L 223.847917 44.882617 
L 224.036145 45.03863 
L 224.412603 44.797895 
L 224.789061 44.89262 
L 225.165519 44.992871 
L 225.353748 44.956603 
L 225.918434 45.185329 
L 227.047807 45.22551 
L 227.424265 45.321368 
L 227.800723 45.395385 
L 228.553638 45.56472 
L 229.306554 45.900327 
L 229.683012 45.846677 
L 229.871241 45.859046 
L 230.059469 45.75383 
L 230.624156 45.792076 
L 231.188843 45.747212 
L 232.318216 45.729156 
L 232.694674 45.759526 
L 236.64748 45.110223 
L 237.400396 45.126861 
L 239.659142 45.043779 
L 240.976744 45.010556 
L 242.106117 45.000757 
L 242.670804 44.994477 
L 244.929551 44.907678 
L 246.058924 44.963124 
L 247.941213 44.995006 
L 249.070586 44.97651 
L 252.270477 44.958685 
L 253.39985 44.922662 
L 254.905681 44.89378 
L 296.316034 44.943439 
L 299.327696 44.939082 
L 302.151129 44.950305 
L 305.35102 44.922203 
L 308.174453 44.946808 
L 309.492055 44.971758 
L 316.456523 44.96504 
L 320.785787 44.930883 
L 352.784696 44.95238 
L 364.266658 44.960607 
L 381.771943 44.953792 
L 540.260656 44.963358 
L 557.95417 44.960843 
L 630.610516 44.965544 
L 698.749369 44.979132 
L 714.184137 44.985764 
L 802.275251 44.968974 
L 825.239173 44.975435 
L 847.826638 44.977784 
L 866.649526 44.986398 
L 970.175407 44.982352 
L 970.175407 44.982352 
" style="fill:none;stroke:#000000;stroke-linecap:square;stroke-width:1.5;"/>
   </g>
   <g id="line2d_5">
    <path clip-path="url(#p2bfd6b1881)" d="M 217.636364 227.518881 
L 217.824593 227.215435 
L 218.389279 229.091255 
L 218.577508 229.063259 
L 218.765737 229.412504 
L 218.953966 229.374868 
L 219.142195 229.825528 
L 219.330424 229.785908 
L 219.89511 230.800498 
L 220.836255 233.502559 
L 221.965628 236.709593 
L 222.530314 238.474943 
L 223.471459 240.448519 
L 224.036145 241.118045 
L 224.224374 241.475264 
L 224.412603 241.583048 
L 224.600832 241.880345 
L 225.353748 242.116364 
L 225.541976 241.819553 
L 225.730205 241.751274 
L 226.294892 241.028343 
L 226.859579 239.877437 
L 227.424265 238.400443 
L 228.177181 236.222679 
L 229.118325 233.299081 
L 230.247698 230.146708 
L 231.5653 227.993947 
L 231.941758 227.685285 
L 232.506445 227.494166 
L 233.071131 227.7025 
L 233.447589 228.055688 
L 234.200505 229.247618 
L 234.95342 231.057403 
L 236.459251 235.151621 
L 238.153311 239.878379 
L 238.717998 241.023826 
L 239.470913 241.861219 
L 240.0356 241.990979 
L 240.412058 241.840306 
L 240.788515 241.501714 
L 241.353202 240.640981 
L 241.917889 239.484947 
L 242.859033 236.947633 
L 245.117779 230.462384 
L 245.870695 228.912836 
L 246.435382 228.142019 
L 247.000068 227.692757 
L 247.564755 227.582346 
L 247.941213 227.709609 
L 248.505899 228.234128 
L 249.258815 229.47817 
L 250.199959 231.7205 
L 253.39985 240.60311 
L 254.152765 241.70964 
L 254.717452 242.086337 
L 255.09391 242.073215 
L 255.658596 241.709099 
L 256.035054 241.222811 
L 256.78797 239.772329 
L 257.729114 237.249396 
L 260.364318 229.758216 
L 261.117234 228.4137 
L 261.68192 227.788467 
L 262.058378 227.557779 
L 262.623065 227.539961 
L 263.187751 227.908305 
L 263.752438 228.63653 
L 264.505354 230.096609 
L 265.634727 233.116374 
L 267.893473 239.608974 
L 268.646389 241.092548 
L 269.211075 241.771108 
L 269.775762 242.045224 
L 270.15222 241.974005 
L 270.528678 241.721467 
L 271.093364 241.033078 
L 271.658051 239.95295 
L 272.410966 238.064507 
L 273.728569 234.10456 
L 274.857942 230.933587 
L 275.799086 228.885157 
L 276.552002 227.881138 
L 276.928459 227.601715 
L 277.493146 227.515967 
L 277.869604 227.653504 
L 278.43429 228.198707 
L 278.998977 229.089502 
L 279.751893 230.735701 
L 280.881266 233.904574 
L 282.763555 239.375424 
L 283.51647 240.954509 
L 284.081157 241.694533 
L 284.645843 242.052614 
L 285.022301 242.044874 
L 285.398759 241.85613 
L 285.963445 241.224118 
L 286.528132 240.193255 
L 287.469276 237.795409 
L 290.480938 229.433188 
L 291.233854 228.200437 
L 291.798541 227.673422 
L 292.174998 227.534304 
L 292.551456 227.55723 
L 293.116143 227.939308 
L 293.680829 228.648715 
L 294.433745 230.078421 
L 295.374889 232.509236 
L 298.198322 240.367619 
L 298.763009 241.315665 
L 299.327696 241.886651 
L 299.704153 242.031651 
L 300.080611 241.976266 
L 300.457069 241.734355 
L 301.021755 241.020001 
L 301.586442 239.937509 
L 302.527586 237.496133 
L 305.35102 229.61361 
L 306.103935 228.330856 
L 306.668622 227.769347 
L 307.233308 227.566258 
L 307.797995 227.735796 
L 308.362682 228.26983 
L 308.927368 229.147386 
L 309.680284 230.790174 
L 310.809657 233.915825 
L 312.691946 239.315528 
L 313.444861 240.870587 
L 314.009548 241.631431 
L 314.574234 241.987465 
L 314.950692 241.974413 
L 315.32715 241.772183 
L 315.891837 241.127761 
L 316.456523 240.114184 
L 317.209439 238.278548 
L 318.903499 233.272193 
L 320.032872 230.250607 
L 320.785787 228.761563 
L 321.350474 228.018044 
L 321.915161 227.634125 
L 322.291618 227.580155 
L 322.856305 227.806998 
L 323.420992 228.3981 
L 324.173907 229.713559 
L 324.926823 231.507923 
L 326.432654 235.910385 
L 327.750256 239.538503 
L 328.503171 241.031853 
L 329.067858 241.727579 
L 329.632544 242.011919 
L 330.009002 241.964086 
L 330.38546 241.716519 
L 330.950147 240.998841 
L 331.514833 239.910344 
L 332.267749 238.020133 
L 335.46764 229.246588 
L 336.220555 228.098709 
L 336.785242 227.65106 
L 337.1617 227.558763 
L 337.538157 227.631834 
L 338.102844 228.051333 
L 338.667531 228.817823 
L 339.420446 230.333558 
L 340.36159 232.828382 
L 342.808566 239.769032 
L 343.561481 241.184872 
L 344.126168 241.813534 
L 344.502626 242.001244 
L 344.879083 241.994058 
L 345.255541 241.791703 
L 345.820228 241.138974 
L 346.384914 240.111893 
L 347.13783 238.278433 
L 348.643661 233.827755 
L 349.773034 230.694355 
L 350.52595 229.080663 
L 351.278865 228.012979 
L 351.843552 227.62186 
L 352.22001 227.568898 
L 352.596467 227.686448 
L 353.161154 228.168806 
L 353.725841 228.994925 
L 354.478756 230.568553 
L 355.4199 233.094271 
L 357.866876 239.969545 
L 358.619791 241.30429 
L 359.184478 241.867624 
L 359.560936 242.004139 
L 359.937393 241.948733 
L 360.313851 241.698739 
L 360.878538 240.983151 
L 361.443224 239.90449 
L 362.384369 237.487707 
L 365.207802 229.638046 
L 365.960717 228.35758 
L 366.525404 227.786411 
L 367.090091 227.579777 
L 367.466548 227.652628 
L 368.031235 228.066428 
L 368.595922 228.833977 
L 369.348837 230.344487 
L 370.289982 232.83085 
L 372.736957 239.753822 
L 373.489872 241.168453 
L 374.054559 241.793532 
L 374.431017 241.980358 
L 374.807475 241.972533 
L 375.183932 241.772742 
L 375.748619 241.126098 
L 376.313306 240.10275 
L 377.066221 238.272331 
L 378.572052 233.823115 
L 379.889654 230.252781 
L 380.64257 228.769788 
L 381.207256 228.027653 
L 381.771943 227.637561 
L 382.148401 227.582579 
L 382.524858 227.695083 
L 383.089545 228.172924 
L 383.654232 229.000691 
L 384.407147 230.571625 
L 385.348292 233.0917 
L 387.795267 239.967434 
L 388.548183 241.304754 
L 389.112869 241.863491 
L 389.489327 242.000657 
L 389.865785 241.944769 
L 390.242242 241.698407 
L 390.806929 240.984755 
L 391.371616 239.903825 
L 392.31276 237.488098 
L 395.136193 229.638415 
L 395.889109 228.354077 
L 396.453795 227.782288 
L 397.018482 227.577469 
L 397.39494 227.65118 
L 397.959626 228.069075 
L 398.524313 228.83987 
L 399.277228 230.342965 
L 400.218373 232.830744 
L 402.853577 240.174374 
L 403.606493 241.430416 
L 404.171179 241.919445 
L 404.547637 242.006726 
L 404.924095 241.900106 
L 405.300552 241.605115 
L 405.865239 240.823362 
L 406.618155 239.242446 
L 407.559299 236.660861 
L 409.629817 230.69598 
L 410.382732 229.090895 
L 411.135648 228.028068 
L 411.700334 227.641856 
L 412.076792 227.589887 
L 412.45325 227.70823 
L 413.017936 228.187922 
L 413.582623 229.009015 
L 414.335538 230.584826 
L 415.276683 233.117973 
L 417.535429 239.538296 
L 418.288345 241.022918 
L 418.853031 241.71747 
L 419.229489 241.95366 
L 419.605947 241.995055 
L 419.982405 241.842766 
L 420.547091 241.261998 
L 421.111778 240.298361 
L 421.864693 238.523255 
L 423.182296 234.678251 
L 424.688127 230.477881 
L 425.441042 228.931047 
L 426.005729 228.132925 
L 426.570415 227.684201 
L 426.946873 227.58698 
L 427.323331 227.659289 
L 427.888017 228.073464 
L 428.452704 228.843355 
L 429.20562 230.353803 
L 430.146764 232.830524 
L 432.593739 239.756356 
L 433.346655 241.164144 
L 433.911341 241.790492 
L 434.287799 241.979562 
L 434.664257 241.970491 
L 435.040715 241.768202 
L 435.605401 241.118832 
L 436.170088 240.095194 
L 436.923003 238.267193 
L 438.617063 233.265522 
L 439.746437 230.256318 
L 440.499352 228.772325 
L 441.064039 228.028033 
L 441.628725 227.644176 
L 442.005183 227.588205 
L 442.381641 227.703919 
L 442.946327 228.18391 
L 443.511014 229.009311 
L 444.26393 230.583077 
L 445.205074 233.112615 
L 447.463821 239.535581 
L 448.216736 241.022026 
L 448.781423 241.720584 
L 449.15788 241.952198 
L 449.534338 241.992943 
L 449.910796 241.839842 
L 450.475483 241.259086 
L 451.040169 240.290623 
L 451.793085 238.51808 
L 453.110687 234.667184 
L 454.616518 230.466466 
L 455.369433 228.917702 
L 455.93412 228.116327 
L 456.498807 227.670539 
L 456.875264 227.579597 
L 457.251722 227.6535 
L 457.816409 228.068981 
L 458.381095 228.837946 
L 459.134011 230.348947 
L 460.263384 233.375189 
L 462.522131 239.761796 
L 463.275046 241.172369 
L 463.839733 241.803076 
L 464.21619 241.991495 
L 464.592648 241.982181 
L 464.969106 241.780102 
L 465.533793 241.131723 
L 466.098479 240.110335 
L 466.851395 238.276585 
L 468.357226 233.826884 
L 469.486599 230.697023 
L 470.239514 229.087968 
L 470.804201 228.229396 
L 471.368888 227.716486 
L 471.745345 227.579372 
L 472.121803 227.609991 
L 472.498261 227.805875 
L 473.062948 228.402924 
L 473.627634 229.334835 
L 474.38055 231.023687 
L 475.509923 234.210906 
L 477.392212 239.551219 
L 478.145127 241.036502 
L 478.709814 241.725031 
L 479.086272 241.958888 
L 479.462729 241.999867 
L 479.839187 241.846783 
L 480.403874 241.264913 
L 480.96856 240.298182 
L 481.721476 238.522026 
L 483.039078 234.675374 
L 484.544909 230.47116 
L 485.297824 228.921304 
L 485.862511 228.119741 
L 486.427198 227.671066 
L 486.803655 227.575323 
L 487.180113 227.64682 
L 487.7448 228.063349 
L 488.309486 228.831076 
L 489.062402 230.338333 
L 490.003546 232.819496 
L 492.638751 240.162247 
L 493.391666 241.427568 
L 493.956353 241.916887 
L 494.33281 242.008082 
L 494.709268 241.90488 
L 495.085726 241.608214 
L 495.650413 240.829668 
L 496.403328 239.246281 
L 497.344472 236.663279 
L 499.41499 230.698195 
L 500.167906 229.085388 
L 500.920821 228.019075 
L 501.485508 227.628982 
L 501.861965 227.574957 
L 502.238423 227.688736 
L 502.80311 228.163931 
L 503.367796 228.988042 
L 504.120712 230.560102 
L 505.061856 233.08674 
L 507.320603 239.539428 
L 508.073518 241.029047 
L 508.638205 241.722513 
L 509.014663 241.957066 
L 509.391121 241.999232 
L 509.767578 241.848289 
L 510.332265 241.267448 
L 510.896952 240.303595 
L 511.649867 238.533385 
L 512.967469 234.682406 
L 514.4733 230.476124 
L 515.226216 228.925366 
L 515.790902 228.121029 
L 516.355589 227.669376 
L 516.732047 227.573494 
L 517.108504 227.645611 
L 517.673191 228.059543 
L 518.237878 228.828063 
L 518.990793 230.338669 
L 519.931938 232.8152 
L 522.567142 240.163624 
L 523.320057 241.421362 
L 523.884744 241.912337 
L 524.261202 242.004112 
L 524.637659 241.899642 
L 525.014117 241.604279 
L 525.578804 240.823457 
L 526.331719 239.24525 
L 527.272864 236.665734 
L 529.53161 230.252738 
L 530.284526 228.766464 
L 530.849212 228.021679 
L 531.413899 227.632712 
L 531.790357 227.579173 
L 532.166814 227.693906 
L 532.731501 228.171252 
L 533.296188 228.995294 
L 534.049103 230.562601 
L 534.990248 233.086815 
L 537.437223 239.952597 
L 538.190138 241.291352 
L 538.754825 241.853237 
L 539.131283 241.994262 
L 539.507741 241.937956 
L 539.884198 241.690976 
L 540.448885 240.978563 
L 541.013572 239.900619 
L 541.954716 237.488002 
L 544.778149 229.637397 
L 545.531065 228.353782 
L 546.095751 227.782299 
L 546.660438 227.576164 
L 547.036896 227.647492 
L 547.601582 228.060339 
L 548.166269 228.826885 
L 548.919184 230.336864 
L 549.860329 232.8181 
L 552.307304 239.738041 
L 553.06022 241.157326 
L 553.624906 241.785033 
L 554.001364 241.9733 
L 554.377822 241.968838 
L 554.754279 241.771628 
L 555.318966 241.129047 
L 555.883653 240.110454 
L 556.636568 238.287746 
L 558.142399 233.846312 
L 559.460001 230.272059 
L 560.212917 228.783233 
L 560.777603 228.034345 
L 561.34229 227.640904 
L 561.718748 227.584821 
L 562.095206 227.693419 
L 562.659892 228.166367 
L 563.224579 228.984341 
L 563.977494 230.551405 
L 564.918639 233.077635 
L 567.365614 239.94002 
L 568.11853 241.277744 
L 568.683216 241.841819 
L 569.059674 241.983409 
L 569.436132 241.932259 
L 569.81259 241.689175 
L 570.377276 240.981244 
L 570.941963 239.906591 
L 571.883107 237.500354 
L 574.70654 229.655945 
L 575.459456 228.367948 
L 576.024142 227.79246 
L 576.588829 227.582584 
L 576.965287 227.650644 
L 577.529973 228.062069 
L 578.09466 228.825605 
L 578.847576 230.325171 
L 579.78872 232.80153 
L 582.235695 239.737427 
L 582.988611 241.154137 
L 583.553297 241.782965 
L 583.929755 241.971141 
L 584.306213 241.967325 
L 584.682671 241.767767 
L 585.247357 241.124399 
L 585.812044 240.103361 
L 586.564959 238.277855 
L 588.07079 233.835164 
L 589.388393 230.2643 
L 590.141308 228.775722 
L 590.705995 228.028567 
L 591.270681 227.6365 
L 591.647139 227.580381 
L 592.023597 227.69274 
L 592.588283 228.170446 
L 593.15297 228.996414 
L 593.905886 230.565231 
L 594.84703 233.096295 
L 597.105776 239.527704 
L 597.858692 241.013041 
L 598.423379 241.70992 
L 598.799836 241.944837 
L 599.176294 241.987684 
L 599.552752 241.836855 
L 600.117438 241.259312 
L 600.682125 240.298602 
L 601.435041 238.530707 
L 602.752643 234.688122 
L 604.258474 230.485037 
L 605.011389 228.932515 
L 605.576076 228.128596 
L 606.140762 227.675652 
L 606.51722 227.578005 
L 606.893678 227.647612 
L 607.458365 228.06026 
L 608.023051 228.826141 
L 608.775967 230.327712 
L 609.717111 232.804533 
L 612.352315 240.146851 
L 613.105231 241.41287 
L 613.669917 241.910263 
L 614.046375 242.004057 
L 614.422833 241.903944 
L 614.799291 241.611155 
L 615.363977 240.836261 
L 616.116893 239.261402 
L 617.058037 236.684192 
L 619.316784 230.26606 
L 620.069699 228.775142 
L 620.634386 228.026903 
L 621.199072 227.630972 
L 621.57553 227.573516 
L 621.951988 227.684125 
L 622.516675 228.155522 
L 623.081361 228.972744 
L 623.834277 230.540846 
L 624.775421 233.070173 
L 627.222397 239.94883 
L 627.975312 241.292961 
L 628.539999 241.858956 
L 628.916456 242.000532 
L 629.292914 241.948746 
L 629.669372 241.704722 
L 630.234059 240.995005 
L 630.986974 239.488084 
L 631.928118 236.96193 
L 634.375094 230.054027 
L 635.128009 228.62544 
L 635.692696 227.934235 
L 636.257383 227.601485 
L 636.63384 227.585655 
L 637.010298 227.736807 
L 637.574985 228.270282 
L 638.139671 229.147702 
L 638.892587 230.777913 
L 640.02196 233.918792 
L 641.904249 239.309141 
L 642.657164 240.86618 
L 643.221851 241.627881 
L 643.786538 241.980438 
L 644.162995 241.975403 
L 644.539453 241.777036 
L 645.10414 241.132567 
L 645.668826 240.111291 
L 646.421742 238.28573 
L 647.927573 233.840323 
L 649.245175 230.263365 
L 649.99809 228.774397 
L 650.562777 228.026845 
L 651.127464 227.634922 
L 651.503921 227.579536 
L 651.880379 227.690194 
L 652.445066 228.162041 
L 653.009752 228.982929 
L 653.762668 230.554386 
L 654.703812 233.084717 
L 657.150788 239.955371 
L 657.903703 241.291917 
L 658.46839 241.854167 
L 658.844848 241.994851 
L 659.221305 241.942284 
L 659.597763 241.696504 
L 660.16245 240.985077 
L 660.727136 239.90584 
L 661.668281 237.496256 
L 664.491714 229.644069 
L 665.244629 228.359038 
L 665.809316 227.785472 
L 666.374003 227.579354 
L 666.75046 227.649495 
L 667.315147 228.063181 
L 667.879834 228.829989 
L 668.632749 230.337895 
L 669.573893 232.812599 
L 672.209098 240.153787 
L 672.962013 241.413575 
L 673.5267 241.905539 
L 673.903158 241.997178 
L 674.279615 241.89579 
L 674.656073 241.601271 
L 675.22076 240.82587 
L 675.973675 239.249077 
L 676.91482 236.670538 
L 679.173566 230.256652 
L 679.926482 228.77318 
L 680.491168 228.027879 
L 681.055855 227.637109 
L 681.432313 227.58415 
L 681.80877 227.696837 
L 682.373457 228.173453 
L 682.938144 228.998996 
L 683.691059 230.568667 
L 684.820432 233.654691 
L 686.89095 239.537041 
L 687.643866 241.021452 
L 688.208552 241.712528 
L 688.58501 241.9462 
L 688.961468 241.987405 
L 689.337925 241.834127 
L 689.902612 241.255267 
L 690.467299 240.29067 
L 691.220214 238.520422 
L 692.537816 234.67907 
L 694.043647 230.480143 
L 694.796563 228.933215 
L 695.361249 228.131615 
L 695.925936 227.67985 
L 696.302394 227.583342 
L 696.678852 227.654924 
L 697.243538 228.070178 
L 697.808225 228.837692 
L 698.56114 230.346478 
L 699.502285 232.823676 
L 702.137489 240.154289 
L 702.890404 241.410795 
L 703.455091 241.899883 
L 703.831549 241.990118 
L 704.208007 241.885089 
L 704.584464 241.591415 
L 705.149151 240.816042 
L 705.902066 239.238661 
L 706.843211 236.665911 
L 709.101957 230.267025 
L 709.854873 228.782061 
L 710.419559 228.036633 
L 710.984246 227.646594 
L 711.360704 227.592065 
L 711.737162 227.703132 
L 712.301848 228.178563 
L 712.866535 229.000014 
L 713.61945 230.566617 
L 714.560595 233.091021 
L 717.00757 239.942632 
L 717.760486 241.280076 
L 718.325172 241.841489 
L 718.70163 241.98145 
L 719.078088 241.928518 
L 719.454545 241.683491 
L 720.019232 240.974867 
L 720.772148 239.471425 
L 721.713292 236.951902 
L 724.160267 230.059196 
L 724.913183 228.638262 
L 725.477869 227.949595 
L 726.042556 227.619607 
L 726.419014 227.605787 
L 726.795472 227.757848 
L 727.360158 228.286759 
L 727.924845 229.161848 
L 728.67776 230.78863 
L 729.807134 233.922769 
L 731.689422 239.303427 
L 732.442338 240.858186 
L 733.007024 241.617752 
L 733.571711 241.96911 
L 733.948169 241.962336 
L 734.324627 241.762984 
L 734.889313 241.116599 
L 735.454 240.094852 
L 736.206915 238.269636 
L 737.712746 233.82312 
L 739.030348 230.255729 
L 739.783264 228.772001 
L 740.347951 228.029778 
L 740.912637 227.641819 
L 741.289095 227.58897 
L 741.665553 227.703202 
L 742.230239 228.180622 
L 742.794926 229.006963 
L 743.547842 230.577672 
L 744.488986 233.106309 
L 746.747732 239.544224 
L 747.500648 241.024199 
L 748.065335 241.715308 
L 748.441792 241.947964 
L 748.81825 241.988966 
L 749.194708 241.836818 
L 749.759394 241.254754 
L 750.324081 240.289866 
L 751.076997 238.518833 
L 752.394599 234.674798 
L 753.90043 230.473391 
L 754.653345 228.924708 
L 755.218032 228.124026 
L 755.782718 227.675297 
L 756.159176 227.580677 
L 756.535634 227.652132 
L 757.100321 228.069594 
L 757.665007 228.835879 
L 758.417923 230.344383 
L 759.359067 232.821861 
L 761.806042 239.751699 
L 762.558958 241.165432 
L 763.123645 241.791943 
L 763.500102 241.979949 
L 763.87656 241.97399 
L 764.253018 241.775044 
L 764.817704 241.129463 
L 765.382391 240.106285 
L 766.135307 238.277435 
L 767.641138 233.834391 
L 768.770511 230.708542 
L 769.523426 229.094792 
L 770.276342 228.02545 
L 770.841028 227.633475 
L 771.217486 227.578778 
L 771.593944 227.690774 
L 772.158631 228.165331 
L 772.723317 228.98865 
L 773.476233 230.557556 
L 774.417377 233.08858 
L 776.864352 239.96008 
L 777.617268 241.297428 
L 778.181955 241.85711 
L 778.558412 241.99667 
L 778.93487 241.942832 
L 779.311328 241.69687 
L 779.876014 240.984963 
L 780.440701 239.907742 
L 781.381845 237.497237 
L 784.01705 230.052961 
L 784.769965 228.62928 
L 785.334652 227.939875 
L 785.899338 227.608685 
L 786.275796 227.595503 
L 786.652254 227.749718 
L 787.216941 228.283899 
L 787.781627 229.162178 
L 788.534543 230.788184 
L 789.663916 233.924642 
L 791.546205 239.309805 
L 792.29912 240.862973 
L 792.863807 241.623695 
L 793.428493 241.976908 
L 793.804951 241.970526 
L 794.181409 241.771579 
L 794.746096 241.126741 
L 795.310782 240.104077 
L 796.063698 238.278622 
L 797.569529 233.843749 
L 798.887131 230.271696 
L 799.640046 228.783218 
L 800.204733 228.036361 
L 800.76942 227.643045 
L 801.145877 227.586957 
L 801.522335 227.69864 
L 802.087022 228.171001 
L 802.651708 228.9903 
L 803.404624 230.555072 
L 804.345768 233.079612 
L 806.604515 239.515261 
L 807.35743 241.005487 
L 807.922117 241.704935 
L 808.298575 241.941579 
L 808.675032 241.98682 
L 809.05149 241.837714 
L 809.616177 241.264467 
L 810.180863 240.306145 
L 810.933779 238.541765 
L 812.251381 234.705495 
L 813.757212 230.502238 
L 814.510128 228.949155 
L 815.074814 228.143488 
L 815.639501 227.686614 
L 816.015959 227.588878 
L 816.392416 227.656359 
L 816.957103 228.064937 
L 817.52179 228.826212 
L 818.274705 230.330853 
L 819.215849 232.802221 
L 821.851054 240.134032 
L 822.603969 241.396214 
L 823.168656 241.893659 
L 823.545114 241.989385 
L 823.921571 241.890018 
L 824.298029 241.60097 
L 824.862716 240.82947 
L 825.615631 239.257106 
L 826.556776 236.689046 
L 828.815522 230.283337 
L 829.568438 228.793997 
L 830.133124 228.045738 
L 830.697811 227.650758 
L 831.074269 227.59339 
L 831.450726 227.702591 
L 832.015413 228.172207 
L 832.5801 228.988519 
L 833.333015 230.554603 
L 834.462388 233.629004 
L 836.532906 239.503849 
L 837.285821 240.994575 
L 837.850508 241.693645 
L 838.226966 241.932235 
L 838.603424 241.978167 
L 838.979881 241.829795 
L 839.544568 241.259118 
L 840.109255 240.303597 
L 840.86217 238.543224 
L 842.179772 234.710028 
L 843.685603 230.510636 
L 844.438519 228.959816 
L 845.003205 228.153309 
L 845.567892 227.69693 
L 845.94435 227.596709 
L 846.320807 227.663035 
L 846.885494 228.071889 
L 847.450181 228.83392 
L 848.203096 230.331967 
L 849.144241 232.801714 
L 851.779445 240.129715 
L 852.53236 241.389821 
L 853.097047 241.885813 
L 853.473505 241.979515 
L 853.849962 241.879859 
L 854.22642 241.589241 
L 854.791107 240.817212 
L 855.544022 239.246857 
L 856.673396 236.119289 
L 858.555684 230.730478 
L 859.3086 229.119197 
L 859.873287 228.26073 
L 860.437973 227.747672 
L 860.814431 227.609737 
L 861.190889 227.636946 
L 861.567346 227.829668 
L 862.132033 228.419882 
L 862.69672 229.345747 
L 863.449635 231.027086 
L 864.579008 234.19859 
L 866.461297 239.505413 
L 867.214213 240.991116 
L 867.778899 241.686943 
L 868.155357 241.924223 
L 868.531815 241.970598 
L 868.908273 241.823276 
L 869.472959 241.251512 
L 870.037646 240.295406 
L 870.790561 238.533755 
L 872.108163 234.700556 
L 873.613994 230.502408 
L 874.36691 228.952885 
L 874.931597 228.150027 
L 875.496283 227.696247 
L 875.872741 227.598982 
L 876.249199 227.668139 
L 876.813885 228.080372 
L 877.378572 228.844052 
L 878.131487 230.344289 
L 879.072632 232.814727 
L 881.707836 240.139689 
L 882.460752 241.396739 
L 883.025438 241.888953 
L 883.401896 241.980333 
L 883.778354 241.879261 
L 884.154811 241.586901 
L 884.719498 240.813115 
L 885.472414 239.239752 
L 886.601787 236.110872 
L 888.484076 230.718479 
L 889.236991 229.110233 
L 889.801678 228.253247 
L 890.366364 227.73967 
L 890.742822 227.601247 
L 891.11928 227.629819 
L 891.495738 227.825266 
L 892.060424 228.418131 
L 892.625111 229.347186 
L 893.378026 231.033423 
L 894.5074 234.215099 
L 896.201459 239.076955 
L 896.954375 240.695512 
L 897.519062 241.518047 
L 898.083748 241.937654 
L 898.460206 241.978984 
L 898.836664 241.826768 
L 899.40135 241.249173 
L 899.966037 240.28657 
L 900.718952 238.518875 
L 902.036555 234.677759 
L 903.542386 230.482149 
L 904.295301 228.935125 
L 904.859988 228.133217 
L 905.424674 227.683639 
L 905.801132 227.587573 
L 906.17759 227.65884 
L 906.742276 228.075305 
L 907.306963 228.843019 
L 908.059879 230.348435 
L 909.001023 232.824307 
L 911.636227 240.160174 
L 912.389143 241.41484 
L 912.953829 241.903259 
L 913.330287 241.99212 
L 913.706745 241.887504 
L 914.083203 241.592872 
L 914.647889 240.814761 
L 915.400805 239.236227 
L 916.341949 236.664229 
L 918.600696 230.259641 
L 919.353611 228.776094 
L 919.918298 228.030973 
L 920.482984 227.639767 
L 920.859442 227.585254 
L 921.2359 227.698183 
L 921.800587 228.173046 
L 922.365273 228.99369 
L 923.118189 230.560175 
L 924.247562 233.638535 
L 926.31808 239.53143 
L 927.070995 241.016404 
L 927.635682 241.711998 
L 928.012139 241.946101 
L 928.388597 241.989069 
L 928.765055 241.83769 
L 929.329742 241.259539 
L 929.894428 240.295769 
L 930.647344 238.527248 
L 931.964946 234.683384 
L 933.470777 230.483456 
L 934.223692 228.934005 
L 934.788379 228.13139 
L 935.353066 227.677822 
L 935.729523 227.581197 
L 936.105981 227.65076 
L 936.670668 228.063274 
L 937.235354 228.829268 
L 937.98827 230.335466 
L 938.929414 232.81538 
L 941.564618 240.153419 
L 942.317534 241.414463 
L 942.882221 241.904419 
L 943.258678 241.995802 
L 943.635136 241.893669 
L 944.011594 241.599902 
L 944.57628 240.823406 
L 945.329196 239.247673 
L 946.27034 236.666174 
L 948.529087 230.262654 
L 949.282002 228.778087 
L 949.846689 228.031865 
L 950.411376 227.640898 
L 950.787833 227.585869 
L 951.164291 227.697638 
L 951.728978 228.170859 
L 952.293664 228.991746 
L 953.04658 230.559136 
L 953.987724 233.087037 
L 956.4347 239.946394 
L 957.187615 241.287372 
L 957.752302 241.849639 
L 958.128759 241.989475 
L 958.505217 241.936969 
L 958.881675 241.691414 
L 959.446362 240.981361 
L 960.199277 239.475717 
L 961.140421 236.949313 
L 963.587397 230.052006 
L 964.340312 228.63153 
L 964.904999 227.94265 
L 965.469686 227.612887 
L 965.846143 227.600243 
L 966.222601 227.753521 
L 966.787288 228.287597 
L 967.351974 229.163316 
L 968.10489 230.793386 
L 969.234263 233.926343 
L 970.175407 236.74797 
L 970.175407 236.74797 
" style="fill:none;stroke:#000000;stroke-linecap:square;stroke-width:1.5;"/>
   </g>
   <g id="line2d_6">
    <path clip-path="url(#p2bfd6b1881)" d="M 217.636364 60.080622 
L 217.824593 60.501398 
L 218.012821 60.551827 
L 218.20105 60.486503 
L 218.765737 61.166359 
L 219.142195 60.634495 
L 219.330424 60.205412 
L 219.518652 60.254105 
L 219.89511 60.108375 
L 220.083339 60.203841 
L 220.271568 60.153963 
L 220.459797 59.97021 
L 221.024483 59.956769 
L 222.342086 59.72796 
L 222.718543 59.86323 
L 223.095001 59.535964 
L 223.659688 59.420503 
L 224.224374 59.655474 
L 224.600832 59.310889 
L 225.165519 59.23949 
L 225.541976 59.285839 
L 225.918434 59.366016 
L 227.424265 59.738339 
L 227.612494 59.61692 
L 228.36541 59.726063 
L 229.306554 59.843558 
L 231.377072 59.497762 
L 231.941758 59.584041 
L 232.882903 59.432872 
L 233.824047 59.429838 
L 236.271022 59.015883 
L 239.659142 58.883269 
L 240.0356 58.901608 
L 240.600286 58.855993 
L 242.294346 58.973146 
L 242.670804 58.948012 
L 243.42372 58.995588 
L 244.553093 59.004503 
L 245.682466 59.005382 
L 247.000068 59.051061 
L 258.670258 60.072469 
L 260.552547 60.342289 
L 261.305463 60.424824 
L 263.37598 60.808009 
L 264.128896 60.938617 
L 268.834618 61.858563 
L 273.163882 62.949969 
L 284.457614 66.327696 
L 287.281048 67.315098 
L 289.539794 68.060789 
L 291.422083 68.723024 
L 297.633636 70.820387 
L 301.209984 71.809027 
L 307.609766 72.958301 
L 311.750801 73.106603 
L 314.762463 72.914274 
L 318.338812 72.41033 
L 322.856305 71.37158 
L 326.99734 70.121272 
L 333.020664 68.054058 
L 337.1617 66.621144 
L 341.490964 65.15786 
L 349.584805 62.814701 
L 356.549274 61.254833 
L 363.137284 60.122462 
L 367.654777 59.56912 
L 374.054559 59.026895 
L 378.94851 58.79027 
L 384.030689 58.746584 
L 390.054014 58.892042 
L 395.70088 59.252449 
L 401.535975 59.880419 
L 406.806383 60.657323 
L 413.959081 62.07753 
L 418.853031 63.327498 
L 424.499898 64.968963 
L 444.640387 71.579312 
L 448.404965 72.43537 
L 451.416627 72.879664 
L 454.428289 73.090254 
L 457.251722 73.061371 
L 460.075155 72.800115 
L 463.086817 72.307054 
L 466.286708 71.57871 
L 469.863057 70.554427 
L 476.07461 68.463525 
L 482.286162 66.297342 
L 487.7448 64.544841 
L 493.956353 62.783694 
L 498.285617 61.753277 
L 503.179568 60.795744 
L 509.202892 59.876178 
L 514.096842 59.334487 
L 518.237878 59.017866 
L 523.696515 58.779629 
L 529.908068 58.745165 
L 534.61379 58.897644 
L 541.390029 59.38676 
L 548.166269 60.19207 
L 553.436677 61.071186 
L 560.024688 62.490763 
L 563.977494 63.51092 
L 569.436132 65.147819 
L 576.212371 67.413533 
L 587.129646 71.058954 
L 591.270681 72.123924 
L 594.470572 72.704831 
L 597.670463 73.028426 
L 600.305667 73.090274 
L 603.317329 72.934841 
L 606.140762 72.578677 
L 609.340653 71.933024 
L 613.29346 70.855969 
L 619.505013 68.823565 
L 628.163541 65.832983 
L 635.692696 63.514584 
L 640.398418 62.306511 
L 646.045284 61.089138 
L 653.009752 59.962226 
L 658.280161 59.364585 
L 664.491714 58.903853 
L 669.762122 58.737783 
L 675.973675 58.772733 
L 681.620541 59.023305 
L 686.514492 59.434609 
L 692.537816 60.16841 
L 697.243538 60.927947 
L 702.325718 61.973958 
L 708.349042 63.492808 
L 713.995908 65.158174 
L 720.772148 67.441019 
L 730.183591 70.621579 
L 734.324627 71.786925 
L 737.524517 72.477661 
L 740.536179 72.911001 
L 743.359613 73.089244 
L 746.183046 73.047656 
L 749.194708 72.773107 
L 752.20637 72.27228 
L 755.59449 71.471886 
L 759.547296 70.302389 
L 764.441247 68.646744 
L 775.54675 64.873014 
L 781.193617 63.21015 
L 787.028712 61.790576 
L 792.487349 60.718994 
L 797.945986 59.8887 
L 803.216395 59.312182 
L 808.675032 58.923731 
L 813.757212 58.740501 
L 819.592307 58.749721 
L 825.427402 58.982119 
L 831.262497 59.44662 
L 836.344677 60.057251 
L 842.179772 61.000288 
L 847.450181 62.111091 
L 853.285276 63.611589 
L 858.367456 65.137745 
L 863.261406 66.761775 
L 876.06097 71.050994 
L 880.390234 72.158752 
L 883.213667 72.677785 
L 886.225329 73.012233 
L 889.048762 73.103204 
L 891.872195 72.972369 
L 894.695628 72.629268 
L 897.895519 72.008442 
L 901.471868 71.076326 
L 906.930505 69.329615 
L 922.92996 63.988305 
L 929.141513 62.337703 
L 933.470777 61.378767 
L 939.305872 60.330794 
L 943.635136 59.735988 
L 948.905545 59.204476 
L 954.364182 58.85782 
L 959.822819 58.719939 
L 965.469686 58.785383 
L 970.175407 58.99715 
L 970.175407 58.99715 
" style="fill:none;stroke:#000000;stroke-linecap:square;stroke-width:1.5;"/>
   </g>
   <g id="matplotlib.axis_1">
    <g id="xtick_1">
     <g id="line2d_7">
      <path clip-path="url(#p2bfd6b1881)" d="M 217.636364 252 
L 217.636364 34.56 
" style="fill:none;stroke:#b0b0b0;stroke-linecap:square;stroke-width:0.8;"/>
     </g>
     <g id="line2d_8">
      <defs>
       <path d="M 0 0 
L 0 3.5 
" id="mcc2bd5d8a8" style="stroke:#000000;stroke-width:0.8;"/>
      </defs>
      <g>
       <use style="stroke:#000000;stroke-width:0.8;" x="217.636364" xlink:href="#mcc2bd5d8a8" y="252"/>
      </g>
     </g>
     <g id="text_1">
      <!-- 0 -->
      <defs>
       <path d="M 4.15625 35.296875 
Q 4.15625 48 6.765625 55.734375 
Q 9.375 63.484375 14.515625 67.671875 
Q 19.671875 71.875 27.484375 71.875 
Q 33.25 71.875 37.59375 69.546875 
Q 41.9375 67.234375 44.765625 62.859375 
Q 47.609375 58.5 49.21875 52.21875 
Q 50.828125 45.953125 50.828125 35.296875 
Q 50.828125 22.703125 48.234375 14.96875 
Q 45.65625 7.234375 40.5 3 
Q 35.359375 -1.21875 27.484375 -1.21875 
Q 17.140625 -1.21875 11.234375 6.203125 
Q 4.15625 15.140625 4.15625 35.296875 
z
M 13.1875 35.296875 
Q 13.1875 17.671875 17.3125 11.828125 
Q 21.4375 6 27.484375 6 
Q 33.546875 6 37.671875 11.859375 
Q 41.796875 17.71875 41.796875 35.296875 
Q 41.796875 52.984375 37.671875 58.78125 
Q 33.546875 64.59375 27.390625 64.59375 
Q 21.34375 64.59375 17.71875 59.46875 
Q 13.1875 52.9375 13.1875 35.296875 
z
" id="ArialMT-48"/>
      </defs>
      <g transform="translate(210.407145 277.610313)scale(0.26 -0.26)">
       <use xlink:href="#ArialMT-48"/>
      </g>
     </g>
    </g>
    <g id="xtick_2">
     <g id="line2d_9">
      <path clip-path="url(#p2bfd6b1881)" d="M 594.094114 252 
L 594.094114 34.56 
" style="fill:none;stroke:#b0b0b0;stroke-linecap:square;stroke-width:0.8;"/>
     </g>
     <g id="line2d_10">
      <g>
       <use style="stroke:#000000;stroke-width:0.8;" x="594.094114" xlink:href="#mcc2bd5d8a8" y="252"/>
      </g>
     </g>
     <g id="text_2">
      <!-- 2000 -->
      <defs>
       <path d="M 50.34375 8.453125 
L 50.34375 0 
L 3.03125 0 
Q 2.9375 3.171875 4.046875 6.109375 
Q 5.859375 10.9375 9.828125 15.625 
Q 13.8125 20.3125 21.34375 26.46875 
Q 33.015625 36.03125 37.109375 41.625 
Q 41.21875 47.21875 41.21875 52.203125 
Q 41.21875 57.421875 37.46875 61 
Q 33.734375 64.59375 27.734375 64.59375 
Q 21.390625 64.59375 17.578125 60.78125 
Q 13.765625 56.984375 13.71875 50.25 
L 4.6875 51.171875 
Q 5.609375 61.28125 11.65625 66.578125 
Q 17.71875 71.875 27.9375 71.875 
Q 38.234375 71.875 44.234375 66.15625 
Q 50.25 60.453125 50.25 52 
Q 50.25 47.703125 48.484375 43.546875 
Q 46.734375 39.40625 42.65625 34.8125 
Q 38.578125 30.21875 29.109375 22.21875 
Q 21.1875 15.578125 18.9375 13.203125 
Q 16.703125 10.84375 15.234375 8.453125 
z
" id="ArialMT-50"/>
      </defs>
      <g transform="translate(565.177239 277.610313)scale(0.26 -0.26)">
       <use xlink:href="#ArialMT-50"/>
       <use x="55.615234" xlink:href="#ArialMT-48"/>
       <use x="111.230469" xlink:href="#ArialMT-48"/>
       <use x="166.845703" xlink:href="#ArialMT-48"/>
      </g>
     </g>
    </g>
    <g id="xtick_3">
     <g id="line2d_11">
      <path clip-path="url(#p2bfd6b1881)" d="M 970.551865 252 
L 970.551865 34.56 
" style="fill:none;stroke:#b0b0b0;stroke-linecap:square;stroke-width:0.8;"/>
     </g>
     <g id="line2d_12">
      <g>
       <use style="stroke:#000000;stroke-width:0.8;" x="970.551865" xlink:href="#mcc2bd5d8a8" y="252"/>
      </g>
     </g>
     <g id="text_3">
      <!-- 4000 -->
      <defs>
       <path d="M 32.328125 0 
L 32.328125 17.140625 
L 1.265625 17.140625 
L 1.265625 25.203125 
L 33.9375 71.578125 
L 41.109375 71.578125 
L 41.109375 25.203125 
L 50.78125 25.203125 
L 50.78125 17.140625 
L 41.109375 17.140625 
L 41.109375 0 
z
M 32.328125 25.203125 
L 32.328125 57.46875 
L 9.90625 25.203125 
z
" id="ArialMT-52"/>
      </defs>
      <g transform="translate(941.63499 277.610313)scale(0.26 -0.26)">
       <use xlink:href="#ArialMT-52"/>
       <use x="55.615234" xlink:href="#ArialMT-48"/>
       <use x="111.230469" xlink:href="#ArialMT-48"/>
       <use x="166.845703" xlink:href="#ArialMT-48"/>
      </g>
     </g>
    </g>
    <g id="text_4">
     <!-- # sample -->
     <defs>
      <path d="M 5.03125 -1.21875 
L 9.28125 19.578125 
L 1.03125 19.578125 
L 1.03125 26.859375 
L 10.75 26.859375 
L 14.359375 44.578125 
L 1.03125 44.578125 
L 1.03125 51.859375 
L 15.828125 51.859375 
L 20.0625 72.796875 
L 27.390625 72.796875 
L 23.140625 51.859375 
L 38.53125 51.859375 
L 42.78125 72.796875 
L 50.140625 72.796875 
L 45.90625 51.859375 
L 54.34375 51.859375 
L 54.34375 44.578125 
L 44.4375 44.578125 
L 40.765625 26.859375 
L 54.34375 26.859375 
L 54.34375 19.578125 
L 39.3125 19.578125 
L 35.0625 -1.21875 
L 27.734375 -1.21875 
L 31.9375 19.578125 
L 16.609375 19.578125 
L 12.359375 -1.21875 
z
M 18.0625 26.859375 
L 33.40625 26.859375 
L 37.0625 44.578125 
L 21.6875 44.578125 
z
" id="ArialMT-35"/>
      <path id="ArialMT-32"/>
      <path d="M 3.078125 15.484375 
L 11.765625 16.84375 
Q 12.5 11.625 15.84375 8.84375 
Q 19.1875 6.0625 25.203125 6.0625 
Q 31.25 6.0625 34.171875 8.515625 
Q 37.109375 10.984375 37.109375 14.3125 
Q 37.109375 17.28125 34.515625 19 
Q 32.71875 20.171875 25.53125 21.96875 
Q 15.875 24.421875 12.140625 26.203125 
Q 8.40625 27.984375 6.46875 31.125 
Q 4.546875 34.28125 4.546875 38.09375 
Q 4.546875 41.546875 6.125 44.5 
Q 7.71875 47.46875 10.453125 49.421875 
Q 12.5 50.921875 16.03125 51.96875 
Q 19.578125 53.03125 23.640625 53.03125 
Q 29.734375 53.03125 34.34375 51.265625 
Q 38.96875 49.515625 41.15625 46.5 
Q 43.359375 43.5 44.1875 38.484375 
L 35.59375 37.3125 
Q 35.015625 41.3125 32.203125 43.546875 
Q 29.390625 45.796875 24.265625 45.796875 
Q 18.21875 45.796875 15.625 43.796875 
Q 13.03125 41.796875 13.03125 39.109375 
Q 13.03125 37.40625 14.109375 36.03125 
Q 15.1875 34.625 17.484375 33.6875 
Q 18.796875 33.203125 25.25 31.453125 
Q 34.578125 28.953125 38.25 27.359375 
Q 41.9375 25.78125 44.03125 22.75 
Q 46.140625 19.734375 46.140625 15.234375 
Q 46.140625 10.84375 43.578125 6.953125 
Q 41.015625 3.078125 36.171875 0.953125 
Q 31.34375 -1.171875 25.25 -1.171875 
Q 15.140625 -1.171875 9.84375 3.03125 
Q 4.546875 7.234375 3.078125 15.484375 
z
" id="ArialMT-115"/>
      <path d="M 40.4375 6.390625 
Q 35.546875 2.25 31.03125 0.53125 
Q 26.515625 -1.171875 21.34375 -1.171875 
Q 12.796875 -1.171875 8.203125 3 
Q 3.609375 7.171875 3.609375 13.671875 
Q 3.609375 17.484375 5.34375 20.625 
Q 7.078125 23.78125 9.890625 25.6875 
Q 12.703125 27.59375 16.21875 28.5625 
Q 18.796875 29.25 24.03125 29.890625 
Q 34.671875 31.15625 39.703125 32.90625 
Q 39.75 34.71875 39.75 35.203125 
Q 39.75 40.578125 37.25 42.78125 
Q 33.890625 45.75 27.25 45.75 
Q 21.046875 45.75 18.09375 43.578125 
Q 15.140625 41.40625 13.71875 35.890625 
L 5.125 37.0625 
Q 6.296875 42.578125 8.984375 45.96875 
Q 11.671875 49.359375 16.75 51.1875 
Q 21.828125 53.03125 28.515625 53.03125 
Q 35.15625 53.03125 39.296875 51.46875 
Q 43.453125 49.90625 45.40625 47.53125 
Q 47.359375 45.171875 48.140625 41.546875 
Q 48.578125 39.3125 48.578125 33.453125 
L 48.578125 21.734375 
Q 48.578125 9.46875 49.140625 6.21875 
Q 49.703125 2.984375 51.375 0 
L 42.1875 0 
Q 40.828125 2.734375 40.4375 6.390625 
z
M 39.703125 26.03125 
Q 34.90625 24.078125 25.34375 22.703125 
Q 19.921875 21.921875 17.671875 20.9375 
Q 15.4375 19.96875 14.203125 18.09375 
Q 12.984375 16.21875 12.984375 13.921875 
Q 12.984375 10.40625 15.640625 8.0625 
Q 18.3125 5.71875 23.4375 5.71875 
Q 28.515625 5.71875 32.46875 7.9375 
Q 36.421875 10.15625 38.28125 14.015625 
Q 39.703125 17 39.703125 22.796875 
z
" id="ArialMT-97"/>
      <path d="M 6.59375 0 
L 6.59375 51.859375 
L 14.453125 51.859375 
L 14.453125 44.578125 
Q 16.890625 48.390625 20.9375 50.703125 
Q 25 53.03125 30.171875 53.03125 
Q 35.9375 53.03125 39.625 50.640625 
Q 43.3125 48.25 44.828125 43.953125 
Q 50.984375 53.03125 60.84375 53.03125 
Q 68.5625 53.03125 72.703125 48.75 
Q 76.859375 44.484375 76.859375 35.59375 
L 76.859375 0 
L 68.109375 0 
L 68.109375 32.671875 
Q 68.109375 37.9375 67.25 40.25 
Q 66.40625 42.578125 64.15625 43.984375 
Q 61.921875 45.40625 58.890625 45.40625 
Q 53.421875 45.40625 49.796875 41.765625 
Q 46.1875 38.140625 46.1875 30.125 
L 46.1875 0 
L 37.40625 0 
L 37.40625 33.6875 
Q 37.40625 39.546875 35.25 42.46875 
Q 33.109375 45.40625 28.21875 45.40625 
Q 24.515625 45.40625 21.359375 43.453125 
Q 18.21875 41.5 16.796875 37.734375 
Q 15.375 33.984375 15.375 26.90625 
L 15.375 0 
z
" id="ArialMT-109"/>
      <path d="M 6.59375 -19.875 
L 6.59375 51.859375 
L 14.59375 51.859375 
L 14.59375 45.125 
Q 17.4375 49.078125 21 51.046875 
Q 24.5625 53.03125 29.640625 53.03125 
Q 36.28125 53.03125 41.359375 49.609375 
Q 46.4375 46.1875 49.015625 39.953125 
Q 51.609375 33.734375 51.609375 26.3125 
Q 51.609375 18.359375 48.75 11.984375 
Q 45.90625 5.609375 40.453125 2.21875 
Q 35.015625 -1.171875 29 -1.171875 
Q 24.609375 -1.171875 21.109375 0.6875 
Q 17.625 2.546875 15.375 5.375 
L 15.375 -19.875 
z
M 14.546875 25.640625 
Q 14.546875 15.625 18.59375 10.84375 
Q 22.65625 6.0625 28.421875 6.0625 
Q 34.28125 6.0625 38.453125 11.015625 
Q 42.625 15.96875 42.625 26.375 
Q 42.625 36.28125 38.546875 41.203125 
Q 34.46875 46.140625 28.8125 46.140625 
Q 23.1875 46.140625 18.859375 40.890625 
Q 14.546875 35.640625 14.546875 25.640625 
z
" id="ArialMT-112"/>
      <path d="M 6.390625 0 
L 6.390625 71.578125 
L 15.1875 71.578125 
L 15.1875 0 
z
" id="ArialMT-108"/>
      <path d="M 42.09375 16.703125 
L 51.171875 15.578125 
Q 49.03125 7.625 43.21875 3.21875 
Q 37.40625 -1.171875 28.375 -1.171875 
Q 17 -1.171875 10.328125 5.828125 
Q 3.65625 12.84375 3.65625 25.484375 
Q 3.65625 38.578125 10.390625 45.796875 
Q 17.140625 53.03125 27.875 53.03125 
Q 38.28125 53.03125 44.875 45.953125 
Q 51.46875 38.875 51.46875 26.03125 
Q 51.46875 25.25 51.421875 23.6875 
L 12.75 23.6875 
Q 13.234375 15.140625 17.578125 10.59375 
Q 21.921875 6.0625 28.421875 6.0625 
Q 33.25 6.0625 36.671875 8.59375 
Q 40.09375 11.140625 42.09375 16.703125 
z
M 13.234375 30.90625 
L 42.1875 30.90625 
Q 41.609375 37.453125 38.875 40.71875 
Q 34.671875 45.796875 27.984375 45.796875 
Q 21.921875 45.796875 17.796875 41.75 
Q 13.671875 37.703125 13.234375 30.90625 
z
" id="ArialMT-101"/>
     </defs>
     <g transform="translate(541.254531 305.705)scale(0.26 -0.26)">
      <use xlink:href="#ArialMT-35"/>
      <use x="55.615234" xlink:href="#ArialMT-32"/>
      <use x="83.398438" xlink:href="#ArialMT-115"/>
      <use x="133.398438" xlink:href="#ArialMT-97"/>
      <use x="189.013672" xlink:href="#ArialMT-109"/>
      <use x="272.314453" xlink:href="#ArialMT-112"/>
      <use x="327.929688" xlink:href="#ArialMT-108"/>
      <use x="350.146484" xlink:href="#ArialMT-101"/>
     </g>
    </g>
   </g>
   <g id="matplotlib.axis_2">
    <g id="ytick_1">
     <g id="line2d_13">
      <path clip-path="url(#p2bfd6b1881)" d="M 180 241.653735 
L 1008 241.653735 
" style="fill:none;stroke:#b0b0b0;stroke-linecap:square;stroke-width:0.8;"/>
     </g>
     <g id="line2d_14">
      <defs>
       <path d="M 0 0 
L -3.5 0 
" id="m687724ccac" style="stroke:#000000;stroke-width:0.8;"/>
      </defs>
      <g>
       <use style="stroke:#000000;stroke-width:0.8;" x="180" xlink:href="#m687724ccac" y="241.653735"/>
      </g>
     </g>
     <g id="text_5">
      <!-- 20.0 -->
      <defs>
       <path d="M 9.078125 0 
L 9.078125 10.015625 
L 19.09375 10.015625 
L 19.09375 0 
z
" id="ArialMT-46"/>
      </defs>
      <g transform="translate(122.401562 250.958891)scale(0.26 -0.26)">
       <use xlink:href="#ArialMT-50"/>
       <use x="55.615234" xlink:href="#ArialMT-48"/>
       <use x="111.230469" xlink:href="#ArialMT-46"/>
       <use x="139.013672" xlink:href="#ArialMT-48"/>
      </g>
     </g>
    </g>
    <g id="ytick_2">
     <g id="line2d_15">
      <path clip-path="url(#p2bfd6b1881)" d="M 180 181.654928 
L 1008 181.654928 
" style="fill:none;stroke:#b0b0b0;stroke-linecap:square;stroke-width:0.8;"/>
     </g>
     <g id="line2d_16">
      <g>
       <use style="stroke:#000000;stroke-width:0.8;" x="180" xlink:href="#m687724ccac" y="181.654928"/>
      </g>
     </g>
     <g id="text_6">
      <!-- 22.5 -->
      <defs>
       <path d="M 4.15625 18.75 
L 13.375 19.53125 
Q 14.40625 12.796875 18.140625 9.390625 
Q 21.875 6 27.15625 6 
Q 33.5 6 37.890625 10.78125 
Q 42.28125 15.578125 42.28125 23.484375 
Q 42.28125 31 38.0625 35.34375 
Q 33.84375 39.703125 27 39.703125 
Q 22.75 39.703125 19.328125 37.765625 
Q 15.921875 35.84375 13.96875 32.765625 
L 5.71875 33.84375 
L 12.640625 70.609375 
L 48.25 70.609375 
L 48.25 62.203125 
L 19.671875 62.203125 
L 15.828125 42.96875 
Q 22.265625 47.46875 29.34375 47.46875 
Q 38.71875 47.46875 45.15625 40.96875 
Q 51.609375 34.46875 51.609375 24.265625 
Q 51.609375 14.546875 45.953125 7.46875 
Q 39.0625 -1.21875 27.15625 -1.21875 
Q 17.390625 -1.21875 11.203125 4.25 
Q 5.03125 9.71875 4.15625 18.75 
z
" id="ArialMT-53"/>
      </defs>
      <g transform="translate(122.401562 190.960084)scale(0.26 -0.26)">
       <use xlink:href="#ArialMT-50"/>
       <use x="55.615234" xlink:href="#ArialMT-50"/>
       <use x="111.230469" xlink:href="#ArialMT-46"/>
       <use x="139.013672" xlink:href="#ArialMT-53"/>
      </g>
     </g>
    </g>
    <g id="ytick_3">
     <g id="line2d_17">
      <path clip-path="url(#p2bfd6b1881)" d="M 180 121.65612 
L 1008 121.65612 
" style="fill:none;stroke:#b0b0b0;stroke-linecap:square;stroke-width:0.8;"/>
     </g>
     <g id="line2d_18">
      <g>
       <use style="stroke:#000000;stroke-width:0.8;" x="180" xlink:href="#m687724ccac" y="121.65612"/>
      </g>
     </g>
     <g id="text_7">
      <!-- 25.0 -->
      <g transform="translate(122.401562 130.961277)scale(0.26 -0.26)">
       <use xlink:href="#ArialMT-50"/>
       <use x="55.615234" xlink:href="#ArialMT-53"/>
       <use x="111.230469" xlink:href="#ArialMT-46"/>
       <use x="139.013672" xlink:href="#ArialMT-48"/>
      </g>
     </g>
    </g>
    <g id="ytick_4">
     <g id="line2d_19">
      <path clip-path="url(#p2bfd6b1881)" d="M 180 61.657313 
L 1008 61.657313 
" style="fill:none;stroke:#b0b0b0;stroke-linecap:square;stroke-width:0.8;"/>
     </g>
     <g id="line2d_20">
      <g>
       <use style="stroke:#000000;stroke-width:0.8;" x="180" xlink:href="#m687724ccac" y="61.657313"/>
      </g>
     </g>
     <g id="text_8">
      <!-- 27.5 -->
      <defs>
       <path d="M 4.734375 62.203125 
L 4.734375 70.65625 
L 51.078125 70.65625 
L 51.078125 63.8125 
Q 44.234375 56.546875 37.515625 44.484375 
Q 30.8125 32.421875 27.15625 19.671875 
Q 24.515625 10.6875 23.78125 0 
L 14.75 0 
Q 14.890625 8.453125 18.0625 20.40625 
Q 21.234375 32.375 27.171875 43.484375 
Q 33.109375 54.59375 39.796875 62.203125 
z
" id="ArialMT-55"/>
      </defs>
      <g transform="translate(122.401562 70.962469)scale(0.26 -0.26)">
       <use xlink:href="#ArialMT-50"/>
       <use x="55.615234" xlink:href="#ArialMT-55"/>
       <use x="111.230469" xlink:href="#ArialMT-46"/>
       <use x="139.013672" xlink:href="#ArialMT-53"/>
      </g>
     </g>
    </g>
    <g id="text_9">
     <!-- phase velocity -->
     <defs>
      <path d="M 6.59375 0 
L 6.59375 71.578125 
L 15.375 71.578125 
L 15.375 45.90625 
Q 21.53125 53.03125 30.90625 53.03125 
Q 36.671875 53.03125 40.921875 50.75 
Q 45.171875 48.484375 47 44.484375 
Q 48.828125 40.484375 48.828125 32.859375 
L 48.828125 0 
L 40.046875 0 
L 40.046875 32.859375 
Q 40.046875 39.453125 37.1875 42.453125 
Q 34.328125 45.453125 29.109375 45.453125 
Q 25.203125 45.453125 21.75 43.421875 
Q 18.3125 41.40625 16.84375 37.9375 
Q 15.375 34.46875 15.375 28.375 
L 15.375 0 
z
" id="ArialMT-104"/>
      <path d="M 21 0 
L 1.265625 51.859375 
L 10.546875 51.859375 
L 21.6875 20.796875 
Q 23.484375 15.765625 25 10.359375 
Q 26.171875 14.453125 28.265625 20.21875 
L 39.796875 51.859375 
L 48.828125 51.859375 
L 29.203125 0 
z
" id="ArialMT-118"/>
      <path d="M 3.328125 25.921875 
Q 3.328125 40.328125 11.328125 47.265625 
Q 18.015625 53.03125 27.640625 53.03125 
Q 38.328125 53.03125 45.109375 46.015625 
Q 51.90625 39.015625 51.90625 26.65625 
Q 51.90625 16.65625 48.90625 10.90625 
Q 45.90625 5.171875 40.15625 2 
Q 34.421875 -1.171875 27.640625 -1.171875 
Q 16.75 -1.171875 10.03125 5.8125 
Q 3.328125 12.796875 3.328125 25.921875 
z
M 12.359375 25.921875 
Q 12.359375 15.96875 16.703125 11.015625 
Q 21.046875 6.0625 27.640625 6.0625 
Q 34.1875 6.0625 38.53125 11.03125 
Q 42.875 16.015625 42.875 26.21875 
Q 42.875 35.84375 38.5 40.796875 
Q 34.125 45.75 27.640625 45.75 
Q 21.046875 45.75 16.703125 40.8125 
Q 12.359375 35.890625 12.359375 25.921875 
z
" id="ArialMT-111"/>
      <path d="M 40.4375 19 
L 49.078125 17.875 
Q 47.65625 8.9375 41.8125 3.875 
Q 35.984375 -1.171875 27.484375 -1.171875 
Q 16.84375 -1.171875 10.375 5.78125 
Q 3.90625 12.75 3.90625 25.734375 
Q 3.90625 34.125 6.6875 40.421875 
Q 9.46875 46.734375 15.15625 49.875 
Q 20.84375 53.03125 27.546875 53.03125 
Q 35.984375 53.03125 41.359375 48.75 
Q 46.734375 44.484375 48.25 36.625 
L 39.703125 35.296875 
Q 38.484375 40.53125 35.375 43.15625 
Q 32.28125 45.796875 27.875 45.796875 
Q 21.234375 45.796875 17.078125 41.03125 
Q 12.9375 36.28125 12.9375 25.984375 
Q 12.9375 15.53125 16.9375 10.796875 
Q 20.953125 6.0625 27.390625 6.0625 
Q 32.5625 6.0625 36.03125 9.234375 
Q 39.5 12.40625 40.4375 19 
z
" id="ArialMT-99"/>
      <path d="M 6.640625 61.46875 
L 6.640625 71.578125 
L 15.4375 71.578125 
L 15.4375 61.46875 
z
M 6.640625 0 
L 6.640625 51.859375 
L 15.4375 51.859375 
L 15.4375 0 
z
" id="ArialMT-105"/>
      <path d="M 25.78125 7.859375 
L 27.046875 0.09375 
Q 23.34375 -0.6875 20.40625 -0.6875 
Q 15.625 -0.6875 12.984375 0.828125 
Q 10.359375 2.34375 9.28125 4.8125 
Q 8.203125 7.28125 8.203125 15.1875 
L 8.203125 45.015625 
L 1.765625 45.015625 
L 1.765625 51.859375 
L 8.203125 51.859375 
L 8.203125 64.703125 
L 16.9375 69.96875 
L 16.9375 51.859375 
L 25.78125 51.859375 
L 25.78125 45.015625 
L 16.9375 45.015625 
L 16.9375 14.703125 
Q 16.9375 10.9375 17.40625 9.859375 
Q 17.875 8.796875 18.921875 8.15625 
Q 19.96875 7.515625 21.921875 7.515625 
Q 23.390625 7.515625 25.78125 7.859375 
z
" id="ArialMT-116"/>
      <path d="M 6.203125 -19.96875 
L 5.21875 -11.71875 
Q 8.109375 -12.5 10.25 -12.5 
Q 13.1875 -12.5 14.9375 -11.515625 
Q 16.703125 -10.546875 17.828125 -8.796875 
Q 18.65625 -7.46875 20.515625 -2.25 
Q 20.75 -1.515625 21.296875 -0.09375 
L 1.609375 51.859375 
L 11.078125 51.859375 
L 21.875 21.828125 
Q 23.96875 16.109375 25.640625 9.8125 
Q 27.15625 15.875 29.25 21.625 
L 40.328125 51.859375 
L 49.125 51.859375 
L 29.390625 -0.875 
Q 26.21875 -9.421875 24.46875 -12.640625 
Q 22.125 -17 19.09375 -19.015625 
Q 16.0625 -21.046875 11.859375 -21.046875 
Q 9.328125 -21.046875 6.203125 -19.96875 
z
" id="ArialMT-121"/>
     </defs>
     <g transform="translate(112.929375 225.655313)rotate(-90)scale(0.26 -0.26)">
      <use xlink:href="#ArialMT-112"/>
      <use x="55.615234" xlink:href="#ArialMT-104"/>
      <use x="111.230469" xlink:href="#ArialMT-97"/>
      <use x="166.845703" xlink:href="#ArialMT-115"/>
      <use x="216.845703" xlink:href="#ArialMT-101"/>
      <use x="272.460938" xlink:href="#ArialMT-32"/>
      <use x="300.244141" xlink:href="#ArialMT-118"/>
      <use x="350.244141" xlink:href="#ArialMT-101"/>
      <use x="405.859375" xlink:href="#ArialMT-108"/>
      <use x="428.076172" xlink:href="#ArialMT-111"/>
      <use x="483.691406" xlink:href="#ArialMT-99"/>
      <use x="533.691406" xlink:href="#ArialMT-105"/>
      <use x="555.908203" xlink:href="#ArialMT-116"/>
      <use x="583.691406" xlink:href="#ArialMT-121"/>
     </g>
    </g>
   </g>
   <g id="patch_3">
    <path d="M 180 252 
L 180 34.56 
" style="fill:none;stroke:#000000;stroke-linecap:square;stroke-linejoin:miter;stroke-width:0.8;"/>
   </g>
   <g id="patch_4">
    <path d="M 1008 252 
L 1008 34.56 
" style="fill:none;stroke:#000000;stroke-linecap:square;stroke-linejoin:miter;stroke-width:0.8;"/>
   </g>
   <g id="patch_5">
    <path d="M 180 252 
L 1008 252 
" style="fill:none;stroke:#000000;stroke-linecap:square;stroke-linejoin:miter;stroke-width:0.8;"/>
   </g>
   <g id="patch_6">
    <path d="M 180 34.56 
L 1008 34.56 
" style="fill:none;stroke:#000000;stroke-linecap:square;stroke-linejoin:miter;stroke-width:0.8;"/>
   </g>
   <g id="legend_1">
    <g id="patch_7">
     <path d="M 1054.6 115.915625 
L 1197.055625 115.915625 
Q 1202.255625 115.915625 1202.255625 110.715625 
L 1202.255625 39.76 
Q 1202.255625 34.56 1197.055625 34.56 
L 1054.6 34.56 
Q 1049.4 34.56 1049.4 39.76 
L 1049.4 110.715625 
Q 1049.4 115.915625 1054.6 115.915625 
z
" style="fill:#ffffff;opacity:0.8;stroke:#cccccc;stroke-linejoin:miter;"/>
    </g>
    <g id="line2d_21">
     <path d="M 1059.8 54.470312 
L 1111.8 54.470312 
" style="fill:none;stroke:#000000;stroke-linecap:square;stroke-width:1.5;"/>
    </g>
    <g id="line2d_22"/>
    <g id="text_10">
     <!-- pred. -->
     <defs>
      <path d="M 6.5 0 
L 6.5 51.859375 
L 14.40625 51.859375 
L 14.40625 44 
Q 17.4375 49.515625 20 51.265625 
Q 22.5625 53.03125 25.640625 53.03125 
Q 30.078125 53.03125 34.671875 50.203125 
L 31.640625 42.046875 
Q 28.421875 43.953125 25.203125 43.953125 
Q 22.3125 43.953125 20.015625 42.21875 
Q 17.71875 40.484375 16.75 37.40625 
Q 15.28125 32.71875 15.28125 27.15625 
L 15.28125 0 
z
" id="ArialMT-114"/>
      <path d="M 40.234375 0 
L 40.234375 6.546875 
Q 35.296875 -1.171875 25.734375 -1.171875 
Q 19.53125 -1.171875 14.328125 2.25 
Q 9.125 5.671875 6.265625 11.796875 
Q 3.421875 17.921875 3.421875 25.875 
Q 3.421875 33.640625 6 39.96875 
Q 8.59375 46.296875 13.765625 49.65625 
Q 18.953125 53.03125 25.34375 53.03125 
Q 30.03125 53.03125 33.6875 51.046875 
Q 37.359375 49.078125 39.65625 45.90625 
L 39.65625 71.578125 
L 48.390625 71.578125 
L 48.390625 0 
z
M 12.453125 25.875 
Q 12.453125 15.921875 16.640625 10.984375 
Q 20.84375 6.0625 26.5625 6.0625 
Q 32.328125 6.0625 36.34375 10.765625 
Q 40.375 15.484375 40.375 25.140625 
Q 40.375 35.796875 36.265625 40.765625 
Q 32.171875 45.75 26.171875 45.75 
Q 20.3125 45.75 16.375 40.96875 
Q 12.453125 36.1875 12.453125 25.875 
z
" id="ArialMT-100"/>
     </defs>
     <g transform="translate(1132.6 63.570312)scale(0.26 -0.26)">
      <use xlink:href="#ArialMT-112"/>
      <use x="55.615234" xlink:href="#ArialMT-114"/>
      <use x="88.916016" xlink:href="#ArialMT-101"/>
      <use x="144.53125" xlink:href="#ArialMT-100"/>
      <use x="200.146484" xlink:href="#ArialMT-46"/>
     </g>
    </g>
    <g id="line2d_23">
     <path d="M 1059.8 91.248125 
L 1111.8 91.248125 
" style="fill:none;stroke:#808080;stroke-linecap:square;stroke-width:4;"/>
    </g>
    <g id="line2d_24"/>
    <g id="text_11">
     <!-- true -->
     <defs>
      <path d="M 40.578125 0 
L 40.578125 7.625 
Q 34.515625 -1.171875 24.125 -1.171875 
Q 19.53125 -1.171875 15.546875 0.578125 
Q 11.578125 2.34375 9.640625 5 
Q 7.71875 7.671875 6.9375 11.53125 
Q 6.390625 14.109375 6.390625 19.734375 
L 6.390625 51.859375 
L 15.1875 51.859375 
L 15.1875 23.09375 
Q 15.1875 16.21875 15.71875 13.8125 
Q 16.546875 10.359375 19.234375 8.375 
Q 21.921875 6.390625 25.875 6.390625 
Q 29.828125 6.390625 33.296875 8.421875 
Q 36.765625 10.453125 38.203125 13.9375 
Q 39.65625 17.4375 39.65625 24.078125 
L 39.65625 51.859375 
L 48.4375 51.859375 
L 48.4375 0 
z
" id="ArialMT-117"/>
     </defs>
     <g transform="translate(1132.6 100.348125)scale(0.26 -0.26)">
      <use xlink:href="#ArialMT-116"/>
      <use x="27.783203" xlink:href="#ArialMT-114"/>
      <use x="61.083984" xlink:href="#ArialMT-117"/>
      <use x="116.699219" xlink:href="#ArialMT-101"/>
     </g>
    </g>
   </g>
  </g>
 </g>
 <defs>
  <clipPath id="p2bfd6b1881">
   <rect height="217.44" width="828" x="180" y="34.56"/>
  </clipPath>
 </defs>
</svg>
