<?xml version="1.0" encoding="utf-8" standalone="no"?>
<!DOCTYPE svg PUBLIC "-//W3C//DTD SVG 1.1//EN"
  "http://www.w3.org/Graphics/SVG/1.1/DTD/svg11.dtd">
<!-- Created with matplotlib (https://matplotlib.org/) -->
<svg height="288pt" version="1.1" viewBox="0 0 1440 288" width="1440pt" xmlns="http://www.w3.org/2000/svg" xmlns:xlink="http://www.w3.org/1999/xlink">
 <defs>
  <style type="text/css">
*{stroke-linecap:butt;stroke-linejoin:round;}
  </style>
 </defs>
 <g id="figure_1">
  <g id="patch_1">
   <path d="M 0 288 
L 1440 288 
L 1440 0 
L 0 0 
z
" style="fill:#ffffff;"/>
  </g>
  <g id="axes_1">
   <g id="patch_2">
    <path d="M 180 252 
L 1008 252 
L 1008 34.56 
L 180 34.56 
z
" style="fill:#ffffff;"/>
   </g>
   <g id="PathCollection_1">
    <defs>
     <path d="M 0 3 
C 0.795609 3 1.55874 2.683901 2.12132 2.12132 
C 2.683901 1.55874 3 0.795609 3 0 
C 3 -0.795609 2.683901 -1.55874 2.12132 -2.12132 
C 1.55874 -2.683901 0.795609 -3 0 -3 
C -0.795609 -3 -1.55874 -2.683901 -2.12132 -2.12132 
C -2.683901 -1.55874 -3 -0.795609 -3 0 
C -3 0.795609 -2.683901 1.55874 -2.12132 2.12132 
C -1.55874 2.683901 -0.795609 3 0 3 
z
" id="m62a2faa2e8" style="stroke:#ff0000;"/>
    </defs>
    <g clip-path="url(#pf10c953e13)">
     <use style="fill:#ff0000;stroke:#ff0000;" x="217.636364" xlink:href="#m62a2faa2e8" y="44.443636"/>
     <use style="fill:#ff0000;stroke:#ff0000;" x="217.82464" xlink:href="#m62a2faa2e8" y="141.459608"/>
     <use style="fill:#ff0000;stroke:#ff0000;" x="218.012916" xlink:href="#m62a2faa2e8" y="189.99099"/>
     <use style="fill:#ff0000;stroke:#ff0000;" x="218.201192" xlink:href="#m62a2faa2e8" y="214.169111"/>
     <use style="fill:#ff0000;stroke:#ff0000;" x="220.272227" xlink:href="#m62a2faa2e8" y="225.45299"/>
     <use style="fill:#ff0000;stroke:#ff0000;" x="220.460503" xlink:href="#m62a2faa2e8" y="221.511681"/>
     <use style="fill:#ff0000;stroke:#ff0000;" x="220.648779" xlink:href="#m62a2faa2e8" y="219.191012"/>
     <use style="fill:#ff0000;stroke:#ff0000;" x="220.837055" xlink:href="#m62a2faa2e8" y="216.341527"/>
     <use style="fill:#ff0000;stroke:#ff0000;" x="221.025331" xlink:href="#m62a2faa2e8" y="214.890109"/>
     <use style="fill:#ff0000;stroke:#ff0000;" x="221.213607" xlink:href="#m62a2faa2e8" y="215.96525"/>
     <use style="fill:#ff0000;stroke:#ff0000;" x="221.401883" xlink:href="#m62a2faa2e8" y="216.956158"/>
     <use style="fill:#ff0000;stroke:#ff0000;" x="221.590159" xlink:href="#m62a2faa2e8" y="219.59175"/>
     <use style="fill:#ff0000;stroke:#ff0000;" x="221.778435" xlink:href="#m62a2faa2e8" y="221.688495"/>
     <use style="fill:#ff0000;stroke:#ff0000;" x="221.966711" xlink:href="#m62a2faa2e8" y="225.164698"/>
     <use style="fill:#ff0000;stroke:#ff0000;" x="224.79085" xlink:href="#m62a2faa2e8" y="224.714796"/>
     <use style="fill:#ff0000;stroke:#ff0000;" x="224.979126" xlink:href="#m62a2faa2e8" y="223.315863"/>
     <use style="fill:#ff0000;stroke:#ff0000;" x="225.167402" xlink:href="#m62a2faa2e8" y="222.800864"/>
     <use style="fill:#ff0000;stroke:#ff0000;" x="225.355678" xlink:href="#m62a2faa2e8" y="222.29243"/>
     <use style="fill:#ff0000;stroke:#ff0000;" x="225.543954" xlink:href="#m62a2faa2e8" y="221.917817"/>
     <use style="fill:#ff0000;stroke:#ff0000;" x="225.73223" xlink:href="#m62a2faa2e8" y="221.467375"/>
     <use style="fill:#ff0000;stroke:#ff0000;" x="225.920506" xlink:href="#m62a2faa2e8" y="221.068976"/>
     <use style="fill:#ff0000;stroke:#ff0000;" x="226.108782" xlink:href="#m62a2faa2e8" y="222.211144"/>
     <use style="fill:#ff0000;stroke:#ff0000;" x="226.297058" xlink:href="#m62a2faa2e8" y="222.450823"/>
     <use style="fill:#ff0000;stroke:#ff0000;" x="226.485334" xlink:href="#m62a2faa2e8" y="221.621687"/>
     <use style="fill:#ff0000;stroke:#ff0000;" x="226.67361" xlink:href="#m62a2faa2e8" y="224.493589"/>
     <use style="fill:#ff0000;stroke:#ff0000;" x="226.861885" xlink:href="#m62a2faa2e8" y="224.228159"/>
     <use style="fill:#ff0000;stroke:#ff0000;" x="227.050161" xlink:href="#m62a2faa2e8" y="224.570359"/>
     <use style="fill:#ff0000;stroke:#ff0000;" x="227.238437" xlink:href="#m62a2faa2e8" y="225.483106"/>
     <use style="fill:#ff0000;stroke:#ff0000;" x="227.426713" xlink:href="#m62a2faa2e8" y="225.760473"/>
     <use style="fill:#ff0000;stroke:#ff0000;" x="229.309473" xlink:href="#m62a2faa2e8" y="225.82305"/>
     <use style="fill:#ff0000;stroke:#ff0000;" x="229.497749" xlink:href="#m62a2faa2e8" y="225.016374"/>
     <use style="fill:#ff0000;stroke:#ff0000;" x="229.874301" xlink:href="#m62a2faa2e8" y="223.435565"/>
     <use style="fill:#ff0000;stroke:#ff0000;" x="230.062577" xlink:href="#m62a2faa2e8" y="225.42307"/>
     <use style="fill:#ff0000;stroke:#ff0000;" x="230.250853" xlink:href="#m62a2faa2e8" y="223.762736"/>
     <use style="fill:#ff0000;stroke:#ff0000;" x="230.439129" xlink:href="#m62a2faa2e8" y="222.884906"/>
     <use style="fill:#ff0000;stroke:#ff0000;" x="230.627405" xlink:href="#m62a2faa2e8" y="222.817697"/>
     <use style="fill:#ff0000;stroke:#ff0000;" x="230.815681" xlink:href="#m62a2faa2e8" y="222.131"/>
     <use style="fill:#ff0000;stroke:#ff0000;" x="231.003957" xlink:href="#m62a2faa2e8" y="222.68779"/>
     <use style="fill:#ff0000;stroke:#ff0000;" x="231.192232" xlink:href="#m62a2faa2e8" y="222.665455"/>
     <use style="fill:#ff0000;stroke:#ff0000;" x="231.380508" xlink:href="#m62a2faa2e8" y="222.711312"/>
     <use style="fill:#ff0000;stroke:#ff0000;" x="231.568784" xlink:href="#m62a2faa2e8" y="222.630411"/>
     <use style="fill:#ff0000;stroke:#ff0000;" x="231.75706" xlink:href="#m62a2faa2e8" y="223.030707"/>
     <use style="fill:#ff0000;stroke:#ff0000;" x="231.945336" xlink:href="#m62a2faa2e8" y="225.445708"/>
     <use style="fill:#ff0000;stroke:#ff0000;" x="232.133612" xlink:href="#m62a2faa2e8" y="225.104563"/>
     <use style="fill:#ff0000;stroke:#ff0000;" x="232.321888" xlink:href="#m62a2faa2e8" y="223.97456"/>
     <use style="fill:#ff0000;stroke:#ff0000;" x="232.510164" xlink:href="#m62a2faa2e8" y="225.357959"/>
     <use style="fill:#ff0000;stroke:#ff0000;" x="232.886716" xlink:href="#m62a2faa2e8" y="224.921258"/>
     <use style="fill:#ff0000;stroke:#ff0000;" x="233.074992" xlink:href="#m62a2faa2e8" y="224.478255"/>
    </g>
   </g>
   <g id="matplotlib.axis_1">
    <g id="xtick_1">
     <g id="line2d_1">
      <path clip-path="url(#pf10c953e13)" d="M 217.636364 252 
L 217.636364 34.56 
" style="fill:none;stroke:#b0b0b0;stroke-linecap:square;stroke-width:0.8;"/>
     </g>
     <g id="line2d_2">
      <defs>
       <path d="M 0 0 
L 0 3.5 
" id="m0c458aaf1d" style="stroke:#000000;stroke-width:0.8;"/>
      </defs>
      <g>
       <use style="stroke:#000000;stroke-width:0.8;" x="217.636364" xlink:href="#m0c458aaf1d" y="252"/>
      </g>
     </g>
     <g id="text_1">
      <!-- 0 -->
      <defs>
       <path d="M 4.15625 35.296875 
Q 4.15625 48 6.765625 55.734375 
Q 9.375 63.484375 14.515625 67.671875 
Q 19.671875 71.875 27.484375 71.875 
Q 33.25 71.875 37.59375 69.546875 
Q 41.9375 67.234375 44.765625 62.859375 
Q 47.609375 58.5 49.21875 52.21875 
Q 50.828125 45.953125 50.828125 35.296875 
Q 50.828125 22.703125 48.234375 14.96875 
Q 45.65625 7.234375 40.5 3 
Q 35.359375 -1.21875 27.484375 -1.21875 
Q 17.140625 -1.21875 11.234375 6.203125 
Q 4.15625 15.140625 4.15625 35.296875 
z
M 13.1875 35.296875 
Q 13.1875 17.671875 17.3125 11.828125 
Q 21.4375 6 27.484375 6 
Q 33.546875 6 37.671875 11.859375 
Q 41.796875 17.71875 41.796875 35.296875 
Q 41.796875 52.984375 37.671875 58.78125 
Q 33.546875 64.59375 27.390625 64.59375 
Q 21.34375 64.59375 17.71875 59.46875 
Q 13.1875 52.9375 13.1875 35.296875 
z
" id="ArialMT-48"/>
      </defs>
      <g transform="translate(210.407145 277.610313)scale(0.26 -0.26)">
       <use xlink:href="#ArialMT-48"/>
      </g>
     </g>
    </g>
    <g id="xtick_2">
     <g id="line2d_3">
      <path clip-path="url(#pf10c953e13)" d="M 594.188276 252 
L 594.188276 34.56 
" style="fill:none;stroke:#b0b0b0;stroke-linecap:square;stroke-width:0.8;"/>
     </g>
     <g id="line2d_4">
      <g>
       <use style="stroke:#000000;stroke-width:0.8;" x="594.188276" xlink:href="#m0c458aaf1d" y="252"/>
      </g>
     </g>
     <g id="text_2">
      <!-- 2000 -->
      <defs>
       <path d="M 50.34375 8.453125 
L 50.34375 0 
L 3.03125 0 
Q 2.9375 3.171875 4.046875 6.109375 
Q 5.859375 10.9375 9.828125 15.625 
Q 13.8125 20.3125 21.34375 26.46875 
Q 33.015625 36.03125 37.109375 41.625 
Q 41.21875 47.21875 41.21875 52.203125 
Q 41.21875 57.421875 37.46875 61 
Q 33.734375 64.59375 27.734375 64.59375 
Q 21.390625 64.59375 17.578125 60.78125 
Q 13.765625 56.984375 13.71875 50.25 
L 4.6875 51.171875 
Q 5.609375 61.28125 11.65625 66.578125 
Q 17.71875 71.875 27.9375 71.875 
Q 38.234375 71.875 44.234375 66.15625 
Q 50.25 60.453125 50.25 52 
Q 50.25 47.703125 48.484375 43.546875 
Q 46.734375 39.40625 42.65625 34.8125 
Q 38.578125 30.21875 29.109375 22.21875 
Q 21.1875 15.578125 18.9375 13.203125 
Q 16.703125 10.84375 15.234375 8.453125 
z
" id="ArialMT-50"/>
      </defs>
      <g transform="translate(565.271401 277.610313)scale(0.26 -0.26)">
       <use xlink:href="#ArialMT-50"/>
       <use x="55.615234" xlink:href="#ArialMT-48"/>
       <use x="111.230469" xlink:href="#ArialMT-48"/>
       <use x="166.845703" xlink:href="#ArialMT-48"/>
      </g>
     </g>
    </g>
    <g id="xtick_3">
     <g id="line2d_5">
      <path clip-path="url(#pf10c953e13)" d="M 970.740188 252 
L 970.740188 34.56 
" style="fill:none;stroke:#b0b0b0;stroke-linecap:square;stroke-width:0.8;"/>
     </g>
     <g id="line2d_6">
      <g>
       <use style="stroke:#000000;stroke-width:0.8;" x="970.740188" xlink:href="#m0c458aaf1d" y="252"/>
      </g>
     </g>
     <g id="text_3">
      <!-- 4000 -->
      <defs>
       <path d="M 32.328125 0 
L 32.328125 17.140625 
L 1.265625 17.140625 
L 1.265625 25.203125 
L 33.9375 71.578125 
L 41.109375 71.578125 
L 41.109375 25.203125 
L 50.78125 25.203125 
L 50.78125 17.140625 
L 41.109375 17.140625 
L 41.109375 0 
z
M 32.328125 25.203125 
L 32.328125 57.46875 
L 9.90625 25.203125 
z
" id="ArialMT-52"/>
      </defs>
      <g transform="translate(941.823313 277.610313)scale(0.26 -0.26)">
       <use xlink:href="#ArialMT-52"/>
       <use x="55.615234" xlink:href="#ArialMT-48"/>
       <use x="111.230469" xlink:href="#ArialMT-48"/>
       <use x="166.845703" xlink:href="#ArialMT-48"/>
      </g>
     </g>
    </g>
    <g id="text_4">
     <!-- # sample -->
     <defs>
      <path d="M 5.03125 -1.21875 
L 9.28125 19.578125 
L 1.03125 19.578125 
L 1.03125 26.859375 
L 10.75 26.859375 
L 14.359375 44.578125 
L 1.03125 44.578125 
L 1.03125 51.859375 
L 15.828125 51.859375 
L 20.0625 72.796875 
L 27.390625 72.796875 
L 23.140625 51.859375 
L 38.53125 51.859375 
L 42.78125 72.796875 
L 50.140625 72.796875 
L 45.90625 51.859375 
L 54.34375 51.859375 
L 54.34375 44.578125 
L 44.4375 44.578125 
L 40.765625 26.859375 
L 54.34375 26.859375 
L 54.34375 19.578125 
L 39.3125 19.578125 
L 35.0625 -1.21875 
L 27.734375 -1.21875 
L 31.9375 19.578125 
L 16.609375 19.578125 
L 12.359375 -1.21875 
z
M 18.0625 26.859375 
L 33.40625 26.859375 
L 37.0625 44.578125 
L 21.6875 44.578125 
z
" id="ArialMT-35"/>
      <path id="ArialMT-32"/>
      <path d="M 3.078125 15.484375 
L 11.765625 16.84375 
Q 12.5 11.625 15.84375 8.84375 
Q 19.1875 6.0625 25.203125 6.0625 
Q 31.25 6.0625 34.171875 8.515625 
Q 37.109375 10.984375 37.109375 14.3125 
Q 37.109375 17.28125 34.515625 19 
Q 32.71875 20.171875 25.53125 21.96875 
Q 15.875 24.421875 12.140625 26.203125 
Q 8.40625 27.984375 6.46875 31.125 
Q 4.546875 34.28125 4.546875 38.09375 
Q 4.546875 41.546875 6.125 44.5 
Q 7.71875 47.46875 10.453125 49.421875 
Q 12.5 50.921875 16.03125 51.96875 
Q 19.578125 53.03125 23.640625 53.03125 
Q 29.734375 53.03125 34.34375 51.265625 
Q 38.96875 49.515625 41.15625 46.5 
Q 43.359375 43.5 44.1875 38.484375 
L 35.59375 37.3125 
Q 35.015625 41.3125 32.203125 43.546875 
Q 29.390625 45.796875 24.265625 45.796875 
Q 18.21875 45.796875 15.625 43.796875 
Q 13.03125 41.796875 13.03125 39.109375 
Q 13.03125 37.40625 14.109375 36.03125 
Q 15.1875 34.625 17.484375 33.6875 
Q 18.796875 33.203125 25.25 31.453125 
Q 34.578125 28.953125 38.25 27.359375 
Q 41.9375 25.78125 44.03125 22.75 
Q 46.140625 19.734375 46.140625 15.234375 
Q 46.140625 10.84375 43.578125 6.953125 
Q 41.015625 3.078125 36.171875 0.953125 
Q 31.34375 -1.171875 25.25 -1.171875 
Q 15.140625 -1.171875 9.84375 3.03125 
Q 4.546875 7.234375 3.078125 15.484375 
z
" id="ArialMT-115"/>
      <path d="M 40.4375 6.390625 
Q 35.546875 2.25 31.03125 0.53125 
Q 26.515625 -1.171875 21.34375 -1.171875 
Q 12.796875 -1.171875 8.203125 3 
Q 3.609375 7.171875 3.609375 13.671875 
Q 3.609375 17.484375 5.34375 20.625 
Q 7.078125 23.78125 9.890625 25.6875 
Q 12.703125 27.59375 16.21875 28.5625 
Q 18.796875 29.25 24.03125 29.890625 
Q 34.671875 31.15625 39.703125 32.90625 
Q 39.75 34.71875 39.75 35.203125 
Q 39.75 40.578125 37.25 42.78125 
Q 33.890625 45.75 27.25 45.75 
Q 21.046875 45.75 18.09375 43.578125 
Q 15.140625 41.40625 13.71875 35.890625 
L 5.125 37.0625 
Q 6.296875 42.578125 8.984375 45.96875 
Q 11.671875 49.359375 16.75 51.1875 
Q 21.828125 53.03125 28.515625 53.03125 
Q 35.15625 53.03125 39.296875 51.46875 
Q 43.453125 49.90625 45.40625 47.53125 
Q 47.359375 45.171875 48.140625 41.546875 
Q 48.578125 39.3125 48.578125 33.453125 
L 48.578125 21.734375 
Q 48.578125 9.46875 49.140625 6.21875 
Q 49.703125 2.984375 51.375 0 
L 42.1875 0 
Q 40.828125 2.734375 40.4375 6.390625 
z
M 39.703125 26.03125 
Q 34.90625 24.078125 25.34375 22.703125 
Q 19.921875 21.921875 17.671875 20.9375 
Q 15.4375 19.96875 14.203125 18.09375 
Q 12.984375 16.21875 12.984375 13.921875 
Q 12.984375 10.40625 15.640625 8.0625 
Q 18.3125 5.71875 23.4375 5.71875 
Q 28.515625 5.71875 32.46875 7.9375 
Q 36.421875 10.15625 38.28125 14.015625 
Q 39.703125 17 39.703125 22.796875 
z
" id="ArialMT-97"/>
      <path d="M 6.59375 0 
L 6.59375 51.859375 
L 14.453125 51.859375 
L 14.453125 44.578125 
Q 16.890625 48.390625 20.9375 50.703125 
Q 25 53.03125 30.171875 53.03125 
Q 35.9375 53.03125 39.625 50.640625 
Q 43.3125 48.25 44.828125 43.953125 
Q 50.984375 53.03125 60.84375 53.03125 
Q 68.5625 53.03125 72.703125 48.75 
Q 76.859375 44.484375 76.859375 35.59375 
L 76.859375 0 
L 68.109375 0 
L 68.109375 32.671875 
Q 68.109375 37.9375 67.25 40.25 
Q 66.40625 42.578125 64.15625 43.984375 
Q 61.921875 45.40625 58.890625 45.40625 
Q 53.421875 45.40625 49.796875 41.765625 
Q 46.1875 38.140625 46.1875 30.125 
L 46.1875 0 
L 37.40625 0 
L 37.40625 33.6875 
Q 37.40625 39.546875 35.25 42.46875 
Q 33.109375 45.40625 28.21875 45.40625 
Q 24.515625 45.40625 21.359375 43.453125 
Q 18.21875 41.5 16.796875 37.734375 
Q 15.375 33.984375 15.375 26.90625 
L 15.375 0 
z
" id="ArialMT-109"/>
      <path d="M 6.59375 -19.875 
L 6.59375 51.859375 
L 14.59375 51.859375 
L 14.59375 45.125 
Q 17.4375 49.078125 21 51.046875 
Q 24.5625 53.03125 29.640625 53.03125 
Q 36.28125 53.03125 41.359375 49.609375 
Q 46.4375 46.1875 49.015625 39.953125 
Q 51.609375 33.734375 51.609375 26.3125 
Q 51.609375 18.359375 48.75 11.984375 
Q 45.90625 5.609375 40.453125 2.21875 
Q 35.015625 -1.171875 29 -1.171875 
Q 24.609375 -1.171875 21.109375 0.6875 
Q 17.625 2.546875 15.375 5.375 
L 15.375 -19.875 
z
M 14.546875 25.640625 
Q 14.546875 15.625 18.59375 10.84375 
Q 22.65625 6.0625 28.421875 6.0625 
Q 34.28125 6.0625 38.453125 11.015625 
Q 42.625 15.96875 42.625 26.375 
Q 42.625 36.28125 38.546875 41.203125 
Q 34.46875 46.140625 28.8125 46.140625 
Q 23.1875 46.140625 18.859375 40.890625 
Q 14.546875 35.640625 14.546875 25.640625 
z
" id="ArialMT-112"/>
      <path d="M 6.390625 0 
L 6.390625 71.578125 
L 15.1875 71.578125 
L 15.1875 0 
z
" id="ArialMT-108"/>
      <path d="M 42.09375 16.703125 
L 51.171875 15.578125 
Q 49.03125 7.625 43.21875 3.21875 
Q 37.40625 -1.171875 28.375 -1.171875 
Q 17 -1.171875 10.328125 5.828125 
Q 3.65625 12.84375 3.65625 25.484375 
Q 3.65625 38.578125 10.390625 45.796875 
Q 17.140625 53.03125 27.875 53.03125 
Q 38.28125 53.03125 44.875 45.953125 
Q 51.46875 38.875 51.46875 26.03125 
Q 51.46875 25.25 51.421875 23.6875 
L 12.75 23.6875 
Q 13.234375 15.140625 17.578125 10.59375 
Q 21.921875 6.0625 28.421875 6.0625 
Q 33.25 6.0625 36.671875 8.59375 
Q 40.09375 11.140625 42.09375 16.703125 
z
M 13.234375 30.90625 
L 42.1875 30.90625 
Q 41.609375 37.453125 38.875 40.71875 
Q 34.671875 45.796875 27.984375 45.796875 
Q 21.921875 45.796875 17.796875 41.75 
Q 13.671875 37.703125 13.234375 30.90625 
z
" id="ArialMT-101"/>
     </defs>
     <g transform="translate(541.254531 305.705)scale(0.26 -0.26)">
      <use xlink:href="#ArialMT-35"/>
      <use x="55.615234" xlink:href="#ArialMT-32"/>
      <use x="83.398438" xlink:href="#ArialMT-115"/>
      <use x="133.398438" xlink:href="#ArialMT-97"/>
      <use x="189.013672" xlink:href="#ArialMT-109"/>
      <use x="272.314453" xlink:href="#ArialMT-112"/>
      <use x="327.929688" xlink:href="#ArialMT-108"/>
      <use x="350.146484" xlink:href="#ArialMT-101"/>
     </g>
    </g>
   </g>
   <g id="matplotlib.axis_2">
    <g id="ytick_1">
     <g id="line2d_7">
      <path clip-path="url(#pf10c953e13)" d="M 180 242.124678 
L 1008 242.124678 
" style="fill:none;stroke:#b0b0b0;stroke-linecap:square;stroke-width:0.8;"/>
     </g>
     <g id="line2d_8">
      <defs>
       <path d="M 0 0 
L -3.5 0 
" id="m1a540f1333" style="stroke:#000000;stroke-width:0.8;"/>
      </defs>
      <g>
       <use style="stroke:#000000;stroke-width:0.8;" x="180" xlink:href="#m1a540f1333" y="242.124678"/>
      </g>
     </g>
     <g id="text_5">
      <!-- 0 -->
      <g transform="translate(158.541562 251.429835)scale(0.26 -0.26)">
       <use xlink:href="#ArialMT-48"/>
      </g>
     </g>
    </g>
    <g id="ytick_2">
     <g id="line2d_9">
      <path clip-path="url(#pf10c953e13)" d="M 180 181.051233 
L 1008 181.051233 
" style="fill:none;stroke:#b0b0b0;stroke-linecap:square;stroke-width:0.8;"/>
     </g>
     <g id="line2d_10">
      <g>
       <use style="stroke:#000000;stroke-width:0.8;" x="180" xlink:href="#m1a540f1333" y="181.051233"/>
      </g>
     </g>
     <g id="text_6">
      <!-- 50 -->
      <defs>
       <path d="M 4.15625 18.75 
L 13.375 19.53125 
Q 14.40625 12.796875 18.140625 9.390625 
Q 21.875 6 27.15625 6 
Q 33.5 6 37.890625 10.78125 
Q 42.28125 15.578125 42.28125 23.484375 
Q 42.28125 31 38.0625 35.34375 
Q 33.84375 39.703125 27 39.703125 
Q 22.75 39.703125 19.328125 37.765625 
Q 15.921875 35.84375 13.96875 32.765625 
L 5.71875 33.84375 
L 12.640625 70.609375 
L 48.25 70.609375 
L 48.25 62.203125 
L 19.671875 62.203125 
L 15.828125 42.96875 
Q 22.265625 47.46875 29.34375 47.46875 
Q 38.71875 47.46875 45.15625 40.96875 
Q 51.609375 34.46875 51.609375 24.265625 
Q 51.609375 14.546875 45.953125 7.46875 
Q 39.0625 -1.21875 27.15625 -1.21875 
Q 17.390625 -1.21875 11.203125 4.25 
Q 5.03125 9.71875 4.15625 18.75 
z
" id="ArialMT-53"/>
      </defs>
      <g transform="translate(144.083125 190.356389)scale(0.26 -0.26)">
       <use xlink:href="#ArialMT-53"/>
       <use x="55.615234" xlink:href="#ArialMT-48"/>
      </g>
     </g>
    </g>
    <g id="ytick_3">
     <g id="line2d_11">
      <path clip-path="url(#pf10c953e13)" d="M 180 119.977787 
L 1008 119.977787 
" style="fill:none;stroke:#b0b0b0;stroke-linecap:square;stroke-width:0.8;"/>
     </g>
     <g id="line2d_12">
      <g>
       <use style="stroke:#000000;stroke-width:0.8;" x="180" xlink:href="#m1a540f1333" y="119.977787"/>
      </g>
     </g>
     <g id="text_7">
      <!-- 100 -->
      <defs>
       <path d="M 37.25 0 
L 28.46875 0 
L 28.46875 56 
Q 25.296875 52.984375 20.140625 49.953125 
Q 14.984375 46.921875 10.890625 45.40625 
L 10.890625 53.90625 
Q 18.265625 57.375 23.78125 62.296875 
Q 29.296875 67.234375 31.59375 71.875 
L 37.25 71.875 
z
" id="ArialMT-49"/>
      </defs>
      <g transform="translate(129.624687 129.282943)scale(0.26 -0.26)">
       <use xlink:href="#ArialMT-49"/>
       <use x="55.615234" xlink:href="#ArialMT-48"/>
       <use x="111.230469" xlink:href="#ArialMT-48"/>
      </g>
     </g>
    </g>
    <g id="ytick_4">
     <g id="line2d_13">
      <path clip-path="url(#pf10c953e13)" d="M 180 58.904341 
L 1008 58.904341 
" style="fill:none;stroke:#b0b0b0;stroke-linecap:square;stroke-width:0.8;"/>
     </g>
     <g id="line2d_14">
      <g>
       <use style="stroke:#000000;stroke-width:0.8;" x="180" xlink:href="#m1a540f1333" y="58.904341"/>
      </g>
     </g>
     <g id="text_8">
      <!-- 150 -->
      <g transform="translate(129.624687 68.209497)scale(0.26 -0.26)">
       <use xlink:href="#ArialMT-49"/>
       <use x="55.615234" xlink:href="#ArialMT-53"/>
       <use x="111.230469" xlink:href="#ArialMT-48"/>
      </g>
     </g>
    </g>
    <g id="text_9">
     <!-- Change-point score  -->
     <defs>
      <path d="M 58.796875 25.09375 
L 68.265625 22.703125 
Q 65.28125 11.03125 57.546875 4.90625 
Q 49.8125 -1.21875 38.625 -1.21875 
Q 27.046875 -1.21875 19.796875 3.484375 
Q 12.546875 8.203125 8.765625 17.140625 
Q 4.984375 26.078125 4.984375 36.328125 
Q 4.984375 47.515625 9.25 55.828125 
Q 13.53125 64.15625 21.40625 68.46875 
Q 29.296875 72.796875 38.765625 72.796875 
Q 49.515625 72.796875 56.828125 67.328125 
Q 64.15625 61.859375 67.046875 51.953125 
L 57.71875 49.75 
Q 55.21875 57.5625 50.484375 61.125 
Q 45.75 64.703125 38.578125 64.703125 
Q 30.328125 64.703125 24.78125 60.734375 
Q 19.234375 56.78125 16.984375 50.109375 
Q 14.75 43.453125 14.75 36.375 
Q 14.75 27.25 17.40625 20.4375 
Q 20.0625 13.625 25.671875 10.25 
Q 31.296875 6.890625 37.84375 6.890625 
Q 45.796875 6.890625 51.3125 11.46875 
Q 56.84375 16.0625 58.796875 25.09375 
z
" id="ArialMT-67"/>
      <path d="M 6.59375 0 
L 6.59375 71.578125 
L 15.375 71.578125 
L 15.375 45.90625 
Q 21.53125 53.03125 30.90625 53.03125 
Q 36.671875 53.03125 40.921875 50.75 
Q 45.171875 48.484375 47 44.484375 
Q 48.828125 40.484375 48.828125 32.859375 
L 48.828125 0 
L 40.046875 0 
L 40.046875 32.859375 
Q 40.046875 39.453125 37.1875 42.453125 
Q 34.328125 45.453125 29.109375 45.453125 
Q 25.203125 45.453125 21.75 43.421875 
Q 18.3125 41.40625 16.84375 37.9375 
Q 15.375 34.46875 15.375 28.375 
L 15.375 0 
z
" id="ArialMT-104"/>
      <path d="M 6.59375 0 
L 6.59375 51.859375 
L 14.5 51.859375 
L 14.5 44.484375 
Q 20.21875 53.03125 31 53.03125 
Q 35.6875 53.03125 39.625 51.34375 
Q 43.5625 49.65625 45.515625 46.921875 
Q 47.46875 44.1875 48.25 40.4375 
Q 48.734375 37.984375 48.734375 31.890625 
L 48.734375 0 
L 39.9375 0 
L 39.9375 31.546875 
Q 39.9375 36.921875 38.90625 39.578125 
Q 37.890625 42.234375 35.28125 43.8125 
Q 32.671875 45.40625 29.15625 45.40625 
Q 23.53125 45.40625 19.453125 41.84375 
Q 15.375 38.28125 15.375 28.328125 
L 15.375 0 
z
" id="ArialMT-110"/>
      <path d="M 4.984375 -4.296875 
L 13.53125 -5.5625 
Q 14.0625 -9.515625 16.5 -11.328125 
Q 19.78125 -13.765625 25.4375 -13.765625 
Q 31.546875 -13.765625 34.859375 -11.328125 
Q 38.1875 -8.890625 39.359375 -4.5 
Q 40.046875 -1.8125 39.984375 6.78125 
Q 34.234375 0 25.640625 0 
Q 14.9375 0 9.078125 7.71875 
Q 3.21875 15.4375 3.21875 26.21875 
Q 3.21875 33.640625 5.90625 39.90625 
Q 8.59375 46.1875 13.6875 49.609375 
Q 18.796875 53.03125 25.6875 53.03125 
Q 34.859375 53.03125 40.828125 45.609375 
L 40.828125 51.859375 
L 48.921875 51.859375 
L 48.921875 7.03125 
Q 48.921875 -5.078125 46.453125 -10.125 
Q 44 -15.1875 38.640625 -18.109375 
Q 33.296875 -21.046875 25.484375 -21.046875 
Q 16.21875 -21.046875 10.5 -16.875 
Q 4.78125 -12.703125 4.984375 -4.296875 
z
M 12.25 26.859375 
Q 12.25 16.65625 16.296875 11.96875 
Q 20.359375 7.28125 26.46875 7.28125 
Q 32.515625 7.28125 36.609375 11.9375 
Q 40.71875 16.609375 40.71875 26.5625 
Q 40.71875 36.078125 36.5 40.90625 
Q 32.28125 45.75 26.3125 45.75 
Q 20.453125 45.75 16.34375 40.984375 
Q 12.25 36.234375 12.25 26.859375 
z
" id="ArialMT-103"/>
      <path d="M 3.171875 21.484375 
L 3.171875 30.328125 
L 30.171875 30.328125 
L 30.171875 21.484375 
z
" id="ArialMT-45"/>
      <path d="M 3.328125 25.921875 
Q 3.328125 40.328125 11.328125 47.265625 
Q 18.015625 53.03125 27.640625 53.03125 
Q 38.328125 53.03125 45.109375 46.015625 
Q 51.90625 39.015625 51.90625 26.65625 
Q 51.90625 16.65625 48.90625 10.90625 
Q 45.90625 5.171875 40.15625 2 
Q 34.421875 -1.171875 27.640625 -1.171875 
Q 16.75 -1.171875 10.03125 5.8125 
Q 3.328125 12.796875 3.328125 25.921875 
z
M 12.359375 25.921875 
Q 12.359375 15.96875 16.703125 11.015625 
Q 21.046875 6.0625 27.640625 6.0625 
Q 34.1875 6.0625 38.53125 11.03125 
Q 42.875 16.015625 42.875 26.21875 
Q 42.875 35.84375 38.5 40.796875 
Q 34.125 45.75 27.640625 45.75 
Q 21.046875 45.75 16.703125 40.8125 
Q 12.359375 35.890625 12.359375 25.921875 
z
" id="ArialMT-111"/>
      <path d="M 6.640625 61.46875 
L 6.640625 71.578125 
L 15.4375 71.578125 
L 15.4375 61.46875 
z
M 6.640625 0 
L 6.640625 51.859375 
L 15.4375 51.859375 
L 15.4375 0 
z
" id="ArialMT-105"/>
      <path d="M 25.78125 7.859375 
L 27.046875 0.09375 
Q 23.34375 -0.6875 20.40625 -0.6875 
Q 15.625 -0.6875 12.984375 0.828125 
Q 10.359375 2.34375 9.28125 4.8125 
Q 8.203125 7.28125 8.203125 15.1875 
L 8.203125 45.015625 
L 1.765625 45.015625 
L 1.765625 51.859375 
L 8.203125 51.859375 
L 8.203125 64.703125 
L 16.9375 69.96875 
L 16.9375 51.859375 
L 25.78125 51.859375 
L 25.78125 45.015625 
L 16.9375 45.015625 
L 16.9375 14.703125 
Q 16.9375 10.9375 17.40625 9.859375 
Q 17.875 8.796875 18.921875 8.15625 
Q 19.96875 7.515625 21.921875 7.515625 
Q 23.390625 7.515625 25.78125 7.859375 
z
" id="ArialMT-116"/>
      <path d="M 40.4375 19 
L 49.078125 17.875 
Q 47.65625 8.9375 41.8125 3.875 
Q 35.984375 -1.171875 27.484375 -1.171875 
Q 16.84375 -1.171875 10.375 5.78125 
Q 3.90625 12.75 3.90625 25.734375 
Q 3.90625 34.125 6.6875 40.421875 
Q 9.46875 46.734375 15.15625 49.875 
Q 20.84375 53.03125 27.546875 53.03125 
Q 35.984375 53.03125 41.359375 48.75 
Q 46.734375 44.484375 48.25 36.625 
L 39.703125 35.296875 
Q 38.484375 40.53125 35.375 43.15625 
Q 32.28125 45.796875 27.875 45.796875 
Q 21.234375 45.796875 17.078125 41.03125 
Q 12.9375 36.28125 12.9375 25.984375 
Q 12.9375 15.53125 16.9375 10.796875 
Q 20.953125 6.0625 27.390625 6.0625 
Q 32.5625 6.0625 36.03125 9.234375 
Q 39.5 12.40625 40.4375 19 
z
" id="ArialMT-99"/>
      <path d="M 6.5 0 
L 6.5 51.859375 
L 14.40625 51.859375 
L 14.40625 44 
Q 17.4375 49.515625 20 51.265625 
Q 22.5625 53.03125 25.640625 53.03125 
Q 30.078125 53.03125 34.671875 50.203125 
L 31.640625 42.046875 
Q 28.421875 43.953125 25.203125 43.953125 
Q 22.3125 43.953125 20.015625 42.21875 
Q 17.71875 40.484375 16.75 37.40625 
Q 15.28125 32.71875 15.28125 27.15625 
L 15.28125 0 
z
" id="ArialMT-114"/>
     </defs>
     <g transform="translate(91.967687 260.340937)rotate(-90)scale(0.26 -0.26)">
      <use xlink:href="#ArialMT-67"/>
      <use x="72.216797" xlink:href="#ArialMT-104"/>
      <use x="127.832031" xlink:href="#ArialMT-97"/>
      <use x="183.447266" xlink:href="#ArialMT-110"/>
      <use x="239.0625" xlink:href="#ArialMT-103"/>
      <use x="294.677734" xlink:href="#ArialMT-101"/>
      <use x="350.292969" xlink:href="#ArialMT-45"/>
      <use x="383.59375" xlink:href="#ArialMT-112"/>
      <use x="439.208984" xlink:href="#ArialMT-111"/>
      <use x="494.824219" xlink:href="#ArialMT-105"/>
      <use x="517.041016" xlink:href="#ArialMT-110"/>
      <use x="572.65625" xlink:href="#ArialMT-116"/>
      <use x="600.439453" xlink:href="#ArialMT-32"/>
      <use x="628.222656" xlink:href="#ArialMT-115"/>
      <use x="678.222656" xlink:href="#ArialMT-99"/>
      <use x="728.222656" xlink:href="#ArialMT-111"/>
      <use x="783.837891" xlink:href="#ArialMT-114"/>
      <use x="817.138672" xlink:href="#ArialMT-101"/>
      <use x="872.753906" xlink:href="#ArialMT-32"/>
     </g>
     <!-- (KL div.) -->
     <defs>
      <path d="M 23.390625 -21.046875 
Q 16.109375 -11.859375 11.078125 0.4375 
Q 6.0625 12.75 6.0625 25.921875 
Q 6.0625 37.546875 9.8125 48.1875 
Q 14.203125 60.546875 23.390625 72.796875 
L 29.6875 72.796875 
Q 23.78125 62.640625 21.875 58.296875 
Q 18.890625 51.5625 17.1875 44.234375 
Q 15.09375 35.109375 15.09375 25.875 
Q 15.09375 2.390625 29.6875 -21.046875 
z
" id="ArialMT-40"/>
      <path d="M 7.328125 0 
L 7.328125 71.578125 
L 16.796875 71.578125 
L 16.796875 36.078125 
L 52.34375 71.578125 
L 65.1875 71.578125 
L 35.15625 42.578125 
L 66.5 0 
L 54 0 
L 28.515625 36.234375 
L 16.796875 24.8125 
L 16.796875 0 
z
" id="ArialMT-75"/>
      <path d="M 7.328125 0 
L 7.328125 71.578125 
L 16.796875 71.578125 
L 16.796875 8.453125 
L 52.046875 8.453125 
L 52.046875 0 
z
" id="ArialMT-76"/>
      <path d="M 40.234375 0 
L 40.234375 6.546875 
Q 35.296875 -1.171875 25.734375 -1.171875 
Q 19.53125 -1.171875 14.328125 2.25 
Q 9.125 5.671875 6.265625 11.796875 
Q 3.421875 17.921875 3.421875 25.875 
Q 3.421875 33.640625 6 39.96875 
Q 8.59375 46.296875 13.765625 49.65625 
Q 18.953125 53.03125 25.34375 53.03125 
Q 30.03125 53.03125 33.6875 51.046875 
Q 37.359375 49.078125 39.65625 45.90625 
L 39.65625 71.578125 
L 48.390625 71.578125 
L 48.390625 0 
z
M 12.453125 25.875 
Q 12.453125 15.921875 16.640625 10.984375 
Q 20.84375 6.0625 26.5625 6.0625 
Q 32.328125 6.0625 36.34375 10.765625 
Q 40.375 15.484375 40.375 25.140625 
Q 40.375 35.796875 36.265625 40.765625 
Q 32.171875 45.75 26.171875 45.75 
Q 20.3125 45.75 16.375 40.96875 
Q 12.453125 36.1875 12.453125 25.875 
z
" id="ArialMT-100"/>
      <path d="M 21 0 
L 1.265625 51.859375 
L 10.546875 51.859375 
L 21.6875 20.796875 
Q 23.484375 15.765625 25 10.359375 
Q 26.171875 14.453125 28.265625 20.21875 
L 39.796875 51.859375 
L 48.828125 51.859375 
L 29.203125 0 
z
" id="ArialMT-118"/>
      <path d="M 9.078125 0 
L 9.078125 10.015625 
L 19.09375 10.015625 
L 19.09375 0 
z
" id="ArialMT-46"/>
      <path d="M 12.359375 -21.046875 
L 6.0625 -21.046875 
Q 20.65625 2.390625 20.65625 25.875 
Q 20.65625 35.0625 18.5625 44.09375 
Q 16.890625 51.421875 13.921875 58.15625 
Q 12.015625 62.546875 6.0625 72.796875 
L 12.359375 72.796875 
Q 21.53125 60.546875 25.921875 48.1875 
Q 29.6875 37.546875 29.6875 25.921875 
Q 29.6875 12.75 24.625 0.4375 
Q 19.578125 -11.859375 12.359375 -21.046875 
z
" id="ArialMT-41"/>
     </defs>
     <g transform="translate(120.1525 190.232344)rotate(-90)scale(0.26 -0.26)">
      <use xlink:href="#ArialMT-40"/>
      <use x="33.300781" xlink:href="#ArialMT-75"/>
      <use x="100" xlink:href="#ArialMT-76"/>
      <use x="151.865234" xlink:href="#ArialMT-32"/>
      <use x="179.648438" xlink:href="#ArialMT-100"/>
      <use x="235.263672" xlink:href="#ArialMT-105"/>
      <use x="257.480469" xlink:href="#ArialMT-118"/>
      <use x="300.105469" xlink:href="#ArialMT-46"/>
      <use x="327.888672" xlink:href="#ArialMT-41"/>
     </g>
    </g>
   </g>
   <g id="line2d_15">
    <path clip-path="url(#pf10c953e13)" d="M 217.636364 44.443636 
L 218.012916 189.99099 
L 218.389467 226.281035 
L 218.766019 234.95044 
L 218.954295 236.149663 
L 219.142571 236.438043 
L 219.330847 236.173796 
L 219.519123 235.378937 
L 219.895675 231.83503 
L 221.025331 214.890109 
L 221.401883 216.956158 
L 222.343263 228.672148 
L 222.90809 231.864949 
L 223.096366 232.030066 
L 223.284642 231.501612 
L 223.472918 231.718551 
L 223.84947 229.918721 
L 224.037746 230.185911 
L 224.979126 223.315863 
L 225.73223 221.467375 
L 225.920506 221.068976 
L 226.108782 222.211144 
L 226.297058 222.450823 
L 226.485334 221.621687 
L 226.67361 224.493589 
L 226.861885 224.228159 
L 227.050161 224.570359 
L 227.238437 225.483106 
L 227.426713 225.760473 
L 227.803265 227.649643 
L 227.991541 228.240281 
L 228.179817 227.314171 
L 228.556369 228.340707 
L 228.932921 227.794529 
L 229.309473 225.82305 
L 229.497749 225.016374 
L 229.686025 226.497589 
L 229.874301 223.435565 
L 230.062577 225.42307 
L 230.439129 222.884906 
L 230.627405 222.817697 
L 230.815681 222.131 
L 231.003957 222.68779 
L 231.568784 222.630411 
L 231.75706 223.030707 
L 231.945336 225.445708 
L 232.133612 225.104563 
L 232.321888 223.97456 
L 232.69844 226.359211 
L 232.886716 224.921258 
L 233.074992 224.478255 
L 233.263268 227.705918 
L 233.451544 227.963176 
L 233.63982 228.705092 
L 233.828096 228.861874 
L 234.016372 227.974101 
L 234.204648 230.316297 
L 234.392924 229.59519 
L 234.5812 231.908293 
L 234.769476 232.056846 
L 235.146028 233.896738 
L 235.334304 234.093485 
L 235.522579 235.225851 
L 235.710855 234.538946 
L 235.899131 236.085107 
L 236.087407 233.576741 
L 236.275683 234.507303 
L 236.463959 234.750355 
L 236.652235 233.987219 
L 236.840511 234.307351 
L 237.028787 233.715119 
L 237.217063 234.298706 
L 237.405339 231.617675 
L 237.593615 233.806311 
L 238.158443 232.131409 
L 238.346719 233.05923 
L 238.911547 229.865319 
L 239.099823 230.07295 
L 239.288099 231.514169 
L 239.476375 229.432898 
L 239.664651 229.414165 
L 239.852926 228.832531 
L 240.041202 227.56842 
L 240.229478 228.4409 
L 240.417754 227.513362 
L 240.794306 229.028143 
L 240.982582 228.544493 
L 241.170858 227.212572 
L 241.54741 229.28034 
L 241.735686 228.905067 
L 241.923962 229.421209 
L 242.112238 230.271467 
L 242.300514 229.289087 
L 242.48879 231.671702 
L 242.865342 232.577681 
L 243.053618 230.863334 
L 243.241894 231.291974 
L 243.618446 234.340911 
L 243.806722 233.289386 
L 243.994997 234.043629 
L 244.183273 232.584329 
L 244.748101 232.137481 
L 244.936377 233.926051 
L 245.312929 231.783131 
L 245.501205 232.571754 
L 245.689481 231.801264 
L 245.877757 233.41815 
L 246.066033 231.835786 
L 246.254309 232.958525 
L 246.442585 231.625209 
L 246.630861 231.607803 
L 247.007413 229.58445 
L 247.195689 230.922896 
L 247.383965 231.050511 
L 247.572241 230.586332 
L 247.760517 230.748326 
L 247.948793 229.946657 
L 248.137069 228.644438 
L 248.325344 230.843161 
L 248.51362 230.403787 
L 248.701896 231.784581 
L 248.890172 229.504267 
L 249.266724 232.302265 
L 249.455 232.284833 
L 249.643276 234.531356 
L 249.831552 233.88183 
L 250.019828 234.980411 
L 250.208104 233.300122 
L 250.772932 235.173162 
L 251.149484 234.825133 
L 251.714312 233.573638 
L 251.902588 235.824322 
L 252.090864 236.700221 
L 252.27914 236.658816 
L 252.467416 236.015308 
L 252.655691 236.499856 
L 253.032243 236.479327 
L 253.408795 236.568293 
L 253.597071 236.106856 
L 253.785347 236.59214 
L 253.973623 234.897788 
L 254.161899 234.993191 
L 254.350175 234.546288 
L 254.538451 234.709042 
L 254.726727 235.159534 
L 254.915003 236.414847 
L 255.103279 236.540055 
L 255.291555 235.459591 
L 255.479831 236.260497 
L 255.668107 234.429488 
L 255.856383 234.008267 
L 256.044659 234.307556 
L 256.232935 234.167786 
L 256.421211 235.818822 
L 256.797763 233.54428 
L 256.986038 234.772066 
L 257.174314 232.813963 
L 257.36259 233.018575 
L 257.550866 234.562404 
L 257.739142 233.788219 
L 257.927418 234.757045 
L 258.115694 232.808563 
L 258.30397 232.295644 
L 258.492246 234.243041 
L 258.680522 233.850678 
L 259.057074 234.927127 
L 259.24535 234.26896 
L 259.433626 232.797547 
L 259.810178 232.260103 
L 259.998454 233.454523 
L 260.18673 231.737526 
L 260.375006 231.259837 
L 260.563282 229.242587 
L 260.751558 231.821964 
L 261.12811 230.431415 
L 261.316385 231.857999 
L 261.504661 232.169109 
L 261.692937 230.926397 
L 261.881213 230.536397 
L 262.069489 231.708012 
L 262.257765 231.015949 
L 262.446041 233.234172 
L 262.634317 232.755311 
L 262.822593 233.175909 
L 263.199145 236.043123 
L 263.387421 234.561304 
L 263.763973 237.054152 
L 264.140525 236.851394 
L 264.328801 238.173435 
L 264.517077 237.141545 
L 264.705353 236.949411 
L 264.893629 237.713508 
L 265.081905 236.732072 
L 265.270181 238.296378 
L 265.458457 237.088051 
L 265.646732 237.548027 
L 265.835008 236.660795 
L 266.023284 236.470512 
L 266.776388 234.784406 
L 266.964664 235.726638 
L 267.15294 234.699346 
L 267.341216 235.832424 
L 267.529492 236.21002 
L 267.717768 234.220985 
L 267.906044 234.43715 
L 268.09432 235.862017 
L 268.282596 236.207779 
L 268.470872 237.042763 
L 268.659148 236.836971 
L 269.0357 238.341026 
L 269.223976 238.783686 
L 269.412252 238.679555 
L 269.600528 238.306011 
L 269.788803 238.328237 
L 270.165355 236.983009 
L 270.353631 236.657541 
L 270.730183 236.403886 
L 270.918459 235.63662 
L 271.106735 237.199593 
L 271.483287 235.678619 
L 271.671563 237.825135 
L 271.859839 237.105896 
L 272.048115 235.58305 
L 272.236391 237.162217 
L 272.612943 238.273116 
L 273.177771 235.723467 
L 273.366047 237.303898 
L 273.554323 236.880602 
L 273.742599 237.991087 
L 273.930875 236.988824 
L 274.11915 237.797567 
L 274.307426 237.989119 
L 274.495702 237.249332 
L 274.872254 238.470214 
L 275.248806 237.560049 
L 275.625358 238.311138 
L 275.813634 237.219063 
L 276.00191 237.436111 
L 276.190186 236.673842 
L 276.378462 237.405144 
L 276.566738 237.355974 
L 276.755014 237.45783 
L 276.94329 238.134596 
L 277.131566 238.03024 
L 277.696394 236.146085 
L 277.88467 236.564706 
L 278.072946 236.605941 
L 278.261222 236.518929 
L 278.449497 237.716348 
L 278.637773 237.344055 
L 279.014325 235.891613 
L 279.202601 236.277751 
L 279.390877 235.915072 
L 279.767429 235.655554 
L 279.955705 237.023981 
L 280.143981 234.478892 
L 280.332257 238.223165 
L 280.520533 236.512427 
L 280.708809 237.289409 
L 280.897085 236.7761 
L 281.085361 236.96455 
L 281.273637 236.224746 
L 281.461913 237.39446 
L 281.650189 236.905528 
L 281.838465 236.86847 
L 282.026741 235.580339 
L 282.215017 236.46387 
L 282.403293 234.639518 
L 282.591569 235.417802 
L 283.156396 233.289595 
L 283.344672 233.973787 
L 283.532948 231.765071 
L 283.721224 233.186681 
L 284.097776 229.491782 
L 284.286052 230.619542 
L 284.474328 230.03077 
L 284.662604 228.941463 
L 284.85088 229.615662 
L 285.039156 230.929969 
L 285.227432 227.484463 
L 285.415708 229.566789 
L 285.603984 227.284709 
L 285.980536 231.311602 
L 286.545364 235.531496 
L 286.921916 232.26758 
L 287.110191 232.623161 
L 287.298467 233.583375 
L 287.486743 232.767922 
L 287.675019 236.245782 
L 287.863295 236.426233 
L 288.051571 236.785987 
L 288.239847 235.652767 
L 288.428123 237.309013 
L 288.616399 235.81592 
L 288.804675 237.178457 
L 288.992951 237.063353 
L 289.181227 238.388293 
L 289.369503 236.697227 
L 289.557779 236.785595 
L 289.746055 237.930631 
L 289.934331 234.863604 
L 290.122607 236.996687 
L 290.499159 235.315637 
L 290.687435 237.066917 
L 290.875711 235.184369 
L 291.063987 235.855584 
L 291.252262 234.238289 
L 291.440538 236.863051 
L 291.628814 236.327267 
L 291.81709 236.54108 
L 292.005366 237.801968 
L 292.381918 237.613018 
L 292.75847 238.583086 
L 292.946746 237.447178 
L 293.135022 240.031361 
L 293.511574 238.594037 
L 293.888126 238.437332 
L 294.076402 238.713799 
L 294.264678 239.412353 
L 294.452954 237.721868 
L 294.64123 238.79348 
L 294.829506 237.845286 
L 295.017782 238.121561 
L 295.206058 238.837627 
L 295.394334 237.554927 
L 295.582609 238.344183 
L 295.770885 237.17409 
L 296.335713 237.635206 
L 296.523989 238.753909 
L 296.712265 235.620089 
L 296.900541 236.039908 
L 297.088817 234.547394 
L 297.465369 237.656214 
L 297.653645 235.310627 
L 298.030197 235.971407 
L 298.218473 237.037629 
L 298.406749 236.927904 
L 298.595025 236.189488 
L 298.783301 236.358125 
L 298.971577 237.297273 
L 299.159853 236.986556 
L 299.536405 235.419496 
L 299.724681 238.291773 
L 299.912956 238.479776 
L 300.101232 238.313648 
L 300.289508 237.847228 
L 300.66606 239.199873 
L 300.854336 238.599167 
L 301.042612 239.266382 
L 301.230888 239.081631 
L 301.419164 239.082993 
L 301.795716 239.418655 
L 301.983992 240.358542 
L 302.172268 239.61141 
L 302.360544 240.060486 
L 302.54882 239.620047 
L 302.737096 239.803977 
L 302.925372 239.392746 
L 303.113648 240.105487 
L 303.301924 240.121497 
L 303.4902 239.811649 
L 303.678476 239.941268 
L 303.866752 239.07564 
L 304.055028 240.305376 
L 304.243303 239.772721 
L 304.431579 239.979752 
L 304.619855 240.36536 
L 304.808131 239.682403 
L 304.996407 239.85129 
L 305.184683 239.849478 
L 305.372959 238.764184 
L 305.561235 239.112489 
L 305.749511 239.053734 
L 305.937787 238.782336 
L 306.314339 240.222 
L 306.502615 239.134889 
L 306.690891 239.976815 
L 306.879167 238.403174 
L 307.067443 239.767959 
L 307.255719 239.10014 
L 307.443995 239.745073 
L 307.820547 238.415351 
L 308.008823 240.14748 
L 308.385375 237.767359 
L 308.761926 238.54037 
L 309.138478 238.221791 
L 309.326754 236.823408 
L 309.703306 238.498367 
L 309.891582 238.44546 
L 310.079858 239.035956 
L 310.45641 239.025717 
L 310.644686 238.76169 
L 310.832962 239.916451 
L 311.021238 238.053752 
L 311.209514 237.986182 
L 311.586066 239.878374 
L 311.774342 238.787679 
L 311.962618 240.363033 
L 312.150894 238.723105 
L 312.33917 239.007698 
L 312.527446 239.864863 
L 312.715721 239.797727 
L 312.903997 238.786217 
L 313.092273 239.451494 
L 313.280549 237.932251 
L 313.468825 238.777994 
L 313.657101 238.683952 
L 313.845377 239.242241 
L 314.033653 238.787095 
L 314.221929 239.052033 
L 314.410205 237.997728 
L 314.598481 237.937753 
L 314.786757 237.05406 
L 314.975033 238.525508 
L 315.163309 238.31183 
L 315.351585 239.247267 
L 315.539861 237.685239 
L 315.728137 237.358178 
L 316.104689 239.179705 
L 316.292965 238.171907 
L 316.481241 237.878673 
L 316.669517 238.738819 
L 316.857793 238.890264 
L 317.046068 239.574722 
L 317.42262 237.521156 
L 317.610896 239.157668 
L 317.987448 239.353316 
L 318.175724 240.23071 
L 318.364 239.806946 
L 318.552276 239.100701 
L 319.30538 240.195942 
L 319.493656 239.814495 
L 319.681932 239.908318 
L 319.870208 239.772189 
L 320.058484 239.932215 
L 320.24676 239.279325 
L 320.435036 240.56067 
L 320.623312 239.606058 
L 320.999864 240.968884 
L 321.18814 239.892773 
L 321.376415 240.559451 
L 321.564691 239.904217 
L 321.752967 240.921275 
L 321.941243 240.337333 
L 322.129519 240.649908 
L 322.317795 240.709014 
L 322.694347 239.792662 
L 323.070899 239.933907 
L 323.259175 240.531747 
L 323.635727 239.573881 
L 323.824003 240.255164 
L 324.012279 240.17105 
L 324.200555 239.707357 
L 324.388831 239.72281 
L 324.577107 240.528785 
L 324.765383 239.429237 
L 324.953659 240.088871 
L 325.141935 239.628436 
L 325.330211 238.130955 
L 325.706762 239.811116 
L 325.895038 239.936983 
L 326.083314 239.377936 
L 326.27159 239.416941 
L 326.648142 240.037746 
L 326.836418 239.835271 
L 327.024694 240.33278 
L 327.21297 239.647603 
L 327.401246 239.917158 
L 327.589522 239.987617 
L 327.777798 240.72043 
L 327.966074 240.176045 
L 328.342626 238.82784 
L 328.530902 239.887111 
L 328.719178 240.154165 
L 328.907454 239.02931 
L 329.284006 240.474171 
L 329.660558 239.00851 
L 329.848834 238.999613 
L 330.037109 240.417519 
L 330.225385 239.680006 
L 330.413661 239.733506 
L 330.601937 238.837396 
L 330.790213 239.876377 
L 330.978489 239.660322 
L 331.166765 238.858954 
L 331.355041 240.096245 
L 331.543317 238.959317 
L 331.731593 239.154444 
L 331.919869 239.830609 
L 332.108145 239.107793 
L 332.296421 239.526243 
L 332.484697 239.441006 
L 332.672973 240.01706 
L 332.861249 240.008299 
L 333.049525 240.512308 
L 333.237801 240.047847 
L 333.426077 240.767549 
L 333.614353 240.364176 
L 333.802629 239.608794 
L 333.990905 240.863949 
L 334.17918 240.635441 
L 334.555732 238.768992 
L 334.744008 239.239414 
L 334.932284 238.388764 
L 335.308836 238.947016 
L 335.497112 236.858946 
L 335.685388 238.751489 
L 335.873664 237.901066 
L 336.06194 238.408602 
L 336.250216 238.204793 
L 336.438492 237.72222 
L 336.626768 238.633952 
L 336.815044 238.804751 
L 337.00332 238.168646 
L 337.191596 238.41965 
L 337.379872 239.393782 
L 337.568148 239.402872 
L 337.756424 240.672681 
L 337.9447 240.383044 
L 338.132976 240.297472 
L 338.321252 240.951278 
L 338.697803 240.694471 
L 338.886079 240.624063 
L 339.074355 241.180357 
L 339.450907 241.018175 
L 339.827459 241.180666 
L 340.204011 240.202517 
L 340.392287 240.94228 
L 340.580563 239.972294 
L 340.957115 240.856342 
L 341.145391 240.914885 
L 341.333667 240.755072 
L 341.521943 240.063892 
L 341.710219 240.764363 
L 342.086771 240.840865 
L 342.275047 241.116011 
L 342.463323 240.877249 
L 342.651599 240.266731 
L 342.839874 240.825903 
L 343.02815 240.779065 
L 343.216426 241.143964 
L 343.404702 241.15872 
L 343.781254 240.728352 
L 343.96953 240.278708 
L 344.157806 240.857343 
L 344.346082 240.762688 
L 344.534358 240.422734 
L 344.722634 241.140814 
L 345.099186 241.178179 
L 345.287462 241.146184 
L 345.475738 240.989782 
L 345.664014 240.655946 
L 345.85229 240.833166 
L 346.040566 240.507587 
L 346.228842 240.49903 
L 346.417118 240.991466 
L 346.605394 240.558878 
L 346.79367 241.101176 
L 346.981946 240.519896 
L 347.170221 240.797657 
L 347.358497 240.731153 
L 347.546773 240.045811 
L 347.735049 240.252978 
L 347.923325 240.0449 
L 348.111601 240.672453 
L 348.299877 240.057652 
L 348.488153 239.85637 
L 348.676429 239.375568 
L 348.864705 240.370654 
L 349.052981 239.023166 
L 349.241257 239.27938 
L 349.429533 240.575345 
L 349.617809 239.752778 
L 349.806085 240.554873 
L 349.994361 240.41667 
L 350.182637 239.992372 
L 350.370913 241.100531 
L 350.559189 240.506375 
L 350.747465 240.484497 
L 351.124017 241.128551 
L 351.312293 241.176625 
L 351.500568 240.50247 
L 351.688844 241.117853 
L 351.87712 241.227311 
L 352.441948 240.235972 
L 352.630224 239.982801 
L 352.8185 240.652742 
L 353.006776 240.239461 
L 353.195052 240.800183 
L 353.383328 239.904949 
L 353.571604 240.788342 
L 353.75988 239.781474 
L 353.948156 240.253116 
L 354.136432 240.233209 
L 354.324708 240.380964 
L 354.512984 240.762317 
L 354.889536 239.834041 
L 355.077812 240.751918 
L 355.266088 240.06131 
L 355.454364 240.534852 
L 355.64264 240.672894 
L 356.019191 241.462211 
L 356.395743 240.28683 
L 356.584019 241.082253 
L 356.772295 241.39128 
L 356.960571 241.360004 
L 357.148847 240.569771 
L 357.337123 241.208486 
L 357.525399 240.973028 
L 357.713675 241.220809 
L 357.901951 240.811914 
L 358.466779 241.007691 
L 358.655055 240.282013 
L 358.843331 240.867608 
L 359.031607 240.432353 
L 359.219883 241.378294 
L 359.596435 240.467195 
L 359.784711 240.500606 
L 360.161262 241.083283 
L 360.349538 240.660026 
L 360.537814 240.775076 
L 360.72609 239.90627 
L 361.102642 240.948106 
L 361.290918 240.618916 
L 361.479194 239.595665 
L 361.66747 240.398971 
L 361.855746 240.604502 
L 362.420574 239.945417 
L 362.60885 238.722379 
L 362.797126 240.22704 
L 362.985402 239.148548 
L 363.361954 240.578221 
L 363.55023 239.95444 
L 363.926782 240.53438 
L 364.115058 240.516091 
L 364.303333 239.993402 
L 364.491609 240.499295 
L 364.679885 240.26697 
L 364.868161 240.492879 
L 365.056437 240.543073 
L 365.244713 240.948752 
L 365.432989 240.698695 
L 365.621265 241.250277 
L 365.997817 241.353296 
L 366.562645 240.379317 
L 366.750921 240.767193 
L 366.939197 240.772257 
L 367.127473 239.166511 
L 367.315749 240.192422 
L 367.504025 239.765909 
L 367.692301 239.837282 
L 367.880577 239.356567 
L 368.068853 239.883008 
L 368.257129 239.797996 
L 368.445405 239.433687 
L 368.63368 239.918662 
L 368.821956 239.462841 
L 369.198508 240.860644 
L 369.386784 240.121703 
L 369.57506 239.98259 
L 369.763336 241.000539 
L 369.951612 240.331168 
L 370.139888 241.377488 
L 370.328164 240.896099 
L 370.51644 240.863092 
L 370.704716 241.074428 
L 370.892992 240.598145 
L 371.081268 240.968079 
L 371.269544 240.531284 
L 371.646096 240.77548 
L 371.834372 241.239807 
L 372.022648 241.101215 
L 372.210924 240.566029 
L 372.3992 241.002874 
L 372.587476 240.348279 
L 372.964027 241.274358 
L 373.717131 241.286989 
L 373.905407 240.833854 
L 374.093683 241.351716 
L 374.281959 241.342799 
L 374.470235 241.031803 
L 374.658511 241.044552 
L 375.035063 241.23138 
L 375.223339 241.146302 
L 375.788167 240.403643 
L 376.164719 240.690368 
L 376.352995 241.086601 
L 376.541271 240.34292 
L 376.729547 240.77709 
L 376.917823 240.285971 
L 377.106099 240.869336 
L 377.294374 240.210096 
L 377.48265 240.26683 
L 377.670926 239.791238 
L 378.047478 240.819541 
L 378.235754 240.546324 
L 378.42403 240.058311 
L 378.612306 240.276796 
L 378.800582 239.842964 
L 378.988858 239.950199 
L 379.177134 240.30948 
L 379.36541 240.077656 
L 379.553686 240.184207 
L 379.741962 240.478889 
L 379.930238 241.000622 
L 380.118514 240.994249 
L 380.30679 240.123163 
L 380.495066 241.119054 
L 380.871618 240.623254 
L 381.059894 241.333409 
L 381.24817 240.557965 
L 381.436445 240.701984 
L 381.624721 239.99384 
L 382.189549 241.110926 
L 382.377825 241.077792 
L 382.566101 240.004433 
L 382.942653 241.057438 
L 383.130929 240.898116 
L 383.319205 241.244306 
L 383.695757 240.805511 
L 383.884033 240.827857 
L 384.072309 241.405285 
L 384.260585 241.190831 
L 384.448861 241.284346 
L 384.637137 241.165332 
L 384.825413 241.563093 
L 385.201965 241.215114 
L 385.390241 241.546505 
L 385.578517 241.386568 
L 385.766792 241.498962 
L 386.143344 240.798036 
L 386.33162 241.111501 
L 386.708172 241.132515 
L 386.896448 240.824956 
L 387.084724 241.373578 
L 387.273 240.858471 
L 387.461276 241.16677 
L 387.837828 240.88493 
L 388.026104 241.361546 
L 388.21438 240.855584 
L 388.402656 240.8019 
L 388.590932 241.414277 
L 388.967484 240.846927 
L 389.15576 241.236929 
L 389.344036 240.63453 
L 389.532312 241.336025 
L 389.720588 240.641718 
L 390.097139 241.455324 
L 390.285415 240.980941 
L 390.473691 241.253578 
L 390.661967 241.175387 
L 390.850243 241.427349 
L 391.038519 241.407228 
L 391.415071 241.118984 
L 391.603347 241.490705 
L 391.979899 240.968657 
L 392.168175 241.342134 
L 392.356451 241.429561 
L 392.544727 241.189429 
L 392.733003 241.201838 
L 392.921279 241.456249 
L 393.109555 241.256557 
L 393.297831 241.284306 
L 393.486107 241.779411 
L 393.862659 241.396137 
L 394.050935 241.612174 
L 394.239211 241.304844 
L 395.557142 241.492129 
L 395.745418 241.839911 
L 396.12197 241.497632 
L 396.310246 241.349703 
L 396.498522 241.402224 
L 396.686798 240.970101 
L 396.875074 240.985596 
L 397.06335 241.47679 
L 397.628178 241.120724 
L 397.816454 241.60464 
L 398.00473 241.107347 
L 398.193006 241.374084 
L 398.381282 240.904875 
L 398.569558 241.307263 
L 398.757833 240.828944 
L 399.134385 241.331989 
L 399.322661 241.463918 
L 399.510937 241.101224 
L 399.699213 241.39456 
L 400.075765 241.253166 
L 400.264041 241.474643 
L 400.452317 241.018186 
L 400.640593 241.329931 
L 400.828869 240.809464 
L 401.017145 241.09916 
L 401.205421 240.952448 
L 401.393697 241.324732 
L 401.581973 240.556949 
L 401.770249 241.317158 
L 402.523353 241.322419 
L 402.711629 241.242074 
L 403.08818 241.424287 
L 403.276456 241.49386 
L 403.464732 241.430526 
L 403.653008 241.500886 
L 403.841284 241.448292 
L 404.02956 241.230865 
L 404.217836 241.617712 
L 404.782664 241.257893 
L 404.97094 241.477641 
L 405.159216 241.290879 
L 405.347492 241.262173 
L 405.535768 240.973318 
L 405.724044 241.505997 
L 405.91232 241.539592 
L 406.100596 241.25717 
L 406.288872 241.193475 
L 406.477148 241.566085 
L 406.665424 241.642601 
L 406.8537 241.306695 
L 407.230251 241.530479 
L 407.418527 241.311108 
L 407.795079 241.53586 
L 407.983355 241.39627 
L 408.359907 241.723453 
L 408.736459 241.335987 
L 408.924735 241.410255 
L 409.301287 241.154002 
L 409.489563 241.647804 
L 409.677839 241.115567 
L 409.866115 241.182344 
L 410.054391 240.826068 
L 410.242667 240.976564 
L 410.430943 240.791841 
L 410.619219 241.023496 
L 410.807495 240.890365 
L 410.995771 241.267983 
L 411.184047 241.266241 
L 411.372323 240.636087 
L 411.560598 241.44843 
L 411.748874 240.896018 
L 412.125426 241.002571 
L 412.313702 241.264252 
L 412.690254 241.188347 
L 412.87853 241.248611 
L 413.631634 240.997688 
L 414.008186 240.370411 
L 414.196462 240.831811 
L 414.384738 240.917277 
L 414.573014 241.219637 
L 414.76129 240.7777 
L 414.949566 241.377534 
L 415.137842 241.400865 
L 415.326118 240.52884 
L 415.514394 241.124565 
L 415.70267 241.132458 
L 415.890945 240.98157 
L 416.079221 240.228074 
L 416.267497 241.451974 
L 416.455773 241.029591 
L 416.644049 240.907704 
L 416.832325 241.416209 
L 417.208877 240.795351 
L 417.397153 240.994906 
L 417.585429 240.923629 
L 417.773705 241.330453 
L 417.961981 241.375519 
L 418.150257 241.714439 
L 418.338533 241.385587 
L 418.903361 241.319652 
L 419.091637 241.387633 
L 419.279913 241.326571 
L 419.468189 241.459425 
L 419.656465 241.346617 
L 420.033017 241.69325 
L 420.409568 241.306071 
L 420.597844 241.647092 
L 420.78612 241.692846 
L 420.974396 241.441222 
L 421.162672 241.463939 
L 421.350948 241.139794 
L 421.539224 241.40069 
L 421.7275 241.181152 
L 422.104052 241.559372 
L 422.292328 241.342236 
L 422.480604 241.584611 
L 422.66888 241.268762 
L 422.857156 241.357518 
L 423.045432 241.663203 
L 423.421984 241.333236 
L 423.798536 241.577613 
L 423.986812 241.336783 
L 424.175088 241.719119 
L 425.304743 241.592425 
L 425.493019 241.391121 
L 425.681295 241.768048 
L 425.869571 241.373874 
L 426.057847 241.700411 
L 426.246123 241.741922 
L 426.622675 241.564384 
L 426.810951 241.794939 
L 427.187503 241.707163 
L 427.375779 241.436555 
L 427.564055 241.687872 
L 427.752331 241.56759 
L 427.940607 241.741743 
L 428.128883 241.654116 
L 428.505435 241.65707 
L 428.69371 241.435195 
L 428.881986 241.423582 
L 429.070262 241.565082 
L 429.258538 241.43593 
L 429.446814 241.550739 
L 429.63509 241.285458 
L 429.823366 241.6767 
L 430.011642 241.459642 
L 430.199918 241.534524 
L 430.388194 241.748185 
L 430.57647 241.269267 
L 430.764746 241.292161 
L 430.953022 241.582095 
L 431.141298 241.438909 
L 431.51785 241.682376 
L 431.706126 241.83322 
L 432.082678 241.67901 
L 432.270954 241.77251 
L 432.45923 241.63328 
L 432.647506 241.87339 
L 432.835782 241.737156 
L 433.212333 241.730984 
L 433.588885 241.554161 
L 433.965437 241.387675 
L 434.153713 241.576227 
L 434.341989 241.405582 
L 434.530265 241.699855 
L 434.906817 241.562656 
L 435.095093 241.094542 
L 435.283369 241.688478 
L 435.471645 241.365064 
L 435.659921 241.343685 
L 436.036473 241.585586 
L 436.224749 241.164625 
L 436.413025 241.699268 
L 436.601301 241.482693 
L 436.789577 241.441596 
L 436.977853 241.869646 
L 437.166129 241.527177 
L 437.354404 241.758585 
L 437.54268 241.387493 
L 437.730956 241.703843 
L 437.919232 241.60299 
L 438.107508 241.829139 
L 438.48406 241.731001 
L 438.672336 241.956136 
L 438.860612 241.682871 
L 439.237164 241.802514 
L 439.613716 241.759286 
L 439.801992 241.967405 
L 439.990268 241.669981 
L 440.178544 241.823156 
L 440.36682 241.700391 
L 440.555096 241.965284 
L 440.743372 241.812775 
L 441.119924 241.849464 
L 441.3082 241.803846 
L 441.684751 241.97677 
L 443.567511 241.835643 
L 444.132339 241.844625 
L 444.508891 241.722931 
L 444.885443 241.838099 
L 445.450271 241.650996 
L 445.638547 241.772304 
L 445.826823 241.709023 
L 446.015098 241.839969 
L 446.203374 241.49441 
L 446.579926 241.716192 
L 447.144754 241.718016 
L 447.33303 241.932795 
L 447.521306 241.440677 
L 447.709582 241.674825 
L 447.897858 241.617653 
L 448.086134 241.845132 
L 448.650962 241.611031 
L 449.21579 241.875948 
L 449.404066 241.627702 
L 449.592342 241.764401 
L 449.780618 241.708272 
L 449.968894 241.915187 
L 450.157169 241.718568 
L 450.345445 241.84462 
L 450.721997 241.605151 
L 450.910273 241.956995 
L 451.098549 241.975945 
L 451.286825 241.581708 
L 451.475101 241.779749 
L 451.663377 241.730221 
L 451.851653 241.853672 
L 452.416481 241.690753 
L 452.793033 241.662219 
L 453.169585 241.837143 
L 453.357861 241.848585 
L 453.922689 241.52705 
L 454.110965 241.807842 
L 454.487516 241.7473 
L 454.675792 241.482674 
L 454.864068 241.736057 
L 455.24062 241.760437 
L 455.428896 241.460995 
L 455.617172 241.690787 
L 455.993724 241.650057 
L 456.182 241.557027 
L 456.558552 241.746303 
L 456.746828 241.715475 
L 456.935104 241.508207 
L 457.311656 241.689915 
L 457.499932 241.808601 
L 458.441312 241.598949 
L 458.817863 241.899189 
L 459.382691 241.783202 
L 459.570967 241.313786 
L 459.759243 241.572296 
L 459.947519 241.59255 
L 460.135795 241.770585 
L 460.324071 241.592193 
L 460.888899 241.791115 
L 461.265451 241.81099 
L 461.642003 241.412467 
L 461.830279 241.789119 
L 462.959935 241.546852 
L 463.336486 241.737407 
L 463.524762 241.622212 
L 463.901314 241.689968 
L 465.03097 241.634272 
L 465.219246 241.793544 
L 465.97235 241.709408 
L 466.160626 241.919719 
L 466.348902 241.678444 
L 466.537178 241.923323 
L 466.91373 241.700246 
L 467.102006 241.858297 
L 468.043385 241.776659 
L 468.608213 241.587471 
L 469.361317 241.816907 
L 469.737869 241.727598 
L 469.926145 241.821841 
L 470.302697 241.739318 
L 470.490973 241.363999 
L 470.679249 241.675493 
L 470.867525 241.584783 
L 471.620628 241.821838 
L 472.562008 241.347958 
L 472.750284 241.50466 
L 473.126836 241.419738 
L 473.315112 241.623847 
L 473.691664 241.233094 
L 473.87994 241.449167 
L 474.068216 241.473433 
L 474.256492 241.356007 
L 474.444768 241.642243 
L 474.633044 241.547153 
L 475.197872 241.663294 
L 475.7627 241.537364 
L 475.950975 241.697654 
L 476.327527 241.613157 
L 476.515803 241.663486 
L 476.704079 241.280655 
L 476.892355 241.804837 
L 477.080631 241.502795 
L 477.457183 241.756858 
L 477.645459 241.608241 
L 477.833735 241.789126 
L 478.210287 241.774266 
L 478.398563 241.864631 
L 478.586839 241.702253 
L 479.151667 241.767855 
L 479.339943 241.871171 
L 480.281322 241.781753 
L 480.469598 241.795106 
L 480.657874 241.696746 
L 481.410978 241.885959 
L 481.975806 241.877727 
L 482.540634 241.745707 
L 482.917186 241.91147 
L 483.105462 241.724177 
L 483.482014 241.766929 
L 483.67029 241.752909 
L 484.046842 241.880823 
L 484.235118 241.878849 
L 484.423394 241.754329 
L 484.799945 242.000392 
L 484.988221 241.908468 
L 485.176497 241.975315 
L 485.553049 241.708878 
L 485.741325 241.926896 
L 485.929601 241.82326 
L 486.117877 241.913534 
L 486.494429 241.719066 
L 487.059257 241.923274 
L 487.247533 241.737887 
L 487.624085 241.922468 
L 488.188913 241.809074 
L 488.377189 241.900856 
L 488.565465 241.681187 
L 488.753741 241.638353 
L 489.130292 241.889482 
L 489.506844 241.795281 
L 490.259948 241.966555 
L 490.448224 241.762015 
L 490.6365 241.79151 
L 490.824776 241.942992 
L 491.013052 241.632087 
L 491.201328 241.955257 
L 491.57788 241.739619 
L 492.51926 241.827607 
L 492.707536 241.909112 
L 492.895812 241.695754 
L 493.084087 241.871837 
L 493.272363 241.810599 
L 493.460639 241.617838 
L 493.837191 241.864289 
L 494.025467 241.740629 
L 494.213743 241.858231 
L 494.402019 241.737477 
L 494.778571 241.944275 
L 495.155123 241.517291 
L 495.343399 241.794587 
L 495.908227 241.930276 
L 496.096503 241.76517 
L 496.661331 241.842411 
L 496.849607 241.694312 
L 497.226159 241.914373 
L 497.60271 241.815946 
L 497.790986 241.938548 
L 498.54409 241.81282 
L 498.732366 241.926573 
L 498.920642 241.860192 
L 499.48547 241.991293 
L 500.238574 241.847062 
L 500.42685 241.904776 
L 500.803402 241.796141 
L 500.991678 241.893905 
L 501.179954 241.739059 
L 501.556506 241.879564 
L 502.874437 242.008389 
L 503.062713 241.862148 
L 503.627541 241.99341 
L 503.815817 241.988715 
L 504.004093 241.833742 
L 504.380645 241.982545 
L 504.945473 241.799506 
L 505.322025 241.983749 
L 505.510301 241.897009 
L 505.886853 241.977561 
L 506.828232 241.949649 
L 507.016508 241.924866 
L 507.204784 242.035628 
L 507.581336 241.906173 
L 507.769612 242.021046 
L 508.146164 241.936695 
L 508.522716 241.990693 
L 508.710992 241.88278 
L 508.899268 242.012789 
L 509.087544 241.921092 
L 509.652372 242.011508 
L 509.840648 241.931446 
L 510.2172 241.933784 
L 510.593751 241.950932 
L 510.782027 242.0046 
L 511.158579 241.857947 
L 511.346855 241.938166 
L 511.535131 241.842509 
L 511.723407 242.005642 
L 511.911683 241.848296 
L 512.099959 241.99622 
L 512.288235 241.906448 
L 512.476511 242.003398 
L 512.664787 241.912531 
L 512.853063 242.013757 
L 513.229615 241.748361 
L 513.794443 241.98194 
L 513.982719 241.948685 
L 514.170995 241.687404 
L 514.359271 241.971745 
L 515.112374 241.792024 
L 515.30065 241.854329 
L 515.488926 241.798632 
L 515.677202 241.923402 
L 515.865478 241.832962 
L 516.24203 241.987372 
L 516.618582 241.876926 
L 516.995134 241.769752 
L 517.371686 241.905289 
L 518.12479 241.95483 
L 520.384101 241.889477 
L 520.572377 242.012386 
L 520.760653 241.898525 
L 520.948929 241.923497 
L 521.325481 241.836663 
L 521.513757 241.975568 
L 522.266861 241.930491 
L 522.831689 242.027061 
L 523.019965 241.857095 
L 524.337896 241.970478 
L 524.526172 241.828148 
L 525.279276 241.968642 
L 526.220656 241.897315 
L 526.408932 242.050787 
L 526.97376 241.958948 
L 527.162036 241.992081 
L 527.350312 241.910327 
L 527.538587 242.010799 
L 528.103415 241.874903 
L 528.479967 241.933555 
L 528.668243 241.951599 
L 528.856519 241.854961 
L 529.044795 241.980243 
L 529.609623 241.839778 
L 529.797899 241.984202 
L 529.986175 241.880866 
L 530.174451 242.05019 
L 530.551003 241.880188 
L 531.868934 241.979325 
L 532.245486 241.935548 
L 532.622038 241.917455 
L 532.810314 242.014613 
L 533.563418 241.948566 
L 534.128246 241.897489 
L 534.504798 241.892301 
L 535.446178 241.999998 
L 535.82273 241.964014 
L 536.387557 242.01259 
L 536.764109 241.890478 
L 537.140661 241.983485 
L 538.082041 241.958871 
L 538.646869 241.883743 
L 538.835145 242.026004 
L 539.211697 241.898073 
L 539.588249 242.014888 
L 539.964801 241.958609 
L 540.529628 242.006929 
L 540.717904 241.945484 
L 540.90618 242.07504 
L 541.282732 242.050784 
L 544.671699 242.039561 
L 545.613079 242.030153 
L 546.366183 242.044946 
L 547.684115 242.029562 
L 548.248943 241.977399 
L 548.625495 242.057199 
L 548.813771 241.97642 
L 549.002046 242.047159 
L 549.378598 241.992082 
L 549.75515 242.033633 
L 550.508254 242.02104 
L 550.884806 242.030612 
L 553.708945 242.023159 
L 556.344809 242.006163 
L 557.097913 241.960772 
L 557.851016 242.033084 
L 559.168948 241.987363 
L 559.733776 242.003178 
L 561.804811 241.927637 
L 562.181363 241.953057 
L 562.557915 241.860078 
L 562.934467 241.952446 
L 566.888262 241.941584 
L 567.264814 241.820716 
L 567.45309 241.982397 
L 569.900678 241.899697 
L 570.088954 242.038869 
L 570.465505 241.848278 
L 570.653781 242.011456 
L 570.842057 241.918705 
L 571.595161 241.983978 
L 571.971713 241.880744 
L 572.536541 241.97435 
L 573.101369 241.962237 
L 573.477921 242.030679 
L 573.854473 241.939129 
L 574.795852 242.041972 
L 574.984128 241.955354 
L 575.172404 242.070884 
L 575.925508 241.954775 
L 576.490336 242.035326 
L 580.444131 242.019825 
L 580.632407 241.955676 
L 580.820683 242.037274 
L 581.197235 242.011204 
L 581.573787 242.028695 
L 581.762063 241.963442 
L 581.950339 242.075044 
L 582.703443 242.058817 
L 599.271727 242.042177 
L 599.460003 241.941195 
L 599.836555 242.026299 
L 600.401383 242.004505 
L 600.777934 242.015069 
L 603.037246 242.060123 
L 603.225522 241.936309 
L 603.978626 242.060471 
L 604.920005 241.990509 
L 606.049661 242.018717 
L 606.614489 242.003613 
L 607.179317 242.007686 
L 607.555869 242.004514 
L 607.932421 242.058399 
L 608.120697 241.94922 
L 608.497249 242.006038 
L 608.873801 242.063244 
L 609.438628 242.0482 
L 609.626904 241.933195 
L 610.003456 241.99046 
L 612.074492 242.016385 
L 612.262768 241.949351 
L 612.63932 242.009741 
L 613.015872 241.975145 
L 613.392423 242.045105 
L 614.333803 241.996412 
L 615.840011 242.027723 
L 616.028287 241.919589 
L 616.216563 242.015785 
L 616.593115 241.972583 
L 618.66415 241.989893 
L 618.852426 241.962083 
L 619.040702 242.050284 
L 619.228978 241.970152 
L 619.60553 242.015613 
L 619.793806 241.918089 
L 619.982082 242.017743 
L 620.54691 241.977814 
L 620.923462 242.034761 
L 621.300014 241.955948 
L 622.617945 241.976669 
L 622.806221 242.011382 
L 622.994497 241.925271 
L 623.371049 242.026953 
L 623.935877 241.992748 
L 626.383464 242.036071 
L 626.57174 241.956206 
L 626.948292 242.02322 
L 628.4545 242.064632 
L 628.642776 241.955205 
L 629.39588 242.073599 
L 632.784847 242.052431 
L 633.349675 242.020314 
L 633.914503 242.03505 
L 635.985538 242.091444 
L 636.36209 241.986941 
L 636.738642 242.063366 
L 641.257265 242.030733 
L 641.633817 242.056003 
L 650.294511 242.069697 
L 654.06003 242.040657 
L 654.436582 242.065406 
L 656.884169 242.066848 
L 657.260721 241.964464 
L 657.637273 242.021701 
L 658.578653 242.081934 
L 658.955205 242.056675 
L 660.273137 242.039854 
L 661.591068 242.056854 
L 662.155896 242.029954 
L 663.097276 242.064185 
L 663.662104 242.018756 
L 671.004866 242.055001 
L 671.381418 242.053324 
L 680.418664 242.082647 
L 681.736596 242.063639 
L 685.690391 242.067758 
L 686.443494 242.06119 
L 691.150393 242.065606 
L 691.903497 242.044759 
L 692.468325 242.080451 
L 693.033153 242.019887 
L 693.409705 242.097086 
L 694.351085 242.068093 
L 695.669016 242.106632 
L 696.986948 242.049854 
L 697.928328 242.052241 
L 701.693847 242.045357 
L 702.258675 242.071812 
L 706.400746 242.035806 
L 706.777298 242.070931 
L 706.965574 241.99503 
L 707.342126 242.044189 
L 708.283505 242.054745 
L 708.848333 242.036731 
L 709.224885 242.06132 
L 709.413161 241.984616 
L 709.977989 242.050979 
L 711.107645 242.071859 
L 713.366956 242.066236 
L 714.873164 242.05392 
L 718.262131 242.057685 
L 719.580063 242.066448 
L 719.768339 241.990972 
L 720.333167 242.069994 
L 720.897994 242.073041 
L 722.780754 242.04825 
L 723.722134 242.061265 
L 724.475238 242.0458 
L 728.429033 242.068305 
L 728.617309 241.961567 
L 728.993861 242.020952 
L 729.558688 242.080514 
L 730.500068 242.043897 
L 731.629724 242.078107 
L 733.700759 242.031866 
L 734.265587 242.073071 
L 735.395243 242.085601 
L 736.148347 242.053595 
L 741.043522 242.091563 
L 741.420074 242.071374 
L 756.48215 242.054186 
L 756.858702 242.027239 
L 757.046978 241.946342 
L 757.42353 242.076888 
L 758.553186 242.037806 
L 758.741462 242.076645 
L 758.929738 241.976566 
L 759.30629 242.075728 
L 759.871117 242.058024 
L 761.000773 242.091134 
L 761.942153 242.034614 
L 762.318705 242.069686 
L 763.071809 242.046664 
L 766.084224 242.062259 
L 766.649052 242.040501 
L 768.908363 242.06892 
L 769.096639 242.008726 
L 769.284915 242.082767 
L 769.661467 242.032643 
L 772.485606 242.02585 
L 772.862158 242.002106 
L 773.991814 242.041858 
L 774.556642 242.087072 
L 775.309746 242.08417 
L 776.815953 242.071368 
L 777.380781 242.078546 
L 782.08768 242.068056 
L 783.217336 242.076819 
L 787.359407 242.05167 
L 787.735959 242.049905 
L 788.865615 242.048397 
L 789.806994 242.034511 
L 792.442858 242.055921 
L 793.760789 242.065681 
L 794.137341 242.062905 
L 795.266997 242.05735 
L 796.773205 242.052829 
L 798.279412 242.070927 
L 800.727 242.087419 
L 801.103552 242.074257 
L 801.480104 242.069511 
L 805.622175 242.076383 
L 813.341489 242.087154 
L 819.931147 242.092395 
L 820.307699 242.065853 
L 820.872527 242.088616 
L 824.44977 242.085142 
L 825.39115 242.098041 
L 828.215289 242.08655 
L 831.792533 242.072985 
L 832.35736 242.081624 
L 836.311156 242.047938 
L 836.875983 242.063647 
L 840.641503 242.098367 
L 841.394606 242.08662 
L 970.363636 242.0964 
L 970.363636 242.0964 
" style="fill:none;stroke:#1f77b4;stroke-linecap:square;stroke-width:1.5;"/>
   </g>
   <g id="patch_3">
    <path d="M 180 252 
L 180 34.56 
" style="fill:none;stroke:#000000;stroke-linecap:square;stroke-linejoin:miter;stroke-width:0.8;"/>
   </g>
   <g id="patch_4">
    <path d="M 1008 252 
L 1008 34.56 
" style="fill:none;stroke:#000000;stroke-linecap:square;stroke-linejoin:miter;stroke-width:0.8;"/>
   </g>
   <g id="patch_5">
    <path d="M 180 252 
L 1008 252 
" style="fill:none;stroke:#000000;stroke-linecap:square;stroke-linejoin:miter;stroke-width:0.8;"/>
   </g>
   <g id="patch_6">
    <path d="M 180 34.56 
L 1008 34.56 
" style="fill:none;stroke:#000000;stroke-linecap:square;stroke-linejoin:miter;stroke-width:0.8;"/>
   </g>
   <g id="legend_1">
    <g id="PathCollection_2">
     <g>
      <use style="fill:#ff0000;stroke:#ff0000;" x="1085.8" xlink:href="#m62a2faa2e8" y="56.745312"/>
     </g>
    </g>
    <g id="text_10">
     <!-- &gt; mean + 3SD -->
     <defs>
      <path d="M 52.875 31.296875 
L 5.46875 11.03125 
L 5.46875 19.78125 
L 43.015625 35.359375 
L 5.46875 50.78125 
L 5.46875 59.515625 
L 52.875 39.5 
z
" id="ArialMT-62"/>
      <path d="M 25.046875 11.578125 
L 25.046875 31.203125 
L 5.5625 31.203125 
L 5.5625 39.40625 
L 25.046875 39.40625 
L 25.046875 58.890625 
L 33.34375 58.890625 
L 33.34375 39.40625 
L 52.828125 39.40625 
L 52.828125 31.203125 
L 33.34375 31.203125 
L 33.34375 11.578125 
z
" id="ArialMT-43"/>
      <path d="M 4.203125 18.890625 
L 12.984375 20.0625 
Q 14.5 12.59375 18.140625 9.296875 
Q 21.78125 6 27 6 
Q 33.203125 6 37.46875 10.296875 
Q 41.75 14.59375 41.75 20.953125 
Q 41.75 27 37.796875 30.921875 
Q 33.84375 34.859375 27.734375 34.859375 
Q 25.25 34.859375 21.53125 33.890625 
L 22.515625 41.609375 
Q 23.390625 41.5 23.921875 41.5 
Q 29.546875 41.5 34.03125 44.421875 
Q 38.53125 47.359375 38.53125 53.46875 
Q 38.53125 58.296875 35.25 61.46875 
Q 31.984375 64.65625 26.8125 64.65625 
Q 21.6875 64.65625 18.265625 61.421875 
Q 14.84375 58.203125 13.875 51.765625 
L 5.078125 53.328125 
Q 6.6875 62.15625 12.390625 67.015625 
Q 18.109375 71.875 26.609375 71.875 
Q 32.46875 71.875 37.390625 69.359375 
Q 42.328125 66.84375 44.9375 62.5 
Q 47.5625 58.15625 47.5625 53.265625 
Q 47.5625 48.640625 45.0625 44.828125 
Q 42.578125 41.015625 37.703125 38.765625 
Q 44.046875 37.3125 47.5625 32.6875 
Q 51.078125 28.078125 51.078125 21.140625 
Q 51.078125 11.765625 44.234375 5.25 
Q 37.40625 -1.265625 26.953125 -1.265625 
Q 17.53125 -1.265625 11.296875 4.34375 
Q 5.078125 9.96875 4.203125 18.890625 
z
" id="ArialMT-51"/>
      <path d="M 4.5 23 
L 13.421875 23.78125 
Q 14.0625 18.40625 16.375 14.96875 
Q 18.703125 11.53125 23.578125 9.40625 
Q 28.46875 7.28125 34.578125 7.28125 
Q 39.984375 7.28125 44.140625 8.890625 
Q 48.296875 10.5 50.3125 13.296875 
Q 52.34375 16.109375 52.34375 19.4375 
Q 52.34375 22.796875 50.390625 25.3125 
Q 48.4375 27.828125 43.953125 29.546875 
Q 41.0625 30.671875 31.203125 33.03125 
Q 21.34375 35.40625 17.390625 37.5 
Q 12.25 40.1875 9.734375 44.15625 
Q 7.234375 48.140625 7.234375 53.078125 
Q 7.234375 58.5 10.296875 63.203125 
Q 13.375 67.921875 19.28125 70.359375 
Q 25.203125 72.796875 32.421875 72.796875 
Q 40.375 72.796875 46.453125 70.234375 
Q 52.546875 67.671875 55.8125 62.6875 
Q 59.078125 57.71875 59.328125 51.421875 
L 50.25 50.734375 
Q 49.515625 57.515625 45.28125 60.984375 
Q 41.0625 64.453125 32.8125 64.453125 
Q 24.21875 64.453125 20.28125 61.296875 
Q 16.359375 58.15625 16.359375 53.71875 
Q 16.359375 49.859375 19.140625 47.359375 
Q 21.875 44.875 33.421875 42.265625 
Q 44.96875 39.65625 49.265625 37.703125 
Q 55.515625 34.8125 58.484375 30.390625 
Q 61.46875 25.984375 61.46875 20.21875 
Q 61.46875 14.5 58.203125 9.4375 
Q 54.9375 4.390625 48.796875 1.578125 
Q 42.671875 -1.21875 35.015625 -1.21875 
Q 25.296875 -1.21875 18.71875 1.609375 
Q 12.15625 4.4375 8.421875 10.125 
Q 4.6875 15.828125 4.5 23 
z
" id="ArialMT-83"/>
      <path d="M 7.71875 0 
L 7.71875 71.578125 
L 32.375 71.578125 
Q 40.71875 71.578125 45.125 70.5625 
Q 51.265625 69.140625 55.609375 65.4375 
Q 61.28125 60.640625 64.078125 53.1875 
Q 66.890625 45.75 66.890625 36.1875 
Q 66.890625 28.03125 64.984375 21.734375 
Q 63.09375 15.4375 60.109375 11.296875 
Q 57.125 7.171875 53.578125 4.796875 
Q 50.046875 2.4375 45.046875 1.21875 
Q 40.046875 0 33.546875 0 
z
M 17.1875 8.453125 
L 32.46875 8.453125 
Q 39.546875 8.453125 43.578125 9.765625 
Q 47.609375 11.078125 50 13.484375 
Q 53.375 16.84375 55.25 22.53125 
Q 57.125 28.21875 57.125 36.328125 
Q 57.125 47.5625 53.4375 53.59375 
Q 49.75 59.625 44.484375 61.671875 
Q 40.671875 63.140625 32.234375 63.140625 
L 17.1875 63.140625 
z
" id="ArialMT-68"/>
     </defs>
     <g transform="translate(1132.6 63.570312)scale(0.26 -0.26)">
      <use xlink:href="#ArialMT-62"/>
      <use x="58.398438" xlink:href="#ArialMT-32"/>
      <use x="86.181641" xlink:href="#ArialMT-109"/>
      <use x="169.482422" xlink:href="#ArialMT-101"/>
      <use x="225.097656" xlink:href="#ArialMT-97"/>
      <use x="280.712891" xlink:href="#ArialMT-110"/>
      <use x="336.328125" xlink:href="#ArialMT-32"/>
      <use x="364.111328" xlink:href="#ArialMT-43"/>
      <use x="422.509766" xlink:href="#ArialMT-32"/>
      <use x="450.292969" xlink:href="#ArialMT-51"/>
      <use x="505.908203" xlink:href="#ArialMT-83"/>
      <use x="572.607422" xlink:href="#ArialMT-68"/>
     </g>
    </g>
   </g>
  </g>
 </g>
 <defs>
  <clipPath id="pf10c953e13">
   <rect height="217.44" width="828" x="180" y="34.56"/>
  </clipPath>
 </defs>
</svg>
