<?xml version="1.0" encoding="utf-8" standalone="no"?>
<!DOCTYPE svg PUBLIC "-//W3C//DTD SVG 1.1//EN"
  "http://www.w3.org/Graphics/SVG/1.1/DTD/svg11.dtd">
<!-- Created with matplotlib (https://matplotlib.org/) -->
<svg height="288pt" version="1.1" viewBox="0 0 1440 288" width="1440pt" xmlns="http://www.w3.org/2000/svg" xmlns:xlink="http://www.w3.org/1999/xlink">
 <defs>
  <style type="text/css">
*{stroke-linecap:butt;stroke-linejoin:round;}
  </style>
 </defs>
 <g id="figure_1">
  <g id="patch_1">
   <path d="M 0 288 
L 1440 288 
L 1440 0 
L 0 0 
z
" style="fill:#ffffff;"/>
  </g>
  <g id="axes_1">
   <g id="patch_2">
    <path d="M 180 252 
L 1008 252 
L 1008 34.56 
L 180 34.56 
z
" style="fill:#ffffff;"/>
   </g>
   <g id="PathCollection_1">
    <defs>
     <path d="M 0 3 
C 0.795609 3 1.55874 2.683901 2.12132 2.12132 
C 2.683901 1.55874 3 0.795609 3 0 
C 3 -0.795609 2.683901 -1.55874 2.12132 -2.12132 
C 1.55874 -2.683901 0.795609 -3 0 -3 
C -0.795609 -3 -1.55874 -2.683901 -2.12132 -2.12132 
C -2.683901 -1.55874 -3 -0.795609 -3 0 
C -3 0.795609 -2.683901 1.55874 -2.12132 2.12132 
C -1.55874 2.683901 -0.795609 3 0 3 
z
" id="m735795fd33" style="stroke:#ff0000;"/>
    </defs>
    <g clip-path="url(#p50c8f3a51f)">
     <use style="fill:#ff0000;stroke:#ff0000;" x="217.636364" xlink:href="#m735795fd33" y="44.443636"/>
     <use style="fill:#ff0000;stroke:#ff0000;" x="217.88744" xlink:href="#m735795fd33" y="142.811938"/>
     <use style="fill:#ff0000;stroke:#ff0000;" x="218.138517" xlink:href="#m735795fd33" y="192.083505"/>
     <use style="fill:#ff0000;stroke:#ff0000;" x="218.389593" xlink:href="#m735795fd33" y="216.578187"/>
     <use style="fill:#ff0000;stroke:#ff0000;" x="221.402511" xlink:href="#m735795fd33" y="222.814699"/>
     <use style="fill:#ff0000;stroke:#ff0000;" x="221.653587" xlink:href="#m735795fd33" y="218.164632"/>
     <use style="fill:#ff0000;stroke:#ff0000;" x="221.904664" xlink:href="#m735795fd33" y="211.711739"/>
     <use style="fill:#ff0000;stroke:#ff0000;" x="222.15574" xlink:href="#m735795fd33" y="212.676772"/>
     <use style="fill:#ff0000;stroke:#ff0000;" x="222.406817" xlink:href="#m735795fd33" y="209.481822"/>
     <use style="fill:#ff0000;stroke:#ff0000;" x="222.657893" xlink:href="#m735795fd33" y="213.06966"/>
     <use style="fill:#ff0000;stroke:#ff0000;" x="222.90897" xlink:href="#m735795fd33" y="217.503998"/>
     <use style="fill:#ff0000;stroke:#ff0000;" x="223.160046" xlink:href="#m735795fd33" y="219.536098"/>
     <use style="fill:#ff0000;stroke:#ff0000;" x="223.411123" xlink:href="#m735795fd33" y="225.005218"/>
     <use style="fill:#ff0000;stroke:#ff0000;" x="468.461762" xlink:href="#m735795fd33" y="223.232982"/>
     <use style="fill:#ff0000;stroke:#ff0000;" x="468.712839" xlink:href="#m735795fd33" y="224.231372"/>
    </g>
   </g>
   <g id="matplotlib.axis_1">
    <g id="xtick_1">
     <g id="line2d_1">
      <path clip-path="url(#p50c8f3a51f)" d="M 217.636364 252 
L 217.636364 34.56 
" style="fill:none;stroke:#b0b0b0;stroke-linecap:square;stroke-width:0.8;"/>
     </g>
     <g id="line2d_2">
      <defs>
       <path d="M 0 0 
L 0 3.5 
" id="m5d9455963a" style="stroke:#000000;stroke-width:0.8;"/>
      </defs>
      <g>
       <use style="stroke:#000000;stroke-width:0.8;" x="217.636364" xlink:href="#m5d9455963a" y="252"/>
      </g>
     </g>
     <g id="text_1">
      <!-- 0 -->
      <defs>
       <path d="M 4.15625 35.296875 
Q 4.15625 48 6.765625 55.734375 
Q 9.375 63.484375 14.515625 67.671875 
Q 19.671875 71.875 27.484375 71.875 
Q 33.25 71.875 37.59375 69.546875 
Q 41.9375 67.234375 44.765625 62.859375 
Q 47.609375 58.5 49.21875 52.21875 
Q 50.828125 45.953125 50.828125 35.296875 
Q 50.828125 22.703125 48.234375 14.96875 
Q 45.65625 7.234375 40.5 3 
Q 35.359375 -1.21875 27.484375 -1.21875 
Q 17.140625 -1.21875 11.234375 6.203125 
Q 4.15625 15.140625 4.15625 35.296875 
z
M 13.1875 35.296875 
Q 13.1875 17.671875 17.3125 11.828125 
Q 21.4375 6 27.484375 6 
Q 33.546875 6 37.671875 11.859375 
Q 41.796875 17.71875 41.796875 35.296875 
Q 41.796875 52.984375 37.671875 58.78125 
Q 33.546875 64.59375 27.390625 64.59375 
Q 21.34375 64.59375 17.71875 59.46875 
Q 13.1875 52.9375 13.1875 35.296875 
z
" id="ArialMT-48"/>
      </defs>
      <g transform="translate(210.407145 277.610313)scale(0.26 -0.26)">
       <use xlink:href="#ArialMT-48"/>
      </g>
     </g>
    </g>
    <g id="xtick_2">
     <g id="line2d_3">
      <path clip-path="url(#p50c8f3a51f)" d="M 468.712839 252 
L 468.712839 34.56 
" style="fill:none;stroke:#b0b0b0;stroke-linecap:square;stroke-width:0.8;"/>
     </g>
     <g id="line2d_4">
      <g>
       <use style="stroke:#000000;stroke-width:0.8;" x="468.712839" xlink:href="#m5d9455963a" y="252"/>
      </g>
     </g>
     <g id="text_2">
      <!-- 1000 -->
      <defs>
       <path d="M 37.25 0 
L 28.46875 0 
L 28.46875 56 
Q 25.296875 52.984375 20.140625 49.953125 
Q 14.984375 46.921875 10.890625 45.40625 
L 10.890625 53.90625 
Q 18.265625 57.375 23.78125 62.296875 
Q 29.296875 67.234375 31.59375 71.875 
L 37.25 71.875 
z
" id="ArialMT-49"/>
      </defs>
      <g transform="translate(439.795964 277.610313)scale(0.26 -0.26)">
       <use xlink:href="#ArialMT-49"/>
       <use x="55.615234" xlink:href="#ArialMT-48"/>
       <use x="111.230469" xlink:href="#ArialMT-48"/>
       <use x="166.845703" xlink:href="#ArialMT-48"/>
      </g>
     </g>
    </g>
    <g id="xtick_3">
     <g id="line2d_5">
      <path clip-path="url(#p50c8f3a51f)" d="M 719.789314 252 
L 719.789314 34.56 
" style="fill:none;stroke:#b0b0b0;stroke-linecap:square;stroke-width:0.8;"/>
     </g>
     <g id="line2d_6">
      <g>
       <use style="stroke:#000000;stroke-width:0.8;" x="719.789314" xlink:href="#m5d9455963a" y="252"/>
      </g>
     </g>
     <g id="text_3">
      <!-- 2000 -->
      <defs>
       <path d="M 50.34375 8.453125 
L 50.34375 0 
L 3.03125 0 
Q 2.9375 3.171875 4.046875 6.109375 
Q 5.859375 10.9375 9.828125 15.625 
Q 13.8125 20.3125 21.34375 26.46875 
Q 33.015625 36.03125 37.109375 41.625 
Q 41.21875 47.21875 41.21875 52.203125 
Q 41.21875 57.421875 37.46875 61 
Q 33.734375 64.59375 27.734375 64.59375 
Q 21.390625 64.59375 17.578125 60.78125 
Q 13.765625 56.984375 13.71875 50.25 
L 4.6875 51.171875 
Q 5.609375 61.28125 11.65625 66.578125 
Q 17.71875 71.875 27.9375 71.875 
Q 38.234375 71.875 44.234375 66.15625 
Q 50.25 60.453125 50.25 52 
Q 50.25 47.703125 48.484375 43.546875 
Q 46.734375 39.40625 42.65625 34.8125 
Q 38.578125 30.21875 29.109375 22.21875 
Q 21.1875 15.578125 18.9375 13.203125 
Q 16.703125 10.84375 15.234375 8.453125 
z
" id="ArialMT-50"/>
      </defs>
      <g transform="translate(690.872439 277.610313)scale(0.26 -0.26)">
       <use xlink:href="#ArialMT-50"/>
       <use x="55.615234" xlink:href="#ArialMT-48"/>
       <use x="111.230469" xlink:href="#ArialMT-48"/>
       <use x="166.845703" xlink:href="#ArialMT-48"/>
      </g>
     </g>
    </g>
    <g id="xtick_4">
     <g id="line2d_7">
      <path clip-path="url(#p50c8f3a51f)" d="M 970.865789 252 
L 970.865789 34.56 
" style="fill:none;stroke:#b0b0b0;stroke-linecap:square;stroke-width:0.8;"/>
     </g>
     <g id="line2d_8">
      <g>
       <use style="stroke:#000000;stroke-width:0.8;" x="970.865789" xlink:href="#m5d9455963a" y="252"/>
      </g>
     </g>
     <g id="text_4">
      <!-- 3000 -->
      <defs>
       <path d="M 4.203125 18.890625 
L 12.984375 20.0625 
Q 14.5 12.59375 18.140625 9.296875 
Q 21.78125 6 27 6 
Q 33.203125 6 37.46875 10.296875 
Q 41.75 14.59375 41.75 20.953125 
Q 41.75 27 37.796875 30.921875 
Q 33.84375 34.859375 27.734375 34.859375 
Q 25.25 34.859375 21.53125 33.890625 
L 22.515625 41.609375 
Q 23.390625 41.5 23.921875 41.5 
Q 29.546875 41.5 34.03125 44.421875 
Q 38.53125 47.359375 38.53125 53.46875 
Q 38.53125 58.296875 35.25 61.46875 
Q 31.984375 64.65625 26.8125 64.65625 
Q 21.6875 64.65625 18.265625 61.421875 
Q 14.84375 58.203125 13.875 51.765625 
L 5.078125 53.328125 
Q 6.6875 62.15625 12.390625 67.015625 
Q 18.109375 71.875 26.609375 71.875 
Q 32.46875 71.875 37.390625 69.359375 
Q 42.328125 66.84375 44.9375 62.5 
Q 47.5625 58.15625 47.5625 53.265625 
Q 47.5625 48.640625 45.0625 44.828125 
Q 42.578125 41.015625 37.703125 38.765625 
Q 44.046875 37.3125 47.5625 32.6875 
Q 51.078125 28.078125 51.078125 21.140625 
Q 51.078125 11.765625 44.234375 5.25 
Q 37.40625 -1.265625 26.953125 -1.265625 
Q 17.53125 -1.265625 11.296875 4.34375 
Q 5.078125 9.96875 4.203125 18.890625 
z
" id="ArialMT-51"/>
      </defs>
      <g transform="translate(941.948914 277.610313)scale(0.26 -0.26)">
       <use xlink:href="#ArialMT-51"/>
       <use x="55.615234" xlink:href="#ArialMT-48"/>
       <use x="111.230469" xlink:href="#ArialMT-48"/>
       <use x="166.845703" xlink:href="#ArialMT-48"/>
      </g>
     </g>
    </g>
    <g id="text_5">
     <!-- # sample -->
     <defs>
      <path d="M 5.03125 -1.21875 
L 9.28125 19.578125 
L 1.03125 19.578125 
L 1.03125 26.859375 
L 10.75 26.859375 
L 14.359375 44.578125 
L 1.03125 44.578125 
L 1.03125 51.859375 
L 15.828125 51.859375 
L 20.0625 72.796875 
L 27.390625 72.796875 
L 23.140625 51.859375 
L 38.53125 51.859375 
L 42.78125 72.796875 
L 50.140625 72.796875 
L 45.90625 51.859375 
L 54.34375 51.859375 
L 54.34375 44.578125 
L 44.4375 44.578125 
L 40.765625 26.859375 
L 54.34375 26.859375 
L 54.34375 19.578125 
L 39.3125 19.578125 
L 35.0625 -1.21875 
L 27.734375 -1.21875 
L 31.9375 19.578125 
L 16.609375 19.578125 
L 12.359375 -1.21875 
z
M 18.0625 26.859375 
L 33.40625 26.859375 
L 37.0625 44.578125 
L 21.6875 44.578125 
z
" id="ArialMT-35"/>
      <path id="ArialMT-32"/>
      <path d="M 3.078125 15.484375 
L 11.765625 16.84375 
Q 12.5 11.625 15.84375 8.84375 
Q 19.1875 6.0625 25.203125 6.0625 
Q 31.25 6.0625 34.171875 8.515625 
Q 37.109375 10.984375 37.109375 14.3125 
Q 37.109375 17.28125 34.515625 19 
Q 32.71875 20.171875 25.53125 21.96875 
Q 15.875 24.421875 12.140625 26.203125 
Q 8.40625 27.984375 6.46875 31.125 
Q 4.546875 34.28125 4.546875 38.09375 
Q 4.546875 41.546875 6.125 44.5 
Q 7.71875 47.46875 10.453125 49.421875 
Q 12.5 50.921875 16.03125 51.96875 
Q 19.578125 53.03125 23.640625 53.03125 
Q 29.734375 53.03125 34.34375 51.265625 
Q 38.96875 49.515625 41.15625 46.5 
Q 43.359375 43.5 44.1875 38.484375 
L 35.59375 37.3125 
Q 35.015625 41.3125 32.203125 43.546875 
Q 29.390625 45.796875 24.265625 45.796875 
Q 18.21875 45.796875 15.625 43.796875 
Q 13.03125 41.796875 13.03125 39.109375 
Q 13.03125 37.40625 14.109375 36.03125 
Q 15.1875 34.625 17.484375 33.6875 
Q 18.796875 33.203125 25.25 31.453125 
Q 34.578125 28.953125 38.25 27.359375 
Q 41.9375 25.78125 44.03125 22.75 
Q 46.140625 19.734375 46.140625 15.234375 
Q 46.140625 10.84375 43.578125 6.953125 
Q 41.015625 3.078125 36.171875 0.953125 
Q 31.34375 -1.171875 25.25 -1.171875 
Q 15.140625 -1.171875 9.84375 3.03125 
Q 4.546875 7.234375 3.078125 15.484375 
z
" id="ArialMT-115"/>
      <path d="M 40.4375 6.390625 
Q 35.546875 2.25 31.03125 0.53125 
Q 26.515625 -1.171875 21.34375 -1.171875 
Q 12.796875 -1.171875 8.203125 3 
Q 3.609375 7.171875 3.609375 13.671875 
Q 3.609375 17.484375 5.34375 20.625 
Q 7.078125 23.78125 9.890625 25.6875 
Q 12.703125 27.59375 16.21875 28.5625 
Q 18.796875 29.25 24.03125 29.890625 
Q 34.671875 31.15625 39.703125 32.90625 
Q 39.75 34.71875 39.75 35.203125 
Q 39.75 40.578125 37.25 42.78125 
Q 33.890625 45.75 27.25 45.75 
Q 21.046875 45.75 18.09375 43.578125 
Q 15.140625 41.40625 13.71875 35.890625 
L 5.125 37.0625 
Q 6.296875 42.578125 8.984375 45.96875 
Q 11.671875 49.359375 16.75 51.1875 
Q 21.828125 53.03125 28.515625 53.03125 
Q 35.15625 53.03125 39.296875 51.46875 
Q 43.453125 49.90625 45.40625 47.53125 
Q 47.359375 45.171875 48.140625 41.546875 
Q 48.578125 39.3125 48.578125 33.453125 
L 48.578125 21.734375 
Q 48.578125 9.46875 49.140625 6.21875 
Q 49.703125 2.984375 51.375 0 
L 42.1875 0 
Q 40.828125 2.734375 40.4375 6.390625 
z
M 39.703125 26.03125 
Q 34.90625 24.078125 25.34375 22.703125 
Q 19.921875 21.921875 17.671875 20.9375 
Q 15.4375 19.96875 14.203125 18.09375 
Q 12.984375 16.21875 12.984375 13.921875 
Q 12.984375 10.40625 15.640625 8.0625 
Q 18.3125 5.71875 23.4375 5.71875 
Q 28.515625 5.71875 32.46875 7.9375 
Q 36.421875 10.15625 38.28125 14.015625 
Q 39.703125 17 39.703125 22.796875 
z
" id="ArialMT-97"/>
      <path d="M 6.59375 0 
L 6.59375 51.859375 
L 14.453125 51.859375 
L 14.453125 44.578125 
Q 16.890625 48.390625 20.9375 50.703125 
Q 25 53.03125 30.171875 53.03125 
Q 35.9375 53.03125 39.625 50.640625 
Q 43.3125 48.25 44.828125 43.953125 
Q 50.984375 53.03125 60.84375 53.03125 
Q 68.5625 53.03125 72.703125 48.75 
Q 76.859375 44.484375 76.859375 35.59375 
L 76.859375 0 
L 68.109375 0 
L 68.109375 32.671875 
Q 68.109375 37.9375 67.25 40.25 
Q 66.40625 42.578125 64.15625 43.984375 
Q 61.921875 45.40625 58.890625 45.40625 
Q 53.421875 45.40625 49.796875 41.765625 
Q 46.1875 38.140625 46.1875 30.125 
L 46.1875 0 
L 37.40625 0 
L 37.40625 33.6875 
Q 37.40625 39.546875 35.25 42.46875 
Q 33.109375 45.40625 28.21875 45.40625 
Q 24.515625 45.40625 21.359375 43.453125 
Q 18.21875 41.5 16.796875 37.734375 
Q 15.375 33.984375 15.375 26.90625 
L 15.375 0 
z
" id="ArialMT-109"/>
      <path d="M 6.59375 -19.875 
L 6.59375 51.859375 
L 14.59375 51.859375 
L 14.59375 45.125 
Q 17.4375 49.078125 21 51.046875 
Q 24.5625 53.03125 29.640625 53.03125 
Q 36.28125 53.03125 41.359375 49.609375 
Q 46.4375 46.1875 49.015625 39.953125 
Q 51.609375 33.734375 51.609375 26.3125 
Q 51.609375 18.359375 48.75 11.984375 
Q 45.90625 5.609375 40.453125 2.21875 
Q 35.015625 -1.171875 29 -1.171875 
Q 24.609375 -1.171875 21.109375 0.6875 
Q 17.625 2.546875 15.375 5.375 
L 15.375 -19.875 
z
M 14.546875 25.640625 
Q 14.546875 15.625 18.59375 10.84375 
Q 22.65625 6.0625 28.421875 6.0625 
Q 34.28125 6.0625 38.453125 11.015625 
Q 42.625 15.96875 42.625 26.375 
Q 42.625 36.28125 38.546875 41.203125 
Q 34.46875 46.140625 28.8125 46.140625 
Q 23.1875 46.140625 18.859375 40.890625 
Q 14.546875 35.640625 14.546875 25.640625 
z
" id="ArialMT-112"/>
      <path d="M 6.390625 0 
L 6.390625 71.578125 
L 15.1875 71.578125 
L 15.1875 0 
z
" id="ArialMT-108"/>
      <path d="M 42.09375 16.703125 
L 51.171875 15.578125 
Q 49.03125 7.625 43.21875 3.21875 
Q 37.40625 -1.171875 28.375 -1.171875 
Q 17 -1.171875 10.328125 5.828125 
Q 3.65625 12.84375 3.65625 25.484375 
Q 3.65625 38.578125 10.390625 45.796875 
Q 17.140625 53.03125 27.875 53.03125 
Q 38.28125 53.03125 44.875 45.953125 
Q 51.46875 38.875 51.46875 26.03125 
Q 51.46875 25.25 51.421875 23.6875 
L 12.75 23.6875 
Q 13.234375 15.140625 17.578125 10.59375 
Q 21.921875 6.0625 28.421875 6.0625 
Q 33.25 6.0625 36.671875 8.59375 
Q 40.09375 11.140625 42.09375 16.703125 
z
M 13.234375 30.90625 
L 42.1875 30.90625 
Q 41.609375 37.453125 38.875 40.71875 
Q 34.671875 45.796875 27.984375 45.796875 
Q 21.921875 45.796875 17.796875 41.75 
Q 13.671875 37.703125 13.234375 30.90625 
z
" id="ArialMT-101"/>
     </defs>
     <g transform="translate(541.254531 305.705)scale(0.26 -0.26)">
      <use xlink:href="#ArialMT-35"/>
      <use x="55.615234" xlink:href="#ArialMT-32"/>
      <use x="83.398438" xlink:href="#ArialMT-115"/>
      <use x="133.398438" xlink:href="#ArialMT-97"/>
      <use x="189.013672" xlink:href="#ArialMT-109"/>
      <use x="272.314453" xlink:href="#ArialMT-112"/>
      <use x="327.929688" xlink:href="#ArialMT-108"/>
      <use x="350.146484" xlink:href="#ArialMT-101"/>
     </g>
    </g>
   </g>
   <g id="matplotlib.axis_2">
    <g id="ytick_1">
     <g id="line2d_9">
      <path clip-path="url(#p50c8f3a51f)" d="M 180 242.116922 
L 1008 242.116922 
" style="fill:none;stroke:#b0b0b0;stroke-linecap:square;stroke-width:0.8;"/>
     </g>
     <g id="line2d_10">
      <defs>
       <path d="M 0 0 
L -3.5 0 
" id="m1fc0b5e2a5" style="stroke:#000000;stroke-width:0.8;"/>
      </defs>
      <g>
       <use style="stroke:#000000;stroke-width:0.8;" x="180" xlink:href="#m1fc0b5e2a5" y="242.116922"/>
      </g>
     </g>
     <g id="text_6">
      <!-- 0 -->
      <g transform="translate(158.541562 251.422078)scale(0.26 -0.26)">
       <use xlink:href="#ArialMT-48"/>
      </g>
     </g>
    </g>
    <g id="ytick_2">
     <g id="line2d_11">
      <path clip-path="url(#p50c8f3a51f)" d="M 180 133.871457 
L 1008 133.871457 
" style="fill:none;stroke:#b0b0b0;stroke-linecap:square;stroke-width:0.8;"/>
     </g>
     <g id="line2d_12">
      <g>
       <use style="stroke:#000000;stroke-width:0.8;" x="180" xlink:href="#m1fc0b5e2a5" y="133.871457"/>
      </g>
     </g>
     <g id="text_7">
      <!-- 100 -->
      <g transform="translate(129.624687 143.176613)scale(0.26 -0.26)">
       <use xlink:href="#ArialMT-49"/>
       <use x="55.615234" xlink:href="#ArialMT-48"/>
       <use x="111.230469" xlink:href="#ArialMT-48"/>
      </g>
     </g>
    </g>
    <g id="text_8">
     <!-- Changing ratio (a.u.) -->
     <defs>
      <path d="M 58.796875 25.09375 
L 68.265625 22.703125 
Q 65.28125 11.03125 57.546875 4.90625 
Q 49.8125 -1.21875 38.625 -1.21875 
Q 27.046875 -1.21875 19.796875 3.484375 
Q 12.546875 8.203125 8.765625 17.140625 
Q 4.984375 26.078125 4.984375 36.328125 
Q 4.984375 47.515625 9.25 55.828125 
Q 13.53125 64.15625 21.40625 68.46875 
Q 29.296875 72.796875 38.765625 72.796875 
Q 49.515625 72.796875 56.828125 67.328125 
Q 64.15625 61.859375 67.046875 51.953125 
L 57.71875 49.75 
Q 55.21875 57.5625 50.484375 61.125 
Q 45.75 64.703125 38.578125 64.703125 
Q 30.328125 64.703125 24.78125 60.734375 
Q 19.234375 56.78125 16.984375 50.109375 
Q 14.75 43.453125 14.75 36.375 
Q 14.75 27.25 17.40625 20.4375 
Q 20.0625 13.625 25.671875 10.25 
Q 31.296875 6.890625 37.84375 6.890625 
Q 45.796875 6.890625 51.3125 11.46875 
Q 56.84375 16.0625 58.796875 25.09375 
z
" id="ArialMT-67"/>
      <path d="M 6.59375 0 
L 6.59375 71.578125 
L 15.375 71.578125 
L 15.375 45.90625 
Q 21.53125 53.03125 30.90625 53.03125 
Q 36.671875 53.03125 40.921875 50.75 
Q 45.171875 48.484375 47 44.484375 
Q 48.828125 40.484375 48.828125 32.859375 
L 48.828125 0 
L 40.046875 0 
L 40.046875 32.859375 
Q 40.046875 39.453125 37.1875 42.453125 
Q 34.328125 45.453125 29.109375 45.453125 
Q 25.203125 45.453125 21.75 43.421875 
Q 18.3125 41.40625 16.84375 37.9375 
Q 15.375 34.46875 15.375 28.375 
L 15.375 0 
z
" id="ArialMT-104"/>
      <path d="M 6.59375 0 
L 6.59375 51.859375 
L 14.5 51.859375 
L 14.5 44.484375 
Q 20.21875 53.03125 31 53.03125 
Q 35.6875 53.03125 39.625 51.34375 
Q 43.5625 49.65625 45.515625 46.921875 
Q 47.46875 44.1875 48.25 40.4375 
Q 48.734375 37.984375 48.734375 31.890625 
L 48.734375 0 
L 39.9375 0 
L 39.9375 31.546875 
Q 39.9375 36.921875 38.90625 39.578125 
Q 37.890625 42.234375 35.28125 43.8125 
Q 32.671875 45.40625 29.15625 45.40625 
Q 23.53125 45.40625 19.453125 41.84375 
Q 15.375 38.28125 15.375 28.328125 
L 15.375 0 
z
" id="ArialMT-110"/>
      <path d="M 4.984375 -4.296875 
L 13.53125 -5.5625 
Q 14.0625 -9.515625 16.5 -11.328125 
Q 19.78125 -13.765625 25.4375 -13.765625 
Q 31.546875 -13.765625 34.859375 -11.328125 
Q 38.1875 -8.890625 39.359375 -4.5 
Q 40.046875 -1.8125 39.984375 6.78125 
Q 34.234375 0 25.640625 0 
Q 14.9375 0 9.078125 7.71875 
Q 3.21875 15.4375 3.21875 26.21875 
Q 3.21875 33.640625 5.90625 39.90625 
Q 8.59375 46.1875 13.6875 49.609375 
Q 18.796875 53.03125 25.6875 53.03125 
Q 34.859375 53.03125 40.828125 45.609375 
L 40.828125 51.859375 
L 48.921875 51.859375 
L 48.921875 7.03125 
Q 48.921875 -5.078125 46.453125 -10.125 
Q 44 -15.1875 38.640625 -18.109375 
Q 33.296875 -21.046875 25.484375 -21.046875 
Q 16.21875 -21.046875 10.5 -16.875 
Q 4.78125 -12.703125 4.984375 -4.296875 
z
M 12.25 26.859375 
Q 12.25 16.65625 16.296875 11.96875 
Q 20.359375 7.28125 26.46875 7.28125 
Q 32.515625 7.28125 36.609375 11.9375 
Q 40.71875 16.609375 40.71875 26.5625 
Q 40.71875 36.078125 36.5 40.90625 
Q 32.28125 45.75 26.3125 45.75 
Q 20.453125 45.75 16.34375 40.984375 
Q 12.25 36.234375 12.25 26.859375 
z
" id="ArialMT-103"/>
      <path d="M 6.640625 61.46875 
L 6.640625 71.578125 
L 15.4375 71.578125 
L 15.4375 61.46875 
z
M 6.640625 0 
L 6.640625 51.859375 
L 15.4375 51.859375 
L 15.4375 0 
z
" id="ArialMT-105"/>
      <path d="M 6.5 0 
L 6.5 51.859375 
L 14.40625 51.859375 
L 14.40625 44 
Q 17.4375 49.515625 20 51.265625 
Q 22.5625 53.03125 25.640625 53.03125 
Q 30.078125 53.03125 34.671875 50.203125 
L 31.640625 42.046875 
Q 28.421875 43.953125 25.203125 43.953125 
Q 22.3125 43.953125 20.015625 42.21875 
Q 17.71875 40.484375 16.75 37.40625 
Q 15.28125 32.71875 15.28125 27.15625 
L 15.28125 0 
z
" id="ArialMT-114"/>
      <path d="M 25.78125 7.859375 
L 27.046875 0.09375 
Q 23.34375 -0.6875 20.40625 -0.6875 
Q 15.625 -0.6875 12.984375 0.828125 
Q 10.359375 2.34375 9.28125 4.8125 
Q 8.203125 7.28125 8.203125 15.1875 
L 8.203125 45.015625 
L 1.765625 45.015625 
L 1.765625 51.859375 
L 8.203125 51.859375 
L 8.203125 64.703125 
L 16.9375 69.96875 
L 16.9375 51.859375 
L 25.78125 51.859375 
L 25.78125 45.015625 
L 16.9375 45.015625 
L 16.9375 14.703125 
Q 16.9375 10.9375 17.40625 9.859375 
Q 17.875 8.796875 18.921875 8.15625 
Q 19.96875 7.515625 21.921875 7.515625 
Q 23.390625 7.515625 25.78125 7.859375 
z
" id="ArialMT-116"/>
      <path d="M 3.328125 25.921875 
Q 3.328125 40.328125 11.328125 47.265625 
Q 18.015625 53.03125 27.640625 53.03125 
Q 38.328125 53.03125 45.109375 46.015625 
Q 51.90625 39.015625 51.90625 26.65625 
Q 51.90625 16.65625 48.90625 10.90625 
Q 45.90625 5.171875 40.15625 2 
Q 34.421875 -1.171875 27.640625 -1.171875 
Q 16.75 -1.171875 10.03125 5.8125 
Q 3.328125 12.796875 3.328125 25.921875 
z
M 12.359375 25.921875 
Q 12.359375 15.96875 16.703125 11.015625 
Q 21.046875 6.0625 27.640625 6.0625 
Q 34.1875 6.0625 38.53125 11.03125 
Q 42.875 16.015625 42.875 26.21875 
Q 42.875 35.84375 38.5 40.796875 
Q 34.125 45.75 27.640625 45.75 
Q 21.046875 45.75 16.703125 40.8125 
Q 12.359375 35.890625 12.359375 25.921875 
z
" id="ArialMT-111"/>
      <path d="M 23.390625 -21.046875 
Q 16.109375 -11.859375 11.078125 0.4375 
Q 6.0625 12.75 6.0625 25.921875 
Q 6.0625 37.546875 9.8125 48.1875 
Q 14.203125 60.546875 23.390625 72.796875 
L 29.6875 72.796875 
Q 23.78125 62.640625 21.875 58.296875 
Q 18.890625 51.5625 17.1875 44.234375 
Q 15.09375 35.109375 15.09375 25.875 
Q 15.09375 2.390625 29.6875 -21.046875 
z
" id="ArialMT-40"/>
      <path d="M 9.078125 0 
L 9.078125 10.015625 
L 19.09375 10.015625 
L 19.09375 0 
z
" id="ArialMT-46"/>
      <path d="M 40.578125 0 
L 40.578125 7.625 
Q 34.515625 -1.171875 24.125 -1.171875 
Q 19.53125 -1.171875 15.546875 0.578125 
Q 11.578125 2.34375 9.640625 5 
Q 7.71875 7.671875 6.9375 11.53125 
Q 6.390625 14.109375 6.390625 19.734375 
L 6.390625 51.859375 
L 15.1875 51.859375 
L 15.1875 23.09375 
Q 15.1875 16.21875 15.71875 13.8125 
Q 16.546875 10.359375 19.234375 8.375 
Q 21.921875 6.390625 25.875 6.390625 
Q 29.828125 6.390625 33.296875 8.421875 
Q 36.765625 10.453125 38.203125 13.9375 
Q 39.65625 17.4375 39.65625 24.078125 
L 39.65625 51.859375 
L 48.4375 51.859375 
L 48.4375 0 
z
" id="ArialMT-117"/>
      <path d="M 12.359375 -21.046875 
L 6.0625 -21.046875 
Q 20.65625 2.390625 20.65625 25.875 
Q 20.65625 35.0625 18.5625 44.09375 
Q 16.890625 51.421875 13.921875 58.15625 
Q 12.015625 62.546875 6.0625 72.796875 
L 12.359375 72.796875 
Q 21.53125 60.546875 25.921875 48.1875 
Q 29.6875 37.546875 29.6875 25.921875 
Q 29.6875 12.75 24.625 0.4375 
Q 19.578125 -11.859375 12.359375 -21.046875 
z
" id="ArialMT-41"/>
     </defs>
     <g transform="translate(120.1525 261.781094)rotate(-90)scale(0.26 -0.26)">
      <use xlink:href="#ArialMT-67"/>
      <use x="72.216797" xlink:href="#ArialMT-104"/>
      <use x="127.832031" xlink:href="#ArialMT-97"/>
      <use x="183.447266" xlink:href="#ArialMT-110"/>
      <use x="239.0625" xlink:href="#ArialMT-103"/>
      <use x="294.677734" xlink:href="#ArialMT-105"/>
      <use x="316.894531" xlink:href="#ArialMT-110"/>
      <use x="372.509766" xlink:href="#ArialMT-103"/>
      <use x="428.125" xlink:href="#ArialMT-32"/>
      <use x="455.908203" xlink:href="#ArialMT-114"/>
      <use x="489.208984" xlink:href="#ArialMT-97"/>
      <use x="544.824219" xlink:href="#ArialMT-116"/>
      <use x="572.607422" xlink:href="#ArialMT-105"/>
      <use x="594.824219" xlink:href="#ArialMT-111"/>
      <use x="650.439453" xlink:href="#ArialMT-32"/>
      <use x="678.222656" xlink:href="#ArialMT-40"/>
      <use x="711.523438" xlink:href="#ArialMT-97"/>
      <use x="767.138672" xlink:href="#ArialMT-46"/>
      <use x="794.921875" xlink:href="#ArialMT-117"/>
      <use x="850.537109" xlink:href="#ArialMT-46"/>
      <use x="878.320312" xlink:href="#ArialMT-41"/>
     </g>
    </g>
   </g>
   <g id="line2d_13">
    <path clip-path="url(#p50c8f3a51f)" d="M 217.636364 44.443636 
L 217.88744 142.811938 
L 218.138517 192.083505 
L 218.389593 216.578187 
L 218.64067 228.682622 
L 218.891746 234.782324 
L 219.142822 237.868183 
L 219.393899 238.979693 
L 219.644975 239.218362 
L 219.896052 239.121499 
L 220.398205 237.802916 
L 220.900358 231.742061 
L 221.402511 222.814699 
L 221.904664 211.711739 
L 222.15574 212.676772 
L 222.406817 209.481822 
L 224.164352 236.116583 
L 224.415428 235.950528 
L 224.666505 235.408804 
L 224.917581 239.059314 
L 225.168658 238.619225 
L 225.419734 238.840746 
L 225.670811 240.691345 
L 225.921887 240.897055 
L 226.172964 240.581634 
L 226.42404 241.343476 
L 226.675117 240.633006 
L 226.926193 241.440495 
L 227.17727 240.955191 
L 227.428346 241.360427 
L 227.679423 240.746242 
L 227.930499 241.678583 
L 228.181576 239.45858 
L 228.432652 241.653031 
L 228.934805 241.692537 
L 229.185881 241.075556 
L 229.436958 239.794122 
L 229.688034 239.189386 
L 229.939111 241.487196 
L 230.190187 241.769901 
L 230.441264 241.514043 
L 230.69234 239.337672 
L 230.943417 241.735541 
L 231.194493 240.685133 
L 231.44557 241.727508 
L 231.696646 239.833765 
L 231.947723 241.250092 
L 232.198799 241.908244 
L 232.449876 239.32556 
L 232.700952 241.550849 
L 233.203105 240.680588 
L 233.454182 240.758867 
L 233.705258 238.906822 
L 233.956335 240.82776 
L 234.207411 239.646969 
L 234.458487 237.115824 
L 234.709564 238.045475 
L 234.96064 237.055642 
L 235.211717 239.37636 
L 235.462793 236.823107 
L 235.964946 236.453448 
L 236.216023 234.975337 
L 236.467099 235.859271 
L 236.718176 233.227074 
L 236.969252 240.506924 
L 237.220329 234.683679 
L 237.471405 238.646743 
L 237.722482 236.535934 
L 238.224635 239.404779 
L 238.726788 229.927683 
L 238.977864 237.272732 
L 239.228941 239.76272 
L 239.480017 231.610759 
L 239.731093 235.396315 
L 239.98217 233.024193 
L 240.233246 238.007097 
L 240.484323 239.461937 
L 240.735399 239.415402 
L 240.986476 235.950779 
L 241.237552 239.980476 
L 241.488629 237.064588 
L 241.739705 240.2997 
L 241.990782 235.985291 
L 242.241858 239.330453 
L 242.492935 240.703089 
L 242.744011 240.411984 
L 242.995088 240.306745 
L 243.246164 241.472632 
L 243.497241 241.576946 
L 243.748317 239.958787 
L 243.999394 241.245253 
L 244.25047 240.757228 
L 244.501546 241.4103 
L 244.752623 241.389512 
L 245.003699 241.904218 
L 245.254776 240.926882 
L 245.505852 241.482266 
L 245.756929 240.447852 
L 246.008005 241.58944 
L 246.259082 241.807188 
L 246.510158 241.304762 
L 246.761235 241.976681 
L 247.012311 240.650937 
L 247.263388 241.988275 
L 247.514464 241.909054 
L 247.765541 241.634389 
L 248.016617 241.977443 
L 248.267694 241.72773 
L 248.51877 241.648204 
L 249.020923 241.943033 
L 249.272 241.469998 
L 249.523076 241.430785 
L 249.774152 240.828531 
L 250.025229 242.015265 
L 250.276305 241.742433 
L 250.527382 241.180062 
L 251.029535 242.029535 
L 251.280611 241.938457 
L 251.531688 241.402245 
L 251.782764 241.549844 
L 252.033841 242.018843 
L 252.284917 239.153642 
L 252.78707 241.745845 
L 253.038147 241.676797 
L 253.289223 242.039387 
L 253.5403 241.858391 
L 253.791376 242.026479 
L 254.042453 241.753953 
L 254.293529 241.801342 
L 254.544605 242.003967 
L 254.795682 242.055116 
L 255.046758 240.882376 
L 255.548911 241.950971 
L 255.799988 242.078273 
L 256.302141 242.024729 
L 256.553217 241.733087 
L 256.804294 241.654077 
L 257.306447 242.070725 
L 257.557523 241.982425 
L 257.8086 241.58809 
L 258.059676 242.045491 
L 258.310753 241.007269 
L 258.561829 241.928589 
L 258.812906 241.560455 
L 259.063982 241.772384 
L 259.817211 241.658615 
L 260.068288 241.99376 
L 260.319364 241.483711 
L 260.570441 242.020077 
L 261.072594 241.928146 
L 261.32367 241.461004 
L 261.574747 242.025609 
L 261.825823 241.96704 
L 262.0769 241.724075 
L 262.830129 242.01841 
L 263.081206 241.834501 
L 263.332282 242.055231 
L 263.583359 240.957622 
L 263.834435 241.965716 
L 264.085512 241.876454 
L 264.336588 241.982546 
L 264.587665 241.249522 
L 264.838741 242.027408 
L 265.089817 240.877623 
L 265.340894 241.65099 
L 265.59197 241.951598 
L 265.843047 242.068779 
L 266.094123 241.777601 
L 266.3452 242.037874 
L 266.847353 241.959436 
L 267.098429 241.65539 
L 267.349506 241.922337 
L 267.600582 241.7667 
L 267.851659 241.743898 
L 268.102735 241.962259 
L 268.604888 242.044285 
L 268.855965 241.894294 
L 269.358118 242.019798 
L 269.609194 241.954287 
L 270.111347 242.01571 
L 270.6135 241.658562 
L 271.115653 242.088389 
L 271.366729 241.614771 
L 271.617806 242.012882 
L 272.371035 241.835215 
L 272.622112 241.720224 
L 272.873188 242.055139 
L 273.375341 241.750806 
L 273.626418 242.005295 
L 273.877494 241.970044 
L 274.128571 241.752744 
L 274.379647 241.856894 
L 274.630724 241.740095 
L 274.8818 242.021345 
L 275.132876 242.098212 
L 275.383953 242.012397 
L 275.635029 242.114262 
L 276.137182 241.86709 
L 277.392565 242.064536 
L 277.894718 242.095112 
L 278.647947 242.086004 
L 278.899024 241.688718 
L 279.1501 241.990576 
L 279.401177 242.087044 
L 279.903329 242.050378 
L 280.154406 241.778992 
L 280.405482 242.093043 
L 280.656559 241.947728 
L 280.907635 242.06519 
L 281.158712 242.050125 
L 281.409788 241.9231 
L 281.660865 241.98329 
L 281.911941 241.902851 
L 282.163018 242.04408 
L 282.414094 241.957484 
L 282.665171 242.109947 
L 283.4184 242.101272 
L 283.920553 241.786279 
L 284.17163 241.965802 
L 284.673783 241.816289 
L 284.924859 242.087002 
L 285.427012 241.990508 
L 285.929165 242.091181 
L 287.184547 242.050938 
L 287.435624 241.699773 
L 287.6867 242.012533 
L 288.43993 241.774637 
L 288.691006 242.096791 
L 288.942083 242.112207 
L 289.193159 241.981242 
L 289.695312 242.032215 
L 289.946389 241.941736 
L 290.448541 242.046686 
L 291.201771 241.935149 
L 291.703924 242.027384 
L 292.70823 241.905364 
L 292.959306 242.089214 
L 294.465765 242.012521 
L 294.716842 241.677917 
L 295.218994 242.070077 
L 295.470071 241.82038 
L 295.721147 242.090703 
L 295.972224 241.904087 
L 296.2233 242.040579 
L 296.725453 242.098209 
L 296.97653 241.931095 
L 297.227606 242.067712 
L 297.478683 242.048534 
L 297.729759 241.787789 
L 297.980836 241.988142 
L 298.231912 241.814583 
L 298.482989 241.991715 
L 298.985142 241.998842 
L 299.236218 242.108075 
L 299.487295 241.941947 
L 299.738371 242.097679 
L 299.989448 242.071289 
L 300.240524 241.748609 
L 300.4916 242.035093 
L 301.24483 242.04608 
L 301.495906 242.100848 
L 301.746983 241.983936 
L 303.002365 242.062802 
L 303.253442 241.824784 
L 303.504518 242.099263 
L 304.759901 242.034392 
L 305.010977 241.970725 
L 305.51313 241.996226 
L 305.764206 241.969369 
L 306.266359 242.104908 
L 307.521742 241.9681 
L 307.772818 242.058427 
L 308.274971 241.862836 
L 308.777124 242.10917 
L 309.028201 241.984131 
L 309.279277 242.072002 
L 309.530354 241.653955 
L 309.78143 241.968847 
L 310.283583 242.083589 
L 310.534659 241.877936 
L 310.785736 241.871917 
L 311.036812 242.093147 
L 311.538965 241.973855 
L 312.041118 242.058922 
L 312.543271 242.090895 
L 312.794348 242.01506 
L 313.296501 242.110006 
L 314.04973 242.02158 
L 316.058342 242.082362 
L 316.309418 242.038273 
L 316.811571 242.093294 
L 318.820183 242.001478 
L 319.322336 242.096014 
L 320.828795 241.97802 
L 321.079871 242.04656 
L 321.330948 241.970249 
L 321.833101 242.029666 
L 322.58633 242.058837 
L 323.088483 242.043008 
L 323.841713 241.899152 
L 324.343866 242.099739 
L 325.097095 241.980116 
L 325.599248 242.092993 
L 326.101401 241.997138 
L 326.603554 242.083412 
L 327.60786 242.030803 
L 328.361089 242.072395 
L 328.612166 241.994223 
L 329.114319 242.055846 
L 329.365395 242.009025 
L 329.867548 242.064593 
L 330.118625 242.108964 
L 330.369701 241.933691 
L 330.620777 242.105848 
L 332.629389 242.0229 
L 333.884772 242.07852 
L 334.135848 241.880312 
L 334.638001 242.078838 
L 335.140154 242.084693 
L 335.893383 242.113842 
L 336.14446 241.916022 
L 336.897689 242.111866 
L 337.399842 242.061074 
L 337.901995 242.048046 
L 339.408454 242.101648 
L 341.417066 242.087066 
L 349.451513 242.094725 
L 349.70259 241.963217 
L 350.204743 242.10217 
L 351.460125 242.085133 
L 353.719813 242.078146 
L 354.221966 242.09207 
L 355.226272 242.077355 
L 356.732731 242.056269 
L 357.234884 242.09946 
L 357.48596 242.029963 
L 358.23919 242.094947 
L 358.490266 241.948115 
L 358.741343 242.097135 
L 359.243496 242.085776 
L 362.758566 242.082863 
L 363.762872 242.07246 
L 364.013949 242.012269 
L 364.516102 242.109856 
L 368.282249 242.055251 
L 369.035478 242.092695 
L 371.295166 242.108812 
L 371.546243 242.020203 
L 372.299472 242.107804 
L 379.078537 242.075918 
L 379.831767 242.113491 
L 380.584996 241.994158 
L 380.836073 242.110638 
L 382.091455 242.088321 
L 383.597914 242.106356 
L 384.351143 242.096108 
L 386.108679 242.103186 
L 388.87052 242.093184 
L 390.376979 242.08821 
L 394.394202 242.085111 
L 395.398508 242.110756 
L 395.900661 242.107415 
L 397.909273 242.107156 
L 398.411426 242.085194 
L 401.67542 242.095245 
L 402.177573 242.021687 
L 402.930802 242.093547 
L 403.684032 242.085683 
L 404.688338 242.087333 
L 405.441567 242.081025 
L 406.696949 242.11515 
L 406.948026 242.04714 
L 407.450179 242.111729 
L 408.705561 242.104067 
L 411.216326 242.091694 
L 420.506156 242.079444 
L 421.510462 242.101365 
L 423.519073 242.091471 
L 425.527685 242.106251 
L 428.03845 242.093065 
L 429.544909 242.104193 
L 433.311056 242.107494 
L 435.570744 242.102927 
L 435.821821 242.03804 
L 436.323974 242.100177 
L 437.328279 242.098886 
L 439.085815 242.106476 
L 440.84335 242.076549 
L 443.354115 242.114406 
L 447.371338 242.071651 
L 448.375644 242.081308 
L 449.882103 242.113254 
L 451.388562 242.087683 
L 455.907939 242.114407 
L 456.661168 242.057645 
L 457.665474 242.111505 
L 462.435927 242.102039 
L 462.687003 242.038544 
L 463.189156 242.109956 
L 464.695615 242.097573 
L 468.210686 242.100146 
L 468.461762 223.232982 
L 468.963915 225.23959 
L 469.214992 227.796234 
L 469.466068 227.39829 
L 469.717145 226.263165 
L 470.219298 230.556235 
L 470.470374 230.942216 
L 470.721451 231.075146 
L 471.223604 233.178723 
L 471.47468 234.471495 
L 471.725757 234.30556 
L 471.976833 234.971956 
L 472.478986 235.585758 
L 472.981139 237.64661 
L 473.232215 237.537066 
L 473.483292 237.555704 
L 473.734368 238.096402 
L 473.985445 237.736001 
L 474.236521 237.060114 
L 474.487598 236.801037 
L 474.738674 236.925468 
L 474.989751 236.854636 
L 475.491904 234.49331 
L 475.74298 234.477479 
L 475.994057 233.675347 
L 476.245133 232.448992 
L 476.49621 232.270423 
L 476.998363 228.902063 
L 477.249439 229.159952 
L 477.751592 228.015951 
L 478.002668 228.636151 
L 478.253745 227.459769 
L 478.504821 226.943119 
L 478.755898 225.250267 
L 479.006974 226.722514 
L 479.258051 226.778663 
L 479.509127 226.678193 
L 479.760204 226.82202 
L 480.01128 226.118024 
L 480.262357 226.632288 
L 480.513433 229.406347 
L 480.76451 228.184834 
L 481.015586 228.787296 
L 481.266663 230.991795 
L 481.517739 231.018297 
L 482.019892 232.151769 
L 482.270969 233.796291 
L 482.522045 234.597519 
L 482.773121 234.343893 
L 483.275274 236.999827 
L 483.526351 236.698332 
L 483.777427 237.545335 
L 484.028504 237.90813 
L 484.27958 237.825134 
L 484.530657 238.64316 
L 484.781733 238.72251 
L 485.03281 238.341008 
L 485.283886 238.637284 
L 485.534963 238.008412 
L 485.786039 238.308646 
L 487.041422 237.154466 
L 487.292498 235.744477 
L 487.543575 235.488006 
L 487.794651 235.06573 
L 488.045727 234.005038 
L 488.296804 233.986737 
L 488.54788 232.614938 
L 488.798957 232.232642 
L 489.050033 232.364233 
L 489.552186 229.408679 
L 489.803263 231.071892 
L 490.054339 229.839974 
L 490.305416 230.218684 
L 491.058645 227.910325 
L 491.309722 227.536944 
L 491.560798 229.06561 
L 491.811875 227.511678 
L 492.314028 228.799449 
L 492.565104 228.949863 
L 492.81618 228.485058 
L 493.067257 229.678136 
L 493.318333 229.808941 
L 493.56941 230.348429 
L 493.820486 229.865228 
L 494.071563 231.871574 
L 494.322639 231.443958 
L 495.075869 234.504051 
L 495.326945 233.905796 
L 495.578022 235.488975 
L 495.829098 235.707558 
L 496.331251 236.634816 
L 496.582328 237.787525 
L 496.833404 238.147638 
L 497.084481 238.909753 
L 497.335557 239.292128 
L 497.586634 239.427909 
L 497.83771 239.703452 
L 498.088786 239.808641 
L 498.590939 239.783096 
L 498.842016 239.858685 
L 499.344169 238.863701 
L 499.595245 237.979826 
L 499.846322 237.997407 
L 500.097398 237.443276 
L 500.599551 235.293725 
L 500.850628 236.270094 
L 501.101704 234.398883 
L 501.603857 233.038282 
L 501.854934 233.16858 
L 502.357087 230.884903 
L 502.608163 231.289749 
L 502.859239 231.31562 
L 503.110316 229.828748 
L 503.361392 230.061846 
L 503.612469 230.993573 
L 503.863545 229.309223 
L 504.114622 230.310679 
L 504.365698 230.562977 
L 504.616775 230.578185 
L 504.867851 231.568438 
L 505.118928 231.228019 
L 505.370004 232.19695 
L 505.872157 232.533535 
L 506.123234 233.105371 
L 506.37431 234.595492 
L 506.625387 235.153728 
L 506.876463 236.415612 
L 507.12754 236.369233 
L 507.378616 237.37621 
L 507.629693 237.638683 
L 508.633998 239.459435 
L 508.885075 239.482819 
L 509.136151 239.645547 
L 509.387228 239.564539 
L 509.638304 239.933503 
L 509.889381 239.949609 
L 510.391534 239.421299 
L 510.64261 239.50321 
L 510.893687 238.36498 
L 511.144763 237.966836 
L 511.39584 238.305969 
L 511.897993 237.174134 
L 512.149069 236.39776 
L 512.651222 236.029202 
L 512.902299 234.889607 
L 513.153375 234.736695 
L 513.404451 233.966774 
L 513.655528 233.684067 
L 514.157681 232.86525 
L 514.408757 232.79594 
L 514.659834 231.814146 
L 514.91091 231.89111 
L 515.161987 232.139322 
L 515.413063 230.445654 
L 515.66414 231.177905 
L 515.915216 230.808251 
L 516.166293 231.729372 
L 516.417369 230.105596 
L 516.668446 230.815223 
L 516.919522 230.271213 
L 517.421675 232.147197 
L 517.923828 231.685028 
L 518.174904 232.50704 
L 518.425981 232.561254 
L 518.928134 233.736037 
L 519.17921 233.516834 
L 519.681363 235.000912 
L 519.93244 235.485388 
L 520.183516 236.344197 
L 520.434593 236.543091 
L 520.685669 237.658488 
L 520.936746 237.367348 
L 521.438899 238.523318 
L 521.689975 238.831156 
L 521.941052 238.959581 
L 522.192128 239.356241 
L 522.443205 239.316206 
L 522.694281 239.63659 
L 522.945358 239.124865 
L 523.44751 238.813673 
L 523.698587 237.671377 
L 523.949663 237.79581 
L 524.20074 237.467427 
L 524.702893 236.326112 
L 524.953969 235.96018 
L 525.205046 235.112779 
L 525.456122 235.063131 
L 525.707199 233.542223 
L 525.958275 232.933347 
L 526.209352 232.773844 
L 526.460428 232.822701 
L 526.711505 231.562781 
L 526.962581 231.664573 
L 527.213658 230.912395 
L 527.464734 231.12474 
L 527.715811 231.607817 
L 527.966887 230.825748 
L 528.217963 231.448742 
L 528.46904 230.946492 
L 528.720116 232.426628 
L 528.971193 232.215146 
L 529.473346 233.625379 
L 529.724422 233.016279 
L 529.975499 234.363653 
L 530.226575 234.462269 
L 530.477652 236.073462 
L 530.728728 235.245424 
L 530.979805 236.612594 
L 531.230881 237.091693 
L 531.481958 238.043113 
L 531.733034 237.809458 
L 531.984111 238.209743 
L 532.235187 238.953683 
L 532.486264 239.223774 
L 532.73734 238.754941 
L 533.239493 239.544033 
L 533.490569 239.548628 
L 533.741646 239.281929 
L 533.992722 239.440134 
L 534.494875 239.358504 
L 534.997028 238.672729 
L 535.248105 238.971194 
L 535.499181 237.996051 
L 535.750258 238.169059 
L 536.001334 237.871158 
L 536.503487 236.690568 
L 536.754564 236.727304 
L 537.00564 235.742083 
L 537.256717 236.334564 
L 537.507793 235.892454 
L 537.75887 234.659002 
L 538.009946 234.801217 
L 538.261022 235.661526 
L 538.512099 234.430811 
L 538.763175 233.764775 
L 539.014252 233.890844 
L 539.265328 233.526671 
L 539.516405 234.019657 
L 539.767481 233.813104 
L 540.018558 233.387187 
L 540.520711 233.838115 
L 540.771787 233.287448 
L 541.776093 234.482287 
L 542.02717 234.671298 
L 542.278246 235.296856 
L 542.529323 235.414872 
L 542.780399 235.00218 
L 543.784705 237.022503 
L 544.035781 237.085652 
L 544.286858 237.033175 
L 544.537934 237.585827 
L 544.789011 237.766116 
L 545.040087 238.364778 
L 545.291164 238.412536 
L 545.54224 237.94996 
L 545.793317 238.845047 
L 546.29547 239.488774 
L 546.546546 239.447445 
L 546.797623 239.205307 
L 547.048699 239.307923 
L 547.801929 239.056961 
L 548.053005 239.146144 
L 548.304082 238.652189 
L 548.555158 238.901063 
L 549.308387 238.147918 
L 549.559464 238.414659 
L 549.81054 237.772766 
L 550.061617 238.111883 
L 550.312693 237.173402 
L 550.814846 237.48028 
L 551.316999 236.787985 
L 551.568076 236.522654 
L 551.819152 236.640247 
L 552.070229 236.564456 
L 552.321305 236.265869 
L 552.572382 236.8697 
L 552.823458 236.878695 
L 553.074535 236.657397 
L 553.325611 236.945004 
L 553.576687 236.899002 
L 553.827764 237.241995 
L 554.07884 237.780653 
L 554.329917 237.909815 
L 554.580993 237.786417 
L 554.83207 237.948047 
L 555.083146 238.418084 
L 555.334223 238.026194 
L 555.585299 238.267326 
L 555.836376 238.852414 
L 556.087452 238.710716 
L 556.338529 239.143002 
L 556.589605 238.793872 
L 556.840682 239.713937 
L 557.091758 239.371704 
L 557.342835 239.259054 
L 557.593911 239.669831 
L 557.844988 239.430956 
L 558.096064 240.009504 
L 558.347141 239.801281 
L 558.598217 239.797615 
L 558.849293 239.553153 
L 559.10037 239.932778 
L 559.351446 239.988651 
L 559.602523 239.666552 
L 559.853599 239.999571 
L 560.104676 240.047958 
L 560.857905 239.886814 
L 561.108982 239.921527 
L 561.360058 239.587149 
L 561.611135 239.826427 
L 561.862211 239.689435 
L 562.113288 239.770985 
L 562.364364 239.485043 
L 562.615441 239.789495 
L 562.866517 239.24041 
L 563.619746 239.564382 
L 563.870823 239.203272 
L 564.121899 239.739057 
L 564.372976 239.453796 
L 565.628358 239.792288 
L 566.381588 239.464882 
L 566.632664 239.806055 
L 566.883741 239.525344 
L 567.385894 239.764962 
L 567.63697 239.258174 
L 567.888047 239.803632 
L 568.139123 239.923433 
L 568.641276 239.79823 
L 568.892352 240.081488 
L 569.394505 239.344714 
L 569.645582 239.743353 
L 569.896658 239.391907 
L 570.147735 239.830027 
L 570.398811 239.956181 
L 570.649888 239.377198 
L 570.900964 239.509404 
L 571.152041 239.945676 
L 571.403117 239.592703 
L 571.90527 240.110508 
L 572.156347 239.810554 
L 572.6585 239.989401 
L 572.909576 239.743597 
L 573.160653 239.851515 
L 573.411729 239.404915 
L 573.662806 239.615485 
L 573.913882 240.112717 
L 574.164958 240.165023 
L 574.416035 239.574336 
L 574.667111 239.814015 
L 574.918188 239.616366 
L 575.420341 239.837213 
L 575.922494 239.65484 
L 576.17357 239.714759 
L 576.424647 239.935417 
L 576.9268 239.600522 
L 577.177876 239.688102 
L 577.428953 239.476227 
L 577.680029 239.639416 
L 578.182182 239.500281 
L 578.433259 239.909479 
L 578.935411 239.655396 
L 579.688641 240.184412 
L 579.939717 239.908058 
L 580.44187 239.95623 
L 580.692947 239.519907 
L 581.1951 239.904554 
L 581.948329 239.80566 
L 582.199406 239.605525 
L 582.450482 240.215212 
L 582.701559 239.911569 
L 582.952635 239.895788 
L 583.203712 239.752065 
L 583.454788 239.994218 
L 583.705865 239.734003 
L 583.956941 240.109505 
L 584.208017 240.036512 
L 584.459094 240.390943 
L 584.961247 239.825357 
L 585.212323 240.218345 
L 585.4634 240.205008 
L 585.714476 240.01002 
L 585.965553 240.091188 
L 586.216629 240.376896 
L 586.467706 240.250741 
L 586.718782 240.410528 
L 586.969859 240.204059 
L 587.472012 240.215978 
L 588.225241 239.998531 
L 588.476318 240.301772 
L 588.727394 239.942255 
L 588.97847 239.812706 
L 589.229547 240.027428 
L 589.480623 240.432016 
L 589.7317 239.809856 
L 589.982776 240.250547 
L 590.233853 240.156142 
L 590.484929 240.256333 
L 590.736006 239.792466 
L 590.987082 239.703689 
L 591.238159 239.968732 
L 591.489235 239.722182 
L 591.740312 240.015202 
L 591.991388 239.96241 
L 592.493541 240.043008 
L 592.744618 239.898439 
L 592.995694 240.159881 
L 593.246771 240.09511 
L 593.497847 240.18437 
L 594 239.880331 
L 594.502153 240.184221 
L 594.753229 239.644163 
L 595.255382 240.523218 
L 595.506459 240.091214 
L 595.757535 240.023244 
L 596.259688 240.329636 
L 596.510765 240.264905 
L 596.761841 240.043817 
L 597.012918 240.39971 
L 597.263994 240.157895 
L 597.515071 240.52876 
L 598.017224 240.30943 
L 598.2683 240.619808 
L 598.519377 240.486638 
L 598.770453 240.490331 
L 599.02153 240.235456 
L 599.272606 240.648964 
L 599.523682 240.544005 
L 599.774759 240.192748 
L 600.025835 240.121613 
L 600.276912 240.56155 
L 600.527988 240.49791 
L 600.779065 240.28139 
L 601.030141 240.406134 
L 601.281218 240.105906 
L 601.783371 240.440612 
L 602.285524 240.104912 
L 602.5366 240.319866 
L 603.038753 239.895039 
L 603.28983 240.036932 
L 603.540906 240.011464 
L 603.791983 240.201748 
L 604.294135 239.866549 
L 604.545212 240.120002 
L 605.047365 240.125272 
L 605.800594 239.931198 
L 606.051671 239.698549 
L 606.302747 240.36943 
L 606.553824 240.204292 
L 606.8049 240.466027 
L 607.055977 240.140443 
L 607.307053 240.076345 
L 607.55813 240.247924 
L 608.060283 240.215617 
L 608.311359 240.693447 
L 608.813512 240.348538 
L 609.064589 240.87163 
L 609.315665 240.733684 
L 609.566741 240.938217 
L 610.319971 240.577518 
L 610.822124 240.986098 
L 611.0732 240.826391 
L 611.324277 241.027609 
L 611.575353 240.794657 
L 612.579659 240.818182 
L 612.830736 240.638902 
L 613.583965 240.746713 
L 613.835042 240.52058 
L 614.337194 240.542682 
L 614.588271 240.631962 
L 615.090424 240.303353 
L 615.592577 240.334556 
L 615.843653 240.324002 
L 616.09473 239.84027 
L 616.345806 240.095096 
L 616.847959 239.943916 
L 617.099036 240.106994 
L 617.350112 239.712657 
L 617.852265 240.192565 
L 618.856571 239.984063 
L 619.6098 240.155941 
L 619.860877 239.922467 
L 620.111953 240.239014 
L 620.36303 240.136626 
L 620.865183 240.811045 
L 621.116259 240.475596 
L 621.367336 240.858104 
L 621.869489 240.670173 
L 622.120565 240.920645 
L 622.873795 241.134966 
L 623.124871 241.002315 
L 623.375948 241.225263 
L 623.627024 241.169212 
L 623.878101 241.292464 
L 624.129177 240.987603 
L 624.380254 241.004922 
L 624.63133 241.212377 
L 625.133483 241.233569 
L 625.635636 240.865673 
L 626.388865 240.771982 
L 626.639942 240.951822 
L 627.142095 240.56684 
L 627.393171 240.304398 
L 627.895324 240.761245 
L 628.146401 240.330203 
L 628.397477 240.484814 
L 629.150707 240.391697 
L 629.401783 239.908505 
L 629.652859 240.392356 
L 629.903936 240.154488 
L 630.155012 240.11564 
L 630.657165 240.429679 
L 631.159318 240.17634 
L 631.661471 240.646914 
L 631.912548 240.18537 
L 632.414701 240.409272 
L 632.665777 240.583057 
L 632.916854 240.369528 
L 633.16793 240.614425 
L 633.419007 240.555028 
L 633.92116 240.82445 
L 634.172236 240.70231 
L 634.423313 240.727195 
L 634.674389 241.073141 
L 635.176542 241.134249 
L 635.427618 241.257674 
L 635.678695 241.152592 
L 635.929771 241.172321 
L 636.180848 241.358825 
L 636.431924 241.322062 
L 636.683001 241.482331 
L 636.934077 241.341798 
L 637.43623 241.522032 
L 637.687307 241.306948 
L 638.18946 241.390574 
L 638.440536 241.077799 
L 638.691613 241.277042 
L 639.193766 240.945763 
L 639.444842 241.074678 
L 639.695918 240.668565 
L 639.946995 240.784365 
L 640.198071 240.65386 
L 640.449148 240.652681 
L 640.700224 240.451512 
L 640.951301 240.001178 
L 641.202377 240.630558 
L 641.453454 240.306091 
L 641.70453 240.237373 
L 641.955607 239.884221 
L 642.206683 240.011554 
L 643.210989 239.775867 
L 643.462066 239.82707 
L 643.713142 240.131036 
L 643.964219 239.925676 
L 644.215295 240.034542 
L 644.466372 240.382171 
L 644.717448 240.20225 
L 645.219601 240.406693 
L 645.721754 240.678991 
L 645.97283 240.635067 
L 646.223907 240.90816 
L 646.72606 241.054045 
L 646.977136 240.892666 
L 647.228213 241.223763 
L 648.734672 241.546961 
L 648.985748 241.397505 
L 649.487901 241.609633 
L 649.738978 241.408881 
L 649.990054 241.565349 
L 650.492207 241.298189 
L 650.743283 241.412241 
L 651.245436 241.094153 
L 651.496513 241.227443 
L 651.747589 240.874213 
L 652.249742 240.92817 
L 652.500819 240.719764 
L 653.254048 240.557465 
L 653.756201 240.295725 
L 654.007278 240.369141 
L 654.509431 240.230651 
L 655.011583 240.165121 
L 655.26266 240.38811 
L 655.513736 240.070399 
L 655.764813 240.364602 
L 656.518042 240.118092 
L 656.769119 240.493799 
L 657.020195 240.252523 
L 657.271272 240.46488 
L 657.522348 240.343488 
L 658.526654 240.908789 
L 659.028807 240.790937 
L 659.279884 240.987887 
L 659.53096 241.337611 
L 659.782037 241.121757 
L 660.033113 241.378227 
L 660.786342 241.45486 
L 661.037419 241.616877 
L 661.539572 241.457733 
L 661.790648 241.727628 
L 662.292801 241.628353 
L 662.794954 241.614793 
L 663.046031 241.489362 
L 663.297107 241.500425 
L 663.79926 241.30152 
L 664.050337 241.249599 
L 664.301413 240.953956 
L 664.55249 240.967218 
L 664.803566 240.792558 
L 665.054642 240.979972 
L 665.305719 240.428776 
L 665.556795 240.383264 
L 665.807872 240.2105 
L 666.058948 240.269201 
L 666.310025 240.039727 
L 666.561101 240.016925 
L 666.812178 239.822797 
L 667.063254 240.043052 
L 667.314331 239.742714 
L 667.565407 239.958094 
L 667.816484 239.887344 
L 668.06756 239.956838 
L 668.318637 239.838223 
L 668.569713 240.046187 
L 668.82079 239.988709 
L 669.071866 240.190723 
L 669.574019 240.206849 
L 669.825096 240.594294 
L 670.076172 240.541472 
L 671.833707 241.482005 
L 672.084784 241.392821 
L 672.586937 241.609622 
L 672.838013 241.536297 
L 673.08909 241.699187 
L 673.340166 241.623042 
L 674.093396 241.757752 
L 674.344472 241.712114 
L 674.595549 241.523465 
L 674.846625 241.498631 
L 675.097701 241.333607 
L 675.348778 241.423727 
L 675.599854 241.216935 
L 675.850931 241.214291 
L 676.60416 240.821709 
L 676.855237 240.945801 
L 677.106313 240.592893 
L 677.35739 240.477601 
L 677.608466 240.596474 
L 678.110619 240.119665 
L 678.361696 240.325927 
L 678.612772 239.897941 
L 678.863849 240.232604 
L 679.114925 239.635008 
L 679.366002 239.958603 
L 680.370307 239.687516 
L 680.87246 240.139793 
L 681.374613 239.757597 
L 681.62569 239.86891 
L 682.127843 240.439619 
L 682.378919 240.061083 
L 682.881072 240.353036 
L 683.132149 240.670227 
L 683.383225 240.532857 
L 683.634302 240.706381 
L 683.885378 241.052158 
L 684.387531 241.006956 
L 684.638608 241.249444 
L 684.889684 241.269492 
L 685.140761 241.501671 
L 685.642913 241.543393 
L 685.89399 241.505896 
L 686.145066 241.676522 
L 686.396143 241.628545 
L 686.647219 241.771889 
L 687.149372 241.622039 
L 687.400449 241.640366 
L 687.651525 241.505141 
L 688.153678 241.088564 
L 688.404755 241.17601 
L 688.655831 240.823185 
L 688.906908 240.945729 
L 689.409061 240.445765 
L 689.660137 240.119712 
L 689.911214 240.192964 
L 690.16229 239.928794 
L 690.664443 240.054729 
L 690.915519 239.709802 
L 691.166596 239.805446 
L 691.417672 239.228541 
L 691.668749 239.552552 
L 692.170902 239.159676 
L 693.175208 239.911173 
L 693.426284 239.719959 
L 693.677361 240.149983 
L 693.928437 240.321774 
L 694.43059 240.234137 
L 694.681667 240.567399 
L 694.932743 240.662732 
L 695.18382 240.584302 
L 695.685972 241.025992 
L 695.937049 241.044359 
L 696.188125 241.186231 
L 696.439202 241.498188 
L 696.690278 241.363035 
L 697.443508 241.502141 
L 698.69889 241.412563 
L 698.949967 241.255813 
L 699.201043 241.42185 
L 699.45212 241.218291 
L 699.703196 241.203932 
L 699.954273 240.921451 
L 700.205349 240.885715 
L 700.456425 240.568345 
L 700.707502 240.583831 
L 700.958578 240.387916 
L 701.209655 240.509975 
L 701.460731 240.268556 
L 701.962884 240.199141 
L 702.213961 239.792938 
L 702.465037 239.616971 
L 702.716114 239.655797 
L 702.96719 239.397808 
L 703.218267 239.811284 
L 703.469343 239.778383 
L 703.72042 239.361921 
L 703.971496 239.333951 
L 704.724726 239.600194 
L 704.975802 239.265134 
L 705.226879 239.414439 
L 705.477955 239.232038 
L 705.729031 239.484072 
L 705.980108 239.390634 
L 706.231184 239.693031 
L 707.486567 240.048102 
L 707.737643 240.490322 
L 708.239796 240.325439 
L 708.741949 240.576605 
L 708.993026 241.060499 
L 709.495179 240.667615 
L 709.746255 241.066263 
L 710.248408 241.355246 
L 711.001637 241.084355 
L 711.252714 241.162947 
L 711.50379 241.020376 
L 712.005943 241.074873 
L 712.508096 240.78724 
L 712.759173 240.707781 
L 713.010249 240.391378 
L 713.512402 240.329728 
L 713.763479 239.656114 
L 714.014555 239.973927 
L 714.265632 239.159488 
L 714.767785 239.544323 
L 715.269938 238.924427 
L 715.77209 238.989326 
L 716.023167 239.437446 
L 716.274243 239.139858 
L 717.027473 239.186135 
L 717.278549 239.711246 
L 717.529626 239.222798 
L 718.282855 239.720861 
L 718.533932 240.179527 
L 718.785008 240.111443 
L 719.036085 240.495882 
L 719.287161 240.618278 
L 719.538238 238.924763 
L 719.789314 240.835575 
L 720.040391 239.433392 
L 720.291467 241.41659 
L 720.542544 240.298306 
L 720.79362 240.944328 
L 721.044696 239.652258 
L 721.295773 241.126074 
L 721.546849 240.40861 
L 722.049002 240.989448 
L 722.300079 240.639821 
L 722.551155 241.375146 
L 722.802232 239.852316 
L 723.053308 241.216501 
L 723.304385 241.776489 
L 723.555461 241.523588 
L 723.806538 240.989869 
L 724.057614 241.738685 
L 724.308691 240.208113 
L 724.559767 241.332503 
L 724.810844 241.103727 
L 725.06192 240.01233 
L 725.312997 240.93841 
L 725.564073 239.448473 
L 725.815149 241.016254 
L 726.066226 238.613689 
L 726.317302 238.744562 
L 726.568379 240.657717 
L 726.819455 241.112304 
L 727.070532 240.370583 
L 727.321608 240.358175 
L 727.572685 241.352362 
L 727.823761 239.848822 
L 728.074838 241.281066 
L 728.325914 239.900611 
L 728.576991 240.923622 
L 728.828067 239.716801 
L 729.079144 240.087922 
L 729.33022 241.082323 
L 729.581297 241.442259 
L 729.832373 241.492757 
L 730.08345 238.39505 
L 730.334526 241.413881 
L 730.585603 240.813669 
L 730.836679 241.051885 
L 731.087755 240.334804 
L 731.338832 240.155681 
L 731.589908 240.690466 
L 731.840985 240.152569 
L 732.092061 239.349171 
L 732.343138 240.24878 
L 732.594214 240.391946 
L 732.845291 242.028807 
L 733.096367 238.737495 
L 733.347444 239.049229 
L 733.59852 241.80955 
L 734.100673 240.668969 
L 734.35175 239.561004 
L 734.602826 241.257575 
L 734.853903 242.072104 
L 735.104979 239.710815 
L 735.607132 240.103807 
L 735.858209 241.425387 
L 736.109285 239.599787 
L 736.611438 241.470776 
L 737.113591 241.348916 
L 737.364667 240.561273 
L 737.615744 240.152363 
L 737.86682 240.868348 
L 738.62005 241.667402 
L 738.871126 239.807764 
L 739.122203 241.601821 
L 739.373279 241.229659 
L 739.624356 241.126466 
L 739.875432 241.273066 
L 740.126509 240.975221 
L 740.377585 240.073559 
L 740.628662 239.766106 
L 740.879738 240.770888 
L 741.130814 241.123489 
L 741.381891 241.048656 
L 741.632967 240.816714 
L 741.884044 240.742388 
L 742.13512 240.957771 
L 742.386197 240.541316 
L 742.88835 241.774341 
L 743.139426 239.027255 
L 743.390503 238.955041 
L 743.641579 239.649954 
L 744.143732 241.629911 
L 744.394809 240.948874 
L 744.645885 240.974655 
L 744.896962 241.681237 
L 745.148038 241.409152 
L 745.399115 239.470106 
L 745.650191 240.761743 
L 745.901268 239.170912 
L 746.152344 241.250547 
L 746.654497 241.15941 
L 746.905573 241.312435 
L 747.15665 240.064012 
L 747.407726 241.72327 
L 747.658803 240.611891 
L 748.160956 242.075055 
L 748.412032 241.671939 
L 748.663109 241.948994 
L 748.914185 240.628046 
L 749.416338 241.533161 
L 749.667415 241.711493 
L 749.918491 241.680449 
L 750.169568 239.296126 
L 750.420644 241.307465 
L 750.671721 240.989006 
L 750.922797 241.849539 
L 751.173873 241.037329 
L 751.42495 241.667734 
L 751.676026 241.829695 
L 751.927103 240.039332 
L 752.178179 242.081975 
L 752.680332 241.979965 
L 752.931409 240.17503 
L 753.182485 241.157142 
L 753.433562 241.271818 
L 753.684638 240.135862 
L 753.935715 240.039336 
L 754.186791 241.47358 
L 754.437868 239.939835 
L 754.688944 241.602098 
L 754.940021 241.654901 
L 755.191097 240.712364 
L 755.442174 241.387571 
L 755.69325 240.40933 
L 755.944327 241.454476 
L 756.195403 241.536773 
L 756.446479 240.411683 
L 756.697556 241.551398 
L 756.948632 238.27718 
L 757.199709 241.435797 
L 757.450785 241.403387 
L 757.701862 241.740765 
L 757.952938 241.765433 
L 758.204015 241.350554 
L 758.455091 241.713764 
L 758.706168 240.956634 
L 758.957244 241.61332 
L 759.208321 240.873588 
L 759.459397 240.918235 
L 759.710474 241.626045 
L 760.212627 241.103353 
L 760.463703 241.946715 
L 760.71478 241.233016 
L 761.216933 241.313357 
L 761.468009 241.802091 
L 761.719085 240.444778 
L 761.970162 241.874128 
L 762.221238 241.003868 
L 762.472315 242.034926 
L 763.225544 240.856434 
L 763.727697 241.573654 
L 763.978774 241.005204 
L 764.22985 240.914666 
L 764.480927 241.605158 
L 764.732003 241.569316 
L 764.98308 241.921404 
L 765.234156 241.301846 
L 765.485233 241.1919 
L 765.736309 241.787515 
L 765.987386 241.753796 
L 766.238462 241.506214 
L 766.489538 240.553639 
L 766.740615 241.221357 
L 766.991691 240.726001 
L 767.242768 241.835085 
L 767.493844 239.762429 
L 767.744921 240.28225 
L 767.995997 241.56683 
L 768.247074 242.061632 
L 768.49815 241.676495 
L 768.749227 240.824248 
L 769.000303 240.83181 
L 769.25138 241.686172 
L 769.502456 241.21582 
L 769.753533 241.615965 
L 770.004609 241.364288 
L 770.255686 241.286564 
L 770.506762 241.660828 
L 771.008915 239.976161 
L 771.259992 241.398838 
L 771.511068 240.894244 
L 771.762144 240.822161 
L 772.013221 240.947638 
L 772.264297 241.69493 
L 772.515374 241.595735 
L 772.76645 240.538652 
L 773.017527 240.914805 
L 773.268603 240.493382 
L 773.51968 241.648502 
L 773.770756 240.320449 
L 774.021833 241.260811 
L 774.272909 241.540058 
L 774.523986 240.882512 
L 774.775062 241.670072 
L 775.277215 241.86189 
L 775.528292 241.002616 
L 775.779368 241.74231 
L 776.030445 240.294211 
L 776.281521 241.236428 
L 776.532597 241.655657 
L 776.783674 241.62102 
L 777.03475 241.342248 
L 777.285827 241.317762 
L 777.536903 240.144109 
L 777.78798 241.477321 
L 778.039056 241.660056 
L 778.290133 239.786628 
L 778.541209 241.001173 
L 778.792286 241.234705 
L 779.043362 240.564032 
L 779.294439 241.5193 
L 780.047668 241.362524 
L 780.298745 241.165185 
L 780.549821 241.898191 
L 780.800898 241.103183 
L 781.051974 241.262459 
L 781.303051 241.265032 
L 781.554127 240.291926 
L 781.805203 241.219693 
L 782.05628 241.624947 
L 782.307356 241.549811 
L 782.558433 241.761357 
L 782.809509 241.417474 
L 783.060586 240.131192 
L 783.311662 241.928978 
L 783.562739 240.932633 
L 783.813815 241.476146 
L 784.064892 240.608527 
L 784.315968 240.973539 
L 784.567045 240.528162 
L 784.818121 241.313582 
L 785.822427 242.048992 
L 786.575656 240.892395 
L 786.826733 241.506844 
L 787.077809 241.640391 
L 787.328886 240.306012 
L 787.831039 241.858548 
L 788.082115 241.920879 
L 788.333192 239.730136 
L 788.584268 241.537309 
L 788.835345 241.748877 
L 789.086421 241.768457 
L 789.337498 241.604364 
L 789.588574 241.673644 
L 789.839651 241.476563 
L 790.090727 241.818457 
L 790.341804 240.378136 
L 790.59288 241.023884 
L 790.843957 241.987591 
L 791.095033 242.047944 
L 791.34611 240.917782 
L 791.597186 241.782091 
L 791.848262 240.616127 
L 792.099339 241.882396 
L 792.350415 241.016404 
L 792.601492 241.066161 
L 792.852568 239.188351 
L 793.103645 240.799092 
L 793.354721 241.661211 
L 793.605798 240.641336 
L 793.856874 240.524684 
L 794.107951 241.905634 
L 794.359027 241.471197 
L 794.610104 241.60977 
L 794.86118 241.151754 
L 795.112257 241.920462 
L 795.363333 241.756675 
L 795.865486 240.331585 
L 796.116563 241.55897 
L 796.367639 241.717205 
L 796.618716 241.524667 
L 796.869792 241.771894 
L 797.120868 241.484435 
L 797.371945 241.82641 
L 797.623021 241.851362 
L 797.874098 241.611111 
L 798.125174 241.684744 
L 798.376251 241.970889 
L 798.627327 241.511937 
L 798.878404 240.635075 
L 799.12948 241.914765 
L 799.380557 241.057684 
L 799.631633 241.55429 
L 799.88271 241.47835 
L 800.133786 241.601837 
L 800.384863 241.999158 
L 800.635939 241.98427 
L 800.887016 241.669374 
L 801.138092 241.878001 
L 801.389169 241.87854 
L 801.640245 241.990853 
L 802.142398 241.558938 
L 802.393474 241.334823 
L 802.644551 239.377534 
L 802.895627 241.513284 
L 803.39778 241.325501 
L 803.648857 241.357339 
L 803.899933 240.737923 
L 804.15101 240.762954 
L 804.402086 241.738874 
L 804.653163 242.008158 
L 804.904239 240.886915 
L 805.155316 241.772761 
L 805.406392 239.831087 
L 805.657469 241.656541 
L 806.410698 240.907811 
L 806.661775 241.265099 
L 806.912851 239.928391 
L 807.415004 241.607289 
L 807.66608 241.816726 
L 807.917157 240.319796 
L 808.168233 240.236027 
L 808.41931 241.950955 
L 808.670386 241.606674 
L 808.921463 240.599712 
L 809.172539 242.063926 
L 809.674692 241.743516 
L 809.925769 241.389865 
L 810.176845 240.284621 
L 810.678998 242.04062 
L 811.181151 241.766056 
L 811.683304 241.619114 
L 811.93438 241.980685 
L 812.436533 241.945589 
L 812.68761 240.939841 
L 812.938686 241.201914 
L 813.189763 241.678453 
L 813.440839 241.49889 
L 813.691916 241.584809 
L 813.942992 241.948016 
L 814.194069 240.917174 
L 814.445145 241.692125 
L 814.947298 241.917625 
L 815.198375 241.399064 
L 815.449451 241.732894 
L 815.700528 241.742072 
L 815.951604 241.185641 
L 816.202681 241.649619 
L 816.453757 241.507019 
L 816.704834 240.74062 
L 816.95591 241.409867 
L 817.206986 241.502276 
L 817.458063 240.412334 
L 817.709139 241.51143 
L 817.960216 241.509235 
L 818.211292 240.917419 
L 818.462369 241.945785 
L 818.713445 240.967213 
L 818.964522 241.047376 
L 819.215598 241.768101 
L 819.466675 242.057867 
L 819.717751 241.585091 
L 819.968828 241.731593 
L 820.219904 241.699927 
L 820.722057 240.605897 
L 820.973134 239.591442 
L 821.22421 241.267682 
L 821.475287 241.790664 
L 821.726363 241.506828 
L 821.97744 241.755803 
L 822.228516 241.310137 
L 822.479592 241.677746 
L 822.981745 241.134599 
L 823.232822 241.786813 
L 823.483898 241.788829 
L 823.986051 241.604943 
L 824.237128 241.650532 
L 824.488204 241.266376 
L 824.739281 241.999279 
L 824.990357 241.398964 
L 825.241434 241.956995 
L 825.49251 241.866678 
L 825.743587 241.597699 
L 825.994663 241.576316 
L 826.24574 242.030214 
L 826.496816 241.433481 
L 827.250045 241.596884 
L 827.501122 241.177196 
L 827.752198 241.656431 
L 828.003275 241.826268 
L 828.254351 241.726333 
L 828.505428 241.493986 
L 828.756504 242.089967 
L 829.007581 241.212257 
L 829.509734 241.089829 
L 829.76081 240.629375 
L 830.011887 241.290191 
L 830.51404 241.588958 
L 830.765116 241.405365 
L 831.016193 240.363076 
L 831.267269 240.383881 
L 831.518346 241.485688 
L 831.769422 241.660846 
L 832.020499 241.699658 
L 832.271575 241.478042 
L 832.522651 240.634536 
L 832.773728 241.313326 
L 833.024804 241.046873 
L 833.526957 242.097144 
L 834.02911 241.489683 
L 834.280187 241.471396 
L 834.531263 241.318215 
L 834.78234 241.823087 
L 835.033416 242.00476 
L 835.284493 241.213691 
L 835.535569 242.10078 
L 835.786646 240.426024 
L 836.037722 241.911163 
L 836.288799 241.271982 
L 836.539875 241.363504 
L 836.790952 241.22336 
L 837.042028 241.477264 
L 837.544181 241.320139 
L 837.795257 241.451697 
L 838.046334 241.854746 
L 838.29741 241.306322 
L 838.548487 241.048756 
L 839.05064 242.074754 
L 839.301716 241.992575 
L 839.552793 241.565722 
L 839.803869 241.882912 
L 840.054946 241.735717 
L 840.306022 241.867201 
L 840.557099 241.440939 
L 840.808175 241.797463 
L 841.059252 241.361749 
L 841.310328 240.569755 
L 841.561405 241.817325 
L 841.812481 241.651246 
L 842.063558 241.334171 
L 842.314634 240.342964 
L 842.56571 240.958993 
L 842.816787 240.739297 
L 843.067863 241.42994 
L 843.31894 240.891787 
L 843.570016 241.668677 
L 843.821093 241.842132 
L 844.072169 241.045199 
L 844.323246 241.79218 
L 844.574322 241.213975 
L 845.076475 241.456481 
L 845.327552 241.629463 
L 845.578628 241.646697 
L 845.829705 241.874881 
L 846.080781 241.307581 
L 846.331858 241.402261 
L 846.582934 241.963197 
L 846.834011 240.853694 
L 847.085087 240.752508 
L 847.336164 240.965818 
L 847.58724 241.745264 
L 847.838316 240.307774 
L 848.089393 241.334967 
L 848.340469 241.813188 
L 848.591546 240.057503 
L 848.842622 241.209463 
L 849.093699 241.409805 
L 849.344775 240.860257 
L 849.595852 241.109738 
L 850.098005 241.299875 
L 850.349081 242.002614 
L 850.600158 241.507507 
L 850.851234 242.089528 
L 851.353387 241.46321 
L 851.85554 241.083796 
L 852.106617 241.979367 
L 852.357693 241.867607 
L 852.608769 241.265349 
L 852.859846 241.909281 
L 853.613075 241.213645 
L 853.864152 240.110819 
L 854.115228 239.684888 
L 854.366305 240.633553 
L 854.617381 240.418659 
L 854.868458 241.136392 
L 855.119534 239.591959 
L 855.370611 241.715328 
L 855.621687 239.610663 
L 855.872764 240.097409 
L 856.12384 241.189141 
L 856.374917 241.490577 
L 856.625993 241.122222 
L 857.128146 239.281624 
L 857.379223 241.191042 
L 857.630299 241.137741 
L 857.881375 240.847735 
L 858.132452 241.08878 
L 858.383528 241.006095 
L 858.634605 241.675782 
L 858.885681 241.163385 
L 859.136758 241.537232 
L 859.387834 241.254435 
L 859.638911 241.772753 
L 859.889987 241.003091 
L 860.141064 241.320497 
L 860.39214 241.847054 
L 860.643217 241.450995 
L 860.894293 241.983732 
L 861.14537 242.035329 
L 861.396446 241.031513 
L 861.647523 241.897341 
L 861.898599 240.352984 
L 862.149676 241.779575 
L 862.400752 240.768934 
L 862.651828 241.909523 
L 862.902905 241.530226 
L 863.907211 241.11484 
L 864.158287 240.790975 
L 864.409364 242.014197 
L 864.66044 242.023136 
L 864.911517 240.728274 
L 865.162593 241.798681 
L 865.41367 241.81779 
L 865.915823 240.961128 
L 866.166899 239.58874 
L 866.417976 241.213017 
L 866.669052 241.22633 
L 866.920129 238.583058 
L 867.171205 240.42202 
L 867.422282 241.276071 
L 867.673358 240.583931 
L 867.924434 240.681852 
L 868.175511 241.312217 
L 868.426587 240.041061 
L 868.677664 241.165465 
L 868.92874 241.104671 
L 869.179817 241.624943 
L 869.430893 241.826186 
L 869.68197 240.007637 
L 869.933046 239.192859 
L 870.435199 241.412906 
L 870.686276 241.076736 
L 870.937352 240.517759 
L 871.188429 240.767133 
L 871.439505 241.70191 
L 871.690582 240.985395 
L 871.941658 241.903632 
L 872.192735 241.979053 
L 872.694888 241.437306 
L 872.945964 241.886832 
L 873.19704 241.423259 
L 873.448117 241.716348 
L 873.699193 241.579203 
L 873.95027 241.753161 
L 874.452423 241.47821 
L 874.703499 241.379411 
L 874.954576 241.895027 
L 875.205652 241.583302 
L 875.456729 241.841923 
L 875.707805 240.362565 
L 875.958882 241.905752 
L 876.209958 241.449851 
L 876.461035 240.640001 
L 876.712111 240.819988 
L 876.963188 241.943434 
L 877.214264 241.338098 
L 877.465341 239.867684 
L 877.716417 241.707041 
L 877.967493 240.637249 
L 878.21857 240.062479 
L 878.469646 240.01996 
L 878.720723 241.09632 
L 878.971799 240.803146 
L 879.222876 241.215279 
L 879.473952 240.247943 
L 879.725029 240.901224 
L 879.976105 239.311567 
L 880.227182 240.425788 
L 880.729335 240.808259 
L 880.980411 240.861669 
L 881.231488 238.283252 
L 881.482564 240.158194 
L 881.984717 240.971938 
L 882.235794 240.270742 
L 882.48687 241.373318 
L 882.737947 241.178749 
L 882.989023 241.283932 
L 883.240099 241.744895 
L 883.491176 239.177413 
L 883.742252 241.570418 
L 883.993329 241.934206 
L 884.244405 241.661029 
L 884.495482 241.552768 
L 884.746558 240.907391 
L 884.997635 241.770729 
L 885.248711 241.237219 
L 885.499788 241.574056 
L 885.750864 240.539811 
L 886.001941 241.839313 
L 886.253017 241.880176 
L 886.504094 240.918034 
L 886.75517 241.507013 
L 887.257323 238.861087 
L 887.5084 241.88767 
L 888.010552 241.531078 
L 888.261629 241.609869 
L 888.763782 241.410635 
L 889.014858 239.868087 
L 889.265935 241.605896 
L 889.517011 241.910831 
L 889.768088 241.471223 
L 890.019164 241.908805 
L 890.270241 240.582961 
L 890.521317 241.194352 
L 890.772394 240.494894 
L 891.02347 241.008607 
L 891.274547 240.099293 
L 891.525623 238.59553 
L 892.027776 241.672808 
L 892.278853 239.821311 
L 892.529929 241.149376 
L 892.781006 238.822498 
L 893.032082 240.54178 
L 893.283158 239.80739 
L 893.534235 240.821803 
L 893.785311 239.857356 
L 894.287464 240.995782 
L 894.538541 240.347846 
L 894.789617 240.130101 
L 895.29177 241.280657 
L 895.542847 240.619169 
L 895.793923 241.269185 
L 896.296076 241.859459 
L 896.547153 241.461568 
L 897.049306 240.103382 
L 897.300382 240.464409 
L 897.551459 238.923736 
L 897.802535 240.561707 
L 898.053611 239.864565 
L 898.304688 241.463063 
L 898.555764 241.816593 
L 898.806841 241.216979 
L 899.057917 241.549653 
L 899.308994 241.092005 
L 899.56007 241.756922 
L 899.811147 240.626706 
L 900.062223 241.554357 
L 900.3133 241.370258 
L 900.564376 240.759293 
L 900.815453 240.627692 
L 901.066529 241.527737 
L 901.317606 239.899413 
L 901.568682 241.448431 
L 901.819759 241.698397 
L 902.070835 241.456472 
L 902.321912 238.666726 
L 902.572988 241.834162 
L 902.824065 240.6778 
L 903.326217 240.812211 
L 903.577294 241.579519 
L 903.82837 239.50663 
L 904.079447 240.633523 
L 904.330523 240.815104 
L 904.5816 240.490344 
L 904.832676 240.67085 
L 905.083753 241.281496 
L 905.334829 240.957897 
L 905.585906 241.600578 
L 905.836982 241.707363 
L 906.088059 240.737525 
L 906.590212 240.686951 
L 906.841288 240.125918 
L 907.092365 240.727791 
L 907.594518 241.319795 
L 907.845594 240.825209 
L 908.096671 240.05497 
L 908.347747 241.655608 
L 908.8499 240.491031 
L 909.100976 240.183434 
L 909.603129 241.673632 
L 910.105282 241.884496 
L 910.356359 241.679414 
L 910.607435 241.92504 
L 910.858512 241.127184 
L 911.109588 242.015851 
L 911.360665 240.804911 
L 911.611741 241.982479 
L 911.862818 241.207767 
L 912.113894 241.500578 
L 912.364971 241.427359 
L 912.616047 241.063095 
L 912.867124 241.806709 
L 913.1182 241.679335 
L 913.620353 240.751301 
L 913.871429 241.535563 
L 914.122506 241.561501 
L 914.373582 241.799818 
L 914.624659 240.920405 
L 914.875735 241.894185 
L 915.126812 241.354105 
L 915.377888 241.975862 
L 915.628965 241.853275 
L 915.880041 240.826854 
L 916.131118 240.672368 
L 916.382194 241.432666 
L 916.633271 241.076198 
L 916.884347 241.628685 
L 917.135424 241.686917 
L 917.3865 240.647408 
L 917.637577 241.225181 
L 917.888653 240.695331 
L 918.13973 241.91579 
L 918.390806 241.042366 
L 918.641882 241.580658 
L 918.892959 240.597924 
L 919.144035 241.576148 
L 919.395112 241.823597 
L 919.646188 240.008481 
L 919.897265 241.152262 
L 920.148341 241.345026 
L 920.399418 241.947149 
L 920.650494 241.48961 
L 920.901571 241.804539 
L 921.152647 241.910396 
L 921.403724 241.321646 
L 921.6548 241.577217 
L 921.905877 241.223787 
L 922.156953 241.869464 
L 922.40803 241.02331 
L 922.910183 241.864803 
L 923.161259 241.072247 
L 923.412335 240.665869 
L 923.663412 241.914706 
L 923.914488 241.824668 
L 924.165565 241.602234 
L 924.416641 241.063856 
L 924.667718 241.845401 
L 924.918794 241.379123 
L 925.169871 241.683978 
L 925.420947 240.483684 
L 925.672024 241.773422 
L 925.9231 242.016142 
L 926.425253 241.582669 
L 926.67633 241.947831 
L 926.927406 239.87944 
L 927.178483 241.069411 
L 927.680636 242.007156 
L 927.931712 240.221009 
L 928.182789 241.721439 
L 928.433865 241.381954 
L 928.684941 241.7084 
L 928.936018 241.77745 
L 929.187094 241.208153 
L 929.438171 241.385178 
L 929.689247 241.957351 
L 929.940324 240.880804 
L 930.1914 241.178269 
L 930.442477 241.892798 
L 930.693553 241.92714 
L 930.94463 241.198761 
L 931.195706 241.367258 
L 931.446783 241.825621 
L 931.697859 240.777263 
L 931.948936 241.983247 
L 932.451089 242.019852 
L 933.204318 241.353965 
L 933.455395 241.8249 
L 933.706471 241.939593 
L 933.957547 240.925947 
L 934.208624 239.364956 
L 934.4597 241.222324 
L 934.710777 241.957772 
L 934.961853 240.933876 
L 935.21293 241.832387 
L 935.464006 241.647597 
L 935.715083 240.776699 
L 935.966159 241.84353 
L 936.217236 241.924904 
L 936.468312 241.488448 
L 936.719389 241.972261 
L 936.970465 241.903861 
L 937.221542 241.216616 
L 937.472618 241.42592 
L 937.723695 241.010988 
L 937.974771 241.951664 
L 938.225848 241.734129 
L 938.476924 241.914369 
L 938.728 241.77908 
L 938.979077 241.873907 
L 939.230153 240.982165 
L 939.48123 242.032944 
L 939.732306 240.949798 
L 940.234459 242.095345 
L 940.485536 241.035639 
L 940.987689 241.677893 
L 941.238765 241.829382 
L 941.489842 241.611287 
L 941.740918 241.726979 
L 941.991995 241.552273 
L 942.243071 241.993302 
L 942.494148 241.618749 
L 942.745224 242.066527 
L 942.996301 241.029672 
L 943.498454 241.69131 
L 944.251683 241.92075 
L 944.502759 241.810666 
L 945.004912 241.14743 
L 945.255989 241.963647 
L 945.507065 242.067627 
L 945.758142 241.7578 
L 946.260295 241.846182 
L 946.511371 242.107026 
L 946.762448 241.969405 
L 947.013524 240.88151 
L 947.264601 241.05907 
L 947.515677 241.747122 
L 948.01783 241.990183 
L 948.268907 241.793789 
L 948.519983 241.78319 
L 949.022136 242.059464 
L 949.524289 241.832019 
L 949.775365 241.328442 
L 950.026442 241.479625 
L 950.277518 241.222508 
L 950.528595 241.771778 
L 951.030748 241.763857 
L 951.281824 242.066165 
L 951.532901 241.975564 
L 951.783977 241.048685 
L 952.035054 241.97327 
L 952.28613 241.386597 
L 952.537207 241.686887 
L 953.541513 241.688715 
L 953.792589 241.329192 
L 954.294742 241.749648 
L 954.545818 241.283403 
L 954.796895 241.86575 
L 955.299048 241.106057 
L 955.550124 241.864828 
L 955.801201 241.944452 
L 956.052277 241.824011 
L 956.303354 241.852098 
L 956.55443 242.034919 
L 956.805507 241.915183 
L 957.056583 241.964054 
L 957.30766 241.754059 
L 957.558736 241.718021 
L 957.809813 241.997273 
L 958.563042 241.85499 
L 958.814119 241.949041 
L 959.065195 241.723946 
L 959.316271 240.926733 
L 959.567348 241.68001 
L 959.818424 241.619967 
L 960.069501 241.6918 
L 960.320577 241.97304 
L 960.571654 241.730533 
L 960.82273 241.964091 
L 961.073807 241.840646 
L 961.324883 241.501046 
L 961.57596 241.885902 
L 962.078113 241.383932 
L 962.329189 242.046668 
L 962.580266 241.680564 
L 962.831342 242.036889 
L 963.333495 240.893405 
L 964.086724 241.790462 
L 964.588877 241.907548 
L 964.839954 241.001155 
L 965.09103 241.845424 
L 965.342107 241.982356 
L 965.84426 241.787295 
L 966.095336 242.037484 
L 966.346413 242.080364 
L 966.848566 241.659993 
L 967.099642 241.333383 
L 967.350719 241.318837 
L 967.601795 241.856323 
L 968.103948 241.899339 
L 968.355025 241.503067 
L 968.606101 241.925076 
L 968.857178 241.515665 
L 969.108254 241.487739 
L 969.35933 242.026452 
L 969.861483 241.182597 
L 970.11256 241.78633 
L 970.363636 241.948091 
L 970.363636 241.948091 
" style="fill:none;stroke:#1f77b4;stroke-linecap:square;stroke-width:1.5;"/>
   </g>
   <g id="patch_3">
    <path d="M 180 252 
L 180 34.56 
" style="fill:none;stroke:#000000;stroke-linecap:square;stroke-linejoin:miter;stroke-width:0.8;"/>
   </g>
   <g id="patch_4">
    <path d="M 1008 252 
L 1008 34.56 
" style="fill:none;stroke:#000000;stroke-linecap:square;stroke-linejoin:miter;stroke-width:0.8;"/>
   </g>
   <g id="patch_5">
    <path d="M 180 252 
L 1008 252 
" style="fill:none;stroke:#000000;stroke-linecap:square;stroke-linejoin:miter;stroke-width:0.8;"/>
   </g>
   <g id="patch_6">
    <path d="M 180 34.56 
L 1008 34.56 
" style="fill:none;stroke:#000000;stroke-linecap:square;stroke-linejoin:miter;stroke-width:0.8;"/>
   </g>
   <g id="legend_1">
    <g id="PathCollection_2">
     <g>
      <use style="fill:#ff0000;stroke:#ff0000;" x="1085.8" xlink:href="#m735795fd33" y="56.745312"/>
     </g>
    </g>
    <g id="text_9">
     <!-- &gt; mean + 3SD -->
     <defs>
      <path d="M 52.875 31.296875 
L 5.46875 11.03125 
L 5.46875 19.78125 
L 43.015625 35.359375 
L 5.46875 50.78125 
L 5.46875 59.515625 
L 52.875 39.5 
z
" id="ArialMT-62"/>
      <path d="M 25.046875 11.578125 
L 25.046875 31.203125 
L 5.5625 31.203125 
L 5.5625 39.40625 
L 25.046875 39.40625 
L 25.046875 58.890625 
L 33.34375 58.890625 
L 33.34375 39.40625 
L 52.828125 39.40625 
L 52.828125 31.203125 
L 33.34375 31.203125 
L 33.34375 11.578125 
z
" id="ArialMT-43"/>
      <path d="M 4.5 23 
L 13.421875 23.78125 
Q 14.0625 18.40625 16.375 14.96875 
Q 18.703125 11.53125 23.578125 9.40625 
Q 28.46875 7.28125 34.578125 7.28125 
Q 39.984375 7.28125 44.140625 8.890625 
Q 48.296875 10.5 50.3125 13.296875 
Q 52.34375 16.109375 52.34375 19.4375 
Q 52.34375 22.796875 50.390625 25.3125 
Q 48.4375 27.828125 43.953125 29.546875 
Q 41.0625 30.671875 31.203125 33.03125 
Q 21.34375 35.40625 17.390625 37.5 
Q 12.25 40.1875 9.734375 44.15625 
Q 7.234375 48.140625 7.234375 53.078125 
Q 7.234375 58.5 10.296875 63.203125 
Q 13.375 67.921875 19.28125 70.359375 
Q 25.203125 72.796875 32.421875 72.796875 
Q 40.375 72.796875 46.453125 70.234375 
Q 52.546875 67.671875 55.8125 62.6875 
Q 59.078125 57.71875 59.328125 51.421875 
L 50.25 50.734375 
Q 49.515625 57.515625 45.28125 60.984375 
Q 41.0625 64.453125 32.8125 64.453125 
Q 24.21875 64.453125 20.28125 61.296875 
Q 16.359375 58.15625 16.359375 53.71875 
Q 16.359375 49.859375 19.140625 47.359375 
Q 21.875 44.875 33.421875 42.265625 
Q 44.96875 39.65625 49.265625 37.703125 
Q 55.515625 34.8125 58.484375 30.390625 
Q 61.46875 25.984375 61.46875 20.21875 
Q 61.46875 14.5 58.203125 9.4375 
Q 54.9375 4.390625 48.796875 1.578125 
Q 42.671875 -1.21875 35.015625 -1.21875 
Q 25.296875 -1.21875 18.71875 1.609375 
Q 12.15625 4.4375 8.421875 10.125 
Q 4.6875 15.828125 4.5 23 
z
" id="ArialMT-83"/>
      <path d="M 7.71875 0 
L 7.71875 71.578125 
L 32.375 71.578125 
Q 40.71875 71.578125 45.125 70.5625 
Q 51.265625 69.140625 55.609375 65.4375 
Q 61.28125 60.640625 64.078125 53.1875 
Q 66.890625 45.75 66.890625 36.1875 
Q 66.890625 28.03125 64.984375 21.734375 
Q 63.09375 15.4375 60.109375 11.296875 
Q 57.125 7.171875 53.578125 4.796875 
Q 50.046875 2.4375 45.046875 1.21875 
Q 40.046875 0 33.546875 0 
z
M 17.1875 8.453125 
L 32.46875 8.453125 
Q 39.546875 8.453125 43.578125 9.765625 
Q 47.609375 11.078125 50 13.484375 
Q 53.375 16.84375 55.25 22.53125 
Q 57.125 28.21875 57.125 36.328125 
Q 57.125 47.5625 53.4375 53.59375 
Q 49.75 59.625 44.484375 61.671875 
Q 40.671875 63.140625 32.234375 63.140625 
L 17.1875 63.140625 
z
" id="ArialMT-68"/>
     </defs>
     <g transform="translate(1132.6 63.570312)scale(0.26 -0.26)">
      <use xlink:href="#ArialMT-62"/>
      <use x="58.398438" xlink:href="#ArialMT-32"/>
      <use x="86.181641" xlink:href="#ArialMT-109"/>
      <use x="169.482422" xlink:href="#ArialMT-101"/>
      <use x="225.097656" xlink:href="#ArialMT-97"/>
      <use x="280.712891" xlink:href="#ArialMT-110"/>
      <use x="336.328125" xlink:href="#ArialMT-32"/>
      <use x="364.111328" xlink:href="#ArialMT-43"/>
      <use x="422.509766" xlink:href="#ArialMT-32"/>
      <use x="450.292969" xlink:href="#ArialMT-51"/>
      <use x="505.908203" xlink:href="#ArialMT-83"/>
      <use x="572.607422" xlink:href="#ArialMT-68"/>
     </g>
    </g>
   </g>
  </g>
 </g>
 <defs>
  <clipPath id="p50c8f3a51f">
   <rect height="217.44" width="828" x="180" y="34.56"/>
  </clipPath>
 </defs>
</svg>
