<?xml version="1.0" encoding="utf-8" standalone="no"?>
<!DOCTYPE svg PUBLIC "-//W3C//DTD SVG 1.1//EN"
  "http://www.w3.org/Graphics/SVG/1.1/DTD/svg11.dtd">
<!-- Created with matplotlib (https://matplotlib.org/) -->
<svg height="307.079063pt" version="1.1" viewBox="0 0 956.741 307.079063" width="956.741pt" xmlns="http://www.w3.org/2000/svg" xmlns:xlink="http://www.w3.org/1999/xlink">
 <defs>
  <style type="text/css">
*{stroke-linecap:butt;stroke-linejoin:round;}
  </style>
 </defs>
 <g id="figure_1">
  <g id="patch_1">
   <path d="M 0 307.079063 
L 956.741 307.079063 
L 956.741 0 
L 0 0 
z
" style="fill:#ffffff;"/>
  </g>
  <g id="axes_1">
   <g id="patch_2">
    <path d="M 121.541 237.324063 
L 949.541 237.324063 
L 949.541 19.884063 
L 121.541 19.884063 
z
" style="fill:#ffffff;"/>
   </g>
   <g id="PathCollection_1">
    <defs>
     <path d="M 0 3 
C 0.795609 3 1.55874 2.683901 2.12132 2.12132 
C 2.683901 1.55874 3 0.795609 3 0 
C 3 -0.795609 2.683901 -1.55874 2.12132 -2.12132 
C 1.55874 -2.683901 0.795609 -3 0 -3 
C -0.795609 -3 -1.55874 -2.683901 -2.12132 -2.12132 
C -2.683901 -1.55874 -3 -0.795609 -3 0 
C -3 0.795609 -2.683901 1.55874 -2.12132 2.12132 
C -1.55874 2.683901 -0.795609 3 0 3 
z
" id="mcc21a0d391" style="stroke:#ff0000;"/>
    </defs>
    <g clip-path="url(#p26955105d5)">
     <use style="fill:#ff0000;stroke:#ff0000;" x="159.177364" xlink:href="#mcc21a0d391" y="29.767699"/>
     <use style="fill:#ff0000;stroke:#ff0000;" x="160.18167" xlink:href="#mcc21a0d391" y="203.240204"/>
     <use style="fill:#ff0000;stroke:#ff0000;" x="160.432746" xlink:href="#mcc21a0d391" y="205.902119"/>
     <use style="fill:#ff0000;stroke:#ff0000;" x="160.683822" xlink:href="#mcc21a0d391" y="205.57432"/>
     <use style="fill:#ff0000;stroke:#ff0000;" x="160.934899" xlink:href="#mcc21a0d391" y="210.47558"/>
     <use style="fill:#ff0000;stroke:#ff0000;" x="410.002762" xlink:href="#mcc21a0d391" y="212.757639"/>
     <use style="fill:#ff0000;stroke:#ff0000;" x="410.253839" xlink:href="#mcc21a0d391" y="212.771795"/>
     <use style="fill:#ff0000;stroke:#ff0000;" x="410.504915" xlink:href="#mcc21a0d391" y="213.394564"/>
    </g>
   </g>
   <g id="matplotlib.axis_1">
    <g id="xtick_1">
     <g id="line2d_1">
      <path clip-path="url(#p26955105d5)" d="M 159.177364 237.324063 
L 159.177364 19.884063 
" style="fill:none;stroke:#b0b0b0;stroke-linecap:square;stroke-width:0.8;"/>
     </g>
     <g id="line2d_2">
      <defs>
       <path d="M 0 0 
L 0 3.5 
" id="m42bace6c86" style="stroke:#000000;stroke-width:0.8;"/>
      </defs>
      <g>
       <use style="stroke:#000000;stroke-width:0.8;" x="159.177364" xlink:href="#m42bace6c86" y="237.324063"/>
      </g>
     </g>
     <g id="text_1">
      <!-- 0 -->
      <defs>
       <path d="M 4.15625 35.296875 
Q 4.15625 48 6.765625 55.734375 
Q 9.375 63.484375 14.515625 67.671875 
Q 19.671875 71.875 27.484375 71.875 
Q 33.25 71.875 37.59375 69.546875 
Q 41.9375 67.234375 44.765625 62.859375 
Q 47.609375 58.5 49.21875 52.21875 
Q 50.828125 45.953125 50.828125 35.296875 
Q 50.828125 22.703125 48.234375 14.96875 
Q 45.65625 7.234375 40.5 3 
Q 35.359375 -1.21875 27.484375 -1.21875 
Q 17.140625 -1.21875 11.234375 6.203125 
Q 4.15625 15.140625 4.15625 35.296875 
z
M 13.1875 35.296875 
Q 13.1875 17.671875 17.3125 11.828125 
Q 21.4375 6 27.484375 6 
Q 33.546875 6 37.671875 11.859375 
Q 41.796875 17.71875 41.796875 35.296875 
Q 41.796875 52.984375 37.671875 58.78125 
Q 33.546875 64.59375 27.390625 64.59375 
Q 21.34375 64.59375 17.71875 59.46875 
Q 13.1875 52.9375 13.1875 35.296875 
z
" id="ArialMT-48"/>
      </defs>
      <g transform="translate(151.392051 264.365938)scale(0.28 -0.28)">
       <use xlink:href="#ArialMT-48"/>
      </g>
     </g>
    </g>
    <g id="xtick_2">
     <g id="line2d_3">
      <path clip-path="url(#p26955105d5)" d="M 410.253839 237.324063 
L 410.253839 19.884063 
" style="fill:none;stroke:#b0b0b0;stroke-linecap:square;stroke-width:0.8;"/>
     </g>
     <g id="line2d_4">
      <g>
       <use style="stroke:#000000;stroke-width:0.8;" x="410.253839" xlink:href="#m42bace6c86" y="237.324063"/>
      </g>
     </g>
     <g id="text_2">
      <!-- 1000 -->
      <defs>
       <path d="M 37.25 0 
L 28.46875 0 
L 28.46875 56 
Q 25.296875 52.984375 20.140625 49.953125 
Q 14.984375 46.921875 10.890625 45.40625 
L 10.890625 53.90625 
Q 18.265625 57.375 23.78125 62.296875 
Q 29.296875 67.234375 31.59375 71.875 
L 37.25 71.875 
z
" id="ArialMT-49"/>
      </defs>
      <g transform="translate(379.112589 264.365938)scale(0.28 -0.28)">
       <use xlink:href="#ArialMT-49"/>
       <use x="55.615234" xlink:href="#ArialMT-48"/>
       <use x="111.230469" xlink:href="#ArialMT-48"/>
       <use x="166.845703" xlink:href="#ArialMT-48"/>
      </g>
     </g>
    </g>
    <g id="xtick_3">
     <g id="line2d_5">
      <path clip-path="url(#p26955105d5)" d="M 661.330314 237.324063 
L 661.330314 19.884063 
" style="fill:none;stroke:#b0b0b0;stroke-linecap:square;stroke-width:0.8;"/>
     </g>
     <g id="line2d_6">
      <g>
       <use style="stroke:#000000;stroke-width:0.8;" x="661.330314" xlink:href="#m42bace6c86" y="237.324063"/>
      </g>
     </g>
     <g id="text_3">
      <!-- 2000 -->
      <defs>
       <path d="M 50.34375 8.453125 
L 50.34375 0 
L 3.03125 0 
Q 2.9375 3.171875 4.046875 6.109375 
Q 5.859375 10.9375 9.828125 15.625 
Q 13.8125 20.3125 21.34375 26.46875 
Q 33.015625 36.03125 37.109375 41.625 
Q 41.21875 47.21875 41.21875 52.203125 
Q 41.21875 57.421875 37.46875 61 
Q 33.734375 64.59375 27.734375 64.59375 
Q 21.390625 64.59375 17.578125 60.78125 
Q 13.765625 56.984375 13.71875 50.25 
L 4.6875 51.171875 
Q 5.609375 61.28125 11.65625 66.578125 
Q 17.71875 71.875 27.9375 71.875 
Q 38.234375 71.875 44.234375 66.15625 
Q 50.25 60.453125 50.25 52 
Q 50.25 47.703125 48.484375 43.546875 
Q 46.734375 39.40625 42.65625 34.8125 
Q 38.578125 30.21875 29.109375 22.21875 
Q 21.1875 15.578125 18.9375 13.203125 
Q 16.703125 10.84375 15.234375 8.453125 
z
" id="ArialMT-50"/>
      </defs>
      <g transform="translate(630.189064 264.365938)scale(0.28 -0.28)">
       <use xlink:href="#ArialMT-50"/>
       <use x="55.615234" xlink:href="#ArialMT-48"/>
       <use x="111.230469" xlink:href="#ArialMT-48"/>
       <use x="166.845703" xlink:href="#ArialMT-48"/>
      </g>
     </g>
    </g>
    <g id="xtick_4">
     <g id="line2d_7">
      <path clip-path="url(#p26955105d5)" d="M 912.406789 237.324063 
L 912.406789 19.884063 
" style="fill:none;stroke:#b0b0b0;stroke-linecap:square;stroke-width:0.8;"/>
     </g>
     <g id="line2d_8">
      <g>
       <use style="stroke:#000000;stroke-width:0.8;" x="912.406789" xlink:href="#m42bace6c86" y="237.324063"/>
      </g>
     </g>
     <g id="text_4">
      <!-- 3000 -->
      <defs>
       <path d="M 4.203125 18.890625 
L 12.984375 20.0625 
Q 14.5 12.59375 18.140625 9.296875 
Q 21.78125 6 27 6 
Q 33.203125 6 37.46875 10.296875 
Q 41.75 14.59375 41.75 20.953125 
Q 41.75 27 37.796875 30.921875 
Q 33.84375 34.859375 27.734375 34.859375 
Q 25.25 34.859375 21.53125 33.890625 
L 22.515625 41.609375 
Q 23.390625 41.5 23.921875 41.5 
Q 29.546875 41.5 34.03125 44.421875 
Q 38.53125 47.359375 38.53125 53.46875 
Q 38.53125 58.296875 35.25 61.46875 
Q 31.984375 64.65625 26.8125 64.65625 
Q 21.6875 64.65625 18.265625 61.421875 
Q 14.84375 58.203125 13.875 51.765625 
L 5.078125 53.328125 
Q 6.6875 62.15625 12.390625 67.015625 
Q 18.109375 71.875 26.609375 71.875 
Q 32.46875 71.875 37.390625 69.359375 
Q 42.328125 66.84375 44.9375 62.5 
Q 47.5625 58.15625 47.5625 53.265625 
Q 47.5625 48.640625 45.0625 44.828125 
Q 42.578125 41.015625 37.703125 38.765625 
Q 44.046875 37.3125 47.5625 32.6875 
Q 51.078125 28.078125 51.078125 21.140625 
Q 51.078125 11.765625 44.234375 5.25 
Q 37.40625 -1.265625 26.953125 -1.265625 
Q 17.53125 -1.265625 11.296875 4.34375 
Q 5.078125 9.96875 4.203125 18.890625 
z
" id="ArialMT-51"/>
      </defs>
      <g transform="translate(881.265539 264.365938)scale(0.28 -0.28)">
       <use xlink:href="#ArialMT-51"/>
       <use x="55.615234" xlink:href="#ArialMT-48"/>
       <use x="111.230469" xlink:href="#ArialMT-48"/>
       <use x="166.845703" xlink:href="#ArialMT-48"/>
      </g>
     </g>
    </g>
    <g id="text_5">
     <!-- # sample -->
     <defs>
      <path d="M 5.03125 -1.21875 
L 9.28125 19.578125 
L 1.03125 19.578125 
L 1.03125 26.859375 
L 10.75 26.859375 
L 14.359375 44.578125 
L 1.03125 44.578125 
L 1.03125 51.859375 
L 15.828125 51.859375 
L 20.0625 72.796875 
L 27.390625 72.796875 
L 23.140625 51.859375 
L 38.53125 51.859375 
L 42.78125 72.796875 
L 50.140625 72.796875 
L 45.90625 51.859375 
L 54.34375 51.859375 
L 54.34375 44.578125 
L 44.4375 44.578125 
L 40.765625 26.859375 
L 54.34375 26.859375 
L 54.34375 19.578125 
L 39.3125 19.578125 
L 35.0625 -1.21875 
L 27.734375 -1.21875 
L 31.9375 19.578125 
L 16.609375 19.578125 
L 12.359375 -1.21875 
z
M 18.0625 26.859375 
L 33.40625 26.859375 
L 37.0625 44.578125 
L 21.6875 44.578125 
z
" id="ArialMT-35"/>
      <path id="ArialMT-32"/>
      <path d="M 3.078125 15.484375 
L 11.765625 16.84375 
Q 12.5 11.625 15.84375 8.84375 
Q 19.1875 6.0625 25.203125 6.0625 
Q 31.25 6.0625 34.171875 8.515625 
Q 37.109375 10.984375 37.109375 14.3125 
Q 37.109375 17.28125 34.515625 19 
Q 32.71875 20.171875 25.53125 21.96875 
Q 15.875 24.421875 12.140625 26.203125 
Q 8.40625 27.984375 6.46875 31.125 
Q 4.546875 34.28125 4.546875 38.09375 
Q 4.546875 41.546875 6.125 44.5 
Q 7.71875 47.46875 10.453125 49.421875 
Q 12.5 50.921875 16.03125 51.96875 
Q 19.578125 53.03125 23.640625 53.03125 
Q 29.734375 53.03125 34.34375 51.265625 
Q 38.96875 49.515625 41.15625 46.5 
Q 43.359375 43.5 44.1875 38.484375 
L 35.59375 37.3125 
Q 35.015625 41.3125 32.203125 43.546875 
Q 29.390625 45.796875 24.265625 45.796875 
Q 18.21875 45.796875 15.625 43.796875 
Q 13.03125 41.796875 13.03125 39.109375 
Q 13.03125 37.40625 14.109375 36.03125 
Q 15.1875 34.625 17.484375 33.6875 
Q 18.796875 33.203125 25.25 31.453125 
Q 34.578125 28.953125 38.25 27.359375 
Q 41.9375 25.78125 44.03125 22.75 
Q 46.140625 19.734375 46.140625 15.234375 
Q 46.140625 10.84375 43.578125 6.953125 
Q 41.015625 3.078125 36.171875 0.953125 
Q 31.34375 -1.171875 25.25 -1.171875 
Q 15.140625 -1.171875 9.84375 3.03125 
Q 4.546875 7.234375 3.078125 15.484375 
z
" id="ArialMT-115"/>
      <path d="M 40.4375 6.390625 
Q 35.546875 2.25 31.03125 0.53125 
Q 26.515625 -1.171875 21.34375 -1.171875 
Q 12.796875 -1.171875 8.203125 3 
Q 3.609375 7.171875 3.609375 13.671875 
Q 3.609375 17.484375 5.34375 20.625 
Q 7.078125 23.78125 9.890625 25.6875 
Q 12.703125 27.59375 16.21875 28.5625 
Q 18.796875 29.25 24.03125 29.890625 
Q 34.671875 31.15625 39.703125 32.90625 
Q 39.75 34.71875 39.75 35.203125 
Q 39.75 40.578125 37.25 42.78125 
Q 33.890625 45.75 27.25 45.75 
Q 21.046875 45.75 18.09375 43.578125 
Q 15.140625 41.40625 13.71875 35.890625 
L 5.125 37.0625 
Q 6.296875 42.578125 8.984375 45.96875 
Q 11.671875 49.359375 16.75 51.1875 
Q 21.828125 53.03125 28.515625 53.03125 
Q 35.15625 53.03125 39.296875 51.46875 
Q 43.453125 49.90625 45.40625 47.53125 
Q 47.359375 45.171875 48.140625 41.546875 
Q 48.578125 39.3125 48.578125 33.453125 
L 48.578125 21.734375 
Q 48.578125 9.46875 49.140625 6.21875 
Q 49.703125 2.984375 51.375 0 
L 42.1875 0 
Q 40.828125 2.734375 40.4375 6.390625 
z
M 39.703125 26.03125 
Q 34.90625 24.078125 25.34375 22.703125 
Q 19.921875 21.921875 17.671875 20.9375 
Q 15.4375 19.96875 14.203125 18.09375 
Q 12.984375 16.21875 12.984375 13.921875 
Q 12.984375 10.40625 15.640625 8.0625 
Q 18.3125 5.71875 23.4375 5.71875 
Q 28.515625 5.71875 32.46875 7.9375 
Q 36.421875 10.15625 38.28125 14.015625 
Q 39.703125 17 39.703125 22.796875 
z
" id="ArialMT-97"/>
      <path d="M 6.59375 0 
L 6.59375 51.859375 
L 14.453125 51.859375 
L 14.453125 44.578125 
Q 16.890625 48.390625 20.9375 50.703125 
Q 25 53.03125 30.171875 53.03125 
Q 35.9375 53.03125 39.625 50.640625 
Q 43.3125 48.25 44.828125 43.953125 
Q 50.984375 53.03125 60.84375 53.03125 
Q 68.5625 53.03125 72.703125 48.75 
Q 76.859375 44.484375 76.859375 35.59375 
L 76.859375 0 
L 68.109375 0 
L 68.109375 32.671875 
Q 68.109375 37.9375 67.25 40.25 
Q 66.40625 42.578125 64.15625 43.984375 
Q 61.921875 45.40625 58.890625 45.40625 
Q 53.421875 45.40625 49.796875 41.765625 
Q 46.1875 38.140625 46.1875 30.125 
L 46.1875 0 
L 37.40625 0 
L 37.40625 33.6875 
Q 37.40625 39.546875 35.25 42.46875 
Q 33.109375 45.40625 28.21875 45.40625 
Q 24.515625 45.40625 21.359375 43.453125 
Q 18.21875 41.5 16.796875 37.734375 
Q 15.375 33.984375 15.375 26.90625 
L 15.375 0 
z
" id="ArialMT-109"/>
      <path d="M 6.59375 -19.875 
L 6.59375 51.859375 
L 14.59375 51.859375 
L 14.59375 45.125 
Q 17.4375 49.078125 21 51.046875 
Q 24.5625 53.03125 29.640625 53.03125 
Q 36.28125 53.03125 41.359375 49.609375 
Q 46.4375 46.1875 49.015625 39.953125 
Q 51.609375 33.734375 51.609375 26.3125 
Q 51.609375 18.359375 48.75 11.984375 
Q 45.90625 5.609375 40.453125 2.21875 
Q 35.015625 -1.171875 29 -1.171875 
Q 24.609375 -1.171875 21.109375 0.6875 
Q 17.625 2.546875 15.375 5.375 
L 15.375 -19.875 
z
M 14.546875 25.640625 
Q 14.546875 15.625 18.59375 10.84375 
Q 22.65625 6.0625 28.421875 6.0625 
Q 34.28125 6.0625 38.453125 11.015625 
Q 42.625 15.96875 42.625 26.375 
Q 42.625 36.28125 38.546875 41.203125 
Q 34.46875 46.140625 28.8125 46.140625 
Q 23.1875 46.140625 18.859375 40.890625 
Q 14.546875 35.640625 14.546875 25.640625 
z
" id="ArialMT-112"/>
      <path d="M 6.390625 0 
L 6.390625 71.578125 
L 15.1875 71.578125 
L 15.1875 0 
z
" id="ArialMT-108"/>
      <path d="M 42.09375 16.703125 
L 51.171875 15.578125 
Q 49.03125 7.625 43.21875 3.21875 
Q 37.40625 -1.171875 28.375 -1.171875 
Q 17 -1.171875 10.328125 5.828125 
Q 3.65625 12.84375 3.65625 25.484375 
Q 3.65625 38.578125 10.390625 45.796875 
Q 17.140625 53.03125 27.875 53.03125 
Q 38.28125 53.03125 44.875 45.953125 
Q 51.46875 38.875 51.46875 26.03125 
Q 51.46875 25.25 51.421875 23.6875 
L 12.75 23.6875 
Q 13.234375 15.140625 17.578125 10.59375 
Q 21.921875 6.0625 28.421875 6.0625 
Q 33.25 6.0625 36.671875 8.59375 
Q 40.09375 11.140625 42.09375 16.703125 
z
M 13.234375 30.90625 
L 42.1875 30.90625 
Q 41.609375 37.453125 38.875 40.71875 
Q 34.671875 45.796875 27.984375 45.796875 
Q 21.921875 45.796875 17.796875 41.75 
Q 13.671875 37.703125 13.234375 30.90625 
z
" id="ArialMT-101"/>
     </defs>
     <g transform="translate(478.738187 294.314063)scale(0.28 -0.28)">
      <use xlink:href="#ArialMT-35"/>
      <use x="55.615234" xlink:href="#ArialMT-32"/>
      <use x="83.398438" xlink:href="#ArialMT-115"/>
      <use x="133.398438" xlink:href="#ArialMT-97"/>
      <use x="189.013672" xlink:href="#ArialMT-109"/>
      <use x="272.314453" xlink:href="#ArialMT-112"/>
      <use x="327.929688" xlink:href="#ArialMT-108"/>
      <use x="350.146484" xlink:href="#ArialMT-101"/>
     </g>
    </g>
   </g>
   <g id="matplotlib.axis_2">
    <g id="ytick_1">
     <g id="line2d_9">
      <path clip-path="url(#p26955105d5)" d="M 121.541 227.440585 
L 949.541 227.440585 
" style="fill:none;stroke:#b0b0b0;stroke-linecap:square;stroke-width:0.8;"/>
     </g>
     <g id="line2d_10">
      <defs>
       <path d="M 0 0 
L -3.5 0 
" id="md3c28ee43d" style="stroke:#000000;stroke-width:0.8;"/>
      </defs>
      <g>
       <use style="stroke:#000000;stroke-width:0.8;" x="121.541" xlink:href="#md3c28ee43d" y="227.440585"/>
      </g>
     </g>
     <g id="text_6">
      <!-- 0 -->
      <g transform="translate(98.970375 237.461523)scale(0.28 -0.28)">
       <use xlink:href="#ArialMT-48"/>
      </g>
     </g>
    </g>
    <g id="ytick_2">
     <g id="line2d_11">
      <path clip-path="url(#p26955105d5)" d="M 121.541 122.969075 
L 949.541 122.969075 
" style="fill:none;stroke:#b0b0b0;stroke-linecap:square;stroke-width:0.8;"/>
     </g>
     <g id="line2d_12">
      <g>
       <use style="stroke:#000000;stroke-width:0.8;" x="121.541" xlink:href="#md3c28ee43d" y="122.969075"/>
      </g>
     </g>
     <g id="text_7">
      <!-- 200 -->
      <g transform="translate(67.829125 132.990013)scale(0.28 -0.28)">
       <use xlink:href="#ArialMT-50"/>
       <use x="55.615234" xlink:href="#ArialMT-48"/>
       <use x="111.230469" xlink:href="#ArialMT-48"/>
      </g>
     </g>
    </g>
    <g id="text_8">
     <!-- Change point score -->
     <defs>
      <path d="M 58.796875 25.09375 
L 68.265625 22.703125 
Q 65.28125 11.03125 57.546875 4.90625 
Q 49.8125 -1.21875 38.625 -1.21875 
Q 27.046875 -1.21875 19.796875 3.484375 
Q 12.546875 8.203125 8.765625 17.140625 
Q 4.984375 26.078125 4.984375 36.328125 
Q 4.984375 47.515625 9.25 55.828125 
Q 13.53125 64.15625 21.40625 68.46875 
Q 29.296875 72.796875 38.765625 72.796875 
Q 49.515625 72.796875 56.828125 67.328125 
Q 64.15625 61.859375 67.046875 51.953125 
L 57.71875 49.75 
Q 55.21875 57.5625 50.484375 61.125 
Q 45.75 64.703125 38.578125 64.703125 
Q 30.328125 64.703125 24.78125 60.734375 
Q 19.234375 56.78125 16.984375 50.109375 
Q 14.75 43.453125 14.75 36.375 
Q 14.75 27.25 17.40625 20.4375 
Q 20.0625 13.625 25.671875 10.25 
Q 31.296875 6.890625 37.84375 6.890625 
Q 45.796875 6.890625 51.3125 11.46875 
Q 56.84375 16.0625 58.796875 25.09375 
z
" id="ArialMT-67"/>
      <path d="M 6.59375 0 
L 6.59375 71.578125 
L 15.375 71.578125 
L 15.375 45.90625 
Q 21.53125 53.03125 30.90625 53.03125 
Q 36.671875 53.03125 40.921875 50.75 
Q 45.171875 48.484375 47 44.484375 
Q 48.828125 40.484375 48.828125 32.859375 
L 48.828125 0 
L 40.046875 0 
L 40.046875 32.859375 
Q 40.046875 39.453125 37.1875 42.453125 
Q 34.328125 45.453125 29.109375 45.453125 
Q 25.203125 45.453125 21.75 43.421875 
Q 18.3125 41.40625 16.84375 37.9375 
Q 15.375 34.46875 15.375 28.375 
L 15.375 0 
z
" id="ArialMT-104"/>
      <path d="M 6.59375 0 
L 6.59375 51.859375 
L 14.5 51.859375 
L 14.5 44.484375 
Q 20.21875 53.03125 31 53.03125 
Q 35.6875 53.03125 39.625 51.34375 
Q 43.5625 49.65625 45.515625 46.921875 
Q 47.46875 44.1875 48.25 40.4375 
Q 48.734375 37.984375 48.734375 31.890625 
L 48.734375 0 
L 39.9375 0 
L 39.9375 31.546875 
Q 39.9375 36.921875 38.90625 39.578125 
Q 37.890625 42.234375 35.28125 43.8125 
Q 32.671875 45.40625 29.15625 45.40625 
Q 23.53125 45.40625 19.453125 41.84375 
Q 15.375 38.28125 15.375 28.328125 
L 15.375 0 
z
" id="ArialMT-110"/>
      <path d="M 4.984375 -4.296875 
L 13.53125 -5.5625 
Q 14.0625 -9.515625 16.5 -11.328125 
Q 19.78125 -13.765625 25.4375 -13.765625 
Q 31.546875 -13.765625 34.859375 -11.328125 
Q 38.1875 -8.890625 39.359375 -4.5 
Q 40.046875 -1.8125 39.984375 6.78125 
Q 34.234375 0 25.640625 0 
Q 14.9375 0 9.078125 7.71875 
Q 3.21875 15.4375 3.21875 26.21875 
Q 3.21875 33.640625 5.90625 39.90625 
Q 8.59375 46.1875 13.6875 49.609375 
Q 18.796875 53.03125 25.6875 53.03125 
Q 34.859375 53.03125 40.828125 45.609375 
L 40.828125 51.859375 
L 48.921875 51.859375 
L 48.921875 7.03125 
Q 48.921875 -5.078125 46.453125 -10.125 
Q 44 -15.1875 38.640625 -18.109375 
Q 33.296875 -21.046875 25.484375 -21.046875 
Q 16.21875 -21.046875 10.5 -16.875 
Q 4.78125 -12.703125 4.984375 -4.296875 
z
M 12.25 26.859375 
Q 12.25 16.65625 16.296875 11.96875 
Q 20.359375 7.28125 26.46875 7.28125 
Q 32.515625 7.28125 36.609375 11.9375 
Q 40.71875 16.609375 40.71875 26.5625 
Q 40.71875 36.078125 36.5 40.90625 
Q 32.28125 45.75 26.3125 45.75 
Q 20.453125 45.75 16.34375 40.984375 
Q 12.25 36.234375 12.25 26.859375 
z
" id="ArialMT-103"/>
      <path d="M 3.328125 25.921875 
Q 3.328125 40.328125 11.328125 47.265625 
Q 18.015625 53.03125 27.640625 53.03125 
Q 38.328125 53.03125 45.109375 46.015625 
Q 51.90625 39.015625 51.90625 26.65625 
Q 51.90625 16.65625 48.90625 10.90625 
Q 45.90625 5.171875 40.15625 2 
Q 34.421875 -1.171875 27.640625 -1.171875 
Q 16.75 -1.171875 10.03125 5.8125 
Q 3.328125 12.796875 3.328125 25.921875 
z
M 12.359375 25.921875 
Q 12.359375 15.96875 16.703125 11.015625 
Q 21.046875 6.0625 27.640625 6.0625 
Q 34.1875 6.0625 38.53125 11.03125 
Q 42.875 16.015625 42.875 26.21875 
Q 42.875 35.84375 38.5 40.796875 
Q 34.125 45.75 27.640625 45.75 
Q 21.046875 45.75 16.703125 40.8125 
Q 12.359375 35.890625 12.359375 25.921875 
z
" id="ArialMT-111"/>
      <path d="M 6.640625 61.46875 
L 6.640625 71.578125 
L 15.4375 71.578125 
L 15.4375 61.46875 
z
M 6.640625 0 
L 6.640625 51.859375 
L 15.4375 51.859375 
L 15.4375 0 
z
" id="ArialMT-105"/>
      <path d="M 25.78125 7.859375 
L 27.046875 0.09375 
Q 23.34375 -0.6875 20.40625 -0.6875 
Q 15.625 -0.6875 12.984375 0.828125 
Q 10.359375 2.34375 9.28125 4.8125 
Q 8.203125 7.28125 8.203125 15.1875 
L 8.203125 45.015625 
L 1.765625 45.015625 
L 1.765625 51.859375 
L 8.203125 51.859375 
L 8.203125 64.703125 
L 16.9375 69.96875 
L 16.9375 51.859375 
L 25.78125 51.859375 
L 25.78125 45.015625 
L 16.9375 45.015625 
L 16.9375 14.703125 
Q 16.9375 10.9375 17.40625 9.859375 
Q 17.875 8.796875 18.921875 8.15625 
Q 19.96875 7.515625 21.921875 7.515625 
Q 23.390625 7.515625 25.78125 7.859375 
z
" id="ArialMT-116"/>
      <path d="M 40.4375 19 
L 49.078125 17.875 
Q 47.65625 8.9375 41.8125 3.875 
Q 35.984375 -1.171875 27.484375 -1.171875 
Q 16.84375 -1.171875 10.375 5.78125 
Q 3.90625 12.75 3.90625 25.734375 
Q 3.90625 34.125 6.6875 40.421875 
Q 9.46875 46.734375 15.15625 49.875 
Q 20.84375 53.03125 27.546875 53.03125 
Q 35.984375 53.03125 41.359375 48.75 
Q 46.734375 44.484375 48.25 36.625 
L 39.703125 35.296875 
Q 38.484375 40.53125 35.375 43.15625 
Q 32.28125 45.796875 27.875 45.796875 
Q 21.234375 45.796875 17.078125 41.03125 
Q 12.9375 36.28125 12.9375 25.984375 
Q 12.9375 15.53125 16.9375 10.796875 
Q 20.953125 6.0625 27.390625 6.0625 
Q 32.5625 6.0625 36.03125 9.234375 
Q 39.5 12.40625 40.4375 19 
z
" id="ArialMT-99"/>
      <path d="M 6.5 0 
L 6.5 51.859375 
L 14.40625 51.859375 
L 14.40625 44 
Q 17.4375 49.515625 20 51.265625 
Q 22.5625 53.03125 25.640625 53.03125 
Q 30.078125 53.03125 34.671875 50.203125 
L 31.640625 42.046875 
Q 28.421875 43.953125 25.203125 43.953125 
Q 22.3125 43.953125 20.015625 42.21875 
Q 17.71875 40.484375 16.75 37.40625 
Q 15.28125 32.71875 15.28125 27.15625 
L 15.28125 0 
z
" id="ArialMT-114"/>
     </defs>
     <g transform="translate(27.583125 250.008125)rotate(-90)scale(0.28 -0.28)">
      <use xlink:href="#ArialMT-67"/>
      <use x="72.216797" xlink:href="#ArialMT-104"/>
      <use x="127.832031" xlink:href="#ArialMT-97"/>
      <use x="183.447266" xlink:href="#ArialMT-110"/>
      <use x="239.0625" xlink:href="#ArialMT-103"/>
      <use x="294.677734" xlink:href="#ArialMT-101"/>
      <use x="350.292969" xlink:href="#ArialMT-32"/>
      <use x="378.076172" xlink:href="#ArialMT-112"/>
      <use x="433.691406" xlink:href="#ArialMT-111"/>
      <use x="489.306641" xlink:href="#ArialMT-105"/>
      <use x="511.523438" xlink:href="#ArialMT-110"/>
      <use x="567.138672" xlink:href="#ArialMT-116"/>
      <use x="594.921875" xlink:href="#ArialMT-32"/>
      <use x="622.705078" xlink:href="#ArialMT-115"/>
      <use x="672.705078" xlink:href="#ArialMT-99"/>
      <use x="722.705078" xlink:href="#ArialMT-111"/>
      <use x="778.320312" xlink:href="#ArialMT-114"/>
      <use x="811.621094" xlink:href="#ArialMT-101"/>
     </g>
     <!-- (KL div.) -->
     <defs>
      <path d="M 23.390625 -21.046875 
Q 16.109375 -11.859375 11.078125 0.4375 
Q 6.0625 12.75 6.0625 25.921875 
Q 6.0625 37.546875 9.8125 48.1875 
Q 14.203125 60.546875 23.390625 72.796875 
L 29.6875 72.796875 
Q 23.78125 62.640625 21.875 58.296875 
Q 18.890625 51.5625 17.1875 44.234375 
Q 15.09375 35.109375 15.09375 25.875 
Q 15.09375 2.390625 29.6875 -21.046875 
z
" id="ArialMT-40"/>
      <path d="M 7.328125 0 
L 7.328125 71.578125 
L 16.796875 71.578125 
L 16.796875 36.078125 
L 52.34375 71.578125 
L 65.1875 71.578125 
L 35.15625 42.578125 
L 66.5 0 
L 54 0 
L 28.515625 36.234375 
L 16.796875 24.8125 
L 16.796875 0 
z
" id="ArialMT-75"/>
      <path d="M 7.328125 0 
L 7.328125 71.578125 
L 16.796875 71.578125 
L 16.796875 8.453125 
L 52.046875 8.453125 
L 52.046875 0 
z
" id="ArialMT-76"/>
      <path d="M 40.234375 0 
L 40.234375 6.546875 
Q 35.296875 -1.171875 25.734375 -1.171875 
Q 19.53125 -1.171875 14.328125 2.25 
Q 9.125 5.671875 6.265625 11.796875 
Q 3.421875 17.921875 3.421875 25.875 
Q 3.421875 33.640625 6 39.96875 
Q 8.59375 46.296875 13.765625 49.65625 
Q 18.953125 53.03125 25.34375 53.03125 
Q 30.03125 53.03125 33.6875 51.046875 
Q 37.359375 49.078125 39.65625 45.90625 
L 39.65625 71.578125 
L 48.390625 71.578125 
L 48.390625 0 
z
M 12.453125 25.875 
Q 12.453125 15.921875 16.640625 10.984375 
Q 20.84375 6.0625 26.5625 6.0625 
Q 32.328125 6.0625 36.34375 10.765625 
Q 40.375 15.484375 40.375 25.140625 
Q 40.375 35.796875 36.265625 40.765625 
Q 32.171875 45.75 26.171875 45.75 
Q 20.3125 45.75 16.375 40.96875 
Q 12.453125 36.1875 12.453125 25.875 
z
" id="ArialMT-100"/>
      <path d="M 21 0 
L 1.265625 51.859375 
L 10.546875 51.859375 
L 21.6875 20.796875 
Q 23.484375 15.765625 25 10.359375 
Q 26.171875 14.453125 28.265625 20.21875 
L 39.796875 51.859375 
L 48.828125 51.859375 
L 29.203125 0 
z
" id="ArialMT-118"/>
      <path d="M 9.078125 0 
L 9.078125 10.015625 
L 19.09375 10.015625 
L 19.09375 0 
z
" id="ArialMT-46"/>
      <path d="M 12.359375 -21.046875 
L 6.0625 -21.046875 
Q 20.65625 2.390625 20.65625 25.875 
Q 20.65625 35.0625 18.5625 44.09375 
Q 16.890625 51.421875 13.921875 58.15625 
Q 12.015625 62.546875 6.0625 72.796875 
L 12.359375 72.796875 
Q 21.53125 60.546875 25.921875 48.1875 
Q 29.6875 37.546875 29.6875 25.921875 
Q 29.6875 12.75 24.625 0.4375 
Q 19.578125 -11.859375 12.359375 -21.046875 
z
" id="ArialMT-41"/>
     </defs>
     <g transform="translate(57.936 179.168125)rotate(-90)scale(0.28 -0.28)">
      <use xlink:href="#ArialMT-40"/>
      <use x="33.300781" xlink:href="#ArialMT-75"/>
      <use x="100" xlink:href="#ArialMT-76"/>
      <use x="151.865234" xlink:href="#ArialMT-32"/>
      <use x="179.648438" xlink:href="#ArialMT-100"/>
      <use x="235.263672" xlink:href="#ArialMT-105"/>
      <use x="257.480469" xlink:href="#ArialMT-118"/>
      <use x="300.105469" xlink:href="#ArialMT-46"/>
      <use x="327.888672" xlink:href="#ArialMT-41"/>
     </g>
    </g>
   </g>
   <g id="line2d_13">
    <path clip-path="url(#p26955105d5)" d="M 159.177364 29.767699 
L 159.42844 224.728853 
L 159.679517 219.4781 
L 159.930593 217.451355 
L 160.18167 203.240204 
L 160.432746 205.902119 
L 160.683822 205.57432 
L 160.934899 210.47558 
L 161.185975 221.545297 
L 161.688128 226.023783 
L 161.939205 226.182358 
L 162.190281 225.634411 
L 162.441358 226.474968 
L 162.692434 226.587181 
L 162.943511 226.533657 
L 163.194587 227.21631 
L 164.198893 227.112969 
L 164.44997 227.309235 
L 164.701046 226.595368 
L 164.952123 226.537643 
L 165.203199 227.2029 
L 165.454276 226.725596 
L 165.705352 227.215845 
L 165.956428 227.111517 
L 166.207505 227.292269 
L 166.458581 226.657709 
L 166.709658 227.199389 
L 166.960734 226.963612 
L 167.211811 227.244034 
L 167.462887 226.602818 
L 167.713964 227.241152 
L 167.96504 227.188944 
L 168.216117 227.305218 
L 168.467193 226.987589 
L 168.71827 226.918851 
L 168.969346 226.595316 
L 169.220423 226.769359 
L 169.471499 226.407404 
L 169.722576 226.464526 
L 169.973652 226.98259 
L 170.224729 226.748302 
L 170.475805 226.706136 
L 170.726881 226.390714 
L 170.977958 226.261706 
L 171.229034 226.297662 
L 171.480111 226.117035 
L 171.731187 226.929667 
L 171.982264 224.700541 
L 172.23334 226.166603 
L 172.484417 226.289653 
L 172.98657 224.836094 
L 173.237646 224.668331 
L 173.488723 223.296103 
L 173.739799 225.574104 
L 173.990876 225.24465 
L 174.241952 225.762318 
L 174.493029 224.512364 
L 174.744105 225.090392 
L 174.995182 225.078264 
L 175.246258 224.241617 
L 175.497335 226.39402 
L 175.748411 225.214825 
L 175.999487 225.89065 
L 176.250564 226.901193 
L 176.50164 226.527611 
L 176.752717 226.472635 
L 177.003793 226.541826 
L 177.505946 225.337576 
L 178.008099 225.959595 
L 178.259176 227.026226 
L 178.510252 226.527223 
L 178.761329 227.125843 
L 179.012405 227.294475 
L 179.263482 227.036541 
L 179.514558 227.227738 
L 179.765635 226.687796 
L 180.016711 227.171113 
L 180.267788 226.519265 
L 180.518864 226.659364 
L 181.021017 227.233344 
L 181.272093 226.945086 
L 181.52317 227.146611 
L 181.774246 226.886601 
L 182.276399 227.30256 
L 182.527476 227.103144 
L 182.778552 227.299125 
L 183.531782 227.392516 
L 184.536088 227.119464 
L 184.787164 227.374688 
L 185.038241 227.238628 
L 185.289317 226.91763 
L 185.540394 227.345952 
L 186.293623 227.32332 
L 187.046852 227.320005 
L 187.297929 226.943316 
L 188.051158 227.423032 
L 188.302235 227.316076 
L 189.055464 227.427782 
L 189.306541 227.287882 
L 189.557617 227.380389 
L 189.808694 227.242915 
L 190.05977 227.414835 
L 190.561923 227.208626 
L 191.566229 227.426521 
L 191.817305 227.25503 
L 192.068382 227.398172 
L 192.570535 227.299876 
L 193.072688 227.358782 
L 193.323764 227.387499 
L 193.825917 227.226047 
L 194.32807 227.370798 
L 194.579147 227.334744 
L 194.830223 227.42798 
L 195.332376 227.401889 
L 195.834529 227.38505 
L 196.085605 227.32242 
L 196.336682 227.423749 
L 197.089911 227.402462 
L 198.59637 227.408599 
L 199.3496 227.399124 
L 203.115747 227.411336 
L 205.375435 227.376905 
L 206.128665 227.415758 
L 206.379741 227.203861 
L 206.630817 227.392488 
L 206.881894 227.436552 
L 207.13297 227.359709 
L 207.635123 227.402451 
L 208.137276 227.397026 
L 208.388353 227.298967 
L 208.890506 227.41569 
L 210.396965 227.364487 
L 211.903423 227.419773 
L 212.907729 227.41138 
L 213.158806 227.326151 
L 213.660959 227.379538 
L 214.163112 227.413272 
L 214.414188 227.292111 
L 214.665265 227.423388 
L 216.4228 227.358864 
L 216.924953 227.426699 
L 218.431412 227.406734 
L 219.686794 227.418715 
L 220.188947 227.416021 
L 220.440024 227.33183 
L 220.6911 227.42405 
L 221.193253 227.403408 
L 222.197559 227.431178 
L 228.976624 227.432437 
L 233.496 227.432717 
L 233.998153 227.397863 
L 239.270759 227.430886 
L 242.534753 227.406854 
L 253.079965 227.399033 
L 253.833195 227.415598 
L 255.088577 227.429073 
L 258.352571 227.438041 
L 264.12733 227.421704 
L 269.14886 227.437161 
L 287.979595 227.427584 
L 290.992513 227.431854 
L 294.005431 227.435031 
L 295.009737 227.427882 
L 301.788802 227.432034 
L 303.29526 227.43329 
L 314.844778 227.43233 
L 409.751686 227.433953 
L 410.002762 212.757639 
L 410.253839 212.771795 
L 411.760298 216.378494 
L 412.011374 216.655333 
L 412.262451 217.558311 
L 412.764604 218.716628 
L 413.01568 219.279063 
L 413.266757 220.195069 
L 413.517833 220.682936 
L 414.019986 222.089149 
L 414.271062 221.971374 
L 414.522139 222.909763 
L 414.773215 223.237156 
L 415.024292 223.299612 
L 415.275368 223.65971 
L 415.777521 223.842385 
L 416.279674 223.761434 
L 416.530751 223.514849 
L 416.781827 222.960774 
L 417.032904 222.689057 
L 417.28398 222.645055 
L 417.786133 221.122553 
L 418.03721 220.952348 
L 418.288286 219.827079 
L 418.790439 219.095135 
L 419.292592 217.611046 
L 419.543668 217.374518 
L 420.045821 215.951148 
L 420.296898 216.00375 
L 420.799051 215.045785 
L 421.050127 215.60229 
L 421.55228 215.596013 
L 421.803357 215.855398 
L 422.054433 215.941096 
L 422.807663 217.548331 
L 423.058739 217.55693 
L 423.309816 218.950064 
L 423.560892 219.148671 
L 423.811969 219.676543 
L 424.063045 220.606004 
L 424.314121 220.886286 
L 424.565198 221.395552 
L 425.067351 222.580767 
L 426.322733 224.454903 
L 426.57381 224.619445 
L 427.075963 224.576043 
L 427.327039 224.836492 
L 427.829192 224.381653 
L 428.331345 224.066067 
L 428.582422 224.063959 
L 429.084575 223.024021 
L 429.335651 222.749747 
L 429.837804 221.82955 
L 430.339957 221.155776 
L 430.591033 220.205046 
L 430.84211 220.628818 
L 431.093186 219.785095 
L 432.097492 218.390314 
L 432.599645 218.279139 
L 432.850722 217.614959 
L 433.101798 217.871812 
L 433.855028 217.508999 
L 434.859333 218.100752 
L 435.11041 218.528374 
L 435.361486 218.436028 
L 435.863639 219.390993 
L 436.365792 220.232254 
L 436.616869 220.099857 
L 436.867945 221.105291 
L 437.621175 222.099324 
L 437.872251 222.876679 
L 438.123328 223.107631 
L 438.876557 224.569643 
L 439.127634 224.708389 
L 439.880863 225.617224 
L 440.131939 225.600996 
L 440.383016 225.797175 
L 440.634092 225.673842 
L 440.885169 225.695737 
L 441.136245 225.474123 
L 441.387322 225.433741 
L 441.638398 225.213865 
L 441.889475 224.674424 
L 442.140551 224.605291 
L 442.391628 223.830949 
L 442.642704 223.527791 
L 443.395934 222.003899 
L 443.898087 221.11397 
L 444.149163 220.748406 
L 444.400239 219.944493 
L 444.651316 219.618612 
L 444.902392 219.774286 
L 445.404545 218.64829 
L 445.655622 218.995127 
L 445.906698 218.527782 
L 446.157775 218.537712 
L 446.408851 219.214047 
L 446.659928 219.137994 
L 447.162081 219.829022 
L 447.664234 220.663156 
L 447.91531 221.398205 
L 448.166387 221.334683 
L 448.417463 222.196259 
L 448.919616 223.115431 
L 449.421769 224.056933 
L 449.672845 224.189202 
L 450.174998 224.996936 
L 450.677151 225.491942 
L 450.928228 225.701473 
L 451.681457 225.881508 
L 451.932534 225.80369 
L 452.18361 225.869412 
L 452.93684 225.501642 
L 453.187916 224.910025 
L 453.690069 224.655461 
L 453.941146 224.215646 
L 454.192222 224.008961 
L 454.443299 223.421908 
L 454.694375 223.267656 
L 454.945451 222.970348 
L 455.196528 222.480351 
L 455.698681 222.067654 
L 455.949757 221.561911 
L 456.702987 220.952031 
L 456.954063 220.471625 
L 457.456216 220.280155 
L 457.707293 220.200809 
L 457.958369 220.384197 
L 458.209446 219.87196 
L 458.460522 219.884271 
L 458.711599 220.061807 
L 458.962675 219.87847 
L 459.715904 220.532744 
L 460.218057 220.631444 
L 460.469134 220.830822 
L 460.72021 221.433871 
L 460.971287 221.323493 
L 461.222363 221.983048 
L 461.47344 222.250476 
L 461.975593 223.231632 
L 462.477746 223.776471 
L 463.482052 225.209719 
L 463.733128 225.310212 
L 463.984205 225.820809 
L 464.235281 225.869371 
L 464.737434 226.218071 
L 464.98851 226.062317 
L 465.239587 226.176043 
L 466.746046 224.731142 
L 467.750352 222.620716 
L 468.001428 222.359377 
L 468.252505 221.630251 
L 469.256811 220.317806 
L 469.758963 219.821454 
L 470.01004 219.4701 
L 470.512193 220.176265 
L 470.763269 220.124966 
L 471.265422 220.820933 
L 471.516499 221.033813 
L 471.767575 221.024701 
L 472.269728 222.095997 
L 472.520805 222.422376 
L 472.771881 223.153567 
L 473.022958 223.391978 
L 473.274034 224.023093 
L 473.776187 224.454433 
L 474.027264 224.872641 
L 474.27834 225.063231 
L 474.529417 225.43236 
L 475.031569 225.660484 
L 475.533722 225.879019 
L 476.538028 225.766872 
L 476.789105 225.392957 
L 477.040181 225.408787 
L 477.793411 224.658387 
L 478.295564 224.183106 
L 478.797717 223.435686 
L 479.29987 222.77214 
L 479.550946 222.150421 
L 479.802022 222.353682 
L 481.057405 220.84538 
L 481.308481 220.792881 
L 482.061711 220.2801 
L 482.312787 220.310065 
L 482.563864 219.661029 
L 482.81494 220.123946 
L 483.066017 220.310518 
L 483.317093 219.90615 
L 483.56817 220.137724 
L 483.819246 220.168163 
L 484.321399 220.812328 
L 484.572476 220.684327 
L 484.823552 220.881856 
L 485.576781 222.096599 
L 485.827858 221.85722 
L 486.581087 223.253334 
L 486.832164 223.381443 
L 487.334317 224.195498 
L 487.585393 224.183973 
L 487.83647 224.592267 
L 488.589699 225.10689 
L 488.840776 224.849673 
L 489.091852 225.055861 
L 489.594005 224.963062 
L 490.598311 223.921939 
L 491.100464 223.042496 
L 491.35154 222.531649 
L 491.602617 222.518519 
L 492.10477 221.357006 
L 492.355846 221.126574 
L 492.606923 220.491935 
L 492.857999 220.432205 
L 493.109076 220.082326 
L 494.113382 219.777082 
L 494.364458 220.062429 
L 494.615535 219.954909 
L 494.866611 220.410503 
L 495.117687 220.397398 
L 495.368764 220.702537 
L 495.61984 220.830262 
L 496.37307 222.173798 
L 496.624146 222.66409 
L 496.875223 222.67077 
L 497.126299 223.24328 
L 497.377376 223.393847 
L 497.628452 223.917443 
L 497.879529 224.144613 
L 498.130605 224.589788 
L 498.381682 224.652557 
L 498.883835 225.06563 
L 499.134911 225.059297 
L 499.637064 225.376547 
L 500.892446 224.942802 
L 501.143523 225.149523 
L 501.394599 224.869617 
L 501.645676 224.807823 
L 501.896752 224.495275 
L 502.147829 224.527827 
L 502.649982 223.691621 
L 502.901058 223.781068 
L 503.152135 223.519971 
L 503.403211 223.621007 
L 503.654288 223.058844 
L 503.905364 223.222168 
L 504.156441 222.902898 
L 504.658594 222.789265 
L 504.90967 222.308358 
L 505.160746 222.468837 
L 505.662899 222.403926 
L 506.165052 222.117509 
L 506.918282 222.32183 
L 507.169358 222.6371 
L 507.420435 222.480582 
L 507.671511 222.918366 
L 508.424741 222.948307 
L 508.675817 223.142569 
L 508.926894 223.484995 
L 509.17797 223.503385 
L 509.429047 223.868094 
L 509.9312 224.07532 
L 510.182276 224.412503 
L 511.437658 225.135791 
L 511.688735 225.068397 
L 512.190888 225.320819 
L 512.441964 225.461613 
L 512.693041 225.394418 
L 512.944117 225.768754 
L 513.195194 225.681708 
L 513.44627 225.437866 
L 514.1995 225.54429 
L 514.450576 225.564541 
L 514.952729 225.324086 
L 515.203806 225.357879 
L 515.454882 225.159206 
L 515.705958 225.225238 
L 515.957035 224.987659 
L 516.208111 225.10171 
L 516.459188 224.814618 
L 516.710264 224.774054 
L 516.961341 224.598056 
L 517.212417 224.783443 
L 517.71457 224.609368 
L 517.965647 224.711588 
L 518.216723 224.590771 
L 518.718876 224.57316 
L 518.969953 224.390599 
L 519.472106 224.521309 
L 519.723182 224.418819 
L 519.974259 224.648503 
L 520.225335 224.258028 
L 520.476411 224.516125 
L 520.727488 224.381792 
L 520.978564 224.808728 
L 521.229641 224.763091 
L 521.480717 224.911288 
L 521.731794 224.759737 
L 521.98287 224.802841 
L 522.233947 225.100604 
L 522.485023 224.974263 
L 522.7361 225.294613 
L 523.238253 225.155229 
L 523.489329 225.299908 
L 523.740406 225.163159 
L 523.991482 225.465123 
L 524.242559 225.407699 
L 524.493635 225.493187 
L 524.744712 225.459357 
L 524.995788 225.670297 
L 525.497941 225.639975 
L 526.25117 225.766909 
L 526.753323 225.822505 
L 527.0044 225.596749 
L 527.255476 225.858131 
L 527.506553 225.790515 
L 527.757629 225.899165 
L 528.259782 225.621221 
L 528.761935 225.443826 
L 529.013012 225.714127 
L 529.264088 225.648654 
L 529.515165 225.800641 
L 529.766241 225.640095 
L 530.770547 225.633611 
L 531.021623 225.736679 
L 531.2727 225.642066 
L 531.523776 225.753315 
L 531.774853 225.49024 
L 532.025929 225.629598 
L 532.528082 225.626569 
L 533.281312 225.788842 
L 533.532388 225.637436 
L 534.787771 225.622948 
L 535.038847 225.795248 
L 535.289924 225.644425 
L 536.043153 225.568598 
L 536.545306 225.559654 
L 536.796382 225.520603 
L 537.298535 225.654803 
L 538.804994 225.60577 
L 539.8093 225.52339 
L 540.060377 225.731857 
L 540.56253 225.577337 
L 540.813606 225.597182 
L 541.064682 225.487823 
L 541.315759 225.761964 
L 541.817912 225.566546 
L 542.068988 225.542113 
L 542.320065 225.841822 
L 542.571141 225.598342 
L 542.822218 225.697606 
L 543.073294 225.462078 
L 543.324371 225.724774 
L 543.575447 225.614236 
L 544.328677 225.826366 
L 544.579753 225.720931 
L 544.83083 225.767074 
L 545.332983 225.664382 
L 545.584059 225.761847 
L 546.086212 225.731815 
L 547.090518 225.777448 
L 547.341594 225.912972 
L 547.592671 225.742104 
L 547.843747 225.918854 
L 548.596977 225.727876 
L 548.848053 225.958019 
L 549.09913 225.695999 
L 549.852359 225.918231 
L 558.137883 226.014777 
L 559.393265 225.743082 
L 559.895418 225.953701 
L 560.146495 225.873533 
L 560.397571 226.016672 
L 560.899724 225.981556 
L 561.90403 226.0537 
L 562.155106 225.943915 
L 562.657259 226.13602 
L 564.163718 226.300077 
L 564.665871 226.324648 
L 565.168024 226.377844 
L 565.419101 226.326093 
L 565.921254 226.439685 
L 566.674483 226.514017 
L 566.925559 226.350165 
L 567.929865 226.42085 
L 568.683095 226.276512 
L 569.687401 226.246234 
L 569.938477 226.105244 
L 570.189554 226.254736 
L 570.942783 226.284394 
L 571.193859 226.050496 
L 571.444936 226.009838 
L 571.947089 226.205155 
L 572.198165 226.259111 
L 572.951395 226.076299 
L 578.224001 226.619201 
L 578.475077 226.500723 
L 578.726154 226.510003 
L 578.97723 226.634761 
L 579.73046 226.62226 
L 581.236918 226.60549 
L 581.739071 226.482235 
L 582.241224 226.49484 
L 582.492301 226.561577 
L 582.743377 226.36065 
L 583.24553 226.420385 
L 583.496607 226.221532 
L 583.747683 226.410602 
L 583.99876 226.191262 
L 584.500913 226.148818 
L 587.51383 226.283588 
L 587.764907 226.385369 
L 588.015983 226.3168 
L 588.518136 226.549217 
L 589.020289 226.509694 
L 589.271366 226.686286 
L 589.522442 226.641222 
L 589.773519 226.746102 
L 590.024595 226.606699 
L 590.526748 226.770988 
L 591.028901 226.834692 
L 592.284283 226.832898 
L 592.53536 226.71891 
L 592.786436 226.844984 
L 593.539666 226.673657 
L 594.041819 226.710858 
L 597.305813 226.339083 
L 597.807966 226.444685 
L 598.059042 226.334351 
L 598.561195 226.444477 
L 598.812272 226.502202 
L 599.063348 226.373023 
L 599.314425 226.476301 
L 599.565501 226.392047 
L 599.816578 226.489904 
L 600.318731 226.497269 
L 600.820884 226.51097 
L 604.335954 226.990455 
L 604.587031 226.905226 
L 605.089184 226.934658 
L 607.599948 226.822571 
L 607.851025 226.682377 
L 608.353178 226.622069 
L 609.357484 226.486346 
L 609.60856 226.539851 
L 609.859637 226.326532 
L 610.110713 226.284973 
L 610.36179 226.363728 
L 610.612866 226.220227 
L 611.115019 226.297558 
L 612.119325 226.269458 
L 612.621478 226.380833 
L 612.872554 226.453388 
L 613.123631 226.347577 
L 613.374707 226.594285 
L 613.625784 226.556273 
L 614.379013 226.831039 
L 614.63009 226.737566 
L 615.634396 226.917547 
L 616.136549 226.942955 
L 616.889778 227.053452 
L 617.643007 227.02867 
L 618.14516 227.08204 
L 619.902696 226.836737 
L 621.660231 226.599892 
L 621.911307 226.475595 
L 622.162384 226.55222 
L 622.664537 226.459879 
L 623.417766 226.497301 
L 623.668843 226.425412 
L 623.919919 226.540799 
L 624.673149 226.533634 
L 625.677455 226.526704 
L 626.179608 226.680762 
L 626.681761 226.663549 
L 627.183913 226.779265 
L 627.937143 226.935506 
L 628.690372 226.99296 
L 629.443602 227.088657 
L 630.196831 227.119562 
L 631.201137 227.090142 
L 632.456519 227.000837 
L 633.460825 226.800563 
L 633.962978 226.706586 
L 634.716208 226.47457 
L 634.967284 226.56941 
L 635.218361 226.414249 
L 635.720514 226.389464 
L 636.222667 226.286736 
L 638.482355 226.55955 
L 639.486661 226.913806 
L 639.988814 226.892659 
L 640.99312 227.108646 
L 644.759267 227.023145 
L 645.010343 226.868612 
L 645.512496 226.836491 
L 646.265726 226.63946 
L 646.516802 226.752064 
L 646.767879 226.572051 
L 647.018955 226.541718 
L 647.521108 226.614176 
L 648.274337 226.496504 
L 649.780796 226.549422 
L 650.282949 226.52195 
L 650.785102 226.644427 
L 651.538332 226.670115 
L 654.300173 227.124871 
L 654.551249 227.110778 
L 655.053402 227.205791 
L 656.810938 227.168197 
L 658.06632 226.877064 
L 658.819549 226.684187 
L 659.823855 226.481794 
L 660.326008 226.410391 
L 660.828161 226.284638 
L 661.079238 226.46875 
L 661.330314 226.340375 
L 661.581391 226.537557 
L 661.832467 226.535005 
L 662.083544 226.710732 
L 662.33462 226.303206 
L 662.585696 227.227415 
L 662.836773 226.036921 
L 663.338926 227.032839 
L 663.590002 226.313061 
L 664.092155 227.17065 
L 664.594308 226.345416 
L 664.845385 227.20887 
L 665.096461 226.789822 
L 665.347538 227.211665 
L 665.598614 226.311627 
L 665.849691 227.34728 
L 666.100767 226.367012 
L 666.351844 227.099385 
L 666.853997 227.312093 
L 667.105073 227.261738 
L 667.607226 226.962722 
L 667.858302 227.370124 
L 668.360455 226.824086 
L 668.611532 227.075406 
L 669.113685 227.225383 
L 669.364761 227.11487 
L 669.615838 227.134748 
L 669.866914 226.381693 
L 670.117991 227.130191 
L 670.369067 226.446456 
L 670.620144 226.685705 
L 671.122297 226.44707 
L 671.373373 227.008235 
L 671.62445 226.6823 
L 671.875526 225.341025 
L 672.377679 226.93341 
L 672.628755 225.919126 
L 672.879832 226.147756 
L 673.130908 226.548269 
L 673.381985 226.177732 
L 673.633061 225.430946 
L 673.884138 226.183864 
L 674.135214 226.113813 
L 674.386291 226.76255 
L 674.637367 225.418279 
L 674.888444 226.540448 
L 675.13952 226.17201 
L 675.390597 226.488063 
L 675.641673 227.161429 
L 675.89275 226.574794 
L 676.143826 226.423499 
L 676.394903 226.712391 
L 676.645979 226.675907 
L 676.897056 227.072027 
L 677.399209 227.192137 
L 677.650285 226.911235 
L 677.901361 227.245624 
L 678.152438 226.768686 
L 678.403514 226.82883 
L 678.654591 226.736648 
L 679.909973 227.34824 
L 680.16105 226.731657 
L 680.412126 226.718022 
L 680.663203 226.485679 
L 680.914279 227.308553 
L 681.165356 226.940487 
L 681.416432 226.906344 
L 681.667509 227.036065 
L 682.169662 226.808618 
L 682.671814 225.866045 
L 682.922891 226.723694 
L 683.173967 226.151706 
L 683.425044 226.118519 
L 683.67612 226.629598 
L 683.927197 226.277244 
L 684.178273 226.324556 
L 684.42935 226.821247 
L 684.680426 225.932808 
L 684.931503 225.816794 
L 685.182579 226.157514 
L 685.433656 225.867251 
L 685.684732 226.34516 
L 685.935809 226.280212 
L 686.186885 226.723227 
L 686.437962 225.11197 
L 686.689038 226.595041 
L 686.940115 225.288565 
L 687.191191 226.314517 
L 687.442268 225.309104 
L 687.693344 225.73712 
L 687.94442 226.596557 
L 688.195497 227.055796 
L 688.446573 225.903783 
L 688.69765 225.683443 
L 688.948726 227.065768 
L 689.199803 225.696845 
L 689.450879 226.978896 
L 689.701956 227.25959 
L 689.953032 227.290774 
L 690.455185 226.708983 
L 690.706262 226.719214 
L 690.957338 227.304312 
L 691.208415 227.198446 
L 691.710568 226.433389 
L 691.961644 227.163083 
L 692.212721 227.218096 
L 692.714873 226.850043 
L 692.96595 226.912429 
L 693.217026 227.089853 
L 693.468103 227.052066 
L 693.719179 226.455301 
L 693.970256 226.515599 
L 694.472409 225.822908 
L 694.723485 226.214786 
L 694.974562 225.949403 
L 695.225638 226.281461 
L 695.476715 226.334668 
L 695.727791 226.644879 
L 695.978868 226.769206 
L 696.229944 226.668664 
L 696.481021 225.891182 
L 696.732097 226.509566 
L 696.983174 225.334843 
L 697.485327 226.187794 
L 697.736403 226.103094 
L 697.987479 225.892057 
L 698.740709 226.278024 
L 698.991785 225.2807 
L 699.242862 225.337178 
L 699.493938 225.910386 
L 699.745015 225.213039 
L 699.996091 226.221211 
L 700.247168 225.890257 
L 700.498244 226.249292 
L 701.000397 226.461999 
L 701.251474 225.288552 
L 701.50255 226.754733 
L 701.753627 225.336772 
L 702.004703 226.611918 
L 702.25578 227.033547 
L 702.506856 225.804772 
L 702.757933 226.927382 
L 703.009009 226.868989 
L 703.260085 225.858158 
L 703.511162 226.925107 
L 703.762238 226.710225 
L 704.013315 227.397745 
L 704.515468 225.716007 
L 704.766544 227.37899 
L 705.017621 226.229188 
L 705.268697 227.002348 
L 705.77085 227.044817 
L 706.273003 226.156481 
L 706.52408 226.433211 
L 706.775156 226.417453 
L 707.026233 225.160333 
L 707.528386 226.304476 
L 707.779462 224.91365 
L 708.030538 226.553357 
L 708.281615 225.672786 
L 708.532691 226.335409 
L 708.783768 224.093098 
L 709.034844 225.680938 
L 709.285921 224.253509 
L 709.536997 225.148564 
L 710.03915 225.446936 
L 710.290227 225.751473 
L 710.541303 224.33714 
L 711.043456 225.670912 
L 711.294533 225.010965 
L 711.545609 226.320718 
L 712.047762 226.378215 
L 712.298839 225.241868 
L 712.800992 225.904397 
L 713.052068 226.543741 
L 713.554221 226.381269 
L 713.805297 226.566243 
L 714.056374 227.014441 
L 714.30745 226.668848 
L 714.809603 226.516823 
L 715.06068 226.199451 
L 715.311756 227.235627 
L 715.562833 226.81721 
L 715.813909 226.127729 
L 716.064986 226.521747 
L 716.316062 224.819483 
L 716.818215 226.93193 
L 717.069292 226.431377 
L 717.320368 227.140408 
L 717.822521 226.277793 
L 718.073597 226.256176 
L 718.324674 226.371728 
L 718.57575 225.748499 
L 718.826827 226.045379 
L 719.077903 226.553809 
L 719.32898 225.389732 
L 719.580056 225.999554 
L 719.831133 225.111641 
L 720.082209 225.801974 
L 720.333286 225.936063 
L 720.584362 226.302157 
L 720.835439 225.17653 
L 721.086515 225.523679 
L 721.337592 224.920788 
L 721.588668 225.130941 
L 721.839745 223.578071 
L 722.090821 226.387411 
L 722.592974 224.45494 
L 722.844051 222.952905 
L 723.095127 224.26497 
L 723.346203 224.680862 
L 723.59728 225.494207 
L 724.099433 226.132374 
L 724.350509 225.97077 
L 724.852662 224.934321 
L 725.354815 226.53143 
L 725.856968 225.559944 
L 726.108045 226.550031 
L 726.359121 225.546443 
L 726.861274 226.475703 
L 727.112351 226.29553 
L 727.363427 227.045697 
L 727.614504 226.709299 
L 727.86558 225.804995 
L 728.116656 226.713537 
L 728.367733 225.718966 
L 728.618809 226.553133 
L 728.869886 225.684079 
L 729.120962 225.900647 
L 729.874192 226.916424 
L 730.125268 225.330245 
L 730.376345 225.909699 
L 730.627421 225.738263 
L 730.878498 226.172844 
L 731.380651 224.942494 
L 731.631727 224.995864 
L 731.882804 225.91531 
L 732.13388 225.546097 
L 732.384957 226.483433 
L 732.636033 224.722194 
L 732.88711 224.613567 
L 733.138186 225.496614 
L 733.389262 222.366931 
L 733.640339 224.30675 
L 733.891415 224.904561 
L 734.142492 225.965582 
L 734.644645 224.239102 
L 734.895721 225.837383 
L 735.146798 225.61962 
L 735.397874 225.150097 
L 735.648951 225.230871 
L 735.900027 225.573086 
L 736.151104 225.366777 
L 736.653257 225.490473 
L 736.904333 226.870617 
L 737.15541 226.085877 
L 737.406486 224.765293 
L 737.657563 226.721186 
L 737.908639 226.112246 
L 738.159716 224.831714 
L 738.410792 226.544698 
L 738.661868 226.439012 
L 738.912945 226.709622 
L 739.164021 226.50961 
L 739.415098 226.78657 
L 739.666174 226.607706 
L 739.917251 227.291775 
L 740.419404 226.577458 
L 740.67048 226.731029 
L 740.921557 226.616496 
L 741.172633 227.31051 
L 741.42371 226.969389 
L 741.674786 226.320472 
L 741.925863 226.095774 
L 742.176939 226.525199 
L 742.428016 226.123501 
L 742.679092 226.282307 
L 742.930169 226.581307 
L 743.181245 226.305247 
L 743.432321 227.047609 
L 743.683398 226.396846 
L 744.185551 225.74249 
L 744.436627 226.665658 
L 744.687704 225.463553 
L 744.93878 225.39579 
L 745.189857 225.990502 
L 745.69201 226.604478 
L 745.943086 226.198028 
L 746.194163 227.127152 
L 746.445239 226.087839 
L 746.696316 226.067247 
L 746.947392 226.273713 
L 747.198469 224.51889 
L 747.449545 226.119262 
L 747.700622 225.179101 
L 747.951698 226.752522 
L 748.202775 225.615751 
L 748.453851 226.033848 
L 748.704927 226.739952 
L 748.956004 226.2141 
L 749.20708 226.868287 
L 749.458157 226.132025 
L 749.709233 226.567532 
L 749.96031 226.028699 
L 750.211386 226.13786 
L 750.462463 226.932736 
L 750.713539 226.557447 
L 750.964616 226.677169 
L 751.215692 225.629432 
L 751.466769 226.607802 
L 751.717845 226.910392 
L 751.968922 226.093713 
L 752.219998 227.270822 
L 752.471075 226.643565 
L 752.722151 226.506268 
L 752.973228 226.766389 
L 753.224304 226.440599 
L 753.47538 226.331217 
L 753.726457 226.978388 
L 753.977533 226.215481 
L 754.479686 227.000036 
L 754.730763 226.101387 
L 754.981839 226.189423 
L 755.232916 226.812041 
L 755.483992 225.446331 
L 755.986145 227.01978 
L 756.237222 226.842668 
L 756.488298 226.288355 
L 756.739375 227.019305 
L 756.990451 226.678341 
L 757.241528 226.132739 
L 757.743681 226.488725 
L 757.994757 227.14339 
L 758.245834 226.858274 
L 758.49691 226.029375 
L 758.747986 226.634034 
L 758.999063 226.222411 
L 759.250139 226.328771 
L 759.501216 226.254523 
L 759.752292 226.524487 
L 760.003369 226.580418 
L 760.254445 226.898925 
L 760.505522 226.536041 
L 760.756598 226.660128 
L 761.258751 227.209087 
L 761.509828 226.733521 
L 761.760904 226.502059 
L 762.011981 227.165055 
L 762.263057 226.144932 
L 762.514134 226.855186 
L 762.76521 227.20828 
L 763.016287 226.891591 
L 763.267363 225.903125 
L 763.51844 226.667721 
L 763.769516 225.841623 
L 764.020592 226.568038 
L 764.271669 226.33835 
L 764.522745 227.046014 
L 764.773822 226.749888 
L 765.024898 226.754154 
L 765.275975 227.114769 
L 765.527051 226.670245 
L 765.778128 226.66298 
L 766.029204 227.066749 
L 766.280281 226.686125 
L 766.531357 226.916301 
L 766.782434 226.942074 
L 767.03351 226.831288 
L 767.284587 226.885375 
L 767.535663 226.476387 
L 767.78674 227.120619 
L 768.037816 227.064802 
L 768.288893 225.271233 
L 768.539969 226.669153 
L 768.791045 226.736342 
L 769.042122 227.333178 
L 769.293198 226.510758 
L 769.544275 227.054 
L 769.795351 227.150961 
L 770.046428 226.947822 
L 770.297504 227.016088 
L 770.548581 226.96682 
L 770.799657 226.557712 
L 771.050734 227.04065 
L 771.30181 226.656978 
L 771.552887 226.898281 
L 772.05504 226.0528 
L 772.306116 227.25817 
L 772.808269 227.193068 
L 773.059346 227.285407 
L 773.310422 227.012134 
L 773.561499 227.405024 
L 774.063651 226.738539 
L 774.314728 226.725484 
L 774.565804 227.254425 
L 774.816881 226.5335 
L 775.067957 226.640567 
L 775.319034 227.010611 
L 775.57011 226.35879 
L 775.821187 226.389454 
L 776.072263 226.969588 
L 776.574416 227.309071 
L 776.825493 227.304897 
L 777.076569 226.083714 
L 777.327646 227.372809 
L 777.578722 227.10305 
L 777.829799 226.537342 
L 778.080875 226.884609 
L 778.331952 226.697916 
L 778.834104 227.320984 
L 779.085181 225.738383 
L 779.336257 226.863609 
L 779.587334 227.304666 
L 779.83841 226.662552 
L 780.089487 227.255349 
L 780.340563 227.235109 
L 780.842716 226.553384 
L 781.093793 227.086641 
L 781.344869 227.013617 
L 781.595946 227.074525 
L 782.098099 227.347664 
L 782.349175 226.949089 
L 782.600252 226.909629 
L 782.851328 227.235263 
L 783.102405 226.657995 
L 783.353481 226.628807 
L 783.855634 227.217763 
L 784.10671 226.995198 
L 784.608863 226.873135 
L 784.85994 227.201156 
L 785.111016 227.241003 
L 785.362093 227.042442 
L 785.613169 227.120593 
L 785.864246 227.329198 
L 786.115322 227.116179 
L 786.366399 227.422026 
L 786.617475 226.62755 
L 786.868552 227.025913 
L 787.119628 226.175642 
L 787.370705 227.082957 
L 787.621781 227.072265 
L 787.872858 226.850465 
L 788.123934 227.302381 
L 788.375011 227.053252 
L 788.877164 227.2683 
L 789.12824 227.104291 
L 789.379316 226.750266 
L 789.630393 227.143539 
L 789.881469 226.813787 
L 790.132546 227.095445 
L 790.383622 226.859102 
L 790.634699 227.337589 
L 790.885775 227.111575 
L 791.136852 227.300429 
L 791.387928 227.259948 
L 791.639005 226.843173 
L 791.890081 227.277983 
L 792.141158 226.716937 
L 792.392234 227.340129 
L 792.643311 226.616732 
L 792.894387 226.829353 
L 793.145464 227.261995 
L 793.39654 226.343538 
L 793.647617 227.090126 
L 793.898693 227.217838 
L 794.149769 226.977615 
L 794.651922 227.220881 
L 794.902999 226.385899 
L 795.154075 227.021434 
L 795.907305 227.011992 
L 796.158381 227.23823 
L 796.409458 227.268526 
L 796.660534 226.948479 
L 796.911611 226.902035 
L 797.413764 227.339179 
L 797.66484 227.03435 
L 797.915917 227.170334 
L 798.166993 226.150084 
L 798.41807 226.598989 
L 798.669146 227.281921 
L 798.920223 227.129724 
L 799.171299 227.315754 
L 799.422375 227.031713 
L 799.673452 227.289288 
L 800.426681 226.9021 
L 800.677758 227.256423 
L 800.928834 227.144742 
L 801.179911 227.339768 
L 801.682064 226.908832 
L 801.93314 226.922298 
L 802.184217 227.108659 
L 802.435293 226.872078 
L 802.68637 226.957876 
L 802.937446 226.672192 
L 803.188523 226.767874 
L 803.439599 227.164976 
L 803.941752 227.316244 
L 804.192828 227.141776 
L 804.946058 227.149947 
L 805.197134 227.38281 
L 805.448211 227.345335 
L 805.699287 226.601987 
L 805.950364 227.404482 
L 806.452517 226.839602 
L 806.703593 227.395676 
L 807.958976 227.313075 
L 808.210052 226.381302 
L 808.461129 227.092614 
L 808.712205 226.86933 
L 808.963282 227.427976 
L 809.214358 227.18843 
L 809.465434 227.373971 
L 809.716511 227.336557 
L 809.967587 226.970455 
L 810.46974 226.978147 
L 810.720817 227.302319 
L 810.971893 227.145855 
L 811.22297 227.339281 
L 811.474046 226.789559 
L 811.725123 226.889921 
L 811.976199 226.673278 
L 812.227276 227.193094 
L 812.478352 226.559497 
L 812.729429 226.532723 
L 812.980505 227.347139 
L 813.231582 226.994789 
L 813.482658 227.065956 
L 813.733735 226.972846 
L 813.984811 227.178911 
L 814.235888 226.980941 
L 814.486964 226.941349 
L 814.73804 227.34114 
L 814.989117 227.312562 
L 815.240193 227.083394 
L 815.49127 227.388639 
L 815.742346 227.231465 
L 815.993423 227.34096 
L 816.244499 227.116929 
L 816.495576 227.272676 
L 816.746652 227.037527 
L 817.248805 227.398165 
L 817.499882 227.055858 
L 817.750958 227.347581 
L 818.002035 227.164874 
L 818.253111 226.574232 
L 818.504188 227.26748 
L 818.755264 227.028548 
L 819.006341 227.345153 
L 819.257417 226.99823 
L 819.508493 227.350044 
L 819.75957 227.232322 
L 820.010646 227.274011 
L 820.512799 227.168974 
L 820.763876 227.338339 
L 821.517105 227.087384 
L 821.768182 227.045642 
L 822.019258 227.341506 
L 822.270335 227.246176 
L 822.521411 226.888098 
L 822.772488 227.224429 
L 823.023564 227.105729 
L 823.274641 227.129315 
L 823.525717 227.301829 
L 823.776794 227.026385 
L 824.02787 227.173098 
L 824.278947 227.164551 
L 824.530023 227.295846 
L 824.781099 227.072644 
L 825.032176 227.351605 
L 825.283252 227.41271 
L 826.036482 227.123779 
L 826.287558 226.669158 
L 826.538635 227.214378 
L 826.789711 227.006429 
L 827.291864 227.329254 
L 827.794017 227.196016 
L 828.045094 227.37192 
L 828.29617 227.400758 
L 828.547247 226.832173 
L 828.798323 227.14499 
L 829.0494 227.083843 
L 829.300476 226.249533 
L 829.551552 227.257925 
L 829.802629 226.899099 
L 830.304782 227.361685 
L 830.555858 227.323478 
L 830.806935 227.097385 
L 831.560164 227.397917 
L 831.811241 227.193837 
L 832.062317 227.318968 
L 832.56447 226.982824 
L 832.815547 227.170279 
L 833.3177 227.221366 
L 833.568776 227.351574 
L 833.819853 227.098137 
L 834.322006 227.145742 
L 834.573082 226.805289 
L 834.824158 227.390628 
L 835.075235 227.290402 
L 835.326311 227.339719 
L 835.577388 227.172268 
L 835.828464 226.65461 
L 836.079541 227.121926 
L 836.330617 226.548588 
L 836.581694 227.384306 
L 837.083847 227.383307 
L 837.586 227.041647 
L 837.837076 227.005813 
L 838.339229 227.374488 
L 838.590306 226.94217 
L 838.841382 227.175601 
L 839.092459 227.223719 
L 839.343535 226.863333 
L 839.594611 227.241304 
L 839.845688 227.051163 
L 840.096764 227.196734 
L 840.347841 227.179978 
L 840.598917 227.338588 
L 840.849994 226.990237 
L 841.10107 227.18749 
L 841.352147 227.228499 
L 841.603223 226.933182 
L 841.8543 227.16679 
L 842.356453 227.366187 
L 842.607529 226.829419 
L 842.858606 227.387889 
L 843.109682 227.361738 
L 843.360759 226.746443 
L 843.611835 227.151947 
L 843.862912 227.291425 
L 844.113988 226.727356 
L 844.616141 227.260749 
L 844.867217 226.963543 
L 845.118294 227.043529 
L 845.36937 227.412877 
L 845.620447 226.807301 
L 845.871523 227.222602 
L 846.1226 227.408727 
L 846.373676 226.751627 
L 846.624753 227.344462 
L 846.875829 227.385156 
L 847.126906 227.119229 
L 848.382288 227.037637 
L 848.633365 227.102353 
L 848.884441 226.765471 
L 849.135518 226.683403 
L 849.386594 227.34302 
L 849.637671 227.173414 
L 849.888747 227.270898 
L 850.139823 226.795859 
L 850.641976 227.278674 
L 851.395206 226.910129 
L 851.646282 227.385681 
L 851.897359 227.208562 
L 852.650588 227.165952 
L 852.901665 227.360977 
L 853.654894 227.100299 
L 853.905971 227.215113 
L 854.157047 226.981947 
L 854.6592 227.388616 
L 854.910276 227.289458 
L 855.161353 227.385125 
L 855.412429 227.309818 
L 855.663506 227.392801 
L 855.914582 227.2493 
L 856.165659 227.240446 
L 856.416735 227.357395 
L 856.667812 227.253926 
L 857.169965 227.336535 
L 857.421041 227.337383 
L 857.672118 227.177518 
L 857.923194 227.182017 
L 858.174271 227.331115 
L 859.178577 227.319138 
L 859.429653 226.844889 
L 859.68073 227.325569 
L 860.433959 227.120394 
L 860.685035 227.288563 
L 860.936112 226.881982 
L 861.438265 227.320905 
L 861.689341 226.831308 
L 861.940418 227.221589 
L 862.191494 227.385261 
L 862.442571 227.078214 
L 862.693647 226.518696 
L 863.1958 226.974533 
L 863.446877 226.745187 
L 863.697953 227.168601 
L 863.94903 226.956095 
L 864.200106 227.03792 
L 864.451183 227.363355 
L 864.702259 227.217772 
L 864.953335 226.861961 
L 865.204412 227.335755 
L 865.455488 226.65303 
L 865.706565 227.12261 
L 865.957641 227.176041 
L 866.208718 226.94104 
L 866.459794 227.301187 
L 866.710871 227.296554 
L 866.961947 227.091322 
L 867.4641 227.195565 
L 868.468406 227.383158 
L 868.970559 227.313968 
L 869.974865 227.232745 
L 870.477018 227.114306 
L 870.728094 227.41356 
L 871.481324 227.231817 
L 871.7324 227.404825 
L 871.983477 227.189822 
L 872.234553 227.43543 
L 872.48563 226.690082 
L 872.987783 227.405818 
L 873.238859 227.131633 
L 873.992089 227.071118 
L 874.243165 226.551231 
L 874.494242 226.655154 
L 874.745318 227.332574 
L 874.996395 227.246266 
L 875.247471 227.384717 
L 875.498547 227.069284 
L 875.749624 227.393688 
L 876.0007 226.775772 
L 876.251777 227.254825 
L 876.502853 226.641688 
L 876.75393 227.057105 
L 877.005006 227.253242 
L 877.256083 226.723843 
L 877.507159 226.902676 
L 877.758236 226.799951 
L 878.009312 226.383039 
L 878.260389 227.241664 
L 878.762542 227.197148 
L 879.264695 227.428635 
L 879.515771 226.838868 
L 879.766848 227.301166 
L 880.017924 227.342505 
L 880.520077 227.201141 
L 880.771153 227.242323 
L 881.02223 226.750675 
L 881.273306 227.381838 
L 881.775459 227.014797 
L 882.026536 227.345803 
L 882.277612 227.242591 
L 882.779765 227.322804 
L 883.532995 227.396088 
L 883.784071 227.00439 
L 884.035148 227.206486 
L 884.286224 227.081454 
L 884.537301 227.304748 
L 884.788377 227.177832 
L 885.039454 227.207234 
L 885.29053 227.100919 
L 885.792683 227.309474 
L 886.043759 226.89597 
L 886.294836 227.123334 
L 886.545912 226.969713 
L 886.796989 226.950567 
L 887.048065 227.243895 
L 887.299142 227.149685 
L 887.550218 227.27714 
L 887.801295 226.798058 
L 888.303448 227.286596 
L 888.554524 227.286701 
L 888.805601 226.746039 
L 889.056677 226.921609 
L 889.307754 225.924474 
L 889.55883 227.203364 
L 890.060983 227.362789 
L 890.312059 227.267505 
L 890.563136 226.85705 
L 890.814212 227.233657 
L 891.065289 226.873073 
L 891.316365 227.321523 
L 891.567442 227.360575 
L 891.818518 227.086607 
L 892.069595 227.415904 
L 892.320671 227.237857 
L 892.571748 226.701843 
L 892.822824 227.154353 
L 893.576054 227.199816 
L 893.82713 227.400314 
L 894.078207 227.258129 
L 894.329283 226.946494 
L 894.58036 227.390746 
L 895.584665 227.293255 
L 895.835742 227.393552 
L 896.337895 227.404424 
L 896.588971 226.764354 
L 896.840048 227.334763 
L 897.091124 226.991828 
L 897.342201 227.260651 
L 897.593277 227.181123 
L 897.844354 227.337996 
L 898.09543 226.867591 
L 898.346507 227.371201 
L 898.597583 227.106676 
L 898.84866 227.342608 
L 899.099736 227.368176 
L 899.350813 227.005216 
L 899.852966 227.206063 
L 900.104042 227.114155 
L 900.355119 226.730528 
L 900.606195 226.680385 
L 900.857271 226.795275 
L 901.108348 227.13594 
L 901.359424 226.788542 
L 901.610501 226.935877 
L 901.861577 226.575011 
L 902.112654 226.517499 
L 902.614807 227.324 
L 902.865883 227.189253 
L 903.11696 226.449901 
L 903.619113 227.230023 
L 904.121266 226.786852 
L 904.372342 227.295262 
L 904.623419 227.284599 
L 904.874495 226.866571 
L 905.125572 227.258876 
L 906.380954 227.344684 
L 906.63203 227.09846 
L 906.883107 227.355938 
L 907.134183 227.192934 
L 907.636336 227.308896 
L 908.138489 227.402736 
L 908.389566 227.383879 
L 908.640642 226.498698 
L 908.891719 227.209051 
L 909.142795 227.165013 
L 909.393872 227.304131 
L 909.644948 226.981705 
L 909.896025 227.204523 
L 910.398178 226.920839 
L 910.649254 227.313804 
L 910.90033 227.150046 
L 911.151407 226.647401 
L 911.402483 226.923041 
L 911.65356 226.860352 
L 911.904636 226.972384 
L 911.904636 226.972384 
" style="fill:none;stroke:#1f77b4;stroke-linecap:square;stroke-width:1.5;"/>
   </g>
   <g id="patch_3">
    <path d="M 121.541 237.324063 
L 121.541 19.884062 
" style="fill:none;stroke:#000000;stroke-linecap:square;stroke-linejoin:miter;stroke-width:0.8;"/>
   </g>
   <g id="patch_4">
    <path d="M 949.541 237.324063 
L 949.541 19.884062 
" style="fill:none;stroke:#000000;stroke-linecap:square;stroke-linejoin:miter;stroke-width:0.8;"/>
   </g>
   <g id="patch_5">
    <path d="M 121.541 237.324063 
L 949.541 237.324063 
" style="fill:none;stroke:#000000;stroke-linecap:square;stroke-linejoin:miter;stroke-width:0.8;"/>
   </g>
   <g id="patch_6">
    <path d="M 121.541 19.884063 
L 949.541 19.884063 
" style="fill:none;stroke:#000000;stroke-linecap:square;stroke-linejoin:miter;stroke-width:0.8;"/>
   </g>
   <g id="legend_1">
    <g id="PathCollection_2">
     <g>
      <use style="fill:#ff0000;stroke:#ff0000;" x="679.141" xlink:href="#mcc21a0d391" y="59.211906"/>
     </g>
    </g>
    <g id="text_9">
     <!-- Change point -->
     <g transform="translate(725.941 49.21125)scale(0.26 -0.26)">
      <use xlink:href="#ArialMT-67"/>
      <use x="72.216797" xlink:href="#ArialMT-104"/>
      <use x="127.832031" xlink:href="#ArialMT-97"/>
      <use x="183.447266" xlink:href="#ArialMT-110"/>
      <use x="239.0625" xlink:href="#ArialMT-103"/>
      <use x="294.677734" xlink:href="#ArialMT-101"/>
      <use x="350.292969" xlink:href="#ArialMT-32"/>
      <use x="378.076172" xlink:href="#ArialMT-112"/>
      <use x="433.691406" xlink:href="#ArialMT-111"/>
      <use x="489.306641" xlink:href="#ArialMT-105"/>
      <use x="511.523438" xlink:href="#ArialMT-110"/>
      <use x="567.138672" xlink:href="#ArialMT-116"/>
     </g>
     <!-- (KL div &gt; $\mu$ + 3SD) -->
     <defs>
      <path d="M 52.875 31.296875 
L 5.46875 11.03125 
L 5.46875 19.78125 
L 43.015625 35.359375 
L 5.46875 50.78125 
L 5.46875 59.515625 
L 52.875 39.5 
z
" id="ArialMT-62"/>
      <path d="M 46.90625 11.703125 
L 48.296875 10.796875 
Q 43.703125 3.703125 40.84375 1.296875 
Q 38 -1.09375 34.59375 -1.09375 
Q 32.5 -1.09375 31.09375 0.09375 
Q 29.703125 1.296875 29.703125 3.40625 
Q 29.703125 6.5 31.203125 11 
L 34.5 21.40625 
L 34.40625 21.40625 
Q 27.59375 9.296875 23.046875 4.1875 
Q 18.5 -0.90625 14.09375 -0.90625 
Q 11.296875 -0.90625 10.5 1.90625 
Q 9.59375 -1.703125 8.546875 -5.84375 
Q 7.5 -10 7.046875 -11.84375 
Q 6.59375 -13.703125 6 -15.703125 
Q 5.40625 -17.703125 4.90625 -18.703125 
Q 4.40625 -19.703125 3.796875 -20.5 
L -3.296875 -20.5 
Q -0.90625 -17 1.09375 -9.296875 
L 14.203125 42.796875 
L 21.703125 42.796875 
L 14.203125 13 
Q 13.796875 11.203125 13.796875 10.296875 
Q 13.796875 5.5 17.796875 5.5 
Q 21.796875 5.5 28.296875 15.140625 
Q 34.796875 24.796875 36.296875 30.59375 
L 39.59375 42.796875 
L 47.296875 42.796875 
L 39.40625 12.796875 
Q 37.5 5.203125 37.5 5.09375 
Q 37.5 3.59375 38.59375 3.59375 
Q 39.796875 3.59375 41.4375 5.140625 
Q 43.09375 6.703125 46.90625 11.703125 
z
" id="STIXGeneral-Italic-956"/>
      <path d="M 25.046875 11.578125 
L 25.046875 31.203125 
L 5.5625 31.203125 
L 5.5625 39.40625 
L 25.046875 39.40625 
L 25.046875 58.890625 
L 33.34375 58.890625 
L 33.34375 39.40625 
L 52.828125 39.40625 
L 52.828125 31.203125 
L 33.34375 31.203125 
L 33.34375 11.578125 
z
" id="ArialMT-43"/>
      <path d="M 4.5 23 
L 13.421875 23.78125 
Q 14.0625 18.40625 16.375 14.96875 
Q 18.703125 11.53125 23.578125 9.40625 
Q 28.46875 7.28125 34.578125 7.28125 
Q 39.984375 7.28125 44.140625 8.890625 
Q 48.296875 10.5 50.3125 13.296875 
Q 52.34375 16.109375 52.34375 19.4375 
Q 52.34375 22.796875 50.390625 25.3125 
Q 48.4375 27.828125 43.953125 29.546875 
Q 41.0625 30.671875 31.203125 33.03125 
Q 21.34375 35.40625 17.390625 37.5 
Q 12.25 40.1875 9.734375 44.15625 
Q 7.234375 48.140625 7.234375 53.078125 
Q 7.234375 58.5 10.296875 63.203125 
Q 13.375 67.921875 19.28125 70.359375 
Q 25.203125 72.796875 32.421875 72.796875 
Q 40.375 72.796875 46.453125 70.234375 
Q 52.546875 67.671875 55.8125 62.6875 
Q 59.078125 57.71875 59.328125 51.421875 
L 50.25 50.734375 
Q 49.515625 57.515625 45.28125 60.984375 
Q 41.0625 64.453125 32.8125 64.453125 
Q 24.21875 64.453125 20.28125 61.296875 
Q 16.359375 58.15625 16.359375 53.71875 
Q 16.359375 49.859375 19.140625 47.359375 
Q 21.875 44.875 33.421875 42.265625 
Q 44.96875 39.65625 49.265625 37.703125 
Q 55.515625 34.8125 58.484375 30.390625 
Q 61.46875 25.984375 61.46875 20.21875 
Q 61.46875 14.5 58.203125 9.4375 
Q 54.9375 4.390625 48.796875 1.578125 
Q 42.671875 -1.21875 35.015625 -1.21875 
Q 25.296875 -1.21875 18.71875 1.609375 
Q 12.15625 4.4375 8.421875 10.125 
Q 4.6875 15.828125 4.5 23 
z
" id="ArialMT-83"/>
      <path d="M 7.71875 0 
L 7.71875 71.578125 
L 32.375 71.578125 
Q 40.71875 71.578125 45.125 70.5625 
Q 51.265625 69.140625 55.609375 65.4375 
Q 61.28125 60.640625 64.078125 53.1875 
Q 66.890625 45.75 66.890625 36.1875 
Q 66.890625 28.03125 64.984375 21.734375 
Q 63.09375 15.4375 60.109375 11.296875 
Q 57.125 7.171875 53.578125 4.796875 
Q 50.046875 2.4375 45.046875 1.21875 
Q 40.046875 0 33.546875 0 
z
M 17.1875 8.453125 
L 32.46875 8.453125 
Q 39.546875 8.453125 43.578125 9.765625 
Q 47.609375 11.078125 50 13.484375 
Q 53.375 16.84375 55.25 22.53125 
Q 57.125 28.21875 57.125 36.328125 
Q 57.125 47.5625 53.4375 53.59375 
Q 49.75 59.625 44.484375 61.671875 
Q 40.671875 63.140625 32.234375 63.140625 
L 17.1875 63.140625 
z
" id="ArialMT-68"/>
     </defs>
     <g transform="translate(725.941 77.459438)scale(0.26 -0.26)">
      <use transform="translate(0 0.203125)" xlink:href="#ArialMT-40"/>
      <use transform="translate(33.300781 0.203125)" xlink:href="#ArialMT-75"/>
      <use transform="translate(100 0.203125)" xlink:href="#ArialMT-76"/>
      <use transform="translate(155.615234 0.203125)" xlink:href="#ArialMT-32"/>
      <use transform="translate(183.398438 0.203125)" xlink:href="#ArialMT-100"/>
      <use transform="translate(239.013672 0.203125)" xlink:href="#ArialMT-105"/>
      <use transform="translate(261.230469 0.203125)" xlink:href="#ArialMT-118"/>
      <use transform="translate(311.230469 0.203125)" xlink:href="#ArialMT-32"/>
      <use transform="translate(339.013672 0.203125)" xlink:href="#ArialMT-62"/>
      <use transform="translate(397.412109 0.203125)" xlink:href="#ArialMT-32"/>
      <use transform="translate(425.195312 0.203125)" xlink:href="#STIXGeneral-Italic-956"/>
      <use transform="translate(477.795303 0.203125)" xlink:href="#ArialMT-32"/>
      <use transform="translate(505.578506 0.203125)" xlink:href="#ArialMT-43"/>
      <use transform="translate(563.976944 0.203125)" xlink:href="#ArialMT-32"/>
      <use transform="translate(591.760147 0.203125)" xlink:href="#ArialMT-51"/>
      <use transform="translate(647.375381 0.203125)" xlink:href="#ArialMT-83"/>
      <use transform="translate(714.0746 0.203125)" xlink:href="#ArialMT-68"/>
      <use transform="translate(786.291397 0.203125)" xlink:href="#ArialMT-41"/>
     </g>
    </g>
   </g>
  </g>
 </g>
 <defs>
  <clipPath id="p26955105d5">
   <rect height="217.44" width="828" x="121.541" y="19.884063"/>
  </clipPath>
 </defs>
</svg>
