<?xml version="1.0" encoding="utf-8" standalone="no"?>
<!DOCTYPE svg PUBLIC "-//W3C//DTD SVG 1.1//EN"
  "http://www.w3.org/Graphics/SVG/1.1/DTD/svg11.dtd">
<!-- Created with matplotlib (https://matplotlib.org/) -->
<svg height="288pt" version="1.1" viewBox="0 0 1440 288" width="1440pt" xmlns="http://www.w3.org/2000/svg" xmlns:xlink="http://www.w3.org/1999/xlink">
 <defs>
  <style type="text/css">
*{stroke-linecap:butt;stroke-linejoin:round;}
  </style>
 </defs>
 <g id="figure_1">
  <g id="patch_1">
   <path d="M 0 288 
L 1440 288 
L 1440 0 
L 0 0 
z
" style="fill:#ffffff;"/>
  </g>
  <g id="axes_1">
   <g id="patch_2">
    <path d="M 180 252 
L 1008 252 
L 1008 34.56 
L 180 34.56 
z
" style="fill:#ffffff;"/>
   </g>
   <g id="PathCollection_1">
    <defs>
     <path d="M 0 3 
C 0.795609 3 1.55874 2.683901 2.12132 2.12132 
C 2.683901 1.55874 3 0.795609 3 0 
C 3 -0.795609 2.683901 -1.55874 2.12132 -2.12132 
C 1.55874 -2.683901 0.795609 -3 0 -3 
C -0.795609 -3 -1.55874 -2.683901 -2.12132 -2.12132 
C -2.683901 -1.55874 -3 -0.795609 -3 0 
C -3 0.795609 -2.683901 1.55874 -2.12132 2.12132 
C -1.55874 2.683901 -0.795609 3 0 3 
z
" id="m4f4dcb0c5d" style="stroke:#ff0000;"/>
    </defs>
    <g clip-path="url(#p2aa7ea0599)">
     <use style="fill:#ff0000;stroke:#ff0000;" x="217.636364" xlink:href="#m4f4dcb0c5d" y="44.443636"/>
     <use style="fill:#ff0000;stroke:#ff0000;" x="217.88744" xlink:href="#m4f4dcb0c5d" y="143.153544"/>
     <use style="fill:#ff0000;stroke:#ff0000;" x="218.138517" xlink:href="#m4f4dcb0c5d" y="192.352073"/>
     <use style="fill:#ff0000;stroke:#ff0000;" x="218.389593" xlink:href="#m4f4dcb0c5d" y="217.195718"/>
     <use style="fill:#ff0000;stroke:#ff0000;" x="221.653587" xlink:href="#m4f4dcb0c5d" y="218.28977"/>
     <use style="fill:#ff0000;stroke:#ff0000;" x="221.904664" xlink:href="#m4f4dcb0c5d" y="214.450315"/>
     <use style="fill:#ff0000;stroke:#ff0000;" x="222.15574" xlink:href="#m4f4dcb0c5d" y="212.199462"/>
     <use style="fill:#ff0000;stroke:#ff0000;" x="222.406817" xlink:href="#m4f4dcb0c5d" y="212.801585"/>
     <use style="fill:#ff0000;stroke:#ff0000;" x="222.657893" xlink:href="#m4f4dcb0c5d" y="214.639329"/>
     <use style="fill:#ff0000;stroke:#ff0000;" x="222.90897" xlink:href="#m4f4dcb0c5d" y="218.363695"/>
     <use style="fill:#ff0000;stroke:#ff0000;" x="223.160046" xlink:href="#m4f4dcb0c5d" y="220.617259"/>
     <use style="fill:#ff0000;stroke:#ff0000;" x="473.483292" xlink:href="#m4f4dcb0c5d" y="223.570991"/>
     <use style="fill:#ff0000;stroke:#ff0000;" x="473.734368" xlink:href="#m4f4dcb0c5d" y="223.50063"/>
     <use style="fill:#ff0000;stroke:#ff0000;" x="473.985445" xlink:href="#m4f4dcb0c5d" y="223.305093"/>
     <use style="fill:#ff0000;stroke:#ff0000;" x="474.236521" xlink:href="#m4f4dcb0c5d" y="223.613554"/>
     <use style="fill:#ff0000;stroke:#ff0000;" x="474.487598" xlink:href="#m4f4dcb0c5d" y="223.648873"/>
     <use style="fill:#ff0000;stroke:#ff0000;" x="485.534963" xlink:href="#m4f4dcb0c5d" y="223.016355"/>
     <use style="fill:#ff0000;stroke:#ff0000;" x="485.786039" xlink:href="#m4f4dcb0c5d" y="223.137383"/>
     <use style="fill:#ff0000;stroke:#ff0000;" x="486.037116" xlink:href="#m4f4dcb0c5d" y="222.685863"/>
     <use style="fill:#ff0000;stroke:#ff0000;" x="486.288192" xlink:href="#m4f4dcb0c5d" y="222.406483"/>
     <use style="fill:#ff0000;stroke:#ff0000;" x="486.539269" xlink:href="#m4f4dcb0c5d" y="221.952337"/>
     <use style="fill:#ff0000;stroke:#ff0000;" x="486.790345" xlink:href="#m4f4dcb0c5d" y="222.692908"/>
     <use style="fill:#ff0000;stroke:#ff0000;" x="487.041422" xlink:href="#m4f4dcb0c5d" y="222.865983"/>
     <use style="fill:#ff0000;stroke:#ff0000;" x="487.292498" xlink:href="#m4f4dcb0c5d" y="223.854301"/>
    </g>
   </g>
   <g id="matplotlib.axis_1">
    <g id="xtick_1">
     <g id="line2d_1">
      <path clip-path="url(#p2aa7ea0599)" d="M 217.636364 252 
L 217.636364 34.56 
" style="fill:none;stroke:#b0b0b0;stroke-linecap:square;stroke-width:0.8;"/>
     </g>
     <g id="line2d_2">
      <defs>
       <path d="M 0 0 
L 0 -3.5 
" id="m85d5c18acd" style="stroke:#000000;stroke-width:0.8;"/>
      </defs>
      <g>
       <use style="stroke:#000000;stroke-width:0.8;" x="217.636364" xlink:href="#m85d5c18acd" y="252"/>
      </g>
     </g>
     <g id="text_1">
      <!-- 0 -->
      <defs>
       <path d="M 4.15625 35.296875 
Q 4.15625 48 6.765625 55.734375 
Q 9.375 63.484375 14.515625 67.671875 
Q 19.671875 71.875 27.484375 71.875 
Q 33.25 71.875 37.59375 69.546875 
Q 41.9375 67.234375 44.765625 62.859375 
Q 47.609375 58.5 49.21875 52.21875 
Q 50.828125 45.953125 50.828125 35.296875 
Q 50.828125 22.703125 48.234375 14.96875 
Q 45.65625 7.234375 40.5 3 
Q 35.359375 -1.21875 27.484375 -1.21875 
Q 17.140625 -1.21875 11.234375 6.203125 
Q 4.15625 15.140625 4.15625 35.296875 
z
M 13.1875 35.296875 
Q 13.1875 17.671875 17.3125 11.828125 
Q 21.4375 6 27.484375 6 
Q 33.546875 6 37.671875 11.859375 
Q 41.796875 17.71875 41.796875 35.296875 
Q 41.796875 52.984375 37.671875 58.78125 
Q 33.546875 64.59375 27.390625 64.59375 
Q 21.34375 64.59375 17.71875 59.46875 
Q 13.1875 52.9375 13.1875 35.296875 
z
" id="ArialMT-48"/>
      </defs>
      <g transform="translate(210.407145 274.110313)scale(0.26 -0.26)">
       <use xlink:href="#ArialMT-48"/>
      </g>
     </g>
    </g>
    <g id="xtick_2">
     <g id="line2d_3">
      <path clip-path="url(#p2aa7ea0599)" d="M 468.712839 252 
L 468.712839 34.56 
" style="fill:none;stroke:#b0b0b0;stroke-linecap:square;stroke-width:0.8;"/>
     </g>
     <g id="line2d_4">
      <g>
       <use style="stroke:#000000;stroke-width:0.8;" x="468.712839" xlink:href="#m85d5c18acd" y="252"/>
      </g>
     </g>
     <g id="text_2">
      <!-- 1000 -->
      <defs>
       <path d="M 37.25 0 
L 28.46875 0 
L 28.46875 56 
Q 25.296875 52.984375 20.140625 49.953125 
Q 14.984375 46.921875 10.890625 45.40625 
L 10.890625 53.90625 
Q 18.265625 57.375 23.78125 62.296875 
Q 29.296875 67.234375 31.59375 71.875 
L 37.25 71.875 
z
" id="ArialMT-49"/>
      </defs>
      <g transform="translate(439.795964 274.110313)scale(0.26 -0.26)">
       <use xlink:href="#ArialMT-49"/>
       <use x="55.615234" xlink:href="#ArialMT-48"/>
       <use x="111.230469" xlink:href="#ArialMT-48"/>
       <use x="166.845703" xlink:href="#ArialMT-48"/>
      </g>
     </g>
    </g>
    <g id="xtick_3">
     <g id="line2d_5">
      <path clip-path="url(#p2aa7ea0599)" d="M 719.789314 252 
L 719.789314 34.56 
" style="fill:none;stroke:#b0b0b0;stroke-linecap:square;stroke-width:0.8;"/>
     </g>
     <g id="line2d_6">
      <g>
       <use style="stroke:#000000;stroke-width:0.8;" x="719.789314" xlink:href="#m85d5c18acd" y="252"/>
      </g>
     </g>
     <g id="text_3">
      <!-- 2000 -->
      <defs>
       <path d="M 50.34375 8.453125 
L 50.34375 0 
L 3.03125 0 
Q 2.9375 3.171875 4.046875 6.109375 
Q 5.859375 10.9375 9.828125 15.625 
Q 13.8125 20.3125 21.34375 26.46875 
Q 33.015625 36.03125 37.109375 41.625 
Q 41.21875 47.21875 41.21875 52.203125 
Q 41.21875 57.421875 37.46875 61 
Q 33.734375 64.59375 27.734375 64.59375 
Q 21.390625 64.59375 17.578125 60.78125 
Q 13.765625 56.984375 13.71875 50.25 
L 4.6875 51.171875 
Q 5.609375 61.28125 11.65625 66.578125 
Q 17.71875 71.875 27.9375 71.875 
Q 38.234375 71.875 44.234375 66.15625 
Q 50.25 60.453125 50.25 52 
Q 50.25 47.703125 48.484375 43.546875 
Q 46.734375 39.40625 42.65625 34.8125 
Q 38.578125 30.21875 29.109375 22.21875 
Q 21.1875 15.578125 18.9375 13.203125 
Q 16.703125 10.84375 15.234375 8.453125 
z
" id="ArialMT-50"/>
      </defs>
      <g transform="translate(690.872439 274.110313)scale(0.26 -0.26)">
       <use xlink:href="#ArialMT-50"/>
       <use x="55.615234" xlink:href="#ArialMT-48"/>
       <use x="111.230469" xlink:href="#ArialMT-48"/>
       <use x="166.845703" xlink:href="#ArialMT-48"/>
      </g>
     </g>
    </g>
    <g id="xtick_4">
     <g id="line2d_7">
      <path clip-path="url(#p2aa7ea0599)" d="M 970.865789 252 
L 970.865789 34.56 
" style="fill:none;stroke:#b0b0b0;stroke-linecap:square;stroke-width:0.8;"/>
     </g>
     <g id="line2d_8">
      <g>
       <use style="stroke:#000000;stroke-width:0.8;" x="970.865789" xlink:href="#m85d5c18acd" y="252"/>
      </g>
     </g>
     <g id="text_4">
      <!-- 3000 -->
      <defs>
       <path d="M 4.203125 18.890625 
L 12.984375 20.0625 
Q 14.5 12.59375 18.140625 9.296875 
Q 21.78125 6 27 6 
Q 33.203125 6 37.46875 10.296875 
Q 41.75 14.59375 41.75 20.953125 
Q 41.75 27 37.796875 30.921875 
Q 33.84375 34.859375 27.734375 34.859375 
Q 25.25 34.859375 21.53125 33.890625 
L 22.515625 41.609375 
Q 23.390625 41.5 23.921875 41.5 
Q 29.546875 41.5 34.03125 44.421875 
Q 38.53125 47.359375 38.53125 53.46875 
Q 38.53125 58.296875 35.25 61.46875 
Q 31.984375 64.65625 26.8125 64.65625 
Q 21.6875 64.65625 18.265625 61.421875 
Q 14.84375 58.203125 13.875 51.765625 
L 5.078125 53.328125 
Q 6.6875 62.15625 12.390625 67.015625 
Q 18.109375 71.875 26.609375 71.875 
Q 32.46875 71.875 37.390625 69.359375 
Q 42.328125 66.84375 44.9375 62.5 
Q 47.5625 58.15625 47.5625 53.265625 
Q 47.5625 48.640625 45.0625 44.828125 
Q 42.578125 41.015625 37.703125 38.765625 
Q 44.046875 37.3125 47.5625 32.6875 
Q 51.078125 28.078125 51.078125 21.140625 
Q 51.078125 11.765625 44.234375 5.25 
Q 37.40625 -1.265625 26.953125 -1.265625 
Q 17.53125 -1.265625 11.296875 4.34375 
Q 5.078125 9.96875 4.203125 18.890625 
z
" id="ArialMT-51"/>
      </defs>
      <g transform="translate(941.948914 274.110313)scale(0.26 -0.26)">
       <use xlink:href="#ArialMT-51"/>
       <use x="55.615234" xlink:href="#ArialMT-48"/>
       <use x="111.230469" xlink:href="#ArialMT-48"/>
       <use x="166.845703" xlink:href="#ArialMT-48"/>
      </g>
     </g>
    </g>
    <g id="text_5">
     <!-- # sample -->
     <defs>
      <path d="M 5.03125 -1.21875 
L 9.28125 19.578125 
L 1.03125 19.578125 
L 1.03125 26.859375 
L 10.75 26.859375 
L 14.359375 44.578125 
L 1.03125 44.578125 
L 1.03125 51.859375 
L 15.828125 51.859375 
L 20.0625 72.796875 
L 27.390625 72.796875 
L 23.140625 51.859375 
L 38.53125 51.859375 
L 42.78125 72.796875 
L 50.140625 72.796875 
L 45.90625 51.859375 
L 54.34375 51.859375 
L 54.34375 44.578125 
L 44.4375 44.578125 
L 40.765625 26.859375 
L 54.34375 26.859375 
L 54.34375 19.578125 
L 39.3125 19.578125 
L 35.0625 -1.21875 
L 27.734375 -1.21875 
L 31.9375 19.578125 
L 16.609375 19.578125 
L 12.359375 -1.21875 
z
M 18.0625 26.859375 
L 33.40625 26.859375 
L 37.0625 44.578125 
L 21.6875 44.578125 
z
" id="ArialMT-35"/>
      <path id="ArialMT-32"/>
      <path d="M 3.078125 15.484375 
L 11.765625 16.84375 
Q 12.5 11.625 15.84375 8.84375 
Q 19.1875 6.0625 25.203125 6.0625 
Q 31.25 6.0625 34.171875 8.515625 
Q 37.109375 10.984375 37.109375 14.3125 
Q 37.109375 17.28125 34.515625 19 
Q 32.71875 20.171875 25.53125 21.96875 
Q 15.875 24.421875 12.140625 26.203125 
Q 8.40625 27.984375 6.46875 31.125 
Q 4.546875 34.28125 4.546875 38.09375 
Q 4.546875 41.546875 6.125 44.5 
Q 7.71875 47.46875 10.453125 49.421875 
Q 12.5 50.921875 16.03125 51.96875 
Q 19.578125 53.03125 23.640625 53.03125 
Q 29.734375 53.03125 34.34375 51.265625 
Q 38.96875 49.515625 41.15625 46.5 
Q 43.359375 43.5 44.1875 38.484375 
L 35.59375 37.3125 
Q 35.015625 41.3125 32.203125 43.546875 
Q 29.390625 45.796875 24.265625 45.796875 
Q 18.21875 45.796875 15.625 43.796875 
Q 13.03125 41.796875 13.03125 39.109375 
Q 13.03125 37.40625 14.109375 36.03125 
Q 15.1875 34.625 17.484375 33.6875 
Q 18.796875 33.203125 25.25 31.453125 
Q 34.578125 28.953125 38.25 27.359375 
Q 41.9375 25.78125 44.03125 22.75 
Q 46.140625 19.734375 46.140625 15.234375 
Q 46.140625 10.84375 43.578125 6.953125 
Q 41.015625 3.078125 36.171875 0.953125 
Q 31.34375 -1.171875 25.25 -1.171875 
Q 15.140625 -1.171875 9.84375 3.03125 
Q 4.546875 7.234375 3.078125 15.484375 
z
" id="ArialMT-115"/>
      <path d="M 40.4375 6.390625 
Q 35.546875 2.25 31.03125 0.53125 
Q 26.515625 -1.171875 21.34375 -1.171875 
Q 12.796875 -1.171875 8.203125 3 
Q 3.609375 7.171875 3.609375 13.671875 
Q 3.609375 17.484375 5.34375 20.625 
Q 7.078125 23.78125 9.890625 25.6875 
Q 12.703125 27.59375 16.21875 28.5625 
Q 18.796875 29.25 24.03125 29.890625 
Q 34.671875 31.15625 39.703125 32.90625 
Q 39.75 34.71875 39.75 35.203125 
Q 39.75 40.578125 37.25 42.78125 
Q 33.890625 45.75 27.25 45.75 
Q 21.046875 45.75 18.09375 43.578125 
Q 15.140625 41.40625 13.71875 35.890625 
L 5.125 37.0625 
Q 6.296875 42.578125 8.984375 45.96875 
Q 11.671875 49.359375 16.75 51.1875 
Q 21.828125 53.03125 28.515625 53.03125 
Q 35.15625 53.03125 39.296875 51.46875 
Q 43.453125 49.90625 45.40625 47.53125 
Q 47.359375 45.171875 48.140625 41.546875 
Q 48.578125 39.3125 48.578125 33.453125 
L 48.578125 21.734375 
Q 48.578125 9.46875 49.140625 6.21875 
Q 49.703125 2.984375 51.375 0 
L 42.1875 0 
Q 40.828125 2.734375 40.4375 6.390625 
z
M 39.703125 26.03125 
Q 34.90625 24.078125 25.34375 22.703125 
Q 19.921875 21.921875 17.671875 20.9375 
Q 15.4375 19.96875 14.203125 18.09375 
Q 12.984375 16.21875 12.984375 13.921875 
Q 12.984375 10.40625 15.640625 8.0625 
Q 18.3125 5.71875 23.4375 5.71875 
Q 28.515625 5.71875 32.46875 7.9375 
Q 36.421875 10.15625 38.28125 14.015625 
Q 39.703125 17 39.703125 22.796875 
z
" id="ArialMT-97"/>
      <path d="M 6.59375 0 
L 6.59375 51.859375 
L 14.453125 51.859375 
L 14.453125 44.578125 
Q 16.890625 48.390625 20.9375 50.703125 
Q 25 53.03125 30.171875 53.03125 
Q 35.9375 53.03125 39.625 50.640625 
Q 43.3125 48.25 44.828125 43.953125 
Q 50.984375 53.03125 60.84375 53.03125 
Q 68.5625 53.03125 72.703125 48.75 
Q 76.859375 44.484375 76.859375 35.59375 
L 76.859375 0 
L 68.109375 0 
L 68.109375 32.671875 
Q 68.109375 37.9375 67.25 40.25 
Q 66.40625 42.578125 64.15625 43.984375 
Q 61.921875 45.40625 58.890625 45.40625 
Q 53.421875 45.40625 49.796875 41.765625 
Q 46.1875 38.140625 46.1875 30.125 
L 46.1875 0 
L 37.40625 0 
L 37.40625 33.6875 
Q 37.40625 39.546875 35.25 42.46875 
Q 33.109375 45.40625 28.21875 45.40625 
Q 24.515625 45.40625 21.359375 43.453125 
Q 18.21875 41.5 16.796875 37.734375 
Q 15.375 33.984375 15.375 26.90625 
L 15.375 0 
z
" id="ArialMT-109"/>
      <path d="M 6.59375 -19.875 
L 6.59375 51.859375 
L 14.59375 51.859375 
L 14.59375 45.125 
Q 17.4375 49.078125 21 51.046875 
Q 24.5625 53.03125 29.640625 53.03125 
Q 36.28125 53.03125 41.359375 49.609375 
Q 46.4375 46.1875 49.015625 39.953125 
Q 51.609375 33.734375 51.609375 26.3125 
Q 51.609375 18.359375 48.75 11.984375 
Q 45.90625 5.609375 40.453125 2.21875 
Q 35.015625 -1.171875 29 -1.171875 
Q 24.609375 -1.171875 21.109375 0.6875 
Q 17.625 2.546875 15.375 5.375 
L 15.375 -19.875 
z
M 14.546875 25.640625 
Q 14.546875 15.625 18.59375 10.84375 
Q 22.65625 6.0625 28.421875 6.0625 
Q 34.28125 6.0625 38.453125 11.015625 
Q 42.625 15.96875 42.625 26.375 
Q 42.625 36.28125 38.546875 41.203125 
Q 34.46875 46.140625 28.8125 46.140625 
Q 23.1875 46.140625 18.859375 40.890625 
Q 14.546875 35.640625 14.546875 25.640625 
z
" id="ArialMT-112"/>
      <path d="M 6.390625 0 
L 6.390625 71.578125 
L 15.1875 71.578125 
L 15.1875 0 
z
" id="ArialMT-108"/>
      <path d="M 42.09375 16.703125 
L 51.171875 15.578125 
Q 49.03125 7.625 43.21875 3.21875 
Q 37.40625 -1.171875 28.375 -1.171875 
Q 17 -1.171875 10.328125 5.828125 
Q 3.65625 12.84375 3.65625 25.484375 
Q 3.65625 38.578125 10.390625 45.796875 
Q 17.140625 53.03125 27.875 53.03125 
Q 38.28125 53.03125 44.875 45.953125 
Q 51.46875 38.875 51.46875 26.03125 
Q 51.46875 25.25 51.421875 23.6875 
L 12.75 23.6875 
Q 13.234375 15.140625 17.578125 10.59375 
Q 21.921875 6.0625 28.421875 6.0625 
Q 33.25 6.0625 36.671875 8.59375 
Q 40.09375 11.140625 42.09375 16.703125 
z
M 13.234375 30.90625 
L 42.1875 30.90625 
Q 41.609375 37.453125 38.875 40.71875 
Q 34.671875 45.796875 27.984375 45.796875 
Q 21.921875 45.796875 17.796875 41.75 
Q 13.671875 37.703125 13.234375 30.90625 
z
" id="ArialMT-101"/>
     </defs>
     <g transform="translate(541.254531 302.205)scale(0.26 -0.26)">
      <use xlink:href="#ArialMT-35"/>
      <use x="55.615234" xlink:href="#ArialMT-32"/>
      <use x="83.398438" xlink:href="#ArialMT-115"/>
      <use x="133.398438" xlink:href="#ArialMT-97"/>
      <use x="189.013672" xlink:href="#ArialMT-109"/>
      <use x="272.314453" xlink:href="#ArialMT-112"/>
      <use x="327.929688" xlink:href="#ArialMT-108"/>
      <use x="350.146484" xlink:href="#ArialMT-101"/>
     </g>
    </g>
   </g>
   <g id="matplotlib.axis_2">
    <g id="ytick_1">
     <g id="line2d_9">
      <path clip-path="url(#p2aa7ea0599)" d="M 180 242.116435 
L 1008 242.116435 
" style="fill:none;stroke:#b0b0b0;stroke-linecap:square;stroke-width:0.8;"/>
     </g>
     <g id="line2d_10">
      <defs>
       <path d="M 0 0 
L 3.5 0 
" id="m4d478aca61" style="stroke:#000000;stroke-width:0.8;"/>
      </defs>
      <g>
       <use style="stroke:#000000;stroke-width:0.8;" x="180" xlink:href="#m4d478aca61" y="242.116435"/>
      </g>
     </g>
     <g id="text_6">
      <!-- 0 -->
      <g transform="translate(162.041562 251.421591)scale(0.26 -0.26)">
       <use xlink:href="#ArialMT-48"/>
      </g>
     </g>
    </g>
    <g id="ytick_2">
     <g id="line2d_11">
      <path clip-path="url(#p2aa7ea0599)" d="M 180 135.881093 
L 1008 135.881093 
" style="fill:none;stroke:#b0b0b0;stroke-linecap:square;stroke-width:0.8;"/>
     </g>
     <g id="line2d_12">
      <g>
       <use style="stroke:#000000;stroke-width:0.8;" x="180" xlink:href="#m4d478aca61" y="135.881093"/>
      </g>
     </g>
     <g id="text_7">
      <!-- 100 -->
      <g transform="translate(133.124687 145.186249)scale(0.26 -0.26)">
       <use xlink:href="#ArialMT-49"/>
       <use x="55.615234" xlink:href="#ArialMT-48"/>
       <use x="111.230469" xlink:href="#ArialMT-48"/>
      </g>
     </g>
    </g>
    <g id="text_8">
     <!-- Changing ratio (a.u.) -->
     <defs>
      <path d="M 58.796875 25.09375 
L 68.265625 22.703125 
Q 65.28125 11.03125 57.546875 4.90625 
Q 49.8125 -1.21875 38.625 -1.21875 
Q 27.046875 -1.21875 19.796875 3.484375 
Q 12.546875 8.203125 8.765625 17.140625 
Q 4.984375 26.078125 4.984375 36.328125 
Q 4.984375 47.515625 9.25 55.828125 
Q 13.53125 64.15625 21.40625 68.46875 
Q 29.296875 72.796875 38.765625 72.796875 
Q 49.515625 72.796875 56.828125 67.328125 
Q 64.15625 61.859375 67.046875 51.953125 
L 57.71875 49.75 
Q 55.21875 57.5625 50.484375 61.125 
Q 45.75 64.703125 38.578125 64.703125 
Q 30.328125 64.703125 24.78125 60.734375 
Q 19.234375 56.78125 16.984375 50.109375 
Q 14.75 43.453125 14.75 36.375 
Q 14.75 27.25 17.40625 20.4375 
Q 20.0625 13.625 25.671875 10.25 
Q 31.296875 6.890625 37.84375 6.890625 
Q 45.796875 6.890625 51.3125 11.46875 
Q 56.84375 16.0625 58.796875 25.09375 
z
" id="ArialMT-67"/>
      <path d="M 6.59375 0 
L 6.59375 71.578125 
L 15.375 71.578125 
L 15.375 45.90625 
Q 21.53125 53.03125 30.90625 53.03125 
Q 36.671875 53.03125 40.921875 50.75 
Q 45.171875 48.484375 47 44.484375 
Q 48.828125 40.484375 48.828125 32.859375 
L 48.828125 0 
L 40.046875 0 
L 40.046875 32.859375 
Q 40.046875 39.453125 37.1875 42.453125 
Q 34.328125 45.453125 29.109375 45.453125 
Q 25.203125 45.453125 21.75 43.421875 
Q 18.3125 41.40625 16.84375 37.9375 
Q 15.375 34.46875 15.375 28.375 
L 15.375 0 
z
" id="ArialMT-104"/>
      <path d="M 6.59375 0 
L 6.59375 51.859375 
L 14.5 51.859375 
L 14.5 44.484375 
Q 20.21875 53.03125 31 53.03125 
Q 35.6875 53.03125 39.625 51.34375 
Q 43.5625 49.65625 45.515625 46.921875 
Q 47.46875 44.1875 48.25 40.4375 
Q 48.734375 37.984375 48.734375 31.890625 
L 48.734375 0 
L 39.9375 0 
L 39.9375 31.546875 
Q 39.9375 36.921875 38.90625 39.578125 
Q 37.890625 42.234375 35.28125 43.8125 
Q 32.671875 45.40625 29.15625 45.40625 
Q 23.53125 45.40625 19.453125 41.84375 
Q 15.375 38.28125 15.375 28.328125 
L 15.375 0 
z
" id="ArialMT-110"/>
      <path d="M 4.984375 -4.296875 
L 13.53125 -5.5625 
Q 14.0625 -9.515625 16.5 -11.328125 
Q 19.78125 -13.765625 25.4375 -13.765625 
Q 31.546875 -13.765625 34.859375 -11.328125 
Q 38.1875 -8.890625 39.359375 -4.5 
Q 40.046875 -1.8125 39.984375 6.78125 
Q 34.234375 0 25.640625 0 
Q 14.9375 0 9.078125 7.71875 
Q 3.21875 15.4375 3.21875 26.21875 
Q 3.21875 33.640625 5.90625 39.90625 
Q 8.59375 46.1875 13.6875 49.609375 
Q 18.796875 53.03125 25.6875 53.03125 
Q 34.859375 53.03125 40.828125 45.609375 
L 40.828125 51.859375 
L 48.921875 51.859375 
L 48.921875 7.03125 
Q 48.921875 -5.078125 46.453125 -10.125 
Q 44 -15.1875 38.640625 -18.109375 
Q 33.296875 -21.046875 25.484375 -21.046875 
Q 16.21875 -21.046875 10.5 -16.875 
Q 4.78125 -12.703125 4.984375 -4.296875 
z
M 12.25 26.859375 
Q 12.25 16.65625 16.296875 11.96875 
Q 20.359375 7.28125 26.46875 7.28125 
Q 32.515625 7.28125 36.609375 11.9375 
Q 40.71875 16.609375 40.71875 26.5625 
Q 40.71875 36.078125 36.5 40.90625 
Q 32.28125 45.75 26.3125 45.75 
Q 20.453125 45.75 16.34375 40.984375 
Q 12.25 36.234375 12.25 26.859375 
z
" id="ArialMT-103"/>
      <path d="M 6.640625 61.46875 
L 6.640625 71.578125 
L 15.4375 71.578125 
L 15.4375 61.46875 
z
M 6.640625 0 
L 6.640625 51.859375 
L 15.4375 51.859375 
L 15.4375 0 
z
" id="ArialMT-105"/>
      <path d="M 6.5 0 
L 6.5 51.859375 
L 14.40625 51.859375 
L 14.40625 44 
Q 17.4375 49.515625 20 51.265625 
Q 22.5625 53.03125 25.640625 53.03125 
Q 30.078125 53.03125 34.671875 50.203125 
L 31.640625 42.046875 
Q 28.421875 43.953125 25.203125 43.953125 
Q 22.3125 43.953125 20.015625 42.21875 
Q 17.71875 40.484375 16.75 37.40625 
Q 15.28125 32.71875 15.28125 27.15625 
L 15.28125 0 
z
" id="ArialMT-114"/>
      <path d="M 25.78125 7.859375 
L 27.046875 0.09375 
Q 23.34375 -0.6875 20.40625 -0.6875 
Q 15.625 -0.6875 12.984375 0.828125 
Q 10.359375 2.34375 9.28125 4.8125 
Q 8.203125 7.28125 8.203125 15.1875 
L 8.203125 45.015625 
L 1.765625 45.015625 
L 1.765625 51.859375 
L 8.203125 51.859375 
L 8.203125 64.703125 
L 16.9375 69.96875 
L 16.9375 51.859375 
L 25.78125 51.859375 
L 25.78125 45.015625 
L 16.9375 45.015625 
L 16.9375 14.703125 
Q 16.9375 10.9375 17.40625 9.859375 
Q 17.875 8.796875 18.921875 8.15625 
Q 19.96875 7.515625 21.921875 7.515625 
Q 23.390625 7.515625 25.78125 7.859375 
z
" id="ArialMT-116"/>
      <path d="M 3.328125 25.921875 
Q 3.328125 40.328125 11.328125 47.265625 
Q 18.015625 53.03125 27.640625 53.03125 
Q 38.328125 53.03125 45.109375 46.015625 
Q 51.90625 39.015625 51.90625 26.65625 
Q 51.90625 16.65625 48.90625 10.90625 
Q 45.90625 5.171875 40.15625 2 
Q 34.421875 -1.171875 27.640625 -1.171875 
Q 16.75 -1.171875 10.03125 5.8125 
Q 3.328125 12.796875 3.328125 25.921875 
z
M 12.359375 25.921875 
Q 12.359375 15.96875 16.703125 11.015625 
Q 21.046875 6.0625 27.640625 6.0625 
Q 34.1875 6.0625 38.53125 11.03125 
Q 42.875 16.015625 42.875 26.21875 
Q 42.875 35.84375 38.5 40.796875 
Q 34.125 45.75 27.640625 45.75 
Q 21.046875 45.75 16.703125 40.8125 
Q 12.359375 35.890625 12.359375 25.921875 
z
" id="ArialMT-111"/>
      <path d="M 23.390625 -21.046875 
Q 16.109375 -11.859375 11.078125 0.4375 
Q 6.0625 12.75 6.0625 25.921875 
Q 6.0625 37.546875 9.8125 48.1875 
Q 14.203125 60.546875 23.390625 72.796875 
L 29.6875 72.796875 
Q 23.78125 62.640625 21.875 58.296875 
Q 18.890625 51.5625 17.1875 44.234375 
Q 15.09375 35.109375 15.09375 25.875 
Q 15.09375 2.390625 29.6875 -21.046875 
z
" id="ArialMT-40"/>
      <path d="M 9.078125 0 
L 9.078125 10.015625 
L 19.09375 10.015625 
L 19.09375 0 
z
" id="ArialMT-46"/>
      <path d="M 40.578125 0 
L 40.578125 7.625 
Q 34.515625 -1.171875 24.125 -1.171875 
Q 19.53125 -1.171875 15.546875 0.578125 
Q 11.578125 2.34375 9.640625 5 
Q 7.71875 7.671875 6.9375 11.53125 
Q 6.390625 14.109375 6.390625 19.734375 
L 6.390625 51.859375 
L 15.1875 51.859375 
L 15.1875 23.09375 
Q 15.1875 16.21875 15.71875 13.8125 
Q 16.546875 10.359375 19.234375 8.375 
Q 21.921875 6.390625 25.875 6.390625 
Q 29.828125 6.390625 33.296875 8.421875 
Q 36.765625 10.453125 38.203125 13.9375 
Q 39.65625 17.4375 39.65625 24.078125 
L 39.65625 51.859375 
L 48.4375 51.859375 
L 48.4375 0 
z
" id="ArialMT-117"/>
      <path d="M 12.359375 -21.046875 
L 6.0625 -21.046875 
Q 20.65625 2.390625 20.65625 25.875 
Q 20.65625 35.0625 18.5625 44.09375 
Q 16.890625 51.421875 13.921875 58.15625 
Q 12.015625 62.546875 6.0625 72.796875 
L 12.359375 72.796875 
Q 21.53125 60.546875 25.921875 48.1875 
Q 29.6875 37.546875 29.6875 25.921875 
Q 29.6875 12.75 24.625 0.4375 
Q 19.578125 -11.859375 12.359375 -21.046875 
z
" id="ArialMT-41"/>
     </defs>
     <g transform="translate(123.6525 261.781094)rotate(-90)scale(0.26 -0.26)">
      <use xlink:href="#ArialMT-67"/>
      <use x="72.216797" xlink:href="#ArialMT-104"/>
      <use x="127.832031" xlink:href="#ArialMT-97"/>
      <use x="183.447266" xlink:href="#ArialMT-110"/>
      <use x="239.0625" xlink:href="#ArialMT-103"/>
      <use x="294.677734" xlink:href="#ArialMT-105"/>
      <use x="316.894531" xlink:href="#ArialMT-110"/>
      <use x="372.509766" xlink:href="#ArialMT-103"/>
      <use x="428.125" xlink:href="#ArialMT-32"/>
      <use x="455.908203" xlink:href="#ArialMT-114"/>
      <use x="489.208984" xlink:href="#ArialMT-97"/>
      <use x="544.824219" xlink:href="#ArialMT-116"/>
      <use x="572.607422" xlink:href="#ArialMT-105"/>
      <use x="594.824219" xlink:href="#ArialMT-111"/>
      <use x="650.439453" xlink:href="#ArialMT-32"/>
      <use x="678.222656" xlink:href="#ArialMT-40"/>
      <use x="711.523438" xlink:href="#ArialMT-97"/>
      <use x="767.138672" xlink:href="#ArialMT-46"/>
      <use x="794.921875" xlink:href="#ArialMT-117"/>
      <use x="850.537109" xlink:href="#ArialMT-46"/>
      <use x="878.320312" xlink:href="#ArialMT-41"/>
     </g>
    </g>
   </g>
   <g id="line2d_13">
    <path clip-path="url(#p2aa7ea0599)" d="M 217.636364 44.443636 
L 217.88744 143.153544 
L 218.138517 192.352073 
L 218.389593 217.195718 
L 218.64067 229.377813 
L 218.891746 235.47848 
L 219.142822 238.340021 
L 219.393899 239.500544 
L 219.644975 239.95922 
L 219.896052 239.751507 
L 220.147128 238.969926 
L 220.398205 237.627295 
L 220.900358 232.500094 
L 221.151434 229.168682 
L 221.904664 214.450315 
L 222.15574 212.199462 
L 222.406817 212.801585 
L 222.657893 214.639329 
L 223.913276 232.356338 
L 224.666505 237.242355 
L 225.168658 238.909834 
L 225.419734 240.062099 
L 225.670811 239.992793 
L 226.42404 241.217063 
L 226.926193 241.321283 
L 227.17727 241.713094 
L 227.679423 241.322559 
L 227.930499 241.654051 
L 228.432652 241.823599 
L 228.683729 241.726441 
L 228.934805 241.161053 
L 229.185881 241.6133 
L 229.436958 241.110923 
L 229.688034 241.56119 
L 230.190187 241.822984 
L 230.441264 241.622966 
L 230.69234 240.595653 
L 230.943417 241.405223 
L 231.194493 241.359052 
L 231.44557 239.762327 
L 231.696646 241.248743 
L 232.198799 240.376117 
L 232.449876 239.67421 
L 232.700952 239.678979 
L 232.952029 240.664174 
L 233.203105 240.271876 
L 233.454182 240.148762 
L 233.705258 240.193047 
L 233.956335 239.703128 
L 234.207411 238.355735 
L 234.458487 239.923323 
L 234.709564 238.165709 
L 234.96064 239.087795 
L 235.211717 237.851927 
L 235.462793 238.89782 
L 235.71387 238.098094 
L 235.964946 238.105662 
L 236.467099 239.205025 
L 236.969252 237.521818 
L 237.220329 237.10955 
L 237.471405 237.05855 
L 237.722482 236.516803 
L 237.973558 238.387607 
L 238.224635 237.806435 
L 238.475711 238.20212 
L 238.726788 239.612139 
L 238.977864 238.671204 
L 239.228941 239.141462 
L 239.480017 238.640399 
L 239.731093 238.823192 
L 239.98217 239.192991 
L 240.233246 239.202725 
L 240.735399 240.95607 
L 240.986476 240.559297 
L 241.237552 241.037559 
L 241.488629 240.39292 
L 241.739705 240.430863 
L 242.241858 241.428914 
L 242.492935 241.098191 
L 242.744011 240.95556 
L 242.995088 240.444834 
L 243.246164 241.273506 
L 243.748317 242.048726 
L 243.999394 241.849377 
L 244.25047 241.384629 
L 244.501546 241.629395 
L 244.752623 241.374304 
L 245.003699 241.836254 
L 246.008005 241.336514 
L 246.259082 241.584659 
L 246.510158 241.403749 
L 246.761235 241.467353 
L 247.514464 241.1098 
L 247.765541 241.2568 
L 248.016617 240.52533 
L 248.267694 241.405044 
L 248.51877 240.593083 
L 248.769847 241.003935 
L 249.523076 240.723963 
L 249.774152 241.143799 
L 250.025229 239.672635 
L 250.276305 241.409851 
L 250.527382 241.25 
L 250.778458 241.285559 
L 251.029535 241.078962 
L 251.280611 241.640016 
L 251.782764 241.742747 
L 252.033841 241.774877 
L 252.284917 241.593832 
L 252.78707 241.922535 
L 253.038147 241.808632 
L 253.289223 241.968007 
L 253.791376 241.649418 
L 254.042453 242.062728 
L 254.544605 242.041113 
L 254.795682 242.087434 
L 255.046758 241.846779 
L 255.548911 241.999575 
L 256.051064 242.085278 
L 256.553217 242.066971 
L 257.306447 241.922353 
L 257.557523 242.073325 
L 259.566135 242.082296 
L 260.068288 242.053346 
L 260.570441 242.067323 
L 262.579053 242.08999 
L 263.081206 241.917556 
L 263.583359 242.092943 
L 264.085512 242.08453 
L 468.210686 242.115634 
L 468.461762 235.694904 
L 468.712839 234.953626 
L 468.963915 234.730555 
L 470.972527 228.933831 
L 471.223604 228.78773 
L 472.478986 224.440725 
L 473.985445 223.305093 
L 474.236521 223.613554 
L 474.487598 223.648873 
L 474.738674 224.171627 
L 474.989751 224.358503 
L 475.74298 226.154402 
L 475.994057 227.468742 
L 476.245133 227.969288 
L 476.49621 228.937668 
L 476.747286 228.923104 
L 476.998363 230.117537 
L 477.500515 231.528531 
L 478.504821 235.078412 
L 478.755898 235.382484 
L 479.258051 236.713436 
L 479.760204 237.7488 
L 480.01128 238.023651 
L 480.76451 238.212053 
L 481.015586 238.073823 
L 481.266663 237.56618 
L 481.517739 237.424338 
L 482.773121 234.181238 
L 483.275274 231.863426 
L 483.777427 229.807573 
L 484.27958 227.29375 
L 484.530657 226.610175 
L 485.03281 224.619861 
L 485.534963 223.016355 
L 485.786039 223.137383 
L 486.539269 221.952337 
L 486.790345 222.692908 
L 487.041422 222.865983 
L 487.794651 225.426269 
L 488.296804 227.400306 
L 488.798957 229.471157 
L 489.050033 230.380379 
L 489.552186 233.034599 
L 490.054339 235.272176 
L 491.058645 238.111343 
L 491.309722 238.567044 
L 491.811875 238.708543 
L 492.062951 238.605529 
L 492.314028 238.381275 
L 493.318333 236.374169 
L 494.322639 233.308498 
L 494.573716 232.782365 
L 495.075869 230.99076 
L 495.578022 229.344267 
L 495.829098 229.288995 
L 496.080175 228.674684 
L 496.331251 229.029744 
L 497.084481 226.938702 
L 497.586634 227.591893 
L 498.339863 227.572634 
L 498.842016 228.499054 
L 499.093092 228.765484 
L 499.344169 229.601044 
L 499.595245 229.970792 
L 499.846322 230.711453 
L 500.097398 230.8802 
L 500.599551 232.520613 
L 500.850628 232.883483 
L 501.854934 235.501905 
L 503.361392 238.50329 
L 504.365698 239.463445 
L 504.867851 239.362734 
L 505.370004 239.157409 
L 505.621081 238.900639 
L 506.123234 238.056407 
L 507.378616 235.757035 
L 508.382922 233.15472 
L 508.633998 232.721584 
L 508.885075 231.99436 
L 509.387228 231.377367 
L 509.638304 230.817202 
L 510.140457 230.324633 
L 510.391534 230.202145 
L 510.64261 230.889765 
L 511.144763 230.632254 
L 511.39584 231.234891 
L 511.646916 231.448446 
L 512.149069 232.690476 
L 512.400146 232.949768 
L 512.902299 234.376279 
L 513.404451 235.728679 
L 513.906604 237.0001 
L 514.157681 237.373564 
L 514.659834 238.499518 
L 514.91091 238.546272 
L 515.413063 239.290028 
L 516.166293 239.51356 
L 516.668446 239.174733 
L 517.170599 238.95061 
L 517.923828 237.84481 
L 518.174904 237.225766 
L 518.928134 236.399577 
L 519.17921 235.818847 
L 519.430287 235.793909 
L 519.681363 235.203862 
L 519.93244 235.56102 
L 520.183516 234.775429 
L 520.434593 234.427097 
L 520.685669 234.290434 
L 520.936746 234.400579 
L 521.187822 234.191319 
L 521.438899 234.255393 
L 521.689975 233.984694 
L 522.192128 233.914836 
L 522.694281 234.356963 
L 522.945358 234.405825 
L 523.44751 234.989742 
L 523.698587 235.526141 
L 524.20074 235.825566 
L 524.451816 236.042805 
L 524.953969 236.71187 
L 525.205046 236.977104 
L 525.456122 237.451136 
L 525.958275 237.781679 
L 526.460428 238.518714 
L 526.711505 238.712781 
L 527.213658 239.255309 
L 527.464734 239.328007 
L 527.966887 239.800585 
L 528.720116 240.110504 
L 529.724422 239.934478 
L 530.477652 239.455054 
L 531.230881 238.764377 
L 531.481958 238.619713 
L 531.984111 237.907732 
L 532.235187 237.735521 
L 532.988417 236.771128 
L 533.741646 236.294581 
L 534.745952 235.709608 
L 534.997028 235.443253 
L 535.248105 235.886993 
L 535.499181 235.877384 
L 535.750258 236.354418 
L 536.001334 236.268088 
L 536.252411 236.59279 
L 536.503487 236.634179 
L 537.00564 237.311916 
L 537.256717 237.546023 
L 537.507793 238.013397 
L 537.75887 237.98531 
L 538.009946 238.138082 
L 538.512099 238.7275 
L 539.014252 239.223888 
L 539.516405 239.590164 
L 539.767481 239.845544 
L 540.269634 239.973431 
L 540.771787 239.941025 
L 541.27394 239.917307 
L 542.02717 239.719428 
L 542.278246 239.497004 
L 542.529323 239.633064 
L 543.282552 239.123788 
L 543.533628 238.85478 
L 543.784705 238.879294 
L 544.035781 238.526774 
L 544.286858 238.663241 
L 544.537934 238.398237 
L 544.789011 238.329757 
L 545.040087 237.976309 
L 545.291164 238.200795 
L 547.299776 237.871444 
L 548.053005 238.381899 
L 548.304082 238.323455 
L 549.057311 238.76135 
L 549.308387 238.706504 
L 549.81054 239.096982 
L 550.061617 239.156554 
L 550.56377 239.527535 
L 551.065923 239.937069 
L 551.568076 240.019296 
L 551.819152 240.23136 
L 552.070229 240.236572 
L 552.321305 240.434792 
L 554.07884 240.632624 
L 555.585299 240.236616 
L 556.087452 239.903583 
L 557.593911 239.247137 
L 558.096064 238.909661 
L 558.598217 238.761801 
L 559.10037 238.741419 
L 559.602523 238.573276 
L 559.853599 238.837635 
L 560.104676 238.698594 
L 560.355752 238.729476 
L 560.606829 238.645449 
L 561.108982 238.864981 
L 561.360058 238.910664 
L 561.611135 239.289432 
L 562.113288 239.161922 
L 562.866517 239.654533 
L 563.36867 239.701709 
L 563.870823 239.917176 
L 564.121899 240.081042 
L 564.875129 240.124597 
L 565.377282 240.269833 
L 565.628358 240.287409 
L 565.879435 240.445745 
L 566.130511 240.24568 
L 566.883741 240.338211 
L 568.641276 240.077023 
L 568.892352 240.097123 
L 569.143429 239.940929 
L 569.896658 239.946314 
L 570.147735 239.817102 
L 570.649888 239.908552 
L 570.900964 239.809425 
L 571.152041 239.921541 
L 571.403117 239.899471 
L 571.654194 239.991677 
L 572.156347 239.724321 
L 572.6585 239.887711 
L 572.909576 239.965613 
L 573.411729 239.970519 
L 573.662806 240.169471 
L 573.913882 240.087431 
L 574.918188 240.332098 
L 575.420341 240.351713 
L 575.671417 240.490406 
L 575.922494 240.473795 
L 576.17357 240.568769 
L 576.424647 240.532202 
L 576.675723 240.66054 
L 576.9268 240.627128 
L 577.680029 240.791657 
L 577.931106 240.774726 
L 578.182182 240.918731 
L 578.935411 240.830225 
L 579.437564 240.9455 
L 579.688641 240.78938 
L 580.190794 240.812349 
L 580.44187 240.686231 
L 580.692947 240.813017 
L 580.944023 240.664956 
L 581.948329 240.540184 
L 582.199406 240.450667 
L 582.450482 240.491953 
L 583.203712 240.181049 
L 583.705865 240.192563 
L 584.71017 240.183724 
L 585.212323 239.983177 
L 585.965553 240.245948 
L 587.220935 240.280853 
L 587.472012 240.365001 
L 587.974165 240.330207 
L 589.229547 240.382748 
L 590.736006 240.487452 
L 590.987082 240.510258 
L 591.238159 240.390361 
L 591.991388 240.442631 
L 592.242465 240.365018 
L 592.744618 240.546002 
L 592.995694 240.368018 
L 593.246771 240.571696 
L 593.497847 240.498865 
L 593.748924 240.542726 
L 594 240.459015 
L 594.251076 240.574904 
L 594.502153 240.470829 
L 595.255382 240.565336 
L 596.008612 240.631265 
L 596.510765 240.685024 
L 596.761841 240.579306 
L 597.012918 240.673264 
L 597.515071 240.534286 
L 597.766147 240.707499 
L 598.519377 240.570132 
L 599.02153 240.728687 
L 599.272606 240.68537 
L 599.523682 240.811564 
L 600.025835 240.666631 
L 600.779065 240.80145 
L 602.034447 240.802937 
L 602.285524 240.899488 
L 602.5366 240.827184 
L 602.787677 240.902086 
L 603.038753 240.782291 
L 603.791983 240.894904 
L 604.043059 240.786553 
L 604.545212 240.816966 
L 604.796288 240.749488 
L 605.549518 240.805297 
L 606.302747 240.802722 
L 606.553824 240.64927 
L 607.55813 240.760089 
L 614.086118 240.309273 
L 614.337194 240.469924 
L 614.839347 240.407169 
L 615.090424 240.252286 
L 615.3415 240.32102 
L 615.592577 240.230182 
L 615.843653 240.303245 
L 616.09473 240.247171 
L 616.345806 240.368133 
L 616.596883 240.358746 
L 617.099036 240.227986 
L 617.350112 240.179016 
L 617.601189 240.399947 
L 618.103342 240.359786 
L 618.605495 240.335013 
L 620.36303 240.163338 
L 620.865183 240.133646 
L 621.869489 239.99113 
L 623.124871 239.927744 
L 623.375948 239.718686 
L 624.129177 239.71461 
L 624.882406 239.653481 
L 625.384559 239.854862 
L 626.137789 239.745953 
L 626.639942 239.961027 
L 626.891018 239.795835 
L 627.142095 239.975532 
L 627.393171 239.866119 
L 628.146401 240.084811 
L 628.397477 239.916743 
L 628.648554 240.171843 
L 628.89963 240.203986 
L 629.150707 240.092003 
L 629.652859 240.297806 
L 630.155012 240.245475 
L 630.657165 240.417007 
L 631.159318 240.353542 
L 631.661471 240.503443 
L 631.912548 240.335837 
L 632.665777 240.265245 
L 633.419007 240.139743 
L 634.172236 239.88056 
L 634.423313 239.865054 
L 634.925465 239.565668 
L 635.427618 239.526426 
L 635.678695 239.301119 
L 635.929771 239.364198 
L 636.431924 239.111608 
L 636.683001 239.175901 
L 637.687307 238.943557 
L 638.440536 239.022927 
L 638.691613 239.110709 
L 638.942689 239.044368 
L 639.193766 239.208579 
L 639.444842 239.123013 
L 639.695918 239.238494 
L 639.946995 239.138163 
L 640.198071 239.439025 
L 640.449148 239.536115 
L 640.700224 239.47129 
L 640.951301 239.928114 
L 641.453454 239.850271 
L 641.955607 240.251771 
L 642.45776 240.399296 
L 643.210989 240.689734 
L 643.964219 240.70535 
L 644.466372 240.706299 
L 644.717448 240.704754 
L 644.968524 240.516781 
L 645.219601 240.578868 
L 645.470677 240.432828 
L 645.721754 240.417356 
L 646.72606 239.623187 
L 646.977136 239.516922 
L 647.479289 239.102105 
L 647.730366 239.01978 
L 648.232519 238.533026 
L 648.734672 238.279884 
L 648.985748 237.995563 
L 649.236825 237.902443 
L 649.738978 237.613175 
L 649.990054 237.652696 
L 650.24113 237.55676 
L 650.492207 237.828559 
L 650.743283 237.617824 
L 651.245436 237.952325 
L 651.496513 237.996626 
L 651.747589 238.241773 
L 651.998666 238.305281 
L 652.249742 238.728779 
L 652.751895 239.127518 
L 653.254048 239.629146 
L 654.258354 240.465595 
L 654.509431 240.719779 
L 656.266966 241.105419 
L 657.522348 240.689483 
L 658.526654 240.004534 
L 659.028807 239.648347 
L 660.284189 238.995736 
L 660.535266 239.035217 
L 660.786342 238.926517 
L 661.037419 238.682546 
L 661.288495 238.771399 
L 661.790648 238.665941 
L 662.041725 238.747304 
L 662.292801 238.67867 
L 662.543878 238.964772 
L 663.046031 238.968957 
L 663.297107 239.093024 
L 663.548184 239.427634 
L 663.79926 239.334047 
L 664.050337 239.585359 
L 664.55249 239.718891 
L 664.803566 239.854876 
L 665.054642 240.128456 
L 665.556795 240.28481 
L 666.561101 240.872094 
L 667.314331 241.297141 
L 668.06756 241.366532 
L 668.569713 241.461761 
L 669.825096 241.255271 
L 670.076172 241.092009 
L 670.327248 241.096771 
L 671.331554 240.42163 
L 671.833707 240.167333 
L 672.33586 239.782158 
L 672.586937 239.756915 
L 672.838013 239.423328 
L 673.340166 239.192099 
L 673.591243 239.008649 
L 673.842319 239.153999 
L 674.344472 238.947479 
L 674.595549 239.006471 
L 674.846625 239.211898 
L 675.097701 239.100673 
L 675.348778 239.303588 
L 675.599854 239.308667 
L 675.850931 239.544256 
L 676.102007 239.549824 
L 677.35739 240.566097 
L 677.859543 240.843162 
L 678.612772 241.322583 
L 679.114925 241.551209 
L 679.868155 241.607878 
L 680.621384 241.528721 
L 682.378919 240.952453 
L 683.132149 240.531424 
L 683.383225 240.62899 
L 683.634302 240.36844 
L 684.136455 240.34528 
L 684.387531 240.12961 
L 684.638608 240.064154 
L 685.140761 240.115143 
L 685.642913 240.093138 
L 685.89399 239.994191 
L 687.400449 240.325782 
L 687.651525 240.24948 
L 688.153678 240.611941 
L 688.655831 240.67215 
L 688.906908 240.795181 
L 689.157984 240.757989 
L 689.660137 240.982841 
L 691.166596 241.497773 
L 693.426284 241.647266 
L 698.196737 240.191226 
L 698.69889 240.347242 
L 698.949967 240.319749 
L 699.45212 240.461749 
L 699.703196 240.46095 
L 699.954273 240.602977 
L 700.205349 240.584259 
L 700.456425 240.789884 
L 700.707502 240.722376 
L 702.716114 241.415306 
L 703.72042 241.620942 
L 704.724726 241.632941 
L 705.477955 241.609 
L 706.482261 241.458953 
L 706.733337 241.365431 
L 706.984414 241.399968 
L 707.737643 241.194143 
L 711.001637 240.945028 
L 711.252714 241.039133 
L 711.50379 240.986377 
L 711.754867 241.207519 
L 712.25702 241.101465 
L 716.52532 241.742485 
L 717.278549 241.718262 
L 718.031779 241.758006 
L 719.287161 241.571911 
L 720.040391 240.773296 
L 720.291467 238.878127 
L 720.542544 231.84488 
L 720.79362 239.959569 
L 721.044696 239.602123 
L 721.295773 240.52086 
L 721.546849 238.038452 
L 721.797926 241.165312 
L 722.049002 240.755483 
L 722.300079 238.406154 
L 722.551155 241.482358 
L 723.053308 236.59576 
L 723.304385 228.766524 
L 723.555461 239.794294 
L 723.806538 238.778875 
L 724.057614 234.75957 
L 724.308691 239.902722 
L 724.559767 236.283244 
L 724.810844 240.875876 
L 725.06192 241.177942 
L 725.312997 239.179695 
L 725.564073 240.992664 
L 725.815149 238.015962 
L 726.066226 236.607156 
L 726.317302 239.869078 
L 726.819455 240.44614 
L 727.070532 239.144839 
L 727.321608 232.317076 
L 727.572685 240.714932 
L 727.823761 238.898896 
L 728.325914 241.354212 
L 728.576991 241.93859 
L 728.828067 237.963664 
L 729.079144 238.793916 
L 729.33022 234.362521 
L 729.581297 240.897024 
L 729.832373 239.694679 
L 730.08345 237.261207 
L 730.334526 232.251805 
L 730.585603 237.997123 
L 730.836679 239.860405 
L 731.087755 237.204873 
L 731.338832 240.707501 
L 731.589908 241.722904 
L 731.840985 241.207315 
L 732.092061 233.282132 
L 732.343138 237.108649 
L 732.594214 237.785598 
L 732.845291 241.665404 
L 733.096367 238.416766 
L 733.347444 239.266906 
L 733.59852 240.934863 
L 733.849597 240.127332 
L 734.100673 241.519563 
L 734.35175 240.394185 
L 734.853903 232.402125 
L 735.104979 237.926063 
L 735.356056 238.61772 
L 735.858209 238.757182 
L 736.109285 240.902534 
L 736.360361 236.254504 
L 736.862514 240.287715 
L 737.364667 238.696524 
L 737.615744 241.152788 
L 737.86682 239.867564 
L 738.117897 237.072017 
L 738.62005 241.689437 
L 738.871126 239.012722 
L 739.122203 239.76554 
L 739.624356 238.453305 
L 739.875432 238.586407 
L 740.126509 239.865449 
L 740.628662 240.794367 
L 740.879738 235.788401 
L 741.130814 241.10424 
L 741.381891 240.297397 
L 741.632967 240.952968 
L 741.884044 238.36511 
L 742.386197 241.628953 
L 742.637273 238.232128 
L 742.88835 241.405614 
L 743.390503 234.201437 
L 743.641579 241.656745 
L 743.892656 239.340314 
L 744.143732 239.832471 
L 744.394809 238.83483 
L 744.645885 239.840266 
L 744.896962 241.895204 
L 745.148038 229.992319 
L 745.399115 241.618541 
L 745.650191 240.10157 
L 745.901268 236.781846 
L 746.152344 241.693132 
L 746.40342 237.104517 
L 746.654497 238.488218 
L 746.905573 237.438689 
L 747.15665 239.789344 
L 747.658803 236.136261 
L 747.909879 240.190331 
L 748.160956 240.234192 
L 748.412032 240.831526 
L 748.663109 237.517525 
L 749.165262 241.885005 
L 749.416338 236.886713 
L 749.667415 239.876971 
L 749.918491 240.914129 
L 750.169568 239.951615 
L 750.420644 238.262767 
L 750.671721 240.185814 
L 750.922797 239.986829 
L 751.173873 231.719266 
L 751.42495 240.681566 
L 751.676026 240.381524 
L 751.927103 237.35802 
L 752.178179 239.486593 
L 752.680332 241.943146 
L 752.931409 241.925421 
L 753.182485 236.432178 
L 753.433562 240.403058 
L 753.684638 235.62002 
L 753.935715 238.674459 
L 754.186791 239.528713 
L 754.437868 239.010448 
L 754.940021 240.301304 
L 755.191097 240.751014 
L 755.442174 239.299826 
L 755.69325 239.533019 
L 755.944327 241.969328 
L 756.195403 240.820101 
L 756.446479 237.614797 
L 756.697556 238.355651 
L 756.948632 241.414389 
L 757.199709 240.289322 
L 757.450785 241.276873 
L 757.701862 238.09152 
L 757.952938 237.742519 
L 758.204015 240.07838 
L 758.455091 240.313491 
L 758.706168 238.136805 
L 758.957244 240.53009 
L 759.208321 241.367986 
L 759.459397 239.73831 
L 759.710474 241.269101 
L 760.212627 237.658925 
L 760.463703 241.05773 
L 760.71478 241.902234 
L 760.965856 240.994208 
L 761.216933 241.438697 
L 761.468009 236.920397 
L 761.719085 240.979815 
L 761.970162 240.921424 
L 762.221238 240.194684 
L 762.472315 241.086859 
L 762.723391 230.61452 
L 762.974468 241.682023 
L 763.225544 239.728185 
L 763.476621 231.693483 
L 763.727697 241.007297 
L 763.978774 237.342062 
L 764.22985 237.506337 
L 764.480927 240.140208 
L 764.732003 239.499084 
L 764.98308 236.769189 
L 765.234156 240.550965 
L 765.485233 238.234796 
L 765.736309 241.515807 
L 765.987386 238.803128 
L 766.238462 240.385537 
L 766.489538 239.536205 
L 766.740615 240.82727 
L 766.991691 238.679981 
L 767.242768 241.70654 
L 767.493844 233.4965 
L 767.744921 238.862165 
L 767.995997 241.235259 
L 768.247074 240.352785 
L 768.49815 237.690241 
L 768.749227 239.653738 
L 769.000303 237.95304 
L 769.502456 241.640852 
L 769.753533 239.947551 
L 770.004609 241.554697 
L 770.255686 235.592544 
L 770.506762 239.441563 
L 770.757839 241.030836 
L 771.008915 235.967011 
L 771.259992 236.030299 
L 771.511068 241.881608 
L 771.762144 236.380245 
L 772.013221 236.477054 
L 772.264297 241.412306 
L 772.515374 241.440003 
L 772.76645 240.892708 
L 773.017527 239.953196 
L 773.268603 241.811522 
L 773.51968 232.764446 
L 773.770756 240.489045 
L 774.021833 228.593857 
L 774.272909 241.575421 
L 774.523986 240.89431 
L 774.775062 238.906014 
L 775.026139 239.360504 
L 775.277215 239.162651 
L 775.528292 239.959769 
L 775.779368 242.068165 
L 776.030445 241.185802 
L 776.281521 236.11413 
L 776.532597 239.584518 
L 776.783674 240.933242 
L 777.03475 240.17505 
L 777.285827 241.683518 
L 777.536903 239.34419 
L 778.039056 241.870427 
L 778.290133 239.732308 
L 778.541209 240.421363 
L 778.792286 239.666831 
L 779.043362 239.944181 
L 779.294439 239.06242 
L 779.545515 240.828173 
L 779.796592 238.265755 
L 780.047668 241.612733 
L 780.298745 240.505763 
L 780.549821 235.551761 
L 780.800898 236.423276 
L 781.051974 241.804415 
L 781.303051 241.059789 
L 781.554127 240.746336 
L 781.805203 241.682973 
L 782.05628 241.693529 
L 782.307356 235.684042 
L 782.558433 241.721172 
L 782.809509 238.628433 
L 783.060586 241.570969 
L 783.311662 238.607825 
L 783.562739 238.179985 
L 783.813815 241.768957 
L 784.064892 236.897531 
L 784.315968 240.729968 
L 784.567045 241.775192 
L 784.818121 235.940144 
L 785.069198 239.063213 
L 785.320274 235.850642 
L 785.571351 239.251688 
L 785.822427 238.822411 
L 786.073504 237.956386 
L 786.32458 235.467383 
L 786.575656 240.584137 
L 786.826733 237.662199 
L 787.077809 241.722253 
L 787.328886 237.878 
L 787.579962 239.400099 
L 787.831039 239.851598 
L 788.082115 241.435003 
L 788.333192 239.639043 
L 788.584268 239.400592 
L 788.835345 240.798324 
L 789.086421 241.044828 
L 789.337498 237.927548 
L 789.588574 237.970855 
L 789.839651 237.748305 
L 790.090727 238.081922 
L 790.341804 238.066632 
L 790.59288 238.324349 
L 790.843957 241.821639 
L 791.095033 236.65382 
L 791.34611 241.508768 
L 791.597186 241.006335 
L 791.848262 241.616673 
L 792.099339 238.761598 
L 792.350415 239.085987 
L 792.601492 235.07122 
L 792.852568 240.017714 
L 793.103645 241.740348 
L 793.354721 234.472715 
L 793.605798 240.223913 
L 793.856874 239.864669 
L 794.107951 240.260812 
L 794.610104 233.840269 
L 795.112257 240.610489 
L 795.363333 226.371719 
L 795.61441 240.718728 
L 795.865486 237.895783 
L 796.116563 240.767153 
L 796.367639 235.151089 
L 796.618716 240.750017 
L 796.869792 240.007402 
L 797.120868 239.796641 
L 797.371945 241.601816 
L 797.623021 240.422716 
L 797.874098 238.232791 
L 798.125174 241.342987 
L 798.627327 238.584417 
L 799.12948 234.078819 
L 799.380557 239.267818 
L 799.631633 236.881045 
L 799.88271 236.782901 
L 800.133786 240.982595 
L 800.384863 240.940907 
L 800.635939 241.052994 
L 800.887016 238.487475 
L 801.138092 239.47665 
L 801.640245 236.937365 
L 801.891321 239.204201 
L 802.142398 240.144132 
L 802.393474 240.556815 
L 802.644551 239.108624 
L 803.39778 241.169962 
L 803.899933 242.087482 
L 804.15101 239.551208 
L 804.402086 240.902506 
L 804.653163 238.550954 
L 804.904239 237.864991 
L 805.155316 240.738248 
L 805.406392 239.96034 
L 805.657469 237.226481 
L 805.908545 241.962842 
L 806.159622 231.386158 
L 806.410698 240.157148 
L 806.661775 242.021744 
L 806.912851 239.515111 
L 807.163927 229.977063 
L 807.415004 241.358406 
L 807.66608 235.685817 
L 807.917157 240.961702 
L 808.168233 241.078041 
L 808.41931 239.781133 
L 808.670386 236.017942 
L 808.921463 241.343377 
L 809.172539 240.308336 
L 809.423616 241.158759 
L 809.674692 241.574172 
L 809.925769 241.168508 
L 810.176845 238.314108 
L 810.427922 241.382936 
L 810.678998 240.679973 
L 810.930075 237.43917 
L 811.181151 237.047019 
L 811.432228 237.633311 
L 811.683304 240.343634 
L 811.93438 236.611546 
L 812.185457 236.14524 
L 812.436533 237.714811 
L 812.68761 236.096943 
L 812.938686 235.486779 
L 813.440839 239.596692 
L 813.942992 236.571588 
L 814.194069 239.514451 
L 814.445145 239.320984 
L 814.696222 237.964139 
L 814.947298 240.483835 
L 815.198375 241.011021 
L 815.449451 238.603262 
L 815.700528 240.615771 
L 816.202681 241.457798 
L 816.453757 234.754851 
L 816.704834 239.05146 
L 816.95591 241.295481 
L 817.206986 241.165898 
L 817.458063 238.717974 
L 817.709139 238.892341 
L 817.960216 237.828105 
L 818.211292 241.083979 
L 818.462369 239.197096 
L 818.713445 238.482666 
L 818.964522 233.758345 
L 819.215598 235.441748 
L 819.466675 241.200759 
L 819.717751 234.257144 
L 819.968828 239.333197 
L 820.219904 239.54218 
L 820.470981 239.582828 
L 820.722057 234.408309 
L 820.973134 234.65154 
L 821.22421 240.656558 
L 821.475287 241.112596 
L 821.726363 236.956599 
L 821.97744 237.738867 
L 822.228516 239.582209 
L 822.730669 240.613116 
L 822.981745 235.672474 
L 823.232822 233.789002 
L 823.483898 235.439899 
L 823.734975 239.801416 
L 823.986051 237.775242 
L 824.237128 233.980156 
L 824.488204 240.67478 
L 824.739281 241.27392 
L 824.990357 235.529556 
L 825.241434 241.610117 
L 825.743587 236.104151 
L 825.994663 239.574721 
L 826.24574 237.705919 
L 826.496816 239.636855 
L 826.747893 233.438425 
L 826.998969 241.561258 
L 827.250045 238.007216 
L 827.501122 241.183464 
L 827.752198 241.732004 
L 828.003275 238.794891 
L 828.254351 239.999736 
L 828.505428 236.281311 
L 828.756504 235.836275 
L 829.007581 235.683285 
L 829.258657 240.090233 
L 829.76081 235.761909 
L 830.011887 242.038459 
L 830.262963 241.2834 
L 830.765116 240.715424 
L 831.016193 239.602974 
L 831.267269 234.155488 
L 831.518346 239.202455 
L 831.769422 236.840168 
L 832.020499 239.6363 
L 832.522651 239.598191 
L 832.773728 241.399337 
L 833.024804 238.14385 
L 833.275881 241.320928 
L 833.526957 241.578871 
L 833.778034 241.540786 
L 834.02911 236.983491 
L 834.280187 241.927169 
L 834.531263 235.718651 
L 834.78234 240.896193 
L 835.033416 239.539757 
L 835.284493 234.628498 
L 835.786646 240.648772 
L 836.037722 227.378928 
L 836.288799 240.733283 
L 836.539875 240.306549 
L 836.790952 240.798531 
L 837.042028 236.78962 
L 837.293104 236.142074 
L 837.544181 240.514315 
L 837.795257 238.977985 
L 838.046334 241.143986 
L 838.548487 226.16654 
L 838.799563 240.226654 
L 839.05064 227.04872 
L 839.301716 236.369129 
L 839.552793 239.674205 
L 839.803869 238.418853 
L 840.054946 240.008364 
L 840.306022 239.911698 
L 840.557099 240.162721 
L 840.808175 240.239609 
L 841.310328 230.581519 
L 841.812481 240.801332 
L 842.063558 241.474672 
L 842.314634 241.620724 
L 842.56571 239.431031 
L 842.816787 241.690079 
L 843.067863 241.118852 
L 843.821093 238.102662 
L 844.072169 240.107347 
L 844.323246 239.925368 
L 844.574322 239.917558 
L 844.825399 234.185774 
L 845.076475 240.235751 
L 845.327552 240.389154 
L 845.578628 239.522802 
L 845.829705 239.264196 
L 846.080781 241.755932 
L 846.331858 236.627908 
L 846.582934 239.90105 
L 846.834011 240.675601 
L 847.085087 239.365731 
L 847.336164 241.060095 
L 847.58724 240.127197 
L 847.838316 238.654099 
L 848.089393 240.480146 
L 848.591546 237.617011 
L 848.842622 240.183344 
L 849.093699 239.659428 
L 849.344775 241.4517 
L 849.595852 241.747906 
L 849.846928 236.896823 
L 850.098005 241.416412 
L 850.349081 241.11259 
L 850.600158 241.62799 
L 850.851234 241.468488 
L 851.102311 241.734401 
L 851.353387 241.235614 
L 851.604464 233.585854 
L 851.85554 232.974097 
L 852.106617 240.121689 
L 852.357693 238.551263 
L 852.608769 238.488832 
L 852.859846 241.658716 
L 853.110922 241.108119 
L 853.361999 236.058756 
L 853.864152 240.850328 
L 854.115228 234.909598 
L 854.366305 237.703253 
L 854.617381 237.053245 
L 854.868458 239.583204 
L 855.119534 239.436931 
L 855.370611 239.5187 
L 855.621687 240.519044 
L 855.872764 239.733717 
L 856.12384 234.462419 
L 856.374917 240.126947 
L 856.625993 238.926708 
L 856.87707 240.327721 
L 857.128146 236.698663 
L 857.379223 239.751891 
L 857.630299 240.825299 
L 857.881375 240.920601 
L 858.132452 241.914834 
L 858.383528 238.984666 
L 858.634605 241.384674 
L 858.885681 234.92948 
L 859.136758 239.461103 
L 859.387834 241.327729 
L 859.638911 241.421184 
L 860.141064 236.666854 
L 860.39214 240.589334 
L 860.643217 241.468649 
L 860.894293 239.059338 
L 861.396446 241.235606 
L 861.647523 240.70271 
L 861.898599 229.93054 
L 862.149676 237.204619 
L 862.400752 235.13456 
L 862.651828 241.155993 
L 862.902905 241.687894 
L 863.153981 241.784059 
L 863.405058 241.199976 
L 863.656134 239.518274 
L 863.907211 241.128134 
L 864.158287 238.405687 
L 864.409364 237.755314 
L 864.911517 237.386475 
L 865.162593 240.958624 
L 865.41367 241.823224 
L 865.664746 241.728795 
L 865.915823 239.898411 
L 866.417976 240.67542 
L 866.669052 240.755896 
L 866.920129 241.286452 
L 867.171205 240.959016 
L 867.422282 240.288257 
L 867.673358 235.496569 
L 867.924434 240.198164 
L 868.175511 238.317992 
L 868.426587 241.350833 
L 868.677664 236.698586 
L 868.92874 240.507336 
L 869.179817 240.142401 
L 869.430893 236.00081 
L 869.68197 240.015654 
L 869.933046 234.954449 
L 870.184123 240.106205 
L 870.435199 239.899989 
L 870.686276 238.663508 
L 870.937352 233.944354 
L 871.188429 240.69375 
L 871.439505 241.468925 
L 871.941658 239.212392 
L 872.192735 241.278916 
L 872.443811 238.764795 
L 872.694888 237.961346 
L 872.945964 237.952233 
L 873.19704 241.077278 
L 873.448117 241.245119 
L 873.699193 241.996364 
L 873.95027 241.120699 
L 874.201346 238.312624 
L 874.452423 234.214641 
L 874.703499 235.378374 
L 874.954576 240.833252 
L 875.205652 241.874467 
L 875.456729 239.177809 
L 875.707805 241.689914 
L 875.958882 238.560871 
L 876.209958 240.646514 
L 876.461035 238.874529 
L 876.712111 240.722502 
L 876.963188 241.059598 
L 877.214264 234.746649 
L 877.465341 241.573692 
L 877.716417 239.868305 
L 877.967493 236.895681 
L 878.21857 241.596067 
L 878.469646 241.63971 
L 878.720723 236.074377 
L 878.971799 241.355013 
L 879.222876 238.598249 
L 879.725029 241.944569 
L 879.976105 241.405761 
L 880.227182 241.766542 
L 880.478258 241.127715 
L 880.729335 237.967451 
L 880.980411 241.991225 
L 881.231488 241.617312 
L 881.482564 239.735387 
L 881.733641 240.81433 
L 881.984717 240.805274 
L 882.235794 241.729102 
L 882.48687 239.772212 
L 882.737947 241.648738 
L 882.989023 241.738658 
L 883.240099 237.963439 
L 883.491176 240.264039 
L 883.742252 240.290525 
L 883.993329 240.16852 
L 884.244405 239.860803 
L 884.495482 240.146158 
L 884.746558 241.639415 
L 884.997635 241.546356 
L 885.248711 241.832108 
L 885.499788 241.342871 
L 885.750864 236.393573 
L 886.001941 239.719334 
L 886.253017 238.763117 
L 886.504094 239.168042 
L 886.75517 241.072919 
L 887.006247 235.053737 
L 887.257323 240.532695 
L 887.5084 237.347733 
L 887.759476 239.568455 
L 888.010552 240.612533 
L 888.261629 237.382936 
L 888.512705 240.799856 
L 888.763782 241.763513 
L 889.014858 241.402637 
L 889.265935 239.712244 
L 889.517011 239.144371 
L 889.768088 239.610476 
L 890.019164 238.560731 
L 890.270241 241.281915 
L 890.521317 239.372889 
L 890.772394 240.807139 
L 891.02347 241.476475 
L 891.274547 240.021918 
L 891.525623 233.128953 
L 891.7767 238.865375 
L 892.027776 238.868972 
L 892.278853 241.260277 
L 892.529929 240.829279 
L 892.781006 239.353014 
L 893.032082 239.126844 
L 893.283158 236.875158 
L 893.534235 241.466134 
L 893.785311 240.643307 
L 894.036388 236.14204 
L 894.287464 239.962411 
L 894.538541 241.612399 
L 894.789617 240.549434 
L 895.040694 240.895943 
L 895.29177 236.571383 
L 895.542847 240.404882 
L 895.793923 239.003722 
L 896.296076 241.79779 
L 896.798229 239.094222 
L 897.049306 240.481168 
L 897.551459 236.307595 
L 897.802535 241.514547 
L 898.053611 240.541821 
L 898.304688 240.638936 
L 898.555764 240.909493 
L 898.806841 238.534854 
L 899.057917 242.066494 
L 899.308994 240.100283 
L 899.56007 241.394149 
L 899.811147 241.632855 
L 900.062223 242.09936 
L 900.3133 240.545525 
L 900.564376 241.54437 
L 900.815453 241.256696 
L 901.066529 240.229473 
L 901.317606 236.548828 
L 901.568682 238.28621 
L 901.819759 235.565856 
L 902.070835 240.922017 
L 902.321912 236.462215 
L 902.572988 241.250367 
L 902.824065 240.971732 
L 903.075141 241.864813 
L 903.326217 239.59803 
L 903.577294 241.249148 
L 903.82837 240.066596 
L 904.079447 241.898507 
L 904.5816 241.524317 
L 905.083753 241.120974 
L 905.334829 237.748067 
L 905.585906 240.015333 
L 905.836982 241.246404 
L 906.088059 240.927202 
L 906.339135 240.084211 
L 906.590212 241.54392 
L 906.841288 240.427847 
L 907.092365 241.860148 
L 907.594518 241.016954 
L 907.845594 238.543398 
L 908.096671 240.820096 
L 908.347747 240.22634 
L 908.598823 241.012262 
L 908.8499 238.310798 
L 909.100976 241.256347 
L 909.603129 239.866654 
L 909.854206 239.771896 
L 910.356359 241.991949 
L 910.607435 237.008712 
L 910.858512 241.677665 
L 911.360665 239.021776 
L 911.611741 237.541758 
L 911.862818 241.353571 
L 912.113894 241.017934 
L 912.364971 240.099821 
L 912.616047 241.454889 
L 912.867124 237.810024 
L 913.1182 241.53118 
L 913.369276 239.636889 
L 913.620353 239.451171 
L 913.871429 242.079765 
L 914.122506 237.229059 
L 914.373582 242.017705 
L 914.624659 237.550461 
L 914.875735 241.680528 
L 915.126812 240.27386 
L 915.377888 240.623688 
L 915.628965 240.44183 
L 915.880041 240.945168 
L 916.131118 240.653436 
L 916.382194 240.951365 
L 916.633271 240.255694 
L 917.135424 242.024022 
L 917.3865 239.797187 
L 917.637577 241.137469 
L 917.888653 240.605078 
L 918.390806 238.468636 
L 919.144035 242.026407 
L 919.646188 238.690512 
L 919.897265 241.778334 
L 920.148341 236.17703 
L 920.399418 241.504039 
L 920.650494 236.65213 
L 920.901571 240.872573 
L 921.152647 239.501316 
L 921.403724 241.231431 
L 921.6548 240.750476 
L 921.905877 241.46902 
L 922.156953 240.774102 
L 922.40803 240.922572 
L 922.659106 241.445153 
L 922.910183 236.669515 
L 923.161259 240.46483 
L 923.412335 239.234115 
L 923.663412 242.066852 
L 923.914488 239.92776 
L 924.165565 241.963207 
L 924.416641 241.367585 
L 924.667718 241.421115 
L 924.918794 238.278222 
L 925.169871 240.244971 
L 925.420947 239.907779 
L 925.672024 240.545109 
L 925.9231 236.570412 
L 926.425253 241.711517 
L 926.67633 240.590067 
L 926.927406 241.357064 
L 927.178483 241.032614 
L 927.429559 241.565077 
L 927.680636 237.874458 
L 927.931712 240.634527 
L 928.182789 241.410397 
L 928.433865 241.063103 
L 928.684941 240.073303 
L 928.936018 241.16481 
L 929.187094 241.680295 
L 929.438171 240.918647 
L 929.689247 241.812856 
L 929.940324 239.818209 
L 930.1914 240.940536 
L 930.442477 241.004432 
L 930.693553 240.216659 
L 930.94463 240.458524 
L 931.195706 240.95937 
L 931.446783 240.760762 
L 931.697859 240.814586 
L 931.948936 241.434961 
L 932.200012 241.365129 
L 932.451089 240.590929 
L 932.702165 237.237911 
L 932.953242 238.836306 
L 933.204318 241.671237 
L 933.455395 241.336846 
L 933.706471 236.12325 
L 933.957547 237.959509 
L 934.208624 241.638492 
L 934.710777 238.957778 
L 935.21293 242.019947 
L 935.464006 241.186194 
L 935.715083 241.04587 
L 935.966159 239.165254 
L 936.468312 241.616791 
L 936.719389 239.562623 
L 936.970465 241.599576 
L 937.221542 242.091187 
L 937.472618 241.82206 
L 937.723695 239.074963 
L 937.974771 241.923341 
L 938.225848 241.273463 
L 938.476924 241.810994 
L 938.979077 236.472232 
L 939.230153 241.071116 
L 939.48123 241.075974 
L 939.732306 241.778825 
L 939.983383 240.458316 
L 940.234459 241.972142 
L 940.485536 240.480438 
L 940.736612 240.559817 
L 940.987689 239.181723 
L 941.238765 241.705843 
L 941.489842 239.782492 
L 941.740918 239.431029 
L 941.991995 239.708423 
L 942.243071 239.765335 
L 942.494148 238.143339 
L 942.996301 241.760135 
L 943.247377 239.290964 
L 943.498454 241.219062 
L 944.000606 239.317068 
L 944.251683 237.792453 
L 944.502759 241.543585 
L 944.753836 240.900351 
L 945.004912 241.423653 
L 945.255989 240.160537 
L 945.507065 241.817564 
L 945.758142 241.393255 
L 946.260295 239.453208 
L 946.511371 241.883721 
L 947.013524 240.656133 
L 947.264601 240.677035 
L 947.515677 241.026842 
L 947.766754 239.923146 
L 948.01783 240.030379 
L 948.268907 241.918061 
L 948.519983 240.183935 
L 948.771059 240.490168 
L 949.022136 241.413578 
L 949.273212 240.503157 
L 949.524289 241.597666 
L 949.775365 241.624518 
L 950.026442 241.392671 
L 950.528595 237.38848 
L 950.779671 241.810271 
L 951.030748 241.774823 
L 951.281824 241.615709 
L 951.532901 240.709841 
L 951.783977 241.8229 
L 952.035054 239.887383 
L 952.28613 237.015042 
L 952.537207 240.256346 
L 952.788283 240.398616 
L 953.03936 239.89156 
L 953.290436 241.953403 
L 953.541513 239.906844 
L 953.792589 241.237518 
L 954.043665 240.256803 
L 954.294742 240.369588 
L 954.545818 241.361665 
L 954.796895 238.980203 
L 955.299048 241.088367 
L 955.550124 240.615845 
L 955.801201 239.331055 
L 956.303354 238.294815 
L 956.55443 241.188579 
L 956.805507 240.316208 
L 957.056583 241.962533 
L 957.30766 240.022523 
L 957.558736 241.783195 
L 957.809813 241.658443 
L 958.311966 238.013283 
L 958.563042 240.434307 
L 958.814119 240.915791 
L 959.065195 237.041611 
L 959.316271 237.807902 
L 959.567348 232.572246 
L 959.818424 238.57817 
L 960.069501 239.895361 
L 960.320577 232.068349 
L 960.571654 238.879774 
L 960.82273 241.569739 
L 961.073807 241.160897 
L 961.324883 240.371052 
L 961.57596 241.334635 
L 962.078113 240.964695 
L 962.329189 234.407246 
L 962.580266 239.430278 
L 962.831342 232.250344 
L 963.082419 241.911254 
L 963.333495 238.347581 
L 963.584572 241.255227 
L 963.835648 241.420928 
L 964.086724 238.640986 
L 964.588877 241.078531 
L 964.839954 241.418348 
L 965.09103 235.99822 
L 965.342107 239.842666 
L 965.593183 240.93163 
L 965.84426 241.19226 
L 966.095336 236.434697 
L 966.346413 240.096483 
L 966.597489 241.286586 
L 966.848566 240.898462 
L 967.099642 241.083796 
L 967.350719 239.655863 
L 967.601795 241.634618 
L 967.852872 239.4395 
L 968.103948 241.027578 
L 968.355025 241.756985 
L 968.606101 239.819789 
L 968.857178 238.943255 
L 969.108254 241.498288 
L 969.610407 235.890345 
L 969.861483 236.426925 
L 970.11256 239.450769 
L 970.363636 239.185383 
L 970.363636 239.185383 
" style="fill:none;stroke:#1f77b4;stroke-linecap:square;stroke-width:1.5;"/>
   </g>
   <g id="patch_3">
    <path d="M 180 252 
L 180 34.56 
" style="fill:none;stroke:#000000;stroke-linecap:square;stroke-linejoin:miter;stroke-width:0.8;"/>
   </g>
   <g id="patch_4">
    <path d="M 1008 252 
L 1008 34.56 
" style="fill:none;stroke:#000000;stroke-linecap:square;stroke-linejoin:miter;stroke-width:0.8;"/>
   </g>
   <g id="patch_5">
    <path d="M 180 252 
L 1008 252 
" style="fill:none;stroke:#000000;stroke-linecap:square;stroke-linejoin:miter;stroke-width:0.8;"/>
   </g>
   <g id="patch_6">
    <path d="M 180 34.56 
L 1008 34.56 
" style="fill:none;stroke:#000000;stroke-linecap:square;stroke-linejoin:miter;stroke-width:0.8;"/>
   </g>
   <g id="legend_1">
    <g id="PathCollection_2">
     <g>
      <use style="fill:#ff0000;stroke:#ff0000;" x="1085.8" xlink:href="#m4f4dcb0c5d" y="56.745312"/>
     </g>
    </g>
    <g id="text_9">
     <!-- &gt; mean + 3SD -->
     <defs>
      <path d="M 52.875 31.296875 
L 5.46875 11.03125 
L 5.46875 19.78125 
L 43.015625 35.359375 
L 5.46875 50.78125 
L 5.46875 59.515625 
L 52.875 39.5 
z
" id="ArialMT-62"/>
      <path d="M 25.046875 11.578125 
L 25.046875 31.203125 
L 5.5625 31.203125 
L 5.5625 39.40625 
L 25.046875 39.40625 
L 25.046875 58.890625 
L 33.34375 58.890625 
L 33.34375 39.40625 
L 52.828125 39.40625 
L 52.828125 31.203125 
L 33.34375 31.203125 
L 33.34375 11.578125 
z
" id="ArialMT-43"/>
      <path d="M 4.5 23 
L 13.421875 23.78125 
Q 14.0625 18.40625 16.375 14.96875 
Q 18.703125 11.53125 23.578125 9.40625 
Q 28.46875 7.28125 34.578125 7.28125 
Q 39.984375 7.28125 44.140625 8.890625 
Q 48.296875 10.5 50.3125 13.296875 
Q 52.34375 16.109375 52.34375 19.4375 
Q 52.34375 22.796875 50.390625 25.3125 
Q 48.4375 27.828125 43.953125 29.546875 
Q 41.0625 30.671875 31.203125 33.03125 
Q 21.34375 35.40625 17.390625 37.5 
Q 12.25 40.1875 9.734375 44.15625 
Q 7.234375 48.140625 7.234375 53.078125 
Q 7.234375 58.5 10.296875 63.203125 
Q 13.375 67.921875 19.28125 70.359375 
Q 25.203125 72.796875 32.421875 72.796875 
Q 40.375 72.796875 46.453125 70.234375 
Q 52.546875 67.671875 55.8125 62.6875 
Q 59.078125 57.71875 59.328125 51.421875 
L 50.25 50.734375 
Q 49.515625 57.515625 45.28125 60.984375 
Q 41.0625 64.453125 32.8125 64.453125 
Q 24.21875 64.453125 20.28125 61.296875 
Q 16.359375 58.15625 16.359375 53.71875 
Q 16.359375 49.859375 19.140625 47.359375 
Q 21.875 44.875 33.421875 42.265625 
Q 44.96875 39.65625 49.265625 37.703125 
Q 55.515625 34.8125 58.484375 30.390625 
Q 61.46875 25.984375 61.46875 20.21875 
Q 61.46875 14.5 58.203125 9.4375 
Q 54.9375 4.390625 48.796875 1.578125 
Q 42.671875 -1.21875 35.015625 -1.21875 
Q 25.296875 -1.21875 18.71875 1.609375 
Q 12.15625 4.4375 8.421875 10.125 
Q 4.6875 15.828125 4.5 23 
z
" id="ArialMT-83"/>
      <path d="M 7.71875 0 
L 7.71875 71.578125 
L 32.375 71.578125 
Q 40.71875 71.578125 45.125 70.5625 
Q 51.265625 69.140625 55.609375 65.4375 
Q 61.28125 60.640625 64.078125 53.1875 
Q 66.890625 45.75 66.890625 36.1875 
Q 66.890625 28.03125 64.984375 21.734375 
Q 63.09375 15.4375 60.109375 11.296875 
Q 57.125 7.171875 53.578125 4.796875 
Q 50.046875 2.4375 45.046875 1.21875 
Q 40.046875 0 33.546875 0 
z
M 17.1875 8.453125 
L 32.46875 8.453125 
Q 39.546875 8.453125 43.578125 9.765625 
Q 47.609375 11.078125 50 13.484375 
Q 53.375 16.84375 55.25 22.53125 
Q 57.125 28.21875 57.125 36.328125 
Q 57.125 47.5625 53.4375 53.59375 
Q 49.75 59.625 44.484375 61.671875 
Q 40.671875 63.140625 32.234375 63.140625 
L 17.1875 63.140625 
z
" id="ArialMT-68"/>
     </defs>
     <g transform="translate(1132.6 63.570312)scale(0.26 -0.26)">
      <use xlink:href="#ArialMT-62"/>
      <use x="58.398438" xlink:href="#ArialMT-32"/>
      <use x="86.181641" xlink:href="#ArialMT-109"/>
      <use x="169.482422" xlink:href="#ArialMT-101"/>
      <use x="225.097656" xlink:href="#ArialMT-97"/>
      <use x="280.712891" xlink:href="#ArialMT-110"/>
      <use x="336.328125" xlink:href="#ArialMT-32"/>
      <use x="364.111328" xlink:href="#ArialMT-43"/>
      <use x="422.509766" xlink:href="#ArialMT-32"/>
      <use x="450.292969" xlink:href="#ArialMT-51"/>
      <use x="505.908203" xlink:href="#ArialMT-83"/>
      <use x="572.607422" xlink:href="#ArialMT-68"/>
     </g>
    </g>
   </g>
  </g>
 </g>
 <defs>
  <clipPath id="p2aa7ea0599">
   <rect height="217.44" width="828" x="180" y="34.56"/>
  </clipPath>
 </defs>
</svg>
