<?xml version="1.0" encoding="utf-8" standalone="no"?>
<!DOCTYPE svg PUBLIC "-//W3C//DTD SVG 1.1//EN"
  "http://www.w3.org/Graphics/SVG/1.1/DTD/svg11.dtd">
<!-- Created with matplotlib (https://matplotlib.org/) -->
<svg height="294.724844pt" version="1.1" viewBox="0 0 1252.01075 294.724844" width="1252.01075pt" xmlns="http://www.w3.org/2000/svg" xmlns:xlink="http://www.w3.org/1999/xlink">
 <defs>
  <style type="text/css">
*{stroke-linecap:butt;stroke-linejoin:round;}
  </style>
 </defs>
 <g id="figure_1">
  <g id="patch_1">
   <path d="M 0 294.724844 
L 1252.01075 294.724844 
L 1252.01075 0 
L 0 0 
z
" style="fill:#ffffff;"/>
  </g>
  <g id="axes_1">
   <g id="patch_2">
    <path d="M 114.1595 228.652344 
L 942.1595 228.652344 
L 942.1595 11.212344 
L 114.1595 11.212344 
z
" style="fill:#ffffff;"/>
   </g>
   <g id="PathCollection_1">
    <defs>
     <path d="M 0 3 
C 0.795609 3 1.55874 2.683901 2.12132 2.12132 
C 2.683901 1.55874 3 0.795609 3 0 
C 3 -0.795609 2.683901 -1.55874 2.12132 -2.12132 
C 1.55874 -2.683901 0.795609 -3 0 -3 
C -0.795609 -3 -1.55874 -2.683901 -2.12132 -2.12132 
C -2.683901 -1.55874 -3 -0.795609 -3 0 
C -3 0.795609 -2.683901 1.55874 -2.12132 2.12132 
C -1.55874 2.683901 -0.795609 3 0 3 
z
" id="m5ec5c6f6e1" style="stroke:#ff0000;"/>
    </defs>
    <g clip-path="url(#p4b66e284fd)">
     <use style="fill:#ff0000;stroke:#ff0000;" x="151.795864" xlink:href="#m5ec5c6f6e1" y="21.09598"/>
     <use style="fill:#ff0000;stroke:#ff0000;" x="152.04694" xlink:href="#m5ec5c6f6e1" y="119.521949"/>
     <use style="fill:#ff0000;stroke:#ff0000;" x="152.298017" xlink:href="#m5ec5c6f6e1" y="168.586129"/>
     <use style="fill:#ff0000;stroke:#ff0000;" x="152.549093" xlink:href="#m5ec5c6f6e1" y="193.132786"/>
     <use style="fill:#ff0000;stroke:#ff0000;" x="155.562011" xlink:href="#m5ec5c6f6e1" y="199.382106"/>
     <use style="fill:#ff0000;stroke:#ff0000;" x="155.813087" xlink:href="#m5ec5c6f6e1" y="192.782814"/>
     <use style="fill:#ff0000;stroke:#ff0000;" x="156.064164" xlink:href="#m5ec5c6f6e1" y="189.101556"/>
     <use style="fill:#ff0000;stroke:#ff0000;" x="156.31524" xlink:href="#m5ec5c6f6e1" y="189.217919"/>
     <use style="fill:#ff0000;stroke:#ff0000;" x="156.566317" xlink:href="#m5ec5c6f6e1" y="186.331156"/>
     <use style="fill:#ff0000;stroke:#ff0000;" x="156.817393" xlink:href="#m5ec5c6f6e1" y="191.341039"/>
     <use style="fill:#ff0000;stroke:#ff0000;" x="157.06847" xlink:href="#m5ec5c6f6e1" y="194.607592"/>
     <use style="fill:#ff0000;stroke:#ff0000;" x="157.319546" xlink:href="#m5ec5c6f6e1" y="197.705471"/>
     <use style="fill:#ff0000;stroke:#ff0000;" x="157.570623" xlink:href="#m5ec5c6f6e1" y="201.008395"/>
     <use style="fill:#ff0000;stroke:#ff0000;" x="402.621262" xlink:href="#m5ec5c6f6e1" y="200.555457"/>
     <use style="fill:#ff0000;stroke:#ff0000;" x="403.123415" xlink:href="#m5ec5c6f6e1" y="201.172927"/>
    </g>
   </g>
   <g id="matplotlib.axis_1">
    <g id="xtick_1">
     <g id="line2d_1">
      <path clip-path="url(#p4b66e284fd)" d="M 151.795864 228.652344 
L 151.795864 11.212344 
" style="fill:none;stroke:#b0b0b0;stroke-linecap:square;stroke-width:0.8;"/>
     </g>
     <g id="line2d_2">
      <defs>
       <path d="M 0 0 
L 0 3.5 
" id="m92e2b1c8da" style="stroke:#000000;stroke-width:0.8;"/>
      </defs>
      <g>
       <use style="stroke:#000000;stroke-width:0.8;" x="151.795864" xlink:href="#m92e2b1c8da" y="228.652344"/>
      </g>
     </g>
     <g id="text_1">
      <!-- 0 -->
      <defs>
       <path d="M 4.15625 35.296875 
Q 4.15625 48 6.765625 55.734375 
Q 9.375 63.484375 14.515625 67.671875 
Q 19.671875 71.875 27.484375 71.875 
Q 33.25 71.875 37.59375 69.546875 
Q 41.9375 67.234375 44.765625 62.859375 
Q 47.609375 58.5 49.21875 52.21875 
Q 50.828125 45.953125 50.828125 35.296875 
Q 50.828125 22.703125 48.234375 14.96875 
Q 45.65625 7.234375 40.5 3 
Q 35.359375 -1.21875 27.484375 -1.21875 
Q 17.140625 -1.21875 11.234375 6.203125 
Q 4.15625 15.140625 4.15625 35.296875 
z
M 13.1875 35.296875 
Q 13.1875 17.671875 17.3125 11.828125 
Q 21.4375 6 27.484375 6 
Q 33.546875 6 37.671875 11.859375 
Q 41.796875 17.71875 41.796875 35.296875 
Q 41.796875 52.984375 37.671875 58.78125 
Q 33.546875 64.59375 27.390625 64.59375 
Q 21.34375 64.59375 17.71875 59.46875 
Q 13.1875 52.9375 13.1875 35.296875 
z
" id="ArialMT-48"/>
      </defs>
      <g transform="translate(144.566645 254.262656)scale(0.26 -0.26)">
       <use xlink:href="#ArialMT-48"/>
      </g>
     </g>
    </g>
    <g id="xtick_2">
     <g id="line2d_3">
      <path clip-path="url(#p4b66e284fd)" d="M 402.872339 228.652344 
L 402.872339 11.212344 
" style="fill:none;stroke:#b0b0b0;stroke-linecap:square;stroke-width:0.8;"/>
     </g>
     <g id="line2d_4">
      <g>
       <use style="stroke:#000000;stroke-width:0.8;" x="402.872339" xlink:href="#m92e2b1c8da" y="228.652344"/>
      </g>
     </g>
     <g id="text_2">
      <!-- 1000 -->
      <defs>
       <path d="M 37.25 0 
L 28.46875 0 
L 28.46875 56 
Q 25.296875 52.984375 20.140625 49.953125 
Q 14.984375 46.921875 10.890625 45.40625 
L 10.890625 53.90625 
Q 18.265625 57.375 23.78125 62.296875 
Q 29.296875 67.234375 31.59375 71.875 
L 37.25 71.875 
z
" id="ArialMT-49"/>
      </defs>
      <g transform="translate(373.955464 254.262656)scale(0.26 -0.26)">
       <use xlink:href="#ArialMT-49"/>
       <use x="55.615234" xlink:href="#ArialMT-48"/>
       <use x="111.230469" xlink:href="#ArialMT-48"/>
       <use x="166.845703" xlink:href="#ArialMT-48"/>
      </g>
     </g>
    </g>
    <g id="xtick_3">
     <g id="line2d_5">
      <path clip-path="url(#p4b66e284fd)" d="M 653.948814 228.652344 
L 653.948814 11.212344 
" style="fill:none;stroke:#b0b0b0;stroke-linecap:square;stroke-width:0.8;"/>
     </g>
     <g id="line2d_6">
      <g>
       <use style="stroke:#000000;stroke-width:0.8;" x="653.948814" xlink:href="#m92e2b1c8da" y="228.652344"/>
      </g>
     </g>
     <g id="text_3">
      <!-- 2000 -->
      <defs>
       <path d="M 50.34375 8.453125 
L 50.34375 0 
L 3.03125 0 
Q 2.9375 3.171875 4.046875 6.109375 
Q 5.859375 10.9375 9.828125 15.625 
Q 13.8125 20.3125 21.34375 26.46875 
Q 33.015625 36.03125 37.109375 41.625 
Q 41.21875 47.21875 41.21875 52.203125 
Q 41.21875 57.421875 37.46875 61 
Q 33.734375 64.59375 27.734375 64.59375 
Q 21.390625 64.59375 17.578125 60.78125 
Q 13.765625 56.984375 13.71875 50.25 
L 4.6875 51.171875 
Q 5.609375 61.28125 11.65625 66.578125 
Q 17.71875 71.875 27.9375 71.875 
Q 38.234375 71.875 44.234375 66.15625 
Q 50.25 60.453125 50.25 52 
Q 50.25 47.703125 48.484375 43.546875 
Q 46.734375 39.40625 42.65625 34.8125 
Q 38.578125 30.21875 29.109375 22.21875 
Q 21.1875 15.578125 18.9375 13.203125 
Q 16.703125 10.84375 15.234375 8.453125 
z
" id="ArialMT-50"/>
      </defs>
      <g transform="translate(625.031939 254.262656)scale(0.26 -0.26)">
       <use xlink:href="#ArialMT-50"/>
       <use x="55.615234" xlink:href="#ArialMT-48"/>
       <use x="111.230469" xlink:href="#ArialMT-48"/>
       <use x="166.845703" xlink:href="#ArialMT-48"/>
      </g>
     </g>
    </g>
    <g id="xtick_4">
     <g id="line2d_7">
      <path clip-path="url(#p4b66e284fd)" d="M 905.025289 228.652344 
L 905.025289 11.212344 
" style="fill:none;stroke:#b0b0b0;stroke-linecap:square;stroke-width:0.8;"/>
     </g>
     <g id="line2d_8">
      <g>
       <use style="stroke:#000000;stroke-width:0.8;" x="905.025289" xlink:href="#m92e2b1c8da" y="228.652344"/>
      </g>
     </g>
     <g id="text_4">
      <!-- 3000 -->
      <defs>
       <path d="M 4.203125 18.890625 
L 12.984375 20.0625 
Q 14.5 12.59375 18.140625 9.296875 
Q 21.78125 6 27 6 
Q 33.203125 6 37.46875 10.296875 
Q 41.75 14.59375 41.75 20.953125 
Q 41.75 27 37.796875 30.921875 
Q 33.84375 34.859375 27.734375 34.859375 
Q 25.25 34.859375 21.53125 33.890625 
L 22.515625 41.609375 
Q 23.390625 41.5 23.921875 41.5 
Q 29.546875 41.5 34.03125 44.421875 
Q 38.53125 47.359375 38.53125 53.46875 
Q 38.53125 58.296875 35.25 61.46875 
Q 31.984375 64.65625 26.8125 64.65625 
Q 21.6875 64.65625 18.265625 61.421875 
Q 14.84375 58.203125 13.875 51.765625 
L 5.078125 53.328125 
Q 6.6875 62.15625 12.390625 67.015625 
Q 18.109375 71.875 26.609375 71.875 
Q 32.46875 71.875 37.390625 69.359375 
Q 42.328125 66.84375 44.9375 62.5 
Q 47.5625 58.15625 47.5625 53.265625 
Q 47.5625 48.640625 45.0625 44.828125 
Q 42.578125 41.015625 37.703125 38.765625 
Q 44.046875 37.3125 47.5625 32.6875 
Q 51.078125 28.078125 51.078125 21.140625 
Q 51.078125 11.765625 44.234375 5.25 
Q 37.40625 -1.265625 26.953125 -1.265625 
Q 17.53125 -1.265625 11.296875 4.34375 
Q 5.078125 9.96875 4.203125 18.890625 
z
" id="ArialMT-51"/>
      </defs>
      <g transform="translate(876.108414 254.262656)scale(0.26 -0.26)">
       <use xlink:href="#ArialMT-51"/>
       <use x="55.615234" xlink:href="#ArialMT-48"/>
       <use x="111.230469" xlink:href="#ArialMT-48"/>
       <use x="166.845703" xlink:href="#ArialMT-48"/>
      </g>
     </g>
    </g>
    <g id="text_5">
     <!-- # sample -->
     <defs>
      <path d="M 5.03125 -1.21875 
L 9.28125 19.578125 
L 1.03125 19.578125 
L 1.03125 26.859375 
L 10.75 26.859375 
L 14.359375 44.578125 
L 1.03125 44.578125 
L 1.03125 51.859375 
L 15.828125 51.859375 
L 20.0625 72.796875 
L 27.390625 72.796875 
L 23.140625 51.859375 
L 38.53125 51.859375 
L 42.78125 72.796875 
L 50.140625 72.796875 
L 45.90625 51.859375 
L 54.34375 51.859375 
L 54.34375 44.578125 
L 44.4375 44.578125 
L 40.765625 26.859375 
L 54.34375 26.859375 
L 54.34375 19.578125 
L 39.3125 19.578125 
L 35.0625 -1.21875 
L 27.734375 -1.21875 
L 31.9375 19.578125 
L 16.609375 19.578125 
L 12.359375 -1.21875 
z
M 18.0625 26.859375 
L 33.40625 26.859375 
L 37.0625 44.578125 
L 21.6875 44.578125 
z
" id="ArialMT-35"/>
      <path id="ArialMT-32"/>
      <path d="M 3.078125 15.484375 
L 11.765625 16.84375 
Q 12.5 11.625 15.84375 8.84375 
Q 19.1875 6.0625 25.203125 6.0625 
Q 31.25 6.0625 34.171875 8.515625 
Q 37.109375 10.984375 37.109375 14.3125 
Q 37.109375 17.28125 34.515625 19 
Q 32.71875 20.171875 25.53125 21.96875 
Q 15.875 24.421875 12.140625 26.203125 
Q 8.40625 27.984375 6.46875 31.125 
Q 4.546875 34.28125 4.546875 38.09375 
Q 4.546875 41.546875 6.125 44.5 
Q 7.71875 47.46875 10.453125 49.421875 
Q 12.5 50.921875 16.03125 51.96875 
Q 19.578125 53.03125 23.640625 53.03125 
Q 29.734375 53.03125 34.34375 51.265625 
Q 38.96875 49.515625 41.15625 46.5 
Q 43.359375 43.5 44.1875 38.484375 
L 35.59375 37.3125 
Q 35.015625 41.3125 32.203125 43.546875 
Q 29.390625 45.796875 24.265625 45.796875 
Q 18.21875 45.796875 15.625 43.796875 
Q 13.03125 41.796875 13.03125 39.109375 
Q 13.03125 37.40625 14.109375 36.03125 
Q 15.1875 34.625 17.484375 33.6875 
Q 18.796875 33.203125 25.25 31.453125 
Q 34.578125 28.953125 38.25 27.359375 
Q 41.9375 25.78125 44.03125 22.75 
Q 46.140625 19.734375 46.140625 15.234375 
Q 46.140625 10.84375 43.578125 6.953125 
Q 41.015625 3.078125 36.171875 0.953125 
Q 31.34375 -1.171875 25.25 -1.171875 
Q 15.140625 -1.171875 9.84375 3.03125 
Q 4.546875 7.234375 3.078125 15.484375 
z
" id="ArialMT-115"/>
      <path d="M 40.4375 6.390625 
Q 35.546875 2.25 31.03125 0.53125 
Q 26.515625 -1.171875 21.34375 -1.171875 
Q 12.796875 -1.171875 8.203125 3 
Q 3.609375 7.171875 3.609375 13.671875 
Q 3.609375 17.484375 5.34375 20.625 
Q 7.078125 23.78125 9.890625 25.6875 
Q 12.703125 27.59375 16.21875 28.5625 
Q 18.796875 29.25 24.03125 29.890625 
Q 34.671875 31.15625 39.703125 32.90625 
Q 39.75 34.71875 39.75 35.203125 
Q 39.75 40.578125 37.25 42.78125 
Q 33.890625 45.75 27.25 45.75 
Q 21.046875 45.75 18.09375 43.578125 
Q 15.140625 41.40625 13.71875 35.890625 
L 5.125 37.0625 
Q 6.296875 42.578125 8.984375 45.96875 
Q 11.671875 49.359375 16.75 51.1875 
Q 21.828125 53.03125 28.515625 53.03125 
Q 35.15625 53.03125 39.296875 51.46875 
Q 43.453125 49.90625 45.40625 47.53125 
Q 47.359375 45.171875 48.140625 41.546875 
Q 48.578125 39.3125 48.578125 33.453125 
L 48.578125 21.734375 
Q 48.578125 9.46875 49.140625 6.21875 
Q 49.703125 2.984375 51.375 0 
L 42.1875 0 
Q 40.828125 2.734375 40.4375 6.390625 
z
M 39.703125 26.03125 
Q 34.90625 24.078125 25.34375 22.703125 
Q 19.921875 21.921875 17.671875 20.9375 
Q 15.4375 19.96875 14.203125 18.09375 
Q 12.984375 16.21875 12.984375 13.921875 
Q 12.984375 10.40625 15.640625 8.0625 
Q 18.3125 5.71875 23.4375 5.71875 
Q 28.515625 5.71875 32.46875 7.9375 
Q 36.421875 10.15625 38.28125 14.015625 
Q 39.703125 17 39.703125 22.796875 
z
" id="ArialMT-97"/>
      <path d="M 6.59375 0 
L 6.59375 51.859375 
L 14.453125 51.859375 
L 14.453125 44.578125 
Q 16.890625 48.390625 20.9375 50.703125 
Q 25 53.03125 30.171875 53.03125 
Q 35.9375 53.03125 39.625 50.640625 
Q 43.3125 48.25 44.828125 43.953125 
Q 50.984375 53.03125 60.84375 53.03125 
Q 68.5625 53.03125 72.703125 48.75 
Q 76.859375 44.484375 76.859375 35.59375 
L 76.859375 0 
L 68.109375 0 
L 68.109375 32.671875 
Q 68.109375 37.9375 67.25 40.25 
Q 66.40625 42.578125 64.15625 43.984375 
Q 61.921875 45.40625 58.890625 45.40625 
Q 53.421875 45.40625 49.796875 41.765625 
Q 46.1875 38.140625 46.1875 30.125 
L 46.1875 0 
L 37.40625 0 
L 37.40625 33.6875 
Q 37.40625 39.546875 35.25 42.46875 
Q 33.109375 45.40625 28.21875 45.40625 
Q 24.515625 45.40625 21.359375 43.453125 
Q 18.21875 41.5 16.796875 37.734375 
Q 15.375 33.984375 15.375 26.90625 
L 15.375 0 
z
" id="ArialMT-109"/>
      <path d="M 6.59375 -19.875 
L 6.59375 51.859375 
L 14.59375 51.859375 
L 14.59375 45.125 
Q 17.4375 49.078125 21 51.046875 
Q 24.5625 53.03125 29.640625 53.03125 
Q 36.28125 53.03125 41.359375 49.609375 
Q 46.4375 46.1875 49.015625 39.953125 
Q 51.609375 33.734375 51.609375 26.3125 
Q 51.609375 18.359375 48.75 11.984375 
Q 45.90625 5.609375 40.453125 2.21875 
Q 35.015625 -1.171875 29 -1.171875 
Q 24.609375 -1.171875 21.109375 0.6875 
Q 17.625 2.546875 15.375 5.375 
L 15.375 -19.875 
z
M 14.546875 25.640625 
Q 14.546875 15.625 18.59375 10.84375 
Q 22.65625 6.0625 28.421875 6.0625 
Q 34.28125 6.0625 38.453125 11.015625 
Q 42.625 15.96875 42.625 26.375 
Q 42.625 36.28125 38.546875 41.203125 
Q 34.46875 46.140625 28.8125 46.140625 
Q 23.1875 46.140625 18.859375 40.890625 
Q 14.546875 35.640625 14.546875 25.640625 
z
" id="ArialMT-112"/>
      <path d="M 6.390625 0 
L 6.390625 71.578125 
L 15.1875 71.578125 
L 15.1875 0 
z
" id="ArialMT-108"/>
      <path d="M 42.09375 16.703125 
L 51.171875 15.578125 
Q 49.03125 7.625 43.21875 3.21875 
Q 37.40625 -1.171875 28.375 -1.171875 
Q 17 -1.171875 10.328125 5.828125 
Q 3.65625 12.84375 3.65625 25.484375 
Q 3.65625 38.578125 10.390625 45.796875 
Q 17.140625 53.03125 27.875 53.03125 
Q 38.28125 53.03125 44.875 45.953125 
Q 51.46875 38.875 51.46875 26.03125 
Q 51.46875 25.25 51.421875 23.6875 
L 12.75 23.6875 
Q 13.234375 15.140625 17.578125 10.59375 
Q 21.921875 6.0625 28.421875 6.0625 
Q 33.25 6.0625 36.671875 8.59375 
Q 40.09375 11.140625 42.09375 16.703125 
z
M 13.234375 30.90625 
L 42.1875 30.90625 
Q 41.609375 37.453125 38.875 40.71875 
Q 34.671875 45.796875 27.984375 45.796875 
Q 21.921875 45.796875 17.796875 41.75 
Q 13.671875 37.703125 13.234375 30.90625 
z
" id="ArialMT-101"/>
     </defs>
     <g transform="translate(475.414031 282.357344)scale(0.26 -0.26)">
      <use xlink:href="#ArialMT-35"/>
      <use x="55.615234" xlink:href="#ArialMT-32"/>
      <use x="83.398438" xlink:href="#ArialMT-115"/>
      <use x="133.398438" xlink:href="#ArialMT-97"/>
      <use x="189.013672" xlink:href="#ArialMT-109"/>
      <use x="272.314453" xlink:href="#ArialMT-112"/>
      <use x="327.929688" xlink:href="#ArialMT-108"/>
      <use x="350.146484" xlink:href="#ArialMT-101"/>
     </g>
    </g>
   </g>
   <g id="matplotlib.axis_2">
    <g id="ytick_1">
     <g id="line2d_9">
      <path clip-path="url(#p4b66e284fd)" d="M 114.1595 218.768883 
L 942.1595 218.768883 
" style="fill:none;stroke:#b0b0b0;stroke-linecap:square;stroke-width:0.8;"/>
     </g>
     <g id="line2d_10">
      <defs>
       <path d="M 0 0 
L -3.5 0 
" id="m8aaa8d50d0" style="stroke:#000000;stroke-width:0.8;"/>
      </defs>
      <g>
       <use style="stroke:#000000;stroke-width:0.8;" x="114.1595" xlink:href="#m8aaa8d50d0" y="218.768883"/>
      </g>
     </g>
     <g id="text_6">
      <!-- 0 -->
      <g transform="translate(92.701063 228.074039)scale(0.26 -0.26)">
       <use xlink:href="#ArialMT-48"/>
      </g>
     </g>
    </g>
    <g id="ytick_2">
     <g id="line2d_11">
      <path clip-path="url(#p4b66e284fd)" d="M 114.1595 110.513628 
L 942.1595 110.513628 
" style="fill:none;stroke:#b0b0b0;stroke-linecap:square;stroke-width:0.8;"/>
     </g>
     <g id="line2d_12">
      <g>
       <use style="stroke:#000000;stroke-width:0.8;" x="114.1595" xlink:href="#m8aaa8d50d0" y="110.513628"/>
      </g>
     </g>
     <g id="text_7">
      <!-- 100 -->
      <g transform="translate(63.784188 119.818784)scale(0.26 -0.26)">
       <use xlink:href="#ArialMT-49"/>
       <use x="55.615234" xlink:href="#ArialMT-48"/>
       <use x="111.230469" xlink:href="#ArialMT-48"/>
      </g>
     </g>
    </g>
    <g id="text_8">
     <!-- Change point score -->
     <defs>
      <path d="M 58.796875 25.09375 
L 68.265625 22.703125 
Q 65.28125 11.03125 57.546875 4.90625 
Q 49.8125 -1.21875 38.625 -1.21875 
Q 27.046875 -1.21875 19.796875 3.484375 
Q 12.546875 8.203125 8.765625 17.140625 
Q 4.984375 26.078125 4.984375 36.328125 
Q 4.984375 47.515625 9.25 55.828125 
Q 13.53125 64.15625 21.40625 68.46875 
Q 29.296875 72.796875 38.765625 72.796875 
Q 49.515625 72.796875 56.828125 67.328125 
Q 64.15625 61.859375 67.046875 51.953125 
L 57.71875 49.75 
Q 55.21875 57.5625 50.484375 61.125 
Q 45.75 64.703125 38.578125 64.703125 
Q 30.328125 64.703125 24.78125 60.734375 
Q 19.234375 56.78125 16.984375 50.109375 
Q 14.75 43.453125 14.75 36.375 
Q 14.75 27.25 17.40625 20.4375 
Q 20.0625 13.625 25.671875 10.25 
Q 31.296875 6.890625 37.84375 6.890625 
Q 45.796875 6.890625 51.3125 11.46875 
Q 56.84375 16.0625 58.796875 25.09375 
z
" id="ArialMT-67"/>
      <path d="M 6.59375 0 
L 6.59375 71.578125 
L 15.375 71.578125 
L 15.375 45.90625 
Q 21.53125 53.03125 30.90625 53.03125 
Q 36.671875 53.03125 40.921875 50.75 
Q 45.171875 48.484375 47 44.484375 
Q 48.828125 40.484375 48.828125 32.859375 
L 48.828125 0 
L 40.046875 0 
L 40.046875 32.859375 
Q 40.046875 39.453125 37.1875 42.453125 
Q 34.328125 45.453125 29.109375 45.453125 
Q 25.203125 45.453125 21.75 43.421875 
Q 18.3125 41.40625 16.84375 37.9375 
Q 15.375 34.46875 15.375 28.375 
L 15.375 0 
z
" id="ArialMT-104"/>
      <path d="M 6.59375 0 
L 6.59375 51.859375 
L 14.5 51.859375 
L 14.5 44.484375 
Q 20.21875 53.03125 31 53.03125 
Q 35.6875 53.03125 39.625 51.34375 
Q 43.5625 49.65625 45.515625 46.921875 
Q 47.46875 44.1875 48.25 40.4375 
Q 48.734375 37.984375 48.734375 31.890625 
L 48.734375 0 
L 39.9375 0 
L 39.9375 31.546875 
Q 39.9375 36.921875 38.90625 39.578125 
Q 37.890625 42.234375 35.28125 43.8125 
Q 32.671875 45.40625 29.15625 45.40625 
Q 23.53125 45.40625 19.453125 41.84375 
Q 15.375 38.28125 15.375 28.328125 
L 15.375 0 
z
" id="ArialMT-110"/>
      <path d="M 4.984375 -4.296875 
L 13.53125 -5.5625 
Q 14.0625 -9.515625 16.5 -11.328125 
Q 19.78125 -13.765625 25.4375 -13.765625 
Q 31.546875 -13.765625 34.859375 -11.328125 
Q 38.1875 -8.890625 39.359375 -4.5 
Q 40.046875 -1.8125 39.984375 6.78125 
Q 34.234375 0 25.640625 0 
Q 14.9375 0 9.078125 7.71875 
Q 3.21875 15.4375 3.21875 26.21875 
Q 3.21875 33.640625 5.90625 39.90625 
Q 8.59375 46.1875 13.6875 49.609375 
Q 18.796875 53.03125 25.6875 53.03125 
Q 34.859375 53.03125 40.828125 45.609375 
L 40.828125 51.859375 
L 48.921875 51.859375 
L 48.921875 7.03125 
Q 48.921875 -5.078125 46.453125 -10.125 
Q 44 -15.1875 38.640625 -18.109375 
Q 33.296875 -21.046875 25.484375 -21.046875 
Q 16.21875 -21.046875 10.5 -16.875 
Q 4.78125 -12.703125 4.984375 -4.296875 
z
M 12.25 26.859375 
Q 12.25 16.65625 16.296875 11.96875 
Q 20.359375 7.28125 26.46875 7.28125 
Q 32.515625 7.28125 36.609375 11.9375 
Q 40.71875 16.609375 40.71875 26.5625 
Q 40.71875 36.078125 36.5 40.90625 
Q 32.28125 45.75 26.3125 45.75 
Q 20.453125 45.75 16.34375 40.984375 
Q 12.25 36.234375 12.25 26.859375 
z
" id="ArialMT-103"/>
      <path d="M 3.328125 25.921875 
Q 3.328125 40.328125 11.328125 47.265625 
Q 18.015625 53.03125 27.640625 53.03125 
Q 38.328125 53.03125 45.109375 46.015625 
Q 51.90625 39.015625 51.90625 26.65625 
Q 51.90625 16.65625 48.90625 10.90625 
Q 45.90625 5.171875 40.15625 2 
Q 34.421875 -1.171875 27.640625 -1.171875 
Q 16.75 -1.171875 10.03125 5.8125 
Q 3.328125 12.796875 3.328125 25.921875 
z
M 12.359375 25.921875 
Q 12.359375 15.96875 16.703125 11.015625 
Q 21.046875 6.0625 27.640625 6.0625 
Q 34.1875 6.0625 38.53125 11.03125 
Q 42.875 16.015625 42.875 26.21875 
Q 42.875 35.84375 38.5 40.796875 
Q 34.125 45.75 27.640625 45.75 
Q 21.046875 45.75 16.703125 40.8125 
Q 12.359375 35.890625 12.359375 25.921875 
z
" id="ArialMT-111"/>
      <path d="M 6.640625 61.46875 
L 6.640625 71.578125 
L 15.4375 71.578125 
L 15.4375 61.46875 
z
M 6.640625 0 
L 6.640625 51.859375 
L 15.4375 51.859375 
L 15.4375 0 
z
" id="ArialMT-105"/>
      <path d="M 25.78125 7.859375 
L 27.046875 0.09375 
Q 23.34375 -0.6875 20.40625 -0.6875 
Q 15.625 -0.6875 12.984375 0.828125 
Q 10.359375 2.34375 9.28125 4.8125 
Q 8.203125 7.28125 8.203125 15.1875 
L 8.203125 45.015625 
L 1.765625 45.015625 
L 1.765625 51.859375 
L 8.203125 51.859375 
L 8.203125 64.703125 
L 16.9375 69.96875 
L 16.9375 51.859375 
L 25.78125 51.859375 
L 25.78125 45.015625 
L 16.9375 45.015625 
L 16.9375 14.703125 
Q 16.9375 10.9375 17.40625 9.859375 
Q 17.875 8.796875 18.921875 8.15625 
Q 19.96875 7.515625 21.921875 7.515625 
Q 23.390625 7.515625 25.78125 7.859375 
z
" id="ArialMT-116"/>
      <path d="M 40.4375 19 
L 49.078125 17.875 
Q 47.65625 8.9375 41.8125 3.875 
Q 35.984375 -1.171875 27.484375 -1.171875 
Q 16.84375 -1.171875 10.375 5.78125 
Q 3.90625 12.75 3.90625 25.734375 
Q 3.90625 34.125 6.6875 40.421875 
Q 9.46875 46.734375 15.15625 49.875 
Q 20.84375 53.03125 27.546875 53.03125 
Q 35.984375 53.03125 41.359375 48.75 
Q 46.734375 44.484375 48.25 36.625 
L 39.703125 35.296875 
Q 38.484375 40.53125 35.375 43.15625 
Q 32.28125 45.796875 27.875 45.796875 
Q 21.234375 45.796875 17.078125 41.03125 
Q 12.9375 36.28125 12.9375 25.984375 
Q 12.9375 15.53125 16.9375 10.796875 
Q 20.953125 6.0625 27.390625 6.0625 
Q 32.5625 6.0625 36.03125 9.234375 
Q 39.5 12.40625 40.4375 19 
z
" id="ArialMT-99"/>
      <path d="M 6.5 0 
L 6.5 51.859375 
L 14.40625 51.859375 
L 14.40625 44 
Q 17.4375 49.515625 20 51.265625 
Q 22.5625 53.03125 25.640625 53.03125 
Q 30.078125 53.03125 34.671875 50.203125 
L 31.640625 42.046875 
Q 28.421875 43.953125 25.203125 43.953125 
Q 22.3125 43.953125 20.015625 42.21875 
Q 17.71875 40.484375 16.75 37.40625 
Q 15.28125 32.71875 15.28125 27.15625 
L 15.28125 0 
z
" id="ArialMT-114"/>
     </defs>
     <g transform="translate(26.127188 232.664687)rotate(-90)scale(0.26 -0.26)">
      <use xlink:href="#ArialMT-67"/>
      <use x="72.216797" xlink:href="#ArialMT-104"/>
      <use x="127.832031" xlink:href="#ArialMT-97"/>
      <use x="183.447266" xlink:href="#ArialMT-110"/>
      <use x="239.0625" xlink:href="#ArialMT-103"/>
      <use x="294.677734" xlink:href="#ArialMT-101"/>
      <use x="350.292969" xlink:href="#ArialMT-32"/>
      <use x="378.076172" xlink:href="#ArialMT-112"/>
      <use x="433.691406" xlink:href="#ArialMT-111"/>
      <use x="489.306641" xlink:href="#ArialMT-105"/>
      <use x="511.523438" xlink:href="#ArialMT-110"/>
      <use x="567.138672" xlink:href="#ArialMT-116"/>
      <use x="594.921875" xlink:href="#ArialMT-32"/>
      <use x="622.705078" xlink:href="#ArialMT-115"/>
      <use x="672.705078" xlink:href="#ArialMT-99"/>
      <use x="722.705078" xlink:href="#ArialMT-111"/>
      <use x="778.320312" xlink:href="#ArialMT-114"/>
      <use x="811.621094" xlink:href="#ArialMT-101"/>
     </g>
     <!-- (KL div.) -->
     <defs>
      <path d="M 23.390625 -21.046875 
Q 16.109375 -11.859375 11.078125 0.4375 
Q 6.0625 12.75 6.0625 25.921875 
Q 6.0625 37.546875 9.8125 48.1875 
Q 14.203125 60.546875 23.390625 72.796875 
L 29.6875 72.796875 
Q 23.78125 62.640625 21.875 58.296875 
Q 18.890625 51.5625 17.1875 44.234375 
Q 15.09375 35.109375 15.09375 25.875 
Q 15.09375 2.390625 29.6875 -21.046875 
z
" id="ArialMT-40"/>
      <path d="M 7.328125 0 
L 7.328125 71.578125 
L 16.796875 71.578125 
L 16.796875 36.078125 
L 52.34375 71.578125 
L 65.1875 71.578125 
L 35.15625 42.578125 
L 66.5 0 
L 54 0 
L 28.515625 36.234375 
L 16.796875 24.8125 
L 16.796875 0 
z
" id="ArialMT-75"/>
      <path d="M 7.328125 0 
L 7.328125 71.578125 
L 16.796875 71.578125 
L 16.796875 8.453125 
L 52.046875 8.453125 
L 52.046875 0 
z
" id="ArialMT-76"/>
      <path d="M 40.234375 0 
L 40.234375 6.546875 
Q 35.296875 -1.171875 25.734375 -1.171875 
Q 19.53125 -1.171875 14.328125 2.25 
Q 9.125 5.671875 6.265625 11.796875 
Q 3.421875 17.921875 3.421875 25.875 
Q 3.421875 33.640625 6 39.96875 
Q 8.59375 46.296875 13.765625 49.65625 
Q 18.953125 53.03125 25.34375 53.03125 
Q 30.03125 53.03125 33.6875 51.046875 
Q 37.359375 49.078125 39.65625 45.90625 
L 39.65625 71.578125 
L 48.390625 71.578125 
L 48.390625 0 
z
M 12.453125 25.875 
Q 12.453125 15.921875 16.640625 10.984375 
Q 20.84375 6.0625 26.5625 6.0625 
Q 32.328125 6.0625 36.34375 10.765625 
Q 40.375 15.484375 40.375 25.140625 
Q 40.375 35.796875 36.265625 40.765625 
Q 32.171875 45.75 26.171875 45.75 
Q 20.3125 45.75 16.375 40.96875 
Q 12.453125 36.1875 12.453125 25.875 
z
" id="ArialMT-100"/>
      <path d="M 21 0 
L 1.265625 51.859375 
L 10.546875 51.859375 
L 21.6875 20.796875 
Q 23.484375 15.765625 25 10.359375 
Q 26.171875 14.453125 28.265625 20.21875 
L 39.796875 51.859375 
L 48.828125 51.859375 
L 29.203125 0 
z
" id="ArialMT-118"/>
      <path d="M 9.078125 0 
L 9.078125 10.015625 
L 19.09375 10.015625 
L 19.09375 0 
z
" id="ArialMT-46"/>
      <path d="M 12.359375 -21.046875 
L 6.0625 -21.046875 
Q 20.65625 2.390625 20.65625 25.875 
Q 20.65625 35.0625 18.5625 44.09375 
Q 16.890625 51.421875 13.921875 58.15625 
Q 12.015625 62.546875 6.0625 72.796875 
L 12.359375 72.796875 
Q 21.53125 60.546875 25.921875 48.1875 
Q 29.6875 37.546875 29.6875 25.921875 
Q 29.6875 12.75 24.625 0.4375 
Q 19.578125 -11.859375 12.359375 -21.046875 
z
" id="ArialMT-41"/>
     </defs>
     <g transform="translate(54.312 166.884687)rotate(-90)scale(0.26 -0.26)">
      <use xlink:href="#ArialMT-40"/>
      <use x="33.300781" xlink:href="#ArialMT-75"/>
      <use x="100" xlink:href="#ArialMT-76"/>
      <use x="151.865234" xlink:href="#ArialMT-32"/>
      <use x="179.648438" xlink:href="#ArialMT-100"/>
      <use x="235.263672" xlink:href="#ArialMT-105"/>
      <use x="257.480469" xlink:href="#ArialMT-118"/>
      <use x="300.105469" xlink:href="#ArialMT-46"/>
      <use x="327.888672" xlink:href="#ArialMT-41"/>
     </g>
    </g>
   </g>
   <g id="line2d_13">
    <path clip-path="url(#p4b66e284fd)" d="M 151.795864 21.09598 
L 152.04694 119.521949 
L 152.298017 168.586129 
L 152.549093 193.132786 
L 152.80017 205.430844 
L 153.051246 211.560795 
L 153.302322 214.239529 
L 153.553399 215.720378 
L 153.804475 216.02844 
L 154.055552 215.975911 
L 154.557705 213.96079 
L 154.808781 211.916007 
L 155.059858 208.926988 
L 156.064164 189.101556 
L 156.31524 189.217919 
L 156.566317 186.331156 
L 157.06847 194.607592 
L 157.570623 201.008395 
L 158.072776 208.646395 
L 158.826005 213.655014 
L 159.077081 216.003227 
L 159.328158 215.591087 
L 159.579234 215.535963 
L 159.830311 216.978749 
L 160.081387 216.584334 
L 160.332464 217.243214 
L 160.58354 217.413144 
L 160.834617 218.312504 
L 161.085693 217.865567 
L 161.33677 217.647325 
L 161.587846 218.069245 
L 162.592152 218.173645 
L 162.843229 218.519858 
L 163.094305 217.635961 
L 163.345381 218.305881 
L 163.596458 217.534986 
L 163.847534 218.546722 
L 164.098611 217.772933 
L 164.349687 218.233915 
L 165.102917 217.852655 
L 165.353993 216.724613 
L 165.60507 216.976796 
L 165.856146 218.234103 
L 166.107223 217.104576 
L 166.358299 216.789404 
L 166.860452 217.567224 
L 167.111529 217.267197 
L 167.362605 218.288129 
L 167.613682 216.345173 
L 167.864758 216.733444 
L 168.115835 215.885598 
L 168.366911 216.121961 
L 168.617987 215.832149 
L 168.869064 214.718246 
L 169.12014 216.984809 
L 169.371217 217.004433 
L 169.622293 211.848191 
L 169.87337 215.847944 
L 170.124446 212.402568 
L 170.375523 215.783608 
L 170.626599 211.833603 
L 170.877676 214.604798 
L 171.128752 210.747199 
L 171.379829 213.079294 
L 171.630905 211.972899 
L 171.881982 212.337495 
L 172.384135 213.333726 
L 172.635211 215.134739 
L 172.886288 212.995752 
L 173.137364 214.452317 
L 173.388441 213.862344 
L 173.639517 215.167942 
L 173.890593 214.555475 
L 174.14167 212.857565 
L 174.392746 212.042797 
L 174.643823 215.871776 
L 174.894899 212.73519 
L 175.145976 216.097374 
L 175.397052 216.519371 
L 175.648129 216.354387 
L 175.899205 216.935856 
L 176.401358 216.034272 
L 176.652435 216.88029 
L 177.405664 217.233445 
L 177.656741 218.588029 
L 177.907817 218.010266 
L 178.40997 217.904738 
L 178.661046 217.316159 
L 178.912123 217.54052 
L 179.163199 217.513329 
L 179.414276 218.555493 
L 179.665352 218.455809 
L 179.916429 217.621323 
L 180.167505 218.367111 
L 180.418582 218.164567 
L 180.669658 218.574367 
L 180.920735 218.543632 
L 181.171811 218.662326 
L 181.422888 218.036156 
L 181.673964 218.615735 
L 181.925041 217.61167 
L 182.176117 217.430002 
L 182.67827 218.540986 
L 182.929347 217.88497 
L 183.180423 218.562757 
L 183.4315 218.574962 
L 183.682576 218.334364 
L 184.184729 218.230943 
L 184.435805 218.686315 
L 184.937958 218.649734 
L 185.189035 218.219491 
L 185.440111 218.68453 
L 185.942264 218.478275 
L 186.444417 218.703565 
L 186.695494 218.567012 
L 186.94657 218.249933 
L 187.448723 218.579564 
L 187.6998 218.407098 
L 188.201953 218.751489 
L 188.704105 218.591489 
L 188.955182 218.75483 
L 189.457335 218.615141 
L 189.708411 218.598277 
L 189.959488 218.694863 
L 190.210564 218.606151 
L 190.461641 218.71274 
L 190.712717 218.607145 
L 190.963794 218.268187 
L 191.21487 218.723993 
L 191.717023 218.553837 
L 191.9681 218.67891 
L 192.721329 218.689681 
L 192.972406 218.487614 
L 193.474559 218.707434 
L 193.725635 218.525033 
L 194.227788 218.622295 
L 194.729941 218.450012 
L 194.981017 218.674004 
L 195.232094 218.722496 
L 195.48317 218.533215 
L 195.734247 218.69389 
L 195.985323 218.565194 
L 196.2364 218.591556 
L 196.487476 218.739557 
L 196.738553 218.530834 
L 196.989629 218.74631 
L 197.240706 218.516789 
L 197.993935 218.536913 
L 198.245012 218.730002 
L 198.496088 218.567703 
L 198.747165 218.744271 
L 199.249317 218.69495 
L 199.500394 218.753569 
L 199.75147 218.549327 
L 200.253623 218.661853 
L 200.5047 218.70017 
L 201.257929 218.378498 
L 201.760082 218.636071 
L 202.011159 218.75626 
L 202.262235 218.554587 
L 202.764388 218.656278 
L 203.015465 218.593412 
L 203.768694 218.716357 
L 204.270847 218.663713 
L 204.521923 218.588004 
L 204.773 218.69246 
L 205.526229 218.545627 
L 205.777306 218.751484 
L 207.534841 218.750636 
L 207.785918 218.561765 
L 208.790224 218.679364 
L 209.0413 218.608697 
L 209.543453 218.755694 
L 209.794529 218.657565 
L 210.296682 218.744313 
L 210.798835 218.68712 
L 211.049912 218.734755 
L 211.300988 218.623501 
L 212.054218 218.747738 
L 212.305294 218.641447 
L 212.807447 218.694679 
L 213.058524 218.764003 
L 213.3096 218.562498 
L 213.811753 218.675558 
L 214.564982 218.704783 
L 215.318212 218.719851 
L 218.582206 218.705709 
L 219.335435 218.759961 
L 219.586512 218.670185 
L 220.339741 218.761663 
L 220.590818 218.64562 
L 221.092971 218.73699 
L 221.595124 218.616287 
L 221.8462 218.745199 
L 222.850506 218.73585 
L 223.352659 218.664895 
L 223.603736 218.639957 
L 224.105889 218.760597 
L 224.608041 218.695162 
L 226.1145 218.717106 
L 226.365577 218.474934 
L 226.616653 218.739314 
L 226.86773 218.674646 
L 227.118806 218.730305 
L 227.369883 218.621555 
L 227.872036 218.6524 
L 228.876342 218.716282 
L 229.629571 218.734456 
L 230.131724 218.714651 
L 230.3828 218.661663 
L 230.633877 218.756419 
L 230.884953 218.637293 
L 231.387106 218.742376 
L 231.638183 218.658539 
L 232.140336 218.745966 
L 232.893565 218.645656 
L 233.144642 218.75075 
L 233.897871 218.703774 
L 234.6511 218.706081 
L 235.153253 218.601576 
L 235.40433 218.746627 
L 241.179089 218.732015 
L 241.681242 218.72889 
L 245.698465 218.712974 
L 246.200618 218.699919 
L 247.204924 218.721235 
L 248.20923 218.724116 
L 249.464612 218.754448 
L 249.715689 218.636929 
L 249.966765 218.752851 
L 250.468918 218.740106 
L 251.222148 218.760261 
L 251.473224 218.673853 
L 251.975377 218.749947 
L 252.979683 218.743297 
L 257.49906 218.724121 
L 258.252289 218.712311 
L 260.763054 218.753951 
L 262.269513 218.68883 
L 264.780277 218.735221 
L 265.031354 218.759557 
L 265.28243 218.607985 
L 265.533507 218.744012 
L 268.295348 218.743282 
L 273.819031 218.752437 
L 275.325489 218.755376 
L 275.576566 218.673808 
L 275.827642 218.75403 
L 276.078719 218.655376 
L 276.329795 218.765369 
L 278.589484 218.733359 
L 279.59379 218.764628 
L 281.602401 218.728609 
L 282.606707 218.759727 
L 288.381466 218.75329 
L 288.883619 218.713151 
L 289.385772 218.746389 
L 289.636849 218.658765 
L 289.887925 218.733901 
L 290.139001 218.67307 
L 290.641154 218.758551 
L 291.143307 218.744442 
L 292.649766 218.75428 
L 300.684213 218.719621 
L 301.437443 218.740681 
L 302.943902 218.768478 
L 307.463278 218.757839 
L 308.969737 218.759493 
L 309.220814 218.679748 
L 309.722967 218.741211 
L 312.233731 218.767374 
L 312.986961 218.76193 
L 318.510643 218.75502 
L 321.021408 218.761232 
L 321.523561 218.767778 
L 323.03002 218.757379 
L 325.289708 218.764225 
L 326.042937 218.751989 
L 330.060161 218.766836 
L 402.370186 218.760163 
L 402.621262 200.555457 
L 402.872339 202.213084 
L 403.123415 201.172927 
L 403.374492 203.00528 
L 403.625568 203.418658 
L 404.127721 205.052684 
L 404.378798 206.034104 
L 404.629874 207.763858 
L 404.880951 207.007796 
L 405.383104 210.277584 
L 405.885257 210.851054 
L 406.136333 211.65396 
L 406.38741 212.884852 
L 406.638486 212.356197 
L 406.889562 213.470315 
L 407.140639 213.345994 
L 407.391715 214.279619 
L 407.642792 214.470917 
L 407.893868 214.435397 
L 409.149251 213.24331 
L 410.153557 210.939785 
L 410.65571 208.600518 
L 410.906786 207.424507 
L 411.157863 207.025988 
L 411.408939 205.988393 
L 411.660015 205.753972 
L 411.911092 204.920439 
L 412.162168 205.11787 
L 412.664321 203.574657 
L 412.915398 203.122415 
L 413.166474 203.115316 
L 413.417551 202.276678 
L 413.668627 203.042656 
L 414.17078 203.251889 
L 414.421857 204.360141 
L 414.672933 204.020744 
L 415.677239 207.161575 
L 415.928316 207.345209 
L 417.434774 213.162887 
L 417.685851 213.261641 
L 418.188004 214.340049 
L 418.941233 215.25465 
L 419.19231 215.47606 
L 419.945539 214.539836 
L 420.196616 214.837767 
L 420.698769 214.515425 
L 420.949845 213.905944 
L 421.200922 213.001858 
L 421.954151 212.011649 
L 422.205227 211.14353 
L 422.456304 209.710957 
L 422.70738 210.417877 
L 423.209533 207.936113 
L 423.46061 208.37105 
L 423.962763 206.610968 
L 424.213839 206.620886 
L 424.464916 205.321069 
L 424.715992 205.164306 
L 424.967069 205.945776 
L 425.218145 205.047139 
L 425.469222 204.599133 
L 425.720298 204.958362 
L 425.971375 204.886633 
L 426.222451 205.077159 
L 426.724604 204.998461 
L 427.226757 206.049357 
L 427.477833 206.301365 
L 427.72891 206.2071 
L 428.231063 207.580572 
L 428.733216 208.521583 
L 429.235369 210.515831 
L 430.239675 212.73348 
L 430.490751 213.97898 
L 430.741828 214.027182 
L 430.992904 214.872237 
L 431.243981 214.968428 
L 431.495057 215.742152 
L 431.746134 215.846366 
L 431.99721 216.211215 
L 432.499363 216.578936 
L 432.750439 216.46284 
L 433.001516 216.53047 
L 433.503669 215.609652 
L 433.754745 215.388325 
L 434.005822 215.017833 
L 434.759051 212.712228 
L 435.010128 212.213696 
L 435.261204 210.800024 
L 435.512281 210.808065 
L 436.767663 206.890697 
L 437.269816 206.514978 
L 437.520892 205.498165 
L 437.771969 206.627407 
L 438.274122 205.961386 
L 438.776275 207.273555 
L 439.278428 208.68297 
L 439.529504 208.197559 
L 439.780581 209.51424 
L 440.031657 210.164366 
L 440.282734 210.439348 
L 441.035963 212.884222 
L 441.28704 213.283355 
L 441.538116 214.015554 
L 441.789193 214.229262 
L 442.291345 215.30783 
L 442.542422 215.564346 
L 442.793498 216.101782 
L 443.044575 216.019644 
L 443.295651 216.350241 
L 443.546728 216.332866 
L 443.797804 216.169871 
L 444.299957 216.429055 
L 444.80211 215.692199 
L 445.053187 216.003575 
L 445.304263 215.022874 
L 445.55534 214.848826 
L 445.806416 214.095837 
L 446.057493 214.033335 
L 446.559646 212.703042 
L 447.061799 212.191479 
L 447.312875 211.19237 
L 447.563951 210.984447 
L 447.815028 210.285541 
L 448.066104 210.583662 
L 448.317181 209.486168 
L 448.819334 208.662808 
L 449.07041 208.82589 
L 449.321487 207.868566 
L 449.572563 207.45811 
L 449.82364 207.979378 
L 450.074716 206.827898 
L 450.325793 207.443464 
L 450.576869 207.353552 
L 450.827946 207.00201 
L 451.330099 207.664785 
L 451.581175 208.337449 
L 451.832252 207.887158 
L 452.083328 208.218854 
L 452.585481 209.358756 
L 452.836557 209.349847 
L 453.087634 209.896664 
L 453.33871 210.751125 
L 453.589787 211.110794 
L 453.840863 211.859287 
L 454.343016 212.502668 
L 454.594093 213.726011 
L 454.845169 213.737363 
L 455.347322 214.969971 
L 455.598399 215.074003 
L 455.849475 215.711601 
L 456.100552 215.735396 
L 456.351628 216.109597 
L 456.602705 215.848109 
L 457.104858 215.86263 
L 457.355934 215.354546 
L 457.60701 215.472079 
L 457.858087 214.910642 
L 458.109163 214.728134 
L 458.36024 214.310726 
L 458.862393 212.974086 
L 459.364546 212.253831 
L 459.615622 211.222137 
L 459.866699 211.069258 
L 460.117775 209.335794 
L 460.368852 209.549522 
L 461.122081 208.188296 
L 461.373158 208.275597 
L 461.624234 207.627316 
L 462.126387 207.993272 
L 462.377463 208.134811 
L 462.62854 207.994099 
L 462.879616 209.027638 
L 463.883922 210.091054 
L 464.637152 211.578287 
L 465.139305 213.221566 
L 465.390381 214.008965 
L 465.641458 213.764582 
L 465.892534 214.497909 
L 466.143611 214.749147 
L 466.394687 215.16324 
L 466.89684 215.403893 
L 467.147917 215.921114 
L 467.398993 216.03516 
L 467.650069 215.92754 
L 467.901146 216.177694 
L 468.152222 216.171321 
L 468.403299 215.926269 
L 468.654375 215.991251 
L 468.905452 215.313549 
L 469.156528 215.241784 
L 469.407605 214.943657 
L 469.658681 214.991671 
L 469.909758 214.31066 
L 470.160834 214.458574 
L 470.914064 213.039217 
L 471.16514 212.969343 
L 471.416217 212.56027 
L 471.667293 212.465871 
L 472.420522 210.998662 
L 472.671599 211.022166 
L 472.922675 211.316051 
L 473.173752 210.580025 
L 473.424828 211.131485 
L 473.675905 210.757538 
L 473.926981 210.945316 
L 474.178058 210.088593 
L 474.429134 210.573452 
L 474.680211 210.371571 
L 474.931287 211.020608 
L 475.43344 210.293797 
L 475.684517 211.081794 
L 475.935593 210.898984 
L 476.437746 211.438775 
L 476.688823 211.760728 
L 476.939899 212.376437 
L 477.190976 212.366627 
L 477.693128 213.277075 
L 477.944205 213.247884 
L 478.195281 213.612558 
L 478.446358 214.267143 
L 480.203893 215.710346 
L 480.706046 215.998212 
L 481.208199 215.853962 
L 481.459276 215.733799 
L 481.710352 215.840581 
L 481.961429 215.636608 
L 482.463582 215.577347 
L 483.216811 215.1314 
L 483.467887 214.477256 
L 483.718964 214.281912 
L 483.97004 214.497848 
L 484.472193 213.898857 
L 484.72327 213.95396 
L 484.974346 213.766598 
L 485.225423 213.787482 
L 485.727576 213.484504 
L 485.978652 213.963444 
L 486.229729 213.066559 
L 486.731882 213.834559 
L 486.982958 213.463765 
L 487.234035 213.595811 
L 487.485111 213.586708 
L 488.23834 214.203776 
L 488.489417 213.992718 
L 488.740493 214.295227 
L 488.99157 214.899141 
L 489.242646 214.499937 
L 489.493723 214.934517 
L 489.995876 215.356509 
L 490.246952 215.233393 
L 490.498029 215.489301 
L 490.749105 216.0659 
L 491.251258 215.914675 
L 491.502335 216.083925 
L 491.753411 216.424459 
L 492.004488 216.356108 
L 493.25987 216.647387 
L 493.510946 216.571449 
L 493.762023 216.753914 
L 494.013099 216.601728 
L 494.264176 216.268668 
L 494.515252 216.460524 
L 494.766329 216.420275 
L 495.017405 216.569231 
L 495.268482 216.464247 
L 495.770635 216.004154 
L 496.523864 216.261098 
L 496.774941 216.184713 
L 497.026017 215.942833 
L 497.277094 216.356155 
L 497.52817 216.421203 
L 497.779246 215.934227 
L 498.030323 216.154867 
L 498.281399 216.061114 
L 498.532476 216.181498 
L 498.783552 216.055542 
L 499.034629 216.262691 
L 499.285705 216.087217 
L 499.787858 216.31221 
L 500.038935 215.948969 
L 500.290011 216.513946 
L 500.541088 216.537891 
L 501.043241 216.373011 
L 501.294317 216.498239 
L 501.79647 216.324603 
L 502.047547 216.603769 
L 502.298623 216.346894 
L 502.800776 216.622142 
L 503.051852 216.709156 
L 503.302929 216.478018 
L 503.554005 216.610298 
L 505.562617 216.365923 
L 505.813694 216.658965 
L 506.06477 216.478913 
L 506.315847 216.546122 
L 506.566923 216.266195 
L 506.818 216.373538 
L 507.069076 216.028478 
L 507.320153 216.370047 
L 507.571229 216.369311 
L 508.073382 216.771099 
L 508.324458 216.361743 
L 508.575535 216.372676 
L 508.826611 216.550941 
L 509.077688 216.543432 
L 509.328764 216.337375 
L 509.579841 216.287722 
L 510.081994 216.427748 
L 510.33307 216.611505 
L 510.584147 216.279828 
L 510.835223 216.533948 
L 511.0863 216.177617 
L 511.839529 216.627708 
L 512.090606 216.383237 
L 512.843835 216.656823 
L 513.094911 216.406035 
L 513.345988 216.507902 
L 514.099217 216.451422 
L 514.852447 216.526104 
L 515.3546 216.622617 
L 515.605676 216.596312 
L 515.856753 216.719938 
L 516.107829 216.40664 
L 516.861059 216.633424 
L 517.865365 216.657061 
L 518.116441 216.926388 
L 518.86967 216.640389 
L 519.120747 216.952823 
L 519.6229 216.543765 
L 519.873976 216.452715 
L 520.376129 216.859522 
L 520.627206 216.715888 
L 521.380435 216.854473 
L 521.631512 216.678197 
L 521.882588 216.913294 
L 522.133665 216.630384 
L 522.886894 216.994679 
L 523.13797 216.659325 
L 523.640123 217.061633 
L 523.8912 216.788273 
L 524.393353 216.524255 
L 524.644429 216.882873 
L 525.397659 216.644696 
L 525.648735 216.852066 
L 525.899812 216.665537 
L 526.150888 216.910203 
L 526.653041 216.391283 
L 526.904118 216.601008 
L 527.155194 216.513109 
L 527.657347 216.656246 
L 527.908424 216.677783 
L 528.1595 216.579664 
L 528.410576 216.649386 
L 528.661653 216.895801 
L 529.665959 216.622534 
L 529.917035 216.647826 
L 530.168112 216.973616 
L 530.419188 216.786218 
L 530.921341 216.941984 
L 531.423494 216.887764 
L 531.674571 217.181625 
L 532.4278 216.936627 
L 532.929953 217.166968 
L 533.18103 216.944367 
L 533.432106 217.088011 
L 533.683182 217.054839 
L 533.934259 217.152507 
L 534.185335 216.913515 
L 534.436412 216.962012 
L 534.687488 216.854318 
L 534.938565 217.008498 
L 535.189641 216.771621 
L 535.440718 217.089583 
L 535.691794 216.817129 
L 536.193947 216.794985 
L 536.445024 216.880262 
L 536.947177 216.697545 
L 537.198253 216.802617 
L 537.44933 216.671693 
L 537.951483 216.747134 
L 538.202559 216.443988 
L 538.453635 216.686193 
L 538.704712 216.435709 
L 538.955788 216.680112 
L 539.206865 216.722385 
L 539.457941 216.538783 
L 539.709018 216.77907 
L 540.462247 216.936646 
L 540.713324 216.713139 
L 540.9644 216.800269 
L 541.215477 217.01697 
L 541.71763 216.960307 
L 542.219783 217.190649 
L 542.721936 217.062991 
L 542.973012 217.276109 
L 543.224089 217.013212 
L 543.726241 217.347664 
L 544.730547 217.562449 
L 544.981624 217.314429 
L 545.2327 217.551837 
L 546.237006 217.39474 
L 546.488083 217.521369 
L 546.739159 217.358039 
L 547.492389 217.410428 
L 548.747771 217.136206 
L 548.998847 217.222158 
L 550.505306 216.856892 
L 551.007459 216.496163 
L 551.258536 216.766557 
L 551.509612 216.767212 
L 552.011765 216.373657 
L 552.513918 216.631528 
L 553.518224 216.835304 
L 554.020377 217.005531 
L 554.271453 216.89056 
L 555.024683 217.274192 
L 555.275759 217.195629 
L 555.526836 217.3546 
L 555.777912 217.379659 
L 556.028989 217.596051 
L 556.280065 217.395371 
L 556.531142 217.649081 
L 557.033295 217.639838 
L 557.535448 217.648762 
L 557.786524 217.835394 
L 558.79083 217.84026 
L 559.292983 217.672024 
L 559.544059 217.674267 
L 559.795136 217.810683 
L 560.297289 217.606327 
L 560.548365 217.484949 
L 560.799442 217.526698 
L 561.050518 217.287265 
L 561.803748 217.205152 
L 562.054824 216.969722 
L 562.305901 217.212878 
L 562.808054 216.987109 
L 563.310207 216.964117 
L 563.561283 217.01757 
L 564.314512 216.816073 
L 564.565589 216.775966 
L 564.816665 216.585946 
L 565.067742 216.741151 
L 565.318818 216.751833 
L 565.569895 217.042404 
L 565.820971 217.013223 
L 566.323124 217.090817 
L 566.574201 216.943866 
L 566.825277 217.224154 
L 567.076354 217.154147 
L 567.578507 217.428957 
L 568.08066 217.328663 
L 569.084965 217.69572 
L 569.336042 217.687068 
L 569.587118 217.94902 
L 569.838195 217.749888 
L 570.089271 217.980317 
L 570.591424 218.052439 
L 571.344654 217.930799 
L 571.59573 218.051957 
L 571.846807 218.009233 
L 572.097883 217.840415 
L 572.34896 217.813438 
L 572.600036 217.993295 
L 573.102189 217.719465 
L 573.353266 217.852338 
L 573.604342 217.566411 
L 573.855418 217.543806 
L 574.106495 217.345109 
L 574.608648 217.36642 
L 574.859724 217.074322 
L 575.612954 216.905524 
L 575.86403 216.743182 
L 576.61726 216.76577 
L 577.119413 216.502013 
L 577.621566 216.709293 
L 578.123719 216.644866 
L 579.379101 217.123721 
L 579.630177 217.390831 
L 579.881254 217.238239 
L 580.13233 217.541374 
L 580.383407 217.490197 
L 580.634483 217.678403 
L 580.88556 217.67212 
L 581.387713 217.913006 
L 583.145248 218.218545 
L 583.396325 218.213357 
L 583.647401 218.05607 
L 584.149554 218.154768 
L 584.40063 218.016822 
L 584.651707 218.049554 
L 585.907089 217.618378 
L 586.409242 217.535057 
L 586.911395 217.343634 
L 587.162472 217.416604 
L 587.413548 217.31596 
L 587.664625 217.067614 
L 587.915701 217.120323 
L 588.417854 216.877381 
L 588.668931 216.979692 
L 589.673236 216.64834 
L 589.924313 216.995793 
L 590.175389 216.784405 
L 590.677542 216.885483 
L 590.928619 216.834609 
L 591.179695 217.044332 
L 591.932925 217.163178 
L 592.184001 217.045216 
L 592.937231 217.5542 
L 593.188307 217.533651 
L 594.945842 218.226665 
L 595.196919 218.126871 
L 595.447995 218.294356 
L 595.699072 218.230655 
L 596.201225 218.334352 
L 596.452301 218.169224 
L 597.205531 218.264506 
L 597.707684 218.053396 
L 597.95876 218.010014 
L 598.209837 217.793526 
L 598.71199 217.625341 
L 599.214142 217.344232 
L 599.465219 217.360013 
L 599.967372 216.860629 
L 600.218448 216.879304 
L 600.469525 216.766571 
L 600.720601 216.869568 
L 600.971678 216.522873 
L 601.222754 216.761531 
L 601.473831 216.54653 
L 601.724907 216.581619 
L 602.22706 216.371446 
L 602.729213 216.77447 
L 602.98029 216.752775 
L 603.231366 216.863422 
L 603.482443 216.759206 
L 603.733519 217.057086 
L 603.984596 217.039933 
L 605.491054 217.745689 
L 605.993207 217.958137 
L 606.244284 218.159536 
L 606.746437 218.252738 
L 607.499666 218.342305 
L 608.001819 218.333641 
L 608.252896 218.369102 
L 608.503972 218.18036 
L 609.006125 218.168431 
L 611.51689 217.270774 
L 611.767966 217.050376 
L 612.019043 217.26678 
L 612.521196 216.765683 
L 613.023349 216.726072 
L 613.274425 216.597111 
L 613.525502 216.730197 
L 613.776578 216.608039 
L 614.027655 216.926173 
L 614.278731 216.691918 
L 614.780884 216.490207 
L 615.03196 216.866648 
L 615.534113 216.507438 
L 615.78519 216.870787 
L 616.036266 216.723308 
L 616.287343 216.978586 
L 616.538419 216.830489 
L 616.789496 216.862342 
L 617.040572 217.100756 
L 617.542725 217.198473 
L 617.793802 217.319726 
L 618.044878 217.651761 
L 618.547031 217.653679 
L 618.798108 217.912047 
L 619.049184 217.828592 
L 620.05349 218.32269 
L 620.555643 218.275355 
L 620.806719 218.313003 
L 621.057796 218.192586 
L 621.308872 218.281035 
L 621.811025 218.109919 
L 622.564255 217.705091 
L 622.815331 217.712708 
L 623.317484 217.364827 
L 623.568561 217.132481 
L 623.819637 217.158298 
L 624.070714 216.750288 
L 624.32179 216.75 
L 624.572866 216.398152 
L 624.823943 216.490467 
L 625.075019 215.994957 
L 625.326096 216.334927 
L 625.577172 216.327567 
L 625.828249 215.893762 
L 626.079325 216.176906 
L 626.832555 215.7794 
L 627.083631 216.348528 
L 627.585784 216.417354 
L 627.836861 216.675588 
L 628.087937 216.56874 
L 629.34332 217.461547 
L 629.594396 217.456382 
L 630.096549 217.801876 
L 630.598702 217.984145 
L 630.849778 218.176002 
L 632.105161 218.233374 
L 632.356237 218.110533 
L 632.607314 218.149953 
L 632.85839 217.970403 
L 633.109467 218.04458 
L 634.364849 217.585324 
L 635.369155 217.006838 
L 635.620231 216.888508 
L 636.122384 216.848816 
L 636.875614 216.167444 
L 637.12669 216.445132 
L 637.377767 216.361983 
L 637.628843 216.118706 
L 637.87992 216.204615 
L 638.884226 215.847666 
L 639.135302 216.142867 
L 639.386379 216.129837 
L 639.888531 215.882579 
L 640.139608 216.355309 
L 640.390684 216.261542 
L 640.641761 216.427341 
L 640.892837 216.303913 
L 641.646067 216.863467 
L 641.897143 216.82057 
L 642.399296 217.032177 
L 642.650373 216.944791 
L 643.152526 217.491283 
L 643.654679 217.697911 
L 644.407908 217.735073 
L 644.910061 217.914248 
L 645.412214 217.757667 
L 645.66329 217.88831 
L 645.914367 217.530257 
L 646.165443 217.390587 
L 646.41652 217.480267 
L 646.667596 217.426621 
L 646.918673 217.236697 
L 647.169749 217.235832 
L 647.420826 216.880659 
L 647.671902 216.861924 
L 648.174055 216.433998 
L 648.425132 216.459881 
L 648.927285 216.29004 
L 649.429438 215.8657 
L 649.680514 215.9861 
L 650.182667 215.69138 
L 650.433743 216.041197 
L 650.935896 216.148805 
L 651.186973 215.744878 
L 651.438049 216.11692 
L 651.689126 216.226168 
L 651.940202 216.537934 
L 652.191279 216.400559 
L 652.442355 216.610794 
L 652.693432 216.599441 
L 652.944508 216.983161 
L 653.446661 217.159475 
L 653.697738 217.609999 
L 653.948814 215.031793 
L 654.199891 217.608823 
L 654.450967 214.78014 
L 654.702044 216.995533 
L 654.95312 218.204646 
L 655.204196 218.04058 
L 655.455273 216.17135 
L 655.706349 218.221722 
L 655.957426 218.05862 
L 656.208502 216.418852 
L 656.459579 217.737003 
L 656.710655 216.597943 
L 656.961732 216.729115 
L 657.212808 218.364804 
L 657.463885 218.180502 
L 657.714961 215.738385 
L 657.966038 217.745122 
L 658.217114 218.322244 
L 658.468191 217.647735 
L 658.719267 218.034238 
L 659.22142 216.58246 
L 659.472497 215.150518 
L 659.974649 216.874097 
L 660.225726 216.957744 
L 660.476802 213.893709 
L 660.978955 217.44027 
L 661.230032 217.11461 
L 661.481108 217.147835 
L 661.732185 213.985704 
L 661.983261 216.544349 
L 662.485414 216.304151 
L 662.736491 216.460839 
L 662.987567 216.338714 
L 663.48972 217.20296 
L 663.740797 217.565872 
L 663.991873 218.254701 
L 664.24295 215.590944 
L 664.494026 216.801584 
L 664.745103 214.097517 
L 664.996179 218.043087 
L 665.247255 217.069912 
L 665.498332 215.290952 
L 666.000485 218.517575 
L 666.251561 218.261759 
L 666.502638 216.275682 
L 666.753714 217.224787 
L 667.004791 216.541505 
L 667.255867 216.490891 
L 667.75802 217.499788 
L 668.009097 217.138129 
L 668.260173 217.912738 
L 668.762326 218.091863 
L 669.264479 216.761462 
L 669.515556 217.8695 
L 670.017709 217.59164 
L 670.268785 218.513326 
L 670.519861 216.82368 
L 670.770938 216.868386 
L 671.524167 218.082972 
L 671.775244 217.249836 
L 672.02632 217.810594 
L 672.277397 216.819403 
L 672.528473 218.046426 
L 672.77955 218.393989 
L 673.030626 217.788176 
L 673.281703 217.7546 
L 673.532779 217.926577 
L 673.783856 214.749297 
L 674.034932 217.172329 
L 674.286009 216.135333 
L 674.537085 216.657266 
L 674.788162 216.603551 
L 675.039238 216.752395 
L 675.290314 215.977347 
L 675.541391 214.128498 
L 675.792467 218.441495 
L 676.043544 217.901785 
L 676.29462 218.423117 
L 676.545697 218.17834 
L 677.04785 215.440461 
L 677.298926 216.262994 
L 677.550003 217.903526 
L 677.801079 215.892684 
L 678.052156 217.966379 
L 678.303232 217.020546 
L 678.554309 218.141745 
L 678.805385 215.566927 
L 679.056462 218.495922 
L 679.307538 217.874232 
L 679.809691 218.219632 
L 680.060768 218.149637 
L 680.311844 218.417652 
L 680.56292 218.160694 
L 680.813997 218.472594 
L 681.065073 215.747129 
L 681.31615 217.572782 
L 681.567226 218.315874 
L 681.818303 216.801187 
L 682.069379 217.778404 
L 682.571532 217.875278 
L 682.822609 217.858107 
L 683.073685 218.135775 
L 683.324762 218.218147 
L 683.575838 218.462971 
L 683.826915 218.448969 
L 684.077991 217.364873 
L 684.329068 217.676337 
L 684.580144 217.728302 
L 684.831221 217.19579 
L 685.082297 217.08632 
L 685.58445 216.511375 
L 685.835526 218.29589 
L 686.086603 217.781284 
L 686.337679 216.586972 
L 686.588756 218.184643 
L 686.839832 217.808018 
L 687.090909 217.951801 
L 687.341985 215.473899 
L 687.593062 216.393489 
L 687.844138 218.228311 
L 688.346291 216.630444 
L 688.597368 218.514977 
L 689.099521 217.433596 
L 689.350597 217.613838 
L 689.85275 218.560615 
L 690.103827 217.397452 
L 690.354903 217.699635 
L 690.605979 217.744738 
L 691.108132 218.630087 
L 691.359209 217.790161 
L 691.610285 218.598291 
L 691.861362 217.569166 
L 692.112438 218.372891 
L 692.363515 218.188866 
L 692.614591 218.263613 
L 692.865668 217.676392 
L 693.367821 218.220928 
L 693.618897 218.508722 
L 693.869974 217.158659 
L 694.12105 218.169813 
L 694.623203 218.122032 
L 694.87428 216.160805 
L 695.125356 218.06159 
L 695.376433 217.444062 
L 695.627509 217.591834 
L 695.878585 217.045358 
L 696.129662 217.893529 
L 696.380738 218.014461 
L 696.631815 217.564097 
L 696.882891 218.679832 
L 697.385044 215.822942 
L 697.636121 217.596323 
L 697.887197 218.018409 
L 698.138274 217.401971 
L 698.640427 218.750185 
L 698.891503 217.971233 
L 699.14258 218.540255 
L 699.393656 218.728156 
L 699.644733 216.125463 
L 699.895809 218.382819 
L 700.146886 217.823798 
L 700.397962 217.664798 
L 700.649038 217.263703 
L 700.900115 217.381709 
L 701.151191 218.001032 
L 701.402268 217.631211 
L 701.653344 218.19964 
L 701.904421 218.005655 
L 702.155497 218.596673 
L 702.406574 216.797847 
L 702.65765 218.506612 
L 703.159803 217.988396 
L 703.41088 217.259599 
L 703.661956 218.417467 
L 703.913033 218.716438 
L 704.164109 217.762226 
L 704.415186 218.695649 
L 704.666262 218.315984 
L 704.917339 218.394938 
L 705.419492 217.969217 
L 705.670568 217.843697 
L 705.921644 218.587306 
L 706.172721 218.402646 
L 706.423797 218.748468 
L 706.92595 217.215765 
L 707.177027 217.303235 
L 707.428103 217.761618 
L 707.67918 217.693262 
L 707.930256 217.87458 
L 708.181333 218.440816 
L 708.432409 217.589976 
L 708.683486 217.951523 
L 708.934562 217.615363 
L 709.185639 217.533266 
L 709.436715 218.336173 
L 709.938868 217.230242 
L 710.189945 218.706392 
L 710.441021 218.675015 
L 710.943174 218.271145 
L 711.19425 218.310957 
L 711.445327 216.871412 
L 711.696403 216.75898 
L 711.94748 218.602667 
L 712.198556 218.604803 
L 712.951786 217.217207 
L 713.202862 215.845617 
L 713.453939 218.143033 
L 713.705015 218.645694 
L 714.207168 216.303148 
L 714.458245 218.211618 
L 714.709321 217.075312 
L 714.960398 218.554223 
L 715.211474 218.295821 
L 715.713627 218.105993 
L 715.964703 218.247466 
L 716.21578 217.912404 
L 716.466856 218.54146 
L 716.717933 218.638838 
L 716.969009 217.199934 
L 717.220086 218.333726 
L 717.471162 217.351051 
L 717.722239 218.596462 
L 717.973315 217.292013 
L 718.475468 218.687309 
L 718.726545 218.16616 
L 719.228698 218.517991 
L 719.981927 218.102712 
L 720.233004 218.389666 
L 720.48408 218.449837 
L 720.735156 217.092867 
L 720.986233 218.359457 
L 721.237309 217.597326 
L 721.488386 218.693648 
L 721.990539 218.705088 
L 722.492692 218.282708 
L 722.743768 217.333536 
L 723.245921 218.277173 
L 723.496998 217.977263 
L 723.999151 218.432182 
L 724.250227 218.147363 
L 724.75238 218.307503 
L 725.003457 218.109472 
L 725.254533 218.293489 
L 725.756686 217.876751 
L 726.007762 218.3044 
L 726.760992 218.015183 
L 727.263145 217.137561 
L 727.514221 218.450053 
L 727.765298 217.897674 
L 728.016374 218.678648 
L 728.267451 217.779266 
L 728.518527 218.467048 
L 728.769604 217.182417 
L 729.02068 216.897035 
L 729.271757 217.945779 
L 729.522833 217.68481 
L 729.77391 217.878225 
L 730.024986 218.221244 
L 730.276063 218.099638 
L 730.527139 218.379794 
L 730.778216 218.249202 
L 731.029292 218.250608 
L 731.280368 218.693927 
L 731.531445 218.356211 
L 731.782521 217.704438 
L 732.284674 218.607021 
L 732.535751 217.862409 
L 732.786827 218.461746 
L 733.037904 218.168813 
L 733.540057 218.743125 
L 733.791133 218.608188 
L 734.04221 217.617 
L 734.293286 217.967656 
L 735.046516 217.789399 
L 735.297592 218.338807 
L 735.548669 217.500446 
L 735.799745 218.211737 
L 736.050821 217.824933 
L 736.301898 218.520051 
L 736.552974 218.611919 
L 736.804051 217.240347 
L 737.055127 218.351702 
L 737.306204 218.509649 
L 737.55728 218.103091 
L 737.808357 218.466591 
L 738.059433 217.867388 
L 738.31051 216.942699 
L 738.561586 218.52558 
L 738.812663 217.383789 
L 739.063739 218.39304 
L 739.314816 218.008833 
L 739.565892 218.009411 
L 739.816969 217.136728 
L 740.068045 218.394576 
L 740.319122 217.837662 
L 740.570198 217.562831 
L 740.821275 218.398316 
L 741.82558 217.329061 
L 742.076657 218.003696 
L 742.57881 217.629359 
L 742.829886 217.731335 
L 743.080963 218.307339 
L 743.332039 218.546385 
L 743.583116 217.762666 
L 744.085269 217.646222 
L 744.336345 218.693906 
L 744.587422 218.451715 
L 745.089575 218.508816 
L 745.340651 218.388589 
L 745.591728 217.214028 
L 745.842804 218.669587 
L 746.09388 218.73033 
L 746.344957 218.392699 
L 746.596033 218.423085 
L 746.84711 218.300087 
L 747.098186 218.480212 
L 747.349263 218.173511 
L 747.851416 218.564465 
L 748.102492 218.201124 
L 748.353569 218.607884 
L 748.604645 217.862188 
L 748.855722 218.575898 
L 749.106798 218.31612 
L 749.357875 218.300248 
L 749.608951 218.431133 
L 749.860028 217.387942 
L 750.111104 218.359929 
L 750.362181 218.562339 
L 750.613257 218.515134 
L 750.864334 217.882016 
L 751.11541 218.674301 
L 751.366486 218.226428 
L 751.617563 218.179198 
L 751.868639 218.448132 
L 752.119716 217.617219 
L 752.370792 217.689582 
L 752.621869 218.351975 
L 752.872945 218.589086 
L 753.124022 218.280394 
L 753.375098 218.571378 
L 753.626175 218.307331 
L 753.877251 218.681894 
L 754.379404 217.816126 
L 754.630481 217.992385 
L 754.881557 217.134446 
L 755.132634 218.34262 
L 755.38371 218.038458 
L 755.885863 218.279779 
L 756.388016 217.477401 
L 756.639092 218.229237 
L 756.890169 217.975826 
L 757.141245 218.320922 
L 757.392322 217.443396 
L 757.643398 218.668419 
L 758.396628 217.987178 
L 758.647704 218.466544 
L 758.898781 218.660091 
L 759.149857 218.428242 
L 759.400934 217.83479 
L 759.65201 218.390645 
L 759.903087 218.610678 
L 760.154163 218.383977 
L 760.656316 218.644762 
L 760.907393 218.025839 
L 761.158469 217.765122 
L 761.409545 217.954994 
L 761.660622 218.484671 
L 761.911698 218.428816 
L 762.162775 218.042099 
L 762.664928 218.401289 
L 762.916004 218.005436 
L 763.167081 218.381318 
L 763.418157 217.450574 
L 763.92031 218.546136 
L 764.171387 218.153892 
L 764.422463 217.121688 
L 764.67354 218.200436 
L 764.924616 217.038659 
L 765.175693 217.88727 
L 765.426769 217.373341 
L 765.677846 217.204797 
L 766.179999 218.612455 
L 766.431075 218.561891 
L 766.682151 218.179951 
L 766.933228 218.046888 
L 767.435381 218.513875 
L 767.686457 218.222261 
L 767.937534 218.316032 
L 768.18861 218.09111 
L 768.439687 218.675921 
L 768.690763 218.458564 
L 769.192916 218.557447 
L 769.443993 218.031988 
L 769.695069 218.676384 
L 769.946146 218.125531 
L 770.699375 218.5782 
L 770.950452 218.174236 
L 771.452604 218.677716 
L 771.954757 218.297039 
L 772.45691 218.677337 
L 772.707987 217.397472 
L 772.959063 218.694607 
L 773.21014 217.888793 
L 773.461216 218.752784 
L 773.712293 218.638234 
L 773.963369 218.182689 
L 774.214446 218.238549 
L 774.465522 218.446787 
L 774.716599 218.318862 
L 775.218752 218.571743 
L 775.469828 218.021205 
L 775.720905 217.873346 
L 775.971981 218.147346 
L 776.223058 217.768731 
L 776.474134 216.689541 
L 776.72521 218.434356 
L 776.976287 217.94511 
L 777.227363 218.181678 
L 777.729516 217.991449 
L 777.980593 217.695212 
L 778.231669 218.04064 
L 778.482746 216.741265 
L 779.235975 218.481549 
L 779.487052 217.221096 
L 779.738128 218.283814 
L 779.989205 217.711547 
L 780.240281 218.331314 
L 780.491358 218.240321 
L 780.742434 217.499813 
L 781.244587 218.39388 
L 781.495664 218.317393 
L 781.74674 218.067759 
L 781.997816 218.492633 
L 782.248893 218.600756 
L 782.499969 218.368309 
L 782.751046 217.867149 
L 783.002122 218.435417 
L 783.253199 218.194164 
L 783.504275 218.307513 
L 783.755352 218.139997 
L 784.006428 217.1857 
L 784.257505 218.466065 
L 784.508581 218.429935 
L 785.010734 218.003125 
L 785.261811 218.499535 
L 785.512887 218.098875 
L 785.763964 218.641745 
L 786.01504 218.436442 
L 786.266117 217.782951 
L 786.517193 217.89942 
L 786.768269 216.961311 
L 787.019346 218.44851 
L 787.270422 217.818741 
L 787.521499 218.720941 
L 787.772575 217.752575 
L 788.023652 217.824293 
L 788.274728 218.558197 
L 788.776881 217.784887 
L 789.027958 218.094419 
L 789.279034 217.894361 
L 789.530111 215.210298 
L 789.781187 218.33018 
L 790.032264 216.264476 
L 790.28334 217.520919 
L 790.534417 217.50389 
L 790.785493 218.251471 
L 791.03657 218.109131 
L 791.287646 217.659635 
L 791.538723 218.352685 
L 791.789799 217.361169 
L 792.040875 218.625815 
L 792.291952 215.096148 
L 792.543028 218.28473 
L 792.794105 217.761747 
L 793.045181 217.562338 
L 793.296258 218.221232 
L 793.547334 218.516032 
L 793.798411 218.522478 
L 794.049487 217.677772 
L 794.300564 218.542843 
L 794.55164 218.734313 
L 794.802717 218.474677 
L 795.30487 218.623294 
L 795.555946 218.222786 
L 795.807023 218.052291 
L 796.058099 218.278556 
L 796.309176 217.714516 
L 796.560252 217.511461 
L 796.811328 218.677111 
L 797.062405 217.635082 
L 797.313481 217.878241 
L 797.564558 218.495303 
L 797.815634 218.132713 
L 798.066711 218.355449 
L 798.317787 217.272846 
L 798.568864 218.278857 
L 798.81994 217.797359 
L 799.071017 218.444463 
L 799.322093 217.634629 
L 799.824246 218.483229 
L 800.075323 217.467974 
L 800.326399 217.459448 
L 800.577476 218.568508 
L 800.828552 216.032032 
L 801.079629 218.453241 
L 801.581782 216.830168 
L 801.832858 217.783225 
L 802.335011 216.505564 
L 802.586087 216.523175 
L 802.837164 215.904774 
L 803.08824 217.671786 
L 803.339317 217.705204 
L 803.590393 218.280884 
L 803.84147 216.643439 
L 804.343623 218.308569 
L 804.594699 218.700624 
L 805.096852 217.558772 
L 805.347929 218.262645 
L 805.599005 217.225804 
L 805.850082 216.74264 
L 806.101158 216.970032 
L 806.352235 217.009364 
L 806.854388 218.447144 
L 807.35654 217.617331 
L 807.607617 218.407764 
L 807.858693 218.183056 
L 808.360846 218.628798 
L 808.611923 217.327035 
L 808.862999 217.524528 
L 809.114076 218.757343 
L 809.365152 218.368156 
L 809.616229 218.689178 
L 809.867305 217.388669 
L 810.118382 218.427514 
L 810.369458 217.874743 
L 810.620535 218.439573 
L 810.871611 217.978514 
L 811.122688 216.943128 
L 811.373764 218.580075 
L 811.624841 217.660131 
L 811.875917 217.969036 
L 812.37807 216.280918 
L 813.131299 218.048135 
L 813.382376 217.815064 
L 813.633452 217.063618 
L 813.884529 215.729289 
L 814.135605 217.074786 
L 814.386682 215.465205 
L 814.637758 217.986152 
L 814.888835 217.706651 
L 815.139911 217.734294 
L 815.390988 217.936611 
L 815.642064 215.918478 
L 815.893141 218.241238 
L 816.144217 217.77648 
L 816.395294 216.480777 
L 816.64637 217.866736 
L 816.897447 217.624588 
L 817.148523 218.237726 
L 817.399599 216.882295 
L 817.650676 218.525937 
L 817.901752 218.203475 
L 818.403905 216.792729 
L 818.654982 218.263299 
L 818.906058 218.348051 
L 819.157135 217.547928 
L 819.408211 217.949662 
L 819.659288 217.900576 
L 819.910364 218.278789 
L 820.161441 217.652746 
L 820.412517 218.168603 
L 820.663594 217.91436 
L 820.91467 218.632613 
L 821.165747 216.943203 
L 821.416823 217.414988 
L 821.6679 218.429003 
L 821.918976 218.529556 
L 822.170052 217.765265 
L 822.421129 218.491544 
L 822.923282 217.305618 
L 823.174358 218.191512 
L 823.425435 218.285443 
L 823.927588 216.954367 
L 824.178664 217.932731 
L 824.429741 216.798571 
L 824.680817 217.88597 
L 824.931894 216.781263 
L 825.18297 217.953549 
L 825.434047 216.911593 
L 825.685123 216.519729 
L 825.9362 216.544644 
L 826.187276 217.563386 
L 826.438353 215.773201 
L 826.689429 218.272483 
L 826.940506 217.997731 
L 827.191582 218.009741 
L 827.442658 217.763477 
L 827.693735 218.473563 
L 827.944811 218.392115 
L 828.195888 217.390334 
L 828.446964 217.813067 
L 828.698041 217.470602 
L 828.949117 218.03935 
L 829.200194 218.098511 
L 829.702347 216.411212 
L 829.953423 218.273401 
L 830.2045 217.425769 
L 830.455576 218.335963 
L 830.706653 218.428804 
L 831.208806 217.641475 
L 831.459882 218.120311 
L 831.710959 217.897967 
L 831.962035 218.144462 
L 832.213111 217.547062 
L 832.464188 218.563805 
L 832.715264 217.984267 
L 832.966341 217.747508 
L 833.217417 216.201254 
L 833.468494 218.399587 
L 833.71957 216.990221 
L 833.970647 218.244945 
L 834.221723 216.629831 
L 834.4728 218.248373 
L 834.723876 217.933073 
L 834.974953 217.895399 
L 835.477106 216.867609 
L 835.728182 217.98442 
L 835.979259 217.43119 
L 836.230335 218.445464 
L 836.481412 217.000422 
L 836.732488 217.513987 
L 836.983565 218.536318 
L 837.234641 216.760348 
L 837.736794 218.701139 
L 837.98787 217.005731 
L 838.238947 217.129888 
L 838.490023 216.51543 
L 838.7411 217.904775 
L 838.992176 218.306781 
L 839.243253 218.006781 
L 839.494329 216.822089 
L 839.745406 217.584689 
L 839.996482 216.996695 
L 840.247559 217.321126 
L 840.498635 217.304265 
L 840.749712 216.987786 
L 841.000788 218.217232 
L 841.251865 218.184513 
L 841.502941 217.918211 
L 841.754018 216.260922 
L 842.005094 217.886032 
L 842.256171 217.987701 
L 842.507247 218.29685 
L 842.758323 218.026339 
L 843.0094 218.74235 
L 843.260476 217.501509 
L 843.511553 217.206248 
L 843.762629 216.419646 
L 844.013706 218.500222 
L 844.264782 218.148905 
L 844.515859 217.496247 
L 844.766935 218.671989 
L 845.269088 218.124217 
L 845.520165 218.391536 
L 845.771241 217.929057 
L 846.022318 218.532483 
L 846.273394 218.415509 
L 846.524471 218.173201 
L 846.775547 218.309136 
L 847.026624 217.732554 
L 847.2777 217.948309 
L 847.528776 218.495312 
L 847.779853 217.970613 
L 848.030929 218.319076 
L 848.282006 217.762696 
L 848.533082 217.572886 
L 848.784159 217.803534 
L 849.035235 217.652845 
L 849.286312 218.270474 
L 849.537388 217.646521 
L 849.788465 218.334554 
L 850.039541 218.175512 
L 850.290618 218.574754 
L 850.541694 218.598543 
L 850.792771 218.402009 
L 851.294924 217.371379 
L 851.546 217.688927 
L 851.797077 218.274377 
L 852.048153 218.10025 
L 852.29923 216.391855 
L 852.550306 218.345189 
L 853.303535 218.12162 
L 853.554612 218.221787 
L 853.805688 218.487012 
L 854.056765 218.43463 
L 854.307841 218.615538 
L 854.809994 217.937244 
L 855.061071 217.787525 
L 855.312147 218.007244 
L 855.563224 218.636666 
L 855.8143 218.480888 
L 856.316453 217.389281 
L 856.56753 217.905724 
L 856.818606 218.139562 
L 857.320759 217.516175 
L 857.822912 218.463387 
L 858.073988 217.751503 
L 858.325065 218.573183 
L 858.576141 218.141388 
L 858.827218 218.727152 
L 859.078294 218.467309 
L 859.329371 218.011828 
L 859.580447 218.703078 
L 860.333677 218.251266 
L 860.584753 218.381834 
L 860.83583 218.381756 
L 861.086906 218.67019 
L 861.337983 217.815781 
L 861.589059 218.738249 
L 861.840136 217.571787 
L 862.593365 218.495901 
L 862.844441 218.423927 
L 863.346594 217.2413 
L 863.597671 218.561372 
L 863.848747 217.751374 
L 864.099824 217.756548 
L 864.3509 218.581145 
L 864.601977 218.50322 
L 864.853053 217.961993 
L 865.355206 218.708584 
L 865.606283 218.385587 
L 866.108436 218.669663 
L 866.359512 218.088242 
L 866.610589 218.536908 
L 866.861665 218.310819 
L 867.112742 218.248995 
L 867.363818 217.745414 
L 867.614895 218.170714 
L 867.865971 218.229117 
L 868.368124 218.647922 
L 868.6192 218.301557 
L 868.870277 218.594611 
L 869.121353 217.914762 
L 869.37243 218.65418 
L 869.874583 217.928894 
L 870.125659 218.737065 
L 870.376736 216.998795 
L 870.627812 218.482566 
L 871.129965 217.972563 
L 871.381042 218.458649 
L 871.632118 217.805996 
L 871.883195 217.943891 
L 872.134271 218.698913 
L 872.385348 218.150854 
L 872.636424 218.647755 
L 873.138577 217.664961 
L 873.389653 218.624946 
L 873.891806 217.929913 
L 874.142883 217.847283 
L 874.393959 218.414611 
L 874.645036 218.223126 
L 874.896112 218.555807 
L 875.147189 217.924738 
L 875.398265 217.860993 
L 875.649342 218.606109 
L 875.900418 217.596195 
L 876.151495 218.513098 
L 876.402571 218.375656 
L 876.653648 217.883146 
L 876.904724 218.294032 
L 877.155801 217.394637 
L 877.406877 217.981662 
L 877.657954 217.998018 
L 877.90903 218.625322 
L 878.160106 218.444466 
L 878.411183 218.590136 
L 878.662259 217.974124 
L 879.164412 218.178757 
L 879.415489 218.563739 
L 879.666565 217.518343 
L 879.917642 217.515415 
L 880.168718 218.627849 
L 880.419795 217.516727 
L 880.670871 218.393091 
L 880.921948 217.407981 
L 881.173024 218.356018 
L 881.675177 218.102694 
L 881.926254 218.104475 
L 882.17733 217.952734 
L 882.428407 218.17946 
L 882.930559 218.067327 
L 883.181636 218.402116 
L 883.432712 218.524327 
L 883.683789 218.300867 
L 883.934865 218.539473 
L 884.437018 218.605419 
L 884.688095 218.15823 
L 884.939171 218.561447 
L 885.441324 218.60193 
L 885.692401 218.249402 
L 886.194554 218.585685 
L 886.696707 217.904525 
L 886.947783 218.516106 
L 887.449936 218.29903 
L 887.952089 218.662055 
L 888.203165 218.537127 
L 888.454242 218.636045 
L 888.705318 218.176042 
L 888.956395 218.717211 
L 889.207471 218.234695 
L 889.458548 218.531116 
L 889.709624 218.315303 
L 890.211777 218.604238 
L 890.462854 218.631482 
L 890.71393 218.076531 
L 890.965007 218.452805 
L 891.216083 218.609479 
L 891.46716 217.815942 
L 891.718236 218.669193 
L 892.220389 218.605523 
L 892.471466 217.353661 
L 892.722542 217.665597 
L 892.973619 218.180288 
L 893.224695 218.338026 
L 893.475771 218.741973 
L 893.726848 218.149671 
L 893.977924 218.319897 
L 894.229001 217.798384 
L 894.480077 218.569966 
L 894.731154 218.738253 
L 894.98223 218.460398 
L 895.233307 217.808114 
L 895.484383 217.966566 
L 895.986536 218.73989 
L 896.237613 218.372563 
L 896.488689 218.722974 
L 897.241919 218.41775 
L 897.492995 218.54597 
L 897.744072 218.465097 
L 897.995148 218.501017 
L 898.246224 218.082701 
L 898.497301 218.742328 
L 898.999454 218.360938 
L 899.25053 218.36192 
L 899.501607 218.641855 
L 899.752683 218.361754 
L 900.00376 218.302096 
L 900.254836 218.609853 
L 900.505913 217.857541 
L 900.756989 218.373064 
L 901.008066 217.50614 
L 901.510219 218.757839 
L 902.263448 218.669628 
L 902.514525 218.391321 
L 902.765601 218.477025 
L 903.016678 218.247898 
L 903.267754 218.526552 
L 903.51883 217.64987 
L 903.769907 218.643989 
L 904.020983 217.261722 
L 904.27206 218.37718 
L 904.523136 218.224881 
L 904.523136 218.224881 
" style="fill:none;stroke:#1f77b4;stroke-linecap:square;stroke-width:1.5;"/>
   </g>
   <g id="patch_3">
    <path d="M 114.1595 228.652344 
L 114.1595 11.212344 
" style="fill:none;stroke:#000000;stroke-linecap:square;stroke-linejoin:miter;stroke-width:0.8;"/>
   </g>
   <g id="patch_4">
    <path d="M 942.1595 228.652344 
L 942.1595 11.212344 
" style="fill:none;stroke:#000000;stroke-linecap:square;stroke-linejoin:miter;stroke-width:0.8;"/>
   </g>
   <g id="patch_5">
    <path d="M 114.1595 228.652344 
L 942.1595 228.652344 
" style="fill:none;stroke:#000000;stroke-linecap:square;stroke-linejoin:miter;stroke-width:0.8;"/>
   </g>
   <g id="patch_6">
    <path d="M 114.1595 11.212344 
L 942.1595 11.212344 
" style="fill:none;stroke:#000000;stroke-linecap:square;stroke-linejoin:miter;stroke-width:0.8;"/>
   </g>
   <g id="legend_1">
    <g id="PathCollection_2">
     <g>
      <use style="fill:#ff0000;stroke:#ff0000;" x="1019.9595" xlink:href="#m5ec5c6f6e1" y="33.397656"/>
     </g>
    </g>
    <g id="text_9">
     <!-- &gt; mean + 3SD -->
     <defs>
      <path d="M 52.875 31.296875 
L 5.46875 11.03125 
L 5.46875 19.78125 
L 43.015625 35.359375 
L 5.46875 50.78125 
L 5.46875 59.515625 
L 52.875 39.5 
z
" id="ArialMT-62"/>
      <path d="M 25.046875 11.578125 
L 25.046875 31.203125 
L 5.5625 31.203125 
L 5.5625 39.40625 
L 25.046875 39.40625 
L 25.046875 58.890625 
L 33.34375 58.890625 
L 33.34375 39.40625 
L 52.828125 39.40625 
L 52.828125 31.203125 
L 33.34375 31.203125 
L 33.34375 11.578125 
z
" id="ArialMT-43"/>
      <path d="M 4.5 23 
L 13.421875 23.78125 
Q 14.0625 18.40625 16.375 14.96875 
Q 18.703125 11.53125 23.578125 9.40625 
Q 28.46875 7.28125 34.578125 7.28125 
Q 39.984375 7.28125 44.140625 8.890625 
Q 48.296875 10.5 50.3125 13.296875 
Q 52.34375 16.109375 52.34375 19.4375 
Q 52.34375 22.796875 50.390625 25.3125 
Q 48.4375 27.828125 43.953125 29.546875 
Q 41.0625 30.671875 31.203125 33.03125 
Q 21.34375 35.40625 17.390625 37.5 
Q 12.25 40.1875 9.734375 44.15625 
Q 7.234375 48.140625 7.234375 53.078125 
Q 7.234375 58.5 10.296875 63.203125 
Q 13.375 67.921875 19.28125 70.359375 
Q 25.203125 72.796875 32.421875 72.796875 
Q 40.375 72.796875 46.453125 70.234375 
Q 52.546875 67.671875 55.8125 62.6875 
Q 59.078125 57.71875 59.328125 51.421875 
L 50.25 50.734375 
Q 49.515625 57.515625 45.28125 60.984375 
Q 41.0625 64.453125 32.8125 64.453125 
Q 24.21875 64.453125 20.28125 61.296875 
Q 16.359375 58.15625 16.359375 53.71875 
Q 16.359375 49.859375 19.140625 47.359375 
Q 21.875 44.875 33.421875 42.265625 
Q 44.96875 39.65625 49.265625 37.703125 
Q 55.515625 34.8125 58.484375 30.390625 
Q 61.46875 25.984375 61.46875 20.21875 
Q 61.46875 14.5 58.203125 9.4375 
Q 54.9375 4.390625 48.796875 1.578125 
Q 42.671875 -1.21875 35.015625 -1.21875 
Q 25.296875 -1.21875 18.71875 1.609375 
Q 12.15625 4.4375 8.421875 10.125 
Q 4.6875 15.828125 4.5 23 
z
" id="ArialMT-83"/>
      <path d="M 7.71875 0 
L 7.71875 71.578125 
L 32.375 71.578125 
Q 40.71875 71.578125 45.125 70.5625 
Q 51.265625 69.140625 55.609375 65.4375 
Q 61.28125 60.640625 64.078125 53.1875 
Q 66.890625 45.75 66.890625 36.1875 
Q 66.890625 28.03125 64.984375 21.734375 
Q 63.09375 15.4375 60.109375 11.296875 
Q 57.125 7.171875 53.578125 4.796875 
Q 50.046875 2.4375 45.046875 1.21875 
Q 40.046875 0 33.546875 0 
z
M 17.1875 8.453125 
L 32.46875 8.453125 
Q 39.546875 8.453125 43.578125 9.765625 
Q 47.609375 11.078125 50 13.484375 
Q 53.375 16.84375 55.25 22.53125 
Q 57.125 28.21875 57.125 36.328125 
Q 57.125 47.5625 53.4375 53.59375 
Q 49.75 59.625 44.484375 61.671875 
Q 40.671875 63.140625 32.234375 63.140625 
L 17.1875 63.140625 
z
" id="ArialMT-68"/>
     </defs>
     <g transform="translate(1066.7595 40.222656)scale(0.26 -0.26)">
      <use xlink:href="#ArialMT-62"/>
      <use x="58.398438" xlink:href="#ArialMT-32"/>
      <use x="86.181641" xlink:href="#ArialMT-109"/>
      <use x="169.482422" xlink:href="#ArialMT-101"/>
      <use x="225.097656" xlink:href="#ArialMT-97"/>
      <use x="280.712891" xlink:href="#ArialMT-110"/>
      <use x="336.328125" xlink:href="#ArialMT-32"/>
      <use x="364.111328" xlink:href="#ArialMT-43"/>
      <use x="422.509766" xlink:href="#ArialMT-32"/>
      <use x="450.292969" xlink:href="#ArialMT-51"/>
      <use x="505.908203" xlink:href="#ArialMT-83"/>
      <use x="572.607422" xlink:href="#ArialMT-68"/>
     </g>
    </g>
   </g>
  </g>
 </g>
 <defs>
  <clipPath id="p4b66e284fd">
   <rect height="217.44" width="828" x="114.1595" y="11.212344"/>
  </clipPath>
 </defs>
</svg>
