<?xml version="1.0" encoding="utf-8" standalone="no"?>
<!DOCTYPE svg PUBLIC "-//W3C//DTD SVG 1.1//EN"
  "http://www.w3.org/Graphics/SVG/1.1/DTD/svg11.dtd">
<!-- Created with matplotlib (https://matplotlib.org/) -->
<svg height="864pt" version="1.1" viewBox="0 0 576 864" width="576pt" xmlns="http://www.w3.org/2000/svg" xmlns:xlink="http://www.w3.org/1999/xlink">
 <defs>
  <style type="text/css">
*{stroke-linecap:butt;stroke-linejoin:round;}
  </style>
 </defs>
 <g id="figure_1">
  <g id="patch_1">
   <path d="M 0 864 
L 576 864 
L 576 0 
L 0 0 
z
" style="fill:#ffffff;"/>
  </g>
  <g id="axes_1">
   <g id="patch_2">
    <path clip-path="url(#p84a0ee5e5b)" d="M 183.6 118.79166 
Q 171.020593 143.950475 158.441186 169.109289 
" style="fill:none;stroke:#ff8282;stroke-linecap:round;stroke-width:4;"/>
   </g>
   <g id="patch_3">
    <path clip-path="url(#p84a0ee5e5b)" d="M 183.6 118.79166 
Q 196.179407 143.950475 208.758814 169.109289 
" style="fill:none;stroke:#ff8080;stroke-linecap:round;stroke-width:4;"/>
   </g>
   <g id="patch_4">
    <path clip-path="url(#p84a0ee5e5b)" d="M 152.117375 181.756911 
Q 176.530629 181.756911 200.943883 181.756911 
" style="fill:none;stroke:#ff8282;stroke-linecap:round;stroke-width:4;"/>
   </g>
   <g id="PathCollection_1">
    <path clip-path="url(#p84a0ee5e5b)" d="M 183.6 132.933796 
C 187.350538 132.933796 190.947969 131.443691 193.6 128.79166 
C 196.252031 126.139629 197.742136 122.542198 197.742136 118.79166 
C 197.742136 115.041122 196.252031 111.443691 193.6 108.79166 
C 190.947969 106.139629 187.350538 104.649525 183.6 104.649525 
C 179.849462 104.649525 176.252031 106.139629 173.6 108.79166 
C 170.947969 111.443691 169.457864 115.041122 169.457864 118.79166 
C 169.457864 122.542198 170.947969 126.139629 173.6 128.79166 
C 176.252031 131.443691 179.849462 132.933796 183.6 132.933796 
z
" style="fill:#0000ff;stroke:#0000ff;"/>
    <path clip-path="url(#p84a0ee5e5b)" d="M 152.117375 195.899047 
C 155.867913 195.899047 159.465344 194.408942 162.117375 191.756911 
C 164.769406 189.10488 166.25951 185.507449 166.25951 181.756911 
C 166.25951 178.006373 164.769406 174.408942 162.117375 171.756911 
C 159.465344 169.10488 155.867913 167.614776 152.117375 167.614776 
C 148.366836 167.614776 144.769406 169.10488 142.117375 171.756911 
C 139.465344 174.408942 137.975239 178.006373 137.975239 181.756911 
C 137.975239 185.507449 139.465344 189.10488 142.117375 191.756911 
C 144.769406 194.408942 148.366836 195.899047 152.117375 195.899047 
z
" style="fill:#0000ff;stroke:#0000ff;"/>
    <path clip-path="url(#p84a0ee5e5b)" d="M 215.082625 195.899047 
C 218.833164 195.899047 222.430594 194.408942 225.082625 191.756911 
C 227.734656 189.10488 229.224761 185.507449 229.224761 181.756911 
C 229.224761 178.006373 227.734656 174.408942 225.082625 171.756911 
C 222.430594 169.10488 218.833164 167.614776 215.082625 167.614776 
C 211.332087 167.614776 207.734656 169.10488 205.082625 171.756911 
C 202.430594 174.408942 200.94049 178.006373 200.94049 181.756911 
C 200.94049 185.507449 202.430594 189.10488 205.082625 191.756911 
C 207.734656 194.408942 211.332087 195.899047 215.082625 195.899047 
z
" style="fill:#0000ff;stroke:#0000ff;"/>
   </g>
   <g id="text_1">
    <g clip-path="url(#p84a0ee5e5b)">
     <!-- 1 -->
     <defs>
      <path d="M 12.40625 8.296875 
L 28.515625 8.296875 
L 28.515625 63.921875 
L 10.984375 60.40625 
L 10.984375 69.390625 
L 28.421875 72.90625 
L 38.28125 72.90625 
L 38.28125 8.296875 
L 54.390625 8.296875 
L 54.390625 0 
L 12.40625 0 
z
" id="DejaVuSans-49"/>
     </defs>
     <g style="fill:#ffffff;" transform="translate(178.828125 122.930723)scale(0.15 -0.15)">
      <use xlink:href="#DejaVuSans-49"/>
     </g>
    </g>
   </g>
   <g id="text_2">
    <g clip-path="url(#p84a0ee5e5b)">
     <!-- 2 -->
     <defs>
      <path d="M 19.1875 8.296875 
L 53.609375 8.296875 
L 53.609375 0 
L 7.328125 0 
L 7.328125 8.296875 
Q 12.9375 14.109375 22.625 23.890625 
Q 32.328125 33.6875 34.8125 36.53125 
Q 39.546875 41.84375 41.421875 45.53125 
Q 43.3125 49.21875 43.3125 52.78125 
Q 43.3125 58.59375 39.234375 62.25 
Q 35.15625 65.921875 28.609375 65.921875 
Q 23.96875 65.921875 18.8125 64.3125 
Q 13.671875 62.703125 7.8125 59.421875 
L 7.8125 69.390625 
Q 13.765625 71.78125 18.9375 73 
Q 24.125 74.21875 28.421875 74.21875 
Q 39.75 74.21875 46.484375 68.546875 
Q 53.21875 62.890625 53.21875 53.421875 
Q 53.21875 48.921875 51.53125 44.890625 
Q 49.859375 40.875 45.40625 35.40625 
Q 44.1875 33.984375 37.640625 27.21875 
Q 31.109375 20.453125 19.1875 8.296875 
z
" id="DejaVuSans-50"/>
     </defs>
     <g style="fill:#ffffff;" transform="translate(147.3455 185.895974)scale(0.15 -0.15)">
      <use xlink:href="#DejaVuSans-50"/>
     </g>
    </g>
   </g>
   <g id="text_3">
    <g clip-path="url(#p84a0ee5e5b)">
     <!-- 3 -->
     <defs>
      <path d="M 40.578125 39.3125 
Q 47.65625 37.796875 51.625 33 
Q 55.609375 28.21875 55.609375 21.1875 
Q 55.609375 10.40625 48.1875 4.484375 
Q 40.765625 -1.421875 27.09375 -1.421875 
Q 22.515625 -1.421875 17.65625 -0.515625 
Q 12.796875 0.390625 7.625 2.203125 
L 7.625 11.71875 
Q 11.71875 9.328125 16.59375 8.109375 
Q 21.484375 6.890625 26.8125 6.890625 
Q 36.078125 6.890625 40.9375 10.546875 
Q 45.796875 14.203125 45.796875 21.1875 
Q 45.796875 27.640625 41.28125 31.265625 
Q 36.765625 34.90625 28.71875 34.90625 
L 20.21875 34.90625 
L 20.21875 43.015625 
L 29.109375 43.015625 
Q 36.375 43.015625 40.234375 45.921875 
Q 44.09375 48.828125 44.09375 54.296875 
Q 44.09375 59.90625 40.109375 62.90625 
Q 36.140625 65.921875 28.71875 65.921875 
Q 24.65625 65.921875 20.015625 65.03125 
Q 15.375 64.15625 9.8125 62.3125 
L 9.8125 71.09375 
Q 15.4375 72.65625 20.34375 73.4375 
Q 25.25 74.21875 29.59375 74.21875 
Q 40.828125 74.21875 47.359375 69.109375 
Q 53.90625 64.015625 53.90625 55.328125 
Q 53.90625 49.265625 50.4375 45.09375 
Q 46.96875 40.921875 40.578125 39.3125 
z
" id="DejaVuSans-51"/>
     </defs>
     <g style="fill:#ffffff;" transform="translate(210.31075 185.895974)scale(0.15 -0.15)">
      <use xlink:href="#DejaVuSans-51"/>
     </g>
    </g>
   </g>
  </g>
  <g id="axes_2">
   <g id="patch_5">
    <path d="M 295.2 196.868571 
L 518.4 196.868571 
L 518.4 103.68 
L 295.2 103.68 
z
" style="fill:#ffffff;"/>
   </g>
   <g id="matplotlib.axis_1">
    <g id="xtick_1">
     <g id="line2d_1">
      <defs>
       <path d="M 0 0 
L 0 3.5 
" id="mc4e2d3dbb6" style="stroke:#000000;stroke-width:0.8;"/>
      </defs>
      <g>
       <use style="stroke:#000000;stroke-width:0.8;" x="305.345455" xlink:href="#mc4e2d3dbb6" y="196.868571"/>
      </g>
     </g>
     <g id="text_4">
      <!-- 0 -->
      <defs>
       <path d="M 4.15625 35.296875 
Q 4.15625 48 6.765625 55.734375 
Q 9.375 63.484375 14.515625 67.671875 
Q 19.671875 71.875 27.484375 71.875 
Q 33.25 71.875 37.59375 69.546875 
Q 41.9375 67.234375 44.765625 62.859375 
Q 47.609375 58.5 49.21875 52.21875 
Q 50.828125 45.953125 50.828125 35.296875 
Q 50.828125 22.703125 48.234375 14.96875 
Q 45.65625 7.234375 40.5 3 
Q 35.359375 -1.21875 27.484375 -1.21875 
Q 17.140625 -1.21875 11.234375 6.203125 
Q 4.15625 15.140625 4.15625 35.296875 
z
M 13.1875 35.296875 
Q 13.1875 17.671875 17.3125 11.828125 
Q 21.4375 6 27.484375 6 
Q 33.546875 6 37.671875 11.859375 
Q 41.796875 17.71875 41.796875 35.296875 
Q 41.796875 52.984375 37.671875 58.78125 
Q 33.546875 64.59375 27.390625 64.59375 
Q 21.34375 64.59375 17.71875 59.46875 
Q 13.1875 52.9375 13.1875 35.296875 
z
" id="ArialMT-48"/>
      </defs>
      <g transform="translate(300.340611 216.752634)scale(0.18 -0.18)">
       <use xlink:href="#ArialMT-48"/>
      </g>
     </g>
    </g>
    <g id="xtick_2">
     <g id="line2d_2">
      <g>
       <use style="stroke:#000000;stroke-width:0.8;" x="373.004371" xlink:href="#mc4e2d3dbb6" y="196.868571"/>
      </g>
     </g>
     <g id="text_5">
      <!-- 1000 -->
      <defs>
       <path d="M 37.25 0 
L 28.46875 0 
L 28.46875 56 
Q 25.296875 52.984375 20.140625 49.953125 
Q 14.984375 46.921875 10.890625 45.40625 
L 10.890625 53.90625 
Q 18.265625 57.375 23.78125 62.296875 
Q 29.296875 67.234375 31.59375 71.875 
L 37.25 71.875 
z
" id="ArialMT-49"/>
      </defs>
      <g transform="translate(352.984996 216.752634)scale(0.18 -0.18)">
       <use xlink:href="#ArialMT-49"/>
       <use x="55.615234" xlink:href="#ArialMT-48"/>
       <use x="111.230469" xlink:href="#ArialMT-48"/>
       <use x="166.845703" xlink:href="#ArialMT-48"/>
      </g>
     </g>
    </g>
    <g id="xtick_3">
     <g id="line2d_3">
      <g>
       <use style="stroke:#000000;stroke-width:0.8;" x="440.663288" xlink:href="#mc4e2d3dbb6" y="196.868571"/>
      </g>
     </g>
     <g id="text_6">
      <!-- 2000 -->
      <defs>
       <path d="M 50.34375 8.453125 
L 50.34375 0 
L 3.03125 0 
Q 2.9375 3.171875 4.046875 6.109375 
Q 5.859375 10.9375 9.828125 15.625 
Q 13.8125 20.3125 21.34375 26.46875 
Q 33.015625 36.03125 37.109375 41.625 
Q 41.21875 47.21875 41.21875 52.203125 
Q 41.21875 57.421875 37.46875 61 
Q 33.734375 64.59375 27.734375 64.59375 
Q 21.390625 64.59375 17.578125 60.78125 
Q 13.765625 56.984375 13.71875 50.25 
L 4.6875 51.171875 
Q 5.609375 61.28125 11.65625 66.578125 
Q 17.71875 71.875 27.9375 71.875 
Q 38.234375 71.875 44.234375 66.15625 
Q 50.25 60.453125 50.25 52 
Q 50.25 47.703125 48.484375 43.546875 
Q 46.734375 39.40625 42.65625 34.8125 
Q 38.578125 30.21875 29.109375 22.21875 
Q 21.1875 15.578125 18.9375 13.203125 
Q 16.703125 10.84375 15.234375 8.453125 
z
" id="ArialMT-50"/>
      </defs>
      <g transform="translate(420.643913 216.752634)scale(0.18 -0.18)">
       <use xlink:href="#ArialMT-50"/>
       <use x="55.615234" xlink:href="#ArialMT-48"/>
       <use x="111.230469" xlink:href="#ArialMT-48"/>
       <use x="166.845703" xlink:href="#ArialMT-48"/>
      </g>
     </g>
    </g>
    <g id="xtick_4">
     <g id="line2d_4">
      <g>
       <use style="stroke:#000000;stroke-width:0.8;" x="508.322204" xlink:href="#mc4e2d3dbb6" y="196.868571"/>
      </g>
     </g>
     <g id="text_7">
      <!-- 3000 -->
      <defs>
       <path d="M 4.203125 18.890625 
L 12.984375 20.0625 
Q 14.5 12.59375 18.140625 9.296875 
Q 21.78125 6 27 6 
Q 33.203125 6 37.46875 10.296875 
Q 41.75 14.59375 41.75 20.953125 
Q 41.75 27 37.796875 30.921875 
Q 33.84375 34.859375 27.734375 34.859375 
Q 25.25 34.859375 21.53125 33.890625 
L 22.515625 41.609375 
Q 23.390625 41.5 23.921875 41.5 
Q 29.546875 41.5 34.03125 44.421875 
Q 38.53125 47.359375 38.53125 53.46875 
Q 38.53125 58.296875 35.25 61.46875 
Q 31.984375 64.65625 26.8125 64.65625 
Q 21.6875 64.65625 18.265625 61.421875 
Q 14.84375 58.203125 13.875 51.765625 
L 5.078125 53.328125 
Q 6.6875 62.15625 12.390625 67.015625 
Q 18.109375 71.875 26.609375 71.875 
Q 32.46875 71.875 37.390625 69.359375 
Q 42.328125 66.84375 44.9375 62.5 
Q 47.5625 58.15625 47.5625 53.265625 
Q 47.5625 48.640625 45.0625 44.828125 
Q 42.578125 41.015625 37.703125 38.765625 
Q 44.046875 37.3125 47.5625 32.6875 
Q 51.078125 28.078125 51.078125 21.140625 
Q 51.078125 11.765625 44.234375 5.25 
Q 37.40625 -1.265625 26.953125 -1.265625 
Q 17.53125 -1.265625 11.296875 4.34375 
Q 5.078125 9.96875 4.203125 18.890625 
z
" id="ArialMT-51"/>
      </defs>
      <g transform="translate(488.302829 216.752634)scale(0.18 -0.18)">
       <use xlink:href="#ArialMT-51"/>
       <use x="55.615234" xlink:href="#ArialMT-48"/>
       <use x="111.230469" xlink:href="#ArialMT-48"/>
       <use x="166.845703" xlink:href="#ArialMT-48"/>
      </g>
     </g>
    </g>
    <g id="text_8">
     <!-- # sample -->
     <defs>
      <path d="M 5.03125 -1.21875 
L 9.28125 19.578125 
L 1.03125 19.578125 
L 1.03125 26.859375 
L 10.75 26.859375 
L 14.359375 44.578125 
L 1.03125 44.578125 
L 1.03125 51.859375 
L 15.828125 51.859375 
L 20.0625 72.796875 
L 27.390625 72.796875 
L 23.140625 51.859375 
L 38.53125 51.859375 
L 42.78125 72.796875 
L 50.140625 72.796875 
L 45.90625 51.859375 
L 54.34375 51.859375 
L 54.34375 44.578125 
L 44.4375 44.578125 
L 40.765625 26.859375 
L 54.34375 26.859375 
L 54.34375 19.578125 
L 39.3125 19.578125 
L 35.0625 -1.21875 
L 27.734375 -1.21875 
L 31.9375 19.578125 
L 16.609375 19.578125 
L 12.359375 -1.21875 
z
M 18.0625 26.859375 
L 33.40625 26.859375 
L 37.0625 44.578125 
L 21.6875 44.578125 
z
" id="ArialMT-35"/>
      <path id="ArialMT-32"/>
      <path d="M 3.078125 15.484375 
L 11.765625 16.84375 
Q 12.5 11.625 15.84375 8.84375 
Q 19.1875 6.0625 25.203125 6.0625 
Q 31.25 6.0625 34.171875 8.515625 
Q 37.109375 10.984375 37.109375 14.3125 
Q 37.109375 17.28125 34.515625 19 
Q 32.71875 20.171875 25.53125 21.96875 
Q 15.875 24.421875 12.140625 26.203125 
Q 8.40625 27.984375 6.46875 31.125 
Q 4.546875 34.28125 4.546875 38.09375 
Q 4.546875 41.546875 6.125 44.5 
Q 7.71875 47.46875 10.453125 49.421875 
Q 12.5 50.921875 16.03125 51.96875 
Q 19.578125 53.03125 23.640625 53.03125 
Q 29.734375 53.03125 34.34375 51.265625 
Q 38.96875 49.515625 41.15625 46.5 
Q 43.359375 43.5 44.1875 38.484375 
L 35.59375 37.3125 
Q 35.015625 41.3125 32.203125 43.546875 
Q 29.390625 45.796875 24.265625 45.796875 
Q 18.21875 45.796875 15.625 43.796875 
Q 13.03125 41.796875 13.03125 39.109375 
Q 13.03125 37.40625 14.109375 36.03125 
Q 15.1875 34.625 17.484375 33.6875 
Q 18.796875 33.203125 25.25 31.453125 
Q 34.578125 28.953125 38.25 27.359375 
Q 41.9375 25.78125 44.03125 22.75 
Q 46.140625 19.734375 46.140625 15.234375 
Q 46.140625 10.84375 43.578125 6.953125 
Q 41.015625 3.078125 36.171875 0.953125 
Q 31.34375 -1.171875 25.25 -1.171875 
Q 15.140625 -1.171875 9.84375 3.03125 
Q 4.546875 7.234375 3.078125 15.484375 
z
" id="ArialMT-115"/>
      <path d="M 40.4375 6.390625 
Q 35.546875 2.25 31.03125 0.53125 
Q 26.515625 -1.171875 21.34375 -1.171875 
Q 12.796875 -1.171875 8.203125 3 
Q 3.609375 7.171875 3.609375 13.671875 
Q 3.609375 17.484375 5.34375 20.625 
Q 7.078125 23.78125 9.890625 25.6875 
Q 12.703125 27.59375 16.21875 28.5625 
Q 18.796875 29.25 24.03125 29.890625 
Q 34.671875 31.15625 39.703125 32.90625 
Q 39.75 34.71875 39.75 35.203125 
Q 39.75 40.578125 37.25 42.78125 
Q 33.890625 45.75 27.25 45.75 
Q 21.046875 45.75 18.09375 43.578125 
Q 15.140625 41.40625 13.71875 35.890625 
L 5.125 37.0625 
Q 6.296875 42.578125 8.984375 45.96875 
Q 11.671875 49.359375 16.75 51.1875 
Q 21.828125 53.03125 28.515625 53.03125 
Q 35.15625 53.03125 39.296875 51.46875 
Q 43.453125 49.90625 45.40625 47.53125 
Q 47.359375 45.171875 48.140625 41.546875 
Q 48.578125 39.3125 48.578125 33.453125 
L 48.578125 21.734375 
Q 48.578125 9.46875 49.140625 6.21875 
Q 49.703125 2.984375 51.375 0 
L 42.1875 0 
Q 40.828125 2.734375 40.4375 6.390625 
z
M 39.703125 26.03125 
Q 34.90625 24.078125 25.34375 22.703125 
Q 19.921875 21.921875 17.671875 20.9375 
Q 15.4375 19.96875 14.203125 18.09375 
Q 12.984375 16.21875 12.984375 13.921875 
Q 12.984375 10.40625 15.640625 8.0625 
Q 18.3125 5.71875 23.4375 5.71875 
Q 28.515625 5.71875 32.46875 7.9375 
Q 36.421875 10.15625 38.28125 14.015625 
Q 39.703125 17 39.703125 22.796875 
z
" id="ArialMT-97"/>
      <path d="M 6.59375 0 
L 6.59375 51.859375 
L 14.453125 51.859375 
L 14.453125 44.578125 
Q 16.890625 48.390625 20.9375 50.703125 
Q 25 53.03125 30.171875 53.03125 
Q 35.9375 53.03125 39.625 50.640625 
Q 43.3125 48.25 44.828125 43.953125 
Q 50.984375 53.03125 60.84375 53.03125 
Q 68.5625 53.03125 72.703125 48.75 
Q 76.859375 44.484375 76.859375 35.59375 
L 76.859375 0 
L 68.109375 0 
L 68.109375 32.671875 
Q 68.109375 37.9375 67.25 40.25 
Q 66.40625 42.578125 64.15625 43.984375 
Q 61.921875 45.40625 58.890625 45.40625 
Q 53.421875 45.40625 49.796875 41.765625 
Q 46.1875 38.140625 46.1875 30.125 
L 46.1875 0 
L 37.40625 0 
L 37.40625 33.6875 
Q 37.40625 39.546875 35.25 42.46875 
Q 33.109375 45.40625 28.21875 45.40625 
Q 24.515625 45.40625 21.359375 43.453125 
Q 18.21875 41.5 16.796875 37.734375 
Q 15.375 33.984375 15.375 26.90625 
L 15.375 0 
z
" id="ArialMT-109"/>
      <path d="M 6.59375 -19.875 
L 6.59375 51.859375 
L 14.59375 51.859375 
L 14.59375 45.125 
Q 17.4375 49.078125 21 51.046875 
Q 24.5625 53.03125 29.640625 53.03125 
Q 36.28125 53.03125 41.359375 49.609375 
Q 46.4375 46.1875 49.015625 39.953125 
Q 51.609375 33.734375 51.609375 26.3125 
Q 51.609375 18.359375 48.75 11.984375 
Q 45.90625 5.609375 40.453125 2.21875 
Q 35.015625 -1.171875 29 -1.171875 
Q 24.609375 -1.171875 21.109375 0.6875 
Q 17.625 2.546875 15.375 5.375 
L 15.375 -19.875 
z
M 14.546875 25.640625 
Q 14.546875 15.625 18.59375 10.84375 
Q 22.65625 6.0625 28.421875 6.0625 
Q 34.28125 6.0625 38.453125 11.015625 
Q 42.625 15.96875 42.625 26.375 
Q 42.625 36.28125 38.546875 41.203125 
Q 34.46875 46.140625 28.8125 46.140625 
Q 23.1875 46.140625 18.859375 40.890625 
Q 14.546875 35.640625 14.546875 25.640625 
z
" id="ArialMT-112"/>
      <path d="M 6.390625 0 
L 6.390625 71.578125 
L 15.1875 71.578125 
L 15.1875 0 
z
" id="ArialMT-108"/>
      <path d="M 42.09375 16.703125 
L 51.171875 15.578125 
Q 49.03125 7.625 43.21875 3.21875 
Q 37.40625 -1.171875 28.375 -1.171875 
Q 17 -1.171875 10.328125 5.828125 
Q 3.65625 12.84375 3.65625 25.484375 
Q 3.65625 38.578125 10.390625 45.796875 
Q 17.140625 53.03125 27.875 53.03125 
Q 38.28125 53.03125 44.875 45.953125 
Q 51.46875 38.875 51.46875 26.03125 
Q 51.46875 25.25 51.421875 23.6875 
L 12.75 23.6875 
Q 13.234375 15.140625 17.578125 10.59375 
Q 21.921875 6.0625 28.421875 6.0625 
Q 33.25 6.0625 36.671875 8.59375 
Q 40.09375 11.140625 42.09375 16.703125 
z
M 13.234375 30.90625 
L 42.1875 30.90625 
Q 41.609375 37.453125 38.875 40.71875 
Q 34.671875 45.796875 27.984375 45.796875 
Q 21.921875 45.796875 17.796875 41.75 
Q 13.671875 37.703125 13.234375 30.90625 
z
" id="ArialMT-101"/>
     </defs>
     <g transform="translate(370.283906 237.433571)scale(0.18 -0.18)">
      <use xlink:href="#ArialMT-35"/>
      <use x="55.615234" xlink:href="#ArialMT-32"/>
      <use x="83.398438" xlink:href="#ArialMT-115"/>
      <use x="133.398438" xlink:href="#ArialMT-97"/>
      <use x="189.013672" xlink:href="#ArialMT-109"/>
      <use x="272.314453" xlink:href="#ArialMT-112"/>
      <use x="327.929688" xlink:href="#ArialMT-108"/>
      <use x="350.146484" xlink:href="#ArialMT-101"/>
     </g>
    </g>
   </g>
   <g id="matplotlib.axis_2">
    <g id="ytick_1">
     <g id="line2d_5">
      <defs>
       <path d="M 0 0 
L -3.5 0 
" id="mbc24cf601b" style="stroke:#000000;stroke-width:0.8;"/>
      </defs>
      <g>
       <use style="stroke:#000000;stroke-width:0.8;" x="295.2" xlink:href="#mbc24cf601b" y="192.632727"/>
      </g>
     </g>
     <g id="text_9">
      <!-- 0 -->
      <g transform="translate(278.190313 199.074759)scale(0.18 -0.18)">
       <use xlink:href="#ArialMT-48"/>
      </g>
     </g>
    </g>
    <g id="ytick_2">
     <g id="line2d_6">
      <g>
       <use style="stroke:#000000;stroke-width:0.8;" x="295.2" xlink:href="#mbc24cf601b" y="107.915844"/>
      </g>
     </g>
     <g id="text_10">
      <!-- 1 -->
      <g transform="translate(278.190313 114.357875)scale(0.18 -0.18)">
       <use xlink:href="#ArialMT-49"/>
      </g>
     </g>
    </g>
    <g id="text_11">
     <!-- time course -->
     <defs>
      <path d="M 25.78125 7.859375 
L 27.046875 0.09375 
Q 23.34375 -0.6875 20.40625 -0.6875 
Q 15.625 -0.6875 12.984375 0.828125 
Q 10.359375 2.34375 9.28125 4.8125 
Q 8.203125 7.28125 8.203125 15.1875 
L 8.203125 45.015625 
L 1.765625 45.015625 
L 1.765625 51.859375 
L 8.203125 51.859375 
L 8.203125 64.703125 
L 16.9375 69.96875 
L 16.9375 51.859375 
L 25.78125 51.859375 
L 25.78125 45.015625 
L 16.9375 45.015625 
L 16.9375 14.703125 
Q 16.9375 10.9375 17.40625 9.859375 
Q 17.875 8.796875 18.921875 8.15625 
Q 19.96875 7.515625 21.921875 7.515625 
Q 23.390625 7.515625 25.78125 7.859375 
z
" id="ArialMT-116"/>
      <path d="M 6.640625 61.46875 
L 6.640625 71.578125 
L 15.4375 71.578125 
L 15.4375 61.46875 
z
M 6.640625 0 
L 6.640625 51.859375 
L 15.4375 51.859375 
L 15.4375 0 
z
" id="ArialMT-105"/>
      <path d="M 40.4375 19 
L 49.078125 17.875 
Q 47.65625 8.9375 41.8125 3.875 
Q 35.984375 -1.171875 27.484375 -1.171875 
Q 16.84375 -1.171875 10.375 5.78125 
Q 3.90625 12.75 3.90625 25.734375 
Q 3.90625 34.125 6.6875 40.421875 
Q 9.46875 46.734375 15.15625 49.875 
Q 20.84375 53.03125 27.546875 53.03125 
Q 35.984375 53.03125 41.359375 48.75 
Q 46.734375 44.484375 48.25 36.625 
L 39.703125 35.296875 
Q 38.484375 40.53125 35.375 43.15625 
Q 32.28125 45.796875 27.875 45.796875 
Q 21.234375 45.796875 17.078125 41.03125 
Q 12.9375 36.28125 12.9375 25.984375 
Q 12.9375 15.53125 16.9375 10.796875 
Q 20.953125 6.0625 27.390625 6.0625 
Q 32.5625 6.0625 36.03125 9.234375 
Q 39.5 12.40625 40.4375 19 
z
" id="ArialMT-99"/>
      <path d="M 3.328125 25.921875 
Q 3.328125 40.328125 11.328125 47.265625 
Q 18.015625 53.03125 27.640625 53.03125 
Q 38.328125 53.03125 45.109375 46.015625 
Q 51.90625 39.015625 51.90625 26.65625 
Q 51.90625 16.65625 48.90625 10.90625 
Q 45.90625 5.171875 40.15625 2 
Q 34.421875 -1.171875 27.640625 -1.171875 
Q 16.75 -1.171875 10.03125 5.8125 
Q 3.328125 12.796875 3.328125 25.921875 
z
M 12.359375 25.921875 
Q 12.359375 15.96875 16.703125 11.015625 
Q 21.046875 6.0625 27.640625 6.0625 
Q 34.1875 6.0625 38.53125 11.03125 
Q 42.875 16.015625 42.875 26.21875 
Q 42.875 35.84375 38.5 40.796875 
Q 34.125 45.75 27.640625 45.75 
Q 21.046875 45.75 16.703125 40.8125 
Q 12.359375 35.890625 12.359375 25.921875 
z
" id="ArialMT-111"/>
      <path d="M 40.578125 0 
L 40.578125 7.625 
Q 34.515625 -1.171875 24.125 -1.171875 
Q 19.53125 -1.171875 15.546875 0.578125 
Q 11.578125 2.34375 9.640625 5 
Q 7.71875 7.671875 6.9375 11.53125 
Q 6.390625 14.109375 6.390625 19.734375 
L 6.390625 51.859375 
L 15.1875 51.859375 
L 15.1875 23.09375 
Q 15.1875 16.21875 15.71875 13.8125 
Q 16.546875 10.359375 19.234375 8.375 
Q 21.921875 6.390625 25.875 6.390625 
Q 29.828125 6.390625 33.296875 8.421875 
Q 36.765625 10.453125 38.203125 13.9375 
Q 39.65625 17.4375 39.65625 24.078125 
L 39.65625 51.859375 
L 48.4375 51.859375 
L 48.4375 0 
z
" id="ArialMT-117"/>
      <path d="M 6.5 0 
L 6.5 51.859375 
L 14.40625 51.859375 
L 14.40625 44 
Q 17.4375 49.515625 20 51.265625 
Q 22.5625 53.03125 25.640625 53.03125 
Q 30.078125 53.03125 34.671875 50.203125 
L 31.640625 42.046875 
Q 28.421875 43.953125 25.203125 43.953125 
Q 22.3125 43.953125 20.015625 42.21875 
Q 17.71875 40.484375 16.75 37.40625 
Q 15.28125 32.71875 15.28125 27.15625 
L 15.28125 0 
z
" id="ArialMT-114"/>
     </defs>
     <g transform="translate(270.612813 196.787411)rotate(-90)scale(0.18 -0.18)">
      <use xlink:href="#ArialMT-116"/>
      <use x="27.783203" xlink:href="#ArialMT-105"/>
      <use x="50" xlink:href="#ArialMT-109"/>
      <use x="133.300781" xlink:href="#ArialMT-101"/>
      <use x="188.916016" xlink:href="#ArialMT-32"/>
      <use x="216.699219" xlink:href="#ArialMT-99"/>
      <use x="266.699219" xlink:href="#ArialMT-111"/>
      <use x="322.314453" xlink:href="#ArialMT-117"/>
      <use x="377.929688" xlink:href="#ArialMT-114"/>
      <use x="411.230469" xlink:href="#ArialMT-115"/>
      <use x="461.230469" xlink:href="#ArialMT-101"/>
     </g>
    </g>
   </g>
   <g id="line2d_7">
    <path clip-path="url(#pf51120ba96)" d="M 305.345455 107.915844 
L 307.307563 107.915844 
L 307.375222 192.632727 
L 307.51054 107.915844 
L 307.645858 192.632727 
L 307.713517 192.632727 
L 307.848834 107.915844 
L 307.984152 192.632727 
L 311.773052 192.632727 
L 311.908369 107.915844 
L 313.396866 107.915844 
L 313.532183 192.632727 
L 316.23854 192.632727 
L 316.306199 107.915844 
L 316.441517 192.632727 
L 333.897517 192.632727 
L 334.032835 107.915844 
L 334.235812 107.915844 
L 334.37113 192.632727 
L 334.98006 192.632727 
L 335.115378 107.915844 
L 337.48344 107.915844 
L 337.618758 192.632727 
L 337.889393 192.632727 
L 337.957052 107.915844 
L 338.024711 192.632727 
L 338.160029 107.915844 
L 338.295347 192.632727 
L 341.475316 192.632727 
L 341.610634 107.915844 
L 344.587626 107.915844 
L 344.722944 192.632727 
L 347.902913 192.632727 
L 348.038231 107.915844 
L 348.173549 192.632727 
L 348.241208 107.915844 
L 348.376526 192.632727 
L 348.647161 192.632727 
L 348.782479 107.915844 
L 350.947564 107.915844 
L 351.082882 192.632727 
L 352.165425 192.632727 
L 352.233084 107.915844 
L 352.368402 192.632727 
L 353.789239 192.632727 
L 353.856898 107.915844 
L 353.992216 192.632727 
L 369.689084 192.632727 
L 369.756743 107.915844 
L 369.892061 192.632727 
L 372.4631 192.632727 
L 372.598418 107.915844 
L 374.425208 107.915844 
L 374.560526 192.632727 
L 377.740495 192.632727 
L 377.875813 107.915844 
L 378.146449 107.915844 
L 378.281767 192.632727 
L 378.349426 192.632727 
L 378.417084 107.915844 
L 378.552402 192.632727 
L 378.68772 107.915844 
L 381.326418 107.915844 
L 381.461736 192.632727 
L 381.664712 192.632727 
L 381.732371 107.915844 
L 381.867689 192.632727 
L 381.935348 107.915844 
L 382.070666 192.632727 
L 385.047658 192.632727 
L 385.182976 107.915844 
L 388.227627 107.915844 
L 388.295286 192.632727 
L 388.362945 107.915844 
L 388.498263 192.632727 
L 391.475255 192.632727 
L 391.542914 107.915844 
L 391.678232 192.632727 
L 391.948868 192.632727 
L 392.084186 107.915844 
L 394.181612 107.915844 
L 394.31693 192.632727 
L 396.617333 192.632727 
L 396.684992 107.915844 
L 396.82031 192.632727 
L 413.599721 192.632727 
L 413.66738 107.915844 
L 413.802698 192.632727 
L 416.915008 192.632727 
L 417.050326 107.915844 
L 418.200527 107.915844 
L 418.335845 192.632727 
L 421.718791 192.632727 
L 421.854109 107.915844 
L 422.057086 107.915844 
L 422.192404 192.632727 
L 422.733675 192.632727 
L 422.868993 107.915844 
L 425.304714 107.915844 
L 425.440032 192.632727 
L 428.620001 192.632727 
L 428.68766 107.915844 
L 428.822977 192.632727 
L 428.890636 192.632727 
L 429.025954 107.915844 
L 429.161272 192.632727 
L 429.228931 192.632727 
L 429.29659 107.915844 
L 429.431908 192.632727 
L 429.567225 107.915844 
L 432.205923 107.915844 
L 432.341241 192.632727 
L 432.544218 192.632727 
L 432.611877 107.915844 
L 432.747195 192.632727 
L 435.453551 192.632727 
L 435.52121 107.915844 
L 435.588869 192.632727 
L 435.724187 107.915844 
L 438.701179 107.915844 
L 438.768838 192.632727 
L 438.836497 107.915844 
L 438.971815 192.632727 
L 439.039474 107.915844 
L 439.174792 192.632727 
L 439.310109 107.915844 
L 439.445427 192.632727 
L 443.843257 192.632727 
L 443.978575 107.915844 
L 444.046234 107.915844 
L 444.181551 192.632727 
L 461.434575 192.632727 
L 461.569893 107.915844 
L 461.705211 107.915844 
L 461.840529 192.632727 
L 464.140932 192.632727 
L 464.208591 107.915844 
L 464.343909 192.632727 
L 465.629428 192.632727 
L 465.697087 107.915844 
L 465.832405 192.632727 
L 467.253242 192.632727 
L 467.38856 107.915844 
L 469.283009 107.915844 
L 469.418327 192.632727 
L 472.665955 192.632727 
L 472.801273 107.915844 
L 473.139568 107.915844 
L 473.207227 192.632727 
L 473.274886 107.915844 
L 473.342544 192.632727 
L 473.477862 107.915844 
L 476.251878 107.915844 
L 476.387196 192.632727 
L 476.522514 192.632727 
L 476.590172 107.915844 
L 476.72549 192.632727 
L 476.793149 107.915844 
L 476.928467 192.632727 
L 479.905459 192.632727 
L 480.040777 107.915844 
L 483.153087 107.915844 
L 483.220746 192.632727 
L 483.288405 107.915844 
L 483.423723 192.632727 
L 486.400715 192.632727 
L 486.468374 107.915844 
L 486.603692 192.632727 
L 486.874328 192.632727 
L 487.009646 107.915844 
L 489.107072 107.915844 
L 489.24239 192.632727 
L 491.542793 192.632727 
L 491.610452 107.915844 
L 491.74577 192.632727 
L 508.254545 192.632727 
L 508.254545 192.632727 
" style="fill:none;stroke:#1f77b4;stroke-linecap:square;stroke-width:1.5;"/>
   </g>
   <g id="patch_6">
    <path d="M 295.2 196.868571 
L 295.2 103.68 
" style="fill:none;stroke:#000000;stroke-linecap:square;stroke-linejoin:miter;stroke-width:0.8;"/>
   </g>
   <g id="patch_7">
    <path d="M 518.4 196.868571 
L 518.4 103.68 
" style="fill:none;stroke:#000000;stroke-linecap:square;stroke-linejoin:miter;stroke-width:0.8;"/>
   </g>
   <g id="patch_8">
    <path d="M 295.2 196.868571 
L 518.4 196.868571 
" style="fill:none;stroke:#000000;stroke-linecap:square;stroke-linejoin:miter;stroke-width:0.8;"/>
   </g>
   <g id="patch_9">
    <path d="M 295.2 103.68 
L 518.4 103.68 
" style="fill:none;stroke:#000000;stroke-linecap:square;stroke-linejoin:miter;stroke-width:0.8;"/>
   </g>
   <g id="text_12">
    <!-- Cluster 1 -->
    <defs>
     <path d="M 58.796875 25.09375 
L 68.265625 22.703125 
Q 65.28125 11.03125 57.546875 4.90625 
Q 49.8125 -1.21875 38.625 -1.21875 
Q 27.046875 -1.21875 19.796875 3.484375 
Q 12.546875 8.203125 8.765625 17.140625 
Q 4.984375 26.078125 4.984375 36.328125 
Q 4.984375 47.515625 9.25 55.828125 
Q 13.53125 64.15625 21.40625 68.46875 
Q 29.296875 72.796875 38.765625 72.796875 
Q 49.515625 72.796875 56.828125 67.328125 
Q 64.15625 61.859375 67.046875 51.953125 
L 57.71875 49.75 
Q 55.21875 57.5625 50.484375 61.125 
Q 45.75 64.703125 38.578125 64.703125 
Q 30.328125 64.703125 24.78125 60.734375 
Q 19.234375 56.78125 16.984375 50.109375 
Q 14.75 43.453125 14.75 36.375 
Q 14.75 27.25 17.40625 20.4375 
Q 20.0625 13.625 25.671875 10.25 
Q 31.296875 6.890625 37.84375 6.890625 
Q 45.796875 6.890625 51.3125 11.46875 
Q 56.84375 16.0625 58.796875 25.09375 
z
" id="ArialMT-67"/>
    </defs>
    <g transform="translate(363.5865 97.68)scale(0.216 -0.216)">
     <use xlink:href="#ArialMT-67"/>
     <use x="72.216797" xlink:href="#ArialMT-108"/>
     <use x="94.433594" xlink:href="#ArialMT-117"/>
     <use x="150.048828" xlink:href="#ArialMT-115"/>
     <use x="200.048828" xlink:href="#ArialMT-116"/>
     <use x="227.832031" xlink:href="#ArialMT-101"/>
     <use x="283.447266" xlink:href="#ArialMT-114"/>
     <use x="316.748047" xlink:href="#ArialMT-32"/>
     <use x="344.53125" xlink:href="#ArialMT-49"/>
    </g>
   </g>
  </g>
  <g id="axes_3">
   <g id="patch_10">
    <path clip-path="url(#pdd68ab1168)" d="M 183.6 305.168803 
Q 171.020593 330.327618 158.441186 355.486432 
" style="fill:none;stroke:#8282ff;stroke-linecap:round;stroke-width:4;"/>
   </g>
   <g id="patch_11">
    <path clip-path="url(#pdd68ab1168)" d="M 183.6 305.168803 
Q 196.179407 330.327618 208.758814 355.486432 
" style="fill:none;stroke:#ff8282;stroke-linecap:round;stroke-width:4;"/>
   </g>
   <g id="patch_12">
    <path clip-path="url(#pdd68ab1168)" d="M 152.117375 368.134054 
Q 176.530629 368.134054 200.943883 368.134054 
" style="fill:none;stroke:#8282ff;stroke-linecap:round;stroke-width:4;"/>
   </g>
   <g id="PathCollection_2">
    <path clip-path="url(#pdd68ab1168)" d="M 183.6 319.310939 
C 187.350538 319.310939 190.947969 317.820834 193.6 315.168803 
C 196.252031 312.516772 197.742136 308.919341 197.742136 305.168803 
C 197.742136 301.418265 196.252031 297.820834 193.6 295.168803 
C 190.947969 292.516772 187.350538 291.026667 183.6 291.026667 
C 179.849462 291.026667 176.252031 292.516772 173.6 295.168803 
C 170.947969 297.820834 169.457864 301.418265 169.457864 305.168803 
C 169.457864 308.919341 170.947969 312.516772 173.6 315.168803 
C 176.252031 317.820834 179.849462 319.310939 183.6 319.310939 
z
" style="fill:#0000ff;stroke:#0000ff;"/>
    <path clip-path="url(#pdd68ab1168)" d="M 152.117375 382.27619 
C 155.867913 382.27619 159.465344 380.786085 162.117375 378.134054 
C 164.769406 375.482023 166.25951 371.884592 166.25951 368.134054 
C 166.25951 364.383516 164.769406 360.786085 162.117375 358.134054 
C 159.465344 355.482023 155.867913 353.991918 152.117375 353.991918 
C 148.366836 353.991918 144.769406 355.482023 142.117375 358.134054 
C 139.465344 360.786085 137.975239 364.383516 137.975239 368.134054 
C 137.975239 371.884592 139.465344 375.482023 142.117375 378.134054 
C 144.769406 380.786085 148.366836 382.27619 152.117375 382.27619 
z
" style="fill:#0000ff;stroke:#0000ff;"/>
    <path clip-path="url(#pdd68ab1168)" d="M 215.082625 382.27619 
C 218.833164 382.27619 222.430594 380.786085 225.082625 378.134054 
C 227.734656 375.482023 229.224761 371.884592 229.224761 368.134054 
C 229.224761 364.383516 227.734656 360.786085 225.082625 358.134054 
C 222.430594 355.482023 218.833164 353.991918 215.082625 353.991918 
C 211.332087 353.991918 207.734656 355.482023 205.082625 358.134054 
C 202.430594 360.786085 200.94049 364.383516 200.94049 368.134054 
C 200.94049 371.884592 202.430594 375.482023 205.082625 378.134054 
C 207.734656 380.786085 211.332087 382.27619 215.082625 382.27619 
z
" style="fill:#0000ff;stroke:#0000ff;"/>
   </g>
   <g id="text_13">
    <g clip-path="url(#pdd68ab1168)">
     <!-- 1 -->
     <g style="fill:#ffffff;" transform="translate(178.828125 309.307866)scale(0.15 -0.15)">
      <use xlink:href="#DejaVuSans-49"/>
     </g>
    </g>
   </g>
   <g id="text_14">
    <g clip-path="url(#pdd68ab1168)">
     <!-- 2 -->
     <g style="fill:#ffffff;" transform="translate(147.3455 372.273117)scale(0.15 -0.15)">
      <use xlink:href="#DejaVuSans-50"/>
     </g>
    </g>
   </g>
   <g id="text_15">
    <g clip-path="url(#pdd68ab1168)">
     <!-- 3 -->
     <g style="fill:#ffffff;" transform="translate(210.31075 372.273117)scale(0.15 -0.15)">
      <use xlink:href="#DejaVuSans-51"/>
     </g>
    </g>
   </g>
  </g>
  <g id="axes_4">
   <g id="patch_13">
    <path d="M 295.2 383.245714 
L 518.4 383.245714 
L 518.4 290.057143 
L 295.2 290.057143 
z
" style="fill:#ffffff;"/>
   </g>
   <g id="matplotlib.axis_3">
    <g id="xtick_5">
     <g id="line2d_8">
      <g>
       <use style="stroke:#000000;stroke-width:0.8;" x="305.345455" xlink:href="#mc4e2d3dbb6" y="383.245714"/>
      </g>
     </g>
     <g id="text_16">
      <!-- 0 -->
      <g transform="translate(300.340611 403.129777)scale(0.18 -0.18)">
       <use xlink:href="#ArialMT-48"/>
      </g>
     </g>
    </g>
    <g id="xtick_6">
     <g id="line2d_9">
      <g>
       <use style="stroke:#000000;stroke-width:0.8;" x="373.004371" xlink:href="#mc4e2d3dbb6" y="383.245714"/>
      </g>
     </g>
     <g id="text_17">
      <!-- 1000 -->
      <g transform="translate(352.984996 403.129777)scale(0.18 -0.18)">
       <use xlink:href="#ArialMT-49"/>
       <use x="55.615234" xlink:href="#ArialMT-48"/>
       <use x="111.230469" xlink:href="#ArialMT-48"/>
       <use x="166.845703" xlink:href="#ArialMT-48"/>
      </g>
     </g>
    </g>
    <g id="xtick_7">
     <g id="line2d_10">
      <g>
       <use style="stroke:#000000;stroke-width:0.8;" x="440.663288" xlink:href="#mc4e2d3dbb6" y="383.245714"/>
      </g>
     </g>
     <g id="text_18">
      <!-- 2000 -->
      <g transform="translate(420.643913 403.129777)scale(0.18 -0.18)">
       <use xlink:href="#ArialMT-50"/>
       <use x="55.615234" xlink:href="#ArialMT-48"/>
       <use x="111.230469" xlink:href="#ArialMT-48"/>
       <use x="166.845703" xlink:href="#ArialMT-48"/>
      </g>
     </g>
    </g>
    <g id="xtick_8">
     <g id="line2d_11">
      <g>
       <use style="stroke:#000000;stroke-width:0.8;" x="508.322204" xlink:href="#mc4e2d3dbb6" y="383.245714"/>
      </g>
     </g>
     <g id="text_19">
      <!-- 3000 -->
      <g transform="translate(488.302829 403.129777)scale(0.18 -0.18)">
       <use xlink:href="#ArialMT-51"/>
       <use x="55.615234" xlink:href="#ArialMT-48"/>
       <use x="111.230469" xlink:href="#ArialMT-48"/>
       <use x="166.845703" xlink:href="#ArialMT-48"/>
      </g>
     </g>
    </g>
    <g id="text_20">
     <!-- # sample -->
     <g transform="translate(370.283906 423.810714)scale(0.18 -0.18)">
      <use xlink:href="#ArialMT-35"/>
      <use x="55.615234" xlink:href="#ArialMT-32"/>
      <use x="83.398438" xlink:href="#ArialMT-115"/>
      <use x="133.398438" xlink:href="#ArialMT-97"/>
      <use x="189.013672" xlink:href="#ArialMT-109"/>
      <use x="272.314453" xlink:href="#ArialMT-112"/>
      <use x="327.929688" xlink:href="#ArialMT-108"/>
      <use x="350.146484" xlink:href="#ArialMT-101"/>
     </g>
    </g>
   </g>
   <g id="matplotlib.axis_4">
    <g id="ytick_3">
     <g id="line2d_12">
      <g>
       <use style="stroke:#000000;stroke-width:0.8;" x="295.2" xlink:href="#mbc24cf601b" y="379.00987"/>
      </g>
     </g>
     <g id="text_21">
      <!-- 0 -->
      <g transform="translate(278.190313 385.451901)scale(0.18 -0.18)">
       <use xlink:href="#ArialMT-48"/>
      </g>
     </g>
    </g>
    <g id="ytick_4">
     <g id="line2d_13">
      <g>
       <use style="stroke:#000000;stroke-width:0.8;" x="295.2" xlink:href="#mbc24cf601b" y="294.292987"/>
      </g>
     </g>
     <g id="text_22">
      <!-- 1 -->
      <g transform="translate(278.190313 300.735018)scale(0.18 -0.18)">
       <use xlink:href="#ArialMT-49"/>
      </g>
     </g>
    </g>
    <g id="text_23">
     <!-- time course -->
     <g transform="translate(270.612813 383.164554)rotate(-90)scale(0.18 -0.18)">
      <use xlink:href="#ArialMT-116"/>
      <use x="27.783203" xlink:href="#ArialMT-105"/>
      <use x="50" xlink:href="#ArialMT-109"/>
      <use x="133.300781" xlink:href="#ArialMT-101"/>
      <use x="188.916016" xlink:href="#ArialMT-32"/>
      <use x="216.699219" xlink:href="#ArialMT-99"/>
      <use x="266.699219" xlink:href="#ArialMT-111"/>
      <use x="322.314453" xlink:href="#ArialMT-117"/>
      <use x="377.929688" xlink:href="#ArialMT-114"/>
      <use x="411.230469" xlink:href="#ArialMT-115"/>
      <use x="461.230469" xlink:href="#ArialMT-101"/>
     </g>
    </g>
   </g>
   <g id="line2d_14">
    <path clip-path="url(#p1b5896c1bc)" d="M 305.345455 379.00987 
L 311.164121 379.00987 
L 311.23178 294.292987 
L 311.367098 379.00987 
L 313.532183 379.00987 
L 313.667501 294.292987 
L 315.62961 294.292987 
L 315.764928 379.00987 
L 316.306199 379.00987 
L 316.441517 294.292987 
L 316.712153 294.292987 
L 316.84747 379.00987 
L 319.215532 379.00987 
L 319.35085 294.292987 
L 319.486168 379.00987 
L 319.689145 379.00987 
L 319.824463 294.292987 
L 322.733796 294.292987 
L 322.869114 379.00987 
L 326.25206 379.00987 
L 326.319719 294.292987 
L 326.455037 379.00987 
L 326.590354 294.292987 
L 329.093734 294.292987 
L 329.229052 379.00987 
L 329.36437 379.00987 
L 329.432029 294.292987 
L 329.567347 379.00987 
L 329.635006 379.00987 
L 329.702665 294.292987 
L 329.837982 379.00987 
L 332.138386 379.00987 
L 332.273703 294.292987 
L 332.409021 379.00987 
L 334.37113 379.00987 
L 334.506448 294.292987 
L 334.98006 294.292987 
L 335.115378 379.00987 
L 350.947564 379.00987 
L 351.082882 294.292987 
L 352.165425 294.292987 
L 352.300743 379.00987 
L 353.856898 379.00987 
L 353.924557 294.292987 
L 354.059875 379.00987 
L 356.427937 379.00987 
L 356.495596 294.292987 
L 356.563254 379.00987 
L 356.630913 294.292987 
L 356.766231 379.00987 
L 356.969208 379.00987 
L 357.104526 294.292987 
L 359.607906 294.292987 
L 359.675565 379.00987 
L 359.810882 294.292987 
L 359.9462 379.00987 
L 363.396805 379.00987 
L 363.532123 294.292987 
L 366.373797 294.292987 
L 366.509115 379.00987 
L 366.576774 379.00987 
L 366.644433 294.292987 
L 366.779751 379.00987 
L 366.915069 294.292987 
L 367.050386 294.292987 
L 367.185704 379.00987 
L 369.418449 379.00987 
L 369.553766 294.292987 
L 369.689084 294.292987 
L 369.824402 379.00987 
L 370.703968 379.00987 
L 370.839286 294.292987 
L 372.4631 294.292987 
L 372.598418 379.00987 
L 374.628185 379.00987 
L 374.695844 294.292987 
L 374.831162 379.00987 
L 394.181612 379.00987 
L 394.31693 294.292987 
L 396.008403 294.292987 
L 396.143721 379.00987 
L 396.684992 379.00987 
L 396.82031 294.292987 
L 397.023287 294.292987 
L 397.158604 379.00987 
L 399.864961 379.00987 
L 399.93262 294.292987 
L 400.067938 379.00987 
L 400.135597 379.00987 
L 400.270915 294.292987 
L 403.450884 294.292987 
L 403.586201 379.00987 
L 406.630853 379.00987 
L 406.698512 294.292987 
L 406.833829 379.00987 
L 406.969147 294.292987 
L 407.104465 379.00987 
L 407.239783 294.292987 
L 407.307442 379.00987 
L 407.44276 294.292987 
L 410.081457 294.292987 
L 410.216775 379.00987 
L 410.55507 379.00987 
L 410.622729 294.292987 
L 410.690388 379.00987 
L 410.758047 294.292987 
L 410.893364 379.00987 
L 413.261427 379.00987 
L 413.396744 294.292987 
L 413.599721 294.292987 
L 413.735039 379.00987 
L 414.479287 379.00987 
L 414.614605 294.292987 
L 416.712031 294.292987 
L 416.847349 379.00987 
L 422.192404 379.00987 
L 422.327721 294.292987 
L 422.733675 294.292987 
L 422.868993 379.00987 
L 444.519846 379.00987 
L 444.655164 294.292987 
L 447.090885 294.292987 
L 447.158544 379.00987 
L 447.293862 294.292987 
L 447.429179 379.00987 
L 451.015102 379.00987 
L 451.15042 294.292987 
L 454.26273 294.292987 
L 454.398048 379.00987 
L 454.601025 379.00987 
L 454.736342 294.292987 
L 454.804001 294.292987 
L 454.939319 379.00987 
L 457.37504 379.00987 
L 457.510358 294.292987 
L 457.848653 294.292987 
L 457.98397 379.00987 
L 458.119288 294.292987 
L 460.893304 294.292987 
L 461.028622 379.00987 
L 464.073273 379.00987 
L 464.140932 294.292987 
L 464.27625 379.00987 
L 465.764746 379.00987 
L 465.900064 294.292987 
L 467.253242 294.292987 
L 467.38856 379.00987 
L 469.418327 379.00987 
L 469.485986 294.292987 
L 469.621304 379.00987 
L 489.107072 379.00987 
L 489.24239 294.292987 
L 490.933863 294.292987 
L 491.069181 379.00987 
L 491.610452 379.00987 
L 491.74577 294.292987 
L 491.948747 294.292987 
L 492.084064 379.00987 
L 494.790421 379.00987 
L 494.85808 294.292987 
L 494.993398 379.00987 
L 495.061057 379.00987 
L 495.196375 294.292987 
L 498.376344 294.292987 
L 498.511661 379.00987 
L 498.57932 294.292987 
L 498.714638 379.00987 
L 501.556313 379.00987 
L 501.691631 294.292987 
L 501.759289 379.00987 
L 501.894607 294.292987 
L 502.029925 379.00987 
L 502.165243 294.292987 
L 502.232902 379.00987 
L 502.36822 294.292987 
L 505.006917 294.292987 
L 505.142235 379.00987 
L 505.48053 379.00987 
L 505.615848 294.292987 
L 505.683507 294.292987 
L 505.818824 379.00987 
L 508.186887 379.00987 
L 508.254545 294.292987 
L 508.254545 294.292987 
" style="fill:none;stroke:#1f77b4;stroke-linecap:square;stroke-width:1.5;"/>
   </g>
   <g id="patch_14">
    <path d="M 295.2 383.245714 
L 295.2 290.057143 
" style="fill:none;stroke:#000000;stroke-linecap:square;stroke-linejoin:miter;stroke-width:0.8;"/>
   </g>
   <g id="patch_15">
    <path d="M 518.4 383.245714 
L 518.4 290.057143 
" style="fill:none;stroke:#000000;stroke-linecap:square;stroke-linejoin:miter;stroke-width:0.8;"/>
   </g>
   <g id="patch_16">
    <path d="M 295.2 383.245714 
L 518.4 383.245714 
" style="fill:none;stroke:#000000;stroke-linecap:square;stroke-linejoin:miter;stroke-width:0.8;"/>
   </g>
   <g id="patch_17">
    <path d="M 295.2 290.057143 
L 518.4 290.057143 
" style="fill:none;stroke:#000000;stroke-linecap:square;stroke-linejoin:miter;stroke-width:0.8;"/>
   </g>
   <g id="text_24">
    <!-- Cluster 2 -->
    <g transform="translate(363.5865 284.057143)scale(0.216 -0.216)">
     <use xlink:href="#ArialMT-67"/>
     <use x="72.216797" xlink:href="#ArialMT-108"/>
     <use x="94.433594" xlink:href="#ArialMT-117"/>
     <use x="150.048828" xlink:href="#ArialMT-115"/>
     <use x="200.048828" xlink:href="#ArialMT-116"/>
     <use x="227.832031" xlink:href="#ArialMT-101"/>
     <use x="283.447266" xlink:href="#ArialMT-114"/>
     <use x="316.748047" xlink:href="#ArialMT-32"/>
     <use x="344.53125" xlink:href="#ArialMT-50"/>
    </g>
   </g>
  </g>
  <g id="axes_5">
   <g id="patch_18">
    <path clip-path="url(#p10412b6ef8)" d="M 183.6 491.545946 
Q 171.020593 516.70476 158.441186 541.863575 
" style="fill:none;stroke:#8282ff;stroke-linecap:round;stroke-width:4;"/>
   </g>
   <g id="patch_19">
    <path clip-path="url(#p10412b6ef8)" d="M 183.6 491.545946 
Q 196.179407 516.70476 208.758814 541.863575 
" style="fill:none;stroke:#8282ff;stroke-linecap:round;stroke-width:4;"/>
   </g>
   <g id="patch_20">
    <path clip-path="url(#p10412b6ef8)" d="M 152.117375 554.511197 
Q 176.530629 554.511197 200.943883 554.511197 
" style="fill:none;stroke:#ff8282;stroke-linecap:round;stroke-width:4;"/>
   </g>
   <g id="PathCollection_3">
    <path clip-path="url(#p10412b6ef8)" d="M 183.6 505.688082 
C 187.350538 505.688082 190.947969 504.197977 193.6 501.545946 
C 196.252031 498.893915 197.742136 495.296484 197.742136 491.545946 
C 197.742136 487.795408 196.252031 484.197977 193.6 481.545946 
C 190.947969 478.893915 187.350538 477.40381 183.6 477.40381 
C 179.849462 477.40381 176.252031 478.893915 173.6 481.545946 
C 170.947969 484.197977 169.457864 487.795408 169.457864 491.545946 
C 169.457864 495.296484 170.947969 498.893915 173.6 501.545946 
C 176.252031 504.197977 179.849462 505.688082 183.6 505.688082 
z
" style="fill:#0000ff;stroke:#0000ff;"/>
    <path clip-path="url(#p10412b6ef8)" d="M 152.117375 568.653333 
C 155.867913 568.653333 159.465344 567.163228 162.117375 564.511197 
C 164.769406 561.859166 166.25951 558.261735 166.25951 554.511197 
C 166.25951 550.760659 164.769406 547.163228 162.117375 544.511197 
C 159.465344 541.859166 155.867913 540.369061 152.117375 540.369061 
C 148.366836 540.369061 144.769406 541.859166 142.117375 544.511197 
C 139.465344 547.163228 137.975239 550.760659 137.975239 554.511197 
C 137.975239 558.261735 139.465344 561.859166 142.117375 564.511197 
C 144.769406 567.163228 148.366836 568.653333 152.117375 568.653333 
z
" style="fill:#0000ff;stroke:#0000ff;"/>
    <path clip-path="url(#p10412b6ef8)" d="M 215.082625 568.653333 
C 218.833164 568.653333 222.430594 567.163228 225.082625 564.511197 
C 227.734656 561.859166 229.224761 558.261735 229.224761 554.511197 
C 229.224761 550.760659 227.734656 547.163228 225.082625 544.511197 
C 222.430594 541.859166 218.833164 540.369061 215.082625 540.369061 
C 211.332087 540.369061 207.734656 541.859166 205.082625 544.511197 
C 202.430594 547.163228 200.94049 550.760659 200.94049 554.511197 
C 200.94049 558.261735 202.430594 561.859166 205.082625 564.511197 
C 207.734656 567.163228 211.332087 568.653333 215.082625 568.653333 
z
" style="fill:#0000ff;stroke:#0000ff;"/>
   </g>
   <g id="text_25">
    <g clip-path="url(#p10412b6ef8)">
     <!-- 1 -->
     <g style="fill:#ffffff;" transform="translate(178.828125 495.685008)scale(0.15 -0.15)">
      <use xlink:href="#DejaVuSans-49"/>
     </g>
    </g>
   </g>
   <g id="text_26">
    <g clip-path="url(#p10412b6ef8)">
     <!-- 2 -->
     <g style="fill:#ffffff;" transform="translate(147.3455 558.650259)scale(0.15 -0.15)">
      <use xlink:href="#DejaVuSans-50"/>
     </g>
    </g>
   </g>
   <g id="text_27">
    <g clip-path="url(#p10412b6ef8)">
     <!-- 3 -->
     <g style="fill:#ffffff;" transform="translate(210.31075 558.650259)scale(0.15 -0.15)">
      <use xlink:href="#DejaVuSans-51"/>
     </g>
    </g>
   </g>
  </g>
  <g id="axes_6">
   <g id="patch_21">
    <path d="M 295.2 569.622857 
L 518.4 569.622857 
L 518.4 476.434286 
L 295.2 476.434286 
z
" style="fill:#ffffff;"/>
   </g>
   <g id="matplotlib.axis_5">
    <g id="xtick_9">
     <g id="line2d_15">
      <g>
       <use style="stroke:#000000;stroke-width:0.8;" x="305.345455" xlink:href="#mc4e2d3dbb6" y="569.622857"/>
      </g>
     </g>
     <g id="text_28">
      <!-- 0 -->
      <g transform="translate(300.340611 589.50692)scale(0.18 -0.18)">
       <use xlink:href="#ArialMT-48"/>
      </g>
     </g>
    </g>
    <g id="xtick_10">
     <g id="line2d_16">
      <g>
       <use style="stroke:#000000;stroke-width:0.8;" x="373.004371" xlink:href="#mc4e2d3dbb6" y="569.622857"/>
      </g>
     </g>
     <g id="text_29">
      <!-- 1000 -->
      <g transform="translate(352.984996 589.50692)scale(0.18 -0.18)">
       <use xlink:href="#ArialMT-49"/>
       <use x="55.615234" xlink:href="#ArialMT-48"/>
       <use x="111.230469" xlink:href="#ArialMT-48"/>
       <use x="166.845703" xlink:href="#ArialMT-48"/>
      </g>
     </g>
    </g>
    <g id="xtick_11">
     <g id="line2d_17">
      <g>
       <use style="stroke:#000000;stroke-width:0.8;" x="440.663288" xlink:href="#mc4e2d3dbb6" y="569.622857"/>
      </g>
     </g>
     <g id="text_30">
      <!-- 2000 -->
      <g transform="translate(420.643913 589.50692)scale(0.18 -0.18)">
       <use xlink:href="#ArialMT-50"/>
       <use x="55.615234" xlink:href="#ArialMT-48"/>
       <use x="111.230469" xlink:href="#ArialMT-48"/>
       <use x="166.845703" xlink:href="#ArialMT-48"/>
      </g>
     </g>
    </g>
    <g id="xtick_12">
     <g id="line2d_18">
      <g>
       <use style="stroke:#000000;stroke-width:0.8;" x="508.322204" xlink:href="#mc4e2d3dbb6" y="569.622857"/>
      </g>
     </g>
     <g id="text_31">
      <!-- 3000 -->
      <g transform="translate(488.302829 589.50692)scale(0.18 -0.18)">
       <use xlink:href="#ArialMT-51"/>
       <use x="55.615234" xlink:href="#ArialMT-48"/>
       <use x="111.230469" xlink:href="#ArialMT-48"/>
       <use x="166.845703" xlink:href="#ArialMT-48"/>
      </g>
     </g>
    </g>
    <g id="text_32">
     <!-- # sample -->
     <g transform="translate(370.283906 610.187857)scale(0.18 -0.18)">
      <use xlink:href="#ArialMT-35"/>
      <use x="55.615234" xlink:href="#ArialMT-32"/>
      <use x="83.398438" xlink:href="#ArialMT-115"/>
      <use x="133.398438" xlink:href="#ArialMT-97"/>
      <use x="189.013672" xlink:href="#ArialMT-109"/>
      <use x="272.314453" xlink:href="#ArialMT-112"/>
      <use x="327.929688" xlink:href="#ArialMT-108"/>
      <use x="350.146484" xlink:href="#ArialMT-101"/>
     </g>
    </g>
   </g>
   <g id="matplotlib.axis_6">
    <g id="ytick_5">
     <g id="line2d_19">
      <g>
       <use style="stroke:#000000;stroke-width:0.8;" x="295.2" xlink:href="#mbc24cf601b" y="565.387013"/>
      </g>
     </g>
     <g id="text_33">
      <!-- 0 -->
      <g transform="translate(278.190313 571.829044)scale(0.18 -0.18)">
       <use xlink:href="#ArialMT-48"/>
      </g>
     </g>
    </g>
    <g id="ytick_6">
     <g id="line2d_20">
      <g>
       <use style="stroke:#000000;stroke-width:0.8;" x="295.2" xlink:href="#mbc24cf601b" y="480.67013"/>
      </g>
     </g>
     <g id="text_34">
      <!-- 1 -->
      <g transform="translate(278.190313 487.112161)scale(0.18 -0.18)">
       <use xlink:href="#ArialMT-49"/>
      </g>
     </g>
    </g>
    <g id="text_35">
     <!-- time course -->
     <g transform="translate(270.612813 569.541696)rotate(-90)scale(0.18 -0.18)">
      <use xlink:href="#ArialMT-116"/>
      <use x="27.783203" xlink:href="#ArialMT-105"/>
      <use x="50" xlink:href="#ArialMT-109"/>
      <use x="133.300781" xlink:href="#ArialMT-101"/>
      <use x="188.916016" xlink:href="#ArialMT-32"/>
      <use x="216.699219" xlink:href="#ArialMT-99"/>
      <use x="266.699219" xlink:href="#ArialMT-111"/>
      <use x="322.314453" xlink:href="#ArialMT-117"/>
      <use x="377.929688" xlink:href="#ArialMT-114"/>
      <use x="411.230469" xlink:href="#ArialMT-115"/>
      <use x="461.230469" xlink:href="#ArialMT-101"/>
     </g>
    </g>
   </g>
   <g id="line2d_21">
    <path clip-path="url(#p9c99e242f3)" d="M 305.345455 565.387013 
L 310.961145 565.387013 
L 311.096462 480.67013 
L 311.164121 480.67013 
L 311.299439 565.387013 
L 313.396866 565.387013 
L 313.532183 480.67013 
L 313.667501 565.387013 
L 316.712153 565.387013 
L 316.84747 480.67013 
L 319.215532 480.67013 
L 319.35085 565.387013 
L 319.486168 480.67013 
L 319.689145 480.67013 
L 319.824463 565.387013 
L 322.733796 565.387013 
L 322.869114 480.67013 
L 326.25206 480.67013 
L 326.319719 565.387013 
L 326.455037 480.67013 
L 326.590354 565.387013 
L 329.093734 565.387013 
L 329.229052 480.67013 
L 329.36437 480.67013 
L 329.432029 565.387013 
L 329.567347 480.67013 
L 329.635006 480.67013 
L 329.702665 565.387013 
L 329.837982 480.67013 
L 332.138386 480.67013 
L 332.273703 565.387013 
L 334.235812 565.387013 
L 334.37113 480.67013 
L 334.506448 565.387013 
L 353.924557 565.387013 
L 354.059875 480.67013 
L 356.427937 480.67013 
L 356.495596 565.387013 
L 356.563254 480.67013 
L 356.630913 565.387013 
L 356.766231 480.67013 
L 356.969208 480.67013 
L 357.104526 565.387013 
L 359.607906 565.387013 
L 359.675565 480.67013 
L 359.810882 565.387013 
L 359.9462 480.67013 
L 363.396805 480.67013 
L 363.532123 565.387013 
L 366.373797 565.387013 
L 366.509115 480.67013 
L 366.576774 480.67013 
L 366.644433 565.387013 
L 366.779751 480.67013 
L 366.915069 565.387013 
L 367.050386 565.387013 
L 367.185704 480.67013 
L 369.418449 480.67013 
L 369.553766 565.387013 
L 374.695844 565.387013 
L 374.831162 480.67013 
L 375.440092 480.67013 
L 375.57541 565.387013 
L 397.023287 565.387013 
L 397.158604 480.67013 
L 399.864961 480.67013 
L 399.93262 565.387013 
L 400.067938 480.67013 
L 400.135597 480.67013 
L 400.270915 565.387013 
L 403.450884 565.387013 
L 403.586201 480.67013 
L 406.630853 480.67013 
L 406.698512 565.387013 
L 406.833829 480.67013 
L 406.969147 565.387013 
L 407.104465 480.67013 
L 407.239783 565.387013 
L 407.307442 480.67013 
L 407.44276 565.387013 
L 410.081457 565.387013 
L 410.216775 480.67013 
L 410.55507 480.67013 
L 410.622729 565.387013 
L 410.690388 480.67013 
L 410.758047 565.387013 
L 410.893364 480.67013 
L 413.261427 480.67013 
L 413.396744 565.387013 
L 416.712031 565.387013 
L 416.847349 480.67013 
L 416.982667 565.387013 
L 418.200527 565.387013 
L 418.335845 480.67013 
L 419.824341 480.67013 
L 419.959659 565.387013 
L 422.057086 565.387013 
L 422.192404 480.67013 
L 422.327721 565.387013 
L 425.778326 565.387013 
L 425.913644 480.67013 
L 426.048962 565.387013 
L 441.678172 565.387013 
L 441.813489 480.67013 
L 443.843257 480.67013 
L 443.978575 565.387013 
L 444.046234 565.387013 
L 444.181551 480.67013 
L 444.519846 480.67013 
L 444.655164 565.387013 
L 447.090885 565.387013 
L 447.158544 480.67013 
L 447.293862 565.387013 
L 447.429179 480.67013 
L 451.015102 480.67013 
L 451.15042 565.387013 
L 454.26273 565.387013 
L 454.398048 480.67013 
L 454.601025 480.67013 
L 454.736342 565.387013 
L 454.804001 565.387013 
L 454.939319 480.67013 
L 457.37504 480.67013 
L 457.510358 565.387013 
L 457.848653 565.387013 
L 457.98397 480.67013 
L 458.119288 565.387013 
L 460.893304 565.387013 
L 461.028622 480.67013 
L 461.366916 480.67013 
L 461.502234 565.387013 
L 461.705211 565.387013 
L 461.840529 480.67013 
L 464.073273 480.67013 
L 464.208591 565.387013 
L 465.697087 565.387013 
L 465.764746 480.67013 
L 465.900064 565.387013 
L 469.485986 565.387013 
L 469.621304 480.67013 
L 470.365552 480.67013 
L 470.50087 565.387013 
L 491.948747 565.387013 
L 492.084064 480.67013 
L 494.790421 480.67013 
L 494.85808 565.387013 
L 494.993398 480.67013 
L 495.061057 480.67013 
L 495.196375 565.387013 
L 498.376344 565.387013 
L 498.511661 480.67013 
L 498.57932 565.387013 
L 498.714638 480.67013 
L 501.556313 480.67013 
L 501.691631 565.387013 
L 501.759289 480.67013 
L 501.894607 565.387013 
L 502.029925 480.67013 
L 502.165243 565.387013 
L 502.232902 480.67013 
L 502.36822 565.387013 
L 505.006917 565.387013 
L 505.142235 480.67013 
L 505.48053 480.67013 
L 505.615848 565.387013 
L 505.683507 565.387013 
L 505.818824 480.67013 
L 508.186887 480.67013 
L 508.254545 565.387013 
L 508.254545 565.387013 
" style="fill:none;stroke:#1f77b4;stroke-linecap:square;stroke-width:1.5;"/>
   </g>
   <g id="patch_22">
    <path d="M 295.2 569.622857 
L 295.2 476.434286 
" style="fill:none;stroke:#000000;stroke-linecap:square;stroke-linejoin:miter;stroke-width:0.8;"/>
   </g>
   <g id="patch_23">
    <path d="M 518.4 569.622857 
L 518.4 476.434286 
" style="fill:none;stroke:#000000;stroke-linecap:square;stroke-linejoin:miter;stroke-width:0.8;"/>
   </g>
   <g id="patch_24">
    <path d="M 295.2 569.622857 
L 518.4 569.622857 
" style="fill:none;stroke:#000000;stroke-linecap:square;stroke-linejoin:miter;stroke-width:0.8;"/>
   </g>
   <g id="patch_25">
    <path d="M 295.2 476.434286 
L 518.4 476.434286 
" style="fill:none;stroke:#000000;stroke-linecap:square;stroke-linejoin:miter;stroke-width:0.8;"/>
   </g>
   <g id="text_36">
    <!-- Cluster 3 -->
    <g transform="translate(363.5865 470.434286)scale(0.216 -0.216)">
     <use xlink:href="#ArialMT-67"/>
     <use x="72.216797" xlink:href="#ArialMT-108"/>
     <use x="94.433594" xlink:href="#ArialMT-117"/>
     <use x="150.048828" xlink:href="#ArialMT-115"/>
     <use x="200.048828" xlink:href="#ArialMT-116"/>
     <use x="227.832031" xlink:href="#ArialMT-101"/>
     <use x="283.447266" xlink:href="#ArialMT-114"/>
     <use x="316.748047" xlink:href="#ArialMT-32"/>
     <use x="344.53125" xlink:href="#ArialMT-51"/>
    </g>
   </g>
  </g>
  <g id="axes_7">
   <g id="patch_26">
    <path clip-path="url(#p3d8d326e7b)" d="M 183.6 677.923089 
Q 171.020593 703.081903 158.441186 728.240718 
" style="fill:none;stroke:#ff8282;stroke-linecap:round;stroke-width:4;"/>
   </g>
   <g id="patch_27">
    <path clip-path="url(#p3d8d326e7b)" d="M 183.6 677.923089 
Q 196.179407 703.081903 208.758814 728.240718 
" style="fill:none;stroke:#8484ff;stroke-linecap:round;stroke-width:4;"/>
   </g>
   <g id="patch_28">
    <path clip-path="url(#p3d8d326e7b)" d="M 152.117375 740.88834 
Q 176.530629 740.88834 200.943883 740.88834 
" style="fill:none;stroke:#8282ff;stroke-linecap:round;stroke-width:4;"/>
   </g>
   <g id="PathCollection_4">
    <path clip-path="url(#p3d8d326e7b)" d="M 183.6 692.065224 
C 187.350538 692.065224 190.947969 690.57512 193.6 687.923089 
C 196.252031 685.271058 197.742136 681.673627 197.742136 677.923089 
C 197.742136 674.172551 196.252031 670.57512 193.6 667.923089 
C 190.947969 665.271058 187.350538 663.780953 183.6 663.780953 
C 179.849462 663.780953 176.252031 665.271058 173.6 667.923089 
C 170.947969 670.57512 169.457864 674.172551 169.457864 677.923089 
C 169.457864 681.673627 170.947969 685.271058 173.6 687.923089 
C 176.252031 690.57512 179.849462 692.065224 183.6 692.065224 
z
" style="fill:#0000ff;stroke:#0000ff;"/>
    <path clip-path="url(#p3d8d326e7b)" d="M 152.117375 755.030475 
C 155.867913 755.030475 159.465344 753.540371 162.117375 750.88834 
C 164.769406 748.236309 166.25951 744.638878 166.25951 740.88834 
C 166.25951 737.137802 164.769406 733.540371 162.117375 730.88834 
C 159.465344 728.236309 155.867913 726.746204 152.117375 726.746204 
C 148.366836 726.746204 144.769406 728.236309 142.117375 730.88834 
C 139.465344 733.540371 137.975239 737.137802 137.975239 740.88834 
C 137.975239 744.638878 139.465344 748.236309 142.117375 750.88834 
C 144.769406 753.540371 148.366836 755.030475 152.117375 755.030475 
z
" style="fill:#0000ff;stroke:#0000ff;"/>
    <path clip-path="url(#p3d8d326e7b)" d="M 215.082625 755.030475 
C 218.833164 755.030475 222.430594 753.540371 225.082625 750.88834 
C 227.734656 748.236309 229.224761 744.638878 229.224761 740.88834 
C 229.224761 737.137802 227.734656 733.540371 225.082625 730.88834 
C 222.430594 728.236309 218.833164 726.746204 215.082625 726.746204 
C 211.332087 726.746204 207.734656 728.236309 205.082625 730.88834 
C 202.430594 733.540371 200.94049 737.137802 200.94049 740.88834 
C 200.94049 744.638878 202.430594 748.236309 205.082625 750.88834 
C 207.734656 753.540371 211.332087 755.030475 215.082625 755.030475 
z
" style="fill:#0000ff;stroke:#0000ff;"/>
   </g>
   <g id="text_37">
    <g clip-path="url(#p3d8d326e7b)">
     <!-- 1 -->
     <g style="fill:#ffffff;" transform="translate(178.828125 682.062151)scale(0.15 -0.15)">
      <use xlink:href="#DejaVuSans-49"/>
     </g>
    </g>
   </g>
   <g id="text_38">
    <g clip-path="url(#p3d8d326e7b)">
     <!-- 2 -->
     <g style="fill:#ffffff;" transform="translate(147.3455 745.027402)scale(0.15 -0.15)">
      <use xlink:href="#DejaVuSans-50"/>
     </g>
    </g>
   </g>
   <g id="text_39">
    <g clip-path="url(#p3d8d326e7b)">
     <!-- 3 -->
     <g style="fill:#ffffff;" transform="translate(210.31075 745.027402)scale(0.15 -0.15)">
      <use xlink:href="#DejaVuSans-51"/>
     </g>
    </g>
   </g>
  </g>
  <g id="axes_8">
   <g id="patch_29">
    <path d="M 295.2 756 
L 518.4 756 
L 518.4 662.811429 
L 295.2 662.811429 
z
" style="fill:#ffffff;"/>
   </g>
   <g id="matplotlib.axis_7">
    <g id="xtick_13">
     <g id="line2d_22">
      <g>
       <use style="stroke:#000000;stroke-width:0.8;" x="305.345455" xlink:href="#mc4e2d3dbb6" y="756"/>
      </g>
     </g>
     <g id="text_40">
      <!-- 0 -->
      <g transform="translate(300.340611 775.884063)scale(0.18 -0.18)">
       <use xlink:href="#ArialMT-48"/>
      </g>
     </g>
    </g>
    <g id="xtick_14">
     <g id="line2d_23">
      <g>
       <use style="stroke:#000000;stroke-width:0.8;" x="373.004371" xlink:href="#mc4e2d3dbb6" y="756"/>
      </g>
     </g>
     <g id="text_41">
      <!-- 1000 -->
      <g transform="translate(352.984996 775.884063)scale(0.18 -0.18)">
       <use xlink:href="#ArialMT-49"/>
       <use x="55.615234" xlink:href="#ArialMT-48"/>
       <use x="111.230469" xlink:href="#ArialMT-48"/>
       <use x="166.845703" xlink:href="#ArialMT-48"/>
      </g>
     </g>
    </g>
    <g id="xtick_15">
     <g id="line2d_24">
      <g>
       <use style="stroke:#000000;stroke-width:0.8;" x="440.663288" xlink:href="#mc4e2d3dbb6" y="756"/>
      </g>
     </g>
     <g id="text_42">
      <!-- 2000 -->
      <g transform="translate(420.643913 775.884063)scale(0.18 -0.18)">
       <use xlink:href="#ArialMT-50"/>
       <use x="55.615234" xlink:href="#ArialMT-48"/>
       <use x="111.230469" xlink:href="#ArialMT-48"/>
       <use x="166.845703" xlink:href="#ArialMT-48"/>
      </g>
     </g>
    </g>
    <g id="xtick_16">
     <g id="line2d_25">
      <g>
       <use style="stroke:#000000;stroke-width:0.8;" x="508.322204" xlink:href="#mc4e2d3dbb6" y="756"/>
      </g>
     </g>
     <g id="text_43">
      <!-- 3000 -->
      <g transform="translate(488.302829 775.884063)scale(0.18 -0.18)">
       <use xlink:href="#ArialMT-51"/>
       <use x="55.615234" xlink:href="#ArialMT-48"/>
       <use x="111.230469" xlink:href="#ArialMT-48"/>
       <use x="166.845703" xlink:href="#ArialMT-48"/>
      </g>
     </g>
    </g>
    <g id="text_44">
     <!-- # sample -->
     <g transform="translate(370.283906 796.565)scale(0.18 -0.18)">
      <use xlink:href="#ArialMT-35"/>
      <use x="55.615234" xlink:href="#ArialMT-32"/>
      <use x="83.398438" xlink:href="#ArialMT-115"/>
      <use x="133.398438" xlink:href="#ArialMT-97"/>
      <use x="189.013672" xlink:href="#ArialMT-109"/>
      <use x="272.314453" xlink:href="#ArialMT-112"/>
      <use x="327.929688" xlink:href="#ArialMT-108"/>
      <use x="350.146484" xlink:href="#ArialMT-101"/>
     </g>
    </g>
   </g>
   <g id="matplotlib.axis_8">
    <g id="ytick_7">
     <g id="line2d_26">
      <g>
       <use style="stroke:#000000;stroke-width:0.8;" x="295.2" xlink:href="#mbc24cf601b" y="751.764156"/>
      </g>
     </g>
     <g id="text_45">
      <!-- 0 -->
      <g transform="translate(278.190313 758.206187)scale(0.18 -0.18)">
       <use xlink:href="#ArialMT-48"/>
      </g>
     </g>
    </g>
    <g id="ytick_8">
     <g id="line2d_27">
      <g>
       <use style="stroke:#000000;stroke-width:0.8;" x="295.2" xlink:href="#mbc24cf601b" y="667.047273"/>
      </g>
     </g>
     <g id="text_46">
      <!-- 1 -->
      <g transform="translate(278.190313 673.489304)scale(0.18 -0.18)">
       <use xlink:href="#ArialMT-49"/>
      </g>
     </g>
    </g>
    <g id="text_47">
     <!-- time course -->
     <g transform="translate(270.612813 755.918839)rotate(-90)scale(0.18 -0.18)">
      <use xlink:href="#ArialMT-116"/>
      <use x="27.783203" xlink:href="#ArialMT-105"/>
      <use x="50" xlink:href="#ArialMT-109"/>
      <use x="133.300781" xlink:href="#ArialMT-101"/>
      <use x="188.916016" xlink:href="#ArialMT-32"/>
      <use x="216.699219" xlink:href="#ArialMT-99"/>
      <use x="266.699219" xlink:href="#ArialMT-111"/>
      <use x="322.314453" xlink:href="#ArialMT-117"/>
      <use x="377.929688" xlink:href="#ArialMT-114"/>
      <use x="411.230469" xlink:href="#ArialMT-115"/>
      <use x="461.230469" xlink:href="#ArialMT-101"/>
     </g>
    </g>
   </g>
   <g id="line2d_28">
    <path clip-path="url(#p545282407d)" d="M 305.345455 751.764156 
L 307.307563 751.764156 
L 307.375222 667.047273 
L 307.51054 751.764156 
L 307.645858 667.047273 
L 307.713517 667.047273 
L 307.848834 751.764156 
L 307.984152 667.047273 
L 310.961145 667.047273 
L 311.096462 751.764156 
L 311.23178 751.764156 
L 311.367098 667.047273 
L 311.773052 667.047273 
L 311.908369 751.764156 
L 315.62961 751.764156 
L 315.764928 667.047273 
L 316.23854 667.047273 
L 316.373858 751.764156 
L 332.273703 751.764156 
L 332.409021 667.047273 
L 333.897517 667.047273 
L 334.032835 751.764156 
L 337.48344 751.764156 
L 337.618758 667.047273 
L 337.889393 667.047273 
L 337.957052 751.764156 
L 338.024711 667.047273 
L 338.160029 751.764156 
L 338.295347 667.047273 
L 341.475316 667.047273 
L 341.610634 751.764156 
L 344.587626 751.764156 
L 344.722944 667.047273 
L 347.902913 667.047273 
L 348.038231 751.764156 
L 348.173549 667.047273 
L 348.241208 751.764156 
L 348.376526 667.047273 
L 348.647161 667.047273 
L 348.782479 751.764156 
L 352.233084 751.764156 
L 352.368402 667.047273 
L 353.789239 667.047273 
L 353.924557 751.764156 
L 369.756743 751.764156 
L 369.892061 667.047273 
L 370.703968 667.047273 
L 370.839286 751.764156 
L 374.425208 751.764156 
L 374.560526 667.047273 
L 374.628185 667.047273 
L 374.763503 751.764156 
L 375.440092 751.764156 
L 375.57541 667.047273 
L 377.740495 667.047273 
L 377.875813 751.764156 
L 378.146449 751.764156 
L 378.281767 667.047273 
L 378.349426 667.047273 
L 378.417084 751.764156 
L 378.552402 667.047273 
L 378.68772 751.764156 
L 381.326418 751.764156 
L 381.461736 667.047273 
L 381.664712 667.047273 
L 381.732371 751.764156 
L 381.867689 667.047273 
L 381.935348 751.764156 
L 382.070666 667.047273 
L 385.047658 667.047273 
L 385.182976 751.764156 
L 388.227627 751.764156 
L 388.295286 667.047273 
L 388.362945 751.764156 
L 388.498263 667.047273 
L 391.475255 667.047273 
L 391.542914 751.764156 
L 391.678232 667.047273 
L 391.948868 667.047273 
L 392.084186 751.764156 
L 396.008403 751.764156 
L 396.143721 667.047273 
L 396.617333 667.047273 
L 396.752651 751.764156 
L 413.66738 751.764156 
L 413.802698 667.047273 
L 414.479287 667.047273 
L 414.614605 751.764156 
L 416.847349 751.764156 
L 416.915008 667.047273 
L 417.050326 751.764156 
L 419.824341 751.764156 
L 419.959659 667.047273 
L 421.718791 667.047273 
L 421.854109 751.764156 
L 425.304714 751.764156 
L 425.440032 667.047273 
L 425.778326 667.047273 
L 425.913644 751.764156 
L 426.048962 667.047273 
L 428.620001 667.047273 
L 428.68766 751.764156 
L 428.822977 667.047273 
L 428.890636 667.047273 
L 429.025954 751.764156 
L 429.161272 667.047273 
L 429.228931 667.047273 
L 429.29659 751.764156 
L 429.431908 667.047273 
L 429.567225 751.764156 
L 432.205923 751.764156 
L 432.341241 667.047273 
L 432.544218 667.047273 
L 432.611877 751.764156 
L 432.747195 667.047273 
L 435.453551 667.047273 
L 435.52121 751.764156 
L 435.588869 667.047273 
L 435.724187 751.764156 
L 438.701179 751.764156 
L 438.768838 667.047273 
L 438.836497 751.764156 
L 438.971815 667.047273 
L 439.039474 751.764156 
L 439.174792 667.047273 
L 439.310109 751.764156 
L 439.445427 667.047273 
L 441.678172 667.047273 
L 441.813489 751.764156 
L 461.366916 751.764156 
L 461.434575 667.047273 
L 461.569893 751.764156 
L 464.208591 751.764156 
L 464.343909 667.047273 
L 465.629428 667.047273 
L 465.764746 751.764156 
L 469.283009 751.764156 
L 469.418327 667.047273 
L 469.553645 751.764156 
L 470.365552 751.764156 
L 470.50087 667.047273 
L 472.665955 667.047273 
L 472.801273 751.764156 
L 473.139568 751.764156 
L 473.207227 667.047273 
L 473.274886 751.764156 
L 473.342544 667.047273 
L 473.477862 751.764156 
L 476.251878 751.764156 
L 476.387196 667.047273 
L 476.522514 667.047273 
L 476.590172 751.764156 
L 476.72549 667.047273 
L 476.793149 751.764156 
L 476.928467 667.047273 
L 479.905459 667.047273 
L 480.040777 751.764156 
L 483.153087 751.764156 
L 483.220746 667.047273 
L 483.288405 751.764156 
L 483.423723 667.047273 
L 486.400715 667.047273 
L 486.468374 751.764156 
L 486.603692 667.047273 
L 486.874328 667.047273 
L 487.009646 751.764156 
L 490.933863 751.764156 
L 491.069181 667.047273 
L 491.542793 667.047273 
L 491.678111 751.764156 
L 508.254545 751.764156 
L 508.254545 751.764156 
" style="fill:none;stroke:#1f77b4;stroke-linecap:square;stroke-width:1.5;"/>
   </g>
   <g id="patch_30">
    <path d="M 295.2 756 
L 295.2 662.811429 
" style="fill:none;stroke:#000000;stroke-linecap:square;stroke-linejoin:miter;stroke-width:0.8;"/>
   </g>
   <g id="patch_31">
    <path d="M 518.4 756 
L 518.4 662.811429 
" style="fill:none;stroke:#000000;stroke-linecap:square;stroke-linejoin:miter;stroke-width:0.8;"/>
   </g>
   <g id="patch_32">
    <path d="M 295.2 756 
L 518.4 756 
" style="fill:none;stroke:#000000;stroke-linecap:square;stroke-linejoin:miter;stroke-width:0.8;"/>
   </g>
   <g id="patch_33">
    <path d="M 295.2 662.811429 
L 518.4 662.811429 
" style="fill:none;stroke:#000000;stroke-linecap:square;stroke-linejoin:miter;stroke-width:0.8;"/>
   </g>
   <g id="text_48">
    <!-- Cluster 4 -->
    <defs>
     <path d="M 32.328125 0 
L 32.328125 17.140625 
L 1.265625 17.140625 
L 1.265625 25.203125 
L 33.9375 71.578125 
L 41.109375 71.578125 
L 41.109375 25.203125 
L 50.78125 25.203125 
L 50.78125 17.140625 
L 41.109375 17.140625 
L 41.109375 0 
z
M 32.328125 25.203125 
L 32.328125 57.46875 
L 9.90625 25.203125 
z
" id="ArialMT-52"/>
    </defs>
    <g transform="translate(363.5865 656.811429)scale(0.216 -0.216)">
     <use xlink:href="#ArialMT-67"/>
     <use x="72.216797" xlink:href="#ArialMT-108"/>
     <use x="94.433594" xlink:href="#ArialMT-117"/>
     <use x="150.048828" xlink:href="#ArialMT-115"/>
     <use x="200.048828" xlink:href="#ArialMT-116"/>
     <use x="227.832031" xlink:href="#ArialMT-101"/>
     <use x="283.447266" xlink:href="#ArialMT-114"/>
     <use x="316.748047" xlink:href="#ArialMT-32"/>
     <use x="344.53125" xlink:href="#ArialMT-52"/>
    </g>
   </g>
  </g>
 </g>
 <defs>
  <clipPath id="p84a0ee5e5b">
   <rect height="93.188571" width="223.2" x="72" y="103.68"/>
  </clipPath>
  <clipPath id="pf51120ba96">
   <rect height="93.188571" width="223.2" x="295.2" y="103.68"/>
  </clipPath>
  <clipPath id="pdd68ab1168">
   <rect height="93.188571" width="223.2" x="72" y="290.057143"/>
  </clipPath>
  <clipPath id="p1b5896c1bc">
   <rect height="93.188571" width="223.2" x="295.2" y="290.057143"/>
  </clipPath>
  <clipPath id="p10412b6ef8">
   <rect height="93.188571" width="223.2" x="72" y="476.434286"/>
  </clipPath>
  <clipPath id="p9c99e242f3">
   <rect height="93.188571" width="223.2" x="295.2" y="476.434286"/>
  </clipPath>
  <clipPath id="p3d8d326e7b">
   <rect height="93.188571" width="223.2" x="72" y="662.811429"/>
  </clipPath>
  <clipPath id="p545282407d">
   <rect height="93.188571" width="223.2" x="295.2" y="662.811429"/>
  </clipPath>
 </defs>
</svg>
