<?xml version="1.0" encoding="utf-8" standalone="no"?>
<!DOCTYPE svg PUBLIC "-//W3C//DTD SVG 1.1//EN"
  "http://www.w3.org/Graphics/SVG/1.1/DTD/svg11.dtd">
<!-- Created with matplotlib (https://matplotlib.org/) -->
<svg height="432pt" version="1.1" viewBox="0 0 720 432" width="720pt" xmlns="http://www.w3.org/2000/svg" xmlns:xlink="http://www.w3.org/1999/xlink">
 <defs>
  <style type="text/css">
*{stroke-linecap:butt;stroke-linejoin:round;}
  </style>
 </defs>
 <g id="figure_1">
  <g id="patch_1">
   <path d="M 0 432 
L 720 432 
L 720 0 
L 0 0 
z
" style="fill:#ffffff;"/>
  </g>
  <g id="axes_1">
   <g id="patch_2">
    <path clip-path="url(#p40740c2aac)" d="M 219.864865 175.109213 
Q 204.190147 125.318932 177.995841 85.751808 
" style="fill:none;stroke:#f14130;stroke-linecap:round;stroke-width:4;"/>
    <path clip-path="url(#p40740c2aac)" d="M 178.536238 90.191174 
L 177.995841 85.751808 
L 181.871572 87.98311 
" style="fill:none;stroke:#f14130;stroke-linecap:round;stroke-width:4;"/>
   </g>
   <g id="patch_3">
    <path clip-path="url(#p40740c2aac)" d="M 219.864865 175.109213 
Q 174.504248 167.851514 133.585367 172.647095 
" style="fill:none;stroke:#f14130;stroke-linecap:round;stroke-width:4;"/>
    <path clip-path="url(#p40740c2aac)" d="M 137.790978 174.167897 
L 133.585367 172.647095 
L 137.325376 170.195088 
" style="fill:none;stroke:#f14130;stroke-linecap:round;stroke-width:4;"/>
   </g>
   <g id="PathCollection_1">
    <path clip-path="url(#p40740c2aac)" d="M 167.5 84.521619 
C 171.250538 84.521619 174.847969 83.031514 177.5 80.379483 
C 180.152031 77.727452 181.642136 74.130021 181.642136 70.379483 
C 181.642136 66.628945 180.152031 63.031514 177.5 60.379483 
C 174.847969 57.727452 171.250538 56.237347 167.5 56.237347 
C 163.749462 56.237347 160.152031 57.727452 157.5 60.379483 
C 154.847969 63.031514 153.357864 66.628945 153.357864 70.379483 
C 153.357864 74.130021 154.847969 77.727452 157.5 80.379483 
C 160.152031 83.031514 163.749462 84.521619 167.5 84.521619 
z
" style="fill:#0000ff;stroke:#0000ff;"/>
    <path clip-path="url(#p40740c2aac)" d="M 115.135135 189.251348 
C 118.885673 189.251348 122.483104 187.761244 125.135135 185.109213 
C 127.787166 182.457182 129.277271 178.859751 129.277271 175.109213 
C 129.277271 171.358674 127.787166 167.761244 125.135135 165.109213 
C 122.483104 162.457182 118.885673 160.967077 115.135135 160.967077 
C 111.384597 160.967077 107.787166 162.457182 105.135135 165.109213 
C 102.483104 167.761244 100.993 171.358674 100.993 175.109213 
C 100.993 178.859751 102.483104 182.457182 105.135135 185.109213 
C 107.787166 187.761244 111.384597 189.251348 115.135135 189.251348 
z
" style="fill:#0000ff;stroke:#0000ff;"/>
    <path clip-path="url(#p40740c2aac)" d="M 219.864865 189.251348 
C 223.615403 189.251348 227.212834 187.761244 229.864865 185.109213 
C 232.516896 182.457182 234.007 178.859751 234.007 175.109213 
C 234.007 171.358674 232.516896 167.761244 229.864865 165.109213 
C 227.212834 162.457182 223.615403 160.967077 219.864865 160.967077 
C 216.114327 160.967077 212.516896 162.457182 209.864865 165.109213 
C 207.212834 167.761244 205.722729 171.358674 205.722729 175.109213 
C 205.722729 178.859751 207.212834 182.457182 209.864865 185.109213 
C 212.516896 187.761244 216.114327 189.251348 219.864865 189.251348 
z
" style="fill:#0000ff;stroke:#0000ff;"/>
   </g>
   <g id="text_1">
    <g clip-path="url(#p40740c2aac)">
     <!-- 1 -->
     <defs>
      <path d="M 12.40625 8.296875 
L 28.515625 8.296875 
L 28.515625 63.921875 
L 10.984375 60.40625 
L 10.984375 69.390625 
L 28.421875 72.90625 
L 38.28125 72.90625 
L 38.28125 8.296875 
L 54.390625 8.296875 
L 54.390625 0 
L 12.40625 0 
z
" id="DejaVuSans-49"/>
     </defs>
     <g style="fill:#ffffff;" transform="translate(162.728125 74.518545)scale(0.15 -0.15)">
      <use xlink:href="#DejaVuSans-49"/>
     </g>
    </g>
   </g>
   <g id="text_2">
    <g clip-path="url(#p40740c2aac)">
     <!-- 2 -->
     <defs>
      <path d="M 19.1875 8.296875 
L 53.609375 8.296875 
L 53.609375 0 
L 7.328125 0 
L 7.328125 8.296875 
Q 12.9375 14.109375 22.625 23.890625 
Q 32.328125 33.6875 34.8125 36.53125 
Q 39.546875 41.84375 41.421875 45.53125 
Q 43.3125 49.21875 43.3125 52.78125 
Q 43.3125 58.59375 39.234375 62.25 
Q 35.15625 65.921875 28.609375 65.921875 
Q 23.96875 65.921875 18.8125 64.3125 
Q 13.671875 62.703125 7.8125 59.421875 
L 7.8125 69.390625 
Q 13.765625 71.78125 18.9375 73 
Q 24.125 74.21875 28.421875 74.21875 
Q 39.75 74.21875 46.484375 68.546875 
Q 53.21875 62.890625 53.21875 53.421875 
Q 53.21875 48.921875 51.53125 44.890625 
Q 49.859375 40.875 45.40625 35.40625 
Q 44.1875 33.984375 37.640625 27.21875 
Q 31.109375 20.453125 19.1875 8.296875 
z
" id="DejaVuSans-50"/>
     </defs>
     <g style="fill:#ffffff;" transform="translate(110.36326 179.248275)scale(0.15 -0.15)">
      <use xlink:href="#DejaVuSans-50"/>
     </g>
    </g>
   </g>
   <g id="text_3">
    <g clip-path="url(#p40740c2aac)">
     <!-- 3 -->
     <defs>
      <path d="M 40.578125 39.3125 
Q 47.65625 37.796875 51.625 33 
Q 55.609375 28.21875 55.609375 21.1875 
Q 55.609375 10.40625 48.1875 4.484375 
Q 40.765625 -1.421875 27.09375 -1.421875 
Q 22.515625 -1.421875 17.65625 -0.515625 
Q 12.796875 0.390625 7.625 2.203125 
L 7.625 11.71875 
Q 11.71875 9.328125 16.59375 8.109375 
Q 21.484375 6.890625 26.8125 6.890625 
Q 36.078125 6.890625 40.9375 10.546875 
Q 45.796875 14.203125 45.796875 21.1875 
Q 45.796875 27.640625 41.28125 31.265625 
Q 36.765625 34.90625 28.71875 34.90625 
L 20.21875 34.90625 
L 20.21875 43.015625 
L 29.109375 43.015625 
Q 36.375 43.015625 40.234375 45.921875 
Q 44.09375 48.828125 44.09375 54.296875 
Q 44.09375 59.90625 40.109375 62.90625 
Q 36.140625 65.921875 28.71875 65.921875 
Q 24.65625 65.921875 20.015625 65.03125 
Q 15.375 64.15625 9.8125 62.3125 
L 9.8125 71.09375 
Q 15.4375 72.65625 20.34375 73.4375 
Q 25.25 74.21875 29.59375 74.21875 
Q 40.828125 74.21875 47.359375 69.109375 
Q 53.90625 64.015625 53.90625 55.328125 
Q 53.90625 49.265625 50.4375 45.09375 
Q 46.96875 40.921875 40.578125 39.3125 
z
" id="DejaVuSans-51"/>
     </defs>
     <g style="fill:#ffffff;" transform="translate(215.09299 179.248275)scale(0.15 -0.15)">
      <use xlink:href="#DejaVuSans-51"/>
     </g>
    </g>
   </g>
   <g id="text_4">
    <!-- Segment 1 -->
    <defs>
     <path d="M 4.5 23 
L 13.421875 23.78125 
Q 14.0625 18.40625 16.375 14.96875 
Q 18.703125 11.53125 23.578125 9.40625 
Q 28.46875 7.28125 34.578125 7.28125 
Q 39.984375 7.28125 44.140625 8.890625 
Q 48.296875 10.5 50.3125 13.296875 
Q 52.34375 16.109375 52.34375 19.4375 
Q 52.34375 22.796875 50.390625 25.3125 
Q 48.4375 27.828125 43.953125 29.546875 
Q 41.0625 30.671875 31.203125 33.03125 
Q 21.34375 35.40625 17.390625 37.5 
Q 12.25 40.1875 9.734375 44.15625 
Q 7.234375 48.140625 7.234375 53.078125 
Q 7.234375 58.5 10.296875 63.203125 
Q 13.375 67.921875 19.28125 70.359375 
Q 25.203125 72.796875 32.421875 72.796875 
Q 40.375 72.796875 46.453125 70.234375 
Q 52.546875 67.671875 55.8125 62.6875 
Q 59.078125 57.71875 59.328125 51.421875 
L 50.25 50.734375 
Q 49.515625 57.515625 45.28125 60.984375 
Q 41.0625 64.453125 32.8125 64.453125 
Q 24.21875 64.453125 20.28125 61.296875 
Q 16.359375 58.15625 16.359375 53.71875 
Q 16.359375 49.859375 19.140625 47.359375 
Q 21.875 44.875 33.421875 42.265625 
Q 44.96875 39.65625 49.265625 37.703125 
Q 55.515625 34.8125 58.484375 30.390625 
Q 61.46875 25.984375 61.46875 20.21875 
Q 61.46875 14.5 58.203125 9.4375 
Q 54.9375 4.390625 48.796875 1.578125 
Q 42.671875 -1.21875 35.015625 -1.21875 
Q 25.296875 -1.21875 18.71875 1.609375 
Q 12.15625 4.4375 8.421875 10.125 
Q 4.6875 15.828125 4.5 23 
z
" id="ArialMT-83"/>
     <path d="M 42.09375 16.703125 
L 51.171875 15.578125 
Q 49.03125 7.625 43.21875 3.21875 
Q 37.40625 -1.171875 28.375 -1.171875 
Q 17 -1.171875 10.328125 5.828125 
Q 3.65625 12.84375 3.65625 25.484375 
Q 3.65625 38.578125 10.390625 45.796875 
Q 17.140625 53.03125 27.875 53.03125 
Q 38.28125 53.03125 44.875 45.953125 
Q 51.46875 38.875 51.46875 26.03125 
Q 51.46875 25.25 51.421875 23.6875 
L 12.75 23.6875 
Q 13.234375 15.140625 17.578125 10.59375 
Q 21.921875 6.0625 28.421875 6.0625 
Q 33.25 6.0625 36.671875 8.59375 
Q 40.09375 11.140625 42.09375 16.703125 
z
M 13.234375 30.90625 
L 42.1875 30.90625 
Q 41.609375 37.453125 38.875 40.71875 
Q 34.671875 45.796875 27.984375 45.796875 
Q 21.921875 45.796875 17.796875 41.75 
Q 13.671875 37.703125 13.234375 30.90625 
z
" id="ArialMT-101"/>
     <path d="M 4.984375 -4.296875 
L 13.53125 -5.5625 
Q 14.0625 -9.515625 16.5 -11.328125 
Q 19.78125 -13.765625 25.4375 -13.765625 
Q 31.546875 -13.765625 34.859375 -11.328125 
Q 38.1875 -8.890625 39.359375 -4.5 
Q 40.046875 -1.8125 39.984375 6.78125 
Q 34.234375 0 25.640625 0 
Q 14.9375 0 9.078125 7.71875 
Q 3.21875 15.4375 3.21875 26.21875 
Q 3.21875 33.640625 5.90625 39.90625 
Q 8.59375 46.1875 13.6875 49.609375 
Q 18.796875 53.03125 25.6875 53.03125 
Q 34.859375 53.03125 40.828125 45.609375 
L 40.828125 51.859375 
L 48.921875 51.859375 
L 48.921875 7.03125 
Q 48.921875 -5.078125 46.453125 -10.125 
Q 44 -15.1875 38.640625 -18.109375 
Q 33.296875 -21.046875 25.484375 -21.046875 
Q 16.21875 -21.046875 10.5 -16.875 
Q 4.78125 -12.703125 4.984375 -4.296875 
z
M 12.25 26.859375 
Q 12.25 16.65625 16.296875 11.96875 
Q 20.359375 7.28125 26.46875 7.28125 
Q 32.515625 7.28125 36.609375 11.9375 
Q 40.71875 16.609375 40.71875 26.5625 
Q 40.71875 36.078125 36.5 40.90625 
Q 32.28125 45.75 26.3125 45.75 
Q 20.453125 45.75 16.34375 40.984375 
Q 12.25 36.234375 12.25 26.859375 
z
" id="ArialMT-103"/>
     <path d="M 6.59375 0 
L 6.59375 51.859375 
L 14.453125 51.859375 
L 14.453125 44.578125 
Q 16.890625 48.390625 20.9375 50.703125 
Q 25 53.03125 30.171875 53.03125 
Q 35.9375 53.03125 39.625 50.640625 
Q 43.3125 48.25 44.828125 43.953125 
Q 50.984375 53.03125 60.84375 53.03125 
Q 68.5625 53.03125 72.703125 48.75 
Q 76.859375 44.484375 76.859375 35.59375 
L 76.859375 0 
L 68.109375 0 
L 68.109375 32.671875 
Q 68.109375 37.9375 67.25 40.25 
Q 66.40625 42.578125 64.15625 43.984375 
Q 61.921875 45.40625 58.890625 45.40625 
Q 53.421875 45.40625 49.796875 41.765625 
Q 46.1875 38.140625 46.1875 30.125 
L 46.1875 0 
L 37.40625 0 
L 37.40625 33.6875 
Q 37.40625 39.546875 35.25 42.46875 
Q 33.109375 45.40625 28.21875 45.40625 
Q 24.515625 45.40625 21.359375 43.453125 
Q 18.21875 41.5 16.796875 37.734375 
Q 15.375 33.984375 15.375 26.90625 
L 15.375 0 
z
" id="ArialMT-109"/>
     <path d="M 6.59375 0 
L 6.59375 51.859375 
L 14.5 51.859375 
L 14.5 44.484375 
Q 20.21875 53.03125 31 53.03125 
Q 35.6875 53.03125 39.625 51.34375 
Q 43.5625 49.65625 45.515625 46.921875 
Q 47.46875 44.1875 48.25 40.4375 
Q 48.734375 37.984375 48.734375 31.890625 
L 48.734375 0 
L 39.9375 0 
L 39.9375 31.546875 
Q 39.9375 36.921875 38.90625 39.578125 
Q 37.890625 42.234375 35.28125 43.8125 
Q 32.671875 45.40625 29.15625 45.40625 
Q 23.53125 45.40625 19.453125 41.84375 
Q 15.375 38.28125 15.375 28.328125 
L 15.375 0 
z
" id="ArialMT-110"/>
     <path d="M 25.78125 7.859375 
L 27.046875 0.09375 
Q 23.34375 -0.6875 20.40625 -0.6875 
Q 15.625 -0.6875 12.984375 0.828125 
Q 10.359375 2.34375 9.28125 4.8125 
Q 8.203125 7.28125 8.203125 15.1875 
L 8.203125 45.015625 
L 1.765625 45.015625 
L 1.765625 51.859375 
L 8.203125 51.859375 
L 8.203125 64.703125 
L 16.9375 69.96875 
L 16.9375 51.859375 
L 25.78125 51.859375 
L 25.78125 45.015625 
L 16.9375 45.015625 
L 16.9375 14.703125 
Q 16.9375 10.9375 17.40625 9.859375 
Q 17.875 8.796875 18.921875 8.15625 
Q 19.96875 7.515625 21.921875 7.515625 
Q 23.390625 7.515625 25.78125 7.859375 
z
" id="ArialMT-116"/>
     <path id="ArialMT-32"/>
     <path d="M 37.25 0 
L 28.46875 0 
L 28.46875 56 
Q 25.296875 52.984375 20.140625 49.953125 
Q 14.984375 46.921875 10.890625 45.40625 
L 10.890625 53.90625 
Q 18.265625 57.375 23.78125 62.296875 
Q 29.296875 67.234375 31.59375 71.875 
L 37.25 71.875 
z
" id="ArialMT-49"/>
    </defs>
    <g transform="translate(138.483438 32.831625)scale(0.12 -0.12)">
     <use xlink:href="#ArialMT-83"/>
     <use x="66.699219" xlink:href="#ArialMT-101"/>
     <use x="122.314453" xlink:href="#ArialMT-103"/>
     <use x="177.929688" xlink:href="#ArialMT-109"/>
     <use x="261.230469" xlink:href="#ArialMT-101"/>
     <use x="316.845703" xlink:href="#ArialMT-110"/>
     <use x="372.460938" xlink:href="#ArialMT-116"/>
     <use x="400.244141" xlink:href="#ArialMT-32"/>
     <use x="428.027344" xlink:href="#ArialMT-49"/>
    </g>
    <!--  (true) -->
    <defs>
     <path d="M 23.390625 -21.046875 
Q 16.109375 -11.859375 11.078125 0.4375 
Q 6.0625 12.75 6.0625 25.921875 
Q 6.0625 37.546875 9.8125 48.1875 
Q 14.203125 60.546875 23.390625 72.796875 
L 29.6875 72.796875 
Q 23.78125 62.640625 21.875 58.296875 
Q 18.890625 51.5625 17.1875 44.234375 
Q 15.09375 35.109375 15.09375 25.875 
Q 15.09375 2.390625 29.6875 -21.046875 
z
" id="ArialMT-40"/>
     <path d="M 6.5 0 
L 6.5 51.859375 
L 14.40625 51.859375 
L 14.40625 44 
Q 17.4375 49.515625 20 51.265625 
Q 22.5625 53.03125 25.640625 53.03125 
Q 30.078125 53.03125 34.671875 50.203125 
L 31.640625 42.046875 
Q 28.421875 43.953125 25.203125 43.953125 
Q 22.3125 43.953125 20.015625 42.21875 
Q 17.71875 40.484375 16.75 37.40625 
Q 15.28125 32.71875 15.28125 27.15625 
L 15.28125 0 
z
" id="ArialMT-114"/>
     <path d="M 40.578125 0 
L 40.578125 7.625 
Q 34.515625 -1.171875 24.125 -1.171875 
Q 19.53125 -1.171875 15.546875 0.578125 
Q 11.578125 2.34375 9.640625 5 
Q 7.71875 7.671875 6.9375 11.53125 
Q 6.390625 14.109375 6.390625 19.734375 
L 6.390625 51.859375 
L 15.1875 51.859375 
L 15.1875 23.09375 
Q 15.1875 16.21875 15.71875 13.8125 
Q 16.546875 10.359375 19.234375 8.375 
Q 21.921875 6.390625 25.875 6.390625 
Q 29.828125 6.390625 33.296875 8.421875 
Q 36.765625 10.453125 38.203125 13.9375 
Q 39.65625 17.4375 39.65625 24.078125 
L 39.65625 51.859375 
L 48.4375 51.859375 
L 48.4375 0 
z
" id="ArialMT-117"/>
     <path d="M 12.359375 -21.046875 
L 6.0625 -21.046875 
Q 20.65625 2.390625 20.65625 25.875 
Q 20.65625 35.0625 18.5625 44.09375 
Q 16.890625 51.421875 13.921875 58.15625 
Q 12.015625 62.546875 6.0625 72.796875 
L 12.359375 72.796875 
Q 21.53125 60.546875 25.921875 48.1875 
Q 29.6875 37.546875 29.6875 25.921875 
Q 29.6875 12.75 24.625 0.4375 
Q 19.578125 -11.859375 12.359375 -21.046875 
z
" id="ArialMT-41"/>
    </defs>
    <g transform="translate(151.499687 45.84)scale(0.12 -0.12)">
     <use xlink:href="#ArialMT-32"/>
     <use x="27.783203" xlink:href="#ArialMT-40"/>
     <use x="61.083984" xlink:href="#ArialMT-116"/>
     <use x="88.867188" xlink:href="#ArialMT-114"/>
     <use x="122.167969" xlink:href="#ArialMT-117"/>
     <use x="177.783203" xlink:href="#ArialMT-101"/>
     <use x="233.398438" xlink:href="#ArialMT-41"/>
    </g>
   </g>
  </g>
  <g id="axes_2">
   <g id="patch_4">
    <path clip-path="url(#p8919cf0c1b)" d="M 167.5 254.730787 
Q 137.072606 297.14473 121.135491 341.840449 
" style="fill:none;stroke:#fff5f0;stroke-linecap:round;stroke-width:4;"/>
    <path clip-path="url(#p8919cf0c1b)" d="M 124.362745 338.744512 
L 121.135491 341.840449 
L 120.595094 337.401083 
" style="fill:none;stroke:#fff5f0;stroke-linecap:round;stroke-width:4;"/>
   </g>
   <g id="patch_5">
    <path clip-path="url(#p8919cf0c1b)" d="M 167.5 254.730787 
Q 183.174718 304.521068 209.369024 344.088192 
" style="fill:none;stroke:#fff5f0;stroke-linecap:round;stroke-width:4;"/>
    <path clip-path="url(#p8919cf0c1b)" d="M 208.828627 339.648826 
L 209.369024 344.088192 
L 205.493293 341.85689 
" style="fill:none;stroke:#fff5f0;stroke-linecap:round;stroke-width:4;"/>
   </g>
   <g id="patch_6">
    <path clip-path="url(#p8919cf0c1b)" d="M 115.135135 359.460517 
Q 145.562529 317.046575 161.499644 272.350855 
" style="fill:none;stroke:#fff5f0;stroke-linecap:round;stroke-width:4;"/>
    <path clip-path="url(#p8919cf0c1b)" d="M 158.27239 275.446793 
L 161.499644 272.350855 
L 162.040042 276.790221 
" style="fill:none;stroke:#fff5f0;stroke-linecap:round;stroke-width:4;"/>
   </g>
   <g id="patch_7">
    <path clip-path="url(#p8919cf0c1b)" d="M 115.135135 359.460517 
Q 160.495752 366.718216 201.414633 361.922635 
" style="fill:none;stroke:#fff5f0;stroke-linecap:round;stroke-width:4;"/>
    <path clip-path="url(#p8919cf0c1b)" d="M 197.209022 360.401832 
L 201.414633 361.922635 
L 197.674624 364.374642 
" style="fill:none;stroke:#fff5f0;stroke-linecap:round;stroke-width:4;"/>
   </g>
   <g id="patch_8">
    <path clip-path="url(#p8919cf0c1b)" d="M 219.864865 359.460517 
Q 204.190147 309.670237 177.995841 270.103113 
" style="fill:none;stroke:#f14130;stroke-linecap:round;stroke-width:4;"/>
    <path clip-path="url(#p8919cf0c1b)" d="M 178.536238 274.542479 
L 177.995841 270.103113 
L 181.871572 272.334414 
" style="fill:none;stroke:#f14130;stroke-linecap:round;stroke-width:4;"/>
   </g>
   <g id="patch_9">
    <path clip-path="url(#p8919cf0c1b)" d="M 219.864865 359.460517 
Q 174.504248 352.202818 133.585367 356.998399 
" style="fill:none;stroke:#f14130;stroke-linecap:round;stroke-width:4;"/>
    <path clip-path="url(#p8919cf0c1b)" d="M 137.790978 358.519202 
L 133.585367 356.998399 
L 137.325376 354.546392 
" style="fill:none;stroke:#f14130;stroke-linecap:round;stroke-width:4;"/>
   </g>
   <g id="PathCollection_2">
    <path clip-path="url(#p8919cf0c1b)" d="M 167.5 268.872923 
C 171.250538 268.872923 174.847969 267.382818 177.5 264.730787 
C 180.152031 262.078756 181.642136 258.481326 181.642136 254.730787 
C 181.642136 250.980249 180.152031 247.382818 177.5 244.730787 
C 174.847969 242.078756 171.250538 240.588652 167.5 240.588652 
C 163.749462 240.588652 160.152031 242.078756 157.5 244.730787 
C 154.847969 247.382818 153.357864 250.980249 153.357864 254.730787 
C 153.357864 258.481326 154.847969 262.078756 157.5 264.730787 
C 160.152031 267.382818 163.749462 268.872923 167.5 268.872923 
z
" style="fill:#0000ff;stroke:#0000ff;"/>
    <path clip-path="url(#p8919cf0c1b)" d="M 115.135135 373.602653 
C 118.885673 373.602653 122.483104 372.112548 125.135135 369.460517 
C 127.787166 366.808486 129.277271 363.211055 129.277271 359.460517 
C 129.277271 355.709979 127.787166 352.112548 125.135135 349.460517 
C 122.483104 346.808486 118.885673 345.318381 115.135135 345.318381 
C 111.384597 345.318381 107.787166 346.808486 105.135135 349.460517 
C 102.483104 352.112548 100.993 355.709979 100.993 359.460517 
C 100.993 363.211055 102.483104 366.808486 105.135135 369.460517 
C 107.787166 372.112548 111.384597 373.602653 115.135135 373.602653 
z
" style="fill:#0000ff;stroke:#0000ff;"/>
    <path clip-path="url(#p8919cf0c1b)" d="M 219.864865 373.602653 
C 223.615403 373.602653 227.212834 372.112548 229.864865 369.460517 
C 232.516896 366.808486 234.007 363.211055 234.007 359.460517 
C 234.007 355.709979 232.516896 352.112548 229.864865 349.460517 
C 227.212834 346.808486 223.615403 345.318381 219.864865 345.318381 
C 216.114327 345.318381 212.516896 346.808486 209.864865 349.460517 
C 207.212834 352.112548 205.722729 355.709979 205.722729 359.460517 
C 205.722729 363.211055 207.212834 366.808486 209.864865 369.460517 
C 212.516896 372.112548 216.114327 373.602653 219.864865 373.602653 
z
" style="fill:#0000ff;stroke:#0000ff;"/>
   </g>
   <g id="text_5">
    <g clip-path="url(#p8919cf0c1b)">
     <!-- 1 -->
     <g style="fill:#ffffff;" transform="translate(162.728125 258.86985)scale(0.15 -0.15)">
      <use xlink:href="#DejaVuSans-49"/>
     </g>
    </g>
   </g>
   <g id="text_6">
    <g clip-path="url(#p8919cf0c1b)">
     <!-- 2 -->
     <g style="fill:#ffffff;" transform="translate(110.36326 363.59958)scale(0.15 -0.15)">
      <use xlink:href="#DejaVuSans-50"/>
     </g>
    </g>
   </g>
   <g id="text_7">
    <g clip-path="url(#p8919cf0c1b)">
     <!-- 3 -->
     <g style="fill:#ffffff;" transform="translate(215.09299 363.59958)scale(0.15 -0.15)">
      <use xlink:href="#DejaVuSans-51"/>
     </g>
    </g>
   </g>
   <g id="text_8">
    <!-- Segment 1 -->
    <g transform="translate(138.483438 217.182929)scale(0.12 -0.12)">
     <use xlink:href="#ArialMT-83"/>
     <use x="66.699219" xlink:href="#ArialMT-101"/>
     <use x="122.314453" xlink:href="#ArialMT-103"/>
     <use x="177.929688" xlink:href="#ArialMT-109"/>
     <use x="261.230469" xlink:href="#ArialMT-101"/>
     <use x="316.845703" xlink:href="#ArialMT-110"/>
     <use x="372.460938" xlink:href="#ArialMT-116"/>
     <use x="400.244141" xlink:href="#ArialMT-32"/>
     <use x="428.027344" xlink:href="#ArialMT-49"/>
    </g>
    <!--  (pred.) -->
    <defs>
     <path d="M 6.59375 -19.875 
L 6.59375 51.859375 
L 14.59375 51.859375 
L 14.59375 45.125 
Q 17.4375 49.078125 21 51.046875 
Q 24.5625 53.03125 29.640625 53.03125 
Q 36.28125 53.03125 41.359375 49.609375 
Q 46.4375 46.1875 49.015625 39.953125 
Q 51.609375 33.734375 51.609375 26.3125 
Q 51.609375 18.359375 48.75 11.984375 
Q 45.90625 5.609375 40.453125 2.21875 
Q 35.015625 -1.171875 29 -1.171875 
Q 24.609375 -1.171875 21.109375 0.6875 
Q 17.625 2.546875 15.375 5.375 
L 15.375 -19.875 
z
M 14.546875 25.640625 
Q 14.546875 15.625 18.59375 10.84375 
Q 22.65625 6.0625 28.421875 6.0625 
Q 34.28125 6.0625 38.453125 11.015625 
Q 42.625 15.96875 42.625 26.375 
Q 42.625 36.28125 38.546875 41.203125 
Q 34.46875 46.140625 28.8125 46.140625 
Q 23.1875 46.140625 18.859375 40.890625 
Q 14.546875 35.640625 14.546875 25.640625 
z
" id="ArialMT-112"/>
     <path d="M 40.234375 0 
L 40.234375 6.546875 
Q 35.296875 -1.171875 25.734375 -1.171875 
Q 19.53125 -1.171875 14.328125 2.25 
Q 9.125 5.671875 6.265625 11.796875 
Q 3.421875 17.921875 3.421875 25.875 
Q 3.421875 33.640625 6 39.96875 
Q 8.59375 46.296875 13.765625 49.65625 
Q 18.953125 53.03125 25.34375 53.03125 
Q 30.03125 53.03125 33.6875 51.046875 
Q 37.359375 49.078125 39.65625 45.90625 
L 39.65625 71.578125 
L 48.390625 71.578125 
L 48.390625 0 
z
M 12.453125 25.875 
Q 12.453125 15.921875 16.640625 10.984375 
Q 20.84375 6.0625 26.5625 6.0625 
Q 32.328125 6.0625 36.34375 10.765625 
Q 40.375 15.484375 40.375 25.140625 
Q 40.375 35.796875 36.265625 40.765625 
Q 32.171875 45.75 26.171875 45.75 
Q 20.3125 45.75 16.375 40.96875 
Q 12.453125 36.1875 12.453125 25.875 
z
" id="ArialMT-100"/>
     <path d="M 9.078125 0 
L 9.078125 10.015625 
L 19.09375 10.015625 
L 19.09375 0 
z
" id="ArialMT-46"/>
    </defs>
    <g transform="translate(148.163125 230.191304)scale(0.12 -0.12)">
     <use xlink:href="#ArialMT-32"/>
     <use x="27.783203" xlink:href="#ArialMT-40"/>
     <use x="61.083984" xlink:href="#ArialMT-112"/>
     <use x="116.699219" xlink:href="#ArialMT-114"/>
     <use x="150" xlink:href="#ArialMT-101"/>
     <use x="205.615234" xlink:href="#ArialMT-100"/>
     <use x="261.230469" xlink:href="#ArialMT-46"/>
     <use x="289.013672" xlink:href="#ArialMT-41"/>
    </g>
   </g>
  </g>
  <g id="axes_3">
   <g id="patch_10">
    <path clip-path="url(#p080e76e448)" d="M 369 70.379483 
Q 338.572606 112.793425 322.635491 157.489145 
" style="fill:none;stroke:#f14130;stroke-linecap:round;stroke-width:4;"/>
    <path clip-path="url(#p080e76e448)" d="M 325.862745 154.393207 
L 322.635491 157.489145 
L 322.095094 153.049779 
" style="fill:none;stroke:#f14130;stroke-linecap:round;stroke-width:4;"/>
   </g>
   <g id="patch_11">
    <path clip-path="url(#p080e76e448)" d="M 369 70.379483 
Q 384.674718 120.169763 410.869024 159.736887 
" style="fill:none;stroke:#f14130;stroke-linecap:round;stroke-width:4;"/>
    <path clip-path="url(#p080e76e448)" d="M 410.328627 155.297521 
L 410.869024 159.736887 
L 406.993293 157.505586 
" style="fill:none;stroke:#f14130;stroke-linecap:round;stroke-width:4;"/>
   </g>
   <g id="patch_12">
    <path clip-path="url(#p080e76e448)" d="M 316.635135 175.109213 
Q 347.062529 132.69527 362.999644 87.999551 
" style="fill:none;stroke:#f14130;stroke-linecap:round;stroke-width:4;"/>
    <path clip-path="url(#p080e76e448)" d="M 359.77239 91.095488 
L 362.999644 87.999551 
L 363.540042 92.438917 
" style="fill:none;stroke:#f14130;stroke-linecap:round;stroke-width:4;"/>
   </g>
   <g id="patch_13">
    <path clip-path="url(#p080e76e448)" d="M 316.635135 175.109213 
Q 361.995752 182.366911 402.914633 177.57133 
" style="fill:none;stroke:#f14130;stroke-linecap:round;stroke-width:4;"/>
    <path clip-path="url(#p080e76e448)" d="M 398.709022 176.050528 
L 402.914633 177.57133 
L 399.174624 180.023338 
" style="fill:none;stroke:#f14130;stroke-linecap:round;stroke-width:4;"/>
   </g>
   <g id="patch_14">
    <path clip-path="url(#p080e76e448)" d="M 421.364865 175.109213 
Q 405.690147 125.318932 379.495841 85.751808 
" style="fill:none;stroke:#f14130;stroke-linecap:round;stroke-width:4;"/>
    <path clip-path="url(#p080e76e448)" d="M 380.036238 90.191174 
L 379.495841 85.751808 
L 383.371572 87.98311 
" style="fill:none;stroke:#f14130;stroke-linecap:round;stroke-width:4;"/>
   </g>
   <g id="patch_15">
    <path clip-path="url(#p080e76e448)" d="M 421.364865 175.109213 
Q 376.004248 167.851514 335.085367 172.647095 
" style="fill:none;stroke:#f14130;stroke-linecap:round;stroke-width:4;"/>
    <path clip-path="url(#p080e76e448)" d="M 339.290978 174.167897 
L 335.085367 172.647095 
L 338.825376 170.195088 
" style="fill:none;stroke:#f14130;stroke-linecap:round;stroke-width:4;"/>
   </g>
   <g id="PathCollection_3">
    <path clip-path="url(#p080e76e448)" d="M 369 84.521619 
C 372.750538 84.521619 376.347969 83.031514 379 80.379483 
C 381.652031 77.727452 383.142136 74.130021 383.142136 70.379483 
C 383.142136 66.628945 381.652031 63.031514 379 60.379483 
C 376.347969 57.727452 372.750538 56.237347 369 56.237347 
C 365.249462 56.237347 361.652031 57.727452 359 60.379483 
C 356.347969 63.031514 354.857864 66.628945 354.857864 70.379483 
C 354.857864 74.130021 356.347969 77.727452 359 80.379483 
C 361.652031 83.031514 365.249462 84.521619 369 84.521619 
z
" style="fill:#0000ff;stroke:#0000ff;"/>
    <path clip-path="url(#p080e76e448)" d="M 316.635135 189.251348 
C 320.385673 189.251348 323.983104 187.761244 326.635135 185.109213 
C 329.287166 182.457182 330.777271 178.859751 330.777271 175.109213 
C 330.777271 171.358674 329.287166 167.761244 326.635135 165.109213 
C 323.983104 162.457182 320.385673 160.967077 316.635135 160.967077 
C 312.884597 160.967077 309.287166 162.457182 306.635135 165.109213 
C 303.983104 167.761244 302.493 171.358674 302.493 175.109213 
C 302.493 178.859751 303.983104 182.457182 306.635135 185.109213 
C 309.287166 187.761244 312.884597 189.251348 316.635135 189.251348 
z
" style="fill:#0000ff;stroke:#0000ff;"/>
    <path clip-path="url(#p080e76e448)" d="M 421.364865 189.251348 
C 425.115403 189.251348 428.712834 187.761244 431.364865 185.109213 
C 434.016896 182.457182 435.507 178.859751 435.507 175.109213 
C 435.507 171.358674 434.016896 167.761244 431.364865 165.109213 
C 428.712834 162.457182 425.115403 160.967077 421.364865 160.967077 
C 417.614327 160.967077 414.016896 162.457182 411.364865 165.109213 
C 408.712834 167.761244 407.222729 171.358674 407.222729 175.109213 
C 407.222729 178.859751 408.712834 182.457182 411.364865 185.109213 
C 414.016896 187.761244 417.614327 189.251348 421.364865 189.251348 
z
" style="fill:#0000ff;stroke:#0000ff;"/>
   </g>
   <g id="text_9">
    <g clip-path="url(#p080e76e448)">
     <!-- 1 -->
     <g style="fill:#ffffff;" transform="translate(364.228125 74.518545)scale(0.15 -0.15)">
      <use xlink:href="#DejaVuSans-49"/>
     </g>
    </g>
   </g>
   <g id="text_10">
    <g clip-path="url(#p080e76e448)">
     <!-- 2 -->
     <g style="fill:#ffffff;" transform="translate(311.86326 179.248275)scale(0.15 -0.15)">
      <use xlink:href="#DejaVuSans-50"/>
     </g>
    </g>
   </g>
   <g id="text_11">
    <g clip-path="url(#p080e76e448)">
     <!-- 3 -->
     <g style="fill:#ffffff;" transform="translate(416.59299 179.248275)scale(0.15 -0.15)">
      <use xlink:href="#DejaVuSans-51"/>
     </g>
    </g>
   </g>
   <g id="text_12">
    <!-- Segment 2 -->
    <defs>
     <path d="M 50.34375 8.453125 
L 50.34375 0 
L 3.03125 0 
Q 2.9375 3.171875 4.046875 6.109375 
Q 5.859375 10.9375 9.828125 15.625 
Q 13.8125 20.3125 21.34375 26.46875 
Q 33.015625 36.03125 37.109375 41.625 
Q 41.21875 47.21875 41.21875 52.203125 
Q 41.21875 57.421875 37.46875 61 
Q 33.734375 64.59375 27.734375 64.59375 
Q 21.390625 64.59375 17.578125 60.78125 
Q 13.765625 56.984375 13.71875 50.25 
L 4.6875 51.171875 
Q 5.609375 61.28125 11.65625 66.578125 
Q 17.71875 71.875 27.9375 71.875 
Q 38.234375 71.875 44.234375 66.15625 
Q 50.25 60.453125 50.25 52 
Q 50.25 47.703125 48.484375 43.546875 
Q 46.734375 39.40625 42.65625 34.8125 
Q 38.578125 30.21875 29.109375 22.21875 
Q 21.1875 15.578125 18.9375 13.203125 
Q 16.703125 10.84375 15.234375 8.453125 
z
" id="ArialMT-50"/>
    </defs>
    <g transform="translate(339.983437 32.831625)scale(0.12 -0.12)">
     <use xlink:href="#ArialMT-83"/>
     <use x="66.699219" xlink:href="#ArialMT-101"/>
     <use x="122.314453" xlink:href="#ArialMT-103"/>
     <use x="177.929688" xlink:href="#ArialMT-109"/>
     <use x="261.230469" xlink:href="#ArialMT-101"/>
     <use x="316.845703" xlink:href="#ArialMT-110"/>
     <use x="372.460938" xlink:href="#ArialMT-116"/>
     <use x="400.244141" xlink:href="#ArialMT-32"/>
     <use x="428.027344" xlink:href="#ArialMT-50"/>
    </g>
    <!--  (true) -->
    <g transform="translate(352.999687 45.84)scale(0.12 -0.12)">
     <use xlink:href="#ArialMT-32"/>
     <use x="27.783203" xlink:href="#ArialMT-40"/>
     <use x="61.083984" xlink:href="#ArialMT-116"/>
     <use x="88.867188" xlink:href="#ArialMT-114"/>
     <use x="122.167969" xlink:href="#ArialMT-117"/>
     <use x="177.783203" xlink:href="#ArialMT-101"/>
     <use x="233.398438" xlink:href="#ArialMT-41"/>
    </g>
   </g>
  </g>
  <g id="axes_4">
   <g id="patch_16">
    <path clip-path="url(#p0a49d3a6a0)" d="M 369 254.730787 
Q 338.572606 297.14473 322.635491 341.840449 
" style="fill:none;stroke:#fdd0bc;stroke-linecap:round;stroke-width:4;"/>
    <path clip-path="url(#p0a49d3a6a0)" d="M 325.862745 338.744512 
L 322.635491 341.840449 
L 322.095094 337.401083 
" style="fill:none;stroke:#fdd0bc;stroke-linecap:round;stroke-width:4;"/>
   </g>
   <g id="patch_17">
    <path clip-path="url(#p0a49d3a6a0)" d="M 369 254.730787 
Q 384.674718 304.521068 410.869024 344.088192 
" style="fill:none;stroke:#fcb99f;stroke-linecap:round;stroke-width:4;"/>
    <path clip-path="url(#p0a49d3a6a0)" d="M 410.328627 339.648826 
L 410.869024 344.088192 
L 406.993293 341.85689 
" style="fill:none;stroke:#fcb99f;stroke-linecap:round;stroke-width:4;"/>
   </g>
   <g id="patch_18">
    <path clip-path="url(#p0a49d3a6a0)" d="M 316.635135 359.460517 
Q 347.062529 317.046575 362.999644 272.350855 
" style="fill:none;stroke:#fcbba1;stroke-linecap:round;stroke-width:4;"/>
    <path clip-path="url(#p0a49d3a6a0)" d="M 359.77239 275.446793 
L 362.999644 272.350855 
L 363.540042 276.790221 
" style="fill:none;stroke:#fcbba1;stroke-linecap:round;stroke-width:4;"/>
   </g>
   <g id="patch_19">
    <path clip-path="url(#p0a49d3a6a0)" d="M 316.635135 359.460517 
Q 361.995752 366.718216 402.914633 361.922635 
" style="fill:none;stroke:#fcb79c;stroke-linecap:round;stroke-width:4;"/>
    <path clip-path="url(#p0a49d3a6a0)" d="M 398.709022 360.401832 
L 402.914633 361.922635 
L 399.174624 364.374642 
" style="fill:none;stroke:#fcb79c;stroke-linecap:round;stroke-width:4;"/>
   </g>
   <g id="patch_20">
    <path clip-path="url(#p0a49d3a6a0)" d="M 421.364865 359.460517 
Q 405.690147 309.670237 379.495841 270.103113 
" style="fill:none;stroke:#f03f2e;stroke-linecap:round;stroke-width:4;"/>
    <path clip-path="url(#p0a49d3a6a0)" d="M 380.036238 274.542479 
L 379.495841 270.103113 
L 383.371572 272.334414 
" style="fill:none;stroke:#f03f2e;stroke-linecap:round;stroke-width:4;"/>
   </g>
   <g id="patch_21">
    <path clip-path="url(#p0a49d3a6a0)" d="M 421.364865 359.460517 
Q 376.004248 352.202818 335.085367 356.998399 
" style="fill:none;stroke:#f14331;stroke-linecap:round;stroke-width:4;"/>
    <path clip-path="url(#p0a49d3a6a0)" d="M 339.290978 358.519202 
L 335.085367 356.998399 
L 338.825376 354.546392 
" style="fill:none;stroke:#f14331;stroke-linecap:round;stroke-width:4;"/>
   </g>
   <g id="PathCollection_4">
    <path clip-path="url(#p0a49d3a6a0)" d="M 369 268.872923 
C 372.750538 268.872923 376.347969 267.382818 379 264.730787 
C 381.652031 262.078756 383.142136 258.481326 383.142136 254.730787 
C 383.142136 250.980249 381.652031 247.382818 379 244.730787 
C 376.347969 242.078756 372.750538 240.588652 369 240.588652 
C 365.249462 240.588652 361.652031 242.078756 359 244.730787 
C 356.347969 247.382818 354.857864 250.980249 354.857864 254.730787 
C 354.857864 258.481326 356.347969 262.078756 359 264.730787 
C 361.652031 267.382818 365.249462 268.872923 369 268.872923 
z
" style="fill:#0000ff;stroke:#0000ff;"/>
    <path clip-path="url(#p0a49d3a6a0)" d="M 316.635135 373.602653 
C 320.385673 373.602653 323.983104 372.112548 326.635135 369.460517 
C 329.287166 366.808486 330.777271 363.211055 330.777271 359.460517 
C 330.777271 355.709979 329.287166 352.112548 326.635135 349.460517 
C 323.983104 346.808486 320.385673 345.318381 316.635135 345.318381 
C 312.884597 345.318381 309.287166 346.808486 306.635135 349.460517 
C 303.983104 352.112548 302.493 355.709979 302.493 359.460517 
C 302.493 363.211055 303.983104 366.808486 306.635135 369.460517 
C 309.287166 372.112548 312.884597 373.602653 316.635135 373.602653 
z
" style="fill:#0000ff;stroke:#0000ff;"/>
    <path clip-path="url(#p0a49d3a6a0)" d="M 421.364865 373.602653 
C 425.115403 373.602653 428.712834 372.112548 431.364865 369.460517 
C 434.016896 366.808486 435.507 363.211055 435.507 359.460517 
C 435.507 355.709979 434.016896 352.112548 431.364865 349.460517 
C 428.712834 346.808486 425.115403 345.318381 421.364865 345.318381 
C 417.614327 345.318381 414.016896 346.808486 411.364865 349.460517 
C 408.712834 352.112548 407.222729 355.709979 407.222729 359.460517 
C 407.222729 363.211055 408.712834 366.808486 411.364865 369.460517 
C 414.016896 372.112548 417.614327 373.602653 421.364865 373.602653 
z
" style="fill:#0000ff;stroke:#0000ff;"/>
   </g>
   <g id="text_13">
    <g clip-path="url(#p0a49d3a6a0)">
     <!-- 1 -->
     <g style="fill:#ffffff;" transform="translate(364.228125 258.86985)scale(0.15 -0.15)">
      <use xlink:href="#DejaVuSans-49"/>
     </g>
    </g>
   </g>
   <g id="text_14">
    <g clip-path="url(#p0a49d3a6a0)">
     <!-- 2 -->
     <g style="fill:#ffffff;" transform="translate(311.86326 363.59958)scale(0.15 -0.15)">
      <use xlink:href="#DejaVuSans-50"/>
     </g>
    </g>
   </g>
   <g id="text_15">
    <g clip-path="url(#p0a49d3a6a0)">
     <!-- 3 -->
     <g style="fill:#ffffff;" transform="translate(416.59299 363.59958)scale(0.15 -0.15)">
      <use xlink:href="#DejaVuSans-51"/>
     </g>
    </g>
   </g>
   <g id="text_16">
    <!-- Segment 2 -->
    <g transform="translate(339.983437 217.182929)scale(0.12 -0.12)">
     <use xlink:href="#ArialMT-83"/>
     <use x="66.699219" xlink:href="#ArialMT-101"/>
     <use x="122.314453" xlink:href="#ArialMT-103"/>
     <use x="177.929688" xlink:href="#ArialMT-109"/>
     <use x="261.230469" xlink:href="#ArialMT-101"/>
     <use x="316.845703" xlink:href="#ArialMT-110"/>
     <use x="372.460938" xlink:href="#ArialMT-116"/>
     <use x="400.244141" xlink:href="#ArialMT-32"/>
     <use x="428.027344" xlink:href="#ArialMT-50"/>
    </g>
    <!--  (pred.) -->
    <g transform="translate(349.663125 230.191304)scale(0.12 -0.12)">
     <use xlink:href="#ArialMT-32"/>
     <use x="27.783203" xlink:href="#ArialMT-40"/>
     <use x="61.083984" xlink:href="#ArialMT-112"/>
     <use x="116.699219" xlink:href="#ArialMT-114"/>
     <use x="150" xlink:href="#ArialMT-101"/>
     <use x="205.615234" xlink:href="#ArialMT-100"/>
     <use x="261.230469" xlink:href="#ArialMT-46"/>
     <use x="289.013672" xlink:href="#ArialMT-41"/>
    </g>
   </g>
  </g>
  <g id="axes_5">
   <g id="patch_22">
    <path clip-path="url(#p8e3afaaa9f)" d="M 570.5 70.379483 
Q 540.072606 112.793425 524.135491 157.489145 
" style="fill:none;stroke:#f14130;stroke-linecap:round;stroke-width:4;"/>
    <path clip-path="url(#p8e3afaaa9f)" d="M 527.362745 154.393207 
L 524.135491 157.489145 
L 523.595094 153.049779 
" style="fill:none;stroke:#f14130;stroke-linecap:round;stroke-width:4;"/>
   </g>
   <g id="patch_23">
    <path clip-path="url(#p8e3afaaa9f)" d="M 570.5 70.379483 
Q 586.174718 120.169763 612.369024 159.736887 
" style="fill:none;stroke:#f14130;stroke-linecap:round;stroke-width:4;"/>
    <path clip-path="url(#p8e3afaaa9f)" d="M 611.828627 155.297521 
L 612.369024 159.736887 
L 608.493293 157.505586 
" style="fill:none;stroke:#f14130;stroke-linecap:round;stroke-width:4;"/>
   </g>
   <g id="patch_24">
    <path clip-path="url(#p8e3afaaa9f)" d="M 518.135135 175.109213 
Q 548.562529 132.69527 564.499644 87.999551 
" style="fill:none;stroke:#f14130;stroke-linecap:round;stroke-width:4;"/>
    <path clip-path="url(#p8e3afaaa9f)" d="M 561.27239 91.095488 
L 564.499644 87.999551 
L 565.040042 92.438917 
" style="fill:none;stroke:#f14130;stroke-linecap:round;stroke-width:4;"/>
   </g>
   <g id="patch_25">
    <path clip-path="url(#p8e3afaaa9f)" d="M 518.135135 175.109213 
Q 563.495752 182.366911 604.414633 177.57133 
" style="fill:none;stroke:#f14130;stroke-linecap:round;stroke-width:4;"/>
    <path clip-path="url(#p8e3afaaa9f)" d="M 600.209022 176.050528 
L 604.414633 177.57133 
L 600.674624 180.023338 
" style="fill:none;stroke:#f14130;stroke-linecap:round;stroke-width:4;"/>
   </g>
   <g id="patch_26">
    <path clip-path="url(#p8e3afaaa9f)" d="M 622.864865 175.109213 
Q 607.190147 125.318932 580.995841 85.751808 
" style="fill:none;stroke:#f14130;stroke-linecap:round;stroke-width:4;"/>
    <path clip-path="url(#p8e3afaaa9f)" d="M 581.536238 90.191174 
L 580.995841 85.751808 
L 584.871572 87.98311 
" style="fill:none;stroke:#f14130;stroke-linecap:round;stroke-width:4;"/>
   </g>
   <g id="patch_27">
    <path clip-path="url(#p8e3afaaa9f)" d="M 622.864865 175.109213 
Q 577.504248 167.851514 536.585367 172.647095 
" style="fill:none;stroke:#f14130;stroke-linecap:round;stroke-width:4;"/>
    <path clip-path="url(#p8e3afaaa9f)" d="M 540.790978 174.167897 
L 536.585367 172.647095 
L 540.325376 170.195088 
" style="fill:none;stroke:#f14130;stroke-linecap:round;stroke-width:4;"/>
   </g>
   <g id="PathCollection_5">
    <path clip-path="url(#p8e3afaaa9f)" d="M 570.5 84.521619 
C 574.250538 84.521619 577.847969 83.031514 580.5 80.379483 
C 583.152031 77.727452 584.642136 74.130021 584.642136 70.379483 
C 584.642136 66.628945 583.152031 63.031514 580.5 60.379483 
C 577.847969 57.727452 574.250538 56.237347 570.5 56.237347 
C 566.749462 56.237347 563.152031 57.727452 560.5 60.379483 
C 557.847969 63.031514 556.357864 66.628945 556.357864 70.379483 
C 556.357864 74.130021 557.847969 77.727452 560.5 80.379483 
C 563.152031 83.031514 566.749462 84.521619 570.5 84.521619 
z
" style="fill:#0000ff;stroke:#0000ff;"/>
    <path clip-path="url(#p8e3afaaa9f)" d="M 518.135135 189.251348 
C 521.885673 189.251348 525.483104 187.761244 528.135135 185.109213 
C 530.787166 182.457182 532.277271 178.859751 532.277271 175.109213 
C 532.277271 171.358674 530.787166 167.761244 528.135135 165.109213 
C 525.483104 162.457182 521.885673 160.967077 518.135135 160.967077 
C 514.384597 160.967077 510.787166 162.457182 508.135135 165.109213 
C 505.483104 167.761244 503.993 171.358674 503.993 175.109213 
C 503.993 178.859751 505.483104 182.457182 508.135135 185.109213 
C 510.787166 187.761244 514.384597 189.251348 518.135135 189.251348 
z
" style="fill:#0000ff;stroke:#0000ff;"/>
    <path clip-path="url(#p8e3afaaa9f)" d="M 622.864865 189.251348 
C 626.615403 189.251348 630.212834 187.761244 632.864865 185.109213 
C 635.516896 182.457182 637.007 178.859751 637.007 175.109213 
C 637.007 171.358674 635.516896 167.761244 632.864865 165.109213 
C 630.212834 162.457182 626.615403 160.967077 622.864865 160.967077 
C 619.114327 160.967077 615.516896 162.457182 612.864865 165.109213 
C 610.212834 167.761244 608.722729 171.358674 608.722729 175.109213 
C 608.722729 178.859751 610.212834 182.457182 612.864865 185.109213 
C 615.516896 187.761244 619.114327 189.251348 622.864865 189.251348 
z
" style="fill:#0000ff;stroke:#0000ff;"/>
   </g>
   <g id="text_17">
    <g clip-path="url(#p8e3afaaa9f)">
     <!-- 1 -->
     <g style="fill:#ffffff;" transform="translate(565.728125 74.518545)scale(0.15 -0.15)">
      <use xlink:href="#DejaVuSans-49"/>
     </g>
    </g>
   </g>
   <g id="text_18">
    <g clip-path="url(#p8e3afaaa9f)">
     <!-- 2 -->
     <g style="fill:#ffffff;" transform="translate(513.36326 179.248275)scale(0.15 -0.15)">
      <use xlink:href="#DejaVuSans-50"/>
     </g>
    </g>
   </g>
   <g id="text_19">
    <g clip-path="url(#p8e3afaaa9f)">
     <!-- 3 -->
     <g style="fill:#ffffff;" transform="translate(618.09299 179.248275)scale(0.15 -0.15)">
      <use xlink:href="#DejaVuSans-51"/>
     </g>
    </g>
   </g>
   <g id="text_20">
    <!-- Segment 3 -->
    <defs>
     <path d="M 4.203125 18.890625 
L 12.984375 20.0625 
Q 14.5 12.59375 18.140625 9.296875 
Q 21.78125 6 27 6 
Q 33.203125 6 37.46875 10.296875 
Q 41.75 14.59375 41.75 20.953125 
Q 41.75 27 37.796875 30.921875 
Q 33.84375 34.859375 27.734375 34.859375 
Q 25.25 34.859375 21.53125 33.890625 
L 22.515625 41.609375 
Q 23.390625 41.5 23.921875 41.5 
Q 29.546875 41.5 34.03125 44.421875 
Q 38.53125 47.359375 38.53125 53.46875 
Q 38.53125 58.296875 35.25 61.46875 
Q 31.984375 64.65625 26.8125 64.65625 
Q 21.6875 64.65625 18.265625 61.421875 
Q 14.84375 58.203125 13.875 51.765625 
L 5.078125 53.328125 
Q 6.6875 62.15625 12.390625 67.015625 
Q 18.109375 71.875 26.609375 71.875 
Q 32.46875 71.875 37.390625 69.359375 
Q 42.328125 66.84375 44.9375 62.5 
Q 47.5625 58.15625 47.5625 53.265625 
Q 47.5625 48.640625 45.0625 44.828125 
Q 42.578125 41.015625 37.703125 38.765625 
Q 44.046875 37.3125 47.5625 32.6875 
Q 51.078125 28.078125 51.078125 21.140625 
Q 51.078125 11.765625 44.234375 5.25 
Q 37.40625 -1.265625 26.953125 -1.265625 
Q 17.53125 -1.265625 11.296875 4.34375 
Q 5.078125 9.96875 4.203125 18.890625 
z
" id="ArialMT-51"/>
    </defs>
    <g transform="translate(541.483438 32.831625)scale(0.12 -0.12)">
     <use xlink:href="#ArialMT-83"/>
     <use x="66.699219" xlink:href="#ArialMT-101"/>
     <use x="122.314453" xlink:href="#ArialMT-103"/>
     <use x="177.929688" xlink:href="#ArialMT-109"/>
     <use x="261.230469" xlink:href="#ArialMT-101"/>
     <use x="316.845703" xlink:href="#ArialMT-110"/>
     <use x="372.460938" xlink:href="#ArialMT-116"/>
     <use x="400.244141" xlink:href="#ArialMT-32"/>
     <use x="428.027344" xlink:href="#ArialMT-51"/>
    </g>
    <!--  (true) -->
    <g transform="translate(554.499688 45.84)scale(0.12 -0.12)">
     <use xlink:href="#ArialMT-32"/>
     <use x="27.783203" xlink:href="#ArialMT-40"/>
     <use x="61.083984" xlink:href="#ArialMT-116"/>
     <use x="88.867188" xlink:href="#ArialMT-114"/>
     <use x="122.167969" xlink:href="#ArialMT-117"/>
     <use x="177.783203" xlink:href="#ArialMT-101"/>
     <use x="233.398438" xlink:href="#ArialMT-41"/>
    </g>
   </g>
  </g>
  <g id="axes_6">
   <g id="patch_28">
    <path clip-path="url(#p10dce04041)" d="M 570.5 254.730787 
Q 540.072606 297.14473 524.135491 341.840449 
" style="fill:none;stroke:#fdd0bc;stroke-linecap:round;stroke-width:4;"/>
    <path clip-path="url(#p10dce04041)" d="M 527.362745 338.744512 
L 524.135491 341.840449 
L 523.595094 337.401083 
" style="fill:none;stroke:#fdd0bc;stroke-linecap:round;stroke-width:4;"/>
   </g>
   <g id="patch_29">
    <path clip-path="url(#p10dce04041)" d="M 570.5 254.730787 
Q 586.174718 304.521068 612.369024 344.088192 
" style="fill:none;stroke:#fcb99f;stroke-linecap:round;stroke-width:4;"/>
    <path clip-path="url(#p10dce04041)" d="M 611.828627 339.648826 
L 612.369024 344.088192 
L 608.493293 341.85689 
" style="fill:none;stroke:#fcb99f;stroke-linecap:round;stroke-width:4;"/>
   </g>
   <g id="patch_30">
    <path clip-path="url(#p10dce04041)" d="M 518.135135 359.460517 
Q 548.562529 317.046575 564.499644 272.350855 
" style="fill:none;stroke:#fcbba1;stroke-linecap:round;stroke-width:4;"/>
    <path clip-path="url(#p10dce04041)" d="M 561.27239 275.446793 
L 564.499644 272.350855 
L 565.040042 276.790221 
" style="fill:none;stroke:#fcbba1;stroke-linecap:round;stroke-width:4;"/>
   </g>
   <g id="patch_31">
    <path clip-path="url(#p10dce04041)" d="M 518.135135 359.460517 
Q 563.495752 366.718216 604.414633 361.922635 
" style="fill:none;stroke:#fcb79c;stroke-linecap:round;stroke-width:4;"/>
    <path clip-path="url(#p10dce04041)" d="M 600.209022 360.401832 
L 604.414633 361.922635 
L 600.674624 364.374642 
" style="fill:none;stroke:#fcb79c;stroke-linecap:round;stroke-width:4;"/>
   </g>
   <g id="patch_32">
    <path clip-path="url(#p10dce04041)" d="M 622.864865 359.460517 
Q 607.190147 309.670237 580.995841 270.103113 
" style="fill:none;stroke:#f03f2e;stroke-linecap:round;stroke-width:4;"/>
    <path clip-path="url(#p10dce04041)" d="M 581.536238 274.542479 
L 580.995841 270.103113 
L 584.871572 272.334414 
" style="fill:none;stroke:#f03f2e;stroke-linecap:round;stroke-width:4;"/>
   </g>
   <g id="patch_33">
    <path clip-path="url(#p10dce04041)" d="M 622.864865 359.460517 
Q 577.504248 352.202818 536.585367 356.998399 
" style="fill:none;stroke:#f14331;stroke-linecap:round;stroke-width:4;"/>
    <path clip-path="url(#p10dce04041)" d="M 540.790978 358.519202 
L 536.585367 356.998399 
L 540.325376 354.546392 
" style="fill:none;stroke:#f14331;stroke-linecap:round;stroke-width:4;"/>
   </g>
   <g id="PathCollection_6">
    <path clip-path="url(#p10dce04041)" d="M 570.5 268.872923 
C 574.250538 268.872923 577.847969 267.382818 580.5 264.730787 
C 583.152031 262.078756 584.642136 258.481326 584.642136 254.730787 
C 584.642136 250.980249 583.152031 247.382818 580.5 244.730787 
C 577.847969 242.078756 574.250538 240.588652 570.5 240.588652 
C 566.749462 240.588652 563.152031 242.078756 560.5 244.730787 
C 557.847969 247.382818 556.357864 250.980249 556.357864 254.730787 
C 556.357864 258.481326 557.847969 262.078756 560.5 264.730787 
C 563.152031 267.382818 566.749462 268.872923 570.5 268.872923 
z
" style="fill:#0000ff;stroke:#0000ff;"/>
    <path clip-path="url(#p10dce04041)" d="M 518.135135 373.602653 
C 521.885673 373.602653 525.483104 372.112548 528.135135 369.460517 
C 530.787166 366.808486 532.277271 363.211055 532.277271 359.460517 
C 532.277271 355.709979 530.787166 352.112548 528.135135 349.460517 
C 525.483104 346.808486 521.885673 345.318381 518.135135 345.318381 
C 514.384597 345.318381 510.787166 346.808486 508.135135 349.460517 
C 505.483104 352.112548 503.993 355.709979 503.993 359.460517 
C 503.993 363.211055 505.483104 366.808486 508.135135 369.460517 
C 510.787166 372.112548 514.384597 373.602653 518.135135 373.602653 
z
" style="fill:#0000ff;stroke:#0000ff;"/>
    <path clip-path="url(#p10dce04041)" d="M 622.864865 373.602653 
C 626.615403 373.602653 630.212834 372.112548 632.864865 369.460517 
C 635.516896 366.808486 637.007 363.211055 637.007 359.460517 
C 637.007 355.709979 635.516896 352.112548 632.864865 349.460517 
C 630.212834 346.808486 626.615403 345.318381 622.864865 345.318381 
C 619.114327 345.318381 615.516896 346.808486 612.864865 349.460517 
C 610.212834 352.112548 608.722729 355.709979 608.722729 359.460517 
C 608.722729 363.211055 610.212834 366.808486 612.864865 369.460517 
C 615.516896 372.112548 619.114327 373.602653 622.864865 373.602653 
z
" style="fill:#0000ff;stroke:#0000ff;"/>
   </g>
   <g id="text_21">
    <g clip-path="url(#p10dce04041)">
     <!-- 1 -->
     <g style="fill:#ffffff;" transform="translate(565.728125 258.86985)scale(0.15 -0.15)">
      <use xlink:href="#DejaVuSans-49"/>
     </g>
    </g>
   </g>
   <g id="text_22">
    <g clip-path="url(#p10dce04041)">
     <!-- 2 -->
     <g style="fill:#ffffff;" transform="translate(513.36326 363.59958)scale(0.15 -0.15)">
      <use xlink:href="#DejaVuSans-50"/>
     </g>
    </g>
   </g>
   <g id="text_23">
    <g clip-path="url(#p10dce04041)">
     <!-- 3 -->
     <g style="fill:#ffffff;" transform="translate(618.09299 363.59958)scale(0.15 -0.15)">
      <use xlink:href="#DejaVuSans-51"/>
     </g>
    </g>
   </g>
   <g id="text_24">
    <!-- Segment 3 -->
    <g transform="translate(541.483438 217.182929)scale(0.12 -0.12)">
     <use xlink:href="#ArialMT-83"/>
     <use x="66.699219" xlink:href="#ArialMT-101"/>
     <use x="122.314453" xlink:href="#ArialMT-103"/>
     <use x="177.929688" xlink:href="#ArialMT-109"/>
     <use x="261.230469" xlink:href="#ArialMT-101"/>
     <use x="316.845703" xlink:href="#ArialMT-110"/>
     <use x="372.460938" xlink:href="#ArialMT-116"/>
     <use x="400.244141" xlink:href="#ArialMT-32"/>
     <use x="428.027344" xlink:href="#ArialMT-51"/>
    </g>
    <!--  (pred.) -->
    <g transform="translate(551.163125 230.191304)scale(0.12 -0.12)">
     <use xlink:href="#ArialMT-32"/>
     <use x="27.783203" xlink:href="#ArialMT-40"/>
     <use x="61.083984" xlink:href="#ArialMT-112"/>
     <use x="116.699219" xlink:href="#ArialMT-114"/>
     <use x="150" xlink:href="#ArialMT-101"/>
     <use x="205.615234" xlink:href="#ArialMT-100"/>
     <use x="261.230469" xlink:href="#ArialMT-46"/>
     <use x="289.013672" xlink:href="#ArialMT-41"/>
    </g>
   </g>
  </g>
 </g>
 <defs>
  <clipPath id="p40740c2aac">
   <rect height="141.808696" width="155" x="90" y="51.84"/>
  </clipPath>
  <clipPath id="p8919cf0c1b">
   <rect height="141.808696" width="155" x="90" y="236.191304"/>
  </clipPath>
  <clipPath id="p080e76e448">
   <rect height="141.808696" width="155" x="291.5" y="51.84"/>
  </clipPath>
  <clipPath id="p0a49d3a6a0">
   <rect height="141.808696" width="155" x="291.5" y="236.191304"/>
  </clipPath>
  <clipPath id="p8e3afaaa9f">
   <rect height="141.808696" width="155" x="493" y="51.84"/>
  </clipPath>
  <clipPath id="p10dce04041">
   <rect height="141.808696" width="155" x="493" y="236.191304"/>
  </clipPath>
 </defs>
</svg>
