<?xml version="1.0" encoding="utf-8" standalone="no"?>
<!DOCTYPE svg PUBLIC "-//W3C//DTD SVG 1.1//EN"
  "http://www.w3.org/Graphics/SVG/1.1/DTD/svg11.dtd">
<!-- Created with matplotlib (https://matplotlib.org/) -->
<svg height="368.304pt" version="1.1" viewBox="0 0 572.4 368.304" width="572.4pt" xmlns="http://www.w3.org/2000/svg" xmlns:xlink="http://www.w3.org/1999/xlink">
 <defs>
  <style type="text/css">
*{stroke-linecap:butt;stroke-linejoin:round;}
  </style>
 </defs>
 <g id="figure_1">
  <g id="patch_1">
   <path d="M 0 368.304 
L 572.4 368.304 
L 572.4 0 
L 0 0 
z
" style="fill:#ffffff;"/>
  </g>
  <g id="axes_1">
   <g id="patch_2">
    <path clip-path="url(#p7f5680cc18)" d="M 137.064865 158.213213 
Q 121.390147 108.422932 95.195841 68.855808 
" style="fill:none;stroke:#820711;stroke-linecap:round;stroke-width:4;"/>
    <path clip-path="url(#p7f5680cc18)" d="M 95.736238 73.295174 
L 95.195841 68.855808 
L 99.071572 71.08711 
" style="fill:none;stroke:#820711;stroke-linecap:round;stroke-width:4;"/>
   </g>
   <g id="patch_3">
    <path clip-path="url(#p7f5680cc18)" d="M 137.064865 158.213213 
Q 91.704248 150.955514 50.785367 155.751095 
" style="fill:none;stroke:#820711;stroke-linecap:round;stroke-width:4;"/>
    <path clip-path="url(#p7f5680cc18)" d="M 54.990978 157.271897 
L 50.785367 155.751095 
L 54.525376 153.299088 
" style="fill:none;stroke:#820711;stroke-linecap:round;stroke-width:4;"/>
   </g>
   <g id="PathCollection_1">
    <path clip-path="url(#p7f5680cc18)" d="M 84.7 67.625619 
C 88.450538 67.625619 92.047969 66.135514 94.7 63.483483 
C 97.352031 60.831452 98.842136 57.234021 98.842136 53.483483 
C 98.842136 49.732945 97.352031 46.135514 94.7 43.483483 
C 92.047969 40.831452 88.450538 39.341347 84.7 39.341347 
C 80.949462 39.341347 77.352031 40.831452 74.7 43.483483 
C 72.047969 46.135514 70.557864 49.732945 70.557864 53.483483 
C 70.557864 57.234021 72.047969 60.831452 74.7 63.483483 
C 77.352031 66.135514 80.949462 67.625619 84.7 67.625619 
z
" style="fill:#0000ff;stroke:#0000ff;"/>
    <path clip-path="url(#p7f5680cc18)" d="M 32.335135 172.355348 
C 36.085673 172.355348 39.683104 170.865244 42.335135 168.213213 
C 44.987166 165.561182 46.477271 161.963751 46.477271 158.213213 
C 46.477271 154.462674 44.987166 150.865244 42.335135 148.213213 
C 39.683104 145.561182 36.085673 144.071077 32.335135 144.071077 
C 28.584597 144.071077 24.987166 145.561182 22.335135 148.213213 
C 19.683104 150.865244 18.193 154.462674 18.193 158.213213 
C 18.193 161.963751 19.683104 165.561182 22.335135 168.213213 
C 24.987166 170.865244 28.584597 172.355348 32.335135 172.355348 
z
" style="fill:#0000ff;stroke:#0000ff;"/>
    <path clip-path="url(#p7f5680cc18)" d="M 137.064865 172.355348 
C 140.815403 172.355348 144.412834 170.865244 147.064865 168.213213 
C 149.716896 165.561182 151.207 161.963751 151.207 158.213213 
C 151.207 154.462674 149.716896 150.865244 147.064865 148.213213 
C 144.412834 145.561182 140.815403 144.071077 137.064865 144.071077 
C 133.314327 144.071077 129.716896 145.561182 127.064865 148.213213 
C 124.412834 150.865244 122.922729 154.462674 122.922729 158.213213 
C 122.922729 161.963751 124.412834 165.561182 127.064865 168.213213 
C 129.716896 170.865244 133.314327 172.355348 137.064865 172.355348 
z
" style="fill:#0000ff;stroke:#0000ff;"/>
   </g>
   <g id="text_1">
    <g clip-path="url(#p7f5680cc18)">
     <!-- 1 -->
     <defs>
      <path d="M 12.40625 8.296875 
L 28.515625 8.296875 
L 28.515625 63.921875 
L 10.984375 60.40625 
L 10.984375 69.390625 
L 28.421875 72.90625 
L 38.28125 72.90625 
L 38.28125 8.296875 
L 54.390625 8.296875 
L 54.390625 0 
L 12.40625 0 
z
" id="DejaVuSans-49"/>
     </defs>
     <g style="fill:#ffffff;" transform="translate(79.928125 57.622545)scale(0.15 -0.15)">
      <use xlink:href="#DejaVuSans-49"/>
     </g>
    </g>
   </g>
   <g id="text_2">
    <g clip-path="url(#p7f5680cc18)">
     <!-- 2 -->
     <defs>
      <path d="M 19.1875 8.296875 
L 53.609375 8.296875 
L 53.609375 0 
L 7.328125 0 
L 7.328125 8.296875 
Q 12.9375 14.109375 22.625 23.890625 
Q 32.328125 33.6875 34.8125 36.53125 
Q 39.546875 41.84375 41.421875 45.53125 
Q 43.3125 49.21875 43.3125 52.78125 
Q 43.3125 58.59375 39.234375 62.25 
Q 35.15625 65.921875 28.609375 65.921875 
Q 23.96875 65.921875 18.8125 64.3125 
Q 13.671875 62.703125 7.8125 59.421875 
L 7.8125 69.390625 
Q 13.765625 71.78125 18.9375 73 
Q 24.125 74.21875 28.421875 74.21875 
Q 39.75 74.21875 46.484375 68.546875 
Q 53.21875 62.890625 53.21875 53.421875 
Q 53.21875 48.921875 51.53125 44.890625 
Q 49.859375 40.875 45.40625 35.40625 
Q 44.1875 33.984375 37.640625 27.21875 
Q 31.109375 20.453125 19.1875 8.296875 
z
" id="DejaVuSans-50"/>
     </defs>
     <g style="fill:#ffffff;" transform="translate(27.56326 162.352275)scale(0.15 -0.15)">
      <use xlink:href="#DejaVuSans-50"/>
     </g>
    </g>
   </g>
   <g id="text_3">
    <g clip-path="url(#p7f5680cc18)">
     <!-- 3 -->
     <defs>
      <path d="M 40.578125 39.3125 
Q 47.65625 37.796875 51.625 33 
Q 55.609375 28.21875 55.609375 21.1875 
Q 55.609375 10.40625 48.1875 4.484375 
Q 40.765625 -1.421875 27.09375 -1.421875 
Q 22.515625 -1.421875 17.65625 -0.515625 
Q 12.796875 0.390625 7.625 2.203125 
L 7.625 11.71875 
Q 11.71875 9.328125 16.59375 8.109375 
Q 21.484375 6.890625 26.8125 6.890625 
Q 36.078125 6.890625 40.9375 10.546875 
Q 45.796875 14.203125 45.796875 21.1875 
Q 45.796875 27.640625 41.28125 31.265625 
Q 36.765625 34.90625 28.71875 34.90625 
L 20.21875 34.90625 
L 20.21875 43.015625 
L 29.109375 43.015625 
Q 36.375 43.015625 40.234375 45.921875 
Q 44.09375 48.828125 44.09375 54.296875 
Q 44.09375 59.90625 40.109375 62.90625 
Q 36.140625 65.921875 28.71875 65.921875 
Q 24.65625 65.921875 20.015625 65.03125 
Q 15.375 64.15625 9.8125 62.3125 
L 9.8125 71.09375 
Q 15.4375 72.65625 20.34375 73.4375 
Q 25.25 74.21875 29.59375 74.21875 
Q 40.828125 74.21875 47.359375 69.109375 
Q 53.90625 64.015625 53.90625 55.328125 
Q 53.90625 49.265625 50.4375 45.09375 
Q 46.96875 40.921875 40.578125 39.3125 
z
" id="DejaVuSans-51"/>
     </defs>
     <g style="fill:#ffffff;" transform="translate(132.29299 162.352275)scale(0.15 -0.15)">
      <use xlink:href="#DejaVuSans-51"/>
     </g>
    </g>
   </g>
   <g id="text_4">
    <!-- Segment 1 -->
    <defs>
     <path d="M 4.5 23 
L 13.421875 23.78125 
Q 14.0625 18.40625 16.375 14.96875 
Q 18.703125 11.53125 23.578125 9.40625 
Q 28.46875 7.28125 34.578125 7.28125 
Q 39.984375 7.28125 44.140625 8.890625 
Q 48.296875 10.5 50.3125 13.296875 
Q 52.34375 16.109375 52.34375 19.4375 
Q 52.34375 22.796875 50.390625 25.3125 
Q 48.4375 27.828125 43.953125 29.546875 
Q 41.0625 30.671875 31.203125 33.03125 
Q 21.34375 35.40625 17.390625 37.5 
Q 12.25 40.1875 9.734375 44.15625 
Q 7.234375 48.140625 7.234375 53.078125 
Q 7.234375 58.5 10.296875 63.203125 
Q 13.375 67.921875 19.28125 70.359375 
Q 25.203125 72.796875 32.421875 72.796875 
Q 40.375 72.796875 46.453125 70.234375 
Q 52.546875 67.671875 55.8125 62.6875 
Q 59.078125 57.71875 59.328125 51.421875 
L 50.25 50.734375 
Q 49.515625 57.515625 45.28125 60.984375 
Q 41.0625 64.453125 32.8125 64.453125 
Q 24.21875 64.453125 20.28125 61.296875 
Q 16.359375 58.15625 16.359375 53.71875 
Q 16.359375 49.859375 19.140625 47.359375 
Q 21.875 44.875 33.421875 42.265625 
Q 44.96875 39.65625 49.265625 37.703125 
Q 55.515625 34.8125 58.484375 30.390625 
Q 61.46875 25.984375 61.46875 20.21875 
Q 61.46875 14.5 58.203125 9.4375 
Q 54.9375 4.390625 48.796875 1.578125 
Q 42.671875 -1.21875 35.015625 -1.21875 
Q 25.296875 -1.21875 18.71875 1.609375 
Q 12.15625 4.4375 8.421875 10.125 
Q 4.6875 15.828125 4.5 23 
z
" id="ArialMT-83"/>
     <path d="M 42.09375 16.703125 
L 51.171875 15.578125 
Q 49.03125 7.625 43.21875 3.21875 
Q 37.40625 -1.171875 28.375 -1.171875 
Q 17 -1.171875 10.328125 5.828125 
Q 3.65625 12.84375 3.65625 25.484375 
Q 3.65625 38.578125 10.390625 45.796875 
Q 17.140625 53.03125 27.875 53.03125 
Q 38.28125 53.03125 44.875 45.953125 
Q 51.46875 38.875 51.46875 26.03125 
Q 51.46875 25.25 51.421875 23.6875 
L 12.75 23.6875 
Q 13.234375 15.140625 17.578125 10.59375 
Q 21.921875 6.0625 28.421875 6.0625 
Q 33.25 6.0625 36.671875 8.59375 
Q 40.09375 11.140625 42.09375 16.703125 
z
M 13.234375 30.90625 
L 42.1875 30.90625 
Q 41.609375 37.453125 38.875 40.71875 
Q 34.671875 45.796875 27.984375 45.796875 
Q 21.921875 45.796875 17.796875 41.75 
Q 13.671875 37.703125 13.234375 30.90625 
z
" id="ArialMT-101"/>
     <path d="M 4.984375 -4.296875 
L 13.53125 -5.5625 
Q 14.0625 -9.515625 16.5 -11.328125 
Q 19.78125 -13.765625 25.4375 -13.765625 
Q 31.546875 -13.765625 34.859375 -11.328125 
Q 38.1875 -8.890625 39.359375 -4.5 
Q 40.046875 -1.8125 39.984375 6.78125 
Q 34.234375 0 25.640625 0 
Q 14.9375 0 9.078125 7.71875 
Q 3.21875 15.4375 3.21875 26.21875 
Q 3.21875 33.640625 5.90625 39.90625 
Q 8.59375 46.1875 13.6875 49.609375 
Q 18.796875 53.03125 25.6875 53.03125 
Q 34.859375 53.03125 40.828125 45.609375 
L 40.828125 51.859375 
L 48.921875 51.859375 
L 48.921875 7.03125 
Q 48.921875 -5.078125 46.453125 -10.125 
Q 44 -15.1875 38.640625 -18.109375 
Q 33.296875 -21.046875 25.484375 -21.046875 
Q 16.21875 -21.046875 10.5 -16.875 
Q 4.78125 -12.703125 4.984375 -4.296875 
z
M 12.25 26.859375 
Q 12.25 16.65625 16.296875 11.96875 
Q 20.359375 7.28125 26.46875 7.28125 
Q 32.515625 7.28125 36.609375 11.9375 
Q 40.71875 16.609375 40.71875 26.5625 
Q 40.71875 36.078125 36.5 40.90625 
Q 32.28125 45.75 26.3125 45.75 
Q 20.453125 45.75 16.34375 40.984375 
Q 12.25 36.234375 12.25 26.859375 
z
" id="ArialMT-103"/>
     <path d="M 6.59375 0 
L 6.59375 51.859375 
L 14.453125 51.859375 
L 14.453125 44.578125 
Q 16.890625 48.390625 20.9375 50.703125 
Q 25 53.03125 30.171875 53.03125 
Q 35.9375 53.03125 39.625 50.640625 
Q 43.3125 48.25 44.828125 43.953125 
Q 50.984375 53.03125 60.84375 53.03125 
Q 68.5625 53.03125 72.703125 48.75 
Q 76.859375 44.484375 76.859375 35.59375 
L 76.859375 0 
L 68.109375 0 
L 68.109375 32.671875 
Q 68.109375 37.9375 67.25 40.25 
Q 66.40625 42.578125 64.15625 43.984375 
Q 61.921875 45.40625 58.890625 45.40625 
Q 53.421875 45.40625 49.796875 41.765625 
Q 46.1875 38.140625 46.1875 30.125 
L 46.1875 0 
L 37.40625 0 
L 37.40625 33.6875 
Q 37.40625 39.546875 35.25 42.46875 
Q 33.109375 45.40625 28.21875 45.40625 
Q 24.515625 45.40625 21.359375 43.453125 
Q 18.21875 41.5 16.796875 37.734375 
Q 15.375 33.984375 15.375 26.90625 
L 15.375 0 
z
" id="ArialMT-109"/>
     <path d="M 6.59375 0 
L 6.59375 51.859375 
L 14.5 51.859375 
L 14.5 44.484375 
Q 20.21875 53.03125 31 53.03125 
Q 35.6875 53.03125 39.625 51.34375 
Q 43.5625 49.65625 45.515625 46.921875 
Q 47.46875 44.1875 48.25 40.4375 
Q 48.734375 37.984375 48.734375 31.890625 
L 48.734375 0 
L 39.9375 0 
L 39.9375 31.546875 
Q 39.9375 36.921875 38.90625 39.578125 
Q 37.890625 42.234375 35.28125 43.8125 
Q 32.671875 45.40625 29.15625 45.40625 
Q 23.53125 45.40625 19.453125 41.84375 
Q 15.375 38.28125 15.375 28.328125 
L 15.375 0 
z
" id="ArialMT-110"/>
     <path d="M 25.78125 7.859375 
L 27.046875 0.09375 
Q 23.34375 -0.6875 20.40625 -0.6875 
Q 15.625 -0.6875 12.984375 0.828125 
Q 10.359375 2.34375 9.28125 4.8125 
Q 8.203125 7.28125 8.203125 15.1875 
L 8.203125 45.015625 
L 1.765625 45.015625 
L 1.765625 51.859375 
L 8.203125 51.859375 
L 8.203125 64.703125 
L 16.9375 69.96875 
L 16.9375 51.859375 
L 25.78125 51.859375 
L 25.78125 45.015625 
L 16.9375 45.015625 
L 16.9375 14.703125 
Q 16.9375 10.9375 17.40625 9.859375 
Q 17.875 8.796875 18.921875 8.15625 
Q 19.96875 7.515625 21.921875 7.515625 
Q 23.390625 7.515625 25.78125 7.859375 
z
" id="ArialMT-116"/>
     <path id="ArialMT-32"/>
     <path d="M 37.25 0 
L 28.46875 0 
L 28.46875 56 
Q 25.296875 52.984375 20.140625 49.953125 
Q 14.984375 46.921875 10.890625 45.40625 
L 10.890625 53.90625 
Q 18.265625 57.375 23.78125 62.296875 
Q 29.296875 67.234375 31.59375 71.875 
L 37.25 71.875 
z
" id="ArialMT-49"/>
    </defs>
    <g transform="translate(55.683438 15.935625)scale(0.12 -0.12)">
     <use xlink:href="#ArialMT-83"/>
     <use x="66.699219" xlink:href="#ArialMT-101"/>
     <use x="122.314453" xlink:href="#ArialMT-103"/>
     <use x="177.929688" xlink:href="#ArialMT-109"/>
     <use x="261.230469" xlink:href="#ArialMT-101"/>
     <use x="316.845703" xlink:href="#ArialMT-110"/>
     <use x="372.460938" xlink:href="#ArialMT-116"/>
     <use x="400.244141" xlink:href="#ArialMT-32"/>
     <use x="428.027344" xlink:href="#ArialMT-49"/>
    </g>
    <!--  (true) -->
    <defs>
     <path d="M 23.390625 -21.046875 
Q 16.109375 -11.859375 11.078125 0.4375 
Q 6.0625 12.75 6.0625 25.921875 
Q 6.0625 37.546875 9.8125 48.1875 
Q 14.203125 60.546875 23.390625 72.796875 
L 29.6875 72.796875 
Q 23.78125 62.640625 21.875 58.296875 
Q 18.890625 51.5625 17.1875 44.234375 
Q 15.09375 35.109375 15.09375 25.875 
Q 15.09375 2.390625 29.6875 -21.046875 
z
" id="ArialMT-40"/>
     <path d="M 6.5 0 
L 6.5 51.859375 
L 14.40625 51.859375 
L 14.40625 44 
Q 17.4375 49.515625 20 51.265625 
Q 22.5625 53.03125 25.640625 53.03125 
Q 30.078125 53.03125 34.671875 50.203125 
L 31.640625 42.046875 
Q 28.421875 43.953125 25.203125 43.953125 
Q 22.3125 43.953125 20.015625 42.21875 
Q 17.71875 40.484375 16.75 37.40625 
Q 15.28125 32.71875 15.28125 27.15625 
L 15.28125 0 
z
" id="ArialMT-114"/>
     <path d="M 40.578125 0 
L 40.578125 7.625 
Q 34.515625 -1.171875 24.125 -1.171875 
Q 19.53125 -1.171875 15.546875 0.578125 
Q 11.578125 2.34375 9.640625 5 
Q 7.71875 7.671875 6.9375 11.53125 
Q 6.390625 14.109375 6.390625 19.734375 
L 6.390625 51.859375 
L 15.1875 51.859375 
L 15.1875 23.09375 
Q 15.1875 16.21875 15.71875 13.8125 
Q 16.546875 10.359375 19.234375 8.375 
Q 21.921875 6.390625 25.875 6.390625 
Q 29.828125 6.390625 33.296875 8.421875 
Q 36.765625 10.453125 38.203125 13.9375 
Q 39.65625 17.4375 39.65625 24.078125 
L 39.65625 51.859375 
L 48.4375 51.859375 
L 48.4375 0 
z
" id="ArialMT-117"/>
     <path d="M 12.359375 -21.046875 
L 6.0625 -21.046875 
Q 20.65625 2.390625 20.65625 25.875 
Q 20.65625 35.0625 18.5625 44.09375 
Q 16.890625 51.421875 13.921875 58.15625 
Q 12.015625 62.546875 6.0625 72.796875 
L 12.359375 72.796875 
Q 21.53125 60.546875 25.921875 48.1875 
Q 29.6875 37.546875 29.6875 25.921875 
Q 29.6875 12.75 24.625 0.4375 
Q 19.578125 -11.859375 12.359375 -21.046875 
z
" id="ArialMT-41"/>
    </defs>
    <g transform="translate(68.699688 28.944)scale(0.12 -0.12)">
     <use xlink:href="#ArialMT-32"/>
     <use x="27.783203" xlink:href="#ArialMT-40"/>
     <use x="61.083984" xlink:href="#ArialMT-116"/>
     <use x="88.867188" xlink:href="#ArialMT-114"/>
     <use x="122.167969" xlink:href="#ArialMT-117"/>
     <use x="177.783203" xlink:href="#ArialMT-101"/>
     <use x="233.398438" xlink:href="#ArialMT-41"/>
    </g>
   </g>
  </g>
  <g id="axes_2">
   <g id="patch_4">
    <path clip-path="url(#p974c153aa5)" d="M 84.7 237.834787 
Q 54.272606 280.24873 38.335491 324.944449 
" style="fill:none;stroke:#fff5f0;stroke-linecap:round;stroke-width:4;"/>
    <path clip-path="url(#p974c153aa5)" d="M 41.562745 321.848512 
L 38.335491 324.944449 
L 37.795094 320.505083 
" style="fill:none;stroke:#fff5f0;stroke-linecap:round;stroke-width:4;"/>
   </g>
   <g id="patch_5">
    <path clip-path="url(#p974c153aa5)" d="M 84.7 237.834787 
Q 100.374718 287.625068 126.569024 327.192192 
" style="fill:none;stroke:#fff5f0;stroke-linecap:round;stroke-width:4;"/>
    <path clip-path="url(#p974c153aa5)" d="M 126.028627 322.752826 
L 126.569024 327.192192 
L 122.693293 324.96089 
" style="fill:none;stroke:#fff5f0;stroke-linecap:round;stroke-width:4;"/>
   </g>
   <g id="patch_6">
    <path clip-path="url(#p974c153aa5)" d="M 32.335135 342.564517 
Q 62.762529 300.150575 78.699644 255.454855 
" style="fill:none;stroke:#fff5f0;stroke-linecap:round;stroke-width:4;"/>
    <path clip-path="url(#p974c153aa5)" d="M 75.47239 258.550793 
L 78.699644 255.454855 
L 79.240042 259.894221 
" style="fill:none;stroke:#fff5f0;stroke-linecap:round;stroke-width:4;"/>
   </g>
   <g id="patch_7">
    <path clip-path="url(#p974c153aa5)" d="M 32.335135 342.564517 
Q 77.695752 349.822216 118.614633 345.026635 
" style="fill:none;stroke:#fff5f0;stroke-linecap:round;stroke-width:4;"/>
    <path clip-path="url(#p974c153aa5)" d="M 114.409022 343.505832 
L 118.614633 345.026635 
L 114.874624 347.478642 
" style="fill:none;stroke:#fff5f0;stroke-linecap:round;stroke-width:4;"/>
   </g>
   <g id="patch_8">
    <path clip-path="url(#p974c153aa5)" d="M 137.064865 342.564517 
Q 121.390147 292.774237 95.195841 253.207113 
" style="fill:none;stroke:#820711;stroke-linecap:round;stroke-width:4;"/>
    <path clip-path="url(#p974c153aa5)" d="M 95.736238 257.646479 
L 95.195841 253.207113 
L 99.071572 255.438414 
" style="fill:none;stroke:#820711;stroke-linecap:round;stroke-width:4;"/>
   </g>
   <g id="patch_9">
    <path clip-path="url(#p974c153aa5)" d="M 137.064865 342.564517 
Q 91.704248 335.306818 50.785367 340.102399 
" style="fill:none;stroke:#820711;stroke-linecap:round;stroke-width:4;"/>
    <path clip-path="url(#p974c153aa5)" d="M 54.990978 341.623202 
L 50.785367 340.102399 
L 54.525376 337.650392 
" style="fill:none;stroke:#820711;stroke-linecap:round;stroke-width:4;"/>
   </g>
   <g id="PathCollection_2">
    <path clip-path="url(#p974c153aa5)" d="M 84.7 251.976923 
C 88.450538 251.976923 92.047969 250.486818 94.7 247.834787 
C 97.352031 245.182756 98.842136 241.585326 98.842136 237.834787 
C 98.842136 234.084249 97.352031 230.486818 94.7 227.834787 
C 92.047969 225.182756 88.450538 223.692652 84.7 223.692652 
C 80.949462 223.692652 77.352031 225.182756 74.7 227.834787 
C 72.047969 230.486818 70.557864 234.084249 70.557864 237.834787 
C 70.557864 241.585326 72.047969 245.182756 74.7 247.834787 
C 77.352031 250.486818 80.949462 251.976923 84.7 251.976923 
z
" style="fill:#0000ff;stroke:#0000ff;"/>
    <path clip-path="url(#p974c153aa5)" d="M 32.335135 356.706653 
C 36.085673 356.706653 39.683104 355.216548 42.335135 352.564517 
C 44.987166 349.912486 46.477271 346.315055 46.477271 342.564517 
C 46.477271 338.813979 44.987166 335.216548 42.335135 332.564517 
C 39.683104 329.912486 36.085673 328.422381 32.335135 328.422381 
C 28.584597 328.422381 24.987166 329.912486 22.335135 332.564517 
C 19.683104 335.216548 18.193 338.813979 18.193 342.564517 
C 18.193 346.315055 19.683104 349.912486 22.335135 352.564517 
C 24.987166 355.216548 28.584597 356.706653 32.335135 356.706653 
z
" style="fill:#0000ff;stroke:#0000ff;"/>
    <path clip-path="url(#p974c153aa5)" d="M 137.064865 356.706653 
C 140.815403 356.706653 144.412834 355.216548 147.064865 352.564517 
C 149.716896 349.912486 151.207 346.315055 151.207 342.564517 
C 151.207 338.813979 149.716896 335.216548 147.064865 332.564517 
C 144.412834 329.912486 140.815403 328.422381 137.064865 328.422381 
C 133.314327 328.422381 129.716896 329.912486 127.064865 332.564517 
C 124.412834 335.216548 122.922729 338.813979 122.922729 342.564517 
C 122.922729 346.315055 124.412834 349.912486 127.064865 352.564517 
C 129.716896 355.216548 133.314327 356.706653 137.064865 356.706653 
z
" style="fill:#0000ff;stroke:#0000ff;"/>
   </g>
   <g id="text_5">
    <g clip-path="url(#p974c153aa5)">
     <!-- 1 -->
     <g style="fill:#ffffff;" transform="translate(79.928125 241.97385)scale(0.15 -0.15)">
      <use xlink:href="#DejaVuSans-49"/>
     </g>
    </g>
   </g>
   <g id="text_6">
    <g clip-path="url(#p974c153aa5)">
     <!-- 2 -->
     <g style="fill:#ffffff;" transform="translate(27.56326 346.70358)scale(0.15 -0.15)">
      <use xlink:href="#DejaVuSans-50"/>
     </g>
    </g>
   </g>
   <g id="text_7">
    <g clip-path="url(#p974c153aa5)">
     <!-- 3 -->
     <g style="fill:#ffffff;" transform="translate(132.29299 346.70358)scale(0.15 -0.15)">
      <use xlink:href="#DejaVuSans-51"/>
     </g>
    </g>
   </g>
   <g id="text_8">
    <!-- Segment 1 -->
    <g transform="translate(55.683438 200.286929)scale(0.12 -0.12)">
     <use xlink:href="#ArialMT-83"/>
     <use x="66.699219" xlink:href="#ArialMT-101"/>
     <use x="122.314453" xlink:href="#ArialMT-103"/>
     <use x="177.929688" xlink:href="#ArialMT-109"/>
     <use x="261.230469" xlink:href="#ArialMT-101"/>
     <use x="316.845703" xlink:href="#ArialMT-110"/>
     <use x="372.460938" xlink:href="#ArialMT-116"/>
     <use x="400.244141" xlink:href="#ArialMT-32"/>
     <use x="428.027344" xlink:href="#ArialMT-49"/>
    </g>
    <!--  (pred.) -->
    <defs>
     <path d="M 6.59375 -19.875 
L 6.59375 51.859375 
L 14.59375 51.859375 
L 14.59375 45.125 
Q 17.4375 49.078125 21 51.046875 
Q 24.5625 53.03125 29.640625 53.03125 
Q 36.28125 53.03125 41.359375 49.609375 
Q 46.4375 46.1875 49.015625 39.953125 
Q 51.609375 33.734375 51.609375 26.3125 
Q 51.609375 18.359375 48.75 11.984375 
Q 45.90625 5.609375 40.453125 2.21875 
Q 35.015625 -1.171875 29 -1.171875 
Q 24.609375 -1.171875 21.109375 0.6875 
Q 17.625 2.546875 15.375 5.375 
L 15.375 -19.875 
z
M 14.546875 25.640625 
Q 14.546875 15.625 18.59375 10.84375 
Q 22.65625 6.0625 28.421875 6.0625 
Q 34.28125 6.0625 38.453125 11.015625 
Q 42.625 15.96875 42.625 26.375 
Q 42.625 36.28125 38.546875 41.203125 
Q 34.46875 46.140625 28.8125 46.140625 
Q 23.1875 46.140625 18.859375 40.890625 
Q 14.546875 35.640625 14.546875 25.640625 
z
" id="ArialMT-112"/>
     <path d="M 40.234375 0 
L 40.234375 6.546875 
Q 35.296875 -1.171875 25.734375 -1.171875 
Q 19.53125 -1.171875 14.328125 2.25 
Q 9.125 5.671875 6.265625 11.796875 
Q 3.421875 17.921875 3.421875 25.875 
Q 3.421875 33.640625 6 39.96875 
Q 8.59375 46.296875 13.765625 49.65625 
Q 18.953125 53.03125 25.34375 53.03125 
Q 30.03125 53.03125 33.6875 51.046875 
Q 37.359375 49.078125 39.65625 45.90625 
L 39.65625 71.578125 
L 48.390625 71.578125 
L 48.390625 0 
z
M 12.453125 25.875 
Q 12.453125 15.921875 16.640625 10.984375 
Q 20.84375 6.0625 26.5625 6.0625 
Q 32.328125 6.0625 36.34375 10.765625 
Q 40.375 15.484375 40.375 25.140625 
Q 40.375 35.796875 36.265625 40.765625 
Q 32.171875 45.75 26.171875 45.75 
Q 20.3125 45.75 16.375 40.96875 
Q 12.453125 36.1875 12.453125 25.875 
z
" id="ArialMT-100"/>
     <path d="M 9.078125 0 
L 9.078125 10.015625 
L 19.09375 10.015625 
L 19.09375 0 
z
" id="ArialMT-46"/>
    </defs>
    <g transform="translate(65.363125 213.295304)scale(0.12 -0.12)">
     <use xlink:href="#ArialMT-32"/>
     <use x="27.783203" xlink:href="#ArialMT-40"/>
     <use x="61.083984" xlink:href="#ArialMT-112"/>
     <use x="116.699219" xlink:href="#ArialMT-114"/>
     <use x="150" xlink:href="#ArialMT-101"/>
     <use x="205.615234" xlink:href="#ArialMT-100"/>
     <use x="261.230469" xlink:href="#ArialMT-46"/>
     <use x="289.013672" xlink:href="#ArialMT-41"/>
    </g>
   </g>
  </g>
  <g id="axes_3">
   <g id="patch_10">
    <path clip-path="url(#p5156b00e63)" d="M 286.2 53.483483 
Q 255.772606 95.897425 239.835491 140.593145 
" style="fill:none;stroke:#820711;stroke-linecap:round;stroke-width:4;"/>
    <path clip-path="url(#p5156b00e63)" d="M 243.062745 137.497207 
L 239.835491 140.593145 
L 239.295094 136.153779 
" style="fill:none;stroke:#820711;stroke-linecap:round;stroke-width:4;"/>
   </g>
   <g id="patch_11">
    <path clip-path="url(#p5156b00e63)" d="M 286.2 53.483483 
Q 301.874718 103.273763 328.069024 142.840887 
" style="fill:none;stroke:#820711;stroke-linecap:round;stroke-width:4;"/>
    <path clip-path="url(#p5156b00e63)" d="M 327.528627 138.401521 
L 328.069024 142.840887 
L 324.193293 140.609586 
" style="fill:none;stroke:#820711;stroke-linecap:round;stroke-width:4;"/>
   </g>
   <g id="patch_12">
    <path clip-path="url(#p5156b00e63)" d="M 233.835135 158.213213 
Q 264.262529 115.79927 280.199644 71.103551 
" style="fill:none;stroke:#820711;stroke-linecap:round;stroke-width:4;"/>
    <path clip-path="url(#p5156b00e63)" d="M 276.97239 74.199488 
L 280.199644 71.103551 
L 280.740042 75.542917 
" style="fill:none;stroke:#820711;stroke-linecap:round;stroke-width:4;"/>
   </g>
   <g id="patch_13">
    <path clip-path="url(#p5156b00e63)" d="M 233.835135 158.213213 
Q 279.195752 165.470911 320.114633 160.67533 
" style="fill:none;stroke:#820711;stroke-linecap:round;stroke-width:4;"/>
    <path clip-path="url(#p5156b00e63)" d="M 315.909022 159.154528 
L 320.114633 160.67533 
L 316.374624 163.127338 
" style="fill:none;stroke:#820711;stroke-linecap:round;stroke-width:4;"/>
   </g>
   <g id="patch_14">
    <path clip-path="url(#p5156b00e63)" d="M 338.564865 158.213213 
Q 322.890147 108.422932 296.695841 68.855808 
" style="fill:none;stroke:#820711;stroke-linecap:round;stroke-width:4;"/>
    <path clip-path="url(#p5156b00e63)" d="M 297.236238 73.295174 
L 296.695841 68.855808 
L 300.571572 71.08711 
" style="fill:none;stroke:#820711;stroke-linecap:round;stroke-width:4;"/>
   </g>
   <g id="patch_15">
    <path clip-path="url(#p5156b00e63)" d="M 338.564865 158.213213 
Q 293.204248 150.955514 252.285367 155.751095 
" style="fill:none;stroke:#820711;stroke-linecap:round;stroke-width:4;"/>
    <path clip-path="url(#p5156b00e63)" d="M 256.490978 157.271897 
L 252.285367 155.751095 
L 256.025376 153.299088 
" style="fill:none;stroke:#820711;stroke-linecap:round;stroke-width:4;"/>
   </g>
   <g id="PathCollection_3">
    <path clip-path="url(#p5156b00e63)" d="M 286.2 67.625619 
C 289.950538 67.625619 293.547969 66.135514 296.2 63.483483 
C 298.852031 60.831452 300.342136 57.234021 300.342136 53.483483 
C 300.342136 49.732945 298.852031 46.135514 296.2 43.483483 
C 293.547969 40.831452 289.950538 39.341347 286.2 39.341347 
C 282.449462 39.341347 278.852031 40.831452 276.2 43.483483 
C 273.547969 46.135514 272.057864 49.732945 272.057864 53.483483 
C 272.057864 57.234021 273.547969 60.831452 276.2 63.483483 
C 278.852031 66.135514 282.449462 67.625619 286.2 67.625619 
z
" style="fill:#0000ff;stroke:#0000ff;"/>
    <path clip-path="url(#p5156b00e63)" d="M 233.835135 172.355348 
C 237.585673 172.355348 241.183104 170.865244 243.835135 168.213213 
C 246.487166 165.561182 247.977271 161.963751 247.977271 158.213213 
C 247.977271 154.462674 246.487166 150.865244 243.835135 148.213213 
C 241.183104 145.561182 237.585673 144.071077 233.835135 144.071077 
C 230.084597 144.071077 226.487166 145.561182 223.835135 148.213213 
C 221.183104 150.865244 219.693 154.462674 219.693 158.213213 
C 219.693 161.963751 221.183104 165.561182 223.835135 168.213213 
C 226.487166 170.865244 230.084597 172.355348 233.835135 172.355348 
z
" style="fill:#0000ff;stroke:#0000ff;"/>
    <path clip-path="url(#p5156b00e63)" d="M 338.564865 172.355348 
C 342.315403 172.355348 345.912834 170.865244 348.564865 168.213213 
C 351.216896 165.561182 352.707 161.963751 352.707 158.213213 
C 352.707 154.462674 351.216896 150.865244 348.564865 148.213213 
C 345.912834 145.561182 342.315403 144.071077 338.564865 144.071077 
C 334.814327 144.071077 331.216896 145.561182 328.564865 148.213213 
C 325.912834 150.865244 324.422729 154.462674 324.422729 158.213213 
C 324.422729 161.963751 325.912834 165.561182 328.564865 168.213213 
C 331.216896 170.865244 334.814327 172.355348 338.564865 172.355348 
z
" style="fill:#0000ff;stroke:#0000ff;"/>
   </g>
   <g id="text_9">
    <g clip-path="url(#p5156b00e63)">
     <!-- 1 -->
     <g style="fill:#ffffff;" transform="translate(281.428125 57.622545)scale(0.15 -0.15)">
      <use xlink:href="#DejaVuSans-49"/>
     </g>
    </g>
   </g>
   <g id="text_10">
    <g clip-path="url(#p5156b00e63)">
     <!-- 2 -->
     <g style="fill:#ffffff;" transform="translate(229.06326 162.352275)scale(0.15 -0.15)">
      <use xlink:href="#DejaVuSans-50"/>
     </g>
    </g>
   </g>
   <g id="text_11">
    <g clip-path="url(#p5156b00e63)">
     <!-- 3 -->
     <g style="fill:#ffffff;" transform="translate(333.79299 162.352275)scale(0.15 -0.15)">
      <use xlink:href="#DejaVuSans-51"/>
     </g>
    </g>
   </g>
   <g id="text_12">
    <!-- Segment 2 -->
    <defs>
     <path d="M 50.34375 8.453125 
L 50.34375 0 
L 3.03125 0 
Q 2.9375 3.171875 4.046875 6.109375 
Q 5.859375 10.9375 9.828125 15.625 
Q 13.8125 20.3125 21.34375 26.46875 
Q 33.015625 36.03125 37.109375 41.625 
Q 41.21875 47.21875 41.21875 52.203125 
Q 41.21875 57.421875 37.46875 61 
Q 33.734375 64.59375 27.734375 64.59375 
Q 21.390625 64.59375 17.578125 60.78125 
Q 13.765625 56.984375 13.71875 50.25 
L 4.6875 51.171875 
Q 5.609375 61.28125 11.65625 66.578125 
Q 17.71875 71.875 27.9375 71.875 
Q 38.234375 71.875 44.234375 66.15625 
Q 50.25 60.453125 50.25 52 
Q 50.25 47.703125 48.484375 43.546875 
Q 46.734375 39.40625 42.65625 34.8125 
Q 38.578125 30.21875 29.109375 22.21875 
Q 21.1875 15.578125 18.9375 13.203125 
Q 16.703125 10.84375 15.234375 8.453125 
z
" id="ArialMT-50"/>
    </defs>
    <g transform="translate(257.183437 15.935625)scale(0.12 -0.12)">
     <use xlink:href="#ArialMT-83"/>
     <use x="66.699219" xlink:href="#ArialMT-101"/>
     <use x="122.314453" xlink:href="#ArialMT-103"/>
     <use x="177.929688" xlink:href="#ArialMT-109"/>
     <use x="261.230469" xlink:href="#ArialMT-101"/>
     <use x="316.845703" xlink:href="#ArialMT-110"/>
     <use x="372.460938" xlink:href="#ArialMT-116"/>
     <use x="400.244141" xlink:href="#ArialMT-32"/>
     <use x="428.027344" xlink:href="#ArialMT-50"/>
    </g>
    <!--  (true) -->
    <g transform="translate(270.199687 28.944)scale(0.12 -0.12)">
     <use xlink:href="#ArialMT-32"/>
     <use x="27.783203" xlink:href="#ArialMT-40"/>
     <use x="61.083984" xlink:href="#ArialMT-116"/>
     <use x="88.867188" xlink:href="#ArialMT-114"/>
     <use x="122.167969" xlink:href="#ArialMT-117"/>
     <use x="177.783203" xlink:href="#ArialMT-101"/>
     <use x="233.398438" xlink:href="#ArialMT-41"/>
    </g>
   </g>
  </g>
  <g id="axes_4">
   <g id="patch_16">
    <path clip-path="url(#p4ebdfe4ef4)" d="M 286.2 237.834787 
Q 255.772606 280.24873 239.835491 324.944449 
" style="fill:none;stroke:#fdcbb6;stroke-linecap:round;stroke-width:4;"/>
    <path clip-path="url(#p4ebdfe4ef4)" d="M 243.062745 321.848512 
L 239.835491 324.944449 
L 239.295094 320.505083 
" style="fill:none;stroke:#fdcbb6;stroke-linecap:round;stroke-width:4;"/>
   </g>
   <g id="patch_17">
    <path clip-path="url(#p4ebdfe4ef4)" d="M 286.2 237.834787 
Q 301.874718 287.625068 328.069024 327.192192 
" style="fill:none;stroke:#fc8969;stroke-linecap:round;stroke-width:4;"/>
    <path clip-path="url(#p4ebdfe4ef4)" d="M 327.528627 322.752826 
L 328.069024 327.192192 
L 324.193293 324.96089 
" style="fill:none;stroke:#fc8969;stroke-linecap:round;stroke-width:4;"/>
   </g>
   <g id="patch_18">
    <path clip-path="url(#p4ebdfe4ef4)" d="M 233.835135 342.564517 
Q 264.262529 300.150575 280.199644 255.454855 
" style="fill:none;stroke:#fc8767;stroke-linecap:round;stroke-width:4;"/>
    <path clip-path="url(#p4ebdfe4ef4)" d="M 276.97239 258.550793 
L 280.199644 255.454855 
L 280.740042 259.894221 
" style="fill:none;stroke:#fc8767;stroke-linecap:round;stroke-width:4;"/>
   </g>
   <g id="patch_19">
    <path clip-path="url(#p4ebdfe4ef4)" d="M 233.835135 342.564517 
Q 279.195752 349.822216 320.114633 345.026635 
" style="fill:none;stroke:#fc8767;stroke-linecap:round;stroke-width:4;"/>
    <path clip-path="url(#p4ebdfe4ef4)" d="M 315.909022 343.505832 
L 320.114633 345.026635 
L 316.374624 347.478642 
" style="fill:none;stroke:#fc8767;stroke-linecap:round;stroke-width:4;"/>
   </g>
   <g id="patch_20">
    <path clip-path="url(#p4ebdfe4ef4)" d="M 338.564865 342.564517 
Q 322.890147 292.774237 296.695841 253.207113 
" style="fill:none;stroke:#7b0510;stroke-linecap:round;stroke-width:4;"/>
    <path clip-path="url(#p4ebdfe4ef4)" d="M 297.236238 257.646479 
L 296.695841 253.207113 
L 300.571572 255.438414 
" style="fill:none;stroke:#7b0510;stroke-linecap:round;stroke-width:4;"/>
   </g>
   <g id="patch_21">
    <path clip-path="url(#p4ebdfe4ef4)" d="M 338.564865 342.564517 
Q 293.204248 335.306818 252.285367 340.102399 
" style="fill:none;stroke:#860811;stroke-linecap:round;stroke-width:4;"/>
    <path clip-path="url(#p4ebdfe4ef4)" d="M 256.490978 341.623202 
L 252.285367 340.102399 
L 256.025376 337.650392 
" style="fill:none;stroke:#860811;stroke-linecap:round;stroke-width:4;"/>
   </g>
   <g id="PathCollection_4">
    <path clip-path="url(#p4ebdfe4ef4)" d="M 286.2 251.976923 
C 289.950538 251.976923 293.547969 250.486818 296.2 247.834787 
C 298.852031 245.182756 300.342136 241.585326 300.342136 237.834787 
C 300.342136 234.084249 298.852031 230.486818 296.2 227.834787 
C 293.547969 225.182756 289.950538 223.692652 286.2 223.692652 
C 282.449462 223.692652 278.852031 225.182756 276.2 227.834787 
C 273.547969 230.486818 272.057864 234.084249 272.057864 237.834787 
C 272.057864 241.585326 273.547969 245.182756 276.2 247.834787 
C 278.852031 250.486818 282.449462 251.976923 286.2 251.976923 
z
" style="fill:#0000ff;stroke:#0000ff;"/>
    <path clip-path="url(#p4ebdfe4ef4)" d="M 233.835135 356.706653 
C 237.585673 356.706653 241.183104 355.216548 243.835135 352.564517 
C 246.487166 349.912486 247.977271 346.315055 247.977271 342.564517 
C 247.977271 338.813979 246.487166 335.216548 243.835135 332.564517 
C 241.183104 329.912486 237.585673 328.422381 233.835135 328.422381 
C 230.084597 328.422381 226.487166 329.912486 223.835135 332.564517 
C 221.183104 335.216548 219.693 338.813979 219.693 342.564517 
C 219.693 346.315055 221.183104 349.912486 223.835135 352.564517 
C 226.487166 355.216548 230.084597 356.706653 233.835135 356.706653 
z
" style="fill:#0000ff;stroke:#0000ff;"/>
    <path clip-path="url(#p4ebdfe4ef4)" d="M 338.564865 356.706653 
C 342.315403 356.706653 345.912834 355.216548 348.564865 352.564517 
C 351.216896 349.912486 352.707 346.315055 352.707 342.564517 
C 352.707 338.813979 351.216896 335.216548 348.564865 332.564517 
C 345.912834 329.912486 342.315403 328.422381 338.564865 328.422381 
C 334.814327 328.422381 331.216896 329.912486 328.564865 332.564517 
C 325.912834 335.216548 324.422729 338.813979 324.422729 342.564517 
C 324.422729 346.315055 325.912834 349.912486 328.564865 352.564517 
C 331.216896 355.216548 334.814327 356.706653 338.564865 356.706653 
z
" style="fill:#0000ff;stroke:#0000ff;"/>
   </g>
   <g id="text_13">
    <g clip-path="url(#p4ebdfe4ef4)">
     <!-- 1 -->
     <g style="fill:#ffffff;" transform="translate(281.428125 241.97385)scale(0.15 -0.15)">
      <use xlink:href="#DejaVuSans-49"/>
     </g>
    </g>
   </g>
   <g id="text_14">
    <g clip-path="url(#p4ebdfe4ef4)">
     <!-- 2 -->
     <g style="fill:#ffffff;" transform="translate(229.06326 346.70358)scale(0.15 -0.15)">
      <use xlink:href="#DejaVuSans-50"/>
     </g>
    </g>
   </g>
   <g id="text_15">
    <g clip-path="url(#p4ebdfe4ef4)">
     <!-- 3 -->
     <g style="fill:#ffffff;" transform="translate(333.79299 346.70358)scale(0.15 -0.15)">
      <use xlink:href="#DejaVuSans-51"/>
     </g>
    </g>
   </g>
   <g id="text_16">
    <!-- Segment 2 -->
    <g transform="translate(257.183437 200.286929)scale(0.12 -0.12)">
     <use xlink:href="#ArialMT-83"/>
     <use x="66.699219" xlink:href="#ArialMT-101"/>
     <use x="122.314453" xlink:href="#ArialMT-103"/>
     <use x="177.929688" xlink:href="#ArialMT-109"/>
     <use x="261.230469" xlink:href="#ArialMT-101"/>
     <use x="316.845703" xlink:href="#ArialMT-110"/>
     <use x="372.460938" xlink:href="#ArialMT-116"/>
     <use x="400.244141" xlink:href="#ArialMT-32"/>
     <use x="428.027344" xlink:href="#ArialMT-50"/>
    </g>
    <!--  (pred.) -->
    <g transform="translate(266.863125 213.295304)scale(0.12 -0.12)">
     <use xlink:href="#ArialMT-32"/>
     <use x="27.783203" xlink:href="#ArialMT-40"/>
     <use x="61.083984" xlink:href="#ArialMT-112"/>
     <use x="116.699219" xlink:href="#ArialMT-114"/>
     <use x="150" xlink:href="#ArialMT-101"/>
     <use x="205.615234" xlink:href="#ArialMT-100"/>
     <use x="261.230469" xlink:href="#ArialMT-46"/>
     <use x="289.013672" xlink:href="#ArialMT-41"/>
    </g>
   </g>
  </g>
  <g id="axes_5">
   <g id="patch_22">
    <path clip-path="url(#p538a108e87)" d="M 487.7 53.483483 
Q 457.272606 95.897425 441.335491 140.593145 
" style="fill:none;stroke:#820711;stroke-linecap:round;stroke-width:4;"/>
    <path clip-path="url(#p538a108e87)" d="M 444.562745 137.497207 
L 441.335491 140.593145 
L 440.795094 136.153779 
" style="fill:none;stroke:#820711;stroke-linecap:round;stroke-width:4;"/>
   </g>
   <g id="patch_23">
    <path clip-path="url(#p538a108e87)" d="M 487.7 53.483483 
Q 503.374718 103.273763 529.569024 142.840887 
" style="fill:none;stroke:#820711;stroke-linecap:round;stroke-width:4;"/>
    <path clip-path="url(#p538a108e87)" d="M 529.028627 138.401521 
L 529.569024 142.840887 
L 525.693293 140.609586 
" style="fill:none;stroke:#820711;stroke-linecap:round;stroke-width:4;"/>
   </g>
   <g id="patch_24">
    <path clip-path="url(#p538a108e87)" d="M 435.335135 158.213213 
Q 465.762529 115.79927 481.699644 71.103551 
" style="fill:none;stroke:#820711;stroke-linecap:round;stroke-width:4;"/>
    <path clip-path="url(#p538a108e87)" d="M 478.47239 74.199488 
L 481.699644 71.103551 
L 482.240042 75.542917 
" style="fill:none;stroke:#820711;stroke-linecap:round;stroke-width:4;"/>
   </g>
   <g id="patch_25">
    <path clip-path="url(#p538a108e87)" d="M 435.335135 158.213213 
Q 480.695752 165.470911 521.614633 160.67533 
" style="fill:none;stroke:#820711;stroke-linecap:round;stroke-width:4;"/>
    <path clip-path="url(#p538a108e87)" d="M 517.409022 159.154528 
L 521.614633 160.67533 
L 517.874624 163.127338 
" style="fill:none;stroke:#820711;stroke-linecap:round;stroke-width:4;"/>
   </g>
   <g id="patch_26">
    <path clip-path="url(#p538a108e87)" d="M 540.064865 158.213213 
Q 524.390147 108.422932 498.195841 68.855808 
" style="fill:none;stroke:#820711;stroke-linecap:round;stroke-width:4;"/>
    <path clip-path="url(#p538a108e87)" d="M 498.736238 73.295174 
L 498.195841 68.855808 
L 502.071572 71.08711 
" style="fill:none;stroke:#820711;stroke-linecap:round;stroke-width:4;"/>
   </g>
   <g id="patch_27">
    <path clip-path="url(#p538a108e87)" d="M 540.064865 158.213213 
Q 494.704248 150.955514 453.785367 155.751095 
" style="fill:none;stroke:#820711;stroke-linecap:round;stroke-width:4;"/>
    <path clip-path="url(#p538a108e87)" d="M 457.990978 157.271897 
L 453.785367 155.751095 
L 457.525376 153.299088 
" style="fill:none;stroke:#820711;stroke-linecap:round;stroke-width:4;"/>
   </g>
   <g id="PathCollection_5">
    <path clip-path="url(#p538a108e87)" d="M 487.7 67.625619 
C 491.450538 67.625619 495.047969 66.135514 497.7 63.483483 
C 500.352031 60.831452 501.842136 57.234021 501.842136 53.483483 
C 501.842136 49.732945 500.352031 46.135514 497.7 43.483483 
C 495.047969 40.831452 491.450538 39.341347 487.7 39.341347 
C 483.949462 39.341347 480.352031 40.831452 477.7 43.483483 
C 475.047969 46.135514 473.557864 49.732945 473.557864 53.483483 
C 473.557864 57.234021 475.047969 60.831452 477.7 63.483483 
C 480.352031 66.135514 483.949462 67.625619 487.7 67.625619 
z
" style="fill:#0000ff;stroke:#0000ff;"/>
    <path clip-path="url(#p538a108e87)" d="M 435.335135 172.355348 
C 439.085673 172.355348 442.683104 170.865244 445.335135 168.213213 
C 447.987166 165.561182 449.477271 161.963751 449.477271 158.213213 
C 449.477271 154.462674 447.987166 150.865244 445.335135 148.213213 
C 442.683104 145.561182 439.085673 144.071077 435.335135 144.071077 
C 431.584597 144.071077 427.987166 145.561182 425.335135 148.213213 
C 422.683104 150.865244 421.193 154.462674 421.193 158.213213 
C 421.193 161.963751 422.683104 165.561182 425.335135 168.213213 
C 427.987166 170.865244 431.584597 172.355348 435.335135 172.355348 
z
" style="fill:#0000ff;stroke:#0000ff;"/>
    <path clip-path="url(#p538a108e87)" d="M 540.064865 172.355348 
C 543.815403 172.355348 547.412834 170.865244 550.064865 168.213213 
C 552.716896 165.561182 554.207 161.963751 554.207 158.213213 
C 554.207 154.462674 552.716896 150.865244 550.064865 148.213213 
C 547.412834 145.561182 543.815403 144.071077 540.064865 144.071077 
C 536.314327 144.071077 532.716896 145.561182 530.064865 148.213213 
C 527.412834 150.865244 525.922729 154.462674 525.922729 158.213213 
C 525.922729 161.963751 527.412834 165.561182 530.064865 168.213213 
C 532.716896 170.865244 536.314327 172.355348 540.064865 172.355348 
z
" style="fill:#0000ff;stroke:#0000ff;"/>
   </g>
   <g id="text_17">
    <g clip-path="url(#p538a108e87)">
     <!-- 1 -->
     <g style="fill:#ffffff;" transform="translate(482.928125 57.622545)scale(0.15 -0.15)">
      <use xlink:href="#DejaVuSans-49"/>
     </g>
    </g>
   </g>
   <g id="text_18">
    <g clip-path="url(#p538a108e87)">
     <!-- 2 -->
     <g style="fill:#ffffff;" transform="translate(430.56326 162.352275)scale(0.15 -0.15)">
      <use xlink:href="#DejaVuSans-50"/>
     </g>
    </g>
   </g>
   <g id="text_19">
    <g clip-path="url(#p538a108e87)">
     <!-- 3 -->
     <g style="fill:#ffffff;" transform="translate(535.29299 162.352275)scale(0.15 -0.15)">
      <use xlink:href="#DejaVuSans-51"/>
     </g>
    </g>
   </g>
   <g id="text_20">
    <!-- Segment 3 -->
    <defs>
     <path d="M 4.203125 18.890625 
L 12.984375 20.0625 
Q 14.5 12.59375 18.140625 9.296875 
Q 21.78125 6 27 6 
Q 33.203125 6 37.46875 10.296875 
Q 41.75 14.59375 41.75 20.953125 
Q 41.75 27 37.796875 30.921875 
Q 33.84375 34.859375 27.734375 34.859375 
Q 25.25 34.859375 21.53125 33.890625 
L 22.515625 41.609375 
Q 23.390625 41.5 23.921875 41.5 
Q 29.546875 41.5 34.03125 44.421875 
Q 38.53125 47.359375 38.53125 53.46875 
Q 38.53125 58.296875 35.25 61.46875 
Q 31.984375 64.65625 26.8125 64.65625 
Q 21.6875 64.65625 18.265625 61.421875 
Q 14.84375 58.203125 13.875 51.765625 
L 5.078125 53.328125 
Q 6.6875 62.15625 12.390625 67.015625 
Q 18.109375 71.875 26.609375 71.875 
Q 32.46875 71.875 37.390625 69.359375 
Q 42.328125 66.84375 44.9375 62.5 
Q 47.5625 58.15625 47.5625 53.265625 
Q 47.5625 48.640625 45.0625 44.828125 
Q 42.578125 41.015625 37.703125 38.765625 
Q 44.046875 37.3125 47.5625 32.6875 
Q 51.078125 28.078125 51.078125 21.140625 
Q 51.078125 11.765625 44.234375 5.25 
Q 37.40625 -1.265625 26.953125 -1.265625 
Q 17.53125 -1.265625 11.296875 4.34375 
Q 5.078125 9.96875 4.203125 18.890625 
z
" id="ArialMT-51"/>
    </defs>
    <g transform="translate(458.683438 15.935625)scale(0.12 -0.12)">
     <use xlink:href="#ArialMT-83"/>
     <use x="66.699219" xlink:href="#ArialMT-101"/>
     <use x="122.314453" xlink:href="#ArialMT-103"/>
     <use x="177.929688" xlink:href="#ArialMT-109"/>
     <use x="261.230469" xlink:href="#ArialMT-101"/>
     <use x="316.845703" xlink:href="#ArialMT-110"/>
     <use x="372.460938" xlink:href="#ArialMT-116"/>
     <use x="400.244141" xlink:href="#ArialMT-32"/>
     <use x="428.027344" xlink:href="#ArialMT-51"/>
    </g>
    <!--  (true) -->
    <g transform="translate(471.699688 28.944)scale(0.12 -0.12)">
     <use xlink:href="#ArialMT-32"/>
     <use x="27.783203" xlink:href="#ArialMT-40"/>
     <use x="61.083984" xlink:href="#ArialMT-116"/>
     <use x="88.867188" xlink:href="#ArialMT-114"/>
     <use x="122.167969" xlink:href="#ArialMT-117"/>
     <use x="177.783203" xlink:href="#ArialMT-101"/>
     <use x="233.398438" xlink:href="#ArialMT-41"/>
    </g>
   </g>
  </g>
  <g id="axes_6">
   <g id="patch_28">
    <path clip-path="url(#p1ef9fa3ca1)" d="M 487.7 237.834787 
Q 457.272606 280.24873 441.335491 324.944449 
" style="fill:none;stroke:#fa6647;stroke-linecap:round;stroke-width:4;"/>
    <path clip-path="url(#p1ef9fa3ca1)" d="M 444.562745 321.848512 
L 441.335491 324.944449 
L 440.795094 320.505083 
" style="fill:none;stroke:#fa6647;stroke-linecap:round;stroke-width:4;"/>
   </g>
   <g id="patch_29">
    <path clip-path="url(#p1ef9fa3ca1)" d="M 487.7 237.834787 
Q 503.374718 287.625068 529.569024 327.192192 
" style="fill:none;stroke:#f24834;stroke-linecap:round;stroke-width:4;"/>
    <path clip-path="url(#p1ef9fa3ca1)" d="M 529.028627 322.752826 
L 529.569024 327.192192 
L 525.693293 324.96089 
" style="fill:none;stroke:#f24834;stroke-linecap:round;stroke-width:4;"/>
   </g>
   <g id="patch_30">
    <path clip-path="url(#p1ef9fa3ca1)" d="M 435.335135 342.564517 
Q 465.762529 300.150575 481.699644 255.454855 
" style="fill:none;stroke:#f34b36;stroke-linecap:round;stroke-width:4;"/>
    <path clip-path="url(#p1ef9fa3ca1)" d="M 478.47239 258.550793 
L 481.699644 255.454855 
L 482.240042 259.894221 
" style="fill:none;stroke:#f34b36;stroke-linecap:round;stroke-width:4;"/>
   </g>
   <g id="patch_31">
    <path clip-path="url(#p1ef9fa3ca1)" d="M 435.335135 342.564517 
Q 480.695752 349.822216 521.614633 345.026635 
" style="fill:none;stroke:#f24532;stroke-linecap:round;stroke-width:4;"/>
    <path clip-path="url(#p1ef9fa3ca1)" d="M 517.409022 343.505832 
L 521.614633 345.026635 
L 517.874624 347.478642 
" style="fill:none;stroke:#f24532;stroke-linecap:round;stroke-width:4;"/>
   </g>
   <g id="patch_32">
    <path clip-path="url(#p1ef9fa3ca1)" d="M 540.064865 342.564517 
Q 524.390147 292.774237 498.195841 253.207113 
" style="fill:none;stroke:#7e0610;stroke-linecap:round;stroke-width:4;"/>
    <path clip-path="url(#p1ef9fa3ca1)" d="M 498.736238 257.646479 
L 498.195841 253.207113 
L 502.071572 255.438414 
" style="fill:none;stroke:#7e0610;stroke-linecap:round;stroke-width:4;"/>
   </g>
   <g id="patch_33">
    <path clip-path="url(#p1ef9fa3ca1)" d="M 540.064865 342.564517 
Q 494.704248 335.306818 453.785367 340.102399 
" style="fill:none;stroke:#860811;stroke-linecap:round;stroke-width:4;"/>
    <path clip-path="url(#p1ef9fa3ca1)" d="M 457.990978 341.623202 
L 453.785367 340.102399 
L 457.525376 337.650392 
" style="fill:none;stroke:#860811;stroke-linecap:round;stroke-width:4;"/>
   </g>
   <g id="PathCollection_6">
    <path clip-path="url(#p1ef9fa3ca1)" d="M 487.7 251.976923 
C 491.450538 251.976923 495.047969 250.486818 497.7 247.834787 
C 500.352031 245.182756 501.842136 241.585326 501.842136 237.834787 
C 501.842136 234.084249 500.352031 230.486818 497.7 227.834787 
C 495.047969 225.182756 491.450538 223.692652 487.7 223.692652 
C 483.949462 223.692652 480.352031 225.182756 477.7 227.834787 
C 475.047969 230.486818 473.557864 234.084249 473.557864 237.834787 
C 473.557864 241.585326 475.047969 245.182756 477.7 247.834787 
C 480.352031 250.486818 483.949462 251.976923 487.7 251.976923 
z
" style="fill:#0000ff;stroke:#0000ff;"/>
    <path clip-path="url(#p1ef9fa3ca1)" d="M 435.335135 356.706653 
C 439.085673 356.706653 442.683104 355.216548 445.335135 352.564517 
C 447.987166 349.912486 449.477271 346.315055 449.477271 342.564517 
C 449.477271 338.813979 447.987166 335.216548 445.335135 332.564517 
C 442.683104 329.912486 439.085673 328.422381 435.335135 328.422381 
C 431.584597 328.422381 427.987166 329.912486 425.335135 332.564517 
C 422.683104 335.216548 421.193 338.813979 421.193 342.564517 
C 421.193 346.315055 422.683104 349.912486 425.335135 352.564517 
C 427.987166 355.216548 431.584597 356.706653 435.335135 356.706653 
z
" style="fill:#0000ff;stroke:#0000ff;"/>
    <path clip-path="url(#p1ef9fa3ca1)" d="M 540.064865 356.706653 
C 543.815403 356.706653 547.412834 355.216548 550.064865 352.564517 
C 552.716896 349.912486 554.207 346.315055 554.207 342.564517 
C 554.207 338.813979 552.716896 335.216548 550.064865 332.564517 
C 547.412834 329.912486 543.815403 328.422381 540.064865 328.422381 
C 536.314327 328.422381 532.716896 329.912486 530.064865 332.564517 
C 527.412834 335.216548 525.922729 338.813979 525.922729 342.564517 
C 525.922729 346.315055 527.412834 349.912486 530.064865 352.564517 
C 532.716896 355.216548 536.314327 356.706653 540.064865 356.706653 
z
" style="fill:#0000ff;stroke:#0000ff;"/>
   </g>
   <g id="text_21">
    <g clip-path="url(#p1ef9fa3ca1)">
     <!-- 1 -->
     <g style="fill:#ffffff;" transform="translate(482.928125 241.97385)scale(0.15 -0.15)">
      <use xlink:href="#DejaVuSans-49"/>
     </g>
    </g>
   </g>
   <g id="text_22">
    <g clip-path="url(#p1ef9fa3ca1)">
     <!-- 2 -->
     <g style="fill:#ffffff;" transform="translate(430.56326 346.70358)scale(0.15 -0.15)">
      <use xlink:href="#DejaVuSans-50"/>
     </g>
    </g>
   </g>
   <g id="text_23">
    <g clip-path="url(#p1ef9fa3ca1)">
     <!-- 3 -->
     <g style="fill:#ffffff;" transform="translate(535.29299 346.70358)scale(0.15 -0.15)">
      <use xlink:href="#DejaVuSans-51"/>
     </g>
    </g>
   </g>
   <g id="text_24">
    <!-- Segment 3 -->
    <g transform="translate(458.683438 200.286929)scale(0.12 -0.12)">
     <use xlink:href="#ArialMT-83"/>
     <use x="66.699219" xlink:href="#ArialMT-101"/>
     <use x="122.314453" xlink:href="#ArialMT-103"/>
     <use x="177.929688" xlink:href="#ArialMT-109"/>
     <use x="261.230469" xlink:href="#ArialMT-101"/>
     <use x="316.845703" xlink:href="#ArialMT-110"/>
     <use x="372.460938" xlink:href="#ArialMT-116"/>
     <use x="400.244141" xlink:href="#ArialMT-32"/>
     <use x="428.027344" xlink:href="#ArialMT-51"/>
    </g>
    <!--  (pred.) -->
    <g transform="translate(468.363125 213.295304)scale(0.12 -0.12)">
     <use xlink:href="#ArialMT-32"/>
     <use x="27.783203" xlink:href="#ArialMT-40"/>
     <use x="61.083984" xlink:href="#ArialMT-112"/>
     <use x="116.699219" xlink:href="#ArialMT-114"/>
     <use x="150" xlink:href="#ArialMT-101"/>
     <use x="205.615234" xlink:href="#ArialMT-100"/>
     <use x="261.230469" xlink:href="#ArialMT-46"/>
     <use x="289.013672" xlink:href="#ArialMT-41"/>
    </g>
   </g>
  </g>
 </g>
 <defs>
  <clipPath id="p7f5680cc18">
   <rect height="141.808696" width="155" x="7.2" y="34.944"/>
  </clipPath>
  <clipPath id="p974c153aa5">
   <rect height="141.808696" width="155" x="7.2" y="219.295304"/>
  </clipPath>
  <clipPath id="p5156b00e63">
   <rect height="141.808696" width="155" x="208.7" y="34.944"/>
  </clipPath>
  <clipPath id="p4ebdfe4ef4">
   <rect height="141.808696" width="155" x="208.7" y="219.295304"/>
  </clipPath>
  <clipPath id="p538a108e87">
   <rect height="141.808696" width="155" x="410.2" y="34.944"/>
  </clipPath>
  <clipPath id="p1ef9fa3ca1">
   <rect height="141.808696" width="155" x="410.2" y="219.295304"/>
  </clipPath>
 </defs>
</svg>
