<?xml version="1.0" encoding="utf-8" standalone="no"?>
<!DOCTYPE svg PUBLIC "-//W3C//DTD SVG 1.1//EN"
  "http://www.w3.org/Graphics/SVG/1.1/DTD/svg11.dtd">
<!-- Created with matplotlib (https://matplotlib.org/) -->
<svg height="864pt" version="1.1" viewBox="0 0 576 864" width="576pt" xmlns="http://www.w3.org/2000/svg" xmlns:xlink="http://www.w3.org/1999/xlink">
 <defs>
  <style type="text/css">
*{stroke-linecap:butt;stroke-linejoin:round;}
  </style>
 </defs>
 <g id="figure_1">
  <g id="patch_1">
   <path d="M 0 864 
L 576 864 
L 576 0 
L 0 0 
z
" style="fill:#ffffff;"/>
  </g>
  <g id="axes_1">
   <g id="patch_2">
    <path clip-path="url(#pd7b85ade67)" d="M 183.6 124.836324 
Q 164.723779 162.588765 145.847559 200.341206 
" style="fill:none;stroke:#e0e0ff;stroke-linecap:round;stroke-width:4;"/>
   </g>
   <g id="patch_3">
    <path clip-path="url(#pd7b85ade67)" d="M 183.6 124.836324 
Q 202.476221 162.588765 221.352441 200.341206 
" style="fill:none;stroke:#ff8282;stroke-linecap:round;stroke-width:4;"/>
   </g>
   <g id="patch_4">
    <path clip-path="url(#pd7b85ade67)" d="M 139.524324 212.987676 
Q 176.528899 212.987676 213.533474 212.987676 
" style="fill:none;stroke:#e2e2ff;stroke-linecap:round;stroke-width:4;"/>
   </g>
   <g id="PathCollection_1">
    <path clip-path="url(#pd7b85ade67)" d="M 183.6 138.97846 
C 187.350538 138.97846 190.947969 137.488355 193.6 134.836324 
C 196.252031 132.184293 197.742136 128.586863 197.742136 124.836324 
C 197.742136 121.085786 196.252031 117.488355 193.6 114.836324 
C 190.947969 112.184293 187.350538 110.694189 183.6 110.694189 
C 179.849462 110.694189 176.252031 112.184293 173.6 114.836324 
C 170.947969 117.488355 169.457864 121.085786 169.457864 124.836324 
C 169.457864 128.586863 170.947969 132.184293 173.6 134.836324 
C 176.252031 137.488355 179.849462 138.97846 183.6 138.97846 
z
" style="fill:#0000ff;stroke:#0000ff;"/>
    <path clip-path="url(#pd7b85ade67)" d="M 139.524324 227.129811 
C 143.274863 227.129811 146.872293 225.639707 149.524324 222.987676 
C 152.176355 220.335645 153.66646 216.738214 153.66646 212.987676 
C 153.66646 209.237137 152.176355 205.639707 149.524324 202.987676 
C 146.872293 200.335645 143.274863 198.84554 139.524324 198.84554 
C 135.773786 198.84554 132.176355 200.335645 129.524324 202.987676 
C 126.872293 205.639707 125.382189 209.237137 125.382189 212.987676 
C 125.382189 216.738214 126.872293 220.335645 129.524324 222.987676 
C 132.176355 225.639707 135.773786 227.129811 139.524324 227.129811 
z
" style="fill:#0000ff;stroke:#0000ff;"/>
    <path clip-path="url(#pd7b85ade67)" d="M 227.675676 227.129811 
C 231.426214 227.129811 235.023645 225.639707 237.675676 222.987676 
C 240.327707 220.335645 241.817811 216.738214 241.817811 212.987676 
C 241.817811 209.237137 240.327707 205.639707 237.675676 202.987676 
C 235.023645 200.335645 231.426214 198.84554 227.675676 198.84554 
C 223.925137 198.84554 220.327707 200.335645 217.675676 202.987676 
C 215.023645 205.639707 213.53354 209.237137 213.53354 212.987676 
C 213.53354 216.738214 215.023645 220.335645 217.675676 222.987676 
C 220.327707 225.639707 223.925137 227.129811 227.675676 227.129811 
z
" style="fill:#0000ff;stroke:#0000ff;"/>
   </g>
   <g id="text_1">
    <g clip-path="url(#pd7b85ade67)">
     <!-- 1 -->
     <defs>
      <path d="M 12.40625 8.296875 
L 28.515625 8.296875 
L 28.515625 63.921875 
L 10.984375 60.40625 
L 10.984375 69.390625 
L 28.421875 72.90625 
L 38.28125 72.90625 
L 38.28125 8.296875 
L 54.390625 8.296875 
L 54.390625 0 
L 12.40625 0 
z
" id="DejaVuSans-49"/>
     </defs>
     <g style="fill:#ffffff;" transform="translate(178.828125 128.975387)scale(0.15 -0.15)">
      <use xlink:href="#DejaVuSans-49"/>
     </g>
    </g>
   </g>
   <g id="text_2">
    <g clip-path="url(#pd7b85ade67)">
     <!-- 2 -->
     <defs>
      <path d="M 19.1875 8.296875 
L 53.609375 8.296875 
L 53.609375 0 
L 7.328125 0 
L 7.328125 8.296875 
Q 12.9375 14.109375 22.625 23.890625 
Q 32.328125 33.6875 34.8125 36.53125 
Q 39.546875 41.84375 41.421875 45.53125 
Q 43.3125 49.21875 43.3125 52.78125 
Q 43.3125 58.59375 39.234375 62.25 
Q 35.15625 65.921875 28.609375 65.921875 
Q 23.96875 65.921875 18.8125 64.3125 
Q 13.671875 62.703125 7.8125 59.421875 
L 7.8125 69.390625 
Q 13.765625 71.78125 18.9375 73 
Q 24.125 74.21875 28.421875 74.21875 
Q 39.75 74.21875 46.484375 68.546875 
Q 53.21875 62.890625 53.21875 53.421875 
Q 53.21875 48.921875 51.53125 44.890625 
Q 49.859375 40.875 45.40625 35.40625 
Q 44.1875 33.984375 37.640625 27.21875 
Q 31.109375 20.453125 19.1875 8.296875 
z
" id="DejaVuSans-50"/>
     </defs>
     <g style="fill:#ffffff;" transform="translate(134.752449 217.126738)scale(0.15 -0.15)">
      <use xlink:href="#DejaVuSans-50"/>
     </g>
    </g>
   </g>
   <g id="text_3">
    <g clip-path="url(#pd7b85ade67)">
     <!-- 3 -->
     <defs>
      <path d="M 40.578125 39.3125 
Q 47.65625 37.796875 51.625 33 
Q 55.609375 28.21875 55.609375 21.1875 
Q 55.609375 10.40625 48.1875 4.484375 
Q 40.765625 -1.421875 27.09375 -1.421875 
Q 22.515625 -1.421875 17.65625 -0.515625 
Q 12.796875 0.390625 7.625 2.203125 
L 7.625 11.71875 
Q 11.71875 9.328125 16.59375 8.109375 
Q 21.484375 6.890625 26.8125 6.890625 
Q 36.078125 6.890625 40.9375 10.546875 
Q 45.796875 14.203125 45.796875 21.1875 
Q 45.796875 27.640625 41.28125 31.265625 
Q 36.765625 34.90625 28.71875 34.90625 
L 20.21875 34.90625 
L 20.21875 43.015625 
L 29.109375 43.015625 
Q 36.375 43.015625 40.234375 45.921875 
Q 44.09375 48.828125 44.09375 54.296875 
Q 44.09375 59.90625 40.109375 62.90625 
Q 36.140625 65.921875 28.71875 65.921875 
Q 24.65625 65.921875 20.015625 65.03125 
Q 15.375 64.15625 9.8125 62.3125 
L 9.8125 71.09375 
Q 15.4375 72.65625 20.34375 73.4375 
Q 25.25 74.21875 29.59375 74.21875 
Q 40.828125 74.21875 47.359375 69.109375 
Q 53.90625 64.015625 53.90625 55.328125 
Q 53.90625 49.265625 50.4375 45.09375 
Q 46.96875 40.921875 40.578125 39.3125 
z
" id="DejaVuSans-51"/>
     </defs>
     <g style="fill:#ffffff;" transform="translate(222.903801 217.126738)scale(0.15 -0.15)">
      <use xlink:href="#DejaVuSans-51"/>
     </g>
    </g>
   </g>
  </g>
  <g id="axes_2">
   <g id="patch_5">
    <path d="M 295.2 234.144 
L 518.4 234.144 
L 518.4 103.68 
L 295.2 103.68 
z
" style="fill:#ffffff;"/>
   </g>
   <g id="matplotlib.axis_1">
    <g id="xtick_1">
     <g id="line2d_1">
      <defs>
       <path d="M 0 0 
L 0 3.5 
" id="mc11bf3e954" style="stroke:#000000;stroke-width:0.8;"/>
      </defs>
      <g>
       <use style="stroke:#000000;stroke-width:0.8;" x="305.345455" xlink:href="#mc11bf3e954" y="234.144"/>
      </g>
     </g>
     <g id="text_4">
      <!-- 0 -->
      <defs>
       <path d="M 4.15625 35.296875 
Q 4.15625 48 6.765625 55.734375 
Q 9.375 63.484375 14.515625 67.671875 
Q 19.671875 71.875 27.484375 71.875 
Q 33.25 71.875 37.59375 69.546875 
Q 41.9375 67.234375 44.765625 62.859375 
Q 47.609375 58.5 49.21875 52.21875 
Q 50.828125 45.953125 50.828125 35.296875 
Q 50.828125 22.703125 48.234375 14.96875 
Q 45.65625 7.234375 40.5 3 
Q 35.359375 -1.21875 27.484375 -1.21875 
Q 17.140625 -1.21875 11.234375 6.203125 
Q 4.15625 15.140625 4.15625 35.296875 
z
M 13.1875 35.296875 
Q 13.1875 17.671875 17.3125 11.828125 
Q 21.4375 6 27.484375 6 
Q 33.546875 6 37.671875 11.859375 
Q 41.796875 17.71875 41.796875 35.296875 
Q 41.796875 52.984375 37.671875 58.78125 
Q 33.546875 64.59375 27.390625 64.59375 
Q 21.34375 64.59375 17.71875 59.46875 
Q 13.1875 52.9375 13.1875 35.296875 
z
" id="ArialMT-48"/>
      </defs>
      <g transform="translate(300.340611 254.028063)scale(0.18 -0.18)">
       <use xlink:href="#ArialMT-48"/>
      </g>
     </g>
    </g>
    <g id="xtick_2">
     <g id="line2d_2">
      <g>
       <use style="stroke:#000000;stroke-width:0.8;" x="373.004371" xlink:href="#mc11bf3e954" y="234.144"/>
      </g>
     </g>
     <g id="text_5">
      <!-- 1000 -->
      <defs>
       <path d="M 37.25 0 
L 28.46875 0 
L 28.46875 56 
Q 25.296875 52.984375 20.140625 49.953125 
Q 14.984375 46.921875 10.890625 45.40625 
L 10.890625 53.90625 
Q 18.265625 57.375 23.78125 62.296875 
Q 29.296875 67.234375 31.59375 71.875 
L 37.25 71.875 
z
" id="ArialMT-49"/>
      </defs>
      <g transform="translate(352.984996 254.028063)scale(0.18 -0.18)">
       <use xlink:href="#ArialMT-49"/>
       <use x="55.615234" xlink:href="#ArialMT-48"/>
       <use x="111.230469" xlink:href="#ArialMT-48"/>
       <use x="166.845703" xlink:href="#ArialMT-48"/>
      </g>
     </g>
    </g>
    <g id="xtick_3">
     <g id="line2d_3">
      <g>
       <use style="stroke:#000000;stroke-width:0.8;" x="440.663288" xlink:href="#mc11bf3e954" y="234.144"/>
      </g>
     </g>
     <g id="text_6">
      <!-- 2000 -->
      <defs>
       <path d="M 50.34375 8.453125 
L 50.34375 0 
L 3.03125 0 
Q 2.9375 3.171875 4.046875 6.109375 
Q 5.859375 10.9375 9.828125 15.625 
Q 13.8125 20.3125 21.34375 26.46875 
Q 33.015625 36.03125 37.109375 41.625 
Q 41.21875 47.21875 41.21875 52.203125 
Q 41.21875 57.421875 37.46875 61 
Q 33.734375 64.59375 27.734375 64.59375 
Q 21.390625 64.59375 17.578125 60.78125 
Q 13.765625 56.984375 13.71875 50.25 
L 4.6875 51.171875 
Q 5.609375 61.28125 11.65625 66.578125 
Q 17.71875 71.875 27.9375 71.875 
Q 38.234375 71.875 44.234375 66.15625 
Q 50.25 60.453125 50.25 52 
Q 50.25 47.703125 48.484375 43.546875 
Q 46.734375 39.40625 42.65625 34.8125 
Q 38.578125 30.21875 29.109375 22.21875 
Q 21.1875 15.578125 18.9375 13.203125 
Q 16.703125 10.84375 15.234375 8.453125 
z
" id="ArialMT-50"/>
      </defs>
      <g transform="translate(420.643913 254.028063)scale(0.18 -0.18)">
       <use xlink:href="#ArialMT-50"/>
       <use x="55.615234" xlink:href="#ArialMT-48"/>
       <use x="111.230469" xlink:href="#ArialMT-48"/>
       <use x="166.845703" xlink:href="#ArialMT-48"/>
      </g>
     </g>
    </g>
    <g id="xtick_4">
     <g id="line2d_4">
      <g>
       <use style="stroke:#000000;stroke-width:0.8;" x="508.322204" xlink:href="#mc11bf3e954" y="234.144"/>
      </g>
     </g>
     <g id="text_7">
      <!-- 3000 -->
      <defs>
       <path d="M 4.203125 18.890625 
L 12.984375 20.0625 
Q 14.5 12.59375 18.140625 9.296875 
Q 21.78125 6 27 6 
Q 33.203125 6 37.46875 10.296875 
Q 41.75 14.59375 41.75 20.953125 
Q 41.75 27 37.796875 30.921875 
Q 33.84375 34.859375 27.734375 34.859375 
Q 25.25 34.859375 21.53125 33.890625 
L 22.515625 41.609375 
Q 23.390625 41.5 23.921875 41.5 
Q 29.546875 41.5 34.03125 44.421875 
Q 38.53125 47.359375 38.53125 53.46875 
Q 38.53125 58.296875 35.25 61.46875 
Q 31.984375 64.65625 26.8125 64.65625 
Q 21.6875 64.65625 18.265625 61.421875 
Q 14.84375 58.203125 13.875 51.765625 
L 5.078125 53.328125 
Q 6.6875 62.15625 12.390625 67.015625 
Q 18.109375 71.875 26.609375 71.875 
Q 32.46875 71.875 37.390625 69.359375 
Q 42.328125 66.84375 44.9375 62.5 
Q 47.5625 58.15625 47.5625 53.265625 
Q 47.5625 48.640625 45.0625 44.828125 
Q 42.578125 41.015625 37.703125 38.765625 
Q 44.046875 37.3125 47.5625 32.6875 
Q 51.078125 28.078125 51.078125 21.140625 
Q 51.078125 11.765625 44.234375 5.25 
Q 37.40625 -1.265625 26.953125 -1.265625 
Q 17.53125 -1.265625 11.296875 4.34375 
Q 5.078125 9.96875 4.203125 18.890625 
z
" id="ArialMT-51"/>
      </defs>
      <g transform="translate(488.302829 254.028063)scale(0.18 -0.18)">
       <use xlink:href="#ArialMT-51"/>
       <use x="55.615234" xlink:href="#ArialMT-48"/>
       <use x="111.230469" xlink:href="#ArialMT-48"/>
       <use x="166.845703" xlink:href="#ArialMT-48"/>
      </g>
     </g>
    </g>
    <g id="text_8">
     <!-- # sample -->
     <defs>
      <path d="M 5.03125 -1.21875 
L 9.28125 19.578125 
L 1.03125 19.578125 
L 1.03125 26.859375 
L 10.75 26.859375 
L 14.359375 44.578125 
L 1.03125 44.578125 
L 1.03125 51.859375 
L 15.828125 51.859375 
L 20.0625 72.796875 
L 27.390625 72.796875 
L 23.140625 51.859375 
L 38.53125 51.859375 
L 42.78125 72.796875 
L 50.140625 72.796875 
L 45.90625 51.859375 
L 54.34375 51.859375 
L 54.34375 44.578125 
L 44.4375 44.578125 
L 40.765625 26.859375 
L 54.34375 26.859375 
L 54.34375 19.578125 
L 39.3125 19.578125 
L 35.0625 -1.21875 
L 27.734375 -1.21875 
L 31.9375 19.578125 
L 16.609375 19.578125 
L 12.359375 -1.21875 
z
M 18.0625 26.859375 
L 33.40625 26.859375 
L 37.0625 44.578125 
L 21.6875 44.578125 
z
" id="ArialMT-35"/>
      <path id="ArialMT-32"/>
      <path d="M 3.078125 15.484375 
L 11.765625 16.84375 
Q 12.5 11.625 15.84375 8.84375 
Q 19.1875 6.0625 25.203125 6.0625 
Q 31.25 6.0625 34.171875 8.515625 
Q 37.109375 10.984375 37.109375 14.3125 
Q 37.109375 17.28125 34.515625 19 
Q 32.71875 20.171875 25.53125 21.96875 
Q 15.875 24.421875 12.140625 26.203125 
Q 8.40625 27.984375 6.46875 31.125 
Q 4.546875 34.28125 4.546875 38.09375 
Q 4.546875 41.546875 6.125 44.5 
Q 7.71875 47.46875 10.453125 49.421875 
Q 12.5 50.921875 16.03125 51.96875 
Q 19.578125 53.03125 23.640625 53.03125 
Q 29.734375 53.03125 34.34375 51.265625 
Q 38.96875 49.515625 41.15625 46.5 
Q 43.359375 43.5 44.1875 38.484375 
L 35.59375 37.3125 
Q 35.015625 41.3125 32.203125 43.546875 
Q 29.390625 45.796875 24.265625 45.796875 
Q 18.21875 45.796875 15.625 43.796875 
Q 13.03125 41.796875 13.03125 39.109375 
Q 13.03125 37.40625 14.109375 36.03125 
Q 15.1875 34.625 17.484375 33.6875 
Q 18.796875 33.203125 25.25 31.453125 
Q 34.578125 28.953125 38.25 27.359375 
Q 41.9375 25.78125 44.03125 22.75 
Q 46.140625 19.734375 46.140625 15.234375 
Q 46.140625 10.84375 43.578125 6.953125 
Q 41.015625 3.078125 36.171875 0.953125 
Q 31.34375 -1.171875 25.25 -1.171875 
Q 15.140625 -1.171875 9.84375 3.03125 
Q 4.546875 7.234375 3.078125 15.484375 
z
" id="ArialMT-115"/>
      <path d="M 40.4375 6.390625 
Q 35.546875 2.25 31.03125 0.53125 
Q 26.515625 -1.171875 21.34375 -1.171875 
Q 12.796875 -1.171875 8.203125 3 
Q 3.609375 7.171875 3.609375 13.671875 
Q 3.609375 17.484375 5.34375 20.625 
Q 7.078125 23.78125 9.890625 25.6875 
Q 12.703125 27.59375 16.21875 28.5625 
Q 18.796875 29.25 24.03125 29.890625 
Q 34.671875 31.15625 39.703125 32.90625 
Q 39.75 34.71875 39.75 35.203125 
Q 39.75 40.578125 37.25 42.78125 
Q 33.890625 45.75 27.25 45.75 
Q 21.046875 45.75 18.09375 43.578125 
Q 15.140625 41.40625 13.71875 35.890625 
L 5.125 37.0625 
Q 6.296875 42.578125 8.984375 45.96875 
Q 11.671875 49.359375 16.75 51.1875 
Q 21.828125 53.03125 28.515625 53.03125 
Q 35.15625 53.03125 39.296875 51.46875 
Q 43.453125 49.90625 45.40625 47.53125 
Q 47.359375 45.171875 48.140625 41.546875 
Q 48.578125 39.3125 48.578125 33.453125 
L 48.578125 21.734375 
Q 48.578125 9.46875 49.140625 6.21875 
Q 49.703125 2.984375 51.375 0 
L 42.1875 0 
Q 40.828125 2.734375 40.4375 6.390625 
z
M 39.703125 26.03125 
Q 34.90625 24.078125 25.34375 22.703125 
Q 19.921875 21.921875 17.671875 20.9375 
Q 15.4375 19.96875 14.203125 18.09375 
Q 12.984375 16.21875 12.984375 13.921875 
Q 12.984375 10.40625 15.640625 8.0625 
Q 18.3125 5.71875 23.4375 5.71875 
Q 28.515625 5.71875 32.46875 7.9375 
Q 36.421875 10.15625 38.28125 14.015625 
Q 39.703125 17 39.703125 22.796875 
z
" id="ArialMT-97"/>
      <path d="M 6.59375 0 
L 6.59375 51.859375 
L 14.453125 51.859375 
L 14.453125 44.578125 
Q 16.890625 48.390625 20.9375 50.703125 
Q 25 53.03125 30.171875 53.03125 
Q 35.9375 53.03125 39.625 50.640625 
Q 43.3125 48.25 44.828125 43.953125 
Q 50.984375 53.03125 60.84375 53.03125 
Q 68.5625 53.03125 72.703125 48.75 
Q 76.859375 44.484375 76.859375 35.59375 
L 76.859375 0 
L 68.109375 0 
L 68.109375 32.671875 
Q 68.109375 37.9375 67.25 40.25 
Q 66.40625 42.578125 64.15625 43.984375 
Q 61.921875 45.40625 58.890625 45.40625 
Q 53.421875 45.40625 49.796875 41.765625 
Q 46.1875 38.140625 46.1875 30.125 
L 46.1875 0 
L 37.40625 0 
L 37.40625 33.6875 
Q 37.40625 39.546875 35.25 42.46875 
Q 33.109375 45.40625 28.21875 45.40625 
Q 24.515625 45.40625 21.359375 43.453125 
Q 18.21875 41.5 16.796875 37.734375 
Q 15.375 33.984375 15.375 26.90625 
L 15.375 0 
z
" id="ArialMT-109"/>
      <path d="M 6.59375 -19.875 
L 6.59375 51.859375 
L 14.59375 51.859375 
L 14.59375 45.125 
Q 17.4375 49.078125 21 51.046875 
Q 24.5625 53.03125 29.640625 53.03125 
Q 36.28125 53.03125 41.359375 49.609375 
Q 46.4375 46.1875 49.015625 39.953125 
Q 51.609375 33.734375 51.609375 26.3125 
Q 51.609375 18.359375 48.75 11.984375 
Q 45.90625 5.609375 40.453125 2.21875 
Q 35.015625 -1.171875 29 -1.171875 
Q 24.609375 -1.171875 21.109375 0.6875 
Q 17.625 2.546875 15.375 5.375 
L 15.375 -19.875 
z
M 14.546875 25.640625 
Q 14.546875 15.625 18.59375 10.84375 
Q 22.65625 6.0625 28.421875 6.0625 
Q 34.28125 6.0625 38.453125 11.015625 
Q 42.625 15.96875 42.625 26.375 
Q 42.625 36.28125 38.546875 41.203125 
Q 34.46875 46.140625 28.8125 46.140625 
Q 23.1875 46.140625 18.859375 40.890625 
Q 14.546875 35.640625 14.546875 25.640625 
z
" id="ArialMT-112"/>
      <path d="M 6.390625 0 
L 6.390625 71.578125 
L 15.1875 71.578125 
L 15.1875 0 
z
" id="ArialMT-108"/>
      <path d="M 42.09375 16.703125 
L 51.171875 15.578125 
Q 49.03125 7.625 43.21875 3.21875 
Q 37.40625 -1.171875 28.375 -1.171875 
Q 17 -1.171875 10.328125 5.828125 
Q 3.65625 12.84375 3.65625 25.484375 
Q 3.65625 38.578125 10.390625 45.796875 
Q 17.140625 53.03125 27.875 53.03125 
Q 38.28125 53.03125 44.875 45.953125 
Q 51.46875 38.875 51.46875 26.03125 
Q 51.46875 25.25 51.421875 23.6875 
L 12.75 23.6875 
Q 13.234375 15.140625 17.578125 10.59375 
Q 21.921875 6.0625 28.421875 6.0625 
Q 33.25 6.0625 36.671875 8.59375 
Q 40.09375 11.140625 42.09375 16.703125 
z
M 13.234375 30.90625 
L 42.1875 30.90625 
Q 41.609375 37.453125 38.875 40.71875 
Q 34.671875 45.796875 27.984375 45.796875 
Q 21.921875 45.796875 17.796875 41.75 
Q 13.671875 37.703125 13.234375 30.90625 
z
" id="ArialMT-101"/>
     </defs>
     <g transform="translate(370.283906 274.709)scale(0.18 -0.18)">
      <use xlink:href="#ArialMT-35"/>
      <use x="55.615234" xlink:href="#ArialMT-32"/>
      <use x="83.398438" xlink:href="#ArialMT-115"/>
      <use x="133.398438" xlink:href="#ArialMT-97"/>
      <use x="189.013672" xlink:href="#ArialMT-109"/>
      <use x="272.314453" xlink:href="#ArialMT-112"/>
      <use x="327.929688" xlink:href="#ArialMT-108"/>
      <use x="350.146484" xlink:href="#ArialMT-101"/>
     </g>
    </g>
   </g>
   <g id="matplotlib.axis_2">
    <g id="ytick_1">
     <g id="line2d_5">
      <defs>
       <path d="M 0 0 
L -3.5 0 
" id="m1120bea615" style="stroke:#000000;stroke-width:0.8;"/>
      </defs>
      <g>
       <use style="stroke:#000000;stroke-width:0.8;" x="295.2" xlink:href="#m1120bea615" y="228.213818"/>
      </g>
     </g>
     <g id="text_9">
      <!-- 0.0 -->
      <defs>
       <path d="M 9.078125 0 
L 9.078125 10.015625 
L 19.09375 10.015625 
L 19.09375 0 
z
" id="ArialMT-46"/>
      </defs>
      <g transform="translate(263.18 234.655849)scale(0.18 -0.18)">
       <use xlink:href="#ArialMT-48"/>
       <use x="55.615234" xlink:href="#ArialMT-46"/>
       <use x="83.398438" xlink:href="#ArialMT-48"/>
      </g>
     </g>
    </g>
    <g id="ytick_2">
     <g id="line2d_6">
      <g>
       <use style="stroke:#000000;stroke-width:0.8;" x="295.2" xlink:href="#m1120bea615" y="168.912"/>
      </g>
     </g>
     <g id="text_10">
      <!-- 0.5 -->
      <defs>
       <path d="M 4.15625 18.75 
L 13.375 19.53125 
Q 14.40625 12.796875 18.140625 9.390625 
Q 21.875 6 27.15625 6 
Q 33.5 6 37.890625 10.78125 
Q 42.28125 15.578125 42.28125 23.484375 
Q 42.28125 31 38.0625 35.34375 
Q 33.84375 39.703125 27 39.703125 
Q 22.75 39.703125 19.328125 37.765625 
Q 15.921875 35.84375 13.96875 32.765625 
L 5.71875 33.84375 
L 12.640625 70.609375 
L 48.25 70.609375 
L 48.25 62.203125 
L 19.671875 62.203125 
L 15.828125 42.96875 
Q 22.265625 47.46875 29.34375 47.46875 
Q 38.71875 47.46875 45.15625 40.96875 
Q 51.609375 34.46875 51.609375 24.265625 
Q 51.609375 14.546875 45.953125 7.46875 
Q 39.0625 -1.21875 27.15625 -1.21875 
Q 17.390625 -1.21875 11.203125 4.25 
Q 5.03125 9.71875 4.15625 18.75 
z
" id="ArialMT-53"/>
      </defs>
      <g transform="translate(263.18 175.354031)scale(0.18 -0.18)">
       <use xlink:href="#ArialMT-48"/>
       <use x="55.615234" xlink:href="#ArialMT-46"/>
       <use x="83.398438" xlink:href="#ArialMT-53"/>
      </g>
     </g>
    </g>
    <g id="ytick_3">
     <g id="line2d_7">
      <g>
       <use style="stroke:#000000;stroke-width:0.8;" x="295.2" xlink:href="#m1120bea615" y="109.610182"/>
      </g>
     </g>
     <g id="text_11">
      <!-- 1.0 -->
      <g transform="translate(263.18 116.052213)scale(0.18 -0.18)">
       <use xlink:href="#ArialMT-49"/>
       <use x="55.615234" xlink:href="#ArialMT-46"/>
       <use x="83.398438" xlink:href="#ArialMT-48"/>
      </g>
     </g>
    </g>
    <g id="text_12">
     <!-- time course -->
     <defs>
      <path d="M 25.78125 7.859375 
L 27.046875 0.09375 
Q 23.34375 -0.6875 20.40625 -0.6875 
Q 15.625 -0.6875 12.984375 0.828125 
Q 10.359375 2.34375 9.28125 4.8125 
Q 8.203125 7.28125 8.203125 15.1875 
L 8.203125 45.015625 
L 1.765625 45.015625 
L 1.765625 51.859375 
L 8.203125 51.859375 
L 8.203125 64.703125 
L 16.9375 69.96875 
L 16.9375 51.859375 
L 25.78125 51.859375 
L 25.78125 45.015625 
L 16.9375 45.015625 
L 16.9375 14.703125 
Q 16.9375 10.9375 17.40625 9.859375 
Q 17.875 8.796875 18.921875 8.15625 
Q 19.96875 7.515625 21.921875 7.515625 
Q 23.390625 7.515625 25.78125 7.859375 
z
" id="ArialMT-116"/>
      <path d="M 6.640625 61.46875 
L 6.640625 71.578125 
L 15.4375 71.578125 
L 15.4375 61.46875 
z
M 6.640625 0 
L 6.640625 51.859375 
L 15.4375 51.859375 
L 15.4375 0 
z
" id="ArialMT-105"/>
      <path d="M 40.4375 19 
L 49.078125 17.875 
Q 47.65625 8.9375 41.8125 3.875 
Q 35.984375 -1.171875 27.484375 -1.171875 
Q 16.84375 -1.171875 10.375 5.78125 
Q 3.90625 12.75 3.90625 25.734375 
Q 3.90625 34.125 6.6875 40.421875 
Q 9.46875 46.734375 15.15625 49.875 
Q 20.84375 53.03125 27.546875 53.03125 
Q 35.984375 53.03125 41.359375 48.75 
Q 46.734375 44.484375 48.25 36.625 
L 39.703125 35.296875 
Q 38.484375 40.53125 35.375 43.15625 
Q 32.28125 45.796875 27.875 45.796875 
Q 21.234375 45.796875 17.078125 41.03125 
Q 12.9375 36.28125 12.9375 25.984375 
Q 12.9375 15.53125 16.9375 10.796875 
Q 20.953125 6.0625 27.390625 6.0625 
Q 32.5625 6.0625 36.03125 9.234375 
Q 39.5 12.40625 40.4375 19 
z
" id="ArialMT-99"/>
      <path d="M 3.328125 25.921875 
Q 3.328125 40.328125 11.328125 47.265625 
Q 18.015625 53.03125 27.640625 53.03125 
Q 38.328125 53.03125 45.109375 46.015625 
Q 51.90625 39.015625 51.90625 26.65625 
Q 51.90625 16.65625 48.90625 10.90625 
Q 45.90625 5.171875 40.15625 2 
Q 34.421875 -1.171875 27.640625 -1.171875 
Q 16.75 -1.171875 10.03125 5.8125 
Q 3.328125 12.796875 3.328125 25.921875 
z
M 12.359375 25.921875 
Q 12.359375 15.96875 16.703125 11.015625 
Q 21.046875 6.0625 27.640625 6.0625 
Q 34.1875 6.0625 38.53125 11.03125 
Q 42.875 16.015625 42.875 26.21875 
Q 42.875 35.84375 38.5 40.796875 
Q 34.125 45.75 27.640625 45.75 
Q 21.046875 45.75 16.703125 40.8125 
Q 12.359375 35.890625 12.359375 25.921875 
z
" id="ArialMT-111"/>
      <path d="M 40.578125 0 
L 40.578125 7.625 
Q 34.515625 -1.171875 24.125 -1.171875 
Q 19.53125 -1.171875 15.546875 0.578125 
Q 11.578125 2.34375 9.640625 5 
Q 7.71875 7.671875 6.9375 11.53125 
Q 6.390625 14.109375 6.390625 19.734375 
L 6.390625 51.859375 
L 15.1875 51.859375 
L 15.1875 23.09375 
Q 15.1875 16.21875 15.71875 13.8125 
Q 16.546875 10.359375 19.234375 8.375 
Q 21.921875 6.390625 25.875 6.390625 
Q 29.828125 6.390625 33.296875 8.421875 
Q 36.765625 10.453125 38.203125 13.9375 
Q 39.65625 17.4375 39.65625 24.078125 
L 39.65625 51.859375 
L 48.4375 51.859375 
L 48.4375 0 
z
" id="ArialMT-117"/>
      <path d="M 6.5 0 
L 6.5 51.859375 
L 14.40625 51.859375 
L 14.40625 44 
Q 17.4375 49.515625 20 51.265625 
Q 22.5625 53.03125 25.640625 53.03125 
Q 30.078125 53.03125 34.671875 50.203125 
L 31.640625 42.046875 
Q 28.421875 43.953125 25.203125 43.953125 
Q 22.3125 43.953125 20.015625 42.21875 
Q 17.71875 40.484375 16.75 37.40625 
Q 15.28125 32.71875 15.28125 27.15625 
L 15.28125 0 
z
" id="ArialMT-114"/>
     </defs>
     <g transform="translate(255.6025 215.425125)rotate(-90)scale(0.18 -0.18)">
      <use xlink:href="#ArialMT-116"/>
      <use x="27.783203" xlink:href="#ArialMT-105"/>
      <use x="50" xlink:href="#ArialMT-109"/>
      <use x="133.300781" xlink:href="#ArialMT-101"/>
      <use x="188.916016" xlink:href="#ArialMT-32"/>
      <use x="216.699219" xlink:href="#ArialMT-99"/>
      <use x="266.699219" xlink:href="#ArialMT-111"/>
      <use x="322.314453" xlink:href="#ArialMT-117"/>
      <use x="377.929688" xlink:href="#ArialMT-114"/>
      <use x="411.230469" xlink:href="#ArialMT-115"/>
      <use x="461.230469" xlink:href="#ArialMT-101"/>
     </g>
    </g>
   </g>
   <g id="line2d_8">
    <path clip-path="url(#paa1e3f81df)" d="M 305.345455 109.610182 
L 307.307563 109.610182 
L 307.375222 228.213818 
L 307.51054 109.610182 
L 307.645858 228.213818 
L 307.781176 109.610182 
L 307.848834 109.610182 
L 307.984152 228.213818 
L 312.381982 228.213818 
L 312.5173 109.610182 
L 313.396866 109.610182 
L 313.532183 228.213818 
L 313.667501 109.610182 
L 315.223656 109.610182 
L 315.358974 228.213818 
L 316.23854 228.213818 
L 316.373858 109.610182 
L 316.712153 109.610182 
L 316.84747 228.213818 
L 319.147874 228.213818 
L 319.283191 109.610182 
L 319.418509 109.610182 
L 319.553827 228.213818 
L 319.689145 228.213818 
L 319.824463 109.610182 
L 322.733796 109.610182 
L 322.869114 228.213818 
L 326.25206 228.213818 
L 326.319719 109.610182 
L 326.455037 228.213818 
L 326.522695 228.213818 
L 326.658013 109.610182 
L 329.093734 109.610182 
L 329.229052 228.213818 
L 329.635006 228.213818 
L 329.770323 109.610182 
L 329.905641 228.213818 
L 332.138386 228.213818 
L 332.273703 109.610182 
L 332.409021 228.213818 
L 334.506448 228.213818 
L 334.641765 109.610182 
L 337.48344 109.610182 
L 337.618758 228.213818 
L 337.889393 228.213818 
L 337.957052 109.610182 
L 338.024711 228.213818 
L 338.160029 109.610182 
L 338.295347 228.213818 
L 341.542975 228.213818 
L 341.678293 109.610182 
L 344.587626 109.610182 
L 344.722944 228.213818 
L 347.902913 228.213818 
L 348.038231 109.610182 
L 348.10589 109.610182 
L 348.173549 228.213818 
L 348.241208 109.610182 
L 348.376526 228.213818 
L 348.71482 228.213818 
L 348.850138 109.610182 
L 351.82713 109.610182 
L 351.962448 228.213818 
L 353.789239 228.213818 
L 353.924557 109.610182 
L 354.059875 228.213818 
L 356.427937 228.213818 
L 356.495596 109.610182 
L 356.630913 228.213818 
L 356.698572 109.610182 
L 356.83389 228.213818 
L 356.969208 228.213818 
L 357.104526 109.610182 
L 359.810882 109.610182 
L 359.9462 228.213818 
L 363.396805 228.213818 
L 363.532123 109.610182 
L 366.373797 109.610182 
L 366.441456 228.213818 
L 366.576774 109.610182 
L 366.644433 109.610182 
L 366.779751 228.213818 
L 366.84741 228.213818 
L 366.915069 109.610182 
L 366.982728 228.213818 
L 367.050386 109.610182 
L 367.185704 228.213818 
L 369.418449 228.213818 
L 369.553766 109.610182 
L 369.756743 109.610182 
L 369.892061 228.213818 
L 371.245239 228.213818 
L 371.380557 109.610182 
L 373.883937 109.610182 
L 374.019255 228.213818 
L 377.808154 228.213818 
L 377.943472 109.610182 
L 378.214108 109.610182 
L 378.349426 228.213818 
L 378.484743 109.610182 
L 381.394077 109.610182 
L 381.529395 228.213818 
L 381.597054 228.213818 
L 381.732371 109.610182 
L 381.867689 228.213818 
L 381.935348 109.610182 
L 382.070666 228.213818 
L 385.047658 228.213818 
L 385.182976 109.610182 
L 388.227627 109.610182 
L 388.362945 228.213818 
L 391.20462 228.213818 
L 391.272279 109.610182 
L 391.407596 228.213818 
L 391.542914 109.610182 
L 391.610573 228.213818 
L 391.678232 109.610182 
L 391.81355 228.213818 
L 391.948868 228.213818 
L 392.084186 109.610182 
L 395.737767 109.610182 
L 395.873085 228.213818 
L 396.549674 228.213818 
L 396.684992 109.610182 
L 397.023287 109.610182 
L 397.158604 228.213818 
L 400.135597 228.213818 
L 400.270915 109.610182 
L 403.518543 109.610182 
L 403.65386 228.213818 
L 403.721519 109.610182 
L 403.856837 228.213818 
L 406.630853 228.213818 
L 406.698512 109.610182 
L 406.766171 228.213818 
L 406.833829 109.610182 
L 406.901488 228.213818 
L 407.036806 109.610182 
L 407.172124 228.213818 
L 407.307442 109.610182 
L 410.149116 109.610182 
L 410.284434 228.213818 
L 410.419752 228.213818 
L 410.487411 109.610182 
L 410.622729 228.213818 
L 410.690388 228.213818 
L 410.758047 109.610182 
L 410.893364 228.213818 
L 413.329085 228.213818 
L 413.464403 109.610182 
L 413.66738 109.610182 
L 413.802698 228.213818 
L 415.020558 228.213818 
L 415.155876 109.610182 
L 416.712031 109.610182 
L 416.847349 228.213818 
L 416.915008 228.213818 
L 417.050326 109.610182 
L 417.726915 109.610182 
L 417.862233 228.213818 
L 422.327721 228.213818 
L 422.463039 109.610182 
L 425.034078 109.610182 
L 425.169396 228.213818 
L 428.890636 228.213818 
L 429.025954 109.610182 
L 429.161272 228.213818 
L 429.431908 228.213818 
L 429.567225 109.610182 
L 432.273582 109.610182 
L 432.4089 228.213818 
L 432.544218 228.213818 
L 432.611877 109.610182 
L 432.747195 228.213818 
L 435.656528 228.213818 
L 435.791846 109.610182 
L 438.701179 109.610182 
L 438.768838 228.213818 
L 438.904156 109.610182 
L 438.971815 228.213818 
L 439.039474 109.610182 
L 439.174792 228.213818 
L 439.310109 109.610182 
L 439.377768 109.610182 
L 439.513086 228.213818 
L 443.978575 228.213818 
L 444.113893 109.610182 
L 444.24921 228.213818 
L 444.519846 228.213818 
L 444.655164 109.610182 
L 447.361521 109.610182 
L 447.496838 228.213818 
L 451.082761 228.213818 
L 451.218079 109.610182 
L 454.26273 109.610182 
L 454.330389 228.213818 
L 454.398048 109.610182 
L 454.533366 228.213818 
L 454.668684 228.213818 
L 454.804001 109.610182 
L 454.939319 228.213818 
L 457.37504 228.213818 
L 457.510358 109.610182 
L 457.916311 109.610182 
L 458.051629 228.213818 
L 458.389924 228.213818 
L 458.525242 109.610182 
L 460.825645 109.610182 
L 460.960963 228.213818 
L 461.366916 228.213818 
L 461.502234 109.610182 
L 461.569893 109.610182 
L 461.705211 228.213818 
L 464.073273 228.213818 
L 464.208591 109.610182 
L 464.343909 228.213818 
L 466.170699 228.213818 
L 466.306017 109.610182 
L 468.741738 109.610182 
L 468.877056 228.213818 
L 473.071909 228.213818 
L 473.139568 109.610182 
L 473.207227 228.213818 
L 473.342544 109.610182 
L 476.184219 109.610182 
L 476.319537 228.213818 
L 476.522514 228.213818 
L 476.590172 109.610182 
L 476.657831 228.213818 
L 476.793149 109.610182 
L 476.928467 228.213818 
L 479.8378 228.213818 
L 479.973118 109.610182 
L 483.085428 109.610182 
L 483.220746 228.213818 
L 486.13008 228.213818 
L 486.197739 109.610182 
L 486.333056 228.213818 
L 486.400715 228.213818 
L 486.468374 109.610182 
L 486.603692 228.213818 
L 486.73901 228.213818 
L 486.874328 109.610182 
L 490.257274 109.610182 
L 490.392591 228.213818 
L 491.542793 228.213818 
L 491.678111 109.610182 
L 491.881088 109.610182 
L 492.016405 228.213818 
L 494.655103 228.213818 
L 494.722762 109.610182 
L 494.85808 228.213818 
L 494.993398 228.213818 
L 495.128716 109.610182 
L 498.308685 109.610182 
L 498.444003 228.213818 
L 501.488654 228.213818 
L 501.623972 109.610182 
L 501.691631 228.213818 
L 501.826948 109.610182 
L 501.962266 228.213818 
L 502.029925 228.213818 
L 502.097584 109.610182 
L 502.165243 228.213818 
L 502.300561 109.610182 
L 505.006917 109.610182 
L 505.142235 228.213818 
L 505.412871 228.213818 
L 505.48053 109.610182 
L 505.548189 228.213818 
L 505.683507 109.610182 
L 505.818824 228.213818 
L 508.186887 228.213818 
L 508.254545 109.610182 
L 508.254545 109.610182 
" style="fill:none;stroke:#1f77b4;stroke-linecap:square;stroke-width:1.5;"/>
   </g>
   <g id="patch_6">
    <path d="M 295.2 234.144 
L 295.2 103.68 
" style="fill:none;stroke:#000000;stroke-linecap:square;stroke-linejoin:miter;stroke-width:0.8;"/>
   </g>
   <g id="patch_7">
    <path d="M 518.4 234.144 
L 518.4 103.68 
" style="fill:none;stroke:#000000;stroke-linecap:square;stroke-linejoin:miter;stroke-width:0.8;"/>
   </g>
   <g id="patch_8">
    <path d="M 295.2 234.144 
L 518.4 234.144 
" style="fill:none;stroke:#000000;stroke-linecap:square;stroke-linejoin:miter;stroke-width:0.8;"/>
   </g>
   <g id="patch_9">
    <path d="M 295.2 103.68 
L 518.4 103.68 
" style="fill:none;stroke:#000000;stroke-linecap:square;stroke-linejoin:miter;stroke-width:0.8;"/>
   </g>
   <g id="text_13">
    <!-- State 1 -->
    <defs>
     <path d="M 4.5 23 
L 13.421875 23.78125 
Q 14.0625 18.40625 16.375 14.96875 
Q 18.703125 11.53125 23.578125 9.40625 
Q 28.46875 7.28125 34.578125 7.28125 
Q 39.984375 7.28125 44.140625 8.890625 
Q 48.296875 10.5 50.3125 13.296875 
Q 52.34375 16.109375 52.34375 19.4375 
Q 52.34375 22.796875 50.390625 25.3125 
Q 48.4375 27.828125 43.953125 29.546875 
Q 41.0625 30.671875 31.203125 33.03125 
Q 21.34375 35.40625 17.390625 37.5 
Q 12.25 40.1875 9.734375 44.15625 
Q 7.234375 48.140625 7.234375 53.078125 
Q 7.234375 58.5 10.296875 63.203125 
Q 13.375 67.921875 19.28125 70.359375 
Q 25.203125 72.796875 32.421875 72.796875 
Q 40.375 72.796875 46.453125 70.234375 
Q 52.546875 67.671875 55.8125 62.6875 
Q 59.078125 57.71875 59.328125 51.421875 
L 50.25 50.734375 
Q 49.515625 57.515625 45.28125 60.984375 
Q 41.0625 64.453125 32.8125 64.453125 
Q 24.21875 64.453125 20.28125 61.296875 
Q 16.359375 58.15625 16.359375 53.71875 
Q 16.359375 49.859375 19.140625 47.359375 
Q 21.875 44.875 33.421875 42.265625 
Q 44.96875 39.65625 49.265625 37.703125 
Q 55.515625 34.8125 58.484375 30.390625 
Q 61.46875 25.984375 61.46875 20.21875 
Q 61.46875 14.5 58.203125 9.4375 
Q 54.9375 4.390625 48.796875 1.578125 
Q 42.671875 -1.21875 35.015625 -1.21875 
Q 25.296875 -1.21875 18.71875 1.609375 
Q 12.15625 4.4375 8.421875 10.125 
Q 4.6875 15.828125 4.5 23 
z
" id="ArialMT-83"/>
    </defs>
    <g transform="translate(372.5775 97.68)scale(0.216 -0.216)">
     <use xlink:href="#ArialMT-83"/>
     <use x="66.699219" xlink:href="#ArialMT-116"/>
     <use x="94.482422" xlink:href="#ArialMT-97"/>
     <use x="150.097656" xlink:href="#ArialMT-116"/>
     <use x="177.880859" xlink:href="#ArialMT-101"/>
     <use x="233.496094" xlink:href="#ArialMT-32"/>
     <use x="261.279297" xlink:href="#ArialMT-49"/>
    </g>
   </g>
  </g>
  <g id="axes_3">
   <g id="patch_10">
    <path clip-path="url(#p28563f35f4)" d="M 183.6 385.764324 
Q 164.723779 423.516765 145.847559 461.269206 
" style="fill:none;stroke:#ff8282;stroke-linecap:round;stroke-width:4;"/>
   </g>
   <g id="patch_11">
    <path clip-path="url(#p28563f35f4)" d="M 183.6 385.764324 
Q 202.476221 423.516765 221.352441 461.269206 
" style="fill:none;stroke:#8484ff;stroke-linecap:round;stroke-width:4;"/>
   </g>
   <g id="patch_12">
    <path clip-path="url(#p28563f35f4)" d="M 139.524324 473.915676 
Q 176.528899 473.915676 213.533474 473.915676 
" style="fill:none;stroke:#7e7eff;stroke-linecap:round;stroke-width:4;"/>
   </g>
   <g id="PathCollection_2">
    <path clip-path="url(#p28563f35f4)" d="M 183.6 399.90646 
C 187.350538 399.90646 190.947969 398.416355 193.6 395.764324 
C 196.252031 393.112293 197.742136 389.514863 197.742136 385.764324 
C 197.742136 382.013786 196.252031 378.416355 193.6 375.764324 
C 190.947969 373.112293 187.350538 371.622189 183.6 371.622189 
C 179.849462 371.622189 176.252031 373.112293 173.6 375.764324 
C 170.947969 378.416355 169.457864 382.013786 169.457864 385.764324 
C 169.457864 389.514863 170.947969 393.112293 173.6 395.764324 
C 176.252031 398.416355 179.849462 399.90646 183.6 399.90646 
z
" style="fill:#0000ff;stroke:#0000ff;"/>
    <path clip-path="url(#p28563f35f4)" d="M 139.524324 488.057811 
C 143.274863 488.057811 146.872293 486.567707 149.524324 483.915676 
C 152.176355 481.263645 153.66646 477.666214 153.66646 473.915676 
C 153.66646 470.165137 152.176355 466.567707 149.524324 463.915676 
C 146.872293 461.263645 143.274863 459.77354 139.524324 459.77354 
C 135.773786 459.77354 132.176355 461.263645 129.524324 463.915676 
C 126.872293 466.567707 125.382189 470.165137 125.382189 473.915676 
C 125.382189 477.666214 126.872293 481.263645 129.524324 483.915676 
C 132.176355 486.567707 135.773786 488.057811 139.524324 488.057811 
z
" style="fill:#0000ff;stroke:#0000ff;"/>
    <path clip-path="url(#p28563f35f4)" d="M 227.675676 488.057811 
C 231.426214 488.057811 235.023645 486.567707 237.675676 483.915676 
C 240.327707 481.263645 241.817811 477.666214 241.817811 473.915676 
C 241.817811 470.165137 240.327707 466.567707 237.675676 463.915676 
C 235.023645 461.263645 231.426214 459.77354 227.675676 459.77354 
C 223.925137 459.77354 220.327707 461.263645 217.675676 463.915676 
C 215.023645 466.567707 213.53354 470.165137 213.53354 473.915676 
C 213.53354 477.666214 215.023645 481.263645 217.675676 483.915676 
C 220.327707 486.567707 223.925137 488.057811 227.675676 488.057811 
z
" style="fill:#0000ff;stroke:#0000ff;"/>
   </g>
   <g id="text_14">
    <g clip-path="url(#p28563f35f4)">
     <!-- 1 -->
     <g style="fill:#ffffff;" transform="translate(178.828125 389.903387)scale(0.15 -0.15)">
      <use xlink:href="#DejaVuSans-49"/>
     </g>
    </g>
   </g>
   <g id="text_15">
    <g clip-path="url(#p28563f35f4)">
     <!-- 2 -->
     <g style="fill:#ffffff;" transform="translate(134.752449 478.054738)scale(0.15 -0.15)">
      <use xlink:href="#DejaVuSans-50"/>
     </g>
    </g>
   </g>
   <g id="text_16">
    <g clip-path="url(#p28563f35f4)">
     <!-- 3 -->
     <g style="fill:#ffffff;" transform="translate(222.903801 478.054738)scale(0.15 -0.15)">
      <use xlink:href="#DejaVuSans-51"/>
     </g>
    </g>
   </g>
  </g>
  <g id="axes_4">
   <g id="patch_13">
    <path d="M 295.2 495.072 
L 518.4 495.072 
L 518.4 364.608 
L 295.2 364.608 
z
" style="fill:#ffffff;"/>
   </g>
   <g id="matplotlib.axis_3">
    <g id="xtick_5">
     <g id="line2d_9">
      <g>
       <use style="stroke:#000000;stroke-width:0.8;" x="305.345455" xlink:href="#mc11bf3e954" y="495.072"/>
      </g>
     </g>
     <g id="text_17">
      <!-- 0 -->
      <g transform="translate(300.340611 514.956062)scale(0.18 -0.18)">
       <use xlink:href="#ArialMT-48"/>
      </g>
     </g>
    </g>
    <g id="xtick_6">
     <g id="line2d_10">
      <g>
       <use style="stroke:#000000;stroke-width:0.8;" x="373.004371" xlink:href="#mc11bf3e954" y="495.072"/>
      </g>
     </g>
     <g id="text_18">
      <!-- 1000 -->
      <g transform="translate(352.984996 514.956062)scale(0.18 -0.18)">
       <use xlink:href="#ArialMT-49"/>
       <use x="55.615234" xlink:href="#ArialMT-48"/>
       <use x="111.230469" xlink:href="#ArialMT-48"/>
       <use x="166.845703" xlink:href="#ArialMT-48"/>
      </g>
     </g>
    </g>
    <g id="xtick_7">
     <g id="line2d_11">
      <g>
       <use style="stroke:#000000;stroke-width:0.8;" x="440.663288" xlink:href="#mc11bf3e954" y="495.072"/>
      </g>
     </g>
     <g id="text_19">
      <!-- 2000 -->
      <g transform="translate(420.643913 514.956062)scale(0.18 -0.18)">
       <use xlink:href="#ArialMT-50"/>
       <use x="55.615234" xlink:href="#ArialMT-48"/>
       <use x="111.230469" xlink:href="#ArialMT-48"/>
       <use x="166.845703" xlink:href="#ArialMT-48"/>
      </g>
     </g>
    </g>
    <g id="xtick_8">
     <g id="line2d_12">
      <g>
       <use style="stroke:#000000;stroke-width:0.8;" x="508.322204" xlink:href="#mc11bf3e954" y="495.072"/>
      </g>
     </g>
     <g id="text_20">
      <!-- 3000 -->
      <g transform="translate(488.302829 514.956062)scale(0.18 -0.18)">
       <use xlink:href="#ArialMT-51"/>
       <use x="55.615234" xlink:href="#ArialMT-48"/>
       <use x="111.230469" xlink:href="#ArialMT-48"/>
       <use x="166.845703" xlink:href="#ArialMT-48"/>
      </g>
     </g>
    </g>
    <g id="text_21">
     <!-- # sample -->
     <g transform="translate(370.283906 535.637)scale(0.18 -0.18)">
      <use xlink:href="#ArialMT-35"/>
      <use x="55.615234" xlink:href="#ArialMT-32"/>
      <use x="83.398438" xlink:href="#ArialMT-115"/>
      <use x="133.398438" xlink:href="#ArialMT-97"/>
      <use x="189.013672" xlink:href="#ArialMT-109"/>
      <use x="272.314453" xlink:href="#ArialMT-112"/>
      <use x="327.929688" xlink:href="#ArialMT-108"/>
      <use x="350.146484" xlink:href="#ArialMT-101"/>
     </g>
    </g>
   </g>
   <g id="matplotlib.axis_4">
    <g id="ytick_4">
     <g id="line2d_13">
      <g>
       <use style="stroke:#000000;stroke-width:0.8;" x="295.2" xlink:href="#m1120bea615" y="489.141818"/>
      </g>
     </g>
     <g id="text_22">
      <!-- 0.0 -->
      <g transform="translate(263.18 495.583849)scale(0.18 -0.18)">
       <use xlink:href="#ArialMT-48"/>
       <use x="55.615234" xlink:href="#ArialMT-46"/>
       <use x="83.398438" xlink:href="#ArialMT-48"/>
      </g>
     </g>
    </g>
    <g id="ytick_5">
     <g id="line2d_14">
      <g>
       <use style="stroke:#000000;stroke-width:0.8;" x="295.2" xlink:href="#m1120bea615" y="429.84"/>
      </g>
     </g>
     <g id="text_23">
      <!-- 0.5 -->
      <g transform="translate(263.18 436.282031)scale(0.18 -0.18)">
       <use xlink:href="#ArialMT-48"/>
       <use x="55.615234" xlink:href="#ArialMT-46"/>
       <use x="83.398438" xlink:href="#ArialMT-53"/>
      </g>
     </g>
    </g>
    <g id="ytick_6">
     <g id="line2d_15">
      <g>
       <use style="stroke:#000000;stroke-width:0.8;" x="295.2" xlink:href="#m1120bea615" y="370.538182"/>
      </g>
     </g>
     <g id="text_24">
      <!-- 1.0 -->
      <g transform="translate(263.18 376.980213)scale(0.18 -0.18)">
       <use xlink:href="#ArialMT-49"/>
       <use x="55.615234" xlink:href="#ArialMT-46"/>
       <use x="83.398438" xlink:href="#ArialMT-48"/>
      </g>
     </g>
    </g>
    <g id="text_25">
     <!-- time course -->
     <g transform="translate(255.6025 476.353125)rotate(-90)scale(0.18 -0.18)">
      <use xlink:href="#ArialMT-116"/>
      <use x="27.783203" xlink:href="#ArialMT-105"/>
      <use x="50" xlink:href="#ArialMT-109"/>
      <use x="133.300781" xlink:href="#ArialMT-101"/>
      <use x="188.916016" xlink:href="#ArialMT-32"/>
      <use x="216.699219" xlink:href="#ArialMT-99"/>
      <use x="266.699219" xlink:href="#ArialMT-111"/>
      <use x="322.314453" xlink:href="#ArialMT-117"/>
      <use x="377.929688" xlink:href="#ArialMT-114"/>
      <use x="411.230469" xlink:href="#ArialMT-115"/>
      <use x="461.230469" xlink:href="#ArialMT-101"/>
     </g>
    </g>
   </g>
   <g id="line2d_16">
    <path clip-path="url(#p812b39000a)" d="M 305.345455 489.141818 
L 307.307563 489.141818 
L 307.375222 370.538182 
L 307.51054 489.141818 
L 307.645858 370.538182 
L 307.781176 489.141818 
L 307.848834 489.141818 
L 307.984152 370.538182 
L 310.961145 370.538182 
L 311.096462 489.141818 
L 311.164121 489.141818 
L 311.299439 370.538182 
L 311.773052 370.538182 
L 311.908369 489.141818 
L 315.223656 489.141818 
L 315.358974 370.538182 
L 316.23854 370.538182 
L 316.373858 489.141818 
L 332.273703 489.141818 
L 332.409021 370.538182 
L 333.897517 370.538182 
L 334.032835 489.141818 
L 334.37113 489.141818 
L 334.506448 370.538182 
L 334.641765 489.141818 
L 337.48344 489.141818 
L 337.618758 370.538182 
L 337.889393 370.538182 
L 337.957052 489.141818 
L 338.024711 370.538182 
L 338.160029 489.141818 
L 338.295347 370.538182 
L 341.542975 370.538182 
L 341.678293 489.141818 
L 344.587626 489.141818 
L 344.722944 370.538182 
L 347.902913 370.538182 
L 348.038231 489.141818 
L 348.10589 489.141818 
L 348.173549 370.538182 
L 348.241208 489.141818 
L 348.376526 370.538182 
L 348.71482 370.538182 
L 348.850138 489.141818 
L 351.82713 489.141818 
L 351.962448 370.538182 
L 352.165425 370.538182 
L 352.300743 489.141818 
L 352.436061 370.538182 
L 353.789239 370.538182 
L 353.924557 489.141818 
L 369.756743 489.141818 
L 369.892061 370.538182 
L 371.245239 370.538182 
L 371.380557 489.141818 
L 374.425208 489.141818 
L 374.560526 370.538182 
L 374.695844 370.538182 
L 374.831162 489.141818 
L 375.440092 489.141818 
L 375.57541 370.538182 
L 377.808154 370.538182 
L 377.943472 489.141818 
L 378.214108 489.141818 
L 378.349426 370.538182 
L 378.484743 489.141818 
L 381.394077 489.141818 
L 381.529395 370.538182 
L 381.597054 370.538182 
L 381.732371 489.141818 
L 381.867689 370.538182 
L 381.935348 489.141818 
L 382.070666 370.538182 
L 385.047658 370.538182 
L 385.182976 489.141818 
L 388.227627 489.141818 
L 388.362945 370.538182 
L 391.20462 370.538182 
L 391.272279 489.141818 
L 391.407596 370.538182 
L 391.542914 489.141818 
L 391.610573 370.538182 
L 391.678232 489.141818 
L 391.81355 370.538182 
L 391.948868 370.538182 
L 392.084186 489.141818 
L 395.737767 489.141818 
L 395.873085 370.538182 
L 396.549674 370.538182 
L 396.684992 489.141818 
L 413.66738 489.141818 
L 413.802698 370.538182 
L 415.020558 370.538182 
L 415.155876 489.141818 
L 416.847349 489.141818 
L 416.915008 370.538182 
L 417.050326 489.141818 
L 419.824341 489.141818 
L 419.959659 370.538182 
L 421.718791 370.538182 
L 421.854109 489.141818 
L 422.192404 489.141818 
L 422.327721 370.538182 
L 422.463039 489.141818 
L 425.304714 489.141818 
L 425.440032 370.538182 
L 425.845985 370.538182 
L 425.913644 489.141818 
L 426.048962 370.538182 
L 428.890636 370.538182 
L 429.025954 489.141818 
L 429.161272 370.538182 
L 429.431908 370.538182 
L 429.567225 489.141818 
L 432.273582 489.141818 
L 432.4089 370.538182 
L 432.544218 370.538182 
L 432.611877 489.141818 
L 432.747195 370.538182 
L 435.656528 370.538182 
L 435.791846 489.141818 
L 438.701179 489.141818 
L 438.768838 370.538182 
L 438.904156 489.141818 
L 438.971815 370.538182 
L 439.039474 489.141818 
L 439.174792 370.538182 
L 439.310109 489.141818 
L 439.377768 489.141818 
L 439.513086 370.538182 
L 441.678172 370.538182 
L 441.813489 489.141818 
L 457.916311 489.141818 
L 458.051629 370.538182 
L 458.389924 370.538182 
L 458.525242 489.141818 
L 461.299257 489.141818 
L 461.366916 370.538182 
L 461.502234 489.141818 
L 464.208591 489.141818 
L 464.343909 370.538182 
L 465.697087 370.538182 
L 465.832405 489.141818 
L 465.967723 370.538182 
L 466.170699 370.538182 
L 466.306017 489.141818 
L 469.283009 489.141818 
L 469.418327 370.538182 
L 469.485986 370.538182 
L 469.621304 489.141818 
L 470.365552 489.141818 
L 470.50087 370.538182 
L 472.598296 370.538182 
L 472.733614 489.141818 
L 473.139568 489.141818 
L 473.207227 370.538182 
L 473.342544 489.141818 
L 476.184219 489.141818 
L 476.319537 370.538182 
L 476.522514 370.538182 
L 476.590172 489.141818 
L 476.657831 370.538182 
L 476.793149 489.141818 
L 476.928467 370.538182 
L 479.8378 370.538182 
L 479.973118 489.141818 
L 483.085428 489.141818 
L 483.220746 370.538182 
L 486.13008 370.538182 
L 486.197739 489.141818 
L 486.333056 370.538182 
L 486.400715 370.538182 
L 486.468374 489.141818 
L 486.603692 370.538182 
L 486.73901 370.538182 
L 486.874328 489.141818 
L 490.257274 489.141818 
L 490.392591 370.538182 
L 491.542793 370.538182 
L 491.678111 489.141818 
L 508.254545 489.141818 
L 508.254545 489.141818 
" style="fill:none;stroke:#1f77b4;stroke-linecap:square;stroke-width:1.5;"/>
   </g>
   <g id="patch_14">
    <path d="M 295.2 495.072 
L 295.2 364.608 
" style="fill:none;stroke:#000000;stroke-linecap:square;stroke-linejoin:miter;stroke-width:0.8;"/>
   </g>
   <g id="patch_15">
    <path d="M 518.4 495.072 
L 518.4 364.608 
" style="fill:none;stroke:#000000;stroke-linecap:square;stroke-linejoin:miter;stroke-width:0.8;"/>
   </g>
   <g id="patch_16">
    <path d="M 295.2 495.072 
L 518.4 495.072 
" style="fill:none;stroke:#000000;stroke-linecap:square;stroke-linejoin:miter;stroke-width:0.8;"/>
   </g>
   <g id="patch_17">
    <path d="M 295.2 364.608 
L 518.4 364.608 
" style="fill:none;stroke:#000000;stroke-linecap:square;stroke-linejoin:miter;stroke-width:0.8;"/>
   </g>
   <g id="text_26">
    <!-- State 2 -->
    <g transform="translate(372.5775 358.608)scale(0.216 -0.216)">
     <use xlink:href="#ArialMT-83"/>
     <use x="66.699219" xlink:href="#ArialMT-116"/>
     <use x="94.482422" xlink:href="#ArialMT-97"/>
     <use x="150.097656" xlink:href="#ArialMT-116"/>
     <use x="177.880859" xlink:href="#ArialMT-101"/>
     <use x="233.496094" xlink:href="#ArialMT-32"/>
     <use x="261.279297" xlink:href="#ArialMT-50"/>
    </g>
   </g>
  </g>
  <g id="axes_5">
   <g id="patch_18">
    <path clip-path="url(#ped659aa0d4)" d="M 183.6 646.692324 
Q 164.723779 684.444765 145.847559 722.197206 
" style="fill:none;stroke:#8282ff;stroke-linecap:round;stroke-width:4;"/>
   </g>
   <g id="patch_19">
    <path clip-path="url(#ped659aa0d4)" d="M 183.6 646.692324 
Q 202.476221 684.444765 221.352441 722.197206 
" style="fill:none;stroke:#8484ff;stroke-linecap:round;stroke-width:4;"/>
   </g>
   <g id="patch_20">
    <path clip-path="url(#ped659aa0d4)" d="M 139.524324 734.843676 
Q 176.528899 734.843676 213.533474 734.843676 
" style="fill:none;stroke:#ff8080;stroke-linecap:round;stroke-width:4;"/>
   </g>
   <g id="PathCollection_3">
    <path clip-path="url(#ped659aa0d4)" d="M 183.6 660.83446 
C 187.350538 660.83446 190.947969 659.344355 193.6 656.692324 
C 196.252031 654.040293 197.742136 650.442863 197.742136 646.692324 
C 197.742136 642.941786 196.252031 639.344355 193.6 636.692324 
C 190.947969 634.040293 187.350538 632.550189 183.6 632.550189 
C 179.849462 632.550189 176.252031 634.040293 173.6 636.692324 
C 170.947969 639.344355 169.457864 642.941786 169.457864 646.692324 
C 169.457864 650.442863 170.947969 654.040293 173.6 656.692324 
C 176.252031 659.344355 179.849462 660.83446 183.6 660.83446 
z
" style="fill:#0000ff;stroke:#0000ff;"/>
    <path clip-path="url(#ped659aa0d4)" d="M 139.524324 748.985811 
C 143.274863 748.985811 146.872293 747.495707 149.524324 744.843676 
C 152.176355 742.191645 153.66646 738.594214 153.66646 734.843676 
C 153.66646 731.093137 152.176355 727.495707 149.524324 724.843676 
C 146.872293 722.191645 143.274863 720.70154 139.524324 720.70154 
C 135.773786 720.70154 132.176355 722.191645 129.524324 724.843676 
C 126.872293 727.495707 125.382189 731.093137 125.382189 734.843676 
C 125.382189 738.594214 126.872293 742.191645 129.524324 744.843676 
C 132.176355 747.495707 135.773786 748.985811 139.524324 748.985811 
z
" style="fill:#0000ff;stroke:#0000ff;"/>
    <path clip-path="url(#ped659aa0d4)" d="M 227.675676 748.985811 
C 231.426214 748.985811 235.023645 747.495707 237.675676 744.843676 
C 240.327707 742.191645 241.817811 738.594214 241.817811 734.843676 
C 241.817811 731.093137 240.327707 727.495707 237.675676 724.843676 
C 235.023645 722.191645 231.426214 720.70154 227.675676 720.70154 
C 223.925137 720.70154 220.327707 722.191645 217.675676 724.843676 
C 215.023645 727.495707 213.53354 731.093137 213.53354 734.843676 
C 213.53354 738.594214 215.023645 742.191645 217.675676 744.843676 
C 220.327707 747.495707 223.925137 748.985811 227.675676 748.985811 
z
" style="fill:#0000ff;stroke:#0000ff;"/>
   </g>
   <g id="text_27">
    <g clip-path="url(#ped659aa0d4)">
     <!-- 1 -->
     <g style="fill:#ffffff;" transform="translate(178.828125 650.831387)scale(0.15 -0.15)">
      <use xlink:href="#DejaVuSans-49"/>
     </g>
    </g>
   </g>
   <g id="text_28">
    <g clip-path="url(#ped659aa0d4)">
     <!-- 2 -->
     <g style="fill:#ffffff;" transform="translate(134.752449 738.982738)scale(0.15 -0.15)">
      <use xlink:href="#DejaVuSans-50"/>
     </g>
    </g>
   </g>
   <g id="text_29">
    <g clip-path="url(#ped659aa0d4)">
     <!-- 3 -->
     <g style="fill:#ffffff;" transform="translate(222.903801 738.982738)scale(0.15 -0.15)">
      <use xlink:href="#DejaVuSans-51"/>
     </g>
    </g>
   </g>
  </g>
  <g id="axes_6">
   <g id="patch_21">
    <path d="M 295.2 756 
L 518.4 756 
L 518.4 625.536 
L 295.2 625.536 
z
" style="fill:#ffffff;"/>
   </g>
   <g id="matplotlib.axis_5">
    <g id="xtick_9">
     <g id="line2d_17">
      <g>
       <use style="stroke:#000000;stroke-width:0.8;" x="305.345455" xlink:href="#mc11bf3e954" y="756"/>
      </g>
     </g>
     <g id="text_30">
      <!-- 0 -->
      <g transform="translate(300.340611 775.884063)scale(0.18 -0.18)">
       <use xlink:href="#ArialMT-48"/>
      </g>
     </g>
    </g>
    <g id="xtick_10">
     <g id="line2d_18">
      <g>
       <use style="stroke:#000000;stroke-width:0.8;" x="373.004371" xlink:href="#mc11bf3e954" y="756"/>
      </g>
     </g>
     <g id="text_31">
      <!-- 1000 -->
      <g transform="translate(352.984996 775.884063)scale(0.18 -0.18)">
       <use xlink:href="#ArialMT-49"/>
       <use x="55.615234" xlink:href="#ArialMT-48"/>
       <use x="111.230469" xlink:href="#ArialMT-48"/>
       <use x="166.845703" xlink:href="#ArialMT-48"/>
      </g>
     </g>
    </g>
    <g id="xtick_11">
     <g id="line2d_19">
      <g>
       <use style="stroke:#000000;stroke-width:0.8;" x="440.663288" xlink:href="#mc11bf3e954" y="756"/>
      </g>
     </g>
     <g id="text_32">
      <!-- 2000 -->
      <g transform="translate(420.643913 775.884063)scale(0.18 -0.18)">
       <use xlink:href="#ArialMT-50"/>
       <use x="55.615234" xlink:href="#ArialMT-48"/>
       <use x="111.230469" xlink:href="#ArialMT-48"/>
       <use x="166.845703" xlink:href="#ArialMT-48"/>
      </g>
     </g>
    </g>
    <g id="xtick_12">
     <g id="line2d_20">
      <g>
       <use style="stroke:#000000;stroke-width:0.8;" x="508.322204" xlink:href="#mc11bf3e954" y="756"/>
      </g>
     </g>
     <g id="text_33">
      <!-- 3000 -->
      <g transform="translate(488.302829 775.884063)scale(0.18 -0.18)">
       <use xlink:href="#ArialMT-51"/>
       <use x="55.615234" xlink:href="#ArialMT-48"/>
       <use x="111.230469" xlink:href="#ArialMT-48"/>
       <use x="166.845703" xlink:href="#ArialMT-48"/>
      </g>
     </g>
    </g>
    <g id="text_34">
     <!-- # sample -->
     <g transform="translate(370.283906 796.565)scale(0.18 -0.18)">
      <use xlink:href="#ArialMT-35"/>
      <use x="55.615234" xlink:href="#ArialMT-32"/>
      <use x="83.398438" xlink:href="#ArialMT-115"/>
      <use x="133.398438" xlink:href="#ArialMT-97"/>
      <use x="189.013672" xlink:href="#ArialMT-109"/>
      <use x="272.314453" xlink:href="#ArialMT-112"/>
      <use x="327.929688" xlink:href="#ArialMT-108"/>
      <use x="350.146484" xlink:href="#ArialMT-101"/>
     </g>
    </g>
   </g>
   <g id="matplotlib.axis_6">
    <g id="ytick_7">
     <g id="line2d_21">
      <g>
       <use style="stroke:#000000;stroke-width:0.8;" x="295.2" xlink:href="#m1120bea615" y="750.069818"/>
      </g>
     </g>
     <g id="text_35">
      <!-- 0.0 -->
      <g transform="translate(263.18 756.511849)scale(0.18 -0.18)">
       <use xlink:href="#ArialMT-48"/>
       <use x="55.615234" xlink:href="#ArialMT-46"/>
       <use x="83.398438" xlink:href="#ArialMT-48"/>
      </g>
     </g>
    </g>
    <g id="ytick_8">
     <g id="line2d_22">
      <g>
       <use style="stroke:#000000;stroke-width:0.8;" x="295.2" xlink:href="#m1120bea615" y="690.768"/>
      </g>
     </g>
     <g id="text_36">
      <!-- 0.5 -->
      <g transform="translate(263.18 697.210031)scale(0.18 -0.18)">
       <use xlink:href="#ArialMT-48"/>
       <use x="55.615234" xlink:href="#ArialMT-46"/>
       <use x="83.398438" xlink:href="#ArialMT-53"/>
      </g>
     </g>
    </g>
    <g id="ytick_9">
     <g id="line2d_23">
      <g>
       <use style="stroke:#000000;stroke-width:0.8;" x="295.2" xlink:href="#m1120bea615" y="631.466182"/>
      </g>
     </g>
     <g id="text_37">
      <!-- 1.0 -->
      <g transform="translate(263.18 637.908213)scale(0.18 -0.18)">
       <use xlink:href="#ArialMT-49"/>
       <use x="55.615234" xlink:href="#ArialMT-46"/>
       <use x="83.398438" xlink:href="#ArialMT-48"/>
      </g>
     </g>
    </g>
    <g id="text_38">
     <!-- time course -->
     <g transform="translate(255.6025 737.281125)rotate(-90)scale(0.18 -0.18)">
      <use xlink:href="#ArialMT-116"/>
      <use x="27.783203" xlink:href="#ArialMT-105"/>
      <use x="50" xlink:href="#ArialMT-109"/>
      <use x="133.300781" xlink:href="#ArialMT-101"/>
      <use x="188.916016" xlink:href="#ArialMT-32"/>
      <use x="216.699219" xlink:href="#ArialMT-99"/>
      <use x="266.699219" xlink:href="#ArialMT-111"/>
      <use x="322.314453" xlink:href="#ArialMT-117"/>
      <use x="377.929688" xlink:href="#ArialMT-114"/>
      <use x="411.230469" xlink:href="#ArialMT-115"/>
      <use x="461.230469" xlink:href="#ArialMT-101"/>
     </g>
    </g>
   </g>
   <g id="line2d_24">
    <path clip-path="url(#pa2c2799502)" d="M 305.345455 750.069818 
L 310.961145 750.069818 
L 311.096462 631.466182 
L 311.164121 631.466182 
L 311.299439 750.069818 
L 311.773052 750.069818 
L 311.908369 631.466182 
L 312.381982 631.466182 
L 312.5173 750.069818 
L 313.396866 750.069818 
L 313.532183 631.466182 
L 313.667501 750.069818 
L 316.712153 750.069818 
L 316.84747 631.466182 
L 319.147874 631.466182 
L 319.283191 750.069818 
L 319.418509 750.069818 
L 319.553827 631.466182 
L 319.689145 631.466182 
L 319.824463 750.069818 
L 322.733796 750.069818 
L 322.869114 631.466182 
L 326.25206 631.466182 
L 326.319719 750.069818 
L 326.455037 631.466182 
L 326.522695 631.466182 
L 326.658013 750.069818 
L 329.093734 750.069818 
L 329.229052 631.466182 
L 329.635006 631.466182 
L 329.770323 750.069818 
L 329.905641 631.466182 
L 332.138386 631.466182 
L 332.273703 750.069818 
L 333.897517 750.069818 
L 334.032835 631.466182 
L 334.37113 631.466182 
L 334.506448 750.069818 
L 352.165425 750.069818 
L 352.300743 631.466182 
L 352.436061 750.069818 
L 353.924557 750.069818 
L 354.059875 631.466182 
L 356.427937 631.466182 
L 356.495596 750.069818 
L 356.630913 631.466182 
L 356.698572 750.069818 
L 356.83389 631.466182 
L 356.969208 631.466182 
L 357.104526 750.069818 
L 359.810882 750.069818 
L 359.9462 631.466182 
L 363.396805 631.466182 
L 363.532123 750.069818 
L 366.373797 750.069818 
L 366.441456 631.466182 
L 366.576774 750.069818 
L 366.644433 750.069818 
L 366.779751 631.466182 
L 366.84741 631.466182 
L 366.915069 750.069818 
L 366.982728 631.466182 
L 367.050386 750.069818 
L 367.185704 631.466182 
L 369.418449 631.466182 
L 369.553766 750.069818 
L 373.883937 750.069818 
L 374.019255 631.466182 
L 374.425208 631.466182 
L 374.560526 750.069818 
L 374.695844 750.069818 
L 374.831162 631.466182 
L 375.440092 631.466182 
L 375.57541 750.069818 
L 397.023287 750.069818 
L 397.158604 631.466182 
L 400.135597 631.466182 
L 400.270915 750.069818 
L 403.518543 750.069818 
L 403.65386 631.466182 
L 403.721519 750.069818 
L 403.856837 631.466182 
L 406.630853 631.466182 
L 406.698512 750.069818 
L 406.766171 631.466182 
L 406.833829 750.069818 
L 406.901488 631.466182 
L 407.036806 750.069818 
L 407.172124 631.466182 
L 407.307442 750.069818 
L 410.149116 750.069818 
L 410.284434 631.466182 
L 410.419752 631.466182 
L 410.487411 750.069818 
L 410.622729 631.466182 
L 410.690388 631.466182 
L 410.758047 750.069818 
L 410.893364 631.466182 
L 413.329085 631.466182 
L 413.464403 750.069818 
L 416.712031 750.069818 
L 416.847349 631.466182 
L 416.982667 750.069818 
L 417.726915 750.069818 
L 417.862233 631.466182 
L 419.824341 631.466182 
L 419.959659 750.069818 
L 421.718791 750.069818 
L 421.854109 631.466182 
L 422.192404 631.466182 
L 422.327721 750.069818 
L 425.034078 750.069818 
L 425.169396 631.466182 
L 425.304714 631.466182 
L 425.440032 750.069818 
L 425.845985 750.069818 
L 425.913644 631.466182 
L 426.048962 750.069818 
L 441.678172 750.069818 
L 441.813489 631.466182 
L 443.978575 631.466182 
L 444.113893 750.069818 
L 444.24921 631.466182 
L 444.519846 631.466182 
L 444.655164 750.069818 
L 447.361521 750.069818 
L 447.496838 631.466182 
L 451.082761 631.466182 
L 451.218079 750.069818 
L 454.26273 750.069818 
L 454.330389 631.466182 
L 454.398048 750.069818 
L 454.533366 631.466182 
L 454.668684 631.466182 
L 454.804001 750.069818 
L 454.939319 631.466182 
L 457.37504 631.466182 
L 457.510358 750.069818 
L 460.825645 750.069818 
L 460.960963 631.466182 
L 461.299257 631.466182 
L 461.434575 750.069818 
L 461.569893 750.069818 
L 461.705211 631.466182 
L 464.073273 631.466182 
L 464.208591 750.069818 
L 465.697087 750.069818 
L 465.832405 631.466182 
L 465.967723 750.069818 
L 468.741738 750.069818 
L 468.877056 631.466182 
L 469.283009 631.466182 
L 469.418327 750.069818 
L 469.485986 750.069818 
L 469.621304 631.466182 
L 470.365552 631.466182 
L 470.50087 750.069818 
L 472.598296 750.069818 
L 472.733614 631.466182 
L 473.071909 631.466182 
L 473.207227 750.069818 
L 491.881088 750.069818 
L 492.016405 631.466182 
L 494.655103 631.466182 
L 494.722762 750.069818 
L 494.85808 631.466182 
L 494.993398 631.466182 
L 495.128716 750.069818 
L 498.308685 750.069818 
L 498.444003 631.466182 
L 501.488654 631.466182 
L 501.623972 750.069818 
L 501.691631 631.466182 
L 501.826948 750.069818 
L 501.962266 631.466182 
L 502.029925 631.466182 
L 502.097584 750.069818 
L 502.165243 631.466182 
L 502.300561 750.069818 
L 505.006917 750.069818 
L 505.142235 631.466182 
L 505.412871 631.466182 
L 505.48053 750.069818 
L 505.548189 631.466182 
L 505.683507 750.069818 
L 505.818824 631.466182 
L 508.186887 631.466182 
L 508.254545 750.069818 
L 508.254545 750.069818 
" style="fill:none;stroke:#1f77b4;stroke-linecap:square;stroke-width:1.5;"/>
   </g>
   <g id="patch_22">
    <path d="M 295.2 756 
L 295.2 625.536 
" style="fill:none;stroke:#000000;stroke-linecap:square;stroke-linejoin:miter;stroke-width:0.8;"/>
   </g>
   <g id="patch_23">
    <path d="M 518.4 756 
L 518.4 625.536 
" style="fill:none;stroke:#000000;stroke-linecap:square;stroke-linejoin:miter;stroke-width:0.8;"/>
   </g>
   <g id="patch_24">
    <path d="M 295.2 756 
L 518.4 756 
" style="fill:none;stroke:#000000;stroke-linecap:square;stroke-linejoin:miter;stroke-width:0.8;"/>
   </g>
   <g id="patch_25">
    <path d="M 295.2 625.536 
L 518.4 625.536 
" style="fill:none;stroke:#000000;stroke-linecap:square;stroke-linejoin:miter;stroke-width:0.8;"/>
   </g>
   <g id="text_39">
    <!-- State 3 -->
    <g transform="translate(372.5775 619.536)scale(0.216 -0.216)">
     <use xlink:href="#ArialMT-83"/>
     <use x="66.699219" xlink:href="#ArialMT-116"/>
     <use x="94.482422" xlink:href="#ArialMT-97"/>
     <use x="150.097656" xlink:href="#ArialMT-116"/>
     <use x="177.880859" xlink:href="#ArialMT-101"/>
     <use x="233.496094" xlink:href="#ArialMT-32"/>
     <use x="261.279297" xlink:href="#ArialMT-51"/>
    </g>
   </g>
  </g>
 </g>
 <defs>
  <clipPath id="pd7b85ade67">
   <rect height="130.464" width="223.2" x="72" y="103.68"/>
  </clipPath>
  <clipPath id="paa1e3f81df">
   <rect height="130.464" width="223.2" x="295.2" y="103.68"/>
  </clipPath>
  <clipPath id="p28563f35f4">
   <rect height="130.464" width="223.2" x="72" y="364.608"/>
  </clipPath>
  <clipPath id="p812b39000a">
   <rect height="130.464" width="223.2" x="295.2" y="364.608"/>
  </clipPath>
  <clipPath id="ped659aa0d4">
   <rect height="130.464" width="223.2" x="72" y="625.536"/>
  </clipPath>
  <clipPath id="pa2c2799502">
   <rect height="130.464" width="223.2" x="295.2" y="625.536"/>
  </clipPath>
 </defs>
</svg>
