<?xml version="1.0" encoding="utf-8" standalone="no"?>
<!DOCTYPE svg PUBLIC "-//W3C//DTD SVG 1.1//EN"
  "http://www.w3.org/Graphics/SVG/1.1/DTD/svg11.dtd">
<!-- Created with matplotlib (https://matplotlib.org/) -->
<svg height="646.596875pt" version="1.1" viewBox="0 0 1375.731563 646.596875" width="1375.731563pt" xmlns="http://www.w3.org/2000/svg" xmlns:xlink="http://www.w3.org/1999/xlink">
 <defs>
  <style type="text/css">
*{stroke-linecap:butt;stroke-linejoin:round;}
  </style>
 </defs>
 <g id="figure_1">
  <g id="patch_1">
   <path d="M 0 646.596875 
L 1375.731563 646.596875 
L 1375.731563 0 
L 0 0 
z
" style="fill:#ffffff;"/>
  </g>
  <g id="axes_1">
   <g id="patch_2">
    <path d="M 14.985313 576.841875 
L 1130.985313 576.841875 
L 1130.985313 462.799917 
L 14.985313 462.799917 
z
" style="fill:#ffffff;"/>
   </g>
   <g id="patch_3">
    <path clip-path="url(#pbb45eed6f9)" d="M 14.985313 576.841875 
L 14.985313 462.799917 
L 386.985313 462.799917 
L 386.985313 576.841875 
z
" style="fill:#0000ff;stroke:#0000ff;stroke-linejoin:miter;"/>
   </g>
   <g id="patch_4">
    <path clip-path="url(#pbb45eed6f9)" d="M 387.357313 576.841875 
L 387.357313 462.799917 
L 1130.985313 462.799917 
L 1130.985313 576.841875 
z
" style="fill:#00bfbf;stroke:#00bfbf;stroke-linejoin:miter;"/>
   </g>
   <g id="matplotlib.axis_1">
    <g id="xtick_1">
     <g id="line2d_1">
      <defs>
       <path d="M 0 0 
L 0 3.5 
" id="m514e094685" style="stroke:#000000;stroke-width:0.8;"/>
      </defs>
      <g>
       <use style="stroke:#000000;stroke-width:0.8;" x="14.985313" xlink:href="#m514e094685" y="576.841875"/>
      </g>
     </g>
     <g id="text_1">
      <!-- 0 -->
      <defs>
       <path d="M 4.15625 35.296875 
Q 4.15625 48 6.765625 55.734375 
Q 9.375 63.484375 14.515625 67.671875 
Q 19.671875 71.875 27.484375 71.875 
Q 33.25 71.875 37.59375 69.546875 
Q 41.9375 67.234375 44.765625 62.859375 
Q 47.609375 58.5 49.21875 52.21875 
Q 50.828125 45.953125 50.828125 35.296875 
Q 50.828125 22.703125 48.234375 14.96875 
Q 45.65625 7.234375 40.5 3 
Q 35.359375 -1.21875 27.484375 -1.21875 
Q 17.140625 -1.21875 11.234375 6.203125 
Q 4.15625 15.140625 4.15625 35.296875 
z
M 13.1875 35.296875 
Q 13.1875 17.671875 17.3125 11.828125 
Q 21.4375 6 27.484375 6 
Q 33.546875 6 37.671875 11.859375 
Q 41.796875 17.71875 41.796875 35.296875 
Q 41.796875 52.984375 37.671875 58.78125 
Q 33.546875 64.59375 27.390625 64.59375 
Q 21.34375 64.59375 17.71875 59.46875 
Q 13.1875 52.9375 13.1875 35.296875 
z
" id="ArialMT-48"/>
      </defs>
      <g transform="translate(7.2 603.88375)scale(0.28 -0.28)">
       <use xlink:href="#ArialMT-48"/>
      </g>
     </g>
    </g>
    <g id="xtick_2">
     <g id="line2d_2">
      <g>
       <use style="stroke:#000000;stroke-width:0.8;" x="200.985313" xlink:href="#m514e094685" y="576.841875"/>
      </g>
     </g>
     <g id="text_2">
      <!-- 500 -->
      <defs>
       <path d="M 4.15625 18.75 
L 13.375 19.53125 
Q 14.40625 12.796875 18.140625 9.390625 
Q 21.875 6 27.15625 6 
Q 33.5 6 37.890625 10.78125 
Q 42.28125 15.578125 42.28125 23.484375 
Q 42.28125 31 38.0625 35.34375 
Q 33.84375 39.703125 27 39.703125 
Q 22.75 39.703125 19.328125 37.765625 
Q 15.921875 35.84375 13.96875 32.765625 
L 5.71875 33.84375 
L 12.640625 70.609375 
L 48.25 70.609375 
L 48.25 62.203125 
L 19.671875 62.203125 
L 15.828125 42.96875 
Q 22.265625 47.46875 29.34375 47.46875 
Q 38.71875 47.46875 45.15625 40.96875 
Q 51.609375 34.46875 51.609375 24.265625 
Q 51.609375 14.546875 45.953125 7.46875 
Q 39.0625 -1.21875 27.15625 -1.21875 
Q 17.390625 -1.21875 11.203125 4.25 
Q 5.03125 9.71875 4.15625 18.75 
z
" id="ArialMT-53"/>
      </defs>
      <g transform="translate(177.629375 603.88375)scale(0.28 -0.28)">
       <use xlink:href="#ArialMT-53"/>
       <use x="55.615234" xlink:href="#ArialMT-48"/>
       <use x="111.230469" xlink:href="#ArialMT-48"/>
      </g>
     </g>
    </g>
    <g id="xtick_3">
     <g id="line2d_3">
      <g>
       <use style="stroke:#000000;stroke-width:0.8;" x="386.985313" xlink:href="#m514e094685" y="576.841875"/>
      </g>
     </g>
     <g id="text_3">
      <!-- 1000 -->
      <defs>
       <path d="M 37.25 0 
L 28.46875 0 
L 28.46875 56 
Q 25.296875 52.984375 20.140625 49.953125 
Q 14.984375 46.921875 10.890625 45.40625 
L 10.890625 53.90625 
Q 18.265625 57.375 23.78125 62.296875 
Q 29.296875 67.234375 31.59375 71.875 
L 37.25 71.875 
z
" id="ArialMT-49"/>
      </defs>
      <g transform="translate(355.844063 603.88375)scale(0.28 -0.28)">
       <use xlink:href="#ArialMT-49"/>
       <use x="55.615234" xlink:href="#ArialMT-48"/>
       <use x="111.230469" xlink:href="#ArialMT-48"/>
       <use x="166.845703" xlink:href="#ArialMT-48"/>
      </g>
     </g>
    </g>
    <g id="xtick_4">
     <g id="line2d_4">
      <g>
       <use style="stroke:#000000;stroke-width:0.8;" x="572.985313" xlink:href="#m514e094685" y="576.841875"/>
      </g>
     </g>
     <g id="text_4">
      <!-- 1500 -->
      <g transform="translate(541.844063 603.88375)scale(0.28 -0.28)">
       <use xlink:href="#ArialMT-49"/>
       <use x="55.615234" xlink:href="#ArialMT-53"/>
       <use x="111.230469" xlink:href="#ArialMT-48"/>
       <use x="166.845703" xlink:href="#ArialMT-48"/>
      </g>
     </g>
    </g>
    <g id="xtick_5">
     <g id="line2d_5">
      <g>
       <use style="stroke:#000000;stroke-width:0.8;" x="758.985313" xlink:href="#m514e094685" y="576.841875"/>
      </g>
     </g>
     <g id="text_5">
      <!-- 2000 -->
      <defs>
       <path d="M 50.34375 8.453125 
L 50.34375 0 
L 3.03125 0 
Q 2.9375 3.171875 4.046875 6.109375 
Q 5.859375 10.9375 9.828125 15.625 
Q 13.8125 20.3125 21.34375 26.46875 
Q 33.015625 36.03125 37.109375 41.625 
Q 41.21875 47.21875 41.21875 52.203125 
Q 41.21875 57.421875 37.46875 61 
Q 33.734375 64.59375 27.734375 64.59375 
Q 21.390625 64.59375 17.578125 60.78125 
Q 13.765625 56.984375 13.71875 50.25 
L 4.6875 51.171875 
Q 5.609375 61.28125 11.65625 66.578125 
Q 17.71875 71.875 27.9375 71.875 
Q 38.234375 71.875 44.234375 66.15625 
Q 50.25 60.453125 50.25 52 
Q 50.25 47.703125 48.484375 43.546875 
Q 46.734375 39.40625 42.65625 34.8125 
Q 38.578125 30.21875 29.109375 22.21875 
Q 21.1875 15.578125 18.9375 13.203125 
Q 16.703125 10.84375 15.234375 8.453125 
z
" id="ArialMT-50"/>
      </defs>
      <g transform="translate(727.844063 603.88375)scale(0.28 -0.28)">
       <use xlink:href="#ArialMT-50"/>
       <use x="55.615234" xlink:href="#ArialMT-48"/>
       <use x="111.230469" xlink:href="#ArialMT-48"/>
       <use x="166.845703" xlink:href="#ArialMT-48"/>
      </g>
     </g>
    </g>
    <g id="xtick_6">
     <g id="line2d_6">
      <g>
       <use style="stroke:#000000;stroke-width:0.8;" x="944.985313" xlink:href="#m514e094685" y="576.841875"/>
      </g>
     </g>
     <g id="text_6">
      <!-- 2500 -->
      <g transform="translate(913.844063 603.88375)scale(0.28 -0.28)">
       <use xlink:href="#ArialMT-50"/>
       <use x="55.615234" xlink:href="#ArialMT-53"/>
       <use x="111.230469" xlink:href="#ArialMT-48"/>
       <use x="166.845703" xlink:href="#ArialMT-48"/>
      </g>
     </g>
    </g>
    <g id="xtick_7">
     <g id="line2d_7">
      <g>
       <use style="stroke:#000000;stroke-width:0.8;" x="1130.985313" xlink:href="#m514e094685" y="576.841875"/>
      </g>
     </g>
     <g id="text_7">
      <!-- 3000 -->
      <defs>
       <path d="M 4.203125 18.890625 
L 12.984375 20.0625 
Q 14.5 12.59375 18.140625 9.296875 
Q 21.78125 6 27 6 
Q 33.203125 6 37.46875 10.296875 
Q 41.75 14.59375 41.75 20.953125 
Q 41.75 27 37.796875 30.921875 
Q 33.84375 34.859375 27.734375 34.859375 
Q 25.25 34.859375 21.53125 33.890625 
L 22.515625 41.609375 
Q 23.390625 41.5 23.921875 41.5 
Q 29.546875 41.5 34.03125 44.421875 
Q 38.53125 47.359375 38.53125 53.46875 
Q 38.53125 58.296875 35.25 61.46875 
Q 31.984375 64.65625 26.8125 64.65625 
Q 21.6875 64.65625 18.265625 61.421875 
Q 14.84375 58.203125 13.875 51.765625 
L 5.078125 53.328125 
Q 6.6875 62.15625 12.390625 67.015625 
Q 18.109375 71.875 26.609375 71.875 
Q 32.46875 71.875 37.390625 69.359375 
Q 42.328125 66.84375 44.9375 62.5 
Q 47.5625 58.15625 47.5625 53.265625 
Q 47.5625 48.640625 45.0625 44.828125 
Q 42.578125 41.015625 37.703125 38.765625 
Q 44.046875 37.3125 47.5625 32.6875 
Q 51.078125 28.078125 51.078125 21.140625 
Q 51.078125 11.765625 44.234375 5.25 
Q 37.40625 -1.265625 26.953125 -1.265625 
Q 17.53125 -1.265625 11.296875 4.34375 
Q 5.078125 9.96875 4.203125 18.890625 
z
" id="ArialMT-51"/>
      </defs>
      <g transform="translate(1099.844063 603.88375)scale(0.28 -0.28)">
       <use xlink:href="#ArialMT-51"/>
       <use x="55.615234" xlink:href="#ArialMT-48"/>
       <use x="111.230469" xlink:href="#ArialMT-48"/>
       <use x="166.845703" xlink:href="#ArialMT-48"/>
      </g>
     </g>
    </g>
    <g id="text_8">
     <!-- # sample -->
     <defs>
      <path d="M 5.03125 -1.21875 
L 9.28125 19.578125 
L 1.03125 19.578125 
L 1.03125 26.859375 
L 10.75 26.859375 
L 14.359375 44.578125 
L 1.03125 44.578125 
L 1.03125 51.859375 
L 15.828125 51.859375 
L 20.0625 72.796875 
L 27.390625 72.796875 
L 23.140625 51.859375 
L 38.53125 51.859375 
L 42.78125 72.796875 
L 50.140625 72.796875 
L 45.90625 51.859375 
L 54.34375 51.859375 
L 54.34375 44.578125 
L 44.4375 44.578125 
L 40.765625 26.859375 
L 54.34375 26.859375 
L 54.34375 19.578125 
L 39.3125 19.578125 
L 35.0625 -1.21875 
L 27.734375 -1.21875 
L 31.9375 19.578125 
L 16.609375 19.578125 
L 12.359375 -1.21875 
z
M 18.0625 26.859375 
L 33.40625 26.859375 
L 37.0625 44.578125 
L 21.6875 44.578125 
z
" id="ArialMT-35"/>
      <path id="ArialMT-32"/>
      <path d="M 3.078125 15.484375 
L 11.765625 16.84375 
Q 12.5 11.625 15.84375 8.84375 
Q 19.1875 6.0625 25.203125 6.0625 
Q 31.25 6.0625 34.171875 8.515625 
Q 37.109375 10.984375 37.109375 14.3125 
Q 37.109375 17.28125 34.515625 19 
Q 32.71875 20.171875 25.53125 21.96875 
Q 15.875 24.421875 12.140625 26.203125 
Q 8.40625 27.984375 6.46875 31.125 
Q 4.546875 34.28125 4.546875 38.09375 
Q 4.546875 41.546875 6.125 44.5 
Q 7.71875 47.46875 10.453125 49.421875 
Q 12.5 50.921875 16.03125 51.96875 
Q 19.578125 53.03125 23.640625 53.03125 
Q 29.734375 53.03125 34.34375 51.265625 
Q 38.96875 49.515625 41.15625 46.5 
Q 43.359375 43.5 44.1875 38.484375 
L 35.59375 37.3125 
Q 35.015625 41.3125 32.203125 43.546875 
Q 29.390625 45.796875 24.265625 45.796875 
Q 18.21875 45.796875 15.625 43.796875 
Q 13.03125 41.796875 13.03125 39.109375 
Q 13.03125 37.40625 14.109375 36.03125 
Q 15.1875 34.625 17.484375 33.6875 
Q 18.796875 33.203125 25.25 31.453125 
Q 34.578125 28.953125 38.25 27.359375 
Q 41.9375 25.78125 44.03125 22.75 
Q 46.140625 19.734375 46.140625 15.234375 
Q 46.140625 10.84375 43.578125 6.953125 
Q 41.015625 3.078125 36.171875 0.953125 
Q 31.34375 -1.171875 25.25 -1.171875 
Q 15.140625 -1.171875 9.84375 3.03125 
Q 4.546875 7.234375 3.078125 15.484375 
z
" id="ArialMT-115"/>
      <path d="M 40.4375 6.390625 
Q 35.546875 2.25 31.03125 0.53125 
Q 26.515625 -1.171875 21.34375 -1.171875 
Q 12.796875 -1.171875 8.203125 3 
Q 3.609375 7.171875 3.609375 13.671875 
Q 3.609375 17.484375 5.34375 20.625 
Q 7.078125 23.78125 9.890625 25.6875 
Q 12.703125 27.59375 16.21875 28.5625 
Q 18.796875 29.25 24.03125 29.890625 
Q 34.671875 31.15625 39.703125 32.90625 
Q 39.75 34.71875 39.75 35.203125 
Q 39.75 40.578125 37.25 42.78125 
Q 33.890625 45.75 27.25 45.75 
Q 21.046875 45.75 18.09375 43.578125 
Q 15.140625 41.40625 13.71875 35.890625 
L 5.125 37.0625 
Q 6.296875 42.578125 8.984375 45.96875 
Q 11.671875 49.359375 16.75 51.1875 
Q 21.828125 53.03125 28.515625 53.03125 
Q 35.15625 53.03125 39.296875 51.46875 
Q 43.453125 49.90625 45.40625 47.53125 
Q 47.359375 45.171875 48.140625 41.546875 
Q 48.578125 39.3125 48.578125 33.453125 
L 48.578125 21.734375 
Q 48.578125 9.46875 49.140625 6.21875 
Q 49.703125 2.984375 51.375 0 
L 42.1875 0 
Q 40.828125 2.734375 40.4375 6.390625 
z
M 39.703125 26.03125 
Q 34.90625 24.078125 25.34375 22.703125 
Q 19.921875 21.921875 17.671875 20.9375 
Q 15.4375 19.96875 14.203125 18.09375 
Q 12.984375 16.21875 12.984375 13.921875 
Q 12.984375 10.40625 15.640625 8.0625 
Q 18.3125 5.71875 23.4375 5.71875 
Q 28.515625 5.71875 32.46875 7.9375 
Q 36.421875 10.15625 38.28125 14.015625 
Q 39.703125 17 39.703125 22.796875 
z
" id="ArialMT-97"/>
      <path d="M 6.59375 0 
L 6.59375 51.859375 
L 14.453125 51.859375 
L 14.453125 44.578125 
Q 16.890625 48.390625 20.9375 50.703125 
Q 25 53.03125 30.171875 53.03125 
Q 35.9375 53.03125 39.625 50.640625 
Q 43.3125 48.25 44.828125 43.953125 
Q 50.984375 53.03125 60.84375 53.03125 
Q 68.5625 53.03125 72.703125 48.75 
Q 76.859375 44.484375 76.859375 35.59375 
L 76.859375 0 
L 68.109375 0 
L 68.109375 32.671875 
Q 68.109375 37.9375 67.25 40.25 
Q 66.40625 42.578125 64.15625 43.984375 
Q 61.921875 45.40625 58.890625 45.40625 
Q 53.421875 45.40625 49.796875 41.765625 
Q 46.1875 38.140625 46.1875 30.125 
L 46.1875 0 
L 37.40625 0 
L 37.40625 33.6875 
Q 37.40625 39.546875 35.25 42.46875 
Q 33.109375 45.40625 28.21875 45.40625 
Q 24.515625 45.40625 21.359375 43.453125 
Q 18.21875 41.5 16.796875 37.734375 
Q 15.375 33.984375 15.375 26.90625 
L 15.375 0 
z
" id="ArialMT-109"/>
      <path d="M 6.59375 -19.875 
L 6.59375 51.859375 
L 14.59375 51.859375 
L 14.59375 45.125 
Q 17.4375 49.078125 21 51.046875 
Q 24.5625 53.03125 29.640625 53.03125 
Q 36.28125 53.03125 41.359375 49.609375 
Q 46.4375 46.1875 49.015625 39.953125 
Q 51.609375 33.734375 51.609375 26.3125 
Q 51.609375 18.359375 48.75 11.984375 
Q 45.90625 5.609375 40.453125 2.21875 
Q 35.015625 -1.171875 29 -1.171875 
Q 24.609375 -1.171875 21.109375 0.6875 
Q 17.625 2.546875 15.375 5.375 
L 15.375 -19.875 
z
M 14.546875 25.640625 
Q 14.546875 15.625 18.59375 10.84375 
Q 22.65625 6.0625 28.421875 6.0625 
Q 34.28125 6.0625 38.453125 11.015625 
Q 42.625 15.96875 42.625 26.375 
Q 42.625 36.28125 38.546875 41.203125 
Q 34.46875 46.140625 28.8125 46.140625 
Q 23.1875 46.140625 18.859375 40.890625 
Q 14.546875 35.640625 14.546875 25.640625 
z
" id="ArialMT-112"/>
      <path d="M 6.390625 0 
L 6.390625 71.578125 
L 15.1875 71.578125 
L 15.1875 0 
z
" id="ArialMT-108"/>
      <path d="M 42.09375 16.703125 
L 51.171875 15.578125 
Q 49.03125 7.625 43.21875 3.21875 
Q 37.40625 -1.171875 28.375 -1.171875 
Q 17 -1.171875 10.328125 5.828125 
Q 3.65625 12.84375 3.65625 25.484375 
Q 3.65625 38.578125 10.390625 45.796875 
Q 17.140625 53.03125 27.875 53.03125 
Q 38.28125 53.03125 44.875 45.953125 
Q 51.46875 38.875 51.46875 26.03125 
Q 51.46875 25.25 51.421875 23.6875 
L 12.75 23.6875 
Q 13.234375 15.140625 17.578125 10.59375 
Q 21.921875 6.0625 28.421875 6.0625 
Q 33.25 6.0625 36.671875 8.59375 
Q 40.09375 11.140625 42.09375 16.703125 
z
M 13.234375 30.90625 
L 42.1875 30.90625 
Q 41.609375 37.453125 38.875 40.71875 
Q 34.671875 45.796875 27.984375 45.796875 
Q 21.921875 45.796875 17.796875 41.75 
Q 13.671875 37.703125 13.234375 30.90625 
z
" id="ArialMT-101"/>
     </defs>
     <g transform="translate(516.1825 633.831875)scale(0.28 -0.28)">
      <use xlink:href="#ArialMT-35"/>
      <use x="55.615234" xlink:href="#ArialMT-32"/>
      <use x="83.398438" xlink:href="#ArialMT-115"/>
      <use x="133.398438" xlink:href="#ArialMT-97"/>
      <use x="189.013672" xlink:href="#ArialMT-109"/>
      <use x="272.314453" xlink:href="#ArialMT-112"/>
      <use x="327.929688" xlink:href="#ArialMT-108"/>
      <use x="350.146484" xlink:href="#ArialMT-101"/>
     </g>
    </g>
   </g>
   <g id="matplotlib.axis_2"/>
   <g id="patch_5">
    <path d="M 14.985313 576.841875 
L 14.985313 462.799917 
" style="fill:none;stroke:#000000;stroke-linecap:square;stroke-linejoin:miter;stroke-width:0.8;"/>
   </g>
   <g id="patch_6">
    <path d="M 1130.985313 576.841875 
L 1130.985313 462.799917 
" style="fill:none;stroke:#000000;stroke-linecap:square;stroke-linejoin:miter;stroke-width:0.8;"/>
   </g>
   <g id="patch_7">
    <path d="M 14.985313 576.841875 
L 1130.985313 576.841875 
" style="fill:none;stroke:#000000;stroke-linecap:square;stroke-linejoin:miter;stroke-width:0.8;"/>
   </g>
   <g id="patch_8">
    <path d="M 14.985313 462.799917 
L 1130.985313 462.799917 
" style="fill:none;stroke:#000000;stroke-linecap:square;stroke-linejoin:miter;stroke-width:0.8;"/>
   </g>
   <g id="legend_1">
    <g id="patch_9">
     <path d="M 1192.385313 550.413667 
L 1362.931563 550.413667 
Q 1368.531563 550.413667 1368.531563 544.813667 
L 1368.531563 468.399917 
Q 1368.531563 462.799917 1362.931563 462.799917 
L 1192.385313 462.799917 
Q 1186.785313 462.799917 1186.785313 468.399917 
L 1186.785313 544.813667 
Q 1186.785313 550.413667 1192.385313 550.413667 
z
" style="fill:#ffffff;opacity:0.8;stroke:#cccccc;stroke-linejoin:miter;"/>
    </g>
    <g id="patch_10">
     <path d="M 1197.985313 494.041792 
L 1253.985313 494.041792 
L 1253.985313 474.441792 
L 1197.985313 474.441792 
z
" style="fill:#0000ff;stroke:#0000ff;stroke-linejoin:miter;"/>
    </g>
    <g id="text_9">
     <!-- State1 -->
     <defs>
      <path d="M 4.5 23 
L 13.421875 23.78125 
Q 14.0625 18.40625 16.375 14.96875 
Q 18.703125 11.53125 23.578125 9.40625 
Q 28.46875 7.28125 34.578125 7.28125 
Q 39.984375 7.28125 44.140625 8.890625 
Q 48.296875 10.5 50.3125 13.296875 
Q 52.34375 16.109375 52.34375 19.4375 
Q 52.34375 22.796875 50.390625 25.3125 
Q 48.4375 27.828125 43.953125 29.546875 
Q 41.0625 30.671875 31.203125 33.03125 
Q 21.34375 35.40625 17.390625 37.5 
Q 12.25 40.1875 9.734375 44.15625 
Q 7.234375 48.140625 7.234375 53.078125 
Q 7.234375 58.5 10.296875 63.203125 
Q 13.375 67.921875 19.28125 70.359375 
Q 25.203125 72.796875 32.421875 72.796875 
Q 40.375 72.796875 46.453125 70.234375 
Q 52.546875 67.671875 55.8125 62.6875 
Q 59.078125 57.71875 59.328125 51.421875 
L 50.25 50.734375 
Q 49.515625 57.515625 45.28125 60.984375 
Q 41.0625 64.453125 32.8125 64.453125 
Q 24.21875 64.453125 20.28125 61.296875 
Q 16.359375 58.15625 16.359375 53.71875 
Q 16.359375 49.859375 19.140625 47.359375 
Q 21.875 44.875 33.421875 42.265625 
Q 44.96875 39.65625 49.265625 37.703125 
Q 55.515625 34.8125 58.484375 30.390625 
Q 61.46875 25.984375 61.46875 20.21875 
Q 61.46875 14.5 58.203125 9.4375 
Q 54.9375 4.390625 48.796875 1.578125 
Q 42.671875 -1.21875 35.015625 -1.21875 
Q 25.296875 -1.21875 18.71875 1.609375 
Q 12.15625 4.4375 8.421875 10.125 
Q 4.6875 15.828125 4.5 23 
z
" id="ArialMT-83"/>
      <path d="M 25.78125 7.859375 
L 27.046875 0.09375 
Q 23.34375 -0.6875 20.40625 -0.6875 
Q 15.625 -0.6875 12.984375 0.828125 
Q 10.359375 2.34375 9.28125 4.8125 
Q 8.203125 7.28125 8.203125 15.1875 
L 8.203125 45.015625 
L 1.765625 45.015625 
L 1.765625 51.859375 
L 8.203125 51.859375 
L 8.203125 64.703125 
L 16.9375 69.96875 
L 16.9375 51.859375 
L 25.78125 51.859375 
L 25.78125 45.015625 
L 16.9375 45.015625 
L 16.9375 14.703125 
Q 16.9375 10.9375 17.40625 9.859375 
Q 17.875 8.796875 18.921875 8.15625 
Q 19.96875 7.515625 21.921875 7.515625 
Q 23.390625 7.515625 25.78125 7.859375 
z
" id="ArialMT-116"/>
     </defs>
     <g transform="translate(1276.385313 494.041792)scale(0.28 -0.28)">
      <use xlink:href="#ArialMT-83"/>
      <use x="66.699219" xlink:href="#ArialMT-116"/>
      <use x="94.482422" xlink:href="#ArialMT-97"/>
      <use x="150.097656" xlink:href="#ArialMT-116"/>
      <use x="177.880859" xlink:href="#ArialMT-101"/>
      <use x="233.496094" xlink:href="#ArialMT-49"/>
     </g>
    </g>
    <g id="patch_11">
     <path d="M 1197.985313 533.648667 
L 1253.985313 533.648667 
L 1253.985313 514.048667 
L 1197.985313 514.048667 
z
" style="fill:#00bfbf;stroke:#00bfbf;stroke-linejoin:miter;"/>
    </g>
    <g id="text_10">
     <!-- State2 -->
     <g transform="translate(1276.385313 533.648667)scale(0.28 -0.28)">
      <use xlink:href="#ArialMT-83"/>
      <use x="66.699219" xlink:href="#ArialMT-116"/>
      <use x="94.482422" xlink:href="#ArialMT-97"/>
      <use x="150.097656" xlink:href="#ArialMT-116"/>
      <use x="177.880859" xlink:href="#ArialMT-101"/>
      <use x="233.496094" xlink:href="#ArialMT-50"/>
     </g>
    </g>
   </g>
  </g>
  <g id="axes_2">
   <g id="patch_12">
    <path clip-path="url(#pd4c5e28c31)" d="M 226.799151 268.56655 
Q 198.152571 177.571533 146.935362 102.814966 
" style="fill:none;stroke:#b91419;stroke-linecap:round;stroke-width:4;"/>
    <path clip-path="url(#pd4c5e28c31)" d="M 147.546226 107.245185 
L 146.935362 102.814966 
L 150.846056 104.984406 
" style="fill:none;stroke:#b91419;stroke-linecap:round;stroke-width:4;"/>
   </g>
   <g id="patch_13">
    <path clip-path="url(#pd4c5e28c31)" d="M 226.799151 268.56655 
Q 143.284756 255.204247 64.202135 265.901639 
" style="fill:none;stroke:#b91419;stroke-linecap:round;stroke-width:4;"/>
    <path clip-path="url(#pd4c5e28c31)" d="M 68.43413 267.347398 
L 64.202135 265.901639 
L 67.897939 263.383498 
" style="fill:none;stroke:#b91419;stroke-linecap:round;stroke-width:4;"/>
   </g>
   <g id="PathCollection_1">
    <path clip-path="url(#pd4c5e28c31)" d="M 136.28966 101.689705 
C 140.040199 101.689705 143.637629 100.1996 146.28966 97.547569 
C 148.941691 94.895538 150.431796 91.298108 150.431796 87.547569 
C 150.431796 83.797031 148.941691 80.1996 146.28966 77.547569 
C 143.637629 74.895538 140.040199 73.405434 136.28966 73.405434 
C 132.539122 73.405434 128.941691 74.895538 126.28966 77.547569 
C 123.637629 80.1996 122.147525 83.797031 122.147525 87.547569 
C 122.147525 91.298108 123.637629 94.895538 126.28966 97.547569 
C 128.941691 100.1996 132.539122 101.689705 136.28966 101.689705 
z
" style="fill:#0000ff;stroke:#0000ff;"/>
    <path clip-path="url(#pd4c5e28c31)" d="M 45.78017 282.708686 
C 49.530708 282.708686 53.128139 281.218581 55.78017 278.56655 
C 58.432201 275.914519 59.922305 272.317089 59.922305 268.56655 
C 59.922305 264.816012 58.432201 261.218581 55.78017 258.56655 
C 53.128139 255.914519 49.530708 254.424415 45.78017 254.424415 
C 42.029632 254.424415 38.432201 255.914519 35.78017 258.56655 
C 33.128139 261.218581 31.638034 264.816012 31.638034 268.56655 
C 31.638034 272.317089 33.128139 275.914519 35.78017 278.56655 
C 38.432201 281.218581 42.029632 282.708686 45.78017 282.708686 
z
" style="fill:#0000ff;stroke:#0000ff;"/>
    <path clip-path="url(#pd4c5e28c31)" d="M 226.799151 282.708686 
C 230.549689 282.708686 234.14712 281.218581 236.799151 278.56655 
C 239.451182 275.914519 240.941286 272.317089 240.941286 268.56655 
C 240.941286 264.816012 239.451182 261.218581 236.799151 258.56655 
C 234.14712 255.914519 230.549689 254.424415 226.799151 254.424415 
C 223.048613 254.424415 219.451182 255.914519 216.799151 258.56655 
C 214.14712 261.218581 212.657015 264.816012 212.657015 268.56655 
C 212.657015 272.317089 214.14712 275.914519 216.799151 278.56655 
C 219.451182 281.218581 223.048613 282.708686 226.799151 282.708686 
z
" style="fill:#0000ff;stroke:#0000ff;"/>
   </g>
   <g id="line2d_8">
    <path clip-path="url(#pd4c5e28c31)" d="M 45.78017 359.076041 
L 226.799151 359.076041 
" style="fill:none;stroke:#0000ff;stroke-linecap:square;stroke-width:10;"/>
   </g>
   <g id="text_11">
    <g clip-path="url(#pd4c5e28c31)">
     <!-- 1 -->
     <defs>
      <path d="M 12.40625 8.296875 
L 28.515625 8.296875 
L 28.515625 63.921875 
L 10.984375 60.40625 
L 10.984375 69.390625 
L 28.421875 72.90625 
L 38.28125 72.90625 
L 38.28125 8.296875 
L 54.390625 8.296875 
L 54.390625 0 
L 12.40625 0 
z
" id="DejaVuSans-49"/>
     </defs>
     <g style="fill:#ffffff;" transform="translate(131.517785 91.686632)scale(0.15 -0.15)">
      <use xlink:href="#DejaVuSans-49"/>
     </g>
    </g>
   </g>
   <g id="text_12">
    <g clip-path="url(#pd4c5e28c31)">
     <!-- 2 -->
     <defs>
      <path d="M 19.1875 8.296875 
L 53.609375 8.296875 
L 53.609375 0 
L 7.328125 0 
L 7.328125 8.296875 
Q 12.9375 14.109375 22.625 23.890625 
Q 32.328125 33.6875 34.8125 36.53125 
Q 39.546875 41.84375 41.421875 45.53125 
Q 43.3125 49.21875 43.3125 52.78125 
Q 43.3125 58.59375 39.234375 62.25 
Q 35.15625 65.921875 28.609375 65.921875 
Q 23.96875 65.921875 18.8125 64.3125 
Q 13.671875 62.703125 7.8125 59.421875 
L 7.8125 69.390625 
Q 13.765625 71.78125 18.9375 73 
Q 24.125 74.21875 28.421875 74.21875 
Q 39.75 74.21875 46.484375 68.546875 
Q 53.21875 62.890625 53.21875 53.421875 
Q 53.21875 48.921875 51.53125 44.890625 
Q 49.859375 40.875 45.40625 35.40625 
Q 44.1875 33.984375 37.640625 27.21875 
Q 31.109375 20.453125 19.1875 8.296875 
z
" id="DejaVuSans-50"/>
     </defs>
     <g style="fill:#ffffff;" transform="translate(41.008295 272.705613)scale(0.15 -0.15)">
      <use xlink:href="#DejaVuSans-50"/>
     </g>
    </g>
   </g>
   <g id="text_13">
    <g clip-path="url(#pd4c5e28c31)">
     <!-- 3 -->
     <defs>
      <path d="M 40.578125 39.3125 
Q 47.65625 37.796875 51.625 33 
Q 55.609375 28.21875 55.609375 21.1875 
Q 55.609375 10.40625 48.1875 4.484375 
Q 40.765625 -1.421875 27.09375 -1.421875 
Q 22.515625 -1.421875 17.65625 -0.515625 
Q 12.796875 0.390625 7.625 2.203125 
L 7.625 11.71875 
Q 11.71875 9.328125 16.59375 8.109375 
Q 21.484375 6.890625 26.8125 6.890625 
Q 36.078125 6.890625 40.9375 10.546875 
Q 45.796875 14.203125 45.796875 21.1875 
Q 45.796875 27.640625 41.28125 31.265625 
Q 36.765625 34.90625 28.71875 34.90625 
L 20.21875 34.90625 
L 20.21875 43.015625 
L 29.109375 43.015625 
Q 36.375 43.015625 40.234375 45.921875 
Q 44.09375 48.828125 44.09375 54.296875 
Q 44.09375 59.90625 40.109375 62.90625 
Q 36.140625 65.921875 28.71875 65.921875 
Q 24.65625 65.921875 20.015625 65.03125 
Q 15.375 64.15625 9.8125 62.3125 
L 9.8125 71.09375 
Q 15.4375 72.65625 20.34375 73.4375 
Q 25.25 74.21875 29.59375 74.21875 
Q 40.828125 74.21875 47.359375 69.109375 
Q 53.90625 64.015625 53.90625 55.328125 
Q 53.90625 49.265625 50.4375 45.09375 
Q 46.96875 40.921875 40.578125 39.3125 
z
" id="DejaVuSans-51"/>
     </defs>
     <g style="fill:#ffffff;" transform="translate(222.027276 272.705613)scale(0.15 -0.15)">
      <use xlink:href="#DejaVuSans-51"/>
     </g>
    </g>
   </g>
   <g id="text_14">
    <!-- State 1 -->
    <g transform="translate(91.92716 27.241875)scale(0.28 -0.28)">
     <use xlink:href="#ArialMT-83"/>
     <use x="66.699219" xlink:href="#ArialMT-116"/>
     <use x="94.482422" xlink:href="#ArialMT-97"/>
     <use x="150.097656" xlink:href="#ArialMT-116"/>
     <use x="177.880859" xlink:href="#ArialMT-101"/>
     <use x="233.496094" xlink:href="#ArialMT-32"/>
     <use x="261.279297" xlink:href="#ArialMT-49"/>
    </g>
   </g>
  </g>
  <g id="axes_3">
   <g id="patch_14">
    <path clip-path="url(#p7f1b58e79f)" d="M 427.420095 87.547569 
Q 371.812029 165.061844 342.737101 250.889552 
" style="fill:none;stroke:#b91419;stroke-linecap:round;stroke-width:4;"/>
    <path clip-path="url(#p7f1b58e79f)" d="M 345.914758 247.742729 
L 342.737101 250.889552 
L 342.126237 246.459332 
" style="fill:none;stroke:#b91419;stroke-linecap:round;stroke-width:4;"/>
   </g>
   <g id="patch_15">
    <path clip-path="url(#p7f1b58e79f)" d="M 427.420095 87.547569 
Q 456.066675 178.542587 507.283884 253.299154 
" style="fill:none;stroke:#b91419;stroke-linecap:round;stroke-width:4;"/>
    <path clip-path="url(#p7f1b58e79f)" d="M 506.67302 248.868934 
L 507.283884 253.299154 
L 503.37319 251.129714 
" style="fill:none;stroke:#b91419;stroke-linecap:round;stroke-width:4;"/>
   </g>
   <g id="patch_16">
    <path clip-path="url(#p7f1b58e79f)" d="M 336.910605 268.56655 
Q 392.518671 191.052276 421.593599 105.224568 
" style="fill:none;stroke:#b91419;stroke-linecap:round;stroke-width:4;"/>
    <path clip-path="url(#p7f1b58e79f)" d="M 418.415942 108.371391 
L 421.593599 105.224568 
L 422.204463 109.654788 
" style="fill:none;stroke:#b91419;stroke-linecap:round;stroke-width:4;"/>
   </g>
   <g id="patch_17">
    <path clip-path="url(#p7f1b58e79f)" d="M 336.910605 268.56655 
Q 420.425 281.928854 499.507621 271.231462 
" style="fill:none;stroke:#b91419;stroke-linecap:round;stroke-width:4;"/>
    <path clip-path="url(#p7f1b58e79f)" d="M 495.275626 269.785703 
L 499.507621 271.231462 
L 495.811817 273.749602 
" style="fill:none;stroke:#b91419;stroke-linecap:round;stroke-width:4;"/>
   </g>
   <g id="patch_18">
    <path clip-path="url(#p7f1b58e79f)" d="M 517.929586 268.56655 
Q 489.283006 177.571533 438.065796 102.814966 
" style="fill:none;stroke:#b91419;stroke-linecap:round;stroke-width:4;"/>
    <path clip-path="url(#p7f1b58e79f)" d="M 438.67666 107.245185 
L 438.065796 102.814966 
L 441.97649 104.984406 
" style="fill:none;stroke:#b91419;stroke-linecap:round;stroke-width:4;"/>
   </g>
   <g id="patch_19">
    <path clip-path="url(#p7f1b58e79f)" d="M 517.929586 268.56655 
Q 434.41519 255.204247 355.33257 265.901639 
" style="fill:none;stroke:#b91419;stroke-linecap:round;stroke-width:4;"/>
    <path clip-path="url(#p7f1b58e79f)" d="M 359.564565 267.347398 
L 355.33257 265.901639 
L 359.028374 263.383498 
" style="fill:none;stroke:#b91419;stroke-linecap:round;stroke-width:4;"/>
   </g>
   <g id="PathCollection_2">
    <path clip-path="url(#p7f1b58e79f)" d="M 427.420095 101.689705 
C 431.170633 101.689705 434.768064 100.1996 437.420095 97.547569 
C 440.072126 94.895538 441.562231 91.298108 441.562231 87.547569 
C 441.562231 83.797031 440.072126 80.1996 437.420095 77.547569 
C 434.768064 74.895538 431.170633 73.405434 427.420095 73.405434 
C 423.669557 73.405434 420.072126 74.895538 417.420095 77.547569 
C 414.768064 80.1996 413.277959 83.797031 413.277959 87.547569 
C 413.277959 91.298108 414.768064 94.895538 417.420095 97.547569 
C 420.072126 100.1996 423.669557 101.689705 427.420095 101.689705 
z
" style="fill:#0000ff;stroke:#0000ff;"/>
    <path clip-path="url(#p7f1b58e79f)" d="M 336.910605 282.708686 
C 340.661143 282.708686 344.258574 281.218581 346.910605 278.56655 
C 349.562636 275.914519 351.05274 272.317089 351.05274 268.56655 
C 351.05274 264.816012 349.562636 261.218581 346.910605 258.56655 
C 344.258574 255.914519 340.661143 254.424415 336.910605 254.424415 
C 333.160066 254.424415 329.562636 255.914519 326.910605 258.56655 
C 324.258574 261.218581 322.768469 264.816012 322.768469 268.56655 
C 322.768469 272.317089 324.258574 275.914519 326.910605 278.56655 
C 329.562636 281.218581 333.160066 282.708686 336.910605 282.708686 
z
" style="fill:#0000ff;stroke:#0000ff;"/>
    <path clip-path="url(#p7f1b58e79f)" d="M 517.929586 282.708686 
C 521.680124 282.708686 525.277555 281.218581 527.929586 278.56655 
C 530.581617 275.914519 532.071721 272.317089 532.071721 268.56655 
C 532.071721 264.816012 530.581617 261.218581 527.929586 258.56655 
C 525.277555 255.914519 521.680124 254.424415 517.929586 254.424415 
C 514.179047 254.424415 510.581617 255.914519 507.929586 258.56655 
C 505.277555 261.218581 503.78745 264.816012 503.78745 268.56655 
C 503.78745 272.317089 505.277555 275.914519 507.929586 278.56655 
C 510.581617 281.218581 514.179047 282.708686 517.929586 282.708686 
z
" style="fill:#0000ff;stroke:#0000ff;"/>
   </g>
   <g id="line2d_9">
    <path clip-path="url(#p7f1b58e79f)" d="M 336.910605 359.076041 
L 517.929586 359.076041 
" style="fill:none;stroke:#00bfbf;stroke-linecap:square;stroke-width:10;"/>
   </g>
   <g id="text_15">
    <g clip-path="url(#p7f1b58e79f)">
     <!-- 1 -->
     <g style="fill:#ffffff;" transform="translate(422.64822 91.686632)scale(0.15 -0.15)">
      <use xlink:href="#DejaVuSans-49"/>
     </g>
    </g>
   </g>
   <g id="text_16">
    <g clip-path="url(#p7f1b58e79f)">
     <!-- 2 -->
     <g style="fill:#ffffff;" transform="translate(332.13873 272.705613)scale(0.15 -0.15)">
      <use xlink:href="#DejaVuSans-50"/>
     </g>
    </g>
   </g>
   <g id="text_17">
    <g clip-path="url(#p7f1b58e79f)">
     <!-- 3 -->
     <g style="fill:#ffffff;" transform="translate(513.157711 272.705613)scale(0.15 -0.15)">
      <use xlink:href="#DejaVuSans-51"/>
     </g>
    </g>
   </g>
   <g id="text_18">
    <!-- State 2 -->
    <g transform="translate(383.057595 27.241875)scale(0.28 -0.28)">
     <use xlink:href="#ArialMT-83"/>
     <use x="66.699219" xlink:href="#ArialMT-116"/>
     <use x="94.482422" xlink:href="#ArialMT-97"/>
     <use x="150.097656" xlink:href="#ArialMT-116"/>
     <use x="177.880859" xlink:href="#ArialMT-101"/>
     <use x="233.496094" xlink:href="#ArialMT-32"/>
     <use x="261.279297" xlink:href="#ArialMT-50"/>
    </g>
   </g>
  </g>
 </g>
 <defs>
  <clipPath id="pbb45eed6f9">
   <rect height="114.041958" width="1116" x="14.985313" y="462.799917"/>
  </clipPath>
  <clipPath id="pd4c5e28c31">
   <rect height="380.13986" width="242.608696" x="14.985313" y="33.241875"/>
  </clipPath>
  <clipPath id="p7f1b58e79f">
   <rect height="380.13986" width="242.608696" x="306.115747" y="33.241875"/>
  </clipPath>
 </defs>
</svg>
