<?xml version="1.0" encoding="utf-8" standalone="no"?>
<!DOCTYPE svg PUBLIC "-//W3C//DTD SVG 1.1//EN"
  "http://www.w3.org/Graphics/SVG/1.1/DTD/svg11.dtd">
<!-- Created with matplotlib (https://matplotlib.org/) -->
<svg height="288pt" version="1.1" viewBox="0 0 1440 288" width="1440pt" xmlns="http://www.w3.org/2000/svg" xmlns:xlink="http://www.w3.org/1999/xlink">
 <defs>
  <style type="text/css">
*{stroke-linecap:butt;stroke-linejoin:round;}
  </style>
 </defs>
 <g id="figure_1">
  <g id="patch_1">
   <path d="M 0 288 
L 1440 288 
L 1440 0 
L 0 0 
z
" style="fill:#ffffff;"/>
  </g>
  <g id="axes_1">
   <g id="patch_2">
    <path d="M 180 252 
L 1008 252 
L 1008 34.56 
L 180 34.56 
z
" style="fill:#ffffff;"/>
   </g>
   <g id="matplotlib.axis_1">
    <g id="xtick_1">
     <g id="line2d_1">
      <path clip-path="url(#pbc41e1ca5b)" d="M 217.636364 252 
L 217.636364 34.56 
" style="fill:none;stroke:#b0b0b0;stroke-linecap:square;stroke-width:0.8;"/>
     </g>
     <g id="line2d_2">
      <defs>
       <path d="M 0 0 
L 0 3.5 
" id="mf93f22f643" style="stroke:#000000;stroke-width:0.8;"/>
      </defs>
      <g>
       <use style="stroke:#000000;stroke-width:0.8;" x="217.636364" xlink:href="#mf93f22f643" y="252"/>
      </g>
     </g>
     <g id="text_1">
      <!-- 0 -->
      <defs>
       <path d="M 4.15625 35.296875 
Q 4.15625 48 6.765625 55.734375 
Q 9.375 63.484375 14.515625 67.671875 
Q 19.671875 71.875 27.484375 71.875 
Q 33.25 71.875 37.59375 69.546875 
Q 41.9375 67.234375 44.765625 62.859375 
Q 47.609375 58.5 49.21875 52.21875 
Q 50.828125 45.953125 50.828125 35.296875 
Q 50.828125 22.703125 48.234375 14.96875 
Q 45.65625 7.234375 40.5 3 
Q 35.359375 -1.21875 27.484375 -1.21875 
Q 17.140625 -1.21875 11.234375 6.203125 
Q 4.15625 15.140625 4.15625 35.296875 
z
M 13.1875 35.296875 
Q 13.1875 17.671875 17.3125 11.828125 
Q 21.4375 6 27.484375 6 
Q 33.546875 6 37.671875 11.859375 
Q 41.796875 17.71875 41.796875 35.296875 
Q 41.796875 52.984375 37.671875 58.78125 
Q 33.546875 64.59375 27.390625 64.59375 
Q 21.34375 64.59375 17.71875 59.46875 
Q 13.1875 52.9375 13.1875 35.296875 
z
" id="ArialMT-48"/>
      </defs>
      <g transform="translate(214.855895 266.157812)scale(0.1 -0.1)">
       <use xlink:href="#ArialMT-48"/>
      </g>
     </g>
    </g>
    <g id="xtick_2">
     <g id="line2d_3">
      <path clip-path="url(#pbc41e1ca5b)" d="M 468.650044 252 
L 468.650044 34.56 
" style="fill:none;stroke:#b0b0b0;stroke-linecap:square;stroke-width:0.8;"/>
     </g>
     <g id="line2d_4">
      <g>
       <use style="stroke:#000000;stroke-width:0.8;" x="468.650044" xlink:href="#mf93f22f643" y="252"/>
      </g>
     </g>
     <g id="text_2">
      <!-- 1600 -->
      <defs>
       <path d="M 37.25 0 
L 28.46875 0 
L 28.46875 56 
Q 25.296875 52.984375 20.140625 49.953125 
Q 14.984375 46.921875 10.890625 45.40625 
L 10.890625 53.90625 
Q 18.265625 57.375 23.78125 62.296875 
Q 29.296875 67.234375 31.59375 71.875 
L 37.25 71.875 
z
" id="ArialMT-49"/>
       <path d="M 49.75 54.046875 
L 41.015625 53.375 
Q 39.84375 58.546875 37.703125 60.890625 
Q 34.125 64.65625 28.90625 64.65625 
Q 24.703125 64.65625 21.53125 62.3125 
Q 17.390625 59.28125 14.984375 53.46875 
Q 12.59375 47.65625 12.5 36.921875 
Q 15.671875 41.75 20.265625 44.09375 
Q 24.859375 46.4375 29.890625 46.4375 
Q 38.671875 46.4375 44.84375 39.96875 
Q 51.03125 33.5 51.03125 23.25 
Q 51.03125 16.5 48.125 10.71875 
Q 45.21875 4.9375 40.140625 1.859375 
Q 35.0625 -1.21875 28.609375 -1.21875 
Q 17.625 -1.21875 10.6875 6.859375 
Q 3.765625 14.9375 3.765625 33.5 
Q 3.765625 54.25 11.421875 63.671875 
Q 18.109375 71.875 29.4375 71.875 
Q 37.890625 71.875 43.28125 67.140625 
Q 48.6875 62.40625 49.75 54.046875 
z
M 13.875 23.1875 
Q 13.875 18.65625 15.796875 14.5 
Q 17.71875 10.359375 21.1875 8.171875 
Q 24.65625 6 28.46875 6 
Q 34.03125 6 38.03125 10.484375 
Q 42.046875 14.984375 42.046875 22.703125 
Q 42.046875 30.125 38.078125 34.390625 
Q 34.125 38.671875 28.125 38.671875 
Q 22.171875 38.671875 18.015625 34.390625 
Q 13.875 30.125 13.875 23.1875 
z
" id="ArialMT-54"/>
      </defs>
      <g transform="translate(457.528169 266.157812)scale(0.1 -0.1)">
       <use xlink:href="#ArialMT-49"/>
       <use x="55.615234" xlink:href="#ArialMT-54"/>
       <use x="111.230469" xlink:href="#ArialMT-48"/>
       <use x="166.845703" xlink:href="#ArialMT-48"/>
      </g>
     </g>
    </g>
    <g id="xtick_3">
     <g id="line2d_5">
      <path clip-path="url(#pbc41e1ca5b)" d="M 719.663724 252 
L 719.663724 34.56 
" style="fill:none;stroke:#b0b0b0;stroke-linecap:square;stroke-width:0.8;"/>
     </g>
     <g id="line2d_6">
      <g>
       <use style="stroke:#000000;stroke-width:0.8;" x="719.663724" xlink:href="#mf93f22f643" y="252"/>
      </g>
     </g>
     <g id="text_3">
      <!-- 3200 -->
      <defs>
       <path d="M 4.203125 18.890625 
L 12.984375 20.0625 
Q 14.5 12.59375 18.140625 9.296875 
Q 21.78125 6 27 6 
Q 33.203125 6 37.46875 10.296875 
Q 41.75 14.59375 41.75 20.953125 
Q 41.75 27 37.796875 30.921875 
Q 33.84375 34.859375 27.734375 34.859375 
Q 25.25 34.859375 21.53125 33.890625 
L 22.515625 41.609375 
Q 23.390625 41.5 23.921875 41.5 
Q 29.546875 41.5 34.03125 44.421875 
Q 38.53125 47.359375 38.53125 53.46875 
Q 38.53125 58.296875 35.25 61.46875 
Q 31.984375 64.65625 26.8125 64.65625 
Q 21.6875 64.65625 18.265625 61.421875 
Q 14.84375 58.203125 13.875 51.765625 
L 5.078125 53.328125 
Q 6.6875 62.15625 12.390625 67.015625 
Q 18.109375 71.875 26.609375 71.875 
Q 32.46875 71.875 37.390625 69.359375 
Q 42.328125 66.84375 44.9375 62.5 
Q 47.5625 58.15625 47.5625 53.265625 
Q 47.5625 48.640625 45.0625 44.828125 
Q 42.578125 41.015625 37.703125 38.765625 
Q 44.046875 37.3125 47.5625 32.6875 
Q 51.078125 28.078125 51.078125 21.140625 
Q 51.078125 11.765625 44.234375 5.25 
Q 37.40625 -1.265625 26.953125 -1.265625 
Q 17.53125 -1.265625 11.296875 4.34375 
Q 5.078125 9.96875 4.203125 18.890625 
z
" id="ArialMT-51"/>
       <path d="M 50.34375 8.453125 
L 50.34375 0 
L 3.03125 0 
Q 2.9375 3.171875 4.046875 6.109375 
Q 5.859375 10.9375 9.828125 15.625 
Q 13.8125 20.3125 21.34375 26.46875 
Q 33.015625 36.03125 37.109375 41.625 
Q 41.21875 47.21875 41.21875 52.203125 
Q 41.21875 57.421875 37.46875 61 
Q 33.734375 64.59375 27.734375 64.59375 
Q 21.390625 64.59375 17.578125 60.78125 
Q 13.765625 56.984375 13.71875 50.25 
L 4.6875 51.171875 
Q 5.609375 61.28125 11.65625 66.578125 
Q 17.71875 71.875 27.9375 71.875 
Q 38.234375 71.875 44.234375 66.15625 
Q 50.25 60.453125 50.25 52 
Q 50.25 47.703125 48.484375 43.546875 
Q 46.734375 39.40625 42.65625 34.8125 
Q 38.578125 30.21875 29.109375 22.21875 
Q 21.1875 15.578125 18.9375 13.203125 
Q 16.703125 10.84375 15.234375 8.453125 
z
" id="ArialMT-50"/>
      </defs>
      <g transform="translate(708.541849 266.157812)scale(0.1 -0.1)">
       <use xlink:href="#ArialMT-51"/>
       <use x="55.615234" xlink:href="#ArialMT-50"/>
       <use x="111.230469" xlink:href="#ArialMT-48"/>
       <use x="166.845703" xlink:href="#ArialMT-48"/>
      </g>
     </g>
    </g>
    <g id="xtick_4">
     <g id="line2d_7">
      <path clip-path="url(#pbc41e1ca5b)" d="M 970.677403 252 
L 970.677403 34.56 
" style="fill:none;stroke:#b0b0b0;stroke-linecap:square;stroke-width:0.8;"/>
     </g>
     <g id="line2d_8">
      <g>
       <use style="stroke:#000000;stroke-width:0.8;" x="970.677403" xlink:href="#mf93f22f643" y="252"/>
      </g>
     </g>
     <g id="text_4">
      <!-- 4800 -->
      <defs>
       <path d="M 32.328125 0 
L 32.328125 17.140625 
L 1.265625 17.140625 
L 1.265625 25.203125 
L 33.9375 71.578125 
L 41.109375 71.578125 
L 41.109375 25.203125 
L 50.78125 25.203125 
L 50.78125 17.140625 
L 41.109375 17.140625 
L 41.109375 0 
z
M 32.328125 25.203125 
L 32.328125 57.46875 
L 9.90625 25.203125 
z
" id="ArialMT-52"/>
       <path d="M 17.671875 38.8125 
Q 12.203125 40.828125 9.5625 44.53125 
Q 6.9375 48.25 6.9375 53.421875 
Q 6.9375 61.234375 12.546875 66.546875 
Q 18.171875 71.875 27.484375 71.875 
Q 36.859375 71.875 42.578125 66.421875 
Q 48.296875 60.984375 48.296875 53.171875 
Q 48.296875 48.1875 45.671875 44.5 
Q 43.0625 40.828125 37.75 38.8125 
Q 44.34375 36.671875 47.78125 31.875 
Q 51.21875 27.09375 51.21875 20.453125 
Q 51.21875 11.28125 44.71875 5.03125 
Q 38.234375 -1.21875 27.640625 -1.21875 
Q 17.046875 -1.21875 10.546875 5.046875 
Q 4.046875 11.328125 4.046875 20.703125 
Q 4.046875 27.6875 7.59375 32.390625 
Q 11.140625 37.109375 17.671875 38.8125 
z
M 15.921875 53.71875 
Q 15.921875 48.640625 19.1875 45.40625 
Q 22.46875 42.1875 27.6875 42.1875 
Q 32.765625 42.1875 36.015625 45.375 
Q 39.265625 48.578125 39.265625 53.21875 
Q 39.265625 58.0625 35.90625 61.359375 
Q 32.5625 64.65625 27.59375 64.65625 
Q 22.5625 64.65625 19.234375 61.421875 
Q 15.921875 58.203125 15.921875 53.71875 
z
M 13.09375 20.65625 
Q 13.09375 16.890625 14.875 13.375 
Q 16.65625 9.859375 20.171875 7.921875 
Q 23.6875 6 27.734375 6 
Q 34.03125 6 38.125 10.046875 
Q 42.234375 14.109375 42.234375 20.359375 
Q 42.234375 26.703125 38.015625 30.859375 
Q 33.796875 35.015625 27.4375 35.015625 
Q 21.234375 35.015625 17.15625 30.90625 
Q 13.09375 26.8125 13.09375 20.65625 
z
" id="ArialMT-56"/>
      </defs>
      <g transform="translate(959.555528 266.157812)scale(0.1 -0.1)">
       <use xlink:href="#ArialMT-52"/>
       <use x="55.615234" xlink:href="#ArialMT-56"/>
       <use x="111.230469" xlink:href="#ArialMT-48"/>
       <use x="166.845703" xlink:href="#ArialMT-48"/>
      </g>
     </g>
    </g>
    <g id="text_5">
     <!-- # sample -->
     <defs>
      <path d="M 5.03125 -1.21875 
L 9.28125 19.578125 
L 1.03125 19.578125 
L 1.03125 26.859375 
L 10.75 26.859375 
L 14.359375 44.578125 
L 1.03125 44.578125 
L 1.03125 51.859375 
L 15.828125 51.859375 
L 20.0625 72.796875 
L 27.390625 72.796875 
L 23.140625 51.859375 
L 38.53125 51.859375 
L 42.78125 72.796875 
L 50.140625 72.796875 
L 45.90625 51.859375 
L 54.34375 51.859375 
L 54.34375 44.578125 
L 44.4375 44.578125 
L 40.765625 26.859375 
L 54.34375 26.859375 
L 54.34375 19.578125 
L 39.3125 19.578125 
L 35.0625 -1.21875 
L 27.734375 -1.21875 
L 31.9375 19.578125 
L 16.609375 19.578125 
L 12.359375 -1.21875 
z
M 18.0625 26.859375 
L 33.40625 26.859375 
L 37.0625 44.578125 
L 21.6875 44.578125 
z
" id="ArialMT-35"/>
      <path id="ArialMT-32"/>
      <path d="M 3.078125 15.484375 
L 11.765625 16.84375 
Q 12.5 11.625 15.84375 8.84375 
Q 19.1875 6.0625 25.203125 6.0625 
Q 31.25 6.0625 34.171875 8.515625 
Q 37.109375 10.984375 37.109375 14.3125 
Q 37.109375 17.28125 34.515625 19 
Q 32.71875 20.171875 25.53125 21.96875 
Q 15.875 24.421875 12.140625 26.203125 
Q 8.40625 27.984375 6.46875 31.125 
Q 4.546875 34.28125 4.546875 38.09375 
Q 4.546875 41.546875 6.125 44.5 
Q 7.71875 47.46875 10.453125 49.421875 
Q 12.5 50.921875 16.03125 51.96875 
Q 19.578125 53.03125 23.640625 53.03125 
Q 29.734375 53.03125 34.34375 51.265625 
Q 38.96875 49.515625 41.15625 46.5 
Q 43.359375 43.5 44.1875 38.484375 
L 35.59375 37.3125 
Q 35.015625 41.3125 32.203125 43.546875 
Q 29.390625 45.796875 24.265625 45.796875 
Q 18.21875 45.796875 15.625 43.796875 
Q 13.03125 41.796875 13.03125 39.109375 
Q 13.03125 37.40625 14.109375 36.03125 
Q 15.1875 34.625 17.484375 33.6875 
Q 18.796875 33.203125 25.25 31.453125 
Q 34.578125 28.953125 38.25 27.359375 
Q 41.9375 25.78125 44.03125 22.75 
Q 46.140625 19.734375 46.140625 15.234375 
Q 46.140625 10.84375 43.578125 6.953125 
Q 41.015625 3.078125 36.171875 0.953125 
Q 31.34375 -1.171875 25.25 -1.171875 
Q 15.140625 -1.171875 9.84375 3.03125 
Q 4.546875 7.234375 3.078125 15.484375 
z
" id="ArialMT-115"/>
      <path d="M 40.4375 6.390625 
Q 35.546875 2.25 31.03125 0.53125 
Q 26.515625 -1.171875 21.34375 -1.171875 
Q 12.796875 -1.171875 8.203125 3 
Q 3.609375 7.171875 3.609375 13.671875 
Q 3.609375 17.484375 5.34375 20.625 
Q 7.078125 23.78125 9.890625 25.6875 
Q 12.703125 27.59375 16.21875 28.5625 
Q 18.796875 29.25 24.03125 29.890625 
Q 34.671875 31.15625 39.703125 32.90625 
Q 39.75 34.71875 39.75 35.203125 
Q 39.75 40.578125 37.25 42.78125 
Q 33.890625 45.75 27.25 45.75 
Q 21.046875 45.75 18.09375 43.578125 
Q 15.140625 41.40625 13.71875 35.890625 
L 5.125 37.0625 
Q 6.296875 42.578125 8.984375 45.96875 
Q 11.671875 49.359375 16.75 51.1875 
Q 21.828125 53.03125 28.515625 53.03125 
Q 35.15625 53.03125 39.296875 51.46875 
Q 43.453125 49.90625 45.40625 47.53125 
Q 47.359375 45.171875 48.140625 41.546875 
Q 48.578125 39.3125 48.578125 33.453125 
L 48.578125 21.734375 
Q 48.578125 9.46875 49.140625 6.21875 
Q 49.703125 2.984375 51.375 0 
L 42.1875 0 
Q 40.828125 2.734375 40.4375 6.390625 
z
M 39.703125 26.03125 
Q 34.90625 24.078125 25.34375 22.703125 
Q 19.921875 21.921875 17.671875 20.9375 
Q 15.4375 19.96875 14.203125 18.09375 
Q 12.984375 16.21875 12.984375 13.921875 
Q 12.984375 10.40625 15.640625 8.0625 
Q 18.3125 5.71875 23.4375 5.71875 
Q 28.515625 5.71875 32.46875 7.9375 
Q 36.421875 10.15625 38.28125 14.015625 
Q 39.703125 17 39.703125 22.796875 
z
" id="ArialMT-97"/>
      <path d="M 6.59375 0 
L 6.59375 51.859375 
L 14.453125 51.859375 
L 14.453125 44.578125 
Q 16.890625 48.390625 20.9375 50.703125 
Q 25 53.03125 30.171875 53.03125 
Q 35.9375 53.03125 39.625 50.640625 
Q 43.3125 48.25 44.828125 43.953125 
Q 50.984375 53.03125 60.84375 53.03125 
Q 68.5625 53.03125 72.703125 48.75 
Q 76.859375 44.484375 76.859375 35.59375 
L 76.859375 0 
L 68.109375 0 
L 68.109375 32.671875 
Q 68.109375 37.9375 67.25 40.25 
Q 66.40625 42.578125 64.15625 43.984375 
Q 61.921875 45.40625 58.890625 45.40625 
Q 53.421875 45.40625 49.796875 41.765625 
Q 46.1875 38.140625 46.1875 30.125 
L 46.1875 0 
L 37.40625 0 
L 37.40625 33.6875 
Q 37.40625 39.546875 35.25 42.46875 
Q 33.109375 45.40625 28.21875 45.40625 
Q 24.515625 45.40625 21.359375 43.453125 
Q 18.21875 41.5 16.796875 37.734375 
Q 15.375 33.984375 15.375 26.90625 
L 15.375 0 
z
" id="ArialMT-109"/>
      <path d="M 6.59375 -19.875 
L 6.59375 51.859375 
L 14.59375 51.859375 
L 14.59375 45.125 
Q 17.4375 49.078125 21 51.046875 
Q 24.5625 53.03125 29.640625 53.03125 
Q 36.28125 53.03125 41.359375 49.609375 
Q 46.4375 46.1875 49.015625 39.953125 
Q 51.609375 33.734375 51.609375 26.3125 
Q 51.609375 18.359375 48.75 11.984375 
Q 45.90625 5.609375 40.453125 2.21875 
Q 35.015625 -1.171875 29 -1.171875 
Q 24.609375 -1.171875 21.109375 0.6875 
Q 17.625 2.546875 15.375 5.375 
L 15.375 -19.875 
z
M 14.546875 25.640625 
Q 14.546875 15.625 18.59375 10.84375 
Q 22.65625 6.0625 28.421875 6.0625 
Q 34.28125 6.0625 38.453125 11.015625 
Q 42.625 15.96875 42.625 26.375 
Q 42.625 36.28125 38.546875 41.203125 
Q 34.46875 46.140625 28.8125 46.140625 
Q 23.1875 46.140625 18.859375 40.890625 
Q 14.546875 35.640625 14.546875 25.640625 
z
" id="ArialMT-112"/>
      <path d="M 6.390625 0 
L 6.390625 71.578125 
L 15.1875 71.578125 
L 15.1875 0 
z
" id="ArialMT-108"/>
      <path d="M 42.09375 16.703125 
L 51.171875 15.578125 
Q 49.03125 7.625 43.21875 3.21875 
Q 37.40625 -1.171875 28.375 -1.171875 
Q 17 -1.171875 10.328125 5.828125 
Q 3.65625 12.84375 3.65625 25.484375 
Q 3.65625 38.578125 10.390625 45.796875 
Q 17.140625 53.03125 27.875 53.03125 
Q 38.28125 53.03125 44.875 45.953125 
Q 51.46875 38.875 51.46875 26.03125 
Q 51.46875 25.25 51.421875 23.6875 
L 12.75 23.6875 
Q 13.234375 15.140625 17.578125 10.59375 
Q 21.921875 6.0625 28.421875 6.0625 
Q 33.25 6.0625 36.671875 8.59375 
Q 40.09375 11.140625 42.09375 16.703125 
z
M 13.234375 30.90625 
L 42.1875 30.90625 
Q 41.609375 37.453125 38.875 40.71875 
Q 34.671875 45.796875 27.984375 45.796875 
Q 21.921875 45.796875 17.796875 41.75 
Q 13.671875 37.703125 13.234375 30.90625 
z
" id="ArialMT-101"/>
     </defs>
     <g transform="translate(557.483906 285.24875)scale(0.18 -0.18)">
      <use xlink:href="#ArialMT-35"/>
      <use x="55.615234" xlink:href="#ArialMT-32"/>
      <use x="83.398438" xlink:href="#ArialMT-115"/>
      <use x="133.398438" xlink:href="#ArialMT-97"/>
      <use x="189.013672" xlink:href="#ArialMT-109"/>
      <use x="272.314453" xlink:href="#ArialMT-112"/>
      <use x="327.929688" xlink:href="#ArialMT-108"/>
      <use x="350.146484" xlink:href="#ArialMT-101"/>
     </g>
    </g>
   </g>
   <g id="matplotlib.axis_2">
    <g id="ytick_1">
     <g id="line2d_9">
      <path clip-path="url(#pbc41e1ca5b)" d="M 180 249.9657 
L 1008 249.9657 
" style="fill:none;stroke:#b0b0b0;stroke-linecap:square;stroke-width:0.8;"/>
     </g>
     <g id="line2d_10">
      <defs>
       <path d="M 0 0 
L -3.5 0 
" id="mce02cf7550" style="stroke:#000000;stroke-width:0.8;"/>
      </defs>
      <g>
       <use style="stroke:#000000;stroke-width:0.8;" x="180" xlink:href="#mce02cf7550" y="249.9657"/>
      </g>
     </g>
     <g id="text_6">
      <!-- −1200 -->
      <defs>
       <path d="M 52.828125 31.203125 
L 5.5625 31.203125 
L 5.5625 39.40625 
L 52.828125 39.40625 
z
" id="ArialMT-8722"/>
      </defs>
      <g transform="translate(144.915625 253.544606)scale(0.1 -0.1)">
       <use xlink:href="#ArialMT-8722"/>
       <use x="58.398438" xlink:href="#ArialMT-49"/>
       <use x="114.013672" xlink:href="#ArialMT-50"/>
       <use x="169.628906" xlink:href="#ArialMT-48"/>
       <use x="225.244141" xlink:href="#ArialMT-48"/>
      </g>
     </g>
    </g>
    <g id="ytick_2">
     <g id="line2d_11">
      <path clip-path="url(#pbc41e1ca5b)" d="M 180 215.712023 
L 1008 215.712023 
" style="fill:none;stroke:#b0b0b0;stroke-linecap:square;stroke-width:0.8;"/>
     </g>
     <g id="line2d_12">
      <g>
       <use style="stroke:#000000;stroke-width:0.8;" x="180" xlink:href="#mce02cf7550" y="215.712023"/>
      </g>
     </g>
     <g id="text_7">
      <!-- −1000 -->
      <g transform="translate(144.915625 219.290929)scale(0.1 -0.1)">
       <use xlink:href="#ArialMT-8722"/>
       <use x="58.398438" xlink:href="#ArialMT-49"/>
       <use x="114.013672" xlink:href="#ArialMT-48"/>
       <use x="169.628906" xlink:href="#ArialMT-48"/>
       <use x="225.244141" xlink:href="#ArialMT-48"/>
      </g>
     </g>
    </g>
    <g id="ytick_3">
     <g id="line2d_13">
      <path clip-path="url(#pbc41e1ca5b)" d="M 180 181.458345 
L 1008 181.458345 
" style="fill:none;stroke:#b0b0b0;stroke-linecap:square;stroke-width:0.8;"/>
     </g>
     <g id="line2d_14">
      <g>
       <use style="stroke:#000000;stroke-width:0.8;" x="180" xlink:href="#mce02cf7550" y="181.458345"/>
      </g>
     </g>
     <g id="text_8">
      <!-- −800 -->
      <g transform="translate(150.476562 185.037252)scale(0.1 -0.1)">
       <use xlink:href="#ArialMT-8722"/>
       <use x="58.398438" xlink:href="#ArialMT-56"/>
       <use x="114.013672" xlink:href="#ArialMT-48"/>
       <use x="169.628906" xlink:href="#ArialMT-48"/>
      </g>
     </g>
    </g>
    <g id="ytick_4">
     <g id="line2d_15">
      <path clip-path="url(#pbc41e1ca5b)" d="M 180 147.204668 
L 1008 147.204668 
" style="fill:none;stroke:#b0b0b0;stroke-linecap:square;stroke-width:0.8;"/>
     </g>
     <g id="line2d_16">
      <g>
       <use style="stroke:#000000;stroke-width:0.8;" x="180" xlink:href="#mce02cf7550" y="147.204668"/>
      </g>
     </g>
     <g id="text_9">
      <!-- −600 -->
      <g transform="translate(150.476562 150.783574)scale(0.1 -0.1)">
       <use xlink:href="#ArialMT-8722"/>
       <use x="58.398438" xlink:href="#ArialMT-54"/>
       <use x="114.013672" xlink:href="#ArialMT-48"/>
       <use x="169.628906" xlink:href="#ArialMT-48"/>
      </g>
     </g>
    </g>
    <g id="ytick_5">
     <g id="line2d_17">
      <path clip-path="url(#pbc41e1ca5b)" d="M 180 112.950991 
L 1008 112.950991 
" style="fill:none;stroke:#b0b0b0;stroke-linecap:square;stroke-width:0.8;"/>
     </g>
     <g id="line2d_18">
      <g>
       <use style="stroke:#000000;stroke-width:0.8;" x="180" xlink:href="#mce02cf7550" y="112.950991"/>
      </g>
     </g>
     <g id="text_10">
      <!-- −400 -->
      <g transform="translate(150.476562 116.529897)scale(0.1 -0.1)">
       <use xlink:href="#ArialMT-8722"/>
       <use x="58.398438" xlink:href="#ArialMT-52"/>
       <use x="114.013672" xlink:href="#ArialMT-48"/>
       <use x="169.628906" xlink:href="#ArialMT-48"/>
      </g>
     </g>
    </g>
    <g id="ytick_6">
     <g id="line2d_19">
      <path clip-path="url(#pbc41e1ca5b)" d="M 180 78.697313 
L 1008 78.697313 
" style="fill:none;stroke:#b0b0b0;stroke-linecap:square;stroke-width:0.8;"/>
     </g>
     <g id="line2d_20">
      <g>
       <use style="stroke:#000000;stroke-width:0.8;" x="180" xlink:href="#mce02cf7550" y="78.697313"/>
      </g>
     </g>
     <g id="text_11">
      <!-- −200 -->
      <g transform="translate(150.476562 82.27622)scale(0.1 -0.1)">
       <use xlink:href="#ArialMT-8722"/>
       <use x="58.398438" xlink:href="#ArialMT-50"/>
       <use x="114.013672" xlink:href="#ArialMT-48"/>
       <use x="169.628906" xlink:href="#ArialMT-48"/>
      </g>
     </g>
    </g>
    <g id="ytick_7">
     <g id="line2d_21">
      <path clip-path="url(#pbc41e1ca5b)" d="M 180 44.443636 
L 1008 44.443636 
" style="fill:none;stroke:#b0b0b0;stroke-linecap:square;stroke-width:0.8;"/>
     </g>
     <g id="line2d_22">
      <g>
       <use style="stroke:#000000;stroke-width:0.8;" x="180" xlink:href="#mce02cf7550" y="44.443636"/>
      </g>
     </g>
     <g id="text_12">
      <!-- 0 -->
      <g transform="translate(167.439063 48.022542)scale(0.1 -0.1)">
       <use xlink:href="#ArialMT-48"/>
      </g>
     </g>
    </g>
    <g id="text_13">
     <!-- Log-likelihood (a.u.) -->
     <defs>
      <path d="M 7.328125 0 
L 7.328125 71.578125 
L 16.796875 71.578125 
L 16.796875 8.453125 
L 52.046875 8.453125 
L 52.046875 0 
z
" id="ArialMT-76"/>
      <path d="M 3.328125 25.921875 
Q 3.328125 40.328125 11.328125 47.265625 
Q 18.015625 53.03125 27.640625 53.03125 
Q 38.328125 53.03125 45.109375 46.015625 
Q 51.90625 39.015625 51.90625 26.65625 
Q 51.90625 16.65625 48.90625 10.90625 
Q 45.90625 5.171875 40.15625 2 
Q 34.421875 -1.171875 27.640625 -1.171875 
Q 16.75 -1.171875 10.03125 5.8125 
Q 3.328125 12.796875 3.328125 25.921875 
z
M 12.359375 25.921875 
Q 12.359375 15.96875 16.703125 11.015625 
Q 21.046875 6.0625 27.640625 6.0625 
Q 34.1875 6.0625 38.53125 11.03125 
Q 42.875 16.015625 42.875 26.21875 
Q 42.875 35.84375 38.5 40.796875 
Q 34.125 45.75 27.640625 45.75 
Q 21.046875 45.75 16.703125 40.8125 
Q 12.359375 35.890625 12.359375 25.921875 
z
" id="ArialMT-111"/>
      <path d="M 4.984375 -4.296875 
L 13.53125 -5.5625 
Q 14.0625 -9.515625 16.5 -11.328125 
Q 19.78125 -13.765625 25.4375 -13.765625 
Q 31.546875 -13.765625 34.859375 -11.328125 
Q 38.1875 -8.890625 39.359375 -4.5 
Q 40.046875 -1.8125 39.984375 6.78125 
Q 34.234375 0 25.640625 0 
Q 14.9375 0 9.078125 7.71875 
Q 3.21875 15.4375 3.21875 26.21875 
Q 3.21875 33.640625 5.90625 39.90625 
Q 8.59375 46.1875 13.6875 49.609375 
Q 18.796875 53.03125 25.6875 53.03125 
Q 34.859375 53.03125 40.828125 45.609375 
L 40.828125 51.859375 
L 48.921875 51.859375 
L 48.921875 7.03125 
Q 48.921875 -5.078125 46.453125 -10.125 
Q 44 -15.1875 38.640625 -18.109375 
Q 33.296875 -21.046875 25.484375 -21.046875 
Q 16.21875 -21.046875 10.5 -16.875 
Q 4.78125 -12.703125 4.984375 -4.296875 
z
M 12.25 26.859375 
Q 12.25 16.65625 16.296875 11.96875 
Q 20.359375 7.28125 26.46875 7.28125 
Q 32.515625 7.28125 36.609375 11.9375 
Q 40.71875 16.609375 40.71875 26.5625 
Q 40.71875 36.078125 36.5 40.90625 
Q 32.28125 45.75 26.3125 45.75 
Q 20.453125 45.75 16.34375 40.984375 
Q 12.25 36.234375 12.25 26.859375 
z
" id="ArialMT-103"/>
      <path d="M 3.171875 21.484375 
L 3.171875 30.328125 
L 30.171875 30.328125 
L 30.171875 21.484375 
z
" id="ArialMT-45"/>
      <path d="M 6.640625 61.46875 
L 6.640625 71.578125 
L 15.4375 71.578125 
L 15.4375 61.46875 
z
M 6.640625 0 
L 6.640625 51.859375 
L 15.4375 51.859375 
L 15.4375 0 
z
" id="ArialMT-105"/>
      <path d="M 6.640625 0 
L 6.640625 71.578125 
L 15.4375 71.578125 
L 15.4375 30.765625 
L 36.234375 51.859375 
L 47.609375 51.859375 
L 27.78125 32.625 
L 49.609375 0 
L 38.765625 0 
L 21.625 26.515625 
L 15.4375 20.5625 
L 15.4375 0 
z
" id="ArialMT-107"/>
      <path d="M 6.59375 0 
L 6.59375 71.578125 
L 15.375 71.578125 
L 15.375 45.90625 
Q 21.53125 53.03125 30.90625 53.03125 
Q 36.671875 53.03125 40.921875 50.75 
Q 45.171875 48.484375 47 44.484375 
Q 48.828125 40.484375 48.828125 32.859375 
L 48.828125 0 
L 40.046875 0 
L 40.046875 32.859375 
Q 40.046875 39.453125 37.1875 42.453125 
Q 34.328125 45.453125 29.109375 45.453125 
Q 25.203125 45.453125 21.75 43.421875 
Q 18.3125 41.40625 16.84375 37.9375 
Q 15.375 34.46875 15.375 28.375 
L 15.375 0 
z
" id="ArialMT-104"/>
      <path d="M 40.234375 0 
L 40.234375 6.546875 
Q 35.296875 -1.171875 25.734375 -1.171875 
Q 19.53125 -1.171875 14.328125 2.25 
Q 9.125 5.671875 6.265625 11.796875 
Q 3.421875 17.921875 3.421875 25.875 
Q 3.421875 33.640625 6 39.96875 
Q 8.59375 46.296875 13.765625 49.65625 
Q 18.953125 53.03125 25.34375 53.03125 
Q 30.03125 53.03125 33.6875 51.046875 
Q 37.359375 49.078125 39.65625 45.90625 
L 39.65625 71.578125 
L 48.390625 71.578125 
L 48.390625 0 
z
M 12.453125 25.875 
Q 12.453125 15.921875 16.640625 10.984375 
Q 20.84375 6.0625 26.5625 6.0625 
Q 32.328125 6.0625 36.34375 10.765625 
Q 40.375 15.484375 40.375 25.140625 
Q 40.375 35.796875 36.265625 40.765625 
Q 32.171875 45.75 26.171875 45.75 
Q 20.3125 45.75 16.375 40.96875 
Q 12.453125 36.1875 12.453125 25.875 
z
" id="ArialMT-100"/>
      <path d="M 23.390625 -21.046875 
Q 16.109375 -11.859375 11.078125 0.4375 
Q 6.0625 12.75 6.0625 25.921875 
Q 6.0625 37.546875 9.8125 48.1875 
Q 14.203125 60.546875 23.390625 72.796875 
L 29.6875 72.796875 
Q 23.78125 62.640625 21.875 58.296875 
Q 18.890625 51.5625 17.1875 44.234375 
Q 15.09375 35.109375 15.09375 25.875 
Q 15.09375 2.390625 29.6875 -21.046875 
z
" id="ArialMT-40"/>
      <path d="M 9.078125 0 
L 9.078125 10.015625 
L 19.09375 10.015625 
L 19.09375 0 
z
" id="ArialMT-46"/>
      <path d="M 40.578125 0 
L 40.578125 7.625 
Q 34.515625 -1.171875 24.125 -1.171875 
Q 19.53125 -1.171875 15.546875 0.578125 
Q 11.578125 2.34375 9.640625 5 
Q 7.71875 7.671875 6.9375 11.53125 
Q 6.390625 14.109375 6.390625 19.734375 
L 6.390625 51.859375 
L 15.1875 51.859375 
L 15.1875 23.09375 
Q 15.1875 16.21875 15.71875 13.8125 
Q 16.546875 10.359375 19.234375 8.375 
Q 21.921875 6.390625 25.875 6.390625 
Q 29.828125 6.390625 33.296875 8.421875 
Q 36.765625 10.453125 38.203125 13.9375 
Q 39.65625 17.4375 39.65625 24.078125 
L 39.65625 51.859375 
L 48.4375 51.859375 
L 48.4375 0 
z
" id="ArialMT-117"/>
      <path d="M 12.359375 -21.046875 
L 6.0625 -21.046875 
Q 20.65625 2.390625 20.65625 25.875 
Q 20.65625 35.0625 18.5625 44.09375 
Q 16.890625 51.421875 13.921875 58.15625 
Q 12.015625 62.546875 6.0625 72.796875 
L 12.359375 72.796875 
Q 21.53125 60.546875 25.921875 48.1875 
Q 29.6875 37.546875 29.6875 25.921875 
Q 29.6875 12.75 24.625 0.4375 
Q 19.578125 -11.859375 12.359375 -21.046875 
z
" id="ArialMT-41"/>
     </defs>
     <g transform="translate(137.127187 222.318281)rotate(-90)scale(0.18 -0.18)">
      <use xlink:href="#ArialMT-76"/>
      <use x="55.615234" xlink:href="#ArialMT-111"/>
      <use x="111.230469" xlink:href="#ArialMT-103"/>
      <use x="166.845703" xlink:href="#ArialMT-45"/>
      <use x="200.146484" xlink:href="#ArialMT-108"/>
      <use x="222.363281" xlink:href="#ArialMT-105"/>
      <use x="244.580078" xlink:href="#ArialMT-107"/>
      <use x="294.580078" xlink:href="#ArialMT-101"/>
      <use x="350.195312" xlink:href="#ArialMT-108"/>
      <use x="372.412109" xlink:href="#ArialMT-105"/>
      <use x="394.628906" xlink:href="#ArialMT-104"/>
      <use x="450.244141" xlink:href="#ArialMT-111"/>
      <use x="505.859375" xlink:href="#ArialMT-111"/>
      <use x="561.474609" xlink:href="#ArialMT-100"/>
      <use x="617.089844" xlink:href="#ArialMT-32"/>
      <use x="644.873047" xlink:href="#ArialMT-40"/>
      <use x="678.173828" xlink:href="#ArialMT-97"/>
      <use x="733.789062" xlink:href="#ArialMT-46"/>
      <use x="761.572266" xlink:href="#ArialMT-117"/>
      <use x="817.1875" xlink:href="#ArialMT-46"/>
      <use x="844.970703" xlink:href="#ArialMT-41"/>
     </g>
    </g>
   </g>
   <g id="line2d_23">
    <path clip-path="url(#pbc41e1ca5b)" d="M 217.636364 242.116364 
L 217.793247 94.277542 
L 217.950131 56.976953 
L 218.107014 47.610256 
L 218.263898 45.31163 
L 218.577665 44.523427 
L 219.048316 44.473972 
L 220.774035 44.525321 
L 221.244685 44.636727 
L 221.558452 44.734273 
L 221.715336 44.769248 
L 221.872219 44.602341 
L 222.185987 44.679709 
L 222.656637 44.499965 
L 223.284171 44.499676 
L 223.754822 44.481926 
L 225.951192 44.465722 
L 226.108075 44.54969 
L 226.421842 44.490945 
L 226.578726 44.560342 
L 226.892493 44.458519 
L 227.833794 44.509926 
L 228.147561 44.477414 
L 228.304445 44.531961 
L 228.618212 44.466888 
L 231.755883 44.500285 
L 232.226534 44.474378 
L 241.953314 44.444476 
L 327.297965 44.444062 
L 350.202963 44.444583 
L 369.49964 44.443749 
L 388.9532 44.443808 
L 434.292546 44.444371 
L 468.336276 44.444521 
L 468.49316 45.289047 
L 468.806927 45.332229 
L 469.905112 45.265891 
L 472.101482 44.614044 
L 473.35655 44.481958 
L 476.02357 44.481687 
L 480.88696 44.546147 
L 482.142029 44.547554 
L 488.888022 44.663763 
L 489.672439 44.675115 
L 491.398158 44.714401 
L 492.025693 44.730208 
L 494.849596 44.72983 
L 495.947781 44.735559 
L 496.575315 44.695703 
L 497.516617 44.679143 
L 498.144151 44.60447 
L 499.399219 44.569354 
L 500.497404 44.518038 
L 504.105726 44.497147 
L 506.615863 44.52049 
L 507.557164 44.520909 
L 510.224184 44.531877 
L 512.891205 44.47181 
L 519.009663 44.484628 
L 525.912539 44.599449 
L 526.540074 44.611436 
L 532.501648 44.732648 
L 532.815416 44.701941 
L 533.44295 44.654446 
L 536.266854 44.527492 
L 543.483497 44.641498 
L 544.581682 44.629129 
L 547.562469 44.655145 
L 548.503771 44.633728 
L 550.543257 44.600142 
L 551.641442 44.602974 
L 552.268976 44.579872 
L 567.172913 44.520874 
L 568.898632 44.536007 
L 571.408769 44.542092 
L 572.193187 44.553215 
L 573.762022 44.554127 
L 583.488802 44.46905 
L 585.685172 44.525233 
L 599.961575 44.449284 
L 603.72678 44.492707 
L 606.707568 44.554415 
L 607.491985 44.564284 
L 609.374588 44.546895 
L 614.081094 44.453258 
L 618.473834 44.578591 
L 619.728902 44.582927 
L 622.082155 44.623835 
L 623.650991 44.590928 
L 626.631778 44.505506 
L 627.102429 44.513338 
L 628.357497 44.526842 
L 631.965819 44.782409 
L 632.279586 44.846861 
L 632.750237 44.889418 
L 633.064004 44.968557 
L 636.358558 45.13436 
L 638.241161 45.109173 
L 638.398045 45.183958 
L 639.025579 45.059815 
L 639.496229 45.103218 
L 639.96688 45.044068 
L 640.280647 45.032203 
L 641.065065 45.018161 
L 643.732085 44.88356 
L 644.35962 44.848361 
L 645.928455 44.775977 
L 648.438592 44.703641 
L 649.379893 44.699648 
L 649.850544 44.657255 
L 650.321194 44.647474 
L 651.419379 44.58367 
L 651.733146 44.61193 
L 652.674448 44.559339 
L 653.301982 44.606928 
L 653.615749 44.56129 
L 657.380954 44.502316 
L 658.792906 44.476756 
L 693.777938 44.445416 
L 702.249649 44.524768 
L 702.877184 44.578284 
L 703.818485 44.590611 
L 704.91667 44.601079 
L 705.857971 44.569005 
L 706.642389 44.573933 
L 711.348895 44.464596 
L 719.349956 44.515115 
L 719.50684 44.559353 
L 719.820607 44.443885 
L 720.918792 44.62434 
L 721.232559 44.580054 
L 721.546326 44.650008 
L 721.70321 44.54596 
L 721.860093 44.691813 
L 722.016977 44.574079 
L 722.17386 44.629731 
L 722.330744 44.551767 
L 722.644511 44.770146 
L 722.958278 44.510403 
L 723.428929 44.568659 
L 723.742696 44.540197 
L 723.899579 44.814627 
L 724.213346 44.471498 
L 724.840881 44.629607 
L 724.997764 44.662278 
L 725.311531 44.469952 
L 725.468415 44.597573 
L 725.625298 44.452241 
L 725.939066 44.558613 
L 727.03725 44.534465 
L 727.194134 44.640872 
L 727.507901 44.571904 
L 727.664785 44.759964 
L 727.821668 44.456556 
L 727.978552 44.687959 
L 728.135435 44.621708 
L 728.292319 44.677478 
L 728.449202 44.493594 
L 728.762969 44.495642 
L 729.23362 44.470871 
L 730.174921 44.546321 
L 730.331805 44.663221 
L 731.116223 44.509248 
L 731.273106 44.671462 
L 732.214408 44.541058 
L 732.371291 44.644887 
L 732.528175 44.454635 
L 732.685058 44.528014 
L 732.998825 44.466232 
L 733.155709 44.484642 
L 733.469476 44.736471 
L 733.626359 44.488033 
L 733.783243 44.624279 
L 733.940127 44.509969 
L 734.09701 44.584907 
L 734.410777 44.535726 
L 734.567661 44.711624 
L 734.724544 44.525271 
L 735.822729 44.518988 
L 735.979613 44.737572 
L 736.136496 44.458936 
L 736.76403 44.629226 
L 736.920914 44.479042 
L 737.391565 44.480217 
L 737.705332 44.503885 
L 738.48975 44.539423 
L 738.646633 44.487437 
L 738.9604 44.514303 
L 739.274167 44.569093 
L 739.431051 44.453753 
L 739.587934 44.660114 
L 739.901701 44.474545 
L 740.372352 44.496601 
L 741.470537 44.564133 
L 741.627421 44.666933 
L 741.784304 44.494984 
L 741.941188 44.519416 
L 742.098071 44.666627 
L 742.568722 44.477614 
L 742.882489 44.462679 
L 743.039372 44.839325 
L 743.196256 44.739298 
L 743.35314 44.499675 
L 743.666907 44.517407 
L 745.863276 44.588009 
L 746.02016 44.681343 
L 746.333927 44.521128 
L 746.647694 44.573667 
L 746.961461 44.475966 
L 747.118345 44.753388 
L 747.902763 44.790285 
L 748.059646 44.553357 
L 748.530297 44.669953 
L 748.68718 44.489049 
L 749.157831 44.616445 
L 749.471598 44.493886 
L 749.942249 44.707514 
L 750.099132 44.793946 
L 750.256016 44.553717 
L 750.726666 44.622209 
L 751.354201 44.48195 
L 751.824851 44.539773 
L 752.138618 44.455277 
L 752.295502 44.524381 
L 752.452385 44.457675 
L 752.766153 44.462128 
L 753.393687 44.474706 
L 753.864337 44.45682 
L 754.021221 44.628385 
L 754.178105 44.490364 
L 754.334988 44.655968 
L 754.648755 44.514865 
L 754.805639 44.676037 
L 755.433173 44.47186 
L 756.374474 44.455749 
L 756.531358 44.548082 
L 757.002008 44.469586 
L 757.629543 44.575984 
L 757.786426 44.799557 
L 757.94331 44.518511 
L 758.727727 44.61623 
L 759.041495 44.61722 
L 759.355262 44.594141 
L 759.512145 44.844899 
L 759.669029 44.767937 
L 759.825912 44.520432 
L 759.982796 44.655555 
L 760.139679 44.970499 
L 760.453447 44.557332 
L 760.61033 44.726037 
L 760.924097 44.526482 
L 761.080981 44.919979 
L 761.394748 44.873293 
L 761.551631 44.556962 
L 761.708515 44.555896 
L 761.865398 44.739553 
L 762.022282 44.569511 
L 762.336049 45.026193 
L 762.492933 44.544648 
L 762.649816 44.556645 
L 762.8067 44.689541 
L 763.120467 44.46476 
L 763.434234 44.621122 
L 763.591118 44.806627 
L 763.904885 44.480094 
L 764.218652 44.509437 
L 764.532419 44.604152 
L 764.689302 44.680648 
L 765.47372 44.501427 
L 765.944371 44.598956 
L 766.101254 44.510946 
L 766.258138 44.657596 
L 766.571905 44.458545 
L 767.042556 44.661253 
L 767.199439 44.479486 
L 767.826973 44.479273 
L 767.983857 44.723447 
L 768.14074 44.461486 
L 768.297624 44.571189 
L 768.454508 44.469753 
L 768.611391 44.551581 
L 768.925158 44.503536 
L 769.395809 44.458884 
L 769.86646 44.484061 
L 770.493994 44.477335 
L 771.278411 44.513763 
L 771.592179 44.487007 
L 772.376596 44.456521 
L 772.690363 44.494734 
L 773.317898 44.554018 
L 773.631665 44.475995 
L 773.945432 44.503524 
L 774.102315 44.459891 
L 774.416082 44.671874 
L 774.572966 44.488378 
L 774.886733 44.494418 
L 776.926219 44.5219 
L 777.083103 44.457225 
L 777.239986 44.67777 
L 777.39687 44.46964 
L 777.553753 44.630282 
L 777.710637 44.499838 
L 777.867521 44.58212 
L 778.338171 44.470323 
L 778.495055 44.453342 
L 778.651938 44.664983 
L 778.808822 44.533549 
L 778.965705 44.625114 
L 779.122589 44.467834 
L 779.279473 44.635841 
L 779.436356 44.532527 
L 779.59324 44.625377 
L 779.750123 44.460955 
L 780.06389 44.680757 
L 780.220774 44.477299 
L 780.848308 44.531808 
L 781.005192 44.809299 
L 781.162075 44.475656 
L 781.475842 44.611016 
L 781.632726 44.567689 
L 781.789609 44.737168 
L 781.946493 44.519635 
L 782.730911 44.647058 
L 782.887794 44.488844 
L 783.829095 44.532203 
L 783.985979 44.780901 
L 784.142863 44.510479 
L 784.45663 44.49776 
L 784.613513 44.804646 
L 784.770397 44.486142 
L 784.92728 44.572924 
L 785.397931 44.471924 
L 786.182349 44.601008 
L 786.652999 44.510763 
L 787.751184 44.611829 
L 787.908068 44.471589 
L 788.221835 44.54813 
L 789.633787 44.477819 
L 789.79067 44.737171 
L 789.947554 44.488938 
L 790.104437 44.619008 
L 790.261321 44.505184 
L 790.418205 44.697092 
L 790.575088 44.489678 
L 791.202622 44.735556 
L 791.516389 44.492725 
L 792.457691 44.563391 
L 792.614574 44.778243 
L 792.771458 44.500676 
L 793.398992 44.453407 
L 793.555876 44.68952 
L 794.026526 44.485707 
L 794.340293 44.748373 
L 794.497177 44.541631 
L 794.65406 44.754647 
L 794.810944 44.515011 
L 794.967828 44.644044 
L 795.124711 44.537093 
L 795.281595 44.603038 
L 795.438478 44.52779 
L 795.595362 44.598952 
L 795.752245 44.524277 
L 795.909129 44.659052 
L 796.066012 44.491298 
L 796.222896 44.773588 
L 796.379779 44.486192 
L 796.536663 44.636456 
L 797.164197 44.526189 
L 797.321081 44.629172 
L 797.477964 44.470266 
L 797.634848 44.564312 
L 797.791731 44.460674 
L 798.105499 44.657594 
L 798.262382 44.505658 
L 798.419266 44.665262 
L 798.576149 44.469819 
L 798.889916 44.628262 
L 799.203683 44.487314 
L 799.360567 44.658148 
L 799.831218 44.545739 
L 801.086286 44.521554 
L 801.24317 44.635523 
L 801.556937 44.486467 
L 801.71382 44.62705 
L 801.870704 44.486835 
L 802.812005 44.640376 
L 802.968889 44.77069 
L 803.125772 44.5053 
L 803.753306 44.487652 
L 803.91019 44.586866 
L 804.067073 44.468797 
L 804.223957 44.623611 
L 804.380841 44.520374 
L 804.537724 44.592877 
L 804.851491 44.485022 
L 805.008375 44.503001 
L 805.322142 44.769875 
L 805.479025 44.608296 
L 805.792792 44.611113 
L 805.949676 44.907928 
L 806.263443 44.618056 
L 806.57721 44.678709 
L 806.734094 45.118253 
L 806.890977 44.567188 
L 807.361628 44.761279 
L 807.675395 44.624319 
L 807.989162 45.236017 
L 808.146046 44.79254 
L 808.302929 44.695296 
L 808.459813 45.180245 
L 808.616696 44.915257 
L 808.930463 45.077068 
L 809.087347 44.797317 
L 809.401114 44.94553 
L 809.714881 44.867249 
L 810.028648 45.334581 
L 810.185532 45.001892 
L 810.342415 45.360854 
L 810.499299 44.860087 
L 810.656183 44.969066 
L 810.813066 45.392155 
L 810.96995 45.413928 
L 811.283717 44.943871 
L 811.4406 45.291681 
L 811.597484 45.192928 
L 811.754367 44.718437 
L 812.068134 44.929588 
L 812.225018 44.608668 
L 812.538785 44.990645 
L 812.852552 45.008329 
L 813.009436 45.380775 
L 813.166319 44.925015 
L 813.323203 44.863495 
L 813.480086 45.607129 
L 813.63697 44.646759 
L 813.793853 44.67319 
L 814.264504 45.15542 
L 814.421388 44.785452 
L 814.578271 44.785535 
L 814.735155 45.203616 
L 814.892038 45.048745 
L 815.048922 45.165479 
L 815.205805 44.735421 
L 815.362689 44.663663 
L 815.519573 45.165921 
L 815.83334 44.740918 
L 815.990223 44.683198 
L 816.147107 45.062649 
L 816.30399 44.55942 
L 816.460874 44.953084 
L 816.774641 44.85708 
L 817.088408 44.88437 
L 817.245292 44.641303 
L 817.402175 44.894447 
L 817.559059 44.604483 
L 817.715942 45.336112 
L 817.872826 44.777447 
L 818.029709 44.737711 
L 818.186593 44.966484 
L 818.343476 44.541479 
L 818.657244 44.668381 
L 818.814127 44.639929 
L 818.971011 44.98799 
L 819.284778 44.714583 
L 819.441661 44.81269 
L 819.598545 44.646098 
L 819.755428 44.812252 
L 819.912312 44.649667 
L 820.069195 44.798872 
L 820.226079 44.561815 
L 820.382963 44.975298 
L 820.69673 44.682595 
L 820.853613 44.963845 
L 821.16738 44.558048 
L 821.324264 44.943912 
L 821.481147 44.894096 
L 821.638031 44.56349 
L 822.265565 44.873806 
L 822.422449 44.532437 
L 822.579332 44.838286 
L 822.736216 44.856165 
L 822.893099 45.000522 
L 823.049983 44.551859 
L 823.206866 44.506986 
L 823.36375 44.732702 
L 823.520634 44.461958 
L 823.677517 44.697377 
L 823.834401 44.646356 
L 823.991284 44.941065 
L 824.305051 44.692383 
L 824.618818 44.842584 
L 824.775702 44.779342 
L 824.932586 45.033219 
L 825.089469 44.732877 
L 825.246353 44.785088 
L 825.717003 44.485382 
L 825.873887 44.675859 
L 826.03077 44.542365 
L 826.187654 44.582609 
L 826.344537 45.002953 
L 826.501421 44.68569 
L 826.658305 45.031104 
L 826.815188 44.513538 
L 827.128955 44.827196 
L 827.285839 44.505353 
L 827.756489 44.728411 
L 827.913373 44.47539 
L 828.070257 44.703873 
L 828.697791 44.600479 
L 829.168441 44.489183 
L 829.325325 44.675329 
L 829.639092 44.51855 
L 830.109743 44.469233 
L 830.266626 44.585819 
L 830.42351 44.515974 
L 830.580393 44.61276 
L 830.737277 44.493224 
L 830.89416 44.590333 
L 831.207928 44.48371 
L 831.678578 44.741325 
L 831.835462 44.520486 
L 832.619879 44.656603 
L 832.776763 44.456183 
L 832.933647 44.58956 
L 833.247414 44.497526 
L 833.561181 44.677369 
L 833.718064 44.451419 
L 833.874948 44.846685 
L 834.031831 44.550991 
L 834.188715 44.692362 
L 834.345599 44.460241 
L 834.659366 44.746337 
L 834.816249 44.506183 
L 835.130016 44.618254 
L 835.2869 44.455337 
L 836.228201 44.530983 
L 836.698852 44.46716 
L 837.48327 44.528934 
L 837.640153 44.481904 
L 837.797037 44.645805 
L 837.95392 44.454125 
L 838.110804 44.670707 
L 839.052105 44.470679 
L 839.208989 44.747808 
L 839.365872 44.464893 
L 839.522756 44.61766 
L 839.679639 44.457228 
L 839.836523 44.493807 
L 839.993406 44.939057 
L 840.15029 44.470796 
L 840.307173 44.597829 
L 840.464057 44.49423 
L 840.620941 44.597411 
L 840.934708 44.498654 
L 841.091591 44.472703 
L 841.248475 44.559423 
L 841.405358 44.469131 
L 841.562242 44.601598 
L 841.876009 44.477625 
L 842.34666 44.464613 
L 843.601728 44.524265 
L 843.758612 44.650875 
L 843.915495 44.455814 
L 844.229262 44.502129 
L 845.327447 44.476005 
L 845.484331 44.686285 
L 845.798098 44.510033 
L 845.954981 44.458524 
L 846.111865 44.62678 
L 846.268748 44.486926 
L 846.425632 44.555985 
L 846.582515 44.472024 
L 846.739399 44.607585 
L 846.896283 44.461382 
L 847.053166 44.56461 
L 847.366933 44.486944 
L 847.523817 44.713656 
L 847.837584 44.473709 
L 848.622002 44.608822 
L 849.092652 44.487188 
L 849.563303 44.538857 
L 849.720186 44.472926 
L 849.87707 44.696819 
L 850.190837 44.475489 
L 850.347721 44.532913 
L 850.504604 44.783401 
L 850.818371 44.448522 
L 851.445905 44.53394 
L 851.602789 44.449323 
L 851.759673 44.639974 
L 851.916556 44.515851 
L 852.07344 44.726887 
L 852.387207 44.473878 
L 852.54409 44.472095 
L 852.857857 44.653541 
L 853.014741 44.720191 
L 853.171625 44.4509 
L 853.485392 44.600286 
L 855.838645 44.50993 
L 856.152412 44.650036 
L 856.309296 44.456374 
L 856.623063 44.574652 
L 856.779946 44.449575 
L 856.93683 44.480213 
L 857.093713 44.631821 
L 857.250597 44.454246 
L 857.564364 44.470355 
L 858.035015 44.465781 
L 858.191898 44.678902 
L 858.505665 44.4994 
L 858.662549 44.445364 
L 858.819432 44.607961 
L 858.976316 44.474136 
L 859.290083 44.467245 
L 859.446967 44.665256 
L 859.760734 44.472804 
L 859.917617 44.556307 
L 860.074501 44.455189 
L 860.231384 44.60078 
L 860.702035 44.5074 
L 861.172686 44.504087 
L 862.113987 44.475984 
L 862.427754 44.57275 
L 862.741521 44.461482 
L 862.898405 44.483613 
L 863.055288 44.678378 
L 863.212172 44.568139 
L 863.525939 44.55622 
L 864.624124 44.564042 
L 864.781007 44.656821 
L 864.937891 44.514328 
L 865.094774 44.581918 
L 865.408541 44.454678 
L 865.565425 44.653311 
L 866.192959 44.447512 
L 866.66361 44.576773 
L 866.977377 44.529852 
L 867.13426 44.463831 
L 867.291144 44.584401 
L 867.604911 44.515272 
L 867.761795 44.578936 
L 867.918678 44.455743 
L 868.075562 44.694231 
L 868.389329 44.520578 
L 869.173747 44.511838 
L 869.33063 44.657029 
L 869.487514 44.486907 
L 869.801281 44.823947 
L 870.115048 44.444334 
L 870.428815 44.567435 
L 870.585699 44.470263 
L 870.742582 44.700257 
L 871.056349 44.453034 
L 871.213233 44.530507 
L 871.370116 44.460187 
L 871.683883 44.506671 
L 871.997651 44.512039 
L 872.154534 44.631677 
L 872.311418 44.480393 
L 872.468301 44.638916 
L 872.782068 44.468293 
L 872.938952 44.545 
L 873.095835 44.463751 
L 873.252719 44.541101 
L 873.409602 44.451681 
L 873.566486 44.549423 
L 873.880253 44.511581 
L 875.605972 44.536472 
L 877.331691 44.610881 
L 877.488575 44.483702 
L 878.116109 44.605706 
L 878.272993 44.481845 
L 878.743643 44.491519 
L 879.05741 44.527988 
L 879.528061 44.628552 
L 879.684944 44.842132 
L 879.841828 44.530281 
L 879.998712 44.842046 
L 880.155595 44.559424 
L 880.312479 44.645408 
L 880.469362 44.542331 
L 880.626246 44.781346 
L 880.783129 44.676797 
L 880.940013 44.839109 
L 881.096896 44.55358 
L 881.25378 44.509622 
L 881.410664 44.695891 
L 882.038198 44.534975 
L 882.351965 44.91112 
L 882.508848 44.550205 
L 882.665732 44.490185 
L 882.822615 44.552059 
L 882.979499 44.751966 
L 883.136383 44.55434 
L 883.45015 44.63217 
L 883.607033 44.492496 
L 884.077684 44.516005 
L 884.234567 44.476082 
L 884.391451 44.556327 
L 884.548335 44.464688 
L 884.705218 44.545264 
L 885.018985 44.457552 
L 885.332752 44.575099 
L 885.489636 44.465771 
L 886.11717 44.564277 
L 886.430937 44.515272 
L 886.587821 44.61134 
L 887.058471 44.471595 
L 887.686006 44.601986 
L 887.842889 44.478404 
L 888.31354 44.590965 
L 888.470423 44.468398 
L 888.941074 44.54985 
L 889.097957 44.460077 
L 889.411725 44.544295 
L 889.568608 44.497846 
L 889.725492 44.617687 
L 890.666793 44.453723 
L 890.98056 44.543322 
L 891.137444 44.452099 
L 891.294327 44.507358 
L 891.451211 44.687833 
L 891.608094 44.481594 
L 891.764978 44.53412 
L 891.921861 44.467852 
L 892.078745 44.813894 
L 892.235628 44.528186 
L 892.392512 44.661 
L 892.706279 44.56123 
L 892.863163 44.867251 
L 893.020046 44.460631 
L 893.17693 44.732984 
L 893.333813 44.490205 
L 893.490697 44.700296 
L 893.64758 44.460372 
L 893.804464 44.624565 
L 893.961348 44.6215 
L 894.118231 44.796926 
L 894.431998 44.501796 
L 894.588882 44.655649 
L 894.745765 44.500613 
L 895.059532 44.622268 
L 895.216416 44.836875 
L 895.373299 44.602226 
L 895.84395 44.659123 
L 896.000834 44.506444 
L 896.314601 44.619847 
L 896.785251 44.61097 
L 896.942135 44.797268 
L 897.099019 44.558727 
L 897.726553 44.793786 
L 897.883436 44.541032 
L 898.667854 44.663182 
L 898.824738 44.93456 
L 898.981621 44.636875 
L 899.295388 44.748171 
L 899.452272 45.243738 
L 899.609155 44.689669 
L 899.766039 44.893372 
L 900.079806 44.640643 
L 900.23669 44.70629 
L 900.393573 44.904817 
L 900.550457 44.70918 
L 900.70734 44.72857 
L 900.864224 44.626515 
L 901.021107 44.979252 
L 901.177991 44.522395 
L 901.491758 44.80472 
L 901.648641 44.628623 
L 901.962409 44.945092 
L 902.276176 44.677775 
L 902.433059 44.96831 
L 902.589943 44.601413 
L 902.746826 44.807094 
L 902.90371 44.614961 
L 903.374361 45.165226 
L 903.531244 44.525921 
L 903.688128 44.72149 
L 903.845011 44.58663 
L 904.001895 44.756492 
L 904.158778 45.157383 
L 904.315662 44.680925 
L 904.472545 44.754001 
L 904.629429 44.955499 
L 904.786312 44.570533 
L 904.943196 44.580173 
L 905.10008 44.809613 
L 905.413847 44.608095 
L 905.57073 44.627015 
L 905.727614 45.179274 
L 906.041381 44.510357 
L 906.355148 45.050963 
L 906.512032 45.066807 
L 906.668915 44.579543 
L 906.825799 44.63433 
L 906.982682 45.068762 
L 907.139566 44.854857 
L 907.296449 45.384093 
L 907.610216 44.510515 
L 907.923983 44.82882 
L 908.237751 44.824713 
L 908.394634 45.060245 
L 908.551518 44.659208 
L 908.708401 44.989536 
L 909.179052 44.540562 
L 909.335935 45.162872 
L 909.492819 44.604257 
L 909.649703 44.597226 
L 909.806586 44.896187 
L 909.96347 44.619246 
L 910.120353 44.642964 
L 910.277237 44.916873 
L 910.43412 44.758538 
L 910.591004 45.001468 
L 910.747887 44.807659 
L 910.904771 44.889632 
L 911.218538 44.553869 
L 911.375422 44.542715 
L 911.532305 45.225188 
L 911.689189 44.887461 
L 911.846072 44.933732 
L 912.002956 44.630988 
L 912.159839 44.866418 
L 912.316723 44.620829 
L 912.473606 44.906973 
L 912.63049 44.740198 
L 912.787374 45.088397 
L 912.944257 44.681659 
L 913.101141 44.712037 
L 913.414908 45.135353 
L 913.571791 44.630678 
L 913.728675 44.667922 
L 913.885558 44.908804 
L 914.199325 44.637279 
L 914.356209 45.279399 
L 914.513093 44.708711 
L 914.669976 44.559904 
L 914.983743 44.678037 
L 915.29751 44.793905 
L 915.768161 44.545454 
L 916.081928 44.716912 
L 916.395695 44.801826 
L 916.552579 44.528641 
L 916.709462 44.65127 
L 916.866346 44.553916 
L 917.023229 44.635352 
L 917.180113 44.460814 
L 917.49388 44.712359 
L 917.650764 44.485303 
L 917.807647 44.490577 
L 917.964531 44.649758 
L 918.121414 44.5191 
L 918.592065 44.656486 
L 918.905832 44.470775 
L 919.69025 44.476317 
L 920.1609 44.684886 
L 920.317784 44.501552 
L 920.788435 44.547202 
L 921.415969 44.499153 
L 921.572852 44.491244 
L 921.729736 44.675799 
L 922.043503 44.513619 
L 922.200387 44.89651 
L 922.35727 44.828688 
L 922.514154 44.599548 
L 922.827921 44.760979 
L 922.984804 44.586105 
L 923.298571 44.90742 
L 923.455455 44.58638 
L 923.769222 44.666824 
L 923.926106 45.101921 
L 924.239873 44.867153 
L 924.396756 44.839431 
L 924.55364 44.690458 
L 924.710523 44.753358 
L 924.867407 44.664036 
L 925.494941 45.076093 
L 925.651825 44.900502 
L 925.808708 45.374541 
L 925.965592 45.158154 
L 926.122475 45.413804 
L 926.279359 44.85176 
L 926.593126 44.990395 
L 926.750009 44.780541 
L 926.906893 44.971893 
L 927.063777 44.645305 
L 927.22066 44.824193 
L 927.377544 44.783726 
L 927.534427 44.9723 
L 927.691311 44.68977 
L 927.848194 45.194762 
L 928.005078 45.231566 
L 928.161961 45.021007 
L 928.318845 45.454352 
L 928.632612 44.558524 
L 928.789496 45.077202 
L 928.946379 44.796537 
L 929.103263 44.812765 
L 929.260146 44.66639 
L 929.41703 44.702087 
L 929.573913 44.612899 
L 929.730797 44.660397 
L 929.88768 44.925885 
L 930.358331 44.639403 
L 930.515215 44.822955 
L 930.672098 45.32007 
L 930.828982 44.740678 
L 930.985865 44.729211 
L 931.142749 45.036435 
L 931.299632 44.469741 
L 931.456516 44.965486 
L 931.6134 44.584481 
L 931.927167 44.642043 
L 932.240934 44.616973 
L 932.554701 44.835077 
L 932.711584 44.805016 
L 932.868468 44.58399 
L 933.025351 44.838964 
L 933.182235 44.515318 
L 933.496002 44.774643 
L 933.809769 44.55757 
L 933.966653 44.595709 
L 934.28042 44.976906 
L 934.594187 44.544413 
L 934.751071 44.754506 
L 935.064838 44.632071 
L 935.221721 44.495428 
L 936.006139 44.665391 
L 936.163022 44.467026 
L 936.319906 44.613104 
L 937.104324 44.551589 
L 937.574974 44.645555 
L 937.888742 44.552868 
L 938.045625 44.501801 
L 938.202509 44.793012 
L 938.516276 44.564885 
L 938.673159 44.513511 
L 938.830043 44.642771 
L 939.14381 44.556886 
L 939.300693 44.497922 
L 939.614461 44.733339 
L 939.771344 44.485725 
L 940.555762 44.628999 
L 940.712645 44.626894 
L 940.869529 44.507084 
L 941.026413 44.602579 
L 941.34018 44.480099 
L 941.653947 44.521968 
L 941.81083 44.699124 
L 941.967714 44.485347 
L 942.124597 44.692506 
L 942.438364 44.459675 
L 943.065899 44.491145 
L 943.222782 44.642838 
L 943.379666 44.500882 
L 943.850316 44.592086 
L 944.0072 44.45656 
L 944.320967 44.523756 
L 944.477851 44.457295 
L 944.791618 44.556128 
L 945.262268 44.480816 
L 945.576035 44.493048 
L 945.732919 44.658239 
L 945.889803 44.552334 
L 946.046686 44.631842 
L 946.360453 44.469767 
L 947.458638 44.534344 
L 947.615522 44.486952 
L 947.772405 44.644662 
L 947.929289 44.461874 
L 948.399939 44.554162 
L 949.341241 44.469349 
L 949.655008 44.526235 
L 949.811891 44.82643 
L 950.125658 44.485657 
L 950.439426 44.586305 
L 950.910076 44.493732 
L 951.06696 44.548158 
L 951.223843 44.471557 
L 951.53761 44.558042 
L 953.577097 44.496924 
L 953.73398 44.746805 
L 953.890864 44.481285 
L 954.047747 44.599548 
L 954.204631 44.517745 
L 954.518398 44.562094 
L 954.675281 44.467704 
L 954.989048 44.571287 
L 955.302816 44.494406 
L 955.459699 44.847004 
L 955.616583 44.513967 
L 955.773466 44.485219 
L 955.93035 44.661358 
L 956.714768 44.530386 
L 957.028535 44.694572 
L 957.499185 44.473698 
L 957.656069 44.656826 
L 957.969836 44.478137 
L 959.224904 44.659496 
L 959.381788 44.478323 
L 959.538671 44.593916 
L 959.695555 44.478134 
L 959.852439 44.805454 
L 960.166206 44.495543 
L 960.636856 44.561708 
L 960.79374 44.785289 
L 960.950623 44.502315 
L 961.26439 44.579474 
L 961.421274 44.614555 
L 961.735041 44.447045 
L 961.891925 44.555424 
L 962.205692 44.491413 
L 963.146993 44.508685 
L 963.303877 44.564546 
L 963.617644 44.475868 
L 963.931411 44.55149 
L 964.088294 44.479434 
L 964.402061 44.656134 
L 965.814013 44.450032 
L 965.970897 44.666191 
L 966.127781 44.532787 
L 966.284664 44.651426 
L 966.441548 44.461374 
L 966.598431 44.757754 
L 966.755315 44.467354 
L 967.696616 44.648765 
L 968.010383 44.539745 
L 968.637917 44.535736 
L 969.108568 44.468984 
L 969.265452 44.591566 
L 969.579219 44.537487 
L 969.736102 44.526311 
L 969.892986 44.656385 
L 970.049869 44.54235 
L 970.363636 44.607833 
L 970.363636 44.607833 
" style="fill:none;stroke:#1f77b4;stroke-linecap:square;stroke-width:1.5;"/>
   </g>
   <g id="patch_3">
    <path d="M 180 252 
L 180 34.56 
" style="fill:none;stroke:#000000;stroke-linecap:square;stroke-linejoin:miter;stroke-width:0.8;"/>
   </g>
   <g id="patch_4">
    <path d="M 1008 252 
L 1008 34.56 
" style="fill:none;stroke:#000000;stroke-linecap:square;stroke-linejoin:miter;stroke-width:0.8;"/>
   </g>
   <g id="patch_5">
    <path d="M 180 252 
L 1008 252 
" style="fill:none;stroke:#000000;stroke-linecap:square;stroke-linejoin:miter;stroke-width:0.8;"/>
   </g>
   <g id="patch_6">
    <path d="M 180 34.56 
L 1008 34.56 
" style="fill:none;stroke:#000000;stroke-linecap:square;stroke-linejoin:miter;stroke-width:0.8;"/>
   </g>
  </g>
 </g>
 <defs>
  <clipPath id="pbc41e1ca5b">
   <rect height="217.44" width="828" x="180" y="34.56"/>
  </clipPath>
 </defs>
</svg>
