<?xml version="1.0" encoding="utf-8" standalone="no"?>
<!DOCTYPE svg PUBLIC "-//W3C//DTD SVG 1.1//EN"
  "http://www.w3.org/Graphics/SVG/1.1/DTD/svg11.dtd">
<!-- Created with matplotlib (https://matplotlib.org/) -->
<svg height="307.407188pt" version="1.1" viewBox="0 0 1370.101 307.407188" width="1370.101pt" xmlns="http://www.w3.org/2000/svg" xmlns:xlink="http://www.w3.org/1999/xlink">
 <defs>
  <style type="text/css">
*{stroke-linecap:butt;stroke-linejoin:round;}
  </style>
 </defs>
 <g id="figure_1">
  <g id="patch_1">
   <path d="M 0 307.407188 
L 1370.101 307.407188 
L 1370.101 0 
L 0 0 
z
" style="fill:#ffffff;"/>
  </g>
  <g id="axes_1">
   <g id="patch_2">
    <path d="M 121.541 237.324063 
L 949.541 237.324063 
L 949.541 19.884063 
L 121.541 19.884063 
z
" style="fill:#ffffff;"/>
   </g>
   <g id="PathCollection_1">
    <defs>
     <path d="M 0 3 
C 0.795609 3 1.55874 2.683901 2.12132 2.12132 
C 2.683901 1.55874 3 0.795609 3 0 
C 3 -0.795609 2.683901 -1.55874 2.12132 -2.12132 
C 1.55874 -2.683901 0.795609 -3 0 -3 
C -0.795609 -3 -1.55874 -2.683901 -2.12132 -2.12132 
C -2.683901 -1.55874 -3 -0.795609 -3 0 
C -3 0.795609 -2.683901 1.55874 -2.12132 2.12132 
C -1.55874 2.683901 -0.795609 3 0 3 
z
" id="m3dd6e30bd5" style="stroke:#ff0000;"/>
    </defs>
    <g clip-path="url(#p42c9b1ddd3)">
     <use style="fill:#ff0000;stroke:#ff0000;" x="159.177364" xlink:href="#m3dd6e30bd5" y="29.767699"/>
     <use style="fill:#ff0000;stroke:#ff0000;" x="162.694781" xlink:href="#m3dd6e30bd5" y="207.574794"/>
     <use style="fill:#ff0000;stroke:#ff0000;" x="409.918958" xlink:href="#m3dd6e30bd5" y="207.766215"/>
    </g>
   </g>
   <g id="matplotlib.axis_1">
    <g id="xtick_1">
     <g id="line2d_1">
      <path clip-path="url(#p42c9b1ddd3)" d="M 158.674875 237.324063 
L 158.674875 19.884063 
" style="fill:none;stroke:#b0b0b0;stroke-linecap:square;stroke-width:0.8;"/>
     </g>
     <g id="line2d_2">
      <defs>
       <path d="M 0 0 
L 0 3.5 
" id="mff4d2a41f3" style="stroke:#000000;stroke-width:0.8;"/>
      </defs>
      <g>
       <use style="stroke:#000000;stroke-width:0.8;" x="158.674875" xlink:href="#mff4d2a41f3" y="237.324063"/>
      </g>
     </g>
     <g id="text_1">
      <!-- 0 -->
      <defs>
       <path d="M 4.15625 35.296875 
Q 4.15625 48 6.765625 55.734375 
Q 9.375 63.484375 14.515625 67.671875 
Q 19.671875 71.875 27.484375 71.875 
Q 33.25 71.875 37.59375 69.546875 
Q 41.9375 67.234375 44.765625 62.859375 
Q 47.609375 58.5 49.21875 52.21875 
Q 50.828125 45.953125 50.828125 35.296875 
Q 50.828125 22.703125 48.234375 14.96875 
Q 45.65625 7.234375 40.5 3 
Q 35.359375 -1.21875 27.484375 -1.21875 
Q 17.140625 -1.21875 11.234375 6.203125 
Q 4.15625 15.140625 4.15625 35.296875 
z
M 13.1875 35.296875 
Q 13.1875 17.671875 17.3125 11.828125 
Q 21.4375 6 27.484375 6 
Q 33.546875 6 37.671875 11.859375 
Q 41.796875 17.71875 41.796875 35.296875 
Q 41.796875 52.984375 37.671875 58.78125 
Q 33.546875 64.59375 27.390625 64.59375 
Q 21.34375 64.59375 17.71875 59.46875 
Q 13.1875 52.9375 13.1875 35.296875 
z
" id="ArialMT-48"/>
      </defs>
      <g transform="translate(150.889563 264.365938)scale(0.28 -0.28)">
       <use xlink:href="#ArialMT-48"/>
      </g>
     </g>
    </g>
    <g id="xtick_2">
     <g id="line2d_3">
      <path clip-path="url(#p42c9b1ddd3)" d="M 409.918958 237.324063 
L 409.918958 19.884063 
" style="fill:none;stroke:#b0b0b0;stroke-linecap:square;stroke-width:0.8;"/>
     </g>
     <g id="line2d_4">
      <g>
       <use style="stroke:#000000;stroke-width:0.8;" x="409.918958" xlink:href="#mff4d2a41f3" y="237.324063"/>
      </g>
     </g>
     <g id="text_2">
      <!-- 5 -->
      <defs>
       <path d="M 4.15625 18.75 
L 13.375 19.53125 
Q 14.40625 12.796875 18.140625 9.390625 
Q 21.875 6 27.15625 6 
Q 33.5 6 37.890625 10.78125 
Q 42.28125 15.578125 42.28125 23.484375 
Q 42.28125 31 38.0625 35.34375 
Q 33.84375 39.703125 27 39.703125 
Q 22.75 39.703125 19.328125 37.765625 
Q 15.921875 35.84375 13.96875 32.765625 
L 5.71875 33.84375 
L 12.640625 70.609375 
L 48.25 70.609375 
L 48.25 62.203125 
L 19.671875 62.203125 
L 15.828125 42.96875 
Q 22.265625 47.46875 29.34375 47.46875 
Q 38.71875 47.46875 45.15625 40.96875 
Q 51.609375 34.46875 51.609375 24.265625 
Q 51.609375 14.546875 45.953125 7.46875 
Q 39.0625 -1.21875 27.15625 -1.21875 
Q 17.390625 -1.21875 11.203125 4.25 
Q 5.03125 9.71875 4.15625 18.75 
z
" id="ArialMT-53"/>
      </defs>
      <g transform="translate(402.133646 264.365938)scale(0.28 -0.28)">
       <use xlink:href="#ArialMT-53"/>
      </g>
     </g>
    </g>
    <g id="xtick_3">
     <g id="line2d_5">
      <path clip-path="url(#p42c9b1ddd3)" d="M 661.163042 237.324063 
L 661.163042 19.884063 
" style="fill:none;stroke:#b0b0b0;stroke-linecap:square;stroke-width:0.8;"/>
     </g>
     <g id="line2d_6">
      <g>
       <use style="stroke:#000000;stroke-width:0.8;" x="661.163042" xlink:href="#mff4d2a41f3" y="237.324063"/>
      </g>
     </g>
     <g id="text_3">
      <!-- 10 -->
      <defs>
       <path d="M 37.25 0 
L 28.46875 0 
L 28.46875 56 
Q 25.296875 52.984375 20.140625 49.953125 
Q 14.984375 46.921875 10.890625 45.40625 
L 10.890625 53.90625 
Q 18.265625 57.375 23.78125 62.296875 
Q 29.296875 67.234375 31.59375 71.875 
L 37.25 71.875 
z
" id="ArialMT-49"/>
      </defs>
      <g transform="translate(645.592417 264.365938)scale(0.28 -0.28)">
       <use xlink:href="#ArialMT-49"/>
       <use x="55.615234" xlink:href="#ArialMT-48"/>
      </g>
     </g>
    </g>
    <g id="xtick_4">
     <g id="line2d_7">
      <path clip-path="url(#p42c9b1ddd3)" d="M 912.407125 237.324063 
L 912.407125 19.884063 
" style="fill:none;stroke:#b0b0b0;stroke-linecap:square;stroke-width:0.8;"/>
     </g>
     <g id="line2d_8">
      <g>
       <use style="stroke:#000000;stroke-width:0.8;" x="912.407125" xlink:href="#mff4d2a41f3" y="237.324063"/>
      </g>
     </g>
     <g id="text_4">
      <!-- 15 -->
      <g transform="translate(896.8365 264.365938)scale(0.28 -0.28)">
       <use xlink:href="#ArialMT-49"/>
       <use x="55.615234" xlink:href="#ArialMT-53"/>
      </g>
     </g>
    </g>
    <g id="text_5">
     <!-- time (s) -->
     <defs>
      <path d="M 25.78125 7.859375 
L 27.046875 0.09375 
Q 23.34375 -0.6875 20.40625 -0.6875 
Q 15.625 -0.6875 12.984375 0.828125 
Q 10.359375 2.34375 9.28125 4.8125 
Q 8.203125 7.28125 8.203125 15.1875 
L 8.203125 45.015625 
L 1.765625 45.015625 
L 1.765625 51.859375 
L 8.203125 51.859375 
L 8.203125 64.703125 
L 16.9375 69.96875 
L 16.9375 51.859375 
L 25.78125 51.859375 
L 25.78125 45.015625 
L 16.9375 45.015625 
L 16.9375 14.703125 
Q 16.9375 10.9375 17.40625 9.859375 
Q 17.875 8.796875 18.921875 8.15625 
Q 19.96875 7.515625 21.921875 7.515625 
Q 23.390625 7.515625 25.78125 7.859375 
z
" id="ArialMT-116"/>
      <path d="M 6.640625 61.46875 
L 6.640625 71.578125 
L 15.4375 71.578125 
L 15.4375 61.46875 
z
M 6.640625 0 
L 6.640625 51.859375 
L 15.4375 51.859375 
L 15.4375 0 
z
" id="ArialMT-105"/>
      <path d="M 6.59375 0 
L 6.59375 51.859375 
L 14.453125 51.859375 
L 14.453125 44.578125 
Q 16.890625 48.390625 20.9375 50.703125 
Q 25 53.03125 30.171875 53.03125 
Q 35.9375 53.03125 39.625 50.640625 
Q 43.3125 48.25 44.828125 43.953125 
Q 50.984375 53.03125 60.84375 53.03125 
Q 68.5625 53.03125 72.703125 48.75 
Q 76.859375 44.484375 76.859375 35.59375 
L 76.859375 0 
L 68.109375 0 
L 68.109375 32.671875 
Q 68.109375 37.9375 67.25 40.25 
Q 66.40625 42.578125 64.15625 43.984375 
Q 61.921875 45.40625 58.890625 45.40625 
Q 53.421875 45.40625 49.796875 41.765625 
Q 46.1875 38.140625 46.1875 30.125 
L 46.1875 0 
L 37.40625 0 
L 37.40625 33.6875 
Q 37.40625 39.546875 35.25 42.46875 
Q 33.109375 45.40625 28.21875 45.40625 
Q 24.515625 45.40625 21.359375 43.453125 
Q 18.21875 41.5 16.796875 37.734375 
Q 15.375 33.984375 15.375 26.90625 
L 15.375 0 
z
" id="ArialMT-109"/>
      <path d="M 42.09375 16.703125 
L 51.171875 15.578125 
Q 49.03125 7.625 43.21875 3.21875 
Q 37.40625 -1.171875 28.375 -1.171875 
Q 17 -1.171875 10.328125 5.828125 
Q 3.65625 12.84375 3.65625 25.484375 
Q 3.65625 38.578125 10.390625 45.796875 
Q 17.140625 53.03125 27.875 53.03125 
Q 38.28125 53.03125 44.875 45.953125 
Q 51.46875 38.875 51.46875 26.03125 
Q 51.46875 25.25 51.421875 23.6875 
L 12.75 23.6875 
Q 13.234375 15.140625 17.578125 10.59375 
Q 21.921875 6.0625 28.421875 6.0625 
Q 33.25 6.0625 36.671875 8.59375 
Q 40.09375 11.140625 42.09375 16.703125 
z
M 13.234375 30.90625 
L 42.1875 30.90625 
Q 41.609375 37.453125 38.875 40.71875 
Q 34.671875 45.796875 27.984375 45.796875 
Q 21.921875 45.796875 17.796875 41.75 
Q 13.671875 37.703125 13.234375 30.90625 
z
" id="ArialMT-101"/>
      <path id="ArialMT-32"/>
      <path d="M 23.390625 -21.046875 
Q 16.109375 -11.859375 11.078125 0.4375 
Q 6.0625 12.75 6.0625 25.921875 
Q 6.0625 37.546875 9.8125 48.1875 
Q 14.203125 60.546875 23.390625 72.796875 
L 29.6875 72.796875 
Q 23.78125 62.640625 21.875 58.296875 
Q 18.890625 51.5625 17.1875 44.234375 
Q 15.09375 35.109375 15.09375 25.875 
Q 15.09375 2.390625 29.6875 -21.046875 
z
" id="ArialMT-40"/>
      <path d="M 3.078125 15.484375 
L 11.765625 16.84375 
Q 12.5 11.625 15.84375 8.84375 
Q 19.1875 6.0625 25.203125 6.0625 
Q 31.25 6.0625 34.171875 8.515625 
Q 37.109375 10.984375 37.109375 14.3125 
Q 37.109375 17.28125 34.515625 19 
Q 32.71875 20.171875 25.53125 21.96875 
Q 15.875 24.421875 12.140625 26.203125 
Q 8.40625 27.984375 6.46875 31.125 
Q 4.546875 34.28125 4.546875 38.09375 
Q 4.546875 41.546875 6.125 44.5 
Q 7.71875 47.46875 10.453125 49.421875 
Q 12.5 50.921875 16.03125 51.96875 
Q 19.578125 53.03125 23.640625 53.03125 
Q 29.734375 53.03125 34.34375 51.265625 
Q 38.96875 49.515625 41.15625 46.5 
Q 43.359375 43.5 44.1875 38.484375 
L 35.59375 37.3125 
Q 35.015625 41.3125 32.203125 43.546875 
Q 29.390625 45.796875 24.265625 45.796875 
Q 18.21875 45.796875 15.625 43.796875 
Q 13.03125 41.796875 13.03125 39.109375 
Q 13.03125 37.40625 14.109375 36.03125 
Q 15.1875 34.625 17.484375 33.6875 
Q 18.796875 33.203125 25.25 31.453125 
Q 34.578125 28.953125 38.25 27.359375 
Q 41.9375 25.78125 44.03125 22.75 
Q 46.140625 19.734375 46.140625 15.234375 
Q 46.140625 10.84375 43.578125 6.953125 
Q 41.015625 3.078125 36.171875 0.953125 
Q 31.34375 -1.171875 25.25 -1.171875 
Q 15.140625 -1.171875 9.84375 3.03125 
Q 4.546875 7.234375 3.078125 15.484375 
z
" id="ArialMT-115"/>
      <path d="M 12.359375 -21.046875 
L 6.0625 -21.046875 
Q 20.65625 2.390625 20.65625 25.875 
Q 20.65625 35.0625 18.5625 44.09375 
Q 16.890625 51.421875 13.921875 58.15625 
Q 12.015625 62.546875 6.0625 72.796875 
L 12.359375 72.796875 
Q 21.53125 60.546875 25.921875 48.1875 
Q 29.6875 37.546875 29.6875 25.921875 
Q 29.6875 12.75 24.625 0.4375 
Q 19.578125 -11.859375 12.359375 -21.046875 
z
" id="ArialMT-41"/>
     </defs>
     <g transform="translate(488.881625 294.314063)scale(0.28 -0.28)">
      <use xlink:href="#ArialMT-116"/>
      <use x="27.783203" xlink:href="#ArialMT-105"/>
      <use x="50" xlink:href="#ArialMT-109"/>
      <use x="133.300781" xlink:href="#ArialMT-101"/>
      <use x="188.916016" xlink:href="#ArialMT-32"/>
      <use x="216.699219" xlink:href="#ArialMT-40"/>
      <use x="250" xlink:href="#ArialMT-115"/>
      <use x="300" xlink:href="#ArialMT-41"/>
     </g>
    </g>
   </g>
   <g id="matplotlib.axis_2">
    <g id="ytick_1">
     <g id="line2d_9">
      <path clip-path="url(#p42c9b1ddd3)" d="M 121.541 227.440619 
L 949.541 227.440619 
" style="fill:none;stroke:#b0b0b0;stroke-linecap:square;stroke-width:0.8;"/>
     </g>
     <g id="line2d_10">
      <defs>
       <path d="M 0 0 
L -3.5 0 
" id="m585f97c388" style="stroke:#000000;stroke-width:0.8;"/>
      </defs>
      <g>
       <use style="stroke:#000000;stroke-width:0.8;" x="121.541" xlink:href="#m585f97c388" y="227.440619"/>
      </g>
     </g>
     <g id="text_6">
      <!-- 0 -->
      <g transform="translate(98.970375 237.461557)scale(0.28 -0.28)">
       <use xlink:href="#ArialMT-48"/>
      </g>
     </g>
    </g>
    <g id="ytick_2">
     <g id="line2d_11">
      <path clip-path="url(#p42c9b1ddd3)" d="M 121.541 117.175772 
L 949.541 117.175772 
" style="fill:none;stroke:#b0b0b0;stroke-linecap:square;stroke-width:0.8;"/>
     </g>
     <g id="line2d_12">
      <g>
       <use style="stroke:#000000;stroke-width:0.8;" x="121.541" xlink:href="#m585f97c388" y="117.175772"/>
      </g>
     </g>
     <g id="text_7">
      <!-- 200 -->
      <defs>
       <path d="M 50.34375 8.453125 
L 50.34375 0 
L 3.03125 0 
Q 2.9375 3.171875 4.046875 6.109375 
Q 5.859375 10.9375 9.828125 15.625 
Q 13.8125 20.3125 21.34375 26.46875 
Q 33.015625 36.03125 37.109375 41.625 
Q 41.21875 47.21875 41.21875 52.203125 
Q 41.21875 57.421875 37.46875 61 
Q 33.734375 64.59375 27.734375 64.59375 
Q 21.390625 64.59375 17.578125 60.78125 
Q 13.765625 56.984375 13.71875 50.25 
L 4.6875 51.171875 
Q 5.609375 61.28125 11.65625 66.578125 
Q 17.71875 71.875 27.9375 71.875 
Q 38.234375 71.875 44.234375 66.15625 
Q 50.25 60.453125 50.25 52 
Q 50.25 47.703125 48.484375 43.546875 
Q 46.734375 39.40625 42.65625 34.8125 
Q 38.578125 30.21875 29.109375 22.21875 
Q 21.1875 15.578125 18.9375 13.203125 
Q 16.703125 10.84375 15.234375 8.453125 
z
" id="ArialMT-50"/>
      </defs>
      <g transform="translate(67.829125 127.196709)scale(0.28 -0.28)">
       <use xlink:href="#ArialMT-50"/>
       <use x="55.615234" xlink:href="#ArialMT-48"/>
       <use x="111.230469" xlink:href="#ArialMT-48"/>
      </g>
     </g>
    </g>
    <g id="text_8">
     <!-- Change point score -->
     <defs>
      <path d="M 58.796875 25.09375 
L 68.265625 22.703125 
Q 65.28125 11.03125 57.546875 4.90625 
Q 49.8125 -1.21875 38.625 -1.21875 
Q 27.046875 -1.21875 19.796875 3.484375 
Q 12.546875 8.203125 8.765625 17.140625 
Q 4.984375 26.078125 4.984375 36.328125 
Q 4.984375 47.515625 9.25 55.828125 
Q 13.53125 64.15625 21.40625 68.46875 
Q 29.296875 72.796875 38.765625 72.796875 
Q 49.515625 72.796875 56.828125 67.328125 
Q 64.15625 61.859375 67.046875 51.953125 
L 57.71875 49.75 
Q 55.21875 57.5625 50.484375 61.125 
Q 45.75 64.703125 38.578125 64.703125 
Q 30.328125 64.703125 24.78125 60.734375 
Q 19.234375 56.78125 16.984375 50.109375 
Q 14.75 43.453125 14.75 36.375 
Q 14.75 27.25 17.40625 20.4375 
Q 20.0625 13.625 25.671875 10.25 
Q 31.296875 6.890625 37.84375 6.890625 
Q 45.796875 6.890625 51.3125 11.46875 
Q 56.84375 16.0625 58.796875 25.09375 
z
" id="ArialMT-67"/>
      <path d="M 6.59375 0 
L 6.59375 71.578125 
L 15.375 71.578125 
L 15.375 45.90625 
Q 21.53125 53.03125 30.90625 53.03125 
Q 36.671875 53.03125 40.921875 50.75 
Q 45.171875 48.484375 47 44.484375 
Q 48.828125 40.484375 48.828125 32.859375 
L 48.828125 0 
L 40.046875 0 
L 40.046875 32.859375 
Q 40.046875 39.453125 37.1875 42.453125 
Q 34.328125 45.453125 29.109375 45.453125 
Q 25.203125 45.453125 21.75 43.421875 
Q 18.3125 41.40625 16.84375 37.9375 
Q 15.375 34.46875 15.375 28.375 
L 15.375 0 
z
" id="ArialMT-104"/>
      <path d="M 40.4375 6.390625 
Q 35.546875 2.25 31.03125 0.53125 
Q 26.515625 -1.171875 21.34375 -1.171875 
Q 12.796875 -1.171875 8.203125 3 
Q 3.609375 7.171875 3.609375 13.671875 
Q 3.609375 17.484375 5.34375 20.625 
Q 7.078125 23.78125 9.890625 25.6875 
Q 12.703125 27.59375 16.21875 28.5625 
Q 18.796875 29.25 24.03125 29.890625 
Q 34.671875 31.15625 39.703125 32.90625 
Q 39.75 34.71875 39.75 35.203125 
Q 39.75 40.578125 37.25 42.78125 
Q 33.890625 45.75 27.25 45.75 
Q 21.046875 45.75 18.09375 43.578125 
Q 15.140625 41.40625 13.71875 35.890625 
L 5.125 37.0625 
Q 6.296875 42.578125 8.984375 45.96875 
Q 11.671875 49.359375 16.75 51.1875 
Q 21.828125 53.03125 28.515625 53.03125 
Q 35.15625 53.03125 39.296875 51.46875 
Q 43.453125 49.90625 45.40625 47.53125 
Q 47.359375 45.171875 48.140625 41.546875 
Q 48.578125 39.3125 48.578125 33.453125 
L 48.578125 21.734375 
Q 48.578125 9.46875 49.140625 6.21875 
Q 49.703125 2.984375 51.375 0 
L 42.1875 0 
Q 40.828125 2.734375 40.4375 6.390625 
z
M 39.703125 26.03125 
Q 34.90625 24.078125 25.34375 22.703125 
Q 19.921875 21.921875 17.671875 20.9375 
Q 15.4375 19.96875 14.203125 18.09375 
Q 12.984375 16.21875 12.984375 13.921875 
Q 12.984375 10.40625 15.640625 8.0625 
Q 18.3125 5.71875 23.4375 5.71875 
Q 28.515625 5.71875 32.46875 7.9375 
Q 36.421875 10.15625 38.28125 14.015625 
Q 39.703125 17 39.703125 22.796875 
z
" id="ArialMT-97"/>
      <path d="M 6.59375 0 
L 6.59375 51.859375 
L 14.5 51.859375 
L 14.5 44.484375 
Q 20.21875 53.03125 31 53.03125 
Q 35.6875 53.03125 39.625 51.34375 
Q 43.5625 49.65625 45.515625 46.921875 
Q 47.46875 44.1875 48.25 40.4375 
Q 48.734375 37.984375 48.734375 31.890625 
L 48.734375 0 
L 39.9375 0 
L 39.9375 31.546875 
Q 39.9375 36.921875 38.90625 39.578125 
Q 37.890625 42.234375 35.28125 43.8125 
Q 32.671875 45.40625 29.15625 45.40625 
Q 23.53125 45.40625 19.453125 41.84375 
Q 15.375 38.28125 15.375 28.328125 
L 15.375 0 
z
" id="ArialMT-110"/>
      <path d="M 4.984375 -4.296875 
L 13.53125 -5.5625 
Q 14.0625 -9.515625 16.5 -11.328125 
Q 19.78125 -13.765625 25.4375 -13.765625 
Q 31.546875 -13.765625 34.859375 -11.328125 
Q 38.1875 -8.890625 39.359375 -4.5 
Q 40.046875 -1.8125 39.984375 6.78125 
Q 34.234375 0 25.640625 0 
Q 14.9375 0 9.078125 7.71875 
Q 3.21875 15.4375 3.21875 26.21875 
Q 3.21875 33.640625 5.90625 39.90625 
Q 8.59375 46.1875 13.6875 49.609375 
Q 18.796875 53.03125 25.6875 53.03125 
Q 34.859375 53.03125 40.828125 45.609375 
L 40.828125 51.859375 
L 48.921875 51.859375 
L 48.921875 7.03125 
Q 48.921875 -5.078125 46.453125 -10.125 
Q 44 -15.1875 38.640625 -18.109375 
Q 33.296875 -21.046875 25.484375 -21.046875 
Q 16.21875 -21.046875 10.5 -16.875 
Q 4.78125 -12.703125 4.984375 -4.296875 
z
M 12.25 26.859375 
Q 12.25 16.65625 16.296875 11.96875 
Q 20.359375 7.28125 26.46875 7.28125 
Q 32.515625 7.28125 36.609375 11.9375 
Q 40.71875 16.609375 40.71875 26.5625 
Q 40.71875 36.078125 36.5 40.90625 
Q 32.28125 45.75 26.3125 45.75 
Q 20.453125 45.75 16.34375 40.984375 
Q 12.25 36.234375 12.25 26.859375 
z
" id="ArialMT-103"/>
      <path d="M 6.59375 -19.875 
L 6.59375 51.859375 
L 14.59375 51.859375 
L 14.59375 45.125 
Q 17.4375 49.078125 21 51.046875 
Q 24.5625 53.03125 29.640625 53.03125 
Q 36.28125 53.03125 41.359375 49.609375 
Q 46.4375 46.1875 49.015625 39.953125 
Q 51.609375 33.734375 51.609375 26.3125 
Q 51.609375 18.359375 48.75 11.984375 
Q 45.90625 5.609375 40.453125 2.21875 
Q 35.015625 -1.171875 29 -1.171875 
Q 24.609375 -1.171875 21.109375 0.6875 
Q 17.625 2.546875 15.375 5.375 
L 15.375 -19.875 
z
M 14.546875 25.640625 
Q 14.546875 15.625 18.59375 10.84375 
Q 22.65625 6.0625 28.421875 6.0625 
Q 34.28125 6.0625 38.453125 11.015625 
Q 42.625 15.96875 42.625 26.375 
Q 42.625 36.28125 38.546875 41.203125 
Q 34.46875 46.140625 28.8125 46.140625 
Q 23.1875 46.140625 18.859375 40.890625 
Q 14.546875 35.640625 14.546875 25.640625 
z
" id="ArialMT-112"/>
      <path d="M 3.328125 25.921875 
Q 3.328125 40.328125 11.328125 47.265625 
Q 18.015625 53.03125 27.640625 53.03125 
Q 38.328125 53.03125 45.109375 46.015625 
Q 51.90625 39.015625 51.90625 26.65625 
Q 51.90625 16.65625 48.90625 10.90625 
Q 45.90625 5.171875 40.15625 2 
Q 34.421875 -1.171875 27.640625 -1.171875 
Q 16.75 -1.171875 10.03125 5.8125 
Q 3.328125 12.796875 3.328125 25.921875 
z
M 12.359375 25.921875 
Q 12.359375 15.96875 16.703125 11.015625 
Q 21.046875 6.0625 27.640625 6.0625 
Q 34.1875 6.0625 38.53125 11.03125 
Q 42.875 16.015625 42.875 26.21875 
Q 42.875 35.84375 38.5 40.796875 
Q 34.125 45.75 27.640625 45.75 
Q 21.046875 45.75 16.703125 40.8125 
Q 12.359375 35.890625 12.359375 25.921875 
z
" id="ArialMT-111"/>
      <path d="M 40.4375 19 
L 49.078125 17.875 
Q 47.65625 8.9375 41.8125 3.875 
Q 35.984375 -1.171875 27.484375 -1.171875 
Q 16.84375 -1.171875 10.375 5.78125 
Q 3.90625 12.75 3.90625 25.734375 
Q 3.90625 34.125 6.6875 40.421875 
Q 9.46875 46.734375 15.15625 49.875 
Q 20.84375 53.03125 27.546875 53.03125 
Q 35.984375 53.03125 41.359375 48.75 
Q 46.734375 44.484375 48.25 36.625 
L 39.703125 35.296875 
Q 38.484375 40.53125 35.375 43.15625 
Q 32.28125 45.796875 27.875 45.796875 
Q 21.234375 45.796875 17.078125 41.03125 
Q 12.9375 36.28125 12.9375 25.984375 
Q 12.9375 15.53125 16.9375 10.796875 
Q 20.953125 6.0625 27.390625 6.0625 
Q 32.5625 6.0625 36.03125 9.234375 
Q 39.5 12.40625 40.4375 19 
z
" id="ArialMT-99"/>
      <path d="M 6.5 0 
L 6.5 51.859375 
L 14.40625 51.859375 
L 14.40625 44 
Q 17.4375 49.515625 20 51.265625 
Q 22.5625 53.03125 25.640625 53.03125 
Q 30.078125 53.03125 34.671875 50.203125 
L 31.640625 42.046875 
Q 28.421875 43.953125 25.203125 43.953125 
Q 22.3125 43.953125 20.015625 42.21875 
Q 17.71875 40.484375 16.75 37.40625 
Q 15.28125 32.71875 15.28125 27.15625 
L 15.28125 0 
z
" id="ArialMT-114"/>
     </defs>
     <g transform="translate(27.583125 250.008125)rotate(-90)scale(0.28 -0.28)">
      <use xlink:href="#ArialMT-67"/>
      <use x="72.216797" xlink:href="#ArialMT-104"/>
      <use x="127.832031" xlink:href="#ArialMT-97"/>
      <use x="183.447266" xlink:href="#ArialMT-110"/>
      <use x="239.0625" xlink:href="#ArialMT-103"/>
      <use x="294.677734" xlink:href="#ArialMT-101"/>
      <use x="350.292969" xlink:href="#ArialMT-32"/>
      <use x="378.076172" xlink:href="#ArialMT-112"/>
      <use x="433.691406" xlink:href="#ArialMT-111"/>
      <use x="489.306641" xlink:href="#ArialMT-105"/>
      <use x="511.523438" xlink:href="#ArialMT-110"/>
      <use x="567.138672" xlink:href="#ArialMT-116"/>
      <use x="594.921875" xlink:href="#ArialMT-32"/>
      <use x="622.705078" xlink:href="#ArialMT-115"/>
      <use x="672.705078" xlink:href="#ArialMT-99"/>
      <use x="722.705078" xlink:href="#ArialMT-111"/>
      <use x="778.320312" xlink:href="#ArialMT-114"/>
      <use x="811.621094" xlink:href="#ArialMT-101"/>
     </g>
     <!-- (KL div.) -->
     <defs>
      <path d="M 7.328125 0 
L 7.328125 71.578125 
L 16.796875 71.578125 
L 16.796875 36.078125 
L 52.34375 71.578125 
L 65.1875 71.578125 
L 35.15625 42.578125 
L 66.5 0 
L 54 0 
L 28.515625 36.234375 
L 16.796875 24.8125 
L 16.796875 0 
z
" id="ArialMT-75"/>
      <path d="M 7.328125 0 
L 7.328125 71.578125 
L 16.796875 71.578125 
L 16.796875 8.453125 
L 52.046875 8.453125 
L 52.046875 0 
z
" id="ArialMT-76"/>
      <path d="M 40.234375 0 
L 40.234375 6.546875 
Q 35.296875 -1.171875 25.734375 -1.171875 
Q 19.53125 -1.171875 14.328125 2.25 
Q 9.125 5.671875 6.265625 11.796875 
Q 3.421875 17.921875 3.421875 25.875 
Q 3.421875 33.640625 6 39.96875 
Q 8.59375 46.296875 13.765625 49.65625 
Q 18.953125 53.03125 25.34375 53.03125 
Q 30.03125 53.03125 33.6875 51.046875 
Q 37.359375 49.078125 39.65625 45.90625 
L 39.65625 71.578125 
L 48.390625 71.578125 
L 48.390625 0 
z
M 12.453125 25.875 
Q 12.453125 15.921875 16.640625 10.984375 
Q 20.84375 6.0625 26.5625 6.0625 
Q 32.328125 6.0625 36.34375 10.765625 
Q 40.375 15.484375 40.375 25.140625 
Q 40.375 35.796875 36.265625 40.765625 
Q 32.171875 45.75 26.171875 45.75 
Q 20.3125 45.75 16.375 40.96875 
Q 12.453125 36.1875 12.453125 25.875 
z
" id="ArialMT-100"/>
      <path d="M 21 0 
L 1.265625 51.859375 
L 10.546875 51.859375 
L 21.6875 20.796875 
Q 23.484375 15.765625 25 10.359375 
Q 26.171875 14.453125 28.265625 20.21875 
L 39.796875 51.859375 
L 48.828125 51.859375 
L 29.203125 0 
z
" id="ArialMT-118"/>
      <path d="M 9.078125 0 
L 9.078125 10.015625 
L 19.09375 10.015625 
L 19.09375 0 
z
" id="ArialMT-46"/>
     </defs>
     <g transform="translate(57.936 179.168125)rotate(-90)scale(0.28 -0.28)">
      <use xlink:href="#ArialMT-40"/>
      <use x="33.300781" xlink:href="#ArialMT-75"/>
      <use x="100" xlink:href="#ArialMT-76"/>
      <use x="151.865234" xlink:href="#ArialMT-32"/>
      <use x="179.648438" xlink:href="#ArialMT-100"/>
      <use x="235.263672" xlink:href="#ArialMT-105"/>
      <use x="257.480469" xlink:href="#ArialMT-118"/>
      <use x="300.105469" xlink:href="#ArialMT-46"/>
      <use x="327.888672" xlink:href="#ArialMT-41"/>
     </g>
    </g>
   </g>
   <g id="line2d_13">
    <path clip-path="url(#p42c9b1ddd3)" d="M 159.177364 29.767699 
L 159.679852 225.441738 
L 160.18234 222.655675 
L 160.684828 223.997352 
L 161.187316 218.063462 
L 161.689804 217.618977 
L 162.192293 211.160098 
L 162.694781 207.574794 
L 163.197269 216.019862 
L 164.202245 222.479042 
L 164.704733 223.389089 
L 165.207222 223.245791 
L 165.70971 224.985463 
L 166.212198 225.830131 
L 166.714686 225.652 
L 167.217174 226.911634 
L 167.719662 227.006288 
L 168.222151 226.808339 
L 169.227127 226.821677 
L 169.729615 226.99021 
L 170.232103 226.143243 
L 170.734591 225.680849 
L 171.23708 226.88976 
L 171.739568 225.673066 
L 172.242056 227.104318 
L 172.744544 226.599965 
L 173.247032 226.959112 
L 173.74952 226.129184 
L 174.252009 226.952883 
L 174.754497 226.54142 
L 175.256985 226.907844 
L 175.759473 225.973145 
L 176.261961 227.245623 
L 176.764449 227.102645 
L 177.266938 227.09046 
L 177.769426 226.716215 
L 178.271914 226.139986 
L 178.774402 226.448083 
L 179.779378 225.335638 
L 180.281867 226.445371 
L 180.784355 226.872028 
L 181.789331 226.726428 
L 182.291819 225.906891 
L 183.296796 225.95765 
L 183.799284 225.819902 
L 184.301772 226.715435 
L 184.80426 224.577084 
L 185.306748 226.307775 
L 185.809236 226.497317 
L 186.311725 225.608163 
L 186.814213 225.152221 
L 187.316701 225.100351 
L 187.819189 223.898284 
L 188.321677 226.058166 
L 188.824165 225.873867 
L 189.326654 226.308062 
L 189.829142 225.44697 
L 190.33163 225.910512 
L 190.834118 225.846923 
L 191.336606 225.249832 
L 191.839094 226.803034 
L 192.341583 226.031247 
L 192.844071 226.505774 
L 193.346559 227.160478 
L 193.849047 226.916077 
L 194.854023 226.937982 
L 195.859 225.790253 
L 196.863976 226.281077 
L 197.366464 227.105419 
L 197.868952 226.699159 
L 198.371441 227.182884 
L 198.873929 227.348811 
L 199.376417 227.060878 
L 199.878905 227.252525 
L 200.381393 226.81285 
L 200.883881 227.133869 
L 201.38637 226.44438 
L 201.888858 226.557421 
L 202.391346 226.958997 
L 202.893834 227.108711 
L 203.396322 226.810535 
L 203.89881 226.986398 
L 204.401299 226.760754 
L 205.406275 227.190271 
L 205.908763 226.975619 
L 206.913739 227.317457 
L 207.416228 227.368588 
L 207.918716 227.242065 
L 208.421204 227.370845 
L 208.923692 227.283061 
L 209.42618 227.014574 
L 209.928668 227.266127 
L 210.431157 227.388609 
L 210.933645 227.090311 
L 211.436133 227.038312 
L 212.441109 227.34723 
L 213.446086 227.118174 
L 213.948574 227.318158 
L 214.451062 227.139343 
L 214.95355 227.181584 
L 215.456038 226.834301 
L 215.958526 227.212625 
L 216.461015 227.359381 
L 217.465991 227.335608 
L 217.968479 227.308109 
L 218.470967 227.40583 
L 218.973455 227.361303 
L 219.475944 227.058117 
L 219.978432 227.340035 
L 220.48092 227.21321 
L 220.983408 227.33771 
L 221.988384 226.938474 
L 222.993361 227.354523 
L 223.998337 227.405254 
L 224.500825 227.112399 
L 225.003313 227.353242 
L 226.00829 227.18626 
L 226.510778 227.305701 
L 227.515754 227.324795 
L 228.520731 227.097595 
L 229.023219 227.26994 
L 230.530683 227.40621 
L 231.033171 227.291954 
L 232.540636 227.35451 
L 233.043124 227.216923 
L 233.545612 227.38804 
L 234.0481 227.333012 
L 234.550589 227.407289 
L 235.555565 227.397822 
L 238.570494 227.254585 
L 239.072982 227.375772 
L 242.590399 227.359824 
L 244.097864 227.403038 
L 246.107816 227.385305 
L 248.117769 227.411483 
L 249.625234 227.375407 
L 250.127722 227.28079 
L 251.132698 227.386017 
L 253.142651 227.404732 
L 253.645139 227.174948 
L 254.147627 227.397434 
L 255.655092 227.434792 
L 258.167532 227.397711 
L 261.182461 227.400956 
L 263.192414 227.377829 
L 264.699879 227.419653 
L 266.709831 227.41002 
L 267.714808 227.413504 
L 269.72476 227.330221 
L 270.729736 227.407309 
L 273.744665 227.347972 
L 274.749642 227.424736 
L 277.764571 227.406377 
L 278.769547 227.403186 
L 281.281988 227.394768 
L 281.784476 227.219977 
L 282.286964 227.414835 
L 282.789452 227.302483 
L 284.296917 227.431211 
L 285.301893 227.426965 
L 295.854145 227.413835 
L 298.869074 227.430361 
L 304.396444 227.437735 
L 305.40142 227.420491 
L 307.913861 227.429472 
L 308.416349 227.349658 
L 310.426302 227.428965 
L 311.431278 227.417098 
L 319.973577 227.436208 
L 322.486018 227.385603 
L 323.993482 227.439984 
L 331.028316 227.392663 
L 332.033293 227.415567 
L 333.038269 227.410941 
L 335.048222 227.412537 
L 347.107938 227.390719 
L 348.112914 227.425036 
L 350.625355 227.42705 
L 368.714929 227.426742 
L 376.75474 227.406231 
L 379.769669 227.43469 
L 390.32192 227.419425 
L 393.839337 227.434704 
L 409.41647 227.436698 
L 409.918958 207.766215 
L 410.421447 209.452203 
L 410.923935 210.537275 
L 411.426423 211.190006 
L 411.928911 212.571916 
L 412.933887 214.403368 
L 413.436376 214.40166 
L 414.94384 217.767518 
L 415.446328 218.5618 
L 415.948816 217.897433 
L 416.953793 220.052074 
L 417.958769 219.857146 
L 418.461257 220.537134 
L 418.963745 220.48571 
L 419.466234 220.965463 
L 419.968722 221.673258 
L 420.47121 221.531931 
L 420.973698 221.650243 
L 421.476186 221.540761 
L 421.978674 221.294424 
L 422.481163 222.310243 
L 422.983651 222.200802 
L 423.486139 222.361195 
L 423.988627 221.927909 
L 424.491115 222.353425 
L 424.993603 222.58418 
L 425.496092 222.335011 
L 425.99858 222.636314 
L 426.501068 222.525128 
L 427.003556 222.933846 
L 427.506044 222.710197 
L 428.008532 223.338087 
L 428.511021 222.838356 
L 429.013509 223.073638 
L 429.515997 222.612362 
L 430.018485 223.09809 
L 430.520973 223.060616 
L 431.023461 223.251146 
L 431.52595 223.210194 
L 432.028438 223.333824 
L 432.530926 223.879181 
L 433.033414 223.4764 
L 433.535902 223.425451 
L 434.540879 223.71417 
L 435.043367 223.613746 
L 435.545855 223.371629 
L 436.048343 223.837774 
L 437.053319 223.653774 
L 437.555808 224.100292 
L 438.058296 223.77433 
L 438.560784 224.17258 
L 439.063272 223.711621 
L 439.56576 224.276462 
L 440.068248 223.808221 
L 442.580689 224.256307 
L 443.083177 224.005571 
L 444.590642 224.114781 
L 445.09313 223.886173 
L 445.595618 224.42547 
L 446.098106 223.826479 
L 446.600595 224.164112 
L 447.103083 223.996278 
L 449.113035 224.578174 
L 450.118012 224.184893 
L 450.6205 224.527244 
L 451.122988 224.262853 
L 451.625476 224.4572 
L 452.127964 224.308659 
L 452.630453 224.529848 
L 453.132941 224.110366 
L 454.640405 224.35865 
L 455.142893 224.095497 
L 457.152846 224.712961 
L 457.655334 224.421704 
L 458.660311 224.608898 
L 459.665287 224.459765 
L 460.167775 224.711454 
L 461.172751 224.223863 
L 461.67524 224.56514 
L 462.680216 224.334538 
L 463.182704 224.240418 
L 463.685192 224.76653 
L 464.18768 224.304356 
L 464.690169 224.086104 
L 465.192657 224.421817 
L 466.197633 224.480508 
L 466.700121 224.422069 
L 467.202609 224.527098 
L 468.207586 224.593797 
L 468.710074 224.259592 
L 469.71505 224.274499 
L 470.217538 224.394926 
L 470.720027 224.369917 
L 471.725003 224.157622 
L 473.232467 223.800388 
L 473.734956 223.924898 
L 474.739932 223.896326 
L 476.247396 223.154405 
L 476.749885 223.292304 
L 477.252373 223.192667 
L 477.754861 222.924682 
L 478.257349 222.970123 
L 478.759837 222.679007 
L 480.267302 222.283245 
L 480.76979 222.571772 
L 481.774766 221.764432 
L 482.277254 222.09711 
L 482.779743 221.473077 
L 483.282231 221.261804 
L 483.784719 221.828291 
L 484.287207 221.166439 
L 484.789695 221.274054 
L 485.292183 221.518759 
L 485.794672 221.024526 
L 486.29716 220.797345 
L 487.804624 221.014858 
L 489.312089 221.445924 
L 489.814577 221.465423 
L 490.317065 221.754172 
L 490.819553 222.202782 
L 491.322041 221.588311 
L 492.327018 222.223751 
L 492.829506 222.063191 
L 493.834482 222.819499 
L 494.33697 222.635064 
L 494.839459 223.099873 
L 495.341947 223.077617 
L 495.844435 223.301453 
L 496.346923 223.39548 
L 496.849411 223.093946 
L 497.854388 223.860469 
L 498.356876 223.784475 
L 499.361852 224.134459 
L 499.86434 223.968751 
L 500.366828 224.274121 
L 500.869317 224.381216 
L 501.371805 224.029579 
L 501.874293 224.44352 
L 502.879269 224.200304 
L 503.381757 224.470606 
L 506.396686 223.823467 
L 506.899175 223.906285 
L 507.401663 223.404981 
L 507.904151 223.399253 
L 508.406639 223.583524 
L 508.909127 223.278432 
L 509.411615 223.414703 
L 509.914104 223.304742 
L 510.91908 222.810284 
L 511.421568 222.65974 
L 511.924056 222.374374 
L 512.426544 222.701317 
L 512.929033 222.701493 
L 513.431521 222.309752 
L 513.934009 222.643002 
L 515.441473 221.92095 
L 515.943962 221.795042 
L 516.44645 222.217074 
L 516.948938 221.779331 
L 517.451426 222.176331 
L 518.958891 222.079436 
L 519.461379 221.869836 
L 520.968843 222.212574 
L 521.97382 222.062651 
L 524.48626 222.469992 
L 525.491237 222.578208 
L 525.993725 222.820046 
L 526.496213 222.899424 
L 526.998701 223.189695 
L 528.003678 223.257989 
L 528.506166 223.497968 
L 529.008654 223.326222 
L 529.511142 223.670865 
L 530.01363 223.48532 
L 530.516118 224.119241 
L 531.521095 224.195178 
L 532.023583 224.495323 
L 533.028559 224.109752 
L 534.033536 224.980619 
L 535.038512 224.956489 
L 536.043488 224.998347 
L 536.545976 224.971257 
L 537.048464 225.074811 
L 537.550953 225.397073 
L 538.053441 225.243995 
L 538.555929 225.672611 
L 539.560905 225.528024 
L 540.063393 225.723187 
L 540.565882 225.538354 
L 541.570858 225.962407 
L 542.575834 225.86177 
L 543.078322 225.78595 
L 543.580811 225.888522 
L 544.083299 225.704291 
L 545.088275 225.799927 
L 545.590763 225.754417 
L 546.093251 225.469287 
L 546.59574 225.514893 
L 547.098228 225.354037 
L 547.600716 225.60864 
L 548.605692 225.615959 
L 549.10818 225.347646 
L 550.113157 225.329617 
L 550.615645 224.940968 
L 551.118133 224.75692 
L 551.620621 224.742351 
L 552.625598 224.571724 
L 553.128086 224.146609 
L 553.630574 223.908184 
L 555.138038 223.766967 
L 555.640527 223.711017 
L 556.143015 223.312591 
L 556.645503 223.104033 
L 557.147991 223.209344 
L 558.152967 222.714862 
L 558.655456 222.809453 
L 559.157944 222.311477 
L 559.660432 222.308225 
L 560.16292 222.902032 
L 560.665408 222.47178 
L 561.167896 222.633149 
L 561.670385 222.240546 
L 562.172873 222.43442 
L 562.675361 222.281432 
L 563.680337 222.385106 
L 564.182825 222.348677 
L 565.69029 222.805019 
L 566.192778 222.757489 
L 566.695266 223.107558 
L 567.700243 223.296289 
L 568.202731 223.768011 
L 569.207707 223.794 
L 570.212683 224.215977 
L 570.715172 224.725055 
L 571.21766 224.619691 
L 571.720148 224.793348 
L 572.222636 224.78697 
L 572.725124 225.23585 
L 573.227612 225.455861 
L 573.730101 225.174349 
L 574.735077 225.610067 
L 575.237565 225.773314 
L 575.740053 225.802982 
L 576.242541 225.690507 
L 576.74503 225.870929 
L 578.754982 226.041461 
L 579.25747 225.870287 
L 579.759959 226.067498 
L 580.764935 225.75088 
L 581.267423 225.837464 
L 582.774888 225.576368 
L 583.277376 225.711066 
L 584.282352 225.017681 
L 584.78484 225.033607 
L 585.287328 224.808425 
L 585.789817 224.814021 
L 587.799769 224.321598 
L 588.302257 224.487008 
L 588.804746 224.102998 
L 589.307234 224.036792 
L 589.809722 223.831682 
L 590.814698 223.647585 
L 591.317186 224.022746 
L 592.824651 223.419457 
L 593.327139 223.100992 
L 593.829627 223.287378 
L 594.834604 223.214031 
L 595.337092 223.162576 
L 595.83958 223.269882 
L 596.844556 223.196706 
L 597.347044 223.3377 
L 597.849533 223.09754 
L 598.352021 223.196186 
L 598.854509 222.971639 
L 599.356997 223.350751 
L 599.859485 223.039316 
L 600.361973 223.343 
L 600.864462 223.477094 
L 601.36695 223.473897 
L 601.869438 223.254648 
L 602.371926 223.607371 
L 603.879391 223.819729 
L 604.381879 224.22573 
L 604.884367 224.091018 
L 605.889343 224.381431 
L 606.391831 224.047444 
L 606.89432 224.533022 
L 607.396808 224.495561 
L 607.899296 224.816353 
L 608.401784 224.694734 
L 608.904272 225.086926 
L 609.40676 225.064708 
L 609.909249 225.270177 
L 610.411737 225.155724 
L 610.914225 225.564558 
L 611.416713 225.419436 
L 611.919201 225.687021 
L 612.421689 225.609502 
L 612.924178 225.655763 
L 613.929154 226.068373 
L 614.431642 225.973764 
L 614.93413 226.314444 
L 615.436618 226.107664 
L 615.939107 226.388401 
L 616.441595 226.296797 
L 616.944083 226.365688 
L 617.446571 226.273261 
L 619.456524 226.55676 
L 621.466476 226.500936 
L 621.968965 226.369627 
L 622.973941 226.439487 
L 624.481405 226.153829 
L 625.486382 226.135139 
L 625.98887 225.834057 
L 626.491358 225.76787 
L 626.993846 225.578442 
L 627.496334 225.583899 
L 629.003799 225.000794 
L 629.506287 225.006052 
L 630.008775 224.723905 
L 630.511263 224.748912 
L 631.013752 224.621637 
L 631.51624 224.858592 
L 632.018728 224.080769 
L 632.521216 224.079154 
L 633.023704 224.279998 
L 633.526192 223.922283 
L 634.531169 223.800586 
L 635.033657 223.591585 
L 635.536145 223.61377 
L 636.038633 223.502726 
L 636.541121 223.561569 
L 637.04361 223.396858 
L 637.546098 223.598205 
L 638.048586 223.432688 
L 639.55605 223.778736 
L 640.058539 223.845848 
L 640.561027 224.062045 
L 641.063515 224.048353 
L 641.566003 224.221515 
L 642.068491 224.242517 
L 643.073468 224.751392 
L 643.575956 224.755016 
L 644.078444 225.027267 
L 645.08342 225.189366 
L 645.585908 225.407201 
L 647.093373 225.750463 
L 650.108302 226.487105 
L 653.123231 226.713154 
L 654.128207 226.593108 
L 654.630695 226.701213 
L 656.640648 226.348987 
L 659.655577 225.834065 
L 660.158065 225.738008 
L 661.163042 226.038382 
L 661.66553 224.778615 
L 662.670506 224.554772 
L 663.172994 224.003989 
L 663.675482 224.880946 
L 664.177971 225.410712 
L 664.680459 224.53341 
L 665.182947 221.49097 
L 665.685435 223.920033 
L 666.187923 222.830928 
L 666.690411 222.525301 
L 667.1929 222.384194 
L 667.695388 224.12304 
L 668.197876 222.696132 
L 668.700364 224.638295 
L 669.202852 224.913495 
L 669.70534 221.003599 
L 670.207828 225.057866 
L 670.710317 222.933454 
L 671.212805 221.420604 
L 671.715293 223.280206 
L 672.217781 223.27759 
L 672.720269 224.252988 
L 673.222757 222.715329 
L 673.725246 222.834425 
L 674.227734 225.09618 
L 674.730222 224.771145 
L 675.23271 221.488583 
L 675.735198 225.142827 
L 676.237686 225.487277 
L 676.740175 224.643927 
L 677.242663 222.393755 
L 677.745151 224.28112 
L 678.247639 223.016213 
L 678.750127 224.541879 
L 679.252615 224.379759 
L 679.755104 223.608612 
L 680.257592 222.050084 
L 680.76008 225.140832 
L 681.262568 226.324571 
L 681.765056 223.74588 
L 682.267544 225.226109 
L 682.770033 226.290712 
L 683.272521 224.57422 
L 683.775009 226.333423 
L 684.277497 225.44445 
L 684.779985 225.437781 
L 685.282473 226.056992 
L 685.784962 223.811528 
L 686.28745 226.311307 
L 686.789938 225.549545 
L 687.292426 225.304727 
L 687.794914 225.283884 
L 688.297402 225.946607 
L 688.799891 225.371181 
L 689.302379 225.933724 
L 689.804867 225.019624 
L 690.307355 225.663432 
L 690.809843 226.920386 
L 691.312331 226.980956 
L 691.81482 226.119841 
L 692.819796 226.743938 
L 693.322284 226.640954 
L 694.32726 227.12173 
L 694.829749 226.65499 
L 695.332237 225.934657 
L 695.834725 227.227087 
L 696.337213 226.211878 
L 696.839701 226.485106 
L 697.342189 225.754963 
L 697.844678 227.238357 
L 698.347166 225.395916 
L 698.849654 226.700058 
L 699.352142 226.14628 
L 699.85463 227.08727 
L 700.357118 226.825412 
L 700.859607 223.847859 
L 701.362095 225.611263 
L 701.864583 222.645938 
L 702.367071 224.837769 
L 702.869559 224.80247 
L 703.372047 225.728602 
L 703.874536 225.912176 
L 704.377024 224.424674 
L 704.879512 224.315426 
L 705.382 226.270952 
L 705.884488 225.629826 
L 706.386976 222.752816 
L 706.889465 226.168483 
L 707.391953 225.176692 
L 707.894441 223.227602 
L 708.396929 222.963448 
L 708.899417 223.228081 
L 709.401905 224.626743 
L 709.904394 220.257798 
L 710.406882 224.326002 
L 710.90937 223.828681 
L 711.411858 223.741376 
L 711.914346 225.710543 
L 712.416834 224.797098 
L 713.421811 223.452357 
L 713.924299 223.9455 
L 714.426787 223.743996 
L 714.929275 221.486323 
L 715.431763 224.557237 
L 715.934252 225.861334 
L 716.43674 224.983457 
L 716.939228 223.671486 
L 717.441716 223.049222 
L 717.944204 226.103588 
L 718.446692 225.533125 
L 718.949181 225.856334 
L 719.451669 226.423178 
L 719.954157 225.924285 
L 720.456645 224.391443 
L 720.959133 226.957221 
L 721.461621 225.565603 
L 721.96411 226.263127 
L 722.466598 225.9686 
L 722.969086 226.402221 
L 723.471574 226.094979 
L 723.974062 226.961248 
L 724.47655 227.208826 
L 724.979039 226.233505 
L 725.481527 227.392265 
L 725.984015 225.912613 
L 726.486503 227.144406 
L 726.988991 226.35051 
L 727.491479 227.098951 
L 728.496456 227.238491 
L 729.501432 226.889402 
L 730.00392 226.165255 
L 730.506408 225.900424 
L 731.008897 225.832229 
L 731.511385 224.881683 
L 732.013873 226.430257 
L 732.516361 224.239759 
L 733.018849 225.182649 
L 733.521337 226.767716 
L 734.023826 225.534681 
L 734.526314 225.934419 
L 735.028802 225.802943 
L 735.53129 225.822942 
L 736.033778 225.570487 
L 736.536266 225.948333 
L 737.038755 223.805168 
L 738.043731 225.932057 
L 738.546219 225.933917 
L 739.048707 224.594706 
L 739.551195 225.022335 
L 740.053684 225.122628 
L 740.556172 225.858876 
L 741.561148 225.137561 
L 742.063636 225.32408 
L 742.566124 225.002996 
L 743.068613 223.006925 
L 743.571101 225.823815 
L 744.073589 225.73517 
L 744.576077 222.164848 
L 745.581053 226.777941 
L 746.083542 225.182784 
L 746.58603 224.221335 
L 747.088518 226.511986 
L 747.591006 223.13576 
L 748.595982 225.667929 
L 749.098471 223.898962 
L 749.600959 225.760966 
L 750.103447 223.555411 
L 750.605935 224.891417 
L 751.108423 225.234185 
L 751.610911 224.20355 
L 752.615888 225.55844 
L 753.118376 224.181734 
L 753.620864 225.225347 
L 754.123352 224.802152 
L 754.62584 226.00782 
L 755.128329 224.448788 
L 755.630817 225.510898 
L 756.635793 226.07637 
L 757.138281 227.026043 
L 757.640769 225.051918 
L 758.645746 225.673628 
L 759.148234 225.468582 
L 759.650722 226.02367 
L 760.15321 225.706277 
L 760.655698 226.825854 
L 761.158187 226.304178 
L 761.660675 225.566536 
L 762.163163 225.585729 
L 762.665651 226.798802 
L 763.168139 224.007591 
L 763.670627 226.675981 
L 764.173116 226.200388 
L 764.675604 226.947991 
L 765.178092 226.809507 
L 765.68058 227.09381 
L 766.183068 226.839674 
L 766.685556 226.803287 
L 767.188045 227.191601 
L 767.690533 225.271737 
L 768.695509 226.063582 
L 769.197997 227.327792 
L 769.700485 226.533249 
L 770.202974 226.384387 
L 770.705462 225.206654 
L 771.20795 225.819923 
L 771.710438 225.186791 
L 772.212926 225.988039 
L 772.715414 224.865192 
L 773.217903 226.014245 
L 774.222879 226.08053 
L 774.725367 226.677447 
L 775.227855 225.293198 
L 775.730343 224.883071 
L 776.232832 223.699531 
L 776.73532 224.377017 
L 777.237808 225.663849 
L 777.740296 223.807448 
L 778.745272 224.243363 
L 779.247761 223.940371 
L 779.750249 224.040043 
L 780.252737 223.919357 
L 780.755225 223.021522 
L 781.257713 221.048725 
L 781.760201 223.698623 
L 782.26269 225.268413 
L 782.765178 224.02573 
L 783.267666 224.318553 
L 783.770154 225.262556 
L 784.272642 224.748782 
L 784.77513 222.138733 
L 785.277619 224.601975 
L 785.780107 224.464498 
L 786.282595 223.715592 
L 786.785083 225.948754 
L 787.287571 224.781732 
L 787.790059 226.636555 
L 788.795036 224.920713 
L 789.297524 225.073663 
L 789.800012 224.890141 
L 790.3025 225.703843 
L 790.804988 225.151897 
L 791.307477 225.498335 
L 791.809965 225.589941 
L 792.312453 226.083681 
L 792.814941 225.722694 
L 793.317429 225.653251 
L 793.819917 226.65431 
L 794.322406 226.576367 
L 794.824894 225.832509 
L 795.327382 227.003034 
L 795.82987 226.294959 
L 796.332358 226.04741 
L 796.834846 226.964065 
L 797.337335 226.54208 
L 797.839823 227.037415 
L 798.342311 226.461702 
L 798.844799 226.807487 
L 799.347287 226.859571 
L 799.849775 226.320354 
L 800.352264 224.384696 
L 800.854752 226.59552 
L 801.35724 226.783757 
L 801.859728 226.296392 
L 802.362216 226.801443 
L 802.864704 225.837586 
L 804.372169 226.271972 
L 805.377145 225.873218 
L 805.879633 226.344173 
L 806.382121 222.580941 
L 806.88461 225.804222 
L 807.387098 226.092574 
L 807.889586 223.012927 
L 808.894562 224.324259 
L 809.39705 224.783449 
L 809.899539 225.810787 
L 810.402027 223.750472 
L 810.904515 223.488064 
L 811.407003 224.59179 
L 811.909491 224.213081 
L 812.411979 225.916131 
L 812.914468 220.906691 
L 813.416956 223.457204 
L 813.919444 223.986933 
L 814.421932 225.290674 
L 814.92442 223.383511 
L 815.426908 223.864996 
L 815.929397 223.783672 
L 816.431885 222.576482 
L 816.934373 225.05542 
L 817.436861 223.118074 
L 817.939349 223.298336 
L 818.441837 225.090872 
L 818.944326 220.954931 
L 819.446814 220.37202 
L 819.949302 221.123977 
L 820.45179 222.194861 
L 820.954278 220.809126 
L 821.456766 223.083246 
L 821.959255 223.355101 
L 822.964231 225.098715 
L 823.466719 222.955041 
L 823.969207 222.599508 
L 824.471695 224.168914 
L 824.974184 224.51126 
L 825.476672 224.309395 
L 825.97916 222.349407 
L 826.481648 224.908879 
L 826.984136 223.98452 
L 827.486624 224.537384 
L 827.989113 224.466273 
L 828.491601 224.900246 
L 828.994089 224.608829 
L 829.496577 223.918324 
L 829.999065 222.663297 
L 830.501553 224.895946 
L 831.004042 223.484251 
L 831.50653 224.905967 
L 832.009018 222.937341 
L 832.511506 225.587214 
L 833.013994 225.806731 
L 834.018971 226.70526 
L 834.521459 225.326861 
L 835.023947 224.977658 
L 835.526435 225.17247 
L 836.028923 225.897988 
L 836.531411 225.529921 
L 837.536388 226.778086 
L 838.038876 225.830508 
L 838.541364 226.718458 
L 839.043852 226.519025 
L 839.54634 224.498483 
L 840.048829 226.168673 
L 840.551317 225.503119 
L 841.053805 224.367715 
L 841.556293 224.824818 
L 842.058781 221.45176 
L 842.561269 224.151525 
L 843.063758 223.110212 
L 843.566246 224.375206 
L 844.068734 224.768114 
L 844.571222 224.131791 
L 845.07371 225.672892 
L 845.576198 219.908876 
L 846.078687 223.040002 
L 846.581175 222.959015 
L 847.083663 223.806174 
L 847.586151 223.229809 
L 848.088639 220.85419 
L 848.591127 222.587688 
L 849.093616 218.169669 
L 849.596104 217.102327 
L 850.098592 221.905289 
L 850.60108 221.667632 
L 851.103568 221.678886 
L 851.606056 221.314745 
L 852.108545 222.391897 
L 852.611033 223.144662 
L 853.113521 221.987639 
L 853.616009 224.328839 
L 854.118497 223.870729 
L 854.620985 222.970091 
L 855.123474 220.33406 
L 855.625962 219.966288 
L 856.12845 223.014195 
L 856.630938 221.931652 
L 857.133426 224.386114 
L 858.138403 222.370609 
L 858.640891 224.041936 
L 859.143379 224.255655 
L 859.645867 224.061968 
L 860.148355 221.255803 
L 860.650843 224.171804 
L 861.153332 225.150833 
L 861.65582 225.826236 
L 862.158308 225.868005 
L 862.660796 226.572759 
L 863.665772 224.590444 
L 864.168261 226.180904 
L 864.670749 225.440785 
L 865.173237 223.685954 
L 865.675725 224.994069 
L 866.178213 225.242351 
L 866.680701 226.653711 
L 867.685678 223.366143 
L 868.188166 226.568619 
L 868.690654 225.796299 
L 869.193142 225.626655 
L 869.69563 226.272096 
L 870.198119 222.751784 
L 871.203095 225.992899 
L 871.705583 224.966265 
L 872.208071 226.412805 
L 872.710559 224.338624 
L 873.213048 226.047351 
L 873.715536 221.060901 
L 874.218024 225.008152 
L 874.720512 223.336848 
L 875.223 225.248641 
L 875.725488 224.047005 
L 876.227977 223.983331 
L 876.730465 224.335216 
L 877.232953 221.596456 
L 878.237929 222.329968 
L 878.740417 220.589973 
L 879.242906 223.92677 
L 879.745394 223.849385 
L 880.247882 223.245555 
L 880.75037 221.096175 
L 881.252858 219.661067 
L 881.755346 222.078302 
L 882.257835 223.629274 
L 882.760323 222.916666 
L 883.262811 221.957875 
L 883.765299 221.699499 
L 884.267787 221.775272 
L 884.770275 223.1798 
L 885.775252 220.309161 
L 886.27774 220.16914 
L 886.780228 217.842487 
L 887.282716 222.354124 
L 887.785204 220.584802 
L 888.790181 222.959629 
L 889.292669 221.844478 
L 890.297645 223.794929 
L 890.800133 219.656239 
L 891.302622 222.980707 
L 891.80511 223.837581 
L 892.307598 222.83289 
L 892.810086 223.095244 
L 893.312574 221.633626 
L 893.815062 222.455182 
L 894.317551 224.890555 
L 894.820039 221.798255 
L 895.322527 223.35601 
L 895.825015 224.329866 
L 896.327503 224.830034 
L 896.829991 223.653459 
L 897.33248 221.876493 
L 897.834968 226.21842 
L 898.337456 223.045228 
L 898.839944 223.246412 
L 899.342432 225.647183 
L 899.84492 224.898847 
L 900.347409 226.079019 
L 900.849897 225.575834 
L 901.352385 223.167757 
L 901.854873 226.90299 
L 902.357361 224.491609 
L 902.859849 226.992319 
L 903.362338 224.863961 
L 903.864826 226.290377 
L 904.367314 225.693753 
L 904.869802 225.330665 
L 905.37229 226.52478 
L 905.874778 226.027001 
L 906.377267 225.765002 
L 906.879755 226.336058 
L 907.382243 225.328377 
L 907.884731 225.496519 
L 908.387219 226.933764 
L 908.889707 226.423825 
L 909.392196 226.863098 
L 909.894684 225.45135 
L 910.397172 225.153875 
L 910.89966 227.210285 
L 911.402148 224.735587 
L 911.904636 226.032228 
L 911.904636 226.032228 
" style="fill:none;stroke:#1f77b4;stroke-linecap:square;stroke-width:1.5;"/>
   </g>
   <g id="patch_3">
    <path d="M 121.541 237.324063 
L 121.541 19.884063 
" style="fill:none;stroke:#000000;stroke-linecap:square;stroke-linejoin:miter;stroke-width:0.8;"/>
   </g>
   <g id="patch_4">
    <path d="M 949.541 237.324063 
L 949.541 19.884063 
" style="fill:none;stroke:#000000;stroke-linecap:square;stroke-linejoin:miter;stroke-width:0.8;"/>
   </g>
   <g id="patch_5">
    <path d="M 121.541 237.324063 
L 949.541 237.324063 
" style="fill:none;stroke:#000000;stroke-linecap:square;stroke-linejoin:miter;stroke-width:0.8;"/>
   </g>
   <g id="patch_6">
    <path d="M 121.541 19.884063 
L 949.541 19.884063 
" style="fill:none;stroke:#000000;stroke-linecap:square;stroke-linejoin:miter;stroke-width:0.8;"/>
   </g>
   <g id="legend_1">
    <g id="patch_7">
     <path d="M 963.021 105.383438 
L 1357.701 105.383438 
Q 1362.901 105.383438 1362.901 100.183438 
L 1362.901 25.084063 
Q 1362.901 19.884063 1357.701 19.884063 
L 963.021 19.884063 
Q 957.821 19.884063 957.821 25.084063 
L 957.821 100.183438 
Q 957.821 105.383438 963.021 105.383438 
z
" style="fill:#ffffff;opacity:0.8;stroke:#cccccc;stroke-linejoin:miter;"/>
    </g>
    <g id="line2d_14">
     <path d="M 968.221 40.11125 
L 1020.221 40.11125 
" style="fill:none;stroke:#1f77b4;stroke-linecap:square;stroke-width:1.5;"/>
    </g>
    <g id="line2d_15"/>
    <g id="text_9">
     <!-- Change point score -->
     <g transform="translate(1041.021 49.21125)scale(0.26 -0.26)">
      <use xlink:href="#ArialMT-67"/>
      <use x="72.216797" xlink:href="#ArialMT-104"/>
      <use x="127.832031" xlink:href="#ArialMT-97"/>
      <use x="183.447266" xlink:href="#ArialMT-110"/>
      <use x="239.0625" xlink:href="#ArialMT-103"/>
      <use x="294.677734" xlink:href="#ArialMT-101"/>
      <use x="350.292969" xlink:href="#ArialMT-32"/>
      <use x="378.076172" xlink:href="#ArialMT-112"/>
      <use x="433.691406" xlink:href="#ArialMT-111"/>
      <use x="489.306641" xlink:href="#ArialMT-105"/>
      <use x="511.523438" xlink:href="#ArialMT-110"/>
      <use x="567.138672" xlink:href="#ArialMT-116"/>
      <use x="594.921875" xlink:href="#ArialMT-32"/>
      <use x="622.705078" xlink:href="#ArialMT-115"/>
      <use x="672.705078" xlink:href="#ArialMT-99"/>
      <use x="722.705078" xlink:href="#ArialMT-111"/>
      <use x="778.320312" xlink:href="#ArialMT-114"/>
      <use x="811.621094" xlink:href="#ArialMT-101"/>
     </g>
    </g>
    <g id="PathCollection_2">
     <g>
      <use style="fill:#ff0000;stroke:#ff0000;" x="994.221" xlink:href="#m3dd6e30bd5" y="82.438438"/>
     </g>
    </g>
    <g id="text_10">
     <!-- Change point (KL div &gt; $\zeta^*$) -->
     <defs>
      <path d="M 52.875 31.296875 
L 5.46875 11.03125 
L 5.46875 19.78125 
L 43.015625 35.359375 
L 5.46875 50.78125 
L 5.46875 59.515625 
L 52.875 39.5 
z
" id="ArialMT-62"/>
      <path d="M 29 68.296875 
L 29.5 66.796875 
Q 26 65.5 24.09375 63.59375 
Q 22.203125 61.703125 22.203125 59.796875 
Q 22.203125 55.796875 27 55 
Q 30 58.59375 35.390625 62.140625 
Q 40.796875 65.703125 44.40625 65.703125 
Q 47.5 65.703125 47.5 63.203125 
Q 47.5 59.90625 41.34375 56.25 
Q 35.203125 52.59375 28.5 52 
Q 21.40625 47.203125 14.75 36.34375 
Q 8.09375 25.5 8.09375 16.296875 
Q 8.09375 11.40625 10.84375 9.203125 
Q 13.59375 7 19 7 
Q 19.703125 7 21.09375 7.046875 
Q 22.5 7.09375 22.796875 7.09375 
Q 29.09375 7.09375 32.5 4.59375 
Q 35.90625 2.09375 35.90625 -2.09375 
Q 35.90625 -6.59375 33.09375 -10.59375 
Q 30.90625 -14 27 -16.25 
Q 23.09375 -18.5 19.703125 -18.5 
Q 16.90625 -18.5 14.953125 -17.203125 
Q 13 -15.90625 13 -13.296875 
Q 13 -11.59375 14.203125 -10.34375 
Q 15.40625 -9.09375 17.296875 -9.09375 
Q 18.90625 -9.09375 20.75 -10.546875 
Q 22.59375 -12 23.796875 -12 
Q 27.09375 -12 29.5 -10.046875 
Q 31.90625 -8.09375 31.90625 -5.09375 
Q 31.90625 -0.09375 24.296875 -0.09375 
Q 23 -0.09375 19.84375 -0.59375 
Q 16.703125 -1.09375 15.203125 -1.09375 
Q 3 -1.09375 3 10.703125 
Q 3 31.5 24.203125 52.203125 
L 24.09375 52.296875 
Q 21.5 52.296875 19.296875 53.84375 
Q 17.09375 55.40625 17.09375 58.09375 
Q 17.09375 61.296875 20.140625 64.046875 
Q 23.203125 66.796875 29 68.296875 
z
" id="STIXGeneral-Italic-950"/>
      <path d="M 26.796875 47.09375 
L 27.703125 46.5 
Q 31.40625 44.09375 37.296875 43.09375 
Q 40.703125 42.59375 42 41.640625 
Q 43.296875 40.703125 43.296875 38.796875 
Q 43.296875 37.09375 42.296875 36 
Q 41.296875 34.90625 39.703125 34.90625 
Q 37.203125 34.90625 33.703125 39.296875 
Q 31.40625 42.09375 26.796875 45.09375 
L 26 45.59375 
L 26 44.703125 
Q 26 39.09375 28 33.703125 
Q 28.90625 31.203125 28.90625 30.40625 
Q 28.90625 28.90625 27.65625 27.703125 
Q 26.40625 26.5 24.90625 26.5 
Q 23.5 26.5 22.390625 27.59375 
Q 21.296875 28.703125 21.296875 30.09375 
Q 21.296875 31.5 22.5 34.796875 
Q 24.09375 39.09375 24.09375 44.703125 
L 24.09375 45.59375 
Q 20.09375 43.09375 18.90625 42 
Q 17.703125 40.796875 14.796875 37.5 
Q 12.59375 35 10.5 35 
Q 8.796875 35 7.796875 36 
Q 6.796875 37 6.796875 38.59375 
Q 6.796875 40.5 8.25 41.5 
Q 9.703125 42.5 13.09375 43.09375 
Q 16.59375 43.796875 18.4375 44.5 
Q 20.296875 45.203125 23.40625 47.09375 
Q 19.09375 49.703125 13.703125 50.796875 
Q 10 51.59375 8.5 52.59375 
Q 7 53.59375 7 55.40625 
Q 7 57 7.890625 58.046875 
Q 8.796875 59.09375 10.296875 59.09375 
Q 12.296875 59.09375 15.203125 55.90625 
Q 19.40625 51.203125 24.09375 48.59375 
L 24.09375 49.90625 
Q 24.09375 54 22.59375 59 
Q 21.5 62.296875 21.5 64.203125 
Q 21.5 65.59375 22.546875 66.59375 
Q 23.59375 67.59375 25.09375 67.59375 
Q 26.59375 67.59375 27.6875 66.546875 
Q 28.796875 65.5 28.796875 64 
Q 28.796875 62.40625 27.703125 59.296875 
Q 26 54.796875 26 51 
L 26 48.59375 
Q 29.40625 50.59375 31.796875 52.796875 
Q 32.296875 53.296875 33.640625 54.75 
Q 35 56.203125 35.796875 57 
Q 36.59375 57.796875 37.640625 58.546875 
Q 38.703125 59.296875 39.5 59.296875 
Q 41.203125 59.296875 42.203125 58.25 
Q 43.203125 57.203125 43.203125 55.5 
Q 43.203125 53.5 42.046875 52.546875 
Q 40.90625 51.59375 38 51.203125 
Q 32.40625 50.296875 26.796875 47.09375 
z
" id="STIXGeneral-Regular-42"/>
     </defs>
     <g transform="translate(1041.021 89.263438)scale(0.26 -0.26)">
      <use transform="translate(0 0.409375)" xlink:href="#ArialMT-67"/>
      <use transform="translate(72.216797 0.409375)" xlink:href="#ArialMT-104"/>
      <use transform="translate(127.832031 0.409375)" xlink:href="#ArialMT-97"/>
      <use transform="translate(183.447266 0.409375)" xlink:href="#ArialMT-110"/>
      <use transform="translate(239.0625 0.409375)" xlink:href="#ArialMT-103"/>
      <use transform="translate(294.677734 0.409375)" xlink:href="#ArialMT-101"/>
      <use transform="translate(350.292969 0.409375)" xlink:href="#ArialMT-32"/>
      <use transform="translate(378.076172 0.409375)" xlink:href="#ArialMT-112"/>
      <use transform="translate(433.691406 0.409375)" xlink:href="#ArialMT-111"/>
      <use transform="translate(489.306641 0.409375)" xlink:href="#ArialMT-105"/>
      <use transform="translate(511.523438 0.409375)" xlink:href="#ArialMT-110"/>
      <use transform="translate(567.138672 0.409375)" xlink:href="#ArialMT-116"/>
      <use transform="translate(594.921875 0.409375)" xlink:href="#ArialMT-32"/>
      <use transform="translate(622.705078 0.409375)" xlink:href="#ArialMT-40"/>
      <use transform="translate(656.005859 0.409375)" xlink:href="#ArialMT-75"/>
      <use transform="translate(722.705078 0.409375)" xlink:href="#ArialMT-76"/>
      <use transform="translate(778.320312 0.409375)" xlink:href="#ArialMT-32"/>
      <use transform="translate(806.103516 0.409375)" xlink:href="#ArialMT-100"/>
      <use transform="translate(861.71875 0.409375)" xlink:href="#ArialMT-105"/>
      <use transform="translate(883.935547 0.409375)" xlink:href="#ArialMT-118"/>
      <use transform="translate(933.935547 0.409375)" xlink:href="#ArialMT-32"/>
      <use transform="translate(961.71875 0.409375)" xlink:href="#ArialMT-62"/>
      <use transform="translate(1020.117188 0.409375)" xlink:href="#ArialMT-32"/>
      <use transform="translate(1047.900391 0.409375)" xlink:href="#STIXGeneral-Italic-950"/>
      <use transform="translate(1114.664163 35.684375)scale(0.7)" xlink:href="#STIXGeneral-Regular-42"/>
      <use transform="translate(1164.181525 0.409375)" xlink:href="#ArialMT-41"/>
     </g>
    </g>
   </g>
  </g>
 </g>
 <defs>
  <clipPath id="p42c9b1ddd3">
   <rect height="217.44" width="828" x="121.541" y="19.884063"/>
  </clipPath>
 </defs>
</svg>
