<?xml version="1.0" encoding="utf-8" standalone="no"?>
<!DOCTYPE svg PUBLIC "-//W3C//DTD SVG 1.1//EN"
  "http://www.w3.org/Graphics/SVG/1.1/DTD/svg11.dtd">
<!-- Created with matplotlib (https://matplotlib.org/) -->
<svg height="741.72545pt" version="1.1" viewBox="0 0 1439.605375 741.72545" width="1439.605375pt" xmlns="http://www.w3.org/2000/svg" xmlns:xlink="http://www.w3.org/1999/xlink">
 <defs>
  <style type="text/css">
*{stroke-linecap:butt;stroke-linejoin:round;}
  </style>
 </defs>
 <g id="figure_1">
  <g id="patch_1">
   <path d="M 0 741.72545 
L 1439.605375 741.72545 
L 1439.605375 0 
L 0 0 
z
" style="fill:#ffffff;"/>
  </g>
  <g id="axes_1">
   <g id="patch_2">
    <path d="M 74.948125 287.908843 
L 320.468125 287.908843 
L 320.468125 74.3517 
L 74.948125 74.3517 
z
" style="fill:#ffffff;"/>
   </g>
   <g id="matplotlib.axis_1">
    <g id="xtick_1">
     <g id="line2d_1">
      <defs>
       <path d="M 0 0 
L 0 3.5 
" id="mb2192e875a" style="stroke:#000000;stroke-width:0.8;"/>
      </defs>
      <g>
       <use style="stroke:#000000;stroke-width:0.8;" x="99.863942" xlink:href="#mb2192e875a" y="287.908843"/>
      </g>
     </g>
     <g id="text_1">
      <!-- $0$ -->
      <defs>
       <path d="M 47.59375 33 
Q 47.59375 26.296875 46.296875 20.34375 
Q 45 14.40625 42.453125 9.40625 
Q 39.90625 4.40625 35.40625 1.5 
Q 30.90625 -1.40625 25 -1.40625 
Q 18.90625 -1.40625 14.296875 1.6875 
Q 9.703125 4.796875 7.203125 10 
Q 4.703125 15.203125 3.546875 21.09375 
Q 2.40625 27 2.40625 33.59375 
Q 2.40625 42.90625 4.703125 50.34375 
Q 7 57.796875 12.34375 62.6875 
Q 17.703125 67.59375 25.40625 67.59375 
Q 35.203125 67.59375 41.390625 58 
Q 47.59375 48.40625 47.59375 33 
z
M 38 32.5 
Q 38 48.296875 34.640625 56.640625 
Q 31.296875 65 24.796875 65 
Q 18.59375 65 15.296875 56.59375 
Q 12 48.203125 12 32.90625 
Q 12 17.5 15.296875 9.34375 
Q 18.59375 1.203125 25 1.203125 
Q 31.296875 1.203125 34.640625 9.34375 
Q 38 17.5 38 32.5 
z
" id="STIXGeneral-Regular-48"/>
      </defs>
      <g transform="translate(92.863942 314.950718)scale(0.28 -0.28)">
       <use transform="translate(0 0.40625)" xlink:href="#STIXGeneral-Regular-48"/>
      </g>
     </g>
    </g>
    <g id="xtick_2">
     <g id="line2d_2">
      <g>
       <use style="stroke:#000000;stroke-width:0.8;" x="197.708125" xlink:href="#mb2192e875a" y="287.908843"/>
      </g>
     </g>
     <g id="text_2">
      <!-- $\pi$ -->
      <defs>
       <path d="M 53.59375 42.796875 
L 51.5 35.40625 
L 41.296875 35.40625 
Q 41 34.296875 39.09375 27.84375 
Q 37.203125 21.40625 35.890625 16.75 
Q 34.59375 12.09375 34.59375 11.203125 
Q 34.59375 7 37.703125 7 
Q 42.09375 7 44.796875 13.09375 
L 46.40625 13.09375 
Q 45.09375 7.59375 41.4375 3.25 
Q 37.796875 -1.09375 32.703125 -1.09375 
Q 29.703125 -1.09375 28.25 1.046875 
Q 26.796875 3.203125 26.796875 6.40625 
Q 26.796875 9.796875 28.5 14.40625 
L 36.09375 35.40625 
L 25.703125 35.40625 
Q 24.5 32.203125 21.890625 22.953125 
Q 19.296875 13.703125 16.6875 8 
Q 14.09375 2.296875 10.5 -0.59375 
Q 8.796875 -1.796875 6.90625 -1.796875 
Q 4.90625 -1.796875 3.40625 -0.5 
Q 1.90625 0.796875 1.90625 2.59375 
Q 1.90625 6.703125 4.90625 7.5 
Q 9.90625 8.796875 12.09375 14.5 
L 20.296875 35.40625 
L 19.703125 35.40625 
Q 15.203125 35.40625 12.796875 34.5 
Q 10.40625 33.59375 7.40625 29.90625 
L 5.796875 29.90625 
Q 10 36.90625 14.546875 39.84375 
Q 19.09375 42.796875 26.5 42.796875 
z
" id="STIXGeneral-Italic-960"/>
      </defs>
      <g transform="translate(190.568125 314.950718)scale(0.28 -0.28)">
       <use transform="translate(0 0.203125)" xlink:href="#STIXGeneral-Italic-960"/>
      </g>
     </g>
    </g>
    <g id="xtick_3">
     <g id="line2d_3">
      <g>
       <use style="stroke:#000000;stroke-width:0.8;" x="295.552308" xlink:href="#mb2192e875a" y="287.908843"/>
      </g>
     </g>
     <g id="text_3">
      <!-- $2 \pi$ -->
      <defs>
       <path d="M 47.40625 13.703125 
L 42 0 
L 2.90625 0 
L 2.90625 1.203125 
L 20.703125 20.09375 
Q 27.703125 27.40625 30.703125 33.5 
Q 33.703125 39.59375 33.703125 46.09375 
Q 33.703125 52.796875 30 56.5 
Q 26.296875 60.203125 19.796875 60.203125 
Q 14.40625 60.203125 11.25 57.390625 
Q 8.09375 54.59375 5.09375 47.203125 
L 3 47.703125 
Q 4.703125 57 9.84375 62.296875 
Q 15 67.59375 23.796875 67.59375 
Q 32.09375 67.59375 37.1875 62.59375 
Q 42.296875 57.59375 42.296875 50 
Q 42.296875 38.703125 29.5 25.203125 
L 13 7.59375 
L 36.40625 7.59375 
Q 39.703125 7.59375 41.640625 8.890625 
Q 43.59375 10.203125 46 14.296875 
z
" id="STIXGeneral-Regular-50"/>
      </defs>
      <g transform="translate(281.412308 314.950718)scale(0.28 -0.28)">
       <use transform="translate(0 0.40625)" xlink:href="#STIXGeneral-Regular-50"/>
       <use transform="translate(49.999985 0.40625)" xlink:href="#STIXGeneral-Italic-960"/>
      </g>
     </g>
    </g>
    <g id="text_4">
     <!-- $\phi_2 - \phi_1 $ -->
     <defs>
      <path d="M 48.09375 68.296875 
L 41.40625 44.09375 
Q 48.40625 44.09375 51.5 42.90625 
Q 59.5 39.796875 59.5 30.296875 
Q 59.5 26.703125 58.25 22.59375 
Q 57 18.5 54.390625 14.296875 
Q 51.796875 10.09375 48.25 6.640625 
Q 44.703125 3.203125 39.640625 1.046875 
Q 34.59375 -1.09375 28.90625 -1.09375 
L 23.5 -20.5 
L 15.703125 -20.5 
L 21.09375 -1.09375 
Q 13.796875 -1.09375 10.40625 0 
Q 2.703125 2.5 2.703125 12.796875 
Q 2.703125 15.90625 4 19.90625 
Q 5.296875 23.90625 7.84375 28.15625 
Q 10.40625 32.40625 13.84375 35.953125 
Q 17.296875 39.5 22.140625 41.796875 
Q 27 44.09375 32.203125 44.09375 
L 33.703125 44.09375 
L 40.40625 68.296875 
z
M 40.796875 42 
L 29.5 1 
Q 33.203125 1 36.40625 2.59375 
Q 42.09375 5.5 46.59375 15.59375 
Q 51.09375 25.703125 51.09375 32.703125 
Q 51.09375 38.5 46.59375 41.296875 
Q 45.40625 42 40.796875 42 
z
M 21.703125 1 
L 33.09375 42 
Q 27.5 42 22.296875 36.953125 
Q 17.09375 31.90625 14.09375 24.5 
Q 11.09375 17.09375 11.09375 10.09375 
Q 11.09375 3.703125 15.90625 1.796875 
Q 18 1 21.703125 1 
z
" id="STIXGeneral-Italic-981"/>
      <path d="M 62.09375 22 
L 6.40625 22 
L 6.40625 28.59375 
L 62.09375 28.59375 
z
" id="STIXGeneral-Regular-8722"/>
      <path d="M 39.40625 0 
L 11.796875 0 
L 11.796875 1.5 
Q 17.296875 1.796875 19.296875 3.546875 
Q 21.296875 5.296875 21.296875 9.5 
L 21.296875 54.40625 
Q 21.296875 59.296875 18.296875 59.296875 
Q 16.90625 59.296875 13.796875 58.09375 
L 11.09375 57.09375 
L 11.09375 58.5 
L 29 67.59375 
L 29.90625 67.296875 
L 29.90625 7.59375 
Q 29.90625 4.296875 31.90625 2.890625 
Q 33.90625 1.5 39.40625 1.5 
z
" id="STIXGeneral-Regular-49"/>
     </defs>
     <g transform="translate(155.428125 344.242593)scale(0.28 -0.28)">
      <use transform="translate(0 0.703125)" xlink:href="#STIXGeneral-Italic-981"/>
      <use transform="translate(62.699997 -12.525)scale(0.7)" xlink:href="#STIXGeneral-Regular-50"/>
      <use transform="translate(116.549358 0.703125)" xlink:href="#STIXGeneral-Regular-8722"/>
      <use transform="translate(199.489339 0.703125)" xlink:href="#STIXGeneral-Italic-981"/>
      <use transform="translate(262.189336 -12.525)scale(0.7)" xlink:href="#STIXGeneral-Regular-49"/>
     </g>
    </g>
   </g>
   <g id="matplotlib.axis_2">
    <g id="ytick_1">
     <g id="line2d_4">
      <defs>
       <path d="M 0 0 
L -3.5 0 
" id="m21f5d4236c" style="stroke:#000000;stroke-width:0.8;"/>
      </defs>
      <g>
       <use style="stroke:#000000;stroke-width:0.8;" x="74.948125" xlink:href="#m21f5d4236c" y="266.553129"/>
      </g>
     </g>
     <g id="text_5">
      <!-- 20 -->
      <defs>
       <path d="M 50.34375 8.453125 
L 50.34375 0 
L 3.03125 0 
Q 2.9375 3.171875 4.046875 6.109375 
Q 5.859375 10.9375 9.828125 15.625 
Q 13.8125 20.3125 21.34375 26.46875 
Q 33.015625 36.03125 37.109375 41.625 
Q 41.21875 47.21875 41.21875 52.203125 
Q 41.21875 57.421875 37.46875 61 
Q 33.734375 64.59375 27.734375 64.59375 
Q 21.390625 64.59375 17.578125 60.78125 
Q 13.765625 56.984375 13.71875 50.25 
L 4.6875 51.171875 
Q 5.609375 61.28125 11.65625 66.578125 
Q 17.71875 71.875 27.9375 71.875 
Q 38.234375 71.875 44.234375 66.15625 
Q 50.25 60.453125 50.25 52 
Q 50.25 47.703125 48.484375 43.546875 
Q 46.734375 39.40625 42.65625 34.8125 
Q 38.578125 30.21875 29.109375 22.21875 
Q 21.1875 15.578125 18.9375 13.203125 
Q 16.703125 10.84375 15.234375 8.453125 
z
" id="ArialMT-50"/>
       <path d="M 4.15625 35.296875 
Q 4.15625 48 6.765625 55.734375 
Q 9.375 63.484375 14.515625 67.671875 
Q 19.671875 71.875 27.484375 71.875 
Q 33.25 71.875 37.59375 69.546875 
Q 41.9375 67.234375 44.765625 62.859375 
Q 47.609375 58.5 49.21875 52.21875 
Q 50.828125 45.953125 50.828125 35.296875 
Q 50.828125 22.703125 48.234375 14.96875 
Q 45.65625 7.234375 40.5 3 
Q 35.359375 -1.21875 27.484375 -1.21875 
Q 17.140625 -1.21875 11.234375 6.203125 
Q 4.15625 15.140625 4.15625 35.296875 
z
M 13.1875 35.296875 
Q 13.1875 17.671875 17.3125 11.828125 
Q 21.4375 6 27.484375 6 
Q 33.546875 6 37.671875 11.859375 
Q 41.796875 17.71875 41.796875 35.296875 
Q 41.796875 52.984375 37.671875 58.78125 
Q 33.546875 64.59375 27.390625 64.59375 
Q 21.34375 64.59375 17.71875 59.46875 
Q 13.1875 52.9375 13.1875 35.296875 
z
" id="ArialMT-48"/>
      </defs>
      <g transform="translate(36.806875 276.574066)scale(0.28 -0.28)">
       <use xlink:href="#ArialMT-50"/>
       <use x="55.615234" xlink:href="#ArialMT-48"/>
      </g>
     </g>
    </g>
    <g id="ytick_2">
     <g id="line2d_5">
      <g>
       <use style="stroke:#000000;stroke-width:0.8;" x="74.948125" xlink:href="#m21f5d4236c" y="159.774557"/>
      </g>
     </g>
     <g id="text_6">
      <!-- 25 -->
      <defs>
       <path d="M 4.15625 18.75 
L 13.375 19.53125 
Q 14.40625 12.796875 18.140625 9.390625 
Q 21.875 6 27.15625 6 
Q 33.5 6 37.890625 10.78125 
Q 42.28125 15.578125 42.28125 23.484375 
Q 42.28125 31 38.0625 35.34375 
Q 33.84375 39.703125 27 39.703125 
Q 22.75 39.703125 19.328125 37.765625 
Q 15.921875 35.84375 13.96875 32.765625 
L 5.71875 33.84375 
L 12.640625 70.609375 
L 48.25 70.609375 
L 48.25 62.203125 
L 19.671875 62.203125 
L 15.828125 42.96875 
Q 22.265625 47.46875 29.34375 47.46875 
Q 38.71875 47.46875 45.15625 40.96875 
Q 51.609375 34.46875 51.609375 24.265625 
Q 51.609375 14.546875 45.953125 7.46875 
Q 39.0625 -1.21875 27.15625 -1.21875 
Q 17.390625 -1.21875 11.203125 4.25 
Q 5.03125 9.71875 4.15625 18.75 
z
" id="ArialMT-53"/>
      </defs>
      <g transform="translate(36.806875 169.795495)scale(0.28 -0.28)">
       <use xlink:href="#ArialMT-50"/>
       <use x="55.615234" xlink:href="#ArialMT-53"/>
      </g>
     </g>
    </g>
    <g id="text_7">
     <!-- $d \phi_{1} / dt $ -->
     <defs>
      <path d="M 52.09375 68.296875 
L 52.703125 67.703125 
L 48.796875 52.5 
L 42.796875 30.59375 
Q 36.296875 6.703125 36.296875 6 
Q 36.296875 4 38.09375 4 
Q 39.40625 4 40.84375 5.25 
Q 42.296875 6.5 46.296875 11.09375 
L 47.5 10.09375 
Q 39.796875 -1.296875 32.796875 -1.296875 
Q 30.90625 -1.296875 29.796875 -0.09375 
Q 28.703125 1.09375 28.703125 3.203125 
Q 28.703125 6.203125 30 12.09375 
Q 25.703125 4.796875 21.546875 1.84375 
Q 17.40625 -1.09375 12.203125 -1.09375 
Q 7.203125 -1.09375 4.34375 1.953125 
Q 1.5 5 1.5 10.59375 
Q 1.5 22.5 11.140625 33.296875 
Q 20.796875 44.09375 30.703125 44.09375 
Q 33.796875 44.09375 35.25 42.6875 
Q 36.703125 41.296875 37.203125 38.296875 
L 37.296875 38.296875 
L 41.796875 54.59375 
Q 43.203125 59.5 43.203125 61.703125 
Q 43.203125 63.296875 42.09375 63.6875 
Q 41 64.09375 36.796875 64.296875 
L 36.796875 66 
Q 44.5 66.703125 52.09375 68.296875 
z
M 35.59375 36.09375 
Q 35.59375 38.703125 34.140625 40.25 
Q 32.703125 41.796875 30.90625 41.796875 
Q 26.203125 41.796875 21.796875 37.203125 
Q 16.796875 31.90625 13.5 24.546875 
Q 10.203125 17.203125 10.203125 11 
Q 10.203125 7.59375 11.75 5.640625 
Q 13.296875 3.703125 16 3.703125 
Q 20.5 3.703125 25.09375 8.59375 
Q 29.703125 13.5 32.640625 21.09375 
Q 35.59375 28.703125 35.59375 36.09375 
z
" id="STIXGeneral-Italic-100"/>
      <path d="M 28.703125 67.59375 
L 5.90625 -1.40625 
L -0.90625 -1.40625 
L 22 67.59375 
z
" id="STIXGeneral-Regular-47"/>
      <path d="M 29.59375 42.796875 
L 29.09375 39.59375 
L 20.703125 39.59375 
L 12 6.796875 
Q 11.796875 6 11.796875 5.40625 
Q 11.796875 3.796875 13.296875 3.796875 
Q 14.5 3.796875 16.09375 5.34375 
Q 17.703125 6.90625 21.40625 11.703125 
L 22.703125 11 
Q 18.09375 4 15.140625 1.453125 
Q 12.203125 -1.09375 8.40625 -1.09375 
Q 3.796875 -1.09375 3.796875 2.59375 
Q 3.796875 3.59375 5.40625 10 
L 13.203125 39.59375 
L 5.703125 39.59375 
L 5.59375 40.203125 
Q 5.59375 42 8.90625 42.703125 
Q 11.40625 43.296875 15.5 46.546875 
Q 19.59375 49.796875 22.203125 53.703125 
Q 22.796875 54.59375 23.59375 54.59375 
Q 24.5 54.59375 24.5 53.796875 
Q 24.5 53.296875 24.40625 53.09375 
L 21.59375 42.796875 
z
" id="STIXGeneral-Italic-116"/>
     </defs>
     <g transform="translate(26.926875 217.250271)rotate(-90)scale(0.28 -0.28)">
      <use transform="translate(0 0.703125)" xlink:href="#STIXGeneral-Italic-100"/>
      <use transform="translate(49.999985 0.703125)" xlink:href="#STIXGeneral-Italic-981"/>
      <use transform="translate(112.699982 -12.525)scale(0.7)" xlink:href="#STIXGeneral-Regular-49"/>
      <use transform="translate(152.109346 0.703125)" xlink:href="#STIXGeneral-Regular-47"/>
      <use transform="translate(179.909334 0.703125)" xlink:href="#STIXGeneral-Italic-100"/>
      <use transform="translate(229.909319 0.703125)" xlink:href="#STIXGeneral-Italic-116"/>
     </g>
    </g>
   </g>
   <g id="line2d_6">
    <path clip-path="url(#p7da26f7516)" d="M 99.863942 115.343381 
L 106.611816 115.343381 
L 113.359691 115.343381 
L 120.107566 115.343381 
L 126.855441 115.343381 
L 133.603315 115.343381 
L 140.35119 115.343381 
L 147.099065 115.343381 
L 153.846939 115.343381 
L 160.594814 115.343381 
L 167.342689 115.343381 
L 174.090564 115.343381 
L 180.838438 115.343381 
L 187.586313 115.343381 
L 194.334188 115.343381 
L 201.082062 115.343381 
L 207.829937 115.343381 
L 214.577812 115.343381 
L 221.325686 115.343381 
L 228.073561 115.343381 
L 234.821436 115.343381 
L 241.569311 115.343381 
L 248.317185 115.343381 
L 255.06506 115.343381 
L 261.812935 115.343381 
L 268.560809 115.343381 
L 275.308684 115.343381 
L 282.056559 115.343381 
L 288.804434 115.343381 
L 295.552308 115.343381 
" style="fill:none;stroke:#000000;stroke-linecap:square;stroke-width:10;"/>
   </g>
   <g id="line2d_7">
    <path clip-path="url(#p7da26f7516)" d="M 99.863942 644.872108 
L 106.611816 648.810559 
L 113.359691 641.698501 
L 120.107566 623.868485 
L 126.855441 596.154223 
L 133.603315 559.851603 
L 140.35119 516.658095 
L 147.099065 468.59338 
L 153.846939 417.90491 
L 160.594814 366.962822 
L 167.342689 318.149112 
L 174.090564 273.746253 
L 180.838438 235.830475 
L 187.586313 206.174677 
L 194.334188 186.165531 
L 201.082062 176.738643 
L 207.829937 178.334803 
L 214.577812 190.879377 
L 221.325686 213.785795 
L 228.073561 245.982977 
L 234.821436 285.965419 
L 241.569311 331.863588 
L 248.317185 381.531335 
L 255.06506 432.646251 
L 261.812935 482.818261 
L 268.560809 529.701376 
L 275.308684 571.103395 
L 282.056559 605.088405 
L 288.804434 630.067304 
L 295.552308 644.872108 
" style="fill:none;stroke:#0000ff;stroke-linecap:square;stroke-width:5;"/>
   </g>
   <g id="patch_3">
    <path d="M 74.948125 287.908843 
L 74.948125 74.3517 
" style="fill:none;stroke:#000000;stroke-linecap:square;stroke-linejoin:miter;stroke-width:0.8;"/>
   </g>
   <g id="patch_4">
    <path d="M 320.468125 287.908843 
L 320.468125 74.3517 
" style="fill:none;stroke:#000000;stroke-linecap:square;stroke-linejoin:miter;stroke-width:0.8;"/>
   </g>
   <g id="patch_5">
    <path d="M 74.948125 287.908843 
L 320.468125 287.908843 
" style="fill:none;stroke:#000000;stroke-linecap:square;stroke-linejoin:miter;stroke-width:0.8;"/>
   </g>
   <g id="patch_6">
    <path d="M 74.948125 74.3517 
L 320.468125 74.3517 
" style="fill:none;stroke:#000000;stroke-linecap:square;stroke-linejoin:miter;stroke-width:0.8;"/>
   </g>
   <g id="text_8">
    <!-- $t= 0.10~s$ -->
    <defs>
     <path d="M 63.703125 32 
L 4.796875 32 
L 4.796875 38.59375 
L 63.703125 38.59375 
z
M 63.703125 12 
L 4.796875 12 
L 4.796875 18.59375 
L 63.703125 18.59375 
z
" id="STIXGeneral-Regular-61"/>
     <path d="M 18.09375 4.296875 
Q 18.09375 2.09375 16.4375 0.5 
Q 14.796875 -1.09375 12.5 -1.09375 
Q 10.203125 -1.09375 8.59375 0.5 
Q 7 2.09375 7 4.390625 
Q 7 6.703125 8.640625 8.34375 
Q 10.296875 10 12.59375 10 
Q 14.796875 10 16.4375 8.296875 
Q 18.09375 6.59375 18.09375 4.296875 
z
" id="STIXGeneral-Regular-46"/>
     <path d="M 36.59375 44.203125 
L 34.59375 30.203125 
L 33 30.203125 
Q 31.59375 41.796875 24.09375 41.796875 
Q 21.40625 41.796875 19.796875 40.296875 
Q 18.203125 38.796875 18.203125 36.09375 
Q 18.203125 32.296875 23.59375 25.90625 
Q 30.40625 18 30.40625 12.296875 
Q 30.40625 6.203125 26.34375 2.546875 
Q 22.296875 -1.09375 16 -1.09375 
Q 13.09375 -1.09375 10.5 -0.09375 
Q 8.40625 0.796875 6.09375 0.796875 
Q 4.09375 0.796875 3.203125 -1.296875 
L 1.59375 -1.296875 
L 3.59375 14.59375 
L 5.203125 14.59375 
Q 7.203125 1 15.203125 1 
Q 18.796875 1 20.796875 3 
Q 22.796875 5 22.796875 8.703125 
Q 22.796875 13.203125 17.203125 20.203125 
Q 10.90625 28.09375 10.90625 33.296875 
Q 10.90625 38.296875 14.203125 41.1875 
Q 17.5 44.09375 23 44.09375 
Q 25 44.09375 28.59375 43.09375 
Q 30.796875 42.40625 32.203125 42.40625 
Q 34.203125 42.40625 35.203125 44.203125 
z
" id="STIXGeneral-Italic-115"/>
    </defs>
    <g transform="translate(136.556125 31.25025)scale(0.336 -0.336)">
     <use transform="translate(0 0.40625)" xlink:href="#STIXGeneral-Italic-116"/>
     <use transform="translate(42.239984 0.40625)" xlink:href="#STIXGeneral-Regular-61"/>
     <use transform="translate(125.179965 0.40625)" xlink:href="#STIXGeneral-Regular-48"/>
     <use transform="translate(175.17995 0.40625)" xlink:href="#STIXGeneral-Regular-46"/>
     <use transform="translate(200.179935 0.40625)" xlink:href="#STIXGeneral-Regular-49"/>
     <use transform="translate(250.179919 0.40625)" xlink:href="#STIXGeneral-Regular-48"/>
     <use transform="translate(324.246324 0.40625)" xlink:href="#STIXGeneral-Italic-115"/>
    </g>
    <!-- (# Iteration:10) -->
    <defs>
     <path d="M 23.390625 -21.046875 
Q 16.109375 -11.859375 11.078125 0.4375 
Q 6.0625 12.75 6.0625 25.921875 
Q 6.0625 37.546875 9.8125 48.1875 
Q 14.203125 60.546875 23.390625 72.796875 
L 29.6875 72.796875 
Q 23.78125 62.640625 21.875 58.296875 
Q 18.890625 51.5625 17.1875 44.234375 
Q 15.09375 35.109375 15.09375 25.875 
Q 15.09375 2.390625 29.6875 -21.046875 
z
" id="ArialMT-40"/>
     <path d="M 5.03125 -1.21875 
L 9.28125 19.578125 
L 1.03125 19.578125 
L 1.03125 26.859375 
L 10.75 26.859375 
L 14.359375 44.578125 
L 1.03125 44.578125 
L 1.03125 51.859375 
L 15.828125 51.859375 
L 20.0625 72.796875 
L 27.390625 72.796875 
L 23.140625 51.859375 
L 38.53125 51.859375 
L 42.78125 72.796875 
L 50.140625 72.796875 
L 45.90625 51.859375 
L 54.34375 51.859375 
L 54.34375 44.578125 
L 44.4375 44.578125 
L 40.765625 26.859375 
L 54.34375 26.859375 
L 54.34375 19.578125 
L 39.3125 19.578125 
L 35.0625 -1.21875 
L 27.734375 -1.21875 
L 31.9375 19.578125 
L 16.609375 19.578125 
L 12.359375 -1.21875 
z
M 18.0625 26.859375 
L 33.40625 26.859375 
L 37.0625 44.578125 
L 21.6875 44.578125 
z
" id="ArialMT-35"/>
     <path id="ArialMT-32"/>
     <path d="M 9.328125 0 
L 9.328125 71.578125 
L 18.796875 71.578125 
L 18.796875 0 
z
" id="ArialMT-73"/>
     <path d="M 25.78125 7.859375 
L 27.046875 0.09375 
Q 23.34375 -0.6875 20.40625 -0.6875 
Q 15.625 -0.6875 12.984375 0.828125 
Q 10.359375 2.34375 9.28125 4.8125 
Q 8.203125 7.28125 8.203125 15.1875 
L 8.203125 45.015625 
L 1.765625 45.015625 
L 1.765625 51.859375 
L 8.203125 51.859375 
L 8.203125 64.703125 
L 16.9375 69.96875 
L 16.9375 51.859375 
L 25.78125 51.859375 
L 25.78125 45.015625 
L 16.9375 45.015625 
L 16.9375 14.703125 
Q 16.9375 10.9375 17.40625 9.859375 
Q 17.875 8.796875 18.921875 8.15625 
Q 19.96875 7.515625 21.921875 7.515625 
Q 23.390625 7.515625 25.78125 7.859375 
z
" id="ArialMT-116"/>
     <path d="M 42.09375 16.703125 
L 51.171875 15.578125 
Q 49.03125 7.625 43.21875 3.21875 
Q 37.40625 -1.171875 28.375 -1.171875 
Q 17 -1.171875 10.328125 5.828125 
Q 3.65625 12.84375 3.65625 25.484375 
Q 3.65625 38.578125 10.390625 45.796875 
Q 17.140625 53.03125 27.875 53.03125 
Q 38.28125 53.03125 44.875 45.953125 
Q 51.46875 38.875 51.46875 26.03125 
Q 51.46875 25.25 51.421875 23.6875 
L 12.75 23.6875 
Q 13.234375 15.140625 17.578125 10.59375 
Q 21.921875 6.0625 28.421875 6.0625 
Q 33.25 6.0625 36.671875 8.59375 
Q 40.09375 11.140625 42.09375 16.703125 
z
M 13.234375 30.90625 
L 42.1875 30.90625 
Q 41.609375 37.453125 38.875 40.71875 
Q 34.671875 45.796875 27.984375 45.796875 
Q 21.921875 45.796875 17.796875 41.75 
Q 13.671875 37.703125 13.234375 30.90625 
z
" id="ArialMT-101"/>
     <path d="M 6.5 0 
L 6.5 51.859375 
L 14.40625 51.859375 
L 14.40625 44 
Q 17.4375 49.515625 20 51.265625 
Q 22.5625 53.03125 25.640625 53.03125 
Q 30.078125 53.03125 34.671875 50.203125 
L 31.640625 42.046875 
Q 28.421875 43.953125 25.203125 43.953125 
Q 22.3125 43.953125 20.015625 42.21875 
Q 17.71875 40.484375 16.75 37.40625 
Q 15.28125 32.71875 15.28125 27.15625 
L 15.28125 0 
z
" id="ArialMT-114"/>
     <path d="M 40.4375 6.390625 
Q 35.546875 2.25 31.03125 0.53125 
Q 26.515625 -1.171875 21.34375 -1.171875 
Q 12.796875 -1.171875 8.203125 3 
Q 3.609375 7.171875 3.609375 13.671875 
Q 3.609375 17.484375 5.34375 20.625 
Q 7.078125 23.78125 9.890625 25.6875 
Q 12.703125 27.59375 16.21875 28.5625 
Q 18.796875 29.25 24.03125 29.890625 
Q 34.671875 31.15625 39.703125 32.90625 
Q 39.75 34.71875 39.75 35.203125 
Q 39.75 40.578125 37.25 42.78125 
Q 33.890625 45.75 27.25 45.75 
Q 21.046875 45.75 18.09375 43.578125 
Q 15.140625 41.40625 13.71875 35.890625 
L 5.125 37.0625 
Q 6.296875 42.578125 8.984375 45.96875 
Q 11.671875 49.359375 16.75 51.1875 
Q 21.828125 53.03125 28.515625 53.03125 
Q 35.15625 53.03125 39.296875 51.46875 
Q 43.453125 49.90625 45.40625 47.53125 
Q 47.359375 45.171875 48.140625 41.546875 
Q 48.578125 39.3125 48.578125 33.453125 
L 48.578125 21.734375 
Q 48.578125 9.46875 49.140625 6.21875 
Q 49.703125 2.984375 51.375 0 
L 42.1875 0 
Q 40.828125 2.734375 40.4375 6.390625 
z
M 39.703125 26.03125 
Q 34.90625 24.078125 25.34375 22.703125 
Q 19.921875 21.921875 17.671875 20.9375 
Q 15.4375 19.96875 14.203125 18.09375 
Q 12.984375 16.21875 12.984375 13.921875 
Q 12.984375 10.40625 15.640625 8.0625 
Q 18.3125 5.71875 23.4375 5.71875 
Q 28.515625 5.71875 32.46875 7.9375 
Q 36.421875 10.15625 38.28125 14.015625 
Q 39.703125 17 39.703125 22.796875 
z
" id="ArialMT-97"/>
     <path d="M 6.640625 61.46875 
L 6.640625 71.578125 
L 15.4375 71.578125 
L 15.4375 61.46875 
z
M 6.640625 0 
L 6.640625 51.859375 
L 15.4375 51.859375 
L 15.4375 0 
z
" id="ArialMT-105"/>
     <path d="M 3.328125 25.921875 
Q 3.328125 40.328125 11.328125 47.265625 
Q 18.015625 53.03125 27.640625 53.03125 
Q 38.328125 53.03125 45.109375 46.015625 
Q 51.90625 39.015625 51.90625 26.65625 
Q 51.90625 16.65625 48.90625 10.90625 
Q 45.90625 5.171875 40.15625 2 
Q 34.421875 -1.171875 27.640625 -1.171875 
Q 16.75 -1.171875 10.03125 5.8125 
Q 3.328125 12.796875 3.328125 25.921875 
z
M 12.359375 25.921875 
Q 12.359375 15.96875 16.703125 11.015625 
Q 21.046875 6.0625 27.640625 6.0625 
Q 34.1875 6.0625 38.53125 11.03125 
Q 42.875 16.015625 42.875 26.21875 
Q 42.875 35.84375 38.5 40.796875 
Q 34.125 45.75 27.640625 45.75 
Q 21.046875 45.75 16.703125 40.8125 
Q 12.359375 35.890625 12.359375 25.921875 
z
" id="ArialMT-111"/>
     <path d="M 6.59375 0 
L 6.59375 51.859375 
L 14.5 51.859375 
L 14.5 44.484375 
Q 20.21875 53.03125 31 53.03125 
Q 35.6875 53.03125 39.625 51.34375 
Q 43.5625 49.65625 45.515625 46.921875 
Q 47.46875 44.1875 48.25 40.4375 
Q 48.734375 37.984375 48.734375 31.890625 
L 48.734375 0 
L 39.9375 0 
L 39.9375 31.546875 
Q 39.9375 36.921875 38.90625 39.578125 
Q 37.890625 42.234375 35.28125 43.8125 
Q 32.671875 45.40625 29.15625 45.40625 
Q 23.53125 45.40625 19.453125 41.84375 
Q 15.375 38.28125 15.375 28.328125 
L 15.375 0 
z
" id="ArialMT-110"/>
     <path d="M 9.03125 41.84375 
L 9.03125 51.859375 
L 19.046875 51.859375 
L 19.046875 41.84375 
z
M 9.03125 0 
L 9.03125 10.015625 
L 19.046875 10.015625 
L 19.046875 0 
z
" id="ArialMT-58"/>
     <path d="M 37.25 0 
L 28.46875 0 
L 28.46875 56 
Q 25.296875 52.984375 20.140625 49.953125 
Q 14.984375 46.921875 10.890625 45.40625 
L 10.890625 53.90625 
Q 18.265625 57.375 23.78125 62.296875 
Q 29.296875 67.234375 31.59375 71.875 
L 37.25 71.875 
z
" id="ArialMT-49"/>
     <path d="M 12.359375 -21.046875 
L 6.0625 -21.046875 
Q 20.65625 2.390625 20.65625 25.875 
Q 20.65625 35.0625 18.5625 44.09375 
Q 16.890625 51.421875 13.921875 58.15625 
Q 12.015625 62.546875 6.0625 72.796875 
L 12.359375 72.796875 
Q 21.53125 60.546875 25.921875 48.1875 
Q 29.6875 37.546875 29.6875 25.921875 
Q 29.6875 12.75 24.625 0.4375 
Q 19.578125 -11.859375 12.359375 -21.046875 
z
" id="ArialMT-41"/>
    </defs>
    <g transform="translate(88.460875 67.27995)scale(0.336 -0.336)">
     <use xlink:href="#ArialMT-40"/>
     <use x="33.300781" xlink:href="#ArialMT-35"/>
     <use x="88.916016" xlink:href="#ArialMT-32"/>
     <use x="116.699219" xlink:href="#ArialMT-73"/>
     <use x="144.482422" xlink:href="#ArialMT-116"/>
     <use x="172.265625" xlink:href="#ArialMT-101"/>
     <use x="227.880859" xlink:href="#ArialMT-114"/>
     <use x="261.181641" xlink:href="#ArialMT-97"/>
     <use x="316.796875" xlink:href="#ArialMT-116"/>
     <use x="344.580078" xlink:href="#ArialMT-105"/>
     <use x="366.796875" xlink:href="#ArialMT-111"/>
     <use x="422.412109" xlink:href="#ArialMT-110"/>
     <use x="478.027344" xlink:href="#ArialMT-58"/>
     <use x="505.810547" xlink:href="#ArialMT-49"/>
     <use x="561.425781" xlink:href="#ArialMT-48"/>
     <use x="617.041016" xlink:href="#ArialMT-41"/>
    </g>
   </g>
  </g>
  <g id="axes_2">
   <g id="patch_7">
    <path d="M 74.948125 672.3117 
L 320.468125 672.3117 
L 320.468125 458.754557 
L 74.948125 458.754557 
z
" style="fill:#ffffff;"/>
   </g>
   <g id="matplotlib.axis_3">
    <g id="xtick_4">
     <g id="line2d_8">
      <g>
       <use style="stroke:#000000;stroke-width:0.8;" x="99.863942" xlink:href="#mb2192e875a" y="672.3117"/>
      </g>
     </g>
     <g id="text_9">
      <!-- $0$ -->
      <g transform="translate(92.863942 699.353575)scale(0.28 -0.28)">
       <use transform="translate(0 0.40625)" xlink:href="#STIXGeneral-Regular-48"/>
      </g>
     </g>
    </g>
    <g id="xtick_5">
     <g id="line2d_9">
      <g>
       <use style="stroke:#000000;stroke-width:0.8;" x="197.708125" xlink:href="#mb2192e875a" y="672.3117"/>
      </g>
     </g>
     <g id="text_10">
      <!-- $\pi$ -->
      <g transform="translate(190.568125 699.353575)scale(0.28 -0.28)">
       <use transform="translate(0 0.203125)" xlink:href="#STIXGeneral-Italic-960"/>
      </g>
     </g>
    </g>
    <g id="xtick_6">
     <g id="line2d_10">
      <g>
       <use style="stroke:#000000;stroke-width:0.8;" x="295.552308" xlink:href="#mb2192e875a" y="672.3117"/>
      </g>
     </g>
     <g id="text_11">
      <!-- $2 \pi$ -->
      <g transform="translate(281.412308 699.353575)scale(0.28 -0.28)">
       <use transform="translate(0 0.40625)" xlink:href="#STIXGeneral-Regular-50"/>
       <use transform="translate(49.999985 0.40625)" xlink:href="#STIXGeneral-Italic-960"/>
      </g>
     </g>
    </g>
    <g id="text_12">
     <!-- $\phi_3 - \phi_1 $ -->
     <defs>
      <path d="M 6.09375 51 
L 4.5 51.40625 
Q 6.796875 58.90625 11.6875 63.25 
Q 16.59375 67.59375 24.09375 67.59375 
Q 31.09375 67.59375 35.390625 63.796875 
Q 39.703125 60 39.703125 53.90625 
Q 39.703125 45.703125 30.40625 40.09375 
Q 35.90625 37.703125 38.703125 34.796875 
Q 43.09375 29.90625 43.09375 21.90625 
Q 43.09375 13.90625 38.5 7.90625 
Q 35.09375 3.296875 28.75 0.9375 
Q 22.40625 -1.40625 15.296875 -1.40625 
Q 4.09375 -1.40625 4.09375 4.296875 
Q 4.09375 5.90625 5.296875 6.90625 
Q 6.5 7.90625 8.203125 7.90625 
Q 10.703125 7.90625 14.296875 5.296875 
Q 18.703125 2.203125 22.90625 2.203125 
Q 28.40625 2.203125 32.15625 6.640625 
Q 35.90625 11.09375 35.90625 17.5 
Q 35.90625 29 25.5 32 
Q 22.40625 33 15.296875 33 
L 15.296875 34.40625 
Q 20.90625 36.296875 23.703125 38 
Q 31.796875 42.59375 31.796875 51.40625 
Q 31.796875 56.40625 28.9375 59 
Q 26.09375 61.59375 21 61.59375 
Q 12 61.59375 6.09375 51 
z
" id="STIXGeneral-Regular-51"/>
     </defs>
     <g transform="translate(155.428125 728.64545)scale(0.28 -0.28)">
      <use transform="translate(0 0.703125)" xlink:href="#STIXGeneral-Italic-981"/>
      <use transform="translate(62.699997 -12.525)scale(0.7)" xlink:href="#STIXGeneral-Regular-51"/>
      <use transform="translate(116.549358 0.703125)" xlink:href="#STIXGeneral-Regular-8722"/>
      <use transform="translate(199.489339 0.703125)" xlink:href="#STIXGeneral-Italic-981"/>
      <use transform="translate(262.189336 -12.525)scale(0.7)" xlink:href="#STIXGeneral-Regular-49"/>
     </g>
    </g>
   </g>
   <g id="matplotlib.axis_4">
    <g id="ytick_3">
     <g id="line2d_11">
      <g>
       <use style="stroke:#000000;stroke-width:0.8;" x="74.948125" xlink:href="#m21f5d4236c" y="650.955986"/>
      </g>
     </g>
     <g id="text_13">
      <!-- 20 -->
      <g transform="translate(36.806875 660.976923)scale(0.28 -0.28)">
       <use xlink:href="#ArialMT-50"/>
       <use x="55.615234" xlink:href="#ArialMT-48"/>
      </g>
     </g>
    </g>
    <g id="ytick_4">
     <g id="line2d_12">
      <g>
       <use style="stroke:#000000;stroke-width:0.8;" x="74.948125" xlink:href="#m21f5d4236c" y="544.177414"/>
      </g>
     </g>
     <g id="text_14">
      <!-- 25 -->
      <g transform="translate(36.806875 554.198352)scale(0.28 -0.28)">
       <use xlink:href="#ArialMT-50"/>
       <use x="55.615234" xlink:href="#ArialMT-53"/>
      </g>
     </g>
    </g>
    <g id="text_15">
     <!-- $d \phi_{1} / dt $ -->
     <g transform="translate(26.926875 601.653129)rotate(-90)scale(0.28 -0.28)">
      <use transform="translate(0 0.703125)" xlink:href="#STIXGeneral-Italic-100"/>
      <use transform="translate(49.999985 0.703125)" xlink:href="#STIXGeneral-Italic-981"/>
      <use transform="translate(112.699982 -12.525)scale(0.7)" xlink:href="#STIXGeneral-Regular-49"/>
      <use transform="translate(152.109346 0.703125)" xlink:href="#STIXGeneral-Regular-47"/>
      <use transform="translate(179.909334 0.703125)" xlink:href="#STIXGeneral-Italic-100"/>
      <use transform="translate(229.909319 0.703125)" xlink:href="#STIXGeneral-Italic-116"/>
     </g>
    </g>
   </g>
   <g id="line2d_13">
    <path clip-path="url(#p094e0d53d3)" d="M 99.863942 491.203953 
L 106.611816 489.567328 
L 113.359691 488.406657 
L 120.107566 487.776213 
L 126.855441 487.705474 
L 133.603315 488.197747 
L 140.35119 489.230016 
L 147.099065 490.754011 
L 153.846939 492.698472 
L 160.594814 494.97248 
L 167.342689 497.469703 
L 174.090564 500.073374 
L 180.838438 502.661749 
L 187.586313 505.113798 
L 194.334188 507.314865 
L 201.082062 509.162032 
L 207.829937 510.568927 
L 214.577812 511.469766 
L 221.325686 511.822425 
L 228.073561 511.610415 
L 234.821436 510.843649 
L 241.569311 509.557981 
L 248.317185 507.813526 
L 255.06506 505.691854 
L 261.812935 503.292172 
L 268.560809 500.726686 
L 275.308684 498.115355 
L 282.056559 495.580282 
L 288.804434 493.240005 
L 295.552308 491.203953 
" style="fill:none;stroke:#000000;stroke-linecap:square;stroke-width:10;"/>
   </g>
   <g id="line2d_14">
    <path clip-path="url(#p094e0d53d3)" d="M 245.933373 742.72545 
L 248.317185 738.76978 
L 255.06506 730.289783 
L 261.812935 724.923649 
L 268.560809 722.922292 
L 275.308684 724.379294 
L 282.056559 729.226526 
L 288.804434 737.237337 
L 292.233483 742.72545 
" style="fill:none;stroke:#0000ff;stroke-linecap:square;stroke-width:5;"/>
   </g>
   <g id="patch_8">
    <path d="M 74.948125 672.3117 
L 74.948125 458.754557 
" style="fill:none;stroke:#000000;stroke-linecap:square;stroke-linejoin:miter;stroke-width:0.8;"/>
   </g>
   <g id="patch_9">
    <path d="M 320.468125 672.3117 
L 320.468125 458.754557 
" style="fill:none;stroke:#000000;stroke-linecap:square;stroke-linejoin:miter;stroke-width:0.8;"/>
   </g>
   <g id="patch_10">
    <path d="M 74.948125 672.3117 
L 320.468125 672.3117 
" style="fill:none;stroke:#000000;stroke-linecap:square;stroke-linejoin:miter;stroke-width:0.8;"/>
   </g>
   <g id="patch_11">
    <path d="M 74.948125 458.754557 
L 320.468125 458.754557 
" style="fill:none;stroke:#000000;stroke-linecap:square;stroke-linejoin:miter;stroke-width:0.8;"/>
   </g>
   <g id="text_16">
    <!-- $t= 0.10~s$ -->
    <g transform="translate(136.556125 415.653107)scale(0.336 -0.336)">
     <use transform="translate(0 0.40625)" xlink:href="#STIXGeneral-Italic-116"/>
     <use transform="translate(42.239984 0.40625)" xlink:href="#STIXGeneral-Regular-61"/>
     <use transform="translate(125.179965 0.40625)" xlink:href="#STIXGeneral-Regular-48"/>
     <use transform="translate(175.17995 0.40625)" xlink:href="#STIXGeneral-Regular-46"/>
     <use transform="translate(200.179935 0.40625)" xlink:href="#STIXGeneral-Regular-49"/>
     <use transform="translate(250.179919 0.40625)" xlink:href="#STIXGeneral-Regular-48"/>
     <use transform="translate(324.246324 0.40625)" xlink:href="#STIXGeneral-Italic-115"/>
    </g>
    <!-- (# Iteration:10) -->
    <g transform="translate(88.460875 451.682807)scale(0.336 -0.336)">
     <use xlink:href="#ArialMT-40"/>
     <use x="33.300781" xlink:href="#ArialMT-35"/>
     <use x="88.916016" xlink:href="#ArialMT-32"/>
     <use x="116.699219" xlink:href="#ArialMT-73"/>
     <use x="144.482422" xlink:href="#ArialMT-116"/>
     <use x="172.265625" xlink:href="#ArialMT-101"/>
     <use x="227.880859" xlink:href="#ArialMT-114"/>
     <use x="261.181641" xlink:href="#ArialMT-97"/>
     <use x="316.796875" xlink:href="#ArialMT-116"/>
     <use x="344.580078" xlink:href="#ArialMT-105"/>
     <use x="366.796875" xlink:href="#ArialMT-111"/>
     <use x="422.412109" xlink:href="#ArialMT-110"/>
     <use x="478.027344" xlink:href="#ArialMT-58"/>
     <use x="505.810547" xlink:href="#ArialMT-49"/>
     <use x="561.425781" xlink:href="#ArialMT-48"/>
     <use x="617.041016" xlink:href="#ArialMT-41"/>
    </g>
   </g>
  </g>
  <g id="axes_3">
   <g id="patch_12">
    <path d="M 320.468125 287.908843 
L 565.988125 287.908843 
L 565.988125 74.3517 
L 320.468125 74.3517 
z
" style="fill:#ffffff;"/>
   </g>
   <g id="matplotlib.axis_5">
    <g id="xtick_7">
     <g id="line2d_15">
      <g>
       <use style="stroke:#000000;stroke-width:0.8;" x="345.383942" xlink:href="#mb2192e875a" y="287.908843"/>
      </g>
     </g>
     <g id="text_17">
      <!-- $0$ -->
      <g transform="translate(338.383942 314.950718)scale(0.28 -0.28)">
       <use transform="translate(0 0.40625)" xlink:href="#STIXGeneral-Regular-48"/>
      </g>
     </g>
    </g>
    <g id="xtick_8">
     <g id="line2d_16">
      <g>
       <use style="stroke:#000000;stroke-width:0.8;" x="443.228125" xlink:href="#mb2192e875a" y="287.908843"/>
      </g>
     </g>
     <g id="text_18">
      <!-- $\pi$ -->
      <g transform="translate(436.088125 314.950718)scale(0.28 -0.28)">
       <use transform="translate(0 0.203125)" xlink:href="#STIXGeneral-Italic-960"/>
      </g>
     </g>
    </g>
    <g id="xtick_9">
     <g id="line2d_17">
      <g>
       <use style="stroke:#000000;stroke-width:0.8;" x="541.072308" xlink:href="#mb2192e875a" y="287.908843"/>
      </g>
     </g>
     <g id="text_19">
      <!-- $2 \pi$ -->
      <g transform="translate(526.932308 314.950718)scale(0.28 -0.28)">
       <use transform="translate(0 0.40625)" xlink:href="#STIXGeneral-Regular-50"/>
       <use transform="translate(49.999985 0.40625)" xlink:href="#STIXGeneral-Italic-960"/>
      </g>
     </g>
    </g>
    <g id="text_20">
     <!-- $\phi_2 - \phi_1 $ -->
     <g transform="translate(400.948125 344.242593)scale(0.28 -0.28)">
      <use transform="translate(0 0.703125)" xlink:href="#STIXGeneral-Italic-981"/>
      <use transform="translate(62.699997 -12.525)scale(0.7)" xlink:href="#STIXGeneral-Regular-50"/>
      <use transform="translate(116.549358 0.703125)" xlink:href="#STIXGeneral-Regular-8722"/>
      <use transform="translate(199.489339 0.703125)" xlink:href="#STIXGeneral-Italic-981"/>
      <use transform="translate(262.189336 -12.525)scale(0.7)" xlink:href="#STIXGeneral-Regular-49"/>
     </g>
    </g>
   </g>
   <g id="matplotlib.axis_6"/>
   <g id="line2d_18">
    <path clip-path="url(#p104b25d5cd)" d="M 345.383942 115.343381 
L 352.131816 115.343381 
L 358.879691 115.343381 
L 365.627566 115.343381 
L 372.375441 115.343381 
L 379.123315 115.343381 
L 385.87119 115.343381 
L 392.619065 115.343381 
L 399.366939 115.343381 
L 406.114814 115.343381 
L 412.862689 115.343381 
L 419.610564 115.343381 
L 426.358438 115.343381 
L 433.106313 115.343381 
L 439.854188 115.343381 
L 446.602062 115.343381 
L 453.349937 115.343381 
L 460.097812 115.343381 
L 466.845686 115.343381 
L 473.593561 115.343381 
L 480.341436 115.343381 
L 487.089311 115.343381 
L 493.837185 115.343381 
L 500.58506 115.343381 
L 507.332935 115.343381 
L 514.080809 115.343381 
L 520.828684 115.343381 
L 527.576559 115.343381 
L 534.324434 115.343381 
L 541.072308 115.343381 
" style="fill:none;stroke:#000000;stroke-linecap:square;stroke-width:10;"/>
   </g>
   <g id="line2d_19">
    <path clip-path="url(#p104b25d5cd)" d="M 345.383942 495.47407 
L 352.131816 498.464911 
L 358.879691 492.357233 
L 365.627566 477.436625 
L 372.375441 454.400756 
L 379.123315 424.326759 
L 385.87119 388.62086 
L 392.619065 348.952628 
L 399.366939 307.176905 
L 406.114814 265.247078 
L 412.862689 225.123738 
L 419.610564 188.683008 
L 426.358438 157.628816 
L 433.106313 133.413223 
L 439.854188 117.168521 
L 446.602062 109.654296 
L 453.349937 111.221903 
L 460.097812 121.798045 
L 466.845686 140.888191 
L 473.593561 167.599708 
L 480.341436 200.683594 
L 487.089311 238.592886 
L 493.837185 279.554985 
L 500.58506 321.654549 
L 507.332935 362.923051 
L 514.080809 401.43082 
L 520.828684 435.377276 
L 527.576559 463.175121 
L 534.324434 483.524558 
L 541.072308 495.47407 
" style="fill:none;stroke:#0000ff;stroke-linecap:square;stroke-width:5;"/>
   </g>
   <g id="patch_13">
    <path d="M 320.468125 287.908843 
L 320.468125 74.3517 
" style="fill:none;stroke:#000000;stroke-linecap:square;stroke-linejoin:miter;stroke-width:0.8;"/>
   </g>
   <g id="patch_14">
    <path d="M 565.988125 287.908843 
L 565.988125 74.3517 
" style="fill:none;stroke:#000000;stroke-linecap:square;stroke-linejoin:miter;stroke-width:0.8;"/>
   </g>
   <g id="patch_15">
    <path d="M 320.468125 287.908843 
L 565.988125 287.908843 
" style="fill:none;stroke:#000000;stroke-linecap:square;stroke-linejoin:miter;stroke-width:0.8;"/>
   </g>
   <g id="patch_16">
    <path d="M 320.468125 74.3517 
L 565.988125 74.3517 
" style="fill:none;stroke:#000000;stroke-linecap:square;stroke-linejoin:miter;stroke-width:0.8;"/>
   </g>
   <g id="text_21">
    <!-- $t= 0.50~s$ -->
    <defs>
     <path d="M 43.796875 68.09375 
L 40.203125 59.59375 
Q 39.59375 58.296875 37.5 58.296875 
L 18.09375 58.296875 
L 14.09375 49.796875 
Q 25.09375 47.703125 30 45.25 
Q 34.90625 42.796875 39.09375 37 
Q 42.59375 32.203125 42.59375 24.296875 
Q 42.59375 17.09375 40.25 12.1875 
Q 37.90625 7.296875 32.796875 3.5 
Q 26 -1.40625 15.796875 -1.40625 
Q 10.09375 -1.40625 6.59375 0.296875 
Q 3.09375 2 3.09375 4.796875 
Q 3.09375 8.59375 7.59375 8.59375 
Q 11.203125 8.59375 15 5.5 
Q 18.90625 2.296875 22.09375 2.296875 
Q 27.296875 2.296875 31.4375 7.5 
Q 35.59375 12.703125 35.59375 19.203125 
Q 35.59375 28.796875 28.90625 34.203125 
Q 20.203125 41.203125 7.59375 41.203125 
Q 6.40625 41.203125 6.40625 42 
L 6.5 42.5 
L 17.40625 66.203125 
L 38.09375 66.203125 
Q 39.796875 66.203125 40.75 66.703125 
Q 41.703125 67.203125 42.90625 68.796875 
z
" id="STIXGeneral-Regular-53"/>
    </defs>
    <g transform="translate(382.076125 31.25025)scale(0.336 -0.336)">
     <use transform="translate(0 0.203125)" xlink:href="#STIXGeneral-Italic-116"/>
     <use transform="translate(42.239984 0.203125)" xlink:href="#STIXGeneral-Regular-61"/>
     <use transform="translate(125.179965 0.203125)" xlink:href="#STIXGeneral-Regular-48"/>
     <use transform="translate(175.17995 0.203125)" xlink:href="#STIXGeneral-Regular-46"/>
     <use transform="translate(200.179935 0.203125)" xlink:href="#STIXGeneral-Regular-53"/>
     <use transform="translate(250.179919 0.203125)" xlink:href="#STIXGeneral-Regular-48"/>
     <use transform="translate(324.246324 0.203125)" xlink:href="#STIXGeneral-Italic-115"/>
    </g>
    <!-- (# Iteration:50) -->
    <g transform="translate(333.980875 67.27995)scale(0.336 -0.336)">
     <use xlink:href="#ArialMT-40"/>
     <use x="33.300781" xlink:href="#ArialMT-35"/>
     <use x="88.916016" xlink:href="#ArialMT-32"/>
     <use x="116.699219" xlink:href="#ArialMT-73"/>
     <use x="144.482422" xlink:href="#ArialMT-116"/>
     <use x="172.265625" xlink:href="#ArialMT-101"/>
     <use x="227.880859" xlink:href="#ArialMT-114"/>
     <use x="261.181641" xlink:href="#ArialMT-97"/>
     <use x="316.796875" xlink:href="#ArialMT-116"/>
     <use x="344.580078" xlink:href="#ArialMT-105"/>
     <use x="366.796875" xlink:href="#ArialMT-111"/>
     <use x="422.412109" xlink:href="#ArialMT-110"/>
     <use x="478.027344" xlink:href="#ArialMT-58"/>
     <use x="505.810547" xlink:href="#ArialMT-53"/>
     <use x="561.425781" xlink:href="#ArialMT-48"/>
     <use x="617.041016" xlink:href="#ArialMT-41"/>
    </g>
   </g>
  </g>
  <g id="axes_4">
   <g id="patch_17">
    <path d="M 320.468125 672.3117 
L 565.988125 672.3117 
L 565.988125 458.754557 
L 320.468125 458.754557 
z
" style="fill:#ffffff;"/>
   </g>
   <g id="matplotlib.axis_7">
    <g id="xtick_10">
     <g id="line2d_20">
      <g>
       <use style="stroke:#000000;stroke-width:0.8;" x="345.383942" xlink:href="#mb2192e875a" y="672.3117"/>
      </g>
     </g>
     <g id="text_22">
      <!-- $0$ -->
      <g transform="translate(338.383942 699.353575)scale(0.28 -0.28)">
       <use transform="translate(0 0.40625)" xlink:href="#STIXGeneral-Regular-48"/>
      </g>
     </g>
    </g>
    <g id="xtick_11">
     <g id="line2d_21">
      <g>
       <use style="stroke:#000000;stroke-width:0.8;" x="443.228125" xlink:href="#mb2192e875a" y="672.3117"/>
      </g>
     </g>
     <g id="text_23">
      <!-- $\pi$ -->
      <g transform="translate(436.088125 699.353575)scale(0.28 -0.28)">
       <use transform="translate(0 0.203125)" xlink:href="#STIXGeneral-Italic-960"/>
      </g>
     </g>
    </g>
    <g id="xtick_12">
     <g id="line2d_22">
      <g>
       <use style="stroke:#000000;stroke-width:0.8;" x="541.072308" xlink:href="#mb2192e875a" y="672.3117"/>
      </g>
     </g>
     <g id="text_24">
      <!-- $2 \pi$ -->
      <g transform="translate(526.932308 699.353575)scale(0.28 -0.28)">
       <use transform="translate(0 0.40625)" xlink:href="#STIXGeneral-Regular-50"/>
       <use transform="translate(49.999985 0.40625)" xlink:href="#STIXGeneral-Italic-960"/>
      </g>
     </g>
    </g>
    <g id="text_25">
     <!-- $\phi_3 - \phi_1 $ -->
     <g transform="translate(400.948125 728.64545)scale(0.28 -0.28)">
      <use transform="translate(0 0.703125)" xlink:href="#STIXGeneral-Italic-981"/>
      <use transform="translate(62.699997 -12.525)scale(0.7)" xlink:href="#STIXGeneral-Regular-51"/>
      <use transform="translate(116.549358 0.703125)" xlink:href="#STIXGeneral-Regular-8722"/>
      <use transform="translate(199.489339 0.703125)" xlink:href="#STIXGeneral-Italic-981"/>
      <use transform="translate(262.189336 -12.525)scale(0.7)" xlink:href="#STIXGeneral-Regular-49"/>
     </g>
    </g>
   </g>
   <g id="matplotlib.axis_8"/>
   <g id="line2d_23">
    <path clip-path="url(#pdd84941583)" d="M 345.383942 491.203953 
L 352.131816 489.567328 
L 358.879691 488.406657 
L 365.627566 487.776213 
L 372.375441 487.705474 
L 379.123315 488.197747 
L 385.87119 489.230016 
L 392.619065 490.754011 
L 399.366939 492.698472 
L 406.114814 494.97248 
L 412.862689 497.469703 
L 419.610564 500.073374 
L 426.358438 502.661749 
L 433.106313 505.113798 
L 439.854188 507.314865 
L 446.602062 509.162032 
L 453.349937 510.568927 
L 460.097812 511.469766 
L 466.845686 511.822425 
L 473.593561 511.610415 
L 480.341436 510.843649 
L 487.089311 509.557981 
L 493.837185 507.813526 
L 500.58506 505.691854 
L 507.332935 503.292172 
L 514.080809 500.726686 
L 520.828684 498.115355 
L 527.576559 495.580282 
L 534.324434 493.240005 
L 541.072308 491.203953 
" style="fill:none;stroke:#000000;stroke-linecap:square;stroke-width:10;"/>
   </g>
   <g id="line2d_24">
    <path clip-path="url(#pdd84941583)" d="M 345.383942 652.795672 
L 352.131816 651.000385 
L 358.879691 650.94844 
L 365.627566 652.642266 
L 372.375441 656.002661 
L 379.123315 660.872498 
L 385.87119 667.024067 
L 392.619065 674.169729 
L 399.366939 681.97536 
L 406.114814 690.075977 
L 412.862689 698.092806 
L 419.610564 705.650987 
L 426.358438 712.397108 
L 433.106313 718.015729 
L 439.854188 722.244129 
L 446.602062 724.884593 
L 453.349937 725.813655 
L 460.097812 724.987874 
L 466.845686 722.445862 
L 473.593561 718.306481 
L 480.341436 712.763283 
L 487.089311 706.075463 
L 493.837185 698.555736 
L 500.58506 690.555715 
L 507.332935 682.449473 
L 514.080809 674.616048 
L 520.828684 667.421724 
L 527.576559 661.202897 
L 534.324434 656.250355 
L 541.072308 652.795672 
" style="fill:none;stroke:#0000ff;stroke-linecap:square;stroke-width:5;"/>
   </g>
   <g id="patch_18">
    <path d="M 320.468125 672.3117 
L 320.468125 458.754557 
" style="fill:none;stroke:#000000;stroke-linecap:square;stroke-linejoin:miter;stroke-width:0.8;"/>
   </g>
   <g id="patch_19">
    <path d="M 565.988125 672.3117 
L 565.988125 458.754557 
" style="fill:none;stroke:#000000;stroke-linecap:square;stroke-linejoin:miter;stroke-width:0.8;"/>
   </g>
   <g id="patch_20">
    <path d="M 320.468125 672.3117 
L 565.988125 672.3117 
" style="fill:none;stroke:#000000;stroke-linecap:square;stroke-linejoin:miter;stroke-width:0.8;"/>
   </g>
   <g id="patch_21">
    <path d="M 320.468125 458.754557 
L 565.988125 458.754557 
" style="fill:none;stroke:#000000;stroke-linecap:square;stroke-linejoin:miter;stroke-width:0.8;"/>
   </g>
   <g id="text_26">
    <!-- $t= 0.50~s$ -->
    <g transform="translate(382.076125 415.653107)scale(0.336 -0.336)">
     <use transform="translate(0 0.203125)" xlink:href="#STIXGeneral-Italic-116"/>
     <use transform="translate(42.239984 0.203125)" xlink:href="#STIXGeneral-Regular-61"/>
     <use transform="translate(125.179965 0.203125)" xlink:href="#STIXGeneral-Regular-48"/>
     <use transform="translate(175.17995 0.203125)" xlink:href="#STIXGeneral-Regular-46"/>
     <use transform="translate(200.179935 0.203125)" xlink:href="#STIXGeneral-Regular-53"/>
     <use transform="translate(250.179919 0.203125)" xlink:href="#STIXGeneral-Regular-48"/>
     <use transform="translate(324.246324 0.203125)" xlink:href="#STIXGeneral-Italic-115"/>
    </g>
    <!-- (# Iteration:50) -->
    <g transform="translate(333.980875 451.682807)scale(0.336 -0.336)">
     <use xlink:href="#ArialMT-40"/>
     <use x="33.300781" xlink:href="#ArialMT-35"/>
     <use x="88.916016" xlink:href="#ArialMT-32"/>
     <use x="116.699219" xlink:href="#ArialMT-73"/>
     <use x="144.482422" xlink:href="#ArialMT-116"/>
     <use x="172.265625" xlink:href="#ArialMT-101"/>
     <use x="227.880859" xlink:href="#ArialMT-114"/>
     <use x="261.181641" xlink:href="#ArialMT-97"/>
     <use x="316.796875" xlink:href="#ArialMT-116"/>
     <use x="344.580078" xlink:href="#ArialMT-105"/>
     <use x="366.796875" xlink:href="#ArialMT-111"/>
     <use x="422.412109" xlink:href="#ArialMT-110"/>
     <use x="478.027344" xlink:href="#ArialMT-58"/>
     <use x="505.810547" xlink:href="#ArialMT-53"/>
     <use x="561.425781" xlink:href="#ArialMT-48"/>
     <use x="617.041016" xlink:href="#ArialMT-41"/>
    </g>
   </g>
  </g>
  <g id="axes_5">
   <g id="patch_22">
    <path d="M 565.988125 287.908843 
L 811.508125 287.908843 
L 811.508125 74.3517 
L 565.988125 74.3517 
z
" style="fill:#ffffff;"/>
   </g>
   <g id="matplotlib.axis_9">
    <g id="xtick_13">
     <g id="line2d_25">
      <g>
       <use style="stroke:#000000;stroke-width:0.8;" x="590.903942" xlink:href="#mb2192e875a" y="287.908843"/>
      </g>
     </g>
     <g id="text_27">
      <!-- $0$ -->
      <g transform="translate(583.903942 314.950718)scale(0.28 -0.28)">
       <use transform="translate(0 0.40625)" xlink:href="#STIXGeneral-Regular-48"/>
      </g>
     </g>
    </g>
    <g id="xtick_14">
     <g id="line2d_26">
      <g>
       <use style="stroke:#000000;stroke-width:0.8;" x="688.748125" xlink:href="#mb2192e875a" y="287.908843"/>
      </g>
     </g>
     <g id="text_28">
      <!-- $\pi$ -->
      <g transform="translate(681.608125 314.950718)scale(0.28 -0.28)">
       <use transform="translate(0 0.203125)" xlink:href="#STIXGeneral-Italic-960"/>
      </g>
     </g>
    </g>
    <g id="xtick_15">
     <g id="line2d_27">
      <g>
       <use style="stroke:#000000;stroke-width:0.8;" x="786.592308" xlink:href="#mb2192e875a" y="287.908843"/>
      </g>
     </g>
     <g id="text_29">
      <!-- $2 \pi$ -->
      <g transform="translate(772.452308 314.950718)scale(0.28 -0.28)">
       <use transform="translate(0 0.40625)" xlink:href="#STIXGeneral-Regular-50"/>
       <use transform="translate(49.999985 0.40625)" xlink:href="#STIXGeneral-Italic-960"/>
      </g>
     </g>
    </g>
    <g id="text_30">
     <!-- $\phi_2 - \phi_1 $ -->
     <g transform="translate(646.468125 344.242593)scale(0.28 -0.28)">
      <use transform="translate(0 0.703125)" xlink:href="#STIXGeneral-Italic-981"/>
      <use transform="translate(62.699997 -12.525)scale(0.7)" xlink:href="#STIXGeneral-Regular-50"/>
      <use transform="translate(116.549358 0.703125)" xlink:href="#STIXGeneral-Regular-8722"/>
      <use transform="translate(199.489339 0.703125)" xlink:href="#STIXGeneral-Italic-981"/>
      <use transform="translate(262.189336 -12.525)scale(0.7)" xlink:href="#STIXGeneral-Regular-49"/>
     </g>
    </g>
   </g>
   <g id="matplotlib.axis_10"/>
   <g id="line2d_28">
    <path clip-path="url(#pf35f3a8c9f)" d="M 590.903942 115.343381 
L 597.651816 115.343381 
L 604.399691 115.343381 
L 611.147566 115.343381 
L 617.895441 115.343381 
L 624.643315 115.343381 
L 631.39119 115.343381 
L 638.139065 115.343381 
L 644.886939 115.343381 
L 651.634814 115.343381 
L 658.382689 115.343381 
L 665.130564 115.343381 
L 671.878438 115.343381 
L 678.626313 115.343381 
L 685.374188 115.343381 
L 692.122062 115.343381 
L 698.869937 115.343381 
L 705.617812 115.343381 
L 712.365686 115.343381 
L 719.113561 115.343381 
L 725.861436 115.343381 
L 732.609311 115.343381 
L 739.357185 115.343381 
L 746.10506 115.343381 
L 752.852935 115.343381 
L 759.600809 115.343381 
L 766.348684 115.343381 
L 773.096559 115.343381 
L 779.844434 115.343381 
L 786.592308 115.343381 
" style="fill:none;stroke:#000000;stroke-linecap:square;stroke-width:10;"/>
   </g>
   <g id="line2d_29">
    <path clip-path="url(#pf35f3a8c9f)" d="M 590.903942 200.644827 
L 597.651816 198.58758 
L 604.399691 194.621533 
L 611.147566 188.932135 
L 617.895441 181.785416 
L 624.643315 173.515548 
L 631.39119 164.509221 
L 638.139065 155.18756 
L 644.886939 145.986438 
L 651.634814 137.336086 
L 658.382689 129.640987 
L 665.130564 123.260955 
L 671.878438 118.494313 
L 678.626313 115.563944 
L 685.374188 114.606868 
L 692.122062 115.667838 
L 698.869937 118.697243 
L 705.617812 123.553432 
L 712.365686 130.009336 
L 719.113561 137.763082 
L 725.861436 146.452115 
L 732.609311 155.670146 
L 739.357185 164.986148 
L 746.10506 173.964517 
L 752.852935 182.185433 
L 759.600809 189.264496 
L 766.348684 194.870697 
L 773.096559 198.741896 
L 779.844434 200.69708 
L 786.592308 200.644827 
" style="fill:none;stroke:#0000ff;stroke-linecap:square;stroke-width:5;"/>
   </g>
   <g id="patch_23">
    <path d="M 565.988125 287.908843 
L 565.988125 74.3517 
" style="fill:none;stroke:#000000;stroke-linecap:square;stroke-linejoin:miter;stroke-width:0.8;"/>
   </g>
   <g id="patch_24">
    <path d="M 811.508125 287.908843 
L 811.508125 74.3517 
" style="fill:none;stroke:#000000;stroke-linecap:square;stroke-linejoin:miter;stroke-width:0.8;"/>
   </g>
   <g id="patch_25">
    <path d="M 565.988125 287.908843 
L 811.508125 287.908843 
" style="fill:none;stroke:#000000;stroke-linecap:square;stroke-linejoin:miter;stroke-width:0.8;"/>
   </g>
   <g id="patch_26">
    <path d="M 565.988125 74.3517 
L 811.508125 74.3517 
" style="fill:none;stroke:#000000;stroke-linecap:square;stroke-linejoin:miter;stroke-width:0.8;"/>
   </g>
   <g id="text_31">
    <!-- $t= 0.75~s$ -->
    <defs>
     <path d="M 44.90625 64.59375 
L 23.703125 -0.796875 
L 17.203125 -0.796875 
L 37 58.796875 
L 15.5 58.796875 
Q 11.203125 58.796875 9.09375 57.296875 
Q 7 55.796875 3.796875 50.59375 
L 2 51.5 
L 8 66.203125 
L 44.90625 66.203125 
z
" id="STIXGeneral-Regular-55"/>
    </defs>
    <g transform="translate(627.596125 31.25025)scale(0.336 -0.336)">
     <use transform="translate(0 0.203125)" xlink:href="#STIXGeneral-Italic-116"/>
     <use transform="translate(42.239984 0.203125)" xlink:href="#STIXGeneral-Regular-61"/>
     <use transform="translate(125.179965 0.203125)" xlink:href="#STIXGeneral-Regular-48"/>
     <use transform="translate(175.17995 0.203125)" xlink:href="#STIXGeneral-Regular-46"/>
     <use transform="translate(200.179935 0.203125)" xlink:href="#STIXGeneral-Regular-55"/>
     <use transform="translate(250.179919 0.203125)" xlink:href="#STIXGeneral-Regular-53"/>
     <use transform="translate(324.246324 0.203125)" xlink:href="#STIXGeneral-Italic-115"/>
    </g>
    <!-- (# Iteration:75) -->
    <defs>
     <path d="M 4.734375 62.203125 
L 4.734375 70.65625 
L 51.078125 70.65625 
L 51.078125 63.8125 
Q 44.234375 56.546875 37.515625 44.484375 
Q 30.8125 32.421875 27.15625 19.671875 
Q 24.515625 10.6875 23.78125 0 
L 14.75 0 
Q 14.890625 8.453125 18.0625 20.40625 
Q 21.234375 32.375 27.171875 43.484375 
Q 33.109375 54.59375 39.796875 62.203125 
z
" id="ArialMT-55"/>
    </defs>
    <g transform="translate(579.500875 67.27995)scale(0.336 -0.336)">
     <use xlink:href="#ArialMT-40"/>
     <use x="33.300781" xlink:href="#ArialMT-35"/>
     <use x="88.916016" xlink:href="#ArialMT-32"/>
     <use x="116.699219" xlink:href="#ArialMT-73"/>
     <use x="144.482422" xlink:href="#ArialMT-116"/>
     <use x="172.265625" xlink:href="#ArialMT-101"/>
     <use x="227.880859" xlink:href="#ArialMT-114"/>
     <use x="261.181641" xlink:href="#ArialMT-97"/>
     <use x="316.796875" xlink:href="#ArialMT-116"/>
     <use x="344.580078" xlink:href="#ArialMT-105"/>
     <use x="366.796875" xlink:href="#ArialMT-111"/>
     <use x="422.412109" xlink:href="#ArialMT-110"/>
     <use x="478.027344" xlink:href="#ArialMT-58"/>
     <use x="505.810547" xlink:href="#ArialMT-55"/>
     <use x="561.425781" xlink:href="#ArialMT-53"/>
     <use x="617.041016" xlink:href="#ArialMT-41"/>
    </g>
   </g>
  </g>
  <g id="axes_6">
   <g id="patch_27">
    <path d="M 565.988125 672.3117 
L 811.508125 672.3117 
L 811.508125 458.754557 
L 565.988125 458.754557 
z
" style="fill:#ffffff;"/>
   </g>
   <g id="matplotlib.axis_11">
    <g id="xtick_16">
     <g id="line2d_30">
      <g>
       <use style="stroke:#000000;stroke-width:0.8;" x="590.903942" xlink:href="#mb2192e875a" y="672.3117"/>
      </g>
     </g>
     <g id="text_32">
      <!-- $0$ -->
      <g transform="translate(583.903942 699.353575)scale(0.28 -0.28)">
       <use transform="translate(0 0.40625)" xlink:href="#STIXGeneral-Regular-48"/>
      </g>
     </g>
    </g>
    <g id="xtick_17">
     <g id="line2d_31">
      <g>
       <use style="stroke:#000000;stroke-width:0.8;" x="688.748125" xlink:href="#mb2192e875a" y="672.3117"/>
      </g>
     </g>
     <g id="text_33">
      <!-- $\pi$ -->
      <g transform="translate(681.608125 699.353575)scale(0.28 -0.28)">
       <use transform="translate(0 0.203125)" xlink:href="#STIXGeneral-Italic-960"/>
      </g>
     </g>
    </g>
    <g id="xtick_18">
     <g id="line2d_32">
      <g>
       <use style="stroke:#000000;stroke-width:0.8;" x="786.592308" xlink:href="#mb2192e875a" y="672.3117"/>
      </g>
     </g>
     <g id="text_34">
      <!-- $2 \pi$ -->
      <g transform="translate(772.452308 699.353575)scale(0.28 -0.28)">
       <use transform="translate(0 0.40625)" xlink:href="#STIXGeneral-Regular-50"/>
       <use transform="translate(49.999985 0.40625)" xlink:href="#STIXGeneral-Italic-960"/>
      </g>
     </g>
    </g>
    <g id="text_35">
     <!-- $\phi_3 - \phi_1 $ -->
     <g transform="translate(646.468125 728.64545)scale(0.28 -0.28)">
      <use transform="translate(0 0.703125)" xlink:href="#STIXGeneral-Italic-981"/>
      <use transform="translate(62.699997 -12.525)scale(0.7)" xlink:href="#STIXGeneral-Regular-51"/>
      <use transform="translate(116.549358 0.703125)" xlink:href="#STIXGeneral-Regular-8722"/>
      <use transform="translate(199.489339 0.703125)" xlink:href="#STIXGeneral-Italic-981"/>
      <use transform="translate(262.189336 -12.525)scale(0.7)" xlink:href="#STIXGeneral-Regular-49"/>
     </g>
    </g>
   </g>
   <g id="matplotlib.axis_12"/>
   <g id="line2d_33">
    <path clip-path="url(#p1cc01edaf7)" d="M 590.903942 491.203953 
L 597.651816 489.567328 
L 604.399691 488.406657 
L 611.147566 487.776213 
L 617.895441 487.705474 
L 624.643315 488.197747 
L 631.39119 489.230016 
L 638.139065 490.754011 
L 644.886939 492.698472 
L 651.634814 494.97248 
L 658.382689 497.469703 
L 665.130564 500.073374 
L 671.878438 502.661749 
L 678.626313 505.113798 
L 685.374188 507.314865 
L 692.122062 509.162032 
L 698.869937 510.568927 
L 705.617812 511.469766 
L 712.365686 511.822425 
L 719.113561 511.610415 
L 725.861436 510.843649 
L 732.609311 509.557981 
L 739.357185 507.813526 
L 746.10506 505.691854 
L 752.852935 503.292172 
L 759.600809 500.726686 
L 766.348684 498.115355 
L 773.096559 495.580282 
L 779.844434 493.240005 
L 786.592308 491.203953 
" style="fill:none;stroke:#000000;stroke-linecap:square;stroke-width:10;"/>
   </g>
   <g id="line2d_34">
    <path clip-path="url(#p1cc01edaf7)" d="M 590.903942 532.572972 
L 597.651816 530.767409 
L 604.399691 529.494938 
L 611.147566 528.815057 
L 617.895441 528.759557 
L 624.643315 529.331034 
L 631.39119 530.502766 
L 638.139065 532.219963 
L 644.886939 534.402332 
L 651.634814 536.947828 
L 658.382689 539.737425 
L 665.130564 542.640686 
L 671.878438 545.521857 
L 678.626313 548.246218 
L 685.374188 550.68638 
L 692.122062 552.728245 
L 698.869937 554.276338 
L 705.617812 555.25827 
L 712.365686 555.628128 
L 719.113561 555.368618 
L 725.861436 554.491874 
L 732.609311 553.038893 
L 739.357185 551.077612 
L 746.10506 548.699741 
L 752.852935 546.016465 
L 759.600809 543.153252 
L 766.348684 540.243981 
L 773.096559 537.424689 
L 779.844434 534.8272 
L 786.592308 532.572972 
" style="fill:none;stroke:#0000ff;stroke-linecap:square;stroke-width:5;"/>
   </g>
   <g id="patch_28">
    <path d="M 565.988125 672.3117 
L 565.988125 458.754557 
" style="fill:none;stroke:#000000;stroke-linecap:square;stroke-linejoin:miter;stroke-width:0.8;"/>
   </g>
   <g id="patch_29">
    <path d="M 811.508125 672.3117 
L 811.508125 458.754557 
" style="fill:none;stroke:#000000;stroke-linecap:square;stroke-linejoin:miter;stroke-width:0.8;"/>
   </g>
   <g id="patch_30">
    <path d="M 565.988125 672.3117 
L 811.508125 672.3117 
" style="fill:none;stroke:#000000;stroke-linecap:square;stroke-linejoin:miter;stroke-width:0.8;"/>
   </g>
   <g id="patch_31">
    <path d="M 565.988125 458.754557 
L 811.508125 458.754557 
" style="fill:none;stroke:#000000;stroke-linecap:square;stroke-linejoin:miter;stroke-width:0.8;"/>
   </g>
   <g id="text_36">
    <!-- $t= 0.75~s$ -->
    <g transform="translate(627.596125 415.653107)scale(0.336 -0.336)">
     <use transform="translate(0 0.203125)" xlink:href="#STIXGeneral-Italic-116"/>
     <use transform="translate(42.239984 0.203125)" xlink:href="#STIXGeneral-Regular-61"/>
     <use transform="translate(125.179965 0.203125)" xlink:href="#STIXGeneral-Regular-48"/>
     <use transform="translate(175.17995 0.203125)" xlink:href="#STIXGeneral-Regular-46"/>
     <use transform="translate(200.179935 0.203125)" xlink:href="#STIXGeneral-Regular-55"/>
     <use transform="translate(250.179919 0.203125)" xlink:href="#STIXGeneral-Regular-53"/>
     <use transform="translate(324.246324 0.203125)" xlink:href="#STIXGeneral-Italic-115"/>
    </g>
    <!-- (# Iteration:75) -->
    <g transform="translate(579.500875 451.682807)scale(0.336 -0.336)">
     <use xlink:href="#ArialMT-40"/>
     <use x="33.300781" xlink:href="#ArialMT-35"/>
     <use x="88.916016" xlink:href="#ArialMT-32"/>
     <use x="116.699219" xlink:href="#ArialMT-73"/>
     <use x="144.482422" xlink:href="#ArialMT-116"/>
     <use x="172.265625" xlink:href="#ArialMT-101"/>
     <use x="227.880859" xlink:href="#ArialMT-114"/>
     <use x="261.181641" xlink:href="#ArialMT-97"/>
     <use x="316.796875" xlink:href="#ArialMT-116"/>
     <use x="344.580078" xlink:href="#ArialMT-105"/>
     <use x="366.796875" xlink:href="#ArialMT-111"/>
     <use x="422.412109" xlink:href="#ArialMT-110"/>
     <use x="478.027344" xlink:href="#ArialMT-58"/>
     <use x="505.810547" xlink:href="#ArialMT-55"/>
     <use x="561.425781" xlink:href="#ArialMT-53"/>
     <use x="617.041016" xlink:href="#ArialMT-41"/>
    </g>
   </g>
  </g>
  <g id="axes_7">
   <g id="patch_32">
    <path d="M 811.508125 287.908843 
L 1057.028125 287.908843 
L 1057.028125 74.3517 
L 811.508125 74.3517 
z
" style="fill:#ffffff;"/>
   </g>
   <g id="matplotlib.axis_13">
    <g id="xtick_19">
     <g id="line2d_35">
      <g>
       <use style="stroke:#000000;stroke-width:0.8;" x="836.423942" xlink:href="#mb2192e875a" y="287.908843"/>
      </g>
     </g>
     <g id="text_37">
      <!-- $0$ -->
      <g transform="translate(829.423942 314.950718)scale(0.28 -0.28)">
       <use transform="translate(0 0.40625)" xlink:href="#STIXGeneral-Regular-48"/>
      </g>
     </g>
    </g>
    <g id="xtick_20">
     <g id="line2d_36">
      <g>
       <use style="stroke:#000000;stroke-width:0.8;" x="934.268125" xlink:href="#mb2192e875a" y="287.908843"/>
      </g>
     </g>
     <g id="text_38">
      <!-- $\pi$ -->
      <g transform="translate(927.128125 314.950718)scale(0.28 -0.28)">
       <use transform="translate(0 0.203125)" xlink:href="#STIXGeneral-Italic-960"/>
      </g>
     </g>
    </g>
    <g id="xtick_21">
     <g id="line2d_37">
      <g>
       <use style="stroke:#000000;stroke-width:0.8;" x="1032.112308" xlink:href="#mb2192e875a" y="287.908843"/>
      </g>
     </g>
     <g id="text_39">
      <!-- $2 \pi$ -->
      <g transform="translate(1017.972308 314.950718)scale(0.28 -0.28)">
       <use transform="translate(0 0.40625)" xlink:href="#STIXGeneral-Regular-50"/>
       <use transform="translate(49.999985 0.40625)" xlink:href="#STIXGeneral-Italic-960"/>
      </g>
     </g>
    </g>
    <g id="text_40">
     <!-- $\phi_2 - \phi_1 $ -->
     <g transform="translate(891.988125 344.242593)scale(0.28 -0.28)">
      <use transform="translate(0 0.703125)" xlink:href="#STIXGeneral-Italic-981"/>
      <use transform="translate(62.699997 -12.525)scale(0.7)" xlink:href="#STIXGeneral-Regular-50"/>
      <use transform="translate(116.549358 0.703125)" xlink:href="#STIXGeneral-Regular-8722"/>
      <use transform="translate(199.489339 0.703125)" xlink:href="#STIXGeneral-Italic-981"/>
      <use transform="translate(262.189336 -12.525)scale(0.7)" xlink:href="#STIXGeneral-Regular-49"/>
     </g>
    </g>
   </g>
   <g id="matplotlib.axis_14"/>
   <g id="line2d_38">
    <path clip-path="url(#pb25733e422)" d="M 836.423942 115.343381 
L 843.171816 115.343381 
L 849.919691 115.343381 
L 856.667566 115.343381 
L 863.415441 115.343381 
L 870.163315 115.343381 
L 876.91119 115.343381 
L 883.659065 115.343381 
L 890.406939 115.343381 
L 897.154814 115.343381 
L 903.902689 115.343381 
L 910.650564 115.343381 
L 917.398438 115.343381 
L 924.146313 115.343381 
L 930.894188 115.343381 
L 937.642062 115.343381 
L 944.389937 115.343381 
L 951.137812 115.343381 
L 957.885686 115.343381 
L 964.633561 115.343381 
L 971.381436 115.343381 
L 978.129311 115.343381 
L 984.877185 115.343381 
L 991.62506 115.343381 
L 998.372935 115.343381 
L 1005.120809 115.343381 
L 1011.868684 115.343381 
L 1018.616559 115.343381 
L 1025.364434 115.343381 
L 1032.112308 115.343381 
" style="fill:none;stroke:#000000;stroke-linecap:square;stroke-width:10;"/>
   </g>
   <g id="line2d_39">
    <path clip-path="url(#pb25733e422)" d="M 836.423942 122.26111 
L 843.171816 121.9542 
L 849.919691 121.502418 
L 856.667566 120.926891 
L 863.415441 120.25453 
L 870.163315 119.516772 
L 876.91119 118.748115 
L 883.659065 117.984501 
L 890.406939 117.261635 
L 897.154814 116.613318 
L 903.902689 116.069864 
L 910.650564 115.656684 
L 917.398438 115.393099 
L 924.146313 115.291433 
L 930.894188 115.35644 
L 937.642062 115.58508 
L 944.389937 115.966663 
L 951.137812 116.483346 
L 957.885686 117.11097 
L 964.633561 117.820187 
L 971.381436 118.577835 
L 978.129311 119.348488 
L 984.877185 120.096111 
L 991.62506 120.785745 
L 998.372935 121.385145 
L 1005.120809 121.866282 
L 1011.868684 122.20666 
L 1018.616559 122.390362 
L 1025.364434 122.4088 
L 1032.112308 122.26111 
" style="fill:none;stroke:#0000ff;stroke-linecap:square;stroke-width:5;"/>
   </g>
   <g id="patch_33">
    <path d="M 811.508125 287.908843 
L 811.508125 74.3517 
" style="fill:none;stroke:#000000;stroke-linecap:square;stroke-linejoin:miter;stroke-width:0.8;"/>
   </g>
   <g id="patch_34">
    <path d="M 1057.028125 287.908843 
L 1057.028125 74.3517 
" style="fill:none;stroke:#000000;stroke-linecap:square;stroke-linejoin:miter;stroke-width:0.8;"/>
   </g>
   <g id="patch_35">
    <path d="M 811.508125 287.908843 
L 1057.028125 287.908843 
" style="fill:none;stroke:#000000;stroke-linecap:square;stroke-linejoin:miter;stroke-width:0.8;"/>
   </g>
   <g id="patch_36">
    <path d="M 811.508125 74.3517 
L 1057.028125 74.3517 
" style="fill:none;stroke:#000000;stroke-linecap:square;stroke-linejoin:miter;stroke-width:0.8;"/>
   </g>
   <g id="text_41">
    <!-- $t= 1.00~s$ -->
    <g transform="translate(873.116125 31.25025)scale(0.336 -0.336)">
     <use transform="translate(0 0.40625)" xlink:href="#STIXGeneral-Italic-116"/>
     <use transform="translate(42.239984 0.40625)" xlink:href="#STIXGeneral-Regular-61"/>
     <use transform="translate(125.179965 0.40625)" xlink:href="#STIXGeneral-Regular-49"/>
     <use transform="translate(175.17995 0.40625)" xlink:href="#STIXGeneral-Regular-46"/>
     <use transform="translate(200.179935 0.40625)" xlink:href="#STIXGeneral-Regular-48"/>
     <use transform="translate(250.179919 0.40625)" xlink:href="#STIXGeneral-Regular-48"/>
     <use transform="translate(324.246324 0.40625)" xlink:href="#STIXGeneral-Italic-115"/>
    </g>
    <!-- (# Iteration:100) -->
    <g transform="translate(815.6785 67.27995)scale(0.336 -0.336)">
     <use xlink:href="#ArialMT-40"/>
     <use x="33.300781" xlink:href="#ArialMT-35"/>
     <use x="88.916016" xlink:href="#ArialMT-32"/>
     <use x="116.699219" xlink:href="#ArialMT-73"/>
     <use x="144.482422" xlink:href="#ArialMT-116"/>
     <use x="172.265625" xlink:href="#ArialMT-101"/>
     <use x="227.880859" xlink:href="#ArialMT-114"/>
     <use x="261.181641" xlink:href="#ArialMT-97"/>
     <use x="316.796875" xlink:href="#ArialMT-116"/>
     <use x="344.580078" xlink:href="#ArialMT-105"/>
     <use x="366.796875" xlink:href="#ArialMT-111"/>
     <use x="422.412109" xlink:href="#ArialMT-110"/>
     <use x="478.027344" xlink:href="#ArialMT-58"/>
     <use x="505.810547" xlink:href="#ArialMT-49"/>
     <use x="561.425781" xlink:href="#ArialMT-48"/>
     <use x="617.041016" xlink:href="#ArialMT-48"/>
     <use x="672.65625" xlink:href="#ArialMT-41"/>
    </g>
   </g>
  </g>
  <g id="axes_8">
   <g id="patch_37">
    <path d="M 811.508125 672.3117 
L 1057.028125 672.3117 
L 1057.028125 458.754557 
L 811.508125 458.754557 
z
" style="fill:#ffffff;"/>
   </g>
   <g id="matplotlib.axis_15">
    <g id="xtick_22">
     <g id="line2d_40">
      <g>
       <use style="stroke:#000000;stroke-width:0.8;" x="836.423942" xlink:href="#mb2192e875a" y="672.3117"/>
      </g>
     </g>
     <g id="text_42">
      <!-- $0$ -->
      <g transform="translate(829.423942 699.353575)scale(0.28 -0.28)">
       <use transform="translate(0 0.40625)" xlink:href="#STIXGeneral-Regular-48"/>
      </g>
     </g>
    </g>
    <g id="xtick_23">
     <g id="line2d_41">
      <g>
       <use style="stroke:#000000;stroke-width:0.8;" x="934.268125" xlink:href="#mb2192e875a" y="672.3117"/>
      </g>
     </g>
     <g id="text_43">
      <!-- $\pi$ -->
      <g transform="translate(927.128125 699.353575)scale(0.28 -0.28)">
       <use transform="translate(0 0.203125)" xlink:href="#STIXGeneral-Italic-960"/>
      </g>
     </g>
    </g>
    <g id="xtick_24">
     <g id="line2d_42">
      <g>
       <use style="stroke:#000000;stroke-width:0.8;" x="1032.112308" xlink:href="#mb2192e875a" y="672.3117"/>
      </g>
     </g>
     <g id="text_44">
      <!-- $2 \pi$ -->
      <g transform="translate(1017.972308 699.353575)scale(0.28 -0.28)">
       <use transform="translate(0 0.40625)" xlink:href="#STIXGeneral-Regular-50"/>
       <use transform="translate(49.999985 0.40625)" xlink:href="#STIXGeneral-Italic-960"/>
      </g>
     </g>
    </g>
    <g id="text_45">
     <!-- $\phi_3 - \phi_1 $ -->
     <g transform="translate(891.988125 728.64545)scale(0.28 -0.28)">
      <use transform="translate(0 0.703125)" xlink:href="#STIXGeneral-Italic-981"/>
      <use transform="translate(62.699997 -12.525)scale(0.7)" xlink:href="#STIXGeneral-Regular-51"/>
      <use transform="translate(116.549358 0.703125)" xlink:href="#STIXGeneral-Regular-8722"/>
      <use transform="translate(199.489339 0.703125)" xlink:href="#STIXGeneral-Italic-981"/>
      <use transform="translate(262.189336 -12.525)scale(0.7)" xlink:href="#STIXGeneral-Regular-49"/>
     </g>
    </g>
   </g>
   <g id="matplotlib.axis_16"/>
   <g id="line2d_43">
    <path clip-path="url(#p2035c6120d)" d="M 836.423942 491.203953 
L 843.171816 489.567328 
L 849.919691 488.406657 
L 856.667566 487.776213 
L 863.415441 487.705474 
L 870.163315 488.197747 
L 876.91119 489.230016 
L 883.659065 490.754011 
L 890.406939 492.698472 
L 897.154814 494.97248 
L 903.902689 497.469703 
L 910.650564 500.073374 
L 917.398438 502.661749 
L 924.146313 505.113798 
L 930.894188 507.314865 
L 937.642062 509.162032 
L 944.389937 510.568927 
L 951.137812 511.469766 
L 957.885686 511.822425 
L 964.633561 511.610415 
L 971.381436 510.843649 
L 978.129311 509.557981 
L 984.877185 507.813526 
L 991.62506 505.691854 
L 998.372935 503.292172 
L 1005.120809 500.726686 
L 1011.868684 498.115355 
L 1018.616559 495.580282 
L 1025.364434 493.240005 
L 1032.112308 491.203953 
" style="fill:none;stroke:#000000;stroke-linecap:square;stroke-width:10;"/>
   </g>
   <g id="line2d_44">
    <path clip-path="url(#p2035c6120d)" d="M 836.423942 494.738167 
L 843.171816 493.098838 
L 849.919691 491.934577 
L 856.667566 491.299826 
L 863.415441 491.224263 
L 870.163315 491.711423 
L 876.91119 492.738525 
L 883.659065 494.257545 
L 890.406939 496.197453 
L 897.154814 498.467543 
L 903.902689 500.961668 
L 910.650564 503.563204 
L 917.398438 506.150507 
L 924.146313 508.602598 
L 930.894188 510.804819 
L 937.642062 512.654198 
L 944.389937 514.064258 
L 951.137812 514.969068 
L 957.885686 515.326319 
L 964.633561 515.119308 
L 971.381436 514.357712 
L 978.129311 513.077144 
L 984.877185 511.337482 
L 991.62506 509.22007 
L 998.372935 506.823917 
L 1005.120809 504.261063 
L 1011.868684 501.651345 
L 1018.616559 499.11679 
L 1025.364434 496.775912 
L 1032.112308 494.738167 
" style="fill:none;stroke:#0000ff;stroke-linecap:square;stroke-width:5;"/>
   </g>
   <g id="patch_38">
    <path d="M 811.508125 672.3117 
L 811.508125 458.754557 
" style="fill:none;stroke:#000000;stroke-linecap:square;stroke-linejoin:miter;stroke-width:0.8;"/>
   </g>
   <g id="patch_39">
    <path d="M 1057.028125 672.3117 
L 1057.028125 458.754557 
" style="fill:none;stroke:#000000;stroke-linecap:square;stroke-linejoin:miter;stroke-width:0.8;"/>
   </g>
   <g id="patch_40">
    <path d="M 811.508125 672.3117 
L 1057.028125 672.3117 
" style="fill:none;stroke:#000000;stroke-linecap:square;stroke-linejoin:miter;stroke-width:0.8;"/>
   </g>
   <g id="patch_41">
    <path d="M 811.508125 458.754557 
L 1057.028125 458.754557 
" style="fill:none;stroke:#000000;stroke-linecap:square;stroke-linejoin:miter;stroke-width:0.8;"/>
   </g>
   <g id="text_46">
    <!-- $t= 1.00~s$ -->
    <g transform="translate(873.116125 415.653107)scale(0.336 -0.336)">
     <use transform="translate(0 0.40625)" xlink:href="#STIXGeneral-Italic-116"/>
     <use transform="translate(42.239984 0.40625)" xlink:href="#STIXGeneral-Regular-61"/>
     <use transform="translate(125.179965 0.40625)" xlink:href="#STIXGeneral-Regular-49"/>
     <use transform="translate(175.17995 0.40625)" xlink:href="#STIXGeneral-Regular-46"/>
     <use transform="translate(200.179935 0.40625)" xlink:href="#STIXGeneral-Regular-48"/>
     <use transform="translate(250.179919 0.40625)" xlink:href="#STIXGeneral-Regular-48"/>
     <use transform="translate(324.246324 0.40625)" xlink:href="#STIXGeneral-Italic-115"/>
    </g>
    <!-- (# Iteration:100) -->
    <g transform="translate(815.6785 451.682807)scale(0.336 -0.336)">
     <use xlink:href="#ArialMT-40"/>
     <use x="33.300781" xlink:href="#ArialMT-35"/>
     <use x="88.916016" xlink:href="#ArialMT-32"/>
     <use x="116.699219" xlink:href="#ArialMT-73"/>
     <use x="144.482422" xlink:href="#ArialMT-116"/>
     <use x="172.265625" xlink:href="#ArialMT-101"/>
     <use x="227.880859" xlink:href="#ArialMT-114"/>
     <use x="261.181641" xlink:href="#ArialMT-97"/>
     <use x="316.796875" xlink:href="#ArialMT-116"/>
     <use x="344.580078" xlink:href="#ArialMT-105"/>
     <use x="366.796875" xlink:href="#ArialMT-111"/>
     <use x="422.412109" xlink:href="#ArialMT-110"/>
     <use x="478.027344" xlink:href="#ArialMT-58"/>
     <use x="505.810547" xlink:href="#ArialMT-49"/>
     <use x="561.425781" xlink:href="#ArialMT-48"/>
     <use x="617.041016" xlink:href="#ArialMT-48"/>
     <use x="672.65625" xlink:href="#ArialMT-41"/>
    </g>
   </g>
  </g>
  <g id="axes_9">
   <g id="patch_42">
    <path d="M 1057.028125 287.908843 
L 1302.548125 287.908843 
L 1302.548125 74.3517 
L 1057.028125 74.3517 
z
" style="fill:#ffffff;"/>
   </g>
   <g id="matplotlib.axis_17">
    <g id="xtick_25">
     <g id="line2d_45">
      <g>
       <use style="stroke:#000000;stroke-width:0.8;" x="1081.943942" xlink:href="#mb2192e875a" y="287.908843"/>
      </g>
     </g>
     <g id="text_47">
      <!-- $0$ -->
      <g transform="translate(1074.943942 314.950718)scale(0.28 -0.28)">
       <use transform="translate(0 0.40625)" xlink:href="#STIXGeneral-Regular-48"/>
      </g>
     </g>
    </g>
    <g id="xtick_26">
     <g id="line2d_46">
      <g>
       <use style="stroke:#000000;stroke-width:0.8;" x="1179.788125" xlink:href="#mb2192e875a" y="287.908843"/>
      </g>
     </g>
     <g id="text_48">
      <!-- $\pi$ -->
      <g transform="translate(1172.648125 314.950718)scale(0.28 -0.28)">
       <use transform="translate(0 0.203125)" xlink:href="#STIXGeneral-Italic-960"/>
      </g>
     </g>
    </g>
    <g id="xtick_27">
     <g id="line2d_47">
      <g>
       <use style="stroke:#000000;stroke-width:0.8;" x="1277.632308" xlink:href="#mb2192e875a" y="287.908843"/>
      </g>
     </g>
     <g id="text_49">
      <!-- $2 \pi$ -->
      <g transform="translate(1263.492308 314.950718)scale(0.28 -0.28)">
       <use transform="translate(0 0.40625)" xlink:href="#STIXGeneral-Regular-50"/>
       <use transform="translate(49.999985 0.40625)" xlink:href="#STIXGeneral-Italic-960"/>
      </g>
     </g>
    </g>
    <g id="text_50">
     <!-- $\phi_2 - \phi_1 $ -->
     <g transform="translate(1137.508125 344.242593)scale(0.28 -0.28)">
      <use transform="translate(0 0.703125)" xlink:href="#STIXGeneral-Italic-981"/>
      <use transform="translate(62.699997 -12.525)scale(0.7)" xlink:href="#STIXGeneral-Regular-50"/>
      <use transform="translate(116.549358 0.703125)" xlink:href="#STIXGeneral-Regular-8722"/>
      <use transform="translate(199.489339 0.703125)" xlink:href="#STIXGeneral-Italic-981"/>
      <use transform="translate(262.189336 -12.525)scale(0.7)" xlink:href="#STIXGeneral-Regular-49"/>
     </g>
    </g>
   </g>
   <g id="matplotlib.axis_18"/>
   <g id="line2d_48">
    <path clip-path="url(#p21181db831)" d="M 1081.943942 115.343381 
L 1088.691816 115.343381 
L 1095.439691 115.343381 
L 1102.187566 115.343381 
L 1108.935441 115.343381 
L 1115.683315 115.343381 
L 1122.43119 115.343381 
L 1129.179065 115.343381 
L 1135.926939 115.343381 
L 1142.674814 115.343381 
L 1149.422689 115.343381 
L 1156.170564 115.343381 
L 1162.918438 115.343381 
L 1169.666313 115.343381 
L 1176.414188 115.343381 
L 1183.162062 115.343381 
L 1189.909937 115.343381 
L 1196.657812 115.343381 
L 1203.405686 115.343381 
L 1210.153561 115.343381 
L 1216.901436 115.343381 
L 1223.649311 115.343381 
L 1230.397185 115.343381 
L 1237.14506 115.343381 
L 1243.892935 115.343381 
L 1250.640809 115.343381 
L 1257.388684 115.343381 
L 1264.136559 115.343381 
L 1270.884434 115.343381 
L 1277.632308 115.343381 
" style="fill:none;stroke:#000000;stroke-linecap:square;stroke-width:10;"/>
   </g>
   <g id="line2d_49">
    <path clip-path="url(#p21181db831)" d="M 1081.943942 115.343118 
L 1088.691816 115.345158 
L 1095.439691 115.34696 
L 1102.187566 115.348439 
L 1108.935441 115.349527 
L 1115.683315 115.350171 
L 1122.43119 115.350343 
L 1129.179065 115.350034 
L 1135.926939 115.349259 
L 1142.674814 115.348053 
L 1149.422689 115.346474 
L 1156.170564 115.344595 
L 1162.918438 115.342503 
L 1169.666313 115.340298 
L 1176.414188 115.338081 
L 1183.162062 115.335957 
L 1189.909937 115.334024 
L 1196.657812 115.332374 
L 1203.405686 115.331083 
L 1210.153561 115.330212 
L 1216.901436 115.329802 
L 1223.649311 115.329871 
L 1230.397185 115.330416 
L 1237.14506 115.331412 
L 1243.892935 115.332813 
L 1250.640809 115.334553 
L 1257.388684 115.33655 
L 1264.136559 115.338711 
L 1270.884434 115.340935 
L 1277.632308 115.343118 
" style="fill:none;stroke:#0000ff;stroke-linecap:square;stroke-width:5;"/>
   </g>
   <g id="patch_43">
    <path d="M 1057.028125 287.908843 
L 1057.028125 74.3517 
" style="fill:none;stroke:#000000;stroke-linecap:square;stroke-linejoin:miter;stroke-width:0.8;"/>
   </g>
   <g id="patch_44">
    <path d="M 1302.548125 287.908843 
L 1302.548125 74.3517 
" style="fill:none;stroke:#000000;stroke-linecap:square;stroke-linejoin:miter;stroke-width:0.8;"/>
   </g>
   <g id="patch_45">
    <path d="M 1057.028125 287.908843 
L 1302.548125 287.908843 
" style="fill:none;stroke:#000000;stroke-linecap:square;stroke-linejoin:miter;stroke-width:0.8;"/>
   </g>
   <g id="patch_46">
    <path d="M 1057.028125 74.3517 
L 1302.548125 74.3517 
" style="fill:none;stroke:#000000;stroke-linecap:square;stroke-linejoin:miter;stroke-width:0.8;"/>
   </g>
   <g id="text_51">
    <!-- $t= 4.00~s$ -->
    <defs>
     <path d="M 47.296875 16.703125 
L 37 16.703125 
L 37 0 
L 29.203125 0 
L 29.203125 16.703125 
L 1.203125 16.703125 
L 1.203125 23.09375 
L 32.59375 67.59375 
L 37 67.59375 
L 37 23.09375 
L 47.296875 23.09375 
z
M 29.203125 23.09375 
L 29.203125 57.40625 
L 5.203125 23.09375 
z
" id="STIXGeneral-Regular-52"/>
    </defs>
    <g transform="translate(1118.636125 31.25025)scale(0.336 -0.336)">
     <use transform="translate(0 0.40625)" xlink:href="#STIXGeneral-Italic-116"/>
     <use transform="translate(42.239984 0.40625)" xlink:href="#STIXGeneral-Regular-61"/>
     <use transform="translate(125.179965 0.40625)" xlink:href="#STIXGeneral-Regular-52"/>
     <use transform="translate(175.17995 0.40625)" xlink:href="#STIXGeneral-Regular-46"/>
     <use transform="translate(200.179935 0.40625)" xlink:href="#STIXGeneral-Regular-48"/>
     <use transform="translate(250.179919 0.40625)" xlink:href="#STIXGeneral-Regular-48"/>
     <use transform="translate(324.246324 0.40625)" xlink:href="#STIXGeneral-Italic-115"/>
    </g>
    <!-- (# Iteration:400) -->
    <defs>
     <path d="M 32.328125 0 
L 32.328125 17.140625 
L 1.265625 17.140625 
L 1.265625 25.203125 
L 33.9375 71.578125 
L 41.109375 71.578125 
L 41.109375 25.203125 
L 50.78125 25.203125 
L 50.78125 17.140625 
L 41.109375 17.140625 
L 41.109375 0 
z
M 32.328125 25.203125 
L 32.328125 57.46875 
L 9.90625 25.203125 
z
" id="ArialMT-52"/>
    </defs>
    <g transform="translate(1061.1985 67.27995)scale(0.336 -0.336)">
     <use xlink:href="#ArialMT-40"/>
     <use x="33.300781" xlink:href="#ArialMT-35"/>
     <use x="88.916016" xlink:href="#ArialMT-32"/>
     <use x="116.699219" xlink:href="#ArialMT-73"/>
     <use x="144.482422" xlink:href="#ArialMT-116"/>
     <use x="172.265625" xlink:href="#ArialMT-101"/>
     <use x="227.880859" xlink:href="#ArialMT-114"/>
     <use x="261.181641" xlink:href="#ArialMT-97"/>
     <use x="316.796875" xlink:href="#ArialMT-116"/>
     <use x="344.580078" xlink:href="#ArialMT-105"/>
     <use x="366.796875" xlink:href="#ArialMT-111"/>
     <use x="422.412109" xlink:href="#ArialMT-110"/>
     <use x="478.027344" xlink:href="#ArialMT-58"/>
     <use x="505.810547" xlink:href="#ArialMT-52"/>
     <use x="561.425781" xlink:href="#ArialMT-48"/>
     <use x="617.041016" xlink:href="#ArialMT-48"/>
     <use x="672.65625" xlink:href="#ArialMT-41"/>
    </g>
   </g>
   <g id="legend_1">
    <g id="patch_47">
     <path d="M 1318.824125 136.93295 
L 1428.405375 136.93295 
Q 1432.405375 136.93295 1432.405375 132.93295 
L 1432.405375 78.3517 
Q 1432.405375 74.3517 1428.405375 74.3517 
L 1318.824125 74.3517 
Q 1314.824125 74.3517 1314.824125 78.3517 
L 1314.824125 132.93295 
Q 1314.824125 136.93295 1318.824125 136.93295 
z
" style="fill:#ffffff;opacity:0.8;stroke:#cccccc;stroke-linejoin:miter;"/>
    </g>
    <g id="line2d_50">
     <path d="M 1322.824125 89.667325 
L 1362.824125 89.667325 
" style="fill:none;stroke:#000000;stroke-linecap:square;stroke-width:10;"/>
    </g>
    <g id="line2d_51"/>
    <g id="text_52">
     <!-- true -->
     <defs>
      <path d="M 40.578125 0 
L 40.578125 7.625 
Q 34.515625 -1.171875 24.125 -1.171875 
Q 19.53125 -1.171875 15.546875 0.578125 
Q 11.578125 2.34375 9.640625 5 
Q 7.71875 7.671875 6.9375 11.53125 
Q 6.390625 14.109375 6.390625 19.734375 
L 6.390625 51.859375 
L 15.1875 51.859375 
L 15.1875 23.09375 
Q 15.1875 16.21875 15.71875 13.8125 
Q 16.546875 10.359375 19.234375 8.375 
Q 21.921875 6.390625 25.875 6.390625 
Q 29.828125 6.390625 33.296875 8.421875 
Q 36.765625 10.453125 38.203125 13.9375 
Q 39.65625 17.4375 39.65625 24.078125 
L 39.65625 51.859375 
L 48.4375 51.859375 
L 48.4375 0 
z
" id="ArialMT-117"/>
     </defs>
     <g transform="translate(1378.824125 96.667325)scale(0.2 -0.2)">
      <use xlink:href="#ArialMT-116"/>
      <use x="27.783203" xlink:href="#ArialMT-114"/>
      <use x="61.083984" xlink:href="#ArialMT-117"/>
      <use x="116.699219" xlink:href="#ArialMT-101"/>
     </g>
    </g>
    <g id="line2d_52">
     <path d="M 1322.824125 117.95795 
L 1362.824125 117.95795 
" style="fill:none;stroke:#0000ff;stroke-linecap:square;stroke-width:5;"/>
    </g>
    <g id="line2d_53"/>
    <g id="text_53">
     <!-- pred. -->
     <defs>
      <path d="M 6.59375 -19.875 
L 6.59375 51.859375 
L 14.59375 51.859375 
L 14.59375 45.125 
Q 17.4375 49.078125 21 51.046875 
Q 24.5625 53.03125 29.640625 53.03125 
Q 36.28125 53.03125 41.359375 49.609375 
Q 46.4375 46.1875 49.015625 39.953125 
Q 51.609375 33.734375 51.609375 26.3125 
Q 51.609375 18.359375 48.75 11.984375 
Q 45.90625 5.609375 40.453125 2.21875 
Q 35.015625 -1.171875 29 -1.171875 
Q 24.609375 -1.171875 21.109375 0.6875 
Q 17.625 2.546875 15.375 5.375 
L 15.375 -19.875 
z
M 14.546875 25.640625 
Q 14.546875 15.625 18.59375 10.84375 
Q 22.65625 6.0625 28.421875 6.0625 
Q 34.28125 6.0625 38.453125 11.015625 
Q 42.625 15.96875 42.625 26.375 
Q 42.625 36.28125 38.546875 41.203125 
Q 34.46875 46.140625 28.8125 46.140625 
Q 23.1875 46.140625 18.859375 40.890625 
Q 14.546875 35.640625 14.546875 25.640625 
z
" id="ArialMT-112"/>
      <path d="M 40.234375 0 
L 40.234375 6.546875 
Q 35.296875 -1.171875 25.734375 -1.171875 
Q 19.53125 -1.171875 14.328125 2.25 
Q 9.125 5.671875 6.265625 11.796875 
Q 3.421875 17.921875 3.421875 25.875 
Q 3.421875 33.640625 6 39.96875 
Q 8.59375 46.296875 13.765625 49.65625 
Q 18.953125 53.03125 25.34375 53.03125 
Q 30.03125 53.03125 33.6875 51.046875 
Q 37.359375 49.078125 39.65625 45.90625 
L 39.65625 71.578125 
L 48.390625 71.578125 
L 48.390625 0 
z
M 12.453125 25.875 
Q 12.453125 15.921875 16.640625 10.984375 
Q 20.84375 6.0625 26.5625 6.0625 
Q 32.328125 6.0625 36.34375 10.765625 
Q 40.375 15.484375 40.375 25.140625 
Q 40.375 35.796875 36.265625 40.765625 
Q 32.171875 45.75 26.171875 45.75 
Q 20.3125 45.75 16.375 40.96875 
Q 12.453125 36.1875 12.453125 25.875 
z
" id="ArialMT-100"/>
      <path d="M 9.078125 0 
L 9.078125 10.015625 
L 19.09375 10.015625 
L 19.09375 0 
z
" id="ArialMT-46"/>
     </defs>
     <g transform="translate(1378.824125 124.95795)scale(0.2 -0.2)">
      <use xlink:href="#ArialMT-112"/>
      <use x="55.615234" xlink:href="#ArialMT-114"/>
      <use x="88.916016" xlink:href="#ArialMT-101"/>
      <use x="144.53125" xlink:href="#ArialMT-100"/>
      <use x="200.146484" xlink:href="#ArialMT-46"/>
     </g>
    </g>
   </g>
  </g>
  <g id="axes_10">
   <g id="patch_48">
    <path d="M 1057.028125 672.3117 
L 1302.548125 672.3117 
L 1302.548125 458.754557 
L 1057.028125 458.754557 
z
" style="fill:#ffffff;"/>
   </g>
   <g id="matplotlib.axis_19">
    <g id="xtick_28">
     <g id="line2d_54">
      <g>
       <use style="stroke:#000000;stroke-width:0.8;" x="1081.943942" xlink:href="#mb2192e875a" y="672.3117"/>
      </g>
     </g>
     <g id="text_54">
      <!-- $0$ -->
      <g transform="translate(1074.943942 699.353575)scale(0.28 -0.28)">
       <use transform="translate(0 0.40625)" xlink:href="#STIXGeneral-Regular-48"/>
      </g>
     </g>
    </g>
    <g id="xtick_29">
     <g id="line2d_55">
      <g>
       <use style="stroke:#000000;stroke-width:0.8;" x="1179.788125" xlink:href="#mb2192e875a" y="672.3117"/>
      </g>
     </g>
     <g id="text_55">
      <!-- $\pi$ -->
      <g transform="translate(1172.648125 699.353575)scale(0.28 -0.28)">
       <use transform="translate(0 0.203125)" xlink:href="#STIXGeneral-Italic-960"/>
      </g>
     </g>
    </g>
    <g id="xtick_30">
     <g id="line2d_56">
      <g>
       <use style="stroke:#000000;stroke-width:0.8;" x="1277.632308" xlink:href="#mb2192e875a" y="672.3117"/>
      </g>
     </g>
     <g id="text_56">
      <!-- $2 \pi$ -->
      <g transform="translate(1263.492308 699.353575)scale(0.28 -0.28)">
       <use transform="translate(0 0.40625)" xlink:href="#STIXGeneral-Regular-50"/>
       <use transform="translate(49.999985 0.40625)" xlink:href="#STIXGeneral-Italic-960"/>
      </g>
     </g>
    </g>
    <g id="text_57">
     <!-- $\phi_3 - \phi_1 $ -->
     <g transform="translate(1137.508125 728.64545)scale(0.28 -0.28)">
      <use transform="translate(0 0.703125)" xlink:href="#STIXGeneral-Italic-981"/>
      <use transform="translate(62.699997 -12.525)scale(0.7)" xlink:href="#STIXGeneral-Regular-51"/>
      <use transform="translate(116.549358 0.703125)" xlink:href="#STIXGeneral-Regular-8722"/>
      <use transform="translate(199.489339 0.703125)" xlink:href="#STIXGeneral-Italic-981"/>
      <use transform="translate(262.189336 -12.525)scale(0.7)" xlink:href="#STIXGeneral-Regular-49"/>
     </g>
    </g>
   </g>
   <g id="matplotlib.axis_20"/>
   <g id="line2d_57">
    <path clip-path="url(#pea2765ccd5)" d="M 1081.943942 491.203953 
L 1088.691816 489.567328 
L 1095.439691 488.406657 
L 1102.187566 487.776213 
L 1108.935441 487.705474 
L 1115.683315 488.197747 
L 1122.43119 489.230016 
L 1129.179065 490.754011 
L 1135.926939 492.698472 
L 1142.674814 494.97248 
L 1149.422689 497.469703 
L 1156.170564 500.073374 
L 1162.918438 502.661749 
L 1169.666313 505.113798 
L 1176.414188 507.314865 
L 1183.162062 509.162032 
L 1189.909937 510.568927 
L 1196.657812 511.469766 
L 1203.405686 511.822425 
L 1210.153561 511.610415 
L 1216.901436 510.843649 
L 1223.649311 509.557981 
L 1230.397185 507.813526 
L 1237.14506 505.691854 
L 1243.892935 503.292172 
L 1250.640809 500.726686 
L 1257.388684 498.115355 
L 1264.136559 495.580282 
L 1270.884434 493.240005 
L 1277.632308 491.203953 
" style="fill:none;stroke:#000000;stroke-linecap:square;stroke-width:10;"/>
   </g>
   <g id="line2d_58">
    <path clip-path="url(#pea2765ccd5)" d="M 1081.943942 491.199873 
L 1088.691816 489.561422 
L 1095.439691 488.399046 
L 1102.187566 487.767097 
L 1108.935441 487.695124 
L 1115.683315 488.186492 
L 1122.43119 489.218226 
L 1129.179065 490.742083 
L 1135.926939 492.686808 
L 1142.674814 494.96147 
L 1149.422689 497.459706 
L 1156.170564 500.064703 
L 1162.918438 502.654654 
L 1169.666313 505.108455 
L 1176.414188 507.311369 
L 1183.162062 509.160391 
L 1189.909937 510.569062 
L 1196.657812 511.471515 
L 1203.405686 511.825552 
L 1210.153561 511.614618 
L 1216.901436 510.848576 
L 1223.649311 509.563246 
L 1230.397185 507.818728 
L 1237.14506 505.696595 
L 1243.892935 503.296074 
L 1250.640809 500.729411 
L 1257.388684 498.116621 
L 1264.136559 495.579875 
L 1270.884434 493.237788 
L 1277.632308 491.199873 
" style="fill:none;stroke:#0000ff;stroke-linecap:square;stroke-width:5;"/>
   </g>
   <g id="patch_49">
    <path d="M 1057.028125 672.3117 
L 1057.028125 458.754557 
" style="fill:none;stroke:#000000;stroke-linecap:square;stroke-linejoin:miter;stroke-width:0.8;"/>
   </g>
   <g id="patch_50">
    <path d="M 1302.548125 672.3117 
L 1302.548125 458.754557 
" style="fill:none;stroke:#000000;stroke-linecap:square;stroke-linejoin:miter;stroke-width:0.8;"/>
   </g>
   <g id="patch_51">
    <path d="M 1057.028125 672.3117 
L 1302.548125 672.3117 
" style="fill:none;stroke:#000000;stroke-linecap:square;stroke-linejoin:miter;stroke-width:0.8;"/>
   </g>
   <g id="patch_52">
    <path d="M 1057.028125 458.754557 
L 1302.548125 458.754557 
" style="fill:none;stroke:#000000;stroke-linecap:square;stroke-linejoin:miter;stroke-width:0.8;"/>
   </g>
   <g id="text_58">
    <!-- $t= 4.00~s$ -->
    <g transform="translate(1118.636125 415.653107)scale(0.336 -0.336)">
     <use transform="translate(0 0.40625)" xlink:href="#STIXGeneral-Italic-116"/>
     <use transform="translate(42.239984 0.40625)" xlink:href="#STIXGeneral-Regular-61"/>
     <use transform="translate(125.179965 0.40625)" xlink:href="#STIXGeneral-Regular-52"/>
     <use transform="translate(175.17995 0.40625)" xlink:href="#STIXGeneral-Regular-46"/>
     <use transform="translate(200.179935 0.40625)" xlink:href="#STIXGeneral-Regular-48"/>
     <use transform="translate(250.179919 0.40625)" xlink:href="#STIXGeneral-Regular-48"/>
     <use transform="translate(324.246324 0.40625)" xlink:href="#STIXGeneral-Italic-115"/>
    </g>
    <!-- (# Iteration:400) -->
    <g transform="translate(1061.1985 451.682807)scale(0.336 -0.336)">
     <use xlink:href="#ArialMT-40"/>
     <use x="33.300781" xlink:href="#ArialMT-35"/>
     <use x="88.916016" xlink:href="#ArialMT-32"/>
     <use x="116.699219" xlink:href="#ArialMT-73"/>
     <use x="144.482422" xlink:href="#ArialMT-116"/>
     <use x="172.265625" xlink:href="#ArialMT-101"/>
     <use x="227.880859" xlink:href="#ArialMT-114"/>
     <use x="261.181641" xlink:href="#ArialMT-97"/>
     <use x="316.796875" xlink:href="#ArialMT-116"/>
     <use x="344.580078" xlink:href="#ArialMT-105"/>
     <use x="366.796875" xlink:href="#ArialMT-111"/>
     <use x="422.412109" xlink:href="#ArialMT-110"/>
     <use x="478.027344" xlink:href="#ArialMT-58"/>
     <use x="505.810547" xlink:href="#ArialMT-52"/>
     <use x="561.425781" xlink:href="#ArialMT-48"/>
     <use x="617.041016" xlink:href="#ArialMT-48"/>
     <use x="672.65625" xlink:href="#ArialMT-41"/>
    </g>
   </g>
   <g id="legend_2">
    <g id="patch_53">
     <path d="M 1318.824125 521.335807 
L 1428.405375 521.335807 
Q 1432.405375 521.335807 1432.405375 517.335807 
L 1432.405375 462.754557 
Q 1432.405375 458.754557 1428.405375 458.754557 
L 1318.824125 458.754557 
Q 1314.824125 458.754557 1314.824125 462.754557 
L 1314.824125 517.335807 
Q 1314.824125 521.335807 1318.824125 521.335807 
z
" style="fill:#ffffff;opacity:0.8;stroke:#cccccc;stroke-linejoin:miter;"/>
    </g>
    <g id="line2d_59">
     <path d="M 1322.824125 474.070182 
L 1362.824125 474.070182 
" style="fill:none;stroke:#000000;stroke-linecap:square;stroke-width:10;"/>
    </g>
    <g id="line2d_60"/>
    <g id="text_59">
     <!-- true -->
     <g transform="translate(1378.824125 481.070182)scale(0.2 -0.2)">
      <use xlink:href="#ArialMT-116"/>
      <use x="27.783203" xlink:href="#ArialMT-114"/>
      <use x="61.083984" xlink:href="#ArialMT-117"/>
      <use x="116.699219" xlink:href="#ArialMT-101"/>
     </g>
    </g>
    <g id="line2d_61">
     <path d="M 1322.824125 502.360807 
L 1362.824125 502.360807 
" style="fill:none;stroke:#0000ff;stroke-linecap:square;stroke-width:5;"/>
    </g>
    <g id="line2d_62"/>
    <g id="text_60">
     <!-- pred. -->
     <g transform="translate(1378.824125 509.360807)scale(0.2 -0.2)">
      <use xlink:href="#ArialMT-112"/>
      <use x="55.615234" xlink:href="#ArialMT-114"/>
      <use x="88.916016" xlink:href="#ArialMT-101"/>
      <use x="144.53125" xlink:href="#ArialMT-100"/>
      <use x="200.146484" xlink:href="#ArialMT-46"/>
     </g>
    </g>
   </g>
  </g>
 </g>
 <defs>
  <clipPath id="p7da26f7516">
   <rect height="213.557143" width="245.52" x="74.948125" y="74.3517"/>
  </clipPath>
  <clipPath id="p094e0d53d3">
   <rect height="213.557143" width="245.52" x="74.948125" y="458.754557"/>
  </clipPath>
  <clipPath id="p104b25d5cd">
   <rect height="213.557143" width="245.52" x="320.468125" y="74.3517"/>
  </clipPath>
  <clipPath id="pdd84941583">
   <rect height="213.557143" width="245.52" x="320.468125" y="458.754557"/>
  </clipPath>
  <clipPath id="pf35f3a8c9f">
   <rect height="213.557143" width="245.52" x="565.988125" y="74.3517"/>
  </clipPath>
  <clipPath id="p1cc01edaf7">
   <rect height="213.557143" width="245.52" x="565.988125" y="458.754557"/>
  </clipPath>
  <clipPath id="pb25733e422">
   <rect height="213.557143" width="245.52" x="811.508125" y="74.3517"/>
  </clipPath>
  <clipPath id="p2035c6120d">
   <rect height="213.557143" width="245.52" x="811.508125" y="458.754557"/>
  </clipPath>
  <clipPath id="p21181db831">
   <rect height="213.557143" width="245.52" x="1057.028125" y="74.3517"/>
  </clipPath>
  <clipPath id="pea2765ccd5">
   <rect height="213.557143" width="245.52" x="1057.028125" y="458.754557"/>
  </clipPath>
 </defs>
</svg>
