<?xml version="1.0" encoding="utf-8" standalone="no"?>
<!DOCTYPE svg PUBLIC "-//W3C//DTD SVG 1.1//EN"
  "http://www.w3.org/Graphics/SVG/1.1/DTD/svg11.dtd">
<!-- Created with matplotlib (https://matplotlib.org/) -->
<svg height="376.908564pt" version="1.1" viewBox="0 0 455.426875 376.908564" width="455.426875pt" xmlns="http://www.w3.org/2000/svg" xmlns:xlink="http://www.w3.org/1999/xlink">
 <defs>
  <style type="text/css">
*{stroke-linecap:butt;stroke-linejoin:round;}
  </style>
 </defs>
 <g id="figure_1">
  <g id="patch_1">
   <path d="M 0 376.908564 
L 455.426875 376.908564 
L 455.426875 0 
L 0 0 
z
" style="fill:#ffffff;"/>
  </g>
  <g id="axes_1">
   <g id="patch_2">
    <path d="M 79.226875 255.36825 
L 302.426875 255.36825 
L 302.426875 37.92825 
L 79.226875 37.92825 
z
" style="fill:#ffffff;"/>
   </g>
   <g id="PolyCollection_1">
    <defs>
     <path d="M 124.129625 -143.657489 
L 118.719817 -143.657489 
L 118.286242 -143.720217 
L 117.800002 -143.782946 
L 117.257775 -143.845674 
L 116.656571 -143.908403 
L 115.993831 -143.971132 
L 115.267545 -144.03386 
L 114.476366 -144.096589 
L 113.619726 -144.159317 
L 112.697942 -144.222046 
L 111.712321 -144.284775 
L 110.665253 -144.347503 
L 109.560278 -144.410232 
L 108.402145 -144.47296 
L 107.196841 -144.535689 
L 105.951592 -144.598418 
L 104.674837 -144.661146 
L 103.376167 -144.723875 
L 102.066232 -144.786603 
L 100.756612 -144.849332 
L 99.459662 -144.912061 
L 98.188318 -144.974789 
L 96.95588 -145.037518 
L 95.775774 -145.100246 
L 94.661292 -145.162975 
L 93.625324 -145.225704 
L 92.68009 -145.288432 
L 91.836861 -145.351161 
L 91.105715 -145.413889 
L 90.495287 -145.476618 
L 90.012566 -145.539347 
L 89.662712 -145.602075 
L 89.448921 -145.664804 
L 89.37233 -145.727532 
L 89.43197 -145.790261 
L 89.624773 -145.852989 
L 89.945624 -145.915718 
L 90.387465 -145.978447 
L 90.94145 -146.041175 
L 91.597134 -146.103904 
L 92.342709 -146.166632 
L 93.165267 -146.229361 
L 94.051085 -146.29209 
L 94.985926 -146.354818 
L 95.955355 -146.417547 
L 96.94504 -146.480275 
L 97.941057 -146.543004 
L 98.93017 -146.605733 
L 99.900089 -146.668461 
L 100.839696 -146.73119 
L 101.739238 -146.793918 
L 102.590481 -146.856647 
L 103.386812 -146.919376 
L 104.123313 -146.982104 
L 104.796778 -147.044833 
L 105.405692 -147.107561 
L 105.950172 -147.17029 
L 106.431862 -147.233019 
L 106.853809 -147.295747 
L 107.220294 -147.358476 
L 107.536652 -147.421204 
L 107.809073 -147.483933 
L 108.044389 -147.546662 
L 108.249858 -147.60939 
L 108.432947 -147.672119 
L 108.601129 -147.734847 
L 108.76168 -147.797576 
L 108.921506 -147.860304 
L 109.086978 -147.923033 
L 109.263802 -147.985762 
L 109.456907 -148.04849 
L 109.670363 -148.111219 
L 109.907327 -148.173947 
L 110.170023 -148.236676 
L 110.459736 -148.299405 
L 110.776844 -148.362133 
L 111.120865 -148.424862 
L 111.490526 -148.48759 
L 111.883853 -148.550319 
L 112.298265 -148.613048 
L 112.730684 -148.675776 
L 113.177649 -148.738505 
L 113.63543 -148.801233 
L 114.100139 -148.863962 
L 114.567845 -148.926691 
L 115.034666 -148.989419 
L 115.496864 -149.052148 
L 115.950924 -149.114876 
L 116.393617 -149.177605 
L 116.822055 -149.240334 
L 117.233726 -149.303062 
L 117.626521 -149.365791 
L 117.998745 -149.428519 
L 118.349116 -149.491248 
L 118.676754 -149.553977 
L 118.981161 -149.616705 
L 119.262195 -149.679434 
L 119.520034 -149.742162 
L 119.755142 -149.804891 
L 119.968223 -149.86762 
L 122.881219 -149.86762 
L 122.881219 -149.86762 
L 123.0943 -149.804891 
L 123.329407 -149.742162 
L 123.587247 -149.679434 
L 123.868281 -149.616705 
L 124.172688 -149.553977 
L 124.500326 -149.491248 
L 124.850697 -149.428519 
L 125.222921 -149.365791 
L 125.615716 -149.303062 
L 126.027387 -149.240334 
L 126.455825 -149.177605 
L 126.898518 -149.114876 
L 127.352578 -149.052148 
L 127.814776 -148.989419 
L 128.281597 -148.926691 
L 128.749302 -148.863962 
L 129.214012 -148.801233 
L 129.671793 -148.738505 
L 130.118758 -148.675776 
L 130.551177 -148.613048 
L 130.965589 -148.550319 
L 131.358916 -148.48759 
L 131.728577 -148.424862 
L 132.072598 -148.362133 
L 132.389706 -148.299405 
L 132.679419 -148.236676 
L 132.942115 -148.173947 
L 133.179079 -148.111219 
L 133.392535 -148.04849 
L 133.585639 -147.985762 
L 133.762464 -147.923033 
L 133.927936 -147.860304 
L 134.087762 -147.797576 
L 134.248313 -147.734847 
L 134.416494 -147.672119 
L 134.599584 -147.60939 
L 134.805053 -147.546662 
L 135.040369 -147.483933 
L 135.31279 -147.421204 
L 135.629148 -147.358476 
L 135.995633 -147.295747 
L 136.417579 -147.233019 
L 136.89927 -147.17029 
L 137.44375 -147.107561 
L 138.052664 -147.044833 
L 138.726129 -146.982104 
L 139.46263 -146.919376 
L 140.258961 -146.856647 
L 141.110203 -146.793918 
L 142.009746 -146.73119 
L 142.949353 -146.668461 
L 143.919272 -146.605733 
L 144.908385 -146.543004 
L 145.904402 -146.480275 
L 146.894087 -146.417547 
L 147.863516 -146.354818 
L 148.798357 -146.29209 
L 149.684175 -146.229361 
L 150.506733 -146.166632 
L 151.252308 -146.103904 
L 151.907992 -146.041175 
L 152.461977 -145.978447 
L 152.903818 -145.915718 
L 153.224668 -145.852989 
L 153.417472 -145.790261 
L 153.477112 -145.727532 
L 153.400521 -145.664804 
L 153.18673 -145.602075 
L 152.836876 -145.539347 
L 152.354155 -145.476618 
L 151.743727 -145.413889 
L 151.01258 -145.351161 
L 150.169352 -145.288432 
L 149.224117 -145.225704 
L 148.18815 -145.162975 
L 147.073668 -145.100246 
L 145.893562 -145.037518 
L 144.661124 -144.974789 
L 143.38978 -144.912061 
L 142.09283 -144.849332 
L 140.78321 -144.786603 
L 139.473275 -144.723875 
L 138.174605 -144.661146 
L 136.89785 -144.598418 
L 135.652601 -144.535689 
L 134.447297 -144.47296 
L 133.289164 -144.410232 
L 132.184189 -144.347503 
L 131.13712 -144.284775 
L 130.1515 -144.222046 
L 129.229716 -144.159317 
L 128.373076 -144.096589 
L 127.581897 -144.03386 
L 126.855611 -143.971132 
L 126.192871 -143.908403 
L 125.591666 -143.845674 
L 125.04944 -143.782946 
L 124.5632 -143.720217 
L 124.129625 -143.657489 
z
" id="mdfbc261843" style="stroke:#4d4d4d;"/>
    </defs>
    <g clip-path="url(#pfdfe748493)">
     <use style="fill:#808080;stroke:#4d4d4d;" x="0" xlink:href="#mdfbc261843" y="376.908564"/>
    </g>
   </g>
   <g id="PolyCollection_2">
    <defs>
     <path d="M 202.075718 -217.057089 
L 201.035681 -217.057089 
L 200.95364 -217.256858 
L 200.861871 -217.456627 
L 200.759782 -217.656396 
L 200.646835 -217.856165 
L 200.52256 -218.055934 
L 200.386575 -218.255702 
L 200.238598 -218.455471 
L 200.078466 -218.65524 
L 199.906143 -218.855009 
L 199.721738 -219.054778 
L 199.525512 -219.254547 
L 199.317884 -219.454316 
L 199.099438 -219.654084 
L 198.870921 -219.853853 
L 198.63324 -220.053622 
L 198.387458 -220.253391 
L 198.13478 -220.45316 
L 197.876538 -220.652929 
L 197.614175 -220.852697 
L 197.349225 -221.052466 
L 197.083285 -221.252235 
L 196.817991 -221.452004 
L 196.55499 -221.651773 
L 196.295915 -221.851542 
L 196.042352 -222.05131 
L 195.795814 -222.251079 
L 195.557718 -222.450848 
L 195.329359 -222.650617 
L 195.111891 -222.850386 
L 194.906309 -223.050155 
L 194.713438 -223.249923 
L 194.533922 -223.449692 
L 194.368224 -223.649461 
L 194.216622 -223.84923 
L 194.079219 -224.048999 
L 193.955948 -224.248768 
L 193.846591 -224.448536 
L 193.750788 -224.648305 
L 193.668065 -224.848074 
L 193.597853 -225.047843 
L 193.539508 -225.247612 
L 193.492342 -225.447381 
L 193.455644 -225.647149 
L 193.428704 -225.846918 
L 193.410839 -226.046687 
L 193.401412 -226.246456 
L 193.399851 -226.446225 
L 193.405666 -226.645994 
L 193.41846 -226.845762 
L 193.437944 -227.045531 
L 193.463935 -227.2453 
L 193.496364 -227.445069 
L 193.53527 -227.644838 
L 193.580801 -227.844607 
L 193.633195 -228.044375 
L 193.69278 -228.244144 
L 193.759948 -228.443913 
L 193.835145 -228.643682 
L 193.918851 -228.843451 
L 194.011555 -229.04322 
L 194.113737 -229.242988 
L 194.225845 -229.442757 
L 194.348276 -229.642526 
L 194.481351 -229.842295 
L 194.625297 -230.042064 
L 194.780232 -230.241833 
L 194.946148 -230.441602 
L 195.1229 -230.64137 
L 195.3102 -230.841139 
L 195.507606 -231.040908 
L 195.714529 -231.240677 
L 195.930231 -231.440446 
L 196.153832 -231.640215 
L 196.384324 -231.839983 
L 196.620584 -232.039752 
L 196.861389 -232.239521 
L 197.105438 -232.43929 
L 197.351375 -232.639059 
L 197.59781 -232.838828 
L 197.843346 -233.038596 
L 198.086601 -233.238365 
L 198.326234 -233.438134 
L 198.560963 -233.637903 
L 198.789593 -233.837672 
L 199.011026 -234.037441 
L 199.224282 -234.237209 
L 199.42851 -234.436978 
L 199.622994 -234.636747 
L 199.807163 -234.836516 
L 199.980588 -235.036285 
L 200.142986 -235.236054 
L 200.294209 -235.435822 
L 200.434244 -235.635591 
L 200.563198 -235.83536 
L 200.68129 -236.035129 
L 200.788836 -236.234898 
L 200.886237 -236.434667 
L 200.973964 -236.634435 
L 201.052541 -236.834204 
L 202.058857 -236.834204 
L 202.058857 -236.834204 
L 202.137435 -236.634435 
L 202.225162 -236.434667 
L 202.322563 -236.234898 
L 202.430109 -236.035129 
L 202.548201 -235.83536 
L 202.677155 -235.635591 
L 202.81719 -235.435822 
L 202.968413 -235.236054 
L 203.13081 -235.036285 
L 203.304236 -234.836516 
L 203.488405 -234.636747 
L 203.682889 -234.436978 
L 203.887117 -234.237209 
L 204.100373 -234.037441 
L 204.321806 -233.837672 
L 204.550436 -233.637903 
L 204.785165 -233.438134 
L 205.024798 -233.238365 
L 205.268053 -233.038596 
L 205.513589 -232.838828 
L 205.760024 -232.639059 
L 206.005961 -232.43929 
L 206.25001 -232.239521 
L 206.490815 -232.039752 
L 206.727074 -231.839983 
L 206.957567 -231.640215 
L 207.181168 -231.440446 
L 207.39687 -231.240677 
L 207.603793 -231.040908 
L 207.801199 -230.841139 
L 207.988499 -230.64137 
L 208.165251 -230.441602 
L 208.331167 -230.241833 
L 208.486102 -230.042064 
L 208.630048 -229.842295 
L 208.763122 -229.642526 
L 208.885553 -229.442757 
L 208.997662 -229.242988 
L 209.099844 -229.04322 
L 209.192548 -228.843451 
L 209.276253 -228.643682 
L 209.351451 -228.443913 
L 209.418619 -228.244144 
L 209.478204 -228.044375 
L 209.530598 -227.844607 
L 209.576128 -227.644838 
L 209.615035 -227.445069 
L 209.647464 -227.2453 
L 209.673455 -227.045531 
L 209.692938 -226.845762 
L 209.705733 -226.645994 
L 209.711548 -226.446225 
L 209.709986 -226.246456 
L 209.700559 -226.046687 
L 209.682695 -225.846918 
L 209.655755 -225.647149 
L 209.619057 -225.447381 
L 209.571891 -225.247612 
L 209.513546 -225.047843 
L 209.443333 -224.848074 
L 209.360611 -224.648305 
L 209.264808 -224.448536 
L 209.15545 -224.248768 
L 209.03218 -224.048999 
L 208.894777 -223.84923 
L 208.743175 -223.649461 
L 208.577477 -223.449692 
L 208.397961 -223.249923 
L 208.20509 -223.050155 
L 207.999508 -222.850386 
L 207.78204 -222.650617 
L 207.553681 -222.450848 
L 207.315585 -222.251079 
L 207.069047 -222.05131 
L 206.815484 -221.851542 
L 206.556408 -221.651773 
L 206.293408 -221.452004 
L 206.028114 -221.252235 
L 205.762173 -221.052466 
L 205.497223 -220.852697 
L 205.234861 -220.652929 
L 204.976619 -220.45316 
L 204.72394 -220.253391 
L 204.478159 -220.053622 
L 204.240478 -219.853853 
L 204.011961 -219.654084 
L 203.793515 -219.454316 
L 203.585887 -219.254547 
L 203.38966 -219.054778 
L 203.205256 -218.855009 
L 203.032933 -218.65524 
L 202.8728 -218.455471 
L 202.724824 -218.255702 
L 202.588839 -218.055934 
L 202.464564 -217.856165 
L 202.351617 -217.656396 
L 202.249528 -217.456627 
L 202.157759 -217.256858 
L 202.075718 -217.057089 
z
" id="mf3f1a0de7c" style="stroke:#4d4d4d;"/>
    </defs>
    <g clip-path="url(#pfdfe748493)">
     <use style="fill:#808080;stroke:#4d4d4d;" x="0" xlink:href="#mf3f1a0de7c" y="376.908564"/>
    </g>
   </g>
   <g id="PolyCollection_3">
    <defs>
     <path d="M 282.741583 -201.365558 
L 280.631773 -201.365558 
L 280.474565 -201.535051 
L 280.300268 -201.704543 
L 280.108105 -201.874035 
L 279.897442 -202.043528 
L 279.667813 -202.21302 
L 279.418952 -202.382512 
L 279.150821 -202.552004 
L 278.863633 -202.721497 
L 278.557875 -202.890989 
L 278.234328 -203.060481 
L 277.894076 -203.229974 
L 277.538513 -203.399466 
L 277.169347 -203.568958 
L 276.78859 -203.73845 
L 276.398542 -203.907943 
L 276.001773 -204.077435 
L 275.60109 -204.246927 
L 275.199501 -204.41642 
L 274.800173 -204.585912 
L 274.406382 -204.755404 
L 274.02146 -204.924896 
L 273.648741 -205.094389 
L 273.291497 -205.263881 
L 272.952885 -205.433373 
L 272.635885 -205.602866 
L 272.343249 -205.772358 
L 272.077446 -205.94185 
L 271.840623 -206.111343 
L 271.63456 -206.280835 
L 271.460641 -206.450327 
L 271.319834 -206.619819 
L 271.212675 -206.789312 
L 271.139263 -206.958804 
L 271.099267 -207.128296 
L 271.091935 -207.297789 
L 271.11612 -207.467281 
L 271.170304 -207.636773 
L 271.252638 -207.806265 
L 271.360981 -207.975758 
L 271.492947 -208.14525 
L 271.645955 -208.314742 
L 271.817279 -208.484235 
L 272.004104 -208.653727 
L 272.203576 -208.823219 
L 272.412859 -208.992712 
L 272.629183 -209.162204 
L 272.849891 -209.331696 
L 273.072487 -209.501188 
L 273.294671 -209.670681 
L 273.514378 -209.840173 
L 273.729804 -210.009665 
L 273.939431 -210.179158 
L 274.142042 -210.34865 
L 274.336731 -210.518142 
L 274.522907 -210.687634 
L 274.700287 -210.857127 
L 274.868885 -211.026619 
L 275.028998 -211.196111 
L 275.181177 -211.365604 
L 275.326202 -211.535096 
L 275.465045 -211.704588 
L 275.598832 -211.87408 
L 275.728805 -212.043573 
L 275.856276 -212.213065 
L 275.982585 -212.382557 
L 276.109057 -212.55205 
L 276.23696 -212.721542 
L 276.367469 -212.891034 
L 276.50163 -213.060527 
L 276.640331 -213.230019 
L 276.784279 -213.399511 
L 276.93398 -213.569003 
L 277.089731 -213.738496 
L 277.251614 -213.907988 
L 277.419497 -214.07748 
L 277.593044 -214.246973 
L 277.771729 -214.416465 
L 277.954856 -214.585957 
L 278.141578 -214.755449 
L 278.330929 -214.924942 
L 278.521851 -215.094434 
L 278.713222 -215.263926 
L 278.903889 -215.433419 
L 279.092697 -215.602911 
L 279.278515 -215.772403 
L 279.460265 -215.941895 
L 279.636942 -216.111388 
L 279.807632 -216.28088 
L 279.971531 -216.450372 
L 280.127952 -216.619865 
L 280.276335 -216.789357 
L 280.41625 -216.958849 
L 280.547394 -217.128342 
L 280.669593 -217.297834 
L 280.782789 -217.467326 
L 280.887036 -217.636818 
L 280.982489 -217.806311 
L 281.069389 -217.975803 
L 281.148052 -218.145295 
L 282.225303 -218.145295 
L 282.225303 -218.145295 
L 282.303967 -217.975803 
L 282.390867 -217.806311 
L 282.486319 -217.636818 
L 282.590567 -217.467326 
L 282.703763 -217.297834 
L 282.825961 -217.128342 
L 282.957106 -216.958849 
L 283.09702 -216.789357 
L 283.245404 -216.619865 
L 283.401825 -216.450372 
L 283.565723 -216.28088 
L 283.736414 -216.111388 
L 283.913091 -215.941895 
L 284.094841 -215.772403 
L 284.280659 -215.602911 
L 284.469467 -215.433419 
L 284.660134 -215.263926 
L 284.851505 -215.094434 
L 285.042427 -214.924942 
L 285.231778 -214.755449 
L 285.4185 -214.585957 
L 285.601627 -214.416465 
L 285.780312 -214.246973 
L 285.953859 -214.07748 
L 286.121742 -213.907988 
L 286.283625 -213.738496 
L 286.439376 -213.569003 
L 286.589077 -213.399511 
L 286.733025 -213.230019 
L 286.871726 -213.060527 
L 287.005887 -212.891034 
L 287.136396 -212.721542 
L 287.264299 -212.55205 
L 287.390771 -212.382557 
L 287.51708 -212.213065 
L 287.644551 -212.043573 
L 287.774524 -211.87408 
L 287.908311 -211.704588 
L 288.047154 -211.535096 
L 288.192179 -211.365604 
L 288.344358 -211.196111 
L 288.504471 -211.026619 
L 288.673069 -210.857127 
L 288.850449 -210.687634 
L 289.036624 -210.518142 
L 289.231314 -210.34865 
L 289.433925 -210.179158 
L 289.643552 -210.009665 
L 289.858978 -209.840173 
L 290.078685 -209.670681 
L 290.300869 -209.501188 
L 290.523465 -209.331696 
L 290.744173 -209.162204 
L 290.960497 -208.992712 
L 291.16978 -208.823219 
L 291.369252 -208.653727 
L 291.556076 -208.484235 
L 291.727401 -208.314742 
L 291.880408 -208.14525 
L 292.012375 -207.975758 
L 292.120718 -207.806265 
L 292.203052 -207.636773 
L 292.257236 -207.467281 
L 292.28142 -207.297789 
L 292.274089 -207.128296 
L 292.234093 -206.958804 
L 292.160681 -206.789312 
L 292.053522 -206.619819 
L 291.912715 -206.450327 
L 291.738796 -206.280835 
L 291.532732 -206.111343 
L 291.295909 -205.94185 
L 291.030107 -205.772358 
L 290.737471 -205.602866 
L 290.420471 -205.433373 
L 290.081859 -205.263881 
L 289.724615 -205.094389 
L 289.351895 -204.924896 
L 288.966974 -204.755404 
L 288.573183 -204.585912 
L 288.173855 -204.41642 
L 287.772266 -204.246927 
L 287.371582 -204.077435 
L 286.974813 -203.907943 
L 286.584766 -203.73845 
L 286.204008 -203.568958 
L 285.834843 -203.399466 
L 285.47928 -203.229974 
L 285.139027 -203.060481 
L 284.81548 -202.890989 
L 284.509723 -202.721497 
L 284.222535 -202.552004 
L 283.954404 -202.382512 
L 283.705543 -202.21302 
L 283.475914 -202.043528 
L 283.265251 -201.874035 
L 283.073088 -201.704543 
L 282.898791 -201.535051 
L 282.741583 -201.365558 
z
" id="mad98c58d90" style="stroke:#4d4d4d;"/>
    </defs>
    <g clip-path="url(#pfdfe748493)">
     <use style="fill:#808080;stroke:#4d4d4d;" x="0" xlink:href="#mad98c58d90" y="376.908564"/>
    </g>
   </g>
   <g id="PathCollection_1">
    <defs>
     <path d="M 0 3 
C 0.795609 3 1.55874 2.683901 2.12132 2.12132 
C 2.683901 1.55874 3 0.795609 3 0 
C 3 -0.795609 2.683901 -1.55874 2.12132 -2.12132 
C 1.55874 -2.683901 0.795609 -3 0 -3 
C -0.795609 -3 -1.55874 -2.683901 -2.12132 -2.12132 
C -2.683901 -1.55874 -3 -0.795609 -3 0 
C -3 0.795609 -2.683901 1.55874 -2.12132 2.12132 
C -1.55874 2.683901 -0.795609 3 0 3 
z
" id="ma0ce8b1abb" style="stroke:#1f77b4;"/>
    </defs>
    <g clip-path="url(#pfdfe748493)">
     <use style="fill:#1f77b4;stroke:#1f77b4;" x="121.424721" xlink:href="#ma0ce8b1abb" y="228.848568"/>
     <use style="fill:#1f77b4;stroke:#1f77b4;" x="201.555699" xlink:href="#ma0ce8b1abb" y="145.69309"/>
     <use style="fill:#1f77b4;stroke:#1f77b4;" x="281.686678" xlink:href="#ma0ce8b1abb" y="163.68846"/>
    </g>
   </g>
   <g id="PathCollection_2">
    <defs>
     <path d="M 0 3 
C 0.795609 3 1.55874 2.683901 2.12132 2.12132 
C 2.683901 1.55874 3 0.795609 3 0 
C 3 -0.795609 2.683901 -1.55874 2.12132 -2.12132 
C 1.55874 -2.683901 0.795609 -3 0 -3 
C -0.795609 -3 -1.55874 -2.683901 -2.12132 -2.12132 
C -2.683901 -1.55874 -3 -0.795609 -3 0 
C -3 0.795609 -2.683901 1.55874 -2.12132 2.12132 
C -1.55874 2.683901 -0.795609 3 0 3 
z
" id="m8a863939de" style="stroke:#ff7f0e;"/>
    </defs>
    <g clip-path="url(#pfdfe748493)">
     <use style="fill:#ff7f0e;stroke:#ff7f0e;" x="121.424721" xlink:href="#m8a863939de" y="231.031844"/>
     <use style="fill:#ff7f0e;stroke:#ff7f0e;" x="201.555699" xlink:href="#m8a863939de" y="148.610157"/>
     <use style="fill:#ff7f0e;stroke:#ff7f0e;" x="281.686678" xlink:href="#m8a863939de" y="167.848473"/>
    </g>
   </g>
   <g id="PathCollection_3">
    <defs>
     <path d="M 0 3 
C 0.795609 3 1.55874 2.683901 2.12132 2.12132 
C 2.683901 1.55874 3 0.795609 3 0 
C 3 -0.795609 2.683901 -1.55874 2.12132 -2.12132 
C 1.55874 -2.683901 0.795609 -3 0 -3 
C -0.795609 -3 -1.55874 -2.683901 -2.12132 -2.12132 
C -2.683901 -1.55874 -3 -0.795609 -3 0 
C -3 0.795609 -2.683901 1.55874 -2.12132 2.12132 
C -1.55874 2.683901 -0.795609 3 0 3 
z
" id="m262f563850" style="stroke:#2ca02c;"/>
    </defs>
    <g clip-path="url(#pfdfe748493)">
     <use style="fill:#2ca02c;stroke:#2ca02c;" x="121.424721" xlink:href="#m262f563850" y="231.150226"/>
     <use style="fill:#2ca02c;stroke:#2ca02c;" x="201.555699" xlink:href="#m262f563850" y="151.685254"/>
     <use style="fill:#2ca02c;stroke:#2ca02c;" x="281.686678" xlink:href="#m262f563850" y="170.514515"/>
    </g>
   </g>
   <g id="PathCollection_4">
    <defs>
     <path d="M 0 3 
C 0.795609 3 1.55874 2.683901 2.12132 2.12132 
C 2.683901 1.55874 3 0.795609 3 0 
C 3 -0.795609 2.683901 -1.55874 2.12132 -2.12132 
C 1.55874 -2.683901 0.795609 -3 0 -3 
C -0.795609 -3 -1.55874 -2.683901 -2.12132 -2.12132 
C -2.683901 -1.55874 -3 -0.795609 -3 0 
C -3 0.795609 -2.683901 1.55874 -2.12132 2.12132 
C -1.55874 2.683901 -0.795609 3 0 3 
z
" id="mdadaf20880" style="stroke:#d62728;"/>
    </defs>
    <g clip-path="url(#pfdfe748493)">
     <use style="fill:#d62728;stroke:#d62728;" x="121.424721" xlink:href="#mdadaf20880" y="231.443451"/>
     <use style="fill:#d62728;stroke:#d62728;" x="201.555699" xlink:href="#mdadaf20880" y="154.232744"/>
     <use style="fill:#d62728;stroke:#d62728;" x="281.686678" xlink:href="#mdadaf20880" y="170.617814"/>
    </g>
   </g>
   <g id="matplotlib.axis_1">
    <g id="xtick_1">
     <g id="line2d_1">
      <defs>
       <path d="M 0 0 
L 0 -3.5 
" id="mec90ae63f8" style="stroke:#000000;stroke-width:0.8;"/>
      </defs>
      <g>
       <use style="stroke:#000000;stroke-width:0.8;" x="121.424721" xlink:href="#mec90ae63f8" y="255.36825"/>
      </g>
     </g>
     <g id="text_1">
      <!-- segment 1 -->
      <defs>
       <path d="M 3.078125 15.484375 
L 11.765625 16.84375 
Q 12.5 11.625 15.84375 8.84375 
Q 19.1875 6.0625 25.203125 6.0625 
Q 31.25 6.0625 34.171875 8.515625 
Q 37.109375 10.984375 37.109375 14.3125 
Q 37.109375 17.28125 34.515625 19 
Q 32.71875 20.171875 25.53125 21.96875 
Q 15.875 24.421875 12.140625 26.203125 
Q 8.40625 27.984375 6.46875 31.125 
Q 4.546875 34.28125 4.546875 38.09375 
Q 4.546875 41.546875 6.125 44.5 
Q 7.71875 47.46875 10.453125 49.421875 
Q 12.5 50.921875 16.03125 51.96875 
Q 19.578125 53.03125 23.640625 53.03125 
Q 29.734375 53.03125 34.34375 51.265625 
Q 38.96875 49.515625 41.15625 46.5 
Q 43.359375 43.5 44.1875 38.484375 
L 35.59375 37.3125 
Q 35.015625 41.3125 32.203125 43.546875 
Q 29.390625 45.796875 24.265625 45.796875 
Q 18.21875 45.796875 15.625 43.796875 
Q 13.03125 41.796875 13.03125 39.109375 
Q 13.03125 37.40625 14.109375 36.03125 
Q 15.1875 34.625 17.484375 33.6875 
Q 18.796875 33.203125 25.25 31.453125 
Q 34.578125 28.953125 38.25 27.359375 
Q 41.9375 25.78125 44.03125 22.75 
Q 46.140625 19.734375 46.140625 15.234375 
Q 46.140625 10.84375 43.578125 6.953125 
Q 41.015625 3.078125 36.171875 0.953125 
Q 31.34375 -1.171875 25.25 -1.171875 
Q 15.140625 -1.171875 9.84375 3.03125 
Q 4.546875 7.234375 3.078125 15.484375 
z
" id="ArialMT-115"/>
       <path d="M 42.09375 16.703125 
L 51.171875 15.578125 
Q 49.03125 7.625 43.21875 3.21875 
Q 37.40625 -1.171875 28.375 -1.171875 
Q 17 -1.171875 10.328125 5.828125 
Q 3.65625 12.84375 3.65625 25.484375 
Q 3.65625 38.578125 10.390625 45.796875 
Q 17.140625 53.03125 27.875 53.03125 
Q 38.28125 53.03125 44.875 45.953125 
Q 51.46875 38.875 51.46875 26.03125 
Q 51.46875 25.25 51.421875 23.6875 
L 12.75 23.6875 
Q 13.234375 15.140625 17.578125 10.59375 
Q 21.921875 6.0625 28.421875 6.0625 
Q 33.25 6.0625 36.671875 8.59375 
Q 40.09375 11.140625 42.09375 16.703125 
z
M 13.234375 30.90625 
L 42.1875 30.90625 
Q 41.609375 37.453125 38.875 40.71875 
Q 34.671875 45.796875 27.984375 45.796875 
Q 21.921875 45.796875 17.796875 41.75 
Q 13.671875 37.703125 13.234375 30.90625 
z
" id="ArialMT-101"/>
       <path d="M 4.984375 -4.296875 
L 13.53125 -5.5625 
Q 14.0625 -9.515625 16.5 -11.328125 
Q 19.78125 -13.765625 25.4375 -13.765625 
Q 31.546875 -13.765625 34.859375 -11.328125 
Q 38.1875 -8.890625 39.359375 -4.5 
Q 40.046875 -1.8125 39.984375 6.78125 
Q 34.234375 0 25.640625 0 
Q 14.9375 0 9.078125 7.71875 
Q 3.21875 15.4375 3.21875 26.21875 
Q 3.21875 33.640625 5.90625 39.90625 
Q 8.59375 46.1875 13.6875 49.609375 
Q 18.796875 53.03125 25.6875 53.03125 
Q 34.859375 53.03125 40.828125 45.609375 
L 40.828125 51.859375 
L 48.921875 51.859375 
L 48.921875 7.03125 
Q 48.921875 -5.078125 46.453125 -10.125 
Q 44 -15.1875 38.640625 -18.109375 
Q 33.296875 -21.046875 25.484375 -21.046875 
Q 16.21875 -21.046875 10.5 -16.875 
Q 4.78125 -12.703125 4.984375 -4.296875 
z
M 12.25 26.859375 
Q 12.25 16.65625 16.296875 11.96875 
Q 20.359375 7.28125 26.46875 7.28125 
Q 32.515625 7.28125 36.609375 11.9375 
Q 40.71875 16.609375 40.71875 26.5625 
Q 40.71875 36.078125 36.5 40.90625 
Q 32.28125 45.75 26.3125 45.75 
Q 20.453125 45.75 16.34375 40.984375 
Q 12.25 36.234375 12.25 26.859375 
z
" id="ArialMT-103"/>
       <path d="M 6.59375 0 
L 6.59375 51.859375 
L 14.453125 51.859375 
L 14.453125 44.578125 
Q 16.890625 48.390625 20.9375 50.703125 
Q 25 53.03125 30.171875 53.03125 
Q 35.9375 53.03125 39.625 50.640625 
Q 43.3125 48.25 44.828125 43.953125 
Q 50.984375 53.03125 60.84375 53.03125 
Q 68.5625 53.03125 72.703125 48.75 
Q 76.859375 44.484375 76.859375 35.59375 
L 76.859375 0 
L 68.109375 0 
L 68.109375 32.671875 
Q 68.109375 37.9375 67.25 40.25 
Q 66.40625 42.578125 64.15625 43.984375 
Q 61.921875 45.40625 58.890625 45.40625 
Q 53.421875 45.40625 49.796875 41.765625 
Q 46.1875 38.140625 46.1875 30.125 
L 46.1875 0 
L 37.40625 0 
L 37.40625 33.6875 
Q 37.40625 39.546875 35.25 42.46875 
Q 33.109375 45.40625 28.21875 45.40625 
Q 24.515625 45.40625 21.359375 43.453125 
Q 18.21875 41.5 16.796875 37.734375 
Q 15.375 33.984375 15.375 26.90625 
L 15.375 0 
z
" id="ArialMT-109"/>
       <path d="M 6.59375 0 
L 6.59375 51.859375 
L 14.5 51.859375 
L 14.5 44.484375 
Q 20.21875 53.03125 31 53.03125 
Q 35.6875 53.03125 39.625 51.34375 
Q 43.5625 49.65625 45.515625 46.921875 
Q 47.46875 44.1875 48.25 40.4375 
Q 48.734375 37.984375 48.734375 31.890625 
L 48.734375 0 
L 39.9375 0 
L 39.9375 31.546875 
Q 39.9375 36.921875 38.90625 39.578125 
Q 37.890625 42.234375 35.28125 43.8125 
Q 32.671875 45.40625 29.15625 45.40625 
Q 23.53125 45.40625 19.453125 41.84375 
Q 15.375 38.28125 15.375 28.328125 
L 15.375 0 
z
" id="ArialMT-110"/>
       <path d="M 25.78125 7.859375 
L 27.046875 0.09375 
Q 23.34375 -0.6875 20.40625 -0.6875 
Q 15.625 -0.6875 12.984375 0.828125 
Q 10.359375 2.34375 9.28125 4.8125 
Q 8.203125 7.28125 8.203125 15.1875 
L 8.203125 45.015625 
L 1.765625 45.015625 
L 1.765625 51.859375 
L 8.203125 51.859375 
L 8.203125 64.703125 
L 16.9375 69.96875 
L 16.9375 51.859375 
L 25.78125 51.859375 
L 25.78125 45.015625 
L 16.9375 45.015625 
L 16.9375 14.703125 
Q 16.9375 10.9375 17.40625 9.859375 
Q 17.875 8.796875 18.921875 8.15625 
Q 19.96875 7.515625 21.921875 7.515625 
Q 23.390625 7.515625 25.78125 7.859375 
z
" id="ArialMT-116"/>
       <path id="ArialMT-32"/>
       <path d="M 37.25 0 
L 28.46875 0 
L 28.46875 56 
Q 25.296875 52.984375 20.140625 49.953125 
Q 14.984375 46.921875 10.890625 45.40625 
L 10.890625 53.90625 
Q 18.265625 57.375 23.78125 62.296875 
Q 29.296875 67.234375 31.59375 71.875 
L 37.25 71.875 
z
" id="ArialMT-49"/>
      </defs>
      <g transform="translate(80.235088 365.541495)rotate(-45)scale(0.28 -0.28)">
       <use xlink:href="#ArialMT-115"/>
       <use x="50" xlink:href="#ArialMT-101"/>
       <use x="105.615234" xlink:href="#ArialMT-103"/>
       <use x="161.230469" xlink:href="#ArialMT-109"/>
       <use x="244.53125" xlink:href="#ArialMT-101"/>
       <use x="300.146484" xlink:href="#ArialMT-110"/>
       <use x="355.761719" xlink:href="#ArialMT-116"/>
       <use x="383.544922" xlink:href="#ArialMT-32"/>
       <use x="411.328125" xlink:href="#ArialMT-49"/>
      </g>
     </g>
    </g>
    <g id="xtick_2">
     <g id="line2d_2">
      <g>
       <use style="stroke:#000000;stroke-width:0.8;" x="201.555699" xlink:href="#mec90ae63f8" y="255.36825"/>
      </g>
     </g>
     <g id="text_2">
      <!-- segment 2 -->
      <defs>
       <path d="M 50.34375 8.453125 
L 50.34375 0 
L 3.03125 0 
Q 2.9375 3.171875 4.046875 6.109375 
Q 5.859375 10.9375 9.828125 15.625 
Q 13.8125 20.3125 21.34375 26.46875 
Q 33.015625 36.03125 37.109375 41.625 
Q 41.21875 47.21875 41.21875 52.203125 
Q 41.21875 57.421875 37.46875 61 
Q 33.734375 64.59375 27.734375 64.59375 
Q 21.390625 64.59375 17.578125 60.78125 
Q 13.765625 56.984375 13.71875 50.25 
L 4.6875 51.171875 
Q 5.609375 61.28125 11.65625 66.578125 
Q 17.71875 71.875 27.9375 71.875 
Q 38.234375 71.875 44.234375 66.15625 
Q 50.25 60.453125 50.25 52 
Q 50.25 47.703125 48.484375 43.546875 
Q 46.734375 39.40625 42.65625 34.8125 
Q 38.578125 30.21875 29.109375 22.21875 
Q 21.1875 15.578125 18.9375 13.203125 
Q 16.703125 10.84375 15.234375 8.453125 
z
" id="ArialMT-50"/>
      </defs>
      <g transform="translate(160.366067 365.541495)rotate(-45)scale(0.28 -0.28)">
       <use xlink:href="#ArialMT-115"/>
       <use x="50" xlink:href="#ArialMT-101"/>
       <use x="105.615234" xlink:href="#ArialMT-103"/>
       <use x="161.230469" xlink:href="#ArialMT-109"/>
       <use x="244.53125" xlink:href="#ArialMT-101"/>
       <use x="300.146484" xlink:href="#ArialMT-110"/>
       <use x="355.761719" xlink:href="#ArialMT-116"/>
       <use x="383.544922" xlink:href="#ArialMT-32"/>
       <use x="411.328125" xlink:href="#ArialMT-50"/>
      </g>
     </g>
    </g>
    <g id="xtick_3">
     <g id="line2d_3">
      <g>
       <use style="stroke:#000000;stroke-width:0.8;" x="281.686678" xlink:href="#mec90ae63f8" y="255.36825"/>
      </g>
     </g>
     <g id="text_3">
      <!-- segment 3 -->
      <defs>
       <path d="M 4.203125 18.890625 
L 12.984375 20.0625 
Q 14.5 12.59375 18.140625 9.296875 
Q 21.78125 6 27 6 
Q 33.203125 6 37.46875 10.296875 
Q 41.75 14.59375 41.75 20.953125 
Q 41.75 27 37.796875 30.921875 
Q 33.84375 34.859375 27.734375 34.859375 
Q 25.25 34.859375 21.53125 33.890625 
L 22.515625 41.609375 
Q 23.390625 41.5 23.921875 41.5 
Q 29.546875 41.5 34.03125 44.421875 
Q 38.53125 47.359375 38.53125 53.46875 
Q 38.53125 58.296875 35.25 61.46875 
Q 31.984375 64.65625 26.8125 64.65625 
Q 21.6875 64.65625 18.265625 61.421875 
Q 14.84375 58.203125 13.875 51.765625 
L 5.078125 53.328125 
Q 6.6875 62.15625 12.390625 67.015625 
Q 18.109375 71.875 26.609375 71.875 
Q 32.46875 71.875 37.390625 69.359375 
Q 42.328125 66.84375 44.9375 62.5 
Q 47.5625 58.15625 47.5625 53.265625 
Q 47.5625 48.640625 45.0625 44.828125 
Q 42.578125 41.015625 37.703125 38.765625 
Q 44.046875 37.3125 47.5625 32.6875 
Q 51.078125 28.078125 51.078125 21.140625 
Q 51.078125 11.765625 44.234375 5.25 
Q 37.40625 -1.265625 26.953125 -1.265625 
Q 17.53125 -1.265625 11.296875 4.34375 
Q 5.078125 9.96875 4.203125 18.890625 
z
" id="ArialMT-51"/>
      </defs>
      <g transform="translate(240.497045 365.541495)rotate(-45)scale(0.28 -0.28)">
       <use xlink:href="#ArialMT-115"/>
       <use x="50" xlink:href="#ArialMT-101"/>
       <use x="105.615234" xlink:href="#ArialMT-103"/>
       <use x="161.230469" xlink:href="#ArialMT-109"/>
       <use x="244.53125" xlink:href="#ArialMT-101"/>
       <use x="300.146484" xlink:href="#ArialMT-110"/>
       <use x="355.761719" xlink:href="#ArialMT-116"/>
       <use x="383.544922" xlink:href="#ArialMT-32"/>
       <use x="411.328125" xlink:href="#ArialMT-51"/>
      </g>
     </g>
    </g>
   </g>
   <g id="matplotlib.axis_2">
    <g id="ytick_1">
     <g id="line2d_4">
      <defs>
       <path d="M 0 0 
L 3.5 0 
" id="ma55997bd41" style="stroke:#000000;stroke-width:0.8;"/>
      </defs>
      <g>
       <use style="stroke:#000000;stroke-width:0.8;" x="79.226875" xlink:href="#ma55997bd41" y="235.600977"/>
      </g>
     </g>
     <g id="text_4">
      <!-- 0.0 -->
      <defs>
       <path d="M 4.15625 35.296875 
Q 4.15625 48 6.765625 55.734375 
Q 9.375 63.484375 14.515625 67.671875 
Q 19.671875 71.875 27.484375 71.875 
Q 33.25 71.875 37.59375 69.546875 
Q 41.9375 67.234375 44.765625 62.859375 
Q 47.609375 58.5 49.21875 52.21875 
Q 50.828125 45.953125 50.828125 35.296875 
Q 50.828125 22.703125 48.234375 14.96875 
Q 45.65625 7.234375 40.5 3 
Q 35.359375 -1.21875 27.484375 -1.21875 
Q 17.140625 -1.21875 11.234375 6.203125 
Q 4.15625 15.140625 4.15625 35.296875 
z
M 13.1875 35.296875 
Q 13.1875 17.671875 17.3125 11.828125 
Q 21.4375 6 27.484375 6 
Q 33.546875 6 37.671875 11.859375 
Q 41.796875 17.71875 41.796875 35.296875 
Q 41.796875 52.984375 37.671875 58.78125 
Q 33.546875 64.59375 27.390625 64.59375 
Q 21.34375 64.59375 17.71875 59.46875 
Q 13.1875 52.9375 13.1875 35.296875 
z
" id="ArialMT-48"/>
       <path d="M 9.078125 0 
L 9.078125 10.015625 
L 19.09375 10.015625 
L 19.09375 0 
z
" id="ArialMT-46"/>
      </defs>
      <g transform="translate(36.806875 245.621915)scale(0.28 -0.28)">
       <use xlink:href="#ArialMT-48"/>
       <use x="55.615234" xlink:href="#ArialMT-46"/>
       <use x="83.398438" xlink:href="#ArialMT-48"/>
      </g>
     </g>
    </g>
    <g id="ytick_2">
     <g id="line2d_5">
      <g>
       <use style="stroke:#000000;stroke-width:0.8;" x="79.226875" xlink:href="#ma55997bd41" y="136.764614"/>
      </g>
     </g>
     <g id="text_5">
      <!-- 0.5 -->
      <defs>
       <path d="M 4.15625 18.75 
L 13.375 19.53125 
Q 14.40625 12.796875 18.140625 9.390625 
Q 21.875 6 27.15625 6 
Q 33.5 6 37.890625 10.78125 
Q 42.28125 15.578125 42.28125 23.484375 
Q 42.28125 31 38.0625 35.34375 
Q 33.84375 39.703125 27 39.703125 
Q 22.75 39.703125 19.328125 37.765625 
Q 15.921875 35.84375 13.96875 32.765625 
L 5.71875 33.84375 
L 12.640625 70.609375 
L 48.25 70.609375 
L 48.25 62.203125 
L 19.671875 62.203125 
L 15.828125 42.96875 
Q 22.265625 47.46875 29.34375 47.46875 
Q 38.71875 47.46875 45.15625 40.96875 
Q 51.609375 34.46875 51.609375 24.265625 
Q 51.609375 14.546875 45.953125 7.46875 
Q 39.0625 -1.21875 27.15625 -1.21875 
Q 17.390625 -1.21875 11.203125 4.25 
Q 5.03125 9.71875 4.15625 18.75 
z
" id="ArialMT-53"/>
      </defs>
      <g transform="translate(36.806875 146.785551)scale(0.28 -0.28)">
       <use xlink:href="#ArialMT-48"/>
       <use x="55.615234" xlink:href="#ArialMT-46"/>
       <use x="83.398438" xlink:href="#ArialMT-53"/>
      </g>
     </g>
    </g>
    <g id="ytick_3">
     <g id="line2d_6">
      <g>
       <use style="stroke:#000000;stroke-width:0.8;" x="79.226875" xlink:href="#ma55997bd41" y="37.92825"/>
      </g>
     </g>
     <g id="text_6">
      <!-- 1.0 -->
      <g transform="translate(36.806875 47.949187)scale(0.28 -0.28)">
       <use xlink:href="#ArialMT-49"/>
       <use x="55.615234" xlink:href="#ArialMT-46"/>
       <use x="83.398438" xlink:href="#ArialMT-48"/>
      </g>
     </g>
    </g>
    <g id="text_7">
     <!-- median of error  -->
     <defs>
      <path d="M 40.234375 0 
L 40.234375 6.546875 
Q 35.296875 -1.171875 25.734375 -1.171875 
Q 19.53125 -1.171875 14.328125 2.25 
Q 9.125 5.671875 6.265625 11.796875 
Q 3.421875 17.921875 3.421875 25.875 
Q 3.421875 33.640625 6 39.96875 
Q 8.59375 46.296875 13.765625 49.65625 
Q 18.953125 53.03125 25.34375 53.03125 
Q 30.03125 53.03125 33.6875 51.046875 
Q 37.359375 49.078125 39.65625 45.90625 
L 39.65625 71.578125 
L 48.390625 71.578125 
L 48.390625 0 
z
M 12.453125 25.875 
Q 12.453125 15.921875 16.640625 10.984375 
Q 20.84375 6.0625 26.5625 6.0625 
Q 32.328125 6.0625 36.34375 10.765625 
Q 40.375 15.484375 40.375 25.140625 
Q 40.375 35.796875 36.265625 40.765625 
Q 32.171875 45.75 26.171875 45.75 
Q 20.3125 45.75 16.375 40.96875 
Q 12.453125 36.1875 12.453125 25.875 
z
" id="ArialMT-100"/>
      <path d="M 6.640625 61.46875 
L 6.640625 71.578125 
L 15.4375 71.578125 
L 15.4375 61.46875 
z
M 6.640625 0 
L 6.640625 51.859375 
L 15.4375 51.859375 
L 15.4375 0 
z
" id="ArialMT-105"/>
      <path d="M 40.4375 6.390625 
Q 35.546875 2.25 31.03125 0.53125 
Q 26.515625 -1.171875 21.34375 -1.171875 
Q 12.796875 -1.171875 8.203125 3 
Q 3.609375 7.171875 3.609375 13.671875 
Q 3.609375 17.484375 5.34375 20.625 
Q 7.078125 23.78125 9.890625 25.6875 
Q 12.703125 27.59375 16.21875 28.5625 
Q 18.796875 29.25 24.03125 29.890625 
Q 34.671875 31.15625 39.703125 32.90625 
Q 39.75 34.71875 39.75 35.203125 
Q 39.75 40.578125 37.25 42.78125 
Q 33.890625 45.75 27.25 45.75 
Q 21.046875 45.75 18.09375 43.578125 
Q 15.140625 41.40625 13.71875 35.890625 
L 5.125 37.0625 
Q 6.296875 42.578125 8.984375 45.96875 
Q 11.671875 49.359375 16.75 51.1875 
Q 21.828125 53.03125 28.515625 53.03125 
Q 35.15625 53.03125 39.296875 51.46875 
Q 43.453125 49.90625 45.40625 47.53125 
Q 47.359375 45.171875 48.140625 41.546875 
Q 48.578125 39.3125 48.578125 33.453125 
L 48.578125 21.734375 
Q 48.578125 9.46875 49.140625 6.21875 
Q 49.703125 2.984375 51.375 0 
L 42.1875 0 
Q 40.828125 2.734375 40.4375 6.390625 
z
M 39.703125 26.03125 
Q 34.90625 24.078125 25.34375 22.703125 
Q 19.921875 21.921875 17.671875 20.9375 
Q 15.4375 19.96875 14.203125 18.09375 
Q 12.984375 16.21875 12.984375 13.921875 
Q 12.984375 10.40625 15.640625 8.0625 
Q 18.3125 5.71875 23.4375 5.71875 
Q 28.515625 5.71875 32.46875 7.9375 
Q 36.421875 10.15625 38.28125 14.015625 
Q 39.703125 17 39.703125 22.796875 
z
" id="ArialMT-97"/>
      <path d="M 3.328125 25.921875 
Q 3.328125 40.328125 11.328125 47.265625 
Q 18.015625 53.03125 27.640625 53.03125 
Q 38.328125 53.03125 45.109375 46.015625 
Q 51.90625 39.015625 51.90625 26.65625 
Q 51.90625 16.65625 48.90625 10.90625 
Q 45.90625 5.171875 40.15625 2 
Q 34.421875 -1.171875 27.640625 -1.171875 
Q 16.75 -1.171875 10.03125 5.8125 
Q 3.328125 12.796875 3.328125 25.921875 
z
M 12.359375 25.921875 
Q 12.359375 15.96875 16.703125 11.015625 
Q 21.046875 6.0625 27.640625 6.0625 
Q 34.1875 6.0625 38.53125 11.03125 
Q 42.875 16.015625 42.875 26.21875 
Q 42.875 35.84375 38.5 40.796875 
Q 34.125 45.75 27.640625 45.75 
Q 21.046875 45.75 16.703125 40.8125 
Q 12.359375 35.890625 12.359375 25.921875 
z
" id="ArialMT-111"/>
      <path d="M 8.6875 0 
L 8.6875 45.015625 
L 0.921875 45.015625 
L 0.921875 51.859375 
L 8.6875 51.859375 
L 8.6875 57.375 
Q 8.6875 62.59375 9.625 65.140625 
Q 10.890625 68.5625 14.078125 70.671875 
Q 17.28125 72.796875 23.046875 72.796875 
Q 26.765625 72.796875 31.25 71.921875 
L 29.9375 64.265625 
Q 27.203125 64.75 24.75 64.75 
Q 20.75 64.75 19.09375 63.03125 
Q 17.4375 61.328125 17.4375 56.640625 
L 17.4375 51.859375 
L 27.546875 51.859375 
L 27.546875 45.015625 
L 17.4375 45.015625 
L 17.4375 0 
z
" id="ArialMT-102"/>
      <path d="M 6.5 0 
L 6.5 51.859375 
L 14.40625 51.859375 
L 14.40625 44 
Q 17.4375 49.515625 20 51.265625 
Q 22.5625 53.03125 25.640625 53.03125 
Q 30.078125 53.03125 34.671875 50.203125 
L 31.640625 42.046875 
Q 28.421875 43.953125 25.203125 43.953125 
Q 22.3125 43.953125 20.015625 42.21875 
Q 17.71875 40.484375 16.75 37.40625 
Q 15.28125 32.71875 15.28125 27.15625 
L 15.28125 0 
z
" id="ArialMT-114"/>
     </defs>
     <g transform="translate(27.241875 245.459812)rotate(-90)scale(0.28 -0.28)">
      <use xlink:href="#ArialMT-109"/>
      <use x="83.300781" xlink:href="#ArialMT-101"/>
      <use x="138.916016" xlink:href="#ArialMT-100"/>
      <use x="194.53125" xlink:href="#ArialMT-105"/>
      <use x="216.748047" xlink:href="#ArialMT-97"/>
      <use x="272.363281" xlink:href="#ArialMT-110"/>
      <use x="327.978516" xlink:href="#ArialMT-32"/>
      <use x="355.761719" xlink:href="#ArialMT-111"/>
      <use x="411.376953" xlink:href="#ArialMT-102"/>
      <use x="439.160156" xlink:href="#ArialMT-32"/>
      <use x="466.943359" xlink:href="#ArialMT-101"/>
      <use x="522.558594" xlink:href="#ArialMT-114"/>
      <use x="555.859375" xlink:href="#ArialMT-114"/>
      <use x="589.160156" xlink:href="#ArialMT-111"/>
      <use x="644.775391" xlink:href="#ArialMT-114"/>
      <use x="678.076172" xlink:href="#ArialMT-32"/>
     </g>
    </g>
   </g>
   <g id="line2d_7">
    <path clip-path="url(#pfdfe748493)" d="M 121.424721 231.443451 
L 121.424721 231.031844 
" style="fill:none;stroke:#4d4d4d;stroke-linecap:square;"/>
   </g>
   <g id="line2d_8">
    <path clip-path="url(#pfdfe748493)" d="M 121.424721 231.223533 
L 121.424721 230.486025 
" style="fill:none;stroke:#4d4d4d;stroke-linecap:square;stroke-width:3;"/>
   </g>
   <g id="line2d_9">
    <path clip-path="url(#pfdfe748493)" d="M 201.555699 154.232744 
L 201.555699 145.69309 
" style="fill:none;stroke:#4d4d4d;stroke-linecap:square;"/>
   </g>
   <g id="line2d_10">
    <path clip-path="url(#pfdfe748493)" d="M 201.555699 152.322126 
L 201.555699 147.88089 
" style="fill:none;stroke:#4d4d4d;stroke-linecap:square;stroke-width:3;"/>
   </g>
   <g id="line2d_11">
    <path clip-path="url(#pfdfe748493)" d="M 281.686678 170.617814 
L 281.686678 163.68846 
" style="fill:none;stroke:#4d4d4d;stroke-linecap:square;"/>
   </g>
   <g id="line2d_12">
    <path clip-path="url(#pfdfe748493)" d="M 281.686678 170.54034 
L 281.686678 166.80847 
" style="fill:none;stroke:#4d4d4d;stroke-linecap:square;stroke-width:3;"/>
   </g>
   <g id="patch_3">
    <path d="M 79.226875 255.36825 
L 79.226875 37.92825 
" style="fill:none;stroke:#000000;stroke-linecap:square;stroke-linejoin:miter;stroke-width:0.8;"/>
   </g>
   <g id="patch_4">
    <path d="M 302.426875 255.36825 
L 302.426875 37.92825 
" style="fill:none;stroke:#000000;stroke-linecap:square;stroke-linejoin:miter;stroke-width:0.8;"/>
   </g>
   <g id="patch_5">
    <path d="M 79.226875 255.36825 
L 302.426875 255.36825 
" style="fill:none;stroke:#000000;stroke-linecap:square;stroke-linejoin:miter;stroke-width:0.8;"/>
   </g>
   <g id="patch_6">
    <path d="M 79.226875 37.92825 
L 302.426875 37.92825 
" style="fill:none;stroke:#000000;stroke-linecap:square;stroke-linejoin:miter;stroke-width:0.8;"/>
   </g>
   <g id="PathCollection_5">
    <defs>
     <path d="M 0 1 
C 0.265203 1 0.51958 0.894634 0.707107 0.707107 
C 0.894634 0.51958 1 0.265203 1 0 
C 1 -0.265203 0.894634 -0.51958 0.707107 -0.707107 
C 0.51958 -0.894634 0.265203 -1 0 -1 
C -0.265203 -1 -0.51958 -0.894634 -0.707107 -0.707107 
C -0.894634 -0.51958 -1 -0.265203 -1 0 
C -1 0.265203 -0.894634 0.51958 -0.707107 0.707107 
C -0.51958 0.894634 -0.265203 1 0 1 
z
" id="m7aec59e8ab" style="stroke:#4d4d4d;"/>
    </defs>
    <g clip-path="url(#pfdfe748493)">
     <use style="fill:#ffffff;stroke:#4d4d4d;" x="121.424721" xlink:href="#m7aec59e8ab" y="231.091035"/>
    </g>
   </g>
   <g id="PathCollection_6">
    <g clip-path="url(#pfdfe748493)">
     <use style="fill:#ffffff;stroke:#4d4d4d;" x="201.555699" xlink:href="#m7aec59e8ab" y="150.147705"/>
    </g>
   </g>
   <g id="PathCollection_7">
    <g clip-path="url(#pfdfe748493)">
     <use style="fill:#ffffff;stroke:#4d4d4d;" x="281.686678" xlink:href="#m7aec59e8ab" y="169.181494"/>
    </g>
   </g>
   <g id="text_8">
    <!-- our method -->
    <defs>
     <path d="M 40.578125 0 
L 40.578125 7.625 
Q 34.515625 -1.171875 24.125 -1.171875 
Q 19.53125 -1.171875 15.546875 0.578125 
Q 11.578125 2.34375 9.640625 5 
Q 7.71875 7.671875 6.9375 11.53125 
Q 6.390625 14.109375 6.390625 19.734375 
L 6.390625 51.859375 
L 15.1875 51.859375 
L 15.1875 23.09375 
Q 15.1875 16.21875 15.71875 13.8125 
Q 16.546875 10.359375 19.234375 8.375 
Q 21.921875 6.390625 25.875 6.390625 
Q 29.828125 6.390625 33.296875 8.421875 
Q 36.765625 10.453125 38.203125 13.9375 
Q 39.65625 17.4375 39.65625 24.078125 
L 39.65625 51.859375 
L 48.4375 51.859375 
L 48.4375 0 
z
" id="ArialMT-117"/>
     <path d="M 6.59375 0 
L 6.59375 71.578125 
L 15.375 71.578125 
L 15.375 45.90625 
Q 21.53125 53.03125 30.90625 53.03125 
Q 36.671875 53.03125 40.921875 50.75 
Q 45.171875 48.484375 47 44.484375 
Q 48.828125 40.484375 48.828125 32.859375 
L 48.828125 0 
L 40.046875 0 
L 40.046875 32.859375 
Q 40.046875 39.453125 37.1875 42.453125 
Q 34.328125 45.453125 29.109375 45.453125 
Q 25.203125 45.453125 21.75 43.421875 
Q 18.3125 41.40625 16.84375 37.9375 
Q 15.375 34.46875 15.375 28.375 
L 15.375 0 
z
" id="ArialMT-104"/>
    </defs>
    <g transform="translate(105.850375 31.25025)scale(0.336 -0.336)">
     <use xlink:href="#ArialMT-111"/>
     <use x="55.615234" xlink:href="#ArialMT-117"/>
     <use x="111.230469" xlink:href="#ArialMT-114"/>
     <use x="144.53125" xlink:href="#ArialMT-32"/>
     <use x="172.314453" xlink:href="#ArialMT-109"/>
     <use x="255.615234" xlink:href="#ArialMT-101"/>
     <use x="311.230469" xlink:href="#ArialMT-116"/>
     <use x="339.013672" xlink:href="#ArialMT-104"/>
     <use x="394.628906" xlink:href="#ArialMT-111"/>
     <use x="450.244141" xlink:href="#ArialMT-100"/>
    </g>
   </g>
   <g id="legend_1">
    <g id="patch_7">
     <path d="M 317.186875 145.1745 
L 444.626875 145.1745 
Q 448.226875 145.1745 448.226875 141.5745 
L 448.226875 41.52825 
Q 448.226875 37.92825 444.626875 37.92825 
L 317.186875 37.92825 
Q 313.586875 37.92825 313.586875 41.52825 
L 313.586875 141.5745 
Q 313.586875 145.1745 317.186875 145.1745 
z
" style="fill:#ffffff;opacity:0.8;stroke:#cccccc;stroke-linejoin:miter;"/>
    </g>
    <g id="PathCollection_8">
     <g>
      <use style="fill:#1f77b4;stroke:#1f77b4;" x="338.786875" xlink:href="#ma0ce8b1abb" y="53.287313"/>
     </g>
    </g>
    <g id="text_9">
     <!-- $N_t = 1500$ -->
     <defs>
      <path d="M 72.703125 65.296875 
L 72.703125 63.703125 
Q 70 63.09375 68.953125 62.75 
Q 67.90625 62.40625 66.65625 60.65625 
Q 65.40625 58.90625 64.75 56.796875 
Q 64.09375 54.703125 62.5 49.203125 
L 47.90625 -1.5 
L 46.09375 -1.5 
L 23.09375 53.5 
L 11.703125 11.296875 
Q 10.796875 8.203125 10.796875 5.90625 
Q 10.796875 3.796875 12.34375 2.84375 
Q 13.90625 1.90625 17.796875 1.59375 
L 17.796875 0 
L -2 0 
L -2 1.59375 
Q 2.296875 2.203125 4.09375 4.75 
Q 5.90625 7.296875 8.59375 16.796875 
L 20.296875 58.296875 
Q 18 63.703125 11.703125 63.703125 
L 11.703125 65.296875 
L 27.703125 65.296875 
L 48.40625 15.40625 
L 59 54.203125 
Q 59.796875 57 59.796875 58.59375 
Q 59.796875 61.296875 58.4375 62.296875 
Q 57.09375 63.296875 52.90625 63.703125 
L 52.90625 65.296875 
z
" id="STIXGeneral-Italic-78"/>
      <path d="M 29.59375 42.796875 
L 29.09375 39.59375 
L 20.703125 39.59375 
L 12 6.796875 
Q 11.796875 6 11.796875 5.40625 
Q 11.796875 3.796875 13.296875 3.796875 
Q 14.5 3.796875 16.09375 5.34375 
Q 17.703125 6.90625 21.40625 11.703125 
L 22.703125 11 
Q 18.09375 4 15.140625 1.453125 
Q 12.203125 -1.09375 8.40625 -1.09375 
Q 3.796875 -1.09375 3.796875 2.59375 
Q 3.796875 3.59375 5.40625 10 
L 13.203125 39.59375 
L 5.703125 39.59375 
L 5.59375 40.203125 
Q 5.59375 42 8.90625 42.703125 
Q 11.40625 43.296875 15.5 46.546875 
Q 19.59375 49.796875 22.203125 53.703125 
Q 22.796875 54.59375 23.59375 54.59375 
Q 24.5 54.59375 24.5 53.796875 
Q 24.5 53.296875 24.40625 53.09375 
L 21.59375 42.796875 
z
" id="STIXGeneral-Italic-116"/>
      <path d="M 63.703125 32 
L 4.796875 32 
L 4.796875 38.59375 
L 63.703125 38.59375 
z
M 63.703125 12 
L 4.796875 12 
L 4.796875 18.59375 
L 63.703125 18.59375 
z
" id="STIXGeneral-Regular-61"/>
      <path d="M 39.40625 0 
L 11.796875 0 
L 11.796875 1.5 
Q 17.296875 1.796875 19.296875 3.546875 
Q 21.296875 5.296875 21.296875 9.5 
L 21.296875 54.40625 
Q 21.296875 59.296875 18.296875 59.296875 
Q 16.90625 59.296875 13.796875 58.09375 
L 11.09375 57.09375 
L 11.09375 58.5 
L 29 67.59375 
L 29.90625 67.296875 
L 29.90625 7.59375 
Q 29.90625 4.296875 31.90625 2.890625 
Q 33.90625 1.5 39.40625 1.5 
z
" id="STIXGeneral-Regular-49"/>
      <path d="M 43.796875 68.09375 
L 40.203125 59.59375 
Q 39.59375 58.296875 37.5 58.296875 
L 18.09375 58.296875 
L 14.09375 49.796875 
Q 25.09375 47.703125 30 45.25 
Q 34.90625 42.796875 39.09375 37 
Q 42.59375 32.203125 42.59375 24.296875 
Q 42.59375 17.09375 40.25 12.1875 
Q 37.90625 7.296875 32.796875 3.5 
Q 26 -1.40625 15.796875 -1.40625 
Q 10.09375 -1.40625 6.59375 0.296875 
Q 3.09375 2 3.09375 4.796875 
Q 3.09375 8.59375 7.59375 8.59375 
Q 11.203125 8.59375 15 5.5 
Q 18.90625 2.296875 22.09375 2.296875 
Q 27.296875 2.296875 31.4375 7.5 
Q 35.59375 12.703125 35.59375 19.203125 
Q 35.59375 28.796875 28.90625 34.203125 
Q 20.203125 41.203125 7.59375 41.203125 
Q 6.40625 41.203125 6.40625 42 
L 6.5 42.5 
L 17.40625 66.203125 
L 38.09375 66.203125 
Q 39.796875 66.203125 40.75 66.703125 
Q 41.703125 67.203125 42.90625 68.796875 
z
" id="STIXGeneral-Regular-53"/>
      <path d="M 47.59375 33 
Q 47.59375 26.296875 46.296875 20.34375 
Q 45 14.40625 42.453125 9.40625 
Q 39.90625 4.40625 35.40625 1.5 
Q 30.90625 -1.40625 25 -1.40625 
Q 18.90625 -1.40625 14.296875 1.6875 
Q 9.703125 4.796875 7.203125 10 
Q 4.703125 15.203125 3.546875 21.09375 
Q 2.40625 27 2.40625 33.59375 
Q 2.40625 42.90625 4.703125 50.34375 
Q 7 57.796875 12.34375 62.6875 
Q 17.703125 67.59375 25.40625 67.59375 
Q 35.203125 67.59375 41.390625 58 
Q 47.59375 48.40625 47.59375 33 
z
M 38 32.5 
Q 38 48.296875 34.640625 56.640625 
Q 31.296875 65 24.796875 65 
Q 18.59375 65 15.296875 56.59375 
Q 12 48.203125 12 32.90625 
Q 12 17.5 15.296875 9.34375 
Q 18.59375 1.203125 25 1.203125 
Q 31.296875 1.203125 34.640625 9.34375 
Q 38 17.5 38 32.5 
z
" id="STIXGeneral-Regular-48"/>
     </defs>
     <g transform="translate(371.186875 58.012313)scale(0.18 -0.18)">
      <use transform="translate(0 0.203125)" xlink:href="#STIXGeneral-Italic-78"/>
      <use transform="translate(66.699997 -13.025)scale(0.7)" xlink:href="#STIXGeneral-Italic-116"/>
      <use transform="translate(105.00936 0.203125)" xlink:href="#STIXGeneral-Regular-61"/>
      <use transform="translate(187.949341 0.203125)" xlink:href="#STIXGeneral-Regular-49"/>
      <use transform="translate(237.949326 0.203125)" xlink:href="#STIXGeneral-Regular-53"/>
      <use transform="translate(287.94931 0.203125)" xlink:href="#STIXGeneral-Regular-48"/>
      <use transform="translate(337.949295 0.203125)" xlink:href="#STIXGeneral-Regular-48"/>
     </g>
    </g>
    <g id="PathCollection_9">
     <g>
      <use style="fill:#ff7f0e;stroke:#ff7f0e;" x="338.786875" xlink:href="#m8a863939de" y="78.748875"/>
     </g>
    </g>
    <g id="text_10">
     <!-- $N_t = 3000$ -->
     <defs>
      <path d="M 6.09375 51 
L 4.5 51.40625 
Q 6.796875 58.90625 11.6875 63.25 
Q 16.59375 67.59375 24.09375 67.59375 
Q 31.09375 67.59375 35.390625 63.796875 
Q 39.703125 60 39.703125 53.90625 
Q 39.703125 45.703125 30.40625 40.09375 
Q 35.90625 37.703125 38.703125 34.796875 
Q 43.09375 29.90625 43.09375 21.90625 
Q 43.09375 13.90625 38.5 7.90625 
Q 35.09375 3.296875 28.75 0.9375 
Q 22.40625 -1.40625 15.296875 -1.40625 
Q 4.09375 -1.40625 4.09375 4.296875 
Q 4.09375 5.90625 5.296875 6.90625 
Q 6.5 7.90625 8.203125 7.90625 
Q 10.703125 7.90625 14.296875 5.296875 
Q 18.703125 2.203125 22.90625 2.203125 
Q 28.40625 2.203125 32.15625 6.640625 
Q 35.90625 11.09375 35.90625 17.5 
Q 35.90625 29 25.5 32 
Q 22.40625 33 15.296875 33 
L 15.296875 34.40625 
Q 20.90625 36.296875 23.703125 38 
Q 31.796875 42.59375 31.796875 51.40625 
Q 31.796875 56.40625 28.9375 59 
Q 26.09375 61.59375 21 61.59375 
Q 12 61.59375 6.09375 51 
z
" id="STIXGeneral-Regular-51"/>
     </defs>
     <g transform="translate(371.186875 83.473875)scale(0.18 -0.18)">
      <use transform="translate(0 0.40625)" xlink:href="#STIXGeneral-Italic-78"/>
      <use transform="translate(66.699997 -12.821875)scale(0.7)" xlink:href="#STIXGeneral-Italic-116"/>
      <use transform="translate(105.00936 0.40625)" xlink:href="#STIXGeneral-Regular-61"/>
      <use transform="translate(187.949341 0.40625)" xlink:href="#STIXGeneral-Regular-51"/>
      <use transform="translate(237.949326 0.40625)" xlink:href="#STIXGeneral-Regular-48"/>
      <use transform="translate(287.94931 0.40625)" xlink:href="#STIXGeneral-Regular-48"/>
      <use transform="translate(337.949295 0.40625)" xlink:href="#STIXGeneral-Regular-48"/>
     </g>
    </g>
    <g id="PathCollection_10">
     <g>
      <use style="fill:#2ca02c;stroke:#2ca02c;" x="338.786875" xlink:href="#m262f563850" y="104.210438"/>
     </g>
    </g>
    <g id="text_11">
     <!-- $N_t = 4500$ -->
     <defs>
      <path d="M 47.296875 16.703125 
L 37 16.703125 
L 37 0 
L 29.203125 0 
L 29.203125 16.703125 
L 1.203125 16.703125 
L 1.203125 23.09375 
L 32.59375 67.59375 
L 37 67.59375 
L 37 23.09375 
L 47.296875 23.09375 
z
M 29.203125 23.09375 
L 29.203125 57.40625 
L 5.203125 23.09375 
z
" id="STIXGeneral-Regular-52"/>
     </defs>
     <g transform="translate(371.186875 108.935438)scale(0.18 -0.18)">
      <use transform="translate(0 0.203125)" xlink:href="#STIXGeneral-Italic-78"/>
      <use transform="translate(66.699997 -13.025)scale(0.7)" xlink:href="#STIXGeneral-Italic-116"/>
      <use transform="translate(105.00936 0.203125)" xlink:href="#STIXGeneral-Regular-61"/>
      <use transform="translate(187.949341 0.203125)" xlink:href="#STIXGeneral-Regular-52"/>
      <use transform="translate(237.949326 0.203125)" xlink:href="#STIXGeneral-Regular-53"/>
      <use transform="translate(287.94931 0.203125)" xlink:href="#STIXGeneral-Regular-48"/>
      <use transform="translate(337.949295 0.203125)" xlink:href="#STIXGeneral-Regular-48"/>
     </g>
    </g>
    <g id="PathCollection_11">
     <g>
      <use style="fill:#d62728;stroke:#d62728;" x="338.786875" xlink:href="#mdadaf20880" y="129.672"/>
     </g>
    </g>
    <g id="text_12">
     <!-- $N_t = 6000$ -->
     <defs>
      <path d="M 44.59375 68.40625 
L 44.796875 66.796875 
Q 33 64.90625 25.09375 57.25 
Q 17.203125 49.59375 15.203125 38.296875 
Q 21 42.796875 27.90625 42.796875 
Q 36.703125 42.796875 41.75 37.1875 
Q 46.796875 31.59375 46.796875 21.90625 
Q 46.796875 12.09375 41.703125 5.90625 
Q 35.796875 -1.40625 25.796875 -1.40625 
Q 13.59375 -1.40625 8.09375 8.703125 
Q 3.40625 17.296875 3.40625 27.90625 
Q 3.40625 44.296875 14.296875 55.5 
Q 20.5 61.90625 27.046875 64.546875 
Q 33.59375 67.203125 44.59375 68.40625 
z
M 37.796875 18.796875 
Q 37.796875 38.203125 24.296875 38.203125 
Q 19.296875 38.203125 16 35.546875 
Q 12.703125 32.90625 12.703125 26.59375 
Q 12.703125 14.90625 16.34375 8.15625 
Q 20 1.40625 26.90625 1.40625 
Q 32.203125 1.40625 35 6.15625 
Q 37.796875 10.90625 37.796875 18.796875 
z
" id="STIXGeneral-Regular-54"/>
     </defs>
     <g transform="translate(371.186875 134.397)scale(0.18 -0.18)">
      <use transform="translate(0 0.59375)" xlink:href="#STIXGeneral-Italic-78"/>
      <use transform="translate(66.699997 -12.634375)scale(0.7)" xlink:href="#STIXGeneral-Italic-116"/>
      <use transform="translate(105.00936 0.59375)" xlink:href="#STIXGeneral-Regular-61"/>
      <use transform="translate(187.949341 0.59375)" xlink:href="#STIXGeneral-Regular-54"/>
      <use transform="translate(237.949326 0.59375)" xlink:href="#STIXGeneral-Regular-48"/>
      <use transform="translate(287.94931 0.59375)" xlink:href="#STIXGeneral-Regular-48"/>
      <use transform="translate(337.949295 0.59375)" xlink:href="#STIXGeneral-Regular-48"/>
     </g>
    </g>
   </g>
  </g>
 </g>
 <defs>
  <clipPath id="pfdfe748493">
   <rect height="217.44" width="223.2" x="79.226875" y="37.92825"/>
  </clipPath>
 </defs>
</svg>
