<?xml version="1.0" encoding="utf-8" standalone="no"?>
<!DOCTYPE svg PUBLIC "-//W3C//DTD SVG 1.1//EN"
  "http://www.w3.org/Graphics/SVG/1.1/DTD/svg11.dtd">
<!-- Created with matplotlib (https://matplotlib.org/) -->
<svg height="380.408564pt" version="1.1" viewBox="0 0 458.926875 380.408564" width="458.926875pt" xmlns="http://www.w3.org/2000/svg" xmlns:xlink="http://www.w3.org/1999/xlink">
 <defs>
  <style type="text/css">
*{stroke-linecap:butt;stroke-linejoin:round;}
  </style>
 </defs>
 <g id="figure_1">
  <g id="patch_1">
   <path d="M 0 380.408564 
L 458.926875 380.408564 
L 458.926875 0 
L 0 0 
z
" style="fill:#ffffff;"/>
  </g>
  <g id="axes_1">
   <g id="patch_2">
    <path d="M 82.726875 255.36825 
L 305.926875 255.36825 
L 305.926875 37.92825 
L 82.726875 37.92825 
z
" style="fill:#ffffff;"/>
   </g>
   <g id="PolyCollection_1">
    <defs>
     <path d="M 127.629625 -147.157489 
L 122.219817 -147.157489 
L 121.786242 -147.220217 
L 121.300002 -147.282946 
L 120.757775 -147.345674 
L 120.156571 -147.408403 
L 119.493831 -147.471132 
L 118.767545 -147.53386 
L 117.976366 -147.596589 
L 117.119726 -147.659317 
L 116.197942 -147.722046 
L 115.212321 -147.784775 
L 114.165253 -147.847503 
L 113.060278 -147.910232 
L 111.902145 -147.97296 
L 110.696841 -148.035689 
L 109.451592 -148.098418 
L 108.174837 -148.161146 
L 106.876167 -148.223875 
L 105.566232 -148.286603 
L 104.256612 -148.349332 
L 102.959662 -148.412061 
L 101.688318 -148.474789 
L 100.45588 -148.537518 
L 99.275774 -148.600246 
L 98.161292 -148.662975 
L 97.125324 -148.725704 
L 96.18009 -148.788432 
L 95.336861 -148.851161 
L 94.605715 -148.913889 
L 93.995287 -148.976618 
L 93.512566 -149.039347 
L 93.162712 -149.102075 
L 92.948921 -149.164804 
L 92.87233 -149.227532 
L 92.93197 -149.290261 
L 93.124773 -149.352989 
L 93.445624 -149.415718 
L 93.887465 -149.478447 
L 94.44145 -149.541175 
L 95.097134 -149.603904 
L 95.842709 -149.666632 
L 96.665267 -149.729361 
L 97.551085 -149.79209 
L 98.485926 -149.854818 
L 99.455355 -149.917547 
L 100.44504 -149.980275 
L 101.441057 -150.043004 
L 102.43017 -150.105733 
L 103.400089 -150.168461 
L 104.339696 -150.23119 
L 105.239238 -150.293918 
L 106.090481 -150.356647 
L 106.886812 -150.419376 
L 107.623313 -150.482104 
L 108.296778 -150.544833 
L 108.905692 -150.607561 
L 109.450172 -150.67029 
L 109.931862 -150.733019 
L 110.353809 -150.795747 
L 110.720294 -150.858476 
L 111.036652 -150.921204 
L 111.309073 -150.983933 
L 111.544389 -151.046662 
L 111.749858 -151.10939 
L 111.932947 -151.172119 
L 112.101129 -151.234847 
L 112.26168 -151.297576 
L 112.421506 -151.360304 
L 112.586978 -151.423033 
L 112.763802 -151.485762 
L 112.956907 -151.54849 
L 113.170363 -151.611219 
L 113.407327 -151.673947 
L 113.670023 -151.736676 
L 113.959736 -151.799405 
L 114.276844 -151.862133 
L 114.620865 -151.924862 
L 114.990526 -151.98759 
L 115.383853 -152.050319 
L 115.798265 -152.113048 
L 116.230684 -152.175776 
L 116.677649 -152.238505 
L 117.13543 -152.301233 
L 117.600139 -152.363962 
L 118.067845 -152.426691 
L 118.534666 -152.489419 
L 118.996864 -152.552148 
L 119.450924 -152.614876 
L 119.893617 -152.677605 
L 120.322055 -152.740334 
L 120.733726 -152.803062 
L 121.126521 -152.865791 
L 121.498745 -152.928519 
L 121.849116 -152.991248 
L 122.176754 -153.053977 
L 122.481161 -153.116705 
L 122.762195 -153.179434 
L 123.020034 -153.242162 
L 123.255142 -153.304891 
L 123.468223 -153.36762 
L 126.381219 -153.36762 
L 126.381219 -153.36762 
L 126.5943 -153.304891 
L 126.829407 -153.242162 
L 127.087247 -153.179434 
L 127.368281 -153.116705 
L 127.672688 -153.053977 
L 128.000326 -152.991248 
L 128.350697 -152.928519 
L 128.722921 -152.865791 
L 129.115716 -152.803062 
L 129.527387 -152.740334 
L 129.955825 -152.677605 
L 130.398518 -152.614876 
L 130.852578 -152.552148 
L 131.314776 -152.489419 
L 131.781597 -152.426691 
L 132.249302 -152.363962 
L 132.714012 -152.301233 
L 133.171793 -152.238505 
L 133.618758 -152.175776 
L 134.051177 -152.113048 
L 134.465589 -152.050319 
L 134.858916 -151.98759 
L 135.228577 -151.924862 
L 135.572598 -151.862133 
L 135.889706 -151.799405 
L 136.179419 -151.736676 
L 136.442115 -151.673947 
L 136.679079 -151.611219 
L 136.892535 -151.54849 
L 137.085639 -151.485762 
L 137.262464 -151.423033 
L 137.427936 -151.360304 
L 137.587762 -151.297576 
L 137.748313 -151.234847 
L 137.916494 -151.172119 
L 138.099584 -151.10939 
L 138.305053 -151.046662 
L 138.540369 -150.983933 
L 138.81279 -150.921204 
L 139.129148 -150.858476 
L 139.495633 -150.795747 
L 139.917579 -150.733019 
L 140.39927 -150.67029 
L 140.94375 -150.607561 
L 141.552664 -150.544833 
L 142.226129 -150.482104 
L 142.96263 -150.419376 
L 143.758961 -150.356647 
L 144.610203 -150.293918 
L 145.509746 -150.23119 
L 146.449353 -150.168461 
L 147.419272 -150.105733 
L 148.408385 -150.043004 
L 149.404402 -149.980275 
L 150.394087 -149.917547 
L 151.363516 -149.854818 
L 152.298357 -149.79209 
L 153.184175 -149.729361 
L 154.006733 -149.666632 
L 154.752308 -149.603904 
L 155.407992 -149.541175 
L 155.961977 -149.478447 
L 156.403818 -149.415718 
L 156.724668 -149.352989 
L 156.917472 -149.290261 
L 156.977112 -149.227532 
L 156.900521 -149.164804 
L 156.68673 -149.102075 
L 156.336876 -149.039347 
L 155.854155 -148.976618 
L 155.243727 -148.913889 
L 154.51258 -148.851161 
L 153.669352 -148.788432 
L 152.724117 -148.725704 
L 151.68815 -148.662975 
L 150.573668 -148.600246 
L 149.393562 -148.537518 
L 148.161124 -148.474789 
L 146.88978 -148.412061 
L 145.59283 -148.349332 
L 144.28321 -148.286603 
L 142.973275 -148.223875 
L 141.674605 -148.161146 
L 140.39785 -148.098418 
L 139.152601 -148.035689 
L 137.947297 -147.97296 
L 136.789164 -147.910232 
L 135.684189 -147.847503 
L 134.63712 -147.784775 
L 133.6515 -147.722046 
L 132.729716 -147.659317 
L 131.873076 -147.596589 
L 131.081897 -147.53386 
L 130.355611 -147.471132 
L 129.692871 -147.408403 
L 129.091666 -147.345674 
L 128.54944 -147.282946 
L 128.0632 -147.220217 
L 127.629625 -147.157489 
z
" id="ma4bbbfa93f" style="stroke:#4d4d4d;stroke-width:1.5;"/>
    </defs>
    <g clip-path="url(#p453cc5d25f)">
     <use style="fill:#808080;stroke:#4d4d4d;stroke-width:1.5;" x="0" xlink:href="#ma4bbbfa93f" y="380.408564"/>
    </g>
   </g>
   <g id="PolyCollection_2">
    <defs>
     <path d="M 205.575718 -220.557089 
L 204.535681 -220.557089 
L 204.45364 -220.756858 
L 204.361871 -220.956627 
L 204.259782 -221.156396 
L 204.146835 -221.356165 
L 204.02256 -221.555934 
L 203.886575 -221.755702 
L 203.738598 -221.955471 
L 203.578466 -222.15524 
L 203.406143 -222.355009 
L 203.221738 -222.554778 
L 203.025512 -222.754547 
L 202.817884 -222.954316 
L 202.599438 -223.154084 
L 202.370921 -223.353853 
L 202.13324 -223.553622 
L 201.887458 -223.753391 
L 201.63478 -223.95316 
L 201.376538 -224.152929 
L 201.114175 -224.352697 
L 200.849225 -224.552466 
L 200.583285 -224.752235 
L 200.317991 -224.952004 
L 200.05499 -225.151773 
L 199.795915 -225.351542 
L 199.542352 -225.55131 
L 199.295814 -225.751079 
L 199.057718 -225.950848 
L 198.829359 -226.150617 
L 198.611891 -226.350386 
L 198.406309 -226.550155 
L 198.213438 -226.749923 
L 198.033922 -226.949692 
L 197.868224 -227.149461 
L 197.716622 -227.34923 
L 197.579219 -227.548999 
L 197.455948 -227.748768 
L 197.346591 -227.948536 
L 197.250788 -228.148305 
L 197.168065 -228.348074 
L 197.097853 -228.547843 
L 197.039508 -228.747612 
L 196.992342 -228.947381 
L 196.955644 -229.147149 
L 196.928704 -229.346918 
L 196.910839 -229.546687 
L 196.901412 -229.746456 
L 196.899851 -229.946225 
L 196.905666 -230.145994 
L 196.91846 -230.345762 
L 196.937944 -230.545531 
L 196.963935 -230.7453 
L 196.996364 -230.945069 
L 197.03527 -231.144838 
L 197.080801 -231.344607 
L 197.133195 -231.544375 
L 197.19278 -231.744144 
L 197.259948 -231.943913 
L 197.335145 -232.143682 
L 197.418851 -232.343451 
L 197.511555 -232.54322 
L 197.613737 -232.742988 
L 197.725845 -232.942757 
L 197.848276 -233.142526 
L 197.981351 -233.342295 
L 198.125297 -233.542064 
L 198.280232 -233.741833 
L 198.446148 -233.941602 
L 198.6229 -234.14137 
L 198.8102 -234.341139 
L 199.007606 -234.540908 
L 199.214529 -234.740677 
L 199.430231 -234.940446 
L 199.653832 -235.140215 
L 199.884324 -235.339983 
L 200.120584 -235.539752 
L 200.361389 -235.739521 
L 200.605438 -235.93929 
L 200.851375 -236.139059 
L 201.09781 -236.338828 
L 201.343346 -236.538596 
L 201.586601 -236.738365 
L 201.826234 -236.938134 
L 202.060963 -237.137903 
L 202.289593 -237.337672 
L 202.511026 -237.537441 
L 202.724282 -237.737209 
L 202.92851 -237.936978 
L 203.122994 -238.136747 
L 203.307163 -238.336516 
L 203.480588 -238.536285 
L 203.642986 -238.736054 
L 203.794209 -238.935822 
L 203.934244 -239.135591 
L 204.063198 -239.33536 
L 204.18129 -239.535129 
L 204.288836 -239.734898 
L 204.386237 -239.934667 
L 204.473964 -240.134435 
L 204.552541 -240.334204 
L 205.558857 -240.334204 
L 205.558857 -240.334204 
L 205.637435 -240.134435 
L 205.725162 -239.934667 
L 205.822563 -239.734898 
L 205.930109 -239.535129 
L 206.048201 -239.33536 
L 206.177155 -239.135591 
L 206.31719 -238.935822 
L 206.468413 -238.736054 
L 206.63081 -238.536285 
L 206.804236 -238.336516 
L 206.988405 -238.136747 
L 207.182889 -237.936978 
L 207.387117 -237.737209 
L 207.600373 -237.537441 
L 207.821806 -237.337672 
L 208.050436 -237.137903 
L 208.285165 -236.938134 
L 208.524798 -236.738365 
L 208.768053 -236.538596 
L 209.013589 -236.338828 
L 209.260024 -236.139059 
L 209.505961 -235.93929 
L 209.75001 -235.739521 
L 209.990815 -235.539752 
L 210.227074 -235.339983 
L 210.457567 -235.140215 
L 210.681168 -234.940446 
L 210.89687 -234.740677 
L 211.103793 -234.540908 
L 211.301199 -234.341139 
L 211.488499 -234.14137 
L 211.665251 -233.941602 
L 211.831167 -233.741833 
L 211.986102 -233.542064 
L 212.130048 -233.342295 
L 212.263122 -233.142526 
L 212.385553 -232.942757 
L 212.497662 -232.742988 
L 212.599844 -232.54322 
L 212.692548 -232.343451 
L 212.776253 -232.143682 
L 212.851451 -231.943913 
L 212.918619 -231.744144 
L 212.978204 -231.544375 
L 213.030598 -231.344607 
L 213.076128 -231.144838 
L 213.115035 -230.945069 
L 213.147464 -230.7453 
L 213.173455 -230.545531 
L 213.192938 -230.345762 
L 213.205733 -230.145994 
L 213.211548 -229.946225 
L 213.209986 -229.746456 
L 213.200559 -229.546687 
L 213.182695 -229.346918 
L 213.155755 -229.147149 
L 213.119057 -228.947381 
L 213.071891 -228.747612 
L 213.013546 -228.547843 
L 212.943333 -228.348074 
L 212.860611 -228.148305 
L 212.764808 -227.948536 
L 212.65545 -227.748768 
L 212.53218 -227.548999 
L 212.394777 -227.34923 
L 212.243175 -227.149461 
L 212.077477 -226.949692 
L 211.897961 -226.749923 
L 211.70509 -226.550155 
L 211.499508 -226.350386 
L 211.28204 -226.150617 
L 211.053681 -225.950848 
L 210.815585 -225.751079 
L 210.569047 -225.55131 
L 210.315484 -225.351542 
L 210.056408 -225.151773 
L 209.793408 -224.952004 
L 209.528114 -224.752235 
L 209.262173 -224.552466 
L 208.997223 -224.352697 
L 208.734861 -224.152929 
L 208.476619 -223.95316 
L 208.22394 -223.753391 
L 207.978159 -223.553622 
L 207.740478 -223.353853 
L 207.511961 -223.154084 
L 207.293515 -222.954316 
L 207.085887 -222.754547 
L 206.88966 -222.554778 
L 206.705256 -222.355009 
L 206.532933 -222.15524 
L 206.3728 -221.955471 
L 206.224824 -221.755702 
L 206.088839 -221.555934 
L 205.964564 -221.356165 
L 205.851617 -221.156396 
L 205.749528 -220.956627 
L 205.657759 -220.756858 
L 205.575718 -220.557089 
z
" id="m58fa8bbd0a" style="stroke:#4d4d4d;stroke-width:1.5;"/>
    </defs>
    <g clip-path="url(#p453cc5d25f)">
     <use style="fill:#808080;stroke:#4d4d4d;stroke-width:1.5;" x="0" xlink:href="#m58fa8bbd0a" y="380.408564"/>
    </g>
   </g>
   <g id="PolyCollection_3">
    <defs>
     <path d="M 286.241583 -204.865558 
L 284.131773 -204.865558 
L 283.974565 -205.035051 
L 283.800268 -205.204543 
L 283.608105 -205.374035 
L 283.397442 -205.543528 
L 283.167813 -205.71302 
L 282.918952 -205.882512 
L 282.650821 -206.052004 
L 282.363633 -206.221497 
L 282.057875 -206.390989 
L 281.734328 -206.560481 
L 281.394076 -206.729974 
L 281.038513 -206.899466 
L 280.669347 -207.068958 
L 280.28859 -207.23845 
L 279.898542 -207.407943 
L 279.501773 -207.577435 
L 279.10109 -207.746927 
L 278.699501 -207.91642 
L 278.300173 -208.085912 
L 277.906382 -208.255404 
L 277.52146 -208.424896 
L 277.148741 -208.594389 
L 276.791497 -208.763881 
L 276.452885 -208.933373 
L 276.135885 -209.102866 
L 275.843249 -209.272358 
L 275.577446 -209.44185 
L 275.340623 -209.611343 
L 275.13456 -209.780835 
L 274.960641 -209.950327 
L 274.819834 -210.119819 
L 274.712675 -210.289312 
L 274.639263 -210.458804 
L 274.599267 -210.628296 
L 274.591935 -210.797789 
L 274.61612 -210.967281 
L 274.670304 -211.136773 
L 274.752638 -211.306265 
L 274.860981 -211.475758 
L 274.992947 -211.64525 
L 275.145955 -211.814742 
L 275.317279 -211.984235 
L 275.504104 -212.153727 
L 275.703576 -212.323219 
L 275.912859 -212.492712 
L 276.129183 -212.662204 
L 276.349891 -212.831696 
L 276.572487 -213.001188 
L 276.794671 -213.170681 
L 277.014378 -213.340173 
L 277.229804 -213.509665 
L 277.439431 -213.679158 
L 277.642042 -213.84865 
L 277.836731 -214.018142 
L 278.022907 -214.187634 
L 278.200287 -214.357127 
L 278.368885 -214.526619 
L 278.528998 -214.696111 
L 278.681177 -214.865604 
L 278.826202 -215.035096 
L 278.965045 -215.204588 
L 279.098832 -215.37408 
L 279.228805 -215.543573 
L 279.356276 -215.713065 
L 279.482585 -215.882557 
L 279.609057 -216.05205 
L 279.73696 -216.221542 
L 279.867469 -216.391034 
L 280.00163 -216.560527 
L 280.140331 -216.730019 
L 280.284279 -216.899511 
L 280.43398 -217.069003 
L 280.589731 -217.238496 
L 280.751614 -217.407988 
L 280.919497 -217.57748 
L 281.093044 -217.746973 
L 281.271729 -217.916465 
L 281.454856 -218.085957 
L 281.641578 -218.255449 
L 281.830929 -218.424942 
L 282.021851 -218.594434 
L 282.213222 -218.763926 
L 282.403889 -218.933419 
L 282.592697 -219.102911 
L 282.778515 -219.272403 
L 282.960265 -219.441895 
L 283.136942 -219.611388 
L 283.307632 -219.78088 
L 283.471531 -219.950372 
L 283.627952 -220.119865 
L 283.776335 -220.289357 
L 283.91625 -220.458849 
L 284.047394 -220.628342 
L 284.169593 -220.797834 
L 284.282789 -220.967326 
L 284.387036 -221.136818 
L 284.482489 -221.306311 
L 284.569389 -221.475803 
L 284.648052 -221.645295 
L 285.725303 -221.645295 
L 285.725303 -221.645295 
L 285.803967 -221.475803 
L 285.890867 -221.306311 
L 285.986319 -221.136818 
L 286.090567 -220.967326 
L 286.203763 -220.797834 
L 286.325961 -220.628342 
L 286.457106 -220.458849 
L 286.59702 -220.289357 
L 286.745404 -220.119865 
L 286.901825 -219.950372 
L 287.065723 -219.78088 
L 287.236414 -219.611388 
L 287.413091 -219.441895 
L 287.594841 -219.272403 
L 287.780659 -219.102911 
L 287.969467 -218.933419 
L 288.160134 -218.763926 
L 288.351505 -218.594434 
L 288.542427 -218.424942 
L 288.731778 -218.255449 
L 288.9185 -218.085957 
L 289.101627 -217.916465 
L 289.280312 -217.746973 
L 289.453859 -217.57748 
L 289.621742 -217.407988 
L 289.783625 -217.238496 
L 289.939376 -217.069003 
L 290.089077 -216.899511 
L 290.233025 -216.730019 
L 290.371726 -216.560527 
L 290.505887 -216.391034 
L 290.636396 -216.221542 
L 290.764299 -216.05205 
L 290.890771 -215.882557 
L 291.01708 -215.713065 
L 291.144551 -215.543573 
L 291.274524 -215.37408 
L 291.408311 -215.204588 
L 291.547154 -215.035096 
L 291.692179 -214.865604 
L 291.844358 -214.696111 
L 292.004471 -214.526619 
L 292.173069 -214.357127 
L 292.350449 -214.187634 
L 292.536624 -214.018142 
L 292.731314 -213.84865 
L 292.933925 -213.679158 
L 293.143552 -213.509665 
L 293.358978 -213.340173 
L 293.578685 -213.170681 
L 293.800869 -213.001188 
L 294.023465 -212.831696 
L 294.244173 -212.662204 
L 294.460497 -212.492712 
L 294.66978 -212.323219 
L 294.869252 -212.153727 
L 295.056076 -211.984235 
L 295.227401 -211.814742 
L 295.380408 -211.64525 
L 295.512375 -211.475758 
L 295.620718 -211.306265 
L 295.703052 -211.136773 
L 295.757236 -210.967281 
L 295.78142 -210.797789 
L 295.774089 -210.628296 
L 295.734093 -210.458804 
L 295.660681 -210.289312 
L 295.553522 -210.119819 
L 295.412715 -209.950327 
L 295.238796 -209.780835 
L 295.032732 -209.611343 
L 294.795909 -209.44185 
L 294.530107 -209.272358 
L 294.237471 -209.102866 
L 293.920471 -208.933373 
L 293.581859 -208.763881 
L 293.224615 -208.594389 
L 292.851895 -208.424896 
L 292.466974 -208.255404 
L 292.073183 -208.085912 
L 291.673855 -207.91642 
L 291.272266 -207.746927 
L 290.871582 -207.577435 
L 290.474813 -207.407943 
L 290.084766 -207.23845 
L 289.704008 -207.068958 
L 289.334843 -206.899466 
L 288.97928 -206.729974 
L 288.639027 -206.560481 
L 288.31548 -206.390989 
L 288.009723 -206.221497 
L 287.722535 -206.052004 
L 287.454404 -205.882512 
L 287.205543 -205.71302 
L 286.975914 -205.543528 
L 286.765251 -205.374035 
L 286.573088 -205.204543 
L 286.398791 -205.035051 
L 286.241583 -204.865558 
z
" id="m3cd2186612" style="stroke:#4d4d4d;stroke-width:1.5;"/>
    </defs>
    <g clip-path="url(#p453cc5d25f)">
     <use style="fill:#808080;stroke:#4d4d4d;stroke-width:1.5;" x="0" xlink:href="#m3cd2186612" y="380.408564"/>
    </g>
   </g>
   <g id="PathCollection_1">
    <defs>
     <path d="M 0 3 
C 0.795609 3 1.55874 2.683901 2.12132 2.12132 
C 2.683901 1.55874 3 0.795609 3 0 
C 3 -0.795609 2.683901 -1.55874 2.12132 -2.12132 
C 1.55874 -2.683901 0.795609 -3 0 -3 
C -0.795609 -3 -1.55874 -2.683901 -2.12132 -2.12132 
C -2.683901 -1.55874 -3 -0.795609 -3 0 
C -3 0.795609 -2.683901 1.55874 -2.12132 2.12132 
C -1.55874 2.683901 -0.795609 3 0 3 
z
" id="m3b377c847e" style="stroke:#1f77b4;"/>
    </defs>
    <g clip-path="url(#p453cc5d25f)">
     <use style="fill:#1f77b4;stroke:#1f77b4;" x="124.924721" xlink:href="#m3b377c847e" y="228.848568"/>
     <use style="fill:#1f77b4;stroke:#1f77b4;" x="205.055699" xlink:href="#m3b377c847e" y="145.69309"/>
     <use style="fill:#1f77b4;stroke:#1f77b4;" x="285.186678" xlink:href="#m3b377c847e" y="163.68846"/>
    </g>
   </g>
   <g id="PathCollection_2">
    <defs>
     <path d="M 0 3 
C 0.795609 3 1.55874 2.683901 2.12132 2.12132 
C 2.683901 1.55874 3 0.795609 3 0 
C 3 -0.795609 2.683901 -1.55874 2.12132 -2.12132 
C 1.55874 -2.683901 0.795609 -3 0 -3 
C -0.795609 -3 -1.55874 -2.683901 -2.12132 -2.12132 
C -2.683901 -1.55874 -3 -0.795609 -3 0 
C -3 0.795609 -2.683901 1.55874 -2.12132 2.12132 
C -1.55874 2.683901 -0.795609 3 0 3 
z
" id="mbb12cc3b62" style="stroke:#ff7f0e;"/>
    </defs>
    <g clip-path="url(#p453cc5d25f)">
     <use style="fill:#ff7f0e;stroke:#ff7f0e;" x="124.924721" xlink:href="#mbb12cc3b62" y="231.031844"/>
     <use style="fill:#ff7f0e;stroke:#ff7f0e;" x="205.055699" xlink:href="#mbb12cc3b62" y="148.610157"/>
     <use style="fill:#ff7f0e;stroke:#ff7f0e;" x="285.186678" xlink:href="#mbb12cc3b62" y="167.848473"/>
    </g>
   </g>
   <g id="PathCollection_3">
    <defs>
     <path d="M 0 3 
C 0.795609 3 1.55874 2.683901 2.12132 2.12132 
C 2.683901 1.55874 3 0.795609 3 0 
C 3 -0.795609 2.683901 -1.55874 2.12132 -2.12132 
C 1.55874 -2.683901 0.795609 -3 0 -3 
C -0.795609 -3 -1.55874 -2.683901 -2.12132 -2.12132 
C -2.683901 -1.55874 -3 -0.795609 -3 0 
C -3 0.795609 -2.683901 1.55874 -2.12132 2.12132 
C -1.55874 2.683901 -0.795609 3 0 3 
z
" id="mdbe1fe6543" style="stroke:#2ca02c;"/>
    </defs>
    <g clip-path="url(#p453cc5d25f)">
     <use style="fill:#2ca02c;stroke:#2ca02c;" x="124.924721" xlink:href="#mdbe1fe6543" y="231.150226"/>
     <use style="fill:#2ca02c;stroke:#2ca02c;" x="205.055699" xlink:href="#mdbe1fe6543" y="151.685254"/>
     <use style="fill:#2ca02c;stroke:#2ca02c;" x="285.186678" xlink:href="#mdbe1fe6543" y="170.514515"/>
    </g>
   </g>
   <g id="PathCollection_4">
    <defs>
     <path d="M 0 3 
C 0.795609 3 1.55874 2.683901 2.12132 2.12132 
C 2.683901 1.55874 3 0.795609 3 0 
C 3 -0.795609 2.683901 -1.55874 2.12132 -2.12132 
C 1.55874 -2.683901 0.795609 -3 0 -3 
C -0.795609 -3 -1.55874 -2.683901 -2.12132 -2.12132 
C -2.683901 -1.55874 -3 -0.795609 -3 0 
C -3 0.795609 -2.683901 1.55874 -2.12132 2.12132 
C -1.55874 2.683901 -0.795609 3 0 3 
z
" id="mb2c24f10a1" style="stroke:#d62728;"/>
    </defs>
    <g clip-path="url(#p453cc5d25f)">
     <use style="fill:#d62728;stroke:#d62728;" x="124.924721" xlink:href="#mb2c24f10a1" y="231.443451"/>
     <use style="fill:#d62728;stroke:#d62728;" x="205.055699" xlink:href="#mb2c24f10a1" y="154.232744"/>
     <use style="fill:#d62728;stroke:#d62728;" x="285.186678" xlink:href="#mb2c24f10a1" y="170.617814"/>
    </g>
   </g>
   <g id="matplotlib.axis_1">
    <g id="xtick_1">
     <g id="line2d_1">
      <defs>
       <path d="M 0 0 
L 0 3.5 
" id="mbd3b49af7b" style="stroke:#000000;stroke-width:0.8;"/>
      </defs>
      <g>
       <use style="stroke:#000000;stroke-width:0.8;" x="124.924721" xlink:href="#mbd3b49af7b" y="255.36825"/>
      </g>
     </g>
     <g id="text_1">
      <!-- segment 1 -->
      <defs>
       <path d="M 3.078125 15.484375 
L 11.765625 16.84375 
Q 12.5 11.625 15.84375 8.84375 
Q 19.1875 6.0625 25.203125 6.0625 
Q 31.25 6.0625 34.171875 8.515625 
Q 37.109375 10.984375 37.109375 14.3125 
Q 37.109375 17.28125 34.515625 19 
Q 32.71875 20.171875 25.53125 21.96875 
Q 15.875 24.421875 12.140625 26.203125 
Q 8.40625 27.984375 6.46875 31.125 
Q 4.546875 34.28125 4.546875 38.09375 
Q 4.546875 41.546875 6.125 44.5 
Q 7.71875 47.46875 10.453125 49.421875 
Q 12.5 50.921875 16.03125 51.96875 
Q 19.578125 53.03125 23.640625 53.03125 
Q 29.734375 53.03125 34.34375 51.265625 
Q 38.96875 49.515625 41.15625 46.5 
Q 43.359375 43.5 44.1875 38.484375 
L 35.59375 37.3125 
Q 35.015625 41.3125 32.203125 43.546875 
Q 29.390625 45.796875 24.265625 45.796875 
Q 18.21875 45.796875 15.625 43.796875 
Q 13.03125 41.796875 13.03125 39.109375 
Q 13.03125 37.40625 14.109375 36.03125 
Q 15.1875 34.625 17.484375 33.6875 
Q 18.796875 33.203125 25.25 31.453125 
Q 34.578125 28.953125 38.25 27.359375 
Q 41.9375 25.78125 44.03125 22.75 
Q 46.140625 19.734375 46.140625 15.234375 
Q 46.140625 10.84375 43.578125 6.953125 
Q 41.015625 3.078125 36.171875 0.953125 
Q 31.34375 -1.171875 25.25 -1.171875 
Q 15.140625 -1.171875 9.84375 3.03125 
Q 4.546875 7.234375 3.078125 15.484375 
z
" id="ArialMT-115"/>
       <path d="M 42.09375 16.703125 
L 51.171875 15.578125 
Q 49.03125 7.625 43.21875 3.21875 
Q 37.40625 -1.171875 28.375 -1.171875 
Q 17 -1.171875 10.328125 5.828125 
Q 3.65625 12.84375 3.65625 25.484375 
Q 3.65625 38.578125 10.390625 45.796875 
Q 17.140625 53.03125 27.875 53.03125 
Q 38.28125 53.03125 44.875 45.953125 
Q 51.46875 38.875 51.46875 26.03125 
Q 51.46875 25.25 51.421875 23.6875 
L 12.75 23.6875 
Q 13.234375 15.140625 17.578125 10.59375 
Q 21.921875 6.0625 28.421875 6.0625 
Q 33.25 6.0625 36.671875 8.59375 
Q 40.09375 11.140625 42.09375 16.703125 
z
M 13.234375 30.90625 
L 42.1875 30.90625 
Q 41.609375 37.453125 38.875 40.71875 
Q 34.671875 45.796875 27.984375 45.796875 
Q 21.921875 45.796875 17.796875 41.75 
Q 13.671875 37.703125 13.234375 30.90625 
z
" id="ArialMT-101"/>
       <path d="M 4.984375 -4.296875 
L 13.53125 -5.5625 
Q 14.0625 -9.515625 16.5 -11.328125 
Q 19.78125 -13.765625 25.4375 -13.765625 
Q 31.546875 -13.765625 34.859375 -11.328125 
Q 38.1875 -8.890625 39.359375 -4.5 
Q 40.046875 -1.8125 39.984375 6.78125 
Q 34.234375 0 25.640625 0 
Q 14.9375 0 9.078125 7.71875 
Q 3.21875 15.4375 3.21875 26.21875 
Q 3.21875 33.640625 5.90625 39.90625 
Q 8.59375 46.1875 13.6875 49.609375 
Q 18.796875 53.03125 25.6875 53.03125 
Q 34.859375 53.03125 40.828125 45.609375 
L 40.828125 51.859375 
L 48.921875 51.859375 
L 48.921875 7.03125 
Q 48.921875 -5.078125 46.453125 -10.125 
Q 44 -15.1875 38.640625 -18.109375 
Q 33.296875 -21.046875 25.484375 -21.046875 
Q 16.21875 -21.046875 10.5 -16.875 
Q 4.78125 -12.703125 4.984375 -4.296875 
z
M 12.25 26.859375 
Q 12.25 16.65625 16.296875 11.96875 
Q 20.359375 7.28125 26.46875 7.28125 
Q 32.515625 7.28125 36.609375 11.9375 
Q 40.71875 16.609375 40.71875 26.5625 
Q 40.71875 36.078125 36.5 40.90625 
Q 32.28125 45.75 26.3125 45.75 
Q 20.453125 45.75 16.34375 40.984375 
Q 12.25 36.234375 12.25 26.859375 
z
" id="ArialMT-103"/>
       <path d="M 6.59375 0 
L 6.59375 51.859375 
L 14.453125 51.859375 
L 14.453125 44.578125 
Q 16.890625 48.390625 20.9375 50.703125 
Q 25 53.03125 30.171875 53.03125 
Q 35.9375 53.03125 39.625 50.640625 
Q 43.3125 48.25 44.828125 43.953125 
Q 50.984375 53.03125 60.84375 53.03125 
Q 68.5625 53.03125 72.703125 48.75 
Q 76.859375 44.484375 76.859375 35.59375 
L 76.859375 0 
L 68.109375 0 
L 68.109375 32.671875 
Q 68.109375 37.9375 67.25 40.25 
Q 66.40625 42.578125 64.15625 43.984375 
Q 61.921875 45.40625 58.890625 45.40625 
Q 53.421875 45.40625 49.796875 41.765625 
Q 46.1875 38.140625 46.1875 30.125 
L 46.1875 0 
L 37.40625 0 
L 37.40625 33.6875 
Q 37.40625 39.546875 35.25 42.46875 
Q 33.109375 45.40625 28.21875 45.40625 
Q 24.515625 45.40625 21.359375 43.453125 
Q 18.21875 41.5 16.796875 37.734375 
Q 15.375 33.984375 15.375 26.90625 
L 15.375 0 
z
" id="ArialMT-109"/>
       <path d="M 6.59375 0 
L 6.59375 51.859375 
L 14.5 51.859375 
L 14.5 44.484375 
Q 20.21875 53.03125 31 53.03125 
Q 35.6875 53.03125 39.625 51.34375 
Q 43.5625 49.65625 45.515625 46.921875 
Q 47.46875 44.1875 48.25 40.4375 
Q 48.734375 37.984375 48.734375 31.890625 
L 48.734375 0 
L 39.9375 0 
L 39.9375 31.546875 
Q 39.9375 36.921875 38.90625 39.578125 
Q 37.890625 42.234375 35.28125 43.8125 
Q 32.671875 45.40625 29.15625 45.40625 
Q 23.53125 45.40625 19.453125 41.84375 
Q 15.375 38.28125 15.375 28.328125 
L 15.375 0 
z
" id="ArialMT-110"/>
       <path d="M 25.78125 7.859375 
L 27.046875 0.09375 
Q 23.34375 -0.6875 20.40625 -0.6875 
Q 15.625 -0.6875 12.984375 0.828125 
Q 10.359375 2.34375 9.28125 4.8125 
Q 8.203125 7.28125 8.203125 15.1875 
L 8.203125 45.015625 
L 1.765625 45.015625 
L 1.765625 51.859375 
L 8.203125 51.859375 
L 8.203125 64.703125 
L 16.9375 69.96875 
L 16.9375 51.859375 
L 25.78125 51.859375 
L 25.78125 45.015625 
L 16.9375 45.015625 
L 16.9375 14.703125 
Q 16.9375 10.9375 17.40625 9.859375 
Q 17.875 8.796875 18.921875 8.15625 
Q 19.96875 7.515625 21.921875 7.515625 
Q 23.390625 7.515625 25.78125 7.859375 
z
" id="ArialMT-116"/>
       <path id="ArialMT-32"/>
       <path d="M 37.25 0 
L 28.46875 0 
L 28.46875 56 
Q 25.296875 52.984375 20.140625 49.953125 
Q 14.984375 46.921875 10.890625 45.40625 
L 10.890625 53.90625 
Q 18.265625 57.375 23.78125 62.296875 
Q 29.296875 67.234375 31.59375 71.875 
L 37.25 71.875 
z
" id="ArialMT-49"/>
      </defs>
      <g transform="translate(83.735088 369.041495)rotate(-45)scale(0.28 -0.28)">
       <use xlink:href="#ArialMT-115"/>
       <use x="50" xlink:href="#ArialMT-101"/>
       <use x="105.615234" xlink:href="#ArialMT-103"/>
       <use x="161.230469" xlink:href="#ArialMT-109"/>
       <use x="244.53125" xlink:href="#ArialMT-101"/>
       <use x="300.146484" xlink:href="#ArialMT-110"/>
       <use x="355.761719" xlink:href="#ArialMT-116"/>
       <use x="383.544922" xlink:href="#ArialMT-32"/>
       <use x="411.328125" xlink:href="#ArialMT-49"/>
      </g>
     </g>
    </g>
    <g id="xtick_2">
     <g id="line2d_2">
      <g>
       <use style="stroke:#000000;stroke-width:0.8;" x="205.055699" xlink:href="#mbd3b49af7b" y="255.36825"/>
      </g>
     </g>
     <g id="text_2">
      <!-- segment 2 -->
      <defs>
       <path d="M 50.34375 8.453125 
L 50.34375 0 
L 3.03125 0 
Q 2.9375 3.171875 4.046875 6.109375 
Q 5.859375 10.9375 9.828125 15.625 
Q 13.8125 20.3125 21.34375 26.46875 
Q 33.015625 36.03125 37.109375 41.625 
Q 41.21875 47.21875 41.21875 52.203125 
Q 41.21875 57.421875 37.46875 61 
Q 33.734375 64.59375 27.734375 64.59375 
Q 21.390625 64.59375 17.578125 60.78125 
Q 13.765625 56.984375 13.71875 50.25 
L 4.6875 51.171875 
Q 5.609375 61.28125 11.65625 66.578125 
Q 17.71875 71.875 27.9375 71.875 
Q 38.234375 71.875 44.234375 66.15625 
Q 50.25 60.453125 50.25 52 
Q 50.25 47.703125 48.484375 43.546875 
Q 46.734375 39.40625 42.65625 34.8125 
Q 38.578125 30.21875 29.109375 22.21875 
Q 21.1875 15.578125 18.9375 13.203125 
Q 16.703125 10.84375 15.234375 8.453125 
z
" id="ArialMT-50"/>
      </defs>
      <g transform="translate(163.866067 369.041495)rotate(-45)scale(0.28 -0.28)">
       <use xlink:href="#ArialMT-115"/>
       <use x="50" xlink:href="#ArialMT-101"/>
       <use x="105.615234" xlink:href="#ArialMT-103"/>
       <use x="161.230469" xlink:href="#ArialMT-109"/>
       <use x="244.53125" xlink:href="#ArialMT-101"/>
       <use x="300.146484" xlink:href="#ArialMT-110"/>
       <use x="355.761719" xlink:href="#ArialMT-116"/>
       <use x="383.544922" xlink:href="#ArialMT-32"/>
       <use x="411.328125" xlink:href="#ArialMT-50"/>
      </g>
     </g>
    </g>
    <g id="xtick_3">
     <g id="line2d_3">
      <g>
       <use style="stroke:#000000;stroke-width:0.8;" x="285.186678" xlink:href="#mbd3b49af7b" y="255.36825"/>
      </g>
     </g>
     <g id="text_3">
      <!-- segment 3 -->
      <defs>
       <path d="M 4.203125 18.890625 
L 12.984375 20.0625 
Q 14.5 12.59375 18.140625 9.296875 
Q 21.78125 6 27 6 
Q 33.203125 6 37.46875 10.296875 
Q 41.75 14.59375 41.75 20.953125 
Q 41.75 27 37.796875 30.921875 
Q 33.84375 34.859375 27.734375 34.859375 
Q 25.25 34.859375 21.53125 33.890625 
L 22.515625 41.609375 
Q 23.390625 41.5 23.921875 41.5 
Q 29.546875 41.5 34.03125 44.421875 
Q 38.53125 47.359375 38.53125 53.46875 
Q 38.53125 58.296875 35.25 61.46875 
Q 31.984375 64.65625 26.8125 64.65625 
Q 21.6875 64.65625 18.265625 61.421875 
Q 14.84375 58.203125 13.875 51.765625 
L 5.078125 53.328125 
Q 6.6875 62.15625 12.390625 67.015625 
Q 18.109375 71.875 26.609375 71.875 
Q 32.46875 71.875 37.390625 69.359375 
Q 42.328125 66.84375 44.9375 62.5 
Q 47.5625 58.15625 47.5625 53.265625 
Q 47.5625 48.640625 45.0625 44.828125 
Q 42.578125 41.015625 37.703125 38.765625 
Q 44.046875 37.3125 47.5625 32.6875 
Q 51.078125 28.078125 51.078125 21.140625 
Q 51.078125 11.765625 44.234375 5.25 
Q 37.40625 -1.265625 26.953125 -1.265625 
Q 17.53125 -1.265625 11.296875 4.34375 
Q 5.078125 9.96875 4.203125 18.890625 
z
" id="ArialMT-51"/>
      </defs>
      <g transform="translate(243.997045 369.041495)rotate(-45)scale(0.28 -0.28)">
       <use xlink:href="#ArialMT-115"/>
       <use x="50" xlink:href="#ArialMT-101"/>
       <use x="105.615234" xlink:href="#ArialMT-103"/>
       <use x="161.230469" xlink:href="#ArialMT-109"/>
       <use x="244.53125" xlink:href="#ArialMT-101"/>
       <use x="300.146484" xlink:href="#ArialMT-110"/>
       <use x="355.761719" xlink:href="#ArialMT-116"/>
       <use x="383.544922" xlink:href="#ArialMT-32"/>
       <use x="411.328125" xlink:href="#ArialMT-51"/>
      </g>
     </g>
    </g>
   </g>
   <g id="matplotlib.axis_2">
    <g id="ytick_1">
     <g id="line2d_4">
      <defs>
       <path d="M 0 0 
L -3.5 0 
" id="mb94e7abf43" style="stroke:#000000;stroke-width:0.8;"/>
      </defs>
      <g>
       <use style="stroke:#000000;stroke-width:0.8;" x="82.726875" xlink:href="#mb94e7abf43" y="235.600977"/>
      </g>
     </g>
     <g id="text_4">
      <!-- 0.0 -->
      <defs>
       <path d="M 4.15625 35.296875 
Q 4.15625 48 6.765625 55.734375 
Q 9.375 63.484375 14.515625 67.671875 
Q 19.671875 71.875 27.484375 71.875 
Q 33.25 71.875 37.59375 69.546875 
Q 41.9375 67.234375 44.765625 62.859375 
Q 47.609375 58.5 49.21875 52.21875 
Q 50.828125 45.953125 50.828125 35.296875 
Q 50.828125 22.703125 48.234375 14.96875 
Q 45.65625 7.234375 40.5 3 
Q 35.359375 -1.21875 27.484375 -1.21875 
Q 17.140625 -1.21875 11.234375 6.203125 
Q 4.15625 15.140625 4.15625 35.296875 
z
M 13.1875 35.296875 
Q 13.1875 17.671875 17.3125 11.828125 
Q 21.4375 6 27.484375 6 
Q 33.546875 6 37.671875 11.859375 
Q 41.796875 17.71875 41.796875 35.296875 
Q 41.796875 52.984375 37.671875 58.78125 
Q 33.546875 64.59375 27.390625 64.59375 
Q 21.34375 64.59375 17.71875 59.46875 
Q 13.1875 52.9375 13.1875 35.296875 
z
" id="ArialMT-48"/>
       <path d="M 9.078125 0 
L 9.078125 10.015625 
L 19.09375 10.015625 
L 19.09375 0 
z
" id="ArialMT-46"/>
      </defs>
      <g transform="translate(36.806875 245.621915)scale(0.28 -0.28)">
       <use xlink:href="#ArialMT-48"/>
       <use x="55.615234" xlink:href="#ArialMT-46"/>
       <use x="83.398438" xlink:href="#ArialMT-48"/>
      </g>
     </g>
    </g>
    <g id="ytick_2">
     <g id="line2d_5">
      <g>
       <use style="stroke:#000000;stroke-width:0.8;" x="82.726875" xlink:href="#mb94e7abf43" y="136.764614"/>
      </g>
     </g>
     <g id="text_5">
      <!-- 0.5 -->
      <defs>
       <path d="M 4.15625 18.75 
L 13.375 19.53125 
Q 14.40625 12.796875 18.140625 9.390625 
Q 21.875 6 27.15625 6 
Q 33.5 6 37.890625 10.78125 
Q 42.28125 15.578125 42.28125 23.484375 
Q 42.28125 31 38.0625 35.34375 
Q 33.84375 39.703125 27 39.703125 
Q 22.75 39.703125 19.328125 37.765625 
Q 15.921875 35.84375 13.96875 32.765625 
L 5.71875 33.84375 
L 12.640625 70.609375 
L 48.25 70.609375 
L 48.25 62.203125 
L 19.671875 62.203125 
L 15.828125 42.96875 
Q 22.265625 47.46875 29.34375 47.46875 
Q 38.71875 47.46875 45.15625 40.96875 
Q 51.609375 34.46875 51.609375 24.265625 
Q 51.609375 14.546875 45.953125 7.46875 
Q 39.0625 -1.21875 27.15625 -1.21875 
Q 17.390625 -1.21875 11.203125 4.25 
Q 5.03125 9.71875 4.15625 18.75 
z
" id="ArialMT-53"/>
      </defs>
      <g transform="translate(36.806875 146.785551)scale(0.28 -0.28)">
       <use xlink:href="#ArialMT-48"/>
       <use x="55.615234" xlink:href="#ArialMT-46"/>
       <use x="83.398438" xlink:href="#ArialMT-53"/>
      </g>
     </g>
    </g>
    <g id="ytick_3">
     <g id="line2d_6">
      <g>
       <use style="stroke:#000000;stroke-width:0.8;" x="82.726875" xlink:href="#mb94e7abf43" y="37.92825"/>
      </g>
     </g>
     <g id="text_6">
      <!-- 1.0 -->
      <g transform="translate(36.806875 47.949188)scale(0.28 -0.28)">
       <use xlink:href="#ArialMT-49"/>
       <use x="55.615234" xlink:href="#ArialMT-46"/>
       <use x="83.398438" xlink:href="#ArialMT-48"/>
      </g>
     </g>
    </g>
    <g id="text_7">
     <!-- median of error  -->
     <defs>
      <path d="M 40.234375 0 
L 40.234375 6.546875 
Q 35.296875 -1.171875 25.734375 -1.171875 
Q 19.53125 -1.171875 14.328125 2.25 
Q 9.125 5.671875 6.265625 11.796875 
Q 3.421875 17.921875 3.421875 25.875 
Q 3.421875 33.640625 6 39.96875 
Q 8.59375 46.296875 13.765625 49.65625 
Q 18.953125 53.03125 25.34375 53.03125 
Q 30.03125 53.03125 33.6875 51.046875 
Q 37.359375 49.078125 39.65625 45.90625 
L 39.65625 71.578125 
L 48.390625 71.578125 
L 48.390625 0 
z
M 12.453125 25.875 
Q 12.453125 15.921875 16.640625 10.984375 
Q 20.84375 6.0625 26.5625 6.0625 
Q 32.328125 6.0625 36.34375 10.765625 
Q 40.375 15.484375 40.375 25.140625 
Q 40.375 35.796875 36.265625 40.765625 
Q 32.171875 45.75 26.171875 45.75 
Q 20.3125 45.75 16.375 40.96875 
Q 12.453125 36.1875 12.453125 25.875 
z
" id="ArialMT-100"/>
      <path d="M 6.640625 61.46875 
L 6.640625 71.578125 
L 15.4375 71.578125 
L 15.4375 61.46875 
z
M 6.640625 0 
L 6.640625 51.859375 
L 15.4375 51.859375 
L 15.4375 0 
z
" id="ArialMT-105"/>
      <path d="M 40.4375 6.390625 
Q 35.546875 2.25 31.03125 0.53125 
Q 26.515625 -1.171875 21.34375 -1.171875 
Q 12.796875 -1.171875 8.203125 3 
Q 3.609375 7.171875 3.609375 13.671875 
Q 3.609375 17.484375 5.34375 20.625 
Q 7.078125 23.78125 9.890625 25.6875 
Q 12.703125 27.59375 16.21875 28.5625 
Q 18.796875 29.25 24.03125 29.890625 
Q 34.671875 31.15625 39.703125 32.90625 
Q 39.75 34.71875 39.75 35.203125 
Q 39.75 40.578125 37.25 42.78125 
Q 33.890625 45.75 27.25 45.75 
Q 21.046875 45.75 18.09375 43.578125 
Q 15.140625 41.40625 13.71875 35.890625 
L 5.125 37.0625 
Q 6.296875 42.578125 8.984375 45.96875 
Q 11.671875 49.359375 16.75 51.1875 
Q 21.828125 53.03125 28.515625 53.03125 
Q 35.15625 53.03125 39.296875 51.46875 
Q 43.453125 49.90625 45.40625 47.53125 
Q 47.359375 45.171875 48.140625 41.546875 
Q 48.578125 39.3125 48.578125 33.453125 
L 48.578125 21.734375 
Q 48.578125 9.46875 49.140625 6.21875 
Q 49.703125 2.984375 51.375 0 
L 42.1875 0 
Q 40.828125 2.734375 40.4375 6.390625 
z
M 39.703125 26.03125 
Q 34.90625 24.078125 25.34375 22.703125 
Q 19.921875 21.921875 17.671875 20.9375 
Q 15.4375 19.96875 14.203125 18.09375 
Q 12.984375 16.21875 12.984375 13.921875 
Q 12.984375 10.40625 15.640625 8.0625 
Q 18.3125 5.71875 23.4375 5.71875 
Q 28.515625 5.71875 32.46875 7.9375 
Q 36.421875 10.15625 38.28125 14.015625 
Q 39.703125 17 39.703125 22.796875 
z
" id="ArialMT-97"/>
      <path d="M 3.328125 25.921875 
Q 3.328125 40.328125 11.328125 47.265625 
Q 18.015625 53.03125 27.640625 53.03125 
Q 38.328125 53.03125 45.109375 46.015625 
Q 51.90625 39.015625 51.90625 26.65625 
Q 51.90625 16.65625 48.90625 10.90625 
Q 45.90625 5.171875 40.15625 2 
Q 34.421875 -1.171875 27.640625 -1.171875 
Q 16.75 -1.171875 10.03125 5.8125 
Q 3.328125 12.796875 3.328125 25.921875 
z
M 12.359375 25.921875 
Q 12.359375 15.96875 16.703125 11.015625 
Q 21.046875 6.0625 27.640625 6.0625 
Q 34.1875 6.0625 38.53125 11.03125 
Q 42.875 16.015625 42.875 26.21875 
Q 42.875 35.84375 38.5 40.796875 
Q 34.125 45.75 27.640625 45.75 
Q 21.046875 45.75 16.703125 40.8125 
Q 12.359375 35.890625 12.359375 25.921875 
z
" id="ArialMT-111"/>
      <path d="M 8.6875 0 
L 8.6875 45.015625 
L 0.921875 45.015625 
L 0.921875 51.859375 
L 8.6875 51.859375 
L 8.6875 57.375 
Q 8.6875 62.59375 9.625 65.140625 
Q 10.890625 68.5625 14.078125 70.671875 
Q 17.28125 72.796875 23.046875 72.796875 
Q 26.765625 72.796875 31.25 71.921875 
L 29.9375 64.265625 
Q 27.203125 64.75 24.75 64.75 
Q 20.75 64.75 19.09375 63.03125 
Q 17.4375 61.328125 17.4375 56.640625 
L 17.4375 51.859375 
L 27.546875 51.859375 
L 27.546875 45.015625 
L 17.4375 45.015625 
L 17.4375 0 
z
" id="ArialMT-102"/>
      <path d="M 6.5 0 
L 6.5 51.859375 
L 14.40625 51.859375 
L 14.40625 44 
Q 17.4375 49.515625 20 51.265625 
Q 22.5625 53.03125 25.640625 53.03125 
Q 30.078125 53.03125 34.671875 50.203125 
L 31.640625 42.046875 
Q 28.421875 43.953125 25.203125 43.953125 
Q 22.3125 43.953125 20.015625 42.21875 
Q 17.71875 40.484375 16.75 37.40625 
Q 15.28125 32.71875 15.28125 27.15625 
L 15.28125 0 
z
" id="ArialMT-114"/>
     </defs>
     <g transform="translate(27.241875 245.459813)rotate(-90)scale(0.28 -0.28)">
      <use xlink:href="#ArialMT-109"/>
      <use x="83.300781" xlink:href="#ArialMT-101"/>
      <use x="138.916016" xlink:href="#ArialMT-100"/>
      <use x="194.53125" xlink:href="#ArialMT-105"/>
      <use x="216.748047" xlink:href="#ArialMT-97"/>
      <use x="272.363281" xlink:href="#ArialMT-110"/>
      <use x="327.978516" xlink:href="#ArialMT-32"/>
      <use x="355.761719" xlink:href="#ArialMT-111"/>
      <use x="411.376953" xlink:href="#ArialMT-102"/>
      <use x="439.160156" xlink:href="#ArialMT-32"/>
      <use x="466.943359" xlink:href="#ArialMT-101"/>
      <use x="522.558594" xlink:href="#ArialMT-114"/>
      <use x="555.859375" xlink:href="#ArialMT-114"/>
      <use x="589.160156" xlink:href="#ArialMT-111"/>
      <use x="644.775391" xlink:href="#ArialMT-114"/>
      <use x="678.076172" xlink:href="#ArialMT-32"/>
     </g>
    </g>
   </g>
   <g id="line2d_7">
    <path clip-path="url(#p453cc5d25f)" d="M 124.924721 231.443451 
L 124.924721 231.031844 
" style="fill:none;stroke:#4d4d4d;stroke-linecap:square;stroke-width:1.5;"/>
   </g>
   <g id="line2d_8">
    <path clip-path="url(#p453cc5d25f)" d="M 124.924721 231.223533 
L 124.924721 230.486025 
" style="fill:none;stroke:#4d4d4d;stroke-linecap:square;stroke-width:4.5;"/>
   </g>
   <g id="line2d_9">
    <path clip-path="url(#p453cc5d25f)" d="M 205.055699 154.232744 
L 205.055699 145.69309 
" style="fill:none;stroke:#4d4d4d;stroke-linecap:square;stroke-width:1.5;"/>
   </g>
   <g id="line2d_10">
    <path clip-path="url(#p453cc5d25f)" d="M 205.055699 152.322126 
L 205.055699 147.88089 
" style="fill:none;stroke:#4d4d4d;stroke-linecap:square;stroke-width:4.5;"/>
   </g>
   <g id="line2d_11">
    <path clip-path="url(#p453cc5d25f)" d="M 285.186678 170.617814 
L 285.186678 163.68846 
" style="fill:none;stroke:#4d4d4d;stroke-linecap:square;stroke-width:1.5;"/>
   </g>
   <g id="line2d_12">
    <path clip-path="url(#p453cc5d25f)" d="M 285.186678 170.54034 
L 285.186678 166.80847 
" style="fill:none;stroke:#4d4d4d;stroke-linecap:square;stroke-width:4.5;"/>
   </g>
   <g id="patch_3">
    <path d="M 82.726875 255.36825 
L 82.726875 37.92825 
" style="fill:none;stroke:#000000;stroke-linecap:square;stroke-linejoin:miter;stroke-width:0.8;"/>
   </g>
   <g id="patch_4">
    <path d="M 305.926875 255.36825 
L 305.926875 37.92825 
" style="fill:none;stroke:#000000;stroke-linecap:square;stroke-linejoin:miter;stroke-width:0.8;"/>
   </g>
   <g id="patch_5">
    <path d="M 82.726875 255.36825 
L 305.926875 255.36825 
" style="fill:none;stroke:#000000;stroke-linecap:square;stroke-linejoin:miter;stroke-width:0.8;"/>
   </g>
   <g id="patch_6">
    <path d="M 82.726875 37.92825 
L 305.926875 37.92825 
" style="fill:none;stroke:#000000;stroke-linecap:square;stroke-linejoin:miter;stroke-width:0.8;"/>
   </g>
   <g id="PathCollection_5">
    <defs>
     <path d="M 0 1.5 
C 0.397805 1.5 0.77937 1.341951 1.06066 1.06066 
C 1.341951 0.77937 1.5 0.397805 1.5 0 
C 1.5 -0.397805 1.341951 -0.77937 1.06066 -1.06066 
C 0.77937 -1.341951 0.397805 -1.5 0 -1.5 
C -0.397805 -1.5 -0.77937 -1.341951 -1.06066 -1.06066 
C -1.341951 -0.77937 -1.5 -0.397805 -1.5 0 
C -1.5 0.397805 -1.341951 0.77937 -1.06066 1.06066 
C -0.77937 1.341951 -0.397805 1.5 0 1.5 
z
" id="m93dadfba4c" style="stroke:#4d4d4d;"/>
    </defs>
    <g clip-path="url(#p453cc5d25f)">
     <use style="fill:#ffffff;stroke:#4d4d4d;" x="124.924721" xlink:href="#m93dadfba4c" y="231.091035"/>
    </g>
   </g>
   <g id="PathCollection_6">
    <g clip-path="url(#p453cc5d25f)">
     <use style="fill:#ffffff;stroke:#4d4d4d;" x="205.055699" xlink:href="#m93dadfba4c" y="150.147705"/>
    </g>
   </g>
   <g id="PathCollection_7">
    <g clip-path="url(#p453cc5d25f)">
     <use style="fill:#ffffff;stroke:#4d4d4d;" x="285.186678" xlink:href="#m93dadfba4c" y="169.181494"/>
    </g>
   </g>
   <g id="text_8">
    <!-- our method -->
    <defs>
     <path d="M 40.578125 0 
L 40.578125 7.625 
Q 34.515625 -1.171875 24.125 -1.171875 
Q 19.53125 -1.171875 15.546875 0.578125 
Q 11.578125 2.34375 9.640625 5 
Q 7.71875 7.671875 6.9375 11.53125 
Q 6.390625 14.109375 6.390625 19.734375 
L 6.390625 51.859375 
L 15.1875 51.859375 
L 15.1875 23.09375 
Q 15.1875 16.21875 15.71875 13.8125 
Q 16.546875 10.359375 19.234375 8.375 
Q 21.921875 6.390625 25.875 6.390625 
Q 29.828125 6.390625 33.296875 8.421875 
Q 36.765625 10.453125 38.203125 13.9375 
Q 39.65625 17.4375 39.65625 24.078125 
L 39.65625 51.859375 
L 48.4375 51.859375 
L 48.4375 0 
z
" id="ArialMT-117"/>
     <path d="M 6.59375 0 
L 6.59375 71.578125 
L 15.375 71.578125 
L 15.375 45.90625 
Q 21.53125 53.03125 30.90625 53.03125 
Q 36.671875 53.03125 40.921875 50.75 
Q 45.171875 48.484375 47 44.484375 
Q 48.828125 40.484375 48.828125 32.859375 
L 48.828125 0 
L 40.046875 0 
L 40.046875 32.859375 
Q 40.046875 39.453125 37.1875 42.453125 
Q 34.328125 45.453125 29.109375 45.453125 
Q 25.203125 45.453125 21.75 43.421875 
Q 18.3125 41.40625 16.84375 37.9375 
Q 15.375 34.46875 15.375 28.375 
L 15.375 0 
z
" id="ArialMT-104"/>
    </defs>
    <g transform="translate(109.350375 31.25025)scale(0.336 -0.336)">
     <use xlink:href="#ArialMT-111"/>
     <use x="55.615234" xlink:href="#ArialMT-117"/>
     <use x="111.230469" xlink:href="#ArialMT-114"/>
     <use x="144.53125" xlink:href="#ArialMT-32"/>
     <use x="172.314453" xlink:href="#ArialMT-109"/>
     <use x="255.615234" xlink:href="#ArialMT-101"/>
     <use x="311.230469" xlink:href="#ArialMT-116"/>
     <use x="339.013672" xlink:href="#ArialMT-104"/>
     <use x="394.628906" xlink:href="#ArialMT-111"/>
     <use x="450.244141" xlink:href="#ArialMT-100"/>
    </g>
   </g>
   <g id="legend_1">
    <g id="patch_7">
     <path d="M 320.686875 145.1745 
L 448.126875 145.1745 
Q 451.726875 145.1745 451.726875 141.5745 
L 451.726875 41.52825 
Q 451.726875 37.92825 448.126875 37.92825 
L 320.686875 37.92825 
Q 317.086875 37.92825 317.086875 41.52825 
L 317.086875 141.5745 
Q 317.086875 145.1745 320.686875 145.1745 
z
" style="fill:#ffffff;opacity:0.8;stroke:#cccccc;stroke-linejoin:miter;"/>
    </g>
    <g id="PathCollection_8">
     <g>
      <use style="fill:#1f77b4;stroke:#1f77b4;" x="342.286875" xlink:href="#m3b377c847e" y="53.287313"/>
     </g>
    </g>
    <g id="text_9">
     <!-- $N_t = 1500$ -->
     <defs>
      <path d="M 72.703125 65.296875 
L 72.703125 63.703125 
Q 70 63.09375 68.953125 62.75 
Q 67.90625 62.40625 66.65625 60.65625 
Q 65.40625 58.90625 64.75 56.796875 
Q 64.09375 54.703125 62.5 49.203125 
L 47.90625 -1.5 
L 46.09375 -1.5 
L 23.09375 53.5 
L 11.703125 11.296875 
Q 10.796875 8.203125 10.796875 5.90625 
Q 10.796875 3.796875 12.34375 2.84375 
Q 13.90625 1.90625 17.796875 1.59375 
L 17.796875 0 
L -2 0 
L -2 1.59375 
Q 2.296875 2.203125 4.09375 4.75 
Q 5.90625 7.296875 8.59375 16.796875 
L 20.296875 58.296875 
Q 18 63.703125 11.703125 63.703125 
L 11.703125 65.296875 
L 27.703125 65.296875 
L 48.40625 15.40625 
L 59 54.203125 
Q 59.796875 57 59.796875 58.59375 
Q 59.796875 61.296875 58.4375 62.296875 
Q 57.09375 63.296875 52.90625 63.703125 
L 52.90625 65.296875 
z
" id="STIXGeneral-Italic-78"/>
      <path d="M 29.59375 42.796875 
L 29.09375 39.59375 
L 20.703125 39.59375 
L 12 6.796875 
Q 11.796875 6 11.796875 5.40625 
Q 11.796875 3.796875 13.296875 3.796875 
Q 14.5 3.796875 16.09375 5.34375 
Q 17.703125 6.90625 21.40625 11.703125 
L 22.703125 11 
Q 18.09375 4 15.140625 1.453125 
Q 12.203125 -1.09375 8.40625 -1.09375 
Q 3.796875 -1.09375 3.796875 2.59375 
Q 3.796875 3.59375 5.40625 10 
L 13.203125 39.59375 
L 5.703125 39.59375 
L 5.59375 40.203125 
Q 5.59375 42 8.90625 42.703125 
Q 11.40625 43.296875 15.5 46.546875 
Q 19.59375 49.796875 22.203125 53.703125 
Q 22.796875 54.59375 23.59375 54.59375 
Q 24.5 54.59375 24.5 53.796875 
Q 24.5 53.296875 24.40625 53.09375 
L 21.59375 42.796875 
z
" id="STIXGeneral-Italic-116"/>
      <path d="M 63.703125 32 
L 4.796875 32 
L 4.796875 38.59375 
L 63.703125 38.59375 
z
M 63.703125 12 
L 4.796875 12 
L 4.796875 18.59375 
L 63.703125 18.59375 
z
" id="STIXGeneral-Regular-61"/>
      <path d="M 39.40625 0 
L 11.796875 0 
L 11.796875 1.5 
Q 17.296875 1.796875 19.296875 3.546875 
Q 21.296875 5.296875 21.296875 9.5 
L 21.296875 54.40625 
Q 21.296875 59.296875 18.296875 59.296875 
Q 16.90625 59.296875 13.796875 58.09375 
L 11.09375 57.09375 
L 11.09375 58.5 
L 29 67.59375 
L 29.90625 67.296875 
L 29.90625 7.59375 
Q 29.90625 4.296875 31.90625 2.890625 
Q 33.90625 1.5 39.40625 1.5 
z
" id="STIXGeneral-Regular-49"/>
      <path d="M 43.796875 68.09375 
L 40.203125 59.59375 
Q 39.59375 58.296875 37.5 58.296875 
L 18.09375 58.296875 
L 14.09375 49.796875 
Q 25.09375 47.703125 30 45.25 
Q 34.90625 42.796875 39.09375 37 
Q 42.59375 32.203125 42.59375 24.296875 
Q 42.59375 17.09375 40.25 12.1875 
Q 37.90625 7.296875 32.796875 3.5 
Q 26 -1.40625 15.796875 -1.40625 
Q 10.09375 -1.40625 6.59375 0.296875 
Q 3.09375 2 3.09375 4.796875 
Q 3.09375 8.59375 7.59375 8.59375 
Q 11.203125 8.59375 15 5.5 
Q 18.90625 2.296875 22.09375 2.296875 
Q 27.296875 2.296875 31.4375 7.5 
Q 35.59375 12.703125 35.59375 19.203125 
Q 35.59375 28.796875 28.90625 34.203125 
Q 20.203125 41.203125 7.59375 41.203125 
Q 6.40625 41.203125 6.40625 42 
L 6.5 42.5 
L 17.40625 66.203125 
L 38.09375 66.203125 
Q 39.796875 66.203125 40.75 66.703125 
Q 41.703125 67.203125 42.90625 68.796875 
z
" id="STIXGeneral-Regular-53"/>
      <path d="M 47.59375 33 
Q 47.59375 26.296875 46.296875 20.34375 
Q 45 14.40625 42.453125 9.40625 
Q 39.90625 4.40625 35.40625 1.5 
Q 30.90625 -1.40625 25 -1.40625 
Q 18.90625 -1.40625 14.296875 1.6875 
Q 9.703125 4.796875 7.203125 10 
Q 4.703125 15.203125 3.546875 21.09375 
Q 2.40625 27 2.40625 33.59375 
Q 2.40625 42.90625 4.703125 50.34375 
Q 7 57.796875 12.34375 62.6875 
Q 17.703125 67.59375 25.40625 67.59375 
Q 35.203125 67.59375 41.390625 58 
Q 47.59375 48.40625 47.59375 33 
z
M 38 32.5 
Q 38 48.296875 34.640625 56.640625 
Q 31.296875 65 24.796875 65 
Q 18.59375 65 15.296875 56.59375 
Q 12 48.203125 12 32.90625 
Q 12 17.5 15.296875 9.34375 
Q 18.59375 1.203125 25 1.203125 
Q 31.296875 1.203125 34.640625 9.34375 
Q 38 17.5 38 32.5 
z
" id="STIXGeneral-Regular-48"/>
     </defs>
     <g transform="translate(374.686875 58.012313)scale(0.18 -0.18)">
      <use transform="translate(0 0.203125)" xlink:href="#STIXGeneral-Italic-78"/>
      <use transform="translate(66.699997 -13.025)scale(0.7)" xlink:href="#STIXGeneral-Italic-116"/>
      <use transform="translate(105.00936 0.203125)" xlink:href="#STIXGeneral-Regular-61"/>
      <use transform="translate(187.949341 0.203125)" xlink:href="#STIXGeneral-Regular-49"/>
      <use transform="translate(237.949326 0.203125)" xlink:href="#STIXGeneral-Regular-53"/>
      <use transform="translate(287.94931 0.203125)" xlink:href="#STIXGeneral-Regular-48"/>
      <use transform="translate(337.949295 0.203125)" xlink:href="#STIXGeneral-Regular-48"/>
     </g>
    </g>
    <g id="PathCollection_9">
     <g>
      <use style="fill:#ff7f0e;stroke:#ff7f0e;" x="342.286875" xlink:href="#mbb12cc3b62" y="78.748875"/>
     </g>
    </g>
    <g id="text_10">
     <!-- $N_t = 3000$ -->
     <defs>
      <path d="M 6.09375 51 
L 4.5 51.40625 
Q 6.796875 58.90625 11.6875 63.25 
Q 16.59375 67.59375 24.09375 67.59375 
Q 31.09375 67.59375 35.390625 63.796875 
Q 39.703125 60 39.703125 53.90625 
Q 39.703125 45.703125 30.40625 40.09375 
Q 35.90625 37.703125 38.703125 34.796875 
Q 43.09375 29.90625 43.09375 21.90625 
Q 43.09375 13.90625 38.5 7.90625 
Q 35.09375 3.296875 28.75 0.9375 
Q 22.40625 -1.40625 15.296875 -1.40625 
Q 4.09375 -1.40625 4.09375 4.296875 
Q 4.09375 5.90625 5.296875 6.90625 
Q 6.5 7.90625 8.203125 7.90625 
Q 10.703125 7.90625 14.296875 5.296875 
Q 18.703125 2.203125 22.90625 2.203125 
Q 28.40625 2.203125 32.15625 6.640625 
Q 35.90625 11.09375 35.90625 17.5 
Q 35.90625 29 25.5 32 
Q 22.40625 33 15.296875 33 
L 15.296875 34.40625 
Q 20.90625 36.296875 23.703125 38 
Q 31.796875 42.59375 31.796875 51.40625 
Q 31.796875 56.40625 28.9375 59 
Q 26.09375 61.59375 21 61.59375 
Q 12 61.59375 6.09375 51 
z
" id="STIXGeneral-Regular-51"/>
     </defs>
     <g transform="translate(374.686875 83.473875)scale(0.18 -0.18)">
      <use transform="translate(0 0.40625)" xlink:href="#STIXGeneral-Italic-78"/>
      <use transform="translate(66.699997 -12.821875)scale(0.7)" xlink:href="#STIXGeneral-Italic-116"/>
      <use transform="translate(105.00936 0.40625)" xlink:href="#STIXGeneral-Regular-61"/>
      <use transform="translate(187.949341 0.40625)" xlink:href="#STIXGeneral-Regular-51"/>
      <use transform="translate(237.949326 0.40625)" xlink:href="#STIXGeneral-Regular-48"/>
      <use transform="translate(287.94931 0.40625)" xlink:href="#STIXGeneral-Regular-48"/>
      <use transform="translate(337.949295 0.40625)" xlink:href="#STIXGeneral-Regular-48"/>
     </g>
    </g>
    <g id="PathCollection_10">
     <g>
      <use style="fill:#2ca02c;stroke:#2ca02c;" x="342.286875" xlink:href="#mdbe1fe6543" y="104.210438"/>
     </g>
    </g>
    <g id="text_11">
     <!-- $N_t = 4500$ -->
     <defs>
      <path d="M 47.296875 16.703125 
L 37 16.703125 
L 37 0 
L 29.203125 0 
L 29.203125 16.703125 
L 1.203125 16.703125 
L 1.203125 23.09375 
L 32.59375 67.59375 
L 37 67.59375 
L 37 23.09375 
L 47.296875 23.09375 
z
M 29.203125 23.09375 
L 29.203125 57.40625 
L 5.203125 23.09375 
z
" id="STIXGeneral-Regular-52"/>
     </defs>
     <g transform="translate(374.686875 108.935438)scale(0.18 -0.18)">
      <use transform="translate(0 0.203125)" xlink:href="#STIXGeneral-Italic-78"/>
      <use transform="translate(66.699997 -13.025)scale(0.7)" xlink:href="#STIXGeneral-Italic-116"/>
      <use transform="translate(105.00936 0.203125)" xlink:href="#STIXGeneral-Regular-61"/>
      <use transform="translate(187.949341 0.203125)" xlink:href="#STIXGeneral-Regular-52"/>
      <use transform="translate(237.949326 0.203125)" xlink:href="#STIXGeneral-Regular-53"/>
      <use transform="translate(287.94931 0.203125)" xlink:href="#STIXGeneral-Regular-48"/>
      <use transform="translate(337.949295 0.203125)" xlink:href="#STIXGeneral-Regular-48"/>
     </g>
    </g>
    <g id="PathCollection_11">
     <g>
      <use style="fill:#d62728;stroke:#d62728;" x="342.286875" xlink:href="#mb2c24f10a1" y="129.672"/>
     </g>
    </g>
    <g id="text_12">
     <!-- $N_t = 6000$ -->
     <defs>
      <path d="M 44.59375 68.40625 
L 44.796875 66.796875 
Q 33 64.90625 25.09375 57.25 
Q 17.203125 49.59375 15.203125 38.296875 
Q 21 42.796875 27.90625 42.796875 
Q 36.703125 42.796875 41.75 37.1875 
Q 46.796875 31.59375 46.796875 21.90625 
Q 46.796875 12.09375 41.703125 5.90625 
Q 35.796875 -1.40625 25.796875 -1.40625 
Q 13.59375 -1.40625 8.09375 8.703125 
Q 3.40625 17.296875 3.40625 27.90625 
Q 3.40625 44.296875 14.296875 55.5 
Q 20.5 61.90625 27.046875 64.546875 
Q 33.59375 67.203125 44.59375 68.40625 
z
M 37.796875 18.796875 
Q 37.796875 38.203125 24.296875 38.203125 
Q 19.296875 38.203125 16 35.546875 
Q 12.703125 32.90625 12.703125 26.59375 
Q 12.703125 14.90625 16.34375 8.15625 
Q 20 1.40625 26.90625 1.40625 
Q 32.203125 1.40625 35 6.15625 
Q 37.796875 10.90625 37.796875 18.796875 
z
" id="STIXGeneral-Regular-54"/>
     </defs>
     <g transform="translate(374.686875 134.397)scale(0.18 -0.18)">
      <use transform="translate(0 0.59375)" xlink:href="#STIXGeneral-Italic-78"/>
      <use transform="translate(66.699997 -12.634375)scale(0.7)" xlink:href="#STIXGeneral-Italic-116"/>
      <use transform="translate(105.00936 0.59375)" xlink:href="#STIXGeneral-Regular-61"/>
      <use transform="translate(187.949341 0.59375)" xlink:href="#STIXGeneral-Regular-54"/>
      <use transform="translate(237.949326 0.59375)" xlink:href="#STIXGeneral-Regular-48"/>
      <use transform="translate(287.94931 0.59375)" xlink:href="#STIXGeneral-Regular-48"/>
      <use transform="translate(337.949295 0.59375)" xlink:href="#STIXGeneral-Regular-48"/>
     </g>
    </g>
   </g>
  </g>
 </g>
 <defs>
  <clipPath id="p453cc5d25f">
   <rect height="217.44" width="223.2" x="82.726875" y="37.92825"/>
  </clipPath>
 </defs>
</svg>
