<?xml version="1.0" encoding="utf-8" standalone="no"?>
<!DOCTYPE svg PUBLIC "-//W3C//DTD SVG 1.1//EN"
  "http://www.w3.org/Graphics/SVG/1.1/DTD/svg11.dtd">
<!-- Created with matplotlib (https://matplotlib.org/) -->
<svg height="648.845pt" version="1.1" viewBox="0 0 696.652473 648.845" width="696.652473pt" xmlns="http://www.w3.org/2000/svg" xmlns:xlink="http://www.w3.org/1999/xlink">
 <defs>
  <style type="text/css">
*{stroke-linecap:butt;stroke-linejoin:round;}
  </style>
 </defs>
 <g id="figure_1">
  <g id="patch_1">
   <path d="M -0 648.845 
L 696.652473 648.845 
L 696.652473 0 
L -0 0 
z
" style="fill:#ffffff;"/>
  </g>
  <g id="axes_1">
   <g id="patch_2">
    <path clip-path="url(#p93ffbe959e)" d="M 176.581498 135.899405 
Q 164.778667 98.408062 145.99537 69.376396 
" style="fill:none;stroke:#820711;stroke-linecap:round;stroke-width:4;"/>
    <path clip-path="url(#p93ffbe959e)" d="M 146.48903 73.821202 
L 145.99537 69.376396 
L 149.847411 71.648352 
" style="fill:none;stroke:#820711;stroke-linecap:round;stroke-width:4;"/>
   </g>
   <g id="patch_3">
    <path clip-path="url(#p93ffbe959e)" d="M 176.581498 135.899405 
Q 142.610175 130.463994 113.086416 133.571773 
" style="fill:none;stroke:#820711;stroke-linecap:round;stroke-width:4;"/>
    <path clip-path="url(#p93ffbe959e)" d="M 117.273808 135.142042 
L 113.086416 133.571773 
L 116.855067 131.164021 
" style="fill:none;stroke:#820711;stroke-linecap:round;stroke-width:4;"/>
   </g>
   <g id="PathCollection_1">
    <path clip-path="url(#p93ffbe959e)" d="M 135.600299 68.079144 
C 139.350837 68.079144 142.948268 66.589039 145.600299 63.937008 
C 148.25233 61.284977 149.742435 57.687546 149.742435 53.937008 
C 149.742435 50.18647 148.25233 46.589039 145.600299 43.937008 
C 142.948268 41.284977 139.350837 39.794872 135.600299 39.794872 
C 131.849761 39.794872 128.25233 41.284977 125.600299 43.937008 
C 122.948268 46.589039 121.458163 50.18647 121.458163 53.937008 
C 121.458163 57.687546 122.948268 61.284977 125.600299 63.937008 
C 128.25233 66.589039 131.849761 68.079144 135.600299 68.079144 
z
" style="fill:#0000ff;stroke:#0000ff;"/>
    <path clip-path="url(#p93ffbe959e)" d="M 94.6191 150.041541 
C 98.369639 150.041541 101.967069 148.551436 104.6191 145.899405 
C 107.271131 143.247374 108.761236 139.649943 108.761236 135.899405 
C 108.761236 132.148867 107.271131 128.551436 104.6191 125.899405 
C 101.967069 123.247374 98.369639 121.757269 94.6191 121.757269 
C 90.868562 121.757269 87.271131 123.247374 84.6191 125.899405 
C 81.967069 128.551436 80.476965 132.148867 80.476965 135.899405 
C 80.476965 139.649943 81.967069 143.247374 84.6191 145.899405 
C 87.271131 148.551436 90.868562 150.041541 94.6191 150.041541 
z
" style="fill:#0000ff;stroke:#0000ff;"/>
    <path clip-path="url(#p93ffbe959e)" d="M 176.581498 150.041541 
C 180.332036 150.041541 183.929467 148.551436 186.581498 145.899405 
C 189.233529 143.247374 190.723633 139.649943 190.723633 135.899405 
C 190.723633 132.148867 189.233529 128.551436 186.581498 125.899405 
C 183.929467 123.247374 180.332036 121.757269 176.581498 121.757269 
C 172.830959 121.757269 169.233529 123.247374 166.581498 125.899405 
C 163.929467 128.551436 162.439362 132.148867 162.439362 135.899405 
C 162.439362 139.649943 163.929467 143.247374 166.581498 145.899405 
C 169.233529 148.551436 172.830959 150.041541 176.581498 150.041541 
z
" style="fill:#0000ff;stroke:#0000ff;"/>
   </g>
   <g id="text_1">
    <g clip-path="url(#p93ffbe959e)">
     <!-- 1 -->
     <defs>
      <path d="M 12.40625 8.296875 
L 28.515625 8.296875 
L 28.515625 63.921875 
L 10.984375 60.40625 
L 10.984375 69.390625 
L 28.421875 72.90625 
L 38.28125 72.90625 
L 38.28125 8.296875 
L 54.390625 8.296875 
L 54.390625 0 
L 12.40625 0 
z
" id="DejaVuSans-49"/>
     </defs>
     <g style="fill:#ffffff;" transform="translate(130.828424 58.07607)scale(0.15 -0.15)">
      <use xlink:href="#DejaVuSans-49"/>
     </g>
    </g>
   </g>
   <g id="text_2">
    <g clip-path="url(#p93ffbe959e)">
     <!-- 2 -->
     <defs>
      <path d="M 19.1875 8.296875 
L 53.609375 8.296875 
L 53.609375 0 
L 7.328125 0 
L 7.328125 8.296875 
Q 12.9375 14.109375 22.625 23.890625 
Q 32.328125 33.6875 34.8125 36.53125 
Q 39.546875 41.84375 41.421875 45.53125 
Q 43.3125 49.21875 43.3125 52.78125 
Q 43.3125 58.59375 39.234375 62.25 
Q 35.15625 65.921875 28.609375 65.921875 
Q 23.96875 65.921875 18.8125 64.3125 
Q 13.671875 62.703125 7.8125 59.421875 
L 7.8125 69.390625 
Q 13.765625 71.78125 18.9375 73 
Q 24.125 74.21875 28.421875 74.21875 
Q 39.75 74.21875 46.484375 68.546875 
Q 53.21875 62.890625 53.21875 53.421875 
Q 53.21875 48.921875 51.53125 44.890625 
Q 49.859375 40.875 45.40625 35.40625 
Q 44.1875 33.984375 37.640625 27.21875 
Q 31.109375 20.453125 19.1875 8.296875 
z
" id="DejaVuSans-50"/>
     </defs>
     <g style="fill:#ffffff;" transform="translate(89.847225 140.038468)scale(0.15 -0.15)">
      <use xlink:href="#DejaVuSans-50"/>
     </g>
    </g>
   </g>
   <g id="text_3">
    <g clip-path="url(#p93ffbe959e)">
     <!-- 3 -->
     <defs>
      <path d="M 40.578125 39.3125 
Q 47.65625 37.796875 51.625 33 
Q 55.609375 28.21875 55.609375 21.1875 
Q 55.609375 10.40625 48.1875 4.484375 
Q 40.765625 -1.421875 27.09375 -1.421875 
Q 22.515625 -1.421875 17.65625 -0.515625 
Q 12.796875 0.390625 7.625 2.203125 
L 7.625 11.71875 
Q 11.71875 9.328125 16.59375 8.109375 
Q 21.484375 6.890625 26.8125 6.890625 
Q 36.078125 6.890625 40.9375 10.546875 
Q 45.796875 14.203125 45.796875 21.1875 
Q 45.796875 27.640625 41.28125 31.265625 
Q 36.765625 34.90625 28.71875 34.90625 
L 20.21875 34.90625 
L 20.21875 43.015625 
L 29.109375 43.015625 
Q 36.375 43.015625 40.234375 45.921875 
Q 44.09375 48.828125 44.09375 54.296875 
Q 44.09375 59.90625 40.109375 62.90625 
Q 36.140625 65.921875 28.71875 65.921875 
Q 24.65625 65.921875 20.015625 65.03125 
Q 15.375 64.15625 9.8125 62.3125 
L 9.8125 71.09375 
Q 15.4375 72.65625 20.34375 73.4375 
Q 25.25 74.21875 29.59375 74.21875 
Q 40.828125 74.21875 47.359375 69.109375 
Q 53.90625 64.015625 53.90625 55.328125 
Q 53.90625 49.265625 50.4375 45.09375 
Q 46.96875 40.921875 40.578125 39.3125 
z
" id="DejaVuSans-51"/>
     </defs>
     <g style="fill:#ffffff;" transform="translate(171.809623 140.038468)scale(0.15 -0.15)">
      <use xlink:href="#DejaVuSans-51"/>
     </g>
    </g>
   </g>
  </g>
  <g id="axes_2">
   <g id="patch_4">
    <path d="M 293.295951 154.005163 
L 414.600299 154.005163 
L 414.600299 35.83125 
L 293.295951 35.83125 
z
" style="fill:#ffffff;"/>
   </g>
   <g id="line2d_1">
    <path clip-path="url(#p9e613a69d5)" d="M 298.809785 94.918207 
L 302.612429 94.918207 
L 306.415073 94.918207 
L 310.217717 94.918207 
L 314.020362 94.918207 
L 317.823006 94.918207 
L 321.62565 94.918207 
L 325.428294 94.918207 
L 329.230938 94.918207 
L 333.033582 94.918207 
L 336.836226 94.918207 
L 340.638871 94.918207 
L 344.441515 94.918207 
L 348.244159 94.918207 
L 352.046803 94.918207 
L 355.849447 94.918207 
L 359.652091 94.918207 
L 363.454735 94.918207 
L 367.257379 94.918207 
L 371.060024 94.918207 
L 374.862668 94.918207 
L 378.665312 94.918207 
L 382.467956 94.918207 
L 386.2706 94.918207 
L 390.073244 94.918207 
L 393.875888 94.918207 
L 397.678533 94.918207 
L 401.481177 94.918207 
L 405.283821 94.918207 
L 409.086465 94.918207 
" style="fill:none;stroke:#000000;stroke-linecap:square;stroke-width:4;"/>
   </g>
   <g id="line2d_2">
    <path clip-path="url(#p9e613a69d5)" d="M 298.809785 95.002383 
L 302.612429 94.987933 
L 306.415073 94.975303 
L 310.217717 94.955626 
L 314.020362 94.94804 
L 317.823006 94.948411 
L 321.62565 94.938827 
L 325.428294 94.935203 
L 329.230938 94.932836 
L 333.033582 94.930188 
L 336.836226 94.925644 
L 340.638871 94.920623 
L 344.441515 94.916955 
L 348.244159 94.915544 
L 352.046803 94.912546 
L 355.849447 94.90964 
L 359.652091 94.910177 
L 363.454735 94.91134 
L 367.257379 94.992889 
L 371.060024 95.047838 
L 374.862668 95.054432 
L 378.665312 95.064384 
L 382.467956 95.071988 
L 386.2706 95.061282 
L 390.073244 95.056499 
L 393.875888 95.056913 
L 397.678533 95.053684 
L 401.481177 95.047295 
L 405.283821 95.018224 
L 409.086465 95.002383 
" style="fill:none;stroke:#1f77b4;stroke-linecap:square;stroke-width:2;"/>
   </g>
   <g id="matplotlib.axis_1">
    <g id="xtick_1">
     <g id="line2d_3">
      <defs>
       <path d="M 0 0 
L 0 3.5 
" id="m3672ce7948" style="stroke:#000000;stroke-width:0.8;"/>
      </defs>
      <g>
       <use style="stroke:#000000;stroke-width:0.8;" x="298.809785" xlink:href="#m3672ce7948" y="154.005163"/>
      </g>
     </g>
     <g id="text_4">
      <!-- $0$ -->
      <defs>
       <path d="M 47.59375 33 
Q 47.59375 26.296875 46.296875 20.34375 
Q 45 14.40625 42.453125 9.40625 
Q 39.90625 4.40625 35.40625 1.5 
Q 30.90625 -1.40625 25 -1.40625 
Q 18.90625 -1.40625 14.296875 1.6875 
Q 9.703125 4.796875 7.203125 10 
Q 4.703125 15.203125 3.546875 21.09375 
Q 2.40625 27 2.40625 33.59375 
Q 2.40625 42.90625 4.703125 50.34375 
Q 7 57.796875 12.34375 62.6875 
Q 17.703125 67.59375 25.40625 67.59375 
Q 35.203125 67.59375 41.390625 58 
Q 47.59375 48.40625 47.59375 33 
z
M 38 32.5 
Q 38 48.296875 34.640625 56.640625 
Q 31.296875 65 24.796875 65 
Q 18.59375 65 15.296875 56.59375 
Q 12 48.203125 12 32.90625 
Q 12 17.5 15.296875 9.34375 
Q 18.59375 1.203125 25 1.203125 
Q 31.296875 1.203125 34.640625 9.34375 
Q 38 17.5 38 32.5 
z
" id="STIXGeneral-Regular-48"/>
      </defs>
      <g transform="translate(291.809785 181.047038)scale(0.28 -0.28)">
       <use transform="translate(0 0.40625)" xlink:href="#STIXGeneral-Regular-48"/>
      </g>
     </g>
    </g>
    <g id="xtick_2">
     <g id="line2d_4">
      <g>
       <use style="stroke:#000000;stroke-width:0.8;" x="353.948125" xlink:href="#m3672ce7948" y="154.005163"/>
      </g>
     </g>
     <g id="text_5">
      <!-- $\pi$ -->
      <defs>
       <path d="M 53.59375 42.796875 
L 51.5 35.40625 
L 41.296875 35.40625 
Q 41 34.296875 39.09375 27.84375 
Q 37.203125 21.40625 35.890625 16.75 
Q 34.59375 12.09375 34.59375 11.203125 
Q 34.59375 7 37.703125 7 
Q 42.09375 7 44.796875 13.09375 
L 46.40625 13.09375 
Q 45.09375 7.59375 41.4375 3.25 
Q 37.796875 -1.09375 32.703125 -1.09375 
Q 29.703125 -1.09375 28.25 1.046875 
Q 26.796875 3.203125 26.796875 6.40625 
Q 26.796875 9.796875 28.5 14.40625 
L 36.09375 35.40625 
L 25.703125 35.40625 
Q 24.5 32.203125 21.890625 22.953125 
Q 19.296875 13.703125 16.6875 8 
Q 14.09375 2.296875 10.5 -0.59375 
Q 8.796875 -1.796875 6.90625 -1.796875 
Q 4.90625 -1.796875 3.40625 -0.5 
Q 1.90625 0.796875 1.90625 2.59375 
Q 1.90625 6.703125 4.90625 7.5 
Q 9.90625 8.796875 12.09375 14.5 
L 20.296875 35.40625 
L 19.703125 35.40625 
Q 15.203125 35.40625 12.796875 34.5 
Q 10.40625 33.59375 7.40625 29.90625 
L 5.796875 29.90625 
Q 10 36.90625 14.546875 39.84375 
Q 19.09375 42.796875 26.5 42.796875 
z
" id="STIXGeneral-Italic-960"/>
      </defs>
      <g transform="translate(346.808125 181.047038)scale(0.28 -0.28)">
       <use transform="translate(0 0.203125)" xlink:href="#STIXGeneral-Italic-960"/>
      </g>
     </g>
    </g>
    <g id="xtick_3">
     <g id="line2d_5">
      <g>
       <use style="stroke:#000000;stroke-width:0.8;" x="409.086465" xlink:href="#m3672ce7948" y="154.005163"/>
      </g>
     </g>
     <g id="text_6">
      <!-- $2 \pi$ -->
      <defs>
       <path d="M 47.40625 13.703125 
L 42 0 
L 2.90625 0 
L 2.90625 1.203125 
L 20.703125 20.09375 
Q 27.703125 27.40625 30.703125 33.5 
Q 33.703125 39.59375 33.703125 46.09375 
Q 33.703125 52.796875 30 56.5 
Q 26.296875 60.203125 19.796875 60.203125 
Q 14.40625 60.203125 11.25 57.390625 
Q 8.09375 54.59375 5.09375 47.203125 
L 3 47.703125 
Q 4.703125 57 9.84375 62.296875 
Q 15 67.59375 23.796875 67.59375 
Q 32.09375 67.59375 37.1875 62.59375 
Q 42.296875 57.59375 42.296875 50 
Q 42.296875 38.703125 29.5 25.203125 
L 13 7.59375 
L 36.40625 7.59375 
Q 39.703125 7.59375 41.640625 8.890625 
Q 43.59375 10.203125 46 14.296875 
z
" id="STIXGeneral-Regular-50"/>
      </defs>
      <g transform="translate(394.946465 181.047038)scale(0.28 -0.28)">
       <use transform="translate(0 0.40625)" xlink:href="#STIXGeneral-Regular-50"/>
       <use transform="translate(49.999985 0.40625)" xlink:href="#STIXGeneral-Italic-960"/>
      </g>
     </g>
    </g>
    <g id="text_7">
     <!-- $\phi_{2} - \phi_{1} $ -->
     <defs>
      <path d="M 48.09375 68.296875 
L 41.40625 44.09375 
Q 48.40625 44.09375 51.5 42.90625 
Q 59.5 39.796875 59.5 30.296875 
Q 59.5 26.703125 58.25 22.59375 
Q 57 18.5 54.390625 14.296875 
Q 51.796875 10.09375 48.25 6.640625 
Q 44.703125 3.203125 39.640625 1.046875 
Q 34.59375 -1.09375 28.90625 -1.09375 
L 23.5 -20.5 
L 15.703125 -20.5 
L 21.09375 -1.09375 
Q 13.796875 -1.09375 10.40625 0 
Q 2.703125 2.5 2.703125 12.796875 
Q 2.703125 15.90625 4 19.90625 
Q 5.296875 23.90625 7.84375 28.15625 
Q 10.40625 32.40625 13.84375 35.953125 
Q 17.296875 39.5 22.140625 41.796875 
Q 27 44.09375 32.203125 44.09375 
L 33.703125 44.09375 
L 40.40625 68.296875 
z
M 40.796875 42 
L 29.5 1 
Q 33.203125 1 36.40625 2.59375 
Q 42.09375 5.5 46.59375 15.59375 
Q 51.09375 25.703125 51.09375 32.703125 
Q 51.09375 38.5 46.59375 41.296875 
Q 45.40625 42 40.796875 42 
z
M 21.703125 1 
L 33.09375 42 
Q 27.5 42 22.296875 36.953125 
Q 17.09375 31.90625 14.09375 24.5 
Q 11.09375 17.09375 11.09375 10.09375 
Q 11.09375 3.703125 15.90625 1.796875 
Q 18 1 21.703125 1 
z
" id="STIXGeneral-Italic-981"/>
      <path d="M 62.09375 22 
L 6.40625 22 
L 6.40625 28.59375 
L 62.09375 28.59375 
z
" id="STIXGeneral-Regular-8722"/>
      <path d="M 39.40625 0 
L 11.796875 0 
L 11.796875 1.5 
Q 17.296875 1.796875 19.296875 3.546875 
Q 21.296875 5.296875 21.296875 9.5 
L 21.296875 54.40625 
Q 21.296875 59.296875 18.296875 59.296875 
Q 16.90625 59.296875 13.796875 58.09375 
L 11.09375 57.09375 
L 11.09375 58.5 
L 29 67.59375 
L 29.90625 67.296875 
L 29.90625 7.59375 
Q 29.90625 4.296875 31.90625 2.890625 
Q 33.90625 1.5 39.40625 1.5 
z
" id="STIXGeneral-Regular-49"/>
     </defs>
     <g transform="translate(311.668125 210.338913)scale(0.28 -0.28)">
      <use transform="translate(0 0.703125)" xlink:href="#STIXGeneral-Italic-981"/>
      <use transform="translate(62.699997 -12.525)scale(0.7)" xlink:href="#STIXGeneral-Regular-50"/>
      <use transform="translate(116.549358 0.703125)" xlink:href="#STIXGeneral-Regular-8722"/>
      <use transform="translate(199.489339 0.703125)" xlink:href="#STIXGeneral-Italic-981"/>
      <use transform="translate(262.189336 -12.525)scale(0.7)" xlink:href="#STIXGeneral-Regular-49"/>
     </g>
    </g>
   </g>
   <g id="matplotlib.axis_2">
    <g id="ytick_1">
     <g id="line2d_6">
      <defs>
       <path d="M 0 0 
L -3.5 0 
" id="m0ee102458b" style="stroke:#000000;stroke-width:0.8;"/>
      </defs>
      <g>
       <use style="stroke:#000000;stroke-width:0.8;" x="293.295951" xlink:href="#m0ee102458b" y="137.48164"/>
      </g>
     </g>
     <g id="text_8">
      <!-- 26 -->
      <defs>
       <path d="M 50.34375 8.453125 
L 50.34375 0 
L 3.03125 0 
Q 2.9375 3.171875 4.046875 6.109375 
Q 5.859375 10.9375 9.828125 15.625 
Q 13.8125 20.3125 21.34375 26.46875 
Q 33.015625 36.03125 37.109375 41.625 
Q 41.21875 47.21875 41.21875 52.203125 
Q 41.21875 57.421875 37.46875 61 
Q 33.734375 64.59375 27.734375 64.59375 
Q 21.390625 64.59375 17.578125 60.78125 
Q 13.765625 56.984375 13.71875 50.25 
L 4.6875 51.171875 
Q 5.609375 61.28125 11.65625 66.578125 
Q 17.71875 71.875 27.9375 71.875 
Q 38.234375 71.875 44.234375 66.15625 
Q 50.25 60.453125 50.25 52 
Q 50.25 47.703125 48.484375 43.546875 
Q 46.734375 39.40625 42.65625 34.8125 
Q 38.578125 30.21875 29.109375 22.21875 
Q 21.1875 15.578125 18.9375 13.203125 
Q 16.703125 10.84375 15.234375 8.453125 
z
" id="ArialMT-50"/>
       <path d="M 49.75 54.046875 
L 41.015625 53.375 
Q 39.84375 58.546875 37.703125 60.890625 
Q 34.125 64.65625 28.90625 64.65625 
Q 24.703125 64.65625 21.53125 62.3125 
Q 17.390625 59.28125 14.984375 53.46875 
Q 12.59375 47.65625 12.5 36.921875 
Q 15.671875 41.75 20.265625 44.09375 
Q 24.859375 46.4375 29.890625 46.4375 
Q 38.671875 46.4375 44.84375 39.96875 
Q 51.03125 33.5 51.03125 23.25 
Q 51.03125 16.5 48.125 10.71875 
Q 45.21875 4.9375 40.140625 1.859375 
Q 35.0625 -1.21875 28.609375 -1.21875 
Q 17.625 -1.21875 10.6875 6.859375 
Q 3.765625 14.9375 3.765625 33.5 
Q 3.765625 54.25 11.421875 63.671875 
Q 18.109375 71.875 29.4375 71.875 
Q 37.890625 71.875 43.28125 67.140625 
Q 48.6875 62.40625 49.75 54.046875 
z
M 13.875 23.1875 
Q 13.875 18.65625 15.796875 14.5 
Q 17.71875 10.359375 21.1875 8.171875 
Q 24.65625 6 28.46875 6 
Q 34.03125 6 38.03125 10.484375 
Q 42.046875 14.984375 42.046875 22.703125 
Q 42.046875 30.125 38.078125 34.390625 
Q 34.125 38.671875 28.125 38.671875 
Q 22.171875 38.671875 18.015625 34.390625 
Q 13.875 30.125 13.875 23.1875 
z
" id="ArialMT-54"/>
      </defs>
      <g transform="translate(255.154701 147.502578)scale(0.28 -0.28)">
       <use xlink:href="#ArialMT-50"/>
       <use x="55.615234" xlink:href="#ArialMT-54"/>
      </g>
     </g>
    </g>
    <g id="ytick_2">
     <g id="line2d_7">
      <g>
       <use style="stroke:#000000;stroke-width:0.8;" x="293.295951" xlink:href="#m0ee102458b" y="58.699032"/>
      </g>
     </g>
     <g id="text_9">
      <!-- 28 -->
      <defs>
       <path d="M 17.671875 38.8125 
Q 12.203125 40.828125 9.5625 44.53125 
Q 6.9375 48.25 6.9375 53.421875 
Q 6.9375 61.234375 12.546875 66.546875 
Q 18.171875 71.875 27.484375 71.875 
Q 36.859375 71.875 42.578125 66.421875 
Q 48.296875 60.984375 48.296875 53.171875 
Q 48.296875 48.1875 45.671875 44.5 
Q 43.0625 40.828125 37.75 38.8125 
Q 44.34375 36.671875 47.78125 31.875 
Q 51.21875 27.09375 51.21875 20.453125 
Q 51.21875 11.28125 44.71875 5.03125 
Q 38.234375 -1.21875 27.640625 -1.21875 
Q 17.046875 -1.21875 10.546875 5.046875 
Q 4.046875 11.328125 4.046875 20.703125 
Q 4.046875 27.6875 7.59375 32.390625 
Q 11.140625 37.109375 17.671875 38.8125 
z
M 15.921875 53.71875 
Q 15.921875 48.640625 19.1875 45.40625 
Q 22.46875 42.1875 27.6875 42.1875 
Q 32.765625 42.1875 36.015625 45.375 
Q 39.265625 48.578125 39.265625 53.21875 
Q 39.265625 58.0625 35.90625 61.359375 
Q 32.5625 64.65625 27.59375 64.65625 
Q 22.5625 64.65625 19.234375 61.421875 
Q 15.921875 58.203125 15.921875 53.71875 
z
M 13.09375 20.65625 
Q 13.09375 16.890625 14.875 13.375 
Q 16.65625 9.859375 20.171875 7.921875 
Q 23.6875 6 27.734375 6 
Q 34.03125 6 38.125 10.046875 
Q 42.234375 14.109375 42.234375 20.359375 
Q 42.234375 26.703125 38.015625 30.859375 
Q 33.796875 35.015625 27.4375 35.015625 
Q 21.234375 35.015625 17.15625 30.90625 
Q 13.09375 26.8125 13.09375 20.65625 
z
" id="ArialMT-56"/>
      </defs>
      <g transform="translate(255.154701 68.719969)scale(0.28 -0.28)">
       <use xlink:href="#ArialMT-50"/>
       <use x="55.615234" xlink:href="#ArialMT-56"/>
      </g>
     </g>
    </g>
    <g id="text_10">
     <!-- $d \phi_{1} / dt $ -->
     <defs>
      <path d="M 52.09375 68.296875 
L 52.703125 67.703125 
L 48.796875 52.5 
L 42.796875 30.59375 
Q 36.296875 6.703125 36.296875 6 
Q 36.296875 4 38.09375 4 
Q 39.40625 4 40.84375 5.25 
Q 42.296875 6.5 46.296875 11.09375 
L 47.5 10.09375 
Q 39.796875 -1.296875 32.796875 -1.296875 
Q 30.90625 -1.296875 29.796875 -0.09375 
Q 28.703125 1.09375 28.703125 3.203125 
Q 28.703125 6.203125 30 12.09375 
Q 25.703125 4.796875 21.546875 1.84375 
Q 17.40625 -1.09375 12.203125 -1.09375 
Q 7.203125 -1.09375 4.34375 1.953125 
Q 1.5 5 1.5 10.59375 
Q 1.5 22.5 11.140625 33.296875 
Q 20.796875 44.09375 30.703125 44.09375 
Q 33.796875 44.09375 35.25 42.6875 
Q 36.703125 41.296875 37.203125 38.296875 
L 37.296875 38.296875 
L 41.796875 54.59375 
Q 43.203125 59.5 43.203125 61.703125 
Q 43.203125 63.296875 42.09375 63.6875 
Q 41 64.09375 36.796875 64.296875 
L 36.796875 66 
Q 44.5 66.703125 52.09375 68.296875 
z
M 35.59375 36.09375 
Q 35.59375 38.703125 34.140625 40.25 
Q 32.703125 41.796875 30.90625 41.796875 
Q 26.203125 41.796875 21.796875 37.203125 
Q 16.796875 31.90625 13.5 24.546875 
Q 10.203125 17.203125 10.203125 11 
Q 10.203125 7.59375 11.75 5.640625 
Q 13.296875 3.703125 16 3.703125 
Q 20.5 3.703125 25.09375 8.59375 
Q 29.703125 13.5 32.640625 21.09375 
Q 35.59375 28.703125 35.59375 36.09375 
z
" id="STIXGeneral-Italic-100"/>
      <path d="M 28.703125 67.59375 
L 5.90625 -1.40625 
L -0.90625 -1.40625 
L 22 67.59375 
z
" id="STIXGeneral-Regular-47"/>
      <path d="M 29.59375 42.796875 
L 29.09375 39.59375 
L 20.703125 39.59375 
L 12 6.796875 
Q 11.796875 6 11.796875 5.40625 
Q 11.796875 3.796875 13.296875 3.796875 
Q 14.5 3.796875 16.09375 5.34375 
Q 17.703125 6.90625 21.40625 11.703125 
L 22.703125 11 
Q 18.09375 4 15.140625 1.453125 
Q 12.203125 -1.09375 8.40625 -1.09375 
Q 3.796875 -1.09375 3.796875 2.59375 
Q 3.796875 3.59375 5.40625 10 
L 13.203125 39.59375 
L 5.703125 39.59375 
L 5.59375 40.203125 
Q 5.59375 42 8.90625 42.703125 
Q 11.40625 43.296875 15.5 46.546875 
Q 19.59375 49.796875 22.203125 53.703125 
Q 22.796875 54.59375 23.59375 54.59375 
Q 24.5 54.59375 24.5 53.796875 
Q 24.5 53.296875 24.40625 53.09375 
L 21.59375 42.796875 
z
" id="STIXGeneral-Italic-116"/>
     </defs>
     <g transform="translate(245.274701 131.038207)rotate(-90)scale(0.28 -0.28)">
      <use transform="translate(0 0.703125)" xlink:href="#STIXGeneral-Italic-100"/>
      <use transform="translate(49.999985 0.703125)" xlink:href="#STIXGeneral-Italic-981"/>
      <use transform="translate(112.699982 -12.525)scale(0.7)" xlink:href="#STIXGeneral-Regular-49"/>
      <use transform="translate(152.109346 0.703125)" xlink:href="#STIXGeneral-Regular-47"/>
      <use transform="translate(179.909334 0.703125)" xlink:href="#STIXGeneral-Italic-100"/>
      <use transform="translate(229.909319 0.703125)" xlink:href="#STIXGeneral-Italic-116"/>
     </g>
    </g>
   </g>
   <g id="line2d_8">
    <path clip-path="url(#p9e613a69d5)" d="M 298.809785 94.913811 
L 302.612429 94.922841 
L 306.415073 94.928555 
L 310.217717 94.933338 
L 314.020362 94.939146 
L 317.823006 94.943211 
L 321.62565 94.944875 
L 325.428294 94.942913 
L 329.230938 94.938665 
L 333.033582 94.932873 
L 336.836226 94.925743 
L 340.638871 94.918236 
L 344.441515 94.912824 
L 348.244159 94.908535 
L 352.046803 94.898808 
L 355.849447 94.88945 
L 359.652091 94.881442 
L 363.454735 94.874099 
L 367.257379 94.868635 
L 371.060024 94.864391 
L 374.862668 94.861913 
L 378.665312 94.861914 
L 382.467956 94.863706 
L 386.2706 94.867256 
L 390.073244 94.873263 
L 393.875888 94.881022 
L 397.678533 94.889517 
L 401.481177 94.898303 
L 405.283821 94.906395 
L 409.086465 94.913811 
" style="fill:none;stroke:#ff7f0e;stroke-linecap:square;stroke-width:2;"/>
   </g>
   <g id="patch_5">
    <path d="M 293.295951 154.005163 
L 293.295951 35.83125 
" style="fill:none;stroke:#000000;stroke-linecap:square;stroke-linejoin:miter;stroke-width:0.8;"/>
   </g>
   <g id="patch_6">
    <path d="M 414.600299 154.005163 
L 414.600299 35.83125 
" style="fill:none;stroke:#000000;stroke-linecap:square;stroke-linejoin:miter;stroke-width:0.8;"/>
   </g>
   <g id="patch_7">
    <path d="M 293.295951 154.005163 
L 414.600299 154.005163 
" style="fill:none;stroke:#000000;stroke-linecap:square;stroke-linejoin:miter;stroke-width:0.8;"/>
   </g>
   <g id="patch_8">
    <path d="M 293.295951 35.83125 
L 414.600299 35.83125 
" style="fill:none;stroke:#000000;stroke-linecap:square;stroke-linejoin:miter;stroke-width:0.8;"/>
   </g>
   <g id="line2d_9">
    <path clip-path="url(#p9e613a69d5)" d="M 298.809785 94.913313 
L 302.612429 94.922466 
L 306.415073 94.930817 
L 310.217717 94.938041 
L 314.020362 94.942223 
L 317.823006 94.944866 
L 321.62565 94.945475 
L 325.428294 94.944192 
L 329.230938 94.940755 
L 333.033582 94.935243 
L 336.836226 94.928244 
L 340.638871 94.920896 
L 344.441515 94.916049 
L 348.244159 94.910897 
L 352.046803 94.901661 
L 355.849447 94.892423 
L 359.652091 94.88406 
L 363.454735 94.875964 
L 367.257379 94.870759 
L 371.060024 94.866738 
L 374.862668 94.864314 
L 378.665312 94.863928 
L 382.467956 94.8655 
L 386.2706 94.868613 
L 390.073244 94.87324 
L 393.875888 94.879275 
L 397.678533 94.886511 
L 401.481177 94.894997 
L 405.283821 94.904152 
L 409.086465 94.913313 
" style="fill:none;stroke:#2ca02c;stroke-linecap:square;stroke-width:2;"/>
   </g>
   <g id="line2d_10">
    <path clip-path="url(#p9e613a69d5)" d="M 298.809785 94.909393 
L 302.612429 94.916502 
L 306.415073 94.923791 
L 310.217717 94.930743 
L 314.020362 94.936534 
L 317.823006 94.940882 
L 321.62565 94.939459 
L 325.428294 94.938134 
L 329.230938 94.937101 
L 333.033582 94.933799 
L 336.836226 94.928777 
L 340.638871 94.92336 
L 344.441515 94.918008 
L 348.244159 94.913183 
L 352.046803 94.906718 
L 355.849447 94.899635 
L 359.652091 94.89175 
L 363.454735 94.884457 
L 367.257379 94.879559 
L 371.060024 94.875216 
L 374.862668 94.871538 
L 378.665312 94.869501 
L 382.467956 94.86914 
L 386.2706 94.870883 
L 390.073244 94.874563 
L 393.875888 94.880737 
L 397.678533 94.888005 
L 401.481177 94.894558 
L 405.283821 94.900851 
L 409.086465 94.909393 
" style="fill:none;stroke:#d62728;stroke-linecap:square;stroke-width:2;"/>
   </g>
  </g>
  <g id="axes_3">
   <g id="patch_9">
    <path d="M 511.643777 154.005163 
L 632.948125 154.005163 
L 632.948125 35.83125 
L 511.643777 35.83125 
z
" style="fill:#ffffff;"/>
   </g>
   <g id="line2d_11">
    <path clip-path="url(#p6988e6d99b)" d="M 517.157611 79.686902 
L 520.960255 76.668094 
L 524.762899 74.5272 
L 528.565544 73.364326 
L 532.368188 73.233845 
L 536.170832 74.141859 
L 539.973476 76.045911 
L 543.77612 78.85697 
L 547.578764 82.443592 
L 551.381408 86.638072 
L 555.184052 91.24428 
L 558.986697 96.046836 
L 562.789341 100.821177 
L 566.591985 105.34406 
L 570.394629 109.404001 
L 574.197273 112.81116 
L 577.999917 115.406223 
L 581.802561 117.067848 
L 585.605206 117.718339 
L 589.40785 117.32728 
L 593.210494 115.912956 
L 597.013138 113.541499 
L 600.815782 110.323796 
L 604.618426 106.410304 
L 608.42107 101.984013 
L 612.223714 97.251891 
L 616.026359 92.435207 
L 619.829003 87.759184 
L 623.631647 83.442467 
L 627.434291 79.686902 
" style="fill:none;stroke:#000000;stroke-linecap:square;stroke-width:4;"/>
   </g>
   <g id="line2d_12">
    <path clip-path="url(#p6988e6d99b)" d="M 517.157611 79.70434 
L 520.960255 76.682901 
L 524.762899 74.542423 
L 528.565544 73.379996 
L 532.368188 73.251617 
L 536.170832 74.165711 
L 539.973476 76.083217 
L 543.77612 78.908335 
L 547.578764 82.502373 
L 551.381408 86.704752 
L 555.184052 91.318539 
L 558.986697 96.12822 
L 562.789341 100.911404 
L 566.591985 105.444113 
L 570.394629 109.510861 
L 574.197273 112.921492 
L 577.999917 115.516529 
L 581.802561 117.174631 
L 585.605206 117.818266 
L 589.40785 117.420017 
L 593.210494 116.000391 
L 597.013138 113.622512 
L 600.815782 110.397651 
L 604.618426 106.473457 
L 608.42107 102.034956 
L 612.223714 97.295122 
L 616.026359 92.471092 
L 619.829003 87.785972 
L 623.631647 83.463962 
L 627.434291 79.70434 
" style="fill:none;stroke:#1f77b4;stroke-linecap:square;stroke-width:2;"/>
   </g>
   <g id="matplotlib.axis_3">
    <g id="xtick_4">
     <g id="line2d_13">
      <g>
       <use style="stroke:#000000;stroke-width:0.8;" x="517.157611" xlink:href="#m3672ce7948" y="154.005163"/>
      </g>
     </g>
     <g id="text_11">
      <!-- $0$ -->
      <g transform="translate(510.157611 181.047038)scale(0.28 -0.28)">
       <use transform="translate(0 0.40625)" xlink:href="#STIXGeneral-Regular-48"/>
      </g>
     </g>
    </g>
    <g id="xtick_5">
     <g id="line2d_14">
      <g>
       <use style="stroke:#000000;stroke-width:0.8;" x="572.295951" xlink:href="#m3672ce7948" y="154.005163"/>
      </g>
     </g>
     <g id="text_12">
      <!-- $\pi$ -->
      <g transform="translate(565.155951 181.047038)scale(0.28 -0.28)">
       <use transform="translate(0 0.203125)" xlink:href="#STIXGeneral-Italic-960"/>
      </g>
     </g>
    </g>
    <g id="xtick_6">
     <g id="line2d_15">
      <g>
       <use style="stroke:#000000;stroke-width:0.8;" x="627.434291" xlink:href="#m3672ce7948" y="154.005163"/>
      </g>
     </g>
     <g id="text_13">
      <!-- $2 \pi$ -->
      <g transform="translate(613.294291 181.047038)scale(0.28 -0.28)">
       <use transform="translate(0 0.40625)" xlink:href="#STIXGeneral-Regular-50"/>
       <use transform="translate(49.999985 0.40625)" xlink:href="#STIXGeneral-Italic-960"/>
      </g>
     </g>
    </g>
    <g id="text_14">
     <!-- $\phi_{3} - \phi_{1} $ -->
     <defs>
      <path d="M 6.09375 51 
L 4.5 51.40625 
Q 6.796875 58.90625 11.6875 63.25 
Q 16.59375 67.59375 24.09375 67.59375 
Q 31.09375 67.59375 35.390625 63.796875 
Q 39.703125 60 39.703125 53.90625 
Q 39.703125 45.703125 30.40625 40.09375 
Q 35.90625 37.703125 38.703125 34.796875 
Q 43.09375 29.90625 43.09375 21.90625 
Q 43.09375 13.90625 38.5 7.90625 
Q 35.09375 3.296875 28.75 0.9375 
Q 22.40625 -1.40625 15.296875 -1.40625 
Q 4.09375 -1.40625 4.09375 4.296875 
Q 4.09375 5.90625 5.296875 6.90625 
Q 6.5 7.90625 8.203125 7.90625 
Q 10.703125 7.90625 14.296875 5.296875 
Q 18.703125 2.203125 22.90625 2.203125 
Q 28.40625 2.203125 32.15625 6.640625 
Q 35.90625 11.09375 35.90625 17.5 
Q 35.90625 29 25.5 32 
Q 22.40625 33 15.296875 33 
L 15.296875 34.40625 
Q 20.90625 36.296875 23.703125 38 
Q 31.796875 42.59375 31.796875 51.40625 
Q 31.796875 56.40625 28.9375 59 
Q 26.09375 61.59375 21 61.59375 
Q 12 61.59375 6.09375 51 
z
" id="STIXGeneral-Regular-51"/>
     </defs>
     <g transform="translate(530.015951 210.338913)scale(0.28 -0.28)">
      <use transform="translate(0 0.703125)" xlink:href="#STIXGeneral-Italic-981"/>
      <use transform="translate(62.699997 -12.525)scale(0.7)" xlink:href="#STIXGeneral-Regular-51"/>
      <use transform="translate(116.549358 0.703125)" xlink:href="#STIXGeneral-Regular-8722"/>
      <use transform="translate(199.489339 0.703125)" xlink:href="#STIXGeneral-Italic-981"/>
      <use transform="translate(262.189336 -12.525)scale(0.7)" xlink:href="#STIXGeneral-Regular-49"/>
     </g>
    </g>
   </g>
   <g id="matplotlib.axis_4">
    <g id="ytick_3">
     <g id="line2d_16">
      <g>
       <use style="stroke:#000000;stroke-width:0.8;" x="511.643777" xlink:href="#m0ee102458b" y="138.006858"/>
      </g>
     </g>
     <g id="text_15">
      <!-- 26 -->
      <g transform="translate(473.502527 148.027795)scale(0.28 -0.28)">
       <use xlink:href="#ArialMT-50"/>
       <use x="55.615234" xlink:href="#ArialMT-54"/>
      </g>
     </g>
    </g>
    <g id="ytick_4">
     <g id="line2d_17">
      <g>
       <use style="stroke:#000000;stroke-width:0.8;" x="511.643777" xlink:href="#m0ee102458b" y="59.224249"/>
      </g>
     </g>
     <g id="text_16">
      <!-- 28 -->
      <g transform="translate(473.502527 69.245187)scale(0.28 -0.28)">
       <use xlink:href="#ArialMT-50"/>
       <use x="55.615234" xlink:href="#ArialMT-56"/>
      </g>
     </g>
    </g>
    <g id="text_17">
     <!-- $d \phi_{1} / dt $ -->
     <g transform="translate(463.622527 131.038207)rotate(-90)scale(0.28 -0.28)">
      <use transform="translate(0 0.703125)" xlink:href="#STIXGeneral-Italic-100"/>
      <use transform="translate(49.999985 0.703125)" xlink:href="#STIXGeneral-Italic-981"/>
      <use transform="translate(112.699982 -12.525)scale(0.7)" xlink:href="#STIXGeneral-Regular-49"/>
      <use transform="translate(152.109346 0.703125)" xlink:href="#STIXGeneral-Regular-47"/>
      <use transform="translate(179.909334 0.703125)" xlink:href="#STIXGeneral-Italic-100"/>
      <use transform="translate(229.909319 0.703125)" xlink:href="#STIXGeneral-Italic-116"/>
     </g>
    </g>
   </g>
   <g id="line2d_18">
    <path clip-path="url(#p6988e6d99b)" d="M 517.157611 79.678619 
L 520.960255 76.657105 
L 524.762899 74.5127 
L 528.565544 73.347496 
L 532.368188 73.215387 
L 536.170832 74.122234 
L 539.973476 76.024342 
L 543.77612 78.832198 
L 547.578764 82.414749 
L 551.381408 86.607096 
L 555.184052 91.213836 
L 558.986697 96.018056 
L 562.789341 100.794718 
L 566.591985 105.32073 
L 570.394629 109.384397 
L 574.197273 112.796403 
L 577.999917 115.395806 
L 581.802561 117.061332 
L 585.605206 117.715314 
L 589.40785 117.327312 
L 593.210494 115.915138 
L 597.013138 113.544378 
L 600.815782 110.326965 
L 604.618426 106.412467 
L 608.42107 101.985027 
L 612.223714 97.254508 
L 616.026359 92.434649 
L 619.829003 87.755989 
L 623.631647 83.437024 
L 627.434291 79.678619 
" style="fill:none;stroke:#ff7f0e;stroke-linecap:square;stroke-width:2;"/>
   </g>
   <g id="patch_10">
    <path d="M 511.643777 154.005163 
L 511.643777 35.83125 
" style="fill:none;stroke:#000000;stroke-linecap:square;stroke-linejoin:miter;stroke-width:0.8;"/>
   </g>
   <g id="patch_11">
    <path d="M 632.948125 154.005163 
L 632.948125 35.83125 
" style="fill:none;stroke:#000000;stroke-linecap:square;stroke-linejoin:miter;stroke-width:0.8;"/>
   </g>
   <g id="patch_12">
    <path d="M 511.643777 154.005163 
L 632.948125 154.005163 
" style="fill:none;stroke:#000000;stroke-linecap:square;stroke-linejoin:miter;stroke-width:0.8;"/>
   </g>
   <g id="patch_13">
    <path d="M 511.643777 35.83125 
L 632.948125 35.83125 
" style="fill:none;stroke:#000000;stroke-linecap:square;stroke-linejoin:miter;stroke-width:0.8;"/>
   </g>
   <g id="line2d_19">
    <path clip-path="url(#p6988e6d99b)" d="M 517.157611 79.67225 
L 520.960255 76.650763 
L 524.762899 74.507361 
L 528.565544 73.342423 
L 532.368188 73.210936 
L 536.170832 74.119092 
L 539.973476 76.023339 
L 543.77612 78.83388 
L 547.578764 82.419113 
L 551.381408 86.615009 
L 555.184052 91.223617 
L 558.986697 96.028856 
L 562.789341 100.80576 
L 566.591985 105.331165 
L 570.394629 109.393954 
L 574.197273 112.803434 
L 577.999917 115.400257 
L 581.802561 117.063225 
L 585.605206 117.71524 
L 589.40785 117.324905 
L 593.210494 115.910903 
L 597.013138 113.539291 
L 600.815782 110.321029 
L 604.618426 106.407341 
L 608.42107 101.983518 
L 612.223714 97.249025 
L 616.026359 92.429212 
L 619.829003 87.749968 
L 623.631647 83.430826 
L 627.434291 79.67225 
" style="fill:none;stroke:#2ca02c;stroke-linecap:square;stroke-width:2;"/>
   </g>
   <g id="line2d_20">
    <path clip-path="url(#p6988e6d99b)" d="M 517.157611 79.670891 
L 520.960255 76.650071 
L 524.762899 74.507626 
L 528.565544 73.343525 
L 532.368188 73.212346 
L 536.170832 74.120106 
L 539.973476 76.024462 
L 543.77612 78.835381 
L 547.578764 82.422694 
L 551.381408 86.618778 
L 555.184052 91.226665 
L 558.986697 96.030944 
L 562.789341 100.807282 
L 566.591985 105.332089 
L 570.394629 109.393744 
L 574.197273 112.802983 
L 577.999917 115.399737 
L 581.802561 117.062769 
L 585.605206 117.714254 
L 589.40785 117.323915 
L 593.210494 115.909467 
L 597.013138 113.53749 
L 600.815782 110.318871 
L 604.618426 106.404899 
L 608.42107 101.977469 
L 612.223714 97.244039 
L 616.026359 92.425698 
L 619.829003 87.747498 
L 623.631647 83.428716 
L 627.434291 79.670891 
" style="fill:none;stroke:#d62728;stroke-linecap:square;stroke-width:2;"/>
   </g>
  </g>
  <g id="axes_4">
   <g id="patch_14">
    <path d="M 74.948125 366.718207 
L 196.252473 366.718207 
L 196.252473 248.544293 
L 74.948125 248.544293 
z
" style="fill:#ffffff;"/>
   </g>
   <g id="line2d_21">
    <path clip-path="url(#p83dde174be)" d="M 80.461959 307.63125 
L 84.264603 307.63125 
L 88.067247 307.63125 
L 91.869891 307.63125 
L 95.672536 307.63125 
L 99.47518 307.63125 
L 103.277824 307.63125 
L 107.080468 307.63125 
L 110.883112 307.63125 
L 114.685756 307.63125 
L 118.4884 307.63125 
L 122.291044 307.63125 
L 126.093689 307.63125 
L 129.896333 307.63125 
L 133.698977 307.63125 
L 137.501621 307.63125 
L 141.304265 307.63125 
L 145.106909 307.63125 
L 148.909553 307.63125 
L 152.712198 307.63125 
L 156.514842 307.63125 
L 160.317486 307.63125 
L 164.12013 307.63125 
L 167.922774 307.63125 
L 171.725418 307.63125 
L 175.528062 307.63125 
L 179.330706 307.63125 
L 183.133351 307.63125 
L 186.935995 307.63125 
L 190.738639 307.63125 
" style="fill:none;stroke:#000000;stroke-linecap:square;stroke-width:4;"/>
   </g>
   <g id="line2d_22">
    <path clip-path="url(#p83dde174be)" d="M 80.461959 307.625675 
L 84.264603 307.63461 
L 88.067247 307.64285 
L 91.869891 307.650328 
L 95.672536 307.658956 
L 99.47518 307.666437 
L 103.277824 307.669346 
L 107.080468 307.671472 
L 110.883112 307.670525 
L 114.685756 307.668951 
L 118.4884 307.664171 
L 122.291044 307.649853 
L 126.093689 307.639044 
L 129.896333 307.628822 
L 133.698977 307.621785 
L 137.501621 307.614389 
L 141.304265 307.614038 
L 145.106909 307.60824 
L 148.909553 307.600842 
L 152.712198 307.597476 
L 156.514842 307.59606 
L 160.317486 307.592809 
L 164.12013 307.593038 
L 167.922774 307.593785 
L 171.725418 307.5963 
L 175.528062 307.601496 
L 179.330706 307.606697 
L 183.133351 307.6112 
L 186.935995 307.617592 
L 190.738639 307.625675 
" style="fill:none;stroke:#1f77b4;stroke-linecap:square;stroke-width:2;"/>
   </g>
   <g id="matplotlib.axis_5">
    <g id="xtick_7">
     <g id="line2d_23">
      <g>
       <use style="stroke:#000000;stroke-width:0.8;" x="80.461959" xlink:href="#m3672ce7948" y="366.718207"/>
      </g>
     </g>
     <g id="text_18">
      <!-- $0$ -->
      <g transform="translate(73.461959 393.760082)scale(0.28 -0.28)">
       <use transform="translate(0 0.40625)" xlink:href="#STIXGeneral-Regular-48"/>
      </g>
     </g>
    </g>
    <g id="xtick_8">
     <g id="line2d_24">
      <g>
       <use style="stroke:#000000;stroke-width:0.8;" x="135.600299" xlink:href="#m3672ce7948" y="366.718207"/>
      </g>
     </g>
     <g id="text_19">
      <!-- $\pi$ -->
      <g transform="translate(128.460299 393.760082)scale(0.28 -0.28)">
       <use transform="translate(0 0.203125)" xlink:href="#STIXGeneral-Italic-960"/>
      </g>
     </g>
    </g>
    <g id="xtick_9">
     <g id="line2d_25">
      <g>
       <use style="stroke:#000000;stroke-width:0.8;" x="190.738639" xlink:href="#m3672ce7948" y="366.718207"/>
      </g>
     </g>
     <g id="text_20">
      <!-- $2 \pi$ -->
      <g transform="translate(176.598639 393.760082)scale(0.28 -0.28)">
       <use transform="translate(0 0.40625)" xlink:href="#STIXGeneral-Regular-50"/>
       <use transform="translate(49.999985 0.40625)" xlink:href="#STIXGeneral-Italic-960"/>
      </g>
     </g>
    </g>
    <g id="text_21">
     <!-- $\phi_{1} - \phi_{2} $ -->
     <g transform="translate(93.320299 423.051957)scale(0.28 -0.28)">
      <use transform="translate(0 0.703125)" xlink:href="#STIXGeneral-Italic-981"/>
      <use transform="translate(62.699997 -12.525)scale(0.7)" xlink:href="#STIXGeneral-Regular-49"/>
      <use transform="translate(116.549358 0.703125)" xlink:href="#STIXGeneral-Regular-8722"/>
      <use transform="translate(199.489339 0.703125)" xlink:href="#STIXGeneral-Italic-981"/>
      <use transform="translate(262.189336 -12.525)scale(0.7)" xlink:href="#STIXGeneral-Regular-50"/>
     </g>
    </g>
   </g>
   <g id="matplotlib.axis_6">
    <g id="ytick_5">
     <g id="line2d_26">
      <g>
       <use style="stroke:#000000;stroke-width:0.8;" x="74.948125" xlink:href="#m0ee102458b" y="352.878867"/>
      </g>
     </g>
     <g id="text_22">
      <!-- 27 -->
      <defs>
       <path d="M 4.734375 62.203125 
L 4.734375 70.65625 
L 51.078125 70.65625 
L 51.078125 63.8125 
Q 44.234375 56.546875 37.515625 44.484375 
Q 30.8125 32.421875 27.15625 19.671875 
Q 24.515625 10.6875 23.78125 0 
L 14.75 0 
Q 14.890625 8.453125 18.0625 20.40625 
Q 21.234375 32.375 27.171875 43.484375 
Q 33.109375 54.59375 39.796875 62.203125 
z
" id="ArialMT-55"/>
      </defs>
      <g transform="translate(36.806875 362.899804)scale(0.28 -0.28)">
       <use xlink:href="#ArialMT-50"/>
       <use x="55.615234" xlink:href="#ArialMT-55"/>
      </g>
     </g>
    </g>
    <g id="ytick_6">
     <g id="line2d_27">
      <g>
       <use style="stroke:#000000;stroke-width:0.8;" x="74.948125" xlink:href="#m0ee102458b" y="313.487562"/>
      </g>
     </g>
     <g id="text_23">
      <!-- 28 -->
      <g transform="translate(36.806875 323.5085)scale(0.28 -0.28)">
       <use xlink:href="#ArialMT-50"/>
       <use x="55.615234" xlink:href="#ArialMT-56"/>
      </g>
     </g>
    </g>
    <g id="ytick_7">
     <g id="line2d_28">
      <g>
       <use style="stroke:#000000;stroke-width:0.8;" x="74.948125" xlink:href="#m0ee102458b" y="274.096258"/>
      </g>
     </g>
     <g id="text_24">
      <!-- 29 -->
      <defs>
       <path d="M 5.46875 16.546875 
L 13.921875 17.328125 
Q 14.984375 11.375 18.015625 8.6875 
Q 21.046875 6 25.78125 6 
Q 29.828125 6 32.875 7.859375 
Q 35.9375 9.71875 37.890625 12.8125 
Q 39.84375 15.921875 41.15625 21.1875 
Q 42.484375 26.46875 42.484375 31.9375 
Q 42.484375 32.515625 42.4375 33.6875 
Q 39.796875 29.5 35.234375 26.875 
Q 30.671875 24.265625 25.34375 24.265625 
Q 16.453125 24.265625 10.296875 30.703125 
Q 4.15625 37.15625 4.15625 47.703125 
Q 4.15625 58.59375 10.578125 65.234375 
Q 17 71.875 26.65625 71.875 
Q 33.640625 71.875 39.421875 68.109375 
Q 45.21875 64.359375 48.21875 57.390625 
Q 51.21875 50.4375 51.21875 37.25 
Q 51.21875 23.53125 48.234375 15.40625 
Q 45.265625 7.28125 39.375 3.03125 
Q 33.5 -1.21875 25.59375 -1.21875 
Q 17.1875 -1.21875 11.859375 3.4375 
Q 6.546875 8.109375 5.46875 16.546875 
z
M 41.453125 48.140625 
Q 41.453125 55.71875 37.421875 60.15625 
Q 33.40625 64.59375 27.734375 64.59375 
Q 21.875 64.59375 17.53125 59.8125 
Q 13.1875 55.03125 13.1875 47.40625 
Q 13.1875 40.578125 17.3125 36.296875 
Q 21.4375 32.03125 27.484375 32.03125 
Q 33.59375 32.03125 37.515625 36.296875 
Q 41.453125 40.578125 41.453125 48.140625 
z
" id="ArialMT-57"/>
      </defs>
      <g transform="translate(36.806875 284.117195)scale(0.28 -0.28)">
       <use xlink:href="#ArialMT-50"/>
       <use x="55.615234" xlink:href="#ArialMT-57"/>
      </g>
     </g>
    </g>
    <g id="text_25">
     <!-- $d \phi_{2} / dt $ -->
     <g transform="translate(26.926875 343.75125)rotate(-90)scale(0.28 -0.28)">
      <use transform="translate(0 0.703125)" xlink:href="#STIXGeneral-Italic-100"/>
      <use transform="translate(49.999985 0.703125)" xlink:href="#STIXGeneral-Italic-981"/>
      <use transform="translate(112.699982 -12.525)scale(0.7)" xlink:href="#STIXGeneral-Regular-50"/>
      <use transform="translate(152.109346 0.703125)" xlink:href="#STIXGeneral-Regular-47"/>
      <use transform="translate(179.909334 0.703125)" xlink:href="#STIXGeneral-Italic-100"/>
      <use transform="translate(229.909319 0.703125)" xlink:href="#STIXGeneral-Italic-116"/>
     </g>
    </g>
   </g>
   <g id="line2d_29">
    <path clip-path="url(#p83dde174be)" d="M 80.461959 307.610182 
L 84.264603 307.612136 
L 88.067247 307.615745 
L 91.869891 307.620211 
L 95.672536 307.624532 
L 99.47518 307.628736 
L 103.277824 307.63195 
L 107.080468 307.635354 
L 110.883112 307.639141 
L 114.685756 307.642273 
L 118.4884 307.645584 
L 122.291044 307.648039 
L 126.093689 307.649097 
L 129.896333 307.64811 
L 133.698977 307.643532 
L 137.501621 307.636712 
L 141.304265 307.625955 
L 145.106909 307.624328 
L 148.909553 307.620361 
L 152.712198 307.614579 
L 156.514842 307.607521 
L 160.317486 307.602717 
L 164.12013 307.600073 
L 167.922774 307.599879 
L 171.725418 307.601128 
L 175.528062 307.603794 
L 179.330706 307.605723 
L 183.133351 307.607963 
L 186.935995 307.609102 
L 190.738639 307.610182 
" style="fill:none;stroke:#ff7f0e;stroke-linecap:square;stroke-width:2;"/>
   </g>
   <g id="patch_15">
    <path d="M 74.948125 366.718207 
L 74.948125 248.544293 
" style="fill:none;stroke:#000000;stroke-linecap:square;stroke-linejoin:miter;stroke-width:0.8;"/>
   </g>
   <g id="patch_16">
    <path d="M 196.252473 366.718207 
L 196.252473 248.544293 
" style="fill:none;stroke:#000000;stroke-linecap:square;stroke-linejoin:miter;stroke-width:0.8;"/>
   </g>
   <g id="patch_17">
    <path d="M 74.948125 366.718207 
L 196.252473 366.718207 
" style="fill:none;stroke:#000000;stroke-linecap:square;stroke-linejoin:miter;stroke-width:0.8;"/>
   </g>
   <g id="patch_18">
    <path d="M 74.948125 248.544293 
L 196.252473 248.544293 
" style="fill:none;stroke:#000000;stroke-linecap:square;stroke-linejoin:miter;stroke-width:0.8;"/>
   </g>
   <g id="line2d_30">
    <path clip-path="url(#p83dde174be)" d="M 80.461959 307.606758 
L 84.264603 307.608578 
L 88.067247 307.611566 
L 91.869891 307.615046 
L 95.672536 307.619803 
L 99.47518 307.624758 
L 103.277824 307.630025 
L 107.080468 307.634901 
L 110.883112 307.640196 
L 114.685756 307.644625 
L 118.4884 307.647056 
L 122.291044 307.648893 
L 126.093689 307.650282 
L 129.896333 307.650982 
L 133.698977 307.650509 
L 137.501621 307.648649 
L 141.304265 307.646933 
L 145.106909 307.643794 
L 148.909553 307.639807 
L 152.712198 307.63512 
L 156.514842 307.629827 
L 160.317486 307.624334 
L 164.12013 307.618991 
L 167.922774 307.61416 
L 171.725418 307.60988 
L 175.528062 307.606941 
L 179.330706 307.606704 
L 183.133351 307.606443 
L 186.935995 307.606045 
L 190.738639 307.606758 
" style="fill:none;stroke:#2ca02c;stroke-linecap:square;stroke-width:2;"/>
   </g>
   <g id="line2d_31">
    <path clip-path="url(#p83dde174be)" d="M 80.461959 307.604716 
L 84.264603 307.607392 
L 88.067247 307.610236 
L 91.869891 307.613384 
L 95.672536 307.617621 
L 99.47518 307.622367 
L 103.277824 307.627708 
L 107.080468 307.63237 
L 110.883112 307.636753 
L 114.685756 307.641419 
L 118.4884 307.645327 
L 122.291044 307.648418 
L 126.093689 307.650282 
L 129.896333 307.651709 
L 133.698977 307.651934 
L 137.501621 307.650437 
L 141.304265 307.648187 
L 145.106909 307.644858 
L 148.909553 307.641024 
L 152.712198 307.635589 
L 156.514842 307.629065 
L 160.317486 307.62213 
L 164.12013 307.615101 
L 167.922774 307.608906 
L 171.725418 307.604473 
L 175.528062 307.602723 
L 179.330706 307.603789 
L 183.133351 307.603654 
L 186.935995 307.603653 
L 190.738639 307.604716 
" style="fill:none;stroke:#d62728;stroke-linecap:square;stroke-width:2;"/>
   </g>
  </g>
  <g id="axes_5">
   <g id="patch_19">
    <path d="M 511.643777 366.718207 
L 632.948125 366.718207 
L 632.948125 248.544293 
L 511.643777 248.544293 
z
" style="fill:#ffffff;"/>
   </g>
   <g id="line2d_32">
    <path clip-path="url(#pc7b0b98c91)" d="M 517.157611 292.399946 
L 520.960255 289.381138 
L 524.762899 287.240244 
L 528.565544 286.077369 
L 532.368188 285.946888 
L 536.170832 286.854903 
L 539.973476 288.758955 
L 543.77612 291.570013 
L 547.578764 295.156635 
L 551.381408 299.351115 
L 555.184052 303.957324 
L 558.986697 308.75988 
L 562.789341 313.534221 
L 566.591985 318.057104 
L 570.394629 322.117044 
L 574.197273 325.524203 
L 577.999917 328.119267 
L 581.802561 329.780892 
L 585.605206 330.431383 
L 589.40785 330.040323 
L 593.210494 328.625999 
L 597.013138 326.254542 
L 600.815782 323.03684 
L 604.618426 319.123348 
L 608.42107 314.697056 
L 612.223714 309.964934 
L 616.026359 305.14825 
L 619.829003 300.472227 
L 623.631647 296.155511 
L 627.434291 292.399946 
" style="fill:none;stroke:#000000;stroke-linecap:square;stroke-width:4;"/>
   </g>
   <g id="line2d_33">
    <path clip-path="url(#pc7b0b98c91)" d="M 517.157611 292.443881 
L 520.960255 289.422764 
L 524.762899 287.276986 
L 528.565544 286.109144 
L 532.368188 285.971522 
L 536.170832 286.86724 
L 539.973476 288.76256 
L 543.77612 291.56488 
L 547.578764 295.143795 
L 551.381408 299.330934 
L 555.184052 303.930611 
L 558.986697 308.728535 
L 562.789341 313.499973 
L 566.591985 318.020602 
L 570.394629 322.080201 
L 574.197273 325.487949 
L 577.999917 328.085461 
L 581.802561 329.750975 
L 585.605206 330.406095 
L 589.40785 330.020831 
L 593.210494 328.611915 
L 597.013138 326.246841 
L 600.815782 323.039054 
L 604.618426 319.135509 
L 608.42107 314.718554 
L 612.223714 309.996361 
L 616.026359 305.185617 
L 619.829003 300.514788 
L 623.631647 296.199583 
L 627.434291 292.443881 
" style="fill:none;stroke:#1f77b4;stroke-linecap:square;stroke-width:2;"/>
   </g>
   <g id="matplotlib.axis_7">
    <g id="xtick_10">
     <g id="line2d_34">
      <g>
       <use style="stroke:#000000;stroke-width:0.8;" x="517.157611" xlink:href="#m3672ce7948" y="366.718207"/>
      </g>
     </g>
     <g id="text_26">
      <!-- $0$ -->
      <g transform="translate(510.157611 393.760082)scale(0.28 -0.28)">
       <use transform="translate(0 0.40625)" xlink:href="#STIXGeneral-Regular-48"/>
      </g>
     </g>
    </g>
    <g id="xtick_11">
     <g id="line2d_35">
      <g>
       <use style="stroke:#000000;stroke-width:0.8;" x="572.295951" xlink:href="#m3672ce7948" y="366.718207"/>
      </g>
     </g>
     <g id="text_27">
      <!-- $\pi$ -->
      <g transform="translate(565.155951 393.760082)scale(0.28 -0.28)">
       <use transform="translate(0 0.203125)" xlink:href="#STIXGeneral-Italic-960"/>
      </g>
     </g>
    </g>
    <g id="xtick_12">
     <g id="line2d_36">
      <g>
       <use style="stroke:#000000;stroke-width:0.8;" x="627.434291" xlink:href="#m3672ce7948" y="366.718207"/>
      </g>
     </g>
     <g id="text_28">
      <!-- $2 \pi$ -->
      <g transform="translate(613.294291 393.760082)scale(0.28 -0.28)">
       <use transform="translate(0 0.40625)" xlink:href="#STIXGeneral-Regular-50"/>
       <use transform="translate(49.999985 0.40625)" xlink:href="#STIXGeneral-Italic-960"/>
      </g>
     </g>
    </g>
    <g id="text_29">
     <!-- $\phi_{3} - \phi_{2} $ -->
     <g transform="translate(530.015951 423.051957)scale(0.28 -0.28)">
      <use transform="translate(0 0.703125)" xlink:href="#STIXGeneral-Italic-981"/>
      <use transform="translate(62.699997 -12.525)scale(0.7)" xlink:href="#STIXGeneral-Regular-51"/>
      <use transform="translate(116.549358 0.703125)" xlink:href="#STIXGeneral-Regular-8722"/>
      <use transform="translate(199.489339 0.703125)" xlink:href="#STIXGeneral-Italic-981"/>
      <use transform="translate(262.189336 -12.525)scale(0.7)" xlink:href="#STIXGeneral-Regular-50"/>
     </g>
    </g>
   </g>
   <g id="matplotlib.axis_8">
    <g id="ytick_8">
     <g id="line2d_37">
      <g>
       <use style="stroke:#000000;stroke-width:0.8;" x="511.643777" xlink:href="#m0ee102458b" y="353.404084"/>
      </g>
     </g>
     <g id="text_30">
      <!-- 27 -->
      <g transform="translate(473.502527 363.425021)scale(0.28 -0.28)">
       <use xlink:href="#ArialMT-50"/>
       <use x="55.615234" xlink:href="#ArialMT-55"/>
      </g>
     </g>
    </g>
    <g id="ytick_9">
     <g id="line2d_38">
      <g>
       <use style="stroke:#000000;stroke-width:0.8;" x="511.643777" xlink:href="#m0ee102458b" y="314.01278"/>
      </g>
     </g>
     <g id="text_31">
      <!-- 28 -->
      <g transform="translate(473.502527 324.033717)scale(0.28 -0.28)">
       <use xlink:href="#ArialMT-50"/>
       <use x="55.615234" xlink:href="#ArialMT-56"/>
      </g>
     </g>
    </g>
    <g id="ytick_10">
     <g id="line2d_39">
      <g>
       <use style="stroke:#000000;stroke-width:0.8;" x="511.643777" xlink:href="#m0ee102458b" y="274.621475"/>
      </g>
     </g>
     <g id="text_32">
      <!-- 29 -->
      <g transform="translate(473.502527 284.642413)scale(0.28 -0.28)">
       <use xlink:href="#ArialMT-50"/>
       <use x="55.615234" xlink:href="#ArialMT-57"/>
      </g>
     </g>
    </g>
    <g id="text_33">
     <!-- $d \phi_{2} / dt $ -->
     <g transform="translate(463.622527 343.75125)rotate(-90)scale(0.28 -0.28)">
      <use transform="translate(0 0.703125)" xlink:href="#STIXGeneral-Italic-100"/>
      <use transform="translate(49.999985 0.703125)" xlink:href="#STIXGeneral-Italic-981"/>
      <use transform="translate(112.699982 -12.525)scale(0.7)" xlink:href="#STIXGeneral-Regular-50"/>
      <use transform="translate(152.109346 0.703125)" xlink:href="#STIXGeneral-Regular-47"/>
      <use transform="translate(179.909334 0.703125)" xlink:href="#STIXGeneral-Italic-100"/>
      <use transform="translate(229.909319 0.703125)" xlink:href="#STIXGeneral-Italic-116"/>
     </g>
    </g>
   </g>
   <g id="line2d_40">
    <path clip-path="url(#pc7b0b98c91)" d="M 517.157611 292.413132 
L 520.960255 289.39319 
L 524.762899 287.250817 
L 528.565544 286.086307 
L 532.368188 285.952981 
L 536.170832 286.859277 
L 539.973476 288.760426 
L 543.77612 291.567672 
L 547.578764 295.150819 
L 551.381408 299.341867 
L 555.184052 303.945661 
L 558.986697 308.744718 
L 562.789341 313.515764 
L 566.591985 318.036677 
L 570.394629 322.09548 
L 574.197273 325.502289 
L 577.999917 328.097624 
L 581.802561 329.760118 
L 585.605206 330.411937 
L 589.40785 330.023805 
L 593.210494 328.61319 
L 597.013138 326.245805 
L 600.815782 323.0324 
L 604.618426 319.122945 
L 608.42107 314.700459 
L 612.223714 309.971566 
L 616.026359 305.157705 
L 619.829003 300.483875 
L 623.631647 296.168742 
L 627.434291 292.413132 
" style="fill:none;stroke:#ff7f0e;stroke-linecap:square;stroke-width:2;"/>
   </g>
   <g id="patch_20">
    <path d="M 511.643777 366.718207 
L 511.643777 248.544293 
" style="fill:none;stroke:#000000;stroke-linecap:square;stroke-linejoin:miter;stroke-width:0.8;"/>
   </g>
   <g id="patch_21">
    <path d="M 632.948125 366.718207 
L 632.948125 248.544293 
" style="fill:none;stroke:#000000;stroke-linecap:square;stroke-linejoin:miter;stroke-width:0.8;"/>
   </g>
   <g id="patch_22">
    <path d="M 511.643777 366.718207 
L 632.948125 366.718207 
" style="fill:none;stroke:#000000;stroke-linecap:square;stroke-linejoin:miter;stroke-width:0.8;"/>
   </g>
   <g id="patch_23">
    <path d="M 511.643777 248.544293 
L 632.948125 248.544293 
" style="fill:none;stroke:#000000;stroke-linecap:square;stroke-linejoin:miter;stroke-width:0.8;"/>
   </g>
   <g id="line2d_41">
    <path clip-path="url(#pc7b0b98c91)" d="M 517.157611 292.413478 
L 520.960255 289.394449 
L 524.762899 287.253024 
L 528.565544 286.088758 
L 532.368188 285.955951 
L 536.170832 286.860718 
L 539.973476 288.761911 
L 543.77612 291.570191 
L 547.578764 295.153788 
L 551.381408 299.344503 
L 555.184052 303.946782 
L 558.986697 308.746668 
L 562.789341 313.518106 
L 566.591985 318.038207 
L 570.394629 322.096712 
L 574.197273 325.503254 
L 577.999917 328.09875 
L 581.802561 329.761738 
L 585.605206 330.41442 
L 589.40785 330.025998 
L 593.210494 328.614533 
L 597.013138 326.246148 
L 600.815782 323.032316 
L 604.618426 319.122852 
L 608.42107 314.700418 
L 612.223714 309.971642 
L 616.026359 305.157892 
L 619.829003 300.484063 
L 623.631647 296.168802 
L 627.434291 292.413478 
" style="fill:none;stroke:#2ca02c;stroke-linecap:square;stroke-width:2;"/>
   </g>
   <g id="line2d_42">
    <path clip-path="url(#pc7b0b98c91)" d="M 517.157611 292.409167 
L 520.960255 289.389669 
L 524.762899 287.24744 
L 528.565544 286.082475 
L 532.368188 285.951267 
L 536.170832 286.858258 
L 539.973476 288.760062 
L 543.77612 291.567514 
L 547.578764 295.151224 
L 551.381408 299.343992 
L 555.184052 303.948248 
L 558.986697 308.748595 
L 562.789341 313.521118 
L 566.591985 318.042499 
L 570.394629 322.101018 
L 574.197273 325.507192 
L 577.999917 328.101927 
L 581.802561 329.763878 
L 585.605206 330.415238 
L 589.40785 330.026088 
L 593.210494 328.614067 
L 597.013138 326.2447 
L 600.815782 323.029404 
L 604.618426 319.118993 
L 608.42107 314.695862 
L 612.223714 309.966786 
L 616.026359 305.152877 
L 619.829003 300.479213 
L 623.631647 296.164184 
L 627.434291 292.409167 
" style="fill:none;stroke:#d62728;stroke-linecap:square;stroke-width:2;"/>
   </g>
  </g>
  <g id="axes_6">
   <g id="patch_24">
    <path d="M 74.948125 579.43125 
L 196.252473 579.43125 
L 196.252473 461.257337 
L 74.948125 461.257337 
z
" style="fill:#ffffff;"/>
   </g>
   <g id="line2d_43">
    <path clip-path="url(#pff05dafbca)" d="M 80.461959 520.344293 
L 84.264603 520.344293 
L 88.067247 520.344293 
L 91.869891 520.344293 
L 95.672536 520.344293 
L 99.47518 520.344293 
L 103.277824 520.344293 
L 107.080468 520.344293 
L 110.883112 520.344293 
L 114.685756 520.344293 
L 118.4884 520.344293 
L 122.291044 520.344293 
L 126.093689 520.344293 
L 129.896333 520.344293 
L 133.698977 520.344293 
L 137.501621 520.344293 
L 141.304265 520.344293 
L 145.106909 520.344293 
L 148.909553 520.344293 
L 152.712198 520.344293 
L 156.514842 520.344293 
L 160.317486 520.344293 
L 164.12013 520.344293 
L 167.922774 520.344293 
L 171.725418 520.344293 
L 175.528062 520.344293 
L 179.330706 520.344293 
L 183.133351 520.344293 
L 186.935995 520.344293 
L 190.738639 520.344293 
" style="fill:none;stroke:#000000;stroke-linecap:square;stroke-width:4;"/>
   </g>
   <g id="line2d_44">
    <path clip-path="url(#pff05dafbca)" d="M 80.461959 520.353508 
L 84.264603 520.362731 
L 88.067247 520.369485 
L 91.869891 520.375585 
L 95.672536 520.377894 
L 99.47518 520.3773 
L 103.277824 520.374445 
L 107.080468 520.370816 
L 110.883112 520.365357 
L 114.685756 520.359049 
L 118.4884 520.351843 
L 122.291044 520.342176 
L 126.093689 520.332871 
L 129.896333 520.323966 
L 133.698977 520.312767 
L 137.501621 520.301446 
L 141.304265 520.293257 
L 145.106909 520.287431 
L 148.909553 520.282885 
L 152.712198 520.282892 
L 156.514842 520.284775 
L 160.317486 520.289642 
L 164.12013 520.295402 
L 167.922774 520.302578 
L 171.725418 520.311716 
L 175.528062 520.321146 
L 179.330706 520.330615 
L 183.133351 520.339394 
L 186.935995 520.346842 
L 190.738639 520.353508 
" style="fill:none;stroke:#1f77b4;stroke-linecap:square;stroke-width:2;"/>
   </g>
   <g id="matplotlib.axis_9">
    <g id="xtick_13">
     <g id="line2d_45">
      <g>
       <use style="stroke:#000000;stroke-width:0.8;" x="80.461959" xlink:href="#m3672ce7948" y="579.43125"/>
      </g>
     </g>
     <g id="text_34">
      <!-- $0$ -->
      <g transform="translate(73.461959 606.473125)scale(0.28 -0.28)">
       <use transform="translate(0 0.40625)" xlink:href="#STIXGeneral-Regular-48"/>
      </g>
     </g>
    </g>
    <g id="xtick_14">
     <g id="line2d_46">
      <g>
       <use style="stroke:#000000;stroke-width:0.8;" x="135.600299" xlink:href="#m3672ce7948" y="579.43125"/>
      </g>
     </g>
     <g id="text_35">
      <!-- $\pi$ -->
      <g transform="translate(128.460299 606.473125)scale(0.28 -0.28)">
       <use transform="translate(0 0.203125)" xlink:href="#STIXGeneral-Italic-960"/>
      </g>
     </g>
    </g>
    <g id="xtick_15">
     <g id="line2d_47">
      <g>
       <use style="stroke:#000000;stroke-width:0.8;" x="190.738639" xlink:href="#m3672ce7948" y="579.43125"/>
      </g>
     </g>
     <g id="text_36">
      <!-- $2 \pi$ -->
      <g transform="translate(176.598639 606.473125)scale(0.28 -0.28)">
       <use transform="translate(0 0.40625)" xlink:href="#STIXGeneral-Regular-50"/>
       <use transform="translate(49.999985 0.40625)" xlink:href="#STIXGeneral-Italic-960"/>
      </g>
     </g>
    </g>
    <g id="text_37">
     <!-- $\phi_{1} - \phi_{3} $ -->
     <g transform="translate(93.320299 635.765)scale(0.28 -0.28)">
      <use transform="translate(0 0.703125)" xlink:href="#STIXGeneral-Italic-981"/>
      <use transform="translate(62.699997 -12.525)scale(0.7)" xlink:href="#STIXGeneral-Regular-49"/>
      <use transform="translate(116.549358 0.703125)" xlink:href="#STIXGeneral-Regular-8722"/>
      <use transform="translate(199.489339 0.703125)" xlink:href="#STIXGeneral-Italic-981"/>
      <use transform="translate(262.189336 -12.525)scale(0.7)" xlink:href="#STIXGeneral-Regular-51"/>
     </g>
    </g>
   </g>
   <g id="matplotlib.axis_10">
    <g id="ytick_11">
     <g id="line2d_48">
      <g>
       <use style="stroke:#000000;stroke-width:0.8;" x="74.948125" xlink:href="#m0ee102458b" y="569.496197"/>
      </g>
     </g>
     <g id="text_38">
      <!-- 22 -->
      <g transform="translate(36.806875 579.517135)scale(0.28 -0.28)">
       <use xlink:href="#ArialMT-50"/>
       <use x="55.615234" xlink:href="#ArialMT-50"/>
      </g>
     </g>
    </g>
    <g id="ytick_12">
     <g id="line2d_49">
      <g>
       <use style="stroke:#000000;stroke-width:0.8;" x="74.948125" xlink:href="#m0ee102458b" y="490.713589"/>
      </g>
     </g>
     <g id="text_39">
      <!-- 24 -->
      <defs>
       <path d="M 32.328125 0 
L 32.328125 17.140625 
L 1.265625 17.140625 
L 1.265625 25.203125 
L 33.9375 71.578125 
L 41.109375 71.578125 
L 41.109375 25.203125 
L 50.78125 25.203125 
L 50.78125 17.140625 
L 41.109375 17.140625 
L 41.109375 0 
z
M 32.328125 25.203125 
L 32.328125 57.46875 
L 9.90625 25.203125 
z
" id="ArialMT-52"/>
      </defs>
      <g transform="translate(36.806875 500.734526)scale(0.28 -0.28)">
       <use xlink:href="#ArialMT-50"/>
       <use x="55.615234" xlink:href="#ArialMT-52"/>
      </g>
     </g>
    </g>
    <g id="text_40">
     <!-- $d \phi_{3} / dt $ -->
     <g transform="translate(26.926875 556.464293)rotate(-90)scale(0.28 -0.28)">
      <use transform="translate(0 0.703125)" xlink:href="#STIXGeneral-Italic-100"/>
      <use transform="translate(49.999985 0.703125)" xlink:href="#STIXGeneral-Italic-981"/>
      <use transform="translate(112.699982 -12.525)scale(0.7)" xlink:href="#STIXGeneral-Regular-51"/>
      <use transform="translate(152.109346 0.703125)" xlink:href="#STIXGeneral-Regular-47"/>
      <use transform="translate(179.909334 0.703125)" xlink:href="#STIXGeneral-Italic-100"/>
      <use transform="translate(229.909319 0.703125)" xlink:href="#STIXGeneral-Italic-116"/>
     </g>
    </g>
   </g>
   <g id="line2d_50">
    <path clip-path="url(#pff05dafbca)" d="M 80.461959 520.353537 
L 84.264603 520.360395 
L 88.067247 520.366287 
L 91.869891 520.369989 
L 95.672536 520.371709 
L 99.47518 520.371621 
L 103.277824 520.370101 
L 107.080468 520.367634 
L 110.883112 520.363242 
L 114.685756 520.357095 
L 118.4884 520.350731 
L 122.291044 520.342377 
L 126.093689 520.33345 
L 129.896333 520.324071 
L 133.698977 520.314801 
L 137.501621 520.307035 
L 141.304265 520.300455 
L 145.106909 520.295631 
L 148.909553 520.292372 
L 152.712198 520.291197 
L 156.514842 520.291894 
L 160.317486 520.294555 
L 164.12013 520.299627 
L 167.922774 520.306321 
L 171.725418 520.314163 
L 175.528062 520.3226 
L 179.330706 520.331146 
L 183.133351 520.339396 
L 186.935995 520.346906 
L 190.738639 520.353537 
" style="fill:none;stroke:#ff7f0e;stroke-linecap:square;stroke-width:2;"/>
   </g>
   <g id="patch_25">
    <path d="M 74.948125 579.43125 
L 74.948125 461.257337 
" style="fill:none;stroke:#000000;stroke-linecap:square;stroke-linejoin:miter;stroke-width:0.8;"/>
   </g>
   <g id="patch_26">
    <path d="M 196.252473 579.43125 
L 196.252473 461.257337 
" style="fill:none;stroke:#000000;stroke-linecap:square;stroke-linejoin:miter;stroke-width:0.8;"/>
   </g>
   <g id="patch_27">
    <path d="M 74.948125 579.43125 
L 196.252473 579.43125 
" style="fill:none;stroke:#000000;stroke-linecap:square;stroke-linejoin:miter;stroke-width:0.8;"/>
   </g>
   <g id="patch_28">
    <path d="M 74.948125 461.257337 
L 196.252473 461.257337 
" style="fill:none;stroke:#000000;stroke-linecap:square;stroke-linejoin:miter;stroke-width:0.8;"/>
   </g>
   <g id="line2d_51">
    <path clip-path="url(#pff05dafbca)" d="M 80.461959 520.348088 
L 84.264603 520.355793 
L 88.067247 520.361111 
L 91.869891 520.364621 
L 95.672536 520.366765 
L 99.47518 520.366857 
L 103.277824 520.365162 
L 107.080468 520.362714 
L 110.883112 520.360493 
L 114.685756 520.35773 
L 118.4884 520.354072 
L 122.291044 520.350749 
L 126.093689 520.341004 
L 129.896333 520.33196 
L 133.698977 520.3226 
L 137.501621 520.31504 
L 141.304265 520.309135 
L 145.106909 520.304793 
L 148.909553 520.30178 
L 152.712198 520.300684 
L 156.514842 520.301244 
L 160.317486 520.303427 
L 164.12013 520.306699 
L 167.922774 520.311 
L 171.725418 520.314846 
L 175.528062 520.320724 
L 179.330706 520.328501 
L 183.133351 520.332966 
L 186.935995 520.34003 
L 190.738639 520.348088 
" style="fill:none;stroke:#2ca02c;stroke-linecap:square;stroke-width:2;"/>
   </g>
   <g id="line2d_52">
    <path clip-path="url(#pff05dafbca)" d="M 80.461959 520.333401 
L 84.264603 520.337265 
L 88.067247 520.340298 
L 91.869891 520.343656 
L 95.672536 520.348805 
L 99.47518 520.353149 
L 103.277824 520.356587 
L 107.080468 520.358721 
L 110.883112 520.358127 
L 114.685756 520.356109 
L 118.4884 520.355503 
L 122.291044 520.355483 
L 126.093689 520.353408 
L 129.896333 520.351253 
L 133.698977 520.347949 
L 137.501621 520.342307 
L 141.304265 520.331617 
L 145.106909 520.325546 
L 148.909553 520.319257 
L 152.712198 520.315644 
L 156.514842 520.31301 
L 160.317486 520.311487 
L 164.12013 520.31153 
L 167.922774 520.312838 
L 171.725418 520.317682 
L 175.528062 520.322088 
L 179.330706 520.32543 
L 183.133351 520.325673 
L 186.935995 520.328452 
L 190.738639 520.333401 
" style="fill:none;stroke:#d62728;stroke-linecap:square;stroke-width:2;"/>
   </g>
  </g>
  <g id="axes_7">
   <g id="patch_29">
    <path d="M 293.295951 579.43125 
L 414.600299 579.43125 
L 414.600299 461.257337 
L 293.295951 461.257337 
z
" style="fill:#ffffff;"/>
   </g>
   <g id="line2d_53">
    <path clip-path="url(#pe10d4bab6f)" d="M 298.809785 520.344293 
L 302.612429 520.344293 
L 306.415073 520.344293 
L 310.217717 520.344293 
L 314.020362 520.344293 
L 317.823006 520.344293 
L 321.62565 520.344293 
L 325.428294 520.344293 
L 329.230938 520.344293 
L 333.033582 520.344293 
L 336.836226 520.344293 
L 340.638871 520.344293 
L 344.441515 520.344293 
L 348.244159 520.344293 
L 352.046803 520.344293 
L 355.849447 520.344293 
L 359.652091 520.344293 
L 363.454735 520.344293 
L 367.257379 520.344293 
L 371.060024 520.344293 
L 374.862668 520.344293 
L 378.665312 520.344293 
L 382.467956 520.344293 
L 386.2706 520.344293 
L 390.073244 520.344293 
L 393.875888 520.344293 
L 397.678533 520.344293 
L 401.481177 520.344293 
L 405.283821 520.344293 
L 409.086465 520.344293 
" style="fill:none;stroke:#000000;stroke-linecap:square;stroke-width:4;"/>
   </g>
   <g id="line2d_54">
    <path clip-path="url(#pe10d4bab6f)" d="M 298.809785 520.371879 
L 302.612429 520.360554 
L 306.415073 520.34838 
L 310.217717 520.336779 
L 314.020362 520.323035 
L 317.823006 520.3102 
L 321.62565 520.299751 
L 325.428294 520.290739 
L 329.230938 520.283489 
L 333.033582 520.278146 
L 336.836226 520.273216 
L 340.638871 520.272456 
L 344.441515 520.27442 
L 348.244159 520.279182 
L 352.046803 520.285837 
L 355.849447 520.296621 
L 359.652091 520.309198 
L 363.454735 520.322992 
L 367.257379 520.337472 
L 371.060024 520.352195 
L 374.862668 520.364505 
L 378.665312 520.37379 
L 382.467956 520.381141 
L 386.2706 520.3869 
L 390.073244 520.389888 
L 393.875888 520.390776 
L 397.678533 520.387845 
L 401.481177 520.384148 
L 405.283821 520.379194 
L 409.086465 520.371879 
" style="fill:none;stroke:#1f77b4;stroke-linecap:square;stroke-width:2;"/>
   </g>
   <g id="matplotlib.axis_11">
    <g id="xtick_16">
     <g id="line2d_55">
      <g>
       <use style="stroke:#000000;stroke-width:0.8;" x="298.809785" xlink:href="#m3672ce7948" y="579.43125"/>
      </g>
     </g>
     <g id="text_41">
      <!-- $0$ -->
      <g transform="translate(291.809785 606.473125)scale(0.28 -0.28)">
       <use transform="translate(0 0.40625)" xlink:href="#STIXGeneral-Regular-48"/>
      </g>
     </g>
    </g>
    <g id="xtick_17">
     <g id="line2d_56">
      <g>
       <use style="stroke:#000000;stroke-width:0.8;" x="353.948125" xlink:href="#m3672ce7948" y="579.43125"/>
      </g>
     </g>
     <g id="text_42">
      <!-- $\pi$ -->
      <g transform="translate(346.808125 606.473125)scale(0.28 -0.28)">
       <use transform="translate(0 0.203125)" xlink:href="#STIXGeneral-Italic-960"/>
      </g>
     </g>
    </g>
    <g id="xtick_18">
     <g id="line2d_57">
      <g>
       <use style="stroke:#000000;stroke-width:0.8;" x="409.086465" xlink:href="#m3672ce7948" y="579.43125"/>
      </g>
     </g>
     <g id="text_43">
      <!-- $2 \pi$ -->
      <g transform="translate(394.946465 606.473125)scale(0.28 -0.28)">
       <use transform="translate(0 0.40625)" xlink:href="#STIXGeneral-Regular-50"/>
       <use transform="translate(49.999985 0.40625)" xlink:href="#STIXGeneral-Italic-960"/>
      </g>
     </g>
    </g>
    <g id="text_44">
     <!-- $\phi_{2} - \phi_{3} $ -->
     <g transform="translate(311.668125 635.765)scale(0.28 -0.28)">
      <use transform="translate(0 0.703125)" xlink:href="#STIXGeneral-Italic-981"/>
      <use transform="translate(62.699997 -12.525)scale(0.7)" xlink:href="#STIXGeneral-Regular-50"/>
      <use transform="translate(116.549358 0.703125)" xlink:href="#STIXGeneral-Regular-8722"/>
      <use transform="translate(199.489339 0.703125)" xlink:href="#STIXGeneral-Italic-981"/>
      <use transform="translate(262.189336 -12.525)scale(0.7)" xlink:href="#STIXGeneral-Regular-51"/>
     </g>
    </g>
   </g>
   <g id="matplotlib.axis_12">
    <g id="ytick_13">
     <g id="line2d_58">
      <g>
       <use style="stroke:#000000;stroke-width:0.8;" x="293.295951" xlink:href="#m0ee102458b" y="569.496197"/>
      </g>
     </g>
     <g id="text_45">
      <!-- 22 -->
      <g transform="translate(255.154701 579.517135)scale(0.28 -0.28)">
       <use xlink:href="#ArialMT-50"/>
       <use x="55.615234" xlink:href="#ArialMT-50"/>
      </g>
     </g>
    </g>
    <g id="ytick_14">
     <g id="line2d_59">
      <g>
       <use style="stroke:#000000;stroke-width:0.8;" x="293.295951" xlink:href="#m0ee102458b" y="490.713589"/>
      </g>
     </g>
     <g id="text_46">
      <!-- 24 -->
      <g transform="translate(255.154701 500.734526)scale(0.28 -0.28)">
       <use xlink:href="#ArialMT-50"/>
       <use x="55.615234" xlink:href="#ArialMT-52"/>
      </g>
     </g>
    </g>
    <g id="text_47">
     <!-- $d \phi_{3} / dt $ -->
     <g transform="translate(245.274701 556.464293)rotate(-90)scale(0.28 -0.28)">
      <use transform="translate(0 0.703125)" xlink:href="#STIXGeneral-Italic-100"/>
      <use transform="translate(49.999985 0.703125)" xlink:href="#STIXGeneral-Italic-981"/>
      <use transform="translate(112.699982 -12.525)scale(0.7)" xlink:href="#STIXGeneral-Regular-51"/>
      <use transform="translate(152.109346 0.703125)" xlink:href="#STIXGeneral-Regular-47"/>
      <use transform="translate(179.909334 0.703125)" xlink:href="#STIXGeneral-Italic-100"/>
      <use transform="translate(229.909319 0.703125)" xlink:href="#STIXGeneral-Italic-116"/>
     </g>
    </g>
   </g>
   <g id="line2d_60">
    <path clip-path="url(#pe10d4bab6f)" d="M 298.809785 520.36131 
L 302.612429 520.350223 
L 306.415073 520.338122 
L 310.217717 520.32666 
L 314.020362 520.314676 
L 317.823006 520.304051 
L 321.62565 520.296241 
L 325.428294 520.289851 
L 329.230938 520.284793 
L 333.033582 520.28137 
L 336.836226 520.28194 
L 340.638871 520.282682 
L 344.441515 520.285172 
L 348.244159 520.290861 
L 352.046803 520.298032 
L 355.849447 520.307326 
L 359.652091 520.318054 
L 363.454735 520.330299 
L 367.257379 520.343199 
L 371.060024 520.355943 
L 374.862668 520.368405 
L 378.665312 520.377089 
L 382.467956 520.382262 
L 386.2706 520.38484 
L 390.073244 520.384574 
L 393.875888 520.382976 
L 397.678533 520.379959 
L 401.481177 520.375964 
L 405.283821 520.370482 
L 409.086465 520.36131 
" style="fill:none;stroke:#ff7f0e;stroke-linecap:square;stroke-width:2;"/>
   </g>
   <g id="patch_30">
    <path d="M 293.295951 579.43125 
L 293.295951 461.257337 
" style="fill:none;stroke:#000000;stroke-linecap:square;stroke-linejoin:miter;stroke-width:0.8;"/>
   </g>
   <g id="patch_31">
    <path d="M 414.600299 579.43125 
L 414.600299 461.257337 
" style="fill:none;stroke:#000000;stroke-linecap:square;stroke-linejoin:miter;stroke-width:0.8;"/>
   </g>
   <g id="patch_32">
    <path d="M 293.295951 579.43125 
L 414.600299 579.43125 
" style="fill:none;stroke:#000000;stroke-linecap:square;stroke-linejoin:miter;stroke-width:0.8;"/>
   </g>
   <g id="patch_33">
    <path d="M 293.295951 461.257337 
L 414.600299 461.257337 
" style="fill:none;stroke:#000000;stroke-linecap:square;stroke-linejoin:miter;stroke-width:0.8;"/>
   </g>
   <g id="line2d_61">
    <path clip-path="url(#pe10d4bab6f)" d="M 298.809785 520.352839 
L 302.612429 520.344519 
L 306.415073 520.334553 
L 310.217717 520.326408 
L 314.020362 520.316199 
L 317.823006 520.30948 
L 321.62565 520.300391 
L 325.428294 520.296038 
L 329.230938 520.290924 
L 333.033582 520.28762 
L 336.836226 520.288405 
L 340.638871 520.291949 
L 344.441515 520.297341 
L 348.244159 520.30455 
L 352.046803 520.313577 
L 355.849447 520.323716 
L 359.652091 520.334072 
L 363.454735 520.343888 
L 367.257379 520.351939 
L 371.060024 520.357733 
L 374.862668 520.363551 
L 378.665312 520.37075 
L 382.467956 520.377413 
L 386.2706 520.38053 
L 390.073244 520.380145 
L 393.875888 520.377334 
L 397.678533 520.371998 
L 401.481177 520.365152 
L 405.283821 520.359713 
L 409.086465 520.352839 
" style="fill:none;stroke:#2ca02c;stroke-linecap:square;stroke-width:2;"/>
   </g>
   <g id="line2d_62">
    <path clip-path="url(#pe10d4bab6f)" d="M 298.809785 520.348063 
L 302.612429 520.343939 
L 306.415073 520.336578 
L 310.217717 520.330257 
L 314.020362 520.323585 
L 317.823006 520.317287 
L 321.62565 520.311681 
L 325.428294 520.310291 
L 329.230938 520.31072 
L 333.033582 520.31224 
L 336.836226 520.313934 
L 340.638871 520.316901 
L 344.441515 520.320699 
L 348.244159 520.324892 
L 352.046803 520.329825 
L 355.849447 520.334589 
L 359.652091 520.338922 
L 363.454735 520.343962 
L 367.257379 520.349751 
L 371.060024 520.35523 
L 374.862668 520.361244 
L 378.665312 520.36418 
L 382.467956 520.365064 
L 386.2706 520.365085 
L 390.073244 520.364507 
L 393.875888 520.363279 
L 397.678533 520.362714 
L 401.481177 520.358958 
L 405.283821 520.352569 
L 409.086465 520.348063 
" style="fill:none;stroke:#d62728;stroke-linecap:square;stroke-width:2;"/>
   </g>
   <g id="legend_1">
    <g id="patch_34">
     <path d="M 479.252473 611.547962 
L 685.452473 611.547962 
Q 689.452473 611.547962 689.452473 607.547962 
L 689.452473 465.257337 
Q 689.452473 461.257337 685.452473 461.257337 
L 479.252473 461.257337 
Q 475.252473 461.257337 475.252473 465.257337 
L 475.252473 607.547962 
Q 475.252473 611.547962 479.252473 611.547962 
z
" style="fill:#ffffff;opacity:0.8;stroke:#cccccc;stroke-linejoin:miter;"/>
    </g>
    <g id="line2d_63">
     <path d="M 483.252473 476.572962 
L 523.252473 476.572962 
" style="fill:none;stroke:#000000;stroke-linecap:square;stroke-width:4;"/>
    </g>
    <g id="line2d_64"/>
    <g id="text_48">
     <!-- true -->
     <defs>
      <path d="M 25.78125 7.859375 
L 27.046875 0.09375 
Q 23.34375 -0.6875 20.40625 -0.6875 
Q 15.625 -0.6875 12.984375 0.828125 
Q 10.359375 2.34375 9.28125 4.8125 
Q 8.203125 7.28125 8.203125 15.1875 
L 8.203125 45.015625 
L 1.765625 45.015625 
L 1.765625 51.859375 
L 8.203125 51.859375 
L 8.203125 64.703125 
L 16.9375 69.96875 
L 16.9375 51.859375 
L 25.78125 51.859375 
L 25.78125 45.015625 
L 16.9375 45.015625 
L 16.9375 14.703125 
Q 16.9375 10.9375 17.40625 9.859375 
Q 17.875 8.796875 18.921875 8.15625 
Q 19.96875 7.515625 21.921875 7.515625 
Q 23.390625 7.515625 25.78125 7.859375 
z
" id="ArialMT-116"/>
      <path d="M 6.5 0 
L 6.5 51.859375 
L 14.40625 51.859375 
L 14.40625 44 
Q 17.4375 49.515625 20 51.265625 
Q 22.5625 53.03125 25.640625 53.03125 
Q 30.078125 53.03125 34.671875 50.203125 
L 31.640625 42.046875 
Q 28.421875 43.953125 25.203125 43.953125 
Q 22.3125 43.953125 20.015625 42.21875 
Q 17.71875 40.484375 16.75 37.40625 
Q 15.28125 32.71875 15.28125 27.15625 
L 15.28125 0 
z
" id="ArialMT-114"/>
      <path d="M 40.578125 0 
L 40.578125 7.625 
Q 34.515625 -1.171875 24.125 -1.171875 
Q 19.53125 -1.171875 15.546875 0.578125 
Q 11.578125 2.34375 9.640625 5 
Q 7.71875 7.671875 6.9375 11.53125 
Q 6.390625 14.109375 6.390625 19.734375 
L 6.390625 51.859375 
L 15.1875 51.859375 
L 15.1875 23.09375 
Q 15.1875 16.21875 15.71875 13.8125 
Q 16.546875 10.359375 19.234375 8.375 
Q 21.921875 6.390625 25.875 6.390625 
Q 29.828125 6.390625 33.296875 8.421875 
Q 36.765625 10.453125 38.203125 13.9375 
Q 39.65625 17.4375 39.65625 24.078125 
L 39.65625 51.859375 
L 48.4375 51.859375 
L 48.4375 0 
z
" id="ArialMT-117"/>
      <path d="M 42.09375 16.703125 
L 51.171875 15.578125 
Q 49.03125 7.625 43.21875 3.21875 
Q 37.40625 -1.171875 28.375 -1.171875 
Q 17 -1.171875 10.328125 5.828125 
Q 3.65625 12.84375 3.65625 25.484375 
Q 3.65625 38.578125 10.390625 45.796875 
Q 17.140625 53.03125 27.875 53.03125 
Q 38.28125 53.03125 44.875 45.953125 
Q 51.46875 38.875 51.46875 26.03125 
Q 51.46875 25.25 51.421875 23.6875 
L 12.75 23.6875 
Q 13.234375 15.140625 17.578125 10.59375 
Q 21.921875 6.0625 28.421875 6.0625 
Q 33.25 6.0625 36.671875 8.59375 
Q 40.09375 11.140625 42.09375 16.703125 
z
M 13.234375 30.90625 
L 42.1875 30.90625 
Q 41.609375 37.453125 38.875 40.71875 
Q 34.671875 45.796875 27.984375 45.796875 
Q 21.921875 45.796875 17.796875 41.75 
Q 13.671875 37.703125 13.234375 30.90625 
z
" id="ArialMT-101"/>
     </defs>
     <g transform="translate(539.252473 483.572962)scale(0.2 -0.2)">
      <use xlink:href="#ArialMT-116"/>
      <use x="27.783203" xlink:href="#ArialMT-114"/>
      <use x="61.083984" xlink:href="#ArialMT-117"/>
      <use x="116.699219" xlink:href="#ArialMT-101"/>
     </g>
    </g>
    <g id="line2d_65">
     <path d="M 483.252473 505.147962 
L 523.252473 505.147962 
" style="fill:none;stroke:#1f77b4;stroke-linecap:square;stroke-width:2;"/>
    </g>
    <g id="line2d_66"/>
    <g id="text_49">
     <!-- pred. ($N_t = 1500$) -->
     <defs>
      <path d="M 6.59375 -19.875 
L 6.59375 51.859375 
L 14.59375 51.859375 
L 14.59375 45.125 
Q 17.4375 49.078125 21 51.046875 
Q 24.5625 53.03125 29.640625 53.03125 
Q 36.28125 53.03125 41.359375 49.609375 
Q 46.4375 46.1875 49.015625 39.953125 
Q 51.609375 33.734375 51.609375 26.3125 
Q 51.609375 18.359375 48.75 11.984375 
Q 45.90625 5.609375 40.453125 2.21875 
Q 35.015625 -1.171875 29 -1.171875 
Q 24.609375 -1.171875 21.109375 0.6875 
Q 17.625 2.546875 15.375 5.375 
L 15.375 -19.875 
z
M 14.546875 25.640625 
Q 14.546875 15.625 18.59375 10.84375 
Q 22.65625 6.0625 28.421875 6.0625 
Q 34.28125 6.0625 38.453125 11.015625 
Q 42.625 15.96875 42.625 26.375 
Q 42.625 36.28125 38.546875 41.203125 
Q 34.46875 46.140625 28.8125 46.140625 
Q 23.1875 46.140625 18.859375 40.890625 
Q 14.546875 35.640625 14.546875 25.640625 
z
" id="ArialMT-112"/>
      <path d="M 40.234375 0 
L 40.234375 6.546875 
Q 35.296875 -1.171875 25.734375 -1.171875 
Q 19.53125 -1.171875 14.328125 2.25 
Q 9.125 5.671875 6.265625 11.796875 
Q 3.421875 17.921875 3.421875 25.875 
Q 3.421875 33.640625 6 39.96875 
Q 8.59375 46.296875 13.765625 49.65625 
Q 18.953125 53.03125 25.34375 53.03125 
Q 30.03125 53.03125 33.6875 51.046875 
Q 37.359375 49.078125 39.65625 45.90625 
L 39.65625 71.578125 
L 48.390625 71.578125 
L 48.390625 0 
z
M 12.453125 25.875 
Q 12.453125 15.921875 16.640625 10.984375 
Q 20.84375 6.0625 26.5625 6.0625 
Q 32.328125 6.0625 36.34375 10.765625 
Q 40.375 15.484375 40.375 25.140625 
Q 40.375 35.796875 36.265625 40.765625 
Q 32.171875 45.75 26.171875 45.75 
Q 20.3125 45.75 16.375 40.96875 
Q 12.453125 36.1875 12.453125 25.875 
z
" id="ArialMT-100"/>
      <path d="M 9.078125 0 
L 9.078125 10.015625 
L 19.09375 10.015625 
L 19.09375 0 
z
" id="ArialMT-46"/>
      <path id="ArialMT-32"/>
      <path d="M 23.390625 -21.046875 
Q 16.109375 -11.859375 11.078125 0.4375 
Q 6.0625 12.75 6.0625 25.921875 
Q 6.0625 37.546875 9.8125 48.1875 
Q 14.203125 60.546875 23.390625 72.796875 
L 29.6875 72.796875 
Q 23.78125 62.640625 21.875 58.296875 
Q 18.890625 51.5625 17.1875 44.234375 
Q 15.09375 35.109375 15.09375 25.875 
Q 15.09375 2.390625 29.6875 -21.046875 
z
" id="ArialMT-40"/>
      <path d="M 72.703125 65.296875 
L 72.703125 63.703125 
Q 70 63.09375 68.953125 62.75 
Q 67.90625 62.40625 66.65625 60.65625 
Q 65.40625 58.90625 64.75 56.796875 
Q 64.09375 54.703125 62.5 49.203125 
L 47.90625 -1.5 
L 46.09375 -1.5 
L 23.09375 53.5 
L 11.703125 11.296875 
Q 10.796875 8.203125 10.796875 5.90625 
Q 10.796875 3.796875 12.34375 2.84375 
Q 13.90625 1.90625 17.796875 1.59375 
L 17.796875 0 
L -2 0 
L -2 1.59375 
Q 2.296875 2.203125 4.09375 4.75 
Q 5.90625 7.296875 8.59375 16.796875 
L 20.296875 58.296875 
Q 18 63.703125 11.703125 63.703125 
L 11.703125 65.296875 
L 27.703125 65.296875 
L 48.40625 15.40625 
L 59 54.203125 
Q 59.796875 57 59.796875 58.59375 
Q 59.796875 61.296875 58.4375 62.296875 
Q 57.09375 63.296875 52.90625 63.703125 
L 52.90625 65.296875 
z
" id="STIXGeneral-Italic-78"/>
      <path d="M 63.703125 32 
L 4.796875 32 
L 4.796875 38.59375 
L 63.703125 38.59375 
z
M 63.703125 12 
L 4.796875 12 
L 4.796875 18.59375 
L 63.703125 18.59375 
z
" id="STIXGeneral-Regular-61"/>
      <path d="M 43.796875 68.09375 
L 40.203125 59.59375 
Q 39.59375 58.296875 37.5 58.296875 
L 18.09375 58.296875 
L 14.09375 49.796875 
Q 25.09375 47.703125 30 45.25 
Q 34.90625 42.796875 39.09375 37 
Q 42.59375 32.203125 42.59375 24.296875 
Q 42.59375 17.09375 40.25 12.1875 
Q 37.90625 7.296875 32.796875 3.5 
Q 26 -1.40625 15.796875 -1.40625 
Q 10.09375 -1.40625 6.59375 0.296875 
Q 3.09375 2 3.09375 4.796875 
Q 3.09375 8.59375 7.59375 8.59375 
Q 11.203125 8.59375 15 5.5 
Q 18.90625 2.296875 22.09375 2.296875 
Q 27.296875 2.296875 31.4375 7.5 
Q 35.59375 12.703125 35.59375 19.203125 
Q 35.59375 28.796875 28.90625 34.203125 
Q 20.203125 41.203125 7.59375 41.203125 
Q 6.40625 41.203125 6.40625 42 
L 6.5 42.5 
L 17.40625 66.203125 
L 38.09375 66.203125 
Q 39.796875 66.203125 40.75 66.703125 
Q 41.703125 67.203125 42.90625 68.796875 
z
" id="STIXGeneral-Regular-53"/>
      <path d="M 12.359375 -21.046875 
L 6.0625 -21.046875 
Q 20.65625 2.390625 20.65625 25.875 
Q 20.65625 35.0625 18.5625 44.09375 
Q 16.890625 51.421875 13.921875 58.15625 
Q 12.015625 62.546875 6.0625 72.796875 
L 12.359375 72.796875 
Q 21.53125 60.546875 25.921875 48.1875 
Q 29.6875 37.546875 29.6875 25.921875 
Q 29.6875 12.75 24.625 0.4375 
Q 19.578125 -11.859375 12.359375 -21.046875 
z
" id="ArialMT-41"/>
     </defs>
     <g transform="translate(539.252473 512.147962)scale(0.2 -0.2)">
      <use transform="translate(0 0.203125)" xlink:href="#ArialMT-112"/>
      <use transform="translate(55.615234 0.203125)" xlink:href="#ArialMT-114"/>
      <use transform="translate(88.916016 0.203125)" xlink:href="#ArialMT-101"/>
      <use transform="translate(144.53125 0.203125)" xlink:href="#ArialMT-100"/>
      <use transform="translate(200.146484 0.203125)" xlink:href="#ArialMT-46"/>
      <use transform="translate(227.929688 0.203125)" xlink:href="#ArialMT-32"/>
      <use transform="translate(255.712891 0.203125)" xlink:href="#ArialMT-40"/>
      <use transform="translate(289.013672 0.203125)" xlink:href="#STIXGeneral-Italic-78"/>
      <use transform="translate(355.713669 -13.025)scale(0.7)" xlink:href="#STIXGeneral-Italic-116"/>
      <use transform="translate(394.023032 0.203125)" xlink:href="#STIXGeneral-Regular-61"/>
      <use transform="translate(476.963013 0.203125)" xlink:href="#STIXGeneral-Regular-49"/>
      <use transform="translate(526.962997 0.203125)" xlink:href="#STIXGeneral-Regular-53"/>
      <use transform="translate(576.962982 0.203125)" xlink:href="#STIXGeneral-Regular-48"/>
      <use transform="translate(626.962967 0.203125)" xlink:href="#STIXGeneral-Regular-48"/>
      <use transform="translate(676.962952 0.203125)" xlink:href="#ArialMT-41"/>
     </g>
    </g>
    <g id="line2d_67">
     <path d="M 483.252473 534.147962 
L 523.252473 534.147962 
" style="fill:none;stroke:#ff7f0e;stroke-linecap:square;stroke-width:2;"/>
    </g>
    <g id="line2d_68"/>
    <g id="text_50">
     <!-- pred. ($N_t = 3000$) -->
     <g transform="translate(539.252473 541.147962)scale(0.2 -0.2)">
      <use transform="translate(0 0.203125)" xlink:href="#ArialMT-112"/>
      <use transform="translate(55.615234 0.203125)" xlink:href="#ArialMT-114"/>
      <use transform="translate(88.916016 0.203125)" xlink:href="#ArialMT-101"/>
      <use transform="translate(144.53125 0.203125)" xlink:href="#ArialMT-100"/>
      <use transform="translate(200.146484 0.203125)" xlink:href="#ArialMT-46"/>
      <use transform="translate(227.929688 0.203125)" xlink:href="#ArialMT-32"/>
      <use transform="translate(255.712891 0.203125)" xlink:href="#ArialMT-40"/>
      <use transform="translate(289.013672 0.203125)" xlink:href="#STIXGeneral-Italic-78"/>
      <use transform="translate(355.713669 -13.025)scale(0.7)" xlink:href="#STIXGeneral-Italic-116"/>
      <use transform="translate(394.023032 0.203125)" xlink:href="#STIXGeneral-Regular-61"/>
      <use transform="translate(476.963013 0.203125)" xlink:href="#STIXGeneral-Regular-51"/>
      <use transform="translate(526.962997 0.203125)" xlink:href="#STIXGeneral-Regular-48"/>
      <use transform="translate(576.962982 0.203125)" xlink:href="#STIXGeneral-Regular-48"/>
      <use transform="translate(626.962967 0.203125)" xlink:href="#STIXGeneral-Regular-48"/>
      <use transform="translate(676.962952 0.203125)" xlink:href="#ArialMT-41"/>
     </g>
    </g>
    <g id="line2d_69">
     <path d="M 483.252473 563.147962 
L 523.252473 563.147962 
" style="fill:none;stroke:#2ca02c;stroke-linecap:square;stroke-width:2;"/>
    </g>
    <g id="line2d_70"/>
    <g id="text_51">
     <!-- pred. ($N_t = 4500$) -->
     <defs>
      <path d="M 47.296875 16.703125 
L 37 16.703125 
L 37 0 
L 29.203125 0 
L 29.203125 16.703125 
L 1.203125 16.703125 
L 1.203125 23.09375 
L 32.59375 67.59375 
L 37 67.59375 
L 37 23.09375 
L 47.296875 23.09375 
z
M 29.203125 23.09375 
L 29.203125 57.40625 
L 5.203125 23.09375 
z
" id="STIXGeneral-Regular-52"/>
     </defs>
     <g transform="translate(539.252473 570.147962)scale(0.2 -0.2)">
      <use transform="translate(0 0.203125)" xlink:href="#ArialMT-112"/>
      <use transform="translate(55.615234 0.203125)" xlink:href="#ArialMT-114"/>
      <use transform="translate(88.916016 0.203125)" xlink:href="#ArialMT-101"/>
      <use transform="translate(144.53125 0.203125)" xlink:href="#ArialMT-100"/>
      <use transform="translate(200.146484 0.203125)" xlink:href="#ArialMT-46"/>
      <use transform="translate(227.929688 0.203125)" xlink:href="#ArialMT-32"/>
      <use transform="translate(255.712891 0.203125)" xlink:href="#ArialMT-40"/>
      <use transform="translate(289.013672 0.203125)" xlink:href="#STIXGeneral-Italic-78"/>
      <use transform="translate(355.713669 -13.025)scale(0.7)" xlink:href="#STIXGeneral-Italic-116"/>
      <use transform="translate(394.023032 0.203125)" xlink:href="#STIXGeneral-Regular-61"/>
      <use transform="translate(476.963013 0.203125)" xlink:href="#STIXGeneral-Regular-52"/>
      <use transform="translate(526.962997 0.203125)" xlink:href="#STIXGeneral-Regular-53"/>
      <use transform="translate(576.962982 0.203125)" xlink:href="#STIXGeneral-Regular-48"/>
      <use transform="translate(626.962967 0.203125)" xlink:href="#STIXGeneral-Regular-48"/>
      <use transform="translate(676.962952 0.203125)" xlink:href="#ArialMT-41"/>
     </g>
    </g>
    <g id="line2d_71">
     <path d="M 483.252473 592.147962 
L 523.252473 592.147962 
" style="fill:none;stroke:#d62728;stroke-linecap:square;stroke-width:2;"/>
    </g>
    <g id="line2d_72"/>
    <g id="text_52">
     <!-- pred. ($N_t = 6000$) -->
     <defs>
      <path d="M 44.59375 68.40625 
L 44.796875 66.796875 
Q 33 64.90625 25.09375 57.25 
Q 17.203125 49.59375 15.203125 38.296875 
Q 21 42.796875 27.90625 42.796875 
Q 36.703125 42.796875 41.75 37.1875 
Q 46.796875 31.59375 46.796875 21.90625 
Q 46.796875 12.09375 41.703125 5.90625 
Q 35.796875 -1.40625 25.796875 -1.40625 
Q 13.59375 -1.40625 8.09375 8.703125 
Q 3.40625 17.296875 3.40625 27.90625 
Q 3.40625 44.296875 14.296875 55.5 
Q 20.5 61.90625 27.046875 64.546875 
Q 33.59375 67.203125 44.59375 68.40625 
z
M 37.796875 18.796875 
Q 37.796875 38.203125 24.296875 38.203125 
Q 19.296875 38.203125 16 35.546875 
Q 12.703125 32.90625 12.703125 26.59375 
Q 12.703125 14.90625 16.34375 8.15625 
Q 20 1.40625 26.90625 1.40625 
Q 32.203125 1.40625 35 6.15625 
Q 37.796875 10.90625 37.796875 18.796875 
z
" id="STIXGeneral-Regular-54"/>
     </defs>
     <g transform="translate(539.252473 599.147962)scale(0.2 -0.2)">
      <use transform="translate(0 0.203125)" xlink:href="#ArialMT-112"/>
      <use transform="translate(55.615234 0.203125)" xlink:href="#ArialMT-114"/>
      <use transform="translate(88.916016 0.203125)" xlink:href="#ArialMT-101"/>
      <use transform="translate(144.53125 0.203125)" xlink:href="#ArialMT-100"/>
      <use transform="translate(200.146484 0.203125)" xlink:href="#ArialMT-46"/>
      <use transform="translate(227.929688 0.203125)" xlink:href="#ArialMT-32"/>
      <use transform="translate(255.712891 0.203125)" xlink:href="#ArialMT-40"/>
      <use transform="translate(289.013672 0.203125)" xlink:href="#STIXGeneral-Italic-78"/>
      <use transform="translate(355.713669 -13.025)scale(0.7)" xlink:href="#STIXGeneral-Italic-116"/>
      <use transform="translate(394.023032 0.203125)" xlink:href="#STIXGeneral-Regular-61"/>
      <use transform="translate(476.963013 0.203125)" xlink:href="#STIXGeneral-Regular-54"/>
      <use transform="translate(526.962997 0.203125)" xlink:href="#STIXGeneral-Regular-48"/>
      <use transform="translate(576.962982 0.203125)" xlink:href="#STIXGeneral-Regular-48"/>
      <use transform="translate(626.962967 0.203125)" xlink:href="#STIXGeneral-Regular-48"/>
      <use transform="translate(676.962952 0.203125)" xlink:href="#ArialMT-41"/>
     </g>
    </g>
   </g>
  </g>
  <g id="text_53">
   <!-- A -->
   <defs>
    <path d="M -0.140625 0 
L 27.34375 71.578125 
L 37.546875 71.578125 
L 66.84375 0 
L 56.0625 0 
L 47.703125 21.6875 
L 17.78125 21.6875 
L 9.90625 0 
z
M 20.515625 29.390625 
L 44.78125 29.390625 
L 37.3125 49.21875 
Q 33.890625 58.25 32.234375 64.0625 
Q 30.859375 57.171875 28.375 50.390625 
z
" id="ArialMT-65"/>
   </defs>
   <g transform="translate(16.252473 35.83125)scale(0.4 -0.4)">
    <use xlink:href="#ArialMT-65"/>
   </g>
  </g>
 </g>
 <defs>
  <clipPath id="p93ffbe959e">
   <rect height="118.173913" width="121.304348" x="74.948125" y="35.83125"/>
  </clipPath>
  <clipPath id="p9e613a69d5">
   <rect height="118.173913" width="121.304348" x="293.295951" y="35.83125"/>
  </clipPath>
  <clipPath id="p6988e6d99b">
   <rect height="118.173913" width="121.304348" x="511.643777" y="35.83125"/>
  </clipPath>
  <clipPath id="p83dde174be">
   <rect height="118.173913" width="121.304348" x="74.948125" y="248.544293"/>
  </clipPath>
  <clipPath id="pc7b0b98c91">
   <rect height="118.173913" width="121.304348" x="511.643777" y="248.544293"/>
  </clipPath>
  <clipPath id="pff05dafbca">
   <rect height="118.173913" width="121.304348" x="74.948125" y="461.257337"/>
  </clipPath>
  <clipPath id="pe10d4bab6f">
   <rect height="118.173913" width="121.304348" x="293.295951" y="461.257337"/>
  </clipPath>
 </defs>
</svg>
