<?xml version="1.0" encoding="utf-8" standalone="no"?>
<!DOCTYPE svg PUBLIC "-//W3C//DTD SVG 1.1//EN"
  "http://www.w3.org/Graphics/SVG/1.1/DTD/svg11.dtd">
<!-- Created with matplotlib (https://matplotlib.org/) -->
<svg height="645.345pt" version="1.1" viewBox="0 0 693.152473 645.345" width="693.152473pt" xmlns="http://www.w3.org/2000/svg" xmlns:xlink="http://www.w3.org/1999/xlink">
 <defs>
  <style type="text/css">
*{stroke-linecap:butt;stroke-linejoin:round;}
  </style>
 </defs>
 <g id="figure_1">
  <g id="patch_1">
   <path d="M 0 645.345 
L 693.152473 645.345 
L 693.152473 0 
L 0 0 
z
" style="fill:#ffffff;"/>
  </g>
  <g id="axes_1">
   <g id="patch_2">
    <path clip-path="url(#p61224e4cbe)" d="M 132.100299 53.937008 
Q 109.188922 85.874078 97.233568 118.319716 
" style="fill:none;stroke:#820711;stroke-linecap:round;stroke-width:4;"/>
    <path clip-path="url(#p61224e4cbe)" d="M 100.493217 115.257904 
L 97.233568 118.319716 
L 96.739908 113.87491 
" style="fill:none;stroke:#820711;stroke-linecap:round;stroke-width:4;"/>
   </g>
   <g id="patch_3">
    <path clip-path="url(#p61224e4cbe)" d="M 132.100299 53.937008 
Q 143.903129 91.428351 162.686427 120.460017 
" style="fill:none;stroke:#820711;stroke-linecap:round;stroke-width:4;"/>
    <path clip-path="url(#p61224e4cbe)" d="M 162.192767 116.015211 
L 162.686427 120.460017 
L 158.834386 118.188061 
" style="fill:none;stroke:#820711;stroke-linecap:round;stroke-width:4;"/>
   </g>
   <g id="patch_4">
    <path clip-path="url(#p61224e4cbe)" d="M 91.1191 135.899405 
Q 114.030477 103.962335 125.985831 71.516698 
" style="fill:none;stroke:#820711;stroke-linecap:round;stroke-width:4;"/>
    <path clip-path="url(#p61224e4cbe)" d="M 122.726182 74.578509 
L 125.985831 71.516698 
L 126.479491 75.961503 
" style="fill:none;stroke:#820711;stroke-linecap:round;stroke-width:4;"/>
   </g>
   <g id="patch_5">
    <path clip-path="url(#p61224e4cbe)" d="M 91.1191 135.899405 
Q 125.090423 141.334817 154.614182 138.227037 
" style="fill:none;stroke:#820711;stroke-linecap:round;stroke-width:4;"/>
    <path clip-path="url(#p61224e4cbe)" d="M 150.42679 136.656768 
L 154.614182 138.227037 
L 150.845531 140.634789 
" style="fill:none;stroke:#820711;stroke-linecap:round;stroke-width:4;"/>
   </g>
   <g id="patch_6">
    <path clip-path="url(#p61224e4cbe)" d="M 173.081498 135.899405 
Q 161.278667 98.408062 142.49537 69.376396 
" style="fill:none;stroke:#820711;stroke-linecap:round;stroke-width:4;"/>
    <path clip-path="url(#p61224e4cbe)" d="M 142.98903 73.821202 
L 142.49537 69.376396 
L 146.347411 71.648352 
" style="fill:none;stroke:#820711;stroke-linecap:round;stroke-width:4;"/>
   </g>
   <g id="patch_7">
    <path clip-path="url(#p61224e4cbe)" d="M 173.081498 135.899405 
Q 139.110175 130.463994 109.586416 133.571773 
" style="fill:none;stroke:#820711;stroke-linecap:round;stroke-width:4;"/>
    <path clip-path="url(#p61224e4cbe)" d="M 113.773808 135.142042 
L 109.586416 133.571773 
L 113.355067 131.164021 
" style="fill:none;stroke:#820711;stroke-linecap:round;stroke-width:4;"/>
   </g>
   <g id="PathCollection_1">
    <path clip-path="url(#p61224e4cbe)" d="M 132.100299 68.079144 
C 135.850837 68.079144 139.448268 66.589039 142.100299 63.937008 
C 144.75233 61.284977 146.242435 57.687546 146.242435 53.937008 
C 146.242435 50.18647 144.75233 46.589039 142.100299 43.937008 
C 139.448268 41.284977 135.850837 39.794872 132.100299 39.794872 
C 128.349761 39.794872 124.75233 41.284977 122.100299 43.937008 
C 119.448268 46.589039 117.958163 50.18647 117.958163 53.937008 
C 117.958163 57.687546 119.448268 61.284977 122.100299 63.937008 
C 124.75233 66.589039 128.349761 68.079144 132.100299 68.079144 
z
" style="fill:#0000ff;stroke:#0000ff;"/>
    <path clip-path="url(#p61224e4cbe)" d="M 91.1191 150.041541 
C 94.869639 150.041541 98.467069 148.551436 101.1191 145.899405 
C 103.771131 143.247374 105.261236 139.649943 105.261236 135.899405 
C 105.261236 132.148867 103.771131 128.551436 101.1191 125.899405 
C 98.467069 123.247374 94.869639 121.757269 91.1191 121.757269 
C 87.368562 121.757269 83.771131 123.247374 81.1191 125.899405 
C 78.467069 128.551436 76.976965 132.148867 76.976965 135.899405 
C 76.976965 139.649943 78.467069 143.247374 81.1191 145.899405 
C 83.771131 148.551436 87.368562 150.041541 91.1191 150.041541 
z
" style="fill:#0000ff;stroke:#0000ff;"/>
    <path clip-path="url(#p61224e4cbe)" d="M 173.081498 150.041541 
C 176.832036 150.041541 180.429467 148.551436 183.081498 145.899405 
C 185.733529 143.247374 187.223633 139.649943 187.223633 135.899405 
C 187.223633 132.148867 185.733529 128.551436 183.081498 125.899405 
C 180.429467 123.247374 176.832036 121.757269 173.081498 121.757269 
C 169.330959 121.757269 165.733529 123.247374 163.081498 125.899405 
C 160.429467 128.551436 158.939362 132.148867 158.939362 135.899405 
C 158.939362 139.649943 160.429467 143.247374 163.081498 145.899405 
C 165.733529 148.551436 169.330959 150.041541 173.081498 150.041541 
z
" style="fill:#0000ff;stroke:#0000ff;"/>
   </g>
   <g id="text_1">
    <g clip-path="url(#p61224e4cbe)">
     <!-- 1 -->
     <defs>
      <path d="M 12.40625 8.296875 
L 28.515625 8.296875 
L 28.515625 63.921875 
L 10.984375 60.40625 
L 10.984375 69.390625 
L 28.421875 72.90625 
L 38.28125 72.90625 
L 38.28125 8.296875 
L 54.390625 8.296875 
L 54.390625 0 
L 12.40625 0 
z
" id="DejaVuSans-49"/>
     </defs>
     <g style="fill:#ffffff;" transform="translate(127.328424 58.07607)scale(0.15 -0.15)">
      <use xlink:href="#DejaVuSans-49"/>
     </g>
    </g>
   </g>
   <g id="text_2">
    <g clip-path="url(#p61224e4cbe)">
     <!-- 2 -->
     <defs>
      <path d="M 19.1875 8.296875 
L 53.609375 8.296875 
L 53.609375 0 
L 7.328125 0 
L 7.328125 8.296875 
Q 12.9375 14.109375 22.625 23.890625 
Q 32.328125 33.6875 34.8125 36.53125 
Q 39.546875 41.84375 41.421875 45.53125 
Q 43.3125 49.21875 43.3125 52.78125 
Q 43.3125 58.59375 39.234375 62.25 
Q 35.15625 65.921875 28.609375 65.921875 
Q 23.96875 65.921875 18.8125 64.3125 
Q 13.671875 62.703125 7.8125 59.421875 
L 7.8125 69.390625 
Q 13.765625 71.78125 18.9375 73 
Q 24.125 74.21875 28.421875 74.21875 
Q 39.75 74.21875 46.484375 68.546875 
Q 53.21875 62.890625 53.21875 53.421875 
Q 53.21875 48.921875 51.53125 44.890625 
Q 49.859375 40.875 45.40625 35.40625 
Q 44.1875 33.984375 37.640625 27.21875 
Q 31.109375 20.453125 19.1875 8.296875 
z
" id="DejaVuSans-50"/>
     </defs>
     <g style="fill:#ffffff;" transform="translate(86.347225 140.038468)scale(0.15 -0.15)">
      <use xlink:href="#DejaVuSans-50"/>
     </g>
    </g>
   </g>
   <g id="text_3">
    <g clip-path="url(#p61224e4cbe)">
     <!-- 3 -->
     <defs>
      <path d="M 40.578125 39.3125 
Q 47.65625 37.796875 51.625 33 
Q 55.609375 28.21875 55.609375 21.1875 
Q 55.609375 10.40625 48.1875 4.484375 
Q 40.765625 -1.421875 27.09375 -1.421875 
Q 22.515625 -1.421875 17.65625 -0.515625 
Q 12.796875 0.390625 7.625 2.203125 
L 7.625 11.71875 
Q 11.71875 9.328125 16.59375 8.109375 
Q 21.484375 6.890625 26.8125 6.890625 
Q 36.078125 6.890625 40.9375 10.546875 
Q 45.796875 14.203125 45.796875 21.1875 
Q 45.796875 27.640625 41.28125 31.265625 
Q 36.765625 34.90625 28.71875 34.90625 
L 20.21875 34.90625 
L 20.21875 43.015625 
L 29.109375 43.015625 
Q 36.375 43.015625 40.234375 45.921875 
Q 44.09375 48.828125 44.09375 54.296875 
Q 44.09375 59.90625 40.109375 62.90625 
Q 36.140625 65.921875 28.71875 65.921875 
Q 24.65625 65.921875 20.015625 65.03125 
Q 15.375 64.15625 9.8125 62.3125 
L 9.8125 71.09375 
Q 15.4375 72.65625 20.34375 73.4375 
Q 25.25 74.21875 29.59375 74.21875 
Q 40.828125 74.21875 47.359375 69.109375 
Q 53.90625 64.015625 53.90625 55.328125 
Q 53.90625 49.265625 50.4375 45.09375 
Q 46.96875 40.921875 40.578125 39.3125 
z
" id="DejaVuSans-51"/>
     </defs>
     <g style="fill:#ffffff;" transform="translate(168.309623 140.038468)scale(0.15 -0.15)">
      <use xlink:href="#DejaVuSans-51"/>
     </g>
    </g>
   </g>
  </g>
  <g id="axes_2">
   <g id="patch_8">
    <path d="M 289.795951 154.005163 
L 411.100299 154.005163 
L 411.100299 35.83125 
L 289.795951 35.83125 
z
" style="fill:#ffffff;"/>
   </g>
   <g id="line2d_1">
    <path clip-path="url(#pbcc5fc3936)" d="M 295.309785 79.686902 
L 299.112429 76.668094 
L 302.915073 74.5272 
L 306.717717 73.364326 
L 310.520362 73.233845 
L 314.323006 74.141859 
L 318.12565 76.045911 
L 321.928294 78.85697 
L 325.730938 82.443592 
L 329.533582 86.638072 
L 333.336226 91.24428 
L 337.138871 96.046836 
L 340.941515 100.821177 
L 344.744159 105.34406 
L 348.546803 109.404001 
L 352.349447 112.81116 
L 356.152091 115.406223 
L 359.954735 117.067848 
L 363.757379 117.718339 
L 367.560024 117.32728 
L 371.362668 115.912956 
L 375.165312 113.541499 
L 378.967956 110.323796 
L 382.7706 106.410304 
L 386.573244 101.984013 
L 390.375888 97.251891 
L 394.178533 92.435207 
L 397.981177 87.759184 
L 401.783821 83.442467 
L 405.586465 79.686902 
" style="fill:none;stroke:#000000;stroke-linecap:square;stroke-width:4;"/>
   </g>
   <g id="line2d_2">
    <path clip-path="url(#pbcc5fc3936)" d="M 295.309785 93.064284 
L 299.112429 92.271284 
L 302.915073 91.750399 
L 306.717717 91.525987 
L 310.520362 91.608539 
L 314.323006 91.994197 
L 318.12565 92.664927 
L 321.928294 93.589366 
L 325.730938 94.72429 
L 329.533582 95.765179 
L 333.336226 96.919305 
L 337.138871 98.154388 
L 340.941515 99.427732 
L 344.744159 100.691846 
L 348.546803 101.91593 
L 352.349447 103.075345 
L 356.152091 104.210447 
L 359.954735 104.707273 
L 363.757379 104.690954 
L 367.560024 104.411724 
L 371.362668 103.886085 
L 375.165312 103.083797 
L 378.967956 102.048044 
L 382.7706 100.827257 
L 386.573244 99.478517 
L 390.375888 98.064892 
L 394.178533 96.652479 
L 397.981177 95.269887 
L 401.783821 94.092296 
L 405.586465 93.064284 
" style="fill:none;stroke:#1f77b4;stroke-linecap:square;stroke-width:2;"/>
   </g>
   <g id="matplotlib.axis_1">
    <g id="xtick_1">
     <g id="line2d_3">
      <defs>
       <path d="M 0 0 
L 0 -3.5 
" id="m2760f4b936" style="stroke:#000000;stroke-width:0.8;"/>
      </defs>
      <g>
       <use style="stroke:#000000;stroke-width:0.8;" x="295.309785" xlink:href="#m2760f4b936" y="154.005163"/>
      </g>
     </g>
     <g id="text_4">
      <!-- $0$ -->
      <defs>
       <path d="M 47.59375 33 
Q 47.59375 26.296875 46.296875 20.34375 
Q 45 14.40625 42.453125 9.40625 
Q 39.90625 4.40625 35.40625 1.5 
Q 30.90625 -1.40625 25 -1.40625 
Q 18.90625 -1.40625 14.296875 1.6875 
Q 9.703125 4.796875 7.203125 10 
Q 4.703125 15.203125 3.546875 21.09375 
Q 2.40625 27 2.40625 33.59375 
Q 2.40625 42.90625 4.703125 50.34375 
Q 7 57.796875 12.34375 62.6875 
Q 17.703125 67.59375 25.40625 67.59375 
Q 35.203125 67.59375 41.390625 58 
Q 47.59375 48.40625 47.59375 33 
z
M 38 32.5 
Q 38 48.296875 34.640625 56.640625 
Q 31.296875 65 24.796875 65 
Q 18.59375 65 15.296875 56.59375 
Q 12 48.203125 12 32.90625 
Q 12 17.5 15.296875 9.34375 
Q 18.59375 1.203125 25 1.203125 
Q 31.296875 1.203125 34.640625 9.34375 
Q 38 17.5 38 32.5 
z
" id="STIXGeneral-Regular-48"/>
      </defs>
      <g transform="translate(288.309785 177.547038)scale(0.28 -0.28)">
       <use transform="translate(0 0.40625)" xlink:href="#STIXGeneral-Regular-48"/>
      </g>
     </g>
    </g>
    <g id="xtick_2">
     <g id="line2d_4">
      <g>
       <use style="stroke:#000000;stroke-width:0.8;" x="350.448125" xlink:href="#m2760f4b936" y="154.005163"/>
      </g>
     </g>
     <g id="text_5">
      <!-- $\pi$ -->
      <defs>
       <path d="M 53.59375 42.796875 
L 51.5 35.40625 
L 41.296875 35.40625 
Q 41 34.296875 39.09375 27.84375 
Q 37.203125 21.40625 35.890625 16.75 
Q 34.59375 12.09375 34.59375 11.203125 
Q 34.59375 7 37.703125 7 
Q 42.09375 7 44.796875 13.09375 
L 46.40625 13.09375 
Q 45.09375 7.59375 41.4375 3.25 
Q 37.796875 -1.09375 32.703125 -1.09375 
Q 29.703125 -1.09375 28.25 1.046875 
Q 26.796875 3.203125 26.796875 6.40625 
Q 26.796875 9.796875 28.5 14.40625 
L 36.09375 35.40625 
L 25.703125 35.40625 
Q 24.5 32.203125 21.890625 22.953125 
Q 19.296875 13.703125 16.6875 8 
Q 14.09375 2.296875 10.5 -0.59375 
Q 8.796875 -1.796875 6.90625 -1.796875 
Q 4.90625 -1.796875 3.40625 -0.5 
Q 1.90625 0.796875 1.90625 2.59375 
Q 1.90625 6.703125 4.90625 7.5 
Q 9.90625 8.796875 12.09375 14.5 
L 20.296875 35.40625 
L 19.703125 35.40625 
Q 15.203125 35.40625 12.796875 34.5 
Q 10.40625 33.59375 7.40625 29.90625 
L 5.796875 29.90625 
Q 10 36.90625 14.546875 39.84375 
Q 19.09375 42.796875 26.5 42.796875 
z
" id="STIXGeneral-Italic-960"/>
      </defs>
      <g transform="translate(343.308125 177.547038)scale(0.28 -0.28)">
       <use transform="translate(0 0.203125)" xlink:href="#STIXGeneral-Italic-960"/>
      </g>
     </g>
    </g>
    <g id="xtick_3">
     <g id="line2d_5">
      <g>
       <use style="stroke:#000000;stroke-width:0.8;" x="405.586465" xlink:href="#m2760f4b936" y="154.005163"/>
      </g>
     </g>
     <g id="text_6">
      <!-- $2 \pi$ -->
      <defs>
       <path d="M 47.40625 13.703125 
L 42 0 
L 2.90625 0 
L 2.90625 1.203125 
L 20.703125 20.09375 
Q 27.703125 27.40625 30.703125 33.5 
Q 33.703125 39.59375 33.703125 46.09375 
Q 33.703125 52.796875 30 56.5 
Q 26.296875 60.203125 19.796875 60.203125 
Q 14.40625 60.203125 11.25 57.390625 
Q 8.09375 54.59375 5.09375 47.203125 
L 3 47.703125 
Q 4.703125 57 9.84375 62.296875 
Q 15 67.59375 23.796875 67.59375 
Q 32.09375 67.59375 37.1875 62.59375 
Q 42.296875 57.59375 42.296875 50 
Q 42.296875 38.703125 29.5 25.203125 
L 13 7.59375 
L 36.40625 7.59375 
Q 39.703125 7.59375 41.640625 8.890625 
Q 43.59375 10.203125 46 14.296875 
z
" id="STIXGeneral-Regular-50"/>
      </defs>
      <g transform="translate(391.446465 177.547038)scale(0.28 -0.28)">
       <use transform="translate(0 0.40625)" xlink:href="#STIXGeneral-Regular-50"/>
       <use transform="translate(49.999985 0.40625)" xlink:href="#STIXGeneral-Italic-960"/>
      </g>
     </g>
    </g>
    <g id="text_7">
     <!-- $\theta_{2} - \theta_{1} $ -->
     <defs>
      <path d="M 49.40625 51.09375 
Q 49.40625 39.59375 45.703125 29.09375 
Q 42 18.59375 36 10.59375 
Q 27.203125 -1.09375 15.5 -1.09375 
Q 9.5 -1.09375 6.09375 3.5 
Q 2.703125 8.09375 2.703125 16.09375 
Q 2.703125 31.203125 9.25 43.953125 
Q 15.796875 56.703125 24.90625 63.59375 
Q 30.5 67.796875 37.09375 67.796875 
Q 42.703125 67.796875 46.046875 63.6875 
Q 49.40625 59.59375 49.40625 51.09375 
z
M 14.703125 34.703125 
L 38 34.703125 
Q 41 44.90625 41 55.203125 
Q 41 65.703125 35.703125 65.703125 
Q 31.703125 65.703125 27 59.59375 
Q 22.296875 53.5 19.25 46.75 
Q 16.203125 40 14.703125 34.703125 
z
M 37.296875 31.5 
L 14 31.5 
Q 11.09375 23.90625 11.09375 15 
Q 11.09375 1 16.703125 1 
Q 20.09375 1 23.59375 4.296875 
Q 27.09375 7.59375 29.75 12.59375 
Q 32.40625 17.59375 34.34375 22.5 
Q 36.296875 27.40625 37.296875 31.5 
z
" id="STIXGeneral-Italic-952"/>
      <path d="M 62.09375 22 
L 6.40625 22 
L 6.40625 28.59375 
L 62.09375 28.59375 
z
" id="STIXGeneral-Regular-8722"/>
      <path d="M 39.40625 0 
L 11.796875 0 
L 11.796875 1.5 
Q 17.296875 1.796875 19.296875 3.546875 
Q 21.296875 5.296875 21.296875 9.5 
L 21.296875 54.40625 
Q 21.296875 59.296875 18.296875 59.296875 
Q 16.90625 59.296875 13.796875 58.09375 
L 11.09375 57.09375 
L 11.09375 58.5 
L 29 67.59375 
L 29.90625 67.296875 
L 29.90625 7.59375 
Q 29.90625 4.296875 31.90625 2.890625 
Q 33.90625 1.5 39.40625 1.5 
z
" id="STIXGeneral-Regular-49"/>
     </defs>
     <g transform="translate(312.228125 207.153913)scale(0.28 -0.28)">
      <use transform="translate(0 0.203125)" xlink:href="#STIXGeneral-Italic-952"/>
      <use transform="translate(47.999985 -13.025)scale(0.7)" xlink:href="#STIXGeneral-Regular-50"/>
      <use transform="translate(101.849345 0.203125)" xlink:href="#STIXGeneral-Regular-8722"/>
      <use transform="translate(184.789326 0.203125)" xlink:href="#STIXGeneral-Italic-952"/>
      <use transform="translate(232.789311 -13.025)scale(0.7)" xlink:href="#STIXGeneral-Regular-49"/>
     </g>
    </g>
   </g>
   <g id="matplotlib.axis_2">
    <g id="ytick_1">
     <g id="line2d_6">
      <defs>
       <path d="M 0 0 
L 3.5 0 
" id="m46acbab068" style="stroke:#000000;stroke-width:0.8;"/>
      </defs>
      <g>
       <use style="stroke:#000000;stroke-width:0.8;" x="289.795951" xlink:href="#m46acbab068" y="138.006858"/>
      </g>
     </g>
     <g id="text_8">
      <!-- 26 -->
      <defs>
       <path d="M 50.34375 8.453125 
L 50.34375 0 
L 3.03125 0 
Q 2.9375 3.171875 4.046875 6.109375 
Q 5.859375 10.9375 9.828125 15.625 
Q 13.8125 20.3125 21.34375 26.46875 
Q 33.015625 36.03125 37.109375 41.625 
Q 41.21875 47.21875 41.21875 52.203125 
Q 41.21875 57.421875 37.46875 61 
Q 33.734375 64.59375 27.734375 64.59375 
Q 21.390625 64.59375 17.578125 60.78125 
Q 13.765625 56.984375 13.71875 50.25 
L 4.6875 51.171875 
Q 5.609375 61.28125 11.65625 66.578125 
Q 17.71875 71.875 27.9375 71.875 
Q 38.234375 71.875 44.234375 66.15625 
Q 50.25 60.453125 50.25 52 
Q 50.25 47.703125 48.484375 43.546875 
Q 46.734375 39.40625 42.65625 34.8125 
Q 38.578125 30.21875 29.109375 22.21875 
Q 21.1875 15.578125 18.9375 13.203125 
Q 16.703125 10.84375 15.234375 8.453125 
z
" id="ArialMT-50"/>
       <path d="M 49.75 54.046875 
L 41.015625 53.375 
Q 39.84375 58.546875 37.703125 60.890625 
Q 34.125 64.65625 28.90625 64.65625 
Q 24.703125 64.65625 21.53125 62.3125 
Q 17.390625 59.28125 14.984375 53.46875 
Q 12.59375 47.65625 12.5 36.921875 
Q 15.671875 41.75 20.265625 44.09375 
Q 24.859375 46.4375 29.890625 46.4375 
Q 38.671875 46.4375 44.84375 39.96875 
Q 51.03125 33.5 51.03125 23.25 
Q 51.03125 16.5 48.125 10.71875 
Q 45.21875 4.9375 40.140625 1.859375 
Q 35.0625 -1.21875 28.609375 -1.21875 
Q 17.625 -1.21875 10.6875 6.859375 
Q 3.765625 14.9375 3.765625 33.5 
Q 3.765625 54.25 11.421875 63.671875 
Q 18.109375 71.875 29.4375 71.875 
Q 37.890625 71.875 43.28125 67.140625 
Q 48.6875 62.40625 49.75 54.046875 
z
M 13.875 23.1875 
Q 13.875 18.65625 15.796875 14.5 
Q 17.71875 10.359375 21.1875 8.171875 
Q 24.65625 6 28.46875 6 
Q 34.03125 6 38.03125 10.484375 
Q 42.046875 14.984375 42.046875 22.703125 
Q 42.046875 30.125 38.078125 34.390625 
Q 34.125 38.671875 28.125 38.671875 
Q 22.171875 38.671875 18.015625 34.390625 
Q 13.875 30.125 13.875 23.1875 
z
" id="ArialMT-54"/>
      </defs>
      <g transform="translate(255.154701 148.027795)scale(0.28 -0.28)">
       <use xlink:href="#ArialMT-50"/>
       <use x="55.615234" xlink:href="#ArialMT-54"/>
      </g>
     </g>
    </g>
    <g id="ytick_2">
     <g id="line2d_7">
      <g>
       <use style="stroke:#000000;stroke-width:0.8;" x="289.795951" xlink:href="#m46acbab068" y="59.224249"/>
      </g>
     </g>
     <g id="text_9">
      <!-- 28 -->
      <defs>
       <path d="M 17.671875 38.8125 
Q 12.203125 40.828125 9.5625 44.53125 
Q 6.9375 48.25 6.9375 53.421875 
Q 6.9375 61.234375 12.546875 66.546875 
Q 18.171875 71.875 27.484375 71.875 
Q 36.859375 71.875 42.578125 66.421875 
Q 48.296875 60.984375 48.296875 53.171875 
Q 48.296875 48.1875 45.671875 44.5 
Q 43.0625 40.828125 37.75 38.8125 
Q 44.34375 36.671875 47.78125 31.875 
Q 51.21875 27.09375 51.21875 20.453125 
Q 51.21875 11.28125 44.71875 5.03125 
Q 38.234375 -1.21875 27.640625 -1.21875 
Q 17.046875 -1.21875 10.546875 5.046875 
Q 4.046875 11.328125 4.046875 20.703125 
Q 4.046875 27.6875 7.59375 32.390625 
Q 11.140625 37.109375 17.671875 38.8125 
z
M 15.921875 53.71875 
Q 15.921875 48.640625 19.1875 45.40625 
Q 22.46875 42.1875 27.6875 42.1875 
Q 32.765625 42.1875 36.015625 45.375 
Q 39.265625 48.578125 39.265625 53.21875 
Q 39.265625 58.0625 35.90625 61.359375 
Q 32.5625 64.65625 27.59375 64.65625 
Q 22.5625 64.65625 19.234375 61.421875 
Q 15.921875 58.203125 15.921875 53.71875 
z
M 13.09375 20.65625 
Q 13.09375 16.890625 14.875 13.375 
Q 16.65625 9.859375 20.171875 7.921875 
Q 23.6875 6 27.734375 6 
Q 34.03125 6 38.125 10.046875 
Q 42.234375 14.109375 42.234375 20.359375 
Q 42.234375 26.703125 38.015625 30.859375 
Q 33.796875 35.015625 27.4375 35.015625 
Q 21.234375 35.015625 17.15625 30.90625 
Q 13.09375 26.8125 13.09375 20.65625 
z
" id="ArialMT-56"/>
      </defs>
      <g transform="translate(255.154701 69.245187)scale(0.28 -0.28)">
       <use xlink:href="#ArialMT-50"/>
       <use x="55.615234" xlink:href="#ArialMT-56"/>
      </g>
     </g>
    </g>
    <g id="text_10">
     <!-- $d \theta_{1} / dt $ -->
     <defs>
      <path d="M 52.09375 68.296875 
L 52.703125 67.703125 
L 48.796875 52.5 
L 42.796875 30.59375 
Q 36.296875 6.703125 36.296875 6 
Q 36.296875 4 38.09375 4 
Q 39.40625 4 40.84375 5.25 
Q 42.296875 6.5 46.296875 11.09375 
L 47.5 10.09375 
Q 39.796875 -1.296875 32.796875 -1.296875 
Q 30.90625 -1.296875 29.796875 -0.09375 
Q 28.703125 1.09375 28.703125 3.203125 
Q 28.703125 6.203125 30 12.09375 
Q 25.703125 4.796875 21.546875 1.84375 
Q 17.40625 -1.09375 12.203125 -1.09375 
Q 7.203125 -1.09375 4.34375 1.953125 
Q 1.5 5 1.5 10.59375 
Q 1.5 22.5 11.140625 33.296875 
Q 20.796875 44.09375 30.703125 44.09375 
Q 33.796875 44.09375 35.25 42.6875 
Q 36.703125 41.296875 37.203125 38.296875 
L 37.296875 38.296875 
L 41.796875 54.59375 
Q 43.203125 59.5 43.203125 61.703125 
Q 43.203125 63.296875 42.09375 63.6875 
Q 41 64.09375 36.796875 64.296875 
L 36.796875 66 
Q 44.5 66.703125 52.09375 68.296875 
z
M 35.59375 36.09375 
Q 35.59375 38.703125 34.140625 40.25 
Q 32.703125 41.796875 30.90625 41.796875 
Q 26.203125 41.796875 21.796875 37.203125 
Q 16.796875 31.90625 13.5 24.546875 
Q 10.203125 17.203125 10.203125 11 
Q 10.203125 7.59375 11.75 5.640625 
Q 13.296875 3.703125 16 3.703125 
Q 20.5 3.703125 25.09375 8.59375 
Q 29.703125 13.5 32.640625 21.09375 
Q 35.59375 28.703125 35.59375 36.09375 
z
" id="STIXGeneral-Italic-100"/>
      <path d="M 28.703125 67.59375 
L 5.90625 -1.40625 
L -0.90625 -1.40625 
L 22 67.59375 
z
" id="STIXGeneral-Regular-47"/>
      <path d="M 29.59375 42.796875 
L 29.09375 39.59375 
L 20.703125 39.59375 
L 12 6.796875 
Q 11.796875 6 11.796875 5.40625 
Q 11.796875 3.796875 13.296875 3.796875 
Q 14.5 3.796875 16.09375 5.34375 
Q 17.703125 6.90625 21.40625 11.703125 
L 22.703125 11 
Q 18.09375 4 15.140625 1.453125 
Q 12.203125 -1.09375 8.40625 -1.09375 
Q 3.796875 -1.09375 3.796875 2.59375 
Q 3.796875 3.59375 5.40625 10 
L 13.203125 39.59375 
L 5.703125 39.59375 
L 5.59375 40.203125 
Q 5.59375 42 8.90625 42.703125 
Q 11.40625 43.296875 15.5 46.546875 
Q 19.59375 49.796875 22.203125 53.703125 
Q 22.796875 54.59375 23.59375 54.59375 
Q 24.5 54.59375 24.5 53.796875 
Q 24.5 53.296875 24.40625 53.09375 
L 21.59375 42.796875 
z
" id="STIXGeneral-Italic-116"/>
     </defs>
     <g transform="translate(245.589701 129.078207)rotate(-90)scale(0.28 -0.28)">
      <use transform="translate(0 0.703125)" xlink:href="#STIXGeneral-Italic-100"/>
      <use transform="translate(49.999985 0.703125)" xlink:href="#STIXGeneral-Italic-952"/>
      <use transform="translate(97.999969 -12.525)scale(0.7)" xlink:href="#STIXGeneral-Regular-49"/>
      <use transform="translate(137.409334 0.703125)" xlink:href="#STIXGeneral-Regular-47"/>
      <use transform="translate(165.209322 0.703125)" xlink:href="#STIXGeneral-Italic-100"/>
      <use transform="translate(215.209306 0.703125)" xlink:href="#STIXGeneral-Italic-116"/>
     </g>
    </g>
   </g>
   <g id="line2d_8">
    <path clip-path="url(#pbcc5fc3936)" d="M 295.309785 94.271502 
L 299.112429 93.078115 
L 302.915073 92.068183 
L 306.717717 91.28893 
L 310.520362 90.776793 
L 314.323006 90.555718 
L 318.12565 90.636042 
L 321.928294 91.014011 
L 325.730938 91.67195 
L 329.533582 92.579095 
L 333.336226 93.693029 
L 337.138871 94.961665 
L 340.941515 95.959011 
L 344.744159 97.863802 
L 348.546803 99.470562 
L 352.349447 100.841062 
L 356.152091 101.788693 
L 359.954735 102.384719 
L 363.757379 103.005424 
L 367.560024 103.374192 
L 371.362668 103.444982 
L 375.165312 103.214484 
L 378.967956 102.693476 
L 382.7706 101.517776 
L 386.573244 100.275092 
L 390.375888 98.905626 
L 394.178533 97.796778 
L 397.981177 96.729281 
L 401.783821 95.551503 
L 405.586465 94.271502 
" style="fill:none;stroke:#ff7f0e;stroke-linecap:square;stroke-width:2;"/>
   </g>
   <g id="patch_9">
    <path d="M 289.795951 154.005163 
L 289.795951 35.83125 
" style="fill:none;stroke:#000000;stroke-linecap:square;stroke-linejoin:miter;stroke-width:0.8;"/>
   </g>
   <g id="patch_10">
    <path d="M 411.100299 154.005163 
L 411.100299 35.83125 
" style="fill:none;stroke:#000000;stroke-linecap:square;stroke-linejoin:miter;stroke-width:0.8;"/>
   </g>
   <g id="patch_11">
    <path d="M 289.795951 154.005163 
L 411.100299 154.005163 
" style="fill:none;stroke:#000000;stroke-linecap:square;stroke-linejoin:miter;stroke-width:0.8;"/>
   </g>
   <g id="patch_12">
    <path d="M 289.795951 35.83125 
L 411.100299 35.83125 
" style="fill:none;stroke:#000000;stroke-linecap:square;stroke-linejoin:miter;stroke-width:0.8;"/>
   </g>
   <g id="line2d_9">
    <path clip-path="url(#pbcc5fc3936)" d="M 295.309785 92.765863 
L 299.112429 91.646857 
L 302.915073 90.697076 
L 306.717717 89.960929 
L 310.520362 89.472839 
L 314.323006 89.255628 
L 318.12565 89.319453 
L 321.928294 89.661328 
L 325.730938 90.265269 
L 329.533582 91.103036 
L 333.336226 92.44978 
L 337.138871 94.419588 
L 340.941515 95.836798 
L 344.744159 96.882134 
L 348.546803 98.11503 
L 352.349447 98.873808 
L 356.152091 99.385012 
L 359.954735 100.231991 
L 363.757379 100.847718 
L 367.560024 101.202448 
L 371.362668 101.279594 
L 375.165312 101.075548 
L 378.967956 100.292488 
L 382.7706 99.385012 
L 386.573244 98.367208 
L 390.375888 97.015554 
L 394.178533 96.009109 
L 397.981177 95.121284 
L 401.783821 94.00177 
L 405.586465 92.765863 
" style="fill:none;stroke:#2ca02c;stroke-linecap:square;stroke-width:2;"/>
   </g>
   <g id="line2d_10">
    <path clip-path="url(#pbcc5fc3936)" d="M 295.309785 89.385803 
L 299.112429 88.300891 
L 302.915073 87.479096 
L 306.717717 86.958846 
L 310.520362 86.764467 
L 314.323006 86.905047 
L 318.12565 87.374013 
L 321.928294 88.149437 
L 325.730938 89.195061 
L 329.533582 90.717576 
L 333.336226 92.439786 
L 337.138871 94.242082 
L 340.941515 95.832681 
L 344.744159 97.525457 
L 348.546803 98.533214 
L 352.349447 99.247778 
L 356.152091 100.001641 
L 359.954735 100.67662 
L 363.757379 101.036042 
L 367.560024 101.063101 
L 371.362668 100.709218 
L 375.165312 100.025647 
L 378.967956 99.098614 
L 382.7706 98.035816 
L 386.573244 96.865002 
L 390.375888 95.382401 
L 394.178533 93.563906 
L 397.981177 92.132134 
L 401.783821 90.683105 
L 405.586465 89.385803 
" style="fill:none;stroke:#d62728;stroke-linecap:square;stroke-width:2;"/>
   </g>
  </g>
  <g id="axes_3">
   <g id="patch_13">
    <path d="M 508.143777 154.005163 
L 629.448125 154.005163 
L 629.448125 35.83125 
L 508.143777 35.83125 
z
" style="fill:#ffffff;"/>
   </g>
   <g id="line2d_11">
    <path clip-path="url(#p651f02b38a)" d="M 513.657611 79.686902 
L 517.460255 76.668094 
L 521.262899 74.5272 
L 525.065544 73.364326 
L 528.868188 73.233845 
L 532.670832 74.141859 
L 536.473476 76.045911 
L 540.27612 78.85697 
L 544.078764 82.443592 
L 547.881408 86.638072 
L 551.684052 91.24428 
L 555.486697 96.046836 
L 559.289341 100.821177 
L 563.091985 105.34406 
L 566.894629 109.404001 
L 570.697273 112.81116 
L 574.499917 115.406223 
L 578.302561 117.067848 
L 582.105206 117.718339 
L 585.90785 117.32728 
L 589.710494 115.912956 
L 593.513138 113.541499 
L 597.315782 110.323796 
L 601.118426 106.410304 
L 604.92107 101.984013 
L 608.723714 97.251891 
L 612.526359 92.435207 
L 616.329003 87.759184 
L 620.131647 83.442467 
L 623.934291 79.686902 
" style="fill:none;stroke:#000000;stroke-linecap:square;stroke-width:4;"/>
   </g>
   <g id="line2d_12">
    <path clip-path="url(#p651f02b38a)" d="M 513.657611 82.898642 
L 517.460255 79.970482 
L 521.262899 77.883844 
L 525.065544 76.733042 
L 528.868188 76.573103 
L 532.670832 77.402951 
L 536.473476 79.18782 
L 540.27612 81.840745 
L 544.078764 85.240503 
L 547.881408 89.214864 
L 551.684052 93.58596 
L 555.486697 98.147174 
L 559.289341 102.681326 
L 563.091985 106.977502 
L 566.894629 110.834093 
L 570.697273 114.071253 
L 574.499917 116.533149 
L 578.302561 118.343029 
L 582.105206 119.264877 
L 585.90785 118.95966 
L 589.710494 117.631183 
L 593.513138 115.375875 
L 597.315782 112.302299 
L 601.118426 108.558044 
L 604.92107 104.312056 
L 608.723714 99.777553 
L 612.526359 95.158734 
L 616.329003 90.669216 
L 620.131647 86.516687 
L 623.934291 82.898642 
" style="fill:none;stroke:#1f77b4;stroke-linecap:square;stroke-width:2;"/>
   </g>
   <g id="matplotlib.axis_3">
    <g id="xtick_4">
     <g id="line2d_13">
      <g>
       <use style="stroke:#000000;stroke-width:0.8;" x="513.657611" xlink:href="#m2760f4b936" y="154.005163"/>
      </g>
     </g>
     <g id="text_11">
      <!-- $0$ -->
      <g transform="translate(506.657611 177.547038)scale(0.28 -0.28)">
       <use transform="translate(0 0.40625)" xlink:href="#STIXGeneral-Regular-48"/>
      </g>
     </g>
    </g>
    <g id="xtick_5">
     <g id="line2d_14">
      <g>
       <use style="stroke:#000000;stroke-width:0.8;" x="568.795951" xlink:href="#m2760f4b936" y="154.005163"/>
      </g>
     </g>
     <g id="text_12">
      <!-- $\pi$ -->
      <g transform="translate(561.655951 177.547038)scale(0.28 -0.28)">
       <use transform="translate(0 0.203125)" xlink:href="#STIXGeneral-Italic-960"/>
      </g>
     </g>
    </g>
    <g id="xtick_6">
     <g id="line2d_15">
      <g>
       <use style="stroke:#000000;stroke-width:0.8;" x="623.934291" xlink:href="#m2760f4b936" y="154.005163"/>
      </g>
     </g>
     <g id="text_13">
      <!-- $2 \pi$ -->
      <g transform="translate(609.794291 177.547038)scale(0.28 -0.28)">
       <use transform="translate(0 0.40625)" xlink:href="#STIXGeneral-Regular-50"/>
       <use transform="translate(49.999985 0.40625)" xlink:href="#STIXGeneral-Italic-960"/>
      </g>
     </g>
    </g>
    <g id="text_14">
     <!-- $\theta_{3} - \theta_{1} $ -->
     <defs>
      <path d="M 6.09375 51 
L 4.5 51.40625 
Q 6.796875 58.90625 11.6875 63.25 
Q 16.59375 67.59375 24.09375 67.59375 
Q 31.09375 67.59375 35.390625 63.796875 
Q 39.703125 60 39.703125 53.90625 
Q 39.703125 45.703125 30.40625 40.09375 
Q 35.90625 37.703125 38.703125 34.796875 
Q 43.09375 29.90625 43.09375 21.90625 
Q 43.09375 13.90625 38.5 7.90625 
Q 35.09375 3.296875 28.75 0.9375 
Q 22.40625 -1.40625 15.296875 -1.40625 
Q 4.09375 -1.40625 4.09375 4.296875 
Q 4.09375 5.90625 5.296875 6.90625 
Q 6.5 7.90625 8.203125 7.90625 
Q 10.703125 7.90625 14.296875 5.296875 
Q 18.703125 2.203125 22.90625 2.203125 
Q 28.40625 2.203125 32.15625 6.640625 
Q 35.90625 11.09375 35.90625 17.5 
Q 35.90625 29 25.5 32 
Q 22.40625 33 15.296875 33 
L 15.296875 34.40625 
Q 20.90625 36.296875 23.703125 38 
Q 31.796875 42.59375 31.796875 51.40625 
Q 31.796875 56.40625 28.9375 59 
Q 26.09375 61.59375 21 61.59375 
Q 12 61.59375 6.09375 51 
z
" id="STIXGeneral-Regular-51"/>
     </defs>
     <g transform="translate(530.575951 207.153913)scale(0.28 -0.28)">
      <use transform="translate(0 0.203125)" xlink:href="#STIXGeneral-Italic-952"/>
      <use transform="translate(47.999985 -13.025)scale(0.7)" xlink:href="#STIXGeneral-Regular-51"/>
      <use transform="translate(101.849345 0.203125)" xlink:href="#STIXGeneral-Regular-8722"/>
      <use transform="translate(184.789326 0.203125)" xlink:href="#STIXGeneral-Italic-952"/>
      <use transform="translate(232.789311 -13.025)scale(0.7)" xlink:href="#STIXGeneral-Regular-49"/>
     </g>
    </g>
   </g>
   <g id="matplotlib.axis_4">
    <g id="ytick_3">
     <g id="line2d_16">
      <g>
       <use style="stroke:#000000;stroke-width:0.8;" x="508.143777" xlink:href="#m46acbab068" y="138.006858"/>
      </g>
     </g>
     <g id="text_15">
      <!-- 26 -->
      <g transform="translate(473.502527 148.027795)scale(0.28 -0.28)">
       <use xlink:href="#ArialMT-50"/>
       <use x="55.615234" xlink:href="#ArialMT-54"/>
      </g>
     </g>
    </g>
    <g id="ytick_4">
     <g id="line2d_17">
      <g>
       <use style="stroke:#000000;stroke-width:0.8;" x="508.143777" xlink:href="#m46acbab068" y="59.224249"/>
      </g>
     </g>
     <g id="text_16">
      <!-- 28 -->
      <g transform="translate(473.502527 69.245187)scale(0.28 -0.28)">
       <use xlink:href="#ArialMT-50"/>
       <use x="55.615234" xlink:href="#ArialMT-56"/>
      </g>
     </g>
    </g>
    <g id="text_17">
     <!-- $d \theta_{1} / dt $ -->
     <g transform="translate(463.937527 129.078207)rotate(-90)scale(0.28 -0.28)">
      <use transform="translate(0 0.703125)" xlink:href="#STIXGeneral-Italic-100"/>
      <use transform="translate(49.999985 0.703125)" xlink:href="#STIXGeneral-Italic-952"/>
      <use transform="translate(97.999969 -12.525)scale(0.7)" xlink:href="#STIXGeneral-Regular-49"/>
      <use transform="translate(137.409334 0.703125)" xlink:href="#STIXGeneral-Regular-47"/>
      <use transform="translate(165.209322 0.703125)" xlink:href="#STIXGeneral-Italic-100"/>
      <use transform="translate(215.209306 0.703125)" xlink:href="#STIXGeneral-Italic-116"/>
     </g>
    </g>
   </g>
   <g id="line2d_18">
    <path clip-path="url(#p651f02b38a)" d="M 513.657611 81.085686 
L 517.460255 78.249642 
L 521.262899 76.26641 
L 525.065544 75.23495 
L 528.868188 75.191476 
L 532.670832 76.150483 
L 536.473476 78.080156 
L 540.27612 80.900981 
L 544.078764 84.451167 
L 547.881408 88.564113 
L 551.684052 93.04771 
L 555.486697 97.691889 
L 559.289341 102.278442 
L 563.091985 106.591836 
L 566.894629 110.428448 
L 570.697273 113.638469 
L 574.499917 116.094015 
L 578.302561 117.550572 
L 582.105206 118.168127 
L 585.90785 117.793703 
L 589.710494 116.286908 
L 593.513138 113.85642 
L 597.315782 110.616344 
L 601.118426 106.755379 
L 604.92107 102.455693 
L 608.723714 97.878236 
L 612.526359 93.242027 
L 616.329003 88.759289 
L 620.131647 84.650582 
L 623.934291 81.085686 
" style="fill:none;stroke:#ff7f0e;stroke-linecap:square;stroke-width:2;"/>
   </g>
   <g id="patch_14">
    <path d="M 508.143777 154.005163 
L 508.143777 35.83125 
" style="fill:none;stroke:#000000;stroke-linecap:square;stroke-linejoin:miter;stroke-width:0.8;"/>
   </g>
   <g id="patch_15">
    <path d="M 629.448125 154.005163 
L 629.448125 35.83125 
" style="fill:none;stroke:#000000;stroke-linecap:square;stroke-linejoin:miter;stroke-width:0.8;"/>
   </g>
   <g id="patch_16">
    <path d="M 508.143777 154.005163 
L 629.448125 154.005163 
" style="fill:none;stroke:#000000;stroke-linecap:square;stroke-linejoin:miter;stroke-width:0.8;"/>
   </g>
   <g id="patch_17">
    <path d="M 508.143777 35.83125 
L 629.448125 35.83125 
" style="fill:none;stroke:#000000;stroke-linecap:square;stroke-linejoin:miter;stroke-width:0.8;"/>
   </g>
   <g id="line2d_19">
    <path clip-path="url(#p651f02b38a)" d="M 513.657611 78.542931 
L 517.460255 75.678121 
L 521.262899 73.72397 
L 525.065544 72.771006 
L 528.868188 72.865999 
L 532.670832 74.00242 
L 536.473476 76.039727 
L 540.27612 79.018918 
L 544.078764 82.766821 
L 547.881408 87.08974 
L 551.684052 91.783557 
L 555.486697 96.628082 
L 559.289341 101.397599 
L 563.091985 105.953924 
L 566.894629 109.995282 
L 570.697273 113.347286 
L 574.499917 115.837152 
L 578.302561 117.34911 
L 582.105206 117.814064 
L 585.90785 117.2131 
L 589.710494 115.617646 
L 593.513138 113.037162 
L 597.315782 109.608947 
L 601.118426 105.501333 
L 604.92107 100.904219 
L 608.723714 96.032946 
L 612.526359 91.104943 
L 616.329003 86.435659 
L 620.131647 82.183692 
L 623.934291 78.542931 
" style="fill:none;stroke:#2ca02c;stroke-linecap:square;stroke-width:2;"/>
   </g>
   <g id="line2d_20">
    <path clip-path="url(#p651f02b38a)" d="M 513.657611 77.91049 
L 517.460255 74.940888 
L 521.262899 72.907735 
L 525.065544 71.879083 
L 528.868188 71.895208 
L 532.670832 72.977736 
L 536.473476 75.058639 
L 540.27612 78.038632 
L 544.078764 81.779162 
L 547.881408 86.103467 
L 551.684052 90.811458 
L 555.486697 95.693021 
L 559.289341 100.50303 
L 563.091985 105.031848 
L 566.894629 109.064222 
L 570.697273 112.451528 
L 574.499917 114.954486 
L 578.302561 116.479765 
L 582.105206 116.965809 
L 585.90785 116.419936 
L 589.710494 114.843108 
L 593.513138 112.311944 
L 597.315782 108.939633 
L 601.118426 104.885138 
L 604.92107 100.335827 
L 608.723714 95.506808 
L 612.526359 90.626915 
L 616.329003 85.92502 
L 620.131647 81.619984 
L 623.934291 77.91049 
" style="fill:none;stroke:#d62728;stroke-linecap:square;stroke-width:2;"/>
   </g>
  </g>
  <g id="axes_4">
   <g id="patch_18">
    <path d="M 71.448125 366.718207 
L 192.752473 366.718207 
L 192.752473 248.544293 
L 71.448125 248.544293 
z
" style="fill:#ffffff;"/>
   </g>
   <g id="line2d_21">
    <path clip-path="url(#p5e71e91fd8)" d="M 76.961959 292.399946 
L 80.764603 289.381138 
L 84.567247 287.240244 
L 88.369891 286.077369 
L 92.172536 285.946888 
L 95.97518 286.854903 
L 99.777824 288.758955 
L 103.580468 291.570013 
L 107.383112 295.156635 
L 111.185756 299.351115 
L 114.9884 303.957324 
L 118.791044 308.75988 
L 122.593689 313.534221 
L 126.396333 318.057104 
L 130.198977 322.117044 
L 134.001621 325.524203 
L 137.804265 328.119267 
L 141.606909 329.780892 
L 145.409553 330.431383 
L 149.212198 330.040323 
L 153.014842 328.625999 
L 156.817486 326.254542 
L 160.62013 323.03684 
L 164.422774 319.123348 
L 168.225418 314.697056 
L 172.028062 309.964934 
L 175.830706 305.14825 
L 179.633351 300.472227 
L 183.435995 296.155511 
L 187.238639 292.399946 
" style="fill:none;stroke:#000000;stroke-linecap:square;stroke-width:4;"/>
   </g>
   <g id="line2d_22">
    <path clip-path="url(#p5e71e91fd8)" d="M 76.961959 306.740881 
L 80.764603 306.163543 
L 84.567247 305.664837 
L 88.369891 305.765959 
L 92.172536 306.255166 
L 95.97518 307.01783 
L 99.777824 308.014516 
L 103.580468 308.81307 
L 107.383112 309.965487 
L 111.185756 311.243383 
L 114.9884 312.638313 
L 118.791044 314.149838 
L 122.593689 315.625209 
L 126.396333 316.972948 
L 130.198977 317.79532 
L 134.001621 318.351543 
L 137.804265 318.615608 
L 141.606909 318.575168 
L 145.409553 318.232115 
L 149.212198 317.602488 
L 153.014842 316.715729 
L 156.817486 315.613302 
L 160.62013 314.346754 
L 164.422774 312.975309 
L 168.225418 311.563092 
L 172.028062 310.176139 
L 175.830706 308.879301 
L 179.633351 307.99682 
L 183.435995 307.3305 
L 187.238639 306.740881 
" style="fill:none;stroke:#1f77b4;stroke-linecap:square;stroke-width:2;"/>
   </g>
   <g id="matplotlib.axis_5">
    <g id="xtick_7">
     <g id="line2d_23">
      <g>
       <use style="stroke:#000000;stroke-width:0.8;" x="76.961959" xlink:href="#m2760f4b936" y="366.718207"/>
      </g>
     </g>
     <g id="text_18">
      <!-- $0$ -->
      <g transform="translate(69.961959 390.260082)scale(0.28 -0.28)">
       <use transform="translate(0 0.40625)" xlink:href="#STIXGeneral-Regular-48"/>
      </g>
     </g>
    </g>
    <g id="xtick_8">
     <g id="line2d_24">
      <g>
       <use style="stroke:#000000;stroke-width:0.8;" x="132.100299" xlink:href="#m2760f4b936" y="366.718207"/>
      </g>
     </g>
     <g id="text_19">
      <!-- $\pi$ -->
      <g transform="translate(124.960299 390.260082)scale(0.28 -0.28)">
       <use transform="translate(0 0.203125)" xlink:href="#STIXGeneral-Italic-960"/>
      </g>
     </g>
    </g>
    <g id="xtick_9">
     <g id="line2d_25">
      <g>
       <use style="stroke:#000000;stroke-width:0.8;" x="187.238639" xlink:href="#m2760f4b936" y="366.718207"/>
      </g>
     </g>
     <g id="text_20">
      <!-- $2 \pi$ -->
      <g transform="translate(173.098639 390.260082)scale(0.28 -0.28)">
       <use transform="translate(0 0.40625)" xlink:href="#STIXGeneral-Regular-50"/>
       <use transform="translate(49.999985 0.40625)" xlink:href="#STIXGeneral-Italic-960"/>
      </g>
     </g>
    </g>
    <g id="text_21">
     <!-- $\theta_{1} - \theta_{2} $ -->
     <g transform="translate(93.880299 419.866957)scale(0.28 -0.28)">
      <use transform="translate(0 0.203125)" xlink:href="#STIXGeneral-Italic-952"/>
      <use transform="translate(47.999985 -13.025)scale(0.7)" xlink:href="#STIXGeneral-Regular-49"/>
      <use transform="translate(101.849345 0.203125)" xlink:href="#STIXGeneral-Regular-8722"/>
      <use transform="translate(184.789326 0.203125)" xlink:href="#STIXGeneral-Italic-952"/>
      <use transform="translate(232.789311 -13.025)scale(0.7)" xlink:href="#STIXGeneral-Regular-50"/>
     </g>
    </g>
   </g>
   <g id="matplotlib.axis_6">
    <g id="ytick_5">
     <g id="line2d_26">
      <g>
       <use style="stroke:#000000;stroke-width:0.8;" x="71.448125" xlink:href="#m46acbab068" y="353.404084"/>
      </g>
     </g>
     <g id="text_22">
      <!-- 27 -->
      <defs>
       <path d="M 4.734375 62.203125 
L 4.734375 70.65625 
L 51.078125 70.65625 
L 51.078125 63.8125 
Q 44.234375 56.546875 37.515625 44.484375 
Q 30.8125 32.421875 27.15625 19.671875 
Q 24.515625 10.6875 23.78125 0 
L 14.75 0 
Q 14.890625 8.453125 18.0625 20.40625 
Q 21.234375 32.375 27.171875 43.484375 
Q 33.109375 54.59375 39.796875 62.203125 
z
" id="ArialMT-55"/>
      </defs>
      <g transform="translate(36.806875 363.425021)scale(0.28 -0.28)">
       <use xlink:href="#ArialMT-50"/>
       <use x="55.615234" xlink:href="#ArialMT-55"/>
      </g>
     </g>
    </g>
    <g id="ytick_6">
     <g id="line2d_27">
      <g>
       <use style="stroke:#000000;stroke-width:0.8;" x="71.448125" xlink:href="#m46acbab068" y="314.01278"/>
      </g>
     </g>
     <g id="text_23">
      <!-- 28 -->
      <g transform="translate(36.806875 324.033717)scale(0.28 -0.28)">
       <use xlink:href="#ArialMT-50"/>
       <use x="55.615234" xlink:href="#ArialMT-56"/>
      </g>
     </g>
    </g>
    <g id="ytick_7">
     <g id="line2d_28">
      <g>
       <use style="stroke:#000000;stroke-width:0.8;" x="71.448125" xlink:href="#m46acbab068" y="274.621475"/>
      </g>
     </g>
     <g id="text_24">
      <!-- 29 -->
      <defs>
       <path d="M 5.46875 16.546875 
L 13.921875 17.328125 
Q 14.984375 11.375 18.015625 8.6875 
Q 21.046875 6 25.78125 6 
Q 29.828125 6 32.875 7.859375 
Q 35.9375 9.71875 37.890625 12.8125 
Q 39.84375 15.921875 41.15625 21.1875 
Q 42.484375 26.46875 42.484375 31.9375 
Q 42.484375 32.515625 42.4375 33.6875 
Q 39.796875 29.5 35.234375 26.875 
Q 30.671875 24.265625 25.34375 24.265625 
Q 16.453125 24.265625 10.296875 30.703125 
Q 4.15625 37.15625 4.15625 47.703125 
Q 4.15625 58.59375 10.578125 65.234375 
Q 17 71.875 26.65625 71.875 
Q 33.640625 71.875 39.421875 68.109375 
Q 45.21875 64.359375 48.21875 57.390625 
Q 51.21875 50.4375 51.21875 37.25 
Q 51.21875 23.53125 48.234375 15.40625 
Q 45.265625 7.28125 39.375 3.03125 
Q 33.5 -1.21875 25.59375 -1.21875 
Q 17.1875 -1.21875 11.859375 3.4375 
Q 6.546875 8.109375 5.46875 16.546875 
z
M 41.453125 48.140625 
Q 41.453125 55.71875 37.421875 60.15625 
Q 33.40625 64.59375 27.734375 64.59375 
Q 21.875 64.59375 17.53125 59.8125 
Q 13.1875 55.03125 13.1875 47.40625 
Q 13.1875 40.578125 17.3125 36.296875 
Q 21.4375 32.03125 27.484375 32.03125 
Q 33.59375 32.03125 37.515625 36.296875 
Q 41.453125 40.578125 41.453125 48.140625 
z
" id="ArialMT-57"/>
      </defs>
      <g transform="translate(36.806875 284.642413)scale(0.28 -0.28)">
       <use xlink:href="#ArialMT-50"/>
       <use x="55.615234" xlink:href="#ArialMT-57"/>
      </g>
     </g>
    </g>
    <g id="text_25">
     <!-- $d \theta_{2} / dt $ -->
     <g transform="translate(27.241875 341.79125)rotate(-90)scale(0.28 -0.28)">
      <use transform="translate(0 0.703125)" xlink:href="#STIXGeneral-Italic-100"/>
      <use transform="translate(49.999985 0.703125)" xlink:href="#STIXGeneral-Italic-952"/>
      <use transform="translate(97.999969 -12.525)scale(0.7)" xlink:href="#STIXGeneral-Regular-50"/>
      <use transform="translate(137.409334 0.703125)" xlink:href="#STIXGeneral-Regular-47"/>
      <use transform="translate(165.209322 0.703125)" xlink:href="#STIXGeneral-Italic-100"/>
      <use transform="translate(215.209306 0.703125)" xlink:href="#STIXGeneral-Italic-116"/>
     </g>
    </g>
   </g>
   <g id="line2d_29">
    <path clip-path="url(#p5e71e91fd8)" d="M 76.961959 307.048014 
L 80.764603 306.000668 
L 84.567247 305.049168 
L 88.369891 304.287892 
L 92.172536 303.877935 
L 95.97518 303.849136 
L 99.777824 304.15868 
L 103.580468 304.792092 
L 107.383112 305.719754 
L 111.185756 306.643919 
L 114.9884 308.051193 
L 118.791044 309.56095 
L 122.593689 311.152449 
L 126.396333 312.736518 
L 130.198977 314.338472 
L 134.001621 315.686174 
L 137.804265 316.787298 
L 141.606909 317.621789 
L 145.409553 318.150628 
L 149.212198 318.349087 
L 153.014842 318.207887 
L 156.817486 317.733629 
L 160.62013 316.94849 
L 164.422774 315.602998 
L 168.225418 313.984265 
L 172.028062 312.339256 
L 175.830706 310.715056 
L 179.633351 309.170761 
L 183.435995 307.834337 
L 187.238639 307.048014 
" style="fill:none;stroke:#ff7f0e;stroke-linecap:square;stroke-width:2;"/>
   </g>
   <g id="patch_19">
    <path d="M 71.448125 366.718207 
L 71.448125 248.544293 
" style="fill:none;stroke:#000000;stroke-linecap:square;stroke-linejoin:miter;stroke-width:0.8;"/>
   </g>
   <g id="patch_20">
    <path d="M 192.752473 366.718207 
L 192.752473 248.544293 
" style="fill:none;stroke:#000000;stroke-linecap:square;stroke-linejoin:miter;stroke-width:0.8;"/>
   </g>
   <g id="patch_21">
    <path d="M 71.448125 366.718207 
L 192.752473 366.718207 
" style="fill:none;stroke:#000000;stroke-linecap:square;stroke-linejoin:miter;stroke-width:0.8;"/>
   </g>
   <g id="patch_22">
    <path d="M 71.448125 248.544293 
L 192.752473 248.544293 
" style="fill:none;stroke:#000000;stroke-linecap:square;stroke-linejoin:miter;stroke-width:0.8;"/>
   </g>
   <g id="line2d_30">
    <path clip-path="url(#p5e71e91fd8)" d="M 76.961959 304.852218 
L 80.764603 303.94477 
L 84.567247 303.151405 
L 88.369891 302.556842 
L 92.172536 302.16191 
L 95.97518 302.083425 
L 99.777824 302.356882 
L 103.580468 303.006868 
L 107.383112 303.992052 
L 111.185756 305.256351 
L 114.9884 306.725622 
L 118.791044 308.449758 
L 122.593689 310.124811 
L 126.396333 311.772191 
L 130.198977 313.321555 
L 134.001621 314.74124 
L 137.804265 315.982593 
L 141.606909 316.939512 
L 145.409553 317.552257 
L 149.212198 317.777411 
L 153.014842 317.596567 
L 156.817486 316.991481 
L 160.62013 316.042507 
L 164.422774 314.653847 
L 168.225418 312.855003 
L 172.028062 310.909457 
L 175.830706 308.833513 
L 179.633351 306.805439 
L 183.435995 305.89165 
L 187.238639 304.852218 
" style="fill:none;stroke:#2ca02c;stroke-linecap:square;stroke-width:2;"/>
   </g>
   <g id="line2d_31">
    <path clip-path="url(#p5e71e91fd8)" d="M 76.961959 304.450983 
L 80.764603 303.858503 
L 84.567247 303.342999 
L 88.369891 302.985385 
L 92.172536 302.779085 
L 95.97518 302.86108 
L 99.777824 303.253003 
L 103.580468 303.930656 
L 107.383112 304.853095 
L 111.185756 306.005913 
L 114.9884 307.284484 
L 118.791044 308.89317 
L 122.593689 310.361071 
L 126.396333 311.694549 
L 130.198977 312.95308 
L 134.001621 314.121349 
L 137.804265 315.059429 
L 141.606909 315.737057 
L 145.409553 316.134256 
L 149.212198 316.21871 
L 153.014842 315.966735 
L 156.817486 315.380334 
L 160.62013 314.484789 
L 164.422774 313.261139 
L 168.225418 311.801409 
L 172.028062 310.072057 
L 175.830706 308.342911 
L 179.633351 306.693116 
L 183.435995 305.117508 
L 187.238639 304.450983 
" style="fill:none;stroke:#d62728;stroke-linecap:square;stroke-width:2;"/>
   </g>
  </g>
  <g id="axes_5">
   <g id="patch_23">
    <path d="M 508.143777 366.718207 
L 629.448125 366.718207 
L 629.448125 248.544293 
L 508.143777 248.544293 
z
" style="fill:#ffffff;"/>
   </g>
   <g id="line2d_32">
    <path clip-path="url(#p46baad7918)" d="M 513.657611 292.399946 
L 517.460255 289.381138 
L 521.262899 287.240244 
L 525.065544 286.077369 
L 528.868188 285.946888 
L 532.670832 286.854903 
L 536.473476 288.758955 
L 540.27612 291.570013 
L 544.078764 295.156635 
L 547.881408 299.351115 
L 551.684052 303.957324 
L 555.486697 308.75988 
L 559.289341 313.534221 
L 563.091985 318.057104 
L 566.894629 322.117044 
L 570.697273 325.524203 
L 574.499917 328.119267 
L 578.302561 329.780892 
L 582.105206 330.431383 
L 585.90785 330.040323 
L 589.710494 328.625999 
L 593.513138 326.254542 
L 597.315782 323.03684 
L 601.118426 319.123348 
L 604.92107 314.697056 
L 608.723714 309.964934 
L 612.526359 305.14825 
L 616.329003 300.472227 
L 620.131647 296.155511 
L 623.934291 292.399946 
" style="fill:none;stroke:#000000;stroke-linecap:square;stroke-width:4;"/>
   </g>
   <g id="line2d_33">
    <path clip-path="url(#p46baad7918)" d="M 513.657611 295.834392 
L 517.460255 292.853037 
L 521.262899 290.755935 
L 525.065544 289.633469 
L 528.868188 289.545722 
L 532.670832 290.493478 
L 536.473476 292.454404 
L 540.27612 295.319797 
L 544.078764 298.965359 
L 547.881408 303.231641 
L 551.684052 307.910289 
L 555.486697 312.789119 
L 559.289341 317.648879 
L 563.091985 322.253028 
L 566.894629 326.395525 
L 570.697273 329.890784 
L 574.499917 332.565198 
L 578.302561 334.308849 
L 582.105206 335.042891 
L 585.90785 334.733394 
L 589.710494 333.397313 
L 593.513138 331.097528 
L 597.315782 327.722768 
L 601.118426 323.589875 
L 604.92107 318.919886 
L 608.723714 313.931165 
L 612.526359 308.856978 
L 616.329003 303.934589 
L 620.131647 299.5351 
L 623.934291 295.834392 
" style="fill:none;stroke:#1f77b4;stroke-linecap:square;stroke-width:2;"/>
   </g>
   <g id="matplotlib.axis_7">
    <g id="xtick_10">
     <g id="line2d_34">
      <g>
       <use style="stroke:#000000;stroke-width:0.8;" x="513.657611" xlink:href="#m2760f4b936" y="366.718207"/>
      </g>
     </g>
     <g id="text_26">
      <!-- $0$ -->
      <g transform="translate(506.657611 390.260082)scale(0.28 -0.28)">
       <use transform="translate(0 0.40625)" xlink:href="#STIXGeneral-Regular-48"/>
      </g>
     </g>
    </g>
    <g id="xtick_11">
     <g id="line2d_35">
      <g>
       <use style="stroke:#000000;stroke-width:0.8;" x="568.795951" xlink:href="#m2760f4b936" y="366.718207"/>
      </g>
     </g>
     <g id="text_27">
      <!-- $\pi$ -->
      <g transform="translate(561.655951 390.260082)scale(0.28 -0.28)">
       <use transform="translate(0 0.203125)" xlink:href="#STIXGeneral-Italic-960"/>
      </g>
     </g>
    </g>
    <g id="xtick_12">
     <g id="line2d_36">
      <g>
       <use style="stroke:#000000;stroke-width:0.8;" x="623.934291" xlink:href="#m2760f4b936" y="366.718207"/>
      </g>
     </g>
     <g id="text_28">
      <!-- $2 \pi$ -->
      <g transform="translate(609.794291 390.260082)scale(0.28 -0.28)">
       <use transform="translate(0 0.40625)" xlink:href="#STIXGeneral-Regular-50"/>
       <use transform="translate(49.999985 0.40625)" xlink:href="#STIXGeneral-Italic-960"/>
      </g>
     </g>
    </g>
    <g id="text_29">
     <!-- $\theta_{3} - \theta_{2} $ -->
     <g transform="translate(530.575951 419.866957)scale(0.28 -0.28)">
      <use transform="translate(0 0.203125)" xlink:href="#STIXGeneral-Italic-952"/>
      <use transform="translate(47.999985 -13.025)scale(0.7)" xlink:href="#STIXGeneral-Regular-51"/>
      <use transform="translate(101.849345 0.203125)" xlink:href="#STIXGeneral-Regular-8722"/>
      <use transform="translate(184.789326 0.203125)" xlink:href="#STIXGeneral-Italic-952"/>
      <use transform="translate(232.789311 -13.025)scale(0.7)" xlink:href="#STIXGeneral-Regular-50"/>
     </g>
    </g>
   </g>
   <g id="matplotlib.axis_8">
    <g id="ytick_8">
     <g id="line2d_37">
      <g>
       <use style="stroke:#000000;stroke-width:0.8;" x="508.143777" xlink:href="#m46acbab068" y="353.404084"/>
      </g>
     </g>
     <g id="text_30">
      <!-- 27 -->
      <g transform="translate(473.502527 363.425021)scale(0.28 -0.28)">
       <use xlink:href="#ArialMT-50"/>
       <use x="55.615234" xlink:href="#ArialMT-55"/>
      </g>
     </g>
    </g>
    <g id="ytick_9">
     <g id="line2d_38">
      <g>
       <use style="stroke:#000000;stroke-width:0.8;" x="508.143777" xlink:href="#m46acbab068" y="314.01278"/>
      </g>
     </g>
     <g id="text_31">
      <!-- 28 -->
      <g transform="translate(473.502527 324.033717)scale(0.28 -0.28)">
       <use xlink:href="#ArialMT-50"/>
       <use x="55.615234" xlink:href="#ArialMT-56"/>
      </g>
     </g>
    </g>
    <g id="ytick_10">
     <g id="line2d_39">
      <g>
       <use style="stroke:#000000;stroke-width:0.8;" x="508.143777" xlink:href="#m46acbab068" y="274.621475"/>
      </g>
     </g>
     <g id="text_32">
      <!-- 29 -->
      <g transform="translate(473.502527 284.642413)scale(0.28 -0.28)">
       <use xlink:href="#ArialMT-50"/>
       <use x="55.615234" xlink:href="#ArialMT-57"/>
      </g>
     </g>
    </g>
    <g id="text_33">
     <!-- $d \theta_{2} / dt $ -->
     <g transform="translate(463.937527 341.79125)rotate(-90)scale(0.28 -0.28)">
      <use transform="translate(0 0.703125)" xlink:href="#STIXGeneral-Italic-100"/>
      <use transform="translate(49.999985 0.703125)" xlink:href="#STIXGeneral-Italic-952"/>
      <use transform="translate(97.999969 -12.525)scale(0.7)" xlink:href="#STIXGeneral-Regular-50"/>
      <use transform="translate(137.409334 0.703125)" xlink:href="#STIXGeneral-Regular-47"/>
      <use transform="translate(165.209322 0.703125)" xlink:href="#STIXGeneral-Italic-100"/>
      <use transform="translate(215.209306 0.703125)" xlink:href="#STIXGeneral-Italic-116"/>
     </g>
    </g>
   </g>
   <g id="line2d_40">
    <path clip-path="url(#p46baad7918)" d="M 513.657611 295.245477 
L 517.460255 292.054806 
L 521.262899 289.741948 
L 525.065544 288.415735 
L 528.868188 288.135431 
L 532.670832 288.910618 
L 536.473476 290.676786 
L 540.27612 293.402199 
L 544.078764 296.949231 
L 547.881408 301.181979 
L 551.684052 305.87993 
L 555.486697 310.806384 
L 559.289341 315.729382 
L 563.091985 320.414009 
L 566.894629 324.622649 
L 570.697273 328.182431 
L 574.499917 330.942643 
L 578.302561 332.754275 
L 582.105206 333.548579 
L 585.90785 333.286924 
L 589.710494 331.983151 
L 593.513138 329.697407 
L 597.315782 326.535024 
L 601.118426 322.643942 
L 604.92107 318.187062 
L 608.723714 313.373828 
L 612.526359 308.447444 
L 616.329003 303.637264 
L 620.131647 299.166638 
L 623.934291 295.245477 
" style="fill:none;stroke:#ff7f0e;stroke-linecap:square;stroke-width:2;"/>
   </g>
   <g id="patch_24">
    <path d="M 508.143777 366.718207 
L 508.143777 248.544293 
" style="fill:none;stroke:#000000;stroke-linecap:square;stroke-linejoin:miter;stroke-width:0.8;"/>
   </g>
   <g id="patch_25">
    <path d="M 629.448125 366.718207 
L 629.448125 248.544293 
" style="fill:none;stroke:#000000;stroke-linecap:square;stroke-linejoin:miter;stroke-width:0.8;"/>
   </g>
   <g id="patch_26">
    <path d="M 508.143777 366.718207 
L 629.448125 366.718207 
" style="fill:none;stroke:#000000;stroke-linecap:square;stroke-linejoin:miter;stroke-width:0.8;"/>
   </g>
   <g id="patch_27">
    <path d="M 508.143777 248.544293 
L 629.448125 248.544293 
" style="fill:none;stroke:#000000;stroke-linecap:square;stroke-linejoin:miter;stroke-width:0.8;"/>
   </g>
   <g id="line2d_41">
    <path clip-path="url(#p46baad7918)" d="M 513.657611 293.306657 
L 517.460255 290.195155 
L 521.262899 287.966927 
L 525.065544 286.737565 
L 528.868188 286.563996 
L 532.670832 287.453218 
L 536.473476 289.364039 
L 540.27612 292.209712 
L 544.078764 295.85614 
L 547.881408 300.13723 
L 551.684052 304.863533 
L 555.486697 309.799162 
L 559.289341 314.669186 
L 563.091985 319.284937 
L 566.894629 323.440362 
L 570.697273 326.938702 
L 574.499917 329.616167 
L 578.302561 331.346063 
L 582.105206 332.048931 
L 585.90785 331.687753 
L 589.710494 330.279959 
L 593.513138 327.891174 
L 597.315782 324.632118 
L 601.118426 320.648353 
L 604.92107 316.136962 
L 608.723714 311.309744 
L 612.526359 306.380452 
L 616.329003 301.586556 
L 620.131647 297.155681 
L 623.934291 293.306657 
" style="fill:none;stroke:#2ca02c;stroke-linecap:square;stroke-width:2;"/>
   </g>
   <g id="line2d_42">
    <path clip-path="url(#p46baad7918)" d="M 513.657611 293.28222 
L 517.460255 290.181684 
L 521.262899 287.965857 
L 525.065544 286.770949 
L 528.868188 286.622554 
L 532.670832 287.523439 
L 536.473476 289.435292 
L 540.27612 292.263542 
L 544.078764 295.860211 
L 547.881408 300.066245 
L 551.684052 304.702669 
L 555.486697 309.558797 
L 559.289341 314.41817 
L 563.091985 319.015376 
L 566.894629 323.14132 
L 570.697273 326.608359 
L 574.499917 329.264499 
L 578.302561 330.977586 
L 582.105206 331.66466 
L 585.90785 331.294146 
L 589.710494 329.881881 
L 593.513138 327.5032 
L 597.315782 324.269109 
L 601.118426 320.328293 
L 604.92107 315.86259 
L 608.723714 311.081565 
L 612.526359 306.210552 
L 616.329003 301.476235 
L 620.131647 297.099296 
L 623.934291 293.28222 
" style="fill:none;stroke:#d62728;stroke-linecap:square;stroke-width:2;"/>
   </g>
  </g>
  <g id="axes_6">
   <g id="patch_28">
    <path d="M 71.448125 579.43125 
L 192.752473 579.43125 
L 192.752473 461.257337 
L 71.448125 461.257337 
z
" style="fill:#ffffff;"/>
   </g>
   <g id="line2d_43">
    <path clip-path="url(#p6cdd0c98c8)" d="M 76.961959 505.112989 
L 80.764603 502.094181 
L 84.567247 499.953287 
L 88.369891 498.790412 
L 92.172536 498.659932 
L 95.97518 499.567946 
L 99.777824 501.471998 
L 103.580468 504.283057 
L 107.383112 507.869679 
L 111.185756 512.064159 
L 114.9884 516.670367 
L 118.791044 521.472923 
L 122.593689 526.247264 
L 126.396333 530.770147 
L 130.198977 534.830088 
L 134.001621 538.237247 
L 137.804265 540.83231 
L 141.606909 542.493935 
L 145.409553 543.144426 
L 149.212198 542.753367 
L 153.014842 541.339043 
L 156.817486 538.967586 
L 160.62013 535.749883 
L 164.422774 531.836391 
L 168.225418 527.4101 
L 172.028062 522.677978 
L 175.830706 517.861294 
L 179.633351 513.185271 
L 183.435995 508.868554 
L 187.238639 505.112989 
" style="fill:none;stroke:#000000;stroke-linecap:square;stroke-width:4;"/>
   </g>
   <g id="line2d_44">
    <path clip-path="url(#p6cdd0c98c8)" d="M 76.961959 517.653986 
L 80.764603 517.735012 
L 84.567247 517.941078 
L 88.369891 518.312155 
L 92.172536 518.91715 
L 95.97518 519.467684 
L 99.777824 519.621586 
L 103.580468 520.303629 
L 107.383112 521.095337 
L 111.185756 521.56446 
L 114.9884 522.019273 
L 118.791044 522.462529 
L 122.593689 522.803332 
L 126.396333 523.016153 
L 130.198977 523.115697 
L 134.001621 523.110055 
L 137.804265 523.004477 
L 141.606909 522.811119 
L 145.409553 522.559022 
L 149.212198 522.265737 
L 153.014842 522.05706 
L 156.817486 521.577526 
L 160.62013 520.863855 
L 164.422774 519.981124 
L 168.225418 519.259738 
L 172.028062 518.637161 
L 175.830706 518.169017 
L 179.633351 517.876183 
L 183.435995 517.701788 
L 187.238639 517.653986 
" style="fill:none;stroke:#1f77b4;stroke-linecap:square;stroke-width:2;"/>
   </g>
   <g id="matplotlib.axis_9">
    <g id="xtick_13">
     <g id="line2d_45">
      <g>
       <use style="stroke:#000000;stroke-width:0.8;" x="76.961959" xlink:href="#m2760f4b936" y="579.43125"/>
      </g>
     </g>
     <g id="text_34">
      <!-- $0$ -->
      <g transform="translate(69.961959 602.973125)scale(0.28 -0.28)">
       <use transform="translate(0 0.40625)" xlink:href="#STIXGeneral-Regular-48"/>
      </g>
     </g>
    </g>
    <g id="xtick_14">
     <g id="line2d_46">
      <g>
       <use style="stroke:#000000;stroke-width:0.8;" x="132.100299" xlink:href="#m2760f4b936" y="579.43125"/>
      </g>
     </g>
     <g id="text_35">
      <!-- $\pi$ -->
      <g transform="translate(124.960299 602.973125)scale(0.28 -0.28)">
       <use transform="translate(0 0.203125)" xlink:href="#STIXGeneral-Italic-960"/>
      </g>
     </g>
    </g>
    <g id="xtick_15">
     <g id="line2d_47">
      <g>
       <use style="stroke:#000000;stroke-width:0.8;" x="187.238639" xlink:href="#m2760f4b936" y="579.43125"/>
      </g>
     </g>
     <g id="text_36">
      <!-- $2 \pi$ -->
      <g transform="translate(173.098639 602.973125)scale(0.28 -0.28)">
       <use transform="translate(0 0.40625)" xlink:href="#STIXGeneral-Regular-50"/>
       <use transform="translate(49.999985 0.40625)" xlink:href="#STIXGeneral-Italic-960"/>
      </g>
     </g>
    </g>
    <g id="text_37">
     <!-- $\theta_{1} - \theta_{3} $ -->
     <g transform="translate(93.880299 632.58)scale(0.28 -0.28)">
      <use transform="translate(0 0.203125)" xlink:href="#STIXGeneral-Italic-952"/>
      <use transform="translate(47.999985 -13.025)scale(0.7)" xlink:href="#STIXGeneral-Regular-49"/>
      <use transform="translate(101.849345 0.203125)" xlink:href="#STIXGeneral-Regular-8722"/>
      <use transform="translate(184.789326 0.203125)" xlink:href="#STIXGeneral-Italic-952"/>
      <use transform="translate(232.789311 -13.025)scale(0.7)" xlink:href="#STIXGeneral-Regular-51"/>
     </g>
    </g>
   </g>
   <g id="matplotlib.axis_10">
    <g id="ytick_11">
     <g id="line2d_48">
      <g>
       <use style="stroke:#000000;stroke-width:0.8;" x="71.448125" xlink:href="#m46acbab068" y="570.021415"/>
      </g>
     </g>
     <g id="text_38">
      <!-- 22 -->
      <g transform="translate(36.806875 580.042352)scale(0.28 -0.28)">
       <use xlink:href="#ArialMT-50"/>
       <use x="55.615234" xlink:href="#ArialMT-50"/>
      </g>
     </g>
    </g>
    <g id="ytick_12">
     <g id="line2d_49">
      <g>
       <use style="stroke:#000000;stroke-width:0.8;" x="71.448125" xlink:href="#m46acbab068" y="491.238806"/>
      </g>
     </g>
     <g id="text_39">
      <!-- 24 -->
      <defs>
       <path d="M 32.328125 0 
L 32.328125 17.140625 
L 1.265625 17.140625 
L 1.265625 25.203125 
L 33.9375 71.578125 
L 41.109375 71.578125 
L 41.109375 25.203125 
L 50.78125 25.203125 
L 50.78125 17.140625 
L 41.109375 17.140625 
L 41.109375 0 
z
M 32.328125 25.203125 
L 32.328125 57.46875 
L 9.90625 25.203125 
z
" id="ArialMT-52"/>
      </defs>
      <g transform="translate(36.806875 501.259743)scale(0.28 -0.28)">
       <use xlink:href="#ArialMT-50"/>
       <use x="55.615234" xlink:href="#ArialMT-52"/>
      </g>
     </g>
    </g>
    <g id="text_40">
     <!-- $d \theta_{3} / dt $ -->
     <g transform="translate(27.241875 554.504293)rotate(-90)scale(0.28 -0.28)">
      <use transform="translate(0 0.703125)" xlink:href="#STIXGeneral-Italic-100"/>
      <use transform="translate(49.999985 0.703125)" xlink:href="#STIXGeneral-Italic-952"/>
      <use transform="translate(97.999969 -12.525)scale(0.7)" xlink:href="#STIXGeneral-Regular-51"/>
      <use transform="translate(137.409334 0.703125)" xlink:href="#STIXGeneral-Regular-47"/>
      <use transform="translate(165.209322 0.703125)" xlink:href="#STIXGeneral-Italic-100"/>
      <use transform="translate(215.209306 0.703125)" xlink:href="#STIXGeneral-Italic-116"/>
     </g>
    </g>
   </g>
   <g id="line2d_50">
    <path clip-path="url(#p6cdd0c98c8)" d="M 76.961959 516.325843 
L 80.764603 516.200904 
L 84.567247 516.270697 
L 88.369891 516.523086 
L 92.172536 516.945048 
L 95.97518 517.511909 
L 99.777824 518.193037 
L 103.580468 518.578642 
L 107.383112 519.264089 
L 111.185756 520.426888 
L 114.9884 521.547348 
L 118.791044 523.047296 
L 122.593689 523.972793 
L 126.396333 524.661554 
L 130.198977 525.1395 
L 134.001621 525.393318 
L 137.804265 525.417118 
L 141.606909 525.21605 
L 145.409553 524.812356 
L 149.212198 524.221979 
L 153.014842 523.433077 
L 156.817486 522.727867 
L 160.62013 521.920693 
L 164.422774 521.064915 
L 168.225418 519.711492 
L 172.028062 518.647719 
L 175.830706 517.881119 
L 179.633351 517.190003 
L 183.435995 516.660763 
L 187.238639 516.325843 
" style="fill:none;stroke:#ff7f0e;stroke-linecap:square;stroke-width:2;"/>
   </g>
   <g id="patch_29">
    <path d="M 71.448125 579.43125 
L 71.448125 461.257337 
" style="fill:none;stroke:#000000;stroke-linecap:square;stroke-linejoin:miter;stroke-width:0.8;"/>
   </g>
   <g id="patch_30">
    <path d="M 192.752473 579.43125 
L 192.752473 461.257337 
" style="fill:none;stroke:#000000;stroke-linecap:square;stroke-linejoin:miter;stroke-width:0.8;"/>
   </g>
   <g id="patch_31">
    <path d="M 71.448125 579.43125 
L 192.752473 579.43125 
" style="fill:none;stroke:#000000;stroke-linecap:square;stroke-linejoin:miter;stroke-width:0.8;"/>
   </g>
   <g id="patch_32">
    <path d="M 71.448125 461.257337 
L 192.752473 461.257337 
" style="fill:none;stroke:#000000;stroke-linecap:square;stroke-linejoin:miter;stroke-width:0.8;"/>
   </g>
   <g id="line2d_51">
    <path clip-path="url(#p6cdd0c98c8)" d="M 76.961959 514.318901 
L 80.764603 513.927045 
L 84.567247 513.824863 
L 88.369891 513.989634 
L 92.172536 514.442613 
L 95.97518 515.206439 
L 99.777824 516.180279 
L 103.580468 517.312202 
L 107.383112 518.094156 
L 111.185756 518.778648 
L 114.9884 520.084784 
L 118.791044 521.853671 
L 122.593689 523.762434 
L 126.396333 524.801567 
L 130.198977 525.616256 
L 134.001621 526.175505 
L 137.804265 526.453163 
L 141.606909 526.436249 
L 145.409553 526.125552 
L 149.212198 525.535601 
L 153.014842 524.693982 
L 156.817486 523.640046 
L 160.62013 522.978389 
L 164.422774 522.183874 
L 168.225418 521.144392 
L 172.028062 519.350277 
L 175.830706 517.380506 
L 179.633351 515.922352 
L 183.435995 514.991778 
L 187.238639 514.318901 
" style="fill:none;stroke:#2ca02c;stroke-linecap:square;stroke-width:2;"/>
   </g>
   <g id="line2d_52">
    <path clip-path="url(#p6cdd0c98c8)" d="M 76.961959 513.088849 
L 80.764603 512.441237 
L 84.567247 512.144315 
L 88.369891 512.211966 
L 92.172536 512.641026 
L 95.97518 513.411434 
L 99.777824 514.487166 
L 103.580468 515.817922 
L 107.383112 517.286677 
L 111.185756 518.282749 
L 114.9884 520.207419 
L 118.791044 521.821458 
L 122.593689 523.608097 
L 126.396333 525.27742 
L 130.198977 526.347066 
L 134.001621 527.159644 
L 137.804265 527.634696 
L 141.606909 527.750008 
L 145.409553 527.484363 
L 149.212198 526.872342 
L 153.014842 525.949404 
L 156.817486 524.761016 
L 160.62013 523.499528 
L 164.422774 522.619352 
L 168.225418 520.956361 
L 172.028062 519.294906 
L 175.830706 517.428905 
L 179.633351 515.654331 
L 183.435995 514.098479 
L 187.238639 513.088849 
" style="fill:none;stroke:#d62728;stroke-linecap:square;stroke-width:2;"/>
   </g>
  </g>
  <g id="axes_7">
   <g id="patch_33">
    <path d="M 289.795951 579.43125 
L 411.100299 579.43125 
L 411.100299 461.257337 
L 289.795951 461.257337 
z
" style="fill:#ffffff;"/>
   </g>
   <g id="line2d_53">
    <path clip-path="url(#ped86521b1e)" d="M 295.309785 505.112989 
L 299.112429 502.094181 
L 302.915073 499.953287 
L 306.717717 498.790412 
L 310.520362 498.659932 
L 314.323006 499.567946 
L 318.12565 501.471998 
L 321.928294 504.283057 
L 325.730938 507.869679 
L 329.533582 512.064159 
L 333.336226 516.670367 
L 337.138871 521.472923 
L 340.941515 526.247264 
L 344.744159 530.770147 
L 348.546803 534.830088 
L 352.349447 538.237247 
L 356.152091 540.83231 
L 359.954735 542.493935 
L 363.757379 543.144426 
L 367.560024 542.753367 
L 371.362668 541.339043 
L 375.165312 538.967586 
L 378.967956 535.749883 
L 382.7706 531.836391 
L 386.573244 527.4101 
L 390.375888 522.677978 
L 394.178533 517.861294 
L 397.981177 513.185271 
L 401.783821 508.868554 
L 405.586465 505.112989 
" style="fill:none;stroke:#000000;stroke-linecap:square;stroke-width:4;"/>
   </g>
   <g id="line2d_54">
    <path clip-path="url(#ped86521b1e)" d="M 295.309785 520.779943 
L 299.112429 520.060276 
L 302.915073 520.123956 
L 306.717717 519.636557 
L 310.520362 519.16779 
L 314.323006 518.793567 
L 318.12565 518.595319 
L 321.928294 518.503468 
L 325.730938 518.500725 
L 329.533582 518.587217 
L 333.336226 518.758901 
L 337.138871 519.048316 
L 340.941515 519.56278 
L 344.744159 520.118123 
L 348.546803 520.767496 
L 352.349447 521.14597 
L 356.152091 521.371251 
L 359.954735 521.599332 
L 363.757379 521.806022 
L 367.560024 521.982056 
L 371.362668 522.144823 
L 375.165312 522.279873 
L 378.967956 522.30927 
L 382.7706 522.254378 
L 386.573244 522.128951 
L 390.375888 521.942554 
L 394.178533 521.713895 
L 397.981177 521.463362 
L 401.783821 521.215126 
L 405.586465 520.779943 
" style="fill:none;stroke:#1f77b4;stroke-linecap:square;stroke-width:2;"/>
   </g>
   <g id="matplotlib.axis_11">
    <g id="xtick_16">
     <g id="line2d_55">
      <g>
       <use style="stroke:#000000;stroke-width:0.8;" x="295.309785" xlink:href="#m2760f4b936" y="579.43125"/>
      </g>
     </g>
     <g id="text_41">
      <!-- $0$ -->
      <g transform="translate(288.309785 602.973125)scale(0.28 -0.28)">
       <use transform="translate(0 0.40625)" xlink:href="#STIXGeneral-Regular-48"/>
      </g>
     </g>
    </g>
    <g id="xtick_17">
     <g id="line2d_56">
      <g>
       <use style="stroke:#000000;stroke-width:0.8;" x="350.448125" xlink:href="#m2760f4b936" y="579.43125"/>
      </g>
     </g>
     <g id="text_42">
      <!-- $\pi$ -->
      <g transform="translate(343.308125 602.973125)scale(0.28 -0.28)">
       <use transform="translate(0 0.203125)" xlink:href="#STIXGeneral-Italic-960"/>
      </g>
     </g>
    </g>
    <g id="xtick_18">
     <g id="line2d_57">
      <g>
       <use style="stroke:#000000;stroke-width:0.8;" x="405.586465" xlink:href="#m2760f4b936" y="579.43125"/>
      </g>
     </g>
     <g id="text_43">
      <!-- $2 \pi$ -->
      <g transform="translate(391.446465 602.973125)scale(0.28 -0.28)">
       <use transform="translate(0 0.40625)" xlink:href="#STIXGeneral-Regular-50"/>
       <use transform="translate(49.999985 0.40625)" xlink:href="#STIXGeneral-Italic-960"/>
      </g>
     </g>
    </g>
    <g id="text_44">
     <!-- $\theta_{2} - \theta_{3} $ -->
     <g transform="translate(312.228125 632.58)scale(0.28 -0.28)">
      <use transform="translate(0 0.203125)" xlink:href="#STIXGeneral-Italic-952"/>
      <use transform="translate(47.999985 -13.025)scale(0.7)" xlink:href="#STIXGeneral-Regular-50"/>
      <use transform="translate(101.849345 0.203125)" xlink:href="#STIXGeneral-Regular-8722"/>
      <use transform="translate(184.789326 0.203125)" xlink:href="#STIXGeneral-Italic-952"/>
      <use transform="translate(232.789311 -13.025)scale(0.7)" xlink:href="#STIXGeneral-Regular-51"/>
     </g>
    </g>
   </g>
   <g id="matplotlib.axis_12">
    <g id="ytick_13">
     <g id="line2d_58">
      <g>
       <use style="stroke:#000000;stroke-width:0.8;" x="289.795951" xlink:href="#m46acbab068" y="570.021415"/>
      </g>
     </g>
     <g id="text_45">
      <!-- 22 -->
      <g transform="translate(255.154701 580.042352)scale(0.28 -0.28)">
       <use xlink:href="#ArialMT-50"/>
       <use x="55.615234" xlink:href="#ArialMT-50"/>
      </g>
     </g>
    </g>
    <g id="ytick_14">
     <g id="line2d_59">
      <g>
       <use style="stroke:#000000;stroke-width:0.8;" x="289.795951" xlink:href="#m46acbab068" y="491.238806"/>
      </g>
     </g>
     <g id="text_46">
      <!-- 24 -->
      <g transform="translate(255.154701 501.259743)scale(0.28 -0.28)">
       <use xlink:href="#ArialMT-50"/>
       <use x="55.615234" xlink:href="#ArialMT-52"/>
      </g>
     </g>
    </g>
    <g id="text_47">
     <!-- $d \theta_{3} / dt $ -->
     <g transform="translate(245.589701 554.504293)rotate(-90)scale(0.28 -0.28)">
      <use transform="translate(0 0.703125)" xlink:href="#STIXGeneral-Italic-100"/>
      <use transform="translate(49.999985 0.703125)" xlink:href="#STIXGeneral-Italic-952"/>
      <use transform="translate(97.999969 -12.525)scale(0.7)" xlink:href="#STIXGeneral-Regular-51"/>
      <use transform="translate(137.409334 0.703125)" xlink:href="#STIXGeneral-Regular-47"/>
      <use transform="translate(165.209322 0.703125)" xlink:href="#STIXGeneral-Italic-100"/>
      <use transform="translate(215.209306 0.703125)" xlink:href="#STIXGeneral-Italic-116"/>
     </g>
    </g>
   </g>
   <g id="line2d_60">
    <path clip-path="url(#ped86521b1e)" d="M 295.309785 518.630619 
L 299.112429 518.410838 
L 302.915073 517.874395 
L 306.717717 517.470503 
L 310.520362 517.221654 
L 314.323006 517.051301 
L 318.12565 517.057008 
L 321.928294 517.237181 
L 325.730938 517.562987 
L 329.533582 518.02023 
L 333.336226 518.58599 
L 337.138871 519.228955 
L 340.941515 519.999618 
L 344.744159 521.065407 
L 348.546803 521.90364 
L 352.349447 522.693731 
L 356.152091 522.987337 
L 359.954735 523.667581 
L 363.757379 524.172258 
L 367.560024 524.48323 
L 371.362668 524.594113 
L 375.165312 524.509511 
L 378.967956 524.241547 
L 382.7706 523.813477 
L 386.573244 523.246539 
L 390.375888 522.541589 
L 394.178533 521.516982 
L 397.981177 520.227433 
L 401.783821 519.313424 
L 405.586465 518.630619 
" style="fill:none;stroke:#ff7f0e;stroke-linecap:square;stroke-width:2;"/>
   </g>
   <g id="patch_34">
    <path d="M 289.795951 579.43125 
L 289.795951 461.257337 
" style="fill:none;stroke:#000000;stroke-linecap:square;stroke-linejoin:miter;stroke-width:0.8;"/>
   </g>
   <g id="patch_35">
    <path d="M 411.100299 579.43125 
L 411.100299 461.257337 
" style="fill:none;stroke:#000000;stroke-linecap:square;stroke-linejoin:miter;stroke-width:0.8;"/>
   </g>
   <g id="patch_36">
    <path d="M 289.795951 579.43125 
L 411.100299 579.43125 
" style="fill:none;stroke:#000000;stroke-linecap:square;stroke-linejoin:miter;stroke-width:0.8;"/>
   </g>
   <g id="patch_37">
    <path d="M 289.795951 461.257337 
L 411.100299 461.257337 
" style="fill:none;stroke:#000000;stroke-linecap:square;stroke-linejoin:miter;stroke-width:0.8;"/>
   </g>
   <g id="line2d_61">
    <path clip-path="url(#ped86521b1e)" d="M 295.309785 517.429509 
L 299.112429 516.336465 
L 302.915073 515.416285 
L 306.717717 514.739822 
L 310.520362 514.326872 
L 314.323006 514.193381 
L 318.12565 514.329129 
L 321.928294 514.709473 
L 325.730938 515.351991 
L 329.533582 516.275314 
L 333.336226 517.328917 
L 337.138871 519.239003 
L 340.941515 521.060897 
L 344.744159 522.500812 
L 348.546803 523.162801 
L 352.349447 523.717337 
L 356.152091 524.365211 
L 359.954735 525.162814 
L 363.757379 525.729444 
L 367.560024 526.035343 
L 371.362668 526.066204 
L 375.165312 525.820587 
L 378.967956 525.309975 
L 382.7706 524.558244 
L 386.573244 523.600545 
L 390.375888 521.979575 
L 394.178533 520.197646 
L 397.981177 518.652838 
L 401.783821 517.921348 
L 405.586465 517.429509 
" style="fill:none;stroke:#2ca02c;stroke-linecap:square;stroke-width:2;"/>
   </g>
   <g id="line2d_62">
    <path clip-path="url(#ped86521b1e)" d="M 295.309785 516.186793 
L 299.112429 514.830311 
L 302.915073 513.712807 
L 306.717717 512.886536 
L 310.520362 512.390132 
L 314.323006 512.246808 
L 318.12565 512.463264 
L 321.928294 513.029379 
L 325.730938 513.961674 
L 329.533582 515.322866 
L 333.336226 517.077512 
L 337.138871 518.933202 
L 340.941515 520.646536 
L 344.744159 522.366838 
L 348.546803 523.410557 
L 352.349447 524.405633 
L 356.152091 525.644245 
L 359.954735 526.621863 
L 363.757379 527.284867 
L 367.560024 527.590875 
L 371.362668 527.545525 
L 375.165312 527.158622 
L 378.967956 526.445292 
L 382.7706 525.447382 
L 386.573244 523.963136 
L 390.375888 522.211055 
L 394.178533 520.421208 
L 397.981177 518.7613 
L 401.783821 517.455412 
L 405.586465 516.186793 
" style="fill:none;stroke:#d62728;stroke-linecap:square;stroke-width:2;"/>
   </g>
   <g id="legend_1">
    <g id="patch_38">
     <path d="M 475.752473 611.547962 
L 681.952473 611.547962 
Q 685.952473 611.547962 685.952473 607.547962 
L 685.952473 465.257337 
Q 685.952473 461.257337 681.952473 461.257337 
L 475.752473 461.257337 
Q 471.752473 461.257337 471.752473 465.257337 
L 471.752473 607.547962 
Q 471.752473 611.547962 475.752473 611.547962 
z
" style="fill:#ffffff;opacity:0.8;stroke:#cccccc;stroke-linejoin:miter;"/>
    </g>
    <g id="line2d_63">
     <path d="M 479.752473 476.572962 
L 519.752473 476.572962 
" style="fill:none;stroke:#000000;stroke-linecap:square;stroke-width:4;"/>
    </g>
    <g id="line2d_64"/>
    <g id="text_48">
     <!-- true -->
     <defs>
      <path d="M 25.78125 7.859375 
L 27.046875 0.09375 
Q 23.34375 -0.6875 20.40625 -0.6875 
Q 15.625 -0.6875 12.984375 0.828125 
Q 10.359375 2.34375 9.28125 4.8125 
Q 8.203125 7.28125 8.203125 15.1875 
L 8.203125 45.015625 
L 1.765625 45.015625 
L 1.765625 51.859375 
L 8.203125 51.859375 
L 8.203125 64.703125 
L 16.9375 69.96875 
L 16.9375 51.859375 
L 25.78125 51.859375 
L 25.78125 45.015625 
L 16.9375 45.015625 
L 16.9375 14.703125 
Q 16.9375 10.9375 17.40625 9.859375 
Q 17.875 8.796875 18.921875 8.15625 
Q 19.96875 7.515625 21.921875 7.515625 
Q 23.390625 7.515625 25.78125 7.859375 
z
" id="ArialMT-116"/>
      <path d="M 6.5 0 
L 6.5 51.859375 
L 14.40625 51.859375 
L 14.40625 44 
Q 17.4375 49.515625 20 51.265625 
Q 22.5625 53.03125 25.640625 53.03125 
Q 30.078125 53.03125 34.671875 50.203125 
L 31.640625 42.046875 
Q 28.421875 43.953125 25.203125 43.953125 
Q 22.3125 43.953125 20.015625 42.21875 
Q 17.71875 40.484375 16.75 37.40625 
Q 15.28125 32.71875 15.28125 27.15625 
L 15.28125 0 
z
" id="ArialMT-114"/>
      <path d="M 40.578125 0 
L 40.578125 7.625 
Q 34.515625 -1.171875 24.125 -1.171875 
Q 19.53125 -1.171875 15.546875 0.578125 
Q 11.578125 2.34375 9.640625 5 
Q 7.71875 7.671875 6.9375 11.53125 
Q 6.390625 14.109375 6.390625 19.734375 
L 6.390625 51.859375 
L 15.1875 51.859375 
L 15.1875 23.09375 
Q 15.1875 16.21875 15.71875 13.8125 
Q 16.546875 10.359375 19.234375 8.375 
Q 21.921875 6.390625 25.875 6.390625 
Q 29.828125 6.390625 33.296875 8.421875 
Q 36.765625 10.453125 38.203125 13.9375 
Q 39.65625 17.4375 39.65625 24.078125 
L 39.65625 51.859375 
L 48.4375 51.859375 
L 48.4375 0 
z
" id="ArialMT-117"/>
      <path d="M 42.09375 16.703125 
L 51.171875 15.578125 
Q 49.03125 7.625 43.21875 3.21875 
Q 37.40625 -1.171875 28.375 -1.171875 
Q 17 -1.171875 10.328125 5.828125 
Q 3.65625 12.84375 3.65625 25.484375 
Q 3.65625 38.578125 10.390625 45.796875 
Q 17.140625 53.03125 27.875 53.03125 
Q 38.28125 53.03125 44.875 45.953125 
Q 51.46875 38.875 51.46875 26.03125 
Q 51.46875 25.25 51.421875 23.6875 
L 12.75 23.6875 
Q 13.234375 15.140625 17.578125 10.59375 
Q 21.921875 6.0625 28.421875 6.0625 
Q 33.25 6.0625 36.671875 8.59375 
Q 40.09375 11.140625 42.09375 16.703125 
z
M 13.234375 30.90625 
L 42.1875 30.90625 
Q 41.609375 37.453125 38.875 40.71875 
Q 34.671875 45.796875 27.984375 45.796875 
Q 21.921875 45.796875 17.796875 41.75 
Q 13.671875 37.703125 13.234375 30.90625 
z
" id="ArialMT-101"/>
     </defs>
     <g transform="translate(535.752473 483.572962)scale(0.2 -0.2)">
      <use xlink:href="#ArialMT-116"/>
      <use x="27.783203" xlink:href="#ArialMT-114"/>
      <use x="61.083984" xlink:href="#ArialMT-117"/>
      <use x="116.699219" xlink:href="#ArialMT-101"/>
     </g>
    </g>
    <g id="line2d_65">
     <path d="M 479.752473 505.147962 
L 519.752473 505.147962 
" style="fill:none;stroke:#1f77b4;stroke-linecap:square;stroke-width:2;"/>
    </g>
    <g id="line2d_66"/>
    <g id="text_49">
     <!-- pred. ($N_t = 1500$) -->
     <defs>
      <path d="M 6.59375 -19.875 
L 6.59375 51.859375 
L 14.59375 51.859375 
L 14.59375 45.125 
Q 17.4375 49.078125 21 51.046875 
Q 24.5625 53.03125 29.640625 53.03125 
Q 36.28125 53.03125 41.359375 49.609375 
Q 46.4375 46.1875 49.015625 39.953125 
Q 51.609375 33.734375 51.609375 26.3125 
Q 51.609375 18.359375 48.75 11.984375 
Q 45.90625 5.609375 40.453125 2.21875 
Q 35.015625 -1.171875 29 -1.171875 
Q 24.609375 -1.171875 21.109375 0.6875 
Q 17.625 2.546875 15.375 5.375 
L 15.375 -19.875 
z
M 14.546875 25.640625 
Q 14.546875 15.625 18.59375 10.84375 
Q 22.65625 6.0625 28.421875 6.0625 
Q 34.28125 6.0625 38.453125 11.015625 
Q 42.625 15.96875 42.625 26.375 
Q 42.625 36.28125 38.546875 41.203125 
Q 34.46875 46.140625 28.8125 46.140625 
Q 23.1875 46.140625 18.859375 40.890625 
Q 14.546875 35.640625 14.546875 25.640625 
z
" id="ArialMT-112"/>
      <path d="M 40.234375 0 
L 40.234375 6.546875 
Q 35.296875 -1.171875 25.734375 -1.171875 
Q 19.53125 -1.171875 14.328125 2.25 
Q 9.125 5.671875 6.265625 11.796875 
Q 3.421875 17.921875 3.421875 25.875 
Q 3.421875 33.640625 6 39.96875 
Q 8.59375 46.296875 13.765625 49.65625 
Q 18.953125 53.03125 25.34375 53.03125 
Q 30.03125 53.03125 33.6875 51.046875 
Q 37.359375 49.078125 39.65625 45.90625 
L 39.65625 71.578125 
L 48.390625 71.578125 
L 48.390625 0 
z
M 12.453125 25.875 
Q 12.453125 15.921875 16.640625 10.984375 
Q 20.84375 6.0625 26.5625 6.0625 
Q 32.328125 6.0625 36.34375 10.765625 
Q 40.375 15.484375 40.375 25.140625 
Q 40.375 35.796875 36.265625 40.765625 
Q 32.171875 45.75 26.171875 45.75 
Q 20.3125 45.75 16.375 40.96875 
Q 12.453125 36.1875 12.453125 25.875 
z
" id="ArialMT-100"/>
      <path d="M 9.078125 0 
L 9.078125 10.015625 
L 19.09375 10.015625 
L 19.09375 0 
z
" id="ArialMT-46"/>
      <path id="ArialMT-32"/>
      <path d="M 23.390625 -21.046875 
Q 16.109375 -11.859375 11.078125 0.4375 
Q 6.0625 12.75 6.0625 25.921875 
Q 6.0625 37.546875 9.8125 48.1875 
Q 14.203125 60.546875 23.390625 72.796875 
L 29.6875 72.796875 
Q 23.78125 62.640625 21.875 58.296875 
Q 18.890625 51.5625 17.1875 44.234375 
Q 15.09375 35.109375 15.09375 25.875 
Q 15.09375 2.390625 29.6875 -21.046875 
z
" id="ArialMT-40"/>
      <path d="M 72.703125 65.296875 
L 72.703125 63.703125 
Q 70 63.09375 68.953125 62.75 
Q 67.90625 62.40625 66.65625 60.65625 
Q 65.40625 58.90625 64.75 56.796875 
Q 64.09375 54.703125 62.5 49.203125 
L 47.90625 -1.5 
L 46.09375 -1.5 
L 23.09375 53.5 
L 11.703125 11.296875 
Q 10.796875 8.203125 10.796875 5.90625 
Q 10.796875 3.796875 12.34375 2.84375 
Q 13.90625 1.90625 17.796875 1.59375 
L 17.796875 0 
L -2 0 
L -2 1.59375 
Q 2.296875 2.203125 4.09375 4.75 
Q 5.90625 7.296875 8.59375 16.796875 
L 20.296875 58.296875 
Q 18 63.703125 11.703125 63.703125 
L 11.703125 65.296875 
L 27.703125 65.296875 
L 48.40625 15.40625 
L 59 54.203125 
Q 59.796875 57 59.796875 58.59375 
Q 59.796875 61.296875 58.4375 62.296875 
Q 57.09375 63.296875 52.90625 63.703125 
L 52.90625 65.296875 
z
" id="STIXGeneral-Italic-78"/>
      <path d="M 63.703125 32 
L 4.796875 32 
L 4.796875 38.59375 
L 63.703125 38.59375 
z
M 63.703125 12 
L 4.796875 12 
L 4.796875 18.59375 
L 63.703125 18.59375 
z
" id="STIXGeneral-Regular-61"/>
      <path d="M 43.796875 68.09375 
L 40.203125 59.59375 
Q 39.59375 58.296875 37.5 58.296875 
L 18.09375 58.296875 
L 14.09375 49.796875 
Q 25.09375 47.703125 30 45.25 
Q 34.90625 42.796875 39.09375 37 
Q 42.59375 32.203125 42.59375 24.296875 
Q 42.59375 17.09375 40.25 12.1875 
Q 37.90625 7.296875 32.796875 3.5 
Q 26 -1.40625 15.796875 -1.40625 
Q 10.09375 -1.40625 6.59375 0.296875 
Q 3.09375 2 3.09375 4.796875 
Q 3.09375 8.59375 7.59375 8.59375 
Q 11.203125 8.59375 15 5.5 
Q 18.90625 2.296875 22.09375 2.296875 
Q 27.296875 2.296875 31.4375 7.5 
Q 35.59375 12.703125 35.59375 19.203125 
Q 35.59375 28.796875 28.90625 34.203125 
Q 20.203125 41.203125 7.59375 41.203125 
Q 6.40625 41.203125 6.40625 42 
L 6.5 42.5 
L 17.40625 66.203125 
L 38.09375 66.203125 
Q 39.796875 66.203125 40.75 66.703125 
Q 41.703125 67.203125 42.90625 68.796875 
z
" id="STIXGeneral-Regular-53"/>
      <path d="M 12.359375 -21.046875 
L 6.0625 -21.046875 
Q 20.65625 2.390625 20.65625 25.875 
Q 20.65625 35.0625 18.5625 44.09375 
Q 16.890625 51.421875 13.921875 58.15625 
Q 12.015625 62.546875 6.0625 72.796875 
L 12.359375 72.796875 
Q 21.53125 60.546875 25.921875 48.1875 
Q 29.6875 37.546875 29.6875 25.921875 
Q 29.6875 12.75 24.625 0.4375 
Q 19.578125 -11.859375 12.359375 -21.046875 
z
" id="ArialMT-41"/>
     </defs>
     <g transform="translate(535.752473 512.147962)scale(0.2 -0.2)">
      <use transform="translate(0 0.203125)" xlink:href="#ArialMT-112"/>
      <use transform="translate(55.615234 0.203125)" xlink:href="#ArialMT-114"/>
      <use transform="translate(88.916016 0.203125)" xlink:href="#ArialMT-101"/>
      <use transform="translate(144.53125 0.203125)" xlink:href="#ArialMT-100"/>
      <use transform="translate(200.146484 0.203125)" xlink:href="#ArialMT-46"/>
      <use transform="translate(227.929688 0.203125)" xlink:href="#ArialMT-32"/>
      <use transform="translate(255.712891 0.203125)" xlink:href="#ArialMT-40"/>
      <use transform="translate(289.013672 0.203125)" xlink:href="#STIXGeneral-Italic-78"/>
      <use transform="translate(355.713669 -13.025)scale(0.7)" xlink:href="#STIXGeneral-Italic-116"/>
      <use transform="translate(394.023032 0.203125)" xlink:href="#STIXGeneral-Regular-61"/>
      <use transform="translate(476.963013 0.203125)" xlink:href="#STIXGeneral-Regular-49"/>
      <use transform="translate(526.962997 0.203125)" xlink:href="#STIXGeneral-Regular-53"/>
      <use transform="translate(576.962982 0.203125)" xlink:href="#STIXGeneral-Regular-48"/>
      <use transform="translate(626.962967 0.203125)" xlink:href="#STIXGeneral-Regular-48"/>
      <use transform="translate(676.962952 0.203125)" xlink:href="#ArialMT-41"/>
     </g>
    </g>
    <g id="line2d_67">
     <path d="M 479.752473 534.147962 
L 519.752473 534.147962 
" style="fill:none;stroke:#ff7f0e;stroke-linecap:square;stroke-width:2;"/>
    </g>
    <g id="line2d_68"/>
    <g id="text_50">
     <!-- pred. ($N_t = 3000$) -->
     <g transform="translate(535.752473 541.147962)scale(0.2 -0.2)">
      <use transform="translate(0 0.203125)" xlink:href="#ArialMT-112"/>
      <use transform="translate(55.615234 0.203125)" xlink:href="#ArialMT-114"/>
      <use transform="translate(88.916016 0.203125)" xlink:href="#ArialMT-101"/>
      <use transform="translate(144.53125 0.203125)" xlink:href="#ArialMT-100"/>
      <use transform="translate(200.146484 0.203125)" xlink:href="#ArialMT-46"/>
      <use transform="translate(227.929688 0.203125)" xlink:href="#ArialMT-32"/>
      <use transform="translate(255.712891 0.203125)" xlink:href="#ArialMT-40"/>
      <use transform="translate(289.013672 0.203125)" xlink:href="#STIXGeneral-Italic-78"/>
      <use transform="translate(355.713669 -13.025)scale(0.7)" xlink:href="#STIXGeneral-Italic-116"/>
      <use transform="translate(394.023032 0.203125)" xlink:href="#STIXGeneral-Regular-61"/>
      <use transform="translate(476.963013 0.203125)" xlink:href="#STIXGeneral-Regular-51"/>
      <use transform="translate(526.962997 0.203125)" xlink:href="#STIXGeneral-Regular-48"/>
      <use transform="translate(576.962982 0.203125)" xlink:href="#STIXGeneral-Regular-48"/>
      <use transform="translate(626.962967 0.203125)" xlink:href="#STIXGeneral-Regular-48"/>
      <use transform="translate(676.962952 0.203125)" xlink:href="#ArialMT-41"/>
     </g>
    </g>
    <g id="line2d_69">
     <path d="M 479.752473 563.147962 
L 519.752473 563.147962 
" style="fill:none;stroke:#2ca02c;stroke-linecap:square;stroke-width:2;"/>
    </g>
    <g id="line2d_70"/>
    <g id="text_51">
     <!-- pred. ($N_t = 4500$) -->
     <defs>
      <path d="M 47.296875 16.703125 
L 37 16.703125 
L 37 0 
L 29.203125 0 
L 29.203125 16.703125 
L 1.203125 16.703125 
L 1.203125 23.09375 
L 32.59375 67.59375 
L 37 67.59375 
L 37 23.09375 
L 47.296875 23.09375 
z
M 29.203125 23.09375 
L 29.203125 57.40625 
L 5.203125 23.09375 
z
" id="STIXGeneral-Regular-52"/>
     </defs>
     <g transform="translate(535.752473 570.147962)scale(0.2 -0.2)">
      <use transform="translate(0 0.203125)" xlink:href="#ArialMT-112"/>
      <use transform="translate(55.615234 0.203125)" xlink:href="#ArialMT-114"/>
      <use transform="translate(88.916016 0.203125)" xlink:href="#ArialMT-101"/>
      <use transform="translate(144.53125 0.203125)" xlink:href="#ArialMT-100"/>
      <use transform="translate(200.146484 0.203125)" xlink:href="#ArialMT-46"/>
      <use transform="translate(227.929688 0.203125)" xlink:href="#ArialMT-32"/>
      <use transform="translate(255.712891 0.203125)" xlink:href="#ArialMT-40"/>
      <use transform="translate(289.013672 0.203125)" xlink:href="#STIXGeneral-Italic-78"/>
      <use transform="translate(355.713669 -13.025)scale(0.7)" xlink:href="#STIXGeneral-Italic-116"/>
      <use transform="translate(394.023032 0.203125)" xlink:href="#STIXGeneral-Regular-61"/>
      <use transform="translate(476.963013 0.203125)" xlink:href="#STIXGeneral-Regular-52"/>
      <use transform="translate(526.962997 0.203125)" xlink:href="#STIXGeneral-Regular-53"/>
      <use transform="translate(576.962982 0.203125)" xlink:href="#STIXGeneral-Regular-48"/>
      <use transform="translate(626.962967 0.203125)" xlink:href="#STIXGeneral-Regular-48"/>
      <use transform="translate(676.962952 0.203125)" xlink:href="#ArialMT-41"/>
     </g>
    </g>
    <g id="line2d_71">
     <path d="M 479.752473 592.147962 
L 519.752473 592.147962 
" style="fill:none;stroke:#d62728;stroke-linecap:square;stroke-width:2;"/>
    </g>
    <g id="line2d_72"/>
    <g id="text_52">
     <!-- pred. ($N_t = 6000$) -->
     <defs>
      <path d="M 44.59375 68.40625 
L 44.796875 66.796875 
Q 33 64.90625 25.09375 57.25 
Q 17.203125 49.59375 15.203125 38.296875 
Q 21 42.796875 27.90625 42.796875 
Q 36.703125 42.796875 41.75 37.1875 
Q 46.796875 31.59375 46.796875 21.90625 
Q 46.796875 12.09375 41.703125 5.90625 
Q 35.796875 -1.40625 25.796875 -1.40625 
Q 13.59375 -1.40625 8.09375 8.703125 
Q 3.40625 17.296875 3.40625 27.90625 
Q 3.40625 44.296875 14.296875 55.5 
Q 20.5 61.90625 27.046875 64.546875 
Q 33.59375 67.203125 44.59375 68.40625 
z
M 37.796875 18.796875 
Q 37.796875 38.203125 24.296875 38.203125 
Q 19.296875 38.203125 16 35.546875 
Q 12.703125 32.90625 12.703125 26.59375 
Q 12.703125 14.90625 16.34375 8.15625 
Q 20 1.40625 26.90625 1.40625 
Q 32.203125 1.40625 35 6.15625 
Q 37.796875 10.90625 37.796875 18.796875 
z
" id="STIXGeneral-Regular-54"/>
     </defs>
     <g transform="translate(535.752473 599.147962)scale(0.2 -0.2)">
      <use transform="translate(0 0.203125)" xlink:href="#ArialMT-112"/>
      <use transform="translate(55.615234 0.203125)" xlink:href="#ArialMT-114"/>
      <use transform="translate(88.916016 0.203125)" xlink:href="#ArialMT-101"/>
      <use transform="translate(144.53125 0.203125)" xlink:href="#ArialMT-100"/>
      <use transform="translate(200.146484 0.203125)" xlink:href="#ArialMT-46"/>
      <use transform="translate(227.929688 0.203125)" xlink:href="#ArialMT-32"/>
      <use transform="translate(255.712891 0.203125)" xlink:href="#ArialMT-40"/>
      <use transform="translate(289.013672 0.203125)" xlink:href="#STIXGeneral-Italic-78"/>
      <use transform="translate(355.713669 -13.025)scale(0.7)" xlink:href="#STIXGeneral-Italic-116"/>
      <use transform="translate(394.023032 0.203125)" xlink:href="#STIXGeneral-Regular-61"/>
      <use transform="translate(476.963013 0.203125)" xlink:href="#STIXGeneral-Regular-54"/>
      <use transform="translate(526.962997 0.203125)" xlink:href="#STIXGeneral-Regular-48"/>
      <use transform="translate(576.962982 0.203125)" xlink:href="#STIXGeneral-Regular-48"/>
      <use transform="translate(626.962967 0.203125)" xlink:href="#STIXGeneral-Regular-48"/>
      <use transform="translate(676.962952 0.203125)" xlink:href="#ArialMT-41"/>
     </g>
    </g>
   </g>
  </g>
  <g id="text_53">
   <!-- B -->
   <defs>
    <path d="M 7.328125 0 
L 7.328125 71.578125 
L 34.1875 71.578125 
Q 42.390625 71.578125 47.34375 69.40625 
Q 52.296875 67.234375 55.09375 62.71875 
Q 57.90625 58.203125 57.90625 53.265625 
Q 57.90625 48.6875 55.421875 44.625 
Q 52.9375 40.578125 47.90625 38.09375 
Q 54.390625 36.1875 57.875 31.59375 
Q 61.375 27 61.375 20.75 
Q 61.375 15.71875 59.25 11.390625 
Q 57.125 7.078125 54 4.734375 
Q 50.875 2.390625 46.15625 1.1875 
Q 41.453125 0 34.625 0 
z
M 16.796875 41.5 
L 32.28125 41.5 
Q 38.578125 41.5 41.3125 42.328125 
Q 44.921875 43.40625 46.75 45.890625 
Q 48.578125 48.390625 48.578125 52.15625 
Q 48.578125 55.71875 46.875 58.421875 
Q 45.171875 61.140625 41.984375 62.140625 
Q 38.8125 63.140625 31.109375 63.140625 
L 16.796875 63.140625 
z
M 16.796875 8.453125 
L 34.625 8.453125 
Q 39.203125 8.453125 41.0625 8.796875 
Q 44.34375 9.375 46.53125 10.734375 
Q 48.734375 12.109375 50.140625 14.71875 
Q 51.5625 17.328125 51.5625 20.75 
Q 51.5625 24.75 49.515625 27.703125 
Q 47.46875 30.671875 43.828125 31.859375 
Q 40.1875 33.0625 33.34375 33.0625 
L 16.796875 33.0625 
z
" id="ArialMT-66"/>
   </defs>
   <g transform="translate(12.752473 35.83125)scale(0.4 -0.4)">
    <use xlink:href="#ArialMT-66"/>
   </g>
  </g>
 </g>
 <defs>
  <clipPath id="p61224e4cbe">
   <rect height="118.173913" width="121.304348" x="71.448125" y="35.83125"/>
  </clipPath>
  <clipPath id="pbcc5fc3936">
   <rect height="118.173913" width="121.304348" x="289.795951" y="35.83125"/>
  </clipPath>
  <clipPath id="p651f02b38a">
   <rect height="118.173913" width="121.304348" x="508.143777" y="35.83125"/>
  </clipPath>
  <clipPath id="p5e71e91fd8">
   <rect height="118.173913" width="121.304348" x="71.448125" y="248.544293"/>
  </clipPath>
  <clipPath id="p46baad7918">
   <rect height="118.173913" width="121.304348" x="508.143777" y="248.544293"/>
  </clipPath>
  <clipPath id="p6cdd0c98c8">
   <rect height="118.173913" width="121.304348" x="71.448125" y="461.257337"/>
  </clipPath>
  <clipPath id="ped86521b1e">
   <rect height="118.173913" width="121.304348" x="289.795951" y="461.257337"/>
  </clipPath>
 </defs>
</svg>
