<?xml version="1.0" encoding="utf-8" standalone="no"?>
<!DOCTYPE svg PUBLIC "-//W3C//DTD SVG 1.1//EN"
  "http://www.w3.org/Graphics/SVG/1.1/DTD/svg11.dtd">
<!-- Created with matplotlib (https://matplotlib.org/) -->
<svg height="288pt" version="1.1" viewBox="0 0 1440 288" width="1440pt" xmlns="http://www.w3.org/2000/svg" xmlns:xlink="http://www.w3.org/1999/xlink">
 <defs>
  <style type="text/css">
*{stroke-linecap:butt;stroke-linejoin:round;}
  </style>
 </defs>
 <g id="figure_1">
  <g id="patch_1">
   <path d="M 0 288 
L 1440 288 
L 1440 0 
L 0 0 
z
" style="fill:#ffffff;"/>
  </g>
  <g id="axes_1">
   <g id="patch_2">
    <path d="M 180 252 
L 1008 252 
L 1008 34.56 
L 180 34.56 
z
" style="fill:#ffffff;"/>
   </g>
   <g id="PathCollection_1">
    <defs>
     <path d="M 0 3 
C 0.795609 3 1.55874 2.683901 2.12132 2.12132 
C 2.683901 1.55874 3 0.795609 3 0 
C 3 -0.795609 2.683901 -1.55874 2.12132 -2.12132 
C 1.55874 -2.683901 0.795609 -3 0 -3 
C -0.795609 -3 -1.55874 -2.683901 -2.12132 -2.12132 
C -2.683901 -1.55874 -3 -0.795609 -3 0 
C -3 0.795609 -2.683901 1.55874 -2.12132 2.12132 
C -1.55874 2.683901 -0.795609 3 0 3 
z
" id="m66135fdae0" style="stroke:#ff0000;"/>
    </defs>
    <g clip-path="url(#p5e02812627)">
     <use style="fill:#ff0000;stroke:#ff0000;" x="217.636364" xlink:href="#m66135fdae0" y="44.443636"/>
     <use style="fill:#ff0000;stroke:#ff0000;" x="217.82464" xlink:href="#m66135fdae0" y="142.227636"/>
     <use style="fill:#ff0000;stroke:#ff0000;" x="218.012916" xlink:href="#m66135fdae0" y="191.132035"/>
     <use style="fill:#ff0000;stroke:#ff0000;" x="218.201192" xlink:href="#m66135fdae0" y="215.621136"/>
     <use style="fill:#ff0000;stroke:#ff0000;" x="218.389467" xlink:href="#m66135fdae0" y="227.667136"/>
     <use style="fill:#ff0000;stroke:#ff0000;" x="220.460503" xlink:href="#m66135fdae0" y="225.954555"/>
     <use style="fill:#ff0000;stroke:#ff0000;" x="220.648779" xlink:href="#m66135fdae0" y="220.927628"/>
     <use style="fill:#ff0000;stroke:#ff0000;" x="220.837055" xlink:href="#m66135fdae0" y="216.323287"/>
     <use style="fill:#ff0000;stroke:#ff0000;" x="221.025331" xlink:href="#m66135fdae0" y="212.292467"/>
     <use style="fill:#ff0000;stroke:#ff0000;" x="221.213607" xlink:href="#m66135fdae0" y="208.654883"/>
     <use style="fill:#ff0000;stroke:#ff0000;" x="221.401883" xlink:href="#m66135fdae0" y="207.575267"/>
     <use style="fill:#ff0000;stroke:#ff0000;" x="221.590159" xlink:href="#m66135fdae0" y="206.38614"/>
     <use style="fill:#ff0000;stroke:#ff0000;" x="221.778435" xlink:href="#m66135fdae0" y="212.34271"/>
     <use style="fill:#ff0000;stroke:#ff0000;" x="221.966711" xlink:href="#m66135fdae0" y="214.20655"/>
     <use style="fill:#ff0000;stroke:#ff0000;" x="222.154987" xlink:href="#m66135fdae0" y="219.416353"/>
     <use style="fill:#ff0000;stroke:#ff0000;" x="222.343263" xlink:href="#m66135fdae0" y="220.702755"/>
     <use style="fill:#ff0000;stroke:#ff0000;" x="222.531538" xlink:href="#m66135fdae0" y="225.632563"/>
     <use style="fill:#ff0000;stroke:#ff0000;" x="222.719814" xlink:href="#m66135fdae0" y="228.014403"/>
     <use style="fill:#ff0000;stroke:#ff0000;" x="227.614989" xlink:href="#m66135fdae0" y="226.524648"/>
    </g>
   </g>
   <g id="matplotlib.axis_1">
    <g id="xtick_1">
     <g id="line2d_1">
      <path clip-path="url(#p5e02812627)" d="M 217.636364 252 
L 217.636364 34.56 
" style="fill:none;stroke:#b0b0b0;stroke-linecap:square;stroke-width:0.8;"/>
     </g>
     <g id="line2d_2">
      <defs>
       <path d="M 0 0 
L 0 3.5 
" id="m843c4f1ea7" style="stroke:#000000;stroke-width:0.8;"/>
      </defs>
      <g>
       <use style="stroke:#000000;stroke-width:0.8;" x="217.636364" xlink:href="#m843c4f1ea7" y="252"/>
      </g>
     </g>
     <g id="text_1">
      <!-- 0 -->
      <defs>
       <path d="M 4.15625 35.296875 
Q 4.15625 48 6.765625 55.734375 
Q 9.375 63.484375 14.515625 67.671875 
Q 19.671875 71.875 27.484375 71.875 
Q 33.25 71.875 37.59375 69.546875 
Q 41.9375 67.234375 44.765625 62.859375 
Q 47.609375 58.5 49.21875 52.21875 
Q 50.828125 45.953125 50.828125 35.296875 
Q 50.828125 22.703125 48.234375 14.96875 
Q 45.65625 7.234375 40.5 3 
Q 35.359375 -1.21875 27.484375 -1.21875 
Q 17.140625 -1.21875 11.234375 6.203125 
Q 4.15625 15.140625 4.15625 35.296875 
z
M 13.1875 35.296875 
Q 13.1875 17.671875 17.3125 11.828125 
Q 21.4375 6 27.484375 6 
Q 33.546875 6 37.671875 11.859375 
Q 41.796875 17.71875 41.796875 35.296875 
Q 41.796875 52.984375 37.671875 58.78125 
Q 33.546875 64.59375 27.390625 64.59375 
Q 21.34375 64.59375 17.71875 59.46875 
Q 13.1875 52.9375 13.1875 35.296875 
z
" id="ArialMT-48"/>
      </defs>
      <g transform="translate(210.407145 277.610313)scale(0.26 -0.26)">
       <use xlink:href="#ArialMT-48"/>
      </g>
     </g>
    </g>
    <g id="xtick_2">
     <g id="line2d_3">
      <path clip-path="url(#p5e02812627)" d="M 594.188276 252 
L 594.188276 34.56 
" style="fill:none;stroke:#b0b0b0;stroke-linecap:square;stroke-width:0.8;"/>
     </g>
     <g id="line2d_4">
      <g>
       <use style="stroke:#000000;stroke-width:0.8;" x="594.188276" xlink:href="#m843c4f1ea7" y="252"/>
      </g>
     </g>
     <g id="text_2">
      <!-- 2000 -->
      <defs>
       <path d="M 50.34375 8.453125 
L 50.34375 0 
L 3.03125 0 
Q 2.9375 3.171875 4.046875 6.109375 
Q 5.859375 10.9375 9.828125 15.625 
Q 13.8125 20.3125 21.34375 26.46875 
Q 33.015625 36.03125 37.109375 41.625 
Q 41.21875 47.21875 41.21875 52.203125 
Q 41.21875 57.421875 37.46875 61 
Q 33.734375 64.59375 27.734375 64.59375 
Q 21.390625 64.59375 17.578125 60.78125 
Q 13.765625 56.984375 13.71875 50.25 
L 4.6875 51.171875 
Q 5.609375 61.28125 11.65625 66.578125 
Q 17.71875 71.875 27.9375 71.875 
Q 38.234375 71.875 44.234375 66.15625 
Q 50.25 60.453125 50.25 52 
Q 50.25 47.703125 48.484375 43.546875 
Q 46.734375 39.40625 42.65625 34.8125 
Q 38.578125 30.21875 29.109375 22.21875 
Q 21.1875 15.578125 18.9375 13.203125 
Q 16.703125 10.84375 15.234375 8.453125 
z
" id="ArialMT-50"/>
      </defs>
      <g transform="translate(565.271401 277.610313)scale(0.26 -0.26)">
       <use xlink:href="#ArialMT-50"/>
       <use x="55.615234" xlink:href="#ArialMT-48"/>
       <use x="111.230469" xlink:href="#ArialMT-48"/>
       <use x="166.845703" xlink:href="#ArialMT-48"/>
      </g>
     </g>
    </g>
    <g id="xtick_3">
     <g id="line2d_5">
      <path clip-path="url(#p5e02812627)" d="M 970.740188 252 
L 970.740188 34.56 
" style="fill:none;stroke:#b0b0b0;stroke-linecap:square;stroke-width:0.8;"/>
     </g>
     <g id="line2d_6">
      <g>
       <use style="stroke:#000000;stroke-width:0.8;" x="970.740188" xlink:href="#m843c4f1ea7" y="252"/>
      </g>
     </g>
     <g id="text_3">
      <!-- 4000 -->
      <defs>
       <path d="M 32.328125 0 
L 32.328125 17.140625 
L 1.265625 17.140625 
L 1.265625 25.203125 
L 33.9375 71.578125 
L 41.109375 71.578125 
L 41.109375 25.203125 
L 50.78125 25.203125 
L 50.78125 17.140625 
L 41.109375 17.140625 
L 41.109375 0 
z
M 32.328125 25.203125 
L 32.328125 57.46875 
L 9.90625 25.203125 
z
" id="ArialMT-52"/>
      </defs>
      <g transform="translate(941.823313 277.610313)scale(0.26 -0.26)">
       <use xlink:href="#ArialMT-52"/>
       <use x="55.615234" xlink:href="#ArialMT-48"/>
       <use x="111.230469" xlink:href="#ArialMT-48"/>
       <use x="166.845703" xlink:href="#ArialMT-48"/>
      </g>
     </g>
    </g>
    <g id="text_4">
     <!-- # sample -->
     <defs>
      <path d="M 5.03125 -1.21875 
L 9.28125 19.578125 
L 1.03125 19.578125 
L 1.03125 26.859375 
L 10.75 26.859375 
L 14.359375 44.578125 
L 1.03125 44.578125 
L 1.03125 51.859375 
L 15.828125 51.859375 
L 20.0625 72.796875 
L 27.390625 72.796875 
L 23.140625 51.859375 
L 38.53125 51.859375 
L 42.78125 72.796875 
L 50.140625 72.796875 
L 45.90625 51.859375 
L 54.34375 51.859375 
L 54.34375 44.578125 
L 44.4375 44.578125 
L 40.765625 26.859375 
L 54.34375 26.859375 
L 54.34375 19.578125 
L 39.3125 19.578125 
L 35.0625 -1.21875 
L 27.734375 -1.21875 
L 31.9375 19.578125 
L 16.609375 19.578125 
L 12.359375 -1.21875 
z
M 18.0625 26.859375 
L 33.40625 26.859375 
L 37.0625 44.578125 
L 21.6875 44.578125 
z
" id="ArialMT-35"/>
      <path id="ArialMT-32"/>
      <path d="M 3.078125 15.484375 
L 11.765625 16.84375 
Q 12.5 11.625 15.84375 8.84375 
Q 19.1875 6.0625 25.203125 6.0625 
Q 31.25 6.0625 34.171875 8.515625 
Q 37.109375 10.984375 37.109375 14.3125 
Q 37.109375 17.28125 34.515625 19 
Q 32.71875 20.171875 25.53125 21.96875 
Q 15.875 24.421875 12.140625 26.203125 
Q 8.40625 27.984375 6.46875 31.125 
Q 4.546875 34.28125 4.546875 38.09375 
Q 4.546875 41.546875 6.125 44.5 
Q 7.71875 47.46875 10.453125 49.421875 
Q 12.5 50.921875 16.03125 51.96875 
Q 19.578125 53.03125 23.640625 53.03125 
Q 29.734375 53.03125 34.34375 51.265625 
Q 38.96875 49.515625 41.15625 46.5 
Q 43.359375 43.5 44.1875 38.484375 
L 35.59375 37.3125 
Q 35.015625 41.3125 32.203125 43.546875 
Q 29.390625 45.796875 24.265625 45.796875 
Q 18.21875 45.796875 15.625 43.796875 
Q 13.03125 41.796875 13.03125 39.109375 
Q 13.03125 37.40625 14.109375 36.03125 
Q 15.1875 34.625 17.484375 33.6875 
Q 18.796875 33.203125 25.25 31.453125 
Q 34.578125 28.953125 38.25 27.359375 
Q 41.9375 25.78125 44.03125 22.75 
Q 46.140625 19.734375 46.140625 15.234375 
Q 46.140625 10.84375 43.578125 6.953125 
Q 41.015625 3.078125 36.171875 0.953125 
Q 31.34375 -1.171875 25.25 -1.171875 
Q 15.140625 -1.171875 9.84375 3.03125 
Q 4.546875 7.234375 3.078125 15.484375 
z
" id="ArialMT-115"/>
      <path d="M 40.4375 6.390625 
Q 35.546875 2.25 31.03125 0.53125 
Q 26.515625 -1.171875 21.34375 -1.171875 
Q 12.796875 -1.171875 8.203125 3 
Q 3.609375 7.171875 3.609375 13.671875 
Q 3.609375 17.484375 5.34375 20.625 
Q 7.078125 23.78125 9.890625 25.6875 
Q 12.703125 27.59375 16.21875 28.5625 
Q 18.796875 29.25 24.03125 29.890625 
Q 34.671875 31.15625 39.703125 32.90625 
Q 39.75 34.71875 39.75 35.203125 
Q 39.75 40.578125 37.25 42.78125 
Q 33.890625 45.75 27.25 45.75 
Q 21.046875 45.75 18.09375 43.578125 
Q 15.140625 41.40625 13.71875 35.890625 
L 5.125 37.0625 
Q 6.296875 42.578125 8.984375 45.96875 
Q 11.671875 49.359375 16.75 51.1875 
Q 21.828125 53.03125 28.515625 53.03125 
Q 35.15625 53.03125 39.296875 51.46875 
Q 43.453125 49.90625 45.40625 47.53125 
Q 47.359375 45.171875 48.140625 41.546875 
Q 48.578125 39.3125 48.578125 33.453125 
L 48.578125 21.734375 
Q 48.578125 9.46875 49.140625 6.21875 
Q 49.703125 2.984375 51.375 0 
L 42.1875 0 
Q 40.828125 2.734375 40.4375 6.390625 
z
M 39.703125 26.03125 
Q 34.90625 24.078125 25.34375 22.703125 
Q 19.921875 21.921875 17.671875 20.9375 
Q 15.4375 19.96875 14.203125 18.09375 
Q 12.984375 16.21875 12.984375 13.921875 
Q 12.984375 10.40625 15.640625 8.0625 
Q 18.3125 5.71875 23.4375 5.71875 
Q 28.515625 5.71875 32.46875 7.9375 
Q 36.421875 10.15625 38.28125 14.015625 
Q 39.703125 17 39.703125 22.796875 
z
" id="ArialMT-97"/>
      <path d="M 6.59375 0 
L 6.59375 51.859375 
L 14.453125 51.859375 
L 14.453125 44.578125 
Q 16.890625 48.390625 20.9375 50.703125 
Q 25 53.03125 30.171875 53.03125 
Q 35.9375 53.03125 39.625 50.640625 
Q 43.3125 48.25 44.828125 43.953125 
Q 50.984375 53.03125 60.84375 53.03125 
Q 68.5625 53.03125 72.703125 48.75 
Q 76.859375 44.484375 76.859375 35.59375 
L 76.859375 0 
L 68.109375 0 
L 68.109375 32.671875 
Q 68.109375 37.9375 67.25 40.25 
Q 66.40625 42.578125 64.15625 43.984375 
Q 61.921875 45.40625 58.890625 45.40625 
Q 53.421875 45.40625 49.796875 41.765625 
Q 46.1875 38.140625 46.1875 30.125 
L 46.1875 0 
L 37.40625 0 
L 37.40625 33.6875 
Q 37.40625 39.546875 35.25 42.46875 
Q 33.109375 45.40625 28.21875 45.40625 
Q 24.515625 45.40625 21.359375 43.453125 
Q 18.21875 41.5 16.796875 37.734375 
Q 15.375 33.984375 15.375 26.90625 
L 15.375 0 
z
" id="ArialMT-109"/>
      <path d="M 6.59375 -19.875 
L 6.59375 51.859375 
L 14.59375 51.859375 
L 14.59375 45.125 
Q 17.4375 49.078125 21 51.046875 
Q 24.5625 53.03125 29.640625 53.03125 
Q 36.28125 53.03125 41.359375 49.609375 
Q 46.4375 46.1875 49.015625 39.953125 
Q 51.609375 33.734375 51.609375 26.3125 
Q 51.609375 18.359375 48.75 11.984375 
Q 45.90625 5.609375 40.453125 2.21875 
Q 35.015625 -1.171875 29 -1.171875 
Q 24.609375 -1.171875 21.109375 0.6875 
Q 17.625 2.546875 15.375 5.375 
L 15.375 -19.875 
z
M 14.546875 25.640625 
Q 14.546875 15.625 18.59375 10.84375 
Q 22.65625 6.0625 28.421875 6.0625 
Q 34.28125 6.0625 38.453125 11.015625 
Q 42.625 15.96875 42.625 26.375 
Q 42.625 36.28125 38.546875 41.203125 
Q 34.46875 46.140625 28.8125 46.140625 
Q 23.1875 46.140625 18.859375 40.890625 
Q 14.546875 35.640625 14.546875 25.640625 
z
" id="ArialMT-112"/>
      <path d="M 6.390625 0 
L 6.390625 71.578125 
L 15.1875 71.578125 
L 15.1875 0 
z
" id="ArialMT-108"/>
      <path d="M 42.09375 16.703125 
L 51.171875 15.578125 
Q 49.03125 7.625 43.21875 3.21875 
Q 37.40625 -1.171875 28.375 -1.171875 
Q 17 -1.171875 10.328125 5.828125 
Q 3.65625 12.84375 3.65625 25.484375 
Q 3.65625 38.578125 10.390625 45.796875 
Q 17.140625 53.03125 27.875 53.03125 
Q 38.28125 53.03125 44.875 45.953125 
Q 51.46875 38.875 51.46875 26.03125 
Q 51.46875 25.25 51.421875 23.6875 
L 12.75 23.6875 
Q 13.234375 15.140625 17.578125 10.59375 
Q 21.921875 6.0625 28.421875 6.0625 
Q 33.25 6.0625 36.671875 8.59375 
Q 40.09375 11.140625 42.09375 16.703125 
z
M 13.234375 30.90625 
L 42.1875 30.90625 
Q 41.609375 37.453125 38.875 40.71875 
Q 34.671875 45.796875 27.984375 45.796875 
Q 21.921875 45.796875 17.796875 41.75 
Q 13.671875 37.703125 13.234375 30.90625 
z
" id="ArialMT-101"/>
     </defs>
     <g transform="translate(541.254531 305.705)scale(0.26 -0.26)">
      <use xlink:href="#ArialMT-35"/>
      <use x="55.615234" xlink:href="#ArialMT-32"/>
      <use x="83.398438" xlink:href="#ArialMT-115"/>
      <use x="133.398438" xlink:href="#ArialMT-97"/>
      <use x="189.013672" xlink:href="#ArialMT-109"/>
      <use x="272.314453" xlink:href="#ArialMT-112"/>
      <use x="327.929688" xlink:href="#ArialMT-108"/>
      <use x="350.146484" xlink:href="#ArialMT-101"/>
     </g>
    </g>
   </g>
   <g id="matplotlib.axis_2">
    <g id="ytick_1">
     <g id="line2d_7">
      <path clip-path="url(#p5e02812627)" d="M 180 242.123175 
L 1008 242.123175 
" style="fill:none;stroke:#b0b0b0;stroke-linecap:square;stroke-width:0.8;"/>
     </g>
     <g id="line2d_8">
      <defs>
       <path d="M 0 0 
L -3.5 0 
" id="m301605bb4f" style="stroke:#000000;stroke-width:0.8;"/>
      </defs>
      <g>
       <use style="stroke:#000000;stroke-width:0.8;" x="180" xlink:href="#m301605bb4f" y="242.123175"/>
      </g>
     </g>
     <g id="text_5">
      <!-- 0 -->
      <g transform="translate(158.541562 251.428331)scale(0.26 -0.26)">
       <use xlink:href="#ArialMT-48"/>
      </g>
     </g>
    </g>
    <g id="ytick_2">
     <g id="line2d_9">
      <path clip-path="url(#p5e02812627)" d="M 180 174.520212 
L 1008 174.520212 
" style="fill:none;stroke:#b0b0b0;stroke-linecap:square;stroke-width:0.8;"/>
     </g>
     <g id="line2d_10">
      <g>
       <use style="stroke:#000000;stroke-width:0.8;" x="180" xlink:href="#m301605bb4f" y="174.520212"/>
      </g>
     </g>
     <g id="text_6">
      <!-- 50 -->
      <defs>
       <path d="M 4.15625 18.75 
L 13.375 19.53125 
Q 14.40625 12.796875 18.140625 9.390625 
Q 21.875 6 27.15625 6 
Q 33.5 6 37.890625 10.78125 
Q 42.28125 15.578125 42.28125 23.484375 
Q 42.28125 31 38.0625 35.34375 
Q 33.84375 39.703125 27 39.703125 
Q 22.75 39.703125 19.328125 37.765625 
Q 15.921875 35.84375 13.96875 32.765625 
L 5.71875 33.84375 
L 12.640625 70.609375 
L 48.25 70.609375 
L 48.25 62.203125 
L 19.671875 62.203125 
L 15.828125 42.96875 
Q 22.265625 47.46875 29.34375 47.46875 
Q 38.71875 47.46875 45.15625 40.96875 
Q 51.609375 34.46875 51.609375 24.265625 
Q 51.609375 14.546875 45.953125 7.46875 
Q 39.0625 -1.21875 27.15625 -1.21875 
Q 17.390625 -1.21875 11.203125 4.25 
Q 5.03125 9.71875 4.15625 18.75 
z
" id="ArialMT-53"/>
      </defs>
      <g transform="translate(144.083125 183.825368)scale(0.26 -0.26)">
       <use xlink:href="#ArialMT-53"/>
       <use x="55.615234" xlink:href="#ArialMT-48"/>
      </g>
     </g>
    </g>
    <g id="ytick_3">
     <g id="line2d_11">
      <path clip-path="url(#p5e02812627)" d="M 180 106.917248 
L 1008 106.917248 
" style="fill:none;stroke:#b0b0b0;stroke-linecap:square;stroke-width:0.8;"/>
     </g>
     <g id="line2d_12">
      <g>
       <use style="stroke:#000000;stroke-width:0.8;" x="180" xlink:href="#m301605bb4f" y="106.917248"/>
      </g>
     </g>
     <g id="text_7">
      <!-- 100 -->
      <defs>
       <path d="M 37.25 0 
L 28.46875 0 
L 28.46875 56 
Q 25.296875 52.984375 20.140625 49.953125 
Q 14.984375 46.921875 10.890625 45.40625 
L 10.890625 53.90625 
Q 18.265625 57.375 23.78125 62.296875 
Q 29.296875 67.234375 31.59375 71.875 
L 37.25 71.875 
z
" id="ArialMT-49"/>
      </defs>
      <g transform="translate(129.624687 116.222404)scale(0.26 -0.26)">
       <use xlink:href="#ArialMT-49"/>
       <use x="55.615234" xlink:href="#ArialMT-48"/>
       <use x="111.230469" xlink:href="#ArialMT-48"/>
      </g>
     </g>
    </g>
    <g id="ytick_4">
     <g id="line2d_13">
      <path clip-path="url(#p5e02812627)" d="M 180 39.314284 
L 1008 39.314284 
" style="fill:none;stroke:#b0b0b0;stroke-linecap:square;stroke-width:0.8;"/>
     </g>
     <g id="line2d_14">
      <g>
       <use style="stroke:#000000;stroke-width:0.8;" x="180" xlink:href="#m301605bb4f" y="39.314284"/>
      </g>
     </g>
     <g id="text_8">
      <!-- 150 -->
      <g transform="translate(129.624687 48.619441)scale(0.26 -0.26)">
       <use xlink:href="#ArialMT-49"/>
       <use x="55.615234" xlink:href="#ArialMT-53"/>
       <use x="111.230469" xlink:href="#ArialMT-48"/>
      </g>
     </g>
    </g>
    <g id="text_9">
     <!-- Change-point score  -->
     <defs>
      <path d="M 58.796875 25.09375 
L 68.265625 22.703125 
Q 65.28125 11.03125 57.546875 4.90625 
Q 49.8125 -1.21875 38.625 -1.21875 
Q 27.046875 -1.21875 19.796875 3.484375 
Q 12.546875 8.203125 8.765625 17.140625 
Q 4.984375 26.078125 4.984375 36.328125 
Q 4.984375 47.515625 9.25 55.828125 
Q 13.53125 64.15625 21.40625 68.46875 
Q 29.296875 72.796875 38.765625 72.796875 
Q 49.515625 72.796875 56.828125 67.328125 
Q 64.15625 61.859375 67.046875 51.953125 
L 57.71875 49.75 
Q 55.21875 57.5625 50.484375 61.125 
Q 45.75 64.703125 38.578125 64.703125 
Q 30.328125 64.703125 24.78125 60.734375 
Q 19.234375 56.78125 16.984375 50.109375 
Q 14.75 43.453125 14.75 36.375 
Q 14.75 27.25 17.40625 20.4375 
Q 20.0625 13.625 25.671875 10.25 
Q 31.296875 6.890625 37.84375 6.890625 
Q 45.796875 6.890625 51.3125 11.46875 
Q 56.84375 16.0625 58.796875 25.09375 
z
" id="ArialMT-67"/>
      <path d="M 6.59375 0 
L 6.59375 71.578125 
L 15.375 71.578125 
L 15.375 45.90625 
Q 21.53125 53.03125 30.90625 53.03125 
Q 36.671875 53.03125 40.921875 50.75 
Q 45.171875 48.484375 47 44.484375 
Q 48.828125 40.484375 48.828125 32.859375 
L 48.828125 0 
L 40.046875 0 
L 40.046875 32.859375 
Q 40.046875 39.453125 37.1875 42.453125 
Q 34.328125 45.453125 29.109375 45.453125 
Q 25.203125 45.453125 21.75 43.421875 
Q 18.3125 41.40625 16.84375 37.9375 
Q 15.375 34.46875 15.375 28.375 
L 15.375 0 
z
" id="ArialMT-104"/>
      <path d="M 6.59375 0 
L 6.59375 51.859375 
L 14.5 51.859375 
L 14.5 44.484375 
Q 20.21875 53.03125 31 53.03125 
Q 35.6875 53.03125 39.625 51.34375 
Q 43.5625 49.65625 45.515625 46.921875 
Q 47.46875 44.1875 48.25 40.4375 
Q 48.734375 37.984375 48.734375 31.890625 
L 48.734375 0 
L 39.9375 0 
L 39.9375 31.546875 
Q 39.9375 36.921875 38.90625 39.578125 
Q 37.890625 42.234375 35.28125 43.8125 
Q 32.671875 45.40625 29.15625 45.40625 
Q 23.53125 45.40625 19.453125 41.84375 
Q 15.375 38.28125 15.375 28.328125 
L 15.375 0 
z
" id="ArialMT-110"/>
      <path d="M 4.984375 -4.296875 
L 13.53125 -5.5625 
Q 14.0625 -9.515625 16.5 -11.328125 
Q 19.78125 -13.765625 25.4375 -13.765625 
Q 31.546875 -13.765625 34.859375 -11.328125 
Q 38.1875 -8.890625 39.359375 -4.5 
Q 40.046875 -1.8125 39.984375 6.78125 
Q 34.234375 0 25.640625 0 
Q 14.9375 0 9.078125 7.71875 
Q 3.21875 15.4375 3.21875 26.21875 
Q 3.21875 33.640625 5.90625 39.90625 
Q 8.59375 46.1875 13.6875 49.609375 
Q 18.796875 53.03125 25.6875 53.03125 
Q 34.859375 53.03125 40.828125 45.609375 
L 40.828125 51.859375 
L 48.921875 51.859375 
L 48.921875 7.03125 
Q 48.921875 -5.078125 46.453125 -10.125 
Q 44 -15.1875 38.640625 -18.109375 
Q 33.296875 -21.046875 25.484375 -21.046875 
Q 16.21875 -21.046875 10.5 -16.875 
Q 4.78125 -12.703125 4.984375 -4.296875 
z
M 12.25 26.859375 
Q 12.25 16.65625 16.296875 11.96875 
Q 20.359375 7.28125 26.46875 7.28125 
Q 32.515625 7.28125 36.609375 11.9375 
Q 40.71875 16.609375 40.71875 26.5625 
Q 40.71875 36.078125 36.5 40.90625 
Q 32.28125 45.75 26.3125 45.75 
Q 20.453125 45.75 16.34375 40.984375 
Q 12.25 36.234375 12.25 26.859375 
z
" id="ArialMT-103"/>
      <path d="M 3.171875 21.484375 
L 3.171875 30.328125 
L 30.171875 30.328125 
L 30.171875 21.484375 
z
" id="ArialMT-45"/>
      <path d="M 3.328125 25.921875 
Q 3.328125 40.328125 11.328125 47.265625 
Q 18.015625 53.03125 27.640625 53.03125 
Q 38.328125 53.03125 45.109375 46.015625 
Q 51.90625 39.015625 51.90625 26.65625 
Q 51.90625 16.65625 48.90625 10.90625 
Q 45.90625 5.171875 40.15625 2 
Q 34.421875 -1.171875 27.640625 -1.171875 
Q 16.75 -1.171875 10.03125 5.8125 
Q 3.328125 12.796875 3.328125 25.921875 
z
M 12.359375 25.921875 
Q 12.359375 15.96875 16.703125 11.015625 
Q 21.046875 6.0625 27.640625 6.0625 
Q 34.1875 6.0625 38.53125 11.03125 
Q 42.875 16.015625 42.875 26.21875 
Q 42.875 35.84375 38.5 40.796875 
Q 34.125 45.75 27.640625 45.75 
Q 21.046875 45.75 16.703125 40.8125 
Q 12.359375 35.890625 12.359375 25.921875 
z
" id="ArialMT-111"/>
      <path d="M 6.640625 61.46875 
L 6.640625 71.578125 
L 15.4375 71.578125 
L 15.4375 61.46875 
z
M 6.640625 0 
L 6.640625 51.859375 
L 15.4375 51.859375 
L 15.4375 0 
z
" id="ArialMT-105"/>
      <path d="M 25.78125 7.859375 
L 27.046875 0.09375 
Q 23.34375 -0.6875 20.40625 -0.6875 
Q 15.625 -0.6875 12.984375 0.828125 
Q 10.359375 2.34375 9.28125 4.8125 
Q 8.203125 7.28125 8.203125 15.1875 
L 8.203125 45.015625 
L 1.765625 45.015625 
L 1.765625 51.859375 
L 8.203125 51.859375 
L 8.203125 64.703125 
L 16.9375 69.96875 
L 16.9375 51.859375 
L 25.78125 51.859375 
L 25.78125 45.015625 
L 16.9375 45.015625 
L 16.9375 14.703125 
Q 16.9375 10.9375 17.40625 9.859375 
Q 17.875 8.796875 18.921875 8.15625 
Q 19.96875 7.515625 21.921875 7.515625 
Q 23.390625 7.515625 25.78125 7.859375 
z
" id="ArialMT-116"/>
      <path d="M 40.4375 19 
L 49.078125 17.875 
Q 47.65625 8.9375 41.8125 3.875 
Q 35.984375 -1.171875 27.484375 -1.171875 
Q 16.84375 -1.171875 10.375 5.78125 
Q 3.90625 12.75 3.90625 25.734375 
Q 3.90625 34.125 6.6875 40.421875 
Q 9.46875 46.734375 15.15625 49.875 
Q 20.84375 53.03125 27.546875 53.03125 
Q 35.984375 53.03125 41.359375 48.75 
Q 46.734375 44.484375 48.25 36.625 
L 39.703125 35.296875 
Q 38.484375 40.53125 35.375 43.15625 
Q 32.28125 45.796875 27.875 45.796875 
Q 21.234375 45.796875 17.078125 41.03125 
Q 12.9375 36.28125 12.9375 25.984375 
Q 12.9375 15.53125 16.9375 10.796875 
Q 20.953125 6.0625 27.390625 6.0625 
Q 32.5625 6.0625 36.03125 9.234375 
Q 39.5 12.40625 40.4375 19 
z
" id="ArialMT-99"/>
      <path d="M 6.5 0 
L 6.5 51.859375 
L 14.40625 51.859375 
L 14.40625 44 
Q 17.4375 49.515625 20 51.265625 
Q 22.5625 53.03125 25.640625 53.03125 
Q 30.078125 53.03125 34.671875 50.203125 
L 31.640625 42.046875 
Q 28.421875 43.953125 25.203125 43.953125 
Q 22.3125 43.953125 20.015625 42.21875 
Q 17.71875 40.484375 16.75 37.40625 
Q 15.28125 32.71875 15.28125 27.15625 
L 15.28125 0 
z
" id="ArialMT-114"/>
     </defs>
     <g transform="translate(91.967687 260.340937)rotate(-90)scale(0.26 -0.26)">
      <use xlink:href="#ArialMT-67"/>
      <use x="72.216797" xlink:href="#ArialMT-104"/>
      <use x="127.832031" xlink:href="#ArialMT-97"/>
      <use x="183.447266" xlink:href="#ArialMT-110"/>
      <use x="239.0625" xlink:href="#ArialMT-103"/>
      <use x="294.677734" xlink:href="#ArialMT-101"/>
      <use x="350.292969" xlink:href="#ArialMT-45"/>
      <use x="383.59375" xlink:href="#ArialMT-112"/>
      <use x="439.208984" xlink:href="#ArialMT-111"/>
      <use x="494.824219" xlink:href="#ArialMT-105"/>
      <use x="517.041016" xlink:href="#ArialMT-110"/>
      <use x="572.65625" xlink:href="#ArialMT-116"/>
      <use x="600.439453" xlink:href="#ArialMT-32"/>
      <use x="628.222656" xlink:href="#ArialMT-115"/>
      <use x="678.222656" xlink:href="#ArialMT-99"/>
      <use x="728.222656" xlink:href="#ArialMT-111"/>
      <use x="783.837891" xlink:href="#ArialMT-114"/>
      <use x="817.138672" xlink:href="#ArialMT-101"/>
      <use x="872.753906" xlink:href="#ArialMT-32"/>
     </g>
     <!-- (KL div.) -->
     <defs>
      <path d="M 23.390625 -21.046875 
Q 16.109375 -11.859375 11.078125 0.4375 
Q 6.0625 12.75 6.0625 25.921875 
Q 6.0625 37.546875 9.8125 48.1875 
Q 14.203125 60.546875 23.390625 72.796875 
L 29.6875 72.796875 
Q 23.78125 62.640625 21.875 58.296875 
Q 18.890625 51.5625 17.1875 44.234375 
Q 15.09375 35.109375 15.09375 25.875 
Q 15.09375 2.390625 29.6875 -21.046875 
z
" id="ArialMT-40"/>
      <path d="M 7.328125 0 
L 7.328125 71.578125 
L 16.796875 71.578125 
L 16.796875 36.078125 
L 52.34375 71.578125 
L 65.1875 71.578125 
L 35.15625 42.578125 
L 66.5 0 
L 54 0 
L 28.515625 36.234375 
L 16.796875 24.8125 
L 16.796875 0 
z
" id="ArialMT-75"/>
      <path d="M 7.328125 0 
L 7.328125 71.578125 
L 16.796875 71.578125 
L 16.796875 8.453125 
L 52.046875 8.453125 
L 52.046875 0 
z
" id="ArialMT-76"/>
      <path d="M 40.234375 0 
L 40.234375 6.546875 
Q 35.296875 -1.171875 25.734375 -1.171875 
Q 19.53125 -1.171875 14.328125 2.25 
Q 9.125 5.671875 6.265625 11.796875 
Q 3.421875 17.921875 3.421875 25.875 
Q 3.421875 33.640625 6 39.96875 
Q 8.59375 46.296875 13.765625 49.65625 
Q 18.953125 53.03125 25.34375 53.03125 
Q 30.03125 53.03125 33.6875 51.046875 
Q 37.359375 49.078125 39.65625 45.90625 
L 39.65625 71.578125 
L 48.390625 71.578125 
L 48.390625 0 
z
M 12.453125 25.875 
Q 12.453125 15.921875 16.640625 10.984375 
Q 20.84375 6.0625 26.5625 6.0625 
Q 32.328125 6.0625 36.34375 10.765625 
Q 40.375 15.484375 40.375 25.140625 
Q 40.375 35.796875 36.265625 40.765625 
Q 32.171875 45.75 26.171875 45.75 
Q 20.3125 45.75 16.375 40.96875 
Q 12.453125 36.1875 12.453125 25.875 
z
" id="ArialMT-100"/>
      <path d="M 21 0 
L 1.265625 51.859375 
L 10.546875 51.859375 
L 21.6875 20.796875 
Q 23.484375 15.765625 25 10.359375 
Q 26.171875 14.453125 28.265625 20.21875 
L 39.796875 51.859375 
L 48.828125 51.859375 
L 29.203125 0 
z
" id="ArialMT-118"/>
      <path d="M 9.078125 0 
L 9.078125 10.015625 
L 19.09375 10.015625 
L 19.09375 0 
z
" id="ArialMT-46"/>
      <path d="M 12.359375 -21.046875 
L 6.0625 -21.046875 
Q 20.65625 2.390625 20.65625 25.875 
Q 20.65625 35.0625 18.5625 44.09375 
Q 16.890625 51.421875 13.921875 58.15625 
Q 12.015625 62.546875 6.0625 72.796875 
L 12.359375 72.796875 
Q 21.53125 60.546875 25.921875 48.1875 
Q 29.6875 37.546875 29.6875 25.921875 
Q 29.6875 12.75 24.625 0.4375 
Q 19.578125 -11.859375 12.359375 -21.046875 
z
" id="ArialMT-41"/>
     </defs>
     <g transform="translate(120.1525 190.232344)rotate(-90)scale(0.26 -0.26)">
      <use xlink:href="#ArialMT-40"/>
      <use x="33.300781" xlink:href="#ArialMT-75"/>
      <use x="100" xlink:href="#ArialMT-76"/>
      <use x="151.865234" xlink:href="#ArialMT-32"/>
      <use x="179.648438" xlink:href="#ArialMT-100"/>
      <use x="235.263672" xlink:href="#ArialMT-105"/>
      <use x="257.480469" xlink:href="#ArialMT-118"/>
      <use x="300.105469" xlink:href="#ArialMT-46"/>
      <use x="327.888672" xlink:href="#ArialMT-41"/>
     </g>
    </g>
   </g>
   <g id="line2d_15">
    <path clip-path="url(#p5e02812627)" d="M 217.636364 44.443636 
L 218.012916 191.132035 
L 218.389467 227.667136 
L 218.766019 236.756542 
L 218.954295 238.030046 
L 219.330847 238.473088 
L 219.519123 238.079879 
L 219.895675 235.500371 
L 220.272227 230.376206 
L 221.213607 208.654883 
L 221.590159 206.38614 
L 221.778435 212.34271 
L 221.966711 214.20655 
L 222.154987 219.416353 
L 222.343263 220.702755 
L 222.719814 228.014403 
L 222.90809 231.437118 
L 223.096366 232.392128 
L 223.284642 234.399758 
L 223.472918 233.822803 
L 223.84947 237.158838 
L 224.037746 237.004817 
L 224.226022 236.215477 
L 224.414298 236.447665 
L 224.602574 237.261754 
L 224.79085 237.135441 
L 224.979126 236.355633 
L 225.167402 235.090048 
L 225.355678 235.896203 
L 225.920506 232.523921 
L 226.108782 235.731431 
L 226.297058 235.246103 
L 226.485334 233.678547 
L 226.67361 235.773944 
L 227.050161 228.438373 
L 227.238437 230.781749 
L 227.426713 231.179275 
L 227.614989 226.524648 
L 227.803265 232.441632 
L 227.991541 229.231925 
L 228.179817 229.523682 
L 228.368093 233.762698 
L 228.556369 234.809085 
L 228.744645 233.371545 
L 228.932921 236.854487 
L 229.121197 232.183566 
L 229.309473 238.966277 
L 229.497749 234.705246 
L 229.686025 237.238259 
L 229.874301 236.800527 
L 230.062577 235.283318 
L 230.250853 231.378783 
L 230.439129 235.148258 
L 230.815681 235.590777 
L 231.003957 237.352654 
L 231.380508 234.485151 
L 231.568784 238.105136 
L 231.75706 237.30254 
L 231.945336 229.356002 
L 232.133612 236.979734 
L 232.321888 235.821139 
L 232.510164 237.656869 
L 232.69844 237.644727 
L 232.886716 234.869778 
L 233.074992 235.645186 
L 233.263268 235.040396 
L 233.451544 234.901731 
L 233.63982 234.329062 
L 233.828096 234.377676 
L 234.016372 234.190195 
L 234.204648 234.644334 
L 234.392924 237.10154 
L 234.5812 233.604922 
L 234.769476 234.146296 
L 234.957752 235.635123 
L 235.334304 234.366753 
L 235.522579 234.535899 
L 235.710855 234.142349 
L 235.899131 236.484296 
L 236.463959 235.391071 
L 236.652235 233.997534 
L 236.840511 234.744932 
L 237.028787 234.436717 
L 237.217063 236.09061 
L 237.405339 231.879421 
L 237.593615 234.480679 
L 237.781891 233.075578 
L 237.970167 234.515854 
L 238.158443 234.581734 
L 238.534995 232.765689 
L 238.723271 230.048036 
L 238.911547 235.128144 
L 239.099823 230.408925 
L 239.288099 232.615347 
L 239.476375 231.629481 
L 239.664651 228.516599 
L 239.852926 232.77246 
L 240.229478 229.458568 
L 240.60603 231.641433 
L 240.794306 230.121563 
L 240.982582 235.929322 
L 241.170858 235.429116 
L 241.359134 232.915268 
L 241.54741 232.915567 
L 241.735686 236.157123 
L 241.923962 234.148256 
L 242.112238 235.872201 
L 242.300514 233.681647 
L 242.677066 237.695778 
L 242.865342 235.965449 
L 243.053618 231.751574 
L 243.241894 235.505063 
L 243.43017 232.826166 
L 243.618446 236.163597 
L 243.994997 232.98191 
L 244.183273 235.048459 
L 244.371549 234.916918 
L 244.748101 236.605936 
L 244.936377 236.576398 
L 245.124653 235.091131 
L 245.312929 237.862208 
L 245.501205 235.708354 
L 245.689481 235.593713 
L 246.066033 236.767267 
L 246.442585 232.200017 
L 246.630861 235.869811 
L 246.819137 233.898979 
L 247.007413 233.361827 
L 247.383965 235.780743 
L 247.572241 235.08287 
L 247.760517 233.597088 
L 247.948793 228.387877 
L 248.137069 237.178635 
L 248.325344 235.67364 
L 248.51362 236.870625 
L 248.701896 235.007029 
L 248.890172 235.161768 
L 249.078448 236.141964 
L 249.266724 230.955889 
L 249.455 232.57798 
L 249.643276 236.399174 
L 249.831552 236.483938 
L 250.019828 233.903036 
L 250.208104 236.891604 
L 250.39638 236.274674 
L 250.584656 234.131944 
L 250.772932 237.265658 
L 250.961208 237.33461 
L 251.149484 237.137137 
L 251.33776 237.946311 
L 251.526036 232.568844 
L 251.714312 234.943912 
L 251.902588 235.658733 
L 252.090864 234.045431 
L 252.27914 238.06592 
L 252.467416 235.74701 
L 252.655691 235.719127 
L 253.032243 238.759101 
L 253.220519 234.691173 
L 253.408795 233.939039 
L 253.597071 238.684312 
L 253.785347 236.106834 
L 253.973623 237.700413 
L 254.161899 236.331689 
L 254.350175 237.215492 
L 254.538451 237.312855 
L 254.726727 237.082337 
L 254.915003 237.525709 
L 255.103279 236.463208 
L 255.479831 239.50886 
L 255.668107 237.083932 
L 255.856383 236.354067 
L 256.044659 237.205515 
L 256.232935 239.167844 
L 256.421211 237.737401 
L 256.609487 239.881803 
L 256.797763 238.980507 
L 256.986038 239.443919 
L 257.174314 237.768442 
L 257.36259 237.623467 
L 257.550866 238.59245 
L 257.739142 235.04297 
L 257.927418 236.029161 
L 258.115694 238.979932 
L 258.30397 239.102067 
L 258.492246 238.646051 
L 258.680522 239.488274 
L 258.868798 236.639466 
L 259.24535 237.31279 
L 259.621902 240.47759 
L 259.998454 237.568867 
L 260.18673 237.514024 
L 260.375006 236.62649 
L 260.939834 240.437978 
L 261.12811 234.581214 
L 261.316385 239.634692 
L 261.504661 239.474252 
L 261.692937 237.718131 
L 261.881213 238.961151 
L 262.069489 235.453854 
L 262.446041 239.80983 
L 262.634317 238.848446 
L 262.822593 239.687569 
L 263.010869 239.44279 
L 263.199145 238.247629 
L 263.387421 238.122575 
L 263.575697 239.507552 
L 263.952249 237.033986 
L 264.140525 239.295776 
L 264.328801 239.68385 
L 264.705353 237.692333 
L 264.893629 238.152384 
L 265.081905 237.066626 
L 265.270181 239.205684 
L 265.458457 237.361372 
L 265.646732 237.647359 
L 265.835008 238.584495 
L 266.023284 238.669833 
L 266.21156 240.15948 
L 266.399836 235.848123 
L 266.588112 236.024188 
L 266.776388 237.207729 
L 266.964664 234.540205 
L 267.15294 236.231187 
L 267.341216 235.705274 
L 267.529492 238.073319 
L 267.717768 235.206062 
L 267.906044 234.126192 
L 268.09432 234.037622 
L 268.282596 233.274249 
L 268.659148 239.163498 
L 268.847424 236.111319 
L 269.0357 236.082685 
L 269.412252 237.396882 
L 269.600528 238.09228 
L 269.977079 235.212749 
L 270.165355 239.02526 
L 270.541907 238.811995 
L 270.730183 238.026582 
L 270.918459 238.451434 
L 271.106735 240.051599 
L 271.295011 236.125376 
L 271.483287 236.88182 
L 271.671563 233.521061 
L 271.859839 234.076389 
L 272.048115 239.670025 
L 272.424667 236.899968 
L 272.612943 238.101053 
L 272.801219 237.997706 
L 272.989495 237.039057 
L 273.177771 238.04386 
L 273.366047 238.202962 
L 273.554323 236.204933 
L 273.742599 238.457359 
L 273.930875 239.040831 
L 274.11915 238.554015 
L 274.307426 239.398767 
L 274.683978 237.697068 
L 274.872254 234.81771 
L 275.248806 237.799548 
L 275.437082 237.976013 
L 275.625358 236.616713 
L 275.813634 238.635805 
L 276.00191 239.126929 
L 276.190186 237.281452 
L 276.378462 233.718862 
L 276.566738 238.118768 
L 276.755014 235.619312 
L 276.94329 237.751092 
L 277.131566 237.77881 
L 277.319842 236.006915 
L 277.508118 238.343378 
L 277.696394 237.962735 
L 277.88467 237.923292 
L 278.072946 237.266184 
L 278.449497 237.642208 
L 278.637773 238.55606 
L 278.826049 237.627274 
L 279.014325 233.54506 
L 279.202601 237.429326 
L 279.390877 233.954377 
L 279.579153 233.963986 
L 279.767429 236.328905 
L 279.955705 235.4176 
L 280.143981 238.704355 
L 280.332257 239.744192 
L 280.520533 235.718169 
L 280.708809 237.3668 
L 280.897085 235.194396 
L 281.085361 234.612815 
L 281.273637 236.48245 
L 281.461913 240.143887 
L 282.026741 236.919094 
L 282.403293 240.258142 
L 282.779844 239.422177 
L 282.96812 239.335279 
L 283.344672 240.513913 
L 283.532948 240.037464 
L 283.721224 239.908986 
L 283.9095 237.029037 
L 284.286052 238.018745 
L 284.474328 237.642636 
L 284.85088 239.403189 
L 285.039156 238.45539 
L 285.603984 238.113002 
L 285.980536 240.75622 
L 286.168812 238.360079 
L 286.357088 238.139286 
L 286.545364 235.971158 
L 286.73364 238.440674 
L 286.921916 239.422457 
L 287.110191 239.157756 
L 287.298467 239.775309 
L 287.486743 238.817028 
L 287.863295 238.485936 
L 288.051571 238.784581 
L 288.239847 240.561248 
L 288.428123 235.791946 
L 288.616399 236.866969 
L 288.804675 236.180064 
L 288.992951 238.893926 
L 289.181227 235.654113 
L 289.369503 236.263574 
L 289.557779 237.249618 
L 289.934331 239.787608 
L 290.122607 238.8014 
L 290.310883 238.565472 
L 290.499159 236.85425 
L 290.687435 238.920094 
L 290.875711 238.961424 
L 291.063987 235.647068 
L 291.252262 239.026046 
L 291.440538 239.22858 
L 291.628814 240.746861 
L 291.81709 239.032305 
L 292.005366 239.002263 
L 292.193642 240.503958 
L 292.570194 236.007687 
L 292.75847 238.738476 
L 292.946746 238.016693 
L 293.135022 238.035437 
L 293.323298 237.187393 
L 293.511574 237.90253 
L 293.69985 235.845624 
L 294.264678 238.782143 
L 294.452954 237.60813 
L 294.64123 235.195263 
L 294.829506 238.523331 
L 295.017782 235.184293 
L 295.206058 238.077426 
L 295.394334 238.622599 
L 295.770885 234.93839 
L 296.147437 239.484912 
L 296.335713 238.611375 
L 296.523989 238.467499 
L 296.712265 238.923211 
L 297.088817 237.707025 
L 297.277093 237.396634 
L 297.465369 236.369661 
L 297.653645 231.986494 
L 297.841921 238.089265 
L 298.030197 237.183741 
L 298.218473 239.112027 
L 298.406749 235.303659 
L 298.595025 237.133818 
L 298.783301 236.759068 
L 298.971577 238.69481 
L 299.159853 237.884549 
L 299.348129 238.680643 
L 299.536405 238.208234 
L 299.724681 234.956688 
L 299.912956 236.990601 
L 300.101232 236.534293 
L 300.289508 237.359241 
L 300.477784 237.343188 
L 300.66606 238.657108 
L 300.854336 239.110695 
L 301.042612 236.26085 
L 301.230888 237.932612 
L 301.419164 237.843613 
L 301.60744 240.121328 
L 301.795716 239.712948 
L 301.983992 237.558216 
L 302.172268 237.888815 
L 302.54882 239.953743 
L 302.737096 240.346887 
L 302.925372 238.35237 
L 303.301924 236.343497 
L 303.4902 236.717427 
L 303.678476 239.565139 
L 303.866752 240.15236 
L 304.055028 239.287654 
L 304.243303 240.662547 
L 304.431579 239.155854 
L 304.619855 239.14457 
L 304.808131 239.54462 
L 304.996407 240.384892 
L 305.372959 238.853536 
L 305.561235 239.929835 
L 305.749511 240.33999 
L 305.937787 238.630917 
L 306.126063 239.811042 
L 306.314339 239.028748 
L 306.502615 239.361181 
L 306.690891 237.67166 
L 306.879167 240.125457 
L 307.067443 239.729438 
L 307.255719 239.688098 
L 307.443995 238.120509 
L 307.632271 240.039464 
L 307.820547 240.278076 
L 308.008823 238.23918 
L 308.197099 240.551589 
L 308.385375 238.266246 
L 308.57365 238.20421 
L 308.761926 239.497471 
L 308.950202 239.435998 
L 309.138478 239.517032 
L 309.326754 239.103374 
L 309.51503 237.020258 
L 309.703306 241.127527 
L 309.891582 240.139632 
L 310.079858 237.088391 
L 310.268134 239.315796 
L 310.45641 239.3201 
L 310.644686 240.655074 
L 310.832962 239.278604 
L 311.39779 238.809292 
L 311.774342 240.917485 
L 311.962618 240.692356 
L 312.150894 240.158273 
L 312.527446 237.652129 
L 312.715721 238.968631 
L 312.903997 238.271186 
L 313.092273 239.496977 
L 313.280549 237.372605 
L 313.468825 240.262808 
L 313.657101 240.786421 
L 313.845377 239.146578 
L 314.033653 241.158442 
L 314.221929 240.032909 
L 314.410205 238.145828 
L 314.598481 240.067705 
L 314.786757 239.90696 
L 314.975033 239.23201 
L 315.163309 237.307509 
L 315.728137 240.860156 
L 315.916413 236.861573 
L 316.104689 238.921704 
L 316.292965 238.196897 
L 316.481241 239.306205 
L 316.669517 239.530199 
L 316.857793 240.423712 
L 317.046068 240.29605 
L 317.234344 238.907106 
L 317.610896 240.838556 
L 317.799172 240.352209 
L 317.987448 237.980522 
L 318.175724 238.985422 
L 318.364 240.715731 
L 318.552276 239.146921 
L 318.740552 239.436053 
L 318.928828 240.884449 
L 319.117104 241.056845 
L 319.30538 240.054366 
L 319.681932 241.372369 
L 320.24676 239.420232 
L 320.435036 240.669373 
L 320.623312 240.557428 
L 320.811588 239.843482 
L 320.999864 240.821465 
L 321.18814 239.988621 
L 321.376415 241.081943 
L 321.564691 241.006139 
L 322.129519 240.136513 
L 322.317795 240.88412 
L 322.506071 241.15771 
L 322.694347 240.180646 
L 322.882623 240.053277 
L 323.070899 240.797187 
L 323.447451 240.303071 
L 323.635727 240.73818 
L 323.824003 240.411399 
L 324.012279 239.714146 
L 324.200555 239.769861 
L 324.388831 241.397535 
L 324.765383 240.74302 
L 324.953659 240.764458 
L 325.141935 240.58024 
L 325.330211 240.012219 
L 325.518487 240.844854 
L 325.706762 240.105953 
L 325.895038 238.424147 
L 326.083314 240.31531 
L 326.27159 240.158098 
L 326.459866 240.891114 
L 326.648142 240.808576 
L 326.836418 240.277046 
L 327.024694 240.299222 
L 327.21297 241.060649 
L 327.401246 240.668549 
L 327.589522 240.623155 
L 327.777798 240.404752 
L 327.966074 240.014283 
L 328.15435 240.810627 
L 328.342626 239.030744 
L 328.530902 241.199775 
L 328.907454 240.808929 
L 329.09573 241.295545 
L 329.284006 240.834715 
L 329.472282 241.227449 
L 329.848834 240.455885 
L 330.037109 239.999472 
L 330.225385 240.61768 
L 330.413661 240.614632 
L 330.601937 240.825154 
L 330.790213 240.394384 
L 330.978489 240.654997 
L 331.166765 240.692664 
L 331.355041 240.299165 
L 331.543317 240.571438 
L 331.731593 239.403424 
L 331.919869 241.083071 
L 332.108145 241.007182 
L 332.296421 241.067544 
L 332.484697 240.34748 
L 333.049525 241.620956 
L 333.237801 240.676893 
L 333.614353 241.439115 
L 333.802629 240.100127 
L 333.990905 240.293419 
L 334.17918 240.26647 
L 334.555732 241.149161 
L 334.744008 240.730954 
L 334.932284 241.562106 
L 335.12056 240.820016 
L 335.308836 241.298888 
L 335.497112 240.795098 
L 335.685388 241.615909 
L 335.873664 241.281918 
L 336.06194 240.234789 
L 336.250216 241.406896 
L 336.438492 240.649124 
L 336.626768 241.480444 
L 336.815044 241.522836 
L 337.00332 241.336899 
L 337.191596 240.740849 
L 337.379872 241.251543 
L 337.756424 240.162102 
L 337.9447 241.35303 
L 338.132976 240.731484 
L 338.321252 241.302919 
L 338.697803 240.358295 
L 338.886079 240.23793 
L 339.262631 241.075593 
L 339.450907 240.928917 
L 339.639183 241.256689 
L 339.827459 240.979142 
L 340.015735 241.114661 
L 340.204011 241.390195 
L 340.580563 241.315196 
L 340.768839 240.778501 
L 340.957115 240.971402 
L 341.145391 241.680516 
L 341.333667 240.381274 
L 342.086771 241.498233 
L 342.275047 240.769206 
L 342.463323 240.503277 
L 342.651599 241.33332 
L 342.839874 241.188225 
L 343.02815 240.786837 
L 343.216426 241.161352 
L 343.404702 240.306964 
L 343.592978 240.279025 
L 343.781254 241.123319 
L 343.96953 241.194341 
L 344.157806 240.825133 
L 344.346082 241.547304 
L 344.534358 241.336933 
L 344.722634 240.598653 
L 344.91091 241.467101 
L 345.099186 240.98434 
L 345.287462 241.458922 
L 345.475738 240.204584 
L 346.040566 241.518668 
L 346.228842 241.326094 
L 346.417118 241.379802 
L 346.605394 241.585444 
L 346.79367 241.605845 
L 346.981946 241.201105 
L 347.358497 241.541535 
L 347.546773 241.241339 
L 347.735049 241.58653 
L 347.923325 241.103827 
L 348.111601 241.432745 
L 348.299877 240.859859 
L 348.488153 241.467818 
L 348.676429 241.258052 
L 348.864705 241.520605 
L 349.052981 240.94535 
L 349.241257 241.724085 
L 349.429533 241.283459 
L 349.617809 241.772558 
L 349.806085 241.050999 
L 349.994361 241.152276 
L 350.182637 241.780902 
L 350.370913 241.082509 
L 350.559189 241.409928 
L 350.747465 241.15658 
L 350.935741 241.577847 
L 351.124017 240.72617 
L 351.312293 241.115847 
L 351.500568 241.148487 
L 351.688844 240.612352 
L 352.065396 241.884762 
L 352.253672 241.466084 
L 352.441948 241.487991 
L 352.630224 241.71112 
L 352.8185 241.496369 
L 353.006776 241.02061 
L 353.195052 241.552195 
L 353.383328 241.432544 
L 353.571604 241.75762 
L 353.948156 241.429631 
L 354.136432 241.836711 
L 354.324708 241.47564 
L 354.512984 241.786547 
L 354.889536 241.467693 
L 355.077812 241.909715 
L 355.266088 240.617554 
L 355.454364 241.320938 
L 356.019191 241.691711 
L 356.207467 241.459017 
L 356.395743 241.446519 
L 356.584019 241.674661 
L 356.772295 240.846131 
L 356.960571 241.846498 
L 357.148847 240.934798 
L 357.337123 240.995723 
L 357.525399 241.777315 
L 357.713675 240.846248 
L 357.901951 241.700282 
L 358.278503 241.105739 
L 358.466779 241.615279 
L 358.655055 241.590183 
L 358.843331 240.952633 
L 359.031607 241.66487 
L 359.219883 241.556507 
L 359.408159 241.851868 
L 359.596435 241.397028 
L 359.784711 241.396723 
L 359.972986 240.843295 
L 360.161262 241.533088 
L 360.537814 241.49794 
L 360.72609 241.588217 
L 360.914366 241.128687 
L 361.102642 241.897466 
L 361.290918 241.161992 
L 361.479194 241.440936 
L 361.66747 241.164192 
L 361.855746 241.639613 
L 362.044022 241.139834 
L 362.232298 241.555752 
L 362.797126 241.478044 
L 362.985402 241.517896 
L 363.173678 241.174409 
L 363.361954 241.380405 
L 363.55023 241.830314 
L 363.738506 241.597719 
L 363.926782 241.562112 
L 364.115058 241.406537 
L 364.303333 241.553891 
L 364.491609 240.365178 
L 364.679885 241.630469 
L 365.056437 241.416328 
L 365.432989 241.687316 
L 365.621265 240.922091 
L 365.809541 241.503538 
L 365.997817 241.145437 
L 366.186093 241.17638 
L 366.374369 241.521885 
L 366.562645 241.041508 
L 366.750921 241.775335 
L 366.939197 240.958129 
L 367.127473 241.101913 
L 367.315749 241.70654 
L 367.504025 240.592984 
L 367.692301 241.323989 
L 367.880577 241.324648 
L 368.068853 241.604377 
L 368.257129 241.271669 
L 368.445405 241.529752 
L 368.63368 241.238982 
L 368.821956 241.380005 
L 369.198508 241.182134 
L 369.386784 241.501126 
L 369.763336 241.307639 
L 369.951612 241.457249 
L 370.139888 241.869881 
L 370.328164 241.253857 
L 370.704716 241.682899 
L 370.892992 241.345272 
L 371.269544 241.27539 
L 371.45782 241.890987 
L 372.210924 241.700456 
L 372.3992 241.302387 
L 372.587476 241.763188 
L 372.775752 241.89227 
L 372.964027 241.425801 
L 373.340579 241.43538 
L 373.717131 241.761858 
L 373.905407 241.539534 
L 374.093683 241.820481 
L 374.281959 241.2947 
L 374.846787 241.591891 
L 375.223339 241.609953 
L 375.411615 241.82796 
L 375.599891 241.792372 
L 375.976443 241.502136 
L 376.164719 241.643144 
L 376.352995 241.581721 
L 376.541271 241.695506 
L 376.729547 241.439013 
L 376.917823 240.974812 
L 377.106099 241.687225 
L 377.294374 241.316874 
L 377.48265 241.39708 
L 377.670926 241.70297 
L 378.235754 241.643038 
L 378.42403 241.294475 
L 378.612306 241.60404 
L 378.800582 241.424504 
L 378.988858 240.888039 
L 379.177134 241.362046 
L 379.553686 241.831639 
L 379.741962 241.324927 
L 379.930238 241.692972 
L 380.118514 241.741109 
L 380.30679 241.50308 
L 380.683342 241.920956 
L 380.871618 241.721356 
L 381.24817 241.867348 
L 381.436445 241.698609 
L 381.624721 241.682511 
L 381.812997 241.957943 
L 382.189549 241.380114 
L 382.566101 241.847484 
L 382.754377 241.534737 
L 382.942653 241.636153 
L 383.130929 241.50419 
L 383.319205 241.823141 
L 383.507481 241.526095 
L 383.695757 241.984745 
L 383.884033 241.600677 
L 384.072309 241.745656 
L 384.260585 241.342816 
L 384.448861 241.384784 
L 384.825413 241.795167 
L 385.013689 241.914644 
L 385.390241 241.628235 
L 385.766792 241.708041 
L 385.955068 241.469833 
L 386.143344 241.006088 
L 386.33162 241.815629 
L 386.519896 241.713231 
L 386.708172 241.816655 
L 386.896448 241.299619 
L 387.084724 241.784557 
L 387.273 241.952003 
L 388.026104 241.598756 
L 388.21438 241.900475 
L 388.402656 241.57313 
L 388.779208 241.860097 
L 388.967484 241.047603 
L 389.15576 241.745797 
L 389.532312 241.40515 
L 389.720588 241.449505 
L 389.908864 241.627861 
L 390.097139 241.513501 
L 390.473691 241.877812 
L 390.661967 241.547883 
L 391.226795 241.962322 
L 391.415071 241.767078 
L 391.791623 241.85253 
L 391.979899 241.882563 
L 392.168175 241.729735 
L 392.356451 241.856905 
L 392.544727 241.726834 
L 392.921279 241.712435 
L 393.109555 241.939267 
L 393.297831 241.762619 
L 393.486107 241.40771 
L 393.674383 241.723278 
L 393.862659 241.609767 
L 394.050935 241.846153 
L 394.427486 241.322733 
L 394.615762 241.693855 
L 395.18059 241.813299 
L 395.368866 241.974786 
L 395.557142 241.666539 
L 395.745418 241.723896 
L 395.933694 241.469496 
L 396.12197 241.9034 
L 396.310246 241.703702 
L 396.686798 241.751943 
L 396.875074 241.858815 
L 397.251626 241.775609 
L 397.628178 241.846146 
L 397.816454 241.668977 
L 398.381282 241.918238 
L 398.569558 241.765043 
L 399.134385 241.988334 
L 399.322661 241.865725 
L 399.510937 242.007623 
L 399.887489 241.330335 
L 400.075765 241.328673 
L 400.264041 241.897053 
L 400.452317 241.81955 
L 400.640593 241.584911 
L 400.828869 242.041284 
L 401.017145 241.918871 
L 401.205421 242.00185 
L 401.393697 241.860636 
L 401.581973 242.011224 
L 401.770249 241.859414 
L 401.958525 241.863778 
L 402.146801 241.485403 
L 402.335077 241.940639 
L 402.523353 241.534039 
L 402.711629 241.517307 
L 402.899904 241.807537 
L 403.276456 241.592568 
L 403.464732 241.859641 
L 403.653008 241.784118 
L 403.841284 241.949342 
L 404.217836 241.675739 
L 404.594388 241.940796 
L 404.782664 241.503784 
L 404.97094 241.697757 
L 405.159216 241.670574 
L 405.347492 241.843697 
L 405.91232 241.743551 
L 406.100596 241.902743 
L 406.288872 241.722182 
L 406.477148 241.964049 
L 406.665424 241.833725 
L 406.8537 241.952486 
L 407.041976 241.794443 
L 407.230251 241.365313 
L 407.418527 241.79274 
L 407.606803 241.93207 
L 407.795079 241.778937 
L 407.983355 241.883288 
L 408.359907 241.779744 
L 408.736459 241.952853 
L 408.924735 241.777059 
L 409.113011 241.928201 
L 409.489563 241.158624 
L 409.677839 241.948116 
L 409.866115 241.651803 
L 410.054391 242.007024 
L 410.619219 241.681107 
L 410.807495 242.006095 
L 411.184047 241.591107 
L 411.372323 241.946364 
L 411.560598 241.940996 
L 411.748874 241.425786 
L 411.93715 242.036332 
L 412.125426 241.935692 
L 412.313702 241.591019 
L 412.501978 242.012651 
L 412.87853 241.656313 
L 413.066806 241.750839 
L 413.255082 241.987962 
L 413.631634 241.552444 
L 413.81991 241.769166 
L 414.008186 241.713883 
L 414.196462 241.823925 
L 414.384738 241.486507 
L 414.573014 241.53028 
L 414.76129 241.841255 
L 414.949566 241.587213 
L 415.326118 241.678117 
L 415.514394 241.941923 
L 415.70267 241.713895 
L 415.890945 241.960895 
L 416.267497 241.865682 
L 416.644049 241.972276 
L 416.832325 241.615084 
L 417.020601 241.853918 
L 417.208877 241.750569 
L 417.585429 241.737878 
L 417.773705 241.554415 
L 417.961981 241.867259 
L 418.150257 241.720094 
L 418.338533 241.927769 
L 418.526809 241.828641 
L 418.715085 241.238934 
L 418.903361 241.931206 
L 419.091637 241.946481 
L 419.279913 241.533743 
L 419.468189 241.592275 
L 419.656465 241.928541 
L 420.033017 241.723953 
L 420.221292 241.997964 
L 420.409568 241.774005 
L 420.597844 241.789214 
L 420.78612 241.650155 
L 420.974396 241.924699 
L 421.350948 241.964697 
L 422.104052 241.61018 
L 422.292328 241.936459 
L 422.480604 241.804877 
L 422.857156 241.889544 
L 423.045432 241.738939 
L 423.233708 241.869923 
L 423.421984 241.73384 
L 423.61026 241.816015 
L 423.798536 241.450541 
L 424.175088 241.943462 
L 424.363363 241.567394 
L 424.551639 241.996306 
L 425.116467 241.737195 
L 425.304743 241.952416 
L 425.681295 241.901801 
L 425.869571 242.049652 
L 426.057847 241.611943 
L 426.246123 241.690832 
L 426.434399 242.009772 
L 426.622675 241.62056 
L 426.810951 241.914244 
L 426.999227 241.965261 
L 427.375779 241.408519 
L 427.564055 241.743468 
L 427.752331 241.676589 
L 427.940607 241.957759 
L 428.128883 241.441874 
L 428.317159 241.938403 
L 428.69371 241.93206 
L 428.881986 241.795654 
L 429.446814 241.937416 
L 430.388194 241.916038 
L 430.57647 242.01258 
L 430.764746 241.97484 
L 430.953022 241.625978 
L 431.706126 241.891904 
L 433.400609 241.675481 
L 433.588885 241.93354 
L 433.777161 241.861429 
L 433.965437 242.010125 
L 434.341989 241.732539 
L 434.530265 241.693608 
L 434.718541 241.944108 
L 435.095093 241.593432 
L 435.471645 241.893189 
L 435.659921 241.728966 
L 435.848197 241.932213 
L 436.036473 241.872676 
L 436.224749 241.598281 
L 436.413025 241.959936 
L 436.601301 241.831714 
L 436.789577 241.980929 
L 436.977853 241.867717 
L 437.166129 241.987527 
L 437.354404 241.885335 
L 437.54268 241.98345 
L 437.919232 241.739543 
L 438.107508 241.419219 
L 438.295784 242.012781 
L 438.672336 241.772922 
L 438.860612 241.971248 
L 439.237164 241.687821 
L 439.42544 241.898218 
L 440.178544 241.783116 
L 440.36682 241.984202 
L 441.119924 241.822274 
L 441.3082 241.939949 
L 441.496476 241.857647 
L 441.684751 242.014104 
L 441.873027 241.782969 
L 442.061303 241.802872 
L 442.249579 241.944566 
L 442.814407 241.793948 
L 443.002683 241.589359 
L 443.190959 241.927399 
L 443.379235 241.960896 
L 443.567511 241.73509 
L 443.755787 241.970084 
L 443.944063 241.882222 
L 444.697167 242.017766 
L 444.885443 241.884213 
L 445.450271 241.985594 
L 445.638547 241.978797 
L 445.826823 241.858667 
L 446.203374 242.050129 
L 446.39165 241.8342 
L 446.579926 242.060791 
L 447.144754 241.854481 
L 447.709582 242.073662 
L 447.897858 241.898757 
L 448.086134 241.976602 
L 448.27441 241.84447 
L 448.462686 241.98697 
L 448.650962 241.749008 
L 449.027514 241.990626 
L 449.21579 241.923404 
L 449.780618 241.983536 
L 450.157169 241.892364 
L 450.345445 241.690907 
L 450.533721 242.00015 
L 450.910273 242.046474 
L 451.098549 241.928888 
L 451.475101 242.042886 
L 451.663377 242.007397 
L 451.851653 241.691793 
L 452.416481 242.025209 
L 453.357861 241.890429 
L 453.546137 242.070879 
L 453.922689 241.773547 
L 454.299241 241.922543 
L 455.052344 241.800653 
L 455.428896 241.994283 
L 455.617172 242.017605 
L 455.805448 241.83775 
L 456.558552 242.031759 
L 456.746828 241.823465 
L 457.12338 241.897442 
L 457.311656 241.954564 
L 457.688208 241.763977 
L 457.876484 241.926255 
L 458.06476 241.723627 
L 458.253036 242.013968 
L 458.817863 241.955272 
L 459.947519 241.899846 
L 460.135795 242.018201 
L 460.512347 241.777746 
L 460.700623 241.924791 
L 460.888899 241.914056 
L 461.265451 242.0341 
L 461.830279 241.896628 
L 462.206831 241.982267 
L 462.395107 241.872681 
L 462.771659 242.013453 
L 463.14821 241.952158 
L 463.713038 242.051056 
L 463.901314 241.857034 
L 464.08959 241.997086 
L 466.160626 241.802441 
L 466.348902 242.055968 
L 466.725454 241.888391 
L 466.91373 241.878474 
L 467.102006 242.02476 
L 467.855109 241.987613 
L 468.231661 241.982853 
L 468.419937 241.778063 
L 468.608213 241.937678 
L 468.796489 241.832568 
L 468.984765 241.994424 
L 469.173041 241.912546 
L 469.361317 242.022136 
L 469.737869 241.953196 
L 469.926145 242.01507 
L 470.114421 241.808191 
L 470.302697 241.961969 
L 470.867525 241.82442 
L 471.244077 241.973129 
L 471.432353 241.947276 
L 471.808904 242.035898 
L 471.99718 241.706312 
L 472.373732 241.929429 
L 472.750284 242.027587 
L 473.126836 241.835916 
L 473.315112 242.025412 
L 473.503388 241.861555 
L 473.87994 242.040828 
L 474.068216 241.900737 
L 474.256492 242.068295 
L 474.444768 241.928301 
L 474.633044 242.027003 
L 475.009596 241.860394 
L 475.197872 242.02518 
L 475.386148 241.833505 
L 475.574424 242.089974 
L 475.7627 241.840602 
L 475.950975 241.979376 
L 476.139251 241.847186 
L 476.327527 242.027085 
L 477.268907 241.86419 
L 477.457183 242.03148 
L 477.645459 241.915566 
L 478.210287 241.985257 
L 479.339943 242.029832 
L 480.093047 242.00691 
L 481.410978 242.0654 
L 481.599254 241.906964 
L 481.78753 241.976212 
L 481.975806 241.889342 
L 482.164082 242.018117 
L 482.917186 241.762818 
L 483.105462 242.006305 
L 483.293738 242.002955 
L 483.482014 241.84267 
L 483.858566 242.063786 
L 484.235118 241.705026 
L 484.423394 242.037777 
L 484.611669 242.065745 
L 484.799945 241.859453 
L 485.176497 242.082415 
L 485.364773 241.82047 
L 485.553049 242.00325 
L 489.318568 241.941272 
L 489.506844 242.068375 
L 490.071672 241.960341 
L 490.259948 242.051597 
L 490.448224 241.894202 
L 491.013052 241.962789 
L 491.201328 241.915916 
L 491.57788 242.040993 
L 492.51926 241.98859 
L 492.707536 241.812838 
L 493.272363 242.048253 
L 493.460639 241.864483 
L 493.648915 242.054142 
L 494.402019 241.92116 
L 494.590295 242.016703 
L 494.778571 241.861533 
L 495.155123 241.980935 
L 495.343399 241.838248 
L 495.531675 242.052522 
L 496.284779 241.9884 
L 496.473055 242.05479 
L 496.849607 241.945837 
L 497.226159 242.063648 
L 497.414434 241.963934 
L 497.60271 242.037153 
L 497.790986 241.907444 
L 498.355814 242.001668 
L 498.732366 241.949585 
L 498.920642 242.03737 
L 499.108918 241.833686 
L 499.48547 242.046524 
L 500.050298 242.075839 
L 500.42685 242.023867 
L 501.556506 241.955372 
L 501.744781 242.08906 
L 501.933057 241.910035 
L 502.121333 242.0502 
L 502.309609 241.896833 
L 502.497885 241.996623 
L 502.874437 241.849816 
L 503.062713 242.046494 
L 504.380645 242.025148 
L 504.568921 242.034591 
L 504.757197 241.928105 
L 504.945473 242.062982 
L 506.075128 241.975429 
L 506.45168 242.027628 
L 506.828232 241.98877 
L 508.710992 242.046919 
L 509.087544 242.052392 
L 509.652372 242.032525 
L 510.2172 242.025094 
L 510.782027 242.06925 
L 511.158579 241.9866 
L 511.723407 241.990122 
L 511.911683 241.840558 
L 512.099959 242.077772 
L 512.476511 242.003892 
L 513.417891 242.029273 
L 513.606167 241.921799 
L 514.170995 242.007369 
L 515.488926 242.047911 
L 515.677202 241.95156 
L 516.24203 242.060306 
L 516.430306 241.900528 
L 516.806858 242.088841 
L 516.995134 241.969658 
L 518.12479 242.068805 
L 518.689618 242.006695 
L 518.877893 242.055652 
L 519.066169 241.940127 
L 519.630997 242.036905 
L 519.819273 241.883912 
L 520.007549 242.02795 
L 520.384101 241.972684 
L 520.948929 242.097869 
L 521.325481 242.050552 
L 521.702033 242.035015 
L 521.890309 242.090302 
L 522.078585 241.99026 
L 522.266861 242.080384 
L 522.455137 242.01239 
L 522.643413 242.068838 
L 522.831689 241.926115 
L 523.019965 242.059545 
L 523.396516 241.812503 
L 523.584792 242.040189 
L 523.773068 241.976226 
L 523.961344 242.071751 
L 524.14962 241.960263 
L 524.526172 242.087427 
L 525.091 241.873265 
L 525.467552 242.085341 
L 526.03238 242.061372 
L 526.220656 241.870192 
L 526.597208 242.030858 
L 527.162036 241.98395 
L 527.350312 241.861059 
L 527.915139 242.085568 
L 528.291691 241.895282 
L 528.479967 242.050581 
L 528.856519 241.930108 
L 529.044795 242.049032 
L 529.609623 241.898195 
L 529.797899 242.010398 
L 529.986175 241.853058 
L 530.174451 242.036959 
L 530.362727 241.885241 
L 530.739279 242.049336 
L 531.304107 241.965233 
L 531.492383 242.072814 
L 531.680659 241.979886 
L 531.868934 242.030596 
L 532.245486 241.919261 
L 532.433762 242.069731 
L 533.751694 242.000197 
L 534.128246 242.056208 
L 534.316522 241.874882 
L 534.88135 242.082362 
L 535.069626 241.906547 
L 535.446178 242.060074 
L 535.82273 241.923022 
L 536.011006 242.007098 
L 536.387557 241.943809 
L 536.764109 242.015952 
L 536.952385 241.914119 
L 537.140661 242.00175 
L 537.328937 241.895035 
L 537.705489 242.04522 
L 538.458593 242.045068 
L 538.646869 241.953952 
L 539.211697 242.042517 
L 539.964801 242.036594 
L 540.153077 241.866422 
L 540.341352 242.018193 
L 540.529628 241.960238 
L 540.717904 242.065993 
L 541.094456 241.989253 
L 541.471008 242.031224 
L 542.035836 242.011871 
L 542.78894 241.945201 
L 542.977216 241.881153 
L 543.165492 242.03863 
L 543.542044 242.068602 
L 543.73032 241.823019 
L 544.106872 241.978359 
L 544.295148 242.079849 
L 544.483424 241.92856 
L 544.671699 242.028252 
L 545.048251 242.003372 
L 545.801355 242.052717 
L 546.366183 241.986533 
L 546.931011 242.072817 
L 547.307563 241.982641 
L 547.495839 242.088112 
L 547.684115 241.943643 
L 548.060667 242.073882 
L 548.437219 242.04141 
L 549.002046 241.949574 
L 549.378598 242.053165 
L 550.319978 241.998813 
L 550.884806 242.028857 
L 551.073082 241.948514 
L 551.261358 242.06119 
L 552.202738 241.981174 
L 552.57929 242.003955 
L 552.767566 241.930202 
L 553.144118 242.040177 
L 553.708945 241.960005 
L 553.897221 242.056401 
L 554.838601 241.961166 
L 556.909637 241.97916 
L 557.097913 241.837958 
L 557.474465 242.06251 
L 558.415844 241.969517 
L 558.792396 242.077051 
L 558.980672 241.888641 
L 559.168948 242.063496 
L 559.5455 242.05841 
L 560.110328 242.036952 
L 560.48688 242.051206 
L 562.746191 242.04112 
L 563.122743 242.016209 
L 563.687571 241.993888 
L 563.875847 242.097083 
L 564.064123 242.006539 
L 564.252399 242.064726 
L 564.628951 242.038575 
L 567.076538 242.055827 
L 567.641366 242.01196 
L 568.959298 242.070537 
L 569.33585 242.057615 
L 573.101369 242.056303 
L 573.666197 242.010248 
L 574.042749 242.023138 
L 574.419301 242.087418 
L 574.795852 241.996888 
L 574.984128 242.096493 
L 575.36068 242.031631 
L 575.925508 242.055646 
L 576.113784 241.966877 
L 576.490336 242.017188 
L 577.808268 241.994601 
L 589.293101 242.063208 
L 589.481377 241.952314 
L 589.857929 242.067641 
L 590.046205 241.986756 
L 590.611033 242.04631 
L 596.824139 242.074762 
L 597.012415 241.888847 
L 597.577243 242.029589 
L 598.330347 242.052113 
L 598.706899 242.02733 
L 599.648279 242.04673 
L 600.024831 242.042358 
L 600.589658 242.000592 
L 601.154486 242.061645 
L 601.90759 242.023596 
L 605.673109 242.108284 
L 605.861385 242.017685 
L 606.237937 242.082361 
L 606.614489 242.029141 
L 606.802765 242.114115 
L 606.991041 242.023939 
L 607.367593 242.054321 
L 607.932421 241.993774 
L 608.497249 242.083643 
L 608.685525 242.061237 
L 608.873801 241.923734 
L 609.250352 242.043384 
L 609.81518 242.076905 
L 611.321388 242.011413 
L 611.69794 242.053467 
L 613.204148 241.975704 
L 613.392423 242.0996 
L 613.768975 241.997052 
L 614.522079 242.062237 
L 614.898631 242.016485 
L 615.463459 242.077698 
L 615.840011 242.000138 
L 616.028287 242.077192 
L 616.404839 242.023553 
L 617.346219 242.061676 
L 618.852426 242.089545 
L 619.040702 241.964284 
L 619.793806 242.05806 
L 620.735186 242.075528 
L 621.300014 242.019454 
L 635.608986 242.052406 
L 636.173814 242.052368 
L 636.926918 242.028953 
L 637.115194 241.948945 
L 637.491746 242.096583 
L 637.868298 242.079459 
L 638.433126 242.046976 
L 638.997954 242.054434 
L 639.751057 242.022337 
L 640.127609 242.064872 
L 640.504161 242.044331 
L 641.068989 242.053826 
L 644.646232 242.06402 
L 645.775888 242.025608 
L 646.340716 242.073547 
L 647.09382 242.077472 
L 648.035199 242.092154 
L 649.729683 242.082062 
L 649.917959 242.019898 
L 650.482787 242.091515 
L 651.988994 242.076617 
L 652.930374 242.100517 
L 653.11865 242.008122 
L 653.683478 242.066996 
L 654.813134 242.055583 
L 666.486243 242.031011 
L 667.051071 242.059363 
L 668.745555 242.07892 
L 669.310382 242.052875 
L 696.986948 242.078794 
L 697.551776 242.07879 
L 698.116604 242.076738 
L 705.27109 242.029571 
L 705.647642 242.054865 
L 707.906953 242.086219 
L 708.283505 242.052232 
L 709.789713 242.021494 
L 710.166265 242.053694 
L 710.731093 242.057848 
L 712.613852 242.095388 
L 713.366956 242.061891 
L 718.262131 242.06618 
L 718.638683 242.072583 
L 719.015235 242.068187 
L 720.333167 242.042104 
L 721.462822 242.085311 
L 723.345582 242.030763 
L 723.91041 241.926087 
L 724.286962 242.080958 
L 725.228341 242.047714 
L 727.675929 242.034066 
L 728.993861 242.081503 
L 729.182137 241.977718 
L 729.558688 242.042429 
L 730.123516 242.047963 
L 731.064896 242.066671 
L 731.818 242.082499 
L 735.018691 242.060244 
L 735.395243 242.086613 
L 736.336623 242.051219 
L 737.842831 242.07189 
L 738.78421 242.016103 
L 738.972486 242.081862 
L 739.160762 241.974884 
L 739.537314 242.097387 
L 743.491109 242.077876 
L 744.055937 242.058447 
L 744.997317 242.079117 
L 746.6918 242.061007 
L 747.068352 242.091022 
L 747.256628 242.011177 
L 747.63318 242.078929 
L 748.386284 242.096218 
L 750.833871 242.049399 
L 751.210423 242.080494 
L 751.398699 241.997564 
L 751.775251 242.075737 
L 754.034563 242.09612 
L 754.411115 242.019013 
L 754.975943 242.102677 
L 755.164218 241.987939 
L 755.54077 242.069562 
L 761.565601 242.089642 
L 762.130429 242.040619 
L 762.883533 242.091894 
L 764.013188 242.031241 
L 764.38974 242.050736 
L 765.142844 242.086526 
L 773.803538 242.090114 
L 773.991814 242.017766 
L 774.368366 242.087621 
L 776.815953 242.025514 
L 777.380781 242.096292 
L 779.263541 242.055655 
L 781.1463 242.058842 
L 784.535268 242.056036 
L 786.041475 242.053825 
L 788.112511 242.086398 
L 788.489063 242.059396 
L 789.430442 242.083216 
L 790.371822 242.097232 
L 790.93665 242.112277 
L 793.007686 242.053384 
L 793.572514 242.094853 
L 795.266997 242.07676 
L 798.467688 242.05525 
L 798.655964 242.015107 
L 799.032516 242.077736 
L 801.291828 242.088884 
L 802.044932 242.033165 
L 802.609759 242.058426 
L 805.998727 242.085867 
L 806.563555 242.07255 
L 807.316658 242.051583 
L 808.258038 242.091165 
L 808.63459 242.094572 
L 809.57597 242.072718 
L 810.140798 242.067785 
L 813.341489 242.07598 
L 813.718041 242.024161 
L 816.730456 242.064564 
L 816.918732 242.01725 
L 817.295284 242.091293 
L 927.436718 242.026238 
L 927.624994 242.112019 
L 928.189822 242.088706 
L 931.390513 242.070546 
L 931.767065 242.032235 
L 937.038792 242.078753 
L 937.415344 242.070943 
L 938.168448 242.060596 
L 940.051207 242.068844 
L 940.616035 242.057504 
L 941.933967 242.069063 
L 942.310519 241.983733 
L 942.687071 242.047142 
L 947.582246 242.07993 
L 947.770522 242.015139 
L 948.335349 242.112243 
L 948.711901 242.057385 
L 949.841557 242.104051 
L 951.724317 242.103376 
L 955.678112 242.063909 
L 956.431216 242.078803 
L 956.996043 242.068061 
L 957.937423 242.09394 
L 958.502251 241.948977 
L 958.878803 242.073346 
L 959.820183 242.077601 
L 961.32639 242.003248 
L 961.514666 242.086198 
L 961.891218 242.075544 
L 962.456046 242.084034 
L 962.644322 241.999967 
L 962.832598 242.093846 
L 963.20915 242.055789 
L 964.15053 242.016581 
L 964.338806 242.108668 
L 965.09191 242.059006 
L 966.221565 242.057654 
L 966.598117 242.071586 
L 967.539497 242.072459 
L 968.104325 242.069485 
L 969.045705 242.057118 
L 969.422257 242.06096 
L 969.798808 242.071967 
L 970.363636 242.020523 
L 970.363636 242.020523 
" style="fill:none;stroke:#1f77b4;stroke-linecap:square;stroke-width:1.5;"/>
   </g>
   <g id="patch_3">
    <path d="M 180 252 
L 180 34.56 
" style="fill:none;stroke:#000000;stroke-linecap:square;stroke-linejoin:miter;stroke-width:0.8;"/>
   </g>
   <g id="patch_4">
    <path d="M 1008 252 
L 1008 34.56 
" style="fill:none;stroke:#000000;stroke-linecap:square;stroke-linejoin:miter;stroke-width:0.8;"/>
   </g>
   <g id="patch_5">
    <path d="M 180 252 
L 1008 252 
" style="fill:none;stroke:#000000;stroke-linecap:square;stroke-linejoin:miter;stroke-width:0.8;"/>
   </g>
   <g id="patch_6">
    <path d="M 180 34.56 
L 1008 34.56 
" style="fill:none;stroke:#000000;stroke-linecap:square;stroke-linejoin:miter;stroke-width:0.8;"/>
   </g>
   <g id="legend_1">
    <g id="PathCollection_2">
     <g>
      <use style="fill:#ff0000;stroke:#ff0000;" x="1085.8" xlink:href="#m66135fdae0" y="56.745312"/>
     </g>
    </g>
    <g id="text_10">
     <!-- &gt; mean + 3SD -->
     <defs>
      <path d="M 52.875 31.296875 
L 5.46875 11.03125 
L 5.46875 19.78125 
L 43.015625 35.359375 
L 5.46875 50.78125 
L 5.46875 59.515625 
L 52.875 39.5 
z
" id="ArialMT-62"/>
      <path d="M 25.046875 11.578125 
L 25.046875 31.203125 
L 5.5625 31.203125 
L 5.5625 39.40625 
L 25.046875 39.40625 
L 25.046875 58.890625 
L 33.34375 58.890625 
L 33.34375 39.40625 
L 52.828125 39.40625 
L 52.828125 31.203125 
L 33.34375 31.203125 
L 33.34375 11.578125 
z
" id="ArialMT-43"/>
      <path d="M 4.203125 18.890625 
L 12.984375 20.0625 
Q 14.5 12.59375 18.140625 9.296875 
Q 21.78125 6 27 6 
Q 33.203125 6 37.46875 10.296875 
Q 41.75 14.59375 41.75 20.953125 
Q 41.75 27 37.796875 30.921875 
Q 33.84375 34.859375 27.734375 34.859375 
Q 25.25 34.859375 21.53125 33.890625 
L 22.515625 41.609375 
Q 23.390625 41.5 23.921875 41.5 
Q 29.546875 41.5 34.03125 44.421875 
Q 38.53125 47.359375 38.53125 53.46875 
Q 38.53125 58.296875 35.25 61.46875 
Q 31.984375 64.65625 26.8125 64.65625 
Q 21.6875 64.65625 18.265625 61.421875 
Q 14.84375 58.203125 13.875 51.765625 
L 5.078125 53.328125 
Q 6.6875 62.15625 12.390625 67.015625 
Q 18.109375 71.875 26.609375 71.875 
Q 32.46875 71.875 37.390625 69.359375 
Q 42.328125 66.84375 44.9375 62.5 
Q 47.5625 58.15625 47.5625 53.265625 
Q 47.5625 48.640625 45.0625 44.828125 
Q 42.578125 41.015625 37.703125 38.765625 
Q 44.046875 37.3125 47.5625 32.6875 
Q 51.078125 28.078125 51.078125 21.140625 
Q 51.078125 11.765625 44.234375 5.25 
Q 37.40625 -1.265625 26.953125 -1.265625 
Q 17.53125 -1.265625 11.296875 4.34375 
Q 5.078125 9.96875 4.203125 18.890625 
z
" id="ArialMT-51"/>
      <path d="M 4.5 23 
L 13.421875 23.78125 
Q 14.0625 18.40625 16.375 14.96875 
Q 18.703125 11.53125 23.578125 9.40625 
Q 28.46875 7.28125 34.578125 7.28125 
Q 39.984375 7.28125 44.140625 8.890625 
Q 48.296875 10.5 50.3125 13.296875 
Q 52.34375 16.109375 52.34375 19.4375 
Q 52.34375 22.796875 50.390625 25.3125 
Q 48.4375 27.828125 43.953125 29.546875 
Q 41.0625 30.671875 31.203125 33.03125 
Q 21.34375 35.40625 17.390625 37.5 
Q 12.25 40.1875 9.734375 44.15625 
Q 7.234375 48.140625 7.234375 53.078125 
Q 7.234375 58.5 10.296875 63.203125 
Q 13.375 67.921875 19.28125 70.359375 
Q 25.203125 72.796875 32.421875 72.796875 
Q 40.375 72.796875 46.453125 70.234375 
Q 52.546875 67.671875 55.8125 62.6875 
Q 59.078125 57.71875 59.328125 51.421875 
L 50.25 50.734375 
Q 49.515625 57.515625 45.28125 60.984375 
Q 41.0625 64.453125 32.8125 64.453125 
Q 24.21875 64.453125 20.28125 61.296875 
Q 16.359375 58.15625 16.359375 53.71875 
Q 16.359375 49.859375 19.140625 47.359375 
Q 21.875 44.875 33.421875 42.265625 
Q 44.96875 39.65625 49.265625 37.703125 
Q 55.515625 34.8125 58.484375 30.390625 
Q 61.46875 25.984375 61.46875 20.21875 
Q 61.46875 14.5 58.203125 9.4375 
Q 54.9375 4.390625 48.796875 1.578125 
Q 42.671875 -1.21875 35.015625 -1.21875 
Q 25.296875 -1.21875 18.71875 1.609375 
Q 12.15625 4.4375 8.421875 10.125 
Q 4.6875 15.828125 4.5 23 
z
" id="ArialMT-83"/>
      <path d="M 7.71875 0 
L 7.71875 71.578125 
L 32.375 71.578125 
Q 40.71875 71.578125 45.125 70.5625 
Q 51.265625 69.140625 55.609375 65.4375 
Q 61.28125 60.640625 64.078125 53.1875 
Q 66.890625 45.75 66.890625 36.1875 
Q 66.890625 28.03125 64.984375 21.734375 
Q 63.09375 15.4375 60.109375 11.296875 
Q 57.125 7.171875 53.578125 4.796875 
Q 50.046875 2.4375 45.046875 1.21875 
Q 40.046875 0 33.546875 0 
z
M 17.1875 8.453125 
L 32.46875 8.453125 
Q 39.546875 8.453125 43.578125 9.765625 
Q 47.609375 11.078125 50 13.484375 
Q 53.375 16.84375 55.25 22.53125 
Q 57.125 28.21875 57.125 36.328125 
Q 57.125 47.5625 53.4375 53.59375 
Q 49.75 59.625 44.484375 61.671875 
Q 40.671875 63.140625 32.234375 63.140625 
L 17.1875 63.140625 
z
" id="ArialMT-68"/>
     </defs>
     <g transform="translate(1132.6 63.570312)scale(0.26 -0.26)">
      <use xlink:href="#ArialMT-62"/>
      <use x="58.398438" xlink:href="#ArialMT-32"/>
      <use x="86.181641" xlink:href="#ArialMT-109"/>
      <use x="169.482422" xlink:href="#ArialMT-101"/>
      <use x="225.097656" xlink:href="#ArialMT-97"/>
      <use x="280.712891" xlink:href="#ArialMT-110"/>
      <use x="336.328125" xlink:href="#ArialMT-32"/>
      <use x="364.111328" xlink:href="#ArialMT-43"/>
      <use x="422.509766" xlink:href="#ArialMT-32"/>
      <use x="450.292969" xlink:href="#ArialMT-51"/>
      <use x="505.908203" xlink:href="#ArialMT-83"/>
      <use x="572.607422" xlink:href="#ArialMT-68"/>
     </g>
    </g>
   </g>
  </g>
 </g>
 <defs>
  <clipPath id="p5e02812627">
   <rect height="217.44" width="828" x="180" y="34.56"/>
  </clipPath>
 </defs>
</svg>
