<?xml version="1.0" encoding="utf-8" standalone="no"?>
<!DOCTYPE svg PUBLIC "-//W3C//DTD SVG 1.1//EN"
  "http://www.w3.org/Graphics/SVG/1.1/DTD/svg11.dtd">
<!-- Created with matplotlib (https://matplotlib.org/) -->
<svg height="288pt" version="1.1" viewBox="0 0 1440 288" width="1440pt" xmlns="http://www.w3.org/2000/svg" xmlns:xlink="http://www.w3.org/1999/xlink">
 <defs>
  <style type="text/css">
*{stroke-linecap:butt;stroke-linejoin:round;}
  </style>
 </defs>
 <g id="figure_1">
  <g id="patch_1">
   <path d="M 0 288 
L 1440 288 
L 1440 0 
L 0 0 
z
" style="fill:#ffffff;"/>
  </g>
  <g id="axes_1">
   <g id="patch_2">
    <path d="M 180 252 
L 1008 252 
L 1008 34.56 
L 180 34.56 
z
" style="fill:#ffffff;"/>
   </g>
   <g id="PathCollection_1">
    <defs>
     <path d="M 0 3 
C 0.795609 3 1.55874 2.683901 2.12132 2.12132 
C 2.683901 1.55874 3 0.795609 3 0 
C 3 -0.795609 2.683901 -1.55874 2.12132 -2.12132 
C 1.55874 -2.683901 0.795609 -3 0 -3 
C -0.795609 -3 -1.55874 -2.683901 -2.12132 -2.12132 
C -2.683901 -1.55874 -3 -0.795609 -3 0 
C -3 0.795609 -2.683901 1.55874 -2.12132 2.12132 
C -1.55874 2.683901 -0.795609 3 0 3 
z
" id="m3fcef1fe20" style="stroke:#ff0000;"/>
    </defs>
    <g clip-path="url(#pc2e86442dd)">
     <use style="fill:#ff0000;stroke:#ff0000;" x="217.636364" xlink:href="#m3fcef1fe20" y="44.443636"/>
     <use style="fill:#ff0000;stroke:#ff0000;" x="217.82464" xlink:href="#m3fcef1fe20" y="230.933904"/>
     <use style="fill:#ff0000;stroke:#ff0000;" x="218.201192" xlink:href="#m3fcef1fe20" y="220.695746"/>
     <use style="fill:#ff0000;stroke:#ff0000;" x="218.389467" xlink:href="#m3fcef1fe20" y="213.542237"/>
     <use style="fill:#ff0000;stroke:#ff0000;" x="218.577743" xlink:href="#m3fcef1fe20" y="211.371733"/>
     <use style="fill:#ff0000;stroke:#ff0000;" x="218.766019" xlink:href="#m3fcef1fe20" y="224.479837"/>
     <use style="fill:#ff0000;stroke:#ff0000;" x="218.954295" xlink:href="#m3fcef1fe20" y="228.40772"/>
     <use style="fill:#ff0000;stroke:#ff0000;" x="219.142571" xlink:href="#m3fcef1fe20" y="231.427094"/>
    </g>
   </g>
   <g id="matplotlib.axis_1">
    <g id="xtick_1">
     <g id="line2d_1">
      <path clip-path="url(#pc2e86442dd)" d="M 217.636364 252 
L 217.636364 34.56 
" style="fill:none;stroke:#b0b0b0;stroke-linecap:square;stroke-width:0.8;"/>
     </g>
     <g id="line2d_2">
      <defs>
       <path d="M 0 0 
L 0 3.5 
" id="mb2d2ecb864" style="stroke:#000000;stroke-width:0.8;"/>
      </defs>
      <g>
       <use style="stroke:#000000;stroke-width:0.8;" x="217.636364" xlink:href="#mb2d2ecb864" y="252"/>
      </g>
     </g>
     <g id="text_1">
      <!-- 0 -->
      <defs>
       <path d="M 4.15625 35.296875 
Q 4.15625 48 6.765625 55.734375 
Q 9.375 63.484375 14.515625 67.671875 
Q 19.671875 71.875 27.484375 71.875 
Q 33.25 71.875 37.59375 69.546875 
Q 41.9375 67.234375 44.765625 62.859375 
Q 47.609375 58.5 49.21875 52.21875 
Q 50.828125 45.953125 50.828125 35.296875 
Q 50.828125 22.703125 48.234375 14.96875 
Q 45.65625 7.234375 40.5 3 
Q 35.359375 -1.21875 27.484375 -1.21875 
Q 17.140625 -1.21875 11.234375 6.203125 
Q 4.15625 15.140625 4.15625 35.296875 
z
M 13.1875 35.296875 
Q 13.1875 17.671875 17.3125 11.828125 
Q 21.4375 6 27.484375 6 
Q 33.546875 6 37.671875 11.859375 
Q 41.796875 17.71875 41.796875 35.296875 
Q 41.796875 52.984375 37.671875 58.78125 
Q 33.546875 64.59375 27.390625 64.59375 
Q 21.34375 64.59375 17.71875 59.46875 
Q 13.1875 52.9375 13.1875 35.296875 
z
" id="ArialMT-48"/>
      </defs>
      <g transform="translate(210.407145 277.610313)scale(0.26 -0.26)">
       <use xlink:href="#ArialMT-48"/>
      </g>
     </g>
    </g>
    <g id="xtick_2">
     <g id="line2d_3">
      <path clip-path="url(#pc2e86442dd)" d="M 594.188276 252 
L 594.188276 34.56 
" style="fill:none;stroke:#b0b0b0;stroke-linecap:square;stroke-width:0.8;"/>
     </g>
     <g id="line2d_4">
      <g>
       <use style="stroke:#000000;stroke-width:0.8;" x="594.188276" xlink:href="#mb2d2ecb864" y="252"/>
      </g>
     </g>
     <g id="text_2">
      <!-- 2000 -->
      <defs>
       <path d="M 50.34375 8.453125 
L 50.34375 0 
L 3.03125 0 
Q 2.9375 3.171875 4.046875 6.109375 
Q 5.859375 10.9375 9.828125 15.625 
Q 13.8125 20.3125 21.34375 26.46875 
Q 33.015625 36.03125 37.109375 41.625 
Q 41.21875 47.21875 41.21875 52.203125 
Q 41.21875 57.421875 37.46875 61 
Q 33.734375 64.59375 27.734375 64.59375 
Q 21.390625 64.59375 17.578125 60.78125 
Q 13.765625 56.984375 13.71875 50.25 
L 4.6875 51.171875 
Q 5.609375 61.28125 11.65625 66.578125 
Q 17.71875 71.875 27.9375 71.875 
Q 38.234375 71.875 44.234375 66.15625 
Q 50.25 60.453125 50.25 52 
Q 50.25 47.703125 48.484375 43.546875 
Q 46.734375 39.40625 42.65625 34.8125 
Q 38.578125 30.21875 29.109375 22.21875 
Q 21.1875 15.578125 18.9375 13.203125 
Q 16.703125 10.84375 15.234375 8.453125 
z
" id="ArialMT-50"/>
      </defs>
      <g transform="translate(565.271401 277.610313)scale(0.26 -0.26)">
       <use xlink:href="#ArialMT-50"/>
       <use x="55.615234" xlink:href="#ArialMT-48"/>
       <use x="111.230469" xlink:href="#ArialMT-48"/>
       <use x="166.845703" xlink:href="#ArialMT-48"/>
      </g>
     </g>
    </g>
    <g id="xtick_3">
     <g id="line2d_5">
      <path clip-path="url(#pc2e86442dd)" d="M 970.740188 252 
L 970.740188 34.56 
" style="fill:none;stroke:#b0b0b0;stroke-linecap:square;stroke-width:0.8;"/>
     </g>
     <g id="line2d_6">
      <g>
       <use style="stroke:#000000;stroke-width:0.8;" x="970.740188" xlink:href="#mb2d2ecb864" y="252"/>
      </g>
     </g>
     <g id="text_3">
      <!-- 4000 -->
      <defs>
       <path d="M 32.328125 0 
L 32.328125 17.140625 
L 1.265625 17.140625 
L 1.265625 25.203125 
L 33.9375 71.578125 
L 41.109375 71.578125 
L 41.109375 25.203125 
L 50.78125 25.203125 
L 50.78125 17.140625 
L 41.109375 17.140625 
L 41.109375 0 
z
M 32.328125 25.203125 
L 32.328125 57.46875 
L 9.90625 25.203125 
z
" id="ArialMT-52"/>
      </defs>
      <g transform="translate(941.823313 277.610313)scale(0.26 -0.26)">
       <use xlink:href="#ArialMT-52"/>
       <use x="55.615234" xlink:href="#ArialMT-48"/>
       <use x="111.230469" xlink:href="#ArialMT-48"/>
       <use x="166.845703" xlink:href="#ArialMT-48"/>
      </g>
     </g>
    </g>
    <g id="text_4">
     <!-- # sample -->
     <defs>
      <path d="M 5.03125 -1.21875 
L 9.28125 19.578125 
L 1.03125 19.578125 
L 1.03125 26.859375 
L 10.75 26.859375 
L 14.359375 44.578125 
L 1.03125 44.578125 
L 1.03125 51.859375 
L 15.828125 51.859375 
L 20.0625 72.796875 
L 27.390625 72.796875 
L 23.140625 51.859375 
L 38.53125 51.859375 
L 42.78125 72.796875 
L 50.140625 72.796875 
L 45.90625 51.859375 
L 54.34375 51.859375 
L 54.34375 44.578125 
L 44.4375 44.578125 
L 40.765625 26.859375 
L 54.34375 26.859375 
L 54.34375 19.578125 
L 39.3125 19.578125 
L 35.0625 -1.21875 
L 27.734375 -1.21875 
L 31.9375 19.578125 
L 16.609375 19.578125 
L 12.359375 -1.21875 
z
M 18.0625 26.859375 
L 33.40625 26.859375 
L 37.0625 44.578125 
L 21.6875 44.578125 
z
" id="ArialMT-35"/>
      <path id="ArialMT-32"/>
      <path d="M 3.078125 15.484375 
L 11.765625 16.84375 
Q 12.5 11.625 15.84375 8.84375 
Q 19.1875 6.0625 25.203125 6.0625 
Q 31.25 6.0625 34.171875 8.515625 
Q 37.109375 10.984375 37.109375 14.3125 
Q 37.109375 17.28125 34.515625 19 
Q 32.71875 20.171875 25.53125 21.96875 
Q 15.875 24.421875 12.140625 26.203125 
Q 8.40625 27.984375 6.46875 31.125 
Q 4.546875 34.28125 4.546875 38.09375 
Q 4.546875 41.546875 6.125 44.5 
Q 7.71875 47.46875 10.453125 49.421875 
Q 12.5 50.921875 16.03125 51.96875 
Q 19.578125 53.03125 23.640625 53.03125 
Q 29.734375 53.03125 34.34375 51.265625 
Q 38.96875 49.515625 41.15625 46.5 
Q 43.359375 43.5 44.1875 38.484375 
L 35.59375 37.3125 
Q 35.015625 41.3125 32.203125 43.546875 
Q 29.390625 45.796875 24.265625 45.796875 
Q 18.21875 45.796875 15.625 43.796875 
Q 13.03125 41.796875 13.03125 39.109375 
Q 13.03125 37.40625 14.109375 36.03125 
Q 15.1875 34.625 17.484375 33.6875 
Q 18.796875 33.203125 25.25 31.453125 
Q 34.578125 28.953125 38.25 27.359375 
Q 41.9375 25.78125 44.03125 22.75 
Q 46.140625 19.734375 46.140625 15.234375 
Q 46.140625 10.84375 43.578125 6.953125 
Q 41.015625 3.078125 36.171875 0.953125 
Q 31.34375 -1.171875 25.25 -1.171875 
Q 15.140625 -1.171875 9.84375 3.03125 
Q 4.546875 7.234375 3.078125 15.484375 
z
" id="ArialMT-115"/>
      <path d="M 40.4375 6.390625 
Q 35.546875 2.25 31.03125 0.53125 
Q 26.515625 -1.171875 21.34375 -1.171875 
Q 12.796875 -1.171875 8.203125 3 
Q 3.609375 7.171875 3.609375 13.671875 
Q 3.609375 17.484375 5.34375 20.625 
Q 7.078125 23.78125 9.890625 25.6875 
Q 12.703125 27.59375 16.21875 28.5625 
Q 18.796875 29.25 24.03125 29.890625 
Q 34.671875 31.15625 39.703125 32.90625 
Q 39.75 34.71875 39.75 35.203125 
Q 39.75 40.578125 37.25 42.78125 
Q 33.890625 45.75 27.25 45.75 
Q 21.046875 45.75 18.09375 43.578125 
Q 15.140625 41.40625 13.71875 35.890625 
L 5.125 37.0625 
Q 6.296875 42.578125 8.984375 45.96875 
Q 11.671875 49.359375 16.75 51.1875 
Q 21.828125 53.03125 28.515625 53.03125 
Q 35.15625 53.03125 39.296875 51.46875 
Q 43.453125 49.90625 45.40625 47.53125 
Q 47.359375 45.171875 48.140625 41.546875 
Q 48.578125 39.3125 48.578125 33.453125 
L 48.578125 21.734375 
Q 48.578125 9.46875 49.140625 6.21875 
Q 49.703125 2.984375 51.375 0 
L 42.1875 0 
Q 40.828125 2.734375 40.4375 6.390625 
z
M 39.703125 26.03125 
Q 34.90625 24.078125 25.34375 22.703125 
Q 19.921875 21.921875 17.671875 20.9375 
Q 15.4375 19.96875 14.203125 18.09375 
Q 12.984375 16.21875 12.984375 13.921875 
Q 12.984375 10.40625 15.640625 8.0625 
Q 18.3125 5.71875 23.4375 5.71875 
Q 28.515625 5.71875 32.46875 7.9375 
Q 36.421875 10.15625 38.28125 14.015625 
Q 39.703125 17 39.703125 22.796875 
z
" id="ArialMT-97"/>
      <path d="M 6.59375 0 
L 6.59375 51.859375 
L 14.453125 51.859375 
L 14.453125 44.578125 
Q 16.890625 48.390625 20.9375 50.703125 
Q 25 53.03125 30.171875 53.03125 
Q 35.9375 53.03125 39.625 50.640625 
Q 43.3125 48.25 44.828125 43.953125 
Q 50.984375 53.03125 60.84375 53.03125 
Q 68.5625 53.03125 72.703125 48.75 
Q 76.859375 44.484375 76.859375 35.59375 
L 76.859375 0 
L 68.109375 0 
L 68.109375 32.671875 
Q 68.109375 37.9375 67.25 40.25 
Q 66.40625 42.578125 64.15625 43.984375 
Q 61.921875 45.40625 58.890625 45.40625 
Q 53.421875 45.40625 49.796875 41.765625 
Q 46.1875 38.140625 46.1875 30.125 
L 46.1875 0 
L 37.40625 0 
L 37.40625 33.6875 
Q 37.40625 39.546875 35.25 42.46875 
Q 33.109375 45.40625 28.21875 45.40625 
Q 24.515625 45.40625 21.359375 43.453125 
Q 18.21875 41.5 16.796875 37.734375 
Q 15.375 33.984375 15.375 26.90625 
L 15.375 0 
z
" id="ArialMT-109"/>
      <path d="M 6.59375 -19.875 
L 6.59375 51.859375 
L 14.59375 51.859375 
L 14.59375 45.125 
Q 17.4375 49.078125 21 51.046875 
Q 24.5625 53.03125 29.640625 53.03125 
Q 36.28125 53.03125 41.359375 49.609375 
Q 46.4375 46.1875 49.015625 39.953125 
Q 51.609375 33.734375 51.609375 26.3125 
Q 51.609375 18.359375 48.75 11.984375 
Q 45.90625 5.609375 40.453125 2.21875 
Q 35.015625 -1.171875 29 -1.171875 
Q 24.609375 -1.171875 21.109375 0.6875 
Q 17.625 2.546875 15.375 5.375 
L 15.375 -19.875 
z
M 14.546875 25.640625 
Q 14.546875 15.625 18.59375 10.84375 
Q 22.65625 6.0625 28.421875 6.0625 
Q 34.28125 6.0625 38.453125 11.015625 
Q 42.625 15.96875 42.625 26.375 
Q 42.625 36.28125 38.546875 41.203125 
Q 34.46875 46.140625 28.8125 46.140625 
Q 23.1875 46.140625 18.859375 40.890625 
Q 14.546875 35.640625 14.546875 25.640625 
z
" id="ArialMT-112"/>
      <path d="M 6.390625 0 
L 6.390625 71.578125 
L 15.1875 71.578125 
L 15.1875 0 
z
" id="ArialMT-108"/>
      <path d="M 42.09375 16.703125 
L 51.171875 15.578125 
Q 49.03125 7.625 43.21875 3.21875 
Q 37.40625 -1.171875 28.375 -1.171875 
Q 17 -1.171875 10.328125 5.828125 
Q 3.65625 12.84375 3.65625 25.484375 
Q 3.65625 38.578125 10.390625 45.796875 
Q 17.140625 53.03125 27.875 53.03125 
Q 38.28125 53.03125 44.875 45.953125 
Q 51.46875 38.875 51.46875 26.03125 
Q 51.46875 25.25 51.421875 23.6875 
L 12.75 23.6875 
Q 13.234375 15.140625 17.578125 10.59375 
Q 21.921875 6.0625 28.421875 6.0625 
Q 33.25 6.0625 36.671875 8.59375 
Q 40.09375 11.140625 42.09375 16.703125 
z
M 13.234375 30.90625 
L 42.1875 30.90625 
Q 41.609375 37.453125 38.875 40.71875 
Q 34.671875 45.796875 27.984375 45.796875 
Q 21.921875 45.796875 17.796875 41.75 
Q 13.671875 37.703125 13.234375 30.90625 
z
" id="ArialMT-101"/>
     </defs>
     <g transform="translate(541.254531 305.705)scale(0.26 -0.26)">
      <use xlink:href="#ArialMT-35"/>
      <use x="55.615234" xlink:href="#ArialMT-32"/>
      <use x="83.398438" xlink:href="#ArialMT-115"/>
      <use x="133.398438" xlink:href="#ArialMT-97"/>
      <use x="189.013672" xlink:href="#ArialMT-109"/>
      <use x="272.314453" xlink:href="#ArialMT-112"/>
      <use x="327.929688" xlink:href="#ArialMT-108"/>
      <use x="350.146484" xlink:href="#ArialMT-101"/>
     </g>
    </g>
   </g>
   <g id="matplotlib.axis_2">
    <g id="ytick_1">
     <g id="line2d_7">
      <path clip-path="url(#pc2e86442dd)" d="M 180 242.118694 
L 1008 242.118694 
" style="fill:none;stroke:#b0b0b0;stroke-linecap:square;stroke-width:0.8;"/>
     </g>
     <g id="line2d_8">
      <defs>
       <path d="M 0 0 
L -3.5 0 
" id="m9a5b2507d5" style="stroke:#000000;stroke-width:0.8;"/>
      </defs>
      <g>
       <use style="stroke:#000000;stroke-width:0.8;" x="180" xlink:href="#m9a5b2507d5" y="242.118694"/>
      </g>
     </g>
     <g id="text_5">
      <!-- 0 -->
      <g transform="translate(158.541562 251.42385)scale(0.26 -0.26)">
       <use xlink:href="#ArialMT-48"/>
      </g>
     </g>
    </g>
    <g id="ytick_2">
     <g id="line2d_9">
      <path clip-path="url(#pc2e86442dd)" d="M 180 184.338303 
L 1008 184.338303 
" style="fill:none;stroke:#b0b0b0;stroke-linecap:square;stroke-width:0.8;"/>
     </g>
     <g id="line2d_10">
      <g>
       <use style="stroke:#000000;stroke-width:0.8;" x="180" xlink:href="#m9a5b2507d5" y="184.338303"/>
      </g>
     </g>
     <g id="text_6">
      <!-- 100 -->
      <defs>
       <path d="M 37.25 0 
L 28.46875 0 
L 28.46875 56 
Q 25.296875 52.984375 20.140625 49.953125 
Q 14.984375 46.921875 10.890625 45.40625 
L 10.890625 53.90625 
Q 18.265625 57.375 23.78125 62.296875 
Q 29.296875 67.234375 31.59375 71.875 
L 37.25 71.875 
z
" id="ArialMT-49"/>
      </defs>
      <g transform="translate(129.624687 193.64346)scale(0.26 -0.26)">
       <use xlink:href="#ArialMT-49"/>
       <use x="55.615234" xlink:href="#ArialMT-48"/>
       <use x="111.230469" xlink:href="#ArialMT-48"/>
      </g>
     </g>
    </g>
    <g id="ytick_3">
     <g id="line2d_11">
      <path clip-path="url(#pc2e86442dd)" d="M 180 126.557913 
L 1008 126.557913 
" style="fill:none;stroke:#b0b0b0;stroke-linecap:square;stroke-width:0.8;"/>
     </g>
     <g id="line2d_12">
      <g>
       <use style="stroke:#000000;stroke-width:0.8;" x="180" xlink:href="#m9a5b2507d5" y="126.557913"/>
      </g>
     </g>
     <g id="text_7">
      <!-- 200 -->
      <g transform="translate(129.624687 135.863069)scale(0.26 -0.26)">
       <use xlink:href="#ArialMT-50"/>
       <use x="55.615234" xlink:href="#ArialMT-48"/>
       <use x="111.230469" xlink:href="#ArialMT-48"/>
      </g>
     </g>
    </g>
    <g id="ytick_4">
     <g id="line2d_13">
      <path clip-path="url(#pc2e86442dd)" d="M 180 68.777523 
L 1008 68.777523 
" style="fill:none;stroke:#b0b0b0;stroke-linecap:square;stroke-width:0.8;"/>
     </g>
     <g id="line2d_14">
      <g>
       <use style="stroke:#000000;stroke-width:0.8;" x="180" xlink:href="#m9a5b2507d5" y="68.777523"/>
      </g>
     </g>
     <g id="text_8">
      <!-- 300 -->
      <defs>
       <path d="M 4.203125 18.890625 
L 12.984375 20.0625 
Q 14.5 12.59375 18.140625 9.296875 
Q 21.78125 6 27 6 
Q 33.203125 6 37.46875 10.296875 
Q 41.75 14.59375 41.75 20.953125 
Q 41.75 27 37.796875 30.921875 
Q 33.84375 34.859375 27.734375 34.859375 
Q 25.25 34.859375 21.53125 33.890625 
L 22.515625 41.609375 
Q 23.390625 41.5 23.921875 41.5 
Q 29.546875 41.5 34.03125 44.421875 
Q 38.53125 47.359375 38.53125 53.46875 
Q 38.53125 58.296875 35.25 61.46875 
Q 31.984375 64.65625 26.8125 64.65625 
Q 21.6875 64.65625 18.265625 61.421875 
Q 14.84375 58.203125 13.875 51.765625 
L 5.078125 53.328125 
Q 6.6875 62.15625 12.390625 67.015625 
Q 18.109375 71.875 26.609375 71.875 
Q 32.46875 71.875 37.390625 69.359375 
Q 42.328125 66.84375 44.9375 62.5 
Q 47.5625 58.15625 47.5625 53.265625 
Q 47.5625 48.640625 45.0625 44.828125 
Q 42.578125 41.015625 37.703125 38.765625 
Q 44.046875 37.3125 47.5625 32.6875 
Q 51.078125 28.078125 51.078125 21.140625 
Q 51.078125 11.765625 44.234375 5.25 
Q 37.40625 -1.265625 26.953125 -1.265625 
Q 17.53125 -1.265625 11.296875 4.34375 
Q 5.078125 9.96875 4.203125 18.890625 
z
" id="ArialMT-51"/>
      </defs>
      <g transform="translate(129.624687 78.082679)scale(0.26 -0.26)">
       <use xlink:href="#ArialMT-51"/>
       <use x="55.615234" xlink:href="#ArialMT-48"/>
       <use x="111.230469" xlink:href="#ArialMT-48"/>
      </g>
     </g>
    </g>
    <g id="text_9">
     <!-- Change-point score  -->
     <defs>
      <path d="M 58.796875 25.09375 
L 68.265625 22.703125 
Q 65.28125 11.03125 57.546875 4.90625 
Q 49.8125 -1.21875 38.625 -1.21875 
Q 27.046875 -1.21875 19.796875 3.484375 
Q 12.546875 8.203125 8.765625 17.140625 
Q 4.984375 26.078125 4.984375 36.328125 
Q 4.984375 47.515625 9.25 55.828125 
Q 13.53125 64.15625 21.40625 68.46875 
Q 29.296875 72.796875 38.765625 72.796875 
Q 49.515625 72.796875 56.828125 67.328125 
Q 64.15625 61.859375 67.046875 51.953125 
L 57.71875 49.75 
Q 55.21875 57.5625 50.484375 61.125 
Q 45.75 64.703125 38.578125 64.703125 
Q 30.328125 64.703125 24.78125 60.734375 
Q 19.234375 56.78125 16.984375 50.109375 
Q 14.75 43.453125 14.75 36.375 
Q 14.75 27.25 17.40625 20.4375 
Q 20.0625 13.625 25.671875 10.25 
Q 31.296875 6.890625 37.84375 6.890625 
Q 45.796875 6.890625 51.3125 11.46875 
Q 56.84375 16.0625 58.796875 25.09375 
z
" id="ArialMT-67"/>
      <path d="M 6.59375 0 
L 6.59375 71.578125 
L 15.375 71.578125 
L 15.375 45.90625 
Q 21.53125 53.03125 30.90625 53.03125 
Q 36.671875 53.03125 40.921875 50.75 
Q 45.171875 48.484375 47 44.484375 
Q 48.828125 40.484375 48.828125 32.859375 
L 48.828125 0 
L 40.046875 0 
L 40.046875 32.859375 
Q 40.046875 39.453125 37.1875 42.453125 
Q 34.328125 45.453125 29.109375 45.453125 
Q 25.203125 45.453125 21.75 43.421875 
Q 18.3125 41.40625 16.84375 37.9375 
Q 15.375 34.46875 15.375 28.375 
L 15.375 0 
z
" id="ArialMT-104"/>
      <path d="M 6.59375 0 
L 6.59375 51.859375 
L 14.5 51.859375 
L 14.5 44.484375 
Q 20.21875 53.03125 31 53.03125 
Q 35.6875 53.03125 39.625 51.34375 
Q 43.5625 49.65625 45.515625 46.921875 
Q 47.46875 44.1875 48.25 40.4375 
Q 48.734375 37.984375 48.734375 31.890625 
L 48.734375 0 
L 39.9375 0 
L 39.9375 31.546875 
Q 39.9375 36.921875 38.90625 39.578125 
Q 37.890625 42.234375 35.28125 43.8125 
Q 32.671875 45.40625 29.15625 45.40625 
Q 23.53125 45.40625 19.453125 41.84375 
Q 15.375 38.28125 15.375 28.328125 
L 15.375 0 
z
" id="ArialMT-110"/>
      <path d="M 4.984375 -4.296875 
L 13.53125 -5.5625 
Q 14.0625 -9.515625 16.5 -11.328125 
Q 19.78125 -13.765625 25.4375 -13.765625 
Q 31.546875 -13.765625 34.859375 -11.328125 
Q 38.1875 -8.890625 39.359375 -4.5 
Q 40.046875 -1.8125 39.984375 6.78125 
Q 34.234375 0 25.640625 0 
Q 14.9375 0 9.078125 7.71875 
Q 3.21875 15.4375 3.21875 26.21875 
Q 3.21875 33.640625 5.90625 39.90625 
Q 8.59375 46.1875 13.6875 49.609375 
Q 18.796875 53.03125 25.6875 53.03125 
Q 34.859375 53.03125 40.828125 45.609375 
L 40.828125 51.859375 
L 48.921875 51.859375 
L 48.921875 7.03125 
Q 48.921875 -5.078125 46.453125 -10.125 
Q 44 -15.1875 38.640625 -18.109375 
Q 33.296875 -21.046875 25.484375 -21.046875 
Q 16.21875 -21.046875 10.5 -16.875 
Q 4.78125 -12.703125 4.984375 -4.296875 
z
M 12.25 26.859375 
Q 12.25 16.65625 16.296875 11.96875 
Q 20.359375 7.28125 26.46875 7.28125 
Q 32.515625 7.28125 36.609375 11.9375 
Q 40.71875 16.609375 40.71875 26.5625 
Q 40.71875 36.078125 36.5 40.90625 
Q 32.28125 45.75 26.3125 45.75 
Q 20.453125 45.75 16.34375 40.984375 
Q 12.25 36.234375 12.25 26.859375 
z
" id="ArialMT-103"/>
      <path d="M 3.171875 21.484375 
L 3.171875 30.328125 
L 30.171875 30.328125 
L 30.171875 21.484375 
z
" id="ArialMT-45"/>
      <path d="M 3.328125 25.921875 
Q 3.328125 40.328125 11.328125 47.265625 
Q 18.015625 53.03125 27.640625 53.03125 
Q 38.328125 53.03125 45.109375 46.015625 
Q 51.90625 39.015625 51.90625 26.65625 
Q 51.90625 16.65625 48.90625 10.90625 
Q 45.90625 5.171875 40.15625 2 
Q 34.421875 -1.171875 27.640625 -1.171875 
Q 16.75 -1.171875 10.03125 5.8125 
Q 3.328125 12.796875 3.328125 25.921875 
z
M 12.359375 25.921875 
Q 12.359375 15.96875 16.703125 11.015625 
Q 21.046875 6.0625 27.640625 6.0625 
Q 34.1875 6.0625 38.53125 11.03125 
Q 42.875 16.015625 42.875 26.21875 
Q 42.875 35.84375 38.5 40.796875 
Q 34.125 45.75 27.640625 45.75 
Q 21.046875 45.75 16.703125 40.8125 
Q 12.359375 35.890625 12.359375 25.921875 
z
" id="ArialMT-111"/>
      <path d="M 6.640625 61.46875 
L 6.640625 71.578125 
L 15.4375 71.578125 
L 15.4375 61.46875 
z
M 6.640625 0 
L 6.640625 51.859375 
L 15.4375 51.859375 
L 15.4375 0 
z
" id="ArialMT-105"/>
      <path d="M 25.78125 7.859375 
L 27.046875 0.09375 
Q 23.34375 -0.6875 20.40625 -0.6875 
Q 15.625 -0.6875 12.984375 0.828125 
Q 10.359375 2.34375 9.28125 4.8125 
Q 8.203125 7.28125 8.203125 15.1875 
L 8.203125 45.015625 
L 1.765625 45.015625 
L 1.765625 51.859375 
L 8.203125 51.859375 
L 8.203125 64.703125 
L 16.9375 69.96875 
L 16.9375 51.859375 
L 25.78125 51.859375 
L 25.78125 45.015625 
L 16.9375 45.015625 
L 16.9375 14.703125 
Q 16.9375 10.9375 17.40625 9.859375 
Q 17.875 8.796875 18.921875 8.15625 
Q 19.96875 7.515625 21.921875 7.515625 
Q 23.390625 7.515625 25.78125 7.859375 
z
" id="ArialMT-116"/>
      <path d="M 40.4375 19 
L 49.078125 17.875 
Q 47.65625 8.9375 41.8125 3.875 
Q 35.984375 -1.171875 27.484375 -1.171875 
Q 16.84375 -1.171875 10.375 5.78125 
Q 3.90625 12.75 3.90625 25.734375 
Q 3.90625 34.125 6.6875 40.421875 
Q 9.46875 46.734375 15.15625 49.875 
Q 20.84375 53.03125 27.546875 53.03125 
Q 35.984375 53.03125 41.359375 48.75 
Q 46.734375 44.484375 48.25 36.625 
L 39.703125 35.296875 
Q 38.484375 40.53125 35.375 43.15625 
Q 32.28125 45.796875 27.875 45.796875 
Q 21.234375 45.796875 17.078125 41.03125 
Q 12.9375 36.28125 12.9375 25.984375 
Q 12.9375 15.53125 16.9375 10.796875 
Q 20.953125 6.0625 27.390625 6.0625 
Q 32.5625 6.0625 36.03125 9.234375 
Q 39.5 12.40625 40.4375 19 
z
" id="ArialMT-99"/>
      <path d="M 6.5 0 
L 6.5 51.859375 
L 14.40625 51.859375 
L 14.40625 44 
Q 17.4375 49.515625 20 51.265625 
Q 22.5625 53.03125 25.640625 53.03125 
Q 30.078125 53.03125 34.671875 50.203125 
L 31.640625 42.046875 
Q 28.421875 43.953125 25.203125 43.953125 
Q 22.3125 43.953125 20.015625 42.21875 
Q 17.71875 40.484375 16.75 37.40625 
Q 15.28125 32.71875 15.28125 27.15625 
L 15.28125 0 
z
" id="ArialMT-114"/>
     </defs>
     <g transform="translate(91.967687 260.340937)rotate(-90)scale(0.26 -0.26)">
      <use xlink:href="#ArialMT-67"/>
      <use x="72.216797" xlink:href="#ArialMT-104"/>
      <use x="127.832031" xlink:href="#ArialMT-97"/>
      <use x="183.447266" xlink:href="#ArialMT-110"/>
      <use x="239.0625" xlink:href="#ArialMT-103"/>
      <use x="294.677734" xlink:href="#ArialMT-101"/>
      <use x="350.292969" xlink:href="#ArialMT-45"/>
      <use x="383.59375" xlink:href="#ArialMT-112"/>
      <use x="439.208984" xlink:href="#ArialMT-111"/>
      <use x="494.824219" xlink:href="#ArialMT-105"/>
      <use x="517.041016" xlink:href="#ArialMT-110"/>
      <use x="572.65625" xlink:href="#ArialMT-116"/>
      <use x="600.439453" xlink:href="#ArialMT-32"/>
      <use x="628.222656" xlink:href="#ArialMT-115"/>
      <use x="678.222656" xlink:href="#ArialMT-99"/>
      <use x="728.222656" xlink:href="#ArialMT-111"/>
      <use x="783.837891" xlink:href="#ArialMT-114"/>
      <use x="817.138672" xlink:href="#ArialMT-101"/>
      <use x="872.753906" xlink:href="#ArialMT-32"/>
     </g>
     <!-- (KL div.) -->
     <defs>
      <path d="M 23.390625 -21.046875 
Q 16.109375 -11.859375 11.078125 0.4375 
Q 6.0625 12.75 6.0625 25.921875 
Q 6.0625 37.546875 9.8125 48.1875 
Q 14.203125 60.546875 23.390625 72.796875 
L 29.6875 72.796875 
Q 23.78125 62.640625 21.875 58.296875 
Q 18.890625 51.5625 17.1875 44.234375 
Q 15.09375 35.109375 15.09375 25.875 
Q 15.09375 2.390625 29.6875 -21.046875 
z
" id="ArialMT-40"/>
      <path d="M 7.328125 0 
L 7.328125 71.578125 
L 16.796875 71.578125 
L 16.796875 36.078125 
L 52.34375 71.578125 
L 65.1875 71.578125 
L 35.15625 42.578125 
L 66.5 0 
L 54 0 
L 28.515625 36.234375 
L 16.796875 24.8125 
L 16.796875 0 
z
" id="ArialMT-75"/>
      <path d="M 7.328125 0 
L 7.328125 71.578125 
L 16.796875 71.578125 
L 16.796875 8.453125 
L 52.046875 8.453125 
L 52.046875 0 
z
" id="ArialMT-76"/>
      <path d="M 40.234375 0 
L 40.234375 6.546875 
Q 35.296875 -1.171875 25.734375 -1.171875 
Q 19.53125 -1.171875 14.328125 2.25 
Q 9.125 5.671875 6.265625 11.796875 
Q 3.421875 17.921875 3.421875 25.875 
Q 3.421875 33.640625 6 39.96875 
Q 8.59375 46.296875 13.765625 49.65625 
Q 18.953125 53.03125 25.34375 53.03125 
Q 30.03125 53.03125 33.6875 51.046875 
Q 37.359375 49.078125 39.65625 45.90625 
L 39.65625 71.578125 
L 48.390625 71.578125 
L 48.390625 0 
z
M 12.453125 25.875 
Q 12.453125 15.921875 16.640625 10.984375 
Q 20.84375 6.0625 26.5625 6.0625 
Q 32.328125 6.0625 36.34375 10.765625 
Q 40.375 15.484375 40.375 25.140625 
Q 40.375 35.796875 36.265625 40.765625 
Q 32.171875 45.75 26.171875 45.75 
Q 20.3125 45.75 16.375 40.96875 
Q 12.453125 36.1875 12.453125 25.875 
z
" id="ArialMT-100"/>
      <path d="M 21 0 
L 1.265625 51.859375 
L 10.546875 51.859375 
L 21.6875 20.796875 
Q 23.484375 15.765625 25 10.359375 
Q 26.171875 14.453125 28.265625 20.21875 
L 39.796875 51.859375 
L 48.828125 51.859375 
L 29.203125 0 
z
" id="ArialMT-118"/>
      <path d="M 9.078125 0 
L 9.078125 10.015625 
L 19.09375 10.015625 
L 19.09375 0 
z
" id="ArialMT-46"/>
      <path d="M 12.359375 -21.046875 
L 6.0625 -21.046875 
Q 20.65625 2.390625 20.65625 25.875 
Q 20.65625 35.0625 18.5625 44.09375 
Q 16.890625 51.421875 13.921875 58.15625 
Q 12.015625 62.546875 6.0625 72.796875 
L 12.359375 72.796875 
Q 21.53125 60.546875 25.921875 48.1875 
Q 29.6875 37.546875 29.6875 25.921875 
Q 29.6875 12.75 24.625 0.4375 
Q 19.578125 -11.859375 12.359375 -21.046875 
z
" id="ArialMT-41"/>
     </defs>
     <g transform="translate(120.1525 190.232344)rotate(-90)scale(0.26 -0.26)">
      <use xlink:href="#ArialMT-40"/>
      <use x="33.300781" xlink:href="#ArialMT-75"/>
      <use x="100" xlink:href="#ArialMT-76"/>
      <use x="151.865234" xlink:href="#ArialMT-32"/>
      <use x="179.648438" xlink:href="#ArialMT-100"/>
      <use x="235.263672" xlink:href="#ArialMT-105"/>
      <use x="257.480469" xlink:href="#ArialMT-118"/>
      <use x="300.105469" xlink:href="#ArialMT-46"/>
      <use x="327.888672" xlink:href="#ArialMT-41"/>
     </g>
    </g>
   </g>
   <g id="line2d_15">
    <path clip-path="url(#pc2e86442dd)" d="M 217.636364 44.443636 
L 217.82464 230.933904 
L 218.012916 231.898889 
L 218.389467 213.542237 
L 218.577743 211.371733 
L 218.766019 224.479837 
L 219.519123 239.012975 
L 219.707399 240.193023 
L 219.895675 239.790012 
L 220.083951 239.925308 
L 220.272227 239.494674 
L 220.460503 240.368028 
L 220.648779 238.364703 
L 220.837055 239.978781 
L 221.025331 239.732208 
L 221.213607 237.038647 
L 221.401883 238.52072 
L 221.590159 237.575693 
L 221.778435 239.957312 
L 221.966711 238.795555 
L 222.154987 239.06111 
L 222.343263 237.694199 
L 222.531538 238.04382 
L 222.90809 234.40823 
L 223.096366 237.570164 
L 223.472918 239.142345 
L 223.661194 238.431141 
L 223.84947 239.018176 
L 224.037746 238.456751 
L 224.226022 239.722073 
L 224.414298 237.977631 
L 224.79085 238.762507 
L 224.979126 237.605492 
L 225.167402 239.638213 
L 225.355678 237.344673 
L 225.543954 240.031164 
L 225.73223 239.943433 
L 225.920506 240.708876 
L 226.108782 239.737321 
L 226.297058 240.709673 
L 226.67361 237.865407 
L 226.861885 239.79089 
L 227.050161 240.473088 
L 227.238437 238.571255 
L 227.426713 240.895906 
L 227.803265 237.84647 
L 227.991541 239.68423 
L 228.179817 239.55506 
L 228.368093 239.828794 
L 228.556369 239.526791 
L 228.932921 240.081176 
L 229.121197 238.449825 
L 229.309473 239.102227 
L 229.497749 239.272684 
L 229.686025 239.144738 
L 229.874301 239.601186 
L 230.062577 240.378929 
L 230.250853 239.565828 
L 230.439129 237.800602 
L 230.627405 239.224102 
L 230.815681 238.22303 
L 231.003957 240.534028 
L 231.192232 239.559949 
L 231.380508 240.531027 
L 231.568784 238.779513 
L 231.945336 239.53537 
L 232.133612 240.59143 
L 232.321888 239.117345 
L 232.510164 240.377948 
L 233.074992 238.409799 
L 233.263268 240.10176 
L 233.63982 240.268407 
L 234.016372 239.425092 
L 234.204648 239.421973 
L 234.392924 236.296528 
L 234.5812 239.375489 
L 234.769476 240.370209 
L 234.957752 237.734116 
L 235.146028 238.321728 
L 235.334304 236.251126 
L 235.710855 239.306451 
L 236.087407 239.101519 
L 236.275683 240.60021 
L 236.652235 238.180652 
L 236.840511 237.911971 
L 237.217063 238.061 
L 237.405339 238.895959 
L 237.593615 239.183842 
L 237.781891 240.004723 
L 238.158443 238.701786 
L 238.534995 237.791831 
L 238.723271 239.452132 
L 238.911547 239.578433 
L 239.099823 240.871299 
L 239.476375 239.119169 
L 239.664651 240.262927 
L 240.041202 239.762224 
L 240.229478 239.83753 
L 240.417754 240.625758 
L 240.60603 240.303498 
L 240.794306 240.463604 
L 240.982582 239.516857 
L 241.170858 240.120131 
L 241.359134 238.708128 
L 241.54741 238.575403 
L 241.735686 239.236768 
L 241.923962 239.031712 
L 242.112238 240.890569 
L 242.48879 239.277028 
L 242.677066 239.351324 
L 242.865342 239.955896 
L 243.053618 238.472834 
L 243.241894 239.799064 
L 243.43017 240.083279 
L 243.618446 239.860355 
L 243.806722 240.167266 
L 243.994997 238.514632 
L 244.183273 240.717439 
L 244.748101 237.035798 
L 244.936377 241.008832 
L 245.124653 238.981497 
L 245.312929 239.80993 
L 245.501205 237.66806 
L 245.689481 240.606557 
L 245.877757 240.098084 
L 246.066033 240.066175 
L 246.254309 238.891368 
L 246.442585 239.502293 
L 246.630861 239.434498 
L 246.819137 239.957249 
L 247.195689 239.846641 
L 247.383965 238.560362 
L 247.572241 240.250159 
L 247.760517 240.487091 
L 247.948793 239.090939 
L 248.137069 240.078475 
L 248.325344 240.438585 
L 248.51362 239.135391 
L 248.890172 240.721173 
L 249.078448 239.35603 
L 249.455 238.83324 
L 249.643276 240.133952 
L 249.831552 240.588568 
L 250.019828 240.270601 
L 250.208104 238.776498 
L 250.39638 240.374276 
L 250.772932 238.515729 
L 250.961208 239.861429 
L 251.149484 239.265045 
L 251.33776 240.773289 
L 251.526036 239.053397 
L 251.714312 239.811813 
L 251.902588 239.751006 
L 252.090864 241.240281 
L 252.27914 239.847727 
L 252.655691 241.103764 
L 252.843967 240.934973 
L 253.032243 239.347973 
L 253.220519 239.767391 
L 253.408795 241.48064 
L 253.785347 239.883537 
L 253.973623 241.290967 
L 254.161899 240.202018 
L 254.350175 240.382625 
L 254.538451 239.649913 
L 254.726727 241.554898 
L 255.103279 241.226892 
L 255.291555 240.519156 
L 255.479831 240.878881 
L 255.668107 240.521273 
L 255.856383 239.648426 
L 256.044659 241.391562 
L 256.232935 241.115056 
L 256.421211 239.559687 
L 256.797763 241.03666 
L 257.174314 240.154832 
L 257.550866 241.477932 
L 257.739142 241.077057 
L 257.927418 241.482652 
L 258.115694 240.265044 
L 258.30397 240.320385 
L 258.492246 238.731148 
L 258.680522 240.783159 
L 258.868798 240.106199 
L 259.057074 240.420554 
L 259.24535 241.073572 
L 259.433626 240.410717 
L 259.621902 240.59511 
L 259.810178 241.199795 
L 260.18673 240.609425 
L 260.563282 240.375193 
L 260.751558 239.783711 
L 260.939834 240.507283 
L 261.12811 240.609615 
L 261.316385 240.350541 
L 261.504661 241.035583 
L 261.692937 240.608349 
L 261.881213 240.88366 
L 262.069489 240.001337 
L 262.257765 240.887653 
L 262.634317 241.311311 
L 262.822593 241.126863 
L 263.010869 239.714967 
L 263.199145 241.476869 
L 263.387421 241.005948 
L 263.575697 241.341127 
L 263.952249 240.432136 
L 264.140525 240.207086 
L 264.328801 240.731104 
L 264.517077 239.278939 
L 264.705353 240.98981 
L 264.893629 239.883834 
L 265.081905 240.002289 
L 265.458457 238.577186 
L 265.646732 240.278562 
L 265.835008 240.248172 
L 266.21156 239.054912 
L 266.399836 240.184662 
L 266.776388 239.535059 
L 266.964664 236.618749 
L 267.15294 240.440405 
L 267.529492 239.429818 
L 267.717768 239.633813 
L 267.906044 239.551272 
L 268.09432 239.19992 
L 268.282596 239.137976 
L 268.470872 240.941752 
L 268.659148 239.579443 
L 268.847424 240.005937 
L 269.0357 238.848193 
L 269.223976 238.517677 
L 269.412252 240.007897 
L 269.600528 240.284544 
L 269.788803 239.405326 
L 270.165355 240.853833 
L 270.353631 241.117689 
L 270.541907 239.574438 
L 270.730183 240.357153 
L 270.918459 239.765049 
L 271.106735 240.543515 
L 271.295011 240.303129 
L 271.483287 239.436785 
L 271.671563 241.157485 
L 271.859839 240.569262 
L 272.048115 238.971816 
L 272.236391 241.12864 
L 272.424667 239.912857 
L 272.612943 241.128633 
L 272.801219 240.725699 
L 272.989495 240.940921 
L 273.177771 240.291404 
L 273.742599 240.918183 
L 273.930875 240.608864 
L 274.11915 241.032153 
L 274.307426 241.007731 
L 274.495702 239.245504 
L 274.683978 240.90654 
L 274.872254 240.010721 
L 275.06053 240.995741 
L 275.248806 240.428388 
L 275.437082 240.496228 
L 275.625358 239.032159 
L 275.813634 240.761239 
L 276.00191 240.636405 
L 276.190186 239.466736 
L 276.378462 240.374274 
L 276.755014 241.025883 
L 277.131566 239.002942 
L 277.319842 239.864988 
L 277.508118 239.584381 
L 277.696394 239.806967 
L 277.88467 239.435463 
L 278.072946 240.90689 
L 278.261222 239.74819 
L 278.637773 240.382977 
L 278.826049 240.084501 
L 279.014325 240.688269 
L 279.202601 239.239421 
L 279.390877 239.453278 
L 279.767429 240.64954 
L 279.955705 240.977247 
L 280.143981 239.317645 
L 280.332257 238.781472 
L 280.708809 240.660503 
L 280.897085 241.192334 
L 281.085361 240.85893 
L 281.273637 240.244173 
L 281.461913 240.518948 
L 281.650189 240.154166 
L 281.838465 240.408055 
L 282.026741 240.269427 
L 282.215017 240.726795 
L 282.591569 240.640191 
L 282.779844 240.634511 
L 282.96812 240.227397 
L 283.156396 241.056598 
L 283.344672 240.828523 
L 283.532948 239.987352 
L 283.721224 240.423325 
L 283.9095 241.302578 
L 284.097776 239.583104 
L 284.286052 241.27334 
L 284.474328 241.080783 
L 284.662604 240.457887 
L 284.85088 241.227193 
L 285.039156 239.941598 
L 285.227432 241.383249 
L 285.415708 241.319051 
L 285.603984 240.478962 
L 285.79226 240.806404 
L 285.980536 241.565613 
L 286.168812 241.254015 
L 286.357088 240.600887 
L 286.545364 240.875937 
L 286.73364 240.110937 
L 286.921916 240.912428 
L 287.110191 239.835407 
L 287.298467 241.141386 
L 287.486743 240.786773 
L 287.863295 241.241622 
L 288.051571 240.657137 
L 288.239847 240.654441 
L 288.428123 241.36097 
L 288.616399 240.562829 
L 288.804675 240.698921 
L 288.992951 240.596155 
L 289.181227 240.90574 
L 289.369503 240.000167 
L 289.557779 240.508807 
L 289.746055 240.522894 
L 289.934331 240.421404 
L 290.122607 240.61669 
L 290.310883 240.319827 
L 290.499159 240.546048 
L 290.687435 241.022149 
L 290.875711 239.688956 
L 291.063987 241.260339 
L 291.440538 240.835347 
L 291.81709 240.051044 
L 292.005366 241.060849 
L 292.193642 240.999837 
L 292.381918 240.464305 
L 292.570194 240.442938 
L 292.75847 241.577062 
L 292.946746 239.889799 
L 293.323298 241.517283 
L 293.511574 239.588907 
L 293.888126 241.190395 
L 294.264678 239.925036 
L 294.452954 239.895429 
L 294.64123 240.421639 
L 294.829506 240.119743 
L 295.017782 239.006501 
L 295.206058 240.774399 
L 295.582609 239.659458 
L 295.770885 239.005708 
L 295.959161 240.291008 
L 296.147437 240.546429 
L 296.335713 241.238195 
L 296.523989 241.235016 
L 296.900541 240.427603 
L 297.088817 241.163567 
L 297.277093 240.747082 
L 297.465369 240.017592 
L 297.653645 240.270438 
L 297.841921 241.201074 
L 298.030197 240.686935 
L 298.218473 240.881161 
L 298.406749 240.476724 
L 298.595025 240.796609 
L 298.783301 240.831967 
L 298.971577 239.537641 
L 299.159853 241.11981 
L 299.348129 240.960677 
L 299.724681 240.017792 
L 299.912956 241.346475 
L 300.66606 240.326791 
L 300.854336 240.800654 
L 301.042612 240.441263 
L 301.60744 241.338742 
L 301.983992 240.487678 
L 302.172268 240.846536 
L 302.360544 240.55739 
L 302.54882 241.17648 
L 302.925372 240.57944 
L 303.113648 240.662376 
L 303.301924 239.997314 
L 303.4902 241.166604 
L 303.678476 240.71497 
L 303.866752 241.265699 
L 304.243303 240.965385 
L 304.431579 241.250379 
L 304.619855 241.292787 
L 304.808131 241.163859 
L 304.996407 241.678094 
L 305.184683 241.108811 
L 305.372959 241.352855 
L 305.561235 241.012552 
L 305.749511 241.439164 
L 305.937787 240.57454 
L 306.126063 240.657647 
L 306.502615 241.099361 
L 306.690891 241.113123 
L 307.067443 240.348779 
L 307.255719 241.366916 
L 307.443995 241.747625 
L 307.632271 241.219817 
L 307.820547 241.19751 
L 308.008823 241.0592 
L 308.197099 241.165167 
L 308.385375 241.031839 
L 308.57365 241.337967 
L 308.761926 240.945323 
L 309.138478 241.676868 
L 309.51503 241.208961 
L 309.703306 240.687183 
L 309.891582 240.98713 
L 310.079858 240.972351 
L 310.268134 241.44533 
L 310.45641 241.499978 
L 310.644686 241.174044 
L 310.832962 241.512289 
L 311.021238 241.208135 
L 311.209514 241.217942 
L 311.39779 240.046583 
L 311.586066 241.554002 
L 311.774342 241.132724 
L 311.962618 241.552776 
L 312.150894 241.591762 
L 312.33917 240.93183 
L 312.527446 241.2629 
L 312.715721 240.324769 
L 313.092273 241.513957 
L 313.468825 241.15409 
L 313.657101 241.653134 
L 313.845377 241.433655 
L 314.033653 240.979099 
L 314.410205 241.220247 
L 314.598481 241.152926 
L 314.786757 241.237826 
L 314.975033 241.561172 
L 315.163309 241.554593 
L 315.351585 241.243962 
L 315.916413 241.543385 
L 316.292965 241.46325 
L 316.481241 241.614174 
L 316.669517 241.147088 
L 316.857793 241.668613 
L 317.046068 241.528961 
L 317.234344 241.63903 
L 317.42262 241.484562 
L 317.610896 241.166915 
L 317.799172 241.199504 
L 317.987448 241.75743 
L 318.175724 241.538997 
L 318.552276 241.729881 
L 318.740552 241.542649 
L 319.117104 241.89357 
L 319.30538 241.553134 
L 319.681932 241.560985 
L 319.870208 241.483253 
L 320.058484 241.647755 
L 320.623312 241.150486 
L 320.811588 241.633637 
L 320.999864 241.506551 
L 321.18814 241.916688 
L 321.752967 241.808128 
L 321.941243 241.364816 
L 322.129519 241.327068 
L 322.506071 241.853577 
L 322.694347 241.650815 
L 322.882623 241.616751 
L 323.070899 241.451925 
L 323.259175 241.508867 
L 323.447451 241.802139 
L 324.012279 241.225066 
L 324.388831 241.402663 
L 324.765383 241.314854 
L 324.953659 241.828277 
L 325.141935 241.244273 
L 325.330211 241.895347 
L 325.518487 241.54363 
L 325.895038 241.422582 
L 326.083314 241.597372 
L 326.27159 241.54671 
L 326.459866 241.835327 
L 326.648142 241.702071 
L 327.024694 241.783851 
L 327.21297 241.58214 
L 327.401246 241.730143 
L 327.589522 241.583944 
L 327.966074 241.801266 
L 328.342626 241.613792 
L 328.530902 241.845063 
L 328.719178 241.888805 
L 329.09573 241.624061 
L 329.284006 241.783263 
L 329.472282 241.692619 
L 329.660558 241.387643 
L 329.848834 241.714005 
L 330.037109 241.572367 
L 330.601937 241.703518 
L 330.978489 241.523411 
L 331.166765 241.620526 
L 331.355041 241.967916 
L 331.543317 241.68164 
L 331.919869 241.617243 
L 332.108145 241.198335 
L 332.296421 241.671102 
L 332.861249 241.175212 
L 333.049525 241.893088 
L 333.614353 241.393816 
L 333.990905 241.839874 
L 334.17918 241.521512 
L 334.367456 241.84602 
L 334.744008 241.552996 
L 335.12056 241.841472 
L 335.308836 241.704002 
L 335.497112 241.718103 
L 335.685388 241.907321 
L 336.06194 241.514337 
L 336.250216 241.497619 
L 336.438492 241.739612 
L 336.626768 241.781152 
L 336.815044 241.444249 
L 337.00332 241.853146 
L 337.379872 241.673834 
L 337.568148 241.73796 
L 337.756424 241.604075 
L 337.9447 241.813041 
L 338.132976 241.47437 
L 338.321252 241.575162 
L 338.509527 241.499283 
L 338.697803 241.769004 
L 338.886079 241.565827 
L 339.074355 241.752006 
L 339.262631 241.406261 
L 339.450907 241.890063 
L 339.827459 241.800878 
L 340.015735 241.888951 
L 340.204011 241.579453 
L 340.392287 241.717426 
L 340.957115 241.568302 
L 341.333667 241.862123 
L 341.521943 241.270926 
L 341.710219 241.785021 
L 341.898495 241.671976 
L 342.463323 241.98951 
L 342.651599 241.646464 
L 342.839874 241.879273 
L 343.02815 241.535921 
L 343.216426 241.911733 
L 343.404702 241.68103 
L 343.592978 241.665447 
L 343.781254 241.933644 
L 344.346082 241.54491 
L 344.534358 241.901135 
L 344.722634 241.944088 
L 345.287462 241.621486 
L 345.475738 241.947199 
L 345.664014 241.856247 
L 346.040566 241.981062 
L 346.228842 241.531423 
L 346.417118 241.997829 
L 346.981946 241.909026 
L 347.170221 241.821204 
L 347.358497 241.995753 
L 347.735049 242.013586 
L 347.923325 242.021109 
L 348.111601 241.729225 
L 348.488153 241.99798 
L 348.676429 241.829677 
L 349.052981 241.914245 
L 349.241257 241.823248 
L 349.617809 241.877764 
L 349.806085 241.940991 
L 350.182637 241.833445 
L 350.370913 241.950764 
L 350.559189 241.742905 
L 350.935741 241.926307 
L 351.124017 242.022027 
L 351.312293 241.731665 
L 351.500568 241.774304 
L 351.688844 241.973852 
L 352.065396 241.881575 
L 352.253672 241.919189 
L 352.441948 241.799992 
L 352.630224 242.011943 
L 352.8185 241.882848 
L 353.006776 241.997024 
L 353.383328 241.740239 
L 353.571604 241.900866 
L 353.75988 241.806338 
L 354.136432 241.979464 
L 354.512984 241.810865 
L 355.266088 241.839775 
L 355.454364 241.568067 
L 355.64264 241.981193 
L 355.830915 241.922992 
L 356.019191 241.575245 
L 356.207467 241.958241 
L 357.525399 241.685509 
L 357.713675 241.908149 
L 357.901951 241.72613 
L 358.090227 241.906085 
L 358.278503 241.838266 
L 358.843331 241.964444 
L 359.031607 241.644178 
L 359.408159 241.974365 
L 359.596435 241.732085 
L 359.784711 241.962425 
L 360.161262 241.795471 
L 360.349538 241.760017 
L 360.537814 241.963129 
L 360.72609 241.690655 
L 360.914366 241.991812 
L 361.102642 241.935552 
L 361.290918 241.61642 
L 361.479194 241.982076 
L 361.66747 242.057761 
L 362.044022 241.891282 
L 362.232298 241.982841 
L 362.420574 241.884844 
L 362.60885 241.993079 
L 362.797126 241.618095 
L 362.985402 241.884911 
L 363.361954 241.898554 
L 363.738506 241.642038 
L 363.926782 242.01968 
L 364.115058 241.835792 
L 364.303333 241.900731 
L 364.491609 241.756917 
L 364.679885 241.939776 
L 365.056437 241.970616 
L 365.997817 241.958506 
L 366.186093 241.751763 
L 366.374369 241.994722 
L 366.750921 241.738706 
L 366.939197 242.036841 
L 367.880577 241.732543 
L 368.068853 241.997753 
L 368.257129 241.813624 
L 368.445405 241.965835 
L 368.63368 241.79201 
L 368.821956 241.932819 
L 369.198508 241.876212 
L 369.386784 241.999874 
L 369.57506 241.837164 
L 369.763336 241.944125 
L 369.951612 241.858792 
L 370.139888 242.019246 
L 370.328164 241.857664 
L 370.892992 242.026739 
L 371.081268 241.704935 
L 371.269544 241.925541 
L 371.45782 241.94082 
L 371.646096 241.785396 
L 372.022648 242.034545 
L 372.210924 241.736587 
L 372.3992 242.040886 
L 373.340579 241.913196 
L 373.528855 242.01612 
L 373.717131 241.885641 
L 374.281959 241.999985 
L 374.470235 241.896313 
L 375.035063 241.984471 
L 375.411615 241.85057 
L 375.599891 241.953913 
L 375.788167 241.878231 
L 376.164719 241.977724 
L 376.352995 241.916021 
L 376.541271 242.032531 
L 376.729547 241.805671 
L 376.917823 241.982402 
L 377.106099 241.87508 
L 377.294374 242.004557 
L 377.859202 241.791875 
L 378.047478 242.044753 
L 378.612306 241.940632 
L 378.988858 242.056799 
L 379.177134 242.011852 
L 379.36541 241.801942 
L 379.553686 241.825699 
L 379.930238 242.035447 
L 380.118514 241.979382 
L 380.30679 241.746534 
L 380.495066 241.999856 
L 380.871618 241.905984 
L 381.436445 241.973812 
L 381.624721 241.812584 
L 381.812997 241.837022 
L 382.189549 242.061804 
L 382.377825 241.945489 
L 382.754377 241.90708 
L 382.942653 241.715887 
L 383.130929 242.007985 
L 383.507481 242.006762 
L 383.884033 241.9577 
L 384.260585 241.96268 
L 384.448861 242.021427 
L 384.637137 241.890073 
L 386.143344 242.009603 
L 386.33162 241.796879 
L 386.708172 241.920331 
L 386.896448 241.96321 
L 387.084724 241.779187 
L 387.273 241.975294 
L 387.461276 241.987867 
L 387.649552 241.796922 
L 388.590932 242.010986 
L 388.779208 241.844521 
L 388.967484 242.000228 
L 390.473691 241.955959 
L 390.661967 241.631202 
L 391.038519 242.033506 
L 391.226795 241.947509 
L 391.415071 242.025661 
L 391.791623 241.92878 
L 392.168175 242.07294 
L 392.921279 241.824707 
L 393.486107 241.989045 
L 393.674383 241.849888 
L 394.050935 242.029414 
L 394.427486 241.991532 
L 394.615762 241.896077 
L 394.804038 242.016118 
L 394.992314 241.906895 
L 395.18059 242.044143 
L 395.368866 241.956988 
L 395.557142 242.062294 
L 397.251626 241.946664 
L 397.439902 241.960776 
L 397.628178 241.856744 
L 397.816454 242.030734 
L 398.00473 241.965977 
L 398.381282 242.096389 
L 398.946109 241.973396 
L 399.134385 242.047372 
L 399.510937 241.954716 
L 399.887489 242.056621 
L 400.264041 241.954197 
L 400.452317 242.063043 
L 401.205421 241.918454 
L 401.958525 242.035759 
L 402.146801 241.960551 
L 402.523353 242.024261 
L 404.217836 242.02856 
L 406.100596 242.009633 
L 406.288872 241.856573 
L 406.477148 242.042963 
L 408.548183 242.011566 
L 408.736459 242.086346 
L 408.924735 241.940029 
L 409.489563 241.903084 
L 409.677839 242.083117 
L 410.430943 241.872889 
L 410.807495 242.042966 
L 411.93715 241.898059 
L 412.125426 242.054154 
L 412.690254 241.992628 
L 412.87853 242.080592 
L 413.255082 241.967663 
L 413.443358 242.063733 
L 414.008186 242.001109 
L 415.326118 242.052246 
L 415.514394 241.871573 
L 416.267497 242.019497 
L 416.455773 241.899763 
L 416.644049 242.090856 
L 417.397153 241.89842 
L 417.773705 242.042579 
L 417.961981 241.912133 
L 418.338533 242.011806 
L 418.715085 241.952365 
L 418.903361 242.045784 
L 419.468189 241.873533 
L 419.844741 242.042391 
L 420.221292 241.919487 
L 420.409568 242.071234 
L 420.597844 242.012847 
L 420.974396 242.069579 
L 421.162672 242.048458 
L 421.350948 241.90534 
L 421.7275 242.06544 
L 421.915776 242.001869 
L 422.292328 242.066515 
L 422.66888 242.009138 
L 422.857156 241.8596 
L 423.045432 242.049212 
L 424.175088 242.044641 
L 424.363363 241.925513 
L 424.551639 242.078627 
L 426.622675 241.978192 
L 426.810951 242.085874 
L 426.999227 241.925234 
L 427.375779 242.03119 
L 427.564055 241.956188 
L 428.128883 242.064178 
L 428.505435 242.043712 
L 428.881986 242.007074 
L 429.258538 242.046845 
L 431.329574 241.986156 
L 431.894402 242.044521 
L 432.835782 242.040332 
L 433.588885 242.081688 
L 433.777161 241.935559 
L 433.965437 242.08946 
L 434.906817 242.034327 
L 435.659921 242.059214 
L 436.224749 242.000547 
L 436.789577 242.072433 
L 437.54268 241.930091 
L 437.919232 242.034235 
L 439.990268 242.021176 
L 440.555096 242.085264 
L 441.119924 242.049492 
L 441.873027 242.023562 
L 442.249579 242.045998 
L 455.428896 242.084042 
L 456.558552 242.072532 
L 457.876484 242.040203 
L 458.629588 242.078378 
L 458.817863 242.031077 
L 459.194415 242.074625 
L 460.512347 241.980579 
L 460.888899 242.048693 
L 461.642003 242.015513 
L 462.018555 242.061488 
L 462.583383 242.056985 
L 465.595798 242.0387 
L 466.160626 242.09843 
L 466.537178 242.048122 
L 467.102006 242.066169 
L 468.043385 242.049129 
L 468.984765 242.091349 
L 471.244077 242.057436 
L 471.99718 242.083833 
L 472.562008 242.030104 
L 473.126836 242.082267 
L 473.503388 242.051361 
L 473.87994 242.008878 
L 474.256492 242.08798 
L 475.009596 242.06082 
L 481.975806 242.040617 
L 482.352358 242.047094 
L 482.917186 242.052686 
L 483.482014 242.107515 
L 484.046842 242.005637 
L 484.423394 242.078539 
L 488.565465 242.084075 
L 489.506844 242.078385 
L 513.794443 242.098475 
L 513.982719 242.000917 
L 514.359271 242.080918 
L 517.748238 242.090347 
L 519.442721 242.063892 
L 520.007549 242.096238 
L 520.572377 242.083698 
L 521.513757 242.093725 
L 521.702033 242.018407 
L 522.266861 242.091275 
L 528.103415 242.074908 
L 528.479967 242.05991 
L 543.918596 242.085487 
L 544.106872 242.022771 
L 544.483424 242.077607 
L 545.801355 242.092618 
L 553.144118 242.076508 
L 554.650325 242.034344 
L 555.026877 242.092471 
L 557.097913 242.056391 
L 559.922052 242.086601 
L 561.616536 242.064943 
L 562.557915 242.094799 
L 563.311019 242.088404 
L 573.666197 242.078956 
L 574.419301 242.079639 
L 575.737232 242.094991 
L 577.24344 242.040431 
L 577.619992 242.079953 
L 579.879303 242.092063 
L 580.632407 242.083484 
L 581.762063 242.104337 
L 583.079995 242.061105 
L 583.644822 242.103201 
L 584.021374 242.063559 
L 584.586202 242.07098 
L 587.598617 242.096898 
L 590.422757 242.056884 
L 590.987585 242.067437 
L 591.552413 242.078148 
L 592.305516 242.079035 
L 592.870344 242.048051 
L 593.623448 242.080432 
L 594.564828 242.09367 
L 596.071036 242.085952 
L 606.614489 242.074947 
L 607.367593 242.077674 
L 615.463459 242.091418 
L 616.028287 242.104206 
L 619.040702 242.087342 
L 620.358634 242.099267 
L 625.253809 242.090702 
L 626.195189 242.095296 
L 630.148984 242.089562 
L 631.278639 242.092184 
L 632.031743 242.106001 
L 633.726227 242.092631 
L 635.044158 242.086356 
L 635.608986 242.092116 
L 637.491746 242.092046 
L 639.939333 242.08431 
L 642.386921 242.092391 
L 643.140025 242.094804 
L 674.582109 242.095942 
L 674.958661 242.095181 
L 676.464869 242.078408 
L 677.406249 242.102302 
L 707.530402 242.099405 
L 708.283505 242.088357 
L 709.224885 242.092311 
L 712.425576 242.095578 
L 715.06144 242.086815 
L 970.363636 242.105506 
L 970.363636 242.105506 
" style="fill:none;stroke:#1f77b4;stroke-linecap:square;stroke-width:1.5;"/>
   </g>
   <g id="patch_3">
    <path d="M 180 252 
L 180 34.56 
" style="fill:none;stroke:#000000;stroke-linecap:square;stroke-linejoin:miter;stroke-width:0.8;"/>
   </g>
   <g id="patch_4">
    <path d="M 1008 252 
L 1008 34.56 
" style="fill:none;stroke:#000000;stroke-linecap:square;stroke-linejoin:miter;stroke-width:0.8;"/>
   </g>
   <g id="patch_5">
    <path d="M 180 252 
L 1008 252 
" style="fill:none;stroke:#000000;stroke-linecap:square;stroke-linejoin:miter;stroke-width:0.8;"/>
   </g>
   <g id="patch_6">
    <path d="M 180 34.56 
L 1008 34.56 
" style="fill:none;stroke:#000000;stroke-linecap:square;stroke-linejoin:miter;stroke-width:0.8;"/>
   </g>
   <g id="legend_1">
    <g id="PathCollection_2">
     <g>
      <use style="fill:#ff0000;stroke:#ff0000;" x="1085.8" xlink:href="#m3fcef1fe20" y="56.745312"/>
     </g>
    </g>
    <g id="text_10">
     <!-- &gt; mean + 3SD -->
     <defs>
      <path d="M 52.875 31.296875 
L 5.46875 11.03125 
L 5.46875 19.78125 
L 43.015625 35.359375 
L 5.46875 50.78125 
L 5.46875 59.515625 
L 52.875 39.5 
z
" id="ArialMT-62"/>
      <path d="M 25.046875 11.578125 
L 25.046875 31.203125 
L 5.5625 31.203125 
L 5.5625 39.40625 
L 25.046875 39.40625 
L 25.046875 58.890625 
L 33.34375 58.890625 
L 33.34375 39.40625 
L 52.828125 39.40625 
L 52.828125 31.203125 
L 33.34375 31.203125 
L 33.34375 11.578125 
z
" id="ArialMT-43"/>
      <path d="M 4.5 23 
L 13.421875 23.78125 
Q 14.0625 18.40625 16.375 14.96875 
Q 18.703125 11.53125 23.578125 9.40625 
Q 28.46875 7.28125 34.578125 7.28125 
Q 39.984375 7.28125 44.140625 8.890625 
Q 48.296875 10.5 50.3125 13.296875 
Q 52.34375 16.109375 52.34375 19.4375 
Q 52.34375 22.796875 50.390625 25.3125 
Q 48.4375 27.828125 43.953125 29.546875 
Q 41.0625 30.671875 31.203125 33.03125 
Q 21.34375 35.40625 17.390625 37.5 
Q 12.25 40.1875 9.734375 44.15625 
Q 7.234375 48.140625 7.234375 53.078125 
Q 7.234375 58.5 10.296875 63.203125 
Q 13.375 67.921875 19.28125 70.359375 
Q 25.203125 72.796875 32.421875 72.796875 
Q 40.375 72.796875 46.453125 70.234375 
Q 52.546875 67.671875 55.8125 62.6875 
Q 59.078125 57.71875 59.328125 51.421875 
L 50.25 50.734375 
Q 49.515625 57.515625 45.28125 60.984375 
Q 41.0625 64.453125 32.8125 64.453125 
Q 24.21875 64.453125 20.28125 61.296875 
Q 16.359375 58.15625 16.359375 53.71875 
Q 16.359375 49.859375 19.140625 47.359375 
Q 21.875 44.875 33.421875 42.265625 
Q 44.96875 39.65625 49.265625 37.703125 
Q 55.515625 34.8125 58.484375 30.390625 
Q 61.46875 25.984375 61.46875 20.21875 
Q 61.46875 14.5 58.203125 9.4375 
Q 54.9375 4.390625 48.796875 1.578125 
Q 42.671875 -1.21875 35.015625 -1.21875 
Q 25.296875 -1.21875 18.71875 1.609375 
Q 12.15625 4.4375 8.421875 10.125 
Q 4.6875 15.828125 4.5 23 
z
" id="ArialMT-83"/>
      <path d="M 7.71875 0 
L 7.71875 71.578125 
L 32.375 71.578125 
Q 40.71875 71.578125 45.125 70.5625 
Q 51.265625 69.140625 55.609375 65.4375 
Q 61.28125 60.640625 64.078125 53.1875 
Q 66.890625 45.75 66.890625 36.1875 
Q 66.890625 28.03125 64.984375 21.734375 
Q 63.09375 15.4375 60.109375 11.296875 
Q 57.125 7.171875 53.578125 4.796875 
Q 50.046875 2.4375 45.046875 1.21875 
Q 40.046875 0 33.546875 0 
z
M 17.1875 8.453125 
L 32.46875 8.453125 
Q 39.546875 8.453125 43.578125 9.765625 
Q 47.609375 11.078125 50 13.484375 
Q 53.375 16.84375 55.25 22.53125 
Q 57.125 28.21875 57.125 36.328125 
Q 57.125 47.5625 53.4375 53.59375 
Q 49.75 59.625 44.484375 61.671875 
Q 40.671875 63.140625 32.234375 63.140625 
L 17.1875 63.140625 
z
" id="ArialMT-68"/>
     </defs>
     <g transform="translate(1132.6 63.570312)scale(0.26 -0.26)">
      <use xlink:href="#ArialMT-62"/>
      <use x="58.398438" xlink:href="#ArialMT-32"/>
      <use x="86.181641" xlink:href="#ArialMT-109"/>
      <use x="169.482422" xlink:href="#ArialMT-101"/>
      <use x="225.097656" xlink:href="#ArialMT-97"/>
      <use x="280.712891" xlink:href="#ArialMT-110"/>
      <use x="336.328125" xlink:href="#ArialMT-32"/>
      <use x="364.111328" xlink:href="#ArialMT-43"/>
      <use x="422.509766" xlink:href="#ArialMT-32"/>
      <use x="450.292969" xlink:href="#ArialMT-51"/>
      <use x="505.908203" xlink:href="#ArialMT-83"/>
      <use x="572.607422" xlink:href="#ArialMT-68"/>
     </g>
    </g>
   </g>
  </g>
 </g>
 <defs>
  <clipPath id="pc2e86442dd">
   <rect height="217.44" width="828" x="180" y="34.56"/>
  </clipPath>
 </defs>
</svg>
