<?xml version="1.0" encoding="utf-8" standalone="no"?>
<!DOCTYPE svg PUBLIC "-//W3C//DTD SVG 1.1//EN"
  "http://www.w3.org/Graphics/SVG/1.1/DTD/svg11.dtd">
<!-- Created with matplotlib (https://matplotlib.org/) -->
<svg height="288pt" version="1.1" viewBox="0 0 1440 288" width="1440pt" xmlns="http://www.w3.org/2000/svg" xmlns:xlink="http://www.w3.org/1999/xlink">
 <defs>
  <style type="text/css">
*{stroke-linecap:butt;stroke-linejoin:round;}
  </style>
 </defs>
 <g id="figure_1">
  <g id="patch_1">
   <path d="M 0 288 
L 1440 288 
L 1440 0 
L 0 0 
z
" style="fill:#ffffff;"/>
  </g>
  <g id="axes_1">
   <g id="patch_2">
    <path d="M 180 252 
L 1008 252 
L 1008 34.56 
L 180 34.56 
z
" style="fill:#ffffff;"/>
   </g>
   <g id="PathCollection_1">
    <defs>
     <path d="M 0 3 
C 0.795609 3 1.55874 2.683901 2.12132 2.12132 
C 2.683901 1.55874 3 0.795609 3 0 
C 3 -0.795609 2.683901 -1.55874 2.12132 -2.12132 
C 1.55874 -2.683901 0.795609 -3 0 -3 
C -0.795609 -3 -1.55874 -2.683901 -2.12132 -2.12132 
C -2.683901 -1.55874 -3 -0.795609 -3 0 
C -3 0.795609 -2.683901 1.55874 -2.12132 2.12132 
C -1.55874 2.683901 -0.795609 3 0 3 
z
" id="m8f4374f932" style="stroke:#ff0000;"/>
    </defs>
    <g clip-path="url(#p6c78a1bc1f)">
     <use style="fill:#ff0000;stroke:#ff0000;" x="217.636364" xlink:href="#m8f4374f932" y="44.443636"/>
     <use style="fill:#ff0000;stroke:#ff0000;" x="217.82464" xlink:href="#m8f4374f932" y="142.266118"/>
     <use style="fill:#ff0000;stroke:#ff0000;" x="218.012916" xlink:href="#m8f4374f932" y="191.25311"/>
     <use style="fill:#ff0000;stroke:#ff0000;" x="218.201192" xlink:href="#m8f4374f932" y="215.578261"/>
     <use style="fill:#ff0000;stroke:#ff0000;" x="220.460503" xlink:href="#m8f4374f932" y="225.038943"/>
     <use style="fill:#ff0000;stroke:#ff0000;" x="220.648779" xlink:href="#m8f4374f932" y="220.842211"/>
     <use style="fill:#ff0000;stroke:#ff0000;" x="220.837055" xlink:href="#m8f4374f932" y="214.642713"/>
     <use style="fill:#ff0000;stroke:#ff0000;" x="221.025331" xlink:href="#m8f4374f932" y="208.926072"/>
     <use style="fill:#ff0000;stroke:#ff0000;" x="221.213607" xlink:href="#m8f4374f932" y="208.993581"/>
     <use style="fill:#ff0000;stroke:#ff0000;" x="221.401883" xlink:href="#m8f4374f932" y="206.283555"/>
     <use style="fill:#ff0000;stroke:#ff0000;" x="221.590159" xlink:href="#m8f4374f932" y="208.377709"/>
     <use style="fill:#ff0000;stroke:#ff0000;" x="221.778435" xlink:href="#m8f4374f932" y="210.321564"/>
     <use style="fill:#ff0000;stroke:#ff0000;" x="221.966711" xlink:href="#m8f4374f932" y="214.528611"/>
     <use style="fill:#ff0000;stroke:#ff0000;" x="222.154987" xlink:href="#m8f4374f932" y="215.706695"/>
     <use style="fill:#ff0000;stroke:#ff0000;" x="222.343263" xlink:href="#m8f4374f932" y="223.236921"/>
     <use style="fill:#ff0000;stroke:#ff0000;" x="222.531538" xlink:href="#m8f4374f932" y="223.713803"/>
     <use style="fill:#ff0000;stroke:#ff0000;" x="227.050161" xlink:href="#m8f4374f932" y="226.668612"/>
     <use style="fill:#ff0000;stroke:#ff0000;" x="227.614989" xlink:href="#m8f4374f932" y="220.10456"/>
     <use style="fill:#ff0000;stroke:#ff0000;" x="228.556369" xlink:href="#m8f4374f932" y="224.628412"/>
     <use style="fill:#ff0000;stroke:#ff0000;" x="229.497749" xlink:href="#m8f4374f932" y="220.674902"/>
     <use style="fill:#ff0000;stroke:#ff0000;" x="231.568784" xlink:href="#m8f4374f932" y="226.572253"/>
     <use style="fill:#ff0000;stroke:#ff0000;" x="234.204648" xlink:href="#m8f4374f932" y="226.298593"/>
     <use style="fill:#ff0000;stroke:#ff0000;" x="236.087407" xlink:href="#m8f4374f932" y="224.839124"/>
     <use style="fill:#ff0000;stroke:#ff0000;" x="237.405339" xlink:href="#m8f4374f932" y="226.362573"/>
     <use style="fill:#ff0000;stroke:#ff0000;" x="238.911547" xlink:href="#m8f4374f932" y="225.542044"/>
     <use style="fill:#ff0000;stroke:#ff0000;" x="249.831552" xlink:href="#m8f4374f932" y="226.783206"/>
     <use style="fill:#ff0000;stroke:#ff0000;" x="253.785347" xlink:href="#m8f4374f932" y="226.445532"/>
    </g>
   </g>
   <g id="matplotlib.axis_1">
    <g id="xtick_1">
     <g id="line2d_1">
      <path clip-path="url(#p6c78a1bc1f)" d="M 217.636364 252 
L 217.636364 34.56 
" style="fill:none;stroke:#b0b0b0;stroke-linecap:square;stroke-width:0.8;"/>
     </g>
     <g id="line2d_2">
      <defs>
       <path d="M 0 0 
L 0 3.5 
" id="mdf500cc0fa" style="stroke:#000000;stroke-width:0.8;"/>
      </defs>
      <g>
       <use style="stroke:#000000;stroke-width:0.8;" x="217.636364" xlink:href="#mdf500cc0fa" y="252"/>
      </g>
     </g>
     <g id="text_1">
      <!-- 0 -->
      <defs>
       <path d="M 4.15625 35.296875 
Q 4.15625 48 6.765625 55.734375 
Q 9.375 63.484375 14.515625 67.671875 
Q 19.671875 71.875 27.484375 71.875 
Q 33.25 71.875 37.59375 69.546875 
Q 41.9375 67.234375 44.765625 62.859375 
Q 47.609375 58.5 49.21875 52.21875 
Q 50.828125 45.953125 50.828125 35.296875 
Q 50.828125 22.703125 48.234375 14.96875 
Q 45.65625 7.234375 40.5 3 
Q 35.359375 -1.21875 27.484375 -1.21875 
Q 17.140625 -1.21875 11.234375 6.203125 
Q 4.15625 15.140625 4.15625 35.296875 
z
M 13.1875 35.296875 
Q 13.1875 17.671875 17.3125 11.828125 
Q 21.4375 6 27.484375 6 
Q 33.546875 6 37.671875 11.859375 
Q 41.796875 17.71875 41.796875 35.296875 
Q 41.796875 52.984375 37.671875 58.78125 
Q 33.546875 64.59375 27.390625 64.59375 
Q 21.34375 64.59375 17.71875 59.46875 
Q 13.1875 52.9375 13.1875 35.296875 
z
" id="ArialMT-48"/>
      </defs>
      <g transform="translate(210.407145 277.610313)scale(0.26 -0.26)">
       <use xlink:href="#ArialMT-48"/>
      </g>
     </g>
    </g>
    <g id="xtick_2">
     <g id="line2d_3">
      <path clip-path="url(#p6c78a1bc1f)" d="M 594.188276 252 
L 594.188276 34.56 
" style="fill:none;stroke:#b0b0b0;stroke-linecap:square;stroke-width:0.8;"/>
     </g>
     <g id="line2d_4">
      <g>
       <use style="stroke:#000000;stroke-width:0.8;" x="594.188276" xlink:href="#mdf500cc0fa" y="252"/>
      </g>
     </g>
     <g id="text_2">
      <!-- 2000 -->
      <defs>
       <path d="M 50.34375 8.453125 
L 50.34375 0 
L 3.03125 0 
Q 2.9375 3.171875 4.046875 6.109375 
Q 5.859375 10.9375 9.828125 15.625 
Q 13.8125 20.3125 21.34375 26.46875 
Q 33.015625 36.03125 37.109375 41.625 
Q 41.21875 47.21875 41.21875 52.203125 
Q 41.21875 57.421875 37.46875 61 
Q 33.734375 64.59375 27.734375 64.59375 
Q 21.390625 64.59375 17.578125 60.78125 
Q 13.765625 56.984375 13.71875 50.25 
L 4.6875 51.171875 
Q 5.609375 61.28125 11.65625 66.578125 
Q 17.71875 71.875 27.9375 71.875 
Q 38.234375 71.875 44.234375 66.15625 
Q 50.25 60.453125 50.25 52 
Q 50.25 47.703125 48.484375 43.546875 
Q 46.734375 39.40625 42.65625 34.8125 
Q 38.578125 30.21875 29.109375 22.21875 
Q 21.1875 15.578125 18.9375 13.203125 
Q 16.703125 10.84375 15.234375 8.453125 
z
" id="ArialMT-50"/>
      </defs>
      <g transform="translate(565.271401 277.610313)scale(0.26 -0.26)">
       <use xlink:href="#ArialMT-50"/>
       <use x="55.615234" xlink:href="#ArialMT-48"/>
       <use x="111.230469" xlink:href="#ArialMT-48"/>
       <use x="166.845703" xlink:href="#ArialMT-48"/>
      </g>
     </g>
    </g>
    <g id="xtick_3">
     <g id="line2d_5">
      <path clip-path="url(#p6c78a1bc1f)" d="M 970.740188 252 
L 970.740188 34.56 
" style="fill:none;stroke:#b0b0b0;stroke-linecap:square;stroke-width:0.8;"/>
     </g>
     <g id="line2d_6">
      <g>
       <use style="stroke:#000000;stroke-width:0.8;" x="970.740188" xlink:href="#mdf500cc0fa" y="252"/>
      </g>
     </g>
     <g id="text_3">
      <!-- 4000 -->
      <defs>
       <path d="M 32.328125 0 
L 32.328125 17.140625 
L 1.265625 17.140625 
L 1.265625 25.203125 
L 33.9375 71.578125 
L 41.109375 71.578125 
L 41.109375 25.203125 
L 50.78125 25.203125 
L 50.78125 17.140625 
L 41.109375 17.140625 
L 41.109375 0 
z
M 32.328125 25.203125 
L 32.328125 57.46875 
L 9.90625 25.203125 
z
" id="ArialMT-52"/>
      </defs>
      <g transform="translate(941.823313 277.610313)scale(0.26 -0.26)">
       <use xlink:href="#ArialMT-52"/>
       <use x="55.615234" xlink:href="#ArialMT-48"/>
       <use x="111.230469" xlink:href="#ArialMT-48"/>
       <use x="166.845703" xlink:href="#ArialMT-48"/>
      </g>
     </g>
    </g>
    <g id="text_4">
     <!-- # sample -->
     <defs>
      <path d="M 5.03125 -1.21875 
L 9.28125 19.578125 
L 1.03125 19.578125 
L 1.03125 26.859375 
L 10.75 26.859375 
L 14.359375 44.578125 
L 1.03125 44.578125 
L 1.03125 51.859375 
L 15.828125 51.859375 
L 20.0625 72.796875 
L 27.390625 72.796875 
L 23.140625 51.859375 
L 38.53125 51.859375 
L 42.78125 72.796875 
L 50.140625 72.796875 
L 45.90625 51.859375 
L 54.34375 51.859375 
L 54.34375 44.578125 
L 44.4375 44.578125 
L 40.765625 26.859375 
L 54.34375 26.859375 
L 54.34375 19.578125 
L 39.3125 19.578125 
L 35.0625 -1.21875 
L 27.734375 -1.21875 
L 31.9375 19.578125 
L 16.609375 19.578125 
L 12.359375 -1.21875 
z
M 18.0625 26.859375 
L 33.40625 26.859375 
L 37.0625 44.578125 
L 21.6875 44.578125 
z
" id="ArialMT-35"/>
      <path id="ArialMT-32"/>
      <path d="M 3.078125 15.484375 
L 11.765625 16.84375 
Q 12.5 11.625 15.84375 8.84375 
Q 19.1875 6.0625 25.203125 6.0625 
Q 31.25 6.0625 34.171875 8.515625 
Q 37.109375 10.984375 37.109375 14.3125 
Q 37.109375 17.28125 34.515625 19 
Q 32.71875 20.171875 25.53125 21.96875 
Q 15.875 24.421875 12.140625 26.203125 
Q 8.40625 27.984375 6.46875 31.125 
Q 4.546875 34.28125 4.546875 38.09375 
Q 4.546875 41.546875 6.125 44.5 
Q 7.71875 47.46875 10.453125 49.421875 
Q 12.5 50.921875 16.03125 51.96875 
Q 19.578125 53.03125 23.640625 53.03125 
Q 29.734375 53.03125 34.34375 51.265625 
Q 38.96875 49.515625 41.15625 46.5 
Q 43.359375 43.5 44.1875 38.484375 
L 35.59375 37.3125 
Q 35.015625 41.3125 32.203125 43.546875 
Q 29.390625 45.796875 24.265625 45.796875 
Q 18.21875 45.796875 15.625 43.796875 
Q 13.03125 41.796875 13.03125 39.109375 
Q 13.03125 37.40625 14.109375 36.03125 
Q 15.1875 34.625 17.484375 33.6875 
Q 18.796875 33.203125 25.25 31.453125 
Q 34.578125 28.953125 38.25 27.359375 
Q 41.9375 25.78125 44.03125 22.75 
Q 46.140625 19.734375 46.140625 15.234375 
Q 46.140625 10.84375 43.578125 6.953125 
Q 41.015625 3.078125 36.171875 0.953125 
Q 31.34375 -1.171875 25.25 -1.171875 
Q 15.140625 -1.171875 9.84375 3.03125 
Q 4.546875 7.234375 3.078125 15.484375 
z
" id="ArialMT-115"/>
      <path d="M 40.4375 6.390625 
Q 35.546875 2.25 31.03125 0.53125 
Q 26.515625 -1.171875 21.34375 -1.171875 
Q 12.796875 -1.171875 8.203125 3 
Q 3.609375 7.171875 3.609375 13.671875 
Q 3.609375 17.484375 5.34375 20.625 
Q 7.078125 23.78125 9.890625 25.6875 
Q 12.703125 27.59375 16.21875 28.5625 
Q 18.796875 29.25 24.03125 29.890625 
Q 34.671875 31.15625 39.703125 32.90625 
Q 39.75 34.71875 39.75 35.203125 
Q 39.75 40.578125 37.25 42.78125 
Q 33.890625 45.75 27.25 45.75 
Q 21.046875 45.75 18.09375 43.578125 
Q 15.140625 41.40625 13.71875 35.890625 
L 5.125 37.0625 
Q 6.296875 42.578125 8.984375 45.96875 
Q 11.671875 49.359375 16.75 51.1875 
Q 21.828125 53.03125 28.515625 53.03125 
Q 35.15625 53.03125 39.296875 51.46875 
Q 43.453125 49.90625 45.40625 47.53125 
Q 47.359375 45.171875 48.140625 41.546875 
Q 48.578125 39.3125 48.578125 33.453125 
L 48.578125 21.734375 
Q 48.578125 9.46875 49.140625 6.21875 
Q 49.703125 2.984375 51.375 0 
L 42.1875 0 
Q 40.828125 2.734375 40.4375 6.390625 
z
M 39.703125 26.03125 
Q 34.90625 24.078125 25.34375 22.703125 
Q 19.921875 21.921875 17.671875 20.9375 
Q 15.4375 19.96875 14.203125 18.09375 
Q 12.984375 16.21875 12.984375 13.921875 
Q 12.984375 10.40625 15.640625 8.0625 
Q 18.3125 5.71875 23.4375 5.71875 
Q 28.515625 5.71875 32.46875 7.9375 
Q 36.421875 10.15625 38.28125 14.015625 
Q 39.703125 17 39.703125 22.796875 
z
" id="ArialMT-97"/>
      <path d="M 6.59375 0 
L 6.59375 51.859375 
L 14.453125 51.859375 
L 14.453125 44.578125 
Q 16.890625 48.390625 20.9375 50.703125 
Q 25 53.03125 30.171875 53.03125 
Q 35.9375 53.03125 39.625 50.640625 
Q 43.3125 48.25 44.828125 43.953125 
Q 50.984375 53.03125 60.84375 53.03125 
Q 68.5625 53.03125 72.703125 48.75 
Q 76.859375 44.484375 76.859375 35.59375 
L 76.859375 0 
L 68.109375 0 
L 68.109375 32.671875 
Q 68.109375 37.9375 67.25 40.25 
Q 66.40625 42.578125 64.15625 43.984375 
Q 61.921875 45.40625 58.890625 45.40625 
Q 53.421875 45.40625 49.796875 41.765625 
Q 46.1875 38.140625 46.1875 30.125 
L 46.1875 0 
L 37.40625 0 
L 37.40625 33.6875 
Q 37.40625 39.546875 35.25 42.46875 
Q 33.109375 45.40625 28.21875 45.40625 
Q 24.515625 45.40625 21.359375 43.453125 
Q 18.21875 41.5 16.796875 37.734375 
Q 15.375 33.984375 15.375 26.90625 
L 15.375 0 
z
" id="ArialMT-109"/>
      <path d="M 6.59375 -19.875 
L 6.59375 51.859375 
L 14.59375 51.859375 
L 14.59375 45.125 
Q 17.4375 49.078125 21 51.046875 
Q 24.5625 53.03125 29.640625 53.03125 
Q 36.28125 53.03125 41.359375 49.609375 
Q 46.4375 46.1875 49.015625 39.953125 
Q 51.609375 33.734375 51.609375 26.3125 
Q 51.609375 18.359375 48.75 11.984375 
Q 45.90625 5.609375 40.453125 2.21875 
Q 35.015625 -1.171875 29 -1.171875 
Q 24.609375 -1.171875 21.109375 0.6875 
Q 17.625 2.546875 15.375 5.375 
L 15.375 -19.875 
z
M 14.546875 25.640625 
Q 14.546875 15.625 18.59375 10.84375 
Q 22.65625 6.0625 28.421875 6.0625 
Q 34.28125 6.0625 38.453125 11.015625 
Q 42.625 15.96875 42.625 26.375 
Q 42.625 36.28125 38.546875 41.203125 
Q 34.46875 46.140625 28.8125 46.140625 
Q 23.1875 46.140625 18.859375 40.890625 
Q 14.546875 35.640625 14.546875 25.640625 
z
" id="ArialMT-112"/>
      <path d="M 6.390625 0 
L 6.390625 71.578125 
L 15.1875 71.578125 
L 15.1875 0 
z
" id="ArialMT-108"/>
      <path d="M 42.09375 16.703125 
L 51.171875 15.578125 
Q 49.03125 7.625 43.21875 3.21875 
Q 37.40625 -1.171875 28.375 -1.171875 
Q 17 -1.171875 10.328125 5.828125 
Q 3.65625 12.84375 3.65625 25.484375 
Q 3.65625 38.578125 10.390625 45.796875 
Q 17.140625 53.03125 27.875 53.03125 
Q 38.28125 53.03125 44.875 45.953125 
Q 51.46875 38.875 51.46875 26.03125 
Q 51.46875 25.25 51.421875 23.6875 
L 12.75 23.6875 
Q 13.234375 15.140625 17.578125 10.59375 
Q 21.921875 6.0625 28.421875 6.0625 
Q 33.25 6.0625 36.671875 8.59375 
Q 40.09375 11.140625 42.09375 16.703125 
z
M 13.234375 30.90625 
L 42.1875 30.90625 
Q 41.609375 37.453125 38.875 40.71875 
Q 34.671875 45.796875 27.984375 45.796875 
Q 21.921875 45.796875 17.796875 41.75 
Q 13.671875 37.703125 13.234375 30.90625 
z
" id="ArialMT-101"/>
     </defs>
     <g transform="translate(541.254531 305.705)scale(0.26 -0.26)">
      <use xlink:href="#ArialMT-35"/>
      <use x="55.615234" xlink:href="#ArialMT-32"/>
      <use x="83.398438" xlink:href="#ArialMT-115"/>
      <use x="133.398438" xlink:href="#ArialMT-97"/>
      <use x="189.013672" xlink:href="#ArialMT-109"/>
      <use x="272.314453" xlink:href="#ArialMT-112"/>
      <use x="327.929688" xlink:href="#ArialMT-108"/>
      <use x="350.146484" xlink:href="#ArialMT-101"/>
     </g>
    </g>
   </g>
   <g id="matplotlib.axis_2">
    <g id="ytick_1">
     <g id="line2d_7">
      <path clip-path="url(#p6c78a1bc1f)" d="M 180 242.127524 
L 1008 242.127524 
" style="fill:none;stroke:#b0b0b0;stroke-linecap:square;stroke-width:0.8;"/>
     </g>
     <g id="line2d_8">
      <defs>
       <path d="M 0 0 
L -3.5 0 
" id="m2c503c6d50" style="stroke:#000000;stroke-width:0.8;"/>
      </defs>
      <g>
       <use style="stroke:#000000;stroke-width:0.8;" x="180" xlink:href="#m2c503c6d50" y="242.127524"/>
      </g>
     </g>
     <g id="text_5">
      <!-- 0 -->
      <g transform="translate(158.541562 251.43268)scale(0.26 -0.26)">
       <use xlink:href="#ArialMT-48"/>
      </g>
     </g>
    </g>
    <g id="ytick_2">
     <g id="line2d_9">
      <path clip-path="url(#p6c78a1bc1f)" d="M 180 174.693074 
L 1008 174.693074 
" style="fill:none;stroke:#b0b0b0;stroke-linecap:square;stroke-width:0.8;"/>
     </g>
     <g id="line2d_10">
      <g>
       <use style="stroke:#000000;stroke-width:0.8;" x="180" xlink:href="#m2c503c6d50" y="174.693074"/>
      </g>
     </g>
     <g id="text_6">
      <!-- 50 -->
      <defs>
       <path d="M 4.15625 18.75 
L 13.375 19.53125 
Q 14.40625 12.796875 18.140625 9.390625 
Q 21.875 6 27.15625 6 
Q 33.5 6 37.890625 10.78125 
Q 42.28125 15.578125 42.28125 23.484375 
Q 42.28125 31 38.0625 35.34375 
Q 33.84375 39.703125 27 39.703125 
Q 22.75 39.703125 19.328125 37.765625 
Q 15.921875 35.84375 13.96875 32.765625 
L 5.71875 33.84375 
L 12.640625 70.609375 
L 48.25 70.609375 
L 48.25 62.203125 
L 19.671875 62.203125 
L 15.828125 42.96875 
Q 22.265625 47.46875 29.34375 47.46875 
Q 38.71875 47.46875 45.15625 40.96875 
Q 51.609375 34.46875 51.609375 24.265625 
Q 51.609375 14.546875 45.953125 7.46875 
Q 39.0625 -1.21875 27.15625 -1.21875 
Q 17.390625 -1.21875 11.203125 4.25 
Q 5.03125 9.71875 4.15625 18.75 
z
" id="ArialMT-53"/>
      </defs>
      <g transform="translate(144.083125 183.998231)scale(0.26 -0.26)">
       <use xlink:href="#ArialMT-53"/>
       <use x="55.615234" xlink:href="#ArialMT-48"/>
      </g>
     </g>
    </g>
    <g id="ytick_3">
     <g id="line2d_11">
      <path clip-path="url(#p6c78a1bc1f)" d="M 180 107.258624 
L 1008 107.258624 
" style="fill:none;stroke:#b0b0b0;stroke-linecap:square;stroke-width:0.8;"/>
     </g>
     <g id="line2d_12">
      <g>
       <use style="stroke:#000000;stroke-width:0.8;" x="180" xlink:href="#m2c503c6d50" y="107.258624"/>
      </g>
     </g>
     <g id="text_7">
      <!-- 100 -->
      <defs>
       <path d="M 37.25 0 
L 28.46875 0 
L 28.46875 56 
Q 25.296875 52.984375 20.140625 49.953125 
Q 14.984375 46.921875 10.890625 45.40625 
L 10.890625 53.90625 
Q 18.265625 57.375 23.78125 62.296875 
Q 29.296875 67.234375 31.59375 71.875 
L 37.25 71.875 
z
" id="ArialMT-49"/>
      </defs>
      <g transform="translate(129.624687 116.563781)scale(0.26 -0.26)">
       <use xlink:href="#ArialMT-49"/>
       <use x="55.615234" xlink:href="#ArialMT-48"/>
       <use x="111.230469" xlink:href="#ArialMT-48"/>
      </g>
     </g>
    </g>
    <g id="ytick_4">
     <g id="line2d_13">
      <path clip-path="url(#p6c78a1bc1f)" d="M 180 39.824175 
L 1008 39.824175 
" style="fill:none;stroke:#b0b0b0;stroke-linecap:square;stroke-width:0.8;"/>
     </g>
     <g id="line2d_14">
      <g>
       <use style="stroke:#000000;stroke-width:0.8;" x="180" xlink:href="#m2c503c6d50" y="39.824175"/>
      </g>
     </g>
     <g id="text_8">
      <!-- 150 -->
      <g transform="translate(129.624687 49.129331)scale(0.26 -0.26)">
       <use xlink:href="#ArialMT-49"/>
       <use x="55.615234" xlink:href="#ArialMT-53"/>
       <use x="111.230469" xlink:href="#ArialMT-48"/>
      </g>
     </g>
    </g>
    <g id="text_9">
     <!-- Change-point score  -->
     <defs>
      <path d="M 58.796875 25.09375 
L 68.265625 22.703125 
Q 65.28125 11.03125 57.546875 4.90625 
Q 49.8125 -1.21875 38.625 -1.21875 
Q 27.046875 -1.21875 19.796875 3.484375 
Q 12.546875 8.203125 8.765625 17.140625 
Q 4.984375 26.078125 4.984375 36.328125 
Q 4.984375 47.515625 9.25 55.828125 
Q 13.53125 64.15625 21.40625 68.46875 
Q 29.296875 72.796875 38.765625 72.796875 
Q 49.515625 72.796875 56.828125 67.328125 
Q 64.15625 61.859375 67.046875 51.953125 
L 57.71875 49.75 
Q 55.21875 57.5625 50.484375 61.125 
Q 45.75 64.703125 38.578125 64.703125 
Q 30.328125 64.703125 24.78125 60.734375 
Q 19.234375 56.78125 16.984375 50.109375 
Q 14.75 43.453125 14.75 36.375 
Q 14.75 27.25 17.40625 20.4375 
Q 20.0625 13.625 25.671875 10.25 
Q 31.296875 6.890625 37.84375 6.890625 
Q 45.796875 6.890625 51.3125 11.46875 
Q 56.84375 16.0625 58.796875 25.09375 
z
" id="ArialMT-67"/>
      <path d="M 6.59375 0 
L 6.59375 71.578125 
L 15.375 71.578125 
L 15.375 45.90625 
Q 21.53125 53.03125 30.90625 53.03125 
Q 36.671875 53.03125 40.921875 50.75 
Q 45.171875 48.484375 47 44.484375 
Q 48.828125 40.484375 48.828125 32.859375 
L 48.828125 0 
L 40.046875 0 
L 40.046875 32.859375 
Q 40.046875 39.453125 37.1875 42.453125 
Q 34.328125 45.453125 29.109375 45.453125 
Q 25.203125 45.453125 21.75 43.421875 
Q 18.3125 41.40625 16.84375 37.9375 
Q 15.375 34.46875 15.375 28.375 
L 15.375 0 
z
" id="ArialMT-104"/>
      <path d="M 6.59375 0 
L 6.59375 51.859375 
L 14.5 51.859375 
L 14.5 44.484375 
Q 20.21875 53.03125 31 53.03125 
Q 35.6875 53.03125 39.625 51.34375 
Q 43.5625 49.65625 45.515625 46.921875 
Q 47.46875 44.1875 48.25 40.4375 
Q 48.734375 37.984375 48.734375 31.890625 
L 48.734375 0 
L 39.9375 0 
L 39.9375 31.546875 
Q 39.9375 36.921875 38.90625 39.578125 
Q 37.890625 42.234375 35.28125 43.8125 
Q 32.671875 45.40625 29.15625 45.40625 
Q 23.53125 45.40625 19.453125 41.84375 
Q 15.375 38.28125 15.375 28.328125 
L 15.375 0 
z
" id="ArialMT-110"/>
      <path d="M 4.984375 -4.296875 
L 13.53125 -5.5625 
Q 14.0625 -9.515625 16.5 -11.328125 
Q 19.78125 -13.765625 25.4375 -13.765625 
Q 31.546875 -13.765625 34.859375 -11.328125 
Q 38.1875 -8.890625 39.359375 -4.5 
Q 40.046875 -1.8125 39.984375 6.78125 
Q 34.234375 0 25.640625 0 
Q 14.9375 0 9.078125 7.71875 
Q 3.21875 15.4375 3.21875 26.21875 
Q 3.21875 33.640625 5.90625 39.90625 
Q 8.59375 46.1875 13.6875 49.609375 
Q 18.796875 53.03125 25.6875 53.03125 
Q 34.859375 53.03125 40.828125 45.609375 
L 40.828125 51.859375 
L 48.921875 51.859375 
L 48.921875 7.03125 
Q 48.921875 -5.078125 46.453125 -10.125 
Q 44 -15.1875 38.640625 -18.109375 
Q 33.296875 -21.046875 25.484375 -21.046875 
Q 16.21875 -21.046875 10.5 -16.875 
Q 4.78125 -12.703125 4.984375 -4.296875 
z
M 12.25 26.859375 
Q 12.25 16.65625 16.296875 11.96875 
Q 20.359375 7.28125 26.46875 7.28125 
Q 32.515625 7.28125 36.609375 11.9375 
Q 40.71875 16.609375 40.71875 26.5625 
Q 40.71875 36.078125 36.5 40.90625 
Q 32.28125 45.75 26.3125 45.75 
Q 20.453125 45.75 16.34375 40.984375 
Q 12.25 36.234375 12.25 26.859375 
z
" id="ArialMT-103"/>
      <path d="M 3.171875 21.484375 
L 3.171875 30.328125 
L 30.171875 30.328125 
L 30.171875 21.484375 
z
" id="ArialMT-45"/>
      <path d="M 3.328125 25.921875 
Q 3.328125 40.328125 11.328125 47.265625 
Q 18.015625 53.03125 27.640625 53.03125 
Q 38.328125 53.03125 45.109375 46.015625 
Q 51.90625 39.015625 51.90625 26.65625 
Q 51.90625 16.65625 48.90625 10.90625 
Q 45.90625 5.171875 40.15625 2 
Q 34.421875 -1.171875 27.640625 -1.171875 
Q 16.75 -1.171875 10.03125 5.8125 
Q 3.328125 12.796875 3.328125 25.921875 
z
M 12.359375 25.921875 
Q 12.359375 15.96875 16.703125 11.015625 
Q 21.046875 6.0625 27.640625 6.0625 
Q 34.1875 6.0625 38.53125 11.03125 
Q 42.875 16.015625 42.875 26.21875 
Q 42.875 35.84375 38.5 40.796875 
Q 34.125 45.75 27.640625 45.75 
Q 21.046875 45.75 16.703125 40.8125 
Q 12.359375 35.890625 12.359375 25.921875 
z
" id="ArialMT-111"/>
      <path d="M 6.640625 61.46875 
L 6.640625 71.578125 
L 15.4375 71.578125 
L 15.4375 61.46875 
z
M 6.640625 0 
L 6.640625 51.859375 
L 15.4375 51.859375 
L 15.4375 0 
z
" id="ArialMT-105"/>
      <path d="M 25.78125 7.859375 
L 27.046875 0.09375 
Q 23.34375 -0.6875 20.40625 -0.6875 
Q 15.625 -0.6875 12.984375 0.828125 
Q 10.359375 2.34375 9.28125 4.8125 
Q 8.203125 7.28125 8.203125 15.1875 
L 8.203125 45.015625 
L 1.765625 45.015625 
L 1.765625 51.859375 
L 8.203125 51.859375 
L 8.203125 64.703125 
L 16.9375 69.96875 
L 16.9375 51.859375 
L 25.78125 51.859375 
L 25.78125 45.015625 
L 16.9375 45.015625 
L 16.9375 14.703125 
Q 16.9375 10.9375 17.40625 9.859375 
Q 17.875 8.796875 18.921875 8.15625 
Q 19.96875 7.515625 21.921875 7.515625 
Q 23.390625 7.515625 25.78125 7.859375 
z
" id="ArialMT-116"/>
      <path d="M 40.4375 19 
L 49.078125 17.875 
Q 47.65625 8.9375 41.8125 3.875 
Q 35.984375 -1.171875 27.484375 -1.171875 
Q 16.84375 -1.171875 10.375 5.78125 
Q 3.90625 12.75 3.90625 25.734375 
Q 3.90625 34.125 6.6875 40.421875 
Q 9.46875 46.734375 15.15625 49.875 
Q 20.84375 53.03125 27.546875 53.03125 
Q 35.984375 53.03125 41.359375 48.75 
Q 46.734375 44.484375 48.25 36.625 
L 39.703125 35.296875 
Q 38.484375 40.53125 35.375 43.15625 
Q 32.28125 45.796875 27.875 45.796875 
Q 21.234375 45.796875 17.078125 41.03125 
Q 12.9375 36.28125 12.9375 25.984375 
Q 12.9375 15.53125 16.9375 10.796875 
Q 20.953125 6.0625 27.390625 6.0625 
Q 32.5625 6.0625 36.03125 9.234375 
Q 39.5 12.40625 40.4375 19 
z
" id="ArialMT-99"/>
      <path d="M 6.5 0 
L 6.5 51.859375 
L 14.40625 51.859375 
L 14.40625 44 
Q 17.4375 49.515625 20 51.265625 
Q 22.5625 53.03125 25.640625 53.03125 
Q 30.078125 53.03125 34.671875 50.203125 
L 31.640625 42.046875 
Q 28.421875 43.953125 25.203125 43.953125 
Q 22.3125 43.953125 20.015625 42.21875 
Q 17.71875 40.484375 16.75 37.40625 
Q 15.28125 32.71875 15.28125 27.15625 
L 15.28125 0 
z
" id="ArialMT-114"/>
     </defs>
     <g transform="translate(91.967687 260.340937)rotate(-90)scale(0.26 -0.26)">
      <use xlink:href="#ArialMT-67"/>
      <use x="72.216797" xlink:href="#ArialMT-104"/>
      <use x="127.832031" xlink:href="#ArialMT-97"/>
      <use x="183.447266" xlink:href="#ArialMT-110"/>
      <use x="239.0625" xlink:href="#ArialMT-103"/>
      <use x="294.677734" xlink:href="#ArialMT-101"/>
      <use x="350.292969" xlink:href="#ArialMT-45"/>
      <use x="383.59375" xlink:href="#ArialMT-112"/>
      <use x="439.208984" xlink:href="#ArialMT-111"/>
      <use x="494.824219" xlink:href="#ArialMT-105"/>
      <use x="517.041016" xlink:href="#ArialMT-110"/>
      <use x="572.65625" xlink:href="#ArialMT-116"/>
      <use x="600.439453" xlink:href="#ArialMT-32"/>
      <use x="628.222656" xlink:href="#ArialMT-115"/>
      <use x="678.222656" xlink:href="#ArialMT-99"/>
      <use x="728.222656" xlink:href="#ArialMT-111"/>
      <use x="783.837891" xlink:href="#ArialMT-114"/>
      <use x="817.138672" xlink:href="#ArialMT-101"/>
      <use x="872.753906" xlink:href="#ArialMT-32"/>
     </g>
     <!-- (KL div.) -->
     <defs>
      <path d="M 23.390625 -21.046875 
Q 16.109375 -11.859375 11.078125 0.4375 
Q 6.0625 12.75 6.0625 25.921875 
Q 6.0625 37.546875 9.8125 48.1875 
Q 14.203125 60.546875 23.390625 72.796875 
L 29.6875 72.796875 
Q 23.78125 62.640625 21.875 58.296875 
Q 18.890625 51.5625 17.1875 44.234375 
Q 15.09375 35.109375 15.09375 25.875 
Q 15.09375 2.390625 29.6875 -21.046875 
z
" id="ArialMT-40"/>
      <path d="M 7.328125 0 
L 7.328125 71.578125 
L 16.796875 71.578125 
L 16.796875 36.078125 
L 52.34375 71.578125 
L 65.1875 71.578125 
L 35.15625 42.578125 
L 66.5 0 
L 54 0 
L 28.515625 36.234375 
L 16.796875 24.8125 
L 16.796875 0 
z
" id="ArialMT-75"/>
      <path d="M 7.328125 0 
L 7.328125 71.578125 
L 16.796875 71.578125 
L 16.796875 8.453125 
L 52.046875 8.453125 
L 52.046875 0 
z
" id="ArialMT-76"/>
      <path d="M 40.234375 0 
L 40.234375 6.546875 
Q 35.296875 -1.171875 25.734375 -1.171875 
Q 19.53125 -1.171875 14.328125 2.25 
Q 9.125 5.671875 6.265625 11.796875 
Q 3.421875 17.921875 3.421875 25.875 
Q 3.421875 33.640625 6 39.96875 
Q 8.59375 46.296875 13.765625 49.65625 
Q 18.953125 53.03125 25.34375 53.03125 
Q 30.03125 53.03125 33.6875 51.046875 
Q 37.359375 49.078125 39.65625 45.90625 
L 39.65625 71.578125 
L 48.390625 71.578125 
L 48.390625 0 
z
M 12.453125 25.875 
Q 12.453125 15.921875 16.640625 10.984375 
Q 20.84375 6.0625 26.5625 6.0625 
Q 32.328125 6.0625 36.34375 10.765625 
Q 40.375 15.484375 40.375 25.140625 
Q 40.375 35.796875 36.265625 40.765625 
Q 32.171875 45.75 26.171875 45.75 
Q 20.3125 45.75 16.375 40.96875 
Q 12.453125 36.1875 12.453125 25.875 
z
" id="ArialMT-100"/>
      <path d="M 21 0 
L 1.265625 51.859375 
L 10.546875 51.859375 
L 21.6875 20.796875 
Q 23.484375 15.765625 25 10.359375 
Q 26.171875 14.453125 28.265625 20.21875 
L 39.796875 51.859375 
L 48.828125 51.859375 
L 29.203125 0 
z
" id="ArialMT-118"/>
      <path d="M 9.078125 0 
L 9.078125 10.015625 
L 19.09375 10.015625 
L 19.09375 0 
z
" id="ArialMT-46"/>
      <path d="M 12.359375 -21.046875 
L 6.0625 -21.046875 
Q 20.65625 2.390625 20.65625 25.875 
Q 20.65625 35.0625 18.5625 44.09375 
Q 16.890625 51.421875 13.921875 58.15625 
Q 12.015625 62.546875 6.0625 72.796875 
L 12.359375 72.796875 
Q 21.53125 60.546875 25.921875 48.1875 
Q 29.6875 37.546875 29.6875 25.921875 
Q 29.6875 12.75 24.625 0.4375 
Q 19.578125 -11.859375 12.359375 -21.046875 
z
" id="ArialMT-41"/>
     </defs>
     <g transform="translate(120.1525 190.232344)rotate(-90)scale(0.26 -0.26)">
      <use xlink:href="#ArialMT-40"/>
      <use x="33.300781" xlink:href="#ArialMT-75"/>
      <use x="100" xlink:href="#ArialMT-76"/>
      <use x="151.865234" xlink:href="#ArialMT-32"/>
      <use x="179.648438" xlink:href="#ArialMT-100"/>
      <use x="235.263672" xlink:href="#ArialMT-105"/>
      <use x="257.480469" xlink:href="#ArialMT-118"/>
      <use x="300.105469" xlink:href="#ArialMT-46"/>
      <use x="327.888672" xlink:href="#ArialMT-41"/>
     </g>
    </g>
   </g>
   <g id="line2d_15">
    <path clip-path="url(#p6c78a1bc1f)" d="M 217.636364 44.443636 
L 218.012916 191.25311 
L 218.389467 227.723655 
L 218.766019 236.740561 
L 218.954295 238.096947 
L 219.142571 238.34334 
L 219.330847 238.346726 
L 219.519123 237.961786 
L 219.895675 235.341457 
L 220.083951 233.152245 
L 220.648779 220.842211 
L 221.025331 208.926072 
L 221.213607 208.993581 
L 221.401883 206.283555 
L 221.778435 210.321564 
L 221.966711 214.528611 
L 222.154987 215.706695 
L 222.343263 223.236921 
L 222.531538 223.713803 
L 222.719814 229.950242 
L 222.90809 230.582363 
L 223.472918 235.849271 
L 223.661194 236.637743 
L 223.84947 236.30256 
L 224.037746 236.204305 
L 224.226022 238.929629 
L 224.414298 235.295776 
L 224.602574 235.950744 
L 224.79085 235.902411 
L 224.979126 236.575555 
L 225.543954 233.168254 
L 225.73223 230.116636 
L 225.920506 235.29364 
L 226.297058 227.412784 
L 226.485334 230.156518 
L 226.67361 228.063473 
L 226.861885 229.493672 
L 227.050161 226.668612 
L 227.238437 229.436421 
L 227.426713 229.269567 
L 227.614989 220.10456 
L 227.991541 231.486979 
L 228.179817 232.070279 
L 228.556369 224.628412 
L 228.744645 233.680237 
L 228.932921 235.27555 
L 229.121197 232.500399 
L 229.309473 233.477359 
L 229.497749 220.674902 
L 229.686025 233.405764 
L 229.874301 236.738715 
L 230.062577 231.195867 
L 230.250853 230.606649 
L 230.439129 231.60852 
L 230.815681 231.176516 
L 231.003957 234.432287 
L 231.192232 234.341359 
L 231.380508 234.698544 
L 231.568784 226.572253 
L 231.75706 233.311974 
L 231.945336 233.93545 
L 232.133612 237.76317 
L 232.321888 232.767959 
L 232.510164 232.228156 
L 232.69844 236.320824 
L 233.074992 229.918865 
L 233.263268 236.415848 
L 233.451544 230.01902 
L 233.63982 231.079724 
L 233.828096 235.356338 
L 234.016372 233.871869 
L 234.204648 226.298593 
L 234.392924 229.090475 
L 234.5812 235.527431 
L 234.769476 233.12717 
L 234.957752 235.989537 
L 235.146028 230.672764 
L 235.334304 235.577913 
L 235.522579 234.901764 
L 235.710855 229.212298 
L 235.899131 237.11345 
L 236.087407 224.839124 
L 236.275683 235.538412 
L 236.463959 230.41116 
L 236.652235 233.143318 
L 236.840511 232.832966 
L 237.028787 236.726177 
L 237.405339 226.362573 
L 237.781891 236.986506 
L 237.970167 230.526731 
L 238.158443 236.508247 
L 238.346719 234.769991 
L 238.534995 231.556427 
L 238.723271 234.238064 
L 238.911547 225.542044 
L 239.099823 235.407174 
L 239.288099 235.960007 
L 239.476375 235.290353 
L 239.664651 236.307733 
L 239.852926 234.427257 
L 240.041202 236.801361 
L 240.229478 234.543744 
L 240.417754 234.838833 
L 240.60603 238.999376 
L 240.794306 231.954546 
L 240.982582 238.16481 
L 241.170858 230.705055 
L 241.359134 235.826123 
L 241.54741 233.011284 
L 241.735686 234.223935 
L 241.923962 238.387577 
L 242.112238 239.281675 
L 242.48879 232.100346 
L 242.865342 237.888174 
L 243.053618 231.810266 
L 243.241894 238.77777 
L 243.43017 231.864543 
L 243.618446 230.458642 
L 243.806722 235.358172 
L 243.994997 230.299157 
L 244.183273 236.159294 
L 244.371549 236.743702 
L 244.559825 236.45345 
L 244.748101 237.030056 
L 245.312929 232.605396 
L 245.501205 232.926258 
L 245.689481 231.537622 
L 246.066033 238.429593 
L 246.254309 238.586581 
L 246.442585 235.687926 
L 246.630861 237.401588 
L 246.819137 237.308341 
L 247.007413 230.870035 
L 247.195689 234.875017 
L 247.383965 232.585898 
L 247.572241 238.279698 
L 247.760517 239.508769 
L 247.948793 232.851527 
L 248.137069 237.971492 
L 248.325344 234.283912 
L 248.51362 233.390155 
L 248.701896 236.327152 
L 248.890172 235.863079 
L 249.078448 236.734118 
L 249.266724 236.274368 
L 249.455 237.333965 
L 249.643276 236.614326 
L 249.831552 226.783206 
L 250.019828 234.588571 
L 250.208104 232.640138 
L 250.39638 232.13458 
L 250.584656 235.262212 
L 250.772932 232.617015 
L 250.961208 236.479877 
L 251.149484 235.646164 
L 251.33776 231.898402 
L 251.526036 234.959101 
L 251.714312 232.519683 
L 251.902588 238.346429 
L 252.090864 231.055558 
L 252.27914 236.501767 
L 252.467416 236.691115 
L 252.655691 233.550956 
L 252.843967 235.160908 
L 253.032243 232.382794 
L 253.220519 236.259047 
L 253.785347 226.445532 
L 253.973623 236.997148 
L 254.161899 233.776371 
L 254.350175 238.561393 
L 254.538451 235.976478 
L 254.726727 236.579846 
L 254.915003 235.620257 
L 255.103279 238.670609 
L 255.291555 237.379588 
L 255.479831 235.007614 
L 255.668107 235.135093 
L 255.856383 239.573383 
L 256.232935 234.203821 
L 256.421211 237.59445 
L 256.609487 237.897179 
L 256.797763 236.754918 
L 256.986038 238.812505 
L 257.174314 237.716998 
L 257.36259 239.748268 
L 257.550866 235.183268 
L 257.739142 236.430499 
L 257.927418 230.984782 
L 258.115694 239.393943 
L 258.30397 237.002133 
L 258.492246 236.37896 
L 258.680522 236.795668 
L 258.868798 238.683368 
L 259.057074 234.795326 
L 259.24535 236.546555 
L 259.433626 239.533955 
L 259.621902 237.966757 
L 259.810178 239.415698 
L 260.18673 237.117652 
L 260.375006 237.156174 
L 260.563282 236.615475 
L 260.751558 235.692304 
L 260.939834 236.811981 
L 261.12811 239.97237 
L 261.316385 237.622491 
L 261.504661 238.477963 
L 261.692937 236.598647 
L 262.069489 239.223534 
L 262.257765 238.994277 
L 262.446041 239.852326 
L 262.634317 235.617126 
L 262.822593 238.638815 
L 263.010869 233.793262 
L 263.575697 239.315463 
L 263.763973 238.077389 
L 263.952249 239.021306 
L 264.328801 234.906239 
L 264.517077 234.424741 
L 264.705353 236.138654 
L 264.893629 234.036197 
L 265.081905 227.463133 
L 265.270181 234.963958 
L 265.458457 235.354569 
L 265.646732 233.085418 
L 265.835008 237.162526 
L 266.023284 236.95357 
L 266.21156 231.949632 
L 266.399836 235.334179 
L 266.588112 232.296803 
L 266.776388 239.521072 
L 266.964664 236.538828 
L 267.15294 236.449586 
L 267.341216 232.417946 
L 267.529492 236.936881 
L 267.717768 233.664574 
L 267.906044 239.733115 
L 268.282596 234.62136 
L 268.470872 236.679184 
L 268.659148 236.738485 
L 268.847424 238.364581 
L 269.223976 234.481711 
L 269.412252 237.0628 
L 269.600528 237.921274 
L 269.788803 236.01853 
L 269.977079 236.353062 
L 270.165355 238.305982 
L 270.353631 232.55328 
L 270.541907 237.562624 
L 270.730183 236.525154 
L 270.918459 236.609419 
L 271.106735 237.685253 
L 271.295011 233.511708 
L 271.671563 237.953286 
L 271.859839 238.14347 
L 272.048115 239.894144 
L 272.236391 237.239188 
L 272.612943 239.242965 
L 272.801219 233.325157 
L 272.989495 239.797594 
L 273.177771 238.703515 
L 273.366047 236.378367 
L 273.554323 236.828262 
L 273.742599 239.509837 
L 273.930875 237.262706 
L 274.11915 237.30782 
L 274.307426 239.677086 
L 274.495702 237.041544 
L 274.683978 238.167741 
L 274.872254 238.575536 
L 275.06053 237.617266 
L 275.248806 237.726353 
L 275.437082 238.277392 
L 275.625358 238.118672 
L 275.813634 238.927802 
L 276.00191 233.160973 
L 276.190186 234.998416 
L 276.378462 240.351035 
L 276.755014 235.353156 
L 276.94329 239.828014 
L 277.131566 234.534538 
L 277.319842 236.982735 
L 277.88467 233.676869 
L 278.072946 234.164967 
L 278.261222 239.964788 
L 278.449497 237.359668 
L 278.637773 236.430801 
L 278.826049 237.457165 
L 279.014325 234.987524 
L 279.202601 235.462454 
L 279.390877 237.845703 
L 279.579153 233.565819 
L 279.767429 239.220187 
L 279.955705 232.093789 
L 280.332257 239.096166 
L 280.520533 229.622292 
L 280.708809 238.925341 
L 280.897085 236.990266 
L 281.273637 235.239812 
L 281.461913 239.495429 
L 281.838465 234.237614 
L 282.026741 237.150485 
L 282.215017 237.243164 
L 282.403293 235.628018 
L 282.591569 240.272096 
L 282.779844 238.843254 
L 282.96812 234.425589 
L 283.156396 236.345039 
L 283.344672 239.799141 
L 283.532948 233.485599 
L 283.9095 236.065194 
L 284.097776 236.627565 
L 284.286052 236.11974 
L 284.662604 238.086866 
L 284.85088 235.385842 
L 285.039156 235.432745 
L 285.227432 236.834539 
L 285.415708 236.436885 
L 285.603984 233.582099 
L 285.79226 236.590909 
L 286.168812 238.114529 
L 286.357088 236.344992 
L 286.545364 240.424071 
L 286.73364 235.036774 
L 286.921916 239.872367 
L 287.110191 237.287618 
L 287.298467 239.572678 
L 287.486743 239.17347 
L 287.675019 235.445418 
L 288.051571 239.111605 
L 288.428123 235.664662 
L 288.616399 236.612856 
L 288.804675 236.882746 
L 288.992951 237.632339 
L 289.181227 237.160151 
L 289.369503 234.815343 
L 289.557779 237.001066 
L 289.746055 236.753231 
L 290.122607 233.053587 
L 290.310883 238.168771 
L 290.687435 231.997059 
L 290.875711 234.53184 
L 291.063987 240.058729 
L 291.440538 233.804906 
L 291.628814 233.627359 
L 291.81709 235.863183 
L 292.005366 234.302674 
L 292.193642 229.446439 
L 292.381918 237.685805 
L 292.570194 239.874973 
L 292.75847 235.776804 
L 292.946746 238.181081 
L 293.135022 236.458684 
L 293.323298 239.247558 
L 293.511574 234.028086 
L 293.69985 240.215513 
L 293.888126 238.067397 
L 294.076402 239.618319 
L 294.264678 236.241428 
L 294.452954 236.333135 
L 294.64123 238.018057 
L 294.829506 237.733646 
L 295.017782 241.103683 
L 295.206058 234.246621 
L 295.582609 238.807224 
L 295.770885 236.824531 
L 296.147437 240.026105 
L 296.335713 235.866763 
L 296.523989 234.872304 
L 296.900541 238.509038 
L 297.088817 236.37471 
L 297.277093 239.048381 
L 297.465369 235.47734 
L 297.653645 236.932937 
L 297.841921 236.084376 
L 298.218473 239.969098 
L 298.406749 237.396436 
L 298.595025 239.458536 
L 298.783301 239.754536 
L 298.971577 237.504298 
L 299.159853 238.707154 
L 299.348129 238.526716 
L 299.536405 238.000122 
L 299.724681 239.874469 
L 299.912956 235.018902 
L 300.101232 238.403564 
L 300.289508 238.679763 
L 300.477784 234.828014 
L 300.66606 239.350323 
L 300.854336 239.692859 
L 301.042612 236.777079 
L 301.230888 237.330563 
L 301.419164 237.062583 
L 301.795716 240.265371 
L 301.983992 237.175763 
L 302.172268 236.376814 
L 302.360544 240.867479 
L 302.54882 239.394149 
L 302.737096 236.201239 
L 302.925372 238.302573 
L 303.113648 238.160493 
L 303.301924 239.256291 
L 303.4902 232.682873 
L 303.678476 239.857478 
L 304.055028 236.17394 
L 304.243303 239.074437 
L 304.431579 239.264808 
L 304.808131 236.041323 
L 304.996407 236.856225 
L 305.184683 239.885574 
L 305.372959 238.147575 
L 305.561235 239.511373 
L 305.749511 235.46331 
L 305.937787 239.888054 
L 306.126063 238.002145 
L 306.502615 239.268799 
L 306.690891 236.782338 
L 306.879167 239.337881 
L 307.067443 235.329168 
L 307.255719 240.685533 
L 307.443995 239.79829 
L 307.632271 241.10028 
L 307.820547 236.274544 
L 308.008823 236.800608 
L 308.197099 236.142832 
L 308.950202 240.304709 
L 309.138478 238.884361 
L 309.326754 238.990859 
L 309.51503 238.497607 
L 309.703306 237.129593 
L 309.891582 240.226719 
L 310.268134 239.478024 
L 310.45641 238.274341 
L 310.832962 239.572409 
L 311.021238 238.664912 
L 311.209514 239.698262 
L 311.39779 238.794584 
L 311.586066 238.867263 
L 311.962618 239.818179 
L 312.150894 238.28354 
L 312.527446 240.641472 
L 312.903997 239.450339 
L 313.092273 239.718592 
L 313.280549 237.69389 
L 313.468825 240.703525 
L 313.657101 238.452305 
L 313.845377 241.342851 
L 314.033653 237.423809 
L 314.410205 239.425088 
L 314.598481 237.797702 
L 314.786757 241.345978 
L 314.975033 240.054407 
L 315.163309 239.990868 
L 315.351585 239.611237 
L 315.539861 238.215712 
L 315.728137 241.120889 
L 315.916413 238.52456 
L 316.104689 237.769776 
L 316.292965 239.719069 
L 316.481241 240.266907 
L 316.669517 238.726758 
L 317.046068 240.037016 
L 317.234344 234.398916 
L 317.42262 241.218045 
L 317.610896 238.676623 
L 317.799172 240.765691 
L 317.987448 237.968711 
L 318.175724 238.39483 
L 318.364 239.79353 
L 318.552276 237.459116 
L 318.740552 239.222239 
L 318.928828 238.856965 
L 319.30538 239.306647 
L 319.493656 238.347588 
L 319.681932 240.30601 
L 319.870208 237.441423 
L 320.24676 239.386029 
L 320.435036 237.91303 
L 320.623312 235.499504 
L 320.811588 238.914591 
L 320.999864 239.197907 
L 321.18814 237.171425 
L 321.376415 238.243413 
L 321.564691 241.044315 
L 321.941243 235.399815 
L 322.129519 240.462166 
L 322.317795 241.119276 
L 322.506071 238.689238 
L 322.694347 238.567854 
L 322.882623 240.33533 
L 323.070899 240.257473 
L 323.259175 240.49386 
L 323.447451 238.190697 
L 323.635727 240.632352 
L 323.824003 239.901325 
L 324.012279 239.635501 
L 324.388831 240.525509 
L 324.577107 239.964568 
L 324.953659 240.264416 
L 325.141935 238.514675 
L 325.330211 238.044345 
L 325.518487 239.788128 
L 325.706762 237.561554 
L 325.895038 239.799227 
L 326.083314 238.545258 
L 326.27159 239.331728 
L 326.459866 238.246866 
L 326.648142 238.408785 
L 326.836418 239.548767 
L 327.024694 239.605737 
L 327.21297 238.83671 
L 327.401246 240.013704 
L 327.589522 239.412417 
L 327.777798 232.282469 
L 327.966074 238.417543 
L 328.15435 238.298846 
L 328.342626 240.551901 
L 328.530902 239.072803 
L 328.719178 240.209356 
L 328.907454 237.735565 
L 329.09573 239.687719 
L 329.284006 240.329829 
L 329.472282 240.039369 
L 329.660558 238.346037 
L 329.848834 241.001834 
L 330.037109 241.190899 
L 330.225385 239.585727 
L 330.413661 240.637058 
L 330.601937 239.599303 
L 330.790213 239.869185 
L 330.978489 240.6026 
L 331.166765 239.166925 
L 331.355041 238.99282 
L 331.543317 239.184706 
L 331.731593 240.388054 
L 331.919869 236.528479 
L 332.108145 239.319786 
L 332.296421 240.271591 
L 332.484697 235.464768 
L 332.672973 239.913997 
L 332.861249 238.921214 
L 333.237801 240.811678 
L 333.426077 240.088024 
L 333.614353 238.027173 
L 333.802629 238.111678 
L 334.17918 240.631807 
L 334.367456 241.075294 
L 334.555732 239.489266 
L 335.12056 239.157003 
L 335.308836 240.654608 
L 335.685388 240.26887 
L 335.873664 239.14282 
L 336.06194 239.624471 
L 336.250216 237.838682 
L 336.626768 241.046382 
L 336.815044 240.599947 
L 337.00332 238.850069 
L 337.191596 238.497283 
L 337.379872 236.321227 
L 337.568148 240.069288 
L 337.756424 238.743473 
L 337.9447 238.936912 
L 338.321252 240.781552 
L 338.509527 241.193442 
L 338.697803 241.052546 
L 338.886079 241.623874 
L 339.074355 239.949121 
L 339.262631 241.195654 
L 339.450907 240.880957 
L 339.639183 239.921087 
L 339.827459 241.251689 
L 340.015735 240.408552 
L 340.204011 240.52115 
L 340.580563 239.521656 
L 340.768839 236.948287 
L 340.957115 240.99932 
L 341.145391 239.108933 
L 341.333667 238.562205 
L 341.521943 240.116157 
L 341.710219 239.777964 
L 341.898495 241.254744 
L 342.086771 241.061776 
L 342.275047 239.044144 
L 342.463323 241.012698 
L 342.651599 241.293338 
L 342.839874 240.470409 
L 343.02815 240.915964 
L 343.216426 240.757846 
L 343.404702 238.814216 
L 343.96953 241.242811 
L 344.157806 241.229159 
L 344.346082 240.832582 
L 344.534358 238.953872 
L 344.91091 240.892994 
L 345.099186 240.860231 
L 345.475738 240.01878 
L 345.85229 240.787738 
L 346.040566 240.745769 
L 346.228842 241.399414 
L 346.417118 239.221536 
L 346.605394 241.183359 
L 346.79367 240.492253 
L 346.981946 240.705504 
L 347.170221 240.628541 
L 347.358497 238.779271 
L 347.546773 239.200202 
L 347.735049 240.724761 
L 347.923325 239.376179 
L 348.299877 241.25856 
L 348.488153 239.986302 
L 348.676429 240.244081 
L 348.864705 240.132831 
L 349.052981 240.899721 
L 349.241257 240.162045 
L 349.617809 241.092614 
L 349.806085 240.787458 
L 350.182637 238.461801 
L 350.559189 241.298092 
L 350.747465 241.29033 
L 350.935741 240.834595 
L 351.124017 240.947753 
L 351.312293 240.152338 
L 351.500568 239.841524 
L 351.688844 241.186982 
L 351.87712 239.909123 
L 352.065396 240.674362 
L 352.253672 238.95055 
L 352.441948 240.597933 
L 352.630224 239.610782 
L 352.8185 241.130886 
L 353.006776 239.642315 
L 353.195052 241.27862 
L 353.383328 241.006004 
L 353.75988 239.521268 
L 353.948156 241.369157 
L 354.136432 240.229723 
L 354.324708 240.414504 
L 354.512984 241.198937 
L 354.70126 240.801135 
L 354.889536 239.673876 
L 355.077812 240.983586 
L 355.266088 240.98959 
L 355.454364 240.478205 
L 355.64264 240.514461 
L 355.830915 238.615082 
L 356.207467 240.823198 
L 356.395743 240.627423 
L 356.584019 238.668212 
L 356.772295 240.735884 
L 357.337123 241.199879 
L 357.525399 240.520846 
L 357.713675 241.517977 
L 357.901951 239.896045 
L 358.278503 240.69845 
L 358.466779 238.736222 
L 358.655055 241.62943 
L 359.031607 239.38622 
L 359.219883 240.773183 
L 359.408159 239.501578 
L 359.596435 241.43551 
L 359.972986 239.716937 
L 360.349538 240.534355 
L 360.537814 239.859658 
L 360.72609 241.305146 
L 360.914366 238.373817 
L 361.102642 238.882766 
L 361.290918 241.639122 
L 361.479194 240.435555 
L 361.66747 241.317303 
L 362.044022 240.779788 
L 362.232298 240.735299 
L 362.420574 239.410468 
L 362.60885 241.184549 
L 362.985402 241.080429 
L 363.173678 241.210502 
L 363.361954 239.795101 
L 363.55023 240.326702 
L 363.738506 241.387973 
L 363.926782 239.433406 
L 364.115058 241.037293 
L 364.303333 239.34749 
L 364.491609 240.364194 
L 364.679885 240.724463 
L 364.868161 240.681947 
L 365.056437 240.763063 
L 365.244713 240.165167 
L 365.432989 240.014811 
L 365.621265 240.800303 
L 365.809541 240.832195 
L 365.997817 240.427816 
L 366.374369 241.228347 
L 366.562645 240.851978 
L 366.750921 240.996479 
L 366.939197 239.809242 
L 367.127473 241.247051 
L 367.315749 240.94226 
L 367.504025 241.191694 
L 367.692301 239.106412 
L 367.880577 241.250341 
L 368.068853 241.681305 
L 368.63368 240.81284 
L 368.821956 240.03111 
L 369.010232 240.400785 
L 369.198508 241.674256 
L 369.386784 240.697008 
L 369.57506 241.137111 
L 369.951612 241.328663 
L 370.328164 240.384687 
L 370.51644 241.428239 
L 370.704716 241.671578 
L 370.892992 241.181441 
L 371.081268 241.171273 
L 371.269544 239.584892 
L 371.45782 241.706372 
L 371.646096 241.452962 
L 371.834372 240.412454 
L 372.022648 241.444512 
L 372.210924 241.355592 
L 372.3992 240.877568 
L 372.964027 240.47593 
L 373.152303 240.602583 
L 373.340579 241.04686 
L 373.528855 240.89915 
L 373.717131 240.461953 
L 373.905407 241.338364 
L 374.093683 241.37546 
L 374.281959 241.145302 
L 374.470235 241.313987 
L 374.658511 240.69104 
L 374.846787 241.376233 
L 375.035063 241.585012 
L 375.223339 241.128443 
L 375.599891 240.989133 
L 375.788167 241.169172 
L 375.976443 240.417283 
L 376.164719 241.254815 
L 376.541271 241.500131 
L 376.729547 241.243397 
L 376.917823 241.378318 
L 377.106099 241.304181 
L 377.48265 241.024258 
L 377.670926 241.811834 
L 378.047478 239.906352 
L 378.235754 240.735037 
L 378.42403 241.019219 
L 378.800582 241.151956 
L 378.988858 240.384887 
L 379.177134 241.314333 
L 379.36541 240.081149 
L 379.553686 241.357977 
L 379.741962 241.176843 
L 380.118514 240.398128 
L 380.495066 241.365574 
L 380.683342 240.1089 
L 380.871618 241.458243 
L 381.059894 240.684841 
L 381.24817 240.683399 
L 381.436445 241.33459 
L 381.624721 241.059966 
L 381.812997 241.384766 
L 382.001273 240.480988 
L 382.189549 240.402605 
L 382.566101 241.535202 
L 382.754377 241.057111 
L 382.942653 241.199314 
L 383.130929 240.936614 
L 383.319205 241.533973 
L 383.507481 241.666405 
L 383.695757 240.924346 
L 383.884033 240.98463 
L 384.072309 240.823364 
L 384.260585 241.169637 
L 384.448861 240.36066 
L 384.637137 240.313708 
L 384.825413 241.551494 
L 385.013689 241.407228 
L 385.201965 241.519078 
L 385.390241 240.654199 
L 385.578517 240.318909 
L 385.766792 241.179081 
L 385.955068 240.088908 
L 386.143344 241.590069 
L 386.33162 241.077475 
L 386.519896 241.214228 
L 386.708172 241.87379 
L 386.896448 240.326135 
L 387.084724 240.375733 
L 387.273 239.952256 
L 387.837828 241.780795 
L 388.21438 240.556215 
L 388.402656 241.581083 
L 388.779208 240.942955 
L 388.967484 241.044778 
L 389.15576 241.40318 
L 389.344036 241.496145 
L 389.720588 241.441388 
L 389.908864 241.378492 
L 390.097139 241.570205 
L 390.285415 241.308345 
L 390.661967 241.638935 
L 390.850243 241.38634 
L 391.038519 241.320702 
L 391.226795 240.82105 
L 391.415071 241.277628 
L 391.603347 241.267406 
L 391.791623 240.182426 
L 391.979899 240.225053 
L 392.544727 241.327017 
L 392.733003 240.887757 
L 392.921279 241.45511 
L 393.297831 241.616432 
L 393.486107 240.725274 
L 393.862659 241.46662 
L 394.050935 241.702168 
L 394.239211 241.218359 
L 394.615762 241.313909 
L 394.804038 241.551171 
L 394.992314 241.532774 
L 395.368866 240.979875 
L 395.557142 241.095123 
L 395.745418 240.852671 
L 395.933694 240.200883 
L 396.12197 241.173967 
L 396.310246 241.286569 
L 396.498522 240.983625 
L 396.686798 240.990676 
L 396.875074 241.190157 
L 397.06335 239.879036 
L 397.251626 241.272841 
L 397.816454 241.28217 
L 398.00473 240.856844 
L 398.193006 241.548661 
L 398.381282 241.01624 
L 398.569558 241.016852 
L 398.757833 240.879976 
L 398.946109 241.083084 
L 399.134385 241.721894 
L 399.322661 241.390239 
L 399.510937 241.621572 
L 399.699213 240.697941 
L 399.887489 240.466136 
L 400.075765 241.196796 
L 400.264041 241.383752 
L 400.452317 241.06476 
L 400.640593 241.841394 
L 400.828869 241.048099 
L 401.017145 241.62856 
L 401.205421 241.50127 
L 401.393697 241.736402 
L 401.581973 241.066606 
L 401.770249 241.148932 
L 401.958525 241.918755 
L 402.146801 241.236578 
L 402.335077 241.744716 
L 402.523353 240.64583 
L 402.711629 240.668008 
L 402.899904 241.516484 
L 403.08818 241.844595 
L 403.464732 241.084009 
L 403.841284 241.743295 
L 404.02956 240.871575 
L 404.217836 241.412231 
L 404.406112 241.354553 
L 404.594388 241.127932 
L 404.782664 241.258917 
L 404.97094 240.633934 
L 405.159216 240.947357 
L 405.347492 241.500878 
L 405.535768 241.391298 
L 405.724044 241.660338 
L 405.91232 241.263802 
L 406.288872 241.64416 
L 406.477148 241.398895 
L 407.041976 241.78883 
L 407.230251 241.390027 
L 407.418527 241.259627 
L 407.606803 241.638593 
L 407.795079 241.178618 
L 407.983355 241.253456 
L 408.171631 241.663949 
L 408.359907 241.68085 
L 408.548183 241.267562 
L 408.924735 241.593321 
L 409.113011 241.274655 
L 409.301287 241.33337 
L 409.489563 241.004111 
L 409.677839 241.940771 
L 409.866115 241.43097 
L 410.054391 241.421528 
L 410.242667 241.744942 
L 410.995771 240.955346 
L 411.184047 241.608844 
L 411.372323 241.230158 
L 411.560598 241.720262 
L 411.748874 241.711975 
L 411.93715 240.792099 
L 412.125426 241.764702 
L 412.313702 241.478522 
L 412.501978 241.714938 
L 412.87853 241.081103 
L 413.066806 241.458299 
L 413.255082 241.543199 
L 413.443358 241.016533 
L 413.81991 241.62252 
L 414.008186 240.838971 
L 414.196462 241.674099 
L 414.384738 241.734095 
L 414.573014 241.253514 
L 414.76129 241.647111 
L 415.137842 241.176427 
L 415.326118 241.6093 
L 415.514394 241.624328 
L 415.890945 241.275131 
L 416.079221 241.742594 
L 416.267497 241.720419 
L 416.455773 241.279771 
L 416.644049 241.443184 
L 416.832325 241.814106 
L 417.020601 240.732657 
L 417.208877 241.634 
L 417.397153 241.290481 
L 417.585429 241.993034 
L 417.773705 241.266849 
L 417.961981 241.514867 
L 418.150257 240.701025 
L 418.338533 241.660034 
L 418.715085 241.782068 
L 418.903361 241.218796 
L 419.091637 241.471017 
L 419.279913 241.340824 
L 419.468189 241.710774 
L 419.656465 241.216586 
L 419.844741 241.549798 
L 420.033017 241.509571 
L 420.221292 241.266028 
L 420.409568 241.592029 
L 420.597844 241.370543 
L 420.78612 241.73019 
L 421.162672 241.729848 
L 421.350948 240.65504 
L 421.539224 241.862935 
L 421.7275 241.842437 
L 422.104052 241.377483 
L 422.480604 241.816544 
L 422.66888 241.348454 
L 422.857156 241.818979 
L 423.233708 241.482277 
L 423.421984 241.782344 
L 423.61026 241.552649 
L 423.986812 241.755214 
L 424.175088 241.712763 
L 424.551639 240.803492 
L 424.739915 241.575454 
L 425.116467 241.840631 
L 425.304743 241.396372 
L 425.681295 241.696241 
L 425.869571 241.437028 
L 426.057847 242.025864 
L 426.246123 240.501037 
L 426.434399 241.892843 
L 426.622675 241.632942 
L 426.810951 241.734015 
L 426.999227 241.687896 
L 427.187503 240.963641 
L 427.375779 240.919455 
L 427.564055 241.824667 
L 427.940607 240.807426 
L 428.128883 241.562163 
L 428.505435 241.768833 
L 428.69371 241.114358 
L 428.881986 241.133857 
L 429.070262 241.407641 
L 429.258538 241.427786 
L 429.446814 241.002402 
L 429.63509 241.510638 
L 429.823366 241.090473 
L 430.011642 241.531045 
L 430.199918 241.5211 
L 430.388194 241.374427 
L 430.764746 241.471649 
L 430.953022 240.913033 
L 431.141298 241.799054 
L 431.329574 241.86435 
L 431.51785 241.569314 
L 431.894402 241.435322 
L 432.082678 241.34583 
L 432.270954 241.002779 
L 432.647506 241.71577 
L 432.835782 240.773562 
L 433.024057 241.637405 
L 433.212333 241.354075 
L 433.400609 241.715563 
L 433.588885 241.14298 
L 433.777161 241.620722 
L 433.965437 240.860646 
L 434.153713 240.922046 
L 434.530265 241.924721 
L 434.718541 242.030664 
L 434.906817 240.957117 
L 435.095093 240.908457 
L 435.283369 241.693303 
L 435.471645 241.959703 
L 435.848197 241.843636 
L 436.036473 241.90527 
L 436.224749 241.261385 
L 436.413025 241.989378 
L 436.601301 241.850096 
L 436.789577 241.850953 
L 436.977853 241.44703 
L 437.166129 241.436946 
L 437.54268 241.950923 
L 437.730956 241.547616 
L 437.919232 241.786801 
L 438.107508 241.078496 
L 438.295784 241.752725 
L 438.48406 241.712465 
L 438.672336 241.42496 
L 439.048888 241.83736 
L 439.42544 241.168036 
L 439.613716 241.430131 
L 439.801992 241.952019 
L 440.178544 241.474877 
L 440.36682 241.4378 
L 440.555096 241.755141 
L 440.931648 241.489114 
L 441.3082 241.503415 
L 441.496476 241.42215 
L 441.684751 241.591463 
L 442.061303 241.555661 
L 442.249579 241.291151 
L 442.437855 241.83085 
L 442.814407 241.45514 
L 443.002683 241.82133 
L 443.190959 241.911632 
L 443.567511 241.746974 
L 443.755787 241.116539 
L 443.944063 241.248664 
L 444.132339 241.817908 
L 444.320615 241.705353 
L 444.697167 241.880111 
L 444.885443 241.8524 
L 445.073719 241.456796 
L 445.261995 241.539732 
L 445.450271 241.385657 
L 445.826823 241.811141 
L 446.015098 241.550267 
L 446.203374 241.579808 
L 446.39165 241.841212 
L 446.768202 241.763113 
L 446.956478 242.000441 
L 447.144754 241.909234 
L 447.33303 241.327884 
L 447.709582 241.843311 
L 448.086134 241.642946 
L 448.27441 241.694941 
L 448.462686 241.352703 
L 448.650962 241.914762 
L 448.839238 241.850235 
L 449.027514 241.327287 
L 449.404066 241.878456 
L 449.592342 241.771147 
L 449.780618 241.952265 
L 449.968894 240.906034 
L 450.157169 241.605079 
L 450.533721 241.781331 
L 450.910273 241.974073 
L 451.098549 241.081494 
L 451.286825 241.822734 
L 451.851653 241.747202 
L 452.039929 241.921272 
L 452.228205 241.840214 
L 452.416481 241.470836 
L 452.604757 241.687788 
L 452.793033 241.415223 
L 452.981309 241.854568 
L 453.169585 242.000161 
L 453.357861 241.703876 
L 453.546137 241.945518 
L 454.487516 241.815607 
L 455.052344 241.877247 
L 455.24062 241.164403 
L 455.428896 241.817634 
L 455.617172 241.825757 
L 455.993724 241.529123 
L 456.182 241.441848 
L 456.558552 241.8672 
L 456.746828 241.748459 
L 456.935104 241.816432 
L 457.12338 241.389682 
L 457.311656 241.267303 
L 457.499932 241.537071 
L 457.688208 241.513658 
L 457.876484 241.727204 
L 458.06476 241.106611 
L 458.253036 241.965983 
L 458.441312 241.371312 
L 458.629588 241.879415 
L 458.817863 241.91831 
L 459.006139 241.077792 
L 459.382691 241.755183 
L 459.570967 241.794641 
L 459.759243 241.648602 
L 459.947519 241.784382 
L 460.324071 241.564605 
L 460.700623 241.820313 
L 460.888899 241.512747 
L 461.077175 241.70742 
L 461.265451 241.700606 
L 461.453727 241.848625 
L 462.018555 241.615864 
L 462.206831 241.924959 
L 462.395107 241.587279 
L 462.583383 241.799085 
L 462.771659 241.45246 
L 462.959935 241.554675 
L 463.14821 241.155468 
L 463.336486 241.847708 
L 463.524762 241.340451 
L 463.713038 241.331629 
L 463.901314 241.489935 
L 464.08959 241.983346 
L 464.277866 241.816495 
L 464.654418 241.969608 
L 465.03097 241.543149 
L 465.219246 241.209668 
L 465.407522 241.493089 
L 465.595798 241.272872 
L 465.784074 241.86243 
L 466.160626 241.240128 
L 466.348902 241.829406 
L 466.537178 241.5151 
L 466.91373 241.75348 
L 467.102006 241.66378 
L 467.290282 241.712832 
L 467.478557 241.331497 
L 467.666833 241.882864 
L 468.043385 241.651664 
L 468.419937 242.021316 
L 468.608213 241.616353 
L 468.796489 241.869949 
L 468.984765 241.676395 
L 469.361317 241.640879 
L 469.737869 241.478142 
L 469.926145 241.788777 
L 470.114421 241.508704 
L 470.302697 241.734839 
L 470.490973 241.318197 
L 470.867525 241.778543 
L 471.055801 241.435835 
L 471.620628 241.909787 
L 471.99718 241.856719 
L 472.185456 241.610887 
L 472.750284 241.492473 
L 472.93856 241.947875 
L 473.126836 241.640569 
L 473.315112 241.817911 
L 473.503388 241.599819 
L 473.691664 242.014836 
L 474.068216 241.77782 
L 474.256492 241.573776 
L 474.444768 241.745177 
L 474.633044 241.233518 
L 474.82132 242.02329 
L 475.009596 241.717776 
L 475.197872 241.88802 
L 475.386148 241.637723 
L 475.574424 241.847855 
L 475.7627 241.54633 
L 476.139251 241.863528 
L 476.327527 241.717838 
L 476.515803 241.715574 
L 476.704079 241.925746 
L 476.892355 241.728296 
L 477.080631 241.891403 
L 477.645459 241.800052 
L 477.833735 241.547198 
L 478.210287 241.941926 
L 478.586839 241.418669 
L 478.963391 241.965851 
L 479.151667 241.506982 
L 479.339943 241.566886 
L 479.528219 241.9477 
L 479.716495 241.924733 
L 480.093047 241.390198 
L 480.281322 241.902681 
L 480.84615 241.679142 
L 481.034426 241.92376 
L 481.222702 241.574807 
L 481.410978 241.924158 
L 481.975806 241.695021 
L 482.540634 241.761178 
L 482.72891 241.871202 
L 482.917186 241.532792 
L 483.105462 242.048752 
L 483.293738 241.865562 
L 483.482014 241.344552 
L 483.67029 241.745258 
L 484.235118 241.886878 
L 484.423394 241.78667 
L 484.611669 241.860417 
L 484.799945 241.772635 
L 485.176497 241.904087 
L 485.364773 240.758715 
L 485.741325 241.779874 
L 485.929601 241.423553 
L 486.117877 242.007655 
L 486.306153 241.772797 
L 486.494429 241.86618 
L 486.870981 241.664011 
L 487.059257 241.957995 
L 487.624085 241.811646 
L 488.000637 241.868326 
L 488.188913 241.734089 
L 488.377189 241.966391 
L 488.565465 241.466799 
L 488.753741 241.554979 
L 488.942016 241.936343 
L 489.130292 241.911555 
L 489.318568 241.737884 
L 489.506844 241.888384 
L 489.69512 241.847048 
L 489.883396 242.000385 
L 490.071672 241.852463 
L 490.259948 241.942479 
L 490.6365 241.798272 
L 490.824776 241.679851 
L 491.013052 241.943218 
L 491.389604 241.703431 
L 491.57788 241.970473 
L 491.766156 241.878049 
L 491.954432 241.454761 
L 492.142708 241.931282 
L 492.51926 241.820089 
L 492.707536 241.871683 
L 492.895812 241.619147 
L 493.084087 241.586257 
L 493.272363 241.790905 
L 493.460639 241.754466 
L 493.648915 242.029572 
L 493.837191 241.829294 
L 494.213743 241.959769 
L 494.590295 241.780936 
L 494.778571 241.841857 
L 494.966847 241.728061 
L 495.155123 241.9799 
L 495.531675 241.854194 
L 496.473055 241.858686 
L 496.661331 241.953538 
L 497.037883 241.740654 
L 497.414434 242.064273 
L 497.60271 241.902021 
L 497.790986 241.565479 
L 497.979262 242.018022 
L 498.167538 241.487253 
L 498.355814 241.987639 
L 498.732366 241.650411 
L 499.297194 241.879259 
L 499.48547 241.934037 
L 499.673746 241.786723 
L 499.862022 241.858955 
L 500.050298 241.502694 
L 500.238574 242.010394 
L 500.42685 241.521025 
L 500.615126 241.947168 
L 500.803402 241.984967 
L 500.991678 241.851917 
L 501.179954 241.983165 
L 501.36823 241.9064 
L 501.556506 241.952984 
L 501.933057 241.837916 
L 502.121333 241.81108 
L 502.309609 241.974388 
L 502.686161 241.746249 
L 502.874437 241.873566 
L 503.062713 241.622498 
L 503.439265 242.003307 
L 503.627541 241.876122 
L 504.004093 241.860034 
L 504.192369 241.743323 
L 504.380645 241.976265 
L 504.757197 242.024821 
L 504.945473 241.801922 
L 505.133749 241.80322 
L 505.322025 242.030613 
L 505.698577 241.892403 
L 506.263404 241.734786 
L 506.45168 241.878122 
L 506.639956 241.752869 
L 506.828232 242.052649 
L 507.204784 241.774416 
L 507.39306 241.979496 
L 507.581336 241.895565 
L 507.769612 241.600318 
L 507.957888 241.840031 
L 508.146164 241.86646 
L 508.33444 242.00961 
L 508.710992 241.873649 
L 509.087544 242.000301 
L 509.27582 241.721181 
L 509.652372 241.540786 
L 509.840648 241.917627 
L 510.028924 241.764572 
L 510.405475 241.929204 
L 510.593751 241.839947 
L 510.782027 241.978515 
L 510.970303 241.893253 
L 511.158579 241.950142 
L 511.535131 241.750467 
L 512.099959 241.976315 
L 512.476511 241.852817 
L 512.664787 241.867084 
L 512.853063 241.750857 
L 513.041339 241.901824 
L 514.170995 241.785027 
L 514.359271 241.918299 
L 514.735822 241.68073 
L 514.924098 241.85059 
L 515.112374 241.550616 
L 515.30065 242.031278 
L 515.677202 241.781029 
L 515.865478 241.997903 
L 516.618582 241.574646 
L 516.806858 241.831211 
L 517.371686 241.76019 
L 517.559962 241.74402 
L 517.748238 241.896999 
L 518.501342 241.699119 
L 518.689618 241.863281 
L 518.877893 241.792344 
L 519.254445 241.905492 
L 519.630997 241.901863 
L 520.384101 241.710614 
L 520.760653 242.033453 
L 521.325481 241.72103 
L 521.513757 242.026061 
L 521.890309 241.545433 
L 522.078585 242.031357 
L 522.266861 241.909693 
L 522.455137 241.527411 
L 522.643413 241.949829 
L 523.019965 241.837529 
L 523.584792 241.808408 
L 523.773068 241.755321 
L 523.961344 241.971801 
L 524.14962 241.816327 
L 524.526172 242.000037 
L 525.467552 241.866138 
L 526.03238 242.00406 
L 526.220656 241.723685 
L 526.408932 241.942404 
L 526.597208 241.702864 
L 526.97376 241.96366 
L 528.291691 241.834656 
L 528.479967 241.946507 
L 528.668243 241.892346 
L 528.856519 241.961107 
L 529.044795 241.61565 
L 529.233071 241.755833 
L 529.421347 241.735782 
L 529.797899 241.966301 
L 530.174451 241.773897 
L 530.362727 241.968412 
L 531.304107 241.873574 
L 532.245486 242.047115 
L 532.622038 242.057615 
L 532.810314 241.786573 
L 532.99859 241.945339 
L 533.186866 241.809524 
L 533.375142 241.98654 
L 533.563418 241.94742 
L 533.751694 242.084724 
L 533.93997 241.79178 
L 534.128246 242.065116 
L 534.316522 241.89316 
L 534.504798 241.935444 
L 534.693074 241.851332 
L 535.069626 242.028358 
L 535.257902 241.902278 
L 536.011006 241.961938 
L 536.199281 241.831975 
L 536.387557 241.936183 
L 536.575833 241.829151 
L 536.764109 241.922266 
L 536.952385 241.749392 
L 537.140661 241.908333 
L 537.328937 241.864808 
L 537.517213 241.953802 
L 537.893765 241.876357 
L 538.082041 241.973821 
L 538.270317 241.844395 
L 538.646869 242.038944 
L 539.211697 242.036948 
L 539.588249 241.97236 
L 539.776525 241.848417 
L 539.964801 241.949837 
L 540.341352 241.941455 
L 540.529628 242.044279 
L 540.717904 241.924369 
L 541.094456 241.9701 
L 541.471008 241.926499 
L 541.659284 242.014601 
L 542.035836 241.721987 
L 542.412388 242.077367 
L 542.600664 241.881194 
L 542.78894 242.031162 
L 542.977216 241.776361 
L 543.353768 242.050551 
L 543.542044 241.890982 
L 543.73032 241.927477 
L 543.918596 242.095484 
L 544.295148 241.932835 
L 544.671699 242.090308 
L 544.859975 241.929008 
L 545.236527 242.013059 
L 545.424803 241.803649 
L 545.801355 241.964442 
L 545.989631 242.011074 
L 546.177907 241.88738 
L 546.366183 241.997831 
L 546.742735 241.86764 
L 546.931011 241.984841 
L 547.119287 241.794936 
L 547.307563 242.009972 
L 547.495839 242.009724 
L 547.684115 241.833113 
L 547.872391 241.989179 
L 548.437219 241.914471 
L 548.625495 242.00862 
L 548.813771 241.777808 
L 549.002046 241.940044 
L 549.190322 241.903465 
L 549.566874 242.089389 
L 549.943426 241.853185 
L 551.073082 242.050124 
L 551.449634 241.734836 
L 551.826186 241.94569 
L 552.014462 241.809727 
L 553.332393 242.035722 
L 553.897221 241.942246 
L 554.273773 241.910154 
L 554.462049 241.896274 
L 554.650325 241.752549 
L 555.215153 241.917175 
L 555.403429 241.86604 
L 555.779981 242.019043 
L 556.721361 241.853886 
L 557.097913 241.992578 
L 557.851016 241.905054 
L 558.227568 241.86245 
L 558.415844 242.016153 
L 559.357224 241.980428 
L 559.733776 241.625914 
L 559.922052 242.026573 
L 560.298604 242.09697 
L 560.48688 241.905996 
L 560.863432 241.880171 
L 561.051708 241.842236 
L 561.42826 241.99258 
L 561.616536 241.942032 
L 561.993087 241.984369 
L 562.181363 241.89852 
L 562.369639 242.046071 
L 564.064123 241.908208 
L 565.005503 242.013973 
L 565.570331 241.914747 
L 565.758607 242.014999 
L 565.946883 241.928112 
L 566.135158 242.054739 
L 566.51171 242.0425 
L 567.264814 242.045824 
L 567.45309 241.772913 
L 567.641366 242.013528 
L 567.829642 241.755054 
L 568.017918 241.981589 
L 568.582746 241.954252 
L 569.33585 241.77251 
L 569.524126 241.969325 
L 571.030333 241.902601 
L 571.595161 242.005327 
L 571.971713 241.88251 
L 572.159989 242.042896 
L 572.348265 241.917713 
L 572.536541 241.971891 
L 572.724817 241.629996 
L 572.913093 241.959621 
L 573.289645 241.94354 
L 574.042749 241.881822 
L 574.231025 241.761058 
L 574.607577 242.067677 
L 574.795852 241.850708 
L 574.984128 242.060368 
L 575.548956 241.659151 
L 575.925508 242.061476 
L 576.113784 242.033479 
L 576.30206 241.720906 
L 576.490336 241.91076 
L 577.055164 241.950699 
L 577.24344 241.782687 
L 577.619992 241.942418 
L 577.996544 241.93723 
L 578.18482 241.68079 
L 578.373096 242.019014 
L 578.561372 241.879496 
L 578.937924 242.031422 
L 579.502751 242.00807 
L 580.632407 241.944548 
L 580.820683 241.995885 
L 581.008959 241.916925 
L 581.197235 242.018489 
L 581.385511 241.872555 
L 581.573787 241.992806 
L 581.762063 241.802979 
L 581.950339 241.928889 
L 582.138615 241.887168 
L 582.326891 242.079661 
L 582.891719 241.89808 
L 583.26827 241.977121 
L 583.456546 242.094629 
L 583.644822 241.915309 
L 584.021374 241.956433 
L 584.20965 241.707105 
L 584.397926 241.977093 
L 584.774478 241.879261 
L 585.904134 242.017705 
L 586.09241 241.699139 
L 586.280686 241.913458 
L 586.468962 241.85002 
L 586.657238 241.979648 
L 586.845514 241.902882 
L 587.222066 242.012892 
L 587.410342 241.804001 
L 587.598617 241.773661 
L 587.786893 241.966791 
L 588.351721 241.91458 
L 588.539997 242.017232 
L 589.293101 241.97091 
L 589.481377 241.947818 
L 589.857929 242.04354 
L 590.046205 241.943441 
L 590.422757 242.057025 
L 590.799309 241.836921 
L 590.987585 242.034896 
L 591.740689 241.974557 
L 591.928964 242.07994 
L 592.11724 241.94269 
L 592.305516 241.989555 
L 592.493792 241.910862 
L 592.682068 242.052823 
L 593.05862 242.001996 
L 593.246896 242.088649 
L 593.623448 242.002674 
L 599.648279 241.862135 
L 599.836555 242.07099 
L 600.589658 241.92182 
L 600.96621 242.067286 
L 601.719314 241.979929 
L 602.284142 242.031451 
L 602.472418 241.896453 
L 602.84897 242.001713 
L 603.037246 241.879584 
L 603.225522 242.080261 
L 603.413798 241.931699 
L 604.166902 242.012192 
L 604.543454 241.931654 
L 605.296557 241.919332 
L 605.673109 241.967982 
L 605.861385 242.071378 
L 606.237937 241.92527 
L 607.367593 242.020109 
L 607.555869 241.937361 
L 607.744145 242.026729 
L 607.932421 241.913141 
L 608.308973 241.997614 
L 608.497249 241.817739 
L 608.685525 242.006848 
L 609.250352 242.022014 
L 609.81518 241.988419 
L 610.003456 241.827429 
L 610.568284 241.944805 
L 610.944836 241.82829 
L 611.133112 242.028224 
L 611.321388 241.89776 
L 612.074492 242.05332 
L 612.451044 241.801126 
L 612.63932 242.024573 
L 613.015872 241.946912 
L 613.204148 241.814729 
L 613.392423 241.962584 
L 613.957251 241.847824 
L 614.145527 242.028231 
L 616.028287 241.922954 
L 616.216563 241.745285 
L 617.157943 241.96726 
L 617.346219 241.876191 
L 617.534495 241.985184 
L 617.72277 241.905701 
L 617.911046 242.04253 
L 618.099322 241.896408 
L 619.040702 241.945744 
L 619.228978 241.880426 
L 619.417254 242.02853 
L 619.982082 241.89912 
L 620.54691 241.989564 
L 620.735186 241.902895 
L 621.300014 242.018108 
L 621.864842 241.844798 
L 622.617945 242.070818 
L 623.371049 241.974939 
L 623.935877 241.971121 
L 624.124153 241.904655 
L 624.500705 242.01631 
L 625.253809 241.964482 
L 625.442085 242.033087 
L 625.818637 241.970836 
L 626.195189 241.974525 
L 626.383464 241.969655 
L 626.57174 242.087726 
L 626.760016 241.871174 
L 626.948292 242.023532 
L 627.889672 241.994155 
L 628.642776 241.909002 
L 629.019328 241.946547 
L 630.148984 241.981014 
L 630.33726 241.886084 
L 630.525535 242.08847 
L 630.713811 241.93476 
L 631.090363 241.973991 
L 631.466915 242.034384 
L 631.655191 242.056028 
L 631.843467 241.92903 
L 632.784847 241.991225 
L 632.973123 241.842127 
L 633.349675 241.98646 
L 633.726227 241.961995 
L 634.291055 241.996158 
L 634.479331 241.885707 
L 634.855882 242.054829 
L 635.797262 241.917772 
L 636.36209 241.974175 
L 638.997954 242.000506 
L 639.186229 241.92018 
L 639.751057 242.073494 
L 640.880713 242.03003 
L 641.257265 242.010901 
L 645.964164 241.974497 
L 646.15244 242.076426 
L 646.340716 241.893186 
L 646.528992 242.041281 
L 646.905544 241.941355 
L 647.09382 241.976189 
L 647.282096 241.895647 
L 648.035199 242.02016 
L 650.106235 241.869327 
L 650.294511 242.036951 
L 650.482787 241.878363 
L 650.859339 241.993673 
L 651.612443 242.012555 
L 651.988994 242.020921 
L 652.17727 241.740578 
L 652.553822 242.081074 
L 652.742098 241.998186 
L 653.11865 242.095999 
L 653.683478 241.921291 
L 654.248306 242.063082 
L 654.813134 241.954384 
L 655.189686 242.012357 
L 655.566238 242.001881 
L 656.507617 241.939233 
L 656.884169 242.027056 
L 657.072445 241.931554 
L 657.260721 242.036245 
L 657.448997 241.897698 
L 657.825549 242.075328 
L 658.578653 241.98423 
L 658.766929 241.995059 
L 658.955205 241.842382 
L 659.143481 241.881172 
L 659.331757 242.052377 
L 659.520033 241.967591 
L 659.708309 242.036933 
L 659.896585 241.857295 
L 660.084861 241.984793 
L 660.461413 241.992578 
L 661.591068 242.048976 
L 661.779344 241.904589 
L 662.155896 242.057455 
L 662.720724 241.992309 
L 662.909 241.938751 
L 663.097276 242.09451 
L 663.285552 241.891912 
L 663.473828 242.042243 
L 664.038656 241.938091 
L 664.226932 242.007856 
L 664.603484 241.966837 
L 665.168311 241.897157 
L 665.544863 242.05081 
L 665.733139 241.954611 
L 666.109691 241.962733 
L 666.674519 241.956701 
L 666.862795 242.019261 
L 667.239347 242.004557 
L 667.427623 241.948015 
L 667.992451 242.038958 
L 669.87521 242.030406 
L 670.063486 241.824663 
L 670.440038 242.040248 
L 670.628314 241.885448 
L 670.81659 241.9892 
L 671.004866 241.870593 
L 671.193142 242.058899 
L 671.381418 241.908762 
L 671.75797 242.010174 
L 672.134522 241.953144 
L 672.511074 242.052788 
L 672.69935 241.953542 
L 672.887626 242.016081 
L 673.264178 241.942571 
L 673.640729 242.043272 
L 674.017281 242.0141 
L 674.770385 242.10094 
L 674.958661 241.919424 
L 675.146937 242.010768 
L 675.523489 241.954105 
L 675.711765 242.025633 
L 675.900041 241.954317 
L 676.088317 242.051666 
L 676.276593 241.92641 
L 676.653145 242.056914 
L 677.029697 241.942723 
L 677.217973 242.096317 
L 677.406249 242.018501 
L 677.594525 242.067235 
L 677.971076 241.906399 
L 678.72418 242.07679 
L 678.912456 241.807592 
L 679.100732 242.005196 
L 681.924872 242.021163 
L 682.113147 241.858782 
L 682.301423 242.021259 
L 682.489699 241.922691 
L 682.866251 242.034311 
L 683.242803 242.066468 
L 683.431079 241.93463 
L 683.807631 242.041214 
L 683.995907 241.976508 
L 684.184183 242.072598 
L 684.372459 241.944019 
L 684.560735 242.098251 
L 684.749011 241.967687 
L 684.937287 242.050714 
L 685.125563 241.980252 
L 685.313839 242.049232 
L 685.502115 241.987387 
L 685.878667 242.010779 
L 686.820046 241.991763 
L 687.008322 242.104445 
L 687.196598 241.976842 
L 687.384874 242.006809 
L 687.761426 241.849117 
L 688.326254 242.007918 
L 690.209014 242.095105 
L 690.39729 241.977309 
L 690.773841 242.070065 
L 690.962117 241.797365 
L 691.338669 242.05901 
L 691.526945 241.976199 
L 691.715221 242.032605 
L 692.091773 241.908741 
L 692.280049 242.072021 
L 692.656601 242.013066 
L 694.727637 242.009861 
L 695.104188 241.98267 
L 695.48074 241.976317 
L 695.669016 242.076521 
L 696.233844 242.070088 
L 696.798672 242.069898 
L 696.986948 241.967293 
L 697.175224 242.083297 
L 697.928328 242.01596 
L 698.30488 242.080926 
L 698.493156 241.975496 
L 698.869708 242.083292 
L 699.057984 241.954499 
L 699.246259 242.10197 
L 699.622811 241.9903 
L 708.660057 242.030216 
L 709.036609 241.914928 
L 709.224885 242.031622 
L 709.601437 241.956258 
L 709.789713 242.099046 
L 709.977989 241.933931 
L 710.354541 242.020354 
L 710.731093 241.968315 
L 712.049025 241.990125 
L 712.2373 241.834389 
L 712.425576 242.048022 
L 712.613852 241.964245 
L 712.990404 242.010628 
L 713.555232 242.045481 
L 713.743508 241.959229 
L 713.931784 242.062042 
L 714.496612 241.941416 
L 714.684888 242.057369 
L 715.06144 242.046957 
L 716.00282 241.999308 
L 716.191096 241.917735 
L 716.379372 242.055952 
L 716.755923 242.040606 
L 719.580063 242.014065 
L 719.768339 242.086762 
L 719.956615 241.993578 
L 720.144891 242.055502 
L 720.333167 241.915685 
L 720.709718 241.993252 
L 721.274546 242.094966 
L 721.651098 241.977627 
L 721.839374 241.966173 
L 722.02765 242.073433 
L 722.215926 241.956609 
L 722.404202 242.049366 
L 722.96903 241.960392 
L 723.345582 242.051312 
L 723.533858 241.945968 
L 723.722134 242.053939 
L 724.098686 241.919349 
L 724.475238 242.071454 
L 724.85179 241.981938 
L 725.040065 241.9224 
L 725.228341 242.010063 
L 725.416617 241.854322 
L 725.793169 242.005555 
L 727.487653 242.040277 
L 727.675929 241.922807 
L 727.864205 242.07218 
L 728.052481 241.9834 
L 728.429033 242.080037 
L 728.617309 241.994217 
L 728.805585 242.089739 
L 729.746964 241.988849 
L 730.500068 241.951636 
L 730.688344 242.069707 
L 731.253172 241.952757 
L 731.629724 242.079148 
L 732.382828 242.015372 
L 733.135932 241.996307 
L 733.324208 241.888669 
L 733.700759 242.075213 
L 734.453863 241.961443 
L 735.018691 242.059693 
L 736.336623 241.910917 
L 736.713175 242.04757 
L 737.089727 241.976345 
L 737.278003 242.075465 
L 737.466279 241.941231 
L 737.842831 242.022777 
L 738.219382 242.087089 
L 738.595934 241.961401 
L 741.60835 241.986631 
L 742.361453 242.051449 
L 742.738005 242.03736 
L 743.302833 241.966971 
L 743.679385 242.082074 
L 744.055937 241.998043 
L 744.432489 242.055661 
L 744.809041 242.02952 
L 745.938697 242.052989 
L 746.126973 242.083687 
L 746.315249 241.983601 
L 746.503524 242.048751 
L 746.880076 242.00745 
L 748.57456 242.056842 
L 748.762836 241.978647 
L 749.139388 242.017431 
L 750.833871 242.037621 
L 751.398699 242.02094 
L 752.151803 242.086349 
L 752.340079 241.99019 
L 752.716631 242.023082 
L 753.093183 242.059239 
L 753.658011 241.994938 
L 753.846287 241.909777 
L 754.411115 241.998168 
L 755.917322 242.037619 
L 756.670426 242.062665 
L 756.858702 241.959654 
L 757.235254 242.042159 
L 757.988358 241.998835 
L 758.176634 242.110674 
L 758.553186 241.980164 
L 758.929738 242.053794 
L 761.000773 242.032688 
L 761.189049 242.07113 
L 761.565601 242.005802 
L 762.130429 242.078526 
L 762.883533 241.992574 
L 763.071809 242.05819 
L 763.448361 241.876817 
L 763.636637 242.022071 
L 765.895948 241.984712 
L 766.084224 242.076216 
L 766.649052 242.055104 
L 767.025604 242.045535 
L 767.21388 241.909931 
L 767.402156 242.096817 
L 768.155259 241.990582 
L 768.343535 241.900353 
L 768.720087 242.078692 
L 770.791123 242.009719 
L 771.167675 241.971123 
L 771.355951 241.836996 
L 771.544227 242.082458 
L 771.920779 241.98125 
L 773.991814 242.004156 
L 774.18009 241.845795 
L 774.556642 241.995602 
L 774.933194 241.872419 
L 775.12147 242.007587 
L 775.686298 241.969082 
L 775.874574 242.042588 
L 776.06285 241.971326 
L 776.251126 242.087473 
L 776.439402 241.948514 
L 777.004229 242.037623 
L 777.569057 242.083312 
L 777.757333 241.887779 
L 777.945609 242.066168 
L 778.510437 242.055281 
L 783.405612 242.027185 
L 783.782164 242.059863 
L 785.664923 242.034755 
L 786.041475 241.999934 
L 786.418027 242.069785 
L 786.794579 241.954618 
L 787.171131 242.096746 
L 787.735959 241.995613 
L 788.112511 242.023993 
L 788.489063 242.05265 
L 788.677339 242.091142 
L 788.865615 241.969041 
L 789.242167 242.090558 
L 789.806994 242.009749 
L 790.371822 242.065675 
L 790.748374 242.039945 
L 790.93665 242.092877 
L 791.313202 242.037705 
L 791.87803 242.064479 
L 792.066306 241.962883 
L 792.442858 242.04227 
L 793.384238 242.039053 
L 796.396653 242.023314 
L 796.961481 241.986525 
L 797.902861 242.084647 
L 798.091136 242.010229 
L 798.467688 242.051271 
L 799.220792 241.945536 
L 799.597344 242.099915 
L 800.162172 242.040283 
L 800.350448 241.911482 
L 800.538724 242.081834 
L 800.915276 242.067111 
L 801.103552 242.079289 
L 801.291828 241.969483 
L 801.66838 242.049542 
L 802.233208 242.003539 
L 802.798035 242.061929 
L 806.187003 242.018924 
L 807.316658 242.051211 
L 807.881486 242.040995 
L 808.63459 241.998845 
L 810.893901 242.081999 
L 811.082177 241.979335 
L 811.458729 242.028407 
L 811.835281 241.957585 
L 812.023557 242.101735 
L 812.588385 241.95753 
L 812.776661 242.075844 
L 813.341489 241.910323 
L 813.529765 242.061983 
L 814.282869 241.989483 
L 814.659421 242.029728 
L 814.847697 241.945102 
L 815.224248 242.030333 
L 816.165628 242.069477 
L 816.730456 241.980644 
L 816.918732 242.090972 
L 817.48356 241.976552 
L 817.860112 242.031757 
L 818.048388 242.082411 
L 818.42494 241.978892 
L 819.178044 242.069646 
L 820.307699 242.014187 
L 821.249079 242.098172 
L 822.755287 242.010914 
L 823.320115 242.096795 
L 824.261494 242.042607 
L 824.638046 242.040465 
L 825.955978 242.076447 
L 826.520806 242.020407 
L 827.085634 242.073422 
L 827.462186 241.968978 
L 828.403565 242.013074 
L 828.968393 241.952996 
L 829.344945 242.087482 
L 829.909773 241.97537 
L 830.098049 242.061337 
L 830.474601 241.992702 
L 830.662877 242.081592 
L 830.851153 241.96149 
L 831.039429 242.080898 
L 831.604257 241.977809 
L 831.980809 242.078722 
L 834.993224 242.045052 
L 854.385647 242.04835 
L 854.573923 241.953854 
L 854.950475 242.063271 
L 855.515303 242.052945 
L 857.209787 242.097956 
L 857.962891 241.989126 
L 858.151166 242.102849 
L 858.715994 242.029822 
L 859.280822 242.091959 
L 864.364273 241.982727 
L 864.552549 242.065917 
L 864.740825 242.015871 
L 865.117377 242.069017 
L 865.682205 241.989903 
L 866.058757 242.064336 
L 866.623585 241.991473 
L 867.000136 241.987262 
L 867.564964 242.087209 
L 868.129792 242.012698 
L 868.506344 241.981025 
L 868.882896 242.044329 
L 869.259448 242.004655 
L 869.636 242.070542 
L 871.142207 242.018042 
L 871.707035 241.995723 
L 872.083587 242.074457 
L 872.271863 242.072076 
L 872.460139 241.95729 
L 873.024967 242.044741 
L 873.213243 241.95213 
L 873.589795 242.063188 
L 874.342899 242.088299 
L 874.907727 242.041974 
L 878.861522 242.050989 
L 879.238074 242.063997 
L 879.991177 242.01937 
L 880.367729 242.078847 
L 883.380145 242.057267 
L 883.944972 242.013853 
L 884.321524 242.070922 
L 884.698076 242.058236 
L 885.827732 242.106498 
L 886.204284 242.060023 
L 888.087044 242.04114 
L 888.463595 242.03285 
L 889.404975 242.056277 
L 890.158079 242.070063 
L 890.534631 242.026609 
L 891.287735 242.098162 
L 892.417391 242.031939 
L 892.605666 242.083242 
L 892.793942 242.015577 
L 893.170494 242.096883 
L 895.053254 242.035601 
L 895.994634 242.060546 
L 896.18291 241.991708 
L 896.559462 242.028201 
L 896.936013 242.041403 
L 897.877393 242.099924 
L 898.253945 242.052753 
L 898.818773 242.016285 
L 901.078084 242.107689 
L 901.26636 241.9831 
L 902.019464 242.078013 
L 902.960844 242.094038 
L 905.408431 242.077459 
L 905.596707 241.963065 
L 905.973259 242.078862 
L 907.291191 241.923718 
L 907.479467 242.070672 
L 908.609123 242.040909 
L 909.173951 242.076358 
L 909.927054 241.995996 
L 910.303606 242.071883 
L 910.868434 242.085347 
L 911.244986 242.024074 
L 911.809814 242.046345 
L 912.562918 241.995957 
L 912.751194 241.970562 
L 913.127746 242.082589 
L 914.069125 242.013472 
L 914.633953 242.066879 
L 915.387057 242.059128 
L 918.211197 242.048806 
L 918.399472 241.948842 
L 918.776024 242.073562 
L 919.340852 242.07727 
L 919.529128 241.982737 
L 920.470508 242.072733 
L 922.353268 242.032913 
L 923.482923 242.092323 
L 923.671199 241.967677 
L 924.236027 242.090246 
L 924.989131 242.054823 
L 925.553959 242.057377 
L 925.742235 242.084474 
L 925.930511 241.88585 
L 926.307063 242.079929 
L 926.683615 242.010022 
L 928.566374 241.982244 
L 928.75465 241.94935 
L 928.942926 242.07699 
L 929.319478 242.051284 
L 929.69603 242.070216 
L 930.260858 241.956618 
L 930.63741 242.101963 
L 931.013962 242.090595 
L 932.331893 242.056226 
L 933.084997 242.075541 
L 934.779481 242.084306 
L 935.72086 242.056899 
L 936.285688 242.030372 
L 936.473964 242.115702 
L 936.850516 241.987349 
L 937.227068 242.070143 
L 937.791896 242.07372 
L 938.356724 242.046047 
L 938.921552 242.068242 
L 940.051207 242.050391 
L 940.804311 242.078113 
L 941.369139 242.038382 
L 941.745691 242.037664 
L 946.829142 242.059557 
L 947.017418 242.093261 
L 947.39397 242.038823 
L 948.147074 242.038299 
L 948.335349 242.101795 
L 948.711901 242.077369 
L 949.276729 242.034294 
L 949.841557 242.051939 
L 950.782937 242.075349 
L 951.159489 242.0009 
L 951.536041 242.083429 
L 951.912593 242.055208 
L 952.289145 241.991568 
L 953.042248 242.071571 
L 953.230524 242.014545 
L 953.607076 242.064619 
L 954.36018 242.051119 
L 954.925008 242.026551 
L 955.30156 242.01184 
L 957.560871 242.083607 
L 957.749147 241.960765 
L 958.125699 242.102503 
L 958.313975 241.999786 
L 958.690527 242.095676 
L 963.020874 242.010823 
L 963.397426 242.06968 
L 963.773978 242.01235 
L 963.962254 241.947269 
L 964.15053 242.071886 
L 964.715358 242.014059 
L 965.09191 241.981797 
L 965.656737 242.017571 
L 966.033289 242.068352 
L 967.351221 242.027012 
L 967.727773 242.041189 
L 968.104325 242.028948 
L 968.857429 241.955947 
L 969.233981 242.103101 
L 969.798808 242.028635 
L 969.987084 242.031067 
L 970.17536 241.913674 
L 970.363636 241.965188 
L 970.363636 241.965188 
" style="fill:none;stroke:#1f77b4;stroke-linecap:square;stroke-width:1.5;"/>
   </g>
   <g id="patch_3">
    <path d="M 180 252 
L 180 34.56 
" style="fill:none;stroke:#000000;stroke-linecap:square;stroke-linejoin:miter;stroke-width:0.8;"/>
   </g>
   <g id="patch_4">
    <path d="M 1008 252 
L 1008 34.56 
" style="fill:none;stroke:#000000;stroke-linecap:square;stroke-linejoin:miter;stroke-width:0.8;"/>
   </g>
   <g id="patch_5">
    <path d="M 180 252 
L 1008 252 
" style="fill:none;stroke:#000000;stroke-linecap:square;stroke-linejoin:miter;stroke-width:0.8;"/>
   </g>
   <g id="patch_6">
    <path d="M 180 34.56 
L 1008 34.56 
" style="fill:none;stroke:#000000;stroke-linecap:square;stroke-linejoin:miter;stroke-width:0.8;"/>
   </g>
   <g id="legend_1">
    <g id="PathCollection_2">
     <g>
      <use style="fill:#ff0000;stroke:#ff0000;" x="1085.8" xlink:href="#m8f4374f932" y="56.745312"/>
     </g>
    </g>
    <g id="text_10">
     <!-- &gt; mean + 3SD -->
     <defs>
      <path d="M 52.875 31.296875 
L 5.46875 11.03125 
L 5.46875 19.78125 
L 43.015625 35.359375 
L 5.46875 50.78125 
L 5.46875 59.515625 
L 52.875 39.5 
z
" id="ArialMT-62"/>
      <path d="M 25.046875 11.578125 
L 25.046875 31.203125 
L 5.5625 31.203125 
L 5.5625 39.40625 
L 25.046875 39.40625 
L 25.046875 58.890625 
L 33.34375 58.890625 
L 33.34375 39.40625 
L 52.828125 39.40625 
L 52.828125 31.203125 
L 33.34375 31.203125 
L 33.34375 11.578125 
z
" id="ArialMT-43"/>
      <path d="M 4.203125 18.890625 
L 12.984375 20.0625 
Q 14.5 12.59375 18.140625 9.296875 
Q 21.78125 6 27 6 
Q 33.203125 6 37.46875 10.296875 
Q 41.75 14.59375 41.75 20.953125 
Q 41.75 27 37.796875 30.921875 
Q 33.84375 34.859375 27.734375 34.859375 
Q 25.25 34.859375 21.53125 33.890625 
L 22.515625 41.609375 
Q 23.390625 41.5 23.921875 41.5 
Q 29.546875 41.5 34.03125 44.421875 
Q 38.53125 47.359375 38.53125 53.46875 
Q 38.53125 58.296875 35.25 61.46875 
Q 31.984375 64.65625 26.8125 64.65625 
Q 21.6875 64.65625 18.265625 61.421875 
Q 14.84375 58.203125 13.875 51.765625 
L 5.078125 53.328125 
Q 6.6875 62.15625 12.390625 67.015625 
Q 18.109375 71.875 26.609375 71.875 
Q 32.46875 71.875 37.390625 69.359375 
Q 42.328125 66.84375 44.9375 62.5 
Q 47.5625 58.15625 47.5625 53.265625 
Q 47.5625 48.640625 45.0625 44.828125 
Q 42.578125 41.015625 37.703125 38.765625 
Q 44.046875 37.3125 47.5625 32.6875 
Q 51.078125 28.078125 51.078125 21.140625 
Q 51.078125 11.765625 44.234375 5.25 
Q 37.40625 -1.265625 26.953125 -1.265625 
Q 17.53125 -1.265625 11.296875 4.34375 
Q 5.078125 9.96875 4.203125 18.890625 
z
" id="ArialMT-51"/>
      <path d="M 4.5 23 
L 13.421875 23.78125 
Q 14.0625 18.40625 16.375 14.96875 
Q 18.703125 11.53125 23.578125 9.40625 
Q 28.46875 7.28125 34.578125 7.28125 
Q 39.984375 7.28125 44.140625 8.890625 
Q 48.296875 10.5 50.3125 13.296875 
Q 52.34375 16.109375 52.34375 19.4375 
Q 52.34375 22.796875 50.390625 25.3125 
Q 48.4375 27.828125 43.953125 29.546875 
Q 41.0625 30.671875 31.203125 33.03125 
Q 21.34375 35.40625 17.390625 37.5 
Q 12.25 40.1875 9.734375 44.15625 
Q 7.234375 48.140625 7.234375 53.078125 
Q 7.234375 58.5 10.296875 63.203125 
Q 13.375 67.921875 19.28125 70.359375 
Q 25.203125 72.796875 32.421875 72.796875 
Q 40.375 72.796875 46.453125 70.234375 
Q 52.546875 67.671875 55.8125 62.6875 
Q 59.078125 57.71875 59.328125 51.421875 
L 50.25 50.734375 
Q 49.515625 57.515625 45.28125 60.984375 
Q 41.0625 64.453125 32.8125 64.453125 
Q 24.21875 64.453125 20.28125 61.296875 
Q 16.359375 58.15625 16.359375 53.71875 
Q 16.359375 49.859375 19.140625 47.359375 
Q 21.875 44.875 33.421875 42.265625 
Q 44.96875 39.65625 49.265625 37.703125 
Q 55.515625 34.8125 58.484375 30.390625 
Q 61.46875 25.984375 61.46875 20.21875 
Q 61.46875 14.5 58.203125 9.4375 
Q 54.9375 4.390625 48.796875 1.578125 
Q 42.671875 -1.21875 35.015625 -1.21875 
Q 25.296875 -1.21875 18.71875 1.609375 
Q 12.15625 4.4375 8.421875 10.125 
Q 4.6875 15.828125 4.5 23 
z
" id="ArialMT-83"/>
      <path d="M 7.71875 0 
L 7.71875 71.578125 
L 32.375 71.578125 
Q 40.71875 71.578125 45.125 70.5625 
Q 51.265625 69.140625 55.609375 65.4375 
Q 61.28125 60.640625 64.078125 53.1875 
Q 66.890625 45.75 66.890625 36.1875 
Q 66.890625 28.03125 64.984375 21.734375 
Q 63.09375 15.4375 60.109375 11.296875 
Q 57.125 7.171875 53.578125 4.796875 
Q 50.046875 2.4375 45.046875 1.21875 
Q 40.046875 0 33.546875 0 
z
M 17.1875 8.453125 
L 32.46875 8.453125 
Q 39.546875 8.453125 43.578125 9.765625 
Q 47.609375 11.078125 50 13.484375 
Q 53.375 16.84375 55.25 22.53125 
Q 57.125 28.21875 57.125 36.328125 
Q 57.125 47.5625 53.4375 53.59375 
Q 49.75 59.625 44.484375 61.671875 
Q 40.671875 63.140625 32.234375 63.140625 
L 17.1875 63.140625 
z
" id="ArialMT-68"/>
     </defs>
     <g transform="translate(1132.6 63.570312)scale(0.26 -0.26)">
      <use xlink:href="#ArialMT-62"/>
      <use x="58.398438" xlink:href="#ArialMT-32"/>
      <use x="86.181641" xlink:href="#ArialMT-109"/>
      <use x="169.482422" xlink:href="#ArialMT-101"/>
      <use x="225.097656" xlink:href="#ArialMT-97"/>
      <use x="280.712891" xlink:href="#ArialMT-110"/>
      <use x="336.328125" xlink:href="#ArialMT-32"/>
      <use x="364.111328" xlink:href="#ArialMT-43"/>
      <use x="422.509766" xlink:href="#ArialMT-32"/>
      <use x="450.292969" xlink:href="#ArialMT-51"/>
      <use x="505.908203" xlink:href="#ArialMT-83"/>
      <use x="572.607422" xlink:href="#ArialMT-68"/>
     </g>
    </g>
   </g>
  </g>
 </g>
 <defs>
  <clipPath id="p6c78a1bc1f">
   <rect height="217.44" width="828" x="180" y="34.56"/>
  </clipPath>
 </defs>
</svg>
