<?xml version="1.0" encoding="utf-8" standalone="no"?>
<!DOCTYPE svg PUBLIC "-//W3C//DTD SVG 1.1//EN"
  "http://www.w3.org/Graphics/SVG/1.1/DTD/svg11.dtd">
<!-- Created with matplotlib (https://matplotlib.org/) -->
<svg height="288pt" version="1.1" viewBox="0 0 1440 288" width="1440pt" xmlns="http://www.w3.org/2000/svg" xmlns:xlink="http://www.w3.org/1999/xlink">
 <defs>
  <style type="text/css">
*{stroke-linecap:butt;stroke-linejoin:round;}
  </style>
 </defs>
 <g id="figure_1">
  <g id="patch_1">
   <path d="M 0 288 
L 1440 288 
L 1440 0 
L 0 0 
z
" style="fill:#ffffff;"/>
  </g>
  <g id="axes_1">
   <g id="patch_2">
    <path d="M 180 252 
L 1008 252 
L 1008 34.56 
L 180 34.56 
z
" style="fill:#ffffff;"/>
   </g>
   <g id="PathCollection_1">
    <defs>
     <path d="M 0 3 
C 0.795609 3 1.55874 2.683901 2.12132 2.12132 
C 2.683901 1.55874 3 0.795609 3 0 
C 3 -0.795609 2.683901 -1.55874 2.12132 -2.12132 
C 1.55874 -2.683901 0.795609 -3 0 -3 
C -0.795609 -3 -1.55874 -2.683901 -2.12132 -2.12132 
C -2.683901 -1.55874 -3 -0.795609 -3 0 
C -3 0.795609 -2.683901 1.55874 -2.12132 2.12132 
C -1.55874 2.683901 -0.795609 3 0 3 
z
" id="md798f8c6e7" style="stroke:#ff0000;"/>
    </defs>
    <g clip-path="url(#pc12ff94f34)">
     <use style="fill:#ff0000;stroke:#ff0000;" x="217.636364" xlink:href="#md798f8c6e7" y="44.443636"/>
     <use style="fill:#ff0000;stroke:#ff0000;" x="217.82464" xlink:href="#md798f8c6e7" y="142.208969"/>
     <use style="fill:#ff0000;stroke:#ff0000;" x="218.012916" xlink:href="#md798f8c6e7" y="191.087079"/>
     <use style="fill:#ff0000;stroke:#ff0000;" x="218.201192" xlink:href="#md798f8c6e7" y="215.554255"/>
     <use style="fill:#ff0000;stroke:#ff0000;" x="218.389467" xlink:href="#md798f8c6e7" y="227.733987"/>
     <use style="fill:#ff0000;stroke:#ff0000;" x="220.460503" xlink:href="#md798f8c6e7" y="225.62098"/>
     <use style="fill:#ff0000;stroke:#ff0000;" x="220.648779" xlink:href="#md798f8c6e7" y="220.261404"/>
     <use style="fill:#ff0000;stroke:#ff0000;" x="220.837055" xlink:href="#md798f8c6e7" y="215.435424"/>
     <use style="fill:#ff0000;stroke:#ff0000;" x="221.025331" xlink:href="#md798f8c6e7" y="210.115406"/>
     <use style="fill:#ff0000;stroke:#ff0000;" x="221.213607" xlink:href="#md798f8c6e7" y="208.040061"/>
     <use style="fill:#ff0000;stroke:#ff0000;" x="221.401883" xlink:href="#md798f8c6e7" y="207.63507"/>
     <use style="fill:#ff0000;stroke:#ff0000;" x="221.590159" xlink:href="#md798f8c6e7" y="207.737053"/>
     <use style="fill:#ff0000;stroke:#ff0000;" x="221.778435" xlink:href="#md798f8c6e7" y="210.310384"/>
     <use style="fill:#ff0000;stroke:#ff0000;" x="221.966711" xlink:href="#md798f8c6e7" y="214.062445"/>
     <use style="fill:#ff0000;stroke:#ff0000;" x="222.154987" xlink:href="#md798f8c6e7" y="218.899663"/>
     <use style="fill:#ff0000;stroke:#ff0000;" x="222.343263" xlink:href="#md798f8c6e7" y="222.231033"/>
     <use style="fill:#ff0000;stroke:#ff0000;" x="222.531538" xlink:href="#md798f8c6e7" y="226.367538"/>
     <use style="fill:#ff0000;stroke:#ff0000;" x="222.719814" xlink:href="#md798f8c6e7" y="228.202022"/>
     <use style="fill:#ff0000;stroke:#ff0000;" x="226.861885" xlink:href="#md798f8c6e7" y="228.382264"/>
     <use style="fill:#ff0000;stroke:#ff0000;" x="227.050161" xlink:href="#md798f8c6e7" y="227.60387"/>
     <use style="fill:#ff0000;stroke:#ff0000;" x="227.238437" xlink:href="#md798f8c6e7" y="227.847665"/>
     <use style="fill:#ff0000;stroke:#ff0000;" x="227.803265" xlink:href="#md798f8c6e7" y="228.568221"/>
    </g>
   </g>
   <g id="matplotlib.axis_1">
    <g id="xtick_1">
     <g id="line2d_1">
      <path clip-path="url(#pc12ff94f34)" d="M 217.636364 252 
L 217.636364 34.56 
" style="fill:none;stroke:#b0b0b0;stroke-linecap:square;stroke-width:0.8;"/>
     </g>
     <g id="line2d_2">
      <defs>
       <path d="M 0 0 
L 0 3.5 
" id="md43dc21fe9" style="stroke:#000000;stroke-width:0.8;"/>
      </defs>
      <g>
       <use style="stroke:#000000;stroke-width:0.8;" x="217.636364" xlink:href="#md43dc21fe9" y="252"/>
      </g>
     </g>
     <g id="text_1">
      <!-- 0 -->
      <defs>
       <path d="M 4.15625 35.296875 
Q 4.15625 48 6.765625 55.734375 
Q 9.375 63.484375 14.515625 67.671875 
Q 19.671875 71.875 27.484375 71.875 
Q 33.25 71.875 37.59375 69.546875 
Q 41.9375 67.234375 44.765625 62.859375 
Q 47.609375 58.5 49.21875 52.21875 
Q 50.828125 45.953125 50.828125 35.296875 
Q 50.828125 22.703125 48.234375 14.96875 
Q 45.65625 7.234375 40.5 3 
Q 35.359375 -1.21875 27.484375 -1.21875 
Q 17.140625 -1.21875 11.234375 6.203125 
Q 4.15625 15.140625 4.15625 35.296875 
z
M 13.1875 35.296875 
Q 13.1875 17.671875 17.3125 11.828125 
Q 21.4375 6 27.484375 6 
Q 33.546875 6 37.671875 11.859375 
Q 41.796875 17.71875 41.796875 35.296875 
Q 41.796875 52.984375 37.671875 58.78125 
Q 33.546875 64.59375 27.390625 64.59375 
Q 21.34375 64.59375 17.71875 59.46875 
Q 13.1875 52.9375 13.1875 35.296875 
z
" id="ArialMT-48"/>
      </defs>
      <g transform="translate(210.407145 277.610313)scale(0.26 -0.26)">
       <use xlink:href="#ArialMT-48"/>
      </g>
     </g>
    </g>
    <g id="xtick_2">
     <g id="line2d_3">
      <path clip-path="url(#pc12ff94f34)" d="M 594.188276 252 
L 594.188276 34.56 
" style="fill:none;stroke:#b0b0b0;stroke-linecap:square;stroke-width:0.8;"/>
     </g>
     <g id="line2d_4">
      <g>
       <use style="stroke:#000000;stroke-width:0.8;" x="594.188276" xlink:href="#md43dc21fe9" y="252"/>
      </g>
     </g>
     <g id="text_2">
      <!-- 2000 -->
      <defs>
       <path d="M 50.34375 8.453125 
L 50.34375 0 
L 3.03125 0 
Q 2.9375 3.171875 4.046875 6.109375 
Q 5.859375 10.9375 9.828125 15.625 
Q 13.8125 20.3125 21.34375 26.46875 
Q 33.015625 36.03125 37.109375 41.625 
Q 41.21875 47.21875 41.21875 52.203125 
Q 41.21875 57.421875 37.46875 61 
Q 33.734375 64.59375 27.734375 64.59375 
Q 21.390625 64.59375 17.578125 60.78125 
Q 13.765625 56.984375 13.71875 50.25 
L 4.6875 51.171875 
Q 5.609375 61.28125 11.65625 66.578125 
Q 17.71875 71.875 27.9375 71.875 
Q 38.234375 71.875 44.234375 66.15625 
Q 50.25 60.453125 50.25 52 
Q 50.25 47.703125 48.484375 43.546875 
Q 46.734375 39.40625 42.65625 34.8125 
Q 38.578125 30.21875 29.109375 22.21875 
Q 21.1875 15.578125 18.9375 13.203125 
Q 16.703125 10.84375 15.234375 8.453125 
z
" id="ArialMT-50"/>
      </defs>
      <g transform="translate(565.271401 277.610313)scale(0.26 -0.26)">
       <use xlink:href="#ArialMT-50"/>
       <use x="55.615234" xlink:href="#ArialMT-48"/>
       <use x="111.230469" xlink:href="#ArialMT-48"/>
       <use x="166.845703" xlink:href="#ArialMT-48"/>
      </g>
     </g>
    </g>
    <g id="xtick_3">
     <g id="line2d_5">
      <path clip-path="url(#pc12ff94f34)" d="M 970.740188 252 
L 970.740188 34.56 
" style="fill:none;stroke:#b0b0b0;stroke-linecap:square;stroke-width:0.8;"/>
     </g>
     <g id="line2d_6">
      <g>
       <use style="stroke:#000000;stroke-width:0.8;" x="970.740188" xlink:href="#md43dc21fe9" y="252"/>
      </g>
     </g>
     <g id="text_3">
      <!-- 4000 -->
      <defs>
       <path d="M 32.328125 0 
L 32.328125 17.140625 
L 1.265625 17.140625 
L 1.265625 25.203125 
L 33.9375 71.578125 
L 41.109375 71.578125 
L 41.109375 25.203125 
L 50.78125 25.203125 
L 50.78125 17.140625 
L 41.109375 17.140625 
L 41.109375 0 
z
M 32.328125 25.203125 
L 32.328125 57.46875 
L 9.90625 25.203125 
z
" id="ArialMT-52"/>
      </defs>
      <g transform="translate(941.823313 277.610313)scale(0.26 -0.26)">
       <use xlink:href="#ArialMT-52"/>
       <use x="55.615234" xlink:href="#ArialMT-48"/>
       <use x="111.230469" xlink:href="#ArialMT-48"/>
       <use x="166.845703" xlink:href="#ArialMT-48"/>
      </g>
     </g>
    </g>
    <g id="text_4">
     <!-- # sample -->
     <defs>
      <path d="M 5.03125 -1.21875 
L 9.28125 19.578125 
L 1.03125 19.578125 
L 1.03125 26.859375 
L 10.75 26.859375 
L 14.359375 44.578125 
L 1.03125 44.578125 
L 1.03125 51.859375 
L 15.828125 51.859375 
L 20.0625 72.796875 
L 27.390625 72.796875 
L 23.140625 51.859375 
L 38.53125 51.859375 
L 42.78125 72.796875 
L 50.140625 72.796875 
L 45.90625 51.859375 
L 54.34375 51.859375 
L 54.34375 44.578125 
L 44.4375 44.578125 
L 40.765625 26.859375 
L 54.34375 26.859375 
L 54.34375 19.578125 
L 39.3125 19.578125 
L 35.0625 -1.21875 
L 27.734375 -1.21875 
L 31.9375 19.578125 
L 16.609375 19.578125 
L 12.359375 -1.21875 
z
M 18.0625 26.859375 
L 33.40625 26.859375 
L 37.0625 44.578125 
L 21.6875 44.578125 
z
" id="ArialMT-35"/>
      <path id="ArialMT-32"/>
      <path d="M 3.078125 15.484375 
L 11.765625 16.84375 
Q 12.5 11.625 15.84375 8.84375 
Q 19.1875 6.0625 25.203125 6.0625 
Q 31.25 6.0625 34.171875 8.515625 
Q 37.109375 10.984375 37.109375 14.3125 
Q 37.109375 17.28125 34.515625 19 
Q 32.71875 20.171875 25.53125 21.96875 
Q 15.875 24.421875 12.140625 26.203125 
Q 8.40625 27.984375 6.46875 31.125 
Q 4.546875 34.28125 4.546875 38.09375 
Q 4.546875 41.546875 6.125 44.5 
Q 7.71875 47.46875 10.453125 49.421875 
Q 12.5 50.921875 16.03125 51.96875 
Q 19.578125 53.03125 23.640625 53.03125 
Q 29.734375 53.03125 34.34375 51.265625 
Q 38.96875 49.515625 41.15625 46.5 
Q 43.359375 43.5 44.1875 38.484375 
L 35.59375 37.3125 
Q 35.015625 41.3125 32.203125 43.546875 
Q 29.390625 45.796875 24.265625 45.796875 
Q 18.21875 45.796875 15.625 43.796875 
Q 13.03125 41.796875 13.03125 39.109375 
Q 13.03125 37.40625 14.109375 36.03125 
Q 15.1875 34.625 17.484375 33.6875 
Q 18.796875 33.203125 25.25 31.453125 
Q 34.578125 28.953125 38.25 27.359375 
Q 41.9375 25.78125 44.03125 22.75 
Q 46.140625 19.734375 46.140625 15.234375 
Q 46.140625 10.84375 43.578125 6.953125 
Q 41.015625 3.078125 36.171875 0.953125 
Q 31.34375 -1.171875 25.25 -1.171875 
Q 15.140625 -1.171875 9.84375 3.03125 
Q 4.546875 7.234375 3.078125 15.484375 
z
" id="ArialMT-115"/>
      <path d="M 40.4375 6.390625 
Q 35.546875 2.25 31.03125 0.53125 
Q 26.515625 -1.171875 21.34375 -1.171875 
Q 12.796875 -1.171875 8.203125 3 
Q 3.609375 7.171875 3.609375 13.671875 
Q 3.609375 17.484375 5.34375 20.625 
Q 7.078125 23.78125 9.890625 25.6875 
Q 12.703125 27.59375 16.21875 28.5625 
Q 18.796875 29.25 24.03125 29.890625 
Q 34.671875 31.15625 39.703125 32.90625 
Q 39.75 34.71875 39.75 35.203125 
Q 39.75 40.578125 37.25 42.78125 
Q 33.890625 45.75 27.25 45.75 
Q 21.046875 45.75 18.09375 43.578125 
Q 15.140625 41.40625 13.71875 35.890625 
L 5.125 37.0625 
Q 6.296875 42.578125 8.984375 45.96875 
Q 11.671875 49.359375 16.75 51.1875 
Q 21.828125 53.03125 28.515625 53.03125 
Q 35.15625 53.03125 39.296875 51.46875 
Q 43.453125 49.90625 45.40625 47.53125 
Q 47.359375 45.171875 48.140625 41.546875 
Q 48.578125 39.3125 48.578125 33.453125 
L 48.578125 21.734375 
Q 48.578125 9.46875 49.140625 6.21875 
Q 49.703125 2.984375 51.375 0 
L 42.1875 0 
Q 40.828125 2.734375 40.4375 6.390625 
z
M 39.703125 26.03125 
Q 34.90625 24.078125 25.34375 22.703125 
Q 19.921875 21.921875 17.671875 20.9375 
Q 15.4375 19.96875 14.203125 18.09375 
Q 12.984375 16.21875 12.984375 13.921875 
Q 12.984375 10.40625 15.640625 8.0625 
Q 18.3125 5.71875 23.4375 5.71875 
Q 28.515625 5.71875 32.46875 7.9375 
Q 36.421875 10.15625 38.28125 14.015625 
Q 39.703125 17 39.703125 22.796875 
z
" id="ArialMT-97"/>
      <path d="M 6.59375 0 
L 6.59375 51.859375 
L 14.453125 51.859375 
L 14.453125 44.578125 
Q 16.890625 48.390625 20.9375 50.703125 
Q 25 53.03125 30.171875 53.03125 
Q 35.9375 53.03125 39.625 50.640625 
Q 43.3125 48.25 44.828125 43.953125 
Q 50.984375 53.03125 60.84375 53.03125 
Q 68.5625 53.03125 72.703125 48.75 
Q 76.859375 44.484375 76.859375 35.59375 
L 76.859375 0 
L 68.109375 0 
L 68.109375 32.671875 
Q 68.109375 37.9375 67.25 40.25 
Q 66.40625 42.578125 64.15625 43.984375 
Q 61.921875 45.40625 58.890625 45.40625 
Q 53.421875 45.40625 49.796875 41.765625 
Q 46.1875 38.140625 46.1875 30.125 
L 46.1875 0 
L 37.40625 0 
L 37.40625 33.6875 
Q 37.40625 39.546875 35.25 42.46875 
Q 33.109375 45.40625 28.21875 45.40625 
Q 24.515625 45.40625 21.359375 43.453125 
Q 18.21875 41.5 16.796875 37.734375 
Q 15.375 33.984375 15.375 26.90625 
L 15.375 0 
z
" id="ArialMT-109"/>
      <path d="M 6.59375 -19.875 
L 6.59375 51.859375 
L 14.59375 51.859375 
L 14.59375 45.125 
Q 17.4375 49.078125 21 51.046875 
Q 24.5625 53.03125 29.640625 53.03125 
Q 36.28125 53.03125 41.359375 49.609375 
Q 46.4375 46.1875 49.015625 39.953125 
Q 51.609375 33.734375 51.609375 26.3125 
Q 51.609375 18.359375 48.75 11.984375 
Q 45.90625 5.609375 40.453125 2.21875 
Q 35.015625 -1.171875 29 -1.171875 
Q 24.609375 -1.171875 21.109375 0.6875 
Q 17.625 2.546875 15.375 5.375 
L 15.375 -19.875 
z
M 14.546875 25.640625 
Q 14.546875 15.625 18.59375 10.84375 
Q 22.65625 6.0625 28.421875 6.0625 
Q 34.28125 6.0625 38.453125 11.015625 
Q 42.625 15.96875 42.625 26.375 
Q 42.625 36.28125 38.546875 41.203125 
Q 34.46875 46.140625 28.8125 46.140625 
Q 23.1875 46.140625 18.859375 40.890625 
Q 14.546875 35.640625 14.546875 25.640625 
z
" id="ArialMT-112"/>
      <path d="M 6.390625 0 
L 6.390625 71.578125 
L 15.1875 71.578125 
L 15.1875 0 
z
" id="ArialMT-108"/>
      <path d="M 42.09375 16.703125 
L 51.171875 15.578125 
Q 49.03125 7.625 43.21875 3.21875 
Q 37.40625 -1.171875 28.375 -1.171875 
Q 17 -1.171875 10.328125 5.828125 
Q 3.65625 12.84375 3.65625 25.484375 
Q 3.65625 38.578125 10.390625 45.796875 
Q 17.140625 53.03125 27.875 53.03125 
Q 38.28125 53.03125 44.875 45.953125 
Q 51.46875 38.875 51.46875 26.03125 
Q 51.46875 25.25 51.421875 23.6875 
L 12.75 23.6875 
Q 13.234375 15.140625 17.578125 10.59375 
Q 21.921875 6.0625 28.421875 6.0625 
Q 33.25 6.0625 36.671875 8.59375 
Q 40.09375 11.140625 42.09375 16.703125 
z
M 13.234375 30.90625 
L 42.1875 30.90625 
Q 41.609375 37.453125 38.875 40.71875 
Q 34.671875 45.796875 27.984375 45.796875 
Q 21.921875 45.796875 17.796875 41.75 
Q 13.671875 37.703125 13.234375 30.90625 
z
" id="ArialMT-101"/>
     </defs>
     <g transform="translate(541.254531 305.705)scale(0.26 -0.26)">
      <use xlink:href="#ArialMT-35"/>
      <use x="55.615234" xlink:href="#ArialMT-32"/>
      <use x="83.398438" xlink:href="#ArialMT-115"/>
      <use x="133.398438" xlink:href="#ArialMT-97"/>
      <use x="189.013672" xlink:href="#ArialMT-109"/>
      <use x="272.314453" xlink:href="#ArialMT-112"/>
      <use x="327.929688" xlink:href="#ArialMT-108"/>
      <use x="350.146484" xlink:href="#ArialMT-101"/>
     </g>
    </g>
   </g>
   <g id="matplotlib.axis_2">
    <g id="ytick_1">
     <g id="line2d_7">
      <path clip-path="url(#pc12ff94f34)" d="M 180 242.117964 
L 1008 242.117964 
" style="fill:none;stroke:#b0b0b0;stroke-linecap:square;stroke-width:0.8;"/>
     </g>
     <g id="line2d_8">
      <defs>
       <path d="M 0 0 
L -3.5 0 
" id="m53ebcafb6b" style="stroke:#000000;stroke-width:0.8;"/>
      </defs>
      <g>
       <use style="stroke:#000000;stroke-width:0.8;" x="180" xlink:href="#m53ebcafb6b" y="242.117964"/>
      </g>
     </g>
     <g id="text_5">
      <!-- 0 -->
      <g transform="translate(158.541562 251.42312)scale(0.26 -0.26)">
       <use xlink:href="#ArialMT-48"/>
      </g>
     </g>
    </g>
    <g id="ytick_2">
     <g id="line2d_9">
      <path clip-path="url(#pc12ff94f34)" d="M 180 174.657894 
L 1008 174.657894 
" style="fill:none;stroke:#b0b0b0;stroke-linecap:square;stroke-width:0.8;"/>
     </g>
     <g id="line2d_10">
      <g>
       <use style="stroke:#000000;stroke-width:0.8;" x="180" xlink:href="#m53ebcafb6b" y="174.657894"/>
      </g>
     </g>
     <g id="text_6">
      <!-- 50 -->
      <defs>
       <path d="M 4.15625 18.75 
L 13.375 19.53125 
Q 14.40625 12.796875 18.140625 9.390625 
Q 21.875 6 27.15625 6 
Q 33.5 6 37.890625 10.78125 
Q 42.28125 15.578125 42.28125 23.484375 
Q 42.28125 31 38.0625 35.34375 
Q 33.84375 39.703125 27 39.703125 
Q 22.75 39.703125 19.328125 37.765625 
Q 15.921875 35.84375 13.96875 32.765625 
L 5.71875 33.84375 
L 12.640625 70.609375 
L 48.25 70.609375 
L 48.25 62.203125 
L 19.671875 62.203125 
L 15.828125 42.96875 
Q 22.265625 47.46875 29.34375 47.46875 
Q 38.71875 47.46875 45.15625 40.96875 
Q 51.609375 34.46875 51.609375 24.265625 
Q 51.609375 14.546875 45.953125 7.46875 
Q 39.0625 -1.21875 27.15625 -1.21875 
Q 17.390625 -1.21875 11.203125 4.25 
Q 5.03125 9.71875 4.15625 18.75 
z
" id="ArialMT-53"/>
      </defs>
      <g transform="translate(144.083125 183.963051)scale(0.26 -0.26)">
       <use xlink:href="#ArialMT-53"/>
       <use x="55.615234" xlink:href="#ArialMT-48"/>
      </g>
     </g>
    </g>
    <g id="ytick_3">
     <g id="line2d_11">
      <path clip-path="url(#pc12ff94f34)" d="M 180 107.197824 
L 1008 107.197824 
" style="fill:none;stroke:#b0b0b0;stroke-linecap:square;stroke-width:0.8;"/>
     </g>
     <g id="line2d_12">
      <g>
       <use style="stroke:#000000;stroke-width:0.8;" x="180" xlink:href="#m53ebcafb6b" y="107.197824"/>
      </g>
     </g>
     <g id="text_7">
      <!-- 100 -->
      <defs>
       <path d="M 37.25 0 
L 28.46875 0 
L 28.46875 56 
Q 25.296875 52.984375 20.140625 49.953125 
Q 14.984375 46.921875 10.890625 45.40625 
L 10.890625 53.90625 
Q 18.265625 57.375 23.78125 62.296875 
Q 29.296875 67.234375 31.59375 71.875 
L 37.25 71.875 
z
" id="ArialMT-49"/>
      </defs>
      <g transform="translate(129.624687 116.502981)scale(0.26 -0.26)">
       <use xlink:href="#ArialMT-49"/>
       <use x="55.615234" xlink:href="#ArialMT-48"/>
       <use x="111.230469" xlink:href="#ArialMT-48"/>
      </g>
     </g>
    </g>
    <g id="ytick_4">
     <g id="line2d_13">
      <path clip-path="url(#pc12ff94f34)" d="M 180 39.737755 
L 1008 39.737755 
" style="fill:none;stroke:#b0b0b0;stroke-linecap:square;stroke-width:0.8;"/>
     </g>
     <g id="line2d_14">
      <g>
       <use style="stroke:#000000;stroke-width:0.8;" x="180" xlink:href="#m53ebcafb6b" y="39.737755"/>
      </g>
     </g>
     <g id="text_8">
      <!-- 150 -->
      <g transform="translate(129.624687 49.042911)scale(0.26 -0.26)">
       <use xlink:href="#ArialMT-49"/>
       <use x="55.615234" xlink:href="#ArialMT-53"/>
       <use x="111.230469" xlink:href="#ArialMT-48"/>
      </g>
     </g>
    </g>
    <g id="text_9">
     <!-- Change-point score  -->
     <defs>
      <path d="M 58.796875 25.09375 
L 68.265625 22.703125 
Q 65.28125 11.03125 57.546875 4.90625 
Q 49.8125 -1.21875 38.625 -1.21875 
Q 27.046875 -1.21875 19.796875 3.484375 
Q 12.546875 8.203125 8.765625 17.140625 
Q 4.984375 26.078125 4.984375 36.328125 
Q 4.984375 47.515625 9.25 55.828125 
Q 13.53125 64.15625 21.40625 68.46875 
Q 29.296875 72.796875 38.765625 72.796875 
Q 49.515625 72.796875 56.828125 67.328125 
Q 64.15625 61.859375 67.046875 51.953125 
L 57.71875 49.75 
Q 55.21875 57.5625 50.484375 61.125 
Q 45.75 64.703125 38.578125 64.703125 
Q 30.328125 64.703125 24.78125 60.734375 
Q 19.234375 56.78125 16.984375 50.109375 
Q 14.75 43.453125 14.75 36.375 
Q 14.75 27.25 17.40625 20.4375 
Q 20.0625 13.625 25.671875 10.25 
Q 31.296875 6.890625 37.84375 6.890625 
Q 45.796875 6.890625 51.3125 11.46875 
Q 56.84375 16.0625 58.796875 25.09375 
z
" id="ArialMT-67"/>
      <path d="M 6.59375 0 
L 6.59375 71.578125 
L 15.375 71.578125 
L 15.375 45.90625 
Q 21.53125 53.03125 30.90625 53.03125 
Q 36.671875 53.03125 40.921875 50.75 
Q 45.171875 48.484375 47 44.484375 
Q 48.828125 40.484375 48.828125 32.859375 
L 48.828125 0 
L 40.046875 0 
L 40.046875 32.859375 
Q 40.046875 39.453125 37.1875 42.453125 
Q 34.328125 45.453125 29.109375 45.453125 
Q 25.203125 45.453125 21.75 43.421875 
Q 18.3125 41.40625 16.84375 37.9375 
Q 15.375 34.46875 15.375 28.375 
L 15.375 0 
z
" id="ArialMT-104"/>
      <path d="M 6.59375 0 
L 6.59375 51.859375 
L 14.5 51.859375 
L 14.5 44.484375 
Q 20.21875 53.03125 31 53.03125 
Q 35.6875 53.03125 39.625 51.34375 
Q 43.5625 49.65625 45.515625 46.921875 
Q 47.46875 44.1875 48.25 40.4375 
Q 48.734375 37.984375 48.734375 31.890625 
L 48.734375 0 
L 39.9375 0 
L 39.9375 31.546875 
Q 39.9375 36.921875 38.90625 39.578125 
Q 37.890625 42.234375 35.28125 43.8125 
Q 32.671875 45.40625 29.15625 45.40625 
Q 23.53125 45.40625 19.453125 41.84375 
Q 15.375 38.28125 15.375 28.328125 
L 15.375 0 
z
" id="ArialMT-110"/>
      <path d="M 4.984375 -4.296875 
L 13.53125 -5.5625 
Q 14.0625 -9.515625 16.5 -11.328125 
Q 19.78125 -13.765625 25.4375 -13.765625 
Q 31.546875 -13.765625 34.859375 -11.328125 
Q 38.1875 -8.890625 39.359375 -4.5 
Q 40.046875 -1.8125 39.984375 6.78125 
Q 34.234375 0 25.640625 0 
Q 14.9375 0 9.078125 7.71875 
Q 3.21875 15.4375 3.21875 26.21875 
Q 3.21875 33.640625 5.90625 39.90625 
Q 8.59375 46.1875 13.6875 49.609375 
Q 18.796875 53.03125 25.6875 53.03125 
Q 34.859375 53.03125 40.828125 45.609375 
L 40.828125 51.859375 
L 48.921875 51.859375 
L 48.921875 7.03125 
Q 48.921875 -5.078125 46.453125 -10.125 
Q 44 -15.1875 38.640625 -18.109375 
Q 33.296875 -21.046875 25.484375 -21.046875 
Q 16.21875 -21.046875 10.5 -16.875 
Q 4.78125 -12.703125 4.984375 -4.296875 
z
M 12.25 26.859375 
Q 12.25 16.65625 16.296875 11.96875 
Q 20.359375 7.28125 26.46875 7.28125 
Q 32.515625 7.28125 36.609375 11.9375 
Q 40.71875 16.609375 40.71875 26.5625 
Q 40.71875 36.078125 36.5 40.90625 
Q 32.28125 45.75 26.3125 45.75 
Q 20.453125 45.75 16.34375 40.984375 
Q 12.25 36.234375 12.25 26.859375 
z
" id="ArialMT-103"/>
      <path d="M 3.171875 21.484375 
L 3.171875 30.328125 
L 30.171875 30.328125 
L 30.171875 21.484375 
z
" id="ArialMT-45"/>
      <path d="M 3.328125 25.921875 
Q 3.328125 40.328125 11.328125 47.265625 
Q 18.015625 53.03125 27.640625 53.03125 
Q 38.328125 53.03125 45.109375 46.015625 
Q 51.90625 39.015625 51.90625 26.65625 
Q 51.90625 16.65625 48.90625 10.90625 
Q 45.90625 5.171875 40.15625 2 
Q 34.421875 -1.171875 27.640625 -1.171875 
Q 16.75 -1.171875 10.03125 5.8125 
Q 3.328125 12.796875 3.328125 25.921875 
z
M 12.359375 25.921875 
Q 12.359375 15.96875 16.703125 11.015625 
Q 21.046875 6.0625 27.640625 6.0625 
Q 34.1875 6.0625 38.53125 11.03125 
Q 42.875 16.015625 42.875 26.21875 
Q 42.875 35.84375 38.5 40.796875 
Q 34.125 45.75 27.640625 45.75 
Q 21.046875 45.75 16.703125 40.8125 
Q 12.359375 35.890625 12.359375 25.921875 
z
" id="ArialMT-111"/>
      <path d="M 6.640625 61.46875 
L 6.640625 71.578125 
L 15.4375 71.578125 
L 15.4375 61.46875 
z
M 6.640625 0 
L 6.640625 51.859375 
L 15.4375 51.859375 
L 15.4375 0 
z
" id="ArialMT-105"/>
      <path d="M 25.78125 7.859375 
L 27.046875 0.09375 
Q 23.34375 -0.6875 20.40625 -0.6875 
Q 15.625 -0.6875 12.984375 0.828125 
Q 10.359375 2.34375 9.28125 4.8125 
Q 8.203125 7.28125 8.203125 15.1875 
L 8.203125 45.015625 
L 1.765625 45.015625 
L 1.765625 51.859375 
L 8.203125 51.859375 
L 8.203125 64.703125 
L 16.9375 69.96875 
L 16.9375 51.859375 
L 25.78125 51.859375 
L 25.78125 45.015625 
L 16.9375 45.015625 
L 16.9375 14.703125 
Q 16.9375 10.9375 17.40625 9.859375 
Q 17.875 8.796875 18.921875 8.15625 
Q 19.96875 7.515625 21.921875 7.515625 
Q 23.390625 7.515625 25.78125 7.859375 
z
" id="ArialMT-116"/>
      <path d="M 40.4375 19 
L 49.078125 17.875 
Q 47.65625 8.9375 41.8125 3.875 
Q 35.984375 -1.171875 27.484375 -1.171875 
Q 16.84375 -1.171875 10.375 5.78125 
Q 3.90625 12.75 3.90625 25.734375 
Q 3.90625 34.125 6.6875 40.421875 
Q 9.46875 46.734375 15.15625 49.875 
Q 20.84375 53.03125 27.546875 53.03125 
Q 35.984375 53.03125 41.359375 48.75 
Q 46.734375 44.484375 48.25 36.625 
L 39.703125 35.296875 
Q 38.484375 40.53125 35.375 43.15625 
Q 32.28125 45.796875 27.875 45.796875 
Q 21.234375 45.796875 17.078125 41.03125 
Q 12.9375 36.28125 12.9375 25.984375 
Q 12.9375 15.53125 16.9375 10.796875 
Q 20.953125 6.0625 27.390625 6.0625 
Q 32.5625 6.0625 36.03125 9.234375 
Q 39.5 12.40625 40.4375 19 
z
" id="ArialMT-99"/>
      <path d="M 6.5 0 
L 6.5 51.859375 
L 14.40625 51.859375 
L 14.40625 44 
Q 17.4375 49.515625 20 51.265625 
Q 22.5625 53.03125 25.640625 53.03125 
Q 30.078125 53.03125 34.671875 50.203125 
L 31.640625 42.046875 
Q 28.421875 43.953125 25.203125 43.953125 
Q 22.3125 43.953125 20.015625 42.21875 
Q 17.71875 40.484375 16.75 37.40625 
Q 15.28125 32.71875 15.28125 27.15625 
L 15.28125 0 
z
" id="ArialMT-114"/>
     </defs>
     <g transform="translate(91.967687 260.340937)rotate(-90)scale(0.26 -0.26)">
      <use xlink:href="#ArialMT-67"/>
      <use x="72.216797" xlink:href="#ArialMT-104"/>
      <use x="127.832031" xlink:href="#ArialMT-97"/>
      <use x="183.447266" xlink:href="#ArialMT-110"/>
      <use x="239.0625" xlink:href="#ArialMT-103"/>
      <use x="294.677734" xlink:href="#ArialMT-101"/>
      <use x="350.292969" xlink:href="#ArialMT-45"/>
      <use x="383.59375" xlink:href="#ArialMT-112"/>
      <use x="439.208984" xlink:href="#ArialMT-111"/>
      <use x="494.824219" xlink:href="#ArialMT-105"/>
      <use x="517.041016" xlink:href="#ArialMT-110"/>
      <use x="572.65625" xlink:href="#ArialMT-116"/>
      <use x="600.439453" xlink:href="#ArialMT-32"/>
      <use x="628.222656" xlink:href="#ArialMT-115"/>
      <use x="678.222656" xlink:href="#ArialMT-99"/>
      <use x="728.222656" xlink:href="#ArialMT-111"/>
      <use x="783.837891" xlink:href="#ArialMT-114"/>
      <use x="817.138672" xlink:href="#ArialMT-101"/>
      <use x="872.753906" xlink:href="#ArialMT-32"/>
     </g>
     <!-- (KL div.) -->
     <defs>
      <path d="M 23.390625 -21.046875 
Q 16.109375 -11.859375 11.078125 0.4375 
Q 6.0625 12.75 6.0625 25.921875 
Q 6.0625 37.546875 9.8125 48.1875 
Q 14.203125 60.546875 23.390625 72.796875 
L 29.6875 72.796875 
Q 23.78125 62.640625 21.875 58.296875 
Q 18.890625 51.5625 17.1875 44.234375 
Q 15.09375 35.109375 15.09375 25.875 
Q 15.09375 2.390625 29.6875 -21.046875 
z
" id="ArialMT-40"/>
      <path d="M 7.328125 0 
L 7.328125 71.578125 
L 16.796875 71.578125 
L 16.796875 36.078125 
L 52.34375 71.578125 
L 65.1875 71.578125 
L 35.15625 42.578125 
L 66.5 0 
L 54 0 
L 28.515625 36.234375 
L 16.796875 24.8125 
L 16.796875 0 
z
" id="ArialMT-75"/>
      <path d="M 7.328125 0 
L 7.328125 71.578125 
L 16.796875 71.578125 
L 16.796875 8.453125 
L 52.046875 8.453125 
L 52.046875 0 
z
" id="ArialMT-76"/>
      <path d="M 40.234375 0 
L 40.234375 6.546875 
Q 35.296875 -1.171875 25.734375 -1.171875 
Q 19.53125 -1.171875 14.328125 2.25 
Q 9.125 5.671875 6.265625 11.796875 
Q 3.421875 17.921875 3.421875 25.875 
Q 3.421875 33.640625 6 39.96875 
Q 8.59375 46.296875 13.765625 49.65625 
Q 18.953125 53.03125 25.34375 53.03125 
Q 30.03125 53.03125 33.6875 51.046875 
Q 37.359375 49.078125 39.65625 45.90625 
L 39.65625 71.578125 
L 48.390625 71.578125 
L 48.390625 0 
z
M 12.453125 25.875 
Q 12.453125 15.921875 16.640625 10.984375 
Q 20.84375 6.0625 26.5625 6.0625 
Q 32.328125 6.0625 36.34375 10.765625 
Q 40.375 15.484375 40.375 25.140625 
Q 40.375 35.796875 36.265625 40.765625 
Q 32.171875 45.75 26.171875 45.75 
Q 20.3125 45.75 16.375 40.96875 
Q 12.453125 36.1875 12.453125 25.875 
z
" id="ArialMT-100"/>
      <path d="M 21 0 
L 1.265625 51.859375 
L 10.546875 51.859375 
L 21.6875 20.796875 
Q 23.484375 15.765625 25 10.359375 
Q 26.171875 14.453125 28.265625 20.21875 
L 39.796875 51.859375 
L 48.828125 51.859375 
L 29.203125 0 
z
" id="ArialMT-118"/>
      <path d="M 9.078125 0 
L 9.078125 10.015625 
L 19.09375 10.015625 
L 19.09375 0 
z
" id="ArialMT-46"/>
      <path d="M 12.359375 -21.046875 
L 6.0625 -21.046875 
Q 20.65625 2.390625 20.65625 25.875 
Q 20.65625 35.0625 18.5625 44.09375 
Q 16.890625 51.421875 13.921875 58.15625 
Q 12.015625 62.546875 6.0625 72.796875 
L 12.359375 72.796875 
Q 21.53125 60.546875 25.921875 48.1875 
Q 29.6875 37.546875 29.6875 25.921875 
Q 29.6875 12.75 24.625 0.4375 
Q 19.578125 -11.859375 12.359375 -21.046875 
z
" id="ArialMT-41"/>
     </defs>
     <g transform="translate(120.1525 190.232344)rotate(-90)scale(0.26 -0.26)">
      <use xlink:href="#ArialMT-40"/>
      <use x="33.300781" xlink:href="#ArialMT-75"/>
      <use x="100" xlink:href="#ArialMT-76"/>
      <use x="151.865234" xlink:href="#ArialMT-32"/>
      <use x="179.648438" xlink:href="#ArialMT-100"/>
      <use x="235.263672" xlink:href="#ArialMT-105"/>
      <use x="257.480469" xlink:href="#ArialMT-118"/>
      <use x="300.105469" xlink:href="#ArialMT-46"/>
      <use x="327.888672" xlink:href="#ArialMT-41"/>
     </g>
    </g>
   </g>
   <g id="line2d_15">
    <path clip-path="url(#pc12ff94f34)" d="M 217.636364 44.443636 
L 218.012916 191.087079 
L 218.389467 227.733987 
L 218.766019 236.761506 
L 218.954295 238.017907 
L 219.142571 238.454089 
L 219.330847 238.328307 
L 219.519123 237.909604 
L 219.895675 235.214938 
L 220.272227 229.474691 
L 220.648779 220.261404 
L 221.213607 208.040061 
L 221.401883 207.63507 
L 221.590159 207.737053 
L 221.966711 214.062445 
L 222.531538 226.367538 
L 222.719814 228.202022 
L 223.096366 232.779942 
L 223.472918 235.969558 
L 223.661194 236.963716 
L 223.84947 236.893627 
L 224.037746 236.60421 
L 224.226022 237.737108 
L 224.414298 237.594667 
L 224.602574 238.169694 
L 224.979126 236.632734 
L 225.167402 236.144796 
L 225.355678 236.198915 
L 225.543954 235.550651 
L 225.920506 233.655416 
L 226.108782 232.874644 
L 226.297058 229.973275 
L 226.67361 231.428817 
L 226.861885 228.382264 
L 227.050161 227.60387 
L 227.238437 227.847665 
L 227.426713 229.774077 
L 227.614989 230.309551 
L 227.803265 228.568221 
L 228.179817 231.82816 
L 228.368093 232.256979 
L 228.556369 230.374701 
L 228.932921 234.596724 
L 229.121197 232.356348 
L 229.309473 232.538471 
L 229.497749 235.434045 
L 229.874301 234.17298 
L 230.062577 235.42518 
L 230.250853 234.521673 
L 230.439129 235.344165 
L 230.627405 233.807229 
L 230.815681 236.331058 
L 231.003957 235.075702 
L 231.192232 235.098569 
L 231.380508 233.31687 
L 231.568784 236.146462 
L 231.75706 235.115013 
L 231.945336 236.727943 
L 232.133612 236.124967 
L 232.321888 235.070763 
L 232.510164 236.391381 
L 232.69844 234.994759 
L 232.886716 234.73194 
L 233.074992 235.40139 
L 233.263268 234.011629 
L 233.451544 235.872918 
L 233.63982 234.212583 
L 233.828096 234.297654 
L 234.016372 234.573305 
L 234.204648 235.076523 
L 234.392924 232.645702 
L 234.5812 235.226609 
L 234.957752 234.743165 
L 235.146028 235.02839 
L 235.334304 234.621903 
L 235.522579 235.644315 
L 235.710855 233.754387 
L 236.087407 236.238423 
L 236.275683 235.703521 
L 236.463959 234.633966 
L 236.652235 235.022245 
L 236.840511 234.281855 
L 237.217063 235.926215 
L 237.405339 236.377356 
L 237.593615 236.081417 
L 237.781891 237.53938 
L 237.970167 236.97127 
L 238.158443 237.459613 
L 238.723271 236.045315 
L 239.099823 237.876168 
L 239.476375 235.853974 
L 239.664651 237.137295 
L 239.852926 237.475102 
L 240.041202 236.993968 
L 240.417754 239.201021 
L 240.60603 237.969455 
L 240.794306 238.184518 
L 240.982582 237.202188 
L 241.170858 237.204068 
L 241.359134 237.919963 
L 241.735686 237.531122 
L 241.923962 237.08186 
L 242.112238 237.118361 
L 242.300514 236.564125 
L 242.677066 238.118074 
L 243.053618 237.44771 
L 243.241894 237.185024 
L 243.43017 236.71271 
L 243.618446 235.634179 
L 243.806722 238.882023 
L 243.994997 238.509424 
L 244.183273 236.741477 
L 244.371549 237.026127 
L 244.559825 239.048738 
L 244.748101 236.792222 
L 245.124653 238.36063 
L 245.312929 238.019677 
L 245.501205 237.407636 
L 245.689481 237.585744 
L 246.254309 238.691133 
L 246.442585 237.494654 
L 246.630861 238.025334 
L 246.819137 238.068632 
L 247.007413 238.970853 
L 247.195689 237.748439 
L 247.572241 238.339157 
L 247.948793 236.951366 
L 248.325344 238.701973 
L 248.51362 238.38623 
L 248.701896 236.237038 
L 248.890172 237.678354 
L 249.078448 237.390997 
L 249.266724 236.779801 
L 249.643276 237.800335 
L 250.208104 236.859333 
L 250.39638 238.046199 
L 250.584656 237.294854 
L 250.772932 237.594376 
L 250.961208 237.671049 
L 251.149484 236.879453 
L 251.714312 238.732183 
L 251.902588 236.671905 
L 252.090864 236.046685 
L 252.467416 237.835248 
L 252.655691 237.01974 
L 252.843967 237.966146 
L 253.032243 236.539261 
L 253.220519 238.615018 
L 253.597071 236.456314 
L 253.973623 238.204376 
L 254.161899 236.767797 
L 254.350175 238.453481 
L 254.538451 238.329517 
L 254.726727 238.827824 
L 254.915003 237.327561 
L 255.103279 238.491446 
L 255.479831 237.728577 
L 255.668107 239.244818 
L 256.044659 238.650694 
L 256.232935 238.865315 
L 256.421211 238.125073 
L 256.609487 239.977051 
L 256.797763 239.464093 
L 256.986038 239.303049 
L 257.174314 240.410151 
L 257.36259 240.030516 
L 257.550866 240.292994 
L 257.927418 240.336622 
L 258.115694 239.94772 
L 258.30397 240.646295 
L 258.492246 239.816643 
L 258.680522 239.726022 
L 258.868798 239.90728 
L 259.057074 240.638061 
L 259.24535 239.960906 
L 259.433626 240.865807 
L 259.621902 239.619842 
L 259.810178 240.448405 
L 259.998454 239.477241 
L 260.18673 240.353133 
L 260.375006 239.935229 
L 260.563282 240.392051 
L 260.751558 240.496725 
L 260.939834 240.180469 
L 261.12811 240.205031 
L 261.316385 239.664018 
L 261.504661 240.234405 
L 261.881213 240.450005 
L 262.069489 239.694778 
L 262.257765 239.806723 
L 262.446041 240.779449 
L 262.634317 239.723359 
L 262.822593 240.342888 
L 263.387421 239.380524 
L 263.952249 238.520928 
L 264.140525 239.007801 
L 264.328801 240.1692 
L 264.517077 239.116623 
L 264.705353 239.349686 
L 264.893629 239.06389 
L 265.270181 237.901013 
L 265.458457 237.815023 
L 265.646732 236.126643 
L 265.835008 237.742573 
L 266.023284 238.316545 
L 266.21156 237.12306 
L 266.399836 238.208088 
L 266.588112 237.405467 
L 266.776388 238.029102 
L 267.15294 236.148431 
L 267.341216 238.854683 
L 267.529492 236.519805 
L 267.906044 239.260132 
L 268.282596 238.318317 
L 268.470872 237.398013 
L 268.659148 239.22012 
L 268.847424 238.08561 
L 269.223976 239.383262 
L 269.412252 239.234671 
L 269.600528 239.871614 
L 269.788803 239.321397 
L 269.977079 239.487632 
L 270.165355 239.835626 
L 270.353631 239.474067 
L 270.541907 239.440924 
L 270.730183 240.047475 
L 270.918459 239.357804 
L 271.106735 239.638282 
L 271.295011 239.646937 
L 271.483287 238.729357 
L 271.671563 240.288677 
L 271.859839 239.936835 
L 272.048115 239.958065 
L 272.236391 238.76679 
L 272.424667 239.817264 
L 272.612943 239.948795 
L 272.801219 239.362299 
L 273.177771 240.114267 
L 273.366047 240.139265 
L 273.554323 240.327085 
L 273.742599 239.849506 
L 273.930875 240.50129 
L 274.11915 240.090765 
L 274.307426 240.655423 
L 274.495702 240.062929 
L 274.683978 240.194393 
L 274.872254 239.306093 
L 275.06053 241.005468 
L 275.248806 239.292662 
L 275.437082 240.541561 
L 275.625358 240.050254 
L 275.813634 239.153164 
L 276.190186 240.427921 
L 276.378462 240.475942 
L 276.566738 239.512793 
L 276.755014 239.681035 
L 276.94329 240.240896 
L 277.131566 240.048524 
L 277.319842 238.431325 
L 277.508118 238.154383 
L 277.696394 239.624774 
L 277.88467 237.539812 
L 278.261222 239.278791 
L 278.449497 238.172068 
L 278.637773 239.210312 
L 278.826049 238.037223 
L 279.202601 239.540905 
L 279.390877 237.580425 
L 279.579153 238.183875 
L 279.955705 240.721115 
L 280.143981 240.110678 
L 280.332257 238.364038 
L 280.520533 239.628699 
L 280.708809 240.093793 
L 280.897085 239.351187 
L 281.273637 240.20488 
L 281.461913 237.90413 
L 281.650189 239.84402 
L 281.838465 239.972408 
L 282.026741 239.6618 
L 282.215017 240.342195 
L 282.403293 238.722133 
L 282.591569 238.851994 
L 282.779844 238.539296 
L 282.96812 238.996959 
L 283.156396 239.111239 
L 283.344672 238.187556 
L 283.532948 238.166932 
L 283.721224 238.847628 
L 283.9095 239.041059 
L 284.286052 237.881978 
L 284.474328 238.363827 
L 284.85088 240.125945 
L 285.039156 238.74374 
L 285.227432 239.341758 
L 285.415708 238.659455 
L 285.603984 238.420591 
L 285.79226 238.718624 
L 285.980536 239.956381 
L 286.168812 239.325922 
L 286.357088 239.287343 
L 286.545364 239.37626 
L 286.921916 239.780641 
L 287.110191 239.269879 
L 287.298467 240.482229 
L 287.486743 239.455494 
L 287.675019 239.716063 
L 288.428123 239.229373 
L 288.616399 240.036992 
L 288.804675 239.219412 
L 288.992951 240.005164 
L 289.181227 236.762777 
L 289.369503 239.462721 
L 289.746055 237.138592 
L 289.934331 238.753203 
L 290.122607 237.927961 
L 290.310883 238.763135 
L 290.499159 237.308358 
L 290.687435 236.940341 
L 290.875711 239.147916 
L 291.063987 240.028695 
L 291.252262 238.653863 
L 291.440538 238.168014 
L 291.81709 239.66281 
L 292.005366 239.420316 
L 292.193642 239.490832 
L 292.381918 240.084695 
L 292.570194 239.148741 
L 292.75847 238.898449 
L 292.946746 239.447305 
L 293.135022 239.439752 
L 293.323298 239.29791 
L 293.511574 239.417665 
L 293.69985 239.0299 
L 293.888126 240.533464 
L 294.264678 238.699641 
L 294.452954 239.73585 
L 294.64123 239.850632 
L 294.829506 239.829521 
L 295.017782 240.653476 
L 295.206058 239.387689 
L 295.394334 240.074034 
L 295.582609 239.560713 
L 295.770885 240.175487 
L 295.959161 239.352423 
L 296.147437 240.5942 
L 296.335713 240.479998 
L 296.523989 239.323201 
L 296.712265 241.186864 
L 297.088817 239.68668 
L 297.277093 239.556394 
L 297.465369 239.751937 
L 297.653645 240.62254 
L 297.841921 240.752555 
L 298.218473 241.37617 
L 298.406749 240.353425 
L 298.595025 240.381494 
L 298.783301 241.379262 
L 299.348129 240.146535 
L 299.536405 240.266679 
L 299.724681 240.156981 
L 299.912956 240.397542 
L 300.101232 238.839378 
L 300.289508 240.391533 
L 300.477784 240.75279 
L 300.66606 240.096124 
L 300.854336 240.062299 
L 301.042612 239.561577 
L 301.419164 240.585517 
L 301.60744 240.281305 
L 301.795716 240.233396 
L 301.983992 240.41486 
L 302.172268 239.605858 
L 302.54882 240.635787 
L 302.737096 240.072699 
L 303.113648 241.008338 
L 303.301924 240.424533 
L 303.4902 240.505317 
L 303.678476 239.626046 
L 303.866752 239.781861 
L 304.055028 239.78301 
L 304.243303 240.350024 
L 304.431579 239.706428 
L 304.808131 240.737392 
L 305.184683 240.46645 
L 305.372959 240.615586 
L 305.561235 241.044773 
L 305.749511 241.013942 
L 305.937787 240.333887 
L 306.126063 240.26429 
L 306.314339 241.065892 
L 306.502615 240.249339 
L 306.690891 240.120809 
L 306.879167 240.930928 
L 307.067443 240.640826 
L 307.255719 240.853836 
L 307.443995 241.267129 
L 307.632271 241.335514 
L 307.820547 240.344024 
L 308.008823 240.712994 
L 308.197099 240.317021 
L 308.385375 240.479514 
L 308.761926 241.582372 
L 308.950202 240.768537 
L 309.138478 240.801817 
L 309.326754 240.448897 
L 309.51503 241.190363 
L 309.703306 240.914238 
L 309.891582 240.969074 
L 310.079858 241.518565 
L 310.268134 241.264403 
L 310.45641 241.32252 
L 310.832962 240.79825 
L 311.021238 241.070259 
L 311.209514 240.847262 
L 311.39779 241.547296 
L 311.586066 241.078453 
L 311.774342 241.665737 
L 311.962618 241.385325 
L 312.150894 241.476461 
L 312.33917 241.762309 
L 312.715721 241.493774 
L 312.903997 241.180152 
L 313.092273 241.707859 
L 313.280549 241.441735 
L 313.657101 241.612109 
L 313.845377 241.154829 
L 314.598481 241.272533 
L 314.786757 241.193848 
L 314.975033 241.306259 
L 315.163309 241.277924 
L 315.351585 241.386035 
L 315.539861 241.303544 
L 315.728137 241.435914 
L 315.916413 241.394942 
L 316.104689 240.946916 
L 316.669517 241.457716 
L 316.857793 240.756668 
L 317.046068 240.829954 
L 317.234344 240.691105 
L 317.42262 241.223647 
L 317.799172 240.498366 
L 317.987448 240.364658 
L 318.175724 240.978071 
L 318.364 240.816328 
L 318.552276 240.897142 
L 318.740552 240.040219 
L 318.928828 240.878998 
L 319.30538 240.069268 
L 319.493656 241.207208 
L 319.681932 240.770355 
L 319.870208 241.137354 
L 320.058484 240.655925 
L 320.623312 240.970377 
L 320.811588 240.533393 
L 320.999864 241.039186 
L 321.376415 240.864638 
L 321.941243 241.154563 
L 322.129519 241.126009 
L 322.506071 240.86678 
L 322.694347 240.761933 
L 322.882623 240.918253 
L 323.070899 240.64938 
L 323.259175 241.382599 
L 323.447451 241.523957 
L 323.824003 241.070262 
L 324.012279 241.173658 
L 324.200555 241.518392 
L 324.577107 240.973945 
L 324.765383 241.755299 
L 325.141935 241.309915 
L 325.330211 241.625879 
L 325.518487 241.410982 
L 325.706762 241.654756 
L 325.895038 241.065893 
L 326.083314 241.178864 
L 326.27159 241.562128 
L 326.836418 240.815712 
L 327.024694 240.68364 
L 327.21297 241.280129 
L 327.401246 241.448145 
L 327.589522 241.049141 
L 327.777798 240.99369 
L 328.15435 241.337986 
L 328.342626 241.377201 
L 328.530902 241.247182 
L 328.719178 241.649006 
L 328.907454 241.646661 
L 329.09573 241.839543 
L 329.284006 241.647891 
L 329.472282 241.748178 
L 329.660558 241.659004 
L 329.848834 241.761363 
L 330.037109 241.449693 
L 330.601937 241.318719 
L 330.790213 241.255328 
L 330.978489 241.558374 
L 331.355041 241.40739 
L 331.543317 241.055683 
L 331.731593 241.247726 
L 331.919869 241.074737 
L 332.108145 241.591882 
L 332.296421 241.216431 
L 332.672973 241.648961 
L 332.861249 241.272926 
L 333.049525 241.676592 
L 333.237801 241.215208 
L 333.426077 241.716693 
L 333.614353 241.463611 
L 333.802629 241.687636 
L 333.990905 241.447583 
L 334.367456 241.663114 
L 334.555732 241.789918 
L 334.932284 241.699722 
L 335.12056 241.661778 
L 335.497112 241.748696 
L 335.685388 241.675596 
L 335.873664 240.48251 
L 336.06194 241.540747 
L 336.250216 241.719451 
L 336.815044 241.383984 
L 337.00332 241.596223 
L 337.191596 241.080136 
L 337.379872 241.301687 
L 337.568148 241.881578 
L 337.756424 241.438699 
L 337.9447 241.827206 
L 338.321252 241.346488 
L 338.509527 241.673143 
L 338.697803 241.646767 
L 338.886079 241.485008 
L 339.074355 240.738425 
L 339.262631 241.636442 
L 339.827459 241.226951 
L 340.015735 241.421937 
L 340.204011 241.273349 
L 340.392287 241.480277 
L 340.768839 241.389614 
L 340.957115 241.378859 
L 341.145391 241.632318 
L 341.521943 241.659664 
L 342.086771 241.655437 
L 342.275047 241.76471 
L 342.651599 241.413963 
L 342.839874 241.339964 
L 343.02815 241.907402 
L 343.216426 241.721324 
L 343.404702 241.821325 
L 343.592978 241.632907 
L 343.96953 241.849327 
L 344.346082 241.886288 
L 344.534358 241.610517 
L 344.722634 241.631441 
L 344.91091 241.835607 
L 345.099186 241.63174 
L 345.287462 241.859329 
L 345.475738 241.682353 
L 345.664014 241.870399 
L 345.85229 241.670644 
L 346.040566 241.830795 
L 346.228842 241.547222 
L 346.417118 241.481665 
L 346.605394 241.788903 
L 346.981946 241.666308 
L 347.170221 241.665112 
L 347.358497 241.542474 
L 347.546773 241.787416 
L 347.735049 241.770154 
L 347.923325 241.576581 
L 348.488153 241.86119 
L 348.864705 241.648167 
L 349.241257 241.714295 
L 349.429533 241.834699 
L 349.617809 241.666021 
L 349.994361 241.88265 
L 350.182637 241.741438 
L 350.370913 241.782873 
L 350.559189 241.541477 
L 350.747465 241.949953 
L 350.935741 241.776463 
L 351.124017 241.838735 
L 351.312293 241.744433 
L 351.500568 241.929253 
L 351.688844 241.88522 
L 351.87712 241.972741 
L 352.065396 241.702485 
L 352.441948 241.878603 
L 352.630224 241.752995 
L 352.8185 241.981985 
L 353.006776 241.785031 
L 353.195052 241.917885 
L 353.383328 241.707688 
L 353.571604 241.695126 
L 353.948156 242.016692 
L 354.136432 241.730372 
L 354.512984 241.922044 
L 354.70126 241.72472 
L 355.266088 241.917369 
L 355.454364 241.845439 
L 355.64264 241.956488 
L 355.830915 241.613957 
L 356.019191 241.860079 
L 357.148847 241.879856 
L 357.337123 241.76046 
L 357.525399 241.956096 
L 358.466779 241.702608 
L 358.655055 241.995305 
L 359.031607 241.710618 
L 359.219883 241.965709 
L 359.972986 241.792219 
L 360.161262 241.946647 
L 360.349538 241.917004 
L 360.537814 241.72585 
L 360.72609 241.853693 
L 360.914366 241.832885 
L 361.102642 241.937627 
L 362.044022 241.569424 
L 362.797126 241.887526 
L 362.985402 241.834281 
L 363.173678 242.017743 
L 363.361954 241.977924 
L 363.55023 241.574225 
L 363.926782 241.96737 
L 364.115058 241.528197 
L 364.491609 241.594412 
L 364.679885 241.957651 
L 364.868161 241.64161 
L 365.244713 241.85044 
L 365.432989 241.64111 
L 365.809541 241.724253 
L 365.997817 241.696993 
L 366.186093 241.904813 
L 366.374369 241.837083 
L 366.750921 241.884988 
L 366.939197 241.891233 
L 367.127473 241.708083 
L 367.504025 241.872012 
L 367.692301 241.972938 
L 368.257129 241.767035 
L 368.445405 241.575598 
L 368.63368 241.63986 
L 368.821956 241.974799 
L 369.198508 241.664993 
L 369.57506 241.767196 
L 370.51644 241.857742 
L 371.269544 241.957645 
L 371.45782 241.862807 
L 371.834372 241.955781 
L 372.022648 241.684345 
L 372.3992 242.004628 
L 372.775752 241.763962 
L 372.964027 241.801678 
L 373.340579 241.984127 
L 373.528855 241.997275 
L 373.717131 241.871639 
L 373.905407 242.005808 
L 374.093683 241.957028 
L 374.281959 241.742441 
L 374.470235 241.91259 
L 374.658511 241.859835 
L 375.035063 241.971725 
L 375.223339 241.768433 
L 375.411615 241.764707 
L 375.599891 241.978968 
L 375.788167 241.693344 
L 376.164719 241.976497 
L 376.352995 242.066862 
L 376.541271 241.851388 
L 376.729547 241.936952 
L 376.917823 241.893097 
L 377.294374 242.016509 
L 380.30679 241.780549 
L 380.495066 241.979403 
L 380.683342 242.000614 
L 381.059894 241.85918 
L 381.24817 241.785058 
L 381.436445 241.976745 
L 381.624721 241.799755 
L 381.812997 241.930688 
L 382.001273 241.750015 
L 382.189549 241.920906 
L 382.377825 241.856264 
L 382.566101 241.928047 
L 382.942653 241.659248 
L 383.130929 241.850613 
L 383.319205 241.676527 
L 383.507481 241.832135 
L 383.884033 241.785215 
L 384.072309 241.861112 
L 384.637137 241.802226 
L 384.825413 241.814827 
L 385.013689 241.940953 
L 385.390241 241.847203 
L 385.578517 241.941966 
L 385.766792 241.838847 
L 386.143344 241.995863 
L 386.33162 241.916006 
L 386.519896 241.957493 
L 386.708172 241.728017 
L 386.896448 241.906784 
L 387.273 241.808316 
L 387.461276 242.036502 
L 387.649552 241.909765 
L 388.026104 241.97203 
L 388.590932 241.883648 
L 388.779208 242.001223 
L 388.967484 241.938364 
L 389.15576 242.03132 
L 389.344036 241.920624 
L 389.720588 241.978412 
L 389.908864 241.806511 
L 390.285415 241.998033 
L 390.661967 241.997743 
L 391.038519 241.980909 
L 391.415071 241.916114 
L 391.603347 241.964716 
L 391.791623 241.860395 
L 391.979899 242.006613 
L 392.168175 241.902319 
L 392.356451 242.014299 
L 392.921279 241.982281 
L 393.109555 241.612174 
L 393.297831 241.989386 
L 393.674383 241.826754 
L 393.862659 241.990314 
L 394.239211 241.796554 
L 394.427486 241.941805 
L 395.368866 241.856019 
L 395.557142 242.047561 
L 395.933694 241.867687 
L 396.310246 242.028723 
L 396.686798 241.742786 
L 397.06335 242.035818 
L 397.251626 241.889398 
L 397.628178 242.016356 
L 397.816454 241.692755 
L 398.00473 241.930518 
L 398.946109 241.972101 
L 399.134385 241.879122 
L 399.322661 242.034056 
L 399.510937 241.937283 
L 399.887489 242.028983 
L 400.075765 241.969767 
L 400.264041 241.771173 
L 400.452317 242.041339 
L 401.205421 241.794799 
L 401.393697 241.998956 
L 401.581973 241.898618 
L 401.770249 241.94333 
L 401.958525 241.763567 
L 402.335077 241.991955 
L 402.523353 241.719236 
L 402.711629 242.00598 
L 402.899904 241.762276 
L 403.08818 241.938016 
L 403.653008 241.777943 
L 403.841284 241.89767 
L 404.02956 241.828157 
L 404.217836 241.955345 
L 404.406112 241.643946 
L 404.594388 241.803267 
L 404.782664 241.746708 
L 404.97094 241.918381 
L 405.347492 241.869205 
L 405.724044 241.899932 
L 405.91232 241.829621 
L 406.665424 242.005461 
L 407.041976 241.81642 
L 407.606803 242.018049 
L 408.171631 241.929133 
L 408.548183 242.000186 
L 409.677839 241.973558 
L 409.866115 242.034015 
L 410.054391 241.856641 
L 410.242667 241.996649 
L 410.807495 241.913096 
L 411.560598 242.000191 
L 412.87853 242.070355 
L 413.066806 241.970224 
L 413.81991 242.03345 
L 415.326118 242.059286 
L 415.514394 241.984407 
L 415.70267 242.0317 
L 415.890945 241.959843 
L 416.079221 242.049558 
L 416.455773 241.962764 
L 417.020601 241.992232 
L 417.208877 242.070668 
L 417.397153 241.952236 
L 417.961981 242.039991 
L 419.279913 241.982259 
L 419.656465 242.05215 
L 419.844741 241.915599 
L 420.78612 242.028057 
L 420.974396 241.934912 
L 421.915776 241.996094 
L 423.233708 242.018731 
L 424.739915 242.058264 
L 425.116467 242.045966 
L 425.493019 242.016396 
L 425.681295 241.97745 
L 425.869571 242.076599 
L 426.246123 242.003472 
L 426.810951 241.978432 
L 427.187503 242.062645 
L 427.940607 241.979931 
L 428.881986 241.991697 
L 431.141298 241.899288 
L 431.329574 242.066524 
L 431.51785 241.978131 
L 431.894402 242.067436 
L 433.024057 241.978105 
L 433.400609 242.063706 
L 433.965437 242.045702 
L 434.341989 242.026017 
L 435.471645 242.078469 
L 435.659921 242.007585 
L 436.036473 242.054759 
L 436.224749 241.945051 
L 436.413025 242.014439 
L 436.789577 241.953706 
L 436.977853 242.061312 
L 437.166129 241.938097 
L 437.54268 242.085132 
L 437.919232 242.035946 
L 438.860612 242.043988 
L 439.048888 241.951481 
L 439.237164 242.061318 
L 440.36682 241.99279 
L 440.931648 242.076073 
L 441.684751 242.052951 
L 442.061303 242.008902 
L 442.814407 242.059362 
L 445.261995 242.053323 
L 446.203374 242.047155 
L 448.462686 242.068696 
L 449.027514 242.032791 
L 451.098549 242.075268 
L 451.851653 242.030172 
L 452.416481 242.097273 
L 453.169585 242.004712 
L 453.546137 242.005644 
L 455.428896 242.07814 
L 455.617172 241.94847 
L 456.182 242.08456 
L 456.370276 241.973311 
L 456.746828 242.06986 
L 467.855109 242.049089 
L 468.419937 242.057794 
L 470.679249 242.046398 
L 471.244077 242.070777 
L 472.562008 242.046846 
L 472.750284 241.989934 
L 472.93856 242.090083 
L 473.503388 242.05993 
L 473.87994 242.035446 
L 475.386148 242.062043 
L 475.7627 242.081004 
L 477.080631 242.069074 
L 478.398563 241.992467 
L 478.775115 242.069574 
L 479.528219 242.065436 
L 481.599254 242.073997 
L 483.293738 242.053456 
L 484.799945 242.076793 
L 484.988221 241.999533 
L 485.553049 242.088372 
L 489.69512 242.061654 
L 490.448224 242.060457 
L 491.389604 242.078643 
L 491.57788 242.016875 
L 491.954432 242.073463 
L 492.330984 242.077646 
L 493.648915 242.085985 
L 497.414434 242.054378 
L 497.979262 242.090517 
L 517.18341 242.032581 
L 517.559962 242.070915 
L 525.279276 242.074343 
L 526.785484 242.03588 
L 527.538587 242.102102 
L 528.103415 242.087873 
L 572.348265 242.089192 
L 573.289645 242.092278 
L 575.925508 242.09659 
L 577.055164 242.084482 
L 594.564828 242.102732 
L 595.88276 242.088344 
L 601.90759 242.093656 
L 604.920005 242.092778 
L 607.932421 242.104059 
L 608.685525 242.105982 
L 611.886216 242.086834 
L 617.157943 242.077288 
L 656.319341 242.092169 
L 661.779344 242.105568 
L 692.468325 242.100546 
L 693.597981 242.103644 
L 694.539361 242.106475 
L 698.30488 242.104182 
L 719.768339 242.105864 
L 720.333167 242.097601 
L 724.098686 242.099652 
L 725.604893 242.102312 
L 727.299377 242.098854 
L 734.265587 242.09581 
L 735.583519 242.102905 
L 737.842831 242.104632 
L 738.972486 242.090586 
L 740.102142 242.11295 
L 742.926281 242.093991 
L 744.620765 242.109521 
L 750.45732 242.10405 
L 754.599391 242.111419 
L 755.917322 242.111635 
L 799.220792 242.106521 
L 803.362863 242.106741 
L 807.504934 242.11054 
L 808.63459 242.098663 
L 828.780117 242.112269 
L 829.909773 242.10141 
L 839.511847 242.10875 
L 843.08909 242.107005 
L 864.929101 242.111532 
L 866.81186 242.116364 
L 872.083587 242.112958 
L 905.220156 242.108148 
L 908.609123 242.105406 
L 911.433262 242.108648 
L 914.445677 242.110923 
L 915.198781 242.107027 
L 925.365683 242.101814 
L 928.001546 242.109799 
L 929.507754 242.107987 
L 938.356724 242.101732 
L 942.310519 242.107281 
L 947.205694 242.099219 
L 948.711901 242.106167 
L 953.983628 242.108763 
L 955.30156 242.1054 
L 960.573287 242.095117 
L 963.020874 242.111616 
L 966.409841 242.10278 
L 970.363636 242.101919 
L 970.363636 242.101919 
" style="fill:none;stroke:#1f77b4;stroke-linecap:square;stroke-width:1.5;"/>
   </g>
   <g id="patch_3">
    <path d="M 180 252 
L 180 34.56 
" style="fill:none;stroke:#000000;stroke-linecap:square;stroke-linejoin:miter;stroke-width:0.8;"/>
   </g>
   <g id="patch_4">
    <path d="M 1008 252 
L 1008 34.56 
" style="fill:none;stroke:#000000;stroke-linecap:square;stroke-linejoin:miter;stroke-width:0.8;"/>
   </g>
   <g id="patch_5">
    <path d="M 180 252 
L 1008 252 
" style="fill:none;stroke:#000000;stroke-linecap:square;stroke-linejoin:miter;stroke-width:0.8;"/>
   </g>
   <g id="patch_6">
    <path d="M 180 34.56 
L 1008 34.56 
" style="fill:none;stroke:#000000;stroke-linecap:square;stroke-linejoin:miter;stroke-width:0.8;"/>
   </g>
   <g id="legend_1">
    <g id="PathCollection_2">
     <g>
      <use style="fill:#ff0000;stroke:#ff0000;" x="1085.8" xlink:href="#md798f8c6e7" y="56.745312"/>
     </g>
    </g>
    <g id="text_10">
     <!-- &gt; mean + 3SD -->
     <defs>
      <path d="M 52.875 31.296875 
L 5.46875 11.03125 
L 5.46875 19.78125 
L 43.015625 35.359375 
L 5.46875 50.78125 
L 5.46875 59.515625 
L 52.875 39.5 
z
" id="ArialMT-62"/>
      <path d="M 25.046875 11.578125 
L 25.046875 31.203125 
L 5.5625 31.203125 
L 5.5625 39.40625 
L 25.046875 39.40625 
L 25.046875 58.890625 
L 33.34375 58.890625 
L 33.34375 39.40625 
L 52.828125 39.40625 
L 52.828125 31.203125 
L 33.34375 31.203125 
L 33.34375 11.578125 
z
" id="ArialMT-43"/>
      <path d="M 4.203125 18.890625 
L 12.984375 20.0625 
Q 14.5 12.59375 18.140625 9.296875 
Q 21.78125 6 27 6 
Q 33.203125 6 37.46875 10.296875 
Q 41.75 14.59375 41.75 20.953125 
Q 41.75 27 37.796875 30.921875 
Q 33.84375 34.859375 27.734375 34.859375 
Q 25.25 34.859375 21.53125 33.890625 
L 22.515625 41.609375 
Q 23.390625 41.5 23.921875 41.5 
Q 29.546875 41.5 34.03125 44.421875 
Q 38.53125 47.359375 38.53125 53.46875 
Q 38.53125 58.296875 35.25 61.46875 
Q 31.984375 64.65625 26.8125 64.65625 
Q 21.6875 64.65625 18.265625 61.421875 
Q 14.84375 58.203125 13.875 51.765625 
L 5.078125 53.328125 
Q 6.6875 62.15625 12.390625 67.015625 
Q 18.109375 71.875 26.609375 71.875 
Q 32.46875 71.875 37.390625 69.359375 
Q 42.328125 66.84375 44.9375 62.5 
Q 47.5625 58.15625 47.5625 53.265625 
Q 47.5625 48.640625 45.0625 44.828125 
Q 42.578125 41.015625 37.703125 38.765625 
Q 44.046875 37.3125 47.5625 32.6875 
Q 51.078125 28.078125 51.078125 21.140625 
Q 51.078125 11.765625 44.234375 5.25 
Q 37.40625 -1.265625 26.953125 -1.265625 
Q 17.53125 -1.265625 11.296875 4.34375 
Q 5.078125 9.96875 4.203125 18.890625 
z
" id="ArialMT-51"/>
      <path d="M 4.5 23 
L 13.421875 23.78125 
Q 14.0625 18.40625 16.375 14.96875 
Q 18.703125 11.53125 23.578125 9.40625 
Q 28.46875 7.28125 34.578125 7.28125 
Q 39.984375 7.28125 44.140625 8.890625 
Q 48.296875 10.5 50.3125 13.296875 
Q 52.34375 16.109375 52.34375 19.4375 
Q 52.34375 22.796875 50.390625 25.3125 
Q 48.4375 27.828125 43.953125 29.546875 
Q 41.0625 30.671875 31.203125 33.03125 
Q 21.34375 35.40625 17.390625 37.5 
Q 12.25 40.1875 9.734375 44.15625 
Q 7.234375 48.140625 7.234375 53.078125 
Q 7.234375 58.5 10.296875 63.203125 
Q 13.375 67.921875 19.28125 70.359375 
Q 25.203125 72.796875 32.421875 72.796875 
Q 40.375 72.796875 46.453125 70.234375 
Q 52.546875 67.671875 55.8125 62.6875 
Q 59.078125 57.71875 59.328125 51.421875 
L 50.25 50.734375 
Q 49.515625 57.515625 45.28125 60.984375 
Q 41.0625 64.453125 32.8125 64.453125 
Q 24.21875 64.453125 20.28125 61.296875 
Q 16.359375 58.15625 16.359375 53.71875 
Q 16.359375 49.859375 19.140625 47.359375 
Q 21.875 44.875 33.421875 42.265625 
Q 44.96875 39.65625 49.265625 37.703125 
Q 55.515625 34.8125 58.484375 30.390625 
Q 61.46875 25.984375 61.46875 20.21875 
Q 61.46875 14.5 58.203125 9.4375 
Q 54.9375 4.390625 48.796875 1.578125 
Q 42.671875 -1.21875 35.015625 -1.21875 
Q 25.296875 -1.21875 18.71875 1.609375 
Q 12.15625 4.4375 8.421875 10.125 
Q 4.6875 15.828125 4.5 23 
z
" id="ArialMT-83"/>
      <path d="M 7.71875 0 
L 7.71875 71.578125 
L 32.375 71.578125 
Q 40.71875 71.578125 45.125 70.5625 
Q 51.265625 69.140625 55.609375 65.4375 
Q 61.28125 60.640625 64.078125 53.1875 
Q 66.890625 45.75 66.890625 36.1875 
Q 66.890625 28.03125 64.984375 21.734375 
Q 63.09375 15.4375 60.109375 11.296875 
Q 57.125 7.171875 53.578125 4.796875 
Q 50.046875 2.4375 45.046875 1.21875 
Q 40.046875 0 33.546875 0 
z
M 17.1875 8.453125 
L 32.46875 8.453125 
Q 39.546875 8.453125 43.578125 9.765625 
Q 47.609375 11.078125 50 13.484375 
Q 53.375 16.84375 55.25 22.53125 
Q 57.125 28.21875 57.125 36.328125 
Q 57.125 47.5625 53.4375 53.59375 
Q 49.75 59.625 44.484375 61.671875 
Q 40.671875 63.140625 32.234375 63.140625 
L 17.1875 63.140625 
z
" id="ArialMT-68"/>
     </defs>
     <g transform="translate(1132.6 63.570312)scale(0.26 -0.26)">
      <use xlink:href="#ArialMT-62"/>
      <use x="58.398438" xlink:href="#ArialMT-32"/>
      <use x="86.181641" xlink:href="#ArialMT-109"/>
      <use x="169.482422" xlink:href="#ArialMT-101"/>
      <use x="225.097656" xlink:href="#ArialMT-97"/>
      <use x="280.712891" xlink:href="#ArialMT-110"/>
      <use x="336.328125" xlink:href="#ArialMT-32"/>
      <use x="364.111328" xlink:href="#ArialMT-43"/>
      <use x="422.509766" xlink:href="#ArialMT-32"/>
      <use x="450.292969" xlink:href="#ArialMT-51"/>
      <use x="505.908203" xlink:href="#ArialMT-83"/>
      <use x="572.607422" xlink:href="#ArialMT-68"/>
     </g>
    </g>
   </g>
  </g>
 </g>
 <defs>
  <clipPath id="pc12ff94f34">
   <rect height="217.44" width="828" x="180" y="34.56"/>
  </clipPath>
 </defs>
</svg>
