<?xml version="1.0" encoding="utf-8" standalone="no"?>
<!DOCTYPE svg PUBLIC "-//W3C//DTD SVG 1.1//EN"
  "http://www.w3.org/Graphics/SVG/1.1/DTD/svg11.dtd">
<!-- Created with matplotlib (https://matplotlib.org/) -->
<svg height="288pt" version="1.1" viewBox="0 0 1440 288" width="1440pt" xmlns="http://www.w3.org/2000/svg" xmlns:xlink="http://www.w3.org/1999/xlink">
 <defs>
  <style type="text/css">
*{stroke-linecap:butt;stroke-linejoin:round;}
  </style>
 </defs>
 <g id="figure_1">
  <g id="patch_1">
   <path d="M 0 288 
L 1440 288 
L 1440 0 
L 0 0 
z
" style="fill:#ffffff;"/>
  </g>
  <g id="axes_1">
   <g id="patch_2">
    <path d="M 180 252 
L 1008 252 
L 1008 34.56 
L 180 34.56 
z
" style="fill:#ffffff;"/>
   </g>
   <g id="matplotlib.axis_1">
    <g id="xtick_1">
     <g id="line2d_1">
      <path clip-path="url(#p63c86a7058)" d="M 217.636364 252 
L 217.636364 34.56 
" style="fill:none;stroke:#b0b0b0;stroke-linecap:square;stroke-width:0.8;"/>
     </g>
     <g id="line2d_2">
      <defs>
       <path d="M 0 0 
L 0 3.5 
" id="m6a7f52f653" style="stroke:#000000;stroke-width:0.8;"/>
      </defs>
      <g>
       <use style="stroke:#000000;stroke-width:0.8;" x="217.636364" xlink:href="#m6a7f52f653" y="252"/>
      </g>
     </g>
     <g id="text_1">
      <!-- 0 -->
      <defs>
       <path d="M 4.15625 35.296875 
Q 4.15625 48 6.765625 55.734375 
Q 9.375 63.484375 14.515625 67.671875 
Q 19.671875 71.875 27.484375 71.875 
Q 33.25 71.875 37.59375 69.546875 
Q 41.9375 67.234375 44.765625 62.859375 
Q 47.609375 58.5 49.21875 52.21875 
Q 50.828125 45.953125 50.828125 35.296875 
Q 50.828125 22.703125 48.234375 14.96875 
Q 45.65625 7.234375 40.5 3 
Q 35.359375 -1.21875 27.484375 -1.21875 
Q 17.140625 -1.21875 11.234375 6.203125 
Q 4.15625 15.140625 4.15625 35.296875 
z
M 13.1875 35.296875 
Q 13.1875 17.671875 17.3125 11.828125 
Q 21.4375 6 27.484375 6 
Q 33.546875 6 37.671875 11.859375 
Q 41.796875 17.71875 41.796875 35.296875 
Q 41.796875 52.984375 37.671875 58.78125 
Q 33.546875 64.59375 27.390625 64.59375 
Q 21.34375 64.59375 17.71875 59.46875 
Q 13.1875 52.9375 13.1875 35.296875 
z
" id="ArialMT-48"/>
      </defs>
      <g transform="translate(210.407145 277.610313)scale(0.26 -0.26)">
       <use xlink:href="#ArialMT-48"/>
      </g>
     </g>
    </g>
    <g id="xtick_2">
     <g id="line2d_3">
      <path clip-path="url(#p63c86a7058)" d="M 594.188276 252 
L 594.188276 34.56 
" style="fill:none;stroke:#b0b0b0;stroke-linecap:square;stroke-width:0.8;"/>
     </g>
     <g id="line2d_4">
      <g>
       <use style="stroke:#000000;stroke-width:0.8;" x="594.188276" xlink:href="#m6a7f52f653" y="252"/>
      </g>
     </g>
     <g id="text_2">
      <!-- 2000 -->
      <defs>
       <path d="M 50.34375 8.453125 
L 50.34375 0 
L 3.03125 0 
Q 2.9375 3.171875 4.046875 6.109375 
Q 5.859375 10.9375 9.828125 15.625 
Q 13.8125 20.3125 21.34375 26.46875 
Q 33.015625 36.03125 37.109375 41.625 
Q 41.21875 47.21875 41.21875 52.203125 
Q 41.21875 57.421875 37.46875 61 
Q 33.734375 64.59375 27.734375 64.59375 
Q 21.390625 64.59375 17.578125 60.78125 
Q 13.765625 56.984375 13.71875 50.25 
L 4.6875 51.171875 
Q 5.609375 61.28125 11.65625 66.578125 
Q 17.71875 71.875 27.9375 71.875 
Q 38.234375 71.875 44.234375 66.15625 
Q 50.25 60.453125 50.25 52 
Q 50.25 47.703125 48.484375 43.546875 
Q 46.734375 39.40625 42.65625 34.8125 
Q 38.578125 30.21875 29.109375 22.21875 
Q 21.1875 15.578125 18.9375 13.203125 
Q 16.703125 10.84375 15.234375 8.453125 
z
" id="ArialMT-50"/>
      </defs>
      <g transform="translate(565.271401 277.610313)scale(0.26 -0.26)">
       <use xlink:href="#ArialMT-50"/>
       <use x="55.615234" xlink:href="#ArialMT-48"/>
       <use x="111.230469" xlink:href="#ArialMT-48"/>
       <use x="166.845703" xlink:href="#ArialMT-48"/>
      </g>
     </g>
    </g>
    <g id="xtick_3">
     <g id="line2d_5">
      <path clip-path="url(#p63c86a7058)" d="M 970.740188 252 
L 970.740188 34.56 
" style="fill:none;stroke:#b0b0b0;stroke-linecap:square;stroke-width:0.8;"/>
     </g>
     <g id="line2d_6">
      <g>
       <use style="stroke:#000000;stroke-width:0.8;" x="970.740188" xlink:href="#m6a7f52f653" y="252"/>
      </g>
     </g>
     <g id="text_3">
      <!-- 4000 -->
      <defs>
       <path d="M 32.328125 0 
L 32.328125 17.140625 
L 1.265625 17.140625 
L 1.265625 25.203125 
L 33.9375 71.578125 
L 41.109375 71.578125 
L 41.109375 25.203125 
L 50.78125 25.203125 
L 50.78125 17.140625 
L 41.109375 17.140625 
L 41.109375 0 
z
M 32.328125 25.203125 
L 32.328125 57.46875 
L 9.90625 25.203125 
z
" id="ArialMT-52"/>
      </defs>
      <g transform="translate(941.823313 277.610313)scale(0.26 -0.26)">
       <use xlink:href="#ArialMT-52"/>
       <use x="55.615234" xlink:href="#ArialMT-48"/>
       <use x="111.230469" xlink:href="#ArialMT-48"/>
       <use x="166.845703" xlink:href="#ArialMT-48"/>
      </g>
     </g>
    </g>
    <g id="text_4">
     <!-- # sample -->
     <defs>
      <path d="M 5.03125 -1.21875 
L 9.28125 19.578125 
L 1.03125 19.578125 
L 1.03125 26.859375 
L 10.75 26.859375 
L 14.359375 44.578125 
L 1.03125 44.578125 
L 1.03125 51.859375 
L 15.828125 51.859375 
L 20.0625 72.796875 
L 27.390625 72.796875 
L 23.140625 51.859375 
L 38.53125 51.859375 
L 42.78125 72.796875 
L 50.140625 72.796875 
L 45.90625 51.859375 
L 54.34375 51.859375 
L 54.34375 44.578125 
L 44.4375 44.578125 
L 40.765625 26.859375 
L 54.34375 26.859375 
L 54.34375 19.578125 
L 39.3125 19.578125 
L 35.0625 -1.21875 
L 27.734375 -1.21875 
L 31.9375 19.578125 
L 16.609375 19.578125 
L 12.359375 -1.21875 
z
M 18.0625 26.859375 
L 33.40625 26.859375 
L 37.0625 44.578125 
L 21.6875 44.578125 
z
" id="ArialMT-35"/>
      <path id="ArialMT-32"/>
      <path d="M 3.078125 15.484375 
L 11.765625 16.84375 
Q 12.5 11.625 15.84375 8.84375 
Q 19.1875 6.0625 25.203125 6.0625 
Q 31.25 6.0625 34.171875 8.515625 
Q 37.109375 10.984375 37.109375 14.3125 
Q 37.109375 17.28125 34.515625 19 
Q 32.71875 20.171875 25.53125 21.96875 
Q 15.875 24.421875 12.140625 26.203125 
Q 8.40625 27.984375 6.46875 31.125 
Q 4.546875 34.28125 4.546875 38.09375 
Q 4.546875 41.546875 6.125 44.5 
Q 7.71875 47.46875 10.453125 49.421875 
Q 12.5 50.921875 16.03125 51.96875 
Q 19.578125 53.03125 23.640625 53.03125 
Q 29.734375 53.03125 34.34375 51.265625 
Q 38.96875 49.515625 41.15625 46.5 
Q 43.359375 43.5 44.1875 38.484375 
L 35.59375 37.3125 
Q 35.015625 41.3125 32.203125 43.546875 
Q 29.390625 45.796875 24.265625 45.796875 
Q 18.21875 45.796875 15.625 43.796875 
Q 13.03125 41.796875 13.03125 39.109375 
Q 13.03125 37.40625 14.109375 36.03125 
Q 15.1875 34.625 17.484375 33.6875 
Q 18.796875 33.203125 25.25 31.453125 
Q 34.578125 28.953125 38.25 27.359375 
Q 41.9375 25.78125 44.03125 22.75 
Q 46.140625 19.734375 46.140625 15.234375 
Q 46.140625 10.84375 43.578125 6.953125 
Q 41.015625 3.078125 36.171875 0.953125 
Q 31.34375 -1.171875 25.25 -1.171875 
Q 15.140625 -1.171875 9.84375 3.03125 
Q 4.546875 7.234375 3.078125 15.484375 
z
" id="ArialMT-115"/>
      <path d="M 40.4375 6.390625 
Q 35.546875 2.25 31.03125 0.53125 
Q 26.515625 -1.171875 21.34375 -1.171875 
Q 12.796875 -1.171875 8.203125 3 
Q 3.609375 7.171875 3.609375 13.671875 
Q 3.609375 17.484375 5.34375 20.625 
Q 7.078125 23.78125 9.890625 25.6875 
Q 12.703125 27.59375 16.21875 28.5625 
Q 18.796875 29.25 24.03125 29.890625 
Q 34.671875 31.15625 39.703125 32.90625 
Q 39.75 34.71875 39.75 35.203125 
Q 39.75 40.578125 37.25 42.78125 
Q 33.890625 45.75 27.25 45.75 
Q 21.046875 45.75 18.09375 43.578125 
Q 15.140625 41.40625 13.71875 35.890625 
L 5.125 37.0625 
Q 6.296875 42.578125 8.984375 45.96875 
Q 11.671875 49.359375 16.75 51.1875 
Q 21.828125 53.03125 28.515625 53.03125 
Q 35.15625 53.03125 39.296875 51.46875 
Q 43.453125 49.90625 45.40625 47.53125 
Q 47.359375 45.171875 48.140625 41.546875 
Q 48.578125 39.3125 48.578125 33.453125 
L 48.578125 21.734375 
Q 48.578125 9.46875 49.140625 6.21875 
Q 49.703125 2.984375 51.375 0 
L 42.1875 0 
Q 40.828125 2.734375 40.4375 6.390625 
z
M 39.703125 26.03125 
Q 34.90625 24.078125 25.34375 22.703125 
Q 19.921875 21.921875 17.671875 20.9375 
Q 15.4375 19.96875 14.203125 18.09375 
Q 12.984375 16.21875 12.984375 13.921875 
Q 12.984375 10.40625 15.640625 8.0625 
Q 18.3125 5.71875 23.4375 5.71875 
Q 28.515625 5.71875 32.46875 7.9375 
Q 36.421875 10.15625 38.28125 14.015625 
Q 39.703125 17 39.703125 22.796875 
z
" id="ArialMT-97"/>
      <path d="M 6.59375 0 
L 6.59375 51.859375 
L 14.453125 51.859375 
L 14.453125 44.578125 
Q 16.890625 48.390625 20.9375 50.703125 
Q 25 53.03125 30.171875 53.03125 
Q 35.9375 53.03125 39.625 50.640625 
Q 43.3125 48.25 44.828125 43.953125 
Q 50.984375 53.03125 60.84375 53.03125 
Q 68.5625 53.03125 72.703125 48.75 
Q 76.859375 44.484375 76.859375 35.59375 
L 76.859375 0 
L 68.109375 0 
L 68.109375 32.671875 
Q 68.109375 37.9375 67.25 40.25 
Q 66.40625 42.578125 64.15625 43.984375 
Q 61.921875 45.40625 58.890625 45.40625 
Q 53.421875 45.40625 49.796875 41.765625 
Q 46.1875 38.140625 46.1875 30.125 
L 46.1875 0 
L 37.40625 0 
L 37.40625 33.6875 
Q 37.40625 39.546875 35.25 42.46875 
Q 33.109375 45.40625 28.21875 45.40625 
Q 24.515625 45.40625 21.359375 43.453125 
Q 18.21875 41.5 16.796875 37.734375 
Q 15.375 33.984375 15.375 26.90625 
L 15.375 0 
z
" id="ArialMT-109"/>
      <path d="M 6.59375 -19.875 
L 6.59375 51.859375 
L 14.59375 51.859375 
L 14.59375 45.125 
Q 17.4375 49.078125 21 51.046875 
Q 24.5625 53.03125 29.640625 53.03125 
Q 36.28125 53.03125 41.359375 49.609375 
Q 46.4375 46.1875 49.015625 39.953125 
Q 51.609375 33.734375 51.609375 26.3125 
Q 51.609375 18.359375 48.75 11.984375 
Q 45.90625 5.609375 40.453125 2.21875 
Q 35.015625 -1.171875 29 -1.171875 
Q 24.609375 -1.171875 21.109375 0.6875 
Q 17.625 2.546875 15.375 5.375 
L 15.375 -19.875 
z
M 14.546875 25.640625 
Q 14.546875 15.625 18.59375 10.84375 
Q 22.65625 6.0625 28.421875 6.0625 
Q 34.28125 6.0625 38.453125 11.015625 
Q 42.625 15.96875 42.625 26.375 
Q 42.625 36.28125 38.546875 41.203125 
Q 34.46875 46.140625 28.8125 46.140625 
Q 23.1875 46.140625 18.859375 40.890625 
Q 14.546875 35.640625 14.546875 25.640625 
z
" id="ArialMT-112"/>
      <path d="M 6.390625 0 
L 6.390625 71.578125 
L 15.1875 71.578125 
L 15.1875 0 
z
" id="ArialMT-108"/>
      <path d="M 42.09375 16.703125 
L 51.171875 15.578125 
Q 49.03125 7.625 43.21875 3.21875 
Q 37.40625 -1.171875 28.375 -1.171875 
Q 17 -1.171875 10.328125 5.828125 
Q 3.65625 12.84375 3.65625 25.484375 
Q 3.65625 38.578125 10.390625 45.796875 
Q 17.140625 53.03125 27.875 53.03125 
Q 38.28125 53.03125 44.875 45.953125 
Q 51.46875 38.875 51.46875 26.03125 
Q 51.46875 25.25 51.421875 23.6875 
L 12.75 23.6875 
Q 13.234375 15.140625 17.578125 10.59375 
Q 21.921875 6.0625 28.421875 6.0625 
Q 33.25 6.0625 36.671875 8.59375 
Q 40.09375 11.140625 42.09375 16.703125 
z
M 13.234375 30.90625 
L 42.1875 30.90625 
Q 41.609375 37.453125 38.875 40.71875 
Q 34.671875 45.796875 27.984375 45.796875 
Q 21.921875 45.796875 17.796875 41.75 
Q 13.671875 37.703125 13.234375 30.90625 
z
" id="ArialMT-101"/>
     </defs>
     <g transform="translate(541.254531 305.705)scale(0.26 -0.26)">
      <use xlink:href="#ArialMT-35"/>
      <use x="55.615234" xlink:href="#ArialMT-32"/>
      <use x="83.398438" xlink:href="#ArialMT-115"/>
      <use x="133.398438" xlink:href="#ArialMT-97"/>
      <use x="189.013672" xlink:href="#ArialMT-109"/>
      <use x="272.314453" xlink:href="#ArialMT-112"/>
      <use x="327.929688" xlink:href="#ArialMT-108"/>
      <use x="350.146484" xlink:href="#ArialMT-101"/>
     </g>
    </g>
   </g>
   <g id="matplotlib.axis_2">
    <g id="ytick_1">
     <g id="line2d_7">
      <path clip-path="url(#p63c86a7058)" d="M 180 249.385836 
L 1008 249.385836 
" style="fill:none;stroke:#b0b0b0;stroke-linecap:square;stroke-width:0.8;"/>
     </g>
     <g id="line2d_8">
      <defs>
       <path d="M 0 0 
L -3.5 0 
" id="m04a64076e0" style="stroke:#000000;stroke-width:0.8;"/>
      </defs>
      <g>
       <use style="stroke:#000000;stroke-width:0.8;" x="180" xlink:href="#m04a64076e0" y="249.385836"/>
      </g>
     </g>
     <g id="text_5">
      <!-- 0 -->
      <g transform="translate(158.541562 258.690992)scale(0.26 -0.26)">
       <use xlink:href="#ArialMT-48"/>
      </g>
     </g>
    </g>
    <g id="ytick_2">
     <g id="line2d_9">
      <path clip-path="url(#p63c86a7058)" d="M 180 177.790354 
L 1008 177.790354 
" style="fill:none;stroke:#b0b0b0;stroke-linecap:square;stroke-width:0.8;"/>
     </g>
     <g id="line2d_10">
      <g>
       <use style="stroke:#000000;stroke-width:0.8;" x="180" xlink:href="#m04a64076e0" y="177.790354"/>
      </g>
     </g>
     <g id="text_6">
      <!-- 10 -->
      <defs>
       <path d="M 37.25 0 
L 28.46875 0 
L 28.46875 56 
Q 25.296875 52.984375 20.140625 49.953125 
Q 14.984375 46.921875 10.890625 45.40625 
L 10.890625 53.90625 
Q 18.265625 57.375 23.78125 62.296875 
Q 29.296875 67.234375 31.59375 71.875 
L 37.25 71.875 
z
" id="ArialMT-49"/>
      </defs>
      <g transform="translate(144.083125 187.095511)scale(0.26 -0.26)">
       <use xlink:href="#ArialMT-49"/>
       <use x="55.615234" xlink:href="#ArialMT-48"/>
      </g>
     </g>
    </g>
    <g id="ytick_3">
     <g id="line2d_11">
      <path clip-path="url(#p63c86a7058)" d="M 180 106.194873 
L 1008 106.194873 
" style="fill:none;stroke:#b0b0b0;stroke-linecap:square;stroke-width:0.8;"/>
     </g>
     <g id="line2d_12">
      <g>
       <use style="stroke:#000000;stroke-width:0.8;" x="180" xlink:href="#m04a64076e0" y="106.194873"/>
      </g>
     </g>
     <g id="text_7">
      <!-- 20 -->
      <g transform="translate(144.083125 115.500029)scale(0.26 -0.26)">
       <use xlink:href="#ArialMT-50"/>
       <use x="55.615234" xlink:href="#ArialMT-48"/>
      </g>
     </g>
    </g>
    <g id="ytick_4">
     <g id="line2d_13">
      <path clip-path="url(#p63c86a7058)" d="M 180 34.599392 
L 1008 34.599392 
" style="fill:none;stroke:#b0b0b0;stroke-linecap:square;stroke-width:0.8;"/>
     </g>
     <g id="line2d_14">
      <g>
       <use style="stroke:#000000;stroke-width:0.8;" x="180" xlink:href="#m04a64076e0" y="34.599392"/>
      </g>
     </g>
     <g id="text_8">
      <!-- 30 -->
      <defs>
       <path d="M 4.203125 18.890625 
L 12.984375 20.0625 
Q 14.5 12.59375 18.140625 9.296875 
Q 21.78125 6 27 6 
Q 33.203125 6 37.46875 10.296875 
Q 41.75 14.59375 41.75 20.953125 
Q 41.75 27 37.796875 30.921875 
Q 33.84375 34.859375 27.734375 34.859375 
Q 25.25 34.859375 21.53125 33.890625 
L 22.515625 41.609375 
Q 23.390625 41.5 23.921875 41.5 
Q 29.546875 41.5 34.03125 44.421875 
Q 38.53125 47.359375 38.53125 53.46875 
Q 38.53125 58.296875 35.25 61.46875 
Q 31.984375 64.65625 26.8125 64.65625 
Q 21.6875 64.65625 18.265625 61.421875 
Q 14.84375 58.203125 13.875 51.765625 
L 5.078125 53.328125 
Q 6.6875 62.15625 12.390625 67.015625 
Q 18.109375 71.875 26.609375 71.875 
Q 32.46875 71.875 37.390625 69.359375 
Q 42.328125 66.84375 44.9375 62.5 
Q 47.5625 58.15625 47.5625 53.265625 
Q 47.5625 48.640625 45.0625 44.828125 
Q 42.578125 41.015625 37.703125 38.765625 
Q 44.046875 37.3125 47.5625 32.6875 
Q 51.078125 28.078125 51.078125 21.140625 
Q 51.078125 11.765625 44.234375 5.25 
Q 37.40625 -1.265625 26.953125 -1.265625 
Q 17.53125 -1.265625 11.296875 4.34375 
Q 5.078125 9.96875 4.203125 18.890625 
z
" id="ArialMT-51"/>
      </defs>
      <g transform="translate(144.083125 43.904548)scale(0.26 -0.26)">
       <use xlink:href="#ArialMT-51"/>
       <use x="55.615234" xlink:href="#ArialMT-48"/>
      </g>
     </g>
    </g>
    <g id="text_9">
     <!-- natural frequency (a.u.) -->
     <defs>
      <path d="M 6.59375 0 
L 6.59375 51.859375 
L 14.5 51.859375 
L 14.5 44.484375 
Q 20.21875 53.03125 31 53.03125 
Q 35.6875 53.03125 39.625 51.34375 
Q 43.5625 49.65625 45.515625 46.921875 
Q 47.46875 44.1875 48.25 40.4375 
Q 48.734375 37.984375 48.734375 31.890625 
L 48.734375 0 
L 39.9375 0 
L 39.9375 31.546875 
Q 39.9375 36.921875 38.90625 39.578125 
Q 37.890625 42.234375 35.28125 43.8125 
Q 32.671875 45.40625 29.15625 45.40625 
Q 23.53125 45.40625 19.453125 41.84375 
Q 15.375 38.28125 15.375 28.328125 
L 15.375 0 
z
" id="ArialMT-110"/>
      <path d="M 25.78125 7.859375 
L 27.046875 0.09375 
Q 23.34375 -0.6875 20.40625 -0.6875 
Q 15.625 -0.6875 12.984375 0.828125 
Q 10.359375 2.34375 9.28125 4.8125 
Q 8.203125 7.28125 8.203125 15.1875 
L 8.203125 45.015625 
L 1.765625 45.015625 
L 1.765625 51.859375 
L 8.203125 51.859375 
L 8.203125 64.703125 
L 16.9375 69.96875 
L 16.9375 51.859375 
L 25.78125 51.859375 
L 25.78125 45.015625 
L 16.9375 45.015625 
L 16.9375 14.703125 
Q 16.9375 10.9375 17.40625 9.859375 
Q 17.875 8.796875 18.921875 8.15625 
Q 19.96875 7.515625 21.921875 7.515625 
Q 23.390625 7.515625 25.78125 7.859375 
z
" id="ArialMT-116"/>
      <path d="M 40.578125 0 
L 40.578125 7.625 
Q 34.515625 -1.171875 24.125 -1.171875 
Q 19.53125 -1.171875 15.546875 0.578125 
Q 11.578125 2.34375 9.640625 5 
Q 7.71875 7.671875 6.9375 11.53125 
Q 6.390625 14.109375 6.390625 19.734375 
L 6.390625 51.859375 
L 15.1875 51.859375 
L 15.1875 23.09375 
Q 15.1875 16.21875 15.71875 13.8125 
Q 16.546875 10.359375 19.234375 8.375 
Q 21.921875 6.390625 25.875 6.390625 
Q 29.828125 6.390625 33.296875 8.421875 
Q 36.765625 10.453125 38.203125 13.9375 
Q 39.65625 17.4375 39.65625 24.078125 
L 39.65625 51.859375 
L 48.4375 51.859375 
L 48.4375 0 
z
" id="ArialMT-117"/>
      <path d="M 6.5 0 
L 6.5 51.859375 
L 14.40625 51.859375 
L 14.40625 44 
Q 17.4375 49.515625 20 51.265625 
Q 22.5625 53.03125 25.640625 53.03125 
Q 30.078125 53.03125 34.671875 50.203125 
L 31.640625 42.046875 
Q 28.421875 43.953125 25.203125 43.953125 
Q 22.3125 43.953125 20.015625 42.21875 
Q 17.71875 40.484375 16.75 37.40625 
Q 15.28125 32.71875 15.28125 27.15625 
L 15.28125 0 
z
" id="ArialMT-114"/>
      <path d="M 8.6875 0 
L 8.6875 45.015625 
L 0.921875 45.015625 
L 0.921875 51.859375 
L 8.6875 51.859375 
L 8.6875 57.375 
Q 8.6875 62.59375 9.625 65.140625 
Q 10.890625 68.5625 14.078125 70.671875 
Q 17.28125 72.796875 23.046875 72.796875 
Q 26.765625 72.796875 31.25 71.921875 
L 29.9375 64.265625 
Q 27.203125 64.75 24.75 64.75 
Q 20.75 64.75 19.09375 63.03125 
Q 17.4375 61.328125 17.4375 56.640625 
L 17.4375 51.859375 
L 27.546875 51.859375 
L 27.546875 45.015625 
L 17.4375 45.015625 
L 17.4375 0 
z
" id="ArialMT-102"/>
      <path d="M 39.65625 -19.875 
L 39.65625 5.515625 
Q 37.59375 2.640625 33.90625 0.734375 
Q 30.21875 -1.171875 26.078125 -1.171875 
Q 16.84375 -1.171875 10.171875 6.203125 
Q 3.515625 13.578125 3.515625 26.421875 
Q 3.515625 34.234375 6.21875 40.421875 
Q 8.9375 46.625 14.078125 49.828125 
Q 19.234375 53.03125 25.390625 53.03125 
Q 35.015625 53.03125 40.53125 44.921875 
L 40.53125 51.859375 
L 48.4375 51.859375 
L 48.4375 -19.875 
z
M 12.546875 26.078125 
Q 12.546875 16.0625 16.75 11.0625 
Q 20.953125 6.0625 26.8125 6.0625 
Q 32.421875 6.0625 36.46875 10.8125 
Q 40.53125 15.578125 40.53125 25.296875 
Q 40.53125 35.640625 36.25 40.859375 
Q 31.984375 46.09375 26.21875 46.09375 
Q 20.515625 46.09375 16.53125 41.234375 
Q 12.546875 36.375 12.546875 26.078125 
z
" id="ArialMT-113"/>
      <path d="M 40.4375 19 
L 49.078125 17.875 
Q 47.65625 8.9375 41.8125 3.875 
Q 35.984375 -1.171875 27.484375 -1.171875 
Q 16.84375 -1.171875 10.375 5.78125 
Q 3.90625 12.75 3.90625 25.734375 
Q 3.90625 34.125 6.6875 40.421875 
Q 9.46875 46.734375 15.15625 49.875 
Q 20.84375 53.03125 27.546875 53.03125 
Q 35.984375 53.03125 41.359375 48.75 
Q 46.734375 44.484375 48.25 36.625 
L 39.703125 35.296875 
Q 38.484375 40.53125 35.375 43.15625 
Q 32.28125 45.796875 27.875 45.796875 
Q 21.234375 45.796875 17.078125 41.03125 
Q 12.9375 36.28125 12.9375 25.984375 
Q 12.9375 15.53125 16.9375 10.796875 
Q 20.953125 6.0625 27.390625 6.0625 
Q 32.5625 6.0625 36.03125 9.234375 
Q 39.5 12.40625 40.4375 19 
z
" id="ArialMT-99"/>
      <path d="M 6.203125 -19.96875 
L 5.21875 -11.71875 
Q 8.109375 -12.5 10.25 -12.5 
Q 13.1875 -12.5 14.9375 -11.515625 
Q 16.703125 -10.546875 17.828125 -8.796875 
Q 18.65625 -7.46875 20.515625 -2.25 
Q 20.75 -1.515625 21.296875 -0.09375 
L 1.609375 51.859375 
L 11.078125 51.859375 
L 21.875 21.828125 
Q 23.96875 16.109375 25.640625 9.8125 
Q 27.15625 15.875 29.25 21.625 
L 40.328125 51.859375 
L 49.125 51.859375 
L 29.390625 -0.875 
Q 26.21875 -9.421875 24.46875 -12.640625 
Q 22.125 -17 19.09375 -19.015625 
Q 16.0625 -21.046875 11.859375 -21.046875 
Q 9.328125 -21.046875 6.203125 -19.96875 
z
" id="ArialMT-121"/>
      <path d="M 23.390625 -21.046875 
Q 16.109375 -11.859375 11.078125 0.4375 
Q 6.0625 12.75 6.0625 25.921875 
Q 6.0625 37.546875 9.8125 48.1875 
Q 14.203125 60.546875 23.390625 72.796875 
L 29.6875 72.796875 
Q 23.78125 62.640625 21.875 58.296875 
Q 18.890625 51.5625 17.1875 44.234375 
Q 15.09375 35.109375 15.09375 25.875 
Q 15.09375 2.390625 29.6875 -21.046875 
z
" id="ArialMT-40"/>
      <path d="M 9.078125 0 
L 9.078125 10.015625 
L 19.09375 10.015625 
L 19.09375 0 
z
" id="ArialMT-46"/>
      <path d="M 12.359375 -21.046875 
L 6.0625 -21.046875 
Q 20.65625 2.390625 20.65625 25.875 
Q 20.65625 35.0625 18.5625 44.09375 
Q 16.890625 51.421875 13.921875 58.15625 
Q 12.015625 62.546875 6.0625 72.796875 
L 12.359375 72.796875 
Q 21.53125 60.546875 25.921875 48.1875 
Q 29.6875 37.546875 29.6875 25.921875 
Q 29.6875 12.75 24.625 0.4375 
Q 19.578125 -11.859375 12.359375 -21.046875 
z
" id="ArialMT-41"/>
     </defs>
     <g transform="translate(134.610937 277.673594)rotate(-90)scale(0.26 -0.26)">
      <use xlink:href="#ArialMT-110"/>
      <use x="55.615234" xlink:href="#ArialMT-97"/>
      <use x="111.230469" xlink:href="#ArialMT-116"/>
      <use x="139.013672" xlink:href="#ArialMT-117"/>
      <use x="194.628906" xlink:href="#ArialMT-114"/>
      <use x="227.929688" xlink:href="#ArialMT-97"/>
      <use x="283.544922" xlink:href="#ArialMT-108"/>
      <use x="305.761719" xlink:href="#ArialMT-32"/>
      <use x="333.544922" xlink:href="#ArialMT-102"/>
      <use x="361.328125" xlink:href="#ArialMT-114"/>
      <use x="394.628906" xlink:href="#ArialMT-101"/>
      <use x="450.244141" xlink:href="#ArialMT-113"/>
      <use x="505.859375" xlink:href="#ArialMT-117"/>
      <use x="561.474609" xlink:href="#ArialMT-101"/>
      <use x="617.089844" xlink:href="#ArialMT-110"/>
      <use x="672.705078" xlink:href="#ArialMT-99"/>
      <use x="722.705078" xlink:href="#ArialMT-121"/>
      <use x="772.705078" xlink:href="#ArialMT-32"/>
      <use x="800.488281" xlink:href="#ArialMT-40"/>
      <use x="833.789062" xlink:href="#ArialMT-97"/>
      <use x="889.404297" xlink:href="#ArialMT-46"/>
      <use x="917.1875" xlink:href="#ArialMT-117"/>
      <use x="972.802734" xlink:href="#ArialMT-46"/>
      <use x="1000.585938" xlink:href="#ArialMT-41"/>
     </g>
    </g>
   </g>
   <g id="line2d_15">
    <path clip-path="url(#p63c86a7058)" d="M 217.636364 239.995829 
L 218.012916 232.957093 
L 218.389467 231.198406 
L 218.766019 230.751764 
L 219.895675 230.186359 
L 220.272227 229.556509 
L 220.648779 228.122166 
L 221.025331 225.610473 
L 222.154987 215.669458 
L 222.719814 213.20318 
L 223.096366 212.367246 
L 223.661194 211.815175 
L 224.226022 211.564881 
L 224.979126 211.241687 
L 225.543954 210.873828 
L 225.920506 210.433639 
L 226.485334 209.187997 
L 226.861885 208.068423 
L 228.556369 200.192359 
L 228.932921 198.824043 
L 229.874301 196.547105 
L 230.439129 196.013996 
L 231.192232 195.653873 
L 232.133612 195.33464 
L 233.074992 195.16101 
L 233.63982 194.860203 
L 234.016372 194.640755 
L 234.392924 194.494894 
L 234.957752 193.978705 
L 235.710855 192.998881 
L 236.087407 192.286783 
L 236.463959 192.027421 
L 237.217063 190.653899 
L 237.593615 189.840061 
L 238.534995 188.910441 
L 238.723271 188.615125 
L 239.099823 188.341867 
L 240.229478 187.314181 
L 240.982582 187.220442 
L 242.677066 187.180257 
L 243.618446 186.865376 
L 244.183273 186.869488 
L 244.559825 186.762619 
L 247.007413 186.539873 
L 247.760517 186.225588 
L 247.948793 186.033867 
L 248.890172 185.825629 
L 249.266724 185.68612 
L 249.643276 185.548 
L 250.019828 185.321959 
L 252.27914 184.995728 
L 252.655691 184.866203 
L 253.220519 184.746584 
L 253.597071 184.575411 
L 253.973623 184.502479 
L 255.856383 183.823573 
L 258.868798 183.68406 
L 259.433626 183.667452 
L 261.504661 183.323226 
L 265.458457 183.286374 
L 266.023284 183.252261 
L 270.165355 182.902337 
L 270.730183 182.423859 
L 271.295011 182.010991 
L 271.483287 181.71323 
L 271.671563 181.759924 
L 272.236391 181.225619 
L 272.424667 181.1668 
L 272.801219 180.659975 
L 272.989495 180.752378 
L 273.177771 180.623642 
L 273.554323 180.69197 
L 274.495702 180.405689 
L 276.94329 180.24045 
L 277.696394 180.215396 
L 279.767429 180.094288 
L 281.650189 179.930498 
L 282.026741 179.846501 
L 282.96812 179.018526 
L 283.344672 178.32186 
L 283.532948 178.211078 
L 283.9095 177.618643 
L 284.474328 177.139905 
L 284.662604 176.952151 
L 285.039156 176.230673 
L 285.227432 176.251121 
L 285.603984 175.906685 
L 286.357088 175.76861 
L 287.298467 175.725145 
L 288.239847 175.025776 
L 288.616399 174.403259 
L 289.369503 172.535857 
L 291.252262 167.480026 
L 292.193642 165.831043 
L 292.381918 165.762229 
L 292.75847 165.385696 
L 292.946746 165.2743 
L 293.323298 165.263471 
L 294.076402 165.131505 
L 294.64123 165.135937 
L 296.147437 165.07859 
L 297.465369 164.753168 
L 297.841921 164.378365 
L 298.971577 163.757893 
L 300.289508 161.688667 
L 300.477784 161.602245 
L 301.795716 159.851044 
L 302.172268 159.595342 
L 302.54882 159.520253 
L 303.866752 159.103123 
L 305.937787 158.99639 
L 307.632271 159.018609 
L 308.385375 158.975115 
L 310.268134 158.966762 
L 315.163309 158.864536 
L 315.916413 158.858476 
L 316.292965 158.837387 
L 316.481241 158.712343 
L 316.669517 158.750024 
L 317.42262 158.228033 
L 318.928828 154.932412 
L 320.24676 150.905839 
L 321.564691 145.397124 
L 322.129519 143.769301 
L 322.317795 143.530468 
L 322.506071 143.047032 
L 322.882623 141.612533 
L 323.635727 139.864312 
L 324.388831 138.791108 
L 324.765383 138.601718 
L 326.083314 138.3161 
L 326.836418 137.510561 
L 327.21297 136.8949 
L 327.777798 135.87954 
L 328.342626 135.512986 
L 329.848834 135.30256 
L 330.225385 134.833253 
L 330.790213 133.500758 
L 330.978489 133.289428 
L 331.919869 131.008136 
L 332.108145 130.819017 
L 332.296421 130.457184 
L 332.672973 130.118413 
L 332.861249 129.760144 
L 333.426077 129.355406 
L 333.802629 129.108194 
L 334.744008 128.874687 
L 335.873664 128.74547 
L 336.815044 128.177674 
L 337.756424 127.297983 
L 338.132976 126.698322 
L 338.509527 126.03249 
L 338.886079 125.369342 
L 339.074355 124.556317 
L 339.639183 123.668692 
L 340.204011 122.092855 
L 340.580563 121.373784 
L 340.768839 121.282261 
L 341.145391 120.570209 
L 342.275047 119.231007 
L 342.463323 119.15421 
L 342.651599 118.956119 
L 342.839874 119.043452 
L 343.781254 118.911329 
L 344.534358 118.819149 
L 344.91091 118.707979 
L 345.287462 118.467417 
L 345.664014 118.158607 
L 346.040566 117.496911 
L 346.417118 116.449988 
L 346.79367 115.756847 
L 347.546773 113.606643 
L 347.923325 113.134242 
L 348.488153 111.744686 
L 349.429533 109.927884 
L 349.617809 109.893887 
L 349.994361 109.660676 
L 350.370913 109.511913 
L 350.559189 109.295539 
L 351.688844 109.328997 
L 356.772295 109.426605 
L 357.713675 109.453536 
L 358.466779 109.447982 
L 363.55023 109.361309 
L 363.738506 109.285272 
L 364.115058 109.351683 
L 364.491609 109.057218 
L 364.679885 109.066634 
L 365.056437 108.778411 
L 365.432989 108.52883 
L 365.621265 108.107986 
L 366.186093 107.714354 
L 366.374369 107.317634 
L 366.939197 107.085203 
L 367.315749 106.560887 
L 367.692301 106.064316 
L 367.880577 105.718677 
L 368.068853 105.665201 
L 368.445405 104.614628 
L 368.63368 104.150221 
L 368.821956 104.186042 
L 369.010232 104.044513 
L 369.386784 103.254393 
L 370.139888 102.174779 
L 370.328164 102.152562 
L 371.081268 101.231989 
L 372.022648 100.328996 
L 372.587476 100.001271 
L 373.152303 99.331749 
L 374.470235 98.655509 
L 374.658511 98.753488 
L 375.035063 98.4964 
L 375.411615 98.1566 
L 375.599891 98.045544 
L 375.976443 97.651922 
L 376.352995 97.638685 
L 376.917823 97.166895 
L 377.294374 97.022883 
L 378.42403 96.661733 
L 378.612306 96.75077 
L 379.177134 96.088495 
L 379.36541 96.10407 
L 379.553686 95.661444 
L 379.741962 95.520192 
L 380.495066 94.316189 
L 380.683342 94.175168 
L 382.001273 91.710005 
L 383.130929 88.819381 
L 383.507481 87.423053 
L 383.884033 86.526777 
L 385.390241 82.746539 
L 385.578517 82.673774 
L 385.955068 81.996455 
L 386.519896 80.987305 
L 386.708172 80.405038 
L 387.084724 80.255356 
L 387.273 79.723668 
L 387.461276 79.663296 
L 388.21438 78.940031 
L 388.590932 78.329434 
L 389.15576 78.023889 
L 389.344036 77.810745 
L 389.532312 77.826289 
L 390.661967 76.684216 
L 391.038519 76.629304 
L 391.791623 75.97012 
L 392.544727 75.801747 
L 392.921279 75.917256 
L 393.109555 75.629141 
L 394.804038 75.060141 
L 396.498522 74.857096 
L 396.686798 74.753719 
L 397.06335 74.72366 
L 397.439902 74.464606 
L 397.628178 74.437936 
L 398.00473 74.144302 
L 398.193006 74.104622 
L 398.569558 73.849808 
L 398.946109 73.681854 
L 399.322661 73.328774 
L 400.075765 72.864211 
L 400.452317 72.295352 
L 400.640593 72.189158 
L 403.464732 68.364116 
L 404.217836 67.944992 
L 404.406112 67.611547 
L 404.594388 67.535667 
L 404.782664 67.133592 
L 405.535768 66.789116 
L 406.100596 66.249113 
L 406.8537 65.966286 
L 407.230251 65.548402 
L 408.359907 65.297838 
L 409.489563 65.043244 
L 410.995771 64.727549 
L 411.748874 64.751516 
L 417.397153 64.654986 
L 418.526809 64.591942 
L 425.116467 64.471877 
L 429.258538 64.145124 
L 430.764746 64.205934 
L 443.379235 63.883743 
L 444.320615 63.802445 
L 445.638547 63.662117 
L 447.144754 63.630209 
L 447.897858 63.672724 
L 448.650962 63.606926 
L 449.027514 63.637929 
L 449.592342 63.658546 
L 451.286825 63.596903 
L 452.416481 63.6187 
L 457.311656 63.502103 
L 458.253036 63.433784 
L 460.324071 63.398622 
L 465.407522 63.297896 
L 466.348902 63.213157 
L 467.290282 63.298728 
L 468.608213 63.157948 
L 469.549593 63.17359 
L 470.679249 63.191906 
L 476.892355 63.17642 
L 477.833735 63.21016 
L 478.586839 63.154359 
L 480.281322 63.207836 
L 480.84615 63.128058 
L 481.975806 63.021398 
L 489.130292 62.844314 
L 490.071672 62.65232 
L 491.389604 62.494885 
L 491.766156 62.439261 
L 491.954432 62.498889 
L 492.895812 62.296205 
L 493.272363 62.336426 
L 496.661331 61.946439 
L 500.991678 61.980067 
L 633.537951 61.894313 
L 634.855882 61.870611 
L 664.038656 61.687755 
L 698.869708 61.667658 
L 705.27109 61.65574 
L 735.395243 61.6676 
L 737.278003 61.687427 
L 752.151803 61.577086 
L 759.118014 61.585802 
L 781.899404 61.561924 
L 783.405612 61.511036 
L 793.007686 61.50791 
L 813.341489 61.514008 
L 845.348401 61.451957 
L 847.984265 61.386892 
L 853.82082 61.414309 
L 871.142207 61.450182 
L 874.342899 61.409742 
L 876.225658 61.385892 
L 888.463595 61.361383 
L 902.20774 61.398927 
L 928.942926 61.365267 
L 953.795352 61.281513 
L 970.363636 61.29418 
L 970.363636 61.29418 
" style="fill:none;stroke:#1f77b4;stroke-linecap:square;stroke-width:1.5;"/>
   </g>
   <g id="line2d_16">
    <path clip-path="url(#p63c86a7058)" d="M 217.636364 240.919225 
L 218.012916 234.55815 
L 218.389467 232.960988 
L 218.766019 232.555824 
L 219.330847 232.400349 
L 220.083951 232.141965 
L 220.460503 231.751789 
L 220.837055 230.902121 
L 221.213607 229.312318 
L 221.778435 225.282723 
L 222.343263 220.884814 
L 223.096366 217.352464 
L 223.661194 216.147168 
L 224.79085 214.96378 
L 225.355678 214.783958 
L 227.803265 214.340582 
L 228.179817 214.269302 
L 228.556369 213.985698 
L 228.932921 213.394365 
L 229.686025 211.470106 
L 230.250853 208.493349 
L 230.627405 206.219786 
L 231.003957 203.207525 
L 231.945336 195.641746 
L 232.69844 191.549669 
L 234.5812 185.465254 
L 234.957752 184.691138 
L 235.522579 183.884534 
L 235.710855 183.58524 
L 236.087407 183.314234 
L 236.463959 182.757924 
L 237.028787 182.119661 
L 237.781891 181.246001 
L 237.970167 181.059047 
L 238.346719 180.523657 
L 239.099823 179.649022 
L 240.229478 177.911848 
L 240.417754 177.801588 
L 240.982582 176.789472 
L 241.359134 175.846347 
L 244.183273 171.68612 
L 244.371549 171.356769 
L 244.748101 171.192954 
L 246.254309 168.636373 
L 249.078448 160.900748 
L 249.455 159.536347 
L 250.961208 155.377687 
L 251.149484 155.130606 
L 251.526036 154.358212 
L 251.902588 153.462547 
L 252.467416 151.69464 
L 253.220519 150.357075 
L 255.103279 147.400102 
L 256.421211 145.575298 
L 256.609487 145.53558 
L 257.36259 144.593508 
L 257.739142 144.415079 
L 259.433626 143.778038 
L 261.881213 141.308817 
L 262.634317 139.891849 
L 263.387421 138.184398 
L 264.328801 135.032478 
L 264.705353 134.052569 
L 266.21156 130.416442 
L 266.776388 128.870982 
L 267.529492 126.252297 
L 268.847424 123.050447 
L 269.788803 121.13804 
L 270.353631 120.305535 
L 270.730183 119.845138 
L 270.918459 119.775447 
L 271.483287 119.356259 
L 272.236391 118.947769 
L 272.801219 118.47191 
L 273.554323 117.926974 
L 274.11915 117.703867 
L 274.683978 117.507799 
L 277.319842 116.841604 
L 279.390877 116.750417 
L 281.461913 116.737061 
L 282.591569 116.716468 
L 282.96812 116.674715 
L 283.344672 116.538885 
L 283.9095 116.005099 
L 284.85088 115.548417 
L 285.980536 113.411303 
L 286.168812 113.331291 
L 286.545364 112.61268 
L 288.616399 109.226942 
L 289.746055 107.507755 
L 290.875711 104.965912 
L 291.063987 104.765512 
L 291.81709 102.596283 
L 292.005366 102.456609 
L 292.75847 100.880862 
L 293.135022 100.239078 
L 293.69985 98.607958 
L 294.64123 96.290409 
L 295.206058 95.224859 
L 295.394334 94.642844 
L 295.582609 94.463195 
L 296.335713 93.031211 
L 296.712265 92.685753 
L 297.465369 92.04747 
L 298.218473 91.785638 
L 300.854336 91.65375 
L 301.795716 91.667822 
L 302.737096 91.52216 
L 303.113648 91.321353 
L 303.4902 91.038908 
L 304.619855 88.100323 
L 304.808131 87.727419 
L 305.184683 86.603333 
L 305.937787 85.267214 
L 306.502615 84.046817 
L 306.879167 83.235115 
L 308.385375 81.137782 
L 309.138478 80.572489 
L 309.326754 80.203061 
L 311.962618 79.443539 
L 312.903997 79.30187 
L 313.280549 79.329997 
L 313.845377 79.305865 
L 314.598481 79.380974 
L 315.163309 79.331177 
L 315.916413 79.310249 
L 319.117104 79.270556 
L 319.870208 79.295266 
L 320.623312 79.233261 
L 321.752967 79.244631 
L 322.317795 79.22134 
L 323.070899 79.142242 
L 324.765383 79.041026 
L 326.27159 79.063003 
L 327.777798 79.040206 
L 333.614353 78.935748 
L 335.12056 78.814247 
L 337.9447 78.787205 
L 340.768839 78.775165 
L 341.333667 78.786778 
L 344.157806 78.753971 
L 397.816454 78.746515 
L 512.476511 78.746068 
L 877.54359 78.748337 
L 970.363636 78.748824 
L 970.363636 78.748824 
" style="fill:none;stroke:#ff7f0e;stroke-linecap:square;stroke-width:1.5;"/>
   </g>
   <g id="line2d_17">
    <path clip-path="url(#p63c86a7058)" d="M 217.636364 242.116364 
L 218.012916 236.663058 
L 218.389467 235.295735 
L 218.766019 234.933542 
L 219.707399 234.406262 
L 220.083951 233.7614 
L 220.460503 232.517472 
L 221.025331 229.28028 
L 221.590159 225.966245 
L 222.154987 223.984735 
L 222.719814 222.866726 
L 223.096366 222.335848 
L 223.661194 221.863089 
L 224.037746 221.50634 
L 224.414298 221.133948 
L 224.979126 220.28087 
L 225.73223 218.567707 
L 226.485334 215.957812 
L 227.991541 209.748804 
L 228.556369 208.242447 
L 229.686025 206.812239 
L 231.380508 205.738804 
L 231.945336 205.126813 
L 232.510164 204.42599 
L 233.074992 202.894676 
L 233.63982 200.871443 
L 236.463959 185.687 
L 237.217063 183.599133 
L 237.781891 183.041675 
L 238.158443 182.855119 
L 238.723271 182.183082 
L 239.099823 181.91205 
L 239.664651 181.612953 
L 240.229478 181.646974 
L 240.417754 181.537503 
L 240.794306 180.989206 
L 241.170858 180.803665 
L 241.359134 180.732635 
L 241.54741 180.542383 
L 241.923962 179.92352 
L 242.677066 179.211443 
L 243.053618 178.983391 
L 243.43017 178.412667 
L 243.806722 177.857131 
L 244.559825 177.420465 
L 244.748101 177.429369 
L 245.124653 177.193093 
L 245.689481 177.034116 
L 246.442585 176.664604 
L 246.819137 176.357827 
L 247.007413 176.310411 
L 248.137069 175.109819 
L 248.890172 173.788505 
L 249.078448 173.628894 
L 249.643276 172.597546 
L 250.961208 169.897294 
L 251.714312 167.985848 
L 251.902588 167.751151 
L 252.27914 167.109357 
L 253.408795 164.820751 
L 253.597071 164.539091 
L 253.973623 164.346662 
L 254.350175 163.866342 
L 255.856383 162.924034 
L 257.174314 162.635456 
L 258.30397 162.668119 
L 259.24535 162.452471 
L 259.998454 162.415075 
L 263.199145 161.79184 
L 263.387421 161.684221 
L 263.763973 161.298969 
L 266.21156 160.052185 
L 267.529492 158.902927 
L 268.282596 158.544518 
L 268.847424 158.176057 
L 269.977079 158.111441 
L 270.541907 157.913321 
L 271.671563 157.807711 
L 272.801219 157.743404 
L 273.366047 157.471524 
L 273.554323 157.542958 
L 274.307426 156.940783 
L 274.683978 156.929908 
L 274.872254 156.350861 
L 275.06053 156.178215 
L 275.437082 155.049232 
L 275.625358 154.683051 
L 276.00191 153.242947 
L 276.378462 152.374206 
L 276.94329 151.171363 
L 277.131566 150.452214 
L 277.696394 147.229746 
L 278.637773 143.867651 
L 279.014325 141.956013 
L 279.390877 141.08699 
L 279.767429 139.934195 
L 279.955705 139.824274 
L 280.520533 139.190369 
L 280.708809 139.008913 
L 281.085361 138.931404 
L 281.273637 138.810804 
L 281.650189 138.823078 
L 283.721224 138.722225 
L 283.9095 138.620315 
L 284.286052 138.638981 
L 285.039156 138.549561 
L 285.79226 138.517203 
L 287.298467 138.522161 
L 289.369503 138.491051 
L 291.440538 138.078461 
L 291.81709 138.038945 
L 292.570194 137.89629 
L 296.335713 136.657967 
L 296.712265 136.256413 
L 296.900541 136.193171 
L 297.841921 134.408038 
L 298.406749 133.285634 
L 298.595025 132.309846 
L 298.971577 131.371386 
L 299.912956 125.931704 
L 300.289508 122.749925 
L 300.477784 121.982977 
L 301.042612 118.306666 
L 301.795716 115.222516 
L 301.983992 115.050236 
L 302.172268 114.703543 
L 302.737096 113.082494 
L 303.113648 112.312432 
L 303.4902 111.922939 
L 303.866752 111.467707 
L 304.055028 111.413003 
L 304.431579 110.974858 
L 306.879167 109.573742 
L 308.385375 109.173159 
L 308.761926 109.142595 
L 309.138478 108.886168 
L 309.51503 108.811582 
L 309.703306 108.646035 
L 310.079858 108.673907 
L 310.832962 108.306112 
L 311.209514 108.278562 
L 312.527446 108.139822 
L 314.033653 108.027926 
L 314.598481 107.882434 
L 314.786757 107.673553 
L 314.975033 107.759432 
L 315.728137 107.334996 
L 316.104689 107.197409 
L 316.481241 106.940386 
L 317.234344 106.713615 
L 320.058484 106.603702 
L 320.623312 106.369373 
L 321.18814 106.463741 
L 322.694347 106.008625 
L 323.070899 105.820156 
L 324.200555 105.789813 
L 324.388831 105.873831 
L 324.765383 105.803303 
L 326.27159 105.570305 
L 327.401246 105.513275 
L 328.907454 105.560251 
L 336.250216 105.391891 
L 337.568148 105.386725 
L 338.697803 105.387831 
L 340.392287 105.346184 
L 970.363636 105.34777 
L 970.363636 105.34777 
" style="fill:none;stroke:#2ca02c;stroke-linecap:square;stroke-width:1.5;"/>
   </g>
   <g id="line2d_18">
    <path clip-path="url(#p63c86a7058)" d="M 217.636364 241.916361 
L 218.012916 236.327382 
L 218.389467 234.935422 
L 218.766019 234.583072 
L 219.707399 234.160337 
L 220.083951 233.655835 
L 220.460503 232.572306 
L 221.025331 229.727134 
L 221.778435 225.705893 
L 222.343263 224.108052 
L 222.90809 223.19531 
L 223.661194 222.501812 
L 225.543954 221.241163 
L 226.485334 219.706674 
L 228.932921 214.642403 
L 229.686025 213.913276 
L 230.062577 213.864171 
L 230.627405 213.581694 
L 233.074992 213.168856 
L 233.263268 213.026043 
L 233.451544 213.040426 
L 233.828096 212.729551 
L 234.204648 212.477487 
L 235.334304 209.905482 
L 236.087407 207.730961 
L 236.652235 205.145139 
L 237.217063 202.453073 
L 238.346719 198.713746 
L 239.664651 196.658779 
L 240.229478 196.263435 
L 240.60603 196.285464 
L 240.982582 196.041208 
L 241.54741 195.708527 
L 241.923962 195.542939 
L 242.677066 194.693835 
L 244.183273 191.671033 
L 244.559825 191.336782 
L 244.748101 190.743484 
L 245.312929 189.929334 
L 245.877757 189.042496 
L 246.254309 188.806701 
L 246.630861 188.494588 
L 247.572241 187.920553 
L 248.325344 187.328288 
L 250.019828 185.84245 
L 250.584656 185.138157 
L 250.772932 184.979247 
L 251.33776 183.938804 
L 251.902588 183.124386 
L 253.220519 179.723766 
L 253.785347 177.686569 
L 255.291555 172.073526 
L 255.856383 169.681072 
L 256.232935 168.072636 
L 256.421211 166.919072 
L 256.797763 165.727237 
L 257.174314 164.474559 
L 257.927418 162.538912 
L 258.680522 160.847658 
L 259.057074 160.183806 
L 259.810178 159.814015 
L 260.18673 159.383561 
L 260.563282 159.399816 
L 263.010869 159.228813 
L 264.328801 158.772809 
L 264.705353 158.556644 
L 265.458457 158.265117 
L 266.023284 157.784603 
L 266.588112 157.404689 
L 266.776388 157.369367 
L 267.15294 156.866458 
L 267.529492 156.540592 
L 267.717768 156.036787 
L 267.906044 155.990021 
L 268.659148 154.159104 
L 269.600528 151.020643 
L 271.671563 141.422872 
L 272.048115 140.304321 
L 272.424667 138.668257 
L 273.177771 136.65581 
L 273.554323 136.301339 
L 273.930875 136.183049 
L 274.307426 136.055928 
L 276.00191 135.911829 
L 276.378462 135.79406 
L 278.072946 135.674836 
L 278.449497 135.526916 
L 279.390877 134.692552 
L 279.579153 134.215562 
L 279.767429 134.174596 
L 280.520533 132.551824 
L 280.897085 131.34231 
L 281.650189 128.453234 
L 282.403293 126.056754 
L 282.779844 124.494879 
L 283.156396 122.973022 
L 284.662604 117.736256 
L 285.039156 117.131951 
L 285.79226 115.721246 
L 286.545364 114.894488 
L 286.921916 114.679527 
L 287.675019 114.509538 
L 288.992951 114.542465 
L 289.934331 113.840216 
L 290.122607 113.865788 
L 290.499159 113.507165 
L 290.875711 113.035523 
L 291.063987 112.866805 
L 291.252262 112.85094 
L 292.570194 111.571728 
L 292.946746 111.039042 
L 293.135022 110.893363 
L 293.511574 110.226298 
L 293.69985 110.267507 
L 295.959161 108.798879 
L 296.712265 108.30215 
L 297.088817 107.941104 
L 298.218473 107.732671 
L 298.595025 107.348405 
L 299.159853 107.160966 
L 299.724681 106.297717 
L 299.912956 106.154206 
L 300.101232 105.782345 
L 300.289508 105.769881 
L 301.419164 104.944649 
L 301.983992 104.779616 
L 302.172268 104.855786 
L 302.737096 104.758882 
L 304.243303 104.740695 
L 308.761926 104.394378 
L 310.079858 104.176582 
L 310.644686 104.098464 
L 311.021238 103.93068 
L 311.39779 103.76378 
L 312.527446 103.382452 
L 312.903997 103.294002 
L 313.092273 103.308247 
L 313.280549 103.192256 
L 313.657101 103.306746 
L 314.033653 102.98506 
L 314.786757 102.763593 
L 314.975033 102.835239 
L 316.292965 102.328002 
L 317.610896 102.266885 
L 322.317795 102.105239 
L 323.635727 101.786365 
L 324.012279 101.814185 
L 330.601937 101.665556 
L 344.534358 101.621365 
L 345.099186 101.567557 
L 346.040566 101.484795 
L 346.981946 101.373628 
L 348.864705 101.235062 
L 349.617809 101.182086 
L 350.935741 101.206082 
L 352.065396 101.193561 
L 355.830915 101.151224 
L 359.784711 101.155171 
L 368.821956 101.166765 
L 372.022648 101.163925 
L 382.754377 101.166872 
L 399.887489 101.1591 
L 970.363636 101.153633 
L 970.363636 101.153633 
" style="fill:none;stroke:#d62728;stroke-linecap:square;stroke-width:1.5;"/>
   </g>
   <g id="line2d_19">
    <path clip-path="url(#p63c86a7058)" d="M 217.636364 241.037886 
L 218.012916 234.779053 
L 218.389467 233.218857 
L 218.766019 232.829015 
L 219.519123 232.65571 
L 220.083951 232.450329 
L 220.460503 232.070275 
L 220.837055 231.270182 
L 221.401883 228.699951 
L 222.343263 223.362207 
L 222.90809 221.617059 
L 223.284642 220.928822 
L 223.84947 220.433715 
L 224.414298 220.156213 
L 225.73223 219.888309 
L 226.108782 219.827832 
L 227.050161 219.427002 
L 228.179817 218.13727 
L 228.556369 217.02669 
L 228.932921 215.954611 
L 229.686025 212.550885 
L 230.439129 209.409494 
L 230.815681 208.255685 
L 231.003957 208.077276 
L 231.380508 207.2934 
L 231.75706 206.999914 
L 232.321888 206.742578 
L 234.204648 206.790389 
L 235.710855 206.684981 
L 236.463959 206.436081 
L 236.840511 206.226387 
L 237.405339 205.982488 
L 237.970167 205.35174 
L 238.534995 204.787593 
L 239.664651 203.046991 
L 241.170858 202.307635 
L 241.54741 202.17181 
L 243.994997 201.496065 
L 245.689481 200.244999 
L 246.066033 199.956015 
L 246.442585 199.667192 
L 246.630861 199.309901 
L 246.819137 199.347906 
L 247.383965 198.485201 
L 248.701896 195.330252 
L 249.455 193.017552 
L 249.643276 192.704962 
L 250.208104 190.831592 
L 250.584656 189.990556 
L 251.149484 188.282728 
L 251.902588 186.128785 
L 252.655691 183.008257 
L 253.032243 182.064948 
L 253.408795 181.114397 
L 253.785347 179.031846 
L 254.161899 178.066006 
L 254.726727 175.871874 
L 255.103279 174.501384 
L 255.479831 173.665054 
L 256.044659 172.38769 
L 256.986038 170.877953 
L 257.550866 170.289662 
L 258.115694 170.099015 
L 258.680522 169.826849 
L 259.057074 169.828744 
L 259.433626 169.68348 
L 259.621902 169.727026 
L 259.998454 169.606777 
L 260.18673 169.614135 
L 260.751558 169.058287 
L 261.504661 168.255638 
L 261.692937 167.941305 
L 261.881213 167.89744 
L 262.257765 167.397761 
L 262.822593 166.581689 
L 263.763973 164.252135 
L 264.140525 162.664999 
L 264.328801 162.302814 
L 264.893629 160.297624 
L 265.458457 158.004826 
L 265.835008 156.658477 
L 266.21156 155.787111 
L 267.341216 154.323718 
L 267.717768 154.014715 
L 268.09432 153.68919 
L 268.847424 152.990085 
L 269.0357 153.062878 
L 269.600528 152.97034 
L 270.165355 152.761109 
L 270.541907 152.505108 
L 270.730183 152.575035 
L 271.295011 152.30109 
L 272.236391 151.337538 
L 272.424667 151.320238 
L 273.366047 150.082517 
L 274.307426 147.881948 
L 276.190186 142.82452 
L 277.131566 139.485476 
L 277.508118 137.818896 
L 279.767429 128.15279 
L 279.955705 127.964317 
L 280.143981 127.591159 
L 280.520533 126.327888 
L 280.897085 125.48485 
L 281.273637 124.38417 
L 281.461913 123.32182 
L 282.026741 121.794746 
L 282.215017 121.227998 
L 282.779844 118.756211 
L 284.286052 110.989458 
L 284.662604 108.641517 
L 284.85088 108.031305 
L 285.79226 103.213314 
L 286.168812 102.043437 
L 286.73364 100.40208 
L 286.921916 100.218572 
L 287.110191 99.634176 
L 288.239847 98.656189 
L 289.746055 98.349951 
L 291.440538 98.274826 
L 294.264678 97.656886 
L 297.465369 97.408643 
L 297.653645 97.325597 
L 297.841921 97.415919 
L 298.783301 97.142118 
L 300.101232 96.165821 
L 300.66606 95.239522 
L 300.854336 95.289491 
L 301.042612 95.154767 
L 302.54882 92.269971 
L 302.737096 92.080205 
L 303.113648 91.306351 
L 303.4902 90.465981 
L 303.678476 89.969989 
L 304.243303 89.499413 
L 304.808131 88.270452 
L 304.996407 88.176262 
L 305.372959 87.530379 
L 305.937787 86.74995 
L 306.314339 86.438426 
L 306.690891 85.928489 
L 306.879167 85.935389 
L 307.255719 85.675322 
L 307.632271 85.654911 
L 309.138478 84.97781 
L 309.51503 84.920616 
L 310.079858 84.739517 
L 310.45641 84.728619 
L 311.774342 84.608494 
L 312.33917 84.639427 
L 314.786757 84.544793 
L 316.104689 84.53695 
L 319.493656 84.491004 
L 323.635727 84.495658 
L 325.330211 84.498688 
L 326.459866 84.504805 
L 327.589522 84.424096 
L 330.225385 84.312452 
L 331.919869 84.16919 
L 336.06194 84.066822 
L 337.568148 84.100918 
L 341.898495 84.036225 
L 345.475738 84.020699 
L 355.266088 83.968497 
L 357.525399 83.939247 
L 363.738506 83.971113 
L 379.930238 83.984648 
L 385.390241 83.976485 
L 407.230251 83.970702 
L 568.582746 83.941851 
L 928.189822 83.941142 
L 970.363636 83.941222 
L 970.363636 83.941222 
" style="fill:none;stroke:#9467bd;stroke-linecap:square;stroke-width:1.5;"/>
   </g>
   <g id="line2d_20">
    <path clip-path="url(#p63c86a7058)" d="M 217.636364 240.009894 
L 218.012916 232.972103 
L 218.389467 231.209233 
L 218.766019 230.752712 
L 219.895675 230.153782 
L 220.272227 229.497852 
L 220.648779 228.126165 
L 221.025331 225.448429 
L 222.343263 214.643043 
L 222.719814 213.303935 
L 223.284642 212.269195 
L 223.661194 211.980886 
L 225.543954 211.057541 
L 226.108782 210.283137 
L 226.67361 209.007724 
L 227.803265 204.392243 
L 228.556369 200.910424 
L 229.497749 198.104196 
L 229.874301 197.578475 
L 230.062577 197.411834 
L 230.627405 196.524429 
L 231.380508 195.98182 
L 231.75706 195.946217 
L 232.886716 195.626665 
L 233.074992 195.679406 
L 234.769476 194.687808 
L 235.146028 194.37669 
L 235.334304 194.32974 
L 235.899131 193.661202 
L 236.463959 192.522914 
L 236.840511 192.04712 
L 237.593615 190.794007 
L 238.158443 190.119924 
L 239.099823 189.420588 
L 239.476375 189.385288 
L 239.852926 189.321069 
L 240.794306 189.249649 
L 241.923962 189.218142 
L 245.124653 189.090335 
L 245.877757 188.872926 
L 247.383965 188.638593 
L 247.760517 188.543368 
L 248.325344 188.423629 
L 249.266724 188.256033 
L 250.019828 188.134066 
L 251.714312 187.679775 
L 251.902588 187.76992 
L 252.655691 187.618182 
L 253.032243 187.209717 
L 254.350175 186.345856 
L 254.726727 186.205088 
L 255.103279 186.037832 
L 255.668107 185.901891 
L 257.739142 185.877304 
L 258.492246 185.563469 
L 259.24535 185.236982 
L 259.810178 185.239693 
L 261.12811 185.082089 
L 261.692937 184.881907 
L 262.069489 184.642085 
L 262.634317 184.380891 
L 263.387421 184.092409 
L 265.458457 183.920153 
L 269.0357 183.807313 
L 269.223976 183.737716 
L 269.600528 183.757765 
L 269.788803 183.622848 
L 269.977079 183.658457 
L 270.918459 183.087276 
L 271.295011 182.659217 
L 272.236391 181.594341 
L 272.801219 180.744064 
L 273.742599 180.001915 
L 274.683978 179.767378 
L 275.813634 179.72185 
L 276.94329 179.588975 
L 279.014325 178.932148 
L 281.461913 178.733408 
L 281.650189 178.608166 
L 282.026741 178.114747 
L 282.215017 178.113067 
L 283.156396 176.796598 
L 285.039156 172.448369 
L 285.79226 171.614332 
L 286.545364 171.42589 
L 287.298467 171.445945 
L 287.675019 171.276591 
L 288.051571 170.929866 
L 288.804675 169.35173 
L 288.992951 169.094067 
L 289.369503 167.920181 
L 290.310883 165.073768 
L 290.499159 164.685276 
L 290.687435 164.562635 
L 291.440538 163.579627 
L 292.570194 162.927899 
L 293.135022 162.836117 
L 295.206058 162.710724 
L 296.523989 162.286547 
L 296.712265 162.081396 
L 297.088817 161.921901 
L 297.841921 161.089294 
L 298.218473 160.873681 
L 298.595025 160.484234 
L 298.783301 160.533371 
L 299.159853 160.174731 
L 299.912956 159.68204 
L 300.477784 159.521506 
L 301.230888 159.165601 
L 306.126063 158.933623 
L 306.879167 158.306955 
L 307.067443 158.511528 
L 307.255719 158.406462 
L 308.008823 157.107573 
L 309.703306 152.979388 
L 310.079858 151.829899 
L 310.45641 150.950998 
L 310.832962 149.98351 
L 311.39779 148.523693 
L 311.774342 148.070069 
L 312.715721 147.639475 
L 313.092273 147.631671 
L 314.975033 147.591952 
L 315.351585 147.629071 
L 315.916413 147.288042 
L 316.104689 147.146287 
L 316.481241 146.577057 
L 316.857793 146.451574 
L 317.234344 145.92239 
L 317.610896 145.268942 
L 318.175724 143.912997 
L 318.552276 142.704315 
L 318.928828 141.062764 
L 319.30538 139.870805 
L 319.681932 139.068635 
L 320.435036 136.929884 
L 320.811588 135.933943 
L 321.376415 134.750302 
L 321.752967 133.222222 
L 322.694347 130.479025 
L 323.070899 129.707026 
L 323.824003 128.887972 
L 324.200555 128.301857 
L 324.577107 128.037806 
L 325.895038 127.801047 
L 326.459866 127.022818 
L 326.836418 126.158708 
L 327.21297 125.043698 
L 327.401246 124.760097 
L 327.777798 123.854587 
L 328.530902 122.631254 
L 329.09573 122.234932 
L 329.472282 122.186757 
L 330.225385 122.211951 
L 330.790213 122.104877 
L 331.166765 122.07461 
L 331.731593 121.888042 
L 332.672973 121.023295 
L 333.049525 120.864196 
L 333.237801 120.599378 
L 333.426077 120.667683 
L 333.614353 120.526728 
L 333.802629 120.555764 
L 334.17918 120.360501 
L 335.497112 120.280832 
L 336.438492 120.180724 
L 337.191596 119.825748 
L 337.379872 119.532187 
L 338.132976 119.082247 
L 338.886079 118.333958 
L 340.204011 115.07844 
L 340.392287 114.902455 
L 340.768839 113.822092 
L 340.957115 113.674747 
L 341.333667 112.88286 
L 341.521943 112.764681 
L 342.086771 111.703428 
L 342.463323 111.364805 
L 342.651599 111.218456 
L 342.839874 110.871884 
L 344.157806 110.316655 
L 347.170221 110.212221 
L 347.546773 110.195997 
L 348.111601 109.987148 
L 349.241257 109.958053 
L 351.124017 109.842734 
L 351.87712 109.761645 
L 352.065396 109.790388 
L 352.441948 109.667689 
L 355.830915 109.462483 
L 356.772295 109.382749 
L 357.713675 109.242068 
L 358.466779 108.617284 
L 358.843331 108.670425 
L 359.031607 108.433244 
L 359.408159 108.401741 
L 359.784711 108.191903 
L 360.161262 107.770485 
L 360.349538 107.708827 
L 361.855746 105.03396 
L 362.797126 102.947626 
L 362.985402 102.505036 
L 363.361954 102.282135 
L 363.55023 101.346468 
L 363.926782 100.878909 
L 364.491609 98.560328 
L 364.679885 98.249884 
L 365.997817 94.280119 
L 366.939197 93.19945 
L 367.880577 92.61692 
L 368.068853 92.67998 
L 368.445405 92.515499 
L 369.010232 92.534389 
L 369.198508 92.459596 
L 369.57506 92.485289 
L 370.328164 92.340453 
L 372.022648 92.23157 
L 372.587476 92.12078 
L 372.775752 92.198157 
L 373.340579 92.110743 
L 373.905407 91.999872 
L 374.846787 91.929233 
L 375.035063 91.940189 
L 375.788167 91.645004 
L 376.729547 91.506276 
L 377.859202 91.545663 
L 378.42403 91.471074 
L 380.495066 91.339569 
L 382.942653 90.480849 
L 385.013689 89.620076 
L 386.708172 89.550916 
L 387.273 89.341131 
L 391.979899 89.185027 
L 392.356451 88.974552 
L 392.733003 89.030511 
L 392.921279 89.078541 
L 393.297831 88.842111 
L 393.486107 88.964484 
L 394.050935 88.59764 
L 394.427486 88.070102 
L 394.992314 87.112831 
L 395.368866 86.40308 
L 395.557142 86.500343 
L 395.933694 86.127583 
L 396.686798 85.381349 
L 397.251626 85.104174 
L 397.439902 85.027602 
L 397.628178 85.137778 
L 398.00473 84.831385 
L 398.757833 84.489398 
L 399.322661 84.4354 
L 400.640593 84.383863 
L 401.017145 84.266831 
L 401.958525 83.614613 
L 403.653008 80.203691 
L 405.535768 74.572964 
L 405.724044 74.20835 
L 406.100596 73.33154 
L 407.606803 71.017149 
L 407.983355 70.656422 
L 408.548183 69.82468 
L 408.736459 69.786335 
L 410.054391 68.334224 
L 410.430943 68.171032 
L 410.807495 67.654909 
L 411.184047 67.737044 
L 411.560598 67.402462 
L 412.125426 67.241072 
L 412.501978 67.046366 
L 412.87853 66.992756 
L 413.255082 66.811005 
L 414.384738 66.697902 
L 415.890945 66.694143 
L 417.020601 66.679131 
L 425.681295 66.659486 
L 427.940607 66.618605 
L 429.070262 66.621675 
L 431.51785 66.622128 
L 446.39165 66.566399 
L 450.157169 66.495814 
L 451.286825 66.518485 
L 455.428896 66.442865 
L 455.805448 66.393937 
L 456.558552 66.307193 
L 457.311656 66.227968 
L 457.876484 66.254696 
L 461.642003 66.254131 
L 463.14821 66.063771 
L 463.524762 66.13259 
L 466.160626 65.718961 
L 467.102006 65.296859 
L 467.478557 65.398396 
L 467.855109 65.184213 
L 468.419937 65.106579 
L 469.926145 65.000872 
L 470.867525 64.808656 
L 471.99718 64.676257 
L 473.503388 64.691678 
L 478.210287 64.700511 
L 478.775115 64.6998 
L 479.339943 64.564455 
L 480.469598 64.424905 
L 489.883396 63.985279 
L 490.6365 63.739755 
L 491.57788 63.550762 
L 492.142708 63.432956 
L 492.895812 63.383724 
L 493.272363 63.348097 
L 493.837191 63.245471 
L 494.213743 63.262557 
L 496.284779 63.252291 
L 499.297194 63.234449 
L 500.991678 63.234731 
L 502.497885 63.184715 
L 505.510301 63.145383 
L 514.547547 63.115431 
L 516.24203 63.100695 
L 529.233071 62.956003 
L 563.311019 62.798509 
L 565.946883 62.705293 
L 567.264814 62.703981 
L 569.712402 62.663022 
L 571.030333 62.689386 
L 574.607577 62.6694 
L 581.385511 62.555964 
L 583.644822 62.463408 
L 586.657238 62.475062 
L 588.728273 62.414357 
L 591.928964 62.334774 
L 592.682068 62.355449 
L 596.824139 62.329877 
L 620.735186 62.262841 
L 621.300014 62.221812 
L 625.065533 62.247876 
L 639.186229 62.187933 
L 643.516576 62.191348 
L 646.905544 62.163179 
L 648.223475 62.113461 
L 650.671063 62.03236 
L 653.871754 62.036713 
L 695.857292 62.027118 
L 698.116604 62.00639 
L 715.814544 61.96894 
L 716.944199 61.937619 
L 719.391787 61.944406 
L 734.830415 61.821943 
L 736.148347 61.869132 
L 737.842831 61.864673 
L 740.102142 61.845306 
L 744.809041 61.849325 
L 745.938697 61.823195 
L 759.682841 61.851772 
L 769.284915 61.767823 
L 774.368366 61.640571 
L 780.016645 61.679149 
L 781.711128 61.673494 
L 783.02906 61.699039 
L 785.664923 61.682285 
L 791.87803 61.683563 
L 799.78562 61.686371 
L 857.774615 61.583297 
L 867.564964 61.604956 
L 869.447724 61.607215 
L 872.460139 61.561187 
L 874.719451 61.534944 
L 876.978762 61.57433 
L 879.238074 61.583141 
L 904.467052 61.504847 
L 924.236027 61.442595 
L 928.566374 61.447396 
L 970.363636 61.367014 
L 970.363636 61.367014 
" style="fill:none;stroke:#8c564b;stroke-linecap:square;stroke-width:1.5;"/>
   </g>
   <g id="line2d_21">
    <path clip-path="url(#p63c86a7058)" d="M 217.636364 241.590359 
L 218.012916 235.730396 
L 218.389467 234.253495 
L 218.766019 233.866379 
L 220.083951 233.219449 
L 220.460503 232.602696 
L 220.837055 231.379183 
L 221.590159 227.882896 
L 222.154987 225.692673 
L 222.719814 224.529986 
L 223.472918 223.723662 
L 224.037746 223.509914 
L 224.414298 223.28034 
L 224.979126 223.020333 
L 225.543954 222.618599 
L 225.920506 222.415735 
L 226.297058 222.06033 
L 226.67361 221.869932 
L 226.861885 221.756459 
L 227.614989 220.538707 
L 229.686025 217.303719 
L 230.439129 216.568272 
L 231.003957 216.158728 
L 232.133612 215.784948 
L 232.886716 215.544134 
L 233.263268 215.489708 
L 234.957752 214.93336 
L 235.899131 214.205431 
L 236.652235 213.439029 
L 237.028787 212.750212 
L 237.781891 211.54318 
L 238.158443 210.417173 
L 238.346719 210.084812 
L 238.911547 208.362463 
L 239.099823 208.004587 
L 239.664651 206.31224 
L 239.852926 205.811202 
L 240.229478 205.411021 
L 240.794306 204.809912 
L 241.170858 204.616728 
L 241.923962 204.031203 
L 242.300514 203.932928 
L 242.677066 203.637208 
L 243.053618 203.47624 
L 243.994997 202.134024 
L 244.183273 201.894041 
L 244.559825 201.143118 
L 244.748101 200.689551 
L 245.124653 199.520552 
L 246.254309 195.871984 
L 246.819137 193.997996 
L 247.195689 192.91139 
L 247.760517 191.282904 
L 248.325344 190.370434 
L 248.51362 190.191469 
L 248.701896 189.709184 
L 249.078448 189.393132 
L 249.455 188.821528 
L 250.019828 188.617635 
L 250.39638 188.293777 
L 251.902588 187.515656 
L 252.090864 187.528844 
L 252.467416 187.242098 
L 252.843967 187.093908 
L 255.668107 186.488902 
L 256.609487 186.386883 
L 258.30397 186.305111 
L 258.868798 186.253445 
L 260.563282 186.278309 
L 260.939834 186.117153 
L 261.12811 186.133964 
L 261.692937 185.879532 
L 261.881213 185.797431 
L 262.257765 185.173549 
L 262.446041 185.148969 
L 262.822593 184.81834 
L 263.010869 184.68949 
L 263.387421 184.053576 
L 263.763973 183.566077 
L 264.140525 182.918625 
L 265.646732 181.00532 
L 266.023284 180.525136 
L 266.399836 179.55078 
L 267.529492 177.869483 
L 268.847424 175.871486 
L 269.412252 174.634274 
L 272.236391 171.632419 
L 272.424667 171.636427 
L 272.801219 171.494198 
L 273.366047 171.458371 
L 273.742599 171.292436 
L 275.813634 170.587599 
L 276.755014 169.876777 
L 277.319842 169.378203 
L 277.508118 169.522878 
L 277.696394 169.446551 
L 278.072946 169.047804 
L 278.261222 169.003059 
L 278.449497 168.563266 
L 279.014325 168.208356 
L 279.767429 166.929844 
L 279.955705 166.928155 
L 280.332257 166.447525 
L 281.461913 165.651945 
L 281.650189 165.750703 
L 282.96812 165.295041 
L 283.344672 165.413442 
L 283.721224 165.271846 
L 284.474328 165.041496 
L 284.85088 165.088728 
L 285.227432 164.837859 
L 285.79226 164.445372 
L 285.980536 164.443675 
L 286.545364 163.529603 
L 286.73364 163.407829 
L 287.110191 162.551716 
L 287.486743 161.531739 
L 288.428123 159.622414 
L 288.616399 159.421676 
L 288.992951 158.593405 
L 289.557779 156.803973 
L 290.687435 152.641563 
L 291.252262 150.828029 
L 291.81709 149.116404 
L 293.511574 143.861767 
L 294.264678 141.745543 
L 294.452954 141.772377 
L 295.770885 138.082326 
L 296.712265 136.50887 
L 296.900541 136.450416 
L 297.277093 135.690256 
L 297.465369 135.42327 
L 297.841921 135.26647 
L 298.406749 134.89922 
L 298.971577 134.724554 
L 300.289508 134.644888 
L 300.66606 134.219833 
L 301.795716 130.685236 
L 302.54882 125.916475 
L 302.925372 123.764232 
L 303.113648 122.98468 
L 303.4902 120.667615 
L 303.678476 120.076511 
L 304.243303 116.144216 
L 305.184683 113.118991 
L 305.561235 112.548538 
L 305.749511 112.399644 
L 306.126063 111.743387 
L 306.879167 110.984268 
L 308.57365 110.456095 
L 308.761926 110.461442 
L 309.138478 110.060831 
L 309.51503 109.908774 
L 310.079858 109.782056 
L 310.832962 109.722511 
L 312.150894 109.357167 
L 312.527446 109.247837 
L 314.221929 107.738754 
L 314.410205 107.417746 
L 314.598481 107.33633 
L 315.163309 106.411517 
L 315.351585 106.105034 
L 315.728137 105.820659 
L 316.104689 105.065662 
L 316.292965 105.064573 
L 316.857793 104.200157 
L 317.046068 103.926169 
L 317.234344 103.958879 
L 317.42262 103.869859 
L 317.987448 103.087501 
L 318.175724 103.021438 
L 318.740552 102.376244 
L 319.117104 102.349381 
L 319.493656 102.100961 
L 320.24676 101.895871 
L 320.999864 101.834968 
L 322.694347 101.723463 
L 324.953659 98.263425 
L 325.330211 97.510415 
L 325.706762 97.031244 
L 326.083314 96.196138 
L 326.459866 96.078084 
L 326.836418 95.312052 
L 327.966074 94.398966 
L 328.15435 94.502554 
L 328.530902 94.384561 
L 329.09573 94.277937 
L 329.472282 94.280668 
L 331.166765 94.085557 
L 331.731593 94.014963 
L 333.802629 93.792881 
L 334.555732 93.667196 
L 334.932284 93.580224 
L 335.685388 93.482393 
L 336.06194 93.156464 
L 337.379872 92.416326 
L 339.450907 92.166677 
L 339.827459 92.217935 
L 341.333667 92.089802 
L 345.287462 91.883102 
L 347.170221 91.910252 
L 350.370913 91.889361 
L 356.395743 91.908606 
L 357.713675 91.908736 
L 361.479194 91.875759 
L 363.361954 91.86976 
L 374.658511 91.855674 
L 466.537178 91.887876 
L 520.572377 91.891878 
L 643.328301 91.889856 
L 970.363636 91.889333 
L 970.363636 91.889333 
" style="fill:none;stroke:#e377c2;stroke-linecap:square;stroke-width:1.5;"/>
   </g>
   <g id="line2d_22">
    <path clip-path="url(#p63c86a7058)" d="M 217.636364 240.029574 
L 218.012916 233.014068 
L 218.389467 231.266559 
L 218.766019 230.823796 
L 219.895675 230.311048 
L 220.272227 229.736011 
L 220.648779 228.544621 
L 221.025331 226.250229 
L 222.343263 215.996791 
L 222.719814 214.598671 
L 223.096366 213.788005 
L 223.661194 213.16156 
L 224.414298 212.708726 
L 224.79085 212.618197 
L 225.73223 212.213095 
L 226.297058 211.429627 
L 226.861885 209.757799 
L 227.614989 206.452265 
L 228.179817 203.932073 
L 229.121197 201.398421 
L 229.874301 200.345986 
L 230.250853 199.998192 
L 230.815681 199.761401 
L 231.192232 199.643984 
L 231.568784 199.497569 
L 232.510164 198.964821 
L 233.074992 198.283892 
L 233.828096 197.079804 
L 234.5812 195.516293 
L 234.957752 194.558359 
L 235.710855 192.763219 
L 236.652235 191.204261 
L 236.840511 190.746653 
L 238.534995 189.398545 
L 239.288099 189.194145 
L 239.852926 189.134816 
L 240.417754 189.144312 
L 242.300514 189.145667 
L 244.371549 189.04202 
L 245.124653 188.866244 
L 245.501205 188.656226 
L 245.877757 188.622443 
L 246.442585 188.314754 
L 247.383965 188.072027 
L 248.325344 188.059224 
L 251.902588 187.87047 
L 253.220519 186.859531 
L 253.597071 186.407706 
L 255.103279 184.434442 
L 255.479831 183.788597 
L 255.668107 183.710457 
L 256.044659 183.233298 
L 256.421211 183.102916 
L 256.986038 183.024442 
L 258.30397 182.880639 
L 258.492246 182.808184 
L 258.868798 182.581081 
L 259.433626 181.978423 
L 259.810178 181.39292 
L 261.692937 179.493607 
L 263.199145 179.073397 
L 263.952249 178.510771 
L 264.893629 175.690464 
L 265.270181 173.528416 
L 267.717768 149.205776 
L 268.09432 147.401161 
L 268.659148 144.546439 
L 269.223976 143.043099 
L 269.412252 142.943233 
L 269.788803 142.466724 
L 270.353631 142.154124 
L 271.483287 142.116099 
L 274.11915 142.018681 
L 275.06053 141.989423 
L 278.637773 141.933828 
L 279.202601 141.719817 
L 279.579153 141.702293 
L 280.708809 140.91063 
L 281.085361 140.251218 
L 281.461913 139.188258 
L 282.403293 136.583729 
L 282.96812 134.104658 
L 283.156396 133.699618 
L 283.9095 130.349658 
L 284.286052 128.880251 
L 285.039156 126.568978 
L 285.227432 126.259149 
L 285.980536 123.751411 
L 286.357088 123.220428 
L 287.110191 122.343888 
L 287.298467 122.324422 
L 287.486743 122.174726 
L 288.051571 122.084866 
L 288.804675 122.043945 
L 290.875711 120.90399 
L 292.193642 120.83404 
L 292.75847 120.424871 
L 293.323298 120.070015 
L 293.511574 119.699067 
L 293.69985 119.078888 
L 293.888126 118.963181 
L 294.264678 117.9565 
L 295.017782 115.621318 
L 295.394334 114.939936 
L 296.712265 110.291192 
L 297.465369 107.906209 
L 297.841921 107.359981 
L 298.595025 106.63483 
L 299.912956 106.388477 
L 300.66606 106.368748 
L 301.795716 106.202461 
L 302.737096 106.225527 
L 304.055028 106.04575 
L 304.243303 105.930231 
L 304.619855 105.425176 
L 305.184683 104.737828 
L 306.879167 99.734926 
L 307.255719 98.221917 
L 308.008823 96.624539 
L 308.385375 95.480962 
L 308.761926 94.942382 
L 309.138478 94.638579 
L 309.326754 94.186097 
L 309.51503 94.075194 
L 309.891582 93.433083 
L 310.268134 93.053598 
L 311.209514 91.951389 
L 312.33917 91.754569 
L 312.715721 91.707181 
L 313.092273 91.408394 
L 313.280549 91.373452 
L 313.468825 91.209279 
L 313.845377 91.226798 
L 314.033653 90.793151 
L 314.221929 90.837343 
L 314.598481 90.357596 
L 314.786757 90.377009 
L 314.975033 90.241682 
L 315.728137 88.966615 
L 315.916413 88.815656 
L 316.292965 87.602176 
L 316.669517 86.739474 
L 317.234344 84.090509 
L 317.799172 81.606873 
L 318.175724 79.453954 
L 319.493656 74.079954 
L 319.870208 73.372303 
L 320.24676 72.109793 
L 320.435036 71.697602 
L 320.623312 71.609907 
L 320.999864 70.782123 
L 321.941243 69.572607 
L 322.694347 68.669761 
L 322.882623 68.601386 
L 323.259175 68.250507 
L 324.577107 67.846233 
L 325.141935 67.83731 
L 326.27159 67.860802 
L 328.342626 67.682979 
L 330.601937 67.340627 
L 332.484697 66.654302 
L 332.672973 66.70786 
L 332.861249 66.536784 
L 333.614353 66.552441 
L 334.744008 66.063001 
L 335.685388 65.57858 
L 335.873664 65.366535 
L 336.626768 65.212062 
L 337.379872 64.880452 
L 337.756424 64.735316 
L 339.639183 64.211167 
L 340.015735 64.287747 
L 340.580563 64.027473 
L 341.145391 64.082936 
L 342.651599 64.069634 
L 343.592978 64.10374 
L 346.417118 64.088582 
L 348.299877 64.118031 
L 356.772295 64.113254 
L 362.044022 64.03355 
L 366.374369 63.988953 
L 437.919232 63.990896 
L 532.245486 63.993276 
L 753.281459 63.992521 
L 970.363636 63.993249 
L 970.363636 63.993249 
" style="fill:none;stroke:#7f7f7f;stroke-linecap:square;stroke-width:1.5;"/>
   </g>
   <g id="line2d_23">
    <path clip-path="url(#p63c86a7058)" d="M 217.636364 239.056713 
L 218.012916 231.311928 
L 218.389467 229.362055 
L 218.766019 228.809207 
L 219.330847 228.276636 
L 219.707399 227.485009 
L 220.083951 225.690119 
L 220.460503 222.110878 
L 221.025331 213.333604 
L 221.590159 205.191283 
L 222.154987 200.547615 
L 222.531538 198.977449 
L 222.90809 198.071535 
L 223.472918 197.220009 
L 224.414298 195.912804 
L 224.79085 195.035971 
L 225.355678 192.673495 
L 225.920506 188.676544 
L 226.485334 183.184513 
L 227.426713 174.510369 
L 228.368093 169.087085 
L 229.309473 166.161786 
L 229.874301 164.726554 
L 230.250853 163.705024 
L 231.75706 157.899805 
L 232.133612 156.087262 
L 233.451544 146.560086 
L 234.957752 135.865821 
L 237.593615 121.942702 
L 239.099823 113.342889 
L 239.664651 109.66674 
L 241.170858 99.007599 
L 243.806722 79.028584 
L 243.994997 78.215132 
L 244.559825 74.904213 
L 244.936377 73.412279 
L 246.066033 69.532285 
L 246.819137 67.954123 
L 248.51362 66.338441 
L 248.890172 65.891112 
L 249.266724 65.450889 
L 249.643276 64.743983 
L 250.019828 64.133984 
L 250.39638 63.1585 
L 252.467416 56.481439 
L 252.843967 55.549337 
L 253.408795 53.920526 
L 254.538451 51.186627 
L 255.668107 49.43562 
L 256.232935 48.78997 
L 256.986038 48.081363 
L 257.550866 47.869717 
L 258.115694 47.438416 
L 258.680522 47.376119 
L 259.057074 47.188698 
L 260.751558 46.546085 
L 261.12811 46.418748 
L 262.257765 46.174931 
L 263.010869 46.043574 
L 265.081905 45.955454 
L 266.776388 45.814637 
L 276.190186 45.687214 
L 278.261222 45.454924 
L 279.202601 45.272056 
L 287.863295 44.980258 
L 293.888126 45.002234 
L 295.770885 45.007927 
L 297.088817 45.00123 
L 299.536405 44.942385 
L 302.172268 44.872241 
L 310.644686 44.464218 
L 314.221929 44.488135 
L 316.481241 44.493637 
L 322.317795 44.480927 
L 337.756424 44.488946 
L 409.489563 44.476837 
L 611.69794 44.473886 
L 970.363636 44.474516 
L 970.363636 44.474516 
" style="fill:none;stroke:#bcbd22;stroke-linecap:square;stroke-width:1.5;"/>
   </g>
   <g id="line2d_24">
    <path clip-path="url(#p63c86a7058)" d="M 217.636364 241.508198 
L 218.012916 235.584874 
L 218.389467 234.088682 
L 218.766019 233.699458 
L 220.083951 233.091745 
L 220.460503 232.502278 
L 220.837055 231.372975 
L 221.590159 227.811439 
L 222.154987 225.675256 
L 222.719814 224.337401 
L 223.284642 223.598667 
L 224.602574 222.654613 
L 225.167402 222.419204 
L 225.920506 221.907648 
L 226.485334 221.422033 
L 226.67361 221.332195 
L 227.050161 220.790818 
L 227.238437 220.597415 
L 227.614989 219.770465 
L 230.815681 213.968165 
L 231.192232 213.652879 
L 231.380508 213.270328 
L 231.75706 213.009115 
L 232.133612 212.767588 
L 232.510164 212.692135 
L 233.074992 212.112839 
L 233.63982 211.823051 
L 233.828096 211.738748 
L 234.392924 211.198233 
L 235.146028 210.838196 
L 235.522579 210.451378 
L 236.275683 210.107981 
L 237.028787 209.53367 
L 237.781891 209.143987 
L 238.534995 208.974454 
L 239.664651 208.034892 
L 239.852926 208.057274 
L 240.229478 207.871657 
L 240.794306 207.796203 
L 241.923962 207.445105 
L 242.300514 207.359386 
L 243.994997 206.925762 
L 245.124653 206.064251 
L 245.689481 205.741311 
L 246.630861 204.598984 
L 248.137069 201.563581 
L 249.455 198.126392 
L 249.643276 197.428922 
L 249.831552 197.194356 
L 250.39638 195.730073 
L 251.526036 193.783535 
L 252.27914 192.772274 
L 252.467416 192.570928 
L 252.843967 191.568995 
L 253.408795 191.189247 
L 254.538451 189.665046 
L 255.291555 189.190211 
L 255.856383 188.975847 
L 256.232935 188.990873 
L 256.986038 188.947559 
L 258.492246 188.822615 
L 259.621902 188.263961 
L 260.375006 188.151417 
L 265.646732 187.857911 
L 266.023284 187.678242 
L 266.21156 187.667363 
L 266.588112 187.279012 
L 266.964664 187.055052 
L 267.341216 186.636329 
L 267.717768 185.975129 
L 267.906044 185.792128 
L 268.282596 184.945242 
L 268.470872 184.346766 
L 268.659148 184.166367 
L 269.0357 183.211264 
L 269.223976 183.107213 
L 269.788803 182.49825 
L 269.977079 182.265399 
L 271.671563 182.008724 
L 274.307426 181.931397 
L 275.437082 180.600499 
L 276.755014 177.135393 
L 277.508118 174.173927 
L 277.696394 173.377519 
L 278.449497 167.904198 
L 278.826049 166.052436 
L 279.767429 159.302788 
L 280.897085 154.406827 
L 281.461913 153.453341 
L 282.96812 152.92755 
L 283.344672 152.847877 
L 284.097776 152.819842 
L 285.415708 152.140733 
L 285.980536 151.030757 
L 286.545364 149.363378 
L 288.051571 143.2977 
L 289.369503 135.63885 
L 289.557779 134.912863 
L 290.122607 131.398367 
L 290.310883 130.354406 
L 290.875711 125.317691 
L 291.252262 123.569685 
L 291.628814 120.656292 
L 292.005366 118.657819 
L 292.381918 116.350895 
L 292.570194 115.710369 
L 294.076402 107.373921 
L 294.64123 105.198922 
L 295.017782 104.299824 
L 295.394334 103.047881 
L 295.770885 102.554878 
L 295.959161 102.071736 
L 296.335713 101.927452 
L 296.523989 101.287435 
L 296.712265 101.179217 
L 297.653645 99.135594 
L 298.030197 98.731771 
L 298.218473 98.62766 
L 298.783301 97.931873 
L 298.971577 97.962942 
L 299.159853 97.690534 
L 299.536405 97.525365 
L 299.724681 97.319492 
L 299.912956 97.325864 
L 300.101232 96.88869 
L 301.419164 95.830629 
L 301.60744 95.907272 
L 302.360544 95.322947 
L 302.925372 94.983537 
L 303.113648 94.916827 
L 303.4902 94.951607 
L 303.866752 94.868916 
L 305.561235 94.840821 
L 307.820547 94.852585 
L 310.832962 94.802033 
L 311.39779 94.731084 
L 311.962618 94.689985 
L 313.092273 94.509575 
L 313.468825 94.615087 
L 314.410205 94.209317 
L 314.786757 93.813449 
L 314.975033 93.819855 
L 315.728137 93.202821 
L 316.104689 93.100394 
L 318.175724 91.624895 
L 318.740552 91.680785 
L 320.435036 91.200214 
L 320.999864 91.238556 
L 321.376415 91.224341 
L 322.129519 91.097101 
L 322.694347 90.936043 
L 323.635727 90.928433 
L 324.388831 90.822259 
L 325.895038 90.815734 
L 326.459866 90.775101 
L 327.401246 90.806009 
L 337.00332 90.517935 
L 337.756424 90.392724 
L 339.827459 90.154776 
L 342.839874 90.240597 
L 349.994361 90.235273 
L 352.441948 90.226675 
L 353.571604 90.222124 
L 354.889536 90.216892 
L 355.64264 90.212124 
L 356.207467 90.060252 
L 360.161262 89.745939 
L 361.66747 89.725524 
L 363.173678 89.671436 
L 543.542044 89.68151 
L 970.363636 89.681391 
L 970.363636 89.681391 
" style="fill:none;stroke:#17becf;stroke-linecap:square;stroke-width:1.5;"/>
   </g>
   <g id="patch_3">
    <path d="M 180 252 
L 180 34.56 
" style="fill:none;stroke:#000000;stroke-linecap:square;stroke-linejoin:miter;stroke-width:0.8;"/>
   </g>
   <g id="patch_4">
    <path d="M 1008 252 
L 1008 34.56 
" style="fill:none;stroke:#000000;stroke-linecap:square;stroke-linejoin:miter;stroke-width:0.8;"/>
   </g>
   <g id="patch_5">
    <path d="M 180 252 
L 1008 252 
" style="fill:none;stroke:#000000;stroke-linecap:square;stroke-linejoin:miter;stroke-width:0.8;"/>
   </g>
   <g id="patch_6">
    <path d="M 180 34.56 
L 1008 34.56 
" style="fill:none;stroke:#000000;stroke-linecap:square;stroke-linejoin:miter;stroke-width:0.8;"/>
   </g>
   <g id="legend_1">
    <g id="patch_7">
     <path d="M 1054.6 152.693437 
L 1262.067812 152.693437 
Q 1267.267812 152.693437 1267.267812 147.493437 
L 1267.267812 39.76 
Q 1267.267812 34.56 1262.067812 34.56 
L 1054.6 34.56 
Q 1049.4 34.56 1049.4 39.76 
L 1049.4 147.493437 
Q 1049.4 152.693437 1054.6 152.693437 
z
" style="fill:#ffffff;opacity:0.8;stroke:#cccccc;stroke-linejoin:miter;"/>
    </g>
    <g id="line2d_25">
     <path d="M 1059.8 54.470312 
L 1111.8 54.470312 
" style="fill:none;stroke:#1f77b4;stroke-linecap:square;stroke-width:1.5;"/>
    </g>
    <g id="line2d_26"/>
    <g id="text_10">
     <!-- oscillator 1 -->
     <defs>
      <path d="M 3.328125 25.921875 
Q 3.328125 40.328125 11.328125 47.265625 
Q 18.015625 53.03125 27.640625 53.03125 
Q 38.328125 53.03125 45.109375 46.015625 
Q 51.90625 39.015625 51.90625 26.65625 
Q 51.90625 16.65625 48.90625 10.90625 
Q 45.90625 5.171875 40.15625 2 
Q 34.421875 -1.171875 27.640625 -1.171875 
Q 16.75 -1.171875 10.03125 5.8125 
Q 3.328125 12.796875 3.328125 25.921875 
z
M 12.359375 25.921875 
Q 12.359375 15.96875 16.703125 11.015625 
Q 21.046875 6.0625 27.640625 6.0625 
Q 34.1875 6.0625 38.53125 11.03125 
Q 42.875 16.015625 42.875 26.21875 
Q 42.875 35.84375 38.5 40.796875 
Q 34.125 45.75 27.640625 45.75 
Q 21.046875 45.75 16.703125 40.8125 
Q 12.359375 35.890625 12.359375 25.921875 
z
" id="ArialMT-111"/>
      <path d="M 6.640625 61.46875 
L 6.640625 71.578125 
L 15.4375 71.578125 
L 15.4375 61.46875 
z
M 6.640625 0 
L 6.640625 51.859375 
L 15.4375 51.859375 
L 15.4375 0 
z
" id="ArialMT-105"/>
     </defs>
     <g transform="translate(1132.6 63.570312)scale(0.26 -0.26)">
      <use xlink:href="#ArialMT-111"/>
      <use x="55.615234" xlink:href="#ArialMT-115"/>
      <use x="105.615234" xlink:href="#ArialMT-99"/>
      <use x="155.615234" xlink:href="#ArialMT-105"/>
      <use x="177.832031" xlink:href="#ArialMT-108"/>
      <use x="200.048828" xlink:href="#ArialMT-108"/>
      <use x="222.265625" xlink:href="#ArialMT-97"/>
      <use x="277.880859" xlink:href="#ArialMT-116"/>
      <use x="305.664062" xlink:href="#ArialMT-111"/>
      <use x="361.279297" xlink:href="#ArialMT-114"/>
      <use x="394.580078" xlink:href="#ArialMT-32"/>
      <use x="422.363281" xlink:href="#ArialMT-49"/>
     </g>
    </g>
    <g id="line2d_27">
     <path d="M 1059.8 91.248125 
L 1111.8 91.248125 
" style="fill:none;stroke:#ff7f0e;stroke-linecap:square;stroke-width:1.5;"/>
    </g>
    <g id="line2d_28"/>
    <g id="text_11">
     <!-- oscillator 2 -->
     <g transform="translate(1132.6 100.348125)scale(0.26 -0.26)">
      <use xlink:href="#ArialMT-111"/>
      <use x="55.615234" xlink:href="#ArialMT-115"/>
      <use x="105.615234" xlink:href="#ArialMT-99"/>
      <use x="155.615234" xlink:href="#ArialMT-105"/>
      <use x="177.832031" xlink:href="#ArialMT-108"/>
      <use x="200.048828" xlink:href="#ArialMT-108"/>
      <use x="222.265625" xlink:href="#ArialMT-97"/>
      <use x="277.880859" xlink:href="#ArialMT-116"/>
      <use x="305.664062" xlink:href="#ArialMT-111"/>
      <use x="361.279297" xlink:href="#ArialMT-114"/>
      <use x="394.580078" xlink:href="#ArialMT-32"/>
      <use x="422.363281" xlink:href="#ArialMT-50"/>
     </g>
    </g>
    <g id="line2d_29">
     <path d="M 1059.8 128.025937 
L 1111.8 128.025937 
" style="fill:none;stroke:#2ca02c;stroke-linecap:square;stroke-width:1.5;"/>
    </g>
    <g id="line2d_30"/>
    <g id="text_12">
     <!-- oscillator 3 -->
     <g transform="translate(1132.6 137.125937)scale(0.26 -0.26)">
      <use xlink:href="#ArialMT-111"/>
      <use x="55.615234" xlink:href="#ArialMT-115"/>
      <use x="105.615234" xlink:href="#ArialMT-99"/>
      <use x="155.615234" xlink:href="#ArialMT-105"/>
      <use x="177.832031" xlink:href="#ArialMT-108"/>
      <use x="200.048828" xlink:href="#ArialMT-108"/>
      <use x="222.265625" xlink:href="#ArialMT-97"/>
      <use x="277.880859" xlink:href="#ArialMT-116"/>
      <use x="305.664062" xlink:href="#ArialMT-111"/>
      <use x="361.279297" xlink:href="#ArialMT-114"/>
      <use x="394.580078" xlink:href="#ArialMT-32"/>
      <use x="422.363281" xlink:href="#ArialMT-51"/>
     </g>
    </g>
   </g>
  </g>
 </g>
 <defs>
  <clipPath id="p63c86a7058">
   <rect height="217.44" width="828" x="180" y="34.56"/>
  </clipPath>
 </defs>
</svg>
