<?xml version="1.0" encoding="utf-8" standalone="no"?>
<!DOCTYPE svg PUBLIC "-//W3C//DTD SVG 1.1//EN"
  "http://www.w3.org/Graphics/SVG/1.1/DTD/svg11.dtd">
<!-- Created with matplotlib (https://matplotlib.org/) -->
<svg height="288pt" version="1.1" viewBox="0 0 1440 288" width="1440pt" xmlns="http://www.w3.org/2000/svg" xmlns:xlink="http://www.w3.org/1999/xlink">
 <defs>
  <style type="text/css">
*{stroke-linecap:butt;stroke-linejoin:round;}
  </style>
 </defs>
 <g id="figure_1">
  <g id="patch_1">
   <path d="M 0 288 
L 1440 288 
L 1440 0 
L 0 0 
z
" style="fill:#ffffff;"/>
  </g>
  <g id="axes_1">
   <g id="patch_2">
    <path d="M 180 252 
L 1008 252 
L 1008 34.56 
L 180 34.56 
z
" style="fill:#ffffff;"/>
   </g>
   <g id="PathCollection_1">
    <defs>
     <path d="M 0 3 
C 0.795609 3 1.55874 2.683901 2.12132 2.12132 
C 2.683901 1.55874 3 0.795609 3 0 
C 3 -0.795609 2.683901 -1.55874 2.12132 -2.12132 
C 1.55874 -2.683901 0.795609 -3 0 -3 
C -0.795609 -3 -1.55874 -2.683901 -2.12132 -2.12132 
C -2.683901 -1.55874 -3 -0.795609 -3 0 
C -3 0.795609 -2.683901 1.55874 -2.12132 2.12132 
C -1.55874 2.683901 -0.795609 3 0 3 
z
" id="m3dfe2527df" style="stroke:#ff0000;"/>
    </defs>
    <g clip-path="url(#ped70584e9a)">
     <use style="fill:#ff0000;stroke:#ff0000;" x="217.636364" xlink:href="#m3dfe2527df" y="44.443636"/>
     <use style="fill:#ff0000;stroke:#ff0000;" x="217.82464" xlink:href="#m3dfe2527df" y="142.078309"/>
     <use style="fill:#ff0000;stroke:#ff0000;" x="218.012916" xlink:href="#m3dfe2527df" y="191.003345"/>
     <use style="fill:#ff0000;stroke:#ff0000;" x="218.201192" xlink:href="#m3dfe2527df" y="215.262531"/>
     <use style="fill:#ff0000;stroke:#ff0000;" x="220.272227" xlink:href="#m3dfe2527df" y="223.006268"/>
     <use style="fill:#ff0000;stroke:#ff0000;" x="220.460503" xlink:href="#m3dfe2527df" y="218.330221"/>
     <use style="fill:#ff0000;stroke:#ff0000;" x="220.648779" xlink:href="#m3dfe2527df" y="214.981925"/>
     <use style="fill:#ff0000;stroke:#ff0000;" x="220.837055" xlink:href="#m3dfe2527df" y="210.885871"/>
     <use style="fill:#ff0000;stroke:#ff0000;" x="221.025331" xlink:href="#m3dfe2527df" y="210.140892"/>
     <use style="fill:#ff0000;stroke:#ff0000;" x="221.213607" xlink:href="#m3dfe2527df" y="211.548496"/>
     <use style="fill:#ff0000;stroke:#ff0000;" x="221.401883" xlink:href="#m3dfe2527df" y="212.586808"/>
     <use style="fill:#ff0000;stroke:#ff0000;" x="221.590159" xlink:href="#m3dfe2527df" y="217.096952"/>
     <use style="fill:#ff0000;stroke:#ff0000;" x="221.778435" xlink:href="#m3dfe2527df" y="219.019759"/>
     <use style="fill:#ff0000;stroke:#ff0000;" x="221.966711" xlink:href="#m3dfe2527df" y="223.198324"/>
     <use style="fill:#ff0000;stroke:#ff0000;" x="222.154987" xlink:href="#m3dfe2527df" y="226.202992"/>
     <use style="fill:#ff0000;stroke:#ff0000;" x="224.602574" xlink:href="#m3dfe2527df" y="225.721772"/>
     <use style="fill:#ff0000;stroke:#ff0000;" x="224.79085" xlink:href="#m3dfe2527df" y="225.41412"/>
     <use style="fill:#ff0000;stroke:#ff0000;" x="224.979126" xlink:href="#m3dfe2527df" y="224.666657"/>
     <use style="fill:#ff0000;stroke:#ff0000;" x="225.167402" xlink:href="#m3dfe2527df" y="224.100864"/>
     <use style="fill:#ff0000;stroke:#ff0000;" x="225.355678" xlink:href="#m3dfe2527df" y="223.72359"/>
     <use style="fill:#ff0000;stroke:#ff0000;" x="225.543954" xlink:href="#m3dfe2527df" y="224.555663"/>
     <use style="fill:#ff0000;stroke:#ff0000;" x="225.73223" xlink:href="#m3dfe2527df" y="220.918494"/>
     <use style="fill:#ff0000;stroke:#ff0000;" x="225.920506" xlink:href="#m3dfe2527df" y="220.361151"/>
     <use style="fill:#ff0000;stroke:#ff0000;" x="226.108782" xlink:href="#m3dfe2527df" y="223.686056"/>
     <use style="fill:#ff0000;stroke:#ff0000;" x="226.297058" xlink:href="#m3dfe2527df" y="219.560874"/>
     <use style="fill:#ff0000;stroke:#ff0000;" x="226.485334" xlink:href="#m3dfe2527df" y="223.252816"/>
     <use style="fill:#ff0000;stroke:#ff0000;" x="226.67361" xlink:href="#m3dfe2527df" y="225.759457"/>
     <use style="fill:#ff0000;stroke:#ff0000;" x="226.861885" xlink:href="#m3dfe2527df" y="224.0922"/>
     <use style="fill:#ff0000;stroke:#ff0000;" x="227.238437" xlink:href="#m3dfe2527df" y="225.983521"/>
     <use style="fill:#ff0000;stroke:#ff0000;" x="227.614989" xlink:href="#m3dfe2527df" y="226.157309"/>
     <use style="fill:#ff0000;stroke:#ff0000;" x="232.69844" xlink:href="#m3dfe2527df" y="221.642421"/>
     <use style="fill:#ff0000;stroke:#ff0000;" x="246.066033" xlink:href="#m3dfe2527df" y="225.741762"/>
    </g>
   </g>
   <g id="matplotlib.axis_1">
    <g id="xtick_1">
     <g id="line2d_1">
      <path clip-path="url(#ped70584e9a)" d="M 217.636364 252 
L 217.636364 34.56 
" style="fill:none;stroke:#b0b0b0;stroke-linecap:square;stroke-width:0.8;"/>
     </g>
     <g id="line2d_2">
      <defs>
       <path d="M 0 0 
L 0 3.5 
" id="meb52d92dab" style="stroke:#000000;stroke-width:0.8;"/>
      </defs>
      <g>
       <use style="stroke:#000000;stroke-width:0.8;" x="217.636364" xlink:href="#meb52d92dab" y="252"/>
      </g>
     </g>
     <g id="text_1">
      <!-- 0 -->
      <defs>
       <path d="M 4.15625 35.296875 
Q 4.15625 48 6.765625 55.734375 
Q 9.375 63.484375 14.515625 67.671875 
Q 19.671875 71.875 27.484375 71.875 
Q 33.25 71.875 37.59375 69.546875 
Q 41.9375 67.234375 44.765625 62.859375 
Q 47.609375 58.5 49.21875 52.21875 
Q 50.828125 45.953125 50.828125 35.296875 
Q 50.828125 22.703125 48.234375 14.96875 
Q 45.65625 7.234375 40.5 3 
Q 35.359375 -1.21875 27.484375 -1.21875 
Q 17.140625 -1.21875 11.234375 6.203125 
Q 4.15625 15.140625 4.15625 35.296875 
z
M 13.1875 35.296875 
Q 13.1875 17.671875 17.3125 11.828125 
Q 21.4375 6 27.484375 6 
Q 33.546875 6 37.671875 11.859375 
Q 41.796875 17.71875 41.796875 35.296875 
Q 41.796875 52.984375 37.671875 58.78125 
Q 33.546875 64.59375 27.390625 64.59375 
Q 21.34375 64.59375 17.71875 59.46875 
Q 13.1875 52.9375 13.1875 35.296875 
z
" id="ArialMT-48"/>
      </defs>
      <g transform="translate(210.407145 277.610313)scale(0.26 -0.26)">
       <use xlink:href="#ArialMT-48"/>
      </g>
     </g>
    </g>
    <g id="xtick_2">
     <g id="line2d_3">
      <path clip-path="url(#ped70584e9a)" d="M 594.188276 252 
L 594.188276 34.56 
" style="fill:none;stroke:#b0b0b0;stroke-linecap:square;stroke-width:0.8;"/>
     </g>
     <g id="line2d_4">
      <g>
       <use style="stroke:#000000;stroke-width:0.8;" x="594.188276" xlink:href="#meb52d92dab" y="252"/>
      </g>
     </g>
     <g id="text_2">
      <!-- 2000 -->
      <defs>
       <path d="M 50.34375 8.453125 
L 50.34375 0 
L 3.03125 0 
Q 2.9375 3.171875 4.046875 6.109375 
Q 5.859375 10.9375 9.828125 15.625 
Q 13.8125 20.3125 21.34375 26.46875 
Q 33.015625 36.03125 37.109375 41.625 
Q 41.21875 47.21875 41.21875 52.203125 
Q 41.21875 57.421875 37.46875 61 
Q 33.734375 64.59375 27.734375 64.59375 
Q 21.390625 64.59375 17.578125 60.78125 
Q 13.765625 56.984375 13.71875 50.25 
L 4.6875 51.171875 
Q 5.609375 61.28125 11.65625 66.578125 
Q 17.71875 71.875 27.9375 71.875 
Q 38.234375 71.875 44.234375 66.15625 
Q 50.25 60.453125 50.25 52 
Q 50.25 47.703125 48.484375 43.546875 
Q 46.734375 39.40625 42.65625 34.8125 
Q 38.578125 30.21875 29.109375 22.21875 
Q 21.1875 15.578125 18.9375 13.203125 
Q 16.703125 10.84375 15.234375 8.453125 
z
" id="ArialMT-50"/>
      </defs>
      <g transform="translate(565.271401 277.610313)scale(0.26 -0.26)">
       <use xlink:href="#ArialMT-50"/>
       <use x="55.615234" xlink:href="#ArialMT-48"/>
       <use x="111.230469" xlink:href="#ArialMT-48"/>
       <use x="166.845703" xlink:href="#ArialMT-48"/>
      </g>
     </g>
    </g>
    <g id="xtick_3">
     <g id="line2d_5">
      <path clip-path="url(#ped70584e9a)" d="M 970.740188 252 
L 970.740188 34.56 
" style="fill:none;stroke:#b0b0b0;stroke-linecap:square;stroke-width:0.8;"/>
     </g>
     <g id="line2d_6">
      <g>
       <use style="stroke:#000000;stroke-width:0.8;" x="970.740188" xlink:href="#meb52d92dab" y="252"/>
      </g>
     </g>
     <g id="text_3">
      <!-- 4000 -->
      <defs>
       <path d="M 32.328125 0 
L 32.328125 17.140625 
L 1.265625 17.140625 
L 1.265625 25.203125 
L 33.9375 71.578125 
L 41.109375 71.578125 
L 41.109375 25.203125 
L 50.78125 25.203125 
L 50.78125 17.140625 
L 41.109375 17.140625 
L 41.109375 0 
z
M 32.328125 25.203125 
L 32.328125 57.46875 
L 9.90625 25.203125 
z
" id="ArialMT-52"/>
      </defs>
      <g transform="translate(941.823313 277.610313)scale(0.26 -0.26)">
       <use xlink:href="#ArialMT-52"/>
       <use x="55.615234" xlink:href="#ArialMT-48"/>
       <use x="111.230469" xlink:href="#ArialMT-48"/>
       <use x="166.845703" xlink:href="#ArialMT-48"/>
      </g>
     </g>
    </g>
    <g id="text_4">
     <!-- # sample -->
     <defs>
      <path d="M 5.03125 -1.21875 
L 9.28125 19.578125 
L 1.03125 19.578125 
L 1.03125 26.859375 
L 10.75 26.859375 
L 14.359375 44.578125 
L 1.03125 44.578125 
L 1.03125 51.859375 
L 15.828125 51.859375 
L 20.0625 72.796875 
L 27.390625 72.796875 
L 23.140625 51.859375 
L 38.53125 51.859375 
L 42.78125 72.796875 
L 50.140625 72.796875 
L 45.90625 51.859375 
L 54.34375 51.859375 
L 54.34375 44.578125 
L 44.4375 44.578125 
L 40.765625 26.859375 
L 54.34375 26.859375 
L 54.34375 19.578125 
L 39.3125 19.578125 
L 35.0625 -1.21875 
L 27.734375 -1.21875 
L 31.9375 19.578125 
L 16.609375 19.578125 
L 12.359375 -1.21875 
z
M 18.0625 26.859375 
L 33.40625 26.859375 
L 37.0625 44.578125 
L 21.6875 44.578125 
z
" id="ArialMT-35"/>
      <path id="ArialMT-32"/>
      <path d="M 3.078125 15.484375 
L 11.765625 16.84375 
Q 12.5 11.625 15.84375 8.84375 
Q 19.1875 6.0625 25.203125 6.0625 
Q 31.25 6.0625 34.171875 8.515625 
Q 37.109375 10.984375 37.109375 14.3125 
Q 37.109375 17.28125 34.515625 19 
Q 32.71875 20.171875 25.53125 21.96875 
Q 15.875 24.421875 12.140625 26.203125 
Q 8.40625 27.984375 6.46875 31.125 
Q 4.546875 34.28125 4.546875 38.09375 
Q 4.546875 41.546875 6.125 44.5 
Q 7.71875 47.46875 10.453125 49.421875 
Q 12.5 50.921875 16.03125 51.96875 
Q 19.578125 53.03125 23.640625 53.03125 
Q 29.734375 53.03125 34.34375 51.265625 
Q 38.96875 49.515625 41.15625 46.5 
Q 43.359375 43.5 44.1875 38.484375 
L 35.59375 37.3125 
Q 35.015625 41.3125 32.203125 43.546875 
Q 29.390625 45.796875 24.265625 45.796875 
Q 18.21875 45.796875 15.625 43.796875 
Q 13.03125 41.796875 13.03125 39.109375 
Q 13.03125 37.40625 14.109375 36.03125 
Q 15.1875 34.625 17.484375 33.6875 
Q 18.796875 33.203125 25.25 31.453125 
Q 34.578125 28.953125 38.25 27.359375 
Q 41.9375 25.78125 44.03125 22.75 
Q 46.140625 19.734375 46.140625 15.234375 
Q 46.140625 10.84375 43.578125 6.953125 
Q 41.015625 3.078125 36.171875 0.953125 
Q 31.34375 -1.171875 25.25 -1.171875 
Q 15.140625 -1.171875 9.84375 3.03125 
Q 4.546875 7.234375 3.078125 15.484375 
z
" id="ArialMT-115"/>
      <path d="M 40.4375 6.390625 
Q 35.546875 2.25 31.03125 0.53125 
Q 26.515625 -1.171875 21.34375 -1.171875 
Q 12.796875 -1.171875 8.203125 3 
Q 3.609375 7.171875 3.609375 13.671875 
Q 3.609375 17.484375 5.34375 20.625 
Q 7.078125 23.78125 9.890625 25.6875 
Q 12.703125 27.59375 16.21875 28.5625 
Q 18.796875 29.25 24.03125 29.890625 
Q 34.671875 31.15625 39.703125 32.90625 
Q 39.75 34.71875 39.75 35.203125 
Q 39.75 40.578125 37.25 42.78125 
Q 33.890625 45.75 27.25 45.75 
Q 21.046875 45.75 18.09375 43.578125 
Q 15.140625 41.40625 13.71875 35.890625 
L 5.125 37.0625 
Q 6.296875 42.578125 8.984375 45.96875 
Q 11.671875 49.359375 16.75 51.1875 
Q 21.828125 53.03125 28.515625 53.03125 
Q 35.15625 53.03125 39.296875 51.46875 
Q 43.453125 49.90625 45.40625 47.53125 
Q 47.359375 45.171875 48.140625 41.546875 
Q 48.578125 39.3125 48.578125 33.453125 
L 48.578125 21.734375 
Q 48.578125 9.46875 49.140625 6.21875 
Q 49.703125 2.984375 51.375 0 
L 42.1875 0 
Q 40.828125 2.734375 40.4375 6.390625 
z
M 39.703125 26.03125 
Q 34.90625 24.078125 25.34375 22.703125 
Q 19.921875 21.921875 17.671875 20.9375 
Q 15.4375 19.96875 14.203125 18.09375 
Q 12.984375 16.21875 12.984375 13.921875 
Q 12.984375 10.40625 15.640625 8.0625 
Q 18.3125 5.71875 23.4375 5.71875 
Q 28.515625 5.71875 32.46875 7.9375 
Q 36.421875 10.15625 38.28125 14.015625 
Q 39.703125 17 39.703125 22.796875 
z
" id="ArialMT-97"/>
      <path d="M 6.59375 0 
L 6.59375 51.859375 
L 14.453125 51.859375 
L 14.453125 44.578125 
Q 16.890625 48.390625 20.9375 50.703125 
Q 25 53.03125 30.171875 53.03125 
Q 35.9375 53.03125 39.625 50.640625 
Q 43.3125 48.25 44.828125 43.953125 
Q 50.984375 53.03125 60.84375 53.03125 
Q 68.5625 53.03125 72.703125 48.75 
Q 76.859375 44.484375 76.859375 35.59375 
L 76.859375 0 
L 68.109375 0 
L 68.109375 32.671875 
Q 68.109375 37.9375 67.25 40.25 
Q 66.40625 42.578125 64.15625 43.984375 
Q 61.921875 45.40625 58.890625 45.40625 
Q 53.421875 45.40625 49.796875 41.765625 
Q 46.1875 38.140625 46.1875 30.125 
L 46.1875 0 
L 37.40625 0 
L 37.40625 33.6875 
Q 37.40625 39.546875 35.25 42.46875 
Q 33.109375 45.40625 28.21875 45.40625 
Q 24.515625 45.40625 21.359375 43.453125 
Q 18.21875 41.5 16.796875 37.734375 
Q 15.375 33.984375 15.375 26.90625 
L 15.375 0 
z
" id="ArialMT-109"/>
      <path d="M 6.59375 -19.875 
L 6.59375 51.859375 
L 14.59375 51.859375 
L 14.59375 45.125 
Q 17.4375 49.078125 21 51.046875 
Q 24.5625 53.03125 29.640625 53.03125 
Q 36.28125 53.03125 41.359375 49.609375 
Q 46.4375 46.1875 49.015625 39.953125 
Q 51.609375 33.734375 51.609375 26.3125 
Q 51.609375 18.359375 48.75 11.984375 
Q 45.90625 5.609375 40.453125 2.21875 
Q 35.015625 -1.171875 29 -1.171875 
Q 24.609375 -1.171875 21.109375 0.6875 
Q 17.625 2.546875 15.375 5.375 
L 15.375 -19.875 
z
M 14.546875 25.640625 
Q 14.546875 15.625 18.59375 10.84375 
Q 22.65625 6.0625 28.421875 6.0625 
Q 34.28125 6.0625 38.453125 11.015625 
Q 42.625 15.96875 42.625 26.375 
Q 42.625 36.28125 38.546875 41.203125 
Q 34.46875 46.140625 28.8125 46.140625 
Q 23.1875 46.140625 18.859375 40.890625 
Q 14.546875 35.640625 14.546875 25.640625 
z
" id="ArialMT-112"/>
      <path d="M 6.390625 0 
L 6.390625 71.578125 
L 15.1875 71.578125 
L 15.1875 0 
z
" id="ArialMT-108"/>
      <path d="M 42.09375 16.703125 
L 51.171875 15.578125 
Q 49.03125 7.625 43.21875 3.21875 
Q 37.40625 -1.171875 28.375 -1.171875 
Q 17 -1.171875 10.328125 5.828125 
Q 3.65625 12.84375 3.65625 25.484375 
Q 3.65625 38.578125 10.390625 45.796875 
Q 17.140625 53.03125 27.875 53.03125 
Q 38.28125 53.03125 44.875 45.953125 
Q 51.46875 38.875 51.46875 26.03125 
Q 51.46875 25.25 51.421875 23.6875 
L 12.75 23.6875 
Q 13.234375 15.140625 17.578125 10.59375 
Q 21.921875 6.0625 28.421875 6.0625 
Q 33.25 6.0625 36.671875 8.59375 
Q 40.09375 11.140625 42.09375 16.703125 
z
M 13.234375 30.90625 
L 42.1875 30.90625 
Q 41.609375 37.453125 38.875 40.71875 
Q 34.671875 45.796875 27.984375 45.796875 
Q 21.921875 45.796875 17.796875 41.75 
Q 13.671875 37.703125 13.234375 30.90625 
z
" id="ArialMT-101"/>
     </defs>
     <g transform="translate(541.254531 305.705)scale(0.26 -0.26)">
      <use xlink:href="#ArialMT-35"/>
      <use x="55.615234" xlink:href="#ArialMT-32"/>
      <use x="83.398438" xlink:href="#ArialMT-115"/>
      <use x="133.398438" xlink:href="#ArialMT-97"/>
      <use x="189.013672" xlink:href="#ArialMT-109"/>
      <use x="272.314453" xlink:href="#ArialMT-112"/>
      <use x="327.929688" xlink:href="#ArialMT-108"/>
      <use x="350.146484" xlink:href="#ArialMT-101"/>
     </g>
    </g>
   </g>
   <g id="matplotlib.axis_2">
    <g id="ytick_1">
     <g id="line2d_7">
      <path clip-path="url(#ped70584e9a)" d="M 180 242.141286 
L 1008 242.141286 
" style="fill:none;stroke:#b0b0b0;stroke-linecap:square;stroke-width:0.8;"/>
     </g>
     <g id="line2d_8">
      <defs>
       <path d="M 0 0 
L -3.5 0 
" id="ma1de4caf03" style="stroke:#000000;stroke-width:0.8;"/>
      </defs>
      <g>
       <use style="stroke:#000000;stroke-width:0.8;" x="180" xlink:href="#ma1de4caf03" y="242.141286"/>
      </g>
     </g>
     <g id="text_5">
      <!-- 0 -->
      <g transform="translate(158.541562 251.446442)scale(0.26 -0.26)">
       <use xlink:href="#ArialMT-48"/>
      </g>
     </g>
    </g>
    <g id="ytick_2">
     <g id="line2d_9">
      <path clip-path="url(#ped70584e9a)" d="M 180 183.057438 
L 1008 183.057438 
" style="fill:none;stroke:#b0b0b0;stroke-linecap:square;stroke-width:0.8;"/>
     </g>
     <g id="line2d_10">
      <g>
       <use style="stroke:#000000;stroke-width:0.8;" x="180" xlink:href="#ma1de4caf03" y="183.057438"/>
      </g>
     </g>
     <g id="text_6">
      <!-- 50 -->
      <defs>
       <path d="M 4.15625 18.75 
L 13.375 19.53125 
Q 14.40625 12.796875 18.140625 9.390625 
Q 21.875 6 27.15625 6 
Q 33.5 6 37.890625 10.78125 
Q 42.28125 15.578125 42.28125 23.484375 
Q 42.28125 31 38.0625 35.34375 
Q 33.84375 39.703125 27 39.703125 
Q 22.75 39.703125 19.328125 37.765625 
Q 15.921875 35.84375 13.96875 32.765625 
L 5.71875 33.84375 
L 12.640625 70.609375 
L 48.25 70.609375 
L 48.25 62.203125 
L 19.671875 62.203125 
L 15.828125 42.96875 
Q 22.265625 47.46875 29.34375 47.46875 
Q 38.71875 47.46875 45.15625 40.96875 
Q 51.609375 34.46875 51.609375 24.265625 
Q 51.609375 14.546875 45.953125 7.46875 
Q 39.0625 -1.21875 27.15625 -1.21875 
Q 17.390625 -1.21875 11.203125 4.25 
Q 5.03125 9.71875 4.15625 18.75 
z
" id="ArialMT-53"/>
      </defs>
      <g transform="translate(144.083125 192.362594)scale(0.26 -0.26)">
       <use xlink:href="#ArialMT-53"/>
       <use x="55.615234" xlink:href="#ArialMT-48"/>
      </g>
     </g>
    </g>
    <g id="ytick_3">
     <g id="line2d_11">
      <path clip-path="url(#ped70584e9a)" d="M 180 123.973591 
L 1008 123.973591 
" style="fill:none;stroke:#b0b0b0;stroke-linecap:square;stroke-width:0.8;"/>
     </g>
     <g id="line2d_12">
      <g>
       <use style="stroke:#000000;stroke-width:0.8;" x="180" xlink:href="#ma1de4caf03" y="123.973591"/>
      </g>
     </g>
     <g id="text_7">
      <!-- 100 -->
      <defs>
       <path d="M 37.25 0 
L 28.46875 0 
L 28.46875 56 
Q 25.296875 52.984375 20.140625 49.953125 
Q 14.984375 46.921875 10.890625 45.40625 
L 10.890625 53.90625 
Q 18.265625 57.375 23.78125 62.296875 
Q 29.296875 67.234375 31.59375 71.875 
L 37.25 71.875 
z
" id="ArialMT-49"/>
      </defs>
      <g transform="translate(129.624687 133.278747)scale(0.26 -0.26)">
       <use xlink:href="#ArialMT-49"/>
       <use x="55.615234" xlink:href="#ArialMT-48"/>
       <use x="111.230469" xlink:href="#ArialMT-48"/>
      </g>
     </g>
    </g>
    <g id="ytick_4">
     <g id="line2d_13">
      <path clip-path="url(#ped70584e9a)" d="M 180 64.889743 
L 1008 64.889743 
" style="fill:none;stroke:#b0b0b0;stroke-linecap:square;stroke-width:0.8;"/>
     </g>
     <g id="line2d_14">
      <g>
       <use style="stroke:#000000;stroke-width:0.8;" x="180" xlink:href="#ma1de4caf03" y="64.889743"/>
      </g>
     </g>
     <g id="text_8">
      <!-- 150 -->
      <g transform="translate(129.624687 74.1949)scale(0.26 -0.26)">
       <use xlink:href="#ArialMT-49"/>
       <use x="55.615234" xlink:href="#ArialMT-53"/>
       <use x="111.230469" xlink:href="#ArialMT-48"/>
      </g>
     </g>
    </g>
    <g id="text_9">
     <!-- Change-point score  -->
     <defs>
      <path d="M 58.796875 25.09375 
L 68.265625 22.703125 
Q 65.28125 11.03125 57.546875 4.90625 
Q 49.8125 -1.21875 38.625 -1.21875 
Q 27.046875 -1.21875 19.796875 3.484375 
Q 12.546875 8.203125 8.765625 17.140625 
Q 4.984375 26.078125 4.984375 36.328125 
Q 4.984375 47.515625 9.25 55.828125 
Q 13.53125 64.15625 21.40625 68.46875 
Q 29.296875 72.796875 38.765625 72.796875 
Q 49.515625 72.796875 56.828125 67.328125 
Q 64.15625 61.859375 67.046875 51.953125 
L 57.71875 49.75 
Q 55.21875 57.5625 50.484375 61.125 
Q 45.75 64.703125 38.578125 64.703125 
Q 30.328125 64.703125 24.78125 60.734375 
Q 19.234375 56.78125 16.984375 50.109375 
Q 14.75 43.453125 14.75 36.375 
Q 14.75 27.25 17.40625 20.4375 
Q 20.0625 13.625 25.671875 10.25 
Q 31.296875 6.890625 37.84375 6.890625 
Q 45.796875 6.890625 51.3125 11.46875 
Q 56.84375 16.0625 58.796875 25.09375 
z
" id="ArialMT-67"/>
      <path d="M 6.59375 0 
L 6.59375 71.578125 
L 15.375 71.578125 
L 15.375 45.90625 
Q 21.53125 53.03125 30.90625 53.03125 
Q 36.671875 53.03125 40.921875 50.75 
Q 45.171875 48.484375 47 44.484375 
Q 48.828125 40.484375 48.828125 32.859375 
L 48.828125 0 
L 40.046875 0 
L 40.046875 32.859375 
Q 40.046875 39.453125 37.1875 42.453125 
Q 34.328125 45.453125 29.109375 45.453125 
Q 25.203125 45.453125 21.75 43.421875 
Q 18.3125 41.40625 16.84375 37.9375 
Q 15.375 34.46875 15.375 28.375 
L 15.375 0 
z
" id="ArialMT-104"/>
      <path d="M 6.59375 0 
L 6.59375 51.859375 
L 14.5 51.859375 
L 14.5 44.484375 
Q 20.21875 53.03125 31 53.03125 
Q 35.6875 53.03125 39.625 51.34375 
Q 43.5625 49.65625 45.515625 46.921875 
Q 47.46875 44.1875 48.25 40.4375 
Q 48.734375 37.984375 48.734375 31.890625 
L 48.734375 0 
L 39.9375 0 
L 39.9375 31.546875 
Q 39.9375 36.921875 38.90625 39.578125 
Q 37.890625 42.234375 35.28125 43.8125 
Q 32.671875 45.40625 29.15625 45.40625 
Q 23.53125 45.40625 19.453125 41.84375 
Q 15.375 38.28125 15.375 28.328125 
L 15.375 0 
z
" id="ArialMT-110"/>
      <path d="M 4.984375 -4.296875 
L 13.53125 -5.5625 
Q 14.0625 -9.515625 16.5 -11.328125 
Q 19.78125 -13.765625 25.4375 -13.765625 
Q 31.546875 -13.765625 34.859375 -11.328125 
Q 38.1875 -8.890625 39.359375 -4.5 
Q 40.046875 -1.8125 39.984375 6.78125 
Q 34.234375 0 25.640625 0 
Q 14.9375 0 9.078125 7.71875 
Q 3.21875 15.4375 3.21875 26.21875 
Q 3.21875 33.640625 5.90625 39.90625 
Q 8.59375 46.1875 13.6875 49.609375 
Q 18.796875 53.03125 25.6875 53.03125 
Q 34.859375 53.03125 40.828125 45.609375 
L 40.828125 51.859375 
L 48.921875 51.859375 
L 48.921875 7.03125 
Q 48.921875 -5.078125 46.453125 -10.125 
Q 44 -15.1875 38.640625 -18.109375 
Q 33.296875 -21.046875 25.484375 -21.046875 
Q 16.21875 -21.046875 10.5 -16.875 
Q 4.78125 -12.703125 4.984375 -4.296875 
z
M 12.25 26.859375 
Q 12.25 16.65625 16.296875 11.96875 
Q 20.359375 7.28125 26.46875 7.28125 
Q 32.515625 7.28125 36.609375 11.9375 
Q 40.71875 16.609375 40.71875 26.5625 
Q 40.71875 36.078125 36.5 40.90625 
Q 32.28125 45.75 26.3125 45.75 
Q 20.453125 45.75 16.34375 40.984375 
Q 12.25 36.234375 12.25 26.859375 
z
" id="ArialMT-103"/>
      <path d="M 3.171875 21.484375 
L 3.171875 30.328125 
L 30.171875 30.328125 
L 30.171875 21.484375 
z
" id="ArialMT-45"/>
      <path d="M 3.328125 25.921875 
Q 3.328125 40.328125 11.328125 47.265625 
Q 18.015625 53.03125 27.640625 53.03125 
Q 38.328125 53.03125 45.109375 46.015625 
Q 51.90625 39.015625 51.90625 26.65625 
Q 51.90625 16.65625 48.90625 10.90625 
Q 45.90625 5.171875 40.15625 2 
Q 34.421875 -1.171875 27.640625 -1.171875 
Q 16.75 -1.171875 10.03125 5.8125 
Q 3.328125 12.796875 3.328125 25.921875 
z
M 12.359375 25.921875 
Q 12.359375 15.96875 16.703125 11.015625 
Q 21.046875 6.0625 27.640625 6.0625 
Q 34.1875 6.0625 38.53125 11.03125 
Q 42.875 16.015625 42.875 26.21875 
Q 42.875 35.84375 38.5 40.796875 
Q 34.125 45.75 27.640625 45.75 
Q 21.046875 45.75 16.703125 40.8125 
Q 12.359375 35.890625 12.359375 25.921875 
z
" id="ArialMT-111"/>
      <path d="M 6.640625 61.46875 
L 6.640625 71.578125 
L 15.4375 71.578125 
L 15.4375 61.46875 
z
M 6.640625 0 
L 6.640625 51.859375 
L 15.4375 51.859375 
L 15.4375 0 
z
" id="ArialMT-105"/>
      <path d="M 25.78125 7.859375 
L 27.046875 0.09375 
Q 23.34375 -0.6875 20.40625 -0.6875 
Q 15.625 -0.6875 12.984375 0.828125 
Q 10.359375 2.34375 9.28125 4.8125 
Q 8.203125 7.28125 8.203125 15.1875 
L 8.203125 45.015625 
L 1.765625 45.015625 
L 1.765625 51.859375 
L 8.203125 51.859375 
L 8.203125 64.703125 
L 16.9375 69.96875 
L 16.9375 51.859375 
L 25.78125 51.859375 
L 25.78125 45.015625 
L 16.9375 45.015625 
L 16.9375 14.703125 
Q 16.9375 10.9375 17.40625 9.859375 
Q 17.875 8.796875 18.921875 8.15625 
Q 19.96875 7.515625 21.921875 7.515625 
Q 23.390625 7.515625 25.78125 7.859375 
z
" id="ArialMT-116"/>
      <path d="M 40.4375 19 
L 49.078125 17.875 
Q 47.65625 8.9375 41.8125 3.875 
Q 35.984375 -1.171875 27.484375 -1.171875 
Q 16.84375 -1.171875 10.375 5.78125 
Q 3.90625 12.75 3.90625 25.734375 
Q 3.90625 34.125 6.6875 40.421875 
Q 9.46875 46.734375 15.15625 49.875 
Q 20.84375 53.03125 27.546875 53.03125 
Q 35.984375 53.03125 41.359375 48.75 
Q 46.734375 44.484375 48.25 36.625 
L 39.703125 35.296875 
Q 38.484375 40.53125 35.375 43.15625 
Q 32.28125 45.796875 27.875 45.796875 
Q 21.234375 45.796875 17.078125 41.03125 
Q 12.9375 36.28125 12.9375 25.984375 
Q 12.9375 15.53125 16.9375 10.796875 
Q 20.953125 6.0625 27.390625 6.0625 
Q 32.5625 6.0625 36.03125 9.234375 
Q 39.5 12.40625 40.4375 19 
z
" id="ArialMT-99"/>
      <path d="M 6.5 0 
L 6.5 51.859375 
L 14.40625 51.859375 
L 14.40625 44 
Q 17.4375 49.515625 20 51.265625 
Q 22.5625 53.03125 25.640625 53.03125 
Q 30.078125 53.03125 34.671875 50.203125 
L 31.640625 42.046875 
Q 28.421875 43.953125 25.203125 43.953125 
Q 22.3125 43.953125 20.015625 42.21875 
Q 17.71875 40.484375 16.75 37.40625 
Q 15.28125 32.71875 15.28125 27.15625 
L 15.28125 0 
z
" id="ArialMT-114"/>
     </defs>
     <g transform="translate(91.967687 260.340937)rotate(-90)scale(0.26 -0.26)">
      <use xlink:href="#ArialMT-67"/>
      <use x="72.216797" xlink:href="#ArialMT-104"/>
      <use x="127.832031" xlink:href="#ArialMT-97"/>
      <use x="183.447266" xlink:href="#ArialMT-110"/>
      <use x="239.0625" xlink:href="#ArialMT-103"/>
      <use x="294.677734" xlink:href="#ArialMT-101"/>
      <use x="350.292969" xlink:href="#ArialMT-45"/>
      <use x="383.59375" xlink:href="#ArialMT-112"/>
      <use x="439.208984" xlink:href="#ArialMT-111"/>
      <use x="494.824219" xlink:href="#ArialMT-105"/>
      <use x="517.041016" xlink:href="#ArialMT-110"/>
      <use x="572.65625" xlink:href="#ArialMT-116"/>
      <use x="600.439453" xlink:href="#ArialMT-32"/>
      <use x="628.222656" xlink:href="#ArialMT-115"/>
      <use x="678.222656" xlink:href="#ArialMT-99"/>
      <use x="728.222656" xlink:href="#ArialMT-111"/>
      <use x="783.837891" xlink:href="#ArialMT-114"/>
      <use x="817.138672" xlink:href="#ArialMT-101"/>
      <use x="872.753906" xlink:href="#ArialMT-32"/>
     </g>
     <!-- (KL div.) -->
     <defs>
      <path d="M 23.390625 -21.046875 
Q 16.109375 -11.859375 11.078125 0.4375 
Q 6.0625 12.75 6.0625 25.921875 
Q 6.0625 37.546875 9.8125 48.1875 
Q 14.203125 60.546875 23.390625 72.796875 
L 29.6875 72.796875 
Q 23.78125 62.640625 21.875 58.296875 
Q 18.890625 51.5625 17.1875 44.234375 
Q 15.09375 35.109375 15.09375 25.875 
Q 15.09375 2.390625 29.6875 -21.046875 
z
" id="ArialMT-40"/>
      <path d="M 7.328125 0 
L 7.328125 71.578125 
L 16.796875 71.578125 
L 16.796875 36.078125 
L 52.34375 71.578125 
L 65.1875 71.578125 
L 35.15625 42.578125 
L 66.5 0 
L 54 0 
L 28.515625 36.234375 
L 16.796875 24.8125 
L 16.796875 0 
z
" id="ArialMT-75"/>
      <path d="M 7.328125 0 
L 7.328125 71.578125 
L 16.796875 71.578125 
L 16.796875 8.453125 
L 52.046875 8.453125 
L 52.046875 0 
z
" id="ArialMT-76"/>
      <path d="M 40.234375 0 
L 40.234375 6.546875 
Q 35.296875 -1.171875 25.734375 -1.171875 
Q 19.53125 -1.171875 14.328125 2.25 
Q 9.125 5.671875 6.265625 11.796875 
Q 3.421875 17.921875 3.421875 25.875 
Q 3.421875 33.640625 6 39.96875 
Q 8.59375 46.296875 13.765625 49.65625 
Q 18.953125 53.03125 25.34375 53.03125 
Q 30.03125 53.03125 33.6875 51.046875 
Q 37.359375 49.078125 39.65625 45.90625 
L 39.65625 71.578125 
L 48.390625 71.578125 
L 48.390625 0 
z
M 12.453125 25.875 
Q 12.453125 15.921875 16.640625 10.984375 
Q 20.84375 6.0625 26.5625 6.0625 
Q 32.328125 6.0625 36.34375 10.765625 
Q 40.375 15.484375 40.375 25.140625 
Q 40.375 35.796875 36.265625 40.765625 
Q 32.171875 45.75 26.171875 45.75 
Q 20.3125 45.75 16.375 40.96875 
Q 12.453125 36.1875 12.453125 25.875 
z
" id="ArialMT-100"/>
      <path d="M 21 0 
L 1.265625 51.859375 
L 10.546875 51.859375 
L 21.6875 20.796875 
Q 23.484375 15.765625 25 10.359375 
Q 26.171875 14.453125 28.265625 20.21875 
L 39.796875 51.859375 
L 48.828125 51.859375 
L 29.203125 0 
z
" id="ArialMT-118"/>
      <path d="M 9.078125 0 
L 9.078125 10.015625 
L 19.09375 10.015625 
L 19.09375 0 
z
" id="ArialMT-46"/>
      <path d="M 12.359375 -21.046875 
L 6.0625 -21.046875 
Q 20.65625 2.390625 20.65625 25.875 
Q 20.65625 35.0625 18.5625 44.09375 
Q 16.890625 51.421875 13.921875 58.15625 
Q 12.015625 62.546875 6.0625 72.796875 
L 12.359375 72.796875 
Q 21.53125 60.546875 25.921875 48.1875 
Q 29.6875 37.546875 29.6875 25.921875 
Q 29.6875 12.75 24.625 0.4375 
Q 19.578125 -11.859375 12.359375 -21.046875 
z
" id="ArialMT-41"/>
     </defs>
     <g transform="translate(120.1525 190.232344)rotate(-90)scale(0.26 -0.26)">
      <use xlink:href="#ArialMT-40"/>
      <use x="33.300781" xlink:href="#ArialMT-75"/>
      <use x="100" xlink:href="#ArialMT-76"/>
      <use x="151.865234" xlink:href="#ArialMT-32"/>
      <use x="179.648438" xlink:href="#ArialMT-100"/>
      <use x="235.263672" xlink:href="#ArialMT-105"/>
      <use x="257.480469" xlink:href="#ArialMT-118"/>
      <use x="300.105469" xlink:href="#ArialMT-46"/>
      <use x="327.888672" xlink:href="#ArialMT-41"/>
     </g>
    </g>
   </g>
   <g id="line2d_15">
    <path clip-path="url(#ped70584e9a)" d="M 217.636364 44.443636 
L 218.012916 191.003345 
L 218.389467 227.454724 
L 218.766019 236.021753 
L 218.954295 237.208275 
L 219.142571 237.342338 
L 219.330847 236.919703 
L 219.519123 235.890503 
L 219.895675 231.323511 
L 221.025331 210.140892 
L 221.401883 212.586808 
L 221.778435 219.019759 
L 222.343263 229.26806 
L 222.531538 229.501165 
L 222.90809 232.216947 
L 223.096366 232.108951 
L 223.284642 232.951645 
L 224.037746 230.679355 
L 224.602574 225.721772 
L 224.79085 225.41412 
L 225.167402 224.100864 
L 225.355678 223.72359 
L 225.543954 224.555663 
L 225.73223 220.918494 
L 225.920506 220.361151 
L 226.108782 223.686056 
L 226.297058 219.560874 
L 226.67361 225.759457 
L 226.861885 224.0922 
L 227.050161 227.337521 
L 227.238437 225.983521 
L 227.426713 227.23268 
L 227.614989 226.157309 
L 227.803265 230.783483 
L 227.991541 228.504001 
L 228.179817 229.417152 
L 228.368093 227.965282 
L 228.556369 233.512574 
L 228.744645 231.254162 
L 229.121197 233.284071 
L 229.309473 233.076532 
L 229.686025 230.324942 
L 229.874301 231.987603 
L 230.062577 230.943476 
L 230.250853 233.623409 
L 230.439129 228.468794 
L 230.627405 233.007723 
L 230.815681 232.108814 
L 231.003957 227.520728 
L 231.192232 229.025738 
L 231.380508 229.109036 
L 231.568784 232.688135 
L 231.75706 230.258938 
L 231.945336 231.784797 
L 232.133612 226.81075 
L 232.510164 230.669344 
L 232.69844 221.642421 
L 232.886716 228.606908 
L 233.074992 228.322875 
L 233.263268 230.526456 
L 233.451544 230.067273 
L 233.63982 232.235646 
L 233.828096 230.620574 
L 234.016372 227.034835 
L 234.204648 229.723425 
L 234.392924 230.490249 
L 234.5812 230.327432 
L 234.769476 226.943544 
L 234.957752 229.218868 
L 235.146028 230.037879 
L 235.334304 232.959401 
L 235.522579 231.584035 
L 235.710855 228.41013 
L 235.899131 230.322463 
L 236.087407 230.117782 
L 236.275683 231.155163 
L 236.463959 230.88061 
L 236.652235 229.242093 
L 236.840511 229.180973 
L 237.405339 233.941682 
L 237.593615 231.971748 
L 237.781891 235.30928 
L 237.970167 230.679328 
L 238.158443 233.994354 
L 238.346719 233.425473 
L 238.534995 231.424907 
L 238.723271 234.059874 
L 238.911547 231.145418 
L 239.099823 232.104532 
L 239.288099 232.031801 
L 239.476375 228.537319 
L 239.664651 232.611195 
L 239.852926 232.403739 
L 240.041202 231.248081 
L 240.229478 234.314952 
L 240.417754 231.626942 
L 240.60603 234.950844 
L 240.794306 232.046571 
L 240.982582 231.952159 
L 241.170858 234.546523 
L 241.359134 229.697492 
L 241.735686 229.839495 
L 242.112238 232.738588 
L 242.48879 229.999378 
L 242.677066 230.968089 
L 242.865342 227.872474 
L 243.241894 234.043249 
L 243.43017 232.430541 
L 243.618446 233.855264 
L 243.994997 228.626329 
L 244.183273 233.409375 
L 244.371549 233.52098 
L 244.559825 231.596208 
L 244.748101 233.74316 
L 244.936377 230.937195 
L 245.124653 230.17204 
L 245.312929 230.273527 
L 245.501205 231.607864 
L 245.689481 231.081483 
L 245.877757 233.187798 
L 246.066033 225.741762 
L 246.254309 228.706593 
L 246.442585 229.162294 
L 246.630861 229.061879 
L 246.819137 232.42086 
L 247.007413 231.335319 
L 247.195689 231.315512 
L 247.383965 228.604496 
L 247.572241 230.918262 
L 247.760517 230.973438 
L 247.948793 232.072427 
L 248.137069 231.443343 
L 248.325344 232.941035 
L 248.51362 232.526622 
L 248.701896 234.190044 
L 248.890172 231.953341 
L 249.078448 227.330802 
L 249.266724 232.964687 
L 249.455 229.231711 
L 249.643276 229.688287 
L 249.831552 232.59274 
L 250.019828 227.242878 
L 250.208104 232.126563 
L 250.39638 232.642594 
L 250.584656 232.729466 
L 250.772932 232.514017 
L 250.961208 229.707767 
L 251.149484 231.664813 
L 251.526036 229.89731 
L 251.714312 233.310274 
L 251.902588 231.662448 
L 252.090864 233.007677 
L 252.467416 229.067355 
L 252.843967 232.956299 
L 253.032243 231.099163 
L 253.220519 235.181648 
L 253.408795 234.480434 
L 253.597071 234.689412 
L 253.973623 231.027972 
L 254.161899 235.070675 
L 254.350175 236.117613 
L 254.726727 235.361366 
L 254.915003 237.907551 
L 255.103279 230.699828 
L 255.291555 235.88595 
L 255.479831 237.558354 
L 255.668107 237.8583 
L 255.856383 237.278801 
L 256.044659 235.366403 
L 256.421211 237.968542 
L 256.609487 235.308846 
L 256.797763 235.964549 
L 256.986038 237.998381 
L 257.550866 234.80115 
L 257.739142 236.461461 
L 257.927418 234.475407 
L 258.115694 234.354376 
L 258.30397 236.175775 
L 258.492246 232.562223 
L 258.680522 236.604416 
L 258.868798 232.761864 
L 259.057074 233.072768 
L 259.24535 232.461762 
L 259.433626 234.666121 
L 259.621902 234.587212 
L 259.810178 232.684662 
L 259.998454 236.967397 
L 260.563282 232.101303 
L 260.751558 234.598704 
L 260.939834 232.845527 
L 261.12811 233.394873 
L 261.316385 232.379844 
L 261.504661 233.414644 
L 261.692937 231.871337 
L 261.881213 227.784125 
L 262.069489 234.545632 
L 262.257765 232.223953 
L 262.446041 235.290999 
L 262.634317 233.980393 
L 262.822593 234.836886 
L 263.010869 230.304071 
L 263.199145 232.662235 
L 263.387421 232.070184 
L 263.575697 234.557959 
L 263.763973 235.201983 
L 263.952249 233.572407 
L 264.140525 234.916359 
L 264.328801 232.570297 
L 264.705353 236.583853 
L 264.893629 230.42808 
L 265.081905 236.538636 
L 265.270181 234.164846 
L 265.458457 233.650847 
L 265.646732 233.893905 
L 265.835008 232.032533 
L 266.023284 231.613605 
L 266.21156 232.192438 
L 266.399836 236.419741 
L 266.588112 237.096656 
L 266.776388 236.720943 
L 267.15294 237.65784 
L 267.341216 236.65692 
L 267.529492 236.561015 
L 267.717768 234.793054 
L 268.09432 238.990673 
L 268.282596 237.495677 
L 268.470872 239.651301 
L 268.847424 237.917724 
L 269.0357 238.381231 
L 269.223976 237.705183 
L 269.412252 238.809891 
L 269.600528 235.630941 
L 269.788803 238.423054 
L 269.977079 238.076502 
L 270.165355 236.515183 
L 270.541907 238.312071 
L 270.730183 238.301849 
L 270.918459 238.0985 
L 271.106735 235.958748 
L 271.295011 237.089264 
L 271.483287 237.510291 
L 271.859839 235.678319 
L 272.048115 235.642704 
L 272.236391 235.001881 
L 272.424667 234.900349 
L 272.612943 236.791153 
L 273.177771 231.528791 
L 273.366047 233.715447 
L 273.554323 231.271584 
L 273.742599 235.421879 
L 273.930875 232.489014 
L 274.11915 231.890938 
L 274.307426 233.519246 
L 274.495702 230.344811 
L 274.872254 236.664903 
L 275.06053 236.202039 
L 275.248806 236.517632 
L 275.437082 234.302669 
L 275.625358 234.651096 
L 275.813634 237.081854 
L 276.00191 233.112324 
L 276.378462 236.77906 
L 276.755014 234.568444 
L 277.131566 238.23659 
L 277.319842 237.334735 
L 277.508118 235.816633 
L 277.696394 235.98198 
L 277.88467 237.138335 
L 278.072946 239.199455 
L 278.449497 237.623821 
L 278.637773 238.424926 
L 278.826049 236.443215 
L 279.014325 237.804289 
L 279.390877 237.843814 
L 279.579153 236.605325 
L 279.767429 238.824032 
L 279.955705 235.203997 
L 280.143981 236.226666 
L 280.332257 236.481489 
L 280.520533 238.653734 
L 280.708809 236.325159 
L 280.897085 239.241087 
L 281.085361 238.181307 
L 281.461913 239.546202 
L 282.026741 236.961726 
L 282.215017 239.106664 
L 282.403293 236.752755 
L 282.591569 236.038319 
L 282.779844 237.748277 
L 282.96812 237.856555 
L 283.156396 233.325747 
L 283.532948 238.143218 
L 283.721224 239.328858 
L 284.097776 234.797348 
L 284.286052 237.75317 
L 284.474328 235.379857 
L 284.662604 238.499047 
L 284.85088 237.970128 
L 285.039156 239.200766 
L 285.227432 234.829315 
L 285.415708 238.318888 
L 285.603984 234.639534 
L 285.79226 233.962438 
L 285.980536 234.221861 
L 286.357088 237.859378 
L 286.545364 235.670907 
L 286.73364 234.79988 
L 287.110191 237.645047 
L 287.298467 235.816764 
L 287.675019 238.00265 
L 287.863295 239.592166 
L 288.051571 237.349762 
L 288.239847 240.135921 
L 288.616399 236.881835 
L 288.804675 235.055381 
L 288.992951 235.813005 
L 289.181227 239.157755 
L 289.369503 238.685745 
L 289.557779 237.020771 
L 289.934331 239.024096 
L 290.122607 236.322832 
L 290.310883 238.115661 
L 290.499159 236.172958 
L 290.687435 235.660226 
L 290.875711 238.940395 
L 291.063987 238.251784 
L 291.252262 236.294888 
L 291.440538 239.15942 
L 291.628814 237.134556 
L 292.005366 236.510762 
L 292.193642 235.898499 
L 292.381918 236.010989 
L 292.570194 237.978492 
L 292.75847 237.190163 
L 292.946746 238.79408 
L 293.135022 236.845579 
L 293.323298 237.354864 
L 293.511574 235.566438 
L 294.264678 238.491906 
L 294.452954 237.521878 
L 294.64123 239.2872 
L 294.829506 236.986666 
L 295.017782 238.220239 
L 295.206058 237.084065 
L 295.394334 237.754678 
L 295.770885 240.0179 
L 295.959161 235.77283 
L 296.147437 238.571767 
L 296.335713 238.338557 
L 296.523989 237.253797 
L 296.712265 236.82102 
L 296.900541 236.846525 
L 297.277093 235.242105 
L 297.465369 235.137685 
L 297.841921 237.502355 
L 298.030197 237.211888 
L 298.218473 233.546545 
L 298.406749 236.266506 
L 298.595025 236.234568 
L 298.783301 234.473326 
L 298.971577 234.263819 
L 299.159853 233.489344 
L 299.348129 236.890674 
L 299.536405 233.671452 
L 299.724681 238.362835 
L 299.912956 237.451978 
L 300.101232 234.910937 
L 300.289508 237.533746 
L 300.477784 237.997638 
L 300.66606 236.60281 
L 300.854336 238.777546 
L 301.042612 237.423155 
L 301.230888 237.797755 
L 301.419164 238.719561 
L 301.795716 235.218959 
L 301.983992 239.623096 
L 302.172268 239.015636 
L 302.360544 239.978929 
L 302.54882 239.030277 
L 302.737096 236.183379 
L 302.925372 235.458443 
L 303.113648 237.470091 
L 303.301924 236.609281 
L 303.4902 239.289098 
L 303.678476 237.617231 
L 303.866752 239.465693 
L 304.055028 239.320325 
L 304.243303 237.928969 
L 304.431579 239.008605 
L 304.619855 238.822127 
L 304.808131 239.270621 
L 304.996407 237.489583 
L 305.184683 238.792377 
L 305.372959 237.470913 
L 305.561235 238.190677 
L 305.749511 238.357898 
L 305.937787 237.956347 
L 306.126063 236.656045 
L 306.314339 238.892593 
L 306.502615 239.01976 
L 306.690891 237.978889 
L 306.879167 238.883901 
L 307.255719 237.553716 
L 307.632271 238.870614 
L 307.820547 237.80473 
L 308.008823 238.611432 
L 308.761926 235.890762 
L 308.950202 238.805458 
L 309.138478 236.257564 
L 309.326754 240.013896 
L 309.703306 236.446708 
L 309.891582 237.103345 
L 310.079858 238.845878 
L 310.45641 239.068676 
L 310.644686 239.30206 
L 310.832962 240.20582 
L 311.021238 238.899788 
L 311.209514 240.021262 
L 311.39779 237.560576 
L 311.586066 238.976133 
L 311.774342 237.852639 
L 311.962618 239.316514 
L 312.33917 238.427886 
L 312.527446 236.720702 
L 312.715721 236.880883 
L 312.903997 237.3523 
L 313.092273 235.948067 
L 313.468825 238.810531 
L 313.657101 238.930813 
L 313.845377 238.045889 
L 314.033653 239.232771 
L 314.410205 236.121589 
L 314.598481 239.537722 
L 314.786757 239.514931 
L 314.975033 238.928993 
L 315.163309 239.849743 
L 315.351585 238.517019 
L 315.539861 240.222276 
L 315.728137 238.969674 
L 316.104689 239.339416 
L 316.292965 238.522865 
L 316.481241 238.91535 
L 316.669517 240.211643 
L 316.857793 236.818628 
L 317.046068 236.397093 
L 317.234344 238.490295 
L 317.42262 238.163815 
L 317.610896 238.975382 
L 317.799172 238.236568 
L 317.987448 236.979865 
L 318.175724 238.358705 
L 318.364 237.567044 
L 318.552276 236.154367 
L 318.740552 233.796221 
L 318.928828 238.236057 
L 319.117104 234.530539 
L 319.30538 235.075969 
L 319.493656 238.198943 
L 319.681932 236.720374 
L 319.870208 239.031775 
L 320.058484 234.322267 
L 320.24676 239.387722 
L 320.435036 238.777124 
L 320.623312 237.712655 
L 320.811588 234.655304 
L 320.999864 235.767581 
L 321.18814 233.107864 
L 321.376415 237.640129 
L 321.564691 238.403814 
L 321.941243 237.081258 
L 322.129519 237.42602 
L 322.317795 237.057825 
L 322.506071 237.017324 
L 322.694347 235.455788 
L 322.882623 237.834987 
L 323.070899 237.281862 
L 323.259175 239.462934 
L 323.447451 237.971302 
L 323.635727 239.467943 
L 324.012279 238.208431 
L 324.200555 238.86293 
L 324.388831 235.960668 
L 324.577107 237.793287 
L 324.765383 237.228794 
L 325.141935 238.480815 
L 325.330211 238.375971 
L 325.518487 238.560039 
L 325.706762 236.15928 
L 325.895038 238.546732 
L 326.083314 236.711368 
L 326.27159 238.983408 
L 326.459866 239.029411 
L 326.648142 238.158608 
L 326.836418 238.692403 
L 327.024694 238.417574 
L 327.401246 238.806084 
L 327.589522 237.860941 
L 327.777798 238.942221 
L 327.966074 237.396878 
L 328.15435 238.366792 
L 328.342626 237.123648 
L 328.530902 238.43596 
L 328.719178 238.924725 
L 328.907454 240.09072 
L 329.09573 237.807933 
L 329.472282 241.186375 
L 329.660558 238.676931 
L 330.037109 239.303479 
L 330.413661 237.973655 
L 330.601937 237.922595 
L 330.790213 239.21122 
L 330.978489 237.959777 
L 331.166765 240.247656 
L 331.543317 239.185386 
L 331.731593 239.500472 
L 332.108145 237.899784 
L 332.296421 240.50945 
L 332.484697 239.854062 
L 332.672973 239.680316 
L 332.861249 238.596118 
L 333.049525 239.535555 
L 333.237801 239.020423 
L 333.426077 239.994747 
L 333.802629 237.363718 
L 333.990905 238.028763 
L 334.17918 238.174788 
L 334.367456 239.255482 
L 334.555732 239.329011 
L 334.744008 239.745495 
L 334.932284 239.032685 
L 335.12056 240.55607 
L 335.308836 236.041973 
L 335.497112 239.499333 
L 335.873664 238.30063 
L 336.06194 239.885999 
L 336.250216 240.474506 
L 336.438492 238.100251 
L 336.626768 240.201854 
L 337.00332 239.665574 
L 337.191596 238.944292 
L 337.379872 240.571795 
L 337.568148 239.936123 
L 337.756424 237.812714 
L 337.9447 238.361822 
L 338.132976 240.043122 
L 338.321252 239.335396 
L 338.509527 239.089081 
L 338.697803 238.324852 
L 338.886079 238.385491 
L 339.262631 239.432511 
L 339.450907 235.599553 
L 339.639183 237.734616 
L 339.827459 236.158382 
L 340.204011 237.790777 
L 340.580563 237.554248 
L 340.768839 235.847004 
L 340.957115 235.648429 
L 341.145391 238.276127 
L 341.333667 238.603532 
L 341.521943 235.587569 
L 341.898495 237.810429 
L 342.086771 236.475199 
L 342.275047 238.552547 
L 342.463323 239.12148 
L 342.651599 238.020802 
L 343.02815 236.936852 
L 343.216426 238.846115 
L 343.404702 237.646193 
L 343.781254 239.629504 
L 343.96953 238.007619 
L 344.157806 238.791935 
L 344.346082 238.630758 
L 344.534358 237.787101 
L 344.722634 238.083331 
L 344.91091 237.454408 
L 345.099186 238.864457 
L 345.287462 239.061863 
L 345.475738 237.93939 
L 345.664014 237.716363 
L 345.85229 240.478056 
L 346.040566 239.774391 
L 346.228842 237.957278 
L 346.417118 237.593279 
L 346.79367 239.807126 
L 346.981946 237.66842 
L 347.170221 238.355043 
L 347.358497 236.656104 
L 347.546773 237.641284 
L 347.735049 240.057085 
L 347.923325 236.995424 
L 348.111601 239.472084 
L 348.299877 236.767444 
L 348.676429 240.233677 
L 348.864705 238.793432 
L 349.241257 238.162674 
L 349.429533 238.114656 
L 349.617809 239.318926 
L 349.806085 239.124571 
L 349.994361 238.392405 
L 350.182637 239.103832 
L 350.370913 240.280676 
L 350.559189 239.661383 
L 350.747465 240.633789 
L 350.935741 239.628199 
L 351.124017 239.885642 
L 351.312293 239.890338 
L 351.500568 239.593443 
L 351.688844 238.985997 
L 351.87712 240.016122 
L 352.065396 239.496131 
L 352.253672 239.985646 
L 352.441948 238.939276 
L 352.630224 239.905456 
L 352.8185 239.061613 
L 353.006776 234.600877 
L 353.195052 239.653892 
L 353.383328 238.308456 
L 353.571604 237.968625 
L 353.75988 240.131669 
L 353.948156 239.272694 
L 354.136432 239.266343 
L 354.324708 238.805285 
L 354.512984 239.113558 
L 354.70126 240.410301 
L 354.889536 239.422189 
L 355.077812 239.425284 
L 355.266088 238.803353 
L 355.454364 240.338485 
L 355.64264 240.683664 
L 355.830915 239.464087 
L 356.019191 240.375066 
L 356.207467 239.165557 
L 356.395743 240.994656 
L 356.584019 239.487951 
L 356.772295 240.807396 
L 356.960571 240.458585 
L 357.148847 239.491509 
L 357.337123 240.556015 
L 357.525399 240.39161 
L 357.713675 241.075698 
L 357.901951 238.460887 
L 358.090227 240.152905 
L 358.278503 240.244497 
L 358.466779 240.653401 
L 358.843331 238.539512 
L 359.031607 240.044768 
L 359.219883 239.996757 
L 359.408159 240.900857 
L 359.596435 238.913858 
L 359.784711 241.185999 
L 359.972986 240.677873 
L 360.349538 239.449082 
L 360.537814 239.347116 
L 360.72609 238.905165 
L 360.914366 240.925875 
L 361.102642 239.664375 
L 361.479194 239.49669 
L 361.66747 240.951916 
L 362.044022 239.75781 
L 362.232298 241.149505 
L 362.420574 239.451473 
L 362.60885 240.312428 
L 362.797126 239.461162 
L 363.173678 240.163427 
L 363.361954 239.946454 
L 363.55023 241.155014 
L 363.738506 240.315225 
L 363.926782 240.472119 
L 364.115058 239.126338 
L 364.303333 240.174875 
L 364.491609 239.962821 
L 364.679885 240.53225 
L 364.868161 240.356419 
L 365.056437 240.717729 
L 365.244713 239.331165 
L 365.432989 239.136567 
L 365.621265 239.723495 
L 365.809541 240.711498 
L 365.997817 240.620243 
L 366.186093 239.133198 
L 366.374369 240.574028 
L 366.562645 239.508416 
L 366.750921 240.0479 
L 366.939197 237.661124 
L 367.127473 240.141845 
L 367.315749 239.43607 
L 367.504025 239.278015 
L 367.692301 239.890216 
L 367.880577 238.670202 
L 368.068853 239.720087 
L 368.257129 239.621665 
L 368.63368 241.238312 
L 368.821956 241.178536 
L 369.010232 239.863645 
L 369.198508 239.442853 
L 369.386784 240.886287 
L 369.57506 240.677515 
L 369.951612 241.384574 
L 370.139888 239.7913 
L 370.328164 239.869784 
L 370.51644 240.349734 
L 370.704716 240.028703 
L 370.892992 240.913511 
L 371.081268 240.871346 
L 371.269544 240.210755 
L 371.45782 240.474759 
L 371.646096 240.462703 
L 371.834372 241.21606 
L 372.210924 239.559675 
L 372.3992 241.064473 
L 372.587476 241.144422 
L 372.775752 239.999373 
L 372.964027 241.418727 
L 373.152303 241.260284 
L 373.528855 239.8707 
L 373.717131 240.851714 
L 373.905407 240.559718 
L 374.093683 239.695036 
L 374.281959 240.388623 
L 374.470235 240.235888 
L 374.658511 240.364377 
L 374.846787 239.619827 
L 375.035063 240.699679 
L 375.223339 240.538853 
L 375.411615 239.90499 
L 375.599891 240.525799 
L 375.788167 239.786637 
L 375.976443 240.659705 
L 376.164719 240.335268 
L 376.352995 240.321155 
L 376.541271 239.991278 
L 376.729547 240.376045 
L 376.917823 240.379769 
L 377.106099 240.805807 
L 377.294374 240.433276 
L 377.48265 240.340363 
L 377.670926 241.004959 
L 377.859202 240.426604 
L 378.047478 240.578809 
L 378.235754 239.487736 
L 378.42403 241.433689 
L 378.800582 240.434332 
L 378.988858 241.065751 
L 379.177134 240.381889 
L 379.36541 241.099631 
L 379.741962 241.244486 
L 379.930238 240.656263 
L 380.118514 240.935285 
L 380.495066 240.981486 
L 380.683342 240.279284 
L 380.871618 240.719926 
L 381.059894 240.289495 
L 381.436445 240.820769 
L 381.624721 240.682508 
L 381.812997 240.398884 
L 382.001273 241.371131 
L 382.189549 239.985792 
L 382.566101 241.198615 
L 382.754377 240.775035 
L 382.942653 241.285369 
L 383.130929 240.74209 
L 383.319205 241.054257 
L 383.507481 240.966874 
L 383.695757 240.129972 
L 383.884033 241.180375 
L 384.072309 240.50003 
L 384.260585 241.262532 
L 384.448861 241.007309 
L 384.637137 241.047912 
L 384.825413 239.903604 
L 385.013689 240.706646 
L 385.390241 241.245268 
L 385.766792 241.048086 
L 385.955068 239.951052 
L 386.33162 240.664057 
L 386.519896 239.842617 
L 386.708172 240.850556 
L 386.896448 240.449436 
L 387.084724 241.353384 
L 387.273 241.037086 
L 387.461276 240.135978 
L 387.649552 240.129897 
L 387.837828 241.202083 
L 388.026104 240.776299 
L 388.21438 241.260064 
L 388.402656 241.058625 
L 388.590932 240.626471 
L 388.779208 240.889123 
L 388.967484 241.683044 
L 389.15576 240.591121 
L 389.344036 241.025195 
L 389.532312 240.29227 
L 389.720588 240.246143 
L 390.097139 240.82081 
L 390.285415 241.344553 
L 390.473691 240.618974 
L 390.661967 241.600335 
L 390.850243 241.398209 
L 391.038519 240.998876 
L 391.226795 241.35418 
L 391.415071 240.415596 
L 391.603347 241.223121 
L 391.791623 239.308922 
L 391.979899 240.328717 
L 392.168175 240.667845 
L 392.356451 240.604281 
L 392.544727 240.6892 
L 392.733003 240.120877 
L 392.921279 241.142663 
L 393.297831 240.526108 
L 393.486107 241.024837 
L 393.862659 240.107876 
L 394.050935 240.92909 
L 394.239211 241.075025 
L 394.427486 240.804446 
L 394.615762 239.87876 
L 394.804038 240.381019 
L 394.992314 240.246675 
L 395.18059 240.447115 
L 395.368866 241.283827 
L 395.557142 239.633847 
L 395.745418 241.118891 
L 395.933694 241.244149 
L 396.12197 241.103667 
L 396.310246 240.344386 
L 396.498522 240.4551 
L 396.686798 240.070893 
L 396.875074 241.489079 
L 397.06335 241.260813 
L 397.251626 240.506061 
L 397.439902 241.268629 
L 397.628178 240.098788 
L 397.816454 240.535853 
L 398.00473 240.684599 
L 398.193006 240.270828 
L 398.381282 241.053805 
L 398.569558 240.677568 
L 398.757833 240.944442 
L 398.946109 240.415434 
L 399.134385 240.506623 
L 399.322661 241.557451 
L 400.075765 241.39897 
L 400.264041 240.991036 
L 400.452317 241.367761 
L 400.640593 240.788422 
L 400.828869 241.288622 
L 401.017145 240.499213 
L 401.205421 241.396168 
L 401.393697 240.917274 
L 401.581973 240.981378 
L 401.770249 240.567525 
L 401.958525 241.355146 
L 402.335077 241.497871 
L 402.523353 241.23463 
L 402.899904 241.300138 
L 403.08818 241.070046 
L 403.276456 241.394006 
L 403.464732 240.915165 
L 403.653008 241.580219 
L 403.841284 241.093209 
L 404.02956 240.947999 
L 404.217836 240.655882 
L 404.406112 240.940196 
L 404.594388 240.658608 
L 404.782664 241.192152 
L 404.97094 241.145462 
L 405.159216 241.600336 
L 405.347492 240.367613 
L 405.535768 241.238497 
L 405.724044 241.582041 
L 405.91232 241.490643 
L 406.100596 241.539826 
L 406.288872 241.137029 
L 406.665424 241.402654 
L 406.8537 241.469512 
L 407.041976 241.164075 
L 407.230251 241.448801 
L 407.606803 241.282821 
L 407.795079 240.290584 
L 408.359907 240.343577 
L 408.736459 241.5377 
L 408.924735 240.775241 
L 409.113011 241.096822 
L 409.301287 240.625158 
L 409.677839 240.734411 
L 409.866115 241.11743 
L 410.054391 240.69711 
L 410.242667 241.812718 
L 410.807495 241.366889 
L 410.995771 241.406529 
L 411.184047 240.531561 
L 411.372323 241.248544 
L 411.560598 241.100836 
L 411.748874 241.477317 
L 411.93715 240.742729 
L 412.125426 241.282387 
L 412.313702 241.240819 
L 412.501978 241.360333 
L 412.690254 241.202647 
L 413.255082 241.532007 
L 413.443358 239.925348 
L 413.631634 241.364612 
L 413.81991 240.076186 
L 414.008186 241.511602 
L 414.196462 241.60371 
L 414.384738 241.169961 
L 414.573014 241.521569 
L 414.76129 241.034266 
L 414.949566 241.389216 
L 415.137842 241.037308 
L 415.326118 241.120627 
L 415.514394 241.745914 
L 415.70267 240.951963 
L 415.890945 241.298701 
L 416.079221 240.561898 
L 416.267497 241.287747 
L 416.455773 241.287371 
L 416.644049 241.617532 
L 416.832325 241.578438 
L 417.208877 240.675445 
L 417.585429 241.634477 
L 417.773705 241.616179 
L 417.961981 241.240715 
L 418.150257 241.134401 
L 418.338533 241.625351 
L 418.715085 241.550983 
L 418.903361 241.640604 
L 419.091637 240.224514 
L 419.279913 241.71521 
L 419.468189 240.731596 
L 419.656465 241.206725 
L 419.844741 241.320479 
L 420.033017 241.145076 
L 420.221292 241.228303 
L 420.409568 240.580691 
L 420.78612 241.277389 
L 421.162672 240.894605 
L 421.350948 241.445918 
L 421.539224 240.380535 
L 421.915776 241.490776 
L 422.104052 241.63617 
L 422.480604 240.864342 
L 423.233708 240.762121 
L 423.421984 240.70403 
L 423.61026 240.120788 
L 423.798536 241.637113 
L 423.986812 241.219564 
L 424.175088 241.246412 
L 424.363363 240.93669 
L 424.551639 241.081277 
L 424.739915 240.800767 
L 424.928191 240.284899 
L 425.116467 241.041924 
L 425.304743 240.765933 
L 425.681295 241.288074 
L 425.869571 241.40088 
L 426.057847 240.588504 
L 426.246123 241.330623 
L 426.434399 241.131972 
L 426.622675 241.676525 
L 426.810951 241.525568 
L 426.999227 240.814892 
L 427.187503 241.335128 
L 427.375779 241.411018 
L 427.564055 241.188564 
L 427.752331 240.667717 
L 428.128883 241.405828 
L 428.317159 240.981607 
L 428.505435 240.985582 
L 428.69371 241.243822 
L 429.070262 240.341876 
L 429.258538 240.578339 
L 429.446814 241.539022 
L 429.63509 241.019526 
L 429.823366 241.336103 
L 430.199918 240.762068 
L 430.57647 240.835154 
L 430.953022 241.467812 
L 431.141298 241.198616 
L 431.329574 241.518362 
L 431.51785 240.441274 
L 431.706126 241.28182 
L 431.894402 241.09529 
L 432.082678 241.356434 
L 432.270954 241.229545 
L 432.835782 241.357979 
L 433.024057 241.555745 
L 433.212333 241.247045 
L 433.588885 240.329857 
L 433.777161 241.426137 
L 433.965437 241.279515 
L 434.153713 241.525675 
L 434.530265 241.484975 
L 434.718541 241.17736 
L 434.906817 241.140179 
L 435.095093 240.782689 
L 435.471645 241.653954 
L 435.659921 241.371074 
L 435.848197 241.628893 
L 436.224749 241.132373 
L 436.601301 241.767032 
L 436.977853 241.074912 
L 437.166129 241.494615 
L 437.354404 240.976599 
L 437.54268 241.572485 
L 437.730956 241.658816 
L 438.107508 241.221904 
L 438.48406 241.261913 
L 438.672336 241.53439 
L 438.860612 241.110201 
L 439.42544 241.517534 
L 439.801992 241.407299 
L 439.990268 241.639976 
L 440.178544 241.528148 
L 440.36682 241.74554 
L 440.555096 241.137927 
L 440.743372 241.601524 
L 440.931648 241.633559 
L 441.119924 241.080279 
L 441.496476 241.605961 
L 441.873027 241.403416 
L 442.061303 241.531046 
L 442.249579 241.416232 
L 442.437855 241.496426 
L 442.626131 241.780344 
L 442.814407 241.612636 
L 443.002683 241.276072 
L 443.190959 241.235623 
L 443.567511 241.589601 
L 443.755787 241.487348 
L 443.944063 241.606663 
L 444.132339 241.292156 
L 444.320615 241.736867 
L 444.508891 241.683066 
L 444.697167 241.371269 
L 445.073719 241.746863 
L 445.261995 241.299401 
L 445.450271 241.792846 
L 445.826823 241.126714 
L 446.015098 241.937294 
L 446.203374 241.507946 
L 446.39165 241.447151 
L 446.579926 241.166464 
L 446.768202 241.709617 
L 446.956478 240.97473 
L 447.144754 241.218976 
L 447.33303 241.966062 
L 447.521306 241.49242 
L 447.709582 241.404979 
L 448.086134 241.608214 
L 448.27441 241.409798 
L 448.462686 241.389613 
L 448.650962 241.706976 
L 448.839238 241.318632 
L 449.21579 241.462339 
L 449.404066 241.254304 
L 449.780618 241.591039 
L 449.968894 241.749897 
L 450.157169 241.35722 
L 450.345445 241.728009 
L 450.533721 241.718937 
L 450.721997 241.488986 
L 450.910273 241.55625 
L 451.098549 241.41726 
L 451.286825 241.759738 
L 451.475101 241.276954 
L 451.663377 241.832657 
L 451.851653 241.837014 
L 452.039929 241.575698 
L 452.228205 241.637039 
L 452.416481 241.530409 
L 452.604757 241.894336 
L 452.793033 241.820708 
L 452.981309 241.52599 
L 453.169585 241.824479 
L 453.357861 241.535795 
L 453.546137 241.542533 
L 453.734413 241.349553 
L 453.922689 241.808864 
L 454.110965 241.919184 
L 454.299241 241.161741 
L 454.487516 241.012508 
L 454.864068 241.929518 
L 455.24062 241.081447 
L 455.428896 241.746661 
L 455.805448 241.502144 
L 455.993724 241.637073 
L 456.370276 241.347067 
L 456.558552 241.553433 
L 456.935104 241.305248 
L 457.12338 241.839573 
L 457.499932 241.729228 
L 457.688208 241.282619 
L 457.876484 241.482816 
L 458.06476 241.4627 
L 458.253036 241.004066 
L 458.441312 241.623814 
L 458.629588 241.192546 
L 458.817863 241.303717 
L 459.006139 241.554308 
L 459.194415 241.394757 
L 459.382691 241.574911 
L 459.570967 241.112742 
L 459.759243 241.167994 
L 459.947519 241.765338 
L 460.135795 241.567168 
L 460.324071 241.841263 
L 460.512347 241.787214 
L 460.888899 241.514395 
L 461.077175 241.317003 
L 461.265451 241.352869 
L 461.453727 241.829548 
L 461.642003 241.510928 
L 461.830279 241.921608 
L 462.018555 241.585292 
L 462.395107 241.424028 
L 462.583383 241.838533 
L 463.14821 241.701523 
L 463.336486 241.488253 
L 463.524762 241.724169 
L 463.713038 241.569515 
L 464.08959 241.645185 
L 464.277866 241.779938 
L 464.466142 241.570515 
L 465.03097 241.739229 
L 465.219246 241.488197 
L 465.97235 241.638634 
L 466.160626 241.428668 
L 466.348902 241.95021 
L 466.537178 241.774231 
L 466.725454 241.261683 
L 466.91373 241.513901 
L 467.855109 241.736797 
L 468.043385 241.582648 
L 468.231661 241.752382 
L 468.608213 241.560228 
L 468.796489 241.476418 
L 469.361317 241.674645 
L 469.549593 241.514859 
L 469.737869 241.676279 
L 469.926145 241.591722 
L 470.114421 241.664172 
L 470.302697 241.493534 
L 470.679249 241.7918 
L 470.867525 241.172218 
L 471.055801 241.779954 
L 471.244077 241.772865 
L 471.432353 241.485069 
L 471.620628 241.805762 
L 471.99718 241.95361 
L 472.185456 241.498417 
L 472.373732 241.74528 
L 472.562008 241.465726 
L 472.93856 241.916058 
L 473.126836 241.716426 
L 473.87994 241.686456 
L 474.256492 241.874616 
L 474.633044 241.497471 
L 474.82132 241.791306 
L 475.009596 241.38262 
L 475.386148 241.740711 
L 475.574424 241.520099 
L 476.139251 241.799451 
L 476.327527 241.45676 
L 476.515803 241.623022 
L 476.704079 241.25852 
L 476.892355 241.700395 
L 477.833735 241.805691 
L 478.022011 241.497774 
L 478.210287 241.69226 
L 478.398563 241.548392 
L 478.586839 241.943086 
L 478.775115 241.367625 
L 478.963391 241.938517 
L 479.528219 241.498047 
L 479.716495 241.747874 
L 479.904771 241.73542 
L 480.281322 241.425254 
L 480.469598 241.671359 
L 480.84615 241.44166 
L 481.034426 241.831154 
L 481.222702 241.802846 
L 481.599254 241.59081 
L 481.78753 241.841827 
L 481.975806 241.709059 
L 482.164082 241.748828 
L 482.352358 241.641819 
L 482.72891 241.706266 
L 482.917186 241.924626 
L 483.105462 241.150893 
L 483.293738 241.450287 
L 483.482014 241.535344 
L 483.67029 241.780541 
L 483.858566 241.689345 
L 484.235118 241.743004 
L 484.423394 241.510077 
L 484.611669 241.946277 
L 484.988221 241.228049 
L 485.176497 241.462519 
L 485.364773 241.879347 
L 485.741325 241.475915 
L 486.117877 241.864404 
L 486.306153 241.250034 
L 486.494429 241.676015 
L 486.682705 241.609916 
L 486.870981 241.405176 
L 487.059257 241.821047 
L 487.247533 241.400848 
L 487.435809 241.941148 
L 487.624085 241.375534 
L 487.812361 241.326081 
L 488.188913 241.426271 
L 488.377189 241.897662 
L 488.565465 241.089903 
L 489.130292 241.743306 
L 489.318568 241.450628 
L 489.506844 241.655509 
L 489.69512 241.335972 
L 490.071672 241.820485 
L 490.6365 241.570717 
L 490.824776 241.306172 
L 491.013052 241.291131 
L 491.201328 241.770538 
L 491.389604 241.770433 
L 491.57788 241.415202 
L 491.766156 241.697765 
L 491.954432 241.669355 
L 492.142708 241.335549 
L 492.51926 241.537351 
L 492.707536 241.298954 
L 492.895812 241.784383 
L 493.084087 241.469865 
L 493.272363 241.593569 
L 493.648915 241.457995 
L 493.837191 241.73334 
L 494.025467 241.58534 
L 494.402019 241.716589 
L 494.590295 241.464795 
L 494.778571 241.838357 
L 494.966847 241.236165 
L 495.155123 241.696793 
L 495.343399 241.552072 
L 495.531675 241.583805 
L 495.908227 241.351471 
L 496.096503 241.78783 
L 496.284779 241.846334 
L 496.473055 241.353736 
L 496.661331 241.713714 
L 496.849607 241.815105 
L 497.226159 241.539872 
L 497.60271 241.803645 
L 497.790986 241.671076 
L 497.979262 241.797668 
L 498.167538 241.685891 
L 498.355814 241.755165 
L 498.54409 241.619401 
L 498.920642 241.715086 
L 499.297194 241.574869 
L 499.48547 241.771143 
L 499.862022 241.642185 
L 500.050298 241.835736 
L 500.238574 241.43717 
L 500.42685 241.886528 
L 500.615126 241.63744 
L 500.991678 241.791997 
L 501.179954 241.649163 
L 501.36823 241.793401 
L 501.556506 241.494262 
L 501.744781 241.810201 
L 501.933057 241.826212 
L 502.497885 241.137551 
L 502.686161 241.762796 
L 503.062713 241.62036 
L 503.250989 241.658469 
L 503.439265 241.126049 
L 503.627541 241.807514 
L 503.815817 241.700493 
L 504.192369 241.860961 
L 504.380645 241.784351 
L 504.568921 241.897282 
L 504.757197 241.482606 
L 504.945473 241.71468 
L 505.133749 241.615738 
L 505.322025 242.022113 
L 505.510301 241.861057 
L 505.698577 241.954854 
L 505.886853 241.465472 
L 506.263404 241.749911 
L 506.828232 241.861533 
L 507.016508 241.830069 
L 507.204784 241.58743 
L 507.39306 241.622707 
L 507.581336 241.90751 
L 508.522716 241.672253 
L 508.710992 241.712056 
L 508.899268 241.924608 
L 509.087544 241.670794 
L 509.27582 241.612627 
L 509.464096 241.847554 
L 509.652372 241.844954 
L 509.840648 241.516131 
L 510.2172 241.760354 
L 510.593751 241.577946 
L 510.782027 241.962835 
L 510.970303 241.552801 
L 511.158579 241.864941 
L 511.346855 241.808368 
L 511.535131 241.871887 
L 511.911683 241.653795 
L 512.099959 241.766703 
L 512.288235 241.465733 
L 512.476511 241.499268 
L 512.853063 241.875579 
L 513.041339 241.736287 
L 513.229615 241.947757 
L 514.359271 241.722237 
L 514.547547 241.81843 
L 514.735822 241.585394 
L 514.924098 241.792856 
L 515.112374 241.775832 
L 515.488926 241.968099 
L 515.865478 241.642063 
L 516.053754 241.993168 
L 516.430306 241.615924 
L 516.618582 241.920343 
L 516.806858 241.78041 
L 517.18341 241.751103 
L 517.559962 241.590761 
L 518.313066 241.816761 
L 518.501342 241.435672 
L 518.689618 241.749431 
L 519.254445 241.505173 
L 519.630997 241.867299 
L 519.819273 241.683314 
L 520.007549 241.921423 
L 520.384101 241.647392 
L 520.572377 241.563402 
L 520.760653 241.881216 
L 521.137205 241.916313 
L 521.325481 241.342517 
L 521.702033 241.941666 
L 521.890309 241.943829 
L 522.078585 241.642664 
L 522.455137 241.742901 
L 522.643413 241.911681 
L 523.20824 241.764355 
L 523.396516 241.526917 
L 523.773068 241.970891 
L 523.961344 241.853079 
L 524.14962 241.934439 
L 524.337896 241.656476 
L 524.526172 241.964425 
L 524.714448 241.362488 
L 524.902724 241.893384 
L 525.279276 241.82851 
L 525.467552 241.801689 
L 525.655828 241.935055 
L 526.03238 241.846074 
L 526.408932 241.928041 
L 526.597208 241.753968 
L 526.785484 241.941092 
L 527.162036 241.856844 
L 527.350312 241.750062 
L 527.538587 241.924354 
L 527.915139 241.945879 
L 528.291691 241.56378 
L 528.668243 241.848339 
L 528.856519 241.777732 
L 529.044795 241.930675 
L 529.233071 241.924291 
L 529.421347 241.615173 
L 529.986175 241.968349 
L 530.174451 241.648925 
L 530.362727 241.942565 
L 530.551003 241.740943 
L 531.304107 241.888604 
L 531.492383 241.648261 
L 532.05721 241.913668 
L 532.245486 241.71801 
L 532.433762 241.947552 
L 532.622038 241.988408 
L 532.810314 241.80438 
L 533.186866 242.024638 
L 533.375142 241.826216 
L 533.563418 241.948159 
L 533.751694 241.726234 
L 533.93997 241.834402 
L 534.128246 241.714438 
L 534.316522 241.846706 
L 534.693074 241.877311 
L 534.88135 241.522573 
L 535.069626 241.779394 
L 535.257902 241.78979 
L 535.446178 241.589943 
L 535.634454 241.788055 
L 535.82273 241.692013 
L 536.011006 241.986704 
L 536.199281 241.801688 
L 536.575833 242.019984 
L 536.764109 241.433264 
L 537.140661 241.86261 
L 537.517213 241.673662 
L 537.705489 241.638987 
L 538.082041 241.953104 
L 538.458593 241.848654 
L 538.646869 241.692321 
L 538.835145 242.001924 
L 539.023421 241.804293 
L 539.211697 241.768723 
L 539.399973 241.496096 
L 539.588249 242.039872 
L 539.964801 241.571243 
L 540.153077 241.758393 
L 540.341352 241.676787 
L 540.717904 241.918944 
L 541.094456 241.651322 
L 541.471008 241.872086 
L 541.659284 241.765197 
L 541.84756 241.894155 
L 542.035836 241.76779 
L 542.224112 241.879272 
L 542.412388 241.800872 
L 542.600664 241.898879 
L 542.78894 241.658442 
L 543.165492 241.87705 
L 543.542044 241.699411 
L 543.918596 241.973478 
L 544.106872 241.479458 
L 544.295148 241.884629 
L 544.483424 241.759471 
L 544.671699 241.958193 
L 544.859975 241.981553 
L 545.236527 241.756819 
L 545.424803 241.875719 
L 545.613079 241.730267 
L 545.989631 241.847953 
L 546.177907 241.879976 
L 546.366183 241.74203 
L 546.554459 241.923861 
L 546.742735 241.828966 
L 547.119287 241.89858 
L 547.495839 241.759997 
L 547.872391 241.93337 
L 548.060667 241.798678 
L 548.248943 241.944733 
L 548.625495 241.881293 
L 548.813771 242.01879 
L 549.002046 241.752318 
L 549.190322 241.884388 
L 549.378598 241.749417 
L 549.566874 241.776932 
L 549.75515 242.036033 
L 550.319978 241.70436 
L 550.508254 241.930669 
L 550.69653 241.680304 
L 550.884806 241.656382 
L 551.073082 241.917161 
L 551.261358 241.796025 
L 551.826186 241.979276 
L 552.202738 241.833673 
L 552.955842 241.942154 
L 553.144118 241.640488 
L 553.332393 241.954349 
L 553.520669 242.031162 
L 554.273773 241.556529 
L 554.650325 241.920812 
L 555.026877 241.879875 
L 555.215153 241.611143 
L 555.403429 241.973576 
L 555.779981 241.829861 
L 555.968257 241.507752 
L 556.344809 241.772865 
L 556.533085 241.645758 
L 556.721361 241.929605 
L 557.851016 241.619359 
L 558.039292 241.387702 
L 558.227568 241.566997 
L 558.415844 241.494947 
L 558.60412 241.993277 
L 559.168948 241.853993 
L 559.733776 241.85069 
L 559.922052 241.624206 
L 560.298604 241.57972 
L 560.48688 241.800993 
L 560.863432 241.755522 
L 561.051708 241.562857 
L 561.239984 241.799115 
L 561.42826 241.846506 
L 561.616536 241.403139 
L 561.804811 241.57455 
L 562.181363 241.668809 
L 562.557915 241.960287 
L 562.746191 241.799726 
L 562.934467 241.856141 
L 563.122743 241.750768 
L 563.311019 241.503705 
L 563.499295 241.843077 
L 563.687571 241.738317 
L 563.875847 241.839369 
L 564.064123 241.519735 
L 564.252399 241.836802 
L 564.628951 241.629783 
L 564.817227 241.956262 
L 565.193779 241.310911 
L 565.382055 241.598156 
L 565.570331 241.555116 
L 565.758607 241.759619 
L 566.323434 241.655138 
L 566.699986 241.871832 
L 566.888262 241.676689 
L 567.076538 241.869911 
L 567.641366 241.603735 
L 567.829642 242.026772 
L 568.771022 241.901896 
L 568.959298 241.665775 
L 569.33585 241.880577 
L 569.524126 241.54546 
L 569.712402 241.900161 
L 569.900678 241.594708 
L 570.088954 242.037319 
L 570.27723 241.854041 
L 570.465505 241.827361 
L 570.653781 242.000225 
L 570.842057 241.812772 
L 571.218609 241.781411 
L 571.406885 241.621593 
L 571.595161 241.848828 
L 571.783437 241.822544 
L 571.971713 241.989906 
L 572.348265 241.781914 
L 572.536541 241.784812 
L 572.724817 241.94437 
L 572.913093 241.900957 
L 573.101369 241.986388 
L 573.289645 241.8892 
L 573.477921 241.647808 
L 573.666197 241.744943 
L 573.854473 241.629814 
L 574.042749 241.94688 
L 574.419301 241.843888 
L 575.36068 241.939063 
L 575.548956 241.715795 
L 575.925508 241.967238 
L 576.113784 241.754176 
L 576.30206 242.037411 
L 576.490336 241.715718 
L 576.678612 241.93106 
L 577.055164 241.959796 
L 577.24344 241.630784 
L 577.431716 241.923275 
L 577.619992 241.814372 
L 577.808268 241.896756 
L 577.996544 241.712793 
L 578.18482 241.964305 
L 578.373096 241.794732 
L 578.749648 241.845074 
L 579.126199 241.808896 
L 579.314475 241.918564 
L 579.691027 241.702926 
L 579.879303 241.782154 
L 580.067579 241.296502 
L 580.255855 241.819974 
L 580.444131 241.738352 
L 580.632407 241.958144 
L 580.820683 241.727328 
L 581.008959 241.733635 
L 581.197235 241.604046 
L 581.385511 241.850304 
L 581.573787 241.769937 
L 581.762063 241.904572 
L 581.950339 241.703375 
L 582.138615 241.951563 
L 582.515167 241.820867 
L 583.079995 241.774232 
L 583.26827 241.820051 
L 583.456546 241.677531 
L 583.833098 241.916613 
L 584.021374 241.725545 
L 584.20965 241.729906 
L 584.586202 241.91632 
L 584.962754 241.958617 
L 585.15103 241.753456 
L 585.339306 241.907976 
L 585.527582 241.796171 
L 586.09241 241.806842 
L 586.280686 242.060867 
L 586.657238 241.925204 
L 586.845514 242.023141 
L 587.03379 241.599367 
L 587.222066 241.740715 
L 587.410342 241.705773 
L 587.598617 241.925645 
L 587.786893 241.871607 
L 587.975169 241.956089 
L 588.163445 241.801172 
L 588.351721 241.948909 
L 589.104825 241.794474 
L 589.293101 242.000237 
L 589.481377 241.843875 
L 590.611033 241.948259 
L 590.987585 241.79997 
L 591.175861 241.893127 
L 591.364137 241.686451 
L 591.928964 241.9251 
L 592.11724 241.899369 
L 592.305516 241.999906 
L 592.493792 241.80039 
L 592.870344 242.017799 
L 593.435172 241.892074 
L 593.623448 242.004521 
L 593.811724 241.867651 
L 594.376552 241.94576 
L 594.753104 241.774973 
L 594.94138 241.943456 
L 595.129656 241.916598 
L 595.506208 242.018513 
L 595.694484 242.018566 
L 595.88276 241.807962 
L 597.012415 241.998131 
L 597.388967 241.771945 
L 597.577243 241.947143 
L 597.953795 241.836227 
L 598.142071 241.875603 
L 598.330347 241.781323 
L 598.518623 241.902583 
L 599.271727 241.830295 
L 599.460003 241.992956 
L 599.648279 241.778045 
L 599.836555 241.992919 
L 600.024831 241.895064 
L 600.213107 241.975699 
L 600.401383 241.853733 
L 600.96621 241.997538 
L 601.154486 241.984405 
L 601.342762 241.821827 
L 601.531038 241.840809 
L 601.719314 242.005314 
L 601.90759 241.850217 
L 602.472418 241.925676 
L 602.660694 241.705831 
L 603.602074 241.928005 
L 603.978626 241.961335 
L 604.920005 242.025274 
L 605.296557 241.786417 
L 605.484833 241.950254 
L 605.861385 241.762339 
L 606.237937 242.020424 
L 606.426213 241.896416 
L 606.991041 242.00063 
L 607.179317 241.845963 
L 607.367593 241.952054 
L 607.555869 241.742017 
L 608.120697 242.073197 
L 608.685525 241.615127 
L 609.062076 241.899827 
L 609.626904 241.946007 
L 609.81518 242.032352 
L 610.003456 241.808934 
L 610.191732 241.991965 
L 610.380008 241.892244 
L 610.75656 242.042936 
L 610.944836 241.847113 
L 611.69794 241.95503 
L 611.886216 241.840303 
L 612.451044 241.984681 
L 612.63932 241.856634 
L 613.015872 241.882905 
L 613.204148 241.628301 
L 613.392423 241.898777 
L 613.580699 241.772834 
L 614.522079 241.887284 
L 614.710355 241.685482 
L 614.898631 242.005902 
L 615.086907 241.743815 
L 615.275183 241.89402 
L 615.651735 241.871251 
L 616.969667 241.744481 
L 617.157943 242.033108 
L 617.346219 241.90711 
L 617.534495 241.987732 
L 618.099322 241.732537 
L 618.287598 241.96132 
L 618.475874 242.013159 
L 619.417254 241.752535 
L 619.60553 241.905617 
L 619.793806 241.820174 
L 619.982082 242.038242 
L 620.170358 241.773189 
L 620.54691 241.949151 
L 620.735186 241.729998 
L 621.300014 241.966187 
L 621.48829 241.654797 
L 621.676566 241.65824 
L 621.864842 241.932474 
L 622.241393 241.760526 
L 622.429669 241.875023 
L 622.806221 241.412081 
L 622.994497 241.702311 
L 623.182773 241.640537 
L 623.559325 241.782677 
L 623.747601 241.74754 
L 623.935877 241.828056 
L 624.124153 241.212819 
L 624.312429 241.812326 
L 624.500705 241.378104 
L 624.877257 241.950192 
L 625.065533 241.627281 
L 625.253809 241.793659 
L 625.818637 241.721967 
L 626.006913 241.920733 
L 626.195189 241.502088 
L 626.57174 241.900322 
L 626.760016 241.8233 
L 626.948292 241.371805 
L 627.136568 241.494336 
L 627.324844 241.85434 
L 627.51312 241.75859 
L 627.889672 241.90487 
L 628.077948 241.603968 
L 628.266224 241.9417 
L 628.4545 241.600875 
L 628.831052 241.764445 
L 629.019328 241.640382 
L 629.39588 241.807254 
L 629.584156 241.680011 
L 629.772432 241.833382 
L 630.148984 241.726304 
L 630.33726 241.983237 
L 630.525535 241.722737 
L 631.090363 241.721914 
L 631.278639 241.849163 
L 631.466915 241.558502 
L 631.655191 241.763479 
L 632.220019 241.9197 
L 632.596571 241.555686 
L 632.973123 241.783403 
L 633.349675 241.774713 
L 633.537951 241.977724 
L 633.726227 241.804593 
L 633.914503 241.86208 
L 634.102779 241.784845 
L 634.291055 241.907394 
L 634.479331 241.872729 
L 634.667607 241.690088 
L 634.855882 241.906673 
L 635.044158 241.562206 
L 635.232434 241.865956 
L 635.42071 241.858472 
L 635.608986 241.992169 
L 636.173814 241.846369 
L 636.36209 241.926014 
L 636.550366 241.711812 
L 636.738642 241.678832 
L 637.115194 241.891044 
L 637.30347 241.751374 
L 637.491746 241.911412 
L 637.868298 241.937852 
L 638.056574 242.070913 
L 638.24485 241.737179 
L 638.809678 241.924697 
L 638.997954 241.816777 
L 639.374505 242.052507 
L 639.562781 241.787873 
L 639.751057 241.826512 
L 639.939333 241.985024 
L 640.127609 241.799371 
L 640.504161 241.918054 
L 640.692437 241.67255 
L 640.880713 241.912632 
L 641.068989 241.843355 
L 641.445541 241.908325 
L 641.822093 241.757235 
L 642.198645 241.860388 
L 642.951749 241.84602 
L 643.140025 241.973085 
L 643.328301 241.86226 
L 643.704852 241.904186 
L 643.893128 241.89656 
L 644.081404 241.769521 
L 644.26968 241.790683 
L 644.457956 241.994155 
L 644.646232 241.670494 
L 644.834508 241.949934 
L 645.21106 241.843314 
L 645.399336 241.790558 
L 645.587612 241.97886 
L 645.775888 241.921967 
L 645.964164 241.745805 
L 646.15244 241.982471 
L 646.340716 241.797831 
L 646.717268 241.837219 
L 647.09382 241.988167 
L 647.282096 242.033534 
L 647.470372 241.869938 
L 648.035199 241.968191 
L 648.223475 241.929044 
L 648.411751 242.072266 
L 648.788303 241.884527 
L 650.106235 241.987431 
L 650.294511 241.876842 
L 650.859339 242.035329 
L 651.047615 241.554845 
L 651.235891 241.960811 
L 651.424167 241.903926 
L 651.612443 241.968017 
L 651.800719 241.89132 
L 652.17727 241.955568 
L 652.742098 241.912488 
L 653.495202 242.01844 
L 653.683478 241.886348 
L 654.06003 241.961493 
L 654.248306 241.814588 
L 654.436582 241.966246 
L 654.624858 241.779931 
L 654.813134 241.972113 
L 655.00141 241.890165 
L 655.189686 242.074966 
L 655.377962 241.796563 
L 655.754514 242.074811 
L 656.131066 241.967435 
L 656.319341 241.943296 
L 656.507617 242.083291 
L 656.884169 241.865312 
L 657.448997 241.99486 
L 657.637273 241.953278 
L 657.825549 242.034577 
L 658.202101 241.905484 
L 658.766929 241.994519 
L 659.520033 241.904165 
L 659.708309 241.959622 
L 659.896585 241.772936 
L 660.084861 242.013711 
L 660.273137 242.05742 
L 660.649688 241.833373 
L 661.402792 242.015976 
L 661.591068 241.808316 
L 661.779344 242.038377 
L 662.155896 241.925547 
L 662.720724 241.851194 
L 662.909 241.816167 
L 663.097276 241.980149 
L 663.285552 241.803617 
L 663.473828 241.987911 
L 663.85038 241.863171 
L 664.603484 241.97981 
L 664.79176 241.850075 
L 665.356587 242.001769 
L 665.544863 241.743517 
L 666.109691 241.876403 
L 666.486243 241.922984 
L 666.674519 241.997485 
L 666.862795 241.692531 
L 667.051071 242.038926 
L 667.615899 241.745574 
L 667.992451 241.731014 
L 668.369003 241.929314 
L 668.557279 241.73954 
L 668.933831 241.962468 
L 669.122107 241.876211 
L 669.310382 241.9881 
L 669.498658 241.659595 
L 669.686934 241.825341 
L 669.87521 241.75571 
L 670.063486 242.035407 
L 670.440038 241.879254 
L 671.004866 241.877759 
L 671.381418 241.97913 
L 671.569694 241.786018 
L 671.75797 241.987441 
L 671.946246 242.001515 
L 672.134522 241.868324 
L 672.322798 242.030098 
L 672.887626 241.848924 
L 673.075902 241.824098 
L 673.452453 242.036609 
L 674.017281 241.927346 
L 674.205557 242.060078 
L 674.393833 241.912908 
L 674.582109 241.995061 
L 675.146937 241.919811 
L 675.335213 242.051888 
L 675.900041 241.935682 
L 676.276593 241.957983 
L 676.464869 241.886534 
L 676.653145 241.991894 
L 677.029697 242.006998 
L 677.217973 242.032811 
L 677.406249 241.814796 
L 678.72418 241.966875 
L 679.289008 241.990043 
L 680.418664 241.989048 
L 680.60694 242.049609 
L 680.983492 241.674732 
L 681.360044 241.99182 
L 681.54832 241.955616 
L 681.924872 241.700995 
L 682.113147 241.996478 
L 682.677975 241.889714 
L 682.866251 242.046786 
L 683.054527 241.791653 
L 683.242803 241.930266 
L 683.431079 241.665909 
L 683.619355 241.933433 
L 683.807631 241.664957 
L 683.995907 241.756157 
L 684.184183 241.977501 
L 684.372459 241.766741 
L 684.560735 241.908233 
L 684.749011 241.62953 
L 684.937287 241.920823 
L 685.690391 241.692425 
L 686.066943 241.6149 
L 686.255219 241.820989 
L 686.63177 241.615342 
L 686.820046 241.528188 
L 687.384874 241.859978 
L 687.57315 241.523966 
L 687.761426 241.91083 
L 687.949702 241.85602 
L 688.137978 241.588139 
L 688.326254 241.876305 
L 688.891082 241.630817 
L 689.079358 241.958455 
L 689.267634 241.624695 
L 689.644186 241.806621 
L 689.832462 241.589289 
L 690.39729 241.757854 
L 690.773841 241.906446 
L 691.150393 241.523802 
L 691.338669 241.979976 
L 691.715221 241.618699 
L 691.903497 241.904504 
L 692.656601 241.669759 
L 692.844877 241.845431 
L 693.033153 241.778619 
L 693.221429 241.865269 
L 693.409705 241.634196 
L 693.597981 241.86288 
L 693.786257 241.675552 
L 693.974533 241.924105 
L 694.915913 241.905593 
L 695.104188 241.985783 
L 695.292464 241.941032 
L 695.669016 241.7052 
L 695.857292 241.818675 
L 696.045568 241.746803 
L 696.42212 241.917846 
L 696.610396 241.960399 
L 696.798672 241.810405 
L 697.175224 241.910818 
L 697.3635 241.683437 
L 697.551776 241.984815 
L 697.928328 241.755243 
L 698.869708 241.965529 
L 699.057984 241.708467 
L 699.246259 241.798356 
L 699.434535 241.635272 
L 699.811087 242.026054 
L 700.375915 241.81094 
L 700.564191 241.904629 
L 700.940743 241.824893 
L 701.317295 241.868896 
L 701.693847 241.815677 
L 701.882123 241.723262 
L 702.446951 241.945106 
L 702.635227 241.758178 
L 703.011779 241.870528 
L 703.200055 241.810968 
L 703.388331 241.626081 
L 703.576606 241.910103 
L 703.764882 241.984461 
L 704.32971 241.538905 
L 704.517986 241.558874 
L 704.706262 241.787178 
L 704.894538 241.681438 
L 705.082814 241.945898 
L 705.27109 241.797644 
L 705.647642 241.906683 
L 706.024194 241.936369 
L 706.21247 241.766967 
L 706.400746 241.972844 
L 706.589022 241.9273 
L 706.965574 241.421318 
L 707.15385 241.965702 
L 707.342126 241.845836 
L 708.095229 241.868141 
L 708.283505 241.535193 
L 708.471781 241.876601 
L 708.660057 241.78452 
L 708.848333 241.866207 
L 709.036609 241.747653 
L 709.224885 241.81678 
L 709.413161 241.700505 
L 709.601437 241.956661 
L 709.789713 241.907586 
L 709.977989 241.583489 
L 710.166265 241.964791 
L 710.354541 241.980988 
L 710.542817 241.851739 
L 710.731093 241.951079 
L 711.107645 241.766323 
L 712.049025 241.97272 
L 712.425576 241.76514 
L 712.613852 242.004538 
L 713.366956 241.865823 
L 713.555232 241.668871 
L 713.743508 241.930124 
L 714.308336 241.940564 
L 714.873164 241.775711 
L 715.06144 242.073727 
L 715.437992 241.830207 
L 715.814544 241.960127 
L 716.00282 241.888802 
L 716.567647 242.053105 
L 716.944199 241.912674 
L 717.132475 242.012875 
L 717.509027 241.829003 
L 718.073855 241.962696 
L 719.391787 241.977436 
L 720.333167 242.018108 
L 720.521443 241.812136 
L 720.897994 242.048191 
L 721.462822 241.973052 
L 722.215926 241.917826 
L 722.592478 242.031111 
L 722.780754 241.894161 
L 723.157306 242.019578 
L 723.345582 241.904776 
L 723.722134 242.022438 
L 723.91041 241.804468 
L 724.098686 241.977316 
L 724.85179 241.702505 
L 725.040065 241.954701 
L 726.357997 241.978674 
L 726.546273 242.079086 
L 726.734549 241.885831 
L 726.922825 242.065084 
L 727.675929 241.83965 
L 727.864205 242.002727 
L 728.052481 242.001653 
L 728.240757 241.861142 
L 728.429033 242.004007 
L 728.993861 241.994214 
L 729.182137 241.762893 
L 729.370412 241.928826 
L 729.93524 241.8106 
L 730.123516 241.83936 
L 730.311792 242.036473 
L 730.688344 241.977504 
L 730.87662 242.029938 
L 731.253172 241.781347 
L 731.441448 241.940953 
L 731.629724 241.667703 
L 732.194552 241.979624 
L 732.571104 241.783445 
L 732.947656 241.98112 
L 733.324208 242.008869 
L 734.077311 241.822562 
L 734.265587 241.928954 
L 734.453863 241.880594 
L 734.642139 242.022517 
L 734.830415 241.999415 
L 735.018691 241.751778 
L 735.395243 241.974518 
L 735.583519 241.866515 
L 735.771795 241.967909 
L 736.148347 241.928109 
L 736.336623 242.031058 
L 737.842831 241.815513 
L 738.031106 242.039737 
L 738.595934 241.962721 
L 739.537314 241.995367 
L 739.72559 242.042431 
L 739.913866 241.823531 
L 740.290418 241.99812 
L 740.478694 242.030333 
L 740.66697 241.723381 
L 740.855246 242.025125 
L 741.231798 241.935548 
L 741.420074 241.707492 
L 741.60835 241.998545 
L 741.984902 241.724122 
L 742.173177 241.980387 
L 742.549729 241.97097 
L 742.738005 241.83065 
L 742.926281 242.000441 
L 743.302833 241.76539 
L 743.491109 241.987069 
L 743.679385 241.942766 
L 743.867661 241.761679 
L 744.055937 242.023125 
L 744.620765 241.91449 
L 744.809041 241.836093 
L 745.373869 241.908153 
L 745.750421 241.969737 
L 746.126973 241.908109 
L 746.315249 241.959212 
L 746.503524 241.877936 
L 746.6918 241.973901 
L 747.068352 241.82311 
L 747.256628 242.029997 
L 747.63318 241.61267 
L 748.009732 242.035698 
L 748.386284 241.795586 
L 748.762836 241.922463 
L 748.951112 241.82486 
L 749.139388 241.968708 
L 750.645596 241.814811 
L 750.833871 241.989041 
L 751.022147 241.864628 
L 751.210423 242.02952 
L 751.398699 241.943684 
L 751.586975 242.020877 
L 751.963527 241.717603 
L 752.340079 241.972358 
L 752.528355 241.995969 
L 752.904907 241.811557 
L 753.469735 241.935447 
L 753.658011 241.866311 
L 753.846287 242.006354 
L 754.034563 241.81686 
L 754.222839 241.953447 
L 754.599391 241.786391 
L 754.787667 241.968471 
L 754.975943 241.929196 
L 755.164218 242.008989 
L 755.352494 241.905891 
L 755.917322 241.998552 
L 756.105598 241.76525 
L 756.293874 241.952018 
L 758.553186 241.970854 
L 758.741462 242.026269 
L 758.929738 241.846106 
L 759.118014 241.827802 
L 759.30629 241.965983 
L 759.494565 241.800884 
L 759.871117 241.972675 
L 760.059393 241.881234 
L 760.435945 242.04273 
L 761.377325 241.825984 
L 761.565601 242.03634 
L 761.942153 241.779919 
L 762.130429 241.997522 
L 763.260085 241.950867 
L 763.824912 242.012904 
L 764.013188 241.839877 
L 764.201464 241.971873 
L 764.38974 241.892037 
L 764.578016 242.047131 
L 765.707672 241.936326 
L 765.895948 241.995287 
L 766.084224 241.851469 
L 766.2725 242.04263 
L 767.025604 241.920145 
L 767.21388 242.004254 
L 767.402156 241.871445 
L 768.155259 241.946321 
L 768.343535 242.054873 
L 768.531811 241.900062 
L 769.096639 242.041856 
L 769.661467 241.903212 
L 770.226295 241.926448 
L 770.414571 241.935854 
L 770.602847 241.765998 
L 770.791123 241.982629 
L 771.167675 241.870919 
L 771.355951 241.991297 
L 771.544227 241.832046 
L 771.732503 241.967424 
L 772.109055 241.759542 
L 772.29733 242.006691 
L 772.485606 241.886913 
L 772.862158 242.015025 
L 773.23871 241.793827 
L 773.615262 241.995637 
L 774.18009 241.889441 
L 774.368366 242.015073 
L 774.933194 241.835371 
L 775.12147 241.94844 
L 775.309746 241.914532 
L 775.686298 241.968411 
L 776.251126 242.054002 
L 777.004229 242.004325 
L 777.192505 242.040651 
L 777.569057 241.97078 
L 777.757333 242.03923 
L 777.945609 241.984706 
L 778.133885 241.799081 
L 778.510437 241.975585 
L 778.698713 241.894936 
L 779.075265 242.026103 
L 779.263541 241.910582 
L 779.451817 242.070064 
L 780.016645 241.932628 
L 780.393197 242.061933 
L 780.769749 241.943014 
L 782.464232 241.933154 
L 782.652508 241.993823 
L 782.840784 241.813435 
L 783.02906 242.020432 
L 784.346992 242.00888 
L 784.535268 242.068549 
L 784.91182 242.007965 
L 785.476647 242.011983 
L 786.229751 242.069643 
L 786.606303 242.00593 
L 786.794579 242.08051 
L 786.982855 241.947317 
L 787.359407 242.055211 
L 787.547683 241.952302 
L 787.924235 242.038098 
L 788.112511 241.911841 
L 788.300787 242.036112 
L 788.489063 241.997334 
L 788.677339 242.091664 
L 789.242167 242.041076 
L 789.618718 241.997345 
L 791.313202 242.075806 
L 791.501478 241.93013 
L 791.689754 242.028746 
L 792.254582 241.923408 
L 792.442858 242.039086 
L 793.007686 241.960812 
L 793.195962 242.052439 
L 793.384238 241.930607 
L 793.760789 241.987751 
L 794.325617 242.014902 
L 795.078721 241.995845 
L 795.831825 242.049548 
L 796.773205 241.934421 
L 796.961481 242.075083 
L 797.149757 241.933389 
L 797.526309 242.079475 
L 798.091136 241.967587 
L 800.915276 242.016488 
L 801.480104 241.961258 
L 801.66838 242.049903 
L 802.044932 241.95184 
L 802.609759 242.03472 
L 803.174587 242.026276 
L 804.492519 242.015235 
L 804.680795 241.909975 
L 804.869071 242.116085 
L 805.245623 241.995463 
L 805.622175 242.069278 
L 805.810451 241.945471 
L 806.75183 242.076119 
L 807.128382 241.998705 
L 807.69321 242.021925 
L 807.881486 241.968882 
L 808.258038 242.001505 
L 809.011142 242.074468 
L 809.764246 242.009948 
L 810.329074 242.030442 
L 810.51735 241.927921 
L 810.893901 242.071894 
L 811.082177 241.978522 
L 811.270453 242.029535 
L 811.458729 241.954378 
L 811.647005 242.072625 
L 811.835281 241.962371 
L 812.588385 242.065342 
L 813.718041 241.987776 
L 813.906317 241.855185 
L 814.659421 242.064133 
L 815.412524 241.952349 
L 815.6008 242.074134 
L 815.789076 241.910899 
L 816.165628 242.030047 
L 816.54218 242.046837 
L 816.730456 241.974143 
L 817.107008 242.058566 
L 817.295284 241.991891 
L 817.48356 242.058123 
L 817.860112 241.992853 
L 821.060803 241.931699 
L 821.437355 241.995861 
L 821.625631 241.84911 
L 822.002183 241.993733 
L 822.755287 241.832071 
L 822.943563 242.023676 
L 823.884942 242.003059 
L 824.261494 241.908469 
L 824.638046 241.996211 
L 825.014598 241.969092 
L 827.650462 242.063 
L 827.838738 241.965303 
L 828.027014 242.100028 
L 828.215289 242.016151 
L 828.403565 242.067745 
L 828.591841 241.978015 
L 828.780117 242.105951 
L 829.533221 242.006197 
L 829.721497 242.107306 
L 830.286325 242.025423 
L 831.039429 242.065498 
L 831.227705 241.920905 
L 831.415981 242.035852 
L 832.35736 242.018587 
L 832.922188 242.026477 
L 833.863568 242.05214 
L 834.616672 241.971629 
L 834.804948 241.944897 
L 834.993224 242.056052 
L 835.1815 242.002237 
L 835.558052 242.04721 
L 836.311156 242.069814 
L 836.499432 241.940236 
L 836.875983 242.029129 
L 838.570467 241.962876 
L 838.758743 242.08145 
L 838.947019 242.001391 
L 839.511847 242.05095 
L 839.700123 241.927743 
L 840.076675 242.064768 
L 840.453227 242.079454 
L 840.641503 241.976092 
L 840.829779 242.097982 
L 841.771158 241.993624 
L 841.959434 242.071167 
L 842.14771 241.922854 
L 842.524262 242.028722 
L 842.712538 241.940824 
L 842.900814 242.076986 
L 843.465642 242.012359 
L 844.595298 242.067048 
L 845.348401 242.037933 
L 847.607713 242.050963 
L 848.172541 242.01793 
L 848.549093 242.052798 
L 851.184956 242.038924 
L 852.502888 242.061405 
L 852.87944 242.045477 
L 853.067716 242.074053 
L 853.255992 241.974424 
L 853.632544 242.0161 
L 859.092546 242.073221 
L 859.280822 241.930763 
L 859.469098 242.053124 
L 859.84565 241.928139 
L 860.598754 242.099384 
L 860.78703 241.850185 
L 860.975306 242.044993 
L 861.351858 242.060224 
L 861.540134 242.068733 
L 861.916686 241.964323 
L 862.293238 242.03177 
L 862.481513 241.904674 
L 862.669789 242.032731 
L 863.234617 242.049726 
L 864.175997 242.09197 
L 864.740825 242.034693 
L 866.058757 241.988567 
L 866.81186 242.093795 
L 867.000136 242.084074 
L 867.188412 241.947451 
L 867.564964 242.044286 
L 867.941516 242.059888 
L 868.69462 242.038918 
L 869.259448 242.026112 
L 869.824276 242.032282 
L 870.389104 242.071561 
L 870.57738 241.960296 
L 870.953932 242.071978 
L 871.707035 241.988868 
L 872.271863 242.069554 
L 872.648415 242.026515 
L 881.685661 242.07825 
L 881.873937 241.872905 
L 882.062213 242.01174 
L 882.250489 241.891738 
L 882.627041 241.999095 
L 883.003593 241.999429 
L 883.756697 241.998134 
L 883.944972 242.055477 
L 884.133248 241.875209 
L 884.321524 242.056296 
L 889.781527 241.947368 
L 889.969803 242.036691 
L 890.158079 241.942897 
L 890.346355 242.088865 
L 890.722907 241.958578 
L 890.911183 242.087356 
L 891.287735 241.950633 
L 891.476011 242.032391 
L 891.852563 242.042584 
L 892.417391 242.039728 
L 893.170494 242.056627 
L 893.547046 242.039797 
L 894.111874 242.068245 
L 896.559462 242.075527 
L 896.747738 241.961845 
L 897.124289 242.068878 
L 898.630497 242.075129 
L 899.007049 241.988289 
L 899.571877 242.053581 
L 900.136705 242.060682 
L 901.26636 242.065048 
L 916.140161 242.086292 
L 916.328437 242.005429 
L 917.081541 242.090505 
L 918.022921 242.060573 
L 919.152576 242.05942 
L 921.035336 242.063992 
L 921.600164 242.040048 
L 921.976716 242.00736 
L 924.424303 242.015815 
L 925.177407 242.078784 
L 925.365683 241.840949 
L 925.553959 242.041513 
L 925.930511 241.989661 
L 926.118787 241.971742 
L 926.307063 242.071054 
L 926.683615 242.00565 
L 926.87189 242.055428 
L 927.248442 241.937023 
L 927.81327 242.023578 
L 928.378098 242.020121 
L 932.143617 242.070918 
L 932.331893 241.950537 
L 932.708445 242.066917 
L 934.214653 241.995274 
L 934.591205 241.993021 
L 934.779481 242.101436 
L 934.967757 241.956364 
L 935.532584 242.064184 
L 936.285688 242.094576 
L 937.038792 242.07837 
L 939.298104 242.087189 
L 939.48638 242.09432 
L 939.674656 241.949961 
L 940.051207 242.092484 
L 940.427759 242.059579 
L 941.369139 242.08971 
L 950.782937 242.041552 
L 951.912593 242.003612 
L 952.100869 241.921592 
L 952.477421 242.071003 
L 952.665696 241.975719 
L 953.042248 241.974757 
L 954.36018 242.027976 
L 954.548456 241.94713 
L 954.925008 242.032267 
L 955.30156 241.94277 
L 956.24294 242.064985 
L 956.807768 241.944058 
L 957.184319 242.040736 
L 958.502251 242.040806 
L 959.255355 242.062886 
L 960.573287 242.045709 
L 960.949839 242.057335 
L 961.514666 242.01856 
L 961.702942 242.099551 
L 961.891218 241.992302 
L 963.020874 242.095829 
L 964.15053 242.033399 
L 964.527082 242.106318 
L 964.715358 242.01625 
L 964.903634 242.102166 
L 965.280186 242.032734 
L 965.468462 242.116364 
L 965.845013 242.079546 
L 966.786393 242.040145 
L 967.351221 242.109361 
L 967.727773 242.051684 
L 970.363636 242.02466 
L 970.363636 242.02466 
" style="fill:none;stroke:#1f77b4;stroke-linecap:square;stroke-width:1.5;"/>
   </g>
   <g id="patch_3">
    <path d="M 180 252 
L 180 34.56 
" style="fill:none;stroke:#000000;stroke-linecap:square;stroke-linejoin:miter;stroke-width:0.8;"/>
   </g>
   <g id="patch_4">
    <path d="M 1008 252 
L 1008 34.56 
" style="fill:none;stroke:#000000;stroke-linecap:square;stroke-linejoin:miter;stroke-width:0.8;"/>
   </g>
   <g id="patch_5">
    <path d="M 180 252 
L 1008 252 
" style="fill:none;stroke:#000000;stroke-linecap:square;stroke-linejoin:miter;stroke-width:0.8;"/>
   </g>
   <g id="patch_6">
    <path d="M 180 34.56 
L 1008 34.56 
" style="fill:none;stroke:#000000;stroke-linecap:square;stroke-linejoin:miter;stroke-width:0.8;"/>
   </g>
   <g id="legend_1">
    <g id="PathCollection_2">
     <g>
      <use style="fill:#ff0000;stroke:#ff0000;" x="1085.8" xlink:href="#m3dfe2527df" y="56.745312"/>
     </g>
    </g>
    <g id="text_10">
     <!-- &gt; mean + 3SD -->
     <defs>
      <path d="M 52.875 31.296875 
L 5.46875 11.03125 
L 5.46875 19.78125 
L 43.015625 35.359375 
L 5.46875 50.78125 
L 5.46875 59.515625 
L 52.875 39.5 
z
" id="ArialMT-62"/>
      <path d="M 25.046875 11.578125 
L 25.046875 31.203125 
L 5.5625 31.203125 
L 5.5625 39.40625 
L 25.046875 39.40625 
L 25.046875 58.890625 
L 33.34375 58.890625 
L 33.34375 39.40625 
L 52.828125 39.40625 
L 52.828125 31.203125 
L 33.34375 31.203125 
L 33.34375 11.578125 
z
" id="ArialMT-43"/>
      <path d="M 4.203125 18.890625 
L 12.984375 20.0625 
Q 14.5 12.59375 18.140625 9.296875 
Q 21.78125 6 27 6 
Q 33.203125 6 37.46875 10.296875 
Q 41.75 14.59375 41.75 20.953125 
Q 41.75 27 37.796875 30.921875 
Q 33.84375 34.859375 27.734375 34.859375 
Q 25.25 34.859375 21.53125 33.890625 
L 22.515625 41.609375 
Q 23.390625 41.5 23.921875 41.5 
Q 29.546875 41.5 34.03125 44.421875 
Q 38.53125 47.359375 38.53125 53.46875 
Q 38.53125 58.296875 35.25 61.46875 
Q 31.984375 64.65625 26.8125 64.65625 
Q 21.6875 64.65625 18.265625 61.421875 
Q 14.84375 58.203125 13.875 51.765625 
L 5.078125 53.328125 
Q 6.6875 62.15625 12.390625 67.015625 
Q 18.109375 71.875 26.609375 71.875 
Q 32.46875 71.875 37.390625 69.359375 
Q 42.328125 66.84375 44.9375 62.5 
Q 47.5625 58.15625 47.5625 53.265625 
Q 47.5625 48.640625 45.0625 44.828125 
Q 42.578125 41.015625 37.703125 38.765625 
Q 44.046875 37.3125 47.5625 32.6875 
Q 51.078125 28.078125 51.078125 21.140625 
Q 51.078125 11.765625 44.234375 5.25 
Q 37.40625 -1.265625 26.953125 -1.265625 
Q 17.53125 -1.265625 11.296875 4.34375 
Q 5.078125 9.96875 4.203125 18.890625 
z
" id="ArialMT-51"/>
      <path d="M 4.5 23 
L 13.421875 23.78125 
Q 14.0625 18.40625 16.375 14.96875 
Q 18.703125 11.53125 23.578125 9.40625 
Q 28.46875 7.28125 34.578125 7.28125 
Q 39.984375 7.28125 44.140625 8.890625 
Q 48.296875 10.5 50.3125 13.296875 
Q 52.34375 16.109375 52.34375 19.4375 
Q 52.34375 22.796875 50.390625 25.3125 
Q 48.4375 27.828125 43.953125 29.546875 
Q 41.0625 30.671875 31.203125 33.03125 
Q 21.34375 35.40625 17.390625 37.5 
Q 12.25 40.1875 9.734375 44.15625 
Q 7.234375 48.140625 7.234375 53.078125 
Q 7.234375 58.5 10.296875 63.203125 
Q 13.375 67.921875 19.28125 70.359375 
Q 25.203125 72.796875 32.421875 72.796875 
Q 40.375 72.796875 46.453125 70.234375 
Q 52.546875 67.671875 55.8125 62.6875 
Q 59.078125 57.71875 59.328125 51.421875 
L 50.25 50.734375 
Q 49.515625 57.515625 45.28125 60.984375 
Q 41.0625 64.453125 32.8125 64.453125 
Q 24.21875 64.453125 20.28125 61.296875 
Q 16.359375 58.15625 16.359375 53.71875 
Q 16.359375 49.859375 19.140625 47.359375 
Q 21.875 44.875 33.421875 42.265625 
Q 44.96875 39.65625 49.265625 37.703125 
Q 55.515625 34.8125 58.484375 30.390625 
Q 61.46875 25.984375 61.46875 20.21875 
Q 61.46875 14.5 58.203125 9.4375 
Q 54.9375 4.390625 48.796875 1.578125 
Q 42.671875 -1.21875 35.015625 -1.21875 
Q 25.296875 -1.21875 18.71875 1.609375 
Q 12.15625 4.4375 8.421875 10.125 
Q 4.6875 15.828125 4.5 23 
z
" id="ArialMT-83"/>
      <path d="M 7.71875 0 
L 7.71875 71.578125 
L 32.375 71.578125 
Q 40.71875 71.578125 45.125 70.5625 
Q 51.265625 69.140625 55.609375 65.4375 
Q 61.28125 60.640625 64.078125 53.1875 
Q 66.890625 45.75 66.890625 36.1875 
Q 66.890625 28.03125 64.984375 21.734375 
Q 63.09375 15.4375 60.109375 11.296875 
Q 57.125 7.171875 53.578125 4.796875 
Q 50.046875 2.4375 45.046875 1.21875 
Q 40.046875 0 33.546875 0 
z
M 17.1875 8.453125 
L 32.46875 8.453125 
Q 39.546875 8.453125 43.578125 9.765625 
Q 47.609375 11.078125 50 13.484375 
Q 53.375 16.84375 55.25 22.53125 
Q 57.125 28.21875 57.125 36.328125 
Q 57.125 47.5625 53.4375 53.59375 
Q 49.75 59.625 44.484375 61.671875 
Q 40.671875 63.140625 32.234375 63.140625 
L 17.1875 63.140625 
z
" id="ArialMT-68"/>
     </defs>
     <g transform="translate(1132.6 63.570312)scale(0.26 -0.26)">
      <use xlink:href="#ArialMT-62"/>
      <use x="58.398438" xlink:href="#ArialMT-32"/>
      <use x="86.181641" xlink:href="#ArialMT-109"/>
      <use x="169.482422" xlink:href="#ArialMT-101"/>
      <use x="225.097656" xlink:href="#ArialMT-97"/>
      <use x="280.712891" xlink:href="#ArialMT-110"/>
      <use x="336.328125" xlink:href="#ArialMT-32"/>
      <use x="364.111328" xlink:href="#ArialMT-43"/>
      <use x="422.509766" xlink:href="#ArialMT-32"/>
      <use x="450.292969" xlink:href="#ArialMT-51"/>
      <use x="505.908203" xlink:href="#ArialMT-83"/>
      <use x="572.607422" xlink:href="#ArialMT-68"/>
     </g>
    </g>
   </g>
  </g>
 </g>
 <defs>
  <clipPath id="ped70584e9a">
   <rect height="217.44" width="828" x="180" y="34.56"/>
  </clipPath>
 </defs>
</svg>
