<?xml version="1.0" encoding="utf-8" standalone="no"?>
<!DOCTYPE svg PUBLIC "-//W3C//DTD SVG 1.1//EN"
  "http://www.w3.org/Graphics/SVG/1.1/DTD/svg11.dtd">
<!-- Created with matplotlib (https://matplotlib.org/) -->
<svg height="288pt" version="1.1" viewBox="0 0 1440 288" width="1440pt" xmlns="http://www.w3.org/2000/svg" xmlns:xlink="http://www.w3.org/1999/xlink">
 <defs>
  <style type="text/css">
*{stroke-linecap:butt;stroke-linejoin:round;}
  </style>
 </defs>
 <g id="figure_1">
  <g id="patch_1">
   <path d="M 0 288 
L 1440 288 
L 1440 0 
L 0 0 
z
" style="fill:#ffffff;"/>
  </g>
  <g id="axes_1">
   <g id="patch_2">
    <path d="M 180 252 
L 1008 252 
L 1008 34.56 
L 180 34.56 
z
" style="fill:#ffffff;"/>
   </g>
   <g id="PathCollection_1">
    <defs>
     <path d="M 0 3 
C 0.795609 3 1.55874 2.683901 2.12132 2.12132 
C 2.683901 1.55874 3 0.795609 3 0 
C 3 -0.795609 2.683901 -1.55874 2.12132 -2.12132 
C 1.55874 -2.683901 0.795609 -3 0 -3 
C -0.795609 -3 -1.55874 -2.683901 -2.12132 -2.12132 
C -2.683901 -1.55874 -3 -0.795609 -3 0 
C -3 0.795609 -2.683901 1.55874 -2.12132 2.12132 
C -1.55874 2.683901 -0.795609 3 0 3 
z
" id="mface4bb17a" style="stroke:#ff0000;"/>
    </defs>
    <g clip-path="url(#pd4a8902282)">
     <use style="fill:#ff0000;stroke:#ff0000;" x="217.636364" xlink:href="#mface4bb17a" y="44.443636"/>
     <use style="fill:#ff0000;stroke:#ff0000;" x="217.82464" xlink:href="#mface4bb17a" y="141.712847"/>
     <use style="fill:#ff0000;stroke:#ff0000;" x="218.012916" xlink:href="#mface4bb17a" y="190.388092"/>
     <use style="fill:#ff0000;stroke:#ff0000;" x="218.201192" xlink:href="#mface4bb17a" y="214.711568"/>
     <use style="fill:#ff0000;stroke:#ff0000;" x="218.389467" xlink:href="#mface4bb17a" y="226.825137"/>
     <use style="fill:#ff0000;stroke:#ff0000;" x="220.272227" xlink:href="#mface4bb17a" y="224.715719"/>
     <use style="fill:#ff0000;stroke:#ff0000;" x="220.460503" xlink:href="#mface4bb17a" y="220.75933"/>
     <use style="fill:#ff0000;stroke:#ff0000;" x="220.648779" xlink:href="#mface4bb17a" y="216.531988"/>
     <use style="fill:#ff0000;stroke:#ff0000;" x="220.837055" xlink:href="#mface4bb17a" y="213.947011"/>
     <use style="fill:#ff0000;stroke:#ff0000;" x="221.025331" xlink:href="#mface4bb17a" y="212.615043"/>
     <use style="fill:#ff0000;stroke:#ff0000;" x="221.213607" xlink:href="#mface4bb17a" y="211.945707"/>
     <use style="fill:#ff0000;stroke:#ff0000;" x="221.401883" xlink:href="#mface4bb17a" y="213.812946"/>
     <use style="fill:#ff0000;stroke:#ff0000;" x="221.590159" xlink:href="#mface4bb17a" y="215.879685"/>
     <use style="fill:#ff0000;stroke:#ff0000;" x="221.778435" xlink:href="#mface4bb17a" y="219.085429"/>
     <use style="fill:#ff0000;stroke:#ff0000;" x="221.966711" xlink:href="#mface4bb17a" y="222.501582"/>
     <use style="fill:#ff0000;stroke:#ff0000;" x="222.154987" xlink:href="#mface4bb17a" y="225.345634"/>
     <use style="fill:#ff0000;stroke:#ff0000;" x="225.355678" xlink:href="#mface4bb17a" y="227.566372"/>
     <use style="fill:#ff0000;stroke:#ff0000;" x="225.543954" xlink:href="#mface4bb17a" y="227.079893"/>
     <use style="fill:#ff0000;stroke:#ff0000;" x="225.73223" xlink:href="#mface4bb17a" y="225.109732"/>
     <use style="fill:#ff0000;stroke:#ff0000;" x="225.920506" xlink:href="#mface4bb17a" y="224.900675"/>
     <use style="fill:#ff0000;stroke:#ff0000;" x="226.108782" xlink:href="#mface4bb17a" y="226.343843"/>
     <use style="fill:#ff0000;stroke:#ff0000;" x="226.297058" xlink:href="#mface4bb17a" y="224.208448"/>
     <use style="fill:#ff0000;stroke:#ff0000;" x="226.485334" xlink:href="#mface4bb17a" y="223.826387"/>
     <use style="fill:#ff0000;stroke:#ff0000;" x="226.67361" xlink:href="#mface4bb17a" y="224.415344"/>
     <use style="fill:#ff0000;stroke:#ff0000;" x="226.861885" xlink:href="#mface4bb17a" y="225.752362"/>
     <use style="fill:#ff0000;stroke:#ff0000;" x="227.050161" xlink:href="#mface4bb17a" y="227.188741"/>
     <use style="fill:#ff0000;stroke:#ff0000;" x="227.238437" xlink:href="#mface4bb17a" y="226.72388"/>
     <use style="fill:#ff0000;stroke:#ff0000;" x="231.945336" xlink:href="#mface4bb17a" y="227.30344"/>
    </g>
   </g>
   <g id="matplotlib.axis_1">
    <g id="xtick_1">
     <g id="line2d_1">
      <path clip-path="url(#pd4a8902282)" d="M 217.636364 252 
L 217.636364 34.56 
" style="fill:none;stroke:#b0b0b0;stroke-linecap:square;stroke-width:0.8;"/>
     </g>
     <g id="line2d_2">
      <defs>
       <path d="M 0 0 
L 0 3.5 
" id="m43bafbf782" style="stroke:#000000;stroke-width:0.8;"/>
      </defs>
      <g>
       <use style="stroke:#000000;stroke-width:0.8;" x="217.636364" xlink:href="#m43bafbf782" y="252"/>
      </g>
     </g>
     <g id="text_1">
      <!-- 0 -->
      <defs>
       <path d="M 4.15625 35.296875 
Q 4.15625 48 6.765625 55.734375 
Q 9.375 63.484375 14.515625 67.671875 
Q 19.671875 71.875 27.484375 71.875 
Q 33.25 71.875 37.59375 69.546875 
Q 41.9375 67.234375 44.765625 62.859375 
Q 47.609375 58.5 49.21875 52.21875 
Q 50.828125 45.953125 50.828125 35.296875 
Q 50.828125 22.703125 48.234375 14.96875 
Q 45.65625 7.234375 40.5 3 
Q 35.359375 -1.21875 27.484375 -1.21875 
Q 17.140625 -1.21875 11.234375 6.203125 
Q 4.15625 15.140625 4.15625 35.296875 
z
M 13.1875 35.296875 
Q 13.1875 17.671875 17.3125 11.828125 
Q 21.4375 6 27.484375 6 
Q 33.546875 6 37.671875 11.859375 
Q 41.796875 17.71875 41.796875 35.296875 
Q 41.796875 52.984375 37.671875 58.78125 
Q 33.546875 64.59375 27.390625 64.59375 
Q 21.34375 64.59375 17.71875 59.46875 
Q 13.1875 52.9375 13.1875 35.296875 
z
" id="ArialMT-48"/>
      </defs>
      <g transform="translate(210.407145 277.610313)scale(0.26 -0.26)">
       <use xlink:href="#ArialMT-48"/>
      </g>
     </g>
    </g>
    <g id="xtick_2">
     <g id="line2d_3">
      <path clip-path="url(#pd4a8902282)" d="M 594.188276 252 
L 594.188276 34.56 
" style="fill:none;stroke:#b0b0b0;stroke-linecap:square;stroke-width:0.8;"/>
     </g>
     <g id="line2d_4">
      <g>
       <use style="stroke:#000000;stroke-width:0.8;" x="594.188276" xlink:href="#m43bafbf782" y="252"/>
      </g>
     </g>
     <g id="text_2">
      <!-- 2000 -->
      <defs>
       <path d="M 50.34375 8.453125 
L 50.34375 0 
L 3.03125 0 
Q 2.9375 3.171875 4.046875 6.109375 
Q 5.859375 10.9375 9.828125 15.625 
Q 13.8125 20.3125 21.34375 26.46875 
Q 33.015625 36.03125 37.109375 41.625 
Q 41.21875 47.21875 41.21875 52.203125 
Q 41.21875 57.421875 37.46875 61 
Q 33.734375 64.59375 27.734375 64.59375 
Q 21.390625 64.59375 17.578125 60.78125 
Q 13.765625 56.984375 13.71875 50.25 
L 4.6875 51.171875 
Q 5.609375 61.28125 11.65625 66.578125 
Q 17.71875 71.875 27.9375 71.875 
Q 38.234375 71.875 44.234375 66.15625 
Q 50.25 60.453125 50.25 52 
Q 50.25 47.703125 48.484375 43.546875 
Q 46.734375 39.40625 42.65625 34.8125 
Q 38.578125 30.21875 29.109375 22.21875 
Q 21.1875 15.578125 18.9375 13.203125 
Q 16.703125 10.84375 15.234375 8.453125 
z
" id="ArialMT-50"/>
      </defs>
      <g transform="translate(565.271401 277.610313)scale(0.26 -0.26)">
       <use xlink:href="#ArialMT-50"/>
       <use x="55.615234" xlink:href="#ArialMT-48"/>
       <use x="111.230469" xlink:href="#ArialMT-48"/>
       <use x="166.845703" xlink:href="#ArialMT-48"/>
      </g>
     </g>
    </g>
    <g id="xtick_3">
     <g id="line2d_5">
      <path clip-path="url(#pd4a8902282)" d="M 970.740188 252 
L 970.740188 34.56 
" style="fill:none;stroke:#b0b0b0;stroke-linecap:square;stroke-width:0.8;"/>
     </g>
     <g id="line2d_6">
      <g>
       <use style="stroke:#000000;stroke-width:0.8;" x="970.740188" xlink:href="#m43bafbf782" y="252"/>
      </g>
     </g>
     <g id="text_3">
      <!-- 4000 -->
      <defs>
       <path d="M 32.328125 0 
L 32.328125 17.140625 
L 1.265625 17.140625 
L 1.265625 25.203125 
L 33.9375 71.578125 
L 41.109375 71.578125 
L 41.109375 25.203125 
L 50.78125 25.203125 
L 50.78125 17.140625 
L 41.109375 17.140625 
L 41.109375 0 
z
M 32.328125 25.203125 
L 32.328125 57.46875 
L 9.90625 25.203125 
z
" id="ArialMT-52"/>
      </defs>
      <g transform="translate(941.823313 277.610313)scale(0.26 -0.26)">
       <use xlink:href="#ArialMT-52"/>
       <use x="55.615234" xlink:href="#ArialMT-48"/>
       <use x="111.230469" xlink:href="#ArialMT-48"/>
       <use x="166.845703" xlink:href="#ArialMT-48"/>
      </g>
     </g>
    </g>
    <g id="text_4">
     <!-- # sample -->
     <defs>
      <path d="M 5.03125 -1.21875 
L 9.28125 19.578125 
L 1.03125 19.578125 
L 1.03125 26.859375 
L 10.75 26.859375 
L 14.359375 44.578125 
L 1.03125 44.578125 
L 1.03125 51.859375 
L 15.828125 51.859375 
L 20.0625 72.796875 
L 27.390625 72.796875 
L 23.140625 51.859375 
L 38.53125 51.859375 
L 42.78125 72.796875 
L 50.140625 72.796875 
L 45.90625 51.859375 
L 54.34375 51.859375 
L 54.34375 44.578125 
L 44.4375 44.578125 
L 40.765625 26.859375 
L 54.34375 26.859375 
L 54.34375 19.578125 
L 39.3125 19.578125 
L 35.0625 -1.21875 
L 27.734375 -1.21875 
L 31.9375 19.578125 
L 16.609375 19.578125 
L 12.359375 -1.21875 
z
M 18.0625 26.859375 
L 33.40625 26.859375 
L 37.0625 44.578125 
L 21.6875 44.578125 
z
" id="ArialMT-35"/>
      <path id="ArialMT-32"/>
      <path d="M 3.078125 15.484375 
L 11.765625 16.84375 
Q 12.5 11.625 15.84375 8.84375 
Q 19.1875 6.0625 25.203125 6.0625 
Q 31.25 6.0625 34.171875 8.515625 
Q 37.109375 10.984375 37.109375 14.3125 
Q 37.109375 17.28125 34.515625 19 
Q 32.71875 20.171875 25.53125 21.96875 
Q 15.875 24.421875 12.140625 26.203125 
Q 8.40625 27.984375 6.46875 31.125 
Q 4.546875 34.28125 4.546875 38.09375 
Q 4.546875 41.546875 6.125 44.5 
Q 7.71875 47.46875 10.453125 49.421875 
Q 12.5 50.921875 16.03125 51.96875 
Q 19.578125 53.03125 23.640625 53.03125 
Q 29.734375 53.03125 34.34375 51.265625 
Q 38.96875 49.515625 41.15625 46.5 
Q 43.359375 43.5 44.1875 38.484375 
L 35.59375 37.3125 
Q 35.015625 41.3125 32.203125 43.546875 
Q 29.390625 45.796875 24.265625 45.796875 
Q 18.21875 45.796875 15.625 43.796875 
Q 13.03125 41.796875 13.03125 39.109375 
Q 13.03125 37.40625 14.109375 36.03125 
Q 15.1875 34.625 17.484375 33.6875 
Q 18.796875 33.203125 25.25 31.453125 
Q 34.578125 28.953125 38.25 27.359375 
Q 41.9375 25.78125 44.03125 22.75 
Q 46.140625 19.734375 46.140625 15.234375 
Q 46.140625 10.84375 43.578125 6.953125 
Q 41.015625 3.078125 36.171875 0.953125 
Q 31.34375 -1.171875 25.25 -1.171875 
Q 15.140625 -1.171875 9.84375 3.03125 
Q 4.546875 7.234375 3.078125 15.484375 
z
" id="ArialMT-115"/>
      <path d="M 40.4375 6.390625 
Q 35.546875 2.25 31.03125 0.53125 
Q 26.515625 -1.171875 21.34375 -1.171875 
Q 12.796875 -1.171875 8.203125 3 
Q 3.609375 7.171875 3.609375 13.671875 
Q 3.609375 17.484375 5.34375 20.625 
Q 7.078125 23.78125 9.890625 25.6875 
Q 12.703125 27.59375 16.21875 28.5625 
Q 18.796875 29.25 24.03125 29.890625 
Q 34.671875 31.15625 39.703125 32.90625 
Q 39.75 34.71875 39.75 35.203125 
Q 39.75 40.578125 37.25 42.78125 
Q 33.890625 45.75 27.25 45.75 
Q 21.046875 45.75 18.09375 43.578125 
Q 15.140625 41.40625 13.71875 35.890625 
L 5.125 37.0625 
Q 6.296875 42.578125 8.984375 45.96875 
Q 11.671875 49.359375 16.75 51.1875 
Q 21.828125 53.03125 28.515625 53.03125 
Q 35.15625 53.03125 39.296875 51.46875 
Q 43.453125 49.90625 45.40625 47.53125 
Q 47.359375 45.171875 48.140625 41.546875 
Q 48.578125 39.3125 48.578125 33.453125 
L 48.578125 21.734375 
Q 48.578125 9.46875 49.140625 6.21875 
Q 49.703125 2.984375 51.375 0 
L 42.1875 0 
Q 40.828125 2.734375 40.4375 6.390625 
z
M 39.703125 26.03125 
Q 34.90625 24.078125 25.34375 22.703125 
Q 19.921875 21.921875 17.671875 20.9375 
Q 15.4375 19.96875 14.203125 18.09375 
Q 12.984375 16.21875 12.984375 13.921875 
Q 12.984375 10.40625 15.640625 8.0625 
Q 18.3125 5.71875 23.4375 5.71875 
Q 28.515625 5.71875 32.46875 7.9375 
Q 36.421875 10.15625 38.28125 14.015625 
Q 39.703125 17 39.703125 22.796875 
z
" id="ArialMT-97"/>
      <path d="M 6.59375 0 
L 6.59375 51.859375 
L 14.453125 51.859375 
L 14.453125 44.578125 
Q 16.890625 48.390625 20.9375 50.703125 
Q 25 53.03125 30.171875 53.03125 
Q 35.9375 53.03125 39.625 50.640625 
Q 43.3125 48.25 44.828125 43.953125 
Q 50.984375 53.03125 60.84375 53.03125 
Q 68.5625 53.03125 72.703125 48.75 
Q 76.859375 44.484375 76.859375 35.59375 
L 76.859375 0 
L 68.109375 0 
L 68.109375 32.671875 
Q 68.109375 37.9375 67.25 40.25 
Q 66.40625 42.578125 64.15625 43.984375 
Q 61.921875 45.40625 58.890625 45.40625 
Q 53.421875 45.40625 49.796875 41.765625 
Q 46.1875 38.140625 46.1875 30.125 
L 46.1875 0 
L 37.40625 0 
L 37.40625 33.6875 
Q 37.40625 39.546875 35.25 42.46875 
Q 33.109375 45.40625 28.21875 45.40625 
Q 24.515625 45.40625 21.359375 43.453125 
Q 18.21875 41.5 16.796875 37.734375 
Q 15.375 33.984375 15.375 26.90625 
L 15.375 0 
z
" id="ArialMT-109"/>
      <path d="M 6.59375 -19.875 
L 6.59375 51.859375 
L 14.59375 51.859375 
L 14.59375 45.125 
Q 17.4375 49.078125 21 51.046875 
Q 24.5625 53.03125 29.640625 53.03125 
Q 36.28125 53.03125 41.359375 49.609375 
Q 46.4375 46.1875 49.015625 39.953125 
Q 51.609375 33.734375 51.609375 26.3125 
Q 51.609375 18.359375 48.75 11.984375 
Q 45.90625 5.609375 40.453125 2.21875 
Q 35.015625 -1.171875 29 -1.171875 
Q 24.609375 -1.171875 21.109375 0.6875 
Q 17.625 2.546875 15.375 5.375 
L 15.375 -19.875 
z
M 14.546875 25.640625 
Q 14.546875 15.625 18.59375 10.84375 
Q 22.65625 6.0625 28.421875 6.0625 
Q 34.28125 6.0625 38.453125 11.015625 
Q 42.625 15.96875 42.625 26.375 
Q 42.625 36.28125 38.546875 41.203125 
Q 34.46875 46.140625 28.8125 46.140625 
Q 23.1875 46.140625 18.859375 40.890625 
Q 14.546875 35.640625 14.546875 25.640625 
z
" id="ArialMT-112"/>
      <path d="M 6.390625 0 
L 6.390625 71.578125 
L 15.1875 71.578125 
L 15.1875 0 
z
" id="ArialMT-108"/>
      <path d="M 42.09375 16.703125 
L 51.171875 15.578125 
Q 49.03125 7.625 43.21875 3.21875 
Q 37.40625 -1.171875 28.375 -1.171875 
Q 17 -1.171875 10.328125 5.828125 
Q 3.65625 12.84375 3.65625 25.484375 
Q 3.65625 38.578125 10.390625 45.796875 
Q 17.140625 53.03125 27.875 53.03125 
Q 38.28125 53.03125 44.875 45.953125 
Q 51.46875 38.875 51.46875 26.03125 
Q 51.46875 25.25 51.421875 23.6875 
L 12.75 23.6875 
Q 13.234375 15.140625 17.578125 10.59375 
Q 21.921875 6.0625 28.421875 6.0625 
Q 33.25 6.0625 36.671875 8.59375 
Q 40.09375 11.140625 42.09375 16.703125 
z
M 13.234375 30.90625 
L 42.1875 30.90625 
Q 41.609375 37.453125 38.875 40.71875 
Q 34.671875 45.796875 27.984375 45.796875 
Q 21.921875 45.796875 17.796875 41.75 
Q 13.671875 37.703125 13.234375 30.90625 
z
" id="ArialMT-101"/>
     </defs>
     <g transform="translate(541.254531 305.705)scale(0.26 -0.26)">
      <use xlink:href="#ArialMT-35"/>
      <use x="55.615234" xlink:href="#ArialMT-32"/>
      <use x="83.398438" xlink:href="#ArialMT-115"/>
      <use x="133.398438" xlink:href="#ArialMT-97"/>
      <use x="189.013672" xlink:href="#ArialMT-109"/>
      <use x="272.314453" xlink:href="#ArialMT-112"/>
      <use x="327.929688" xlink:href="#ArialMT-108"/>
      <use x="350.146484" xlink:href="#ArialMT-101"/>
     </g>
    </g>
   </g>
   <g id="matplotlib.axis_2">
    <g id="ytick_1">
     <g id="line2d_7">
      <path clip-path="url(#pd4a8902282)" d="M 180 242.120806 
L 1008 242.120806 
" style="fill:none;stroke:#b0b0b0;stroke-linecap:square;stroke-width:0.8;"/>
     </g>
     <g id="line2d_8">
      <defs>
       <path d="M 0 0 
L -3.5 0 
" id="m4cda8941d4" style="stroke:#000000;stroke-width:0.8;"/>
      </defs>
      <g>
       <use style="stroke:#000000;stroke-width:0.8;" x="180" xlink:href="#m4cda8941d4" y="242.120806"/>
      </g>
     </g>
     <g id="text_5">
      <!-- 0 -->
      <g transform="translate(158.541562 251.425962)scale(0.26 -0.26)">
       <use xlink:href="#ArialMT-48"/>
      </g>
     </g>
    </g>
    <g id="ytick_2">
     <g id="line2d_9">
      <path clip-path="url(#pd4a8902282)" d="M 180 185.723742 
L 1008 185.723742 
" style="fill:none;stroke:#b0b0b0;stroke-linecap:square;stroke-width:0.8;"/>
     </g>
     <g id="line2d_10">
      <g>
       <use style="stroke:#000000;stroke-width:0.8;" x="180" xlink:href="#m4cda8941d4" y="185.723742"/>
      </g>
     </g>
     <g id="text_6">
      <!-- 50 -->
      <defs>
       <path d="M 4.15625 18.75 
L 13.375 19.53125 
Q 14.40625 12.796875 18.140625 9.390625 
Q 21.875 6 27.15625 6 
Q 33.5 6 37.890625 10.78125 
Q 42.28125 15.578125 42.28125 23.484375 
Q 42.28125 31 38.0625 35.34375 
Q 33.84375 39.703125 27 39.703125 
Q 22.75 39.703125 19.328125 37.765625 
Q 15.921875 35.84375 13.96875 32.765625 
L 5.71875 33.84375 
L 12.640625 70.609375 
L 48.25 70.609375 
L 48.25 62.203125 
L 19.671875 62.203125 
L 15.828125 42.96875 
Q 22.265625 47.46875 29.34375 47.46875 
Q 38.71875 47.46875 45.15625 40.96875 
Q 51.609375 34.46875 51.609375 24.265625 
Q 51.609375 14.546875 45.953125 7.46875 
Q 39.0625 -1.21875 27.15625 -1.21875 
Q 17.390625 -1.21875 11.203125 4.25 
Q 5.03125 9.71875 4.15625 18.75 
z
" id="ArialMT-53"/>
      </defs>
      <g transform="translate(144.083125 195.028898)scale(0.26 -0.26)">
       <use xlink:href="#ArialMT-53"/>
       <use x="55.615234" xlink:href="#ArialMT-48"/>
      </g>
     </g>
    </g>
    <g id="ytick_3">
     <g id="line2d_11">
      <path clip-path="url(#pd4a8902282)" d="M 180 129.326678 
L 1008 129.326678 
" style="fill:none;stroke:#b0b0b0;stroke-linecap:square;stroke-width:0.8;"/>
     </g>
     <g id="line2d_12">
      <g>
       <use style="stroke:#000000;stroke-width:0.8;" x="180" xlink:href="#m4cda8941d4" y="129.326678"/>
      </g>
     </g>
     <g id="text_7">
      <!-- 100 -->
      <defs>
       <path d="M 37.25 0 
L 28.46875 0 
L 28.46875 56 
Q 25.296875 52.984375 20.140625 49.953125 
Q 14.984375 46.921875 10.890625 45.40625 
L 10.890625 53.90625 
Q 18.265625 57.375 23.78125 62.296875 
Q 29.296875 67.234375 31.59375 71.875 
L 37.25 71.875 
z
" id="ArialMT-49"/>
      </defs>
      <g transform="translate(129.624687 138.631834)scale(0.26 -0.26)">
       <use xlink:href="#ArialMT-49"/>
       <use x="55.615234" xlink:href="#ArialMT-48"/>
       <use x="111.230469" xlink:href="#ArialMT-48"/>
      </g>
     </g>
    </g>
    <g id="ytick_4">
     <g id="line2d_13">
      <path clip-path="url(#pd4a8902282)" d="M 180 72.929614 
L 1008 72.929614 
" style="fill:none;stroke:#b0b0b0;stroke-linecap:square;stroke-width:0.8;"/>
     </g>
     <g id="line2d_14">
      <g>
       <use style="stroke:#000000;stroke-width:0.8;" x="180" xlink:href="#m4cda8941d4" y="72.929614"/>
      </g>
     </g>
     <g id="text_8">
      <!-- 150 -->
      <g transform="translate(129.624687 82.23477)scale(0.26 -0.26)">
       <use xlink:href="#ArialMT-49"/>
       <use x="55.615234" xlink:href="#ArialMT-53"/>
       <use x="111.230469" xlink:href="#ArialMT-48"/>
      </g>
     </g>
    </g>
    <g id="text_9">
     <!-- Change-point score  -->
     <defs>
      <path d="M 58.796875 25.09375 
L 68.265625 22.703125 
Q 65.28125 11.03125 57.546875 4.90625 
Q 49.8125 -1.21875 38.625 -1.21875 
Q 27.046875 -1.21875 19.796875 3.484375 
Q 12.546875 8.203125 8.765625 17.140625 
Q 4.984375 26.078125 4.984375 36.328125 
Q 4.984375 47.515625 9.25 55.828125 
Q 13.53125 64.15625 21.40625 68.46875 
Q 29.296875 72.796875 38.765625 72.796875 
Q 49.515625 72.796875 56.828125 67.328125 
Q 64.15625 61.859375 67.046875 51.953125 
L 57.71875 49.75 
Q 55.21875 57.5625 50.484375 61.125 
Q 45.75 64.703125 38.578125 64.703125 
Q 30.328125 64.703125 24.78125 60.734375 
Q 19.234375 56.78125 16.984375 50.109375 
Q 14.75 43.453125 14.75 36.375 
Q 14.75 27.25 17.40625 20.4375 
Q 20.0625 13.625 25.671875 10.25 
Q 31.296875 6.890625 37.84375 6.890625 
Q 45.796875 6.890625 51.3125 11.46875 
Q 56.84375 16.0625 58.796875 25.09375 
z
" id="ArialMT-67"/>
      <path d="M 6.59375 0 
L 6.59375 71.578125 
L 15.375 71.578125 
L 15.375 45.90625 
Q 21.53125 53.03125 30.90625 53.03125 
Q 36.671875 53.03125 40.921875 50.75 
Q 45.171875 48.484375 47 44.484375 
Q 48.828125 40.484375 48.828125 32.859375 
L 48.828125 0 
L 40.046875 0 
L 40.046875 32.859375 
Q 40.046875 39.453125 37.1875 42.453125 
Q 34.328125 45.453125 29.109375 45.453125 
Q 25.203125 45.453125 21.75 43.421875 
Q 18.3125 41.40625 16.84375 37.9375 
Q 15.375 34.46875 15.375 28.375 
L 15.375 0 
z
" id="ArialMT-104"/>
      <path d="M 6.59375 0 
L 6.59375 51.859375 
L 14.5 51.859375 
L 14.5 44.484375 
Q 20.21875 53.03125 31 53.03125 
Q 35.6875 53.03125 39.625 51.34375 
Q 43.5625 49.65625 45.515625 46.921875 
Q 47.46875 44.1875 48.25 40.4375 
Q 48.734375 37.984375 48.734375 31.890625 
L 48.734375 0 
L 39.9375 0 
L 39.9375 31.546875 
Q 39.9375 36.921875 38.90625 39.578125 
Q 37.890625 42.234375 35.28125 43.8125 
Q 32.671875 45.40625 29.15625 45.40625 
Q 23.53125 45.40625 19.453125 41.84375 
Q 15.375 38.28125 15.375 28.328125 
L 15.375 0 
z
" id="ArialMT-110"/>
      <path d="M 4.984375 -4.296875 
L 13.53125 -5.5625 
Q 14.0625 -9.515625 16.5 -11.328125 
Q 19.78125 -13.765625 25.4375 -13.765625 
Q 31.546875 -13.765625 34.859375 -11.328125 
Q 38.1875 -8.890625 39.359375 -4.5 
Q 40.046875 -1.8125 39.984375 6.78125 
Q 34.234375 0 25.640625 0 
Q 14.9375 0 9.078125 7.71875 
Q 3.21875 15.4375 3.21875 26.21875 
Q 3.21875 33.640625 5.90625 39.90625 
Q 8.59375 46.1875 13.6875 49.609375 
Q 18.796875 53.03125 25.6875 53.03125 
Q 34.859375 53.03125 40.828125 45.609375 
L 40.828125 51.859375 
L 48.921875 51.859375 
L 48.921875 7.03125 
Q 48.921875 -5.078125 46.453125 -10.125 
Q 44 -15.1875 38.640625 -18.109375 
Q 33.296875 -21.046875 25.484375 -21.046875 
Q 16.21875 -21.046875 10.5 -16.875 
Q 4.78125 -12.703125 4.984375 -4.296875 
z
M 12.25 26.859375 
Q 12.25 16.65625 16.296875 11.96875 
Q 20.359375 7.28125 26.46875 7.28125 
Q 32.515625 7.28125 36.609375 11.9375 
Q 40.71875 16.609375 40.71875 26.5625 
Q 40.71875 36.078125 36.5 40.90625 
Q 32.28125 45.75 26.3125 45.75 
Q 20.453125 45.75 16.34375 40.984375 
Q 12.25 36.234375 12.25 26.859375 
z
" id="ArialMT-103"/>
      <path d="M 3.171875 21.484375 
L 3.171875 30.328125 
L 30.171875 30.328125 
L 30.171875 21.484375 
z
" id="ArialMT-45"/>
      <path d="M 3.328125 25.921875 
Q 3.328125 40.328125 11.328125 47.265625 
Q 18.015625 53.03125 27.640625 53.03125 
Q 38.328125 53.03125 45.109375 46.015625 
Q 51.90625 39.015625 51.90625 26.65625 
Q 51.90625 16.65625 48.90625 10.90625 
Q 45.90625 5.171875 40.15625 2 
Q 34.421875 -1.171875 27.640625 -1.171875 
Q 16.75 -1.171875 10.03125 5.8125 
Q 3.328125 12.796875 3.328125 25.921875 
z
M 12.359375 25.921875 
Q 12.359375 15.96875 16.703125 11.015625 
Q 21.046875 6.0625 27.640625 6.0625 
Q 34.1875 6.0625 38.53125 11.03125 
Q 42.875 16.015625 42.875 26.21875 
Q 42.875 35.84375 38.5 40.796875 
Q 34.125 45.75 27.640625 45.75 
Q 21.046875 45.75 16.703125 40.8125 
Q 12.359375 35.890625 12.359375 25.921875 
z
" id="ArialMT-111"/>
      <path d="M 6.640625 61.46875 
L 6.640625 71.578125 
L 15.4375 71.578125 
L 15.4375 61.46875 
z
M 6.640625 0 
L 6.640625 51.859375 
L 15.4375 51.859375 
L 15.4375 0 
z
" id="ArialMT-105"/>
      <path d="M 25.78125 7.859375 
L 27.046875 0.09375 
Q 23.34375 -0.6875 20.40625 -0.6875 
Q 15.625 -0.6875 12.984375 0.828125 
Q 10.359375 2.34375 9.28125 4.8125 
Q 8.203125 7.28125 8.203125 15.1875 
L 8.203125 45.015625 
L 1.765625 45.015625 
L 1.765625 51.859375 
L 8.203125 51.859375 
L 8.203125 64.703125 
L 16.9375 69.96875 
L 16.9375 51.859375 
L 25.78125 51.859375 
L 25.78125 45.015625 
L 16.9375 45.015625 
L 16.9375 14.703125 
Q 16.9375 10.9375 17.40625 9.859375 
Q 17.875 8.796875 18.921875 8.15625 
Q 19.96875 7.515625 21.921875 7.515625 
Q 23.390625 7.515625 25.78125 7.859375 
z
" id="ArialMT-116"/>
      <path d="M 40.4375 19 
L 49.078125 17.875 
Q 47.65625 8.9375 41.8125 3.875 
Q 35.984375 -1.171875 27.484375 -1.171875 
Q 16.84375 -1.171875 10.375 5.78125 
Q 3.90625 12.75 3.90625 25.734375 
Q 3.90625 34.125 6.6875 40.421875 
Q 9.46875 46.734375 15.15625 49.875 
Q 20.84375 53.03125 27.546875 53.03125 
Q 35.984375 53.03125 41.359375 48.75 
Q 46.734375 44.484375 48.25 36.625 
L 39.703125 35.296875 
Q 38.484375 40.53125 35.375 43.15625 
Q 32.28125 45.796875 27.875 45.796875 
Q 21.234375 45.796875 17.078125 41.03125 
Q 12.9375 36.28125 12.9375 25.984375 
Q 12.9375 15.53125 16.9375 10.796875 
Q 20.953125 6.0625 27.390625 6.0625 
Q 32.5625 6.0625 36.03125 9.234375 
Q 39.5 12.40625 40.4375 19 
z
" id="ArialMT-99"/>
      <path d="M 6.5 0 
L 6.5 51.859375 
L 14.40625 51.859375 
L 14.40625 44 
Q 17.4375 49.515625 20 51.265625 
Q 22.5625 53.03125 25.640625 53.03125 
Q 30.078125 53.03125 34.671875 50.203125 
L 31.640625 42.046875 
Q 28.421875 43.953125 25.203125 43.953125 
Q 22.3125 43.953125 20.015625 42.21875 
Q 17.71875 40.484375 16.75 37.40625 
Q 15.28125 32.71875 15.28125 27.15625 
L 15.28125 0 
z
" id="ArialMT-114"/>
     </defs>
     <g transform="translate(91.967687 260.340937)rotate(-90)scale(0.26 -0.26)">
      <use xlink:href="#ArialMT-67"/>
      <use x="72.216797" xlink:href="#ArialMT-104"/>
      <use x="127.832031" xlink:href="#ArialMT-97"/>
      <use x="183.447266" xlink:href="#ArialMT-110"/>
      <use x="239.0625" xlink:href="#ArialMT-103"/>
      <use x="294.677734" xlink:href="#ArialMT-101"/>
      <use x="350.292969" xlink:href="#ArialMT-45"/>
      <use x="383.59375" xlink:href="#ArialMT-112"/>
      <use x="439.208984" xlink:href="#ArialMT-111"/>
      <use x="494.824219" xlink:href="#ArialMT-105"/>
      <use x="517.041016" xlink:href="#ArialMT-110"/>
      <use x="572.65625" xlink:href="#ArialMT-116"/>
      <use x="600.439453" xlink:href="#ArialMT-32"/>
      <use x="628.222656" xlink:href="#ArialMT-115"/>
      <use x="678.222656" xlink:href="#ArialMT-99"/>
      <use x="728.222656" xlink:href="#ArialMT-111"/>
      <use x="783.837891" xlink:href="#ArialMT-114"/>
      <use x="817.138672" xlink:href="#ArialMT-101"/>
      <use x="872.753906" xlink:href="#ArialMT-32"/>
     </g>
     <!-- (KL div.) -->
     <defs>
      <path d="M 23.390625 -21.046875 
Q 16.109375 -11.859375 11.078125 0.4375 
Q 6.0625 12.75 6.0625 25.921875 
Q 6.0625 37.546875 9.8125 48.1875 
Q 14.203125 60.546875 23.390625 72.796875 
L 29.6875 72.796875 
Q 23.78125 62.640625 21.875 58.296875 
Q 18.890625 51.5625 17.1875 44.234375 
Q 15.09375 35.109375 15.09375 25.875 
Q 15.09375 2.390625 29.6875 -21.046875 
z
" id="ArialMT-40"/>
      <path d="M 7.328125 0 
L 7.328125 71.578125 
L 16.796875 71.578125 
L 16.796875 36.078125 
L 52.34375 71.578125 
L 65.1875 71.578125 
L 35.15625 42.578125 
L 66.5 0 
L 54 0 
L 28.515625 36.234375 
L 16.796875 24.8125 
L 16.796875 0 
z
" id="ArialMT-75"/>
      <path d="M 7.328125 0 
L 7.328125 71.578125 
L 16.796875 71.578125 
L 16.796875 8.453125 
L 52.046875 8.453125 
L 52.046875 0 
z
" id="ArialMT-76"/>
      <path d="M 40.234375 0 
L 40.234375 6.546875 
Q 35.296875 -1.171875 25.734375 -1.171875 
Q 19.53125 -1.171875 14.328125 2.25 
Q 9.125 5.671875 6.265625 11.796875 
Q 3.421875 17.921875 3.421875 25.875 
Q 3.421875 33.640625 6 39.96875 
Q 8.59375 46.296875 13.765625 49.65625 
Q 18.953125 53.03125 25.34375 53.03125 
Q 30.03125 53.03125 33.6875 51.046875 
Q 37.359375 49.078125 39.65625 45.90625 
L 39.65625 71.578125 
L 48.390625 71.578125 
L 48.390625 0 
z
M 12.453125 25.875 
Q 12.453125 15.921875 16.640625 10.984375 
Q 20.84375 6.0625 26.5625 6.0625 
Q 32.328125 6.0625 36.34375 10.765625 
Q 40.375 15.484375 40.375 25.140625 
Q 40.375 35.796875 36.265625 40.765625 
Q 32.171875 45.75 26.171875 45.75 
Q 20.3125 45.75 16.375 40.96875 
Q 12.453125 36.1875 12.453125 25.875 
z
" id="ArialMT-100"/>
      <path d="M 21 0 
L 1.265625 51.859375 
L 10.546875 51.859375 
L 21.6875 20.796875 
Q 23.484375 15.765625 25 10.359375 
Q 26.171875 14.453125 28.265625 20.21875 
L 39.796875 51.859375 
L 48.828125 51.859375 
L 29.203125 0 
z
" id="ArialMT-118"/>
      <path d="M 9.078125 0 
L 9.078125 10.015625 
L 19.09375 10.015625 
L 19.09375 0 
z
" id="ArialMT-46"/>
      <path d="M 12.359375 -21.046875 
L 6.0625 -21.046875 
Q 20.65625 2.390625 20.65625 25.875 
Q 20.65625 35.0625 18.5625 44.09375 
Q 16.890625 51.421875 13.921875 58.15625 
Q 12.015625 62.546875 6.0625 72.796875 
L 12.359375 72.796875 
Q 21.53125 60.546875 25.921875 48.1875 
Q 29.6875 37.546875 29.6875 25.921875 
Q 29.6875 12.75 24.625 0.4375 
Q 19.578125 -11.859375 12.359375 -21.046875 
z
" id="ArialMT-41"/>
     </defs>
     <g transform="translate(120.1525 190.232344)rotate(-90)scale(0.26 -0.26)">
      <use xlink:href="#ArialMT-40"/>
      <use x="33.300781" xlink:href="#ArialMT-75"/>
      <use x="100" xlink:href="#ArialMT-76"/>
      <use x="151.865234" xlink:href="#ArialMT-32"/>
      <use x="179.648438" xlink:href="#ArialMT-100"/>
      <use x="235.263672" xlink:href="#ArialMT-105"/>
      <use x="257.480469" xlink:href="#ArialMT-118"/>
      <use x="300.105469" xlink:href="#ArialMT-46"/>
      <use x="327.888672" xlink:href="#ArialMT-41"/>
     </g>
    </g>
   </g>
   <g id="line2d_15">
    <path clip-path="url(#pd4a8902282)" d="M 217.636364 44.443636 
L 218.012916 190.388092 
L 218.389467 226.825137 
L 218.766019 235.575655 
L 218.954295 236.725664 
L 219.142571 237.025727 
L 219.330847 236.73162 
L 219.519123 235.748853 
L 219.895675 231.886314 
L 220.460503 220.75933 
L 220.837055 213.947011 
L 221.213607 211.945707 
L 221.590159 215.879685 
L 222.531538 231.284305 
L 223.284642 235.622744 
L 223.84947 236.493475 
L 224.226022 235.468073 
L 224.414298 233.996049 
L 224.602574 233.715155 
L 225.167402 229.493013 
L 225.355678 227.566372 
L 225.543954 227.079893 
L 225.73223 225.109732 
L 225.920506 224.900675 
L 226.108782 226.343843 
L 226.297058 224.208448 
L 226.485334 223.826387 
L 226.67361 224.415344 
L 227.050161 227.188741 
L 227.238437 226.72388 
L 227.426713 228.294083 
L 227.614989 228.008089 
L 227.803265 230.959539 
L 227.991541 231.190974 
L 228.179817 231.233602 
L 228.556369 231.970779 
L 228.932921 230.717654 
L 229.121197 231.765828 
L 229.309473 231.952273 
L 229.497749 230.877849 
L 229.686025 231.450102 
L 229.874301 231.347418 
L 230.062577 229.843497 
L 230.250853 230.557856 
L 230.439129 230.381177 
L 230.627405 229.817483 
L 230.815681 228.045811 
L 231.192232 229.034657 
L 231.380508 227.848799 
L 231.568784 228.910783 
L 231.75706 228.50094 
L 231.945336 227.30344 
L 232.133612 230.014211 
L 232.321888 228.05887 
L 232.510164 227.999136 
L 232.69844 228.607945 
L 233.074992 232.269772 
L 233.263268 231.912809 
L 233.451544 231.84298 
L 233.63982 233.961652 
L 233.828096 233.96653 
L 234.392924 235.206064 
L 234.769476 234.444195 
L 234.957752 235.341652 
L 235.146028 235.521695 
L 235.334304 236.042693 
L 235.522579 234.53836 
L 235.710855 235.829054 
L 235.899131 235.590485 
L 236.087407 235.028664 
L 236.463959 235.423626 
L 236.652235 235.209436 
L 236.840511 235.250375 
L 237.028787 235.479816 
L 237.217063 234.165485 
L 237.405339 234.7005 
L 237.593615 234.431815 
L 237.781891 235.116286 
L 237.970167 235.046597 
L 238.346719 235.894275 
L 238.534995 235.186117 
L 238.723271 233.352769 
L 238.911547 233.965214 
L 239.288099 233.87292 
L 239.476375 233.540002 
L 239.664651 236.414621 
L 239.852926 234.729531 
L 240.041202 234.330308 
L 240.417754 235.328178 
L 240.60603 234.749822 
L 240.794306 233.575794 
L 240.982582 235.093268 
L 241.359134 236.041624 
L 241.54741 234.212659 
L 241.735686 234.174701 
L 241.923962 235.559722 
L 242.112238 235.738396 
L 242.300514 235.322198 
L 242.48879 235.226484 
L 242.677066 234.23033 
L 243.241894 234.849073 
L 243.43017 234.353241 
L 243.618446 235.458021 
L 243.806722 234.009488 
L 244.183273 235.267937 
L 244.559825 234.522693 
L 244.748101 234.798047 
L 244.936377 234.738627 
L 245.124653 236.180082 
L 245.312929 234.158942 
L 245.501205 234.519648 
L 245.689481 235.887699 
L 246.066033 236.054126 
L 246.442585 237.525112 
L 246.630861 236.754746 
L 246.819137 236.462801 
L 247.007413 236.984457 
L 247.383965 236.414047 
L 247.572241 236.605211 
L 247.760517 236.039036 
L 247.948793 234.203078 
L 248.137069 236.110392 
L 248.325344 235.437639 
L 248.51362 235.374986 
L 248.701896 235.720835 
L 248.890172 236.402932 
L 249.078448 235.733061 
L 249.455 233.45707 
L 249.643276 234.235444 
L 249.831552 232.510039 
L 250.208104 234.541666 
L 250.39638 231.750803 
L 250.584656 233.308616 
L 250.772932 233.492447 
L 250.961208 231.36902 
L 251.149484 232.359079 
L 251.33776 230.602341 
L 251.526036 231.545473 
L 251.714312 229.935634 
L 251.902588 232.101415 
L 252.090864 230.65395 
L 252.27914 230.642859 
L 252.467416 230.209258 
L 252.655691 230.680681 
L 252.843967 233.210953 
L 253.032243 229.924538 
L 253.220519 233.906642 
L 253.408795 233.838435 
L 253.597071 231.065453 
L 253.785347 232.149824 
L 253.973623 231.728608 
L 254.161899 234.118733 
L 254.350175 233.561982 
L 254.538451 234.648787 
L 254.726727 234.932179 
L 254.915003 233.062033 
L 255.103279 235.78819 
L 255.291555 234.369623 
L 255.479831 236.328975 
L 255.668107 236.408372 
L 255.856383 235.68926 
L 256.044659 233.090656 
L 256.232935 234.928009 
L 256.421211 235.622901 
L 256.609487 233.336183 
L 256.797763 235.074864 
L 256.986038 233.291047 
L 257.174314 233.014051 
L 257.36259 233.242406 
L 257.550866 234.75844 
L 257.739142 232.332382 
L 257.927418 232.360071 
L 258.115694 233.20414 
L 258.30397 231.854985 
L 258.492246 234.820323 
L 258.680522 232.505806 
L 258.868798 235.339943 
L 259.24535 233.550468 
L 259.433626 234.825106 
L 259.621902 235.213155 
L 259.810178 236.983204 
L 259.998454 236.676679 
L 260.18673 236.130819 
L 260.375006 236.327085 
L 260.563282 236.001722 
L 260.751558 237.147718 
L 260.939834 236.296813 
L 261.12811 237.545735 
L 261.316385 237.803485 
L 261.504661 236.229428 
L 261.692937 237.414673 
L 261.881213 236.944993 
L 262.069489 236.9384 
L 262.257765 237.058087 
L 262.446041 235.376612 
L 262.634317 236.887639 
L 262.822593 237.397606 
L 263.010869 237.03829 
L 263.199145 237.75077 
L 263.387421 236.76793 
L 263.575697 236.942216 
L 263.763973 236.610127 
L 263.952249 235.71196 
L 264.140525 236.87609 
L 264.328801 236.272725 
L 264.517077 238.161153 
L 264.705353 236.384221 
L 264.893629 235.883006 
L 265.081905 238.319316 
L 265.270181 236.16502 
L 265.458457 235.882515 
L 265.646732 237.968117 
L 265.835008 237.410469 
L 266.023284 238.482551 
L 266.21156 236.065758 
L 266.399836 238.028177 
L 266.588112 236.392573 
L 266.964664 238.33861 
L 267.15294 238.072816 
L 267.341216 235.443089 
L 267.529492 239.11812 
L 267.717768 237.579595 
L 267.906044 237.915526 
L 268.09432 237.897782 
L 268.282596 237.765597 
L 268.470872 236.194218 
L 268.659148 238.515895 
L 268.847424 237.416998 
L 269.0357 238.286182 
L 269.223976 237.40649 
L 269.412252 235.988108 
L 269.600528 237.50507 
L 269.788803 237.124695 
L 269.977079 238.601621 
L 270.165355 239.039305 
L 270.541907 236.698162 
L 270.730183 235.727799 
L 270.918459 238.646116 
L 271.106735 238.749613 
L 271.295011 237.744406 
L 271.483287 238.892176 
L 271.671563 238.999079 
L 271.859839 238.190792 
L 272.048115 239.602431 
L 272.424667 239.623875 
L 272.612943 238.874874 
L 272.801219 239.593742 
L 272.989495 238.945758 
L 273.177771 239.142015 
L 273.554323 240.116357 
L 273.742599 239.381715 
L 273.930875 240.272085 
L 274.307426 240.002952 
L 274.495702 239.269653 
L 274.683978 240.032325 
L 274.872254 240.125089 
L 275.06053 238.881145 
L 275.248806 239.74314 
L 275.437082 238.34945 
L 275.625358 240.207774 
L 276.190186 239.25028 
L 276.378462 239.45599 
L 276.566738 239.302192 
L 276.755014 238.54494 
L 276.94329 239.60646 
L 277.131566 239.680151 
L 277.319842 239.336501 
L 277.508118 239.954985 
L 277.696394 239.448968 
L 278.261222 240.003509 
L 278.637773 238.123536 
L 278.826049 238.207364 
L 279.014325 239.19131 
L 279.202601 239.455342 
L 279.579153 238.358047 
L 279.955705 236.611143 
L 280.143981 237.429636 
L 280.332257 236.339443 
L 280.520533 236.445768 
L 280.708809 237.735998 
L 280.897085 236.42701 
L 281.085361 237.314881 
L 281.273637 237.208572 
L 281.461913 237.880424 
L 281.650189 237.637747 
L 281.838465 237.874455 
L 282.026741 237.568701 
L 282.215017 238.935107 
L 282.403293 238.981495 
L 282.591569 239.640655 
L 282.779844 239.211949 
L 282.96812 239.425789 
L 283.156396 240.051514 
L 283.344672 239.930134 
L 283.532948 239.387504 
L 283.721224 240.016487 
L 283.9095 240.072385 
L 284.097776 239.732077 
L 284.286052 240.250805 
L 284.474328 239.560904 
L 284.662604 239.895562 
L 284.85088 239.755125 
L 285.039156 239.831033 
L 285.227432 240.087926 
L 285.415708 238.475091 
L 285.603984 239.379587 
L 285.79226 239.117018 
L 285.980536 239.685859 
L 286.168812 239.512904 
L 286.357088 238.975175 
L 286.545364 239.285992 
L 286.73364 238.277437 
L 286.921916 238.891803 
L 287.110191 238.870064 
L 287.486743 237.735319 
L 287.675019 239.338615 
L 287.863295 238.932416 
L 288.051571 238.849131 
L 288.239847 238.973263 
L 288.428123 237.946316 
L 288.616399 239.142091 
L 289.181227 238.751968 
L 289.369503 239.23113 
L 289.557779 238.980913 
L 289.746055 240.07065 
L 289.934331 238.702388 
L 290.122607 240.013116 
L 290.310883 240.257229 
L 290.499159 238.186343 
L 290.687435 239.335463 
L 290.875711 239.297209 
L 291.063987 238.311262 
L 291.252262 238.264997 
L 291.440538 239.328638 
L 291.81709 236.333528 
L 292.193642 237.71554 
L 292.381918 236.982454 
L 292.570194 237.06647 
L 292.75847 237.381355 
L 292.946746 236.768182 
L 293.135022 236.859289 
L 293.323298 236.678845 
L 293.511574 238.874474 
L 293.888126 236.190066 
L 294.076402 237.101802 
L 294.264678 236.356671 
L 294.452954 237.519845 
L 294.64123 237.343817 
L 294.829506 238.139013 
L 295.017782 237.400612 
L 295.206058 238.359422 
L 295.959161 238.178495 
L 296.147437 237.89814 
L 296.523989 239.504079 
L 296.900541 238.923599 
L 297.088817 238.319933 
L 297.277093 238.70041 
L 297.465369 238.046925 
L 297.653645 238.259226 
L 297.841921 238.88504 
L 298.030197 238.419965 
L 298.218473 239.046888 
L 298.406749 237.315388 
L 298.595025 239.441563 
L 298.783301 238.422956 
L 298.971577 238.3882 
L 299.159853 238.687087 
L 299.348129 238.159115 
L 299.536405 238.847108 
L 299.724681 238.635235 
L 300.101232 239.554059 
L 300.289508 239.031746 
L 300.854336 239.873766 
L 301.042612 239.396041 
L 301.230888 239.808046 
L 301.419164 239.370609 
L 301.60744 240.083969 
L 301.795716 240.241944 
L 301.983992 238.463703 
L 302.172268 240.30676 
L 302.360544 239.629748 
L 302.54882 239.403279 
L 302.737096 239.816656 
L 302.925372 240.514406 
L 303.4902 240.324179 
L 303.678476 241.063384 
L 304.055028 240.978689 
L 304.243303 240.442958 
L 304.619855 240.838423 
L 304.996407 240.45748 
L 305.184683 240.310906 
L 305.372959 240.458372 
L 305.561235 239.984917 
L 305.937787 240.789493 
L 306.314339 239.557534 
L 306.502615 240.375717 
L 306.690891 240.235772 
L 306.879167 240.893691 
L 307.067443 241.069762 
L 307.255719 240.352744 
L 307.443995 240.256495 
L 307.632271 240.829288 
L 308.008823 239.795445 
L 308.197099 240.344991 
L 308.385375 239.888034 
L 308.57365 240.808954 
L 308.950202 239.676788 
L 309.138478 240.082957 
L 309.326754 239.162098 
L 309.703306 240.392438 
L 309.891582 239.869487 
L 310.079858 240.190137 
L 310.268134 240.150909 
L 310.45641 239.851044 
L 310.644686 240.346949 
L 310.832962 239.334028 
L 311.021238 240.549946 
L 311.209514 240.45621 
L 311.39779 240.123371 
L 311.586066 240.554691 
L 311.774342 240.118109 
L 311.962618 239.989777 
L 312.150894 240.531933 
L 312.33917 240.373264 
L 312.527446 240.738184 
L 312.903997 239.918566 
L 313.092273 240.876283 
L 313.468825 239.828042 
L 313.657101 240.548799 
L 313.845377 240.245808 
L 314.033653 240.282988 
L 314.410205 238.895422 
L 314.598481 240.141356 
L 314.786757 240.136712 
L 314.975033 238.854545 
L 315.351585 239.814686 
L 315.539861 239.310056 
L 315.916413 239.841697 
L 316.104689 239.476393 
L 316.292965 240.320775 
L 316.481241 239.457505 
L 316.669517 240.969727 
L 316.857793 240.568658 
L 317.046068 239.100332 
L 317.42262 240.916998 
L 317.610896 240.617372 
L 317.799172 240.7978 
L 317.987448 240.184817 
L 318.175724 240.467658 
L 318.364 239.975193 
L 318.552276 239.064063 
L 318.740552 241.04174 
L 318.928828 240.264703 
L 319.117104 240.543677 
L 319.30538 239.995544 
L 319.493656 240.575804 
L 319.681932 240.21055 
L 319.870208 240.16608 
L 320.24676 239.54761 
L 320.435036 240.838186 
L 320.623312 240.715962 
L 320.999864 241.044706 
L 321.18814 240.3612 
L 321.376415 241.317292 
L 321.564691 239.755809 
L 321.752967 239.757108 
L 321.941243 240.551941 
L 322.129519 239.241328 
L 322.317795 239.534353 
L 322.506071 240.51574 
L 322.694347 240.134522 
L 322.882623 240.666845 
L 323.070899 240.095432 
L 323.259175 240.101056 
L 323.447451 240.373112 
L 323.635727 240.926837 
L 324.200555 239.487388 
L 324.388831 240.181456 
L 324.577107 240.279938 
L 324.953659 240.739162 
L 325.141935 240.755842 
L 325.330211 240.460369 
L 325.518487 240.728367 
L 325.706762 240.29829 
L 326.083314 241.309992 
L 326.27159 240.783793 
L 326.459866 240.939191 
L 326.648142 240.660068 
L 326.836418 240.883245 
L 327.024694 240.410338 
L 327.21297 240.435822 
L 327.401246 240.649748 
L 327.589522 240.627368 
L 327.777798 240.260782 
L 327.966074 239.506883 
L 328.15435 239.623177 
L 328.342626 240.702117 
L 328.530902 239.767973 
L 328.719178 240.072037 
L 328.907454 240.914535 
L 329.284006 238.986927 
L 329.472282 239.688555 
L 329.660558 238.333025 
L 329.848834 240.067731 
L 330.037109 239.96595 
L 330.225385 239.639794 
L 330.413661 239.979829 
L 330.978489 238.007473 
L 331.166765 238.43242 
L 331.355041 239.350574 
L 331.543317 237.009294 
L 331.731593 237.474499 
L 331.919869 238.817295 
L 332.296421 238.122238 
L 332.484697 237.250868 
L 332.672973 238.192599 
L 333.049525 238.589112 
L 333.237801 238.477688 
L 333.426077 237.685811 
L 333.614353 238.252572 
L 333.802629 237.99867 
L 333.990905 238.755827 
L 334.17918 238.58338 
L 334.367456 239.045631 
L 334.555732 237.522651 
L 334.744008 239.233857 
L 334.932284 238.070328 
L 335.12056 239.850845 
L 335.497112 239.292851 
L 335.685388 240.354891 
L 335.873664 239.306406 
L 336.06194 240.402362 
L 336.250216 240.275306 
L 336.626768 240.43902 
L 336.815044 240.124668 
L 337.00332 240.799299 
L 337.191596 240.366933 
L 337.379872 241.017095 
L 337.568148 240.850242 
L 337.9447 241.377034 
L 338.132976 241.322493 
L 338.321252 240.953032 
L 338.509527 241.43019 
L 338.886079 241.193814 
L 339.074355 241.380603 
L 339.262631 240.892056 
L 339.450907 241.207005 
L 339.639183 241.205831 
L 339.827459 241.352214 
L 340.015735 241.293359 
L 340.204011 240.885332 
L 340.580563 241.508379 
L 340.768839 240.750254 
L 340.957115 240.551169 
L 341.145391 240.67298 
L 341.333667 241.412367 
L 341.521943 240.884676 
L 341.710219 240.845197 
L 341.898495 241.324919 
L 342.086771 240.817356 
L 342.275047 239.987425 
L 342.651599 240.72903 
L 342.839874 240.311624 
L 343.216426 240.718113 
L 343.404702 240.136479 
L 343.592978 240.302745 
L 343.781254 239.828076 
L 344.157806 240.695326 
L 344.346082 240.646663 
L 344.534358 240.97225 
L 344.91091 240.127703 
L 345.099186 241.002384 
L 345.475738 240.713064 
L 345.664014 240.98636 
L 345.85229 240.486978 
L 346.040566 240.383929 
L 346.79367 241.116326 
L 346.981946 240.944948 
L 347.170221 241.082955 
L 347.358497 240.896827 
L 347.546773 240.418787 
L 347.735049 241.24099 
L 348.111601 240.022994 
L 348.299877 240.415594 
L 348.488153 240.443889 
L 348.676429 240.966335 
L 348.864705 240.702736 
L 349.052981 241.081026 
L 349.241257 240.635791 
L 349.429533 240.755782 
L 349.617809 240.703409 
L 349.994361 239.176258 
L 350.370913 240.619481 
L 350.559189 239.982585 
L 350.935741 240.293579 
L 351.124017 239.727485 
L 351.312293 240.231346 
L 351.500568 240.362603 
L 351.688844 240.317927 
L 351.87712 240.786136 
L 352.253672 240.805712 
L 352.441948 240.790846 
L 352.630224 241.058555 
L 352.8185 240.705567 
L 353.006776 239.779753 
L 353.195052 240.536861 
L 353.383328 240.564865 
L 353.571604 241.084925 
L 353.75988 240.615204 
L 353.948156 240.447635 
L 354.136432 241.094418 
L 354.324708 240.844367 
L 354.70126 241.459841 
L 354.889536 241.010199 
L 355.077812 240.891377 
L 355.266088 241.521909 
L 355.454364 241.137644 
L 355.830915 241.295169 
L 356.019191 240.895809 
L 356.207467 241.30272 
L 356.395743 240.990166 
L 356.584019 241.108419 
L 356.772295 240.6758 
L 356.960571 241.142774 
L 357.148847 240.977668 
L 357.337123 241.426901 
L 357.525399 240.723534 
L 357.713675 240.996861 
L 358.090227 240.542941 
L 358.466779 240.877888 
L 358.655055 240.366249 
L 359.031607 241.129259 
L 359.219883 240.760424 
L 359.408159 241.11535 
L 359.596435 240.537734 
L 359.784711 240.860051 
L 359.972986 240.613021 
L 360.161262 241.409186 
L 360.349538 240.972752 
L 360.537814 241.030627 
L 360.72609 241.359838 
L 360.914366 240.72871 
L 361.102642 241.417637 
L 361.290918 240.791063 
L 361.479194 240.72787 
L 361.66747 240.946945 
L 361.855746 240.836224 
L 362.044022 240.953263 
L 362.420574 240.560287 
L 362.60885 240.793853 
L 362.797126 240.501348 
L 362.985402 239.891352 
L 363.361954 241.090201 
L 363.55023 240.584832 
L 363.738506 241.442101 
L 363.926782 241.339789 
L 364.115058 240.254819 
L 364.303333 241.142511 
L 364.491609 240.636107 
L 364.679885 241.191394 
L 364.868161 241.398479 
L 365.056437 241.002071 
L 365.244713 241.01752 
L 365.432989 241.262993 
L 365.809541 241.412901 
L 365.997817 241.23189 
L 366.186093 241.561938 
L 366.374369 241.444214 
L 366.562645 241.619071 
L 366.939197 241.378191 
L 367.127473 241.406903 
L 367.315749 240.942823 
L 367.504025 241.383779 
L 367.692301 241.521904 
L 368.068853 241.145863 
L 368.257129 240.76072 
L 368.445405 241.524072 
L 369.010232 241.48077 
L 369.198508 241.808533 
L 369.386784 241.324299 
L 369.57506 241.525014 
L 369.951612 241.598445 
L 370.139888 241.782036 
L 370.328164 241.394602 
L 370.704716 241.566417 
L 370.892992 241.575005 
L 371.081268 241.454303 
L 371.269544 241.569562 
L 371.45782 241.519064 
L 371.646096 241.600865 
L 372.022648 241.394887 
L 372.210924 241.501384 
L 372.3992 241.108341 
L 372.775752 241.364361 
L 372.964027 241.757279 
L 373.152303 241.203064 
L 373.340579 241.456017 
L 373.528855 240.462862 
L 373.905407 241.617371 
L 374.093683 241.078154 
L 374.658511 241.738008 
L 374.846787 241.440169 
L 375.035063 241.382732 
L 375.223339 241.73732 
L 375.411615 241.526347 
L 375.976443 241.657299 
L 376.164719 241.83728 
L 376.541271 241.692306 
L 376.917823 241.242575 
L 377.106099 241.200107 
L 377.48265 241.513237 
L 377.670926 241.012673 
L 377.859202 241.590574 
L 378.235754 240.924236 
L 378.42403 241.402745 
L 378.800582 241.267663 
L 378.988858 241.447046 
L 379.36541 241.160857 
L 379.553686 240.739937 
L 379.741962 241.098911 
L 380.118514 240.728801 
L 380.30679 241.576989 
L 380.495066 241.446096 
L 380.683342 241.146294 
L 380.871618 241.389254 
L 381.059894 240.920682 
L 381.24817 241.050998 
L 381.436445 240.954539 
L 381.624721 241.539793 
L 382.189549 241.04343 
L 382.377825 241.283656 
L 382.566101 241.255539 
L 382.754377 240.634798 
L 382.942653 241.432395 
L 383.130929 240.991325 
L 383.319205 240.92393 
L 383.507481 241.235904 
L 383.695757 241.127243 
L 383.884033 241.204385 
L 384.072309 241.590582 
L 384.448861 240.993989 
L 384.825413 241.667415 
L 385.201965 241.37808 
L 385.390241 241.225471 
L 385.766792 241.606144 
L 386.143344 241.23955 
L 386.33162 241.670656 
L 386.519896 241.458077 
L 386.708172 241.03805 
L 386.896448 241.007263 
L 387.084724 241.420184 
L 387.461276 241.388112 
L 387.837828 241.578214 
L 388.21438 241.54867 
L 388.402656 241.383908 
L 388.590932 241.748984 
L 388.779208 241.51708 
L 388.967484 241.70991 
L 389.344036 241.327129 
L 389.532312 241.52563 
L 389.908864 241.334429 
L 390.285415 241.720509 
L 390.473691 241.431605 
L 390.661967 241.448264 
L 390.850243 241.751256 
L 391.226795 241.538021 
L 391.415071 241.729274 
L 391.603347 241.381098 
L 391.791623 241.55922 
L 391.979899 241.366583 
L 392.168175 241.534525 
L 392.356451 241.547177 
L 392.733003 241.747491 
L 393.109555 241.237645 
L 393.297831 241.722145 
L 393.674383 241.495136 
L 394.050935 241.788571 
L 394.239211 241.489658 
L 394.615762 241.664532 
L 394.804038 241.556258 
L 394.992314 241.683295 
L 395.18059 241.470207 
L 395.368866 241.742238 
L 395.557142 241.137293 
L 395.933694 241.765018 
L 396.12197 241.411707 
L 396.310246 241.70082 
L 396.498522 241.415555 
L 396.875074 241.41719 
L 397.06335 240.994321 
L 397.251626 241.678368 
L 397.439902 241.708401 
L 397.628178 241.432951 
L 398.00473 241.714323 
L 398.193006 241.653707 
L 398.381282 241.308486 
L 398.569558 241.52027 
L 399.134385 241.100615 
L 399.322661 241.473136 
L 399.510937 241.392177 
L 399.699213 241.691572 
L 399.887489 241.517778 
L 400.075765 241.716604 
L 400.264041 241.17307 
L 400.452317 241.302528 
L 400.828869 241.775077 
L 401.205421 241.607186 
L 401.393697 241.665251 
L 401.581973 241.604093 
L 401.958525 241.791225 
L 402.146801 241.541172 
L 402.335077 241.655217 
L 402.523353 241.537996 
L 403.08818 241.551942 
L 403.276456 241.894812 
L 403.653008 241.576578 
L 403.841284 241.717334 
L 404.02956 241.649754 
L 404.217836 241.456693 
L 404.594388 241.770065 
L 405.159216 241.627475 
L 405.347492 241.836855 
L 405.724044 241.518977 
L 405.91232 241.793143 
L 406.100596 241.595316 
L 406.288872 241.691188 
L 407.041976 241.565936 
L 407.418527 241.736889 
L 407.606803 241.534147 
L 407.795079 241.904452 
L 408.359907 241.855214 
L 408.548183 241.909185 
L 408.924735 241.507775 
L 409.113011 241.845173 
L 409.866115 241.764484 
L 410.430943 241.803255 
L 410.619219 241.97499 
L 411.184047 241.798011 
L 412.313702 241.91485 
L 412.501978 241.870693 
L 412.690254 241.640314 
L 412.87853 241.654075 
L 413.066806 241.904314 
L 413.255082 241.944742 
L 413.443358 241.731009 
L 414.196462 241.864515 
L 414.384738 241.531997 
L 414.573014 241.811657 
L 415.326118 241.80846 
L 415.514394 241.936923 
L 415.70267 241.724191 
L 416.079221 241.651255 
L 416.455773 241.866509 
L 416.644049 241.699934 
L 416.832325 241.725665 
L 417.020601 241.889249 
L 417.208877 241.756974 
L 417.397153 241.883709 
L 417.585429 241.534045 
L 417.961981 241.585983 
L 418.150257 241.84918 
L 418.338533 241.710851 
L 418.526809 241.812336 
L 419.091637 241.756399 
L 419.279913 241.434385 
L 419.468189 241.656679 
L 419.656465 241.704315 
L 419.844741 241.632651 
L 420.033017 241.719645 
L 420.409568 241.499132 
L 420.78612 241.653612 
L 421.350948 241.486375 
L 421.7275 241.573527 
L 421.915776 241.292576 
L 422.292328 241.683845 
L 422.480604 241.410668 
L 422.66888 241.687503 
L 422.857156 241.440339 
L 423.045432 241.661053 
L 423.421984 241.58973 
L 423.61026 241.578214 
L 423.798536 241.212563 
L 424.363363 241.655361 
L 424.551639 241.506679 
L 424.739915 241.658367 
L 424.928191 241.374886 
L 425.116467 241.722696 
L 425.304743 241.477231 
L 425.493019 241.527463 
L 425.681295 241.76888 
L 425.869571 241.392159 
L 426.057847 241.519107 
L 426.246123 241.420082 
L 426.434399 241.693057 
L 426.622675 241.42172 
L 426.810951 241.613343 
L 426.999227 241.224275 
L 427.187503 241.657453 
L 427.375779 241.811376 
L 427.564055 241.314881 
L 428.69371 241.687784 
L 428.881986 241.430072 
L 429.070262 241.488004 
L 429.258538 241.708963 
L 429.446814 241.391831 
L 429.63509 241.826897 
L 429.823366 241.254655 
L 430.011642 241.616483 
L 430.199918 241.333653 
L 430.388194 241.772984 
L 430.57647 241.714103 
L 430.764746 241.265001 
L 431.141298 241.708964 
L 431.329574 241.687088 
L 431.51785 241.779254 
L 431.706126 241.684096 
L 431.894402 241.770528 
L 432.082678 241.577518 
L 432.270954 241.737366 
L 432.647506 241.462452 
L 433.024057 241.91471 
L 433.212333 241.71301 
L 433.400609 241.756055 
L 433.588885 241.523616 
L 433.777161 241.668467 
L 433.965437 241.386427 
L 434.341989 241.827755 
L 434.530265 241.602199 
L 434.718541 241.748052 
L 435.095093 241.5976 
L 435.471645 241.837875 
L 435.659921 241.73165 
L 435.848197 241.841869 
L 436.036473 241.741593 
L 436.224749 241.918617 
L 436.413025 241.90892 
L 436.601301 241.765272 
L 436.789577 241.815908 
L 436.977853 241.989963 
L 437.166129 241.717236 
L 437.54268 241.687749 
L 437.730956 241.702269 
L 437.919232 241.912917 
L 438.295784 241.692759 
L 438.48406 241.739387 
L 438.672336 241.638827 
L 439.048888 241.870818 
L 439.237164 241.791289 
L 439.42544 241.916966 
L 440.178544 241.443145 
L 440.36682 241.757669 
L 440.555096 241.592867 
L 440.743372 241.871353 
L 440.931648 241.915804 
L 441.119924 241.505715 
L 441.3082 241.874168 
L 441.684751 241.541249 
L 441.873027 241.781907 
L 442.249579 241.654164 
L 443.190959 241.15619 
L 443.379235 241.553792 
L 443.567511 241.068693 
L 443.755787 241.478864 
L 443.944063 241.405832 
L 444.132339 241.124948 
L 444.320615 241.283672 
L 444.508891 241.658864 
L 444.697167 241.719775 
L 445.073719 241.296403 
L 445.450271 241.473818 
L 445.638547 241.367949 
L 445.826823 241.506455 
L 446.015098 241.101803 
L 446.579926 241.639492 
L 446.956478 241.328248 
L 447.144754 241.46696 
L 447.33303 241.936713 
L 447.521306 241.38394 
L 447.709582 241.296971 
L 448.086134 241.773085 
L 448.27441 241.602053 
L 448.462686 241.699649 
L 448.839238 241.591203 
L 449.027514 241.358916 
L 449.21579 241.774222 
L 449.592342 241.575605 
L 449.968894 241.582368 
L 450.157169 241.767873 
L 450.345445 241.54567 
L 450.533721 241.823879 
L 450.721997 241.534833 
L 451.098549 241.99012 
L 451.286825 241.778881 
L 452.039929 241.724437 
L 452.228205 241.93841 
L 452.604757 241.703662 
L 452.793033 241.924734 
L 452.981309 241.834165 
L 453.169585 241.600591 
L 453.357861 241.880823 
L 453.546137 241.769477 
L 453.734413 241.836072 
L 453.922689 241.751342 
L 454.487516 241.915696 
L 454.675792 241.800195 
L 454.864068 241.818381 
L 455.052344 241.670442 
L 455.24062 241.838523 
L 456.370276 241.920171 
L 456.558552 241.681393 
L 456.746828 241.870475 
L 456.935104 241.804957 
L 457.311656 241.841632 
L 457.499932 241.76113 
L 457.688208 241.904996 
L 457.876484 241.714858 
L 458.253036 241.968748 
L 458.441312 241.633068 
L 458.817863 241.975141 
L 459.006139 241.737486 
L 459.570967 241.941363 
L 459.759243 241.911458 
L 459.947519 242.014283 
L 460.324071 241.898066 
L 460.512347 241.876293 
L 460.700623 242.004767 
L 461.453727 241.770505 
L 464.08959 241.94188 
L 464.277866 241.873673 
L 464.466142 241.995861 
L 464.654418 241.896369 
L 465.03097 242.041372 
L 465.407522 241.862674 
L 465.97235 241.995313 
L 466.348902 241.960384 
L 466.725454 242.044013 
L 467.478557 241.95963 
L 468.043385 242.033266 
L 468.608213 241.967853 
L 469.361317 241.922783 
L 469.737869 242.035865 
L 470.302697 241.931123 
L 471.055801 242.003465 
L 471.432353 241.997609 
L 471.620628 242.044957 
L 471.99718 241.810043 
L 472.185456 241.898673 
L 472.373732 241.819457 
L 472.562008 242.007043 
L 472.750284 242.029194 
L 472.93856 241.739855 
L 473.126836 241.915322 
L 474.633044 241.93446 
L 474.82132 241.994152 
L 475.574424 241.777092 
L 475.7627 241.972811 
L 475.950975 241.872647 
L 476.139251 242.007402 
L 477.080631 241.919554 
L 477.268907 241.952892 
L 477.457183 241.798021 
L 478.963391 241.891865 
L 479.339943 241.834536 
L 479.716495 241.856129 
L 479.904771 241.758094 
L 480.657874 241.923924 
L 480.84615 241.592467 
L 481.034426 241.862348 
L 481.410978 241.724863 
L 481.599254 241.905854 
L 481.975806 241.88449 
L 482.164082 241.957641 
L 482.352358 241.801422 
L 482.540634 241.8901 
L 482.72891 241.80718 
L 482.917186 241.971895 
L 483.858566 241.885751 
L 484.046842 241.976659 
L 484.235118 241.805063 
L 484.423394 241.789145 
L 484.799945 241.999248 
L 485.364773 241.970726 
L 485.553049 241.82539 
L 485.929601 241.972499 
L 486.117877 241.921133 
L 486.306153 242.022256 
L 487.247533 241.861653 
L 487.435809 241.981291 
L 488.000637 241.896194 
L 488.188913 241.985734 
L 488.753741 241.810607 
L 489.130292 241.956798 
L 489.69512 242.001415 
L 490.071672 241.896982 
L 490.6365 242.022533 
L 491.389604 241.924821 
L 491.57788 241.953826 
L 491.766156 241.822762 
L 492.142708 241.978176 
L 492.330984 241.84992 
L 492.707536 241.874604 
L 492.895812 241.81051 
L 493.084087 242.007759 
L 493.460639 241.939753 
L 493.837191 241.987971 
L 494.213743 241.967863 
L 494.402019 241.902984 
L 494.778571 241.931731 
L 494.966847 241.895297 
L 495.343399 242.001198 
L 495.531675 241.764084 
L 495.719951 241.988721 
L 496.473055 241.891162 
L 496.849607 241.976733 
L 497.037883 241.805952 
L 497.226159 242.013052 
L 498.920642 241.943582 
L 499.862022 241.832548 
L 500.238574 242.026354 
L 501.179954 241.93713 
L 502.309609 241.999814 
L 502.686161 241.917933 
L 503.062713 241.996631 
L 503.250989 241.924164 
L 503.627541 242.028031 
L 503.815817 241.944657 
L 504.192369 242.010773 
L 504.568921 241.893522 
L 504.945473 241.839097 
L 505.133749 241.983247 
L 505.510301 241.905488 
L 505.698577 241.952323 
L 505.886853 241.775046 
L 506.075128 242.01708 
L 506.45168 241.928546 
L 506.639956 242.025924 
L 506.828232 241.773442 
L 507.39306 241.818774 
L 507.581336 241.544171 
L 507.769612 241.844292 
L 507.957888 241.759159 
L 508.146164 241.514714 
L 508.33444 241.853353 
L 508.522716 241.899981 
L 508.710992 241.657803 
L 508.899268 241.754063 
L 509.087544 241.673363 
L 509.464096 241.86598 
L 509.652372 241.799324 
L 510.028924 241.90967 
L 510.2172 241.714283 
L 510.405475 241.867939 
L 510.782027 241.715475 
L 511.158579 241.911247 
L 512.853063 241.830149 
L 513.041339 241.990586 
L 513.229615 241.760705 
L 513.417891 241.877189 
L 513.606167 241.66543 
L 513.982719 241.910563 
L 514.547547 241.861042 
L 514.735822 241.784686 
L 514.924098 241.941274 
L 516.053754 241.864703 
L 516.24203 242.007142 
L 516.806858 241.81936 
L 517.18341 242.04188 
L 517.371686 241.939977 
L 517.559962 241.979625 
L 517.748238 241.749633 
L 518.12479 241.875478 
L 519.066169 241.890415 
L 519.630997 241.987656 
L 519.819273 241.880708 
L 520.007549 241.999587 
L 520.195825 241.865274 
L 520.572377 241.964185 
L 521.137205 241.929637 
L 521.513757 241.98438 
L 521.890309 241.819399 
L 522.078585 241.957451 
L 522.643413 241.960908 
L 523.019965 241.977851 
L 523.20824 241.873287 
L 524.14962 242.025318 
L 525.467552 242.001019 
L 526.220656 241.961697 
L 526.785484 241.930733 
L 527.726863 242.057124 
L 528.103415 241.973761 
L 528.479967 242.01942 
L 528.668243 241.930056 
L 528.856519 242.042852 
L 529.797899 242.013901 
L 530.551003 242.051023 
L 530.927555 242.009704 
L 531.115831 241.94457 
L 531.492383 242.051013 
L 531.680659 241.912276 
L 532.05721 242.051952 
L 533.751694 241.979128 
L 534.128246 242.049779 
L 534.504798 241.899763 
L 534.88135 242.057375 
L 535.82273 242.031801 
L 536.387557 242.048619 
L 538.270317 242.01159 
L 538.646869 242.030942 
L 540.341352 241.96284 
L 540.90618 242.042864 
L 541.471008 241.997564 
L 541.84756 242.052704 
L 542.035836 241.883462 
L 542.412388 242.024767 
L 543.353768 241.859275 
L 543.542044 242.01567 
L 543.918596 241.931932 
L 544.483424 241.953287 
L 545.236527 241.959884 
L 545.424803 242.030325 
L 545.801355 241.954622 
L 546.177907 242.022985 
L 549.190322 241.94364 
L 549.566874 242.058992 
L 549.75515 241.968702 
L 550.319978 242.023608 
L 550.69653 241.990657 
L 550.884806 241.929482 
L 551.449634 242.030339 
L 552.014462 241.957898 
L 553.332393 241.955566 
L 553.897221 242.04459 
L 555.215153 242.001632 
L 555.779981 242.085491 
L 556.156533 242.046306 
L 557.097913 241.987818 
L 557.286189 242.063849 
L 557.66274 241.971786 
L 558.415844 242.067019 
L 559.922052 241.989515 
L 560.110328 242.042793 
L 560.298604 241.943497 
L 560.48688 242.055918 
L 560.863432 241.993422 
L 561.239984 242.018248 
L 561.616536 242.029602 
L 562.746191 242.033079 
L 563.499295 241.96617 
L 563.687571 242.050763 
L 564.064123 241.967991 
L 564.628951 242.023395 
L 565.382055 241.976759 
L 566.135158 242.042839 
L 566.51171 242.005536 
L 567.076538 241.959537 
L 567.45309 242.045806 
L 567.641366 241.969553 
L 568.017918 241.996133 
L 568.959298 241.990963 
L 569.147574 241.899879 
L 569.524126 241.998264 
L 569.712402 241.929097 
L 570.088954 241.975702 
L 570.842057 241.914405 
L 571.030333 242.019149 
L 571.218609 241.796891 
L 571.406885 242.040714 
L 571.595161 241.930834 
L 571.783437 241.993974 
L 571.971713 241.865843 
L 572.159989 242.013524 
L 572.348265 241.900645 
L 572.536541 241.979934 
L 572.724817 241.883464 
L 572.913093 241.999318 
L 573.101369 241.826777 
L 573.854473 241.950084 
L 574.042749 241.600312 
L 574.231025 241.896025 
L 576.866888 242.009956 
L 577.055164 241.796289 
L 577.431716 241.876624 
L 577.619992 242.038376 
L 577.808268 241.910041 
L 578.18482 241.946978 
L 578.373096 241.860641 
L 579.126199 242.014941 
L 579.502751 241.809153 
L 579.691027 241.958063 
L 580.632407 241.943955 
L 580.820683 242.026075 
L 581.197235 241.931125 
L 581.573787 242.033589 
L 581.762063 241.929176 
L 582.138615 241.964857 
L 582.326891 241.88971 
L 582.515167 242.026622 
L 582.703443 241.926557 
L 582.891719 242.054799 
L 583.079995 241.97308 
L 583.456546 242.023182 
L 584.20965 242.023055 
L 584.586202 242.041205 
L 613.768975 242.010487 
L 614.145527 242.030206 
L 614.522079 241.981717 
L 614.898631 242.063517 
L 615.086907 241.977222 
L 615.463459 242.079034 
L 616.593115 241.962984 
L 616.969667 242.062654 
L 617.911046 242.013764 
L 618.099322 242.089464 
L 618.287598 241.977632 
L 618.475874 242.008789 
L 618.66415 241.886622 
L 618.852426 242.059184 
L 619.60553 242.061843 
L 620.358634 242.026919 
L 620.923462 242.003752 
L 621.48829 242.014148 
L 621.676566 242.058682 
L 621.864842 241.973221 
L 622.241393 242.033326 
L 628.4545 242.040875 
L 629.207604 242.030937 
L 633.914503 242.034488 
L 634.291055 242.029 
L 634.479331 242.017499 
L 634.667607 241.882144 
L 634.855882 242.048523 
L 635.232434 241.946987 
L 635.608986 241.989397 
L 635.797262 242.012854 
L 635.985538 241.91503 
L 636.550366 242.053787 
L 637.680022 241.962126 
L 638.056574 242.043078 
L 638.24485 241.991911 
L 638.433126 242.056953 
L 638.809678 241.98089 
L 649.164855 242.065595 
L 650.106235 242.056904 
L 653.683478 242.060326 
L 654.248306 241.979856 
L 654.624858 242.084594 
L 655.189686 242.025109 
L 655.377962 242.091774 
L 655.754514 242.074798 
L 656.695893 242.075756 
L 658.013825 242.063945 
L 658.390377 242.017429 
L 658.578653 242.0828 
L 658.955205 241.996828 
L 659.331757 242.094849 
L 660.273137 242.067181 
L 661.779344 242.060849 
L 662.344172 242.008223 
L 662.720724 242.075317 
L 663.473828 242.074225 
L 674.017281 242.059676 
L 674.205557 242.097628 
L 674.582109 242.044414 
L 674.958661 242.034289 
L 675.711765 242.074475 
L 676.088317 242.061509 
L 676.841421 242.053932 
L 677.594525 242.025896 
L 678.159352 242.042721 
L 678.72418 242.036782 
L 679.289008 242.085972 
L 680.230388 241.987036 
L 680.60694 242.050768 
L 701.693847 242.08545 
L 701.882123 242.016498 
L 702.070399 242.089744 
L 702.446951 242.072438 
L 703.011779 242.026899 
L 703.764882 242.094925 
L 704.517986 242.078078 
L 709.977989 242.082195 
L 711.672473 242.078457 
L 715.814544 242.067747 
L 716.755923 242.08303 
L 718.450407 242.082811 
L 719.203511 242.087712 
L 721.462822 242.09202 
L 721.839374 242.079799 
L 722.780754 242.083955 
L 726.357997 242.091643 
L 732.382828 242.09002 
L 732.75938 242.102919 
L 743.867661 242.085305 
L 744.244213 242.055721 
L 744.997317 242.070004 
L 793.760789 242.076857 
L 794.513893 242.093298 
L 795.831825 242.097085 
L 796.396653 242.084552 
L 799.220792 242.101636 
L 800.727 242.082876 
L 802.044932 242.096726 
L 806.563555 242.058927 
L 807.128382 242.094784 
L 813.153213 242.08024 
L 814.094593 242.090834 
L 815.035973 242.099468 
L 818.613216 242.083166 
L 820.684251 242.097026 
L 823.131839 242.079583 
L 823.884942 242.086875 
L 825.014598 242.084339 
L 831.415981 242.111595 
L 835.1815 242.101486 
L 840.641503 242.102838 
L 844.407022 242.100783 
L 850.808404 242.113764 
L 852.691164 242.097362 
L 854.762199 242.099877 
L 855.891855 242.106112 
L 859.280822 242.088183 
L 860.598754 242.106047 
L 861.351858 242.1019 
L 892.417391 242.096525 
L 893.923598 242.106625 
L 895.618082 242.104572 
L 904.655328 242.108792 
L 906.538087 242.108397 
L 909.173951 242.109411 
L 913.316022 242.106115 
L 926.87189 242.098837 
L 927.436718 242.092957 
L 928.75465 242.099384 
L 930.260858 242.106526 
L 940.051207 242.093225 
L 942.122243 242.106284 
L 946.829142 242.111118 
L 958.878803 242.107565 
L 967.162945 242.10299 
L 970.363636 242.113249 
L 970.363636 242.113249 
" style="fill:none;stroke:#1f77b4;stroke-linecap:square;stroke-width:1.5;"/>
   </g>
   <g id="patch_3">
    <path d="M 180 252 
L 180 34.56 
" style="fill:none;stroke:#000000;stroke-linecap:square;stroke-linejoin:miter;stroke-width:0.8;"/>
   </g>
   <g id="patch_4">
    <path d="M 1008 252 
L 1008 34.56 
" style="fill:none;stroke:#000000;stroke-linecap:square;stroke-linejoin:miter;stroke-width:0.8;"/>
   </g>
   <g id="patch_5">
    <path d="M 180 252 
L 1008 252 
" style="fill:none;stroke:#000000;stroke-linecap:square;stroke-linejoin:miter;stroke-width:0.8;"/>
   </g>
   <g id="patch_6">
    <path d="M 180 34.56 
L 1008 34.56 
" style="fill:none;stroke:#000000;stroke-linecap:square;stroke-linejoin:miter;stroke-width:0.8;"/>
   </g>
   <g id="legend_1">
    <g id="PathCollection_2">
     <g>
      <use style="fill:#ff0000;stroke:#ff0000;" x="1085.8" xlink:href="#mface4bb17a" y="56.745312"/>
     </g>
    </g>
    <g id="text_10">
     <!-- &gt; mean + 3SD -->
     <defs>
      <path d="M 52.875 31.296875 
L 5.46875 11.03125 
L 5.46875 19.78125 
L 43.015625 35.359375 
L 5.46875 50.78125 
L 5.46875 59.515625 
L 52.875 39.5 
z
" id="ArialMT-62"/>
      <path d="M 25.046875 11.578125 
L 25.046875 31.203125 
L 5.5625 31.203125 
L 5.5625 39.40625 
L 25.046875 39.40625 
L 25.046875 58.890625 
L 33.34375 58.890625 
L 33.34375 39.40625 
L 52.828125 39.40625 
L 52.828125 31.203125 
L 33.34375 31.203125 
L 33.34375 11.578125 
z
" id="ArialMT-43"/>
      <path d="M 4.203125 18.890625 
L 12.984375 20.0625 
Q 14.5 12.59375 18.140625 9.296875 
Q 21.78125 6 27 6 
Q 33.203125 6 37.46875 10.296875 
Q 41.75 14.59375 41.75 20.953125 
Q 41.75 27 37.796875 30.921875 
Q 33.84375 34.859375 27.734375 34.859375 
Q 25.25 34.859375 21.53125 33.890625 
L 22.515625 41.609375 
Q 23.390625 41.5 23.921875 41.5 
Q 29.546875 41.5 34.03125 44.421875 
Q 38.53125 47.359375 38.53125 53.46875 
Q 38.53125 58.296875 35.25 61.46875 
Q 31.984375 64.65625 26.8125 64.65625 
Q 21.6875 64.65625 18.265625 61.421875 
Q 14.84375 58.203125 13.875 51.765625 
L 5.078125 53.328125 
Q 6.6875 62.15625 12.390625 67.015625 
Q 18.109375 71.875 26.609375 71.875 
Q 32.46875 71.875 37.390625 69.359375 
Q 42.328125 66.84375 44.9375 62.5 
Q 47.5625 58.15625 47.5625 53.265625 
Q 47.5625 48.640625 45.0625 44.828125 
Q 42.578125 41.015625 37.703125 38.765625 
Q 44.046875 37.3125 47.5625 32.6875 
Q 51.078125 28.078125 51.078125 21.140625 
Q 51.078125 11.765625 44.234375 5.25 
Q 37.40625 -1.265625 26.953125 -1.265625 
Q 17.53125 -1.265625 11.296875 4.34375 
Q 5.078125 9.96875 4.203125 18.890625 
z
" id="ArialMT-51"/>
      <path d="M 4.5 23 
L 13.421875 23.78125 
Q 14.0625 18.40625 16.375 14.96875 
Q 18.703125 11.53125 23.578125 9.40625 
Q 28.46875 7.28125 34.578125 7.28125 
Q 39.984375 7.28125 44.140625 8.890625 
Q 48.296875 10.5 50.3125 13.296875 
Q 52.34375 16.109375 52.34375 19.4375 
Q 52.34375 22.796875 50.390625 25.3125 
Q 48.4375 27.828125 43.953125 29.546875 
Q 41.0625 30.671875 31.203125 33.03125 
Q 21.34375 35.40625 17.390625 37.5 
Q 12.25 40.1875 9.734375 44.15625 
Q 7.234375 48.140625 7.234375 53.078125 
Q 7.234375 58.5 10.296875 63.203125 
Q 13.375 67.921875 19.28125 70.359375 
Q 25.203125 72.796875 32.421875 72.796875 
Q 40.375 72.796875 46.453125 70.234375 
Q 52.546875 67.671875 55.8125 62.6875 
Q 59.078125 57.71875 59.328125 51.421875 
L 50.25 50.734375 
Q 49.515625 57.515625 45.28125 60.984375 
Q 41.0625 64.453125 32.8125 64.453125 
Q 24.21875 64.453125 20.28125 61.296875 
Q 16.359375 58.15625 16.359375 53.71875 
Q 16.359375 49.859375 19.140625 47.359375 
Q 21.875 44.875 33.421875 42.265625 
Q 44.96875 39.65625 49.265625 37.703125 
Q 55.515625 34.8125 58.484375 30.390625 
Q 61.46875 25.984375 61.46875 20.21875 
Q 61.46875 14.5 58.203125 9.4375 
Q 54.9375 4.390625 48.796875 1.578125 
Q 42.671875 -1.21875 35.015625 -1.21875 
Q 25.296875 -1.21875 18.71875 1.609375 
Q 12.15625 4.4375 8.421875 10.125 
Q 4.6875 15.828125 4.5 23 
z
" id="ArialMT-83"/>
      <path d="M 7.71875 0 
L 7.71875 71.578125 
L 32.375 71.578125 
Q 40.71875 71.578125 45.125 70.5625 
Q 51.265625 69.140625 55.609375 65.4375 
Q 61.28125 60.640625 64.078125 53.1875 
Q 66.890625 45.75 66.890625 36.1875 
Q 66.890625 28.03125 64.984375 21.734375 
Q 63.09375 15.4375 60.109375 11.296875 
Q 57.125 7.171875 53.578125 4.796875 
Q 50.046875 2.4375 45.046875 1.21875 
Q 40.046875 0 33.546875 0 
z
M 17.1875 8.453125 
L 32.46875 8.453125 
Q 39.546875 8.453125 43.578125 9.765625 
Q 47.609375 11.078125 50 13.484375 
Q 53.375 16.84375 55.25 22.53125 
Q 57.125 28.21875 57.125 36.328125 
Q 57.125 47.5625 53.4375 53.59375 
Q 49.75 59.625 44.484375 61.671875 
Q 40.671875 63.140625 32.234375 63.140625 
L 17.1875 63.140625 
z
" id="ArialMT-68"/>
     </defs>
     <g transform="translate(1132.6 63.570312)scale(0.26 -0.26)">
      <use xlink:href="#ArialMT-62"/>
      <use x="58.398438" xlink:href="#ArialMT-32"/>
      <use x="86.181641" xlink:href="#ArialMT-109"/>
      <use x="169.482422" xlink:href="#ArialMT-101"/>
      <use x="225.097656" xlink:href="#ArialMT-97"/>
      <use x="280.712891" xlink:href="#ArialMT-110"/>
      <use x="336.328125" xlink:href="#ArialMT-32"/>
      <use x="364.111328" xlink:href="#ArialMT-43"/>
      <use x="422.509766" xlink:href="#ArialMT-32"/>
      <use x="450.292969" xlink:href="#ArialMT-51"/>
      <use x="505.908203" xlink:href="#ArialMT-83"/>
      <use x="572.607422" xlink:href="#ArialMT-68"/>
     </g>
    </g>
   </g>
  </g>
 </g>
 <defs>
  <clipPath id="pd4a8902282">
   <rect height="217.44" width="828" x="180" y="34.56"/>
  </clipPath>
 </defs>
</svg>
