<?xml version="1.0" encoding="utf-8" standalone="no"?>
<!DOCTYPE svg PUBLIC "-//W3C//DTD SVG 1.1//EN"
  "http://www.w3.org/Graphics/SVG/1.1/DTD/svg11.dtd">
<!-- Created with matplotlib (https://matplotlib.org/) -->
<svg height="288pt" version="1.1" viewBox="0 0 1440 288" width="1440pt" xmlns="http://www.w3.org/2000/svg" xmlns:xlink="http://www.w3.org/1999/xlink">
 <defs>
  <style type="text/css">
*{stroke-linecap:butt;stroke-linejoin:round;}
  </style>
 </defs>
 <g id="figure_1">
  <g id="patch_1">
   <path d="M 0 288 
L 1440 288 
L 1440 0 
L 0 0 
z
" style="fill:#ffffff;"/>
  </g>
  <g id="axes_1">
   <g id="patch_2">
    <path d="M 180 252 
L 1008 252 
L 1008 34.56 
L 180 34.56 
z
" style="fill:#ffffff;"/>
   </g>
   <g id="PathCollection_1">
    <defs>
     <path d="M 0 3 
C 0.795609 3 1.55874 2.683901 2.12132 2.12132 
C 2.683901 1.55874 3 0.795609 3 0 
C 3 -0.795609 2.683901 -1.55874 2.12132 -2.12132 
C 1.55874 -2.683901 0.795609 -3 0 -3 
C -0.795609 -3 -1.55874 -2.683901 -2.12132 -2.12132 
C -2.683901 -1.55874 -3 -0.795609 -3 0 
C -3 0.795609 -2.683901 1.55874 -2.12132 2.12132 
C -1.55874 2.683901 -0.795609 3 0 3 
z
" id="m36e800bd2d" style="stroke:#ff0000;"/>
    </defs>
    <g clip-path="url(#p04cd039e8a)">
     <use style="fill:#ff0000;stroke:#ff0000;" x="217.636364" xlink:href="#m36e800bd2d" y="44.443636"/>
     <use style="fill:#ff0000;stroke:#ff0000;" x="217.82464" xlink:href="#m36e800bd2d" y="142.651774"/>
     <use style="fill:#ff0000;stroke:#ff0000;" x="218.012916" xlink:href="#m36e800bd2d" y="191.611433"/>
     <use style="fill:#ff0000;stroke:#ff0000;" x="218.201192" xlink:href="#m36e800bd2d" y="216.183366"/>
     <use style="fill:#ff0000;stroke:#ff0000;" x="218.389467" xlink:href="#m36e800bd2d" y="228.401145"/>
     <use style="fill:#ff0000;stroke:#ff0000;" x="220.083951" xlink:href="#m36e800bd2d" y="224.947986"/>
     <use style="fill:#ff0000;stroke:#ff0000;" x="220.272227" xlink:href="#m36e800bd2d" y="219.33308"/>
     <use style="fill:#ff0000;stroke:#ff0000;" x="220.460503" xlink:href="#m36e800bd2d" y="213.15061"/>
     <use style="fill:#ff0000;stroke:#ff0000;" x="220.648779" xlink:href="#m36e800bd2d" y="207.511127"/>
     <use style="fill:#ff0000;stroke:#ff0000;" x="220.837055" xlink:href="#m36e800bd2d" y="203.895218"/>
     <use style="fill:#ff0000;stroke:#ff0000;" x="221.025331" xlink:href="#m36e800bd2d" y="202.701196"/>
     <use style="fill:#ff0000;stroke:#ff0000;" x="221.213607" xlink:href="#m36e800bd2d" y="203.241435"/>
     <use style="fill:#ff0000;stroke:#ff0000;" x="221.401883" xlink:href="#m36e800bd2d" y="206.917031"/>
     <use style="fill:#ff0000;stroke:#ff0000;" x="221.590159" xlink:href="#m36e800bd2d" y="209.407274"/>
     <use style="fill:#ff0000;stroke:#ff0000;" x="221.778435" xlink:href="#m36e800bd2d" y="214.210752"/>
     <use style="fill:#ff0000;stroke:#ff0000;" x="221.966711" xlink:href="#m36e800bd2d" y="218.839036"/>
     <use style="fill:#ff0000;stroke:#ff0000;" x="222.154987" xlink:href="#m36e800bd2d" y="223.218213"/>
     <use style="fill:#ff0000;stroke:#ff0000;" x="222.343263" xlink:href="#m36e800bd2d" y="226.218775"/>
     <use style="fill:#ff0000;stroke:#ff0000;" x="222.531538" xlink:href="#m36e800bd2d" y="228.414205"/>
     <use style="fill:#ff0000;stroke:#ff0000;" x="225.355678" xlink:href="#m36e800bd2d" y="228.171074"/>
     <use style="fill:#ff0000;stroke:#ff0000;" x="225.543954" xlink:href="#m36e800bd2d" y="227.799677"/>
     <use style="fill:#ff0000;stroke:#ff0000;" x="225.73223" xlink:href="#m36e800bd2d" y="226.456624"/>
     <use style="fill:#ff0000;stroke:#ff0000;" x="225.920506" xlink:href="#m36e800bd2d" y="226.256294"/>
     <use style="fill:#ff0000;stroke:#ff0000;" x="226.108782" xlink:href="#m36e800bd2d" y="223.348789"/>
     <use style="fill:#ff0000;stroke:#ff0000;" x="226.297058" xlink:href="#m36e800bd2d" y="224.298611"/>
     <use style="fill:#ff0000;stroke:#ff0000;" x="226.485334" xlink:href="#m36e800bd2d" y="223.800451"/>
     <use style="fill:#ff0000;stroke:#ff0000;" x="226.67361" xlink:href="#m36e800bd2d" y="223.052709"/>
     <use style="fill:#ff0000;stroke:#ff0000;" x="226.861885" xlink:href="#m36e800bd2d" y="224.531305"/>
     <use style="fill:#ff0000;stroke:#ff0000;" x="227.050161" xlink:href="#m36e800bd2d" y="223.319072"/>
     <use style="fill:#ff0000;stroke:#ff0000;" x="227.238437" xlink:href="#m36e800bd2d" y="225.213782"/>
     <use style="fill:#ff0000;stroke:#ff0000;" x="227.426713" xlink:href="#m36e800bd2d" y="225.109255"/>
     <use style="fill:#ff0000;stroke:#ff0000;" x="227.614989" xlink:href="#m36e800bd2d" y="226.087235"/>
     <use style="fill:#ff0000;stroke:#ff0000;" x="227.991541" xlink:href="#m36e800bd2d" y="227.156071"/>
     <use style="fill:#ff0000;stroke:#ff0000;" x="228.179817" xlink:href="#m36e800bd2d" y="228.201578"/>
    </g>
   </g>
   <g id="matplotlib.axis_1">
    <g id="xtick_1">
     <g id="line2d_1">
      <path clip-path="url(#p04cd039e8a)" d="M 217.636364 252 
L 217.636364 34.56 
" style="fill:none;stroke:#b0b0b0;stroke-linecap:square;stroke-width:0.8;"/>
     </g>
     <g id="line2d_2">
      <defs>
       <path d="M 0 0 
L 0 3.5 
" id="m0396ae1970" style="stroke:#000000;stroke-width:0.8;"/>
      </defs>
      <g>
       <use style="stroke:#000000;stroke-width:0.8;" x="217.636364" xlink:href="#m0396ae1970" y="252"/>
      </g>
     </g>
     <g id="text_1">
      <!-- 0 -->
      <defs>
       <path d="M 4.15625 35.296875 
Q 4.15625 48 6.765625 55.734375 
Q 9.375 63.484375 14.515625 67.671875 
Q 19.671875 71.875 27.484375 71.875 
Q 33.25 71.875 37.59375 69.546875 
Q 41.9375 67.234375 44.765625 62.859375 
Q 47.609375 58.5 49.21875 52.21875 
Q 50.828125 45.953125 50.828125 35.296875 
Q 50.828125 22.703125 48.234375 14.96875 
Q 45.65625 7.234375 40.5 3 
Q 35.359375 -1.21875 27.484375 -1.21875 
Q 17.140625 -1.21875 11.234375 6.203125 
Q 4.15625 15.140625 4.15625 35.296875 
z
M 13.1875 35.296875 
Q 13.1875 17.671875 17.3125 11.828125 
Q 21.4375 6 27.484375 6 
Q 33.546875 6 37.671875 11.859375 
Q 41.796875 17.71875 41.796875 35.296875 
Q 41.796875 52.984375 37.671875 58.78125 
Q 33.546875 64.59375 27.390625 64.59375 
Q 21.34375 64.59375 17.71875 59.46875 
Q 13.1875 52.9375 13.1875 35.296875 
z
" id="ArialMT-48"/>
      </defs>
      <g transform="translate(210.407145 277.610313)scale(0.26 -0.26)">
       <use xlink:href="#ArialMT-48"/>
      </g>
     </g>
    </g>
    <g id="xtick_2">
     <g id="line2d_3">
      <path clip-path="url(#p04cd039e8a)" d="M 594.188276 252 
L 594.188276 34.56 
" style="fill:none;stroke:#b0b0b0;stroke-linecap:square;stroke-width:0.8;"/>
     </g>
     <g id="line2d_4">
      <g>
       <use style="stroke:#000000;stroke-width:0.8;" x="594.188276" xlink:href="#m0396ae1970" y="252"/>
      </g>
     </g>
     <g id="text_2">
      <!-- 2000 -->
      <defs>
       <path d="M 50.34375 8.453125 
L 50.34375 0 
L 3.03125 0 
Q 2.9375 3.171875 4.046875 6.109375 
Q 5.859375 10.9375 9.828125 15.625 
Q 13.8125 20.3125 21.34375 26.46875 
Q 33.015625 36.03125 37.109375 41.625 
Q 41.21875 47.21875 41.21875 52.203125 
Q 41.21875 57.421875 37.46875 61 
Q 33.734375 64.59375 27.734375 64.59375 
Q 21.390625 64.59375 17.578125 60.78125 
Q 13.765625 56.984375 13.71875 50.25 
L 4.6875 51.171875 
Q 5.609375 61.28125 11.65625 66.578125 
Q 17.71875 71.875 27.9375 71.875 
Q 38.234375 71.875 44.234375 66.15625 
Q 50.25 60.453125 50.25 52 
Q 50.25 47.703125 48.484375 43.546875 
Q 46.734375 39.40625 42.65625 34.8125 
Q 38.578125 30.21875 29.109375 22.21875 
Q 21.1875 15.578125 18.9375 13.203125 
Q 16.703125 10.84375 15.234375 8.453125 
z
" id="ArialMT-50"/>
      </defs>
      <g transform="translate(565.271401 277.610313)scale(0.26 -0.26)">
       <use xlink:href="#ArialMT-50"/>
       <use x="55.615234" xlink:href="#ArialMT-48"/>
       <use x="111.230469" xlink:href="#ArialMT-48"/>
       <use x="166.845703" xlink:href="#ArialMT-48"/>
      </g>
     </g>
    </g>
    <g id="xtick_3">
     <g id="line2d_5">
      <path clip-path="url(#p04cd039e8a)" d="M 970.740188 252 
L 970.740188 34.56 
" style="fill:none;stroke:#b0b0b0;stroke-linecap:square;stroke-width:0.8;"/>
     </g>
     <g id="line2d_6">
      <g>
       <use style="stroke:#000000;stroke-width:0.8;" x="970.740188" xlink:href="#m0396ae1970" y="252"/>
      </g>
     </g>
     <g id="text_3">
      <!-- 4000 -->
      <defs>
       <path d="M 32.328125 0 
L 32.328125 17.140625 
L 1.265625 17.140625 
L 1.265625 25.203125 
L 33.9375 71.578125 
L 41.109375 71.578125 
L 41.109375 25.203125 
L 50.78125 25.203125 
L 50.78125 17.140625 
L 41.109375 17.140625 
L 41.109375 0 
z
M 32.328125 25.203125 
L 32.328125 57.46875 
L 9.90625 25.203125 
z
" id="ArialMT-52"/>
      </defs>
      <g transform="translate(941.823313 277.610313)scale(0.26 -0.26)">
       <use xlink:href="#ArialMT-52"/>
       <use x="55.615234" xlink:href="#ArialMT-48"/>
       <use x="111.230469" xlink:href="#ArialMT-48"/>
       <use x="166.845703" xlink:href="#ArialMT-48"/>
      </g>
     </g>
    </g>
    <g id="text_4">
     <!-- # sample -->
     <defs>
      <path d="M 5.03125 -1.21875 
L 9.28125 19.578125 
L 1.03125 19.578125 
L 1.03125 26.859375 
L 10.75 26.859375 
L 14.359375 44.578125 
L 1.03125 44.578125 
L 1.03125 51.859375 
L 15.828125 51.859375 
L 20.0625 72.796875 
L 27.390625 72.796875 
L 23.140625 51.859375 
L 38.53125 51.859375 
L 42.78125 72.796875 
L 50.140625 72.796875 
L 45.90625 51.859375 
L 54.34375 51.859375 
L 54.34375 44.578125 
L 44.4375 44.578125 
L 40.765625 26.859375 
L 54.34375 26.859375 
L 54.34375 19.578125 
L 39.3125 19.578125 
L 35.0625 -1.21875 
L 27.734375 -1.21875 
L 31.9375 19.578125 
L 16.609375 19.578125 
L 12.359375 -1.21875 
z
M 18.0625 26.859375 
L 33.40625 26.859375 
L 37.0625 44.578125 
L 21.6875 44.578125 
z
" id="ArialMT-35"/>
      <path id="ArialMT-32"/>
      <path d="M 3.078125 15.484375 
L 11.765625 16.84375 
Q 12.5 11.625 15.84375 8.84375 
Q 19.1875 6.0625 25.203125 6.0625 
Q 31.25 6.0625 34.171875 8.515625 
Q 37.109375 10.984375 37.109375 14.3125 
Q 37.109375 17.28125 34.515625 19 
Q 32.71875 20.171875 25.53125 21.96875 
Q 15.875 24.421875 12.140625 26.203125 
Q 8.40625 27.984375 6.46875 31.125 
Q 4.546875 34.28125 4.546875 38.09375 
Q 4.546875 41.546875 6.125 44.5 
Q 7.71875 47.46875 10.453125 49.421875 
Q 12.5 50.921875 16.03125 51.96875 
Q 19.578125 53.03125 23.640625 53.03125 
Q 29.734375 53.03125 34.34375 51.265625 
Q 38.96875 49.515625 41.15625 46.5 
Q 43.359375 43.5 44.1875 38.484375 
L 35.59375 37.3125 
Q 35.015625 41.3125 32.203125 43.546875 
Q 29.390625 45.796875 24.265625 45.796875 
Q 18.21875 45.796875 15.625 43.796875 
Q 13.03125 41.796875 13.03125 39.109375 
Q 13.03125 37.40625 14.109375 36.03125 
Q 15.1875 34.625 17.484375 33.6875 
Q 18.796875 33.203125 25.25 31.453125 
Q 34.578125 28.953125 38.25 27.359375 
Q 41.9375 25.78125 44.03125 22.75 
Q 46.140625 19.734375 46.140625 15.234375 
Q 46.140625 10.84375 43.578125 6.953125 
Q 41.015625 3.078125 36.171875 0.953125 
Q 31.34375 -1.171875 25.25 -1.171875 
Q 15.140625 -1.171875 9.84375 3.03125 
Q 4.546875 7.234375 3.078125 15.484375 
z
" id="ArialMT-115"/>
      <path d="M 40.4375 6.390625 
Q 35.546875 2.25 31.03125 0.53125 
Q 26.515625 -1.171875 21.34375 -1.171875 
Q 12.796875 -1.171875 8.203125 3 
Q 3.609375 7.171875 3.609375 13.671875 
Q 3.609375 17.484375 5.34375 20.625 
Q 7.078125 23.78125 9.890625 25.6875 
Q 12.703125 27.59375 16.21875 28.5625 
Q 18.796875 29.25 24.03125 29.890625 
Q 34.671875 31.15625 39.703125 32.90625 
Q 39.75 34.71875 39.75 35.203125 
Q 39.75 40.578125 37.25 42.78125 
Q 33.890625 45.75 27.25 45.75 
Q 21.046875 45.75 18.09375 43.578125 
Q 15.140625 41.40625 13.71875 35.890625 
L 5.125 37.0625 
Q 6.296875 42.578125 8.984375 45.96875 
Q 11.671875 49.359375 16.75 51.1875 
Q 21.828125 53.03125 28.515625 53.03125 
Q 35.15625 53.03125 39.296875 51.46875 
Q 43.453125 49.90625 45.40625 47.53125 
Q 47.359375 45.171875 48.140625 41.546875 
Q 48.578125 39.3125 48.578125 33.453125 
L 48.578125 21.734375 
Q 48.578125 9.46875 49.140625 6.21875 
Q 49.703125 2.984375 51.375 0 
L 42.1875 0 
Q 40.828125 2.734375 40.4375 6.390625 
z
M 39.703125 26.03125 
Q 34.90625 24.078125 25.34375 22.703125 
Q 19.921875 21.921875 17.671875 20.9375 
Q 15.4375 19.96875 14.203125 18.09375 
Q 12.984375 16.21875 12.984375 13.921875 
Q 12.984375 10.40625 15.640625 8.0625 
Q 18.3125 5.71875 23.4375 5.71875 
Q 28.515625 5.71875 32.46875 7.9375 
Q 36.421875 10.15625 38.28125 14.015625 
Q 39.703125 17 39.703125 22.796875 
z
" id="ArialMT-97"/>
      <path d="M 6.59375 0 
L 6.59375 51.859375 
L 14.453125 51.859375 
L 14.453125 44.578125 
Q 16.890625 48.390625 20.9375 50.703125 
Q 25 53.03125 30.171875 53.03125 
Q 35.9375 53.03125 39.625 50.640625 
Q 43.3125 48.25 44.828125 43.953125 
Q 50.984375 53.03125 60.84375 53.03125 
Q 68.5625 53.03125 72.703125 48.75 
Q 76.859375 44.484375 76.859375 35.59375 
L 76.859375 0 
L 68.109375 0 
L 68.109375 32.671875 
Q 68.109375 37.9375 67.25 40.25 
Q 66.40625 42.578125 64.15625 43.984375 
Q 61.921875 45.40625 58.890625 45.40625 
Q 53.421875 45.40625 49.796875 41.765625 
Q 46.1875 38.140625 46.1875 30.125 
L 46.1875 0 
L 37.40625 0 
L 37.40625 33.6875 
Q 37.40625 39.546875 35.25 42.46875 
Q 33.109375 45.40625 28.21875 45.40625 
Q 24.515625 45.40625 21.359375 43.453125 
Q 18.21875 41.5 16.796875 37.734375 
Q 15.375 33.984375 15.375 26.90625 
L 15.375 0 
z
" id="ArialMT-109"/>
      <path d="M 6.59375 -19.875 
L 6.59375 51.859375 
L 14.59375 51.859375 
L 14.59375 45.125 
Q 17.4375 49.078125 21 51.046875 
Q 24.5625 53.03125 29.640625 53.03125 
Q 36.28125 53.03125 41.359375 49.609375 
Q 46.4375 46.1875 49.015625 39.953125 
Q 51.609375 33.734375 51.609375 26.3125 
Q 51.609375 18.359375 48.75 11.984375 
Q 45.90625 5.609375 40.453125 2.21875 
Q 35.015625 -1.171875 29 -1.171875 
Q 24.609375 -1.171875 21.109375 0.6875 
Q 17.625 2.546875 15.375 5.375 
L 15.375 -19.875 
z
M 14.546875 25.640625 
Q 14.546875 15.625 18.59375 10.84375 
Q 22.65625 6.0625 28.421875 6.0625 
Q 34.28125 6.0625 38.453125 11.015625 
Q 42.625 15.96875 42.625 26.375 
Q 42.625 36.28125 38.546875 41.203125 
Q 34.46875 46.140625 28.8125 46.140625 
Q 23.1875 46.140625 18.859375 40.890625 
Q 14.546875 35.640625 14.546875 25.640625 
z
" id="ArialMT-112"/>
      <path d="M 6.390625 0 
L 6.390625 71.578125 
L 15.1875 71.578125 
L 15.1875 0 
z
" id="ArialMT-108"/>
      <path d="M 42.09375 16.703125 
L 51.171875 15.578125 
Q 49.03125 7.625 43.21875 3.21875 
Q 37.40625 -1.171875 28.375 -1.171875 
Q 17 -1.171875 10.328125 5.828125 
Q 3.65625 12.84375 3.65625 25.484375 
Q 3.65625 38.578125 10.390625 45.796875 
Q 17.140625 53.03125 27.875 53.03125 
Q 38.28125 53.03125 44.875 45.953125 
Q 51.46875 38.875 51.46875 26.03125 
Q 51.46875 25.25 51.421875 23.6875 
L 12.75 23.6875 
Q 13.234375 15.140625 17.578125 10.59375 
Q 21.921875 6.0625 28.421875 6.0625 
Q 33.25 6.0625 36.671875 8.59375 
Q 40.09375 11.140625 42.09375 16.703125 
z
M 13.234375 30.90625 
L 42.1875 30.90625 
Q 41.609375 37.453125 38.875 40.71875 
Q 34.671875 45.796875 27.984375 45.796875 
Q 21.921875 45.796875 17.796875 41.75 
Q 13.671875 37.703125 13.234375 30.90625 
z
" id="ArialMT-101"/>
     </defs>
     <g transform="translate(541.254531 305.705)scale(0.26 -0.26)">
      <use xlink:href="#ArialMT-35"/>
      <use x="55.615234" xlink:href="#ArialMT-32"/>
      <use x="83.398438" xlink:href="#ArialMT-115"/>
      <use x="133.398438" xlink:href="#ArialMT-97"/>
      <use x="189.013672" xlink:href="#ArialMT-109"/>
      <use x="272.314453" xlink:href="#ArialMT-112"/>
      <use x="327.929688" xlink:href="#ArialMT-108"/>
      <use x="350.146484" xlink:href="#ArialMT-101"/>
     </g>
    </g>
   </g>
   <g id="matplotlib.axis_2">
    <g id="ytick_1">
     <g id="line2d_7">
      <path clip-path="url(#p04cd039e8a)" d="M 180 242.116942 
L 1008 242.116942 
" style="fill:none;stroke:#b0b0b0;stroke-linecap:square;stroke-width:0.8;"/>
     </g>
     <g id="line2d_8">
      <defs>
       <path d="M 0 0 
L -3.5 0 
" id="m68d95c65f2" style="stroke:#000000;stroke-width:0.8;"/>
      </defs>
      <g>
       <use style="stroke:#000000;stroke-width:0.8;" x="180" xlink:href="#m68d95c65f2" y="242.116942"/>
      </g>
     </g>
     <g id="text_5">
      <!-- 0 -->
      <g transform="translate(158.541562 251.422099)scale(0.26 -0.26)">
       <use xlink:href="#ArialMT-48"/>
      </g>
     </g>
    </g>
    <g id="ytick_2">
     <g id="line2d_9">
      <path clip-path="url(#p04cd039e8a)" d="M 180 185.467882 
L 1008 185.467882 
" style="fill:none;stroke:#b0b0b0;stroke-linecap:square;stroke-width:0.8;"/>
     </g>
     <g id="line2d_10">
      <g>
       <use style="stroke:#000000;stroke-width:0.8;" x="180" xlink:href="#m68d95c65f2" y="185.467882"/>
      </g>
     </g>
     <g id="text_6">
      <!-- 50 -->
      <defs>
       <path d="M 4.15625 18.75 
L 13.375 19.53125 
Q 14.40625 12.796875 18.140625 9.390625 
Q 21.875 6 27.15625 6 
Q 33.5 6 37.890625 10.78125 
Q 42.28125 15.578125 42.28125 23.484375 
Q 42.28125 31 38.0625 35.34375 
Q 33.84375 39.703125 27 39.703125 
Q 22.75 39.703125 19.328125 37.765625 
Q 15.921875 35.84375 13.96875 32.765625 
L 5.71875 33.84375 
L 12.640625 70.609375 
L 48.25 70.609375 
L 48.25 62.203125 
L 19.671875 62.203125 
L 15.828125 42.96875 
Q 22.265625 47.46875 29.34375 47.46875 
Q 38.71875 47.46875 45.15625 40.96875 
Q 51.609375 34.46875 51.609375 24.265625 
Q 51.609375 14.546875 45.953125 7.46875 
Q 39.0625 -1.21875 27.15625 -1.21875 
Q 17.390625 -1.21875 11.203125 4.25 
Q 5.03125 9.71875 4.15625 18.75 
z
" id="ArialMT-53"/>
      </defs>
      <g transform="translate(144.083125 194.773038)scale(0.26 -0.26)">
       <use xlink:href="#ArialMT-53"/>
       <use x="55.615234" xlink:href="#ArialMT-48"/>
      </g>
     </g>
    </g>
    <g id="ytick_3">
     <g id="line2d_11">
      <path clip-path="url(#p04cd039e8a)" d="M 180 128.818822 
L 1008 128.818822 
" style="fill:none;stroke:#b0b0b0;stroke-linecap:square;stroke-width:0.8;"/>
     </g>
     <g id="line2d_12">
      <g>
       <use style="stroke:#000000;stroke-width:0.8;" x="180" xlink:href="#m68d95c65f2" y="128.818822"/>
      </g>
     </g>
     <g id="text_7">
      <!-- 100 -->
      <defs>
       <path d="M 37.25 0 
L 28.46875 0 
L 28.46875 56 
Q 25.296875 52.984375 20.140625 49.953125 
Q 14.984375 46.921875 10.890625 45.40625 
L 10.890625 53.90625 
Q 18.265625 57.375 23.78125 62.296875 
Q 29.296875 67.234375 31.59375 71.875 
L 37.25 71.875 
z
" id="ArialMT-49"/>
      </defs>
      <g transform="translate(129.624687 138.123978)scale(0.26 -0.26)">
       <use xlink:href="#ArialMT-49"/>
       <use x="55.615234" xlink:href="#ArialMT-48"/>
       <use x="111.230469" xlink:href="#ArialMT-48"/>
      </g>
     </g>
    </g>
    <g id="ytick_4">
     <g id="line2d_13">
      <path clip-path="url(#p04cd039e8a)" d="M 180 72.169761 
L 1008 72.169761 
" style="fill:none;stroke:#b0b0b0;stroke-linecap:square;stroke-width:0.8;"/>
     </g>
     <g id="line2d_14">
      <g>
       <use style="stroke:#000000;stroke-width:0.8;" x="180" xlink:href="#m68d95c65f2" y="72.169761"/>
      </g>
     </g>
     <g id="text_8">
      <!-- 150 -->
      <g transform="translate(129.624687 81.474917)scale(0.26 -0.26)">
       <use xlink:href="#ArialMT-49"/>
       <use x="55.615234" xlink:href="#ArialMT-53"/>
       <use x="111.230469" xlink:href="#ArialMT-48"/>
      </g>
     </g>
    </g>
    <g id="text_9">
     <!-- Change-point score  -->
     <defs>
      <path d="M 58.796875 25.09375 
L 68.265625 22.703125 
Q 65.28125 11.03125 57.546875 4.90625 
Q 49.8125 -1.21875 38.625 -1.21875 
Q 27.046875 -1.21875 19.796875 3.484375 
Q 12.546875 8.203125 8.765625 17.140625 
Q 4.984375 26.078125 4.984375 36.328125 
Q 4.984375 47.515625 9.25 55.828125 
Q 13.53125 64.15625 21.40625 68.46875 
Q 29.296875 72.796875 38.765625 72.796875 
Q 49.515625 72.796875 56.828125 67.328125 
Q 64.15625 61.859375 67.046875 51.953125 
L 57.71875 49.75 
Q 55.21875 57.5625 50.484375 61.125 
Q 45.75 64.703125 38.578125 64.703125 
Q 30.328125 64.703125 24.78125 60.734375 
Q 19.234375 56.78125 16.984375 50.109375 
Q 14.75 43.453125 14.75 36.375 
Q 14.75 27.25 17.40625 20.4375 
Q 20.0625 13.625 25.671875 10.25 
Q 31.296875 6.890625 37.84375 6.890625 
Q 45.796875 6.890625 51.3125 11.46875 
Q 56.84375 16.0625 58.796875 25.09375 
z
" id="ArialMT-67"/>
      <path d="M 6.59375 0 
L 6.59375 71.578125 
L 15.375 71.578125 
L 15.375 45.90625 
Q 21.53125 53.03125 30.90625 53.03125 
Q 36.671875 53.03125 40.921875 50.75 
Q 45.171875 48.484375 47 44.484375 
Q 48.828125 40.484375 48.828125 32.859375 
L 48.828125 0 
L 40.046875 0 
L 40.046875 32.859375 
Q 40.046875 39.453125 37.1875 42.453125 
Q 34.328125 45.453125 29.109375 45.453125 
Q 25.203125 45.453125 21.75 43.421875 
Q 18.3125 41.40625 16.84375 37.9375 
Q 15.375 34.46875 15.375 28.375 
L 15.375 0 
z
" id="ArialMT-104"/>
      <path d="M 6.59375 0 
L 6.59375 51.859375 
L 14.5 51.859375 
L 14.5 44.484375 
Q 20.21875 53.03125 31 53.03125 
Q 35.6875 53.03125 39.625 51.34375 
Q 43.5625 49.65625 45.515625 46.921875 
Q 47.46875 44.1875 48.25 40.4375 
Q 48.734375 37.984375 48.734375 31.890625 
L 48.734375 0 
L 39.9375 0 
L 39.9375 31.546875 
Q 39.9375 36.921875 38.90625 39.578125 
Q 37.890625 42.234375 35.28125 43.8125 
Q 32.671875 45.40625 29.15625 45.40625 
Q 23.53125 45.40625 19.453125 41.84375 
Q 15.375 38.28125 15.375 28.328125 
L 15.375 0 
z
" id="ArialMT-110"/>
      <path d="M 4.984375 -4.296875 
L 13.53125 -5.5625 
Q 14.0625 -9.515625 16.5 -11.328125 
Q 19.78125 -13.765625 25.4375 -13.765625 
Q 31.546875 -13.765625 34.859375 -11.328125 
Q 38.1875 -8.890625 39.359375 -4.5 
Q 40.046875 -1.8125 39.984375 6.78125 
Q 34.234375 0 25.640625 0 
Q 14.9375 0 9.078125 7.71875 
Q 3.21875 15.4375 3.21875 26.21875 
Q 3.21875 33.640625 5.90625 39.90625 
Q 8.59375 46.1875 13.6875 49.609375 
Q 18.796875 53.03125 25.6875 53.03125 
Q 34.859375 53.03125 40.828125 45.609375 
L 40.828125 51.859375 
L 48.921875 51.859375 
L 48.921875 7.03125 
Q 48.921875 -5.078125 46.453125 -10.125 
Q 44 -15.1875 38.640625 -18.109375 
Q 33.296875 -21.046875 25.484375 -21.046875 
Q 16.21875 -21.046875 10.5 -16.875 
Q 4.78125 -12.703125 4.984375 -4.296875 
z
M 12.25 26.859375 
Q 12.25 16.65625 16.296875 11.96875 
Q 20.359375 7.28125 26.46875 7.28125 
Q 32.515625 7.28125 36.609375 11.9375 
Q 40.71875 16.609375 40.71875 26.5625 
Q 40.71875 36.078125 36.5 40.90625 
Q 32.28125 45.75 26.3125 45.75 
Q 20.453125 45.75 16.34375 40.984375 
Q 12.25 36.234375 12.25 26.859375 
z
" id="ArialMT-103"/>
      <path d="M 3.171875 21.484375 
L 3.171875 30.328125 
L 30.171875 30.328125 
L 30.171875 21.484375 
z
" id="ArialMT-45"/>
      <path d="M 3.328125 25.921875 
Q 3.328125 40.328125 11.328125 47.265625 
Q 18.015625 53.03125 27.640625 53.03125 
Q 38.328125 53.03125 45.109375 46.015625 
Q 51.90625 39.015625 51.90625 26.65625 
Q 51.90625 16.65625 48.90625 10.90625 
Q 45.90625 5.171875 40.15625 2 
Q 34.421875 -1.171875 27.640625 -1.171875 
Q 16.75 -1.171875 10.03125 5.8125 
Q 3.328125 12.796875 3.328125 25.921875 
z
M 12.359375 25.921875 
Q 12.359375 15.96875 16.703125 11.015625 
Q 21.046875 6.0625 27.640625 6.0625 
Q 34.1875 6.0625 38.53125 11.03125 
Q 42.875 16.015625 42.875 26.21875 
Q 42.875 35.84375 38.5 40.796875 
Q 34.125 45.75 27.640625 45.75 
Q 21.046875 45.75 16.703125 40.8125 
Q 12.359375 35.890625 12.359375 25.921875 
z
" id="ArialMT-111"/>
      <path d="M 6.640625 61.46875 
L 6.640625 71.578125 
L 15.4375 71.578125 
L 15.4375 61.46875 
z
M 6.640625 0 
L 6.640625 51.859375 
L 15.4375 51.859375 
L 15.4375 0 
z
" id="ArialMT-105"/>
      <path d="M 25.78125 7.859375 
L 27.046875 0.09375 
Q 23.34375 -0.6875 20.40625 -0.6875 
Q 15.625 -0.6875 12.984375 0.828125 
Q 10.359375 2.34375 9.28125 4.8125 
Q 8.203125 7.28125 8.203125 15.1875 
L 8.203125 45.015625 
L 1.765625 45.015625 
L 1.765625 51.859375 
L 8.203125 51.859375 
L 8.203125 64.703125 
L 16.9375 69.96875 
L 16.9375 51.859375 
L 25.78125 51.859375 
L 25.78125 45.015625 
L 16.9375 45.015625 
L 16.9375 14.703125 
Q 16.9375 10.9375 17.40625 9.859375 
Q 17.875 8.796875 18.921875 8.15625 
Q 19.96875 7.515625 21.921875 7.515625 
Q 23.390625 7.515625 25.78125 7.859375 
z
" id="ArialMT-116"/>
      <path d="M 40.4375 19 
L 49.078125 17.875 
Q 47.65625 8.9375 41.8125 3.875 
Q 35.984375 -1.171875 27.484375 -1.171875 
Q 16.84375 -1.171875 10.375 5.78125 
Q 3.90625 12.75 3.90625 25.734375 
Q 3.90625 34.125 6.6875 40.421875 
Q 9.46875 46.734375 15.15625 49.875 
Q 20.84375 53.03125 27.546875 53.03125 
Q 35.984375 53.03125 41.359375 48.75 
Q 46.734375 44.484375 48.25 36.625 
L 39.703125 35.296875 
Q 38.484375 40.53125 35.375 43.15625 
Q 32.28125 45.796875 27.875 45.796875 
Q 21.234375 45.796875 17.078125 41.03125 
Q 12.9375 36.28125 12.9375 25.984375 
Q 12.9375 15.53125 16.9375 10.796875 
Q 20.953125 6.0625 27.390625 6.0625 
Q 32.5625 6.0625 36.03125 9.234375 
Q 39.5 12.40625 40.4375 19 
z
" id="ArialMT-99"/>
      <path d="M 6.5 0 
L 6.5 51.859375 
L 14.40625 51.859375 
L 14.40625 44 
Q 17.4375 49.515625 20 51.265625 
Q 22.5625 53.03125 25.640625 53.03125 
Q 30.078125 53.03125 34.671875 50.203125 
L 31.640625 42.046875 
Q 28.421875 43.953125 25.203125 43.953125 
Q 22.3125 43.953125 20.015625 42.21875 
Q 17.71875 40.484375 16.75 37.40625 
Q 15.28125 32.71875 15.28125 27.15625 
L 15.28125 0 
z
" id="ArialMT-114"/>
     </defs>
     <g transform="translate(91.967687 260.340937)rotate(-90)scale(0.26 -0.26)">
      <use xlink:href="#ArialMT-67"/>
      <use x="72.216797" xlink:href="#ArialMT-104"/>
      <use x="127.832031" xlink:href="#ArialMT-97"/>
      <use x="183.447266" xlink:href="#ArialMT-110"/>
      <use x="239.0625" xlink:href="#ArialMT-103"/>
      <use x="294.677734" xlink:href="#ArialMT-101"/>
      <use x="350.292969" xlink:href="#ArialMT-45"/>
      <use x="383.59375" xlink:href="#ArialMT-112"/>
      <use x="439.208984" xlink:href="#ArialMT-111"/>
      <use x="494.824219" xlink:href="#ArialMT-105"/>
      <use x="517.041016" xlink:href="#ArialMT-110"/>
      <use x="572.65625" xlink:href="#ArialMT-116"/>
      <use x="600.439453" xlink:href="#ArialMT-32"/>
      <use x="628.222656" xlink:href="#ArialMT-115"/>
      <use x="678.222656" xlink:href="#ArialMT-99"/>
      <use x="728.222656" xlink:href="#ArialMT-111"/>
      <use x="783.837891" xlink:href="#ArialMT-114"/>
      <use x="817.138672" xlink:href="#ArialMT-101"/>
      <use x="872.753906" xlink:href="#ArialMT-32"/>
     </g>
     <!-- (KL div.) -->
     <defs>
      <path d="M 23.390625 -21.046875 
Q 16.109375 -11.859375 11.078125 0.4375 
Q 6.0625 12.75 6.0625 25.921875 
Q 6.0625 37.546875 9.8125 48.1875 
Q 14.203125 60.546875 23.390625 72.796875 
L 29.6875 72.796875 
Q 23.78125 62.640625 21.875 58.296875 
Q 18.890625 51.5625 17.1875 44.234375 
Q 15.09375 35.109375 15.09375 25.875 
Q 15.09375 2.390625 29.6875 -21.046875 
z
" id="ArialMT-40"/>
      <path d="M 7.328125 0 
L 7.328125 71.578125 
L 16.796875 71.578125 
L 16.796875 36.078125 
L 52.34375 71.578125 
L 65.1875 71.578125 
L 35.15625 42.578125 
L 66.5 0 
L 54 0 
L 28.515625 36.234375 
L 16.796875 24.8125 
L 16.796875 0 
z
" id="ArialMT-75"/>
      <path d="M 7.328125 0 
L 7.328125 71.578125 
L 16.796875 71.578125 
L 16.796875 8.453125 
L 52.046875 8.453125 
L 52.046875 0 
z
" id="ArialMT-76"/>
      <path d="M 40.234375 0 
L 40.234375 6.546875 
Q 35.296875 -1.171875 25.734375 -1.171875 
Q 19.53125 -1.171875 14.328125 2.25 
Q 9.125 5.671875 6.265625 11.796875 
Q 3.421875 17.921875 3.421875 25.875 
Q 3.421875 33.640625 6 39.96875 
Q 8.59375 46.296875 13.765625 49.65625 
Q 18.953125 53.03125 25.34375 53.03125 
Q 30.03125 53.03125 33.6875 51.046875 
Q 37.359375 49.078125 39.65625 45.90625 
L 39.65625 71.578125 
L 48.390625 71.578125 
L 48.390625 0 
z
M 12.453125 25.875 
Q 12.453125 15.921875 16.640625 10.984375 
Q 20.84375 6.0625 26.5625 6.0625 
Q 32.328125 6.0625 36.34375 10.765625 
Q 40.375 15.484375 40.375 25.140625 
Q 40.375 35.796875 36.265625 40.765625 
Q 32.171875 45.75 26.171875 45.75 
Q 20.3125 45.75 16.375 40.96875 
Q 12.453125 36.1875 12.453125 25.875 
z
" id="ArialMT-100"/>
      <path d="M 21 0 
L 1.265625 51.859375 
L 10.546875 51.859375 
L 21.6875 20.796875 
Q 23.484375 15.765625 25 10.359375 
Q 26.171875 14.453125 28.265625 20.21875 
L 39.796875 51.859375 
L 48.828125 51.859375 
L 29.203125 0 
z
" id="ArialMT-118"/>
      <path d="M 9.078125 0 
L 9.078125 10.015625 
L 19.09375 10.015625 
L 19.09375 0 
z
" id="ArialMT-46"/>
      <path d="M 12.359375 -21.046875 
L 6.0625 -21.046875 
Q 20.65625 2.390625 20.65625 25.875 
Q 20.65625 35.0625 18.5625 44.09375 
Q 16.890625 51.421875 13.921875 58.15625 
Q 12.015625 62.546875 6.0625 72.796875 
L 12.359375 72.796875 
Q 21.53125 60.546875 25.921875 48.1875 
Q 29.6875 37.546875 29.6875 25.921875 
Q 29.6875 12.75 24.625 0.4375 
Q 19.578125 -11.859375 12.359375 -21.046875 
z
" id="ArialMT-41"/>
     </defs>
     <g transform="translate(120.1525 190.232344)rotate(-90)scale(0.26 -0.26)">
      <use xlink:href="#ArialMT-40"/>
      <use x="33.300781" xlink:href="#ArialMT-75"/>
      <use x="100" xlink:href="#ArialMT-76"/>
      <use x="151.865234" xlink:href="#ArialMT-32"/>
      <use x="179.648438" xlink:href="#ArialMT-100"/>
      <use x="235.263672" xlink:href="#ArialMT-105"/>
      <use x="257.480469" xlink:href="#ArialMT-118"/>
      <use x="300.105469" xlink:href="#ArialMT-46"/>
      <use x="327.888672" xlink:href="#ArialMT-41"/>
     </g>
    </g>
   </g>
   <g id="line2d_15">
    <path clip-path="url(#p04cd039e8a)" d="M 217.636364 44.443636 
L 218.012916 191.611433 
L 218.389467 228.401145 
L 218.766019 236.934092 
L 218.954295 238.001877 
L 219.142571 237.984034 
L 219.330847 237.297676 
L 219.519123 235.777573 
L 219.895675 229.744192 
L 220.460503 213.15061 
L 220.837055 203.895218 
L 221.025331 202.701196 
L 221.213607 203.241435 
L 222.719814 230.9733 
L 222.90809 233.088833 
L 223.096366 233.788639 
L 223.472918 236.771542 
L 223.661194 235.412725 
L 223.84947 235.459332 
L 224.037746 235.82625 
L 224.226022 235.228591 
L 224.414298 235.096743 
L 224.602574 233.331997 
L 224.79085 232.955111 
L 225.167402 230.146597 
L 225.355678 228.171074 
L 225.543954 227.799677 
L 225.73223 226.456624 
L 225.920506 226.256294 
L 226.108782 223.348789 
L 226.297058 224.298611 
L 226.67361 223.052709 
L 226.861885 224.531305 
L 227.050161 223.319072 
L 227.238437 225.213782 
L 227.426713 225.109255 
L 227.614989 226.087235 
L 227.803265 229.090938 
L 227.991541 227.156071 
L 228.368093 229.147205 
L 228.556369 229.210693 
L 228.744645 231.958545 
L 228.932921 229.530089 
L 229.121197 234.360632 
L 229.309473 234.811939 
L 229.497749 232.912098 
L 230.062577 237.099133 
L 230.250853 234.812501 
L 230.439129 237.22812 
L 230.627405 235.723187 
L 230.815681 237.436902 
L 231.192232 233.665153 
L 231.380508 235.764451 
L 231.75706 234.706315 
L 231.945336 234.705088 
L 232.321888 230.93696 
L 232.510164 232.692286 
L 232.69844 232.752671 
L 232.886716 231.864081 
L 233.074992 233.239956 
L 233.263268 230.194255 
L 233.451544 230.297285 
L 233.63982 231.186987 
L 233.828096 233.176132 
L 234.016372 229.698475 
L 234.204648 233.797881 
L 234.392924 231.393127 
L 234.5812 234.136791 
L 234.769476 230.776499 
L 235.334304 233.756491 
L 235.522579 232.356186 
L 235.710855 232.231725 
L 235.899131 231.582783 
L 236.275683 236.394256 
L 236.463959 234.282431 
L 236.652235 234.449063 
L 236.840511 236.200109 
L 237.028787 233.765912 
L 237.217063 235.653765 
L 237.405339 235.902598 
L 237.593615 235.655198 
L 237.781891 236.433122 
L 237.970167 236.230693 
L 238.158443 233.913889 
L 238.346719 235.665246 
L 238.534995 235.941471 
L 238.723271 235.973333 
L 238.911547 235.762172 
L 239.099823 235.987936 
L 239.288099 234.792116 
L 239.476375 236.339365 
L 239.664651 236.785683 
L 239.852926 236.559861 
L 240.041202 235.807382 
L 240.417754 237.846826 
L 240.60603 236.54244 
L 240.794306 237.081895 
L 240.982582 235.127097 
L 241.170858 236.708088 
L 241.359134 236.592729 
L 241.54741 237.098471 
L 241.735686 236.927511 
L 241.923962 237.127474 
L 242.300514 235.836951 
L 242.48879 237.289067 
L 242.677066 236.401735 
L 242.865342 237.811893 
L 243.053618 237.409572 
L 243.241894 235.543347 
L 243.43017 236.708295 
L 243.618446 236.270071 
L 243.994997 237.307293 
L 244.183273 236.980851 
L 244.371549 238.350056 
L 244.559825 236.633451 
L 244.936377 236.133271 
L 245.124653 236.882209 
L 245.501205 235.826033 
L 245.689481 236.556165 
L 245.877757 238.72242 
L 246.066033 237.887389 
L 246.254309 237.783589 
L 246.442585 237.926056 
L 246.630861 237.241395 
L 246.819137 238.570228 
L 247.007413 239.022726 
L 247.195689 236.897078 
L 247.572241 239.127907 
L 247.760517 237.801792 
L 247.948793 239.256748 
L 248.137069 239.192564 
L 248.325344 239.338642 
L 248.51362 238.945207 
L 248.701896 238.155595 
L 248.890172 239.124511 
L 249.078448 237.439604 
L 249.266724 239.026183 
L 249.831552 239.265431 
L 250.019828 238.719486 
L 250.39638 239.333158 
L 250.584656 238.957828 
L 250.772932 239.248079 
L 250.961208 238.406514 
L 251.149484 239.38025 
L 251.33776 239.330268 
L 251.526036 238.24212 
L 251.714312 238.114943 
L 251.902588 238.777996 
L 252.090864 237.880786 
L 252.27914 239.408611 
L 252.467416 239.404705 
L 252.655691 236.968924 
L 252.843967 239.464863 
L 253.220519 237.047583 
L 253.408795 237.277452 
L 253.597071 240.13618 
L 253.785347 238.046438 
L 253.973623 238.054861 
L 254.161899 236.987521 
L 254.350175 237.65615 
L 254.538451 236.894819 
L 254.726727 237.271569 
L 254.915003 236.951666 
L 255.103279 236.114853 
L 255.291555 238.504988 
L 255.479831 237.739227 
L 255.856383 238.438872 
L 256.232935 237.826874 
L 256.421211 239.390193 
L 256.609487 239.825147 
L 256.797763 239.232598 
L 256.986038 239.114007 
L 257.174314 239.313603 
L 257.550866 238.936778 
L 257.739142 239.846246 
L 257.927418 239.319733 
L 258.115694 239.623574 
L 258.30397 240.659828 
L 258.492246 240.247802 
L 258.680522 239.295416 
L 258.868798 240.30059 
L 259.057074 240.018037 
L 259.24535 240.387261 
L 259.621902 239.274485 
L 259.810178 240.476348 
L 259.998454 239.458949 
L 260.18673 240.18072 
L 260.375006 239.628438 
L 260.563282 239.632954 
L 260.751558 239.395854 
L 261.12811 240.797783 
L 261.316385 239.884764 
L 261.504661 240.493344 
L 261.692937 239.379625 
L 261.881213 240.389885 
L 262.257765 239.074816 
L 262.446041 239.708885 
L 262.634317 238.685896 
L 263.010869 239.189114 
L 263.387421 238.989156 
L 263.575697 238.613336 
L 263.952249 239.07833 
L 264.140525 237.780209 
L 264.328801 239.01007 
L 264.517077 238.19642 
L 264.705353 239.838632 
L 264.893629 237.72774 
L 265.081905 239.250637 
L 265.270181 237.671541 
L 265.458457 238.546323 
L 265.646732 240.125342 
L 265.835008 238.74116 
L 266.023284 239.496567 
L 266.21156 239.167885 
L 266.399836 239.849267 
L 266.588112 239.936494 
L 266.776388 238.820092 
L 267.529492 241.153819 
L 267.717768 239.723698 
L 268.282596 241.421181 
L 268.470872 241.150156 
L 268.659148 239.940626 
L 268.847424 240.805611 
L 269.223976 241.235572 
L 269.600528 241.002546 
L 269.788803 240.702833 
L 269.977079 240.087571 
L 270.165355 241.465813 
L 270.353631 240.883952 
L 270.541907 240.892091 
L 270.730183 241.09885 
L 270.918459 240.382187 
L 271.106735 240.601111 
L 271.295011 240.624706 
L 271.859839 240.171138 
L 272.048115 240.993708 
L 272.236391 240.927774 
L 272.424667 240.531663 
L 272.989495 240.212944 
L 273.177771 239.672187 
L 273.366047 240.506817 
L 273.554323 240.818871 
L 273.742599 240.469036 
L 274.11915 240.974928 
L 274.307426 241.068554 
L 274.495702 240.650054 
L 274.683978 240.507051 
L 274.872254 240.935887 
L 275.06053 240.3399 
L 275.248806 240.548528 
L 275.437082 239.805009 
L 275.625358 240.58886 
L 275.813634 240.634603 
L 276.00191 240.820542 
L 276.190186 240.459722 
L 276.378462 240.746653 
L 276.566738 240.550371 
L 276.755014 240.625239 
L 277.131566 240.337843 
L 277.319842 240.821814 
L 277.508118 240.421299 
L 277.696394 240.834738 
L 277.88467 239.578607 
L 278.261222 240.923597 
L 278.449497 240.821703 
L 278.637773 241.343079 
L 278.826049 240.95484 
L 279.014325 240.243053 
L 279.202601 241.255619 
L 279.390877 241.518658 
L 279.579153 240.888929 
L 279.955705 241.426552 
L 280.143981 241.01503 
L 280.332257 241.277762 
L 280.520533 240.561753 
L 280.897085 241.194279 
L 281.085361 240.924841 
L 281.461913 241.241406 
L 281.650189 241.27626 
L 281.838465 240.89744 
L 282.026741 241.317347 
L 282.215017 241.39391 
L 282.403293 241.730246 
L 282.591569 241.544241 
L 282.779844 241.102539 
L 283.156396 241.362409 
L 283.344672 240.24398 
L 283.721224 241.356139 
L 283.9095 240.571016 
L 284.097776 241.267459 
L 284.286052 241.022429 
L 284.474328 240.968277 
L 285.039156 241.296745 
L 285.227432 240.145504 
L 285.415708 240.594843 
L 285.603984 241.661119 
L 285.79226 240.818427 
L 285.980536 241.327161 
L 286.168812 240.872494 
L 286.357088 241.040593 
L 286.545364 240.720405 
L 287.110191 241.163839 
L 287.298467 241.177106 
L 287.486743 241.012801 
L 287.675019 240.670978 
L 287.863295 241.2037 
L 288.051571 240.49981 
L 288.239847 240.708976 
L 288.428123 241.307117 
L 288.804675 240.932303 
L 289.181227 240.760046 
L 289.369503 241.089684 
L 289.557779 240.377113 
L 289.746055 241.292604 
L 289.934331 240.30665 
L 290.122607 240.926497 
L 290.310883 240.405603 
L 290.499159 241.375304 
L 290.687435 241.04713 
L 290.875711 239.835681 
L 291.252262 241.023735 
L 291.440538 239.980529 
L 291.81709 240.89672 
L 292.005366 240.846557 
L 292.193642 240.954677 
L 292.570194 240.126019 
L 292.75847 240.97602 
L 292.946746 240.691934 
L 293.135022 241.330303 
L 293.323298 241.053171 
L 293.511574 241.190069 
L 293.69985 240.593087 
L 293.888126 240.660714 
L 294.264678 241.243245 
L 294.64123 240.90226 
L 294.829506 240.916975 
L 295.017782 241.631737 
L 295.206058 241.340243 
L 295.394334 241.264183 
L 295.582609 240.807135 
L 295.770885 240.874856 
L 295.959161 241.077031 
L 296.712265 241.271853 
L 296.900541 241.560882 
L 297.088817 241.528083 
L 297.277093 241.237841 
L 297.465369 241.377919 
L 297.653645 240.959267 
L 297.841921 241.462102 
L 298.030197 240.993352 
L 298.218473 241.318771 
L 298.406749 241.417354 
L 298.595025 241.644079 
L 298.971577 240.816783 
L 299.159853 241.402227 
L 299.348129 241.263812 
L 299.536405 241.318137 
L 299.724681 241.71727 
L 300.101232 240.938001 
L 300.289508 241.761123 
L 300.477784 241.447149 
L 300.854336 241.354235 
L 301.042612 240.879122 
L 301.419164 241.504929 
L 301.60744 241.005853 
L 301.983992 241.784104 
L 302.172268 241.148453 
L 302.360544 241.763593 
L 302.737096 241.252401 
L 302.925372 241.80032 
L 303.113648 241.421615 
L 303.301924 241.568027 
L 303.4902 241.248313 
L 303.866752 241.746925 
L 304.055028 241.657102 
L 304.243303 241.746363 
L 304.431579 241.473686 
L 305.184683 241.865268 
L 305.372959 241.60139 
L 305.561235 241.710985 
L 305.749511 241.608382 
L 305.937787 241.950807 
L 306.314339 241.679847 
L 306.502615 241.891669 
L 306.690891 241.816904 
L 306.879167 241.903294 
L 307.067443 241.489311 
L 307.255719 241.911903 
L 307.443995 241.6076 
L 307.820547 241.740112 
L 308.008823 241.862313 
L 308.197099 241.601607 
L 308.385375 241.835338 
L 308.761926 241.286763 
L 308.950202 241.684981 
L 309.138478 241.575606 
L 309.326754 241.719881 
L 309.703306 241.809744 
L 309.891582 241.911077 
L 310.079858 241.68654 
L 310.268134 241.866218 
L 310.45641 241.846083 
L 310.832962 241.438432 
L 311.021238 241.958988 
L 311.209514 241.805695 
L 311.39779 241.936482 
L 311.774342 241.661821 
L 311.962618 241.951756 
L 312.33917 241.838136 
L 312.527446 241.912236 
L 312.715721 241.697078 
L 313.092273 241.826 
L 313.657101 241.930778 
L 313.845377 241.769255 
L 314.033653 241.913925 
L 314.221929 241.650238 
L 314.410205 241.883364 
L 314.786757 241.779984 
L 314.975033 241.690904 
L 315.163309 241.853023 
L 315.351585 241.743258 
L 315.539861 241.897443 
L 315.728137 241.466582 
L 315.916413 241.877354 
L 316.669517 241.82468 
L 316.857793 241.780057 
L 317.234344 242.01593 
L 319.870208 241.720702 
L 320.058484 241.983862 
L 320.623312 242.007327 
L 323.259175 241.962041 
L 323.447451 241.856477 
L 323.824003 242.04582 
L 324.012279 241.952135 
L 324.200555 241.997267 
L 324.388831 241.812626 
L 324.577107 241.956017 
L 332.108145 242.006736 
L 332.296421 242.06025 
L 332.672973 241.915591 
L 332.861249 241.9906 
L 333.049525 241.907383 
L 333.614353 242.054695 
L 335.685388 241.945838 
L 335.873664 242.037007 
L 336.250216 241.95521 
L 336.626768 242.040316 
L 337.00332 241.921722 
L 337.191596 242.034085 
L 337.9447 242.00225 
L 338.509527 242.01235 
L 339.074355 242.056399 
L 339.639183 242.039094 
L 340.580563 241.957511 
L 340.957115 242.051611 
L 342.275047 242.05267 
L 343.02815 241.954389 
L 343.404702 242.0707 
L 343.781254 242.057692 
L 345.475738 242.052122 
L 346.040566 242.085784 
L 346.417118 242.054244 
L 346.981946 241.90528 
L 347.358497 242.060077 
L 347.735049 242.07727 
L 347.923325 241.940526 
L 348.111601 242.067961 
L 348.299877 242.001082 
L 348.676429 242.089677 
L 349.429533 241.994794 
L 349.806085 242.036346 
L 350.935741 242.07084 
L 356.207467 242.055379 
L 356.772295 242.060172 
L 358.655055 242.076933 
L 358.843331 241.861828 
L 359.408159 242.050409 
L 360.537814 242.05506 
L 362.60885 242.077051 
L 364.679885 242.088822 
L 365.056437 242.084248 
L 366.186093 242.027584 
L 366.750921 242.051048 
L 370.328164 242.092801 
L 371.45782 242.065743 
L 372.210924 242.067893 
L 372.775752 242.063973 
L 373.528855 242.03046 
L 374.281959 242.095499 
L 374.658511 242.056159 
L 375.411615 242.079684 
L 375.788167 242.062097 
L 376.352995 242.073942 
L 377.48265 242.083362 
L 384.637137 242.086746 
L 385.013689 242.088797 
L 390.850243 242.093636 
L 391.226795 242.004629 
L 391.603347 242.091946 
L 392.356451 242.096527 
L 395.368866 242.085062 
L 396.310246 242.080081 
L 397.439902 242.039166 
L 398.193006 242.097533 
L 399.134385 242.043164 
L 400.075765 242.092025 
L 400.828869 242.073376 
L 402.711629 242.049063 
L 403.08818 242.06754 
L 405.159216 242.071207 
L 405.535768 242.098761 
L 407.606803 242.076997 
L 408.171631 242.102834 
L 410.054391 242.074218 
L 416.455773 242.095367 
L 416.644049 242.031589 
L 417.020601 242.108206 
L 418.338533 242.087746 
L 420.78612 242.084011 
L 421.350948 242.091837 
L 427.564055 242.093733 
L 429.63509 242.093132 
L 430.953022 242.088826 
L 432.45923 242.086221 
L 434.718541 242.100085 
L 435.848197 242.090665 
L 437.166129 242.093598 
L 439.990268 242.099634 
L 446.579926 242.079779 
L 447.33303 242.100325 
L 448.086134 242.096273 
L 450.157169 242.089327 
L 450.533721 242.066624 
L 451.851653 242.08333 
L 534.316522 242.107449 
L 537.705489 242.112083 
L 538.458593 242.102324 
L 540.529628 242.101586 
L 541.84756 242.09648 
L 547.495839 242.10851 
L 549.566874 242.111469 
L 560.298604 242.106425 
L 564.817227 242.110422 
L 566.699986 242.077496 
L 567.45309 242.105332 
L 577.996544 242.092349 
L 579.126199 242.111418 
L 581.573787 242.1108 
L 594.753104 242.105806 
L 652.17727 242.107082 
L 653.683478 242.097833 
L 655.94279 242.114257 
L 658.202101 242.106947 
L 747.444904 242.10913 
L 752.340079 242.108137 
L 754.787667 242.111638 
L 824.261494 242.110569 
L 828.027014 242.110613 
L 831.227705 242.109367 
L 834.616672 242.113052 
L 839.135295 242.111664 
L 924.989131 242.113476 
L 926.495339 242.114622 
L 937.038792 242.105933 
L 940.051207 242.113566 
L 952.853972 242.114206 
L 970.363636 242.114351 
L 970.363636 242.114351 
" style="fill:none;stroke:#1f77b4;stroke-linecap:square;stroke-width:1.5;"/>
   </g>
   <g id="patch_3">
    <path d="M 180 252 
L 180 34.56 
" style="fill:none;stroke:#000000;stroke-linecap:square;stroke-linejoin:miter;stroke-width:0.8;"/>
   </g>
   <g id="patch_4">
    <path d="M 1008 252 
L 1008 34.56 
" style="fill:none;stroke:#000000;stroke-linecap:square;stroke-linejoin:miter;stroke-width:0.8;"/>
   </g>
   <g id="patch_5">
    <path d="M 180 252 
L 1008 252 
" style="fill:none;stroke:#000000;stroke-linecap:square;stroke-linejoin:miter;stroke-width:0.8;"/>
   </g>
   <g id="patch_6">
    <path d="M 180 34.56 
L 1008 34.56 
" style="fill:none;stroke:#000000;stroke-linecap:square;stroke-linejoin:miter;stroke-width:0.8;"/>
   </g>
   <g id="legend_1">
    <g id="PathCollection_2">
     <g>
      <use style="fill:#ff0000;stroke:#ff0000;" x="1085.8" xlink:href="#m36e800bd2d" y="56.745312"/>
     </g>
    </g>
    <g id="text_10">
     <!-- &gt; mean + 3SD -->
     <defs>
      <path d="M 52.875 31.296875 
L 5.46875 11.03125 
L 5.46875 19.78125 
L 43.015625 35.359375 
L 5.46875 50.78125 
L 5.46875 59.515625 
L 52.875 39.5 
z
" id="ArialMT-62"/>
      <path d="M 25.046875 11.578125 
L 25.046875 31.203125 
L 5.5625 31.203125 
L 5.5625 39.40625 
L 25.046875 39.40625 
L 25.046875 58.890625 
L 33.34375 58.890625 
L 33.34375 39.40625 
L 52.828125 39.40625 
L 52.828125 31.203125 
L 33.34375 31.203125 
L 33.34375 11.578125 
z
" id="ArialMT-43"/>
      <path d="M 4.203125 18.890625 
L 12.984375 20.0625 
Q 14.5 12.59375 18.140625 9.296875 
Q 21.78125 6 27 6 
Q 33.203125 6 37.46875 10.296875 
Q 41.75 14.59375 41.75 20.953125 
Q 41.75 27 37.796875 30.921875 
Q 33.84375 34.859375 27.734375 34.859375 
Q 25.25 34.859375 21.53125 33.890625 
L 22.515625 41.609375 
Q 23.390625 41.5 23.921875 41.5 
Q 29.546875 41.5 34.03125 44.421875 
Q 38.53125 47.359375 38.53125 53.46875 
Q 38.53125 58.296875 35.25 61.46875 
Q 31.984375 64.65625 26.8125 64.65625 
Q 21.6875 64.65625 18.265625 61.421875 
Q 14.84375 58.203125 13.875 51.765625 
L 5.078125 53.328125 
Q 6.6875 62.15625 12.390625 67.015625 
Q 18.109375 71.875 26.609375 71.875 
Q 32.46875 71.875 37.390625 69.359375 
Q 42.328125 66.84375 44.9375 62.5 
Q 47.5625 58.15625 47.5625 53.265625 
Q 47.5625 48.640625 45.0625 44.828125 
Q 42.578125 41.015625 37.703125 38.765625 
Q 44.046875 37.3125 47.5625 32.6875 
Q 51.078125 28.078125 51.078125 21.140625 
Q 51.078125 11.765625 44.234375 5.25 
Q 37.40625 -1.265625 26.953125 -1.265625 
Q 17.53125 -1.265625 11.296875 4.34375 
Q 5.078125 9.96875 4.203125 18.890625 
z
" id="ArialMT-51"/>
      <path d="M 4.5 23 
L 13.421875 23.78125 
Q 14.0625 18.40625 16.375 14.96875 
Q 18.703125 11.53125 23.578125 9.40625 
Q 28.46875 7.28125 34.578125 7.28125 
Q 39.984375 7.28125 44.140625 8.890625 
Q 48.296875 10.5 50.3125 13.296875 
Q 52.34375 16.109375 52.34375 19.4375 
Q 52.34375 22.796875 50.390625 25.3125 
Q 48.4375 27.828125 43.953125 29.546875 
Q 41.0625 30.671875 31.203125 33.03125 
Q 21.34375 35.40625 17.390625 37.5 
Q 12.25 40.1875 9.734375 44.15625 
Q 7.234375 48.140625 7.234375 53.078125 
Q 7.234375 58.5 10.296875 63.203125 
Q 13.375 67.921875 19.28125 70.359375 
Q 25.203125 72.796875 32.421875 72.796875 
Q 40.375 72.796875 46.453125 70.234375 
Q 52.546875 67.671875 55.8125 62.6875 
Q 59.078125 57.71875 59.328125 51.421875 
L 50.25 50.734375 
Q 49.515625 57.515625 45.28125 60.984375 
Q 41.0625 64.453125 32.8125 64.453125 
Q 24.21875 64.453125 20.28125 61.296875 
Q 16.359375 58.15625 16.359375 53.71875 
Q 16.359375 49.859375 19.140625 47.359375 
Q 21.875 44.875 33.421875 42.265625 
Q 44.96875 39.65625 49.265625 37.703125 
Q 55.515625 34.8125 58.484375 30.390625 
Q 61.46875 25.984375 61.46875 20.21875 
Q 61.46875 14.5 58.203125 9.4375 
Q 54.9375 4.390625 48.796875 1.578125 
Q 42.671875 -1.21875 35.015625 -1.21875 
Q 25.296875 -1.21875 18.71875 1.609375 
Q 12.15625 4.4375 8.421875 10.125 
Q 4.6875 15.828125 4.5 23 
z
" id="ArialMT-83"/>
      <path d="M 7.71875 0 
L 7.71875 71.578125 
L 32.375 71.578125 
Q 40.71875 71.578125 45.125 70.5625 
Q 51.265625 69.140625 55.609375 65.4375 
Q 61.28125 60.640625 64.078125 53.1875 
Q 66.890625 45.75 66.890625 36.1875 
Q 66.890625 28.03125 64.984375 21.734375 
Q 63.09375 15.4375 60.109375 11.296875 
Q 57.125 7.171875 53.578125 4.796875 
Q 50.046875 2.4375 45.046875 1.21875 
Q 40.046875 0 33.546875 0 
z
M 17.1875 8.453125 
L 32.46875 8.453125 
Q 39.546875 8.453125 43.578125 9.765625 
Q 47.609375 11.078125 50 13.484375 
Q 53.375 16.84375 55.25 22.53125 
Q 57.125 28.21875 57.125 36.328125 
Q 57.125 47.5625 53.4375 53.59375 
Q 49.75 59.625 44.484375 61.671875 
Q 40.671875 63.140625 32.234375 63.140625 
L 17.1875 63.140625 
z
" id="ArialMT-68"/>
     </defs>
     <g transform="translate(1132.6 63.570312)scale(0.26 -0.26)">
      <use xlink:href="#ArialMT-62"/>
      <use x="58.398438" xlink:href="#ArialMT-32"/>
      <use x="86.181641" xlink:href="#ArialMT-109"/>
      <use x="169.482422" xlink:href="#ArialMT-101"/>
      <use x="225.097656" xlink:href="#ArialMT-97"/>
      <use x="280.712891" xlink:href="#ArialMT-110"/>
      <use x="336.328125" xlink:href="#ArialMT-32"/>
      <use x="364.111328" xlink:href="#ArialMT-43"/>
      <use x="422.509766" xlink:href="#ArialMT-32"/>
      <use x="450.292969" xlink:href="#ArialMT-51"/>
      <use x="505.908203" xlink:href="#ArialMT-83"/>
      <use x="572.607422" xlink:href="#ArialMT-68"/>
     </g>
    </g>
   </g>
  </g>
 </g>
 <defs>
  <clipPath id="p04cd039e8a">
   <rect height="217.44" width="828" x="180" y="34.56"/>
  </clipPath>
 </defs>
</svg>
