<?xml version="1.0" encoding="utf-8" standalone="no"?>
<!DOCTYPE svg PUBLIC "-//W3C//DTD SVG 1.1//EN"
  "http://www.w3.org/Graphics/SVG/1.1/DTD/svg11.dtd">
<!-- Created with matplotlib (https://matplotlib.org/) -->
<svg height="288pt" version="1.1" viewBox="0 0 1440 288" width="1440pt" xmlns="http://www.w3.org/2000/svg" xmlns:xlink="http://www.w3.org/1999/xlink">
 <defs>
  <style type="text/css">
*{stroke-linecap:butt;stroke-linejoin:round;}
  </style>
 </defs>
 <g id="figure_1">
  <g id="patch_1">
   <path d="M 0 288 
L 1440 288 
L 1440 0 
L 0 0 
z
" style="fill:#ffffff;"/>
  </g>
  <g id="axes_1">
   <g id="patch_2">
    <path d="M 180 252 
L 1008 252 
L 1008 34.56 
L 180 34.56 
z
" style="fill:#ffffff;"/>
   </g>
   <g id="matplotlib.axis_1">
    <g id="xtick_1">
     <g id="line2d_1">
      <path clip-path="url(#pf04e6d5ebd)" d="M 217.636364 252 
L 217.636364 34.56 
" style="fill:none;stroke:#b0b0b0;stroke-linecap:square;stroke-width:0.8;"/>
     </g>
     <g id="line2d_2">
      <defs>
       <path d="M 0 0 
L 0 3.5 
" id="m4336dd6a88" style="stroke:#000000;stroke-width:0.8;"/>
      </defs>
      <g>
       <use style="stroke:#000000;stroke-width:0.8;" x="217.636364" xlink:href="#m4336dd6a88" y="252"/>
      </g>
     </g>
     <g id="text_1">
      <!-- 0 -->
      <defs>
       <path d="M 4.15625 35.296875 
Q 4.15625 48 6.765625 55.734375 
Q 9.375 63.484375 14.515625 67.671875 
Q 19.671875 71.875 27.484375 71.875 
Q 33.25 71.875 37.59375 69.546875 
Q 41.9375 67.234375 44.765625 62.859375 
Q 47.609375 58.5 49.21875 52.21875 
Q 50.828125 45.953125 50.828125 35.296875 
Q 50.828125 22.703125 48.234375 14.96875 
Q 45.65625 7.234375 40.5 3 
Q 35.359375 -1.21875 27.484375 -1.21875 
Q 17.140625 -1.21875 11.234375 6.203125 
Q 4.15625 15.140625 4.15625 35.296875 
z
M 13.1875 35.296875 
Q 13.1875 17.671875 17.3125 11.828125 
Q 21.4375 6 27.484375 6 
Q 33.546875 6 37.671875 11.859375 
Q 41.796875 17.71875 41.796875 35.296875 
Q 41.796875 52.984375 37.671875 58.78125 
Q 33.546875 64.59375 27.390625 64.59375 
Q 21.34375 64.59375 17.71875 59.46875 
Q 13.1875 52.9375 13.1875 35.296875 
z
" id="ArialMT-48"/>
      </defs>
      <g transform="translate(210.407145 277.610313)scale(0.26 -0.26)">
       <use xlink:href="#ArialMT-48"/>
      </g>
     </g>
    </g>
    <g id="xtick_2">
     <g id="line2d_3">
      <path clip-path="url(#pf04e6d5ebd)" d="M 594.188276 252 
L 594.188276 34.56 
" style="fill:none;stroke:#b0b0b0;stroke-linecap:square;stroke-width:0.8;"/>
     </g>
     <g id="line2d_4">
      <g>
       <use style="stroke:#000000;stroke-width:0.8;" x="594.188276" xlink:href="#m4336dd6a88" y="252"/>
      </g>
     </g>
     <g id="text_2">
      <!-- 2000 -->
      <defs>
       <path d="M 50.34375 8.453125 
L 50.34375 0 
L 3.03125 0 
Q 2.9375 3.171875 4.046875 6.109375 
Q 5.859375 10.9375 9.828125 15.625 
Q 13.8125 20.3125 21.34375 26.46875 
Q 33.015625 36.03125 37.109375 41.625 
Q 41.21875 47.21875 41.21875 52.203125 
Q 41.21875 57.421875 37.46875 61 
Q 33.734375 64.59375 27.734375 64.59375 
Q 21.390625 64.59375 17.578125 60.78125 
Q 13.765625 56.984375 13.71875 50.25 
L 4.6875 51.171875 
Q 5.609375 61.28125 11.65625 66.578125 
Q 17.71875 71.875 27.9375 71.875 
Q 38.234375 71.875 44.234375 66.15625 
Q 50.25 60.453125 50.25 52 
Q 50.25 47.703125 48.484375 43.546875 
Q 46.734375 39.40625 42.65625 34.8125 
Q 38.578125 30.21875 29.109375 22.21875 
Q 21.1875 15.578125 18.9375 13.203125 
Q 16.703125 10.84375 15.234375 8.453125 
z
" id="ArialMT-50"/>
      </defs>
      <g transform="translate(565.271401 277.610313)scale(0.26 -0.26)">
       <use xlink:href="#ArialMT-50"/>
       <use x="55.615234" xlink:href="#ArialMT-48"/>
       <use x="111.230469" xlink:href="#ArialMT-48"/>
       <use x="166.845703" xlink:href="#ArialMT-48"/>
      </g>
     </g>
    </g>
    <g id="xtick_3">
     <g id="line2d_5">
      <path clip-path="url(#pf04e6d5ebd)" d="M 970.740188 252 
L 970.740188 34.56 
" style="fill:none;stroke:#b0b0b0;stroke-linecap:square;stroke-width:0.8;"/>
     </g>
     <g id="line2d_6">
      <g>
       <use style="stroke:#000000;stroke-width:0.8;" x="970.740188" xlink:href="#m4336dd6a88" y="252"/>
      </g>
     </g>
     <g id="text_3">
      <!-- 4000 -->
      <defs>
       <path d="M 32.328125 0 
L 32.328125 17.140625 
L 1.265625 17.140625 
L 1.265625 25.203125 
L 33.9375 71.578125 
L 41.109375 71.578125 
L 41.109375 25.203125 
L 50.78125 25.203125 
L 50.78125 17.140625 
L 41.109375 17.140625 
L 41.109375 0 
z
M 32.328125 25.203125 
L 32.328125 57.46875 
L 9.90625 25.203125 
z
" id="ArialMT-52"/>
      </defs>
      <g transform="translate(941.823313 277.610313)scale(0.26 -0.26)">
       <use xlink:href="#ArialMT-52"/>
       <use x="55.615234" xlink:href="#ArialMT-48"/>
       <use x="111.230469" xlink:href="#ArialMT-48"/>
       <use x="166.845703" xlink:href="#ArialMT-48"/>
      </g>
     </g>
    </g>
    <g id="text_4">
     <!-- # sample -->
     <defs>
      <path d="M 5.03125 -1.21875 
L 9.28125 19.578125 
L 1.03125 19.578125 
L 1.03125 26.859375 
L 10.75 26.859375 
L 14.359375 44.578125 
L 1.03125 44.578125 
L 1.03125 51.859375 
L 15.828125 51.859375 
L 20.0625 72.796875 
L 27.390625 72.796875 
L 23.140625 51.859375 
L 38.53125 51.859375 
L 42.78125 72.796875 
L 50.140625 72.796875 
L 45.90625 51.859375 
L 54.34375 51.859375 
L 54.34375 44.578125 
L 44.4375 44.578125 
L 40.765625 26.859375 
L 54.34375 26.859375 
L 54.34375 19.578125 
L 39.3125 19.578125 
L 35.0625 -1.21875 
L 27.734375 -1.21875 
L 31.9375 19.578125 
L 16.609375 19.578125 
L 12.359375 -1.21875 
z
M 18.0625 26.859375 
L 33.40625 26.859375 
L 37.0625 44.578125 
L 21.6875 44.578125 
z
" id="ArialMT-35"/>
      <path id="ArialMT-32"/>
      <path d="M 3.078125 15.484375 
L 11.765625 16.84375 
Q 12.5 11.625 15.84375 8.84375 
Q 19.1875 6.0625 25.203125 6.0625 
Q 31.25 6.0625 34.171875 8.515625 
Q 37.109375 10.984375 37.109375 14.3125 
Q 37.109375 17.28125 34.515625 19 
Q 32.71875 20.171875 25.53125 21.96875 
Q 15.875 24.421875 12.140625 26.203125 
Q 8.40625 27.984375 6.46875 31.125 
Q 4.546875 34.28125 4.546875 38.09375 
Q 4.546875 41.546875 6.125 44.5 
Q 7.71875 47.46875 10.453125 49.421875 
Q 12.5 50.921875 16.03125 51.96875 
Q 19.578125 53.03125 23.640625 53.03125 
Q 29.734375 53.03125 34.34375 51.265625 
Q 38.96875 49.515625 41.15625 46.5 
Q 43.359375 43.5 44.1875 38.484375 
L 35.59375 37.3125 
Q 35.015625 41.3125 32.203125 43.546875 
Q 29.390625 45.796875 24.265625 45.796875 
Q 18.21875 45.796875 15.625 43.796875 
Q 13.03125 41.796875 13.03125 39.109375 
Q 13.03125 37.40625 14.109375 36.03125 
Q 15.1875 34.625 17.484375 33.6875 
Q 18.796875 33.203125 25.25 31.453125 
Q 34.578125 28.953125 38.25 27.359375 
Q 41.9375 25.78125 44.03125 22.75 
Q 46.140625 19.734375 46.140625 15.234375 
Q 46.140625 10.84375 43.578125 6.953125 
Q 41.015625 3.078125 36.171875 0.953125 
Q 31.34375 -1.171875 25.25 -1.171875 
Q 15.140625 -1.171875 9.84375 3.03125 
Q 4.546875 7.234375 3.078125 15.484375 
z
" id="ArialMT-115"/>
      <path d="M 40.4375 6.390625 
Q 35.546875 2.25 31.03125 0.53125 
Q 26.515625 -1.171875 21.34375 -1.171875 
Q 12.796875 -1.171875 8.203125 3 
Q 3.609375 7.171875 3.609375 13.671875 
Q 3.609375 17.484375 5.34375 20.625 
Q 7.078125 23.78125 9.890625 25.6875 
Q 12.703125 27.59375 16.21875 28.5625 
Q 18.796875 29.25 24.03125 29.890625 
Q 34.671875 31.15625 39.703125 32.90625 
Q 39.75 34.71875 39.75 35.203125 
Q 39.75 40.578125 37.25 42.78125 
Q 33.890625 45.75 27.25 45.75 
Q 21.046875 45.75 18.09375 43.578125 
Q 15.140625 41.40625 13.71875 35.890625 
L 5.125 37.0625 
Q 6.296875 42.578125 8.984375 45.96875 
Q 11.671875 49.359375 16.75 51.1875 
Q 21.828125 53.03125 28.515625 53.03125 
Q 35.15625 53.03125 39.296875 51.46875 
Q 43.453125 49.90625 45.40625 47.53125 
Q 47.359375 45.171875 48.140625 41.546875 
Q 48.578125 39.3125 48.578125 33.453125 
L 48.578125 21.734375 
Q 48.578125 9.46875 49.140625 6.21875 
Q 49.703125 2.984375 51.375 0 
L 42.1875 0 
Q 40.828125 2.734375 40.4375 6.390625 
z
M 39.703125 26.03125 
Q 34.90625 24.078125 25.34375 22.703125 
Q 19.921875 21.921875 17.671875 20.9375 
Q 15.4375 19.96875 14.203125 18.09375 
Q 12.984375 16.21875 12.984375 13.921875 
Q 12.984375 10.40625 15.640625 8.0625 
Q 18.3125 5.71875 23.4375 5.71875 
Q 28.515625 5.71875 32.46875 7.9375 
Q 36.421875 10.15625 38.28125 14.015625 
Q 39.703125 17 39.703125 22.796875 
z
" id="ArialMT-97"/>
      <path d="M 6.59375 0 
L 6.59375 51.859375 
L 14.453125 51.859375 
L 14.453125 44.578125 
Q 16.890625 48.390625 20.9375 50.703125 
Q 25 53.03125 30.171875 53.03125 
Q 35.9375 53.03125 39.625 50.640625 
Q 43.3125 48.25 44.828125 43.953125 
Q 50.984375 53.03125 60.84375 53.03125 
Q 68.5625 53.03125 72.703125 48.75 
Q 76.859375 44.484375 76.859375 35.59375 
L 76.859375 0 
L 68.109375 0 
L 68.109375 32.671875 
Q 68.109375 37.9375 67.25 40.25 
Q 66.40625 42.578125 64.15625 43.984375 
Q 61.921875 45.40625 58.890625 45.40625 
Q 53.421875 45.40625 49.796875 41.765625 
Q 46.1875 38.140625 46.1875 30.125 
L 46.1875 0 
L 37.40625 0 
L 37.40625 33.6875 
Q 37.40625 39.546875 35.25 42.46875 
Q 33.109375 45.40625 28.21875 45.40625 
Q 24.515625 45.40625 21.359375 43.453125 
Q 18.21875 41.5 16.796875 37.734375 
Q 15.375 33.984375 15.375 26.90625 
L 15.375 0 
z
" id="ArialMT-109"/>
      <path d="M 6.59375 -19.875 
L 6.59375 51.859375 
L 14.59375 51.859375 
L 14.59375 45.125 
Q 17.4375 49.078125 21 51.046875 
Q 24.5625 53.03125 29.640625 53.03125 
Q 36.28125 53.03125 41.359375 49.609375 
Q 46.4375 46.1875 49.015625 39.953125 
Q 51.609375 33.734375 51.609375 26.3125 
Q 51.609375 18.359375 48.75 11.984375 
Q 45.90625 5.609375 40.453125 2.21875 
Q 35.015625 -1.171875 29 -1.171875 
Q 24.609375 -1.171875 21.109375 0.6875 
Q 17.625 2.546875 15.375 5.375 
L 15.375 -19.875 
z
M 14.546875 25.640625 
Q 14.546875 15.625 18.59375 10.84375 
Q 22.65625 6.0625 28.421875 6.0625 
Q 34.28125 6.0625 38.453125 11.015625 
Q 42.625 15.96875 42.625 26.375 
Q 42.625 36.28125 38.546875 41.203125 
Q 34.46875 46.140625 28.8125 46.140625 
Q 23.1875 46.140625 18.859375 40.890625 
Q 14.546875 35.640625 14.546875 25.640625 
z
" id="ArialMT-112"/>
      <path d="M 6.390625 0 
L 6.390625 71.578125 
L 15.1875 71.578125 
L 15.1875 0 
z
" id="ArialMT-108"/>
      <path d="M 42.09375 16.703125 
L 51.171875 15.578125 
Q 49.03125 7.625 43.21875 3.21875 
Q 37.40625 -1.171875 28.375 -1.171875 
Q 17 -1.171875 10.328125 5.828125 
Q 3.65625 12.84375 3.65625 25.484375 
Q 3.65625 38.578125 10.390625 45.796875 
Q 17.140625 53.03125 27.875 53.03125 
Q 38.28125 53.03125 44.875 45.953125 
Q 51.46875 38.875 51.46875 26.03125 
Q 51.46875 25.25 51.421875 23.6875 
L 12.75 23.6875 
Q 13.234375 15.140625 17.578125 10.59375 
Q 21.921875 6.0625 28.421875 6.0625 
Q 33.25 6.0625 36.671875 8.59375 
Q 40.09375 11.140625 42.09375 16.703125 
z
M 13.234375 30.90625 
L 42.1875 30.90625 
Q 41.609375 37.453125 38.875 40.71875 
Q 34.671875 45.796875 27.984375 45.796875 
Q 21.921875 45.796875 17.796875 41.75 
Q 13.671875 37.703125 13.234375 30.90625 
z
" id="ArialMT-101"/>
     </defs>
     <g transform="translate(541.254531 305.705)scale(0.26 -0.26)">
      <use xlink:href="#ArialMT-35"/>
      <use x="55.615234" xlink:href="#ArialMT-32"/>
      <use x="83.398438" xlink:href="#ArialMT-115"/>
      <use x="133.398438" xlink:href="#ArialMT-97"/>
      <use x="189.013672" xlink:href="#ArialMT-109"/>
      <use x="272.314453" xlink:href="#ArialMT-112"/>
      <use x="327.929688" xlink:href="#ArialMT-108"/>
      <use x="350.146484" xlink:href="#ArialMT-101"/>
     </g>
    </g>
   </g>
   <g id="matplotlib.axis_2">
    <g id="ytick_1">
     <g id="line2d_7">
      <path clip-path="url(#pf04e6d5ebd)" d="M 180 250.744966 
L 1008 250.744966 
" style="fill:none;stroke:#b0b0b0;stroke-linecap:square;stroke-width:0.8;"/>
     </g>
     <g id="line2d_8">
      <defs>
       <path d="M 0 0 
L -3.5 0 
" id="m12da345461" style="stroke:#000000;stroke-width:0.8;"/>
      </defs>
      <g>
       <use style="stroke:#000000;stroke-width:0.8;" x="180" xlink:href="#m12da345461" y="250.744966"/>
      </g>
     </g>
     <g id="text_5">
      <!-- 0 -->
      <g transform="translate(158.541562 260.050122)scale(0.26 -0.26)">
       <use xlink:href="#ArialMT-48"/>
      </g>
     </g>
    </g>
    <g id="ytick_2">
     <g id="line2d_9">
      <path clip-path="url(#pf04e6d5ebd)" d="M 180 187.378866 
L 1008 187.378866 
" style="fill:none;stroke:#b0b0b0;stroke-linecap:square;stroke-width:0.8;"/>
     </g>
     <g id="line2d_10">
      <g>
       <use style="stroke:#000000;stroke-width:0.8;" x="180" xlink:href="#m12da345461" y="187.378866"/>
      </g>
     </g>
     <g id="text_6">
      <!-- 10 -->
      <defs>
       <path d="M 37.25 0 
L 28.46875 0 
L 28.46875 56 
Q 25.296875 52.984375 20.140625 49.953125 
Q 14.984375 46.921875 10.890625 45.40625 
L 10.890625 53.90625 
Q 18.265625 57.375 23.78125 62.296875 
Q 29.296875 67.234375 31.59375 71.875 
L 37.25 71.875 
z
" id="ArialMT-49"/>
      </defs>
      <g transform="translate(144.083125 196.684022)scale(0.26 -0.26)">
       <use xlink:href="#ArialMT-49"/>
       <use x="55.615234" xlink:href="#ArialMT-48"/>
      </g>
     </g>
    </g>
    <g id="ytick_3">
     <g id="line2d_11">
      <path clip-path="url(#pf04e6d5ebd)" d="M 180 124.012765 
L 1008 124.012765 
" style="fill:none;stroke:#b0b0b0;stroke-linecap:square;stroke-width:0.8;"/>
     </g>
     <g id="line2d_12">
      <g>
       <use style="stroke:#000000;stroke-width:0.8;" x="180" xlink:href="#m12da345461" y="124.012765"/>
      </g>
     </g>
     <g id="text_7">
      <!-- 20 -->
      <g transform="translate(144.083125 133.317922)scale(0.26 -0.26)">
       <use xlink:href="#ArialMT-50"/>
       <use x="55.615234" xlink:href="#ArialMT-48"/>
      </g>
     </g>
    </g>
    <g id="ytick_4">
     <g id="line2d_13">
      <path clip-path="url(#pf04e6d5ebd)" d="M 180 60.646665 
L 1008 60.646665 
" style="fill:none;stroke:#b0b0b0;stroke-linecap:square;stroke-width:0.8;"/>
     </g>
     <g id="line2d_14">
      <g>
       <use style="stroke:#000000;stroke-width:0.8;" x="180" xlink:href="#m12da345461" y="60.646665"/>
      </g>
     </g>
     <g id="text_8">
      <!-- 30 -->
      <defs>
       <path d="M 4.203125 18.890625 
L 12.984375 20.0625 
Q 14.5 12.59375 18.140625 9.296875 
Q 21.78125 6 27 6 
Q 33.203125 6 37.46875 10.296875 
Q 41.75 14.59375 41.75 20.953125 
Q 41.75 27 37.796875 30.921875 
Q 33.84375 34.859375 27.734375 34.859375 
Q 25.25 34.859375 21.53125 33.890625 
L 22.515625 41.609375 
Q 23.390625 41.5 23.921875 41.5 
Q 29.546875 41.5 34.03125 44.421875 
Q 38.53125 47.359375 38.53125 53.46875 
Q 38.53125 58.296875 35.25 61.46875 
Q 31.984375 64.65625 26.8125 64.65625 
Q 21.6875 64.65625 18.265625 61.421875 
Q 14.84375 58.203125 13.875 51.765625 
L 5.078125 53.328125 
Q 6.6875 62.15625 12.390625 67.015625 
Q 18.109375 71.875 26.609375 71.875 
Q 32.46875 71.875 37.390625 69.359375 
Q 42.328125 66.84375 44.9375 62.5 
Q 47.5625 58.15625 47.5625 53.265625 
Q 47.5625 48.640625 45.0625 44.828125 
Q 42.578125 41.015625 37.703125 38.765625 
Q 44.046875 37.3125 47.5625 32.6875 
Q 51.078125 28.078125 51.078125 21.140625 
Q 51.078125 11.765625 44.234375 5.25 
Q 37.40625 -1.265625 26.953125 -1.265625 
Q 17.53125 -1.265625 11.296875 4.34375 
Q 5.078125 9.96875 4.203125 18.890625 
z
" id="ArialMT-51"/>
      </defs>
      <g transform="translate(144.083125 69.951821)scale(0.26 -0.26)">
       <use xlink:href="#ArialMT-51"/>
       <use x="55.615234" xlink:href="#ArialMT-48"/>
      </g>
     </g>
    </g>
    <g id="text_9">
     <!-- natural frequency (a.u.) -->
     <defs>
      <path d="M 6.59375 0 
L 6.59375 51.859375 
L 14.5 51.859375 
L 14.5 44.484375 
Q 20.21875 53.03125 31 53.03125 
Q 35.6875 53.03125 39.625 51.34375 
Q 43.5625 49.65625 45.515625 46.921875 
Q 47.46875 44.1875 48.25 40.4375 
Q 48.734375 37.984375 48.734375 31.890625 
L 48.734375 0 
L 39.9375 0 
L 39.9375 31.546875 
Q 39.9375 36.921875 38.90625 39.578125 
Q 37.890625 42.234375 35.28125 43.8125 
Q 32.671875 45.40625 29.15625 45.40625 
Q 23.53125 45.40625 19.453125 41.84375 
Q 15.375 38.28125 15.375 28.328125 
L 15.375 0 
z
" id="ArialMT-110"/>
      <path d="M 25.78125 7.859375 
L 27.046875 0.09375 
Q 23.34375 -0.6875 20.40625 -0.6875 
Q 15.625 -0.6875 12.984375 0.828125 
Q 10.359375 2.34375 9.28125 4.8125 
Q 8.203125 7.28125 8.203125 15.1875 
L 8.203125 45.015625 
L 1.765625 45.015625 
L 1.765625 51.859375 
L 8.203125 51.859375 
L 8.203125 64.703125 
L 16.9375 69.96875 
L 16.9375 51.859375 
L 25.78125 51.859375 
L 25.78125 45.015625 
L 16.9375 45.015625 
L 16.9375 14.703125 
Q 16.9375 10.9375 17.40625 9.859375 
Q 17.875 8.796875 18.921875 8.15625 
Q 19.96875 7.515625 21.921875 7.515625 
Q 23.390625 7.515625 25.78125 7.859375 
z
" id="ArialMT-116"/>
      <path d="M 40.578125 0 
L 40.578125 7.625 
Q 34.515625 -1.171875 24.125 -1.171875 
Q 19.53125 -1.171875 15.546875 0.578125 
Q 11.578125 2.34375 9.640625 5 
Q 7.71875 7.671875 6.9375 11.53125 
Q 6.390625 14.109375 6.390625 19.734375 
L 6.390625 51.859375 
L 15.1875 51.859375 
L 15.1875 23.09375 
Q 15.1875 16.21875 15.71875 13.8125 
Q 16.546875 10.359375 19.234375 8.375 
Q 21.921875 6.390625 25.875 6.390625 
Q 29.828125 6.390625 33.296875 8.421875 
Q 36.765625 10.453125 38.203125 13.9375 
Q 39.65625 17.4375 39.65625 24.078125 
L 39.65625 51.859375 
L 48.4375 51.859375 
L 48.4375 0 
z
" id="ArialMT-117"/>
      <path d="M 6.5 0 
L 6.5 51.859375 
L 14.40625 51.859375 
L 14.40625 44 
Q 17.4375 49.515625 20 51.265625 
Q 22.5625 53.03125 25.640625 53.03125 
Q 30.078125 53.03125 34.671875 50.203125 
L 31.640625 42.046875 
Q 28.421875 43.953125 25.203125 43.953125 
Q 22.3125 43.953125 20.015625 42.21875 
Q 17.71875 40.484375 16.75 37.40625 
Q 15.28125 32.71875 15.28125 27.15625 
L 15.28125 0 
z
" id="ArialMT-114"/>
      <path d="M 8.6875 0 
L 8.6875 45.015625 
L 0.921875 45.015625 
L 0.921875 51.859375 
L 8.6875 51.859375 
L 8.6875 57.375 
Q 8.6875 62.59375 9.625 65.140625 
Q 10.890625 68.5625 14.078125 70.671875 
Q 17.28125 72.796875 23.046875 72.796875 
Q 26.765625 72.796875 31.25 71.921875 
L 29.9375 64.265625 
Q 27.203125 64.75 24.75 64.75 
Q 20.75 64.75 19.09375 63.03125 
Q 17.4375 61.328125 17.4375 56.640625 
L 17.4375 51.859375 
L 27.546875 51.859375 
L 27.546875 45.015625 
L 17.4375 45.015625 
L 17.4375 0 
z
" id="ArialMT-102"/>
      <path d="M 39.65625 -19.875 
L 39.65625 5.515625 
Q 37.59375 2.640625 33.90625 0.734375 
Q 30.21875 -1.171875 26.078125 -1.171875 
Q 16.84375 -1.171875 10.171875 6.203125 
Q 3.515625 13.578125 3.515625 26.421875 
Q 3.515625 34.234375 6.21875 40.421875 
Q 8.9375 46.625 14.078125 49.828125 
Q 19.234375 53.03125 25.390625 53.03125 
Q 35.015625 53.03125 40.53125 44.921875 
L 40.53125 51.859375 
L 48.4375 51.859375 
L 48.4375 -19.875 
z
M 12.546875 26.078125 
Q 12.546875 16.0625 16.75 11.0625 
Q 20.953125 6.0625 26.8125 6.0625 
Q 32.421875 6.0625 36.46875 10.8125 
Q 40.53125 15.578125 40.53125 25.296875 
Q 40.53125 35.640625 36.25 40.859375 
Q 31.984375 46.09375 26.21875 46.09375 
Q 20.515625 46.09375 16.53125 41.234375 
Q 12.546875 36.375 12.546875 26.078125 
z
" id="ArialMT-113"/>
      <path d="M 40.4375 19 
L 49.078125 17.875 
Q 47.65625 8.9375 41.8125 3.875 
Q 35.984375 -1.171875 27.484375 -1.171875 
Q 16.84375 -1.171875 10.375 5.78125 
Q 3.90625 12.75 3.90625 25.734375 
Q 3.90625 34.125 6.6875 40.421875 
Q 9.46875 46.734375 15.15625 49.875 
Q 20.84375 53.03125 27.546875 53.03125 
Q 35.984375 53.03125 41.359375 48.75 
Q 46.734375 44.484375 48.25 36.625 
L 39.703125 35.296875 
Q 38.484375 40.53125 35.375 43.15625 
Q 32.28125 45.796875 27.875 45.796875 
Q 21.234375 45.796875 17.078125 41.03125 
Q 12.9375 36.28125 12.9375 25.984375 
Q 12.9375 15.53125 16.9375 10.796875 
Q 20.953125 6.0625 27.390625 6.0625 
Q 32.5625 6.0625 36.03125 9.234375 
Q 39.5 12.40625 40.4375 19 
z
" id="ArialMT-99"/>
      <path d="M 6.203125 -19.96875 
L 5.21875 -11.71875 
Q 8.109375 -12.5 10.25 -12.5 
Q 13.1875 -12.5 14.9375 -11.515625 
Q 16.703125 -10.546875 17.828125 -8.796875 
Q 18.65625 -7.46875 20.515625 -2.25 
Q 20.75 -1.515625 21.296875 -0.09375 
L 1.609375 51.859375 
L 11.078125 51.859375 
L 21.875 21.828125 
Q 23.96875 16.109375 25.640625 9.8125 
Q 27.15625 15.875 29.25 21.625 
L 40.328125 51.859375 
L 49.125 51.859375 
L 29.390625 -0.875 
Q 26.21875 -9.421875 24.46875 -12.640625 
Q 22.125 -17 19.09375 -19.015625 
Q 16.0625 -21.046875 11.859375 -21.046875 
Q 9.328125 -21.046875 6.203125 -19.96875 
z
" id="ArialMT-121"/>
      <path d="M 23.390625 -21.046875 
Q 16.109375 -11.859375 11.078125 0.4375 
Q 6.0625 12.75 6.0625 25.921875 
Q 6.0625 37.546875 9.8125 48.1875 
Q 14.203125 60.546875 23.390625 72.796875 
L 29.6875 72.796875 
Q 23.78125 62.640625 21.875 58.296875 
Q 18.890625 51.5625 17.1875 44.234375 
Q 15.09375 35.109375 15.09375 25.875 
Q 15.09375 2.390625 29.6875 -21.046875 
z
" id="ArialMT-40"/>
      <path d="M 9.078125 0 
L 9.078125 10.015625 
L 19.09375 10.015625 
L 19.09375 0 
z
" id="ArialMT-46"/>
      <path d="M 12.359375 -21.046875 
L 6.0625 -21.046875 
Q 20.65625 2.390625 20.65625 25.875 
Q 20.65625 35.0625 18.5625 44.09375 
Q 16.890625 51.421875 13.921875 58.15625 
Q 12.015625 62.546875 6.0625 72.796875 
L 12.359375 72.796875 
Q 21.53125 60.546875 25.921875 48.1875 
Q 29.6875 37.546875 29.6875 25.921875 
Q 29.6875 12.75 24.625 0.4375 
Q 19.578125 -11.859375 12.359375 -21.046875 
z
" id="ArialMT-41"/>
     </defs>
     <g transform="translate(134.610937 277.673594)rotate(-90)scale(0.26 -0.26)">
      <use xlink:href="#ArialMT-110"/>
      <use x="55.615234" xlink:href="#ArialMT-97"/>
      <use x="111.230469" xlink:href="#ArialMT-116"/>
      <use x="139.013672" xlink:href="#ArialMT-117"/>
      <use x="194.628906" xlink:href="#ArialMT-114"/>
      <use x="227.929688" xlink:href="#ArialMT-97"/>
      <use x="283.544922" xlink:href="#ArialMT-108"/>
      <use x="305.761719" xlink:href="#ArialMT-32"/>
      <use x="333.544922" xlink:href="#ArialMT-102"/>
      <use x="361.328125" xlink:href="#ArialMT-114"/>
      <use x="394.628906" xlink:href="#ArialMT-101"/>
      <use x="450.244141" xlink:href="#ArialMT-113"/>
      <use x="505.859375" xlink:href="#ArialMT-117"/>
      <use x="561.474609" xlink:href="#ArialMT-101"/>
      <use x="617.089844" xlink:href="#ArialMT-110"/>
      <use x="672.705078" xlink:href="#ArialMT-99"/>
      <use x="722.705078" xlink:href="#ArialMT-121"/>
      <use x="772.705078" xlink:href="#ArialMT-32"/>
      <use x="800.488281" xlink:href="#ArialMT-40"/>
      <use x="833.789062" xlink:href="#ArialMT-97"/>
      <use x="889.404297" xlink:href="#ArialMT-46"/>
      <use x="917.1875" xlink:href="#ArialMT-117"/>
      <use x="972.802734" xlink:href="#ArialMT-46"/>
      <use x="1000.585938" xlink:href="#ArialMT-41"/>
     </g>
    </g>
   </g>
   <g id="line2d_15">
    <path clip-path="url(#pf04e6d5ebd)" d="M 217.636364 240.660462 
L 218.012916 233.083408 
L 218.389467 231.176406 
L 218.766019 230.671013 
L 219.895675 230.036276 
L 220.272227 229.388679 
L 220.648779 228.055121 
L 221.213607 224.379296 
L 222.154987 217.382237 
L 222.90809 214.257764 
L 223.284642 213.240654 
L 223.661194 212.532167 
L 224.037746 211.955575 
L 224.602574 211.266318 
L 225.355678 210.672486 
L 226.861885 209.748538 
L 227.238437 208.913546 
L 227.803265 206.456036 
L 228.368093 201.610592 
L 229.686025 188.914632 
L 230.250853 186.058195 
L 230.815681 184.571511 
L 231.75706 183.340876 
L 232.133612 183.110198 
L 232.510164 182.721035 
L 232.69844 182.743806 
L 235.146028 180.577904 
L 237.217063 179.606245 
L 237.593615 179.464334 
L 238.723271 178.646146 
L 239.664651 177.359796 
L 240.041202 176.526039 
L 241.54741 171.974903 
L 242.112238 169.329712 
L 243.053618 164.714976 
L 243.618446 161.539557 
L 244.748101 157.007723 
L 245.877757 153.631628 
L 246.254309 152.834193 
L 247.572241 151.340118 
L 247.948793 151.074479 
L 248.137069 151.084417 
L 248.890172 150.76724 
L 249.831552 150.533485 
L 252.27914 149.785434 
L 252.467416 149.784357 
L 253.032243 149.434355 
L 253.408795 149.436831 
L 254.161899 149.138843 
L 255.856383 147.994512 
L 256.232935 147.706431 
L 256.797763 147.392107 
L 257.739142 146.765262 
L 259.057074 146.311997 
L 259.810178 146.303473 
L 260.18673 146.23172 
L 261.12811 146.187452 
L 261.692937 146.060519 
L 262.822593 145.30136 
L 263.199145 145.054437 
L 264.328801 143.994323 
L 266.21156 142.433826 
L 266.588112 142.037926 
L 266.776388 142.042417 
L 266.964664 141.773876 
L 267.341216 141.575577 
L 268.09432 141.125769 
L 269.223976 141.029754 
L 273.177771 140.950356 
L 274.307426 140.813031 
L 274.495702 140.829703 
L 275.06053 140.641562 
L 275.625358 140.431738 
L 276.378462 140.236202 
L 276.94329 140.144867 
L 277.319842 139.96133 
L 277.696394 140.017926 
L 278.072946 139.878551 
L 279.767429 139.590161 
L 280.332257 139.178963 
L 281.273637 137.655489 
L 281.650189 137.454951 
L 283.156396 134.890133 
L 283.532948 133.779442 
L 284.474328 131.155247 
L 285.227432 128.835155 
L 285.415708 128.096083 
L 285.603984 127.841999 
L 286.921916 123.562545 
L 287.110191 123.253561 
L 288.051571 120.263087 
L 288.239847 120.191268 
L 288.804675 119.621666 
L 289.181227 119.616123 
L 289.369503 119.417715 
L 289.746055 119.359512 
L 290.122607 119.137845 
L 290.499159 119.175753 
L 290.875711 119.065686 
L 293.135022 118.596546 
L 293.323298 118.490826 
L 293.511574 118.547782 
L 293.888126 118.523569 
L 294.829506 118.336977 
L 295.206058 118.101835 
L 295.959161 117.120942 
L 296.147437 117.028695 
L 296.712265 115.802712 
L 297.088817 115.406004 
L 298.406749 111.935699 
L 298.595025 111.642271 
L 299.159853 109.059322 
L 299.348129 108.598581 
L 300.289508 105.16187 
L 300.854336 103.058412 
L 301.230888 101.538232 
L 302.360544 98.361782 
L 302.54882 98.060451 
L 302.737096 97.540682 
L 302.925372 97.427607 
L 303.4902 96.385349 
L 304.431579 95.3308 
L 304.808131 94.955339 
L 304.996407 94.782825 
L 305.372959 94.669508 
L 305.561235 94.496615 
L 306.314339 94.540994 
L 308.57365 94.455442 
L 310.079858 94.425766 
L 312.527446 93.728028 
L 312.903997 93.509754 
L 313.092273 93.54882 
L 313.468825 93.391947 
L 314.410205 92.953859 
L 315.539861 91.924071 
L 317.234344 91.103073 
L 317.610896 91.071467 
L 318.175724 90.991304 
L 318.740552 90.747652 
L 320.24676 90.255368 
L 321.376415 90.105185 
L 321.941243 90.142638 
L 322.506071 90.057354 
L 322.882623 90.049632 
L 323.635727 89.996699 
L 327.589522 89.754768 
L 328.530902 89.775151 
L 331.166765 89.697765 
L 333.802629 89.696776 
L 337.756424 89.690411 
L 367.127473 89.680312 
L 395.745418 89.678583 
L 505.886853 89.678634 
L 816.54218 89.679859 
L 970.363636 89.681018 
L 970.363636 89.681018 
" style="fill:none;stroke:#1f77b4;stroke-linecap:square;stroke-width:1.5;"/>
   </g>
   <g id="line2d_16">
    <path clip-path="url(#pf04e6d5ebd)" d="M 217.636364 242.116364 
L 218.012916 235.652228 
L 218.389467 234.032801 
L 218.766019 233.579462 
L 219.330847 233.157718 
L 219.707399 232.550639 
L 220.083951 231.310537 
L 220.648779 228.076128 
L 221.401883 224.002554 
L 221.778435 222.783766 
L 222.343263 221.762459 
L 223.284642 220.877863 
L 223.84947 220.414213 
L 224.602574 219.497142 
L 224.979126 218.798464 
L 225.73223 216.413301 
L 227.238437 210.908033 
L 227.803265 210.061369 
L 228.179817 209.733904 
L 229.121197 209.495842 
L 229.874301 209.297056 
L 230.815681 208.724162 
L 231.192232 208.081186 
L 232.321888 205.577201 
L 232.69844 204.574357 
L 233.63982 202.673571 
L 234.016372 202.162563 
L 234.769476 201.322161 
L 235.146028 201.154818 
L 236.463959 200.510521 
L 237.028787 200.38853 
L 237.405339 200.248268 
L 238.158443 200.077635 
L 239.476375 199.583544 
L 240.417754 198.658775 
L 241.359134 197.220696 
L 242.112238 196.011707 
L 243.806722 193.171728 
L 244.371549 192.777133 
L 245.501205 192.151899 
L 247.195689 191.448095 
L 247.760517 190.873399 
L 248.137069 190.636559 
L 248.51362 190.432744 
L 249.078448 189.745315 
L 250.019828 188.040404 
L 251.33776 183.651746 
L 255.479831 163.13913 
L 256.421211 159.615778 
L 256.986038 157.972407 
L 257.739142 155.883995 
L 258.30397 155.014566 
L 258.492246 154.770764 
L 259.057074 153.559616 
L 259.24535 153.542967 
L 259.621902 153.096785 
L 259.810178 153.034239 
L 259.998454 152.833084 
L 260.18673 152.833542 
L 260.939834 152.294078 
L 261.504661 152.27606 
L 262.069489 152.149402 
L 262.822593 152.085247 
L 263.763973 151.990356 
L 266.023284 151.634065 
L 266.399836 151.545336 
L 266.588112 151.537299 
L 266.964664 151.301527 
L 267.341216 151.182368 
L 267.717768 150.791236 
L 270.165355 148.39006 
L 270.541907 148.260816 
L 271.106735 147.830108 
L 271.671563 147.441114 
L 273.366047 145.583549 
L 273.742599 145.054574 
L 273.930875 145.03916 
L 274.11915 144.845898 
L 274.495702 144.874783 
L 274.683978 144.690234 
L 275.437082 144.483034 
L 275.813634 144.396487 
L 276.755014 144.105682 
L 278.826049 144.152879 
L 281.273637 143.930039 
L 281.650189 143.95046 
L 281.838465 143.706208 
L 282.591569 143.650813 
L 283.344672 143.240721 
L 283.532948 143.347946 
L 283.721224 143.267769 
L 284.286052 142.425533 
L 284.85088 142.030721 
L 285.227432 141.665169 
L 285.603984 141.048686 
L 285.79226 140.769157 
L 285.980536 140.77174 
L 287.298467 138.566837 
L 287.675019 137.927158 
L 288.051571 137.165689 
L 288.616399 135.642601 
L 288.804675 135.391953 
L 289.369503 133.779019 
L 289.557779 133.583486 
L 289.746055 133.583174 
L 290.499159 131.67539 
L 291.628814 128.212432 
L 292.75847 124.692003 
L 293.511574 122.549182 
L 294.076402 120.230648 
L 295.017782 117.968051 
L 295.582609 116.868394 
L 295.959161 115.82424 
L 296.335713 115.364893 
L 296.712265 114.650038 
L 296.900541 114.639552 
L 297.465369 114.000747 
L 297.653645 113.788349 
L 297.841921 113.950331 
L 298.406749 113.358029 
L 299.159853 113.145921 
L 299.724681 112.892825 
L 301.795716 112.342775 
L 302.54882 112.288476 
L 302.925372 112.207496 
L 304.808131 112.023422 
L 314.598481 111.861226 
L 326.459866 111.87383 
L 345.85229 111.871362 
L 487.059257 111.869184 
L 970.363636 111.870003 
L 970.363636 111.870003 
" style="fill:none;stroke:#ff7f0e;stroke-linecap:square;stroke-width:1.5;"/>
   </g>
   <g id="line2d_17">
    <path clip-path="url(#pf04e6d5ebd)" d="M 217.636364 240.812192 
L 218.012916 233.364583 
L 218.389467 231.505133 
L 218.766019 231.032915 
L 219.895675 230.440985 
L 220.272227 229.76684 
L 220.648779 228.475927 
L 221.213607 225.38965 
L 221.778435 222.271104 
L 222.343263 220.361284 
L 222.90809 219.223871 
L 223.284642 218.832902 
L 224.037746 218.454377 
L 224.602574 218.312449 
L 225.920506 217.589582 
L 226.485334 216.708655 
L 226.861885 215.615965 
L 227.238437 213.876061 
L 227.803265 209.660779 
L 228.744645 202.54057 
L 229.309473 200.091462 
L 229.686025 199.072328 
L 230.062577 198.66347 
L 230.439129 198.458331 
L 231.003957 198.286343 
L 231.568784 198.137841 
L 232.133612 197.987872 
L 233.263268 197.065074 
L 234.957752 193.473941 
L 237.781891 185.239563 
L 238.534995 182.54042 
L 238.723271 182.21668 
L 239.664651 179.485902 
L 241.54741 176.171491 
L 242.112238 175.817578 
L 243.241894 175.53654 
L 246.066033 174.744537 
L 246.630861 174.332427 
L 247.007413 173.863291 
L 247.383965 173.290672 
L 248.51362 171.460947 
L 248.890172 170.466735 
L 249.643276 167.937959 
L 250.39638 166.024769 
L 251.149484 163.842346 
L 253.597071 158.578453 
L 253.973623 158.149203 
L 254.538451 157.093418 
L 255.291555 155.703062 
L 256.232935 153.598309 
L 256.609487 153.373006 
L 256.986038 152.777028 
L 257.927418 150.939413 
L 258.30397 150.170957 
L 258.680522 149.725189 
L 259.24535 148.811159 
L 259.621902 148.177083 
L 260.375006 147.158894 
L 261.316385 146.623578 
L 261.692937 146.553564 
L 263.952249 146.02324 
L 266.964664 145.750154 
L 267.341216 145.624439 
L 267.529492 145.686011 
L 268.09432 144.935492 
L 268.470872 144.475471 
L 269.0357 143.449557 
L 269.412252 142.779627 
L 269.600528 142.400454 
L 270.730183 138.507785 
L 271.859839 132.190891 
L 272.424667 130.0949 
L 273.177771 126.147062 
L 274.683978 122.158444 
L 275.06053 121.618746 
L 275.248806 121.582363 
L 275.437082 121.34684 
L 275.813634 121.214856 
L 276.378462 121.02842 
L 276.755014 120.96413 
L 279.202601 120.688339 
L 279.579153 120.548484 
L 280.143981 120.594939 
L 280.332257 120.522601 
L 280.520533 120.600669 
L 282.026741 119.386796 
L 282.591569 119.228273 
L 283.156396 119.084654 
L 283.532948 118.714571 
L 284.097776 118.613515 
L 284.474328 118.554858 
L 284.85088 118.437289 
L 286.168812 118.264874 
L 287.298467 117.611901 
L 287.486743 117.544218 
L 287.675019 117.164616 
L 287.863295 117.159711 
L 288.616399 115.206485 
L 290.499159 109.552242 
L 291.063987 107.700926 
L 291.81709 105.721399 
L 292.193642 105.141588 
L 292.381918 104.90141 
L 292.75847 104.149731 
L 293.69985 103.236639 
L 294.452954 102.837145 
L 295.017782 102.828413 
L 295.770885 102.575101 
L 298.030197 102.410638 
L 298.595025 102.403689 
L 299.159853 102.361468 
L 303.4902 102.084304 
L 303.678476 101.979449 
L 304.055028 102.03337 
L 304.619855 101.806884 
L 305.937787 100.975558 
L 306.879167 100.13879 
L 307.067443 99.656669 
L 307.255719 99.487376 
L 307.820547 98.493617 
L 308.008823 98.331956 
L 308.197099 97.940854 
L 308.57365 97.580393 
L 308.950202 96.651284 
L 309.703306 95.814042 
L 309.891582 95.830749 
L 310.268134 95.449494 
L 310.644686 95.006213 
L 310.832962 94.638717 
L 311.209514 94.582756 
L 311.586066 94.294207 
L 311.774342 94.087367 
L 311.962618 94.112998 
L 312.33917 93.984968 
L 312.527446 93.980482 
L 313.092273 93.576067 
L 313.845377 93.466365 
L 314.410205 93.241895 
L 315.163309 93.199921 
L 315.728137 93.018236 
L 317.234344 92.853853 
L 318.740552 92.907012 
L 321.564691 92.824423 
L 324.012279 92.718644 
L 325.706762 92.399346 
L 326.27159 92.421836 
L 327.401246 92.457041 
L 328.342626 92.433832 
L 328.907454 92.428482 
L 331.355041 92.412378 
L 365.621265 92.349923 
L 369.57506 92.336652 
L 388.402656 92.330017 
L 424.175088 92.332468 
L 970.363636 92.328592 
L 970.363636 92.328592 
" style="fill:none;stroke:#2ca02c;stroke-linecap:square;stroke-width:1.5;"/>
   </g>
   <g id="line2d_18">
    <path clip-path="url(#pf04e6d5ebd)" d="M 217.636364 238.985664 
L 218.012916 230.168223 
L 218.389467 227.957346 
L 218.766019 227.346887 
L 219.519123 226.570959 
L 219.895675 225.541667 
L 220.272227 223.250369 
L 220.648779 218.878532 
L 221.778435 201.838544 
L 222.154987 198.820124 
L 222.719814 196.345696 
L 223.284642 195.049025 
L 224.037746 193.916448 
L 224.79085 192.19225 
L 225.167402 190.580103 
L 225.73223 186.935801 
L 226.297058 181.700955 
L 228.368093 157.134919 
L 228.932921 153.656277 
L 229.686025 151.040575 
L 230.062577 150.22471 
L 232.133612 147.797271 
L 232.510164 146.668882 
L 233.074992 144.418059 
L 233.63982 140.783232 
L 234.016372 137.580951 
L 234.5812 132.802955 
L 236.087407 115.782553 
L 237.593615 103.631168 
L 238.346719 100.002651 
L 239.664651 95.15752 
L 240.229478 93.52884 
L 240.60603 92.884567 
L 241.359134 91.012922 
L 241.54741 90.688327 
L 241.923962 89.799022 
L 242.865342 88.153738 
L 243.43017 86.852888 
L 243.806722 85.863582 
L 244.559825 83.855344 
L 244.936377 82.843632 
L 245.877757 80.268186 
L 246.254309 79.475228 
L 246.819137 78.119396 
L 247.007413 77.866819 
L 247.383965 77.013913 
L 249.831552 72.939055 
L 251.902588 70.782971 
L 252.090864 70.446287 
L 252.467416 70.193938 
L 252.655691 69.915053 
L 252.843967 69.843004 
L 253.220519 69.408235 
L 253.597071 68.934844 
L 254.350175 67.900661 
L 255.479831 66.67003 
L 256.421211 66.090055 
L 256.609487 66.061572 
L 257.174314 65.668467 
L 257.550866 65.493953 
L 257.739142 65.429865 
L 258.115694 65.141725 
L 260.939834 64.148971 
L 261.316385 64.05759 
L 261.881213 63.961319 
L 263.010869 63.477031 
L 263.387421 63.251081 
L 263.763973 63.094501 
L 264.328801 62.774352 
L 264.705353 62.660511 
L 265.270181 62.365233 
L 265.646732 62.217844 
L 266.399836 61.866268 
L 266.776388 61.798971 
L 267.341216 61.676799 
L 268.847424 61.572327 
L 270.918459 61.544795 
L 276.755014 61.475089 
L 278.261222 61.457406 
L 449.592342 61.454004 
L 970.363636 61.453018 
L 970.363636 61.453018 
" style="fill:none;stroke:#d62728;stroke-linecap:square;stroke-width:1.5;"/>
   </g>
   <g id="line2d_19">
    <path clip-path="url(#pf04e6d5ebd)" d="M 217.636364 241.702893 
L 218.012916 234.921529 
L 218.389467 233.227571 
L 218.766019 232.777364 
L 219.519123 232.291756 
L 219.895675 231.693899 
L 220.272227 230.535849 
L 221.025331 226.68915 
L 221.590159 224.390442 
L 221.966711 223.461603 
L 222.531538 222.634779 
L 223.284642 222.03144 
L 224.79085 221.138732 
L 225.543954 220.312944 
L 226.297058 218.370141 
L 227.614989 214.584715 
L 228.179817 213.883531 
L 229.121197 213.428832 
L 231.192232 212.916806 
L 232.69844 211.308472 
L 233.63982 209.534941 
L 233.828096 209.366834 
L 234.392924 208.333293 
L 234.769476 207.824601 
L 235.146028 207.405227 
L 235.522579 207.026478 
L 236.652235 206.584003 
L 237.217063 206.332509 
L 237.970167 206.170474 
L 239.852926 205.84015 
L 241.170858 205.359269 
L 241.735686 204.740478 
L 242.112238 204.340905 
L 242.48879 203.835083 
L 242.865342 203.493682 
L 243.241894 202.748034 
L 243.618446 202.127696 
L 243.806722 201.617754 
L 244.183273 201.298501 
L 245.312929 199.295578 
L 245.501205 198.792283 
L 246.630861 197.841515 
L 248.137069 196.724812 
L 248.51362 196.690452 
L 248.890172 196.563542 
L 249.266724 196.44822 
L 250.019828 196.071084 
L 250.39638 195.738081 
L 250.584656 195.719392 
L 252.655691 193.818591 
L 253.597071 192.551254 
L 254.161899 191.430832 
L 255.856383 187.563965 
L 256.044659 187.396145 
L 258.492246 181.714065 
L 258.868798 180.620664 
L 259.24535 179.757752 
L 260.563282 175.065125 
L 261.692937 170.783107 
L 262.257765 168.973068 
L 263.763973 163.696021 
L 264.140525 163.007887 
L 264.517077 161.904723 
L 264.705353 161.656761 
L 265.270181 160.141947 
L 265.646732 159.663324 
L 266.023284 158.956075 
L 266.399836 158.485779 
L 266.964664 157.421657 
L 267.341216 156.771278 
L 267.717768 156.234698 
L 267.906044 155.821148 
L 269.223976 155.034295 
L 270.353631 154.835797 
L 271.483287 154.818895 
L 272.424667 154.646179 
L 272.612943 154.691671 
L 272.989495 154.415794 
L 273.366047 154.202181 
L 273.554323 154.127666 
L 273.930875 153.747268 
L 274.307426 153.281623 
L 274.872254 152.041893 
L 276.566738 143.226419 
L 277.508118 137.669755 
L 277.88467 135.342767 
L 278.449497 132.482875 
L 278.826049 131.29466 
L 279.202601 129.867554 
L 279.390877 129.69582 
L 280.520533 126.930881 
L 281.650189 125.06807 
L 281.838465 124.972686 
L 282.215017 124.414954 
L 282.403293 124.254189 
L 282.591569 124.240269 
L 285.039156 120.705285 
L 285.415708 119.834722 
L 285.603984 119.620913 
L 285.79226 119.182448 
L 285.980536 119.10174 
L 286.545364 118.260947 
L 286.921916 117.360861 
L 287.298467 116.539121 
L 287.863295 115.644464 
L 288.428123 114.433505 
L 288.616399 114.169891 
L 289.181227 112.802134 
L 291.628814 108.001717 
L 292.005366 107.565149 
L 292.946746 106.625889 
L 293.135022 106.542362 
L 293.323298 106.30218 
L 294.264678 106.181553 
L 295.206058 105.926391 
L 295.582609 105.894731 
L 295.770885 105.816213 
L 295.959161 105.918921 
L 296.523989 105.806835 
L 298.595025 105.623705 
L 300.477784 105.57451 
L 301.230888 105.558354 
L 302.925372 105.552728 
L 307.067443 105.503347 
L 311.021238 105.445896 
L 311.962618 105.37084 
L 313.280549 105.407823 
L 315.539861 105.406511 
L 319.870208 105.381317 
L 324.200555 105.367654 
L 345.664014 105.377807 
L 970.363636 105.373931 
L 970.363636 105.373931 
" style="fill:none;stroke:#9467bd;stroke-linecap:square;stroke-width:1.5;"/>
   </g>
   <g id="line2d_20">
    <path clip-path="url(#pf04e6d5ebd)" d="M 217.636364 241.421829 
L 218.012916 234.435277 
L 218.389467 232.699068 
L 218.766019 232.249188 
L 219.707399 231.657825 
L 220.083951 230.996422 
L 220.460503 229.74789 
L 221.778435 224.075293 
L 222.343263 222.980182 
L 222.90809 222.407447 
L 224.037746 221.792434 
L 224.414298 221.684239 
L 225.543954 220.882779 
L 226.108782 219.918229 
L 226.67361 218.26576 
L 227.803265 215.054424 
L 228.556369 213.935741 
L 229.121197 213.499456 
L 231.192232 213.159463 
L 231.75706 212.846088 
L 232.133612 212.425069 
L 232.510164 211.878549 
L 232.886716 211.509177 
L 233.263268 210.764261 
L 234.016372 209.07378 
L 234.392924 208.512193 
L 236.087407 205.74873 
L 236.652235 205.284337 
L 236.840511 205.254496 
L 237.217063 204.994016 
L 237.593615 204.896519 
L 238.911547 204.472994 
L 239.852926 204.34363 
L 240.60603 204.171887 
L 241.170858 203.885413 
L 241.923962 203.167242 
L 242.300514 202.78554 
L 242.48879 202.730481 
L 242.865342 202.077747 
L 243.053618 201.870122 
L 243.43017 201.061546 
L 244.748101 196.344838 
L 245.877757 191.375255 
L 246.442585 189.599593 
L 246.819137 188.260769 
L 247.572241 186.374515 
L 248.890172 185.059941 
L 249.266724 184.521535 
L 250.772932 182.542557 
L 253.973623 178.163254 
L 254.538451 177.219762 
L 255.103279 176.077076 
L 256.609487 174.004038 
L 257.36259 173.626348 
L 258.115694 173.204929 
L 258.680522 172.973524 
L 259.433626 172.879698 
L 259.810178 172.703741 
L 259.998454 172.718262 
L 260.751558 171.859594 
L 261.12811 171.373769 
L 261.692937 170.103744 
L 262.069489 169.014222 
L 263.575697 161.017507 
L 264.140525 155.556322 
L 265.081905 146.690447 
L 265.646732 140.181101 
L 266.399836 133.460535 
L 266.964664 129.563813 
L 267.341216 127.790614 
L 267.529492 127.535523 
L 267.717768 127.08181 
L 267.906044 127.029316 
L 268.09432 126.660754 
L 269.600528 126.231695 
L 270.165355 126.072896 
L 271.483287 125.148348 
L 271.671563 125.128171 
L 271.859839 124.79031 
L 272.801219 124.392836 
L 273.177771 124.20923 
L 275.06053 124.054944 
L 275.437082 123.929805 
L 275.625358 124.005433 
L 276.00191 123.790319 
L 276.378462 123.388974 
L 276.755014 123.008047 
L 276.94329 122.935289 
L 277.131566 123.15574 
L 277.696394 122.622739 
L 277.88467 122.503773 
L 278.261222 121.986475 
L 279.014325 121.138165 
L 279.390877 121.012069 
L 279.767429 120.589703 
L 279.955705 120.522172 
L 280.332257 120.106691 
L 280.708809 120.005224 
L 280.897085 119.998676 
L 281.273637 119.580903 
L 283.532948 118.859962 
L 285.227432 118.416956 
L 285.603984 118.286129 
L 288.051571 118.01922 
L 289.181227 117.603349 
L 289.369503 117.61356 
L 289.746055 117.038421 
L 290.122607 116.406621 
L 290.499159 115.677525 
L 290.687435 115.46557 
L 291.063987 114.471274 
L 292.193642 112.07672 
L 292.946746 109.474289 
L 293.69985 108.025039 
L 294.829506 104.891687 
L 295.394334 104.018018 
L 295.582609 103.475351 
L 295.770885 103.563264 
L 295.959161 103.28654 
L 296.147437 102.808582 
L 296.712265 102.429652 
L 297.277093 101.759181 
L 297.465369 101.685203 
L 297.653645 101.44785 
L 298.030197 101.26521 
L 298.783301 100.923269 
L 300.289508 100.655698 
L 301.042612 100.660009 
L 301.60744 100.608187 
L 304.055028 100.621288 
L 323.635727 100.587143 
L 333.990905 100.578411 
L 337.9447 100.589185 
L 346.040566 100.589405 
L 427.564055 100.575621 
L 970.363636 100.573629 
L 970.363636 100.573629 
" style="fill:none;stroke:#8c564b;stroke-linecap:square;stroke-width:1.5;"/>
   </g>
   <g id="line2d_21">
    <path clip-path="url(#pf04e6d5ebd)" d="M 217.636364 237.81345 
L 218.012916 228.129874 
L 218.389467 225.690125 
L 218.954295 224.59165 
L 219.330847 223.637631 
L 219.707399 221.462315 
L 220.083951 216.800468 
L 220.648779 204.304928 
L 221.213607 191.631992 
L 221.778435 184.296416 
L 222.154987 181.726932 
L 222.719814 179.594629 
L 223.661194 177.074724 
L 224.037746 175.586681 
L 224.602574 172.030211 
L 225.167402 166.194055 
L 227.050161 142.851413 
L 227.614989 139.072471 
L 228.368093 135.454229 
L 230.250853 128.65723 
L 230.815681 126.107381 
L 232.133612 117.629476 
L 232.886716 111.983925 
L 233.263268 109.453099 
L 233.828096 105.99605 
L 235.146028 99.054388 
L 236.463959 93.526271 
L 239.099823 82.114929 
L 239.664651 79.427943 
L 242.300514 69.910493 
L 243.43017 66.70566 
L 247.948793 57.475629 
L 248.325344 57.045598 
L 248.51362 56.969201 
L 248.890172 56.51625 
L 249.266724 56.189151 
L 250.772932 55.400053 
L 251.526036 54.648803 
L 252.090864 53.843887 
L 252.655691 52.797133 
L 253.220519 51.616926 
L 254.161899 49.622891 
L 255.103279 47.897644 
L 255.668107 47.141259 
L 256.232935 46.448978 
L 258.492246 45.393463 
L 259.057074 45.317738 
L 260.563282 45.050686 
L 261.692937 44.805329 
L 262.634317 44.685889 
L 263.387421 44.625408 
L 264.517077 44.519071 
L 266.588112 44.490393 
L 272.612943 44.463225 
L 298.971577 44.449972 
L 346.040566 44.451259 
L 784.158716 44.453354 
L 970.363636 44.453239 
L 970.363636 44.453239 
" style="fill:none;stroke:#e377c2;stroke-linecap:square;stroke-width:1.5;"/>
   </g>
   <g id="line2d_22">
    <path clip-path="url(#pf04e6d5ebd)" d="M 217.636364 239.766004 
L 218.012916 231.514175 
L 218.389467 229.429176 
L 218.766019 228.87031 
L 219.707399 228.249799 
L 220.083951 227.565678 
L 220.460503 226.021913 
L 220.837055 222.807306 
L 221.401883 214.583209 
L 222.154987 203.878996 
L 222.531538 200.391122 
L 222.90809 198.31976 
L 223.472918 196.562707 
L 224.037746 195.298893 
L 225.355678 192.833 
L 227.426713 186.067841 
L 227.991541 184.747519 
L 228.744645 183.648282 
L 229.121197 183.186669 
L 229.497749 182.885106 
L 230.062577 182.134698 
L 231.003957 179.693061 
L 231.568784 176.887918 
L 232.133612 173.458539 
L 233.63982 160.007862 
L 234.392924 153.683777 
L 236.275683 141.381615 
L 237.217063 136.241509 
L 237.970167 132.788543 
L 238.723271 128.218823 
L 239.099823 126.380662 
L 239.476375 124.749231 
L 240.229478 121.371922 
L 240.60603 120.184395 
L 240.794306 120.001604 
L 241.54741 118.06838 
L 241.923962 117.563829 
L 243.053618 115.710492 
L 244.748101 113.994416 
L 245.877757 111.716745 
L 246.442585 110.512898 
L 248.325344 105.320124 
L 248.890172 103.583408 
L 249.455 102.404162 
L 250.961208 99.752479 
L 251.149484 99.689179 
L 251.526036 99.324433 
L 251.902588 99.206572 
L 252.090864 98.911176 
L 252.467416 98.828486 
L 252.655691 98.532765 
L 252.843967 98.550668 
L 253.220519 98.149793 
L 253.785347 97.411563 
L 254.726727 95.531338 
L 255.668107 92.755865 
L 256.609487 90.801146 
L 257.174314 89.909731 
L 257.550866 89.555968 
L 258.492246 88.981231 
L 260.375006 87.727091 
L 260.939834 86.987613 
L 262.069489 85.901503 
L 263.387421 83.117461 
L 263.952249 81.662477 
L 264.893629 79.50524 
L 265.270181 79.102673 
L 265.835008 78.468791 
L 266.023284 78.375934 
L 266.399836 78.033781 
L 266.776388 77.988035 
L 267.15294 77.828223 
L 271.295011 77.502882 
L 271.671563 77.528891 
L 272.989495 77.033469 
L 273.554323 76.754508 
L 274.11915 76.617971 
L 278.072946 76.483345 
L 278.637773 76.399637 
L 279.014325 76.32443 
L 279.390877 76.336243 
L 280.143981 76.216937 
L 280.897085 76.079304 
L 283.9095 75.701788 
L 284.662604 75.692106 
L 286.168812 75.605375 
L 291.063987 75.608164 
L 369.198508 75.545187 
L 970.363636 75.543226 
L 970.363636 75.543226 
" style="fill:none;stroke:#7f7f7f;stroke-linecap:square;stroke-width:1.5;"/>
   </g>
   <g id="patch_3">
    <path d="M 180 252 
L 180 34.56 
" style="fill:none;stroke:#000000;stroke-linecap:square;stroke-linejoin:miter;stroke-width:0.8;"/>
   </g>
   <g id="patch_4">
    <path d="M 1008 252 
L 1008 34.56 
" style="fill:none;stroke:#000000;stroke-linecap:square;stroke-linejoin:miter;stroke-width:0.8;"/>
   </g>
   <g id="patch_5">
    <path d="M 180 252 
L 1008 252 
" style="fill:none;stroke:#000000;stroke-linecap:square;stroke-linejoin:miter;stroke-width:0.8;"/>
   </g>
   <g id="patch_6">
    <path d="M 180 34.56 
L 1008 34.56 
" style="fill:none;stroke:#000000;stroke-linecap:square;stroke-linejoin:miter;stroke-width:0.8;"/>
   </g>
   <g id="legend_1">
    <g id="patch_7">
     <path d="M 1054.6 152.693437 
L 1262.067812 152.693437 
Q 1267.267812 152.693437 1267.267812 147.493437 
L 1267.267812 39.76 
Q 1267.267812 34.56 1262.067812 34.56 
L 1054.6 34.56 
Q 1049.4 34.56 1049.4 39.76 
L 1049.4 147.493437 
Q 1049.4 152.693437 1054.6 152.693437 
z
" style="fill:#ffffff;opacity:0.8;stroke:#cccccc;stroke-linejoin:miter;"/>
    </g>
    <g id="line2d_23">
     <path d="M 1059.8 54.470312 
L 1111.8 54.470312 
" style="fill:none;stroke:#1f77b4;stroke-linecap:square;stroke-width:1.5;"/>
    </g>
    <g id="line2d_24"/>
    <g id="text_10">
     <!-- oscillator 1 -->
     <defs>
      <path d="M 3.328125 25.921875 
Q 3.328125 40.328125 11.328125 47.265625 
Q 18.015625 53.03125 27.640625 53.03125 
Q 38.328125 53.03125 45.109375 46.015625 
Q 51.90625 39.015625 51.90625 26.65625 
Q 51.90625 16.65625 48.90625 10.90625 
Q 45.90625 5.171875 40.15625 2 
Q 34.421875 -1.171875 27.640625 -1.171875 
Q 16.75 -1.171875 10.03125 5.8125 
Q 3.328125 12.796875 3.328125 25.921875 
z
M 12.359375 25.921875 
Q 12.359375 15.96875 16.703125 11.015625 
Q 21.046875 6.0625 27.640625 6.0625 
Q 34.1875 6.0625 38.53125 11.03125 
Q 42.875 16.015625 42.875 26.21875 
Q 42.875 35.84375 38.5 40.796875 
Q 34.125 45.75 27.640625 45.75 
Q 21.046875 45.75 16.703125 40.8125 
Q 12.359375 35.890625 12.359375 25.921875 
z
" id="ArialMT-111"/>
      <path d="M 6.640625 61.46875 
L 6.640625 71.578125 
L 15.4375 71.578125 
L 15.4375 61.46875 
z
M 6.640625 0 
L 6.640625 51.859375 
L 15.4375 51.859375 
L 15.4375 0 
z
" id="ArialMT-105"/>
     </defs>
     <g transform="translate(1132.6 63.570312)scale(0.26 -0.26)">
      <use xlink:href="#ArialMT-111"/>
      <use x="55.615234" xlink:href="#ArialMT-115"/>
      <use x="105.615234" xlink:href="#ArialMT-99"/>
      <use x="155.615234" xlink:href="#ArialMT-105"/>
      <use x="177.832031" xlink:href="#ArialMT-108"/>
      <use x="200.048828" xlink:href="#ArialMT-108"/>
      <use x="222.265625" xlink:href="#ArialMT-97"/>
      <use x="277.880859" xlink:href="#ArialMT-116"/>
      <use x="305.664062" xlink:href="#ArialMT-111"/>
      <use x="361.279297" xlink:href="#ArialMT-114"/>
      <use x="394.580078" xlink:href="#ArialMT-32"/>
      <use x="422.363281" xlink:href="#ArialMT-49"/>
     </g>
    </g>
    <g id="line2d_25">
     <path d="M 1059.8 91.248125 
L 1111.8 91.248125 
" style="fill:none;stroke:#ff7f0e;stroke-linecap:square;stroke-width:1.5;"/>
    </g>
    <g id="line2d_26"/>
    <g id="text_11">
     <!-- oscillator 2 -->
     <g transform="translate(1132.6 100.348125)scale(0.26 -0.26)">
      <use xlink:href="#ArialMT-111"/>
      <use x="55.615234" xlink:href="#ArialMT-115"/>
      <use x="105.615234" xlink:href="#ArialMT-99"/>
      <use x="155.615234" xlink:href="#ArialMT-105"/>
      <use x="177.832031" xlink:href="#ArialMT-108"/>
      <use x="200.048828" xlink:href="#ArialMT-108"/>
      <use x="222.265625" xlink:href="#ArialMT-97"/>
      <use x="277.880859" xlink:href="#ArialMT-116"/>
      <use x="305.664062" xlink:href="#ArialMT-111"/>
      <use x="361.279297" xlink:href="#ArialMT-114"/>
      <use x="394.580078" xlink:href="#ArialMT-32"/>
      <use x="422.363281" xlink:href="#ArialMT-50"/>
     </g>
    </g>
    <g id="line2d_27">
     <path d="M 1059.8 128.025937 
L 1111.8 128.025937 
" style="fill:none;stroke:#2ca02c;stroke-linecap:square;stroke-width:1.5;"/>
    </g>
    <g id="line2d_28"/>
    <g id="text_12">
     <!-- oscillator 3 -->
     <g transform="translate(1132.6 137.125937)scale(0.26 -0.26)">
      <use xlink:href="#ArialMT-111"/>
      <use x="55.615234" xlink:href="#ArialMT-115"/>
      <use x="105.615234" xlink:href="#ArialMT-99"/>
      <use x="155.615234" xlink:href="#ArialMT-105"/>
      <use x="177.832031" xlink:href="#ArialMT-108"/>
      <use x="200.048828" xlink:href="#ArialMT-108"/>
      <use x="222.265625" xlink:href="#ArialMT-97"/>
      <use x="277.880859" xlink:href="#ArialMT-116"/>
      <use x="305.664062" xlink:href="#ArialMT-111"/>
      <use x="361.279297" xlink:href="#ArialMT-114"/>
      <use x="394.580078" xlink:href="#ArialMT-32"/>
      <use x="422.363281" xlink:href="#ArialMT-51"/>
     </g>
    </g>
   </g>
  </g>
 </g>
 <defs>
  <clipPath id="pf04e6d5ebd">
   <rect height="217.44" width="828" x="180" y="34.56"/>
  </clipPath>
 </defs>
</svg>
